<?xml version="1.0" encoding="utf-8"?>
<!-- Generator: Adobe Illustrator 26.0.0, SVG Export Plug-In . SVG Version: 6.00 Build 0)  -->
<svg version="1.1" id="Layer_1" xmlns="http://www.w3.org/2000/svg" xmlns:xlink="http://www.w3.org/1999/xlink" x="0px" y="0px"
	 viewBox="0 0 800 730" style="enable-background:new 0 0 800 730;" xml:space="preserve">
<style type="text/css">
	.st0{stroke:#000000;stroke-miterlimit:10; cursor:pointer;}
	.textName{font-family:'Arial'; font-weight:bold; color:#000000; font-size:14px; cursor:pointer;}
</style>
<path id="D014" class="st0" d="M401.7,396.4l-3.4-3.3l-2.9-4.9l-2.7-3.6l-2.9-3.3l-5.5-3.3l-0.5-5.2l-0.1-3.7l-0.4-2.5l-0.4-4.3
	l-1-0.8l-0.3-2.3l-0.4-2.9l-1-2.2l-1.3-0.2l-0.9-3.3l-1.3-0.2l-0.6-2.2l-1.3-2.2l-0.7-1.4l-1-1.8v-2l-2.1-1.4l-1.2-1.4l-1.9-0.4
	l-0.6-2.3h-2.1l-2.6,0.8l-2.8,0.6l-3.8-0.8l-0.3-2.5l0.3-3.3l0.1-3.5l-0.4-2.9l1.9-2l1.9-0.8l0.3-1.8h1.9l2.1-0.8l1.2-1.4l0.9-1.6
	v-2.9l1-2l0.6-2.1l1.4-2.4l2.6-1.4v-2.2v-1.2l0.3-3.3l0.4-2.9l-1.5-1.4l-0.3-1.2H368l-3.1-0.2h-2.6l-3.7,0.4l-1.9-1.2l-0.7-1.4
	l1.5-2l1.3-2l0.6-1.2l1.3-2l1.3-0.6l1.5-0.6l1.5-1.2l2.2-2l2.8-0.4h2.1l1.2-1l1.6-2l1.5-1.2l2.8-2.3l1.9-1.4l1.3-2.5l1.2-2.2
	l1.2-2.3l1.5-2l1.2-1.8l1.1-1.2l-0.1-0.9l1.2-14.2l2.2-7.5l-0.7-2.1l-0.7-2.2l-0.9-1.2l-0.2-2.2l-0.1-2.3l-0.6-1l-2.3-1.4h-1.5
	l-2.4-0.4l-2.3-1l-2.2-1.8l-1.3-1.2l-1.6-0.8l-1.3-2.3l-0.9-2.2l0.3-2.3l-0.6-0.6l-0.9-2.5l-1.2-2.7l-0.9-1.4l-1.3-1.8l-1.6-1.8
	l-1.6-2.9l0.4-1.8l1.5-2.2l2.2,0.4l1.8-0.4l0.6-2.2l-0.8-2.8l1.3-1.3l1.5-3.1l5.3,0.4l5.6,1.2l2.9-4.3l3.8-3.5l3.5-3.1l2.6-1.6
	l5.6,1.2l8.6,3.1l3.8,1.6l2.3,1l2.3,1.3l3.5-0.3h2l1.4-1.8l2.3-1.3l1.2,1.3l1.6,1.8l1.4,1.3l1.6,2.1l1.6,2.6l3.5,1.6l1.4-2.3l2-2.3
	l2.4-3.7l3.2-0.4l2.9-0.4v2.7h2.6l1.2,1.6h2.9l2.3,0.4l1.8,2.3v2l0.6,2.3l-2.4,4.7l-1,3.9l-2.9,3.6l-2.4,1l-2.4,2.3l-1.5,3.3
	l0.2,4.9l0.7,4.2l1.2,4.6v3.3v2.9l-1.5,2.9h-3.4l-4.2,0.3h-4.2l-4.2,0.3l-2,0.3l-0.2,5.9l-0.7,3.9l-1.5,2.9l-2.9,3.6l-1.5,3.6
	l-1.7,5.9v2l0.5,4.2l2,1.3l1.2,5.2l1,5.2v3.9l2.2,2.3l-0.5,2.9l2.4,2.6l2.2,5.2l0.5,1.3l1.5,2.6l0.5,2.3l1,1.6v3.3l0.2,2l2.2,2.3
	l1.7,2.9l1.7,1.3l1.7,3.3v4.2l-1.5,1.6l-0.7,1.3v3.9l0.2,5.4v4.9v5.2l1.2,2.3l2.9,1.3l2.7,1.6l0.7,2.6l-2.2,2.6l-1,1l-2.4,1.3v3.3
	l0.2,9.1l-0.5,4.6h-2l-1.5,2.6l-2,0.7l-1,2.3l-1,1l0.7,2.6l2,2v2.9l1.2,2l0.2,3.3l-0.2,5.5l0.2,2.3l0.7,2l-1.7,3.3l-3.1-0.1l-1.3,3
	l-3.7,3.3l-5.1,1.3l-4.4,2l-5.4,0.3l-4.6-3.9l-4.9-6.2l-3.9-5.9L401.7,396.4z"/>
<path id="D002" class="st0" d="M307.5,269l-1.3,1.2l-0.6,1.6l-0.7,1.8l-0.4,2l-0.4,2.2l-1.3,2.5l-0.3,2l-2.2,1.8l-1.6,0.8l-1.5,1.4
	l-2.5,1.8v1.6l-1.8,1.6h-1l-3.4-0.2l-2.5,0.2l-0.1,1.8h-2.2l-1.9,0.6l-3.4-0.8l-1.3,1l-1.3,1.4l-2.2,1.9l-0.9,2.4l-1.2,1.8l-1.2,2.3
	l-2.9,2.5l-2.6,1.2l-1.2,2.2l-2.6,2.5l-2.3,2.2l-2.3,2.7l-1.6,2.5l-0.7,3.3l-1.8,1.8l-1.8,1.4l-1.8,1.6l-1.5-0.8l-2.8-2.5l-1.9-1.8
	l-2.2-1.8l-2.2-2.5l-1.5-1.4l-1.5-1.8l-1.3-1.8l-1.8-2.3l-1.3-1.4l-1.8-2v-1.4l0.3-2.3l1.2-2.2l1-1l1.2-1l0.7-2.2L233,296l-1.3-1.4
	l-1.9-1.8l-1.9-2l-1.6-1.8l-2.1-2l-1-1.8l-1.6-0.8l-0.4-2.2l-0.1-3.7v-2.7l0.7-4.5l0.1-2.3l0.9-1l0.2-3l3.5-0.4l1.5-3.1l2.1-3.9h3.5
	l4.1-1.6l0.3-3.5l-1.5-4.7l-1.8-3.1l-0.6-4l5-3.6l4.3-3.3l5.4-4.8l4.7-4.2l2.4-2.6l2.7-4.6l3.9,1.3l4.4-0.7l3.4-2.9l1.7-3.6l1.5-0.3
	l4.4,2.6l1.7,0.8l2.1,0.8l2.5,0.2l4.6-2.4l2.3,1.4l0.9,2.2l0.7,2.2l-2.6,0.8l-0.4,2.5l0.1,9l2.3,0.2l1-0.8l2.1-0.8l1.6-0.8l1.8,1.6
	l2.1,1.8l2.5,1.4h2.3l1.3-0.6l0.7-1.8l1.8-1.8h2.5l1.9,0.6l1.9,0.6l1.5,0.6l0.9,2.2h1.8l0.3,0.1l-0.2,2.5l0.3,2.7v2.3l-0.3,2
	l-0.3,2.9l-0.9,2.9l-1.6,2.9l-1.8,2.2l-2.1,1.2l-1.8,2.9l-1.3,3.1l-0.7,2l-1.5,2.5L307.5,269z"/>
<path id="D009" class="st0" d="M273.7,145.1l-2.4-1.6l-2.2-0.7h-3.4l-3.2,2l-3.9,1.3l-3.9-1l-2.9-2.6l-2-2.9l-2-1l-0.5-2.9v-4.9
	l2-0.7l1.5-4.2l-1.5-3.6l-1.5-1l-2.4-3.9l2.4-2.6l2-3.9l-0.2-4.2l-2.3-2.8l-3.8,1.5l-1.2-4.6l2.2-1.6l2.1-2.5l-4.6-8.2v-8.2l6.7-5.5
	l0.2-4.2l3.2-2l1.2-3.6l0.2-4.9v-5.5l-1.2-7.8l2.7-0.3v-4.9l0.2-5.2l1.9-6.2l0.6-0.2l6.6,6.5l1.2,1.2l2.8,1.1l1.5,1.2l1.9,3l2.1,3.3
	l2.7,2.7l6.5,2.1l5.2,1.2l2.3,0.4l4.9,0.8l0.7-0.2l1.2,0.7h3l10.1,1.4L314,55l7.4-1.6l0.8-0.2l3.4,0.4l3.6,1.3l3.9,3.3l10.5,4.2
	l0.5,0.4l0.8,0.7l3.1,1.4h2.3h2.4l1.9-0.7l0.8-0.7l6.2-2.4l4.3-0.1l1.2-0.6l6.4-1.2l4.6,0.5l2.6,0.8l0.3,0.1l5.8,3l6-0.5l2.9,0.3
	l2,0.9l1.3,1.2V67l-1.8,4.6l0.8,1.8l3.6,2.5l11.5,8.1l3.2,2.7l5.6,2.7l-2.2,3.3l-0.6,6.3l-2.6,1.6l-2.6,1.2l0.3,4.7l2.3,3.9
	l-0.3,4.7l-2.6,0.4l-2.6,2l-0.6,4.7l1.2,4.7l4.4,0.8l3.5,2.3l0.3,3.5l-2.4,4.7l-2.3,3.9l-3.5,3.5l-4.7-2.8l-2.7,2.8L402,148l-3.2-2
	l-3.8-4.3l-3.2,0.4l-1.5,2l-2.6-3.5l-2.3-2.3l-1.8,4.7l-2.9,3.5l-5,2l-6.2,0.8l-4.4-3.1l-2.6-2.3l-2.6-3.9l-2.3-3.5l-1.2-2.3
	l-3.2-6.3l-4.1-1.9l-3.8-2.3l-3.2-1.6l-5.6-0.8l-2.9-0.8l-1.5-3.1l-3.5-0.4l-4.4,0.4l-2.6,3.1l-2.3,3.1l0.6,5.9l4.4,2.3v5.5l-4.4,2
	l-2.3,1.6l-6.6,3.5l-6.2,0.9l-2.3,2.7l-2.8,2.7l-2.6,4.3l-1.5,2.7l-2.1,2.3l-3.8-3.1l-2.6-3.1l-2.1-4.3l-3.2-2.7H278L273.7,145.1z"
	/>
<path id="D008" class="st0" d="M190.7,241.7l-1.2-4.5l-0.4-0.6l-1.9-2.6l-2.4-2.2l-2.2-1.4l-3.8-0.4l-3.1,0.1l-4.1,0.2l-2.5-1.1
	l-3.5-2.6l-1.1-0.4l-0.7-0.3l-1.8,0.4l-3,2.2l-0.9,1.5l-1.8,0.7l-5.3,0.8l-0.9,0.9l-2.6,0.4l-1.1,0.2l-6.8,1.8l-1.2-2.1l-18.7-0.6
	l-2.2-0.1l-1.7-2.6l-1.4-2.1l0.2-3.1l0.3-3.8l3.9-6l-0.1-7l2.7-5.4l5.7-7.7l6.5-11.4l1.1-7.5l3.5-0.3l1.7-2l2-1.6l10.3-0.7l1.2,1.3
	l2.7,2.3l6.9,0.7l2.2-1.3l2.7-2.3l1.1-2.5l2.4-2.6l1.7-2.9l2.9-2l1.5-1.6l1.7-2.6l1.2-1.6h7.8l2.1-4.5l4.3,0.6l5.6,0.7h3.9l3.7-3.9
	l2.9-4.2l1.7-1.3v-5.5V134l2-2.9l2.2-1.6l1.7,2.9l3.4,0.7l1-3.6l0.2-2.9l2-1.3l1.2-1l-0.7-2.9l-1.2-2l-1.7-3.3l2-1.3l2.7,3.6h2.2
	l0.5-2.9l2.7-1.3l-2.9-2.3v-3.3l4.2-0.7l3.7-1.3l2-2.3l2.7-3.6l1.2,4.6l3.8-1.5l2.3,2.8l0.2,4.2l-2,3.9l-2.4,2.6l2.4,3.9l1.5,1
	l1.5,3.6l-1.5,4.2l-2,0.7v4.9l0.5,2.9l2,1l2,2.9l2.9,2.6l3.9,1l3.9-1.3l3.2-2h3.4l2.2,0.7l2.4,1.6l0.7,4.6l1.5,2l0.7,3.6l-0.2,3.3
	l-1.5,2.6v1.3l-2,1.3v3.6l1.5,2.3l3.2,1.3l-1,2.6l-2.4,2.6l-2.4,2l-1.7,2.3l-1.5,2l-0.2,4.2l1.2,4.9l3.3,3.4l1.1,1.2l2,3.6l2.9,4.2
	l3.4,3.6l3.4,0.7l1.7,3.3l1.4,2.2l-4.6,2.4l-2.5-0.2l-2.1-0.8l-1.7-0.8l-4.4-2.6L272,212l-1.7,3.6l-3.4,2.9l-4.4,0.7l-3.9-1.3
	l-2.7,4.6l-2.4,2.6l-4.7,4.2l-5.4,4.8l-4.3,3.3l-5,3.6l0.6,4l1.8,3.1l1.5,4.7l-0.3,3.5l-4.1,1.6h-3.5l-2.1,3.9l-1.5,3.1l-3.5,0.4
	l-2.6-4.7l-2.3-3.1l-3.2-2.7l-5.9-1.2l-4.1-3.9l-2.6-5.1l-5.8-4.6l-0.2-0.2L190.7,241.7z"/>
<path id="D016" class="st0" d="M536.1,547l-2.2-3.8l-2-2.2l-2.8-2.6l-4-2.5l-2.8-1.5l-3.5-0.3l-3.3-0.9l-1.2,0.1l-1.4,0.2l-2.8,1
	l-1,1.7l-1,1.1l0.7,2.5l-0.4,1.7l-0.3,0.5l-0.9,1.3l-0.8,0.9l-0.5,0.2l-5,2.9l-2.9,0.3l-1.7,2h-3.9l-3.9,0.3l-4.4-1.6h-2l-0.5-3.9
	l0.5-3.9l-1.5-2.9l-1.2-1.6l-2.7-1.3l-2-1.3h-2.2l-2.2-1.3l-1.7-1.3l-3.2-2l-2.7-1.3l-2.7-1.3l-2.4-1l-2.4-1.3l-3.2,0.3l-1.2,2
	l-3.2,0.3l-2.9,2.6h-2.4h-2.4l-1.7-4.2l-2.9-1.3l-2.4-2.6l-1.5-2.6l-1.5-4.6l-0.7-14.4l-3.4-0.7l-2.7-0.3l-1.7-1.6l-3.9-2.6
	l-3.9,0.3l-2.7-3.3l-3.9-2.6l-2.2-3.3l-0.5-4.4l0.3-5.7l0.5-2.9l1.7-4.9l1-1l1-5.9v-4.9l0.7-5.5l1-4.6l-0.2-4.2v-4.2l-0.7-4.9
	l-2-4.2l-2-2.6l-1-3.3l-0.5-3.6l-1.2-5.2l-0.2-2.6v-5.2l0.7-2.3l-1.5-6.9l4.2,3.6l3.9,5.9l4.9,6.2l4.6,3.9l5.4-0.3l4.4-2l5.1-1.3
	l3.7-3.3l1.3-3l3.1,0.1l1.7-3.3l3.2,2.3l3.2,5.9l3.9,5.2l4.4,5.2l4.4,4.6l2.9,3.9l4.9,3.9l4.4,2l5.1,3.3l2.4,2.6l4.9,4.2l2.9,2.9
	l3.4,4.2l0.2,3.9l0.7,5.5l1,4.2l2.2-0.3l3.2,1.3l1.2,3.9l3.4,3.3l2.7,4.9l0.5,4.2l3.4-0.3l4.9,0.3l4.6,1l5.4,1l8.1,0.3l6.9-0.3
	l6.9-1h3.9l2.4-2.9l3.4-0.3l3.7-1.6l4.4-2.6l3.9-2.3l1.7-4.2l3.7-3.3l4.7-3.9h4.4l3.7,0.3l3.4,2l1.7,2l3.4,4.9l1,3.9l0.2,6.2v5.9
	l-1.7,3.6l-1.2,4.2l-1.7,3.3l-0.3,7.3l-5.7,0.3l-7.4,1.3l-1.7,1.8l-3.2,1.8l-1.6-0.1l-0.9,0.5l-1.8,0.2l-2.8,0.8l0.2,1.2l-0.7,2.1
	l-1.1,4.9l-0.7,1.7l-0.8,0.7l-1.7,1.1l-0.8,1.2l-2.3,1.9l-0.8,1.8l-1.6,1.1l-3,0.8l-0.9,1.6l-0.5,2l-0.8,1.9l-0.8,0.5L551,539
	l-1.5,1.3l-2.1,2.4h-0.9l-7.7,4.2l-1.3,0.3L536.1,547z"/>
<path id="D011" class="st0" d="M273.7,145.1l3.7,1.3h3.8l3.2,2.7l2.1,4.3l2.6,3.1l3.8,3.1l2.1-2.3l1.5-2.7l2.6-4.3l2.8-2.7l2.3-2.7
	l6.2-0.9l6.6-3.5l2.3-1.6l4.4-2v-5.5l-4.4-2.3l-0.6-5.9l2.3-3.1l2.6-3.1l4.4-0.4l3.5,0.4l1.5,3.1l2.9,0.8l5.6,0.8l3.2,1.6l3.8,2.3
	l4.1,1.9l3.2,6.3l1.2,2.3l2.3,3.5l2.6,3.9l2.6,2.3l4.4,3.1l6.2-0.8l5-2l2.9-3.5l1.8-4.7l2.3,2.3l2.6,3.5l1.5-2l3.2-0.4l3.8,4.3
	l3.2,2l2.1-2.3l2.7-2.8l4.7,2.8l3.5-3.5l2.3-3.9l1.2,2.7l2.1,0.4l1.8,4.3v3.9l-0.3,3.5l2.1,1.2l-1.2,4.3l0.6,3.5l0.9,2.7l2.9-0.9
	l3.3-0.3l5.6-0.4l2.3,2.7l2.6,0.4l0.3,5.1l1.8,1.2l0.6,3.9l0.9,1.6l0.9,2.7l-2.4,3.7l-2,2.3l-1.4,2.3l-3.5-1.6l-1.6-2.6l-1.6-2.1
	l-1.4-1.3l-1.6-1.8l-1.2-1.3l-2.3,1.3l-1.4,1.8h-2l-3.5,0.3l-2.3-1.3l-2.3-1l-3.8-1.6l-8.6-3.1l-5.6-1.2l-2.6,1.6l-3.5,3.1l-3.8,3.5
	l-2.9,4.3l-5.6-1.2l-5.3-0.4l-1.5,3.1l-1.3,1.3l-1.9,1.8l-5.3-0.4l-2.6-2l-2.6-3.9l-2.1-2.7l-3.8-1.2l-5.3,3.5l-4.4,1.2l-6.5-1.2
	l-5.9-1.6l-1.5-3.5l-4.4-1.2h-5.6l-3.8,0.4l-3.5,2.3l-2.6,3.5l-0.6,2.9l-1.1,2.6l-0.4,2l-0.5,2.1l-1.7,0.8l-1.7,1h-1.8l-2.2-1.3
	l-2.3-2.4l-1.5-1.8l-2.2-0.5l-1.7-1.3l-2.4-0.3H285l-2.3,0.5l-2.3,0.5l-1.5,1l-1.6,1l-1.3,1l-1.6,0.5l-1,1.5l-0.8,0.8l-3.3-3.4
	l-1.2-4.9l0.2-4.2l1.5-2l1.7-2.3l2.4-2l2.4-2.6l1-2.6l-3.2-1.3l-1.5-2.3v-3.6l2-1.3v-1.3l1.5-2.6l0.2-3.3l-0.7-3.6l-1.5-2
	L273.7,145.1z"/>
<path id="D021" class="st0" d="M335.4,534.2l2.7,3.8l3.1,1l1.5,2.6l0.6,1.4l2.2,2.5l1.8,2.3l1.8,1.8l3.2,3.1l3.7,2.7l2.9,2.5
	l4.1,2.9l3.1,2.5l2.2,2l1,4.3l2.2,2.7l3.8,3.5l0.9,2.5l-1.2,2.3l-2.2,1.8l-1.9,0.8l-2.3,1.6l-1.6,1.8l-3.1,1.2l-3.6-2.3l-3.2-0.7
	l-4.9-0.7l-2.4-3.3l-1.7-1.3l-5.9-3.3l-3.4-0.7l-1.2,2l-1,3.6l-1,4.9l-2.4,3.9l-2.4,2.6l-2,2.3l-2,2.6l-2.9,2.3l-3.2,3.3l-1,3.9
	l1,3.9l3.2,2.9l3.4,1l2.7,3.3l-0.2,4.2l-2.4,5.2l-2.7,4.9l-2.2,3.9l-4.2,4.2l-2.4,4.2l-3.2,2.9l-2.2,5.4h-3.4l-4.1,3.3l-7.7,0.5
	l-0.7,0.6l-2,0.2h-0.3l-0.7-0.6l-4.6-0.1l-4.7-0.9l-2.4-2.2l-0.9-2.5l-0.2-0.5l-0.5-3.2l0.8-3.9l-0.5-2.4l-3.8-3.6l-0.4-0.5
	l-1.6-1.9l-0.9-3.2l-1-6.6l-0.2-4.1l1.4-4.1l1.9-3.2l2.2-2.4l1.4-3.3l-0.1-2.1l-0.1-0.3l-1.2-2.3l-1.5-1.5l-1.6-3.3l-0.8-7.1l2.4-10
	l1.3-2.4l-0.1-0.9l2.1-4.1l2-4l1.4-3.7l1.2-4.8l-0.7-3.5l-3.3,0.4l-4,2.8l-4,1.4l-0.8,1.3l-0.2,2l0.9,5.2l-1.8,3.9l-3.8,5.5
	l-1.2,0.1l-2.9,0.2l-3.1,1l-1.2-0.6l-1.3,0.1l-4.9,2.7l-0.4,0.2l-2,1.1l-5.9-5.2l-4.7-3.5l-0.4-0.7l-1.2-0.8l-1.2-0.8l-0.8-2.6
	l-0.1-0.2l-0.9-2.7l-0.7-1l-0.7-3.2l-1.1-2.4l-0.4-0.9l-2.7-4.3l-0.8-3.6l0.6-6l-0.2-1.1L226,544l-2.3-3l-1.6-0.8l-3.6-0.4l-0.6-0.1
	l-3.6,0.1h-0.7l-3.5,0.1l-4.2-1.4l-1.9-1.8l-0.4-2.9l0.9-3.1l2.9-3.7l2.4-3l1.4-4.8l-0.1-2l2.9,1.2l2.5,2.5l2.9-1.1l2.5-1.9l2.1-2.5
	l1.8-2.5l2.5-1.6l3.3-1.9h3.5l4.7,1.1l3.5,0.3l1.8,1.6l1.2,2.7l2.5,1.1l2.1-0.3l0.6-7.9l1.2-1.4l1.8,1.6l1.4,4.6l1.2,3.6l1.6,3.3
	l2.3,4.9l1.6,1.1l2.3-0.3l1-1.6l1.6-3.3l-0.8-3.6l-2.3-3.6l-1.6-2.2l2.5-3.6l1.8-2.7l1.6-2.7l2.5,4.1l1.6,1.4l1.8-2.5l-0.6-2.5
	l0.8-4.4l1.4-0.8l2.7,1.1l2.3,1.9l1.7,1.7l3.4-0.4h3.7l2.7,2.2l3.7,5.5l2.5,3.3l1.4,3.3l-1,4.6l-1.5,2l-2.8,1.6l-0.8,3.6l0.4,3.3
	l0.6,3l1.8,1.6l2.3,0.5l1.4,0.8l1.8,1.4h3.5h3.5v-3l1.8-0.8l-0.2-4.1l0.4-2.7l1.6-0.8l2.5,0.3l3.5,2.5l0.4,3.3l0.6,2.7l3.1,0.5
	l0.8,1.6l1.2,2.5l1.4,1.9l0.8,2.7l2.3-0.3l2.3-1.6l0.6-3.8l0.4-4.1L335.4,534.2z"/>
<path id="D007" class="st0" d="M361,657.9l2.1-1l2.5-1.6l2.1-2.9l0.7-3.3l2.2-0.2l1.9-2.2l2.2-0.4h1.3l0.7-1.4l1.6-2.5l1-2l1-2.2
	l0.9-2l1.2-0.8l1.2-2h2.9l4.1,0.4l1.5-1.8l1.3-1.2l1-0.6l1.3-0.8l1.8,1.8h3.1l2.8,0.4l3.7-0.2h2.5l0.9-1.6l2.5-1l-0.1-2.7l-0.3-1.6
	l-1.3-3.1l-2.1-1.6l-2.1-2l-1.3-3l0.7-2l0.1-3.1l2.7-1.5l2.8,0.4l2.2,0.8l2.3-0.2l0.9-2l0.7-2.2l0.3-2.7l0.9-0.4l1.8,0.2l1.3,1.4
	l1.3,1.8l1,2.7l3.8-0.2l3.8-0.4l4.7-0.2l2.8,0.4l1.2-2l0.7-2l-0.3-4.3l-0.3-3.3l0.1-5.9v-2.9l-0.1-2.7l1.5-2.2l2.1-1.6l1.3-1.4
	l2.1-0.4l1.2-1.6l4.3-0.2h4.1l1.5,2.3l1,1.2l2.2,1l2.8-0.6l0.4-1.8l1.9-0.2l1.6,0.2l-0.3-1.4l4.6-0.2l3.2-0.2l2.3-0.4l1.3-1.6l1-1.6
	l0.7-2.2v-4.3l-0.1-3.1l0.3-6.9l0.3-3.5l1.3-0.8l0.3-2l-0.1-3.3l4.4,1.6l3.9-0.3h3.9l1.7-2l2.9-0.3l5-2.9l0.4,2.4l0.1,0.9l1,3.1
	l0.1,0.3l2.1,3.6l0.6,0.8l1.5,1.7l1.1,1.2l1.3,0.7l2,1l3.7,2.9l3.8,3.4l2.4,5l3,7l2.6,3.5l0.3,4.1l-0.9,5.8l-1,3.2l-1.2,2.5
	l-0.5,2.5l0.5,2.9l1.3,2.3l1.9,1.7l1.9,2.1l0.3,1.1L534,613l-3.3,6.7l-0.7,1.1l-3.8,6.4l-2.8,4.3l-0.2,0.2l-3.1,4.6l-3.8,5.7
	l-1.5,3.6l-0.3,1.2l-0.8,2.9l-0.3,0.4l-1.6,2.3l-2.3,3.3l-2.9,2.3l-2.3,1H503h-4l-1.4-0.3l-0.2,0.6l-0.3,1.4l-1.7,4l-1.2,2.6
	l-0.9,1.8l-1.1,2.2l-0.9,1.8l-0.8,1.6l-2.7,2.4l-2.7,2.4l-4.6,2l-3,1.3l-2.3,0.4l-9.1,1.6l-5.3,2.7l-2,1.3l-2.5,1.7l-3.3,3.3l-1,2.4
	l-1.7,11.5l-2.1,4.6l-0.2,0.5l-0.7,1l-0.5,0.2l-0.9-0.4l-1-3l0.4-4.1l-0.2-1.1l-0.2-1h-1.1h-1l-1.7-1.2l-0.8-0.8l1.2-5.9l-0.3-0.2
	l-1.2,0.3l-2.1,1.5l-0.9,0.5l-0.7,0.1L433,700l-0.3,0.1l-3.3,0.6l-3.6-0.5l-2.4-0.4l-1.5-0.3l-1-0.5l-2.9-1.2l-2.9-1.2l-0.3-0.3
	l-2.5-1.2l-1.3,0.5l-0.2,0.3l-0.4,1.2l-2.2-2.1l-4.6-3.5l-1.8-2.7l-0.4-0.3L399,687l-2.8-1.7l-3.3-4.3l-1.2-0.9h-0.2l-1.4-0.2
	l-4.9-0.6l-0.6-0.5l-0.4-0.3l-0.6-3.5l-0.1-0.5l-0.8-1.3l-1.8-0.3l-1.6,1l-2.4,1.5l-2.6,0.9l-1.7-0.3l-2.4-1.8l-1.4-5.6l-0.4-0.6
	l-0.9-1.4l-1-1.4l-0.6-0.3l-1.8-3L361,657.9z"/>
<path id="D018" class="st0" d="M594.2,507.4l0.3-7.3l1.7-3.3l1.2-4.2l1.7-3.6v-5.9l-0.2-6.2l-1-3.9l-3.4-4.9l-1.7-2l-3.4-2l-3.7-0.3
	h-4.4l-4.7,3.9l-3.7,3.3l-1.7,4.2l-3.9,2.3l-4.4,2.6l-3.7,1.6l-3.4,0.3l-2.4,2.9h-3.9l-6.9,1l-6.9,0.3l-8.1-0.3l-5.4-1l-4.6-1
	l-4.9-0.3l-3.4,0.3l-0.5-4.2l-2.7-4.9l-3.4-3.3l-1.2-3.9l-3.2-1.3l-2.2,0.3l-1-4.2l-0.7-5.5l-0.2-3.9l-3.4-4.2l-2.9-2.9l-4.9-4.2
	l-2.4-2.6l-5.1-3.3l-4.4-2L466,430l-2.9-3.9l-4.4-4.6l-4.4-5.2l-3.9-5.2l-3.2-5.9l-3.2-2.3l-0.7-2l-0.2-2.3l0.2-5.5l-0.2-3.3l-1.2-2
	v-2.9l-2-2l-0.7-2.6l1-1l1-2.3l2-0.7l1.5-2.6h2l0.5-4.6L447,360v-3.3l2.4-1.3l1-1l2.2-2.6l-0.7-2.6l-2.7-1.6l-2.9-1.3l-1.2-2.3v-5.2
	V334l-0.2-5.4v-3.9l0.7-1.3l1.5-1.6v-4.2l-1.7-3.3l-1.7-1.3l-1.7-2.9l-2.2-2.3l-0.2-2v-3.3l-1-1.6l-0.5-2.3l-1.5-2.6l-0.5-1.3
	l-2.2-5.2l-2.4-2.6l0.5-2.9l-2.2-2.3v-3.9l-1-5.2l-1.2-5.2l-2-1.3l-0.5-4.2v-2l1.7-5.9l1.5-3.6l2.9-3.6l1.5-2.9l0.7-3.9l0.2-5.9
	l2-0.3l4.2-0.3h4.2l4.2-0.3h3.4l1.5-2.9v-2.9v-3.3l-1.2-4.6l-0.7-4.2l-0.2-4.9l1.5-3.3l2.4-2.3l2.4-1l2.9-3.6l1-3.9l2.4-4.7h2.1h2.1
	l2.6-3.1l0.6-1.2l2.1-1.2l1.2-1.2l1.5,2l3.5,0.8l1.2,1.2l1.5,1.2l2.3,0.8l0.6,1.6l1.8,0.4v3.1l-2.3,3.5l-2.3,3.5l1.8,2.3l1.2,2.3
	l1.5,1.1l3.5,3.2l2.3,3.1l2.1,2l0.6,4.3l0.9,4.3l2.1,0.8l1.8,3.9l3.5,0.8l2.6,2l2.9,1.2l0.3,1.2l2.1,2l2.3,0.4l1.2,2.3l2.3,0.8
	l1.2,2.3l-1.5,2l-0.6,1.2l-2.6,2l1.5,2.7h3.5h3.8h4.7l4.1-0.4l1.2,1.2l0.3,2.3l1.8-0.4l1.5,1.6l2.9,0.8l2.1-2l2.6,0.8l4.1-1.2l3.2,2
	l2.6,2l1.2,3.5l-0.6,2l-3.2,2l0.9,3.1l2.3,3.5l2.6,1.2l0.3,2.3h2.1v2l3.5,0.8l0.9,2.3h0.9l1.5,2l2.3,2l0.9,2l2.9,2.3l2.6,1.6
	l2.3,1.6l4.1,3.1l0.3,4.7l-0.6,3.5l2.3,2.7l-0.6,3.5l0.6,4.7l1.2,3.9v5.9l0.3,16.1l-0.6,3.5l-2.6,1.2l-0.9,3.9l-2.6,1.6l-0.9,2
	l-0.6,3.5l2.3,0.4l2.1,3.9l2.1,0.4v4.3v3.9l13.8,0.8l1.5-4.7h1.8l1.8-2.7l2.3,0.4l2.1-0.8l2.9-1.6l2.3-2.3v-6.3l2.3-2l1.7-0.4
	l4.2,1.6l6.6,8.6l3.7,4l3.2,4.3h4.1l8.5-2.7l2.3,4.1l3.6,2.4l4-0.8l0.2,5.3l-0.6,3.1l4.1,3.9l4.1,4.7l4.7,5.9l1.2,5.1l2.9,4.7
	l2.3,3.9l0.6,7.4l-1.5,5.1l-2.3,3.5l-1.5,4.3l1.8,1.2l5.6,2.3l7.6,1.2l4.1-2l2.1-2.7l2.9-1.2l2.3,2.7l1.8,4.3l2.1,4.3h2.3l7.5,1
	l2,3.2l2.2,4.6l2.7,2.2l0.1,0.4l-0.4,1.7l-0.7-0.1l-1.2-1.2l-2.4-3.4l-1.5-0.6l-3,0.4l-0.7,0.4l-0.6,0.7l-0.3,0.3v0.6l0.5,1.2l1,1
	l-0.5,4.1l-0.8,1.3l-1.1,2.7l-1,1.6l-0.7,1.9l-1.6,1.2l-0.8,2.2l-0.2,1.6l-3.2,0.5l-1.2-1.1H694l-0.6,1.1l-1.7,1l-3.2,0.2l-1.8,0.5
	l-0.2,0.1h-0.1l-1.6-0.2l-2.1,2l-2.8,0.6l-3-1l-2.7-2.1l-0.2-0.8l0.1-2l-0.3-1.1l-1-0.7l-0.9,0.2l-0.8-0.8l0.1-1.8l0.3-1.3l-0.9-0.7
	l-1.1,0.3l-1.9-0.3l-1,0.2l-1.5-0.2l-1.7-0.7l-1.1,0.8l-1.6,2l-2.9-0.3l-3,1.3l-1.4-0.2l-0.6,0.2l-1.5,1.6l-4.1,2.8h-0.6l-2.2-0.9
	l-1.1,0.1l-1.7,0.7l-2.5-0.6l-1.6,0.3l-2.9-1.8l-1.4,0.5h-1.9l-1.5,1l-1,1.8l-1.3,0.8l-1.5,1.5l-1.1,1.5l-0.4,1.4l-0.6,0.8l-0.8-0.1
	l-3.4,2.3l-4.1,4.4l-1.8,0.8l-3.1,1.9l-0.8,1.9l-2.7,2.5l0.4,0.9l-0.2,0.7l-0.9,0.5l-0.8,2.8l-2.5,9.3l-3.7,5.4l-1.5,0.5l-0.1,0.2
	L594.2,507.4z"/>
<path id="D015" class="st0" d="M242,357.3l0.7-7.6l0.5-5.5L243,337l1-3.9l1.7-3.3l2.8-2.6l1.8-1.6l1.8-1.4l1.8-1.8l1.8,1.4l1.7,0.8
	l1.2,2l1.7,0.7h2.7l2-0.2l1.5-0.5l2.7-1.1l2.6-0.8l2.3-1l2.1,1.1l0.9,1.5l0.6,0.8h2.9h2.2l1.2,1.8l1,1l1.6,2l2.6-0.2l1.5-2l2-1.3
	l2,2.6l0.3,3.1l1.6,2.3l3.1,0.4l2.6-1.1l2.7,2.1l12.5,1.4l2.6-2.3l1.9-1.4v-1.4l0.1-1.6l1.5-1l0.1-2.7l1.3,0.2l2.5,0.2l1.6-0.2
	l2.8-0.6l1.2-1.6l1.5-2v-3.1l-0.4-2.3l-1.5-0.8l-0.1-2.3v-3.5l1-0.6l1.5,0.4l1.9-0.6v-2.3h2.8l1.2,0.4l2.1,1.8l2.1,0.2l2.3,0.6
	l1.3-1.6l0.7-1.8V307l-0.1-3.1l0.3-3.9l1.2-0.4l1-1.6l1.3-1.6l0.9-1.4l1-2.9l1-2.2l0.7,1.4l1.9,1.2l3.7-0.4h2.6l3.1,0.2h2.2l0.3,1.2
	l1.5,1.4l-0.4,2.9l-0.3,3.3v1.2v2.2l-2.6,1.4l-1.4,2.4l-0.6,2.1l-1,2v2.9l-0.9,1.6l-1.2,1.4l-2.1,0.8h-1.9l-0.3,1.8l-1.9,0.8l-1.9,2
	l0.4,2.9l-0.1,3.5l-0.3,3.3l0.3,2.5l3.8,0.8l2.8-0.6l2.6-0.8h2.1l0.6,2.3l1.9,0.4l1.2,1.4l2.1,1.4v2l1,1.8l0.7,1.4l1.3,2.2l0.6,2.2
	l1.3,0.2l0.9,3.3l1.3,0.2l1,2.2l0.4,2.9l0.3,2.3l1,0.8l0.4,4.3l0.4,2.5l0.1,3.7l0.5,5.2l-2.3-2.6l-1.3-0.2l-2.8,0.7l-0.9-1.3
	l-1.1-1.6l-1.1-0.2l-0.6-1l-0.9-1.1l-0.9-1.5l-0.4-0.8l-1.1-0.2l-0.6-2.1l-1-1l-0.2-2v-2.3l0.1-2.3l0.1-2.4l-1.3-1.1h-1l-0.5,2.6
	l-1.5,2l-1.1,2.4l-1.8,1.8l-2,1.8l-1,1.1l-0.2,2.4l1,2l1.8,1.8l1.6,1.6l1.6,1.1l0.6,1.5l0.6,2.3l-0.7,0.8l-1.9,0.7l-5.2,0.4
	l-5.9,0.3l-4.9,0.4l-0.9,3.7l-0.5,1.5l-1.2-0.1l-1.5-0.3l-1-0.2l-2.1-0.5l-0.7-0.4l-0.7-1l-1.1-0.1l-0.9-1.5l-2.1-0.8h-1.2l-1.3-0.7
	l-2.6-0.3l-1.6-0.2h-1.5L325,384l-3.2,0.7l-1.5,1.3l-1.5,0.3h-1.7h-3.9h-2.7l-2.2,1.6l-2.7,0.7l-2.9,0.3l-3.9-1.6l-1-2l-0.7-2.3
	l-2.7-1.3h-2.7l-2.2-1.6l-1.4-2.9H287l-1.5-1.4l-1.2-0.4l-1.9-0.8H281l-1.1,0.8l-0.8,0.8l-3.9,1.3h-3.4h-2.7l-2.4,1.6l-1.5,3.6h-5.1
	l-2.4-2.9l-1.7-1.3l-1.2-2.9l-3.7-1.3l-3.4-4.2l-3.4-2.6l-2-2.6V361L242,357.3z"/>
<path id="D001" class="st0" d="M134.7,175.4l-1.2-7.1l-7.3-10.1l-4.3-11.1l-1.4-1.5l-2.9-3.3l-2.1,0.8l-2.1,0.8l-7.7,4.4l-7.1-5
	l-7,1.9l-2.1-2.7l0.2-3.1l2.6-12.4l2.6-2.9l3.6-4.1l9.8-8.6l9-6.1l-2.3-5.6l1.8-8.7l10.8-7.2l-1.3-5.2l-2.9-14.8l2.9-8.6l3.8-5.3
	l5.3-2.1l2.9-1.1l2.7-0.4l4.3,4.4l1.7,1.7l1.5,0.6h2.2l4.4-1.9l1.1-0.5l1.4-0.2l0.8,0.4l4,0.5l3.3,0.3l1.9-0.3l1.5-1.1l5.3-6.1
	l5.8-5.3l1.6-1l3.1-2l0.4-0.7l2.4-0.5l6.4-2.9l2-1.5l1.4-1.6l3.3-6.4l0.9-0.8h1.6l3.3,2.1l0.1,0.1l2,0.7l1-0.2l4.4-3.3l1.6-0.2
	l20.2,3.5l0.7,0.3l1.7,0.7l4.4,3.2l1.7,0.2l4.8-0.4l1.2-0.1l3.6,0.6l0.8,0.7l2.4,0.7l-1.9,6.2l-0.2,5.2v4.9l-2.7,0.3l1.2,7.8V60
	l-0.2,4.9l-1.2,3.6l-3.2,2l-0.2,4.2l-6.7,5.5v8.2l4.6,8.2l-2.1,2.5l-2.2,1.6l-2.7,3.6l-2,2.3l-3.7,1.3l-4.2,0.7v3.3l2.9,2.3
	l-2.7,1.3l-0.5,2.9h-2.2l-2.7-3.6l-2,1.3l1.7,3.3l1.2,2l0.7,2.9l-1.2,1l-2,1.3l-0.2,2.9l-1,3.6l-3.4-0.7l-1.7-2.9l-2.2,1.6l-2,2.9
	v3.3v5.5l-1.7,1.3l-2.9,4.2l-3.7,3.9h-3.9l-5.6-0.7l-4.3-0.6l-2.1,4.5h-7.8l-1.2,1.6l-1.7,2.6l-1.5,1.6l-2.9,2l-1.7,2.9L169,169
	l-1.2,2.6l-2.7,2.3l-2.2,1.3l-6.9-0.7l-2.7-2.3l-1.2-1.3l-10.3,0.7l-2,1.6l-1.7,2L134.7,175.4z"/>
<path id="D005" class="st0" d="M255.9,378.4l-4.2,2.9l-2.9,2.3l-1,3.3h-3.7l-2-3.9l-1.7-3.9l-4.2-5.2l-2.9-2.3l-2.2-3.3l-3-4.1
	l-3.6-4.1l-1.7-1.6l-3.9-3.9H214l-6.1,0.3l-4.4,0.7l-2.2,2.3l-1.7,2.9l-2,2.3l-3.4,0.7l-2,0.7l-3.9-0.3l-3.2-2l-3.4-0.3l-1.2,2.9
	l-1,3.9l0.7,2.6l2.4,1.6l-0.1,4.3l2.8,1.9l-2.2,3.9l-2.9,6.2l-1.5,4.9l-3.5,4.4l0.5-1.3l0.3-3.2l0.9-3.7l-0.3-3l-0.1-0.3l-1.4-3.8
	l-2.8-3.8l-1.3-1.8l-3.2-4.4l-4-6.8l-5.4-7.1l-0.3-0.3l-1.5-0.8l-2.9,1.3v-0.3l-4.2,1.2l-1.8-0.2l-3.5-2.4l-2.8-6.5l-0.8-1.9l-2.2-5
	l-0.1-0.3l-4.9-19.1l-4-7.3l2.1-5.5l6.9-3.4l4.9-5.3l0.9-1.1l2.1-5.3l0.6-1.1l1.6-2.7l0.8-0.7l2.7-2.4l5-1.7l8.2-0.4l2.8-0.7
	l5.5-2.7l4.6-3.2l3.2-2.2l2.5-2.1l5.3-7.6l3.2-8.2l0.5-4.9l-0.1-3.5l-0.1-5.2l-1.7-6.3l5.3-2.2l0.2,0.2l5.8,4.6l2.6,5.1l4.1,3.9
	l5.9,1.2l3.2,2.7l2.3,3.1l2.6,4.7l-0.2,3l-0.9,1l-0.1,2.3l-0.7,4.5v2.7l0.1,3.7l0.4,2.2l1.6,0.8l1,1.8l2.1,2l1.6,1.8l1.9,2l1.9,1.8
	l1.3,1.4l0.3,1.4l-0.7,2.2l-1.2,1l-1,1l-1.2,2.2l-0.3,2.3v1.4l1.8,2l1.3,1.4l1.8,2.3l1.3,1.8l1.5,1.8l1.5,1.4l2.2,2.5l2.2,1.8
	l1.9,1.8l2.8,2.5l1.5,0.8l-2.8,2.6l-1.7,3.3l-1,3.9l0.2,7.2l-0.5,5.5l-0.7,7.6l0.3,3.5v3.9l2,2.6l3.4,2.6l3.4,4.2l3.7,1.3
	L255.9,378.4z"/>
<path id="D012" class="st0" d="M358.7,286.3l-1.8-0.6l-1.2-2l-0.7-1l-2.1-1l-1.6-1l-1.6-1.8l-2.9-1.8l-1.2-1.4l-0.9-1.2l-2.2-1.2
	L340,274l-2.4,0.2l-2.1,1.4l-1.2,2.2l-1.6,1.2l-1.9,0.8l-3.1,2.3l-2.1,0.8h-2.3h-2.1l-1.8-1.4l-0.9-2.2l1.2-1l1.2-0.8l-1.8-1.8
	l-1.6-1.2l-2.3-1l-1.9-1.4h-1.8L310,272l-1.3-0.4l-1.2-2.5l0.6-2.7l1.5-2.5l0.7-2l1.3-3.1l1.8-2.9l2.1-1.2l1.8-2.2l1.6-2.9l0.9-2.9
	l0.3-2.9l0.3-2v-2.3l-0.3-2.7l0.2-2.5l2.2,0.7l2.2-1.2l2.1-1h4.1l1.9-0.8l2.9-1.4l1.3-2.9l2.4-3l2.9-2.3l1.6-1.4l2.6-2l3.2-2.2
	l3.2-2.9l1-1.2l1.6-0.6l2.6-0.4l2.1,1.2l1.3,0.4l1.3,0.8l1.5,1.4l3.1,0.4l1-0.2l2.1-1l2.1-0.4l0.9,2.2l1.3,2.3l1.6,0.8l1.3,1.2
	l2.2,1.8l2.3,1l2.4,0.4h1.5l2.3,1.4l0.6,1l0.1,2.3l0.2,2.2l0.9,1.2l0.7,2.2l0.7,2.1l-2.2,7.5l-1.2,14.2l0.1,0.9l-1.1,1.2L386,262
	l-1.5,2l-1.2,2.3l-1.2,2.2l-1.3,2.5l-1.8,1l-2.8,2.3l-1.5,1.2l-1.6,2l-1.2,1h-2.1l-2.8,0.4l-2.2,2l-1.5,1.2l-1.5,0.6l-1.3,0.6
	l-1.3,2L358.7,286.3z"/>
<path id="D006" class="st0" d="M265.2,382.6l-0.7,3l-2.3,1.1l-1.8,2.2l-0.2,1.4l1.8,2.2l2.3,0.3h3.5h2.1l3.1,1.1l2.1,1.6l1,4.4
	l-0.4,5.2l0.8,3.6l1.2,2.7l-0.2,3.3l-2.5,2.5l-2.7,1.1H269v3l2.7,2.7l0.8,4.1l1,2.5v2.5l-2.3,2.2v2.2l1.4,2.7h1l2.5,2.7l1,1.9v5.5
	l-0.6,6.8l0.4,2.7L275,462l-2.5,0.5l-3.7-0.8l-2.1-1.9l-2.5-1.6l-1.2,1.1l-1.8,1.9l-1.4-0.5l-3.5-0.5l-1.6-1.4l-1.2,4.1l-1.6,0.5
	l-4.5,0.3l-3.7,1.4l0.6,3.6h1.6l3.5,1.4h3.9l6.4,0.5h1.8l2.1,2.5l0.6,2.2l-0.8,3.3l-1.2,4.1l2.9,2.2l0.6,1.9l-0.6,3.3l-3.5,1.4
	l-2.3,0.3l-1.6,0.8l-3.1,0.8l-3.3,0.3l-0.6,3l-0.2,2.5l1,3.6l1,4.9l-1.2,1.4l-0.6,7.9l-2.1,0.3l-2.5-1.1l-1.2-2.7l-1.8-1.6l-3.5-0.3
	l-4.7-1.1h-3.5L228,512l-2.5,1.6l-1.8,2.5l-2.1,2.5l-2.5,1.9l-2.9,1.1l-2.5-2.5l-2.9-1.2l-0.2-6.3l-0.4-0.9l-2.4-2.7l-2.4-1
	l-3.8-0.3l-5.1-3.5l-5.8-1.5l-2.7,0.4l-4.5,0.7l-0.8,0.5l-2.3-0.1l-1.2-1l-1.8-8.2l-3-8.3l-4-5.1l-1.7-2.2l-0.8-0.4l-6.8-8l-2.4-2.2
	l-3.5-2.3l-5.4-1.6l-4.7-0.4l-1.5-0.1l-1.7-1.3l-0.8-1.4l-0.6-5.6v-5.4l0.4-3.1l0.2-0.3l1.3-2.2l0.8-1l2.5-0.6l2.4,0.1l3.5,1.3h0.7
	l2.2-0.1l1.9-0.7l0.5-0.2l2.5-1.9l2.6-2.9l0.4-1.2l10.1-16.1l0.5-0.5l0.3-0.2l2.9-10.1l-0.2-2.1l-0.9-3l-0.2-6.5l3.5-4.4l1.5-4.9
	l2.9-6.2l2.2-3.9l-2.8-1.9l0.1-4.3l-2.4-1.6l-0.7-2.6l1-3.9l1.2-2.9l3.4,0.3l3.2,2l3.9,0.3l2-0.7l3.4-0.7l2-2.3l1.7-2.9l2.2-2.3
	l4.4-0.7l6.1-0.3h4.9l3.9,3.9l1.7,1.6l3.6,4.1l3,4.1l2.2,3.3l2.9,2.3l4.2,5.2l1.7,3.9l2,3.9h3.7l1-3.3l2.9-2.3l4.2-2.9l1.7,1.3
	l2.4,2.9h5.5L265.2,382.6L265.2,382.6z"/>
<path id="D017" class="st0" d="M404.6,485.4l-2.2-0.7l-1.8-0.4l-2.6-0.7l-1.5-0.9l-1.3-0.6l-0.7-1.4l-1.3-0.2l-1.1-1.1l-2-1.1
	l-2.2-3.1l-1.8-3.7l-4.1-2.6l-3.5-2.6h-3.1l-3.9-1.6l-2.5-2.1l-2.7-0.3l-2.9-2.6l-1.2-2.6l-2.7-1.8h-4.3l-1.4-2.1l-2.5-1.8l-3.7-1.8
	l1.8-1.6l2.9-2.9l1.8-2.3l0.8-2.6l0.4-2.3l2-3.1l1.2-3.7l2.2-2.3l0.4-4.2V421l-2.9-1.8l-2.5-2.3l-1.8-3.1l-3.1-2.1l-1.8-1.8
	l-1.8-3.1l-2.7-1l-0.2-1.8l-0.4-3.7l1.8-0.5l2.3-2.1l1.8-1.6l-0.4-2.6l-2.3-2.1l-0.8-3.1l0.3-0.9l0.5-1.5l0.9-3.7l4.9-0.4l5.9-0.3
	l5.2-0.4l1.9-0.7l0.7-0.8l-0.6-2.3l-0.6-1.5l-1.6-1.1l-1.6-1.6l-1.8-1.8l-1-2l0.2-2.4l1-1.1l2-1.8l1.8-1.8l1.1-2.4l1.5-2l0.5-2.6h1
	l1.3,1.1l-0.1,2.4l-0.1,2.3v2.3l0.2,2l1,1l0.6,2.1l1.1,0.2l0.4,0.8l0.9,1.5l0.9,1.1l0.6,1l1.1,0.2l1.1,1.6l0.9,1.3l2.8-0.7l1.3,0.2
	l2.3,2.6l5.5,3.3l2.9,3.3l2.7,3.6l2.9,4.9l3.4,3.3l1.5,6.9l-0.7,2.3v5.2l0.2,2.6l1.2,5.2l0.5,3.6l1,3.3l2,2.6l2,4.2l0.7,4.9v4.2
	l0.2,4.2l-1,4.6l-0.7,5.5v4.9l-1,5.9l-1,1l-1.7,4.9l-0.5,2.9l-0.3,5.7L404.6,485.4z"/>
<path id="D020" class="st0" d="M347.2,449.7l-1.1,2.4l-0.9,2.3v2.3l-1.3,1.8v2.3l-0.3,3.1v1.4l0.1,2.5l-1.8,2.3v2.3l3.1-0.4l1.9,0.4
	l1.6,1.2l2.5,0.6l1.5,2.2l0.9,2.2v2.5l0.1,2l-1.6,0.6v2.9l-2.1,1h-2.3l-1.9,1l-2.1,3.5l-0.9,1.4l-0.9,2.7l-1.3,3.1l-0.6,2l-1.5,2
	L337,506l-1,3.6l-2.4,1.3l-0.9,2l-0.1,3.1l0.9,2.3l0.7,1.4l-1.2,2.2v2.9v2.5l0.6,2.5l1.7,4.3L333,536l-0.4,4.1L332,544l-2.3,1.6
	l-2.3,0.3l-0.8-2.7l-1.4-1.9l-1.2-2.5l-0.8-1.6l-3.1-0.5l-0.6-2.7l-0.4-3.3l-3.5-2.5l-2.5-0.3l-1.6,0.8l-0.4,2.7l0.2,4.1l-1.8,0.8v3
	H306h-3.5l-1.8-1.4l-1.4-0.8l-2.3-0.5l-1.8-1.6l-0.6-3l-0.4-3.3l0.8-3.6l2.8-1.6l1.5-2l1-4.6l-1.4-3.3l-2.5-3.3l-3.7-5.5l-2.7-2.2
	h-3.7l-3.4,0.4l-1.7-1.7l-2.3-1.9l-2.7-1.1l-1.4,0.8l-0.8,4.4l0.6,2.5l-1.8,2.5l-1.6-1.4l-2.5-4.1l-1.6,2.7l-1.8,2.7l-2.5,3.6
	l1.6,2.2l2.3,3.6l0.8,3.6l-1.6,3.3l-1,1.6l-2.3,0.3l-1.6-1.1l-2.3-4.9l-1.6-3.3l-1.2-3.6l-1.4-4.6l-1.8-1.6l-1-4.9l-1-3.6l0.2-2.5
	l0.6-3l3.3-0.3l3.1-0.8l1.6-0.8l2.3-0.3l3.5-1.4l0.6-3.3l-0.6-1.9l-2.9-2.2l1.2-4.1l0.8-3.3l-0.6-2.2l-2.1-2.5h-1.8l-6.4-0.5h-3.9
	l-3.5-1.4h-1.6l-0.6-3.6l3.7-1.4l4.5-0.3l1.6-0.5l1.2-4.1l1.6,1.4l3.5,0.5l1.4,0.5l1.8-1.9l1.2-1.1l2.5,1.6l2.1,1.9l3.7,0.8l2.5-0.5
	l2.1-2.2l-0.4-2.7l0.6-6.8v-5.5l-1-1.9L274,440h-1l-1.4-2.7v-2.2l2.3-2.2v-2.5l-1-2.5l-0.8-4.1l-2.7-2.7v-3h3.3l2.7-1.1l2.5-2.5
	l0.2-3.3l-1.2-2.7l-0.8-3.6l0.4-5.2l-1-4.4l-2.1-1.6l-3.1-1.1h-2.1h-3.5l-2.3-0.3l-1.8-2.2l0.2-1.4l1.8-2.2l2.3-1.1l0.7-3l1.5-3.6
	l2.4-1.6h2.7h3.4l3.9-1.3l0.8-0.8l1.1-0.8h1.3l1.9,0.8l1.2,0.4l1.5,1.4h1.1l1.4,2.9l2.2,1.6h2.7l2.7,1.3l0.7,2.3l1,2l3.9,1.6
	l2.9-0.3l2.7-0.7l2.2-1.6h2.7h3.9h1.7l1.5-0.3l1.5-1.3l3.2-0.7l1.5-2.6h1.5l1.6,0.2l2.6,0.3l1.3,0.7h1.2l2.1,0.8l0.9,1.5l1.1,0.1
	l0.7,1l0.7,0.4l2.1,0.5l1,0.2l1.5,0.3l1.2,0.1l-0.3,0.9l0.8,3.1l2.3,2.1l0.4,2.6l-1.8,1.6l-2.3,2.1l-1.8,0.5l0.4,3.7l0.2,1.8l2.7,1
	l1.8,3.1l1.8,1.8l3.1,2.1l1.8,3.1l2.5,2.3l2.9,1.8v3.7l-0.4,4.2l-2.2,2.3l-1.2,3.7l-2,3.1l-0.4,2.3l-0.8,2.6L352,445l-2.9,2.9
	L347.2,449.7z"/>
<path id="D022" class="st0" d="M322.8,661.3l-1.2-0.7l-1.2-2.3l-0.5-0.9l0,0l0,0l-0.7-0.6l-0.5-0.4l-3.1-1.1l-1-0.9l-2.1-0.5
	l-2.2-0.5l2.2-5.4l3.2-2.9l2.4-4.2l4.2-4.2l2.2-3.9l2.7-4.9l2.4-5.2l0.2-4.2l-2.7-3.3l-3.4-1l-3.2-2.9l-1-3.9l1-3.9l3.2-3.3l2.9-2.3
	l2-2.6l2-2.3l2.4-2.6l2.4-3.9l1-4.9l1-3.6l1.2-2l3.4,0.7l5.9,3.3l1.7,1.3l2.4,3.3l4.9,0.7l3.2,0.7l3.6,2.3l-0.4,2.5l0.7,1.8l1.3,3.1
	l3.1,0.2l0.9,2.3l1.6,0.8l2.6,3.5l2.8,3.1l1,1.8l3.5,1l5.7,1.2l4.6,0.4l3.2,0.6l2.8,0.6l1.9,1.6l2.5,2l2.5,0.2l1.8,0.4l1.3,3l2.1,2
	l2.1,1.6l1.3,3.1l0.3,1.6l0.1,2.7l-2.5,1l-0.9,1.6h-2.5l-3.7,0.2l-2.8-0.4h-3.1l-1.8-1.8l-1.3,0.8l-1,0.6l-1.3,1.2l-1.5,1.8
	l-4.1-0.4h-2.9l-1.2,2l-1.2,0.8l-0.9,2l-1,2.2l-1,2l-1.6,2.5l-0.7,1.4h-1.3l-2.2,0.4l-1.9,2.2l-2.2,0.2l-0.7,3.3l-2.1,2.9l-2.5,1.6
	l-2.1,1l-2.3-0.8l-1.8,0.2h-0.3l-5.1-2.8l-1.3,0.1l-1.8,1.8l-2,2.5l-1.2,2l-0.9,1.6l-0.3,1.1l-2.5,2.6l-1.8,0.5h-1.3l-1.9-1.3
	l-3.1-0.4l-1.1-1.8l-2-1.9l-2-0.2l-5,0.6L322.8,661.3z"/>
<path id="D013" class="st0" d="M253.7,322.5l0.7-3.3l1.6-2.5l2.3-2.7l2.3-2.2l2.6-2.5l1.2-2.2l2.6-1.2l2.9-2.5l1.2-2.3l1.2-1.8
	l0.9-2.4l2.2-1.9l1.3-1.4l1.3-1l3.4,0.8l1.9-0.6h2.2l0.1-1.8l2.5-0.2l3.4,0.2h1l1.8-1.6v-1.6l2.5-1.8l1.5-1.4l1.6-0.8l2.2-1.8l0.3-2
	l1.3-2.5l0.4-2.2l0.4-2l0.7-1.8l0.6-1.6l1.3-1.2l1.2,2.5l1.3,0.4l1.6,0.2h1.8l1.9,1.4l2.3,1l1.6,1.2l1.8,1.8l-1.2,0.8l-1.2,1
	l0.9,2.2l1.8,1.4h2.1h2.3l2.1-0.8l3.1-2.3l1.9-0.8l1.6-1.2l1.2-2.2l2.1-1.4l2.4-0.2l2.6-0.4l2.2,1.2l0.9,1.2l1.2,1.4l2.9,1.8
	l1.6,1.8l1.6,1l2.1,1l0.7,1l1.2,2l1.8,0.6l-1.3,2l-1.5,2l-1,2.2l-1,2.9l-0.9,1.4l-1.3,1.6l-1,1.6l-1.2,0.4l-0.3,3.9l0.1,3.1v2.3
	l-0.7,1.8l-1.3,1.6l-2.3-0.6l-2.1-0.2l-2.1-1.8l-1.2-0.4h-2.8v2.3l-1.9,0.6l-1.5-0.4l-1,0.6v3.5l0.1,2.3l1.5,0.8l0.4,2.3v3.1l-1.5,2
	l-1.2,1.6l-2.8,0.6l-1.6,0.2l-2.5-0.2l-1.3-0.2l-0.1,2.7l-1.5,1l-0.1,1.6v1.4l-1.9,1.4l-2.6,2.3l-12.5-1.4l-2.7-2.1l-2.6,1.1
	l-3.1-0.4l-1.6-2.3l-0.3-3.1l-2-2.6l-2,1.3l-1.5,2l-2.6,0.2l-1.6-2l-1-1l-1.2-1.8h-2.2h-2.9l-0.6-0.8l-0.9-1.5l-2.1-1.1l-2.3,1
	l-2.6,0.8l-2.7,1.1l-1.5,0.5l-2,0.2h-2.7l-1.7-0.7l-1.2-2l-1.7-0.8L253.7,322.5z"/>
<path id="D010" class="st0" d="M372.5,214.2l-2.1,0.4l-2.1,1l-1,0.2l-3.1-0.4l-1.5-1.4l-1.3-0.8l-1.3-0.4l-2.1-1.2l-2.6,0.4
	l-1.6,0.6l-1,1.2l-3.2,2.9l-3.2,2.2l-2.6,2l-1.6,1.4l-2.9,2.3l-2.4,3l-1.3,2.9l-2.9,1.4l-1.9,0.8h-4.1l-2.1,1l-2.2,1.2l-2.2-0.7
	l-0.3-0.1H318l-0.9-2.2l-1.5-0.6l-1.9-0.6l-1.9-0.6h-2.5l-1.8,1.8l-0.7,1.8l-1.3,0.6h-2.3l-2.5-1.4l-2.1-1.8l-1.8-1.6l-1.6,0.8
	l-2.1,0.8l-1,0.8l-2.3-0.2l-0.1-9l0.4-2.5l2.6-0.8l-0.7-2.2l-0.9-2.2l-2.3-1.4l-1.4-2.2l-1.7-3.3l-3.4-0.7l-3.4-3.6l-2.9-4.2l-2-3.6
	l-1.1-1.2l0.8-0.8l1-1.5l1.6-0.5l1.3-1l1.6-1l1.5-1l2.3-0.5l2.3-0.5h3.2l2.4,0.3l1.7,1.3l2.2,0.5l1.5,1.8l2.3,2.4l2.2,1.3h1.8l1.7-1
	l1.7-0.8l0.5-2.1l0.4-2l1.1-2.6l0.6-2.9l2.6-3.5l3.5-2.3l3.8-0.4h5.6l4.4,1.2l1.5,3.5l5.9,1.6l6.5,1.2l4.4-1.2l5.3-3.5l3.8,1.2
	l2.1,2.7l2.6,3.9l2.6,2l5.3,0.4l1.9-1.8l0.8,2.8l-0.6,2.2l-1.8,0.4l-2.2-0.4l-1.5,2.2l-0.4,1.8l1.6,2.9l1.6,1.8l1.3,1.8l0.9,1.4
	l1.2,2.7l0.9,2.5l0.6,0.6L372.5,214.2z"/>
<path id="D019" class="st0" d="M335.4,534.2l-1.7-4.3l-0.6-2.5v-2.5V522l1.2-2.2l-0.7-1.4l-0.9-2.3l0.1-3.1l0.9-2l2.4-1.3l1-3.6
	l1.5-2.5l1.5-2l0.6-2l1.3-3.1l0.9-2.7l0.9-1.4l2.1-3.5l1.9-1h2.3l2.1-1V484l1.6-0.6l-0.1-2v-2.5l-0.9-2.2l-1.5-2.2l-2.5-0.6
	l-1.6-1.2l-1.9-0.4l-3.1,0.4v-2.3l1.8-2.3l-0.1-2.5v-1.4l0.3-3.1v-2.3l1.3-1.8v-2.3l0.9-2.3l1.1-2.4l3.7,1.8l2.5,1.8l1.4,2.1h4.3
	l2.7,1.8l1.2,2.6l2.9,2.6l2.7,0.3l2.5,2.1l3.9,1.6h3.1l3.5,2.6l4.1,2.6l1.8,3.7l2.2,3.1l2,1.1l1.1,1.1l1.3,0.2l0.7,1.4l1.3,0.6
	l1.5,0.9l2.6,0.7l1.8,0.4l2.2,0.7l2.2,3.3l3.9,2.6l2.7,3.3l3.9-0.3l3.9,2.6l1.7,1.6l2.7,0.3l3.4,0.7l0.7,14.4l1.5,4.6l1.5,2.6
	l2.4,2.6l2.9,1.3l1.7,4.2h2.4h2.4l2.9-2.6l3.2-0.3l1.2-2l3.2-0.3l2.4,1.3l2.4,1l2.7,1.3l2.7,1.3l3.2,2l1.7,1.3l2.2,1.3h2.2l2,1.3
	l2.7,1.3l1.2,1.6l1.5,2.9l-0.5,3.9l0.5,3.9h2l0.1,3.3l-0.3,2l-1.3,0.8l-0.3,3.5l-0.3,6.9l0.1,3.1v4.3l-0.7,2.2l-1,1.6l-1.3,1.6
	l-2.3,0.4l-3.2,0.2l-4.6,0.2l0.3,1.4l-1.6-0.2l-1.9,0.2l-0.4,1.8l-2.8,0.6l-2.2-1l-1-1.2l-1.5-2.3h-4.1l-4.3,0.2L448,580l-2.1,0.4
	l-1.3,1.4l-2.1,1.6l-1.5,2.2l0.1,2.7v2.9l-0.1,5.9l0.3,3.3l0.3,4.3l-0.7,2l-1.2,2l-2.8-0.4l-4.7,0.2l-3.8,0.4l-3.8,0.2l-1-2.7
	l-1.3-1.8l-1.3-1.4l-1.8-0.2l-0.9,0.4l-0.3,2.7l-0.7,2.2l-0.9,2l-2.3,0.2l-2.2-0.8l-2.8-0.4l-2.7,1.5l-0.1,3.1l-0.7,2l-1.8-0.4
	l-2.5-0.2l-2.5-2l-1.9-1.6l-2.8-0.6l-3.2-0.6l-4.6-0.4l-5.7-1.2l-3.5-1l-1-1.8l-2.8-3.1l-2.6-3.5l-1.6-0.8l-0.9-2.3l-3.1-0.2
	l-1.3-3.1l-0.7-1.8l0.4-2.5l3.1-1.2l1.6-1.8l2.3-1.6l1.9-0.8l2.2-1.8l1.2-2.3l-0.9-2.5l-3.8-3.5l-2.2-2.7l-1-4.3l-2.2-2l-3.1-2.5
	l-4.1-2.9l-2.9-2.5l-3.7-2.7l-3.2-3.1l-1.8-1.8l-1.8-2.3l-2.2-2.5l-0.6-1.4l-1.5-2.6l-3.1-1L335.4,534.2z"/>
<text transform="matrix(1 0 0 1 371.3252 325.6475)" class="textName">Anantnag</text>
<text transform="matrix(1 0 0 1 244.8677 265.8701)" class="textName">Badgam</text>
<text transform="matrix(1 0 0 1 288.8306 94.7695)" class="textName">Bandipora</text>
<text transform="matrix(1 0 0 1 167.0171 202.4434)" class="textName">Baramulla</text>
<text transform="matrix(1 0 0 1 466.4263 503.8838)" class="textName">Doda</text>
<text transform="matrix(1 0 0 1 313.1821 168.9072)" class="textName">Ganderbal</text>
<text transform="matrix(1 0 0 1 290.8677 566.8701)" class="textName">Jammu</text>
<text transform="matrix(1 0 0 1 421.7661 643.2949)" class="textName">Kathua</text>
<text transform="matrix(1 0 0 1 500.417 398.5)" class="textName">Kishtwar</text>
<text transform="matrix(1 0 0 1 276.354 361.0244)" class="textName">Kulgam</text>
<text transform="matrix(1 0 0 1 139.353 109.2559)" class="textName">Kupwara</text>
<text transform="matrix(1 0 0 1 167.0171 331.6475)" class="textName">Poonch</text>
<text transform="matrix(1 0 0 1 321.8032 260.3652)" class="textName">Pulwama</text>
<text transform="matrix(1 0 0 1 189.4702 443.71)" class="textName">Rajouri</text>
<text transform="matrix(-5.328942e-02 -0.9986 0.9986 -5.328942e-02 391.5965 452.4248)" class="textName">Ramban</text>
<text transform="matrix(1 0 0 1 289.646 458.1973)" class="textName">Reasi</text>
<text transform="matrix(1 0 0 1 339.3833 627.0674)" class="textName">Samba</text>
<text transform="matrix(0.9566 -0.2914 0.2914 0.9566 282.1336 317.1482)" class="textName">Shopian</text>
<text transform="matrix(1 0 0 1 292.5669 211.4375)" class="textName">Srinagar</text>
<text transform="matrix(1 0 0 1 375.9858 555.4727)" class="textName">Udhampur</text>
</svg>
