<?xml version="1.0" encoding="utf-8"?>
<!-- Generator: Adobe Illustrator 26.0.0, SVG Export Plug-In . SVG Version: 6.00 Build 0)  -->
<svg version="1.1" id="Layer_1" xmlns="http://www.w3.org/2000/svg" xmlns:xlink="http://www.w3.org/1999/xlink" x="0px" y="0px"
	 viewBox="0 0 800 730" style="enable-background:new 0 0 800 730;" xml:space="preserve">
<style type="text/css">
	.st0{stroke:#000000;stroke-miterlimit:10; cursor:pointer;}
	.textName{font-family:'Arial'; font-weight:bold; color:#000000; font-size:14px; cursor:pointer;}
</style>
<path id="D055" class="st0" d="M561.6,685.5l-35.1,33.6l-20.7-6.9l-76.2-40.2l-105.1-68.3l-26.8,7.1l-22.9-43.7l-10-1.8l-12.1,10
	l-4.9-1.4l-7-43l6.2-6.2l3.3-14.4l-5.9-13.3l-16-11.5l-26-6.6l0.6-9.2l9.2-13.6l1.5-17.3l-7.4-43.7l-20.4-20l-5.1-17.4l-35.4-53.6
	l-23.8,6.5l-11.4-3.4l-8.2-10.6l10.8-32.8l-1.6-25.8l-9.4-14.7l70.6-54.8l42.8,5.6l18.1-8.9l26.6-30.2l8.2-4.2l-3-21.8l19-10.9
	l16.7-16.8L296.6,61l7.2-6.7l12.3-2.2l11.3-17.2l21.2-12.1l34.5-12l33.8,21.4l23.5,39.4L456.8,85l-4.2,7.7L437.7,98l-13.8,33.3
	l25.7,5.1l22,11.9l31.9-38.8l30.3-26.2l6.7,2.7l18,18.8l7,15.3l-1.7,7.7l-49.5,44.2l7.2,16.3l34.1,20.5l43.1-21.1l66.3,15.6
	l-22.3,129.4l8.4,50.6l39.2,35.1l7.8,55.3l-32.8,45.4l-29.4,50.1l-13.9,33.6l8.6,26.2l-38.1,4.8l-18.8,25.6L561.6,685.5z"/>
<text transform="matrix(1 0 0 1 364.0972 393.2383)" class="textName">Chandigarh</text>
</svg>
