<?xml version="1.0" encoding="utf-8"?>
<!-- Generator: Adobe Illustrator 26.0.0, SVG Export Plug-In . SVG Version: 6.00 Build 0)  -->
<svg version="1.1" id="Layer_1" xmlns="http://www.w3.org/2000/svg" xmlns:xlink="http://www.w3.org/1999/xlink" x="0px" y="0px"
	 viewBox="0 0 800 730" style="enable-background:new 0 0 800 730;" xml:space="preserve">
<style type="text/css">
	.st0{stroke:#000000;stroke-miterlimit:10; cursor:pointer;}
	.textName{font-family:'Arial'; font-weight:bold; color:#000000; font-size:14px; cursor:pointer;}
</style>
<path id="D070" class="st0" d="M533.9,139l-0.8,1.1l0.5,1.3l0.5,0.9l-0.8,1.4l-1,0.3l-1.2-0.1l-0.1,1.7l-1.2,0.9l-1.1,1.1l-1.2,0.6
	l-1.1,0.8l-0.7,2.6l0.5,1.4l-0.4,1.7l-0.5,1l0.5,1.4l0.8,0.4l0.8-0.5l1.1-0.3l1,0.4l0.8,1.4l-0.1,1.6l-0.4,1.1l-1.1,1.4l-1.2,0.5
	L527,162l-0.5-1.1l-1-0.7l-0.8-0.3l-2.1,0.2l-0.8,1l-1-0.1l-1.7,0.3l-0.2,1.2l-1.2,0.5l-1.2,0.9l-0.5,1.5l0.2,1.4l1.3,1l1.6,0.5
	l1,0.6l0.6,0.5l0.6,0.6l0.4,1.4l-1,1.8l-0.5,0.9l-0.4,1l-0.2,0.9l-0.5,0.1l-0.6-1l-0.5-0.7l-0.8-0.4l-0.8-0.5l-0.6,0.1l-0.4,0.7
	l0.5,1l0.1,1.5l-1,2l0.1,1.6l-0.3,1.4l-0.4,1h-1.2l-0.9-0.5l-0.8-0.6l-0.8-0.7l-0.8-1.3l-0.8-1.1l-0.9-1.1l-1-0.9l-1.6-1.2l-0.8-0.8
	l-0.6-0.5l-0.1-0.1l-2.9-0.6l-0.7,1l-1.5,0.5l-0.3,0.8l-0.8,0.5l-0.9-0.6l-1-0.7l-0.9-1.3l-0.1-2.1l0.4-0.7l1.7-0.8l0.5-1.7
	l-3.6-1.1l-1.8-0.4h-1.4l-1.5,1l-0.8,1.2l-1-0.8l-0.7-0.9l-1.1-1.1l0.3-1.6l-0.6-0.9l-0.9-0.6l-2.2-2.2l-0.2-1.1l0.5-2.3L482,157
	l-1.2-0.4l-3.6-0.2l-1.3,1.5l-0.2,1.1v2l-1.3,2.3l-0.9,0.8l-1.8,0.5l-1.7,0.3l-0.8,1.1l-1,1l-1,0.3l-1.1,0.9l-1.8-0.3l-2.8,0.6
	l-4.8,0.7l-2.4,0.8l-1.4,3.3l-2,1.6l-1,1.5l-1.8,1.3l-1.1-0.5l-0.8-3.2l2.6-3.1l0.4-0.9v-0.9l-0.8-0.7l0.3-1.9l-1-0.9l-2.5-0.2
	L444,165l-0.8-0.5l0.3-1l0.9-1.2v-1.1l-0.4-0.8l-1.6-1.1l-0.6-0.8l-0.9-2.1l-1-0.5l-1.3,0.1l-1.1,0.9l-3.4,3.6l-0.5,0.8l-1.9,0.8
	l0.1-1l1.5-0.9l0.6-1.5l0.2-1.3l-0.2-1.9l0.3-1.3l1.6,0.1l3.6-1.2l3.7-0.5l0.8,0.3l0.7-1l0.8-2.6l0.5-0.7l0.5,1.6l3.9-3.2h1.8
	l1.7-2.8l-0.3-1.3l0.6-1.4l0.8,1l1.4-1l1.5,0.2l0.4-1.1l0.7-0.4l1,0.4l0.7-0.6v-1.5l1.4-0.9l0.8-0.9l0.9-1.2l0.6-1.2l-0.6-1.1
	l-0.7-0.5l-3,0.5l-0.4-0.6l1.4-1.9l-0.4-0.7l-1.7-0.1l-0.5-0.8l-0.2-1.8l2-1l2.2-1.4l-0.2-3.2l2-0.9l1.7-0.4l0.9-1.3l0.5-1.3
	l0.9-0.2l0.5,0.8l-0.4,2.3l1,1.4l1.6,0.7h2.6l1.8,0.7l2.3-2.2l0.8-1.6l0.7-0.7l1.1,2.8l1.2,1.2l2.8,1.3l0.4,1.5l-0.2,1.4l1.3,0.7
	l0.9,1.1v0.7l-0.7,2.8l0.1,1.3l0.6,0.8l1.1,0.3l0.8-0.3l0.9-0.6l0.9-1l2.1-3.2l0.6-0.4l1-0.8l0.5-0.8l0.2-0.9l-0.4-0.6l-0.5-0.4
	l-1-0.3l-1.6-0.1l-0.6-0.3l-0.2-0.4v-0.7l0.2-0.7l-0.2-1.1v-1.4l-0.3-0.7l-1.9-1.8l-0.2-0.9l0.3-2.1l0.7-0.9l0.5-2.6l-0.2-1.6
	l-1.1-0.8l-0.1-1.1l0.8-1.1l1.1,0.2l1.1-0.4l0.7-0.6l0.6-1.2l0.4-1.6l0.3-2.3V100l2.7-0.8l1.1-0.6l0.9-0.9l1.1-2l0.9-3.8l0.6-1.2
	l2.1-2.6l1.1-1l0.5-1l0.4-1l0.4-1l0.5-1l0.7-0.8l0.8-0.6l0.7-0.8l0.6-0.9l0.5-1l-0.4-1.1l0.2-1.1l0.6-0.5l0.7,0.8l0.6,0.9l0.5,1
	l0.6,0.9l0.6,0.9l0.6,0.9l0.6,0.9l0.5,1l0.6,0.9l0.7,0.8l0.7,0.8l0.7,0.9l0.6,1l0.7,0.7l0.9-0.6l0.8-0.6l0.9-0.5l0.9,0.2l0.9,0.5
	l1,0.1l0.9,0.3l1.1,1.6l-0.5,0.3l-0.9,0.3l-0.4,0.3l-0.2,0.2l0.3,1l0.4,1.1l0.9,1.9l1.4,1.4l1,0.6l1.3,0.2l1,0.2l1.8,0.6L533,97
	l0.8,0.5l1.7,1l0.9,1.4l0.8,1.6l0.6,1.1v1.6l0.1,2.1l-0.2,0.9l0.6,0.9l1.5-0.3l1.1-0.9l1.2-0.6l1.1,0.2l1.3,0.4l1.6,0.2l0.8,0.6
	l0.7,1.1l0.2,1.1l0.3,0.9l1.7,0.6l1.2,0.4l1.8,0.6l1.1,0.5l1.6,0.6l-0.2,1.3l-0.4,1.1l-0.9,1.2l-1.5-0.3l-1,1.2l-0.8,1.4l-1,1.2
	l-0.8,0.8l-0.5,1l-0.3,1.4l0.8,0.6l0.7,0.6l-0.5,1.6l-0.8,2.4l-1,1.1l-1.2,1.2l-2.1,1.4l-1.2,1.2l-0.8-1.6l-2.1,1.2l-1.5,0.5
	l-1.1,1.4l-0.9,1.9l-0.9,1.4L533.9,139z"/>
<path id="D081" class="st0" d="M332.3,538.7l-0.6,0.5l-0.3,2l0.3,2.2l0.4,1.6l-1.1,1v1.1l-0.9,0.4l-0.1,1.1l-1.7-0.9l-4.9-1.4
	l-1-0.1l-1.1-2.4l-1.6,0.7l-0.2-1.2l-2.2-0.6l-1.3,0.9l-1,1.1l-0.8-0.6l-1.9-0.1l-0.8-2.8l1.8-2l1.3-1.8V535l-1.1-1.4l-4.9-2.5
	l-1.9-0.7l0.2-3.1l-2-0.9l-3.7-0.8l-1.7-0.8l-3-3.8l-1.1-0.8l0.2-2.6l-0.3-0.6l-1.5-0.9l-1.6-0.5l-1.1-1l-1.2,0.3l-0.6-2.6l-1-6.4
	l0.2-2.2l-0.3-0.6l-1.4-0.8l-3.8-0.1l-1.3-2.2l-3.4,0.4l-1.1-6l-1.5-1.2l0.2-1.3l-0.4-1.3l0.3-3.1l-0.5-1.3l-0.2-1.3l-0.6-6.1
	l-0.1-3.3l-0.8-2.1l0.5-1.5l-1.1-1.2l-0.9-3.4l-1.7-2.2l-1-1l0.8-1.9l-0.1-2.6l0.9-1.3l0.7-4.5l-0.5-1.4l-1.2-0.5l-0.6-0.9l-0.2-1.2
	l-1.5-0.7l0.1-8.1l-0.6-0.7l-2.8-5.2l0.3-2.5l4.5-0.7l0.9-2.2l-0.1-2l0.9-0.9l1.2-2l3.2,0.4l0.9-1.1l1.2-0.8l1.7-0.8l5-2l1.8,1
	l2.2,2.7l1.7,2.4l-0.4,1.6l2.2,3.6l0.9-0.3l4.1,5.7l4,1.5h6.7l2.3,1.3l0.9-0.3l1.1-2.6l0.2-1.3l1.5-1.2l1.6-0.5l3.1,2.3l2.5,0.7
	l3.1-3.1l0.4-1.6l0.3-3.8l0.3-1.8l2-0.7l1.9-2.3l0.3-2.3l1.3,0.4l0.3-3.2l0.4-1.6l1-1.7l1.8-1.2l1.9,0.1l1.5,0.8l2.1,2.1l1,1.5
	l3.7,1.2l-0.1-1.2l0.7-2.3l-1.3-4.2l-1.2-4.7l0.4-1.8l1.3-3.4l1.3-0.8l0.9,1.5l1,1.4l2.2,1.4l0.8,0.6l0.8,0.1l1.1-0.7l1-0.1l1.2,0.2
	l0.9-0.2l0.4,0.4l-0.1,3.6l0.4,1.2l1.7,2l0.9,0.6l1.4-0.1l0.7-0.9l0.6-1.9l2.3-2.6l1.1-0.4l3.1,1.7l2.7,0.9l0.5-1.4l0.5-0.7l1.7,0.4
	l0.9,0.1l0.9-0.2l1.3-0.7l1.2-0.4h1.2l1.2,1l0.8,1.2l0.7,1.9l0.2,1.2l-0.8,1.4l-0.7,0.4l0.2,0.6l1.1-0.2l0.7,0.3l-0.1,1l-1.6,3
	l2.5,1.5l1.3,1.3l-2,2.7l-0.2,3.2l0.3,1.1l0.7,0.1l0.6,1.1l3.2,1.9l-0.8,2.2l-0.6,3.6l1.5,0.9l3.6,1l2.1-1.1l2.3,0.6l-1,3.7
	l-0.3,1.7v0.6l0.6,1.4l0.3,1.2l-0.2,1l-0.8,1.6l0.2,0.7l0.9,1.2l0.3,1.5v1.2l-0.7,4.3l2-0.2l1.5-0.8l2.8,0.2l0.6,0.8l2.9,1.5
	l0.6,0.6l0.9,1.8l1.2,1l1.2,0.5l0.6,0.7l0.4,2.1l0.6,0.4l1.4,1.6l0.3,1l0.4,0.8l-0.8,3.9l-1.1,0.9l-0.9,1.3l-0.1,0.9l-1,2v1.2
	l0.5,0.9l3.5,3.8l-0.2,2.4l0.3,0.7l4.6,0.4l2.3,1l0.4,0.8v1.7l-1.2,1.3l0.8,1.4l1.3,1.6l1,2.1v1.2l-1.3,1.6l-1.1,1h-0.7l-1-0.7
	l-0.9,2.9l-1,6.6l-0.9,1.2l-1.2,0.2l-0.7-0.7l-0.4-8.4l-0.9-0.8l-2.4-0.6l-3.2-1.4l-0.5-2L403,501l-0.6,2l-0.2,3.8l-0.1,0.3
	l-1.3-0.1l-0.3,0.6l0.2,0.8l0.9,1.3l0.4,1l-0.5,4.1l-1,4l-1,4.8l-0.5,1.5l-0.3,0.5l-0.7-0.2l-1.3-0.8l-2-0.2l-1.5,1l-0.8,2l0.1,1.1
	l0.9,1.8l0.4,2.5l-0.2,2.7l-0.6,2.3l-2.8-1l-2.7,0.5l-0.9-0.5l-0.4-0.7l-0.3-2.6l-0.3-1.2l-1.9-1.4L382,531l-0.6,1.6l-0.2,2.2
	l-0.5,1l-1,0.1l-0.3,0.6l-1-0.2l-1,0.3l-0.7,1.9l-1.9,0.3l-0.4-0.5v-1.8l-0.1-1.2l-1.2-0.9v-2.3h-1.3l-0.7,2l-0.8,0.8l-1.5-0.2
	l-1.4,0.3l-1.6-0.4l-0.6,1.3l-0.8,3.3l-1.6,0.7l-0.9,2.4l-1,1.1l-1.2,3l-1.8-0.5l-1.8,0.1l-3.1,0.7l-1.4,0.5l-1-0.1l-0.1-0.9
	l0.3-1.9l-1.5-1.8l0.4-4.2l-2.7-1.7l-4.3,0.4L332.3,538.7z"/>
<path id="D876" class="st0" d="M395.9,459.1l1.5-0.8l2.8,0.2l0.6,0.8l2.9,1.5
	l0.6,0.6l0.9,1.8l1.2,1l1.2,0.5l0.6,0.7l0.4,2.1l0.6,0.4l1.4,1.6l0.3,1l0.4,0.8l-0.8,3.9l-1.1,0.9l-0.9,1.3l-0.1,0.9l-1,2v1.2
	l0.5,0.9l3.5,3.8l-0.2,2.4l0.3,0.7l4.6,0.4l2.3,1l0.4,0.8v1.7l-1.2,1.3l0.8,1.4l1.3,1.6l1,2.1v1.2l-1.3,1.6l-1.1,1h-0.7l-1-0.7
	l-0.9,2.9l-1,6.6l-0.9,1.2l-1.2,0.2l-0.7-0.7l-0.4-8.4l-0.9-0.8l-2.4-0.6l-3.2-1.4l-0.5-2l-1.3,1.3l-0.6,2l-0.2,3.8l-0.1,0.3
	L401,507l-0.3,0.6l0.2,0.8l0.9,1.3l0.4,1l-0.5,4.1l-1,4l-1,4.8l-0.5,1.5l-0.3,0.5l-0.7-0.2l-1.3-0.8l-2-0.2l-1.5,1l-0.8,2l0.1,1.1
	l0.9,1.8l0.4,2.5l-0.2,2.7l-0.6,2.3l-2.8-1l-2.7,0.5l-0.9-0.5l-0.4-0.7l-0.3-2.6l-0.3-1.2l-1.9-1.4l-1.7,0.1l-0.6,1.6l-0.2,2.2
	l-0.5,1l-1,0.1l-0.3,0.6l-1-0.2l-1,0.3l-0.7,1.9l-1.9,0.3l-0.4-0.5v-1.8l-0.1-1.2l-1.2-0.9v-2.3H372l-0.7,2l-0.8,0.8l-1.5-0.2
	l-1.4,0.3l-1.6-0.4l-0.6,1.3l-0.8,3.3l-1.6,0.7l-0.9,2.4l-1,1.1l-1.2,3l-1.8-0.5l-1.8,0.1l-3.1,0.7l-1.4,0.5l-1-0.1l-0.1-0.9
	l0.3-1.9l-1.5-1.8l0.4-4.2l-2.7-1.7l-4.3,0.4l-10.4,1.7l-0.6,0.5l-0.3,2l0.3,2.2l0.4,1.6l-1.1,1v1.1l-0.9,0.4l-0.1,1.1l-1.7-0.9
	c-0.3-0.4-0.7-1-1-1.8c-0.5-1.1-0.5-2.1-0.5-2.6c0-0.5,0-0.3,0.1-2.1c0-1.4,0-1.9,0-2.1c0-0.2,0-0.8-0.1-1.7c0-0.4-0.1-0.8-0.2-1.5
	c-0.2-1.4-0.3-2.2-0.5-3.1c-0.2-1-0.4-1.7-0.7-2.6c-0.5-1.2-0.7-1.8-1.4-2.4c-0.3-0.2-0.3-0.2-2-0.9c-1.2-0.5-1.7-0.7-1.9-0.9
	c-1.3-0.8-1.8-2.1-2-2.4c-0.2-0.5-0.5-1.3-0.4-2.3c0.1-1,0.6-1.6,1-2.2c0.5-0.7,1.1-1.1,2.1-1.9c0.4-0.3,1.1-0.8,2.1-1.4
	c1.2-0.7,1.8-1,2.4-1.1c0.7-0.1,1.2,0.1,2.2,0.3c1.7,0.5,1.8,0.8,2.7,0.9c1.1,0.1,2-0.4,2.9-0.9c0.8-0.5,1.6-1.2,3-2.6
	c1.1-1.1,1.1-1.1,1.9-1.9c0.8-0.7,1.7-1.6,3-2.4c0.9-0.6,1.6-0.9,3-1.6c1.9-0.9,2-0.8,3.1-1.4c1.5-0.8,1.3-1,2.7-1.7
	c1.8-0.9,2.1-0.7,3-1.4c1-0.9,0.9-1.4,1.8-1.8c0.9-0.4,1.3,0.1,2.3-0.4c0.6-0.3,1.1-0.7,1.6-1.1c0.3-0.3,0.6-0.6,1.4-1.7
	c1.4-1.8,1.4-2,1.7-2.1c0.9-0.2,1.4,1.1,2.6,1c0.5,0,0.9-0.3,1.5-0.6c0.4-0.3,0.7-0.5,1.5-1.4c0.7-0.8,1.1-1.2,1.7-2
	c0.5-0.7,0.5-0.7,1.6-2.1c0.7-0.9,1-1.3,1.2-1.5c1-1.1,1.9-1.7,2.6-2.2c1.1-0.7,2.1-1.1,3.4-1.7c0.6-0.3,0.9-0.4,1.8-0.8
	c1-0.5,1.5-0.7,2-0.9c1.3-0.7,2.2-1.5,2.6-1.8c0.2-0.2,1-0.9,1.8-2.1c0.3-0.4,0.7-1.1,1.2-2c0.2-0.3,0.7-1.5,1.1-3.1
	c0.2-1,0.3-1.8,0.4-2.6c0.1-0.7,0.1-1.4,0.3-3.1c0.1-0.7,0.1-0.8,0.1-1c0.2-1,0.8-1.7,1.2-2.2c0.7-0.9,1.5-1.6,1.9-1.8
	c0.1-0.1,0.4-0.3,0.8-0.7c0.4-0.3,0.6-0.6,0.8-0.8c0.3-0.3,0.7-0.7,1-1.2C395.2,460.1,395.5,459.6,395.9,459.1z"/>
<path id="D088" class="st0" d="M551.7,651.8l-0.4,1.2l-0.4,0.7l-0.7,2.1l-0.6,0.4l-1.7-0.4l-1.6-0.9l-0.7-0.3l-1.6-1.8l-1.7-1.1
	l-0.6-0.7l-1.8-3.8l-0.9-1.3l-1.1-1.2l-0.7-1.1l-1.2-1.3l-0.6-0.9l-1-0.5l-0.3,0.4L534,642l-0.4,0.5l-0.8-0.6l-0.1-0.4l-0.4-0.5
	l-1.1,0.2l-0.8-0.4l-0.4-1.1l-1-0.7l-0.3-0.4l-0.3-0.6l-0.3-1.5h-1.3l-0.7,0.5h-2l-1.6-1.2l-0.9-0.3L521,635l-0.5-0.3l-1.6-1.5
	l-1.7-1.3l-0.5-0.2l0.4-0.7l0.2-0.8l0.9-1.3l2.9-1.1l1-0.7l0.3-0.7l-0.4-0.8l-0.6-0.5v-0.3l0.8-0.6l0.6-0.9l-0.2-1.3l0.1-1.1
	l0.5-1.7l-0.6-1.5h-0.1l-1-0.6l-0.7-1.6l2.4-0.9l0.8,0.3l1.7-1.2l0.1-2.3l1.3-3.1l-0.4-1.7l0.7-0.8l0.5-1l-0.2-1.6l-1.7-0.7
	l-0.2-1.2l1.6-2.2l0.5-1.2l0.4-1.8l2.1-1.3l0.4-1.5l-0.3-1.1l0.1-1.3l0.4-0.5l1.4,0.2l1.3,0.5l1.6-0.1l1.1,2.8l0.9,1.5l1.2,0.6
	l0.8-0.2l1.5,0.4l0.4,1.9l-1.3,0.4l-0.2,2.2l-0.4,1.4l-2-0.1v3.1l4.4,3l1.1,0.2l1.1,2.5l0.9-0.6l0.4-0.6l1-0.6l0.9,0.6l0.6,0.8
	l1,0.7l0.8,0.1l1,0.9l0.8,1.1l0.3,2.7l-0.3,0.9l-0.9,1.1l0.1,0.1l1.7,1.5l0.6,3.1l-0.8,2.7l-0.2,1.5l0.1,1.2l1.8,1.1l0.4,0.8
	l-0.2,0.3l-0.7,0.9l-1.4,1l-0.5,1.3l0.2,1.3l1,3.5l-1.1,2.8l-0.3,0.9l-1,2l-0.1,0.4l0.2,2l0.8,3.4l0.5,1.5L551.7,651.8z M572.2,534
	l1.2,0.3l0.4,2.2l1.2,2.6l1.3,0.6l1.2,0.9l0.7,0.8l2,0.7l0.9,0.8l-0.1,2l-1.1,0.9l0.4,1.1l2.6,3.1l1,2.1l0.3,2.4l-1.4,1.7l-3,1.9
	l-0.4,0.7l0.3,0.9l1.2,1.3l1.3,0.9l2.2,3.5l-0.3,1.4l0.1,1.6l-0.3,2.5l-0.7,0.3l-2.5-0.4l-1.2,0.8l0.4,1.6l3.1,1.7l2.4,0.8l1.3,0.6
	l0.2,0.1h0.1l2,0.2l2.2-0.2l0.4,1.4l-0.9,1.5l-3.2,2.3l0.2,1.8l0.7,0.8l0.3,2.2l-0.7,1.1h-1l-0.4-1l-2-1.4l-1.3,0.2l0.2,4l0.2,1.7
	l1.5-0.4l0.7-1.7l2.4,0.8l1.5-0.3l1.2,0.4l0.7,1.9l-1.7,2.4l-3.2,1.1l-0.1-1.7l-0.3-0.4l-0.7-0.5l-0.8-0.3l-0.6,0.1l-3.5-0.6
	l-1.1,0.8l-2.3,2.8l-0.7-0.8l0.1-1.1l-1.2-0.4l-1.6,1.5l-1.1-0.2l-1,0.2l-1.1-1.1L570,593l-0.3,1.3l-1-0.5l-0.7-0.7l0.4-1.4l-1-1.5
	l-0.8-1.5l0.4-1.7l1,0.6l1.4-0.5h1.1l-0.4-1.6l-1-1.3l-1.2,0.3l-3.3-2.2l-0.5,0.9l-1,0.8l-1.5,1.7l-1.4-0.8l-1.4-0.6l-3.5-2.2
	l0.7-0.9l0.3-1.5l-1.1,0.4l-0.9,0.7l-0.8,1l-0.7-1l-0.5-1.1l-0.9-1l-3.4-1.8l0.9-1.2l0.5-1.7l-0.3-1.3l-0.9,0.1l-1.5-0.9l-1.1-0.3
	l-0.3,0.7l0.5,2l-0.1,0.9l-1.1-1.1l-1.1-0.6l-0.8-0.9l0.1-0.3l0.2-0.5l-0.1-0.7l-0.2-0.6l-1-0.8l-0.7-1l-0.6-0.5L539,568l-1.2-0.7
	h-0.7l-0.9,0.4l-1,0.1l-0.5-0.8l-0.8-0.8l-1.1-0.5l-1-0.9l-1.1-0.6l-1.6-1.7l-0.4-1.1l-0.2-2.6v-1.4l0.2-1.4l0.1-3.6l-0.4-2.9
	l0.1-1.1l0.3-0.6l2.2-1.8l1.5-1.7l2.2-0.8h2.5l1.7-0.2l1.5-0.5l1.2-0.7l2.8-2.1l0.4-1l0.2-1.7l-0.2-1.2l-0.5-1.3l-1.1-1.2l-1.1-0.2
	l-0.1-0.8l0.3-1.2l0.8-1.3l0.7-0.8l0.9-1l1.8-0.2l1-0.6l1.7-1.8l1.1-0.2l1.2,0.4l1.7,1.1l0.7,0.2l0.9-0.1l1.3-0.8l1.1-1l0.8-0.9
	l0.4-1l0.9-0.6l0.5,0.4l0.9,1.1l2.7,1.2l0.5,1v1.5l0.8,1l1,1l1.9,0.7l1.5,0.3l0.3,0.9l-0.8,0.8l0.5,0.9l1.7,0.6L572.2,534z"/>
<path id="D078" class="st0" d="M312.6,308.5l-4.1,5.5l-0.5,3.3l-4.2,0.4l-0.8,1.2l1.5,5.3l-2.4,1.7l-0.4,2.4l-1.1-0.5l-0.5,1.5
	l-3.1-0.2l-4.6,0.7l-3.5,0.8l-0.9,2.1l-1.7,1.5l0.2,6l-2.6,1.1l-0.4,5.7l-1,1.3l-1.4-1.7l-0.4-4.3l-3.1,1.5l-0.1-1.6l-2.3,1
	l-2.2-0.4l-3.3-8.4l-4.5,2.5l-0.1-3.1l-4,0.9l-0.8-1.7l-2.2-0.1l-3.2-0.9l1,6.2l-5.7,1.2l-0.8,4.8l2.3,2.3l0.3,1.3l1.1,1.5l-1.1,0.9
	l0.1,1.6l-7.8,3l-0.8-0.5l-3.7,0.2l-2.2-2.8L234,355l-3.2,2.4l2.2,3.2l1.3,1.5l-0.8,4l-3.5-0.4l-2.2,1l-0.7-0.7l-0.6-1l-0.5-1.8
	l1-5.4l-0.2-1.9l-0.5-1.7l-1.3-3.3l0.8-1.5l1.5-0.9l1.5,0.1l1.8-1l0.8-1.2l0.1-1.5l-0.4-0.9l-1-1.5l-1.3-1.2l-1.3-1.7l-1.7-0.6
	l-1.4-0.7l-0.1-1.5l0.4-1.4l1.6-3.3l1.3-1.1l1.8-0.3l1.7-0.5h2l1.9-1l1.8-2.9l-2.5-4.5l-0.6-1.7l-0.1-1.8l0.6-1.5l0.2-1.7l-1.8-2.8
	l0.4-1.3l1.3-0.9l2.2-0.3l-0.6-3.4l0.9-1l0.1-1.4l-0.3-2.5l0.9-1.3l1.1-2.3l0.3-1l-0.1-1l-0.4-0.7l-1.3-1.2l-2.1-1.2v-1.4l1.2-2
	l2.1-1.5l1-1.2l0.7-3.4l0.7-2.5l0.2-2.1l0.8-0.4h1.2l1.8,2.1l0.8,0.7h0.3h0.3l-0.2-1.3l-0.5-1.2l-1.9-3.5l0.2-1.2l0.9-0.3l1.8-1.9
	l0.9-0.3l0.5-1.5h1.3l1.4,0.4l0.8-1.9l-0.2-1.4l0.2-1.5l1.1-1l0.9-2.1l0.1-2.6l2-3l1.5,0.2l1.2-0.7l1.2-0.5l1.4-1.2l-0.1-1.7l-1.2-1
	l1.4-1.9l8.5,6.3l1.3,0.8l0.8,3l1.9-1.5l1-1.2l2.2,0.2l1.9,1.2l1.1,4.5l0.9,0.3l3.8-1.4l1.2,0.4l2,0.2l1.5-1.5l0.1-2.8l0.3-1.3
	l2.4,0.4l1.4-0.7l1.1-0.3l1.5,0.7l1.9,3.3l1.4,1.1l1.6-0.7l1.3-11.2l0.6-0.8l2.5,0.2l1.1,0.1l2.5-0.2l1.9-1.4l0.4-0.7l0.6-0.3
	l0.7-0.4l0.1,0.2l1.7,2l2,1.7l3.8-1.7l1.4,0.6v2.4l0.6,2.1l1.2,2.1l0.4,1l1.7,1.3l1.4,3.6l1.3,0.5l1.1,0.6l1.8-1.3l1-0.5l0.9,1.9
	l1.7,1.6l1.5,0.8l0.9,0.3l0.8,0.2l0.4-0.1l0.3-0.1L338,268l0,2l-0.9,2.1l-0.3,1.5l0.1,1.4l1.1,1.4l1.1,2.2l-0.8,2.1l-0.3,2.1
	l0.6,2.3l1.1,3.1l-0.2,2.3l-0.6,1.1l-0.1,1.9l1.1,0.7l0.7,1.9l-0.2,1.3l-0.3,0.8l0.2,1.9l-2.2-1.3l-1.9-1.7l-3.3,5.8l-1.5-0.6
	l-1.3,0.2l-0.2,3.8l-3.4-0.7L326,303l-0.7-1.5l-1.2,1.3l-0.5,3.8l-0.9,1.9l-1.4,1.7l-1.5,0.8l-2.3-1.8l-2.4-0.5l-2.5,1.2V308.5z"/>
<path id="D086" class="st0" d="M474,576.5l-1.1,0.6l-1.1,1.8l-0.8,1.7l-0.5,0.7l-0.6-0.2l-1.1-1.6l-0.3-1.3l-2.1-1.5l-2.9-1.1
	l-0.6-0.3l-0.3-0.2l-0.8-0.7l-0.8-0.7l0,0h-1.7l-1.4,0.4l-1.2-0.4l-1.2,0.2l-0.5-0.2l-0.3-0.1l-0.3-1.1l-0.5-1.4l0.7-3.1l0.6-2.8
	l0.1-2.6l-1.6-0.4l-2.3-0.2l-0.7-0.6l0.1-0.9l0.6-1.8v-1.9l0.2-1.6l-0.5-2l0.8-2.6l0.3-2l-0.4-1.8l-0.8-1.4l-1.2-1.1l-1-1.8l1.2-0.9
	l2.6-2.5l0.8,0.3l0.3-0.4l-0.5-0.9l0.4-2.2l0.6-2.4l0.3-0.4l1.5,0.1l2.9-1.1l0.1-1.7l-0.5-3.1l0.3-2.2l1.8,0.4l1.6,1.3l1.2,2.7
	l0.8,1l1.3,0.4h1.3l0.5-0.5l0.8-1.7l0.6-0.4l0.7,0.1l0.3,0.4l1.7,1.2h0.9l2.9-1.9l1.5-5.2l0.4-0.5l0.6-0.1l5.5,0.8l2.6,0.1l1.3-1
	l1.2-0.5l1.1-1l0.6-0.3l1.7,0.6l2.2-0.9l1.7,0.7l1.8,0.5l3.8-2.9l1.3,0.8l2.2,0.8l2.4,1.1l0.9-0.8l0.1-1.3l-1-1l-1.1,0l-0.4-1
	l0.7-1.1l0.9-0.2l1.5,2h0.6l2.1,1l1.3,2l1.1,0.8l1.3,0.3l1.7-1.4l0.8,0.1l2.1,2l0.7,1.1l2.1,1.7l0.7,0.8l-0.7,2.3l-0.3,1.4l0.2,1.3
	l0.5,1l0.4,1.8l0.6,1.5l0.9,1.6l0.9,0.7l1.2,0.1l1.7,0.6l1.5,1.6l0.4,1.5l1.8,2.7l-1.5,1.7l-2.2,1.8l-0.3,0.6l-0.1,1.1l0.4,2.9
	l-0.1,3.6l-0.2,1.4v1.4l0.2,2.6l0.4,1.1l1.6,1.7l1.1,0.6l1,0.9l1.1,0.5l0.8,0.8l0.5,0.8l1-0.1l0.9-0.4h0.7l1.2,0.7l1.4,0.2l0.6,0.5
	l0.7,1l1,0.8l0.2,0.6l0.1,0.7l-0.2,0.5l-0.1,0.3l-1.8,1l0.1,0.1l-2.3,0.8l-0.5,1l-0.2,1l-0.7,0.5l-1,0.7l-0.4,1.1l0.2,2l0.4,0.9
	l-0.5,0.8l-2,1.5l-0.7,0.8l-0.4,1.5l0.1,1l-3.7-2.5l-1-0.2l-0.8-1.3l-1.5-0.4l-1.9,0.9h-1.2l-0.9-0.7l-1.3-0.6l-0.9,0.5l-0.9-0.7
	l-1.5-0.9l-0.6,1.3l-1.1,1.9l-2.4-1.6l0.4-1.2l-0.1-1.5l0.2-1.8l-3.4-0.3l-1.1-0.4l-1.4-0.8l-0.3-4.7l-0.4-2.4l-0.3-4.9l-1.2-4
	l-0.8-0.3l-1-0.1l-0.9,0.4l-0.5-1.4l-1.2-0.3l-1.2,1.1l-1,0.3l-0.9,0.9l-0.7,1.6l-1.1-0.6l-2.5-0.5l-1.9,4.5l-1.8-0.2l-0.6,1
	l2.4,3.5l-0.5,1.8l-2.1,2.8l-1.2,0.2l-1.1-0.7l-1.8-1.8l-1.7,4.3l-1.5,2.8l-3.1-1.6l-0.6-0.5l-4.4-0.8L474,576.5z"/>
<path id="D080" class="st0" d="M351.6,328.7h1.5l4.8-2.4l1.5-0.3l0.9,0.5l0.5,1.5v1.6l0.8,3.1l1.1,0.7l1.1,0.4l1.5,0.1l0.9-0.3
	l0.9,0.7l1.6,2.4l0.8-1.1l0.6-1.7l1-1.2l1.6-1.4l2.8,0.5l1.4,0.4l1.8,1.7l-0.7,0.8l0.6,0.3v3.2l0.3,2.3l-1.1,2.1l-1.2,1.4l-0.4,0.7
	l-0.1,0.8l0.4,1.2l2.4,2.7l0.6,1l-0.2,1.3l-1.1,1.8l-0.3,1.5l-0.9,1.2l1.6,3l0.4,1.5l1.2,1.7l0.9,2.9l1.1,1.1l0.6,1.3l-0.1,3.2
	l0.5,1.4l1.8,0.1l2.6,1.4l2.6-0.2l1.3,0.3l1.4,0.9l1,2.3l0.5,1.5l0.1,2.1l-0.2,2.1l0.4,3.6l0.7,1.7l0.7,3.9l0.3,1l0.7,1.2l-0.4,1.4
	L396,397l-1.3,2.2l-0.2,1.1l-1.5,1.8l-0.2,0.9l-0.5,0.9l-1.5,0.3l-1.6-0.1l-2.3,0.2l-1.1,1l-0.9,1.5l0.6,2.1l0.7,1.9l0.3,2.7
	l-0.8,2.4l0.1,1.1l-0.3,1.4l-1.7,2.9l-1.3-1.3l-2.5-1.5l1.6-3l0.1-1l-0.7-0.3l-1.1,0.2l-0.2-0.6l0.7-0.4l0.8-1.4l-0.2-1.2l-0.7-1.9
	l-0.8-1.2l-1.2-1h-1.2l-1.2,0.4l-1.3,0.7l-0.9,0.2l-0.9-0.1l-1.7-0.4l-0.5,0.7l-0.5,1.4l-2.7-0.9l-3.1-1.7l-1.1,0.4l-2.3,2.6
	l-0.6,1.9l-0.7,0.9l-1.4,0.1l-0.9-0.6l-1.7-2l-0.4-1.2l0.1-3.6l-0.4-0.4l-0.9,0.2l-1.2-0.2l-1,0.1l-1.1,0.7l-0.8-0.1l-0.8-0.6
	l-2.2-1.4l-1-1.4l-0.9-1.5l-1.3,0.8l-1.3,3.4l-0.4,1.8l1.2,4.7l1.3,4.2l-0.7,2.3l0.1,1.2l-3.7-1.2l-1-1.5L337,415l-1.5-0.8l-1.9-0.1
	l-1.8,1.2l-1,1.7l-0.4,1.6l-0.3,3.2l-1.3-0.4l-0.3,2.3l-1.9,2.3l-2,0.7l-0.3,1.8l-0.3,3.8l-0.4,1.6l-3.1,3.1l-2.5-0.7l-3.1-2.3
	l-1.6,0.5l-1.5,1.2l-0.2,1.3l-1.1,2.6l-0.9,0.3l-2.3-1.3h-6.7l-4-1.5l-4.1-5.7l-0.9,0.3l-2.2-3.6l0.4-1.6l-1.7-2.4l-2.2-2.7l-1.8-1
	l-5,2l-1.7,0.8l-1.2,0.8l-0.9,1.1l-3.2-0.4l-0.2-3.3l-0.6-2.6v-0.2v-1.4l-0.9-0.9l-3.4-0.8l-1.6-0.3h-2.3l-3.8,0.8l-0.3-1.2l1.2-4.1
	l-0.5-1.9l-1.2-1.2l0.1-1.8l-6.3-0.7l-1.5-0.4l0.2-2.8l-0.1-1.3l0.3-1.2l-0.3-1.5l-0.1-1.7l1.7-1.8l0.8-1.9l-1.8-1.2l-1.8-0.6
	l-2-1.2l1-1.6l0.2-4.1l1.5-0.3l1.6,0.2l0.9-0.8l1-3.1l-0.1-2.6l-0.5-2.5l-0.7-1l-1-0.7l0.2-1.6l1-1.1l0.9-1.3v-1.4l-0.2-1.7
	l-0.5-1.5l-1.2-0.5l-1.3,0.1l-1.1,0.8l-2.3,1.1l-1.2,1.5l-0.5,3.6l-0.3,0.8l-1.7-0.6l-3.1-1.5l1.3-3.3l0.3-5.6l-0.2-2.5l-0.8-0.7
	l-1.7,1l-1.4,1.5l-1.6,0.9l-1.6,0.2l-0.4,0.7l-1.3-1.5l-2.2-3.2l3.2-2.4l3.3-3.4l2.2,2.8l3.7-0.2l0.8,0.5l7.8-3l-0.1-1.6l1.1-0.9
	l-1.1-1.5l-0.3-1.3l-2.3-2.3l0.8-4.8l5.7-1.2l-1-6.2l3.2,0.9l2.2,0.1l0.8,1.7l4-0.9l0.1,3.1l4.5-2.5l3.3,8.4l2.2,0.4l2.3-1l0.1,1.6
	l3.1-1.5l0.4,4.3l1.4,1.7l1-1.3l0.4-5.7l2.6-1.1l-0.2-6l1.7-1.5l0.9-2.1l3.5-0.8l4.6-0.7l3.1,0.2l0.5-1.5l1.1,0.5l0.4-2.4l2.4-1.7
	l-1.5-5.3l0.8-1.2l4.2-0.4l0.5-3.3l4.1-5.5l0.1,1.5l2.5-1.2l2.4,0.5l2.3,1.8l1.5-0.8l1.4-1.7l0.9-1.9l0.5-3.8l1.2-1.3l0.7,1.5
	l0.5,2.3l3.4,0.7l0.2-3.8l1.3-0.2l1.5,0.6l3.3-5.8l1.9,1.7l2.2,1.3l0.4,2.9l-0.4,1.7l-1.8,3.6l-0.8,0.9l-0.9,1.3l-0.3,1.4l0.1,1.2
	l0.8,1l3.5,1l2.9,1.5l1.4,0.5l1,0.4l0.5,0.5l0.1,0.1l0.1,0.1l0.1,0.1l0.1,0.1l0.1,0.1l0.1,0.1v0.1v0.1v0.1v0.1v0.1v0.1v0.1l-0.1,0.1
	l-0.1,0.1l-0.1,0.1l-0.1,0.1l-0.1,0.1l-0.1,0.1l-0.6,0.5l-0.5,2l0.1,1.4l1,1l1.7,0.8l0.8,0.4l0.6,0.6l0.7,1.7L351.6,328.7z"/>
<path id="D083" class="st0" d="M408.6,552.3l0.4-1.5v-1.3l0.7-3.9l-2.2-0.6l-0.4,0.8l-0.8,0.1v-1.8l-1.5,0.3l-1.1,3.8l-0.7,3l-1.2,1
	h-2.7l-0.4-1.6l-0.6-0.3l-2.9-0.7l-0.9-1.2l-0.2-1.7l0.5-2.4l-2.5-0.3l-0.4-0.5l-0.1-0.5l0.7-1.8l0.3-1.3v-2.4l0.6-2.3l0.2-2.7
	L393,530l-0.9-1.8l-0.1-1.1l0.8-2l1.5-1l2,0.2l1.3,0.8l0.7,0.2l0.3-0.5l0.5-1.5l1-4.8l1-4l0.5-4.1l-0.4-1l-0.9-1.3l-0.2-0.8l0.3-0.6
	l1.3,0.1l0.1-0.3l0.2-3.8l0.6-2l1.3-1.3l0.5,2l3.2,1.4l2.4,0.6l0.9,0.8l0.4,8.4l0.7,0.7l1.2-0.2l0.9-1.2l1-6.6l0.9-2.9l1,0.7h0.7
	l1.1-1l1.3-1.6v-1.2l-1-2.1l-1.3-1.6l-0.8-1.4l1.2-1.3v-1.7l-0.4-0.8l-2.3-1l-4.6-0.4l-0.3-0.7l0.2-2.4l1-0.8l1-2l0.7-2.3l-0.5-1.6
	l-0.1-2.3l1.2,0.1l1-0.4l2.2-1.3l0.7-1l4.7-0.8l1.2,0.3l1.5,0.1l1.2-0.3l2.2,0.2l1.4-0.1l1-1.9l1.1,0.5l2,0.6l4.2,2l1.4-1.4l1-1.7
	l0.5-2l0.1-2.2l-0.1-1.9l0.3-1.1l1-0.9l1.4-0.3l2.3,0.1l1.6-1.7l0.4-1l0.7-1l-0.6-0.9l-1.5-1.5l-0.1-1.3l0.3-1.2l1.8-1.7l0.8,1.1
	l1.3,2.4l0.4,1.5l1.1,0.4l0.4,3.9l2.4,1.4l1.4-0.1l2.4,0.3l-0.2,4l2,1.4l1.8,0.5l1.1-0.1l1.4-1.7l1.2-0.2l1.1,0.5l0.6,1.2l-0.7,2.1
	l1.7,1.2l1,0.4l1.3-1.6l1-2.3l3.7-5l-2-2.7l-2.1-1.9l0.2-1.4l3.7-2l1.1,0.7l0.8,2.2l2.5-0.2l2.6-1.6l0.3-1.5l1-0.7l1-1.2l1.5-0.5
	l1.3-2.6l1.2-3l0.9,0.4l0.3,0.6l0.1,2.1l0.3,1.4l0.5,1.3l0.3,2.4l0.9,0.3l1.5-0.6l1.6,0.6l1.3,1.2l-0.8,2.4v1.2l0.9,1.8l-0.1,1.5
	l0.3,1.9l0.4,0.9l-1.3,3l1.5,1.8l0.5,0.9l-0.2,1.1l0.2,1.1l-1.5,4.1l1.5,1.5l0.6,0.9l-0.1,1l-0.7,1.3l-0.3,1.3l-0.4,0.9l0.2,1.3
	l-0.7,0.4l-2,0.1l-1,1.1l-0.9,2.5l0.1,0.8l2.5,3.3l-1.3,1.8l-0.4,0.1l-2.1-1.9h-1l-1.1,1.1h-0.6l-2.5-1l-2.7,7.4l-1,2.1l-0.7,0.5
	l-2.4-0.3l-0.3,1.9l0.7,5.4l3,1.9l0.4,1.2l2.7,2.8l0.5,0.9l-0.9,2l0.9,1.1l-1.3,1l-2.6-0.1l-5.5-0.8l-0.6,0.1l-0.4,0.5l-1.5,5.2
	l-2.9,1.9h-0.9l-1.7-1.2l-0.3-0.4l-0.7-0.1l-0.6,0.4l-0.8,1.7l-0.5,0.5h-1.3l-1.3-0.4l-0.8-1l-1.2-2.7l-1.6-1.3l-1.8-0.4l-0.3,2.2
	l0.5,3.1l-0.1,1.7l-2.9,1.1l-1.5-0.1l-0.3,0.4l-0.6,2.4l-0.4,2.2l0.5,0.9l-0.3,0.4l-0.8-0.3l-2.6,2.5l-1.2,0.9l-1.2-1.8l-1.2-1.2
	l-1.3-0.8l-1.1-0.2l-0.2,0.4l-0.7,1.5l-0.8,3.4l-0.2,4.4l-0.4,0.9v2l-1.6,0.6l-0.6,3.6l-0.5,0.6l-5.1,0.3l-3.7-1l-1.5-1.4l-0.6-2.1
	l-0.4-2.1l-1.1-0.2l-1.3,0.3l-3.5,3.1l-0.3,0.7l-0.3,0.6l-0.2,1.3l-1.2,0.9l-5.6-2.3l-2.9-0.6l-0.4,1.6l0.7,0.6l1.5,0.7l1.1,0.3
	l-0.4,3.3l-0.3,0.7l-0.4,0.1l-2.3-1.2l-2.5-1.7l-0.4-0.8l0.6-1.9l0.4-2L408.6,552.3z"/>
<path id="D077" class="st0" d="M398,298.7l-0.1-2.7l1.4,0.9l1.1,0.4l0.8-0.9l2.6,0.7l0.9,0.1l0,0l0.7,2.8l-0.2,2.6l1.4,4l2.2,1.3
	l2.2-0.2l1.9-1.1l2.3-0.5l2.5,0.8l1.8,1.1l2.4-0.3l1.6,0.8l1.1,1.9l0,0l0,0l0.4,1.3l1,2.4l1.1,0.7l0.2,1.8l1.9,0.1l1.6-0.4l0.4,0.1
	l0.3,0.8l-1,3.3l0.5,0.3l1,0.2l1.1,1.2l0.8,0.1l0.9-0.2l1.7-1h0.8l0.7-0.3l0.6-0.7l0.7-0.3l1.4-0.2l1.3-0.8l0.9,0.1l1.8-0.6l0.7,0.2
	l0.8,0.5h2.1l2.5-4.3l0.5,0.2l0.7,0.6l4.3,2.3l1.2,0.3l1.1-0.1l1.4-0.9l1.2-0.3l1.4,0.1l1.3,0.6l1.5,1.2l1.1,1.4l-0.9,3.3l-0.3,1.9
	l-0.8,2.1l-1.1,2l-0.4,1.7l0.4,1.8l-0.4,1.8l-0.1,1.2l-0.9,0.6l-1.3,0.2l-1.7,1.1l-2.1-0.3l-0.8,1.1l-1.5,0.5l-1.5,0.1l-0.7,0.9
	l-1.7,0.3l-1.1,0.7l-0.4,1.1v1.4l0.2,2.3l-0.3,1.6l-0.7,1.3L447,352l0.7,1.1l0.4,3.4l0.8,1l0.8,0.5l1.7,1.5l2.7,0.7l0.2,1.4
	l-1.2,0.6H451l-1.4-0.8l-1.1-1.1l-1.7-0.2l-2.3-2l-1.3-0.6l-0.9,0.1l-0.9,0.8h-4l-2,0.6l-0.5,1.9l-0.3,2.7l0.6,2.3l0.3,2l0.7,2.3
	l-0.2,1.6l-0.7,1.8l-1.4,0.9l-1.7-0.1l-1.2-1.3l-0.8-1.5L430,370l-3.6-0.9l-1-0.7l-1.7-0.5l-0.8-1.1l-0.8,0.8l-0.2,1l1,1.7l1.7,2.4
	v2l1.5,5.6l1.4,2l0.5,1.5l-0.6,0.7l-1.1,1l-2.1,2.8l-0.5,1.3l-0.2,1.7l-0.9,3.3l0.1,1.7l-0.2,2l-1,2.7l-1.8,3.6l-0.9,0.9l-1.4,0.5
	l-1-0.3l-1.5-0.9l-1-1.3l-1.9-1.6l-1.1-0.3l-1.4,0.6l-0.9,0.8l-1.5,0.3l-4.7-2.9l-1.7,0.2l-1.3-0.3l-4.9,0.1l0.2-1.1l1.3-2.2
	l0.7-1.5l0.4-1.4l-0.7-1.2l-0.3-1l-0.7-3.9l-0.7-1.7l-0.4-3.6l0.2-2.1l-0.1-2.1l-0.5-1.5l-1-2.3l-1.4-0.9l-1.3-0.3l-2.6,0.2
	l-2.6-1.4l-1.8-0.1l-0.5-1.4l0.1-3.2l-0.6-1.3l-1.1-1.1l-0.9-2.9l-1.2-1.7l-0.4-1.5l-1.6-3l0.9-1.2l0.3-1.5l1.1-1.8l0.2-1.3l-0.6-1
	l-2.4-2.7l-0.4-1.2l0.1-0.8l0.4-0.7l1.2-1.4l1.1-2.1l-0.3-2.3V335l-0.6-0.3l0.7-0.8l-1.8-1.7l-1.4-0.4l-2.8-0.5l-1.6,1.4l-1,1.2
	l-0.6,1.7l-0.8,1.1l-1.6-2.4l-0.9-0.7l-0.9,0.3l-1.5-0.1l-1.1-0.4l-1.1-0.7l-0.8-3.1V328l-0.5-1.5l-0.9-0.5l-1.5,0.3l-4.8,2.4h-1.5
	l-0.9-0.6l-0.7-1.7l-0.6-0.6l-0.8-0.4l-1.7-0.8l-1-1l-0.1-1.4l0.5-2l0.6-0.5l0.1-0.1l0.1-0.1l0.1-0.1l0.1-0.1l0.1-0.1l0.1-0.1V319
	v-0.1v-0.1v-0.1v-0.1v-0.1v-0.1l-0.1-0.1l-0.1-0.1l-0.1-0.1l-0.1-0.1l-0.1-0.1l-0.1-0.1l-0.5-0.5l-1-0.4l-1.4-0.5l-2.9-1.5l-3.5-1
	l-0.8-1l-0.1-1.2l0.3-1.4l0.9-1.3l0.8-0.9l1.8-3.6l0.4-1.7l-0.4-2.9l-0.2-1.9l0.3-0.8l0.2-1.3L340,294l-1.1-0.7l0.1-1.9l0.6-1.1
	l0.2-2.3l-1.1-3.1l-0.6-2.3l0.3-2.1l0.8-2.1l-1.1-2.2l-1.1-1.4l-0.1-1.4l0.3-1.5l0.9-2.1l0.6-2.3l0.2-2.5l0.6-0.2l1.2,0.1l1.2,0.4
	l1.2,0.2l0.9-0.2l0.3-0.1l1.2-0.8l1.5-1.3l2.3-1.8l1.2-0.4l1-0.7l1,0.1l1.2,1l0.2,0.3l0.4,0.6l0.9-0.4l2.7-5.1l0.8-0.9l1.1,0.3
	l0.7-1.1l0.2-1.4v-1.9l0.3-1.8l1.3-0.9l0.7-0.2l0.6-0.2l1.4,0.7l1.1,1.1l1,1.5l0.8-0.6l0.9-1.3l0.8-1.4l1.1-1l2.2,0.1l2.1-0.4l3-2.7
	l0.6-1.9l0.8-0.9l1.3-0.1l1.2,0.5l0.2-0.1l0.8,0.8l-0.7,4l-0.1,5.8l-0.2,9.3l-2.5,5.1l-3,4.5l-1.3,4.5l1.7,3.7l1.9,1.3l1,6.3l1.1,3
	l2,2.6l2.5,2.4l0.7,2.7l1.1,1.9l1.3,0.5l0.5,2.6l0.5,2.6l1,0.5l2.5-0.5l0.8-1.6v-2.2l0.5-2.4l2-0.5L398,298.7z"/>
<path id="D073" class="st0" d="M381.8,242.1l-0.2-1.5l0.3-0.6l0.6-0.3l1.1-0.2l0.9,0.2l0.5-0.4l0.5-0.7l0.4-1.2l0.6-0.8l-0.5-1.4
	l-1-1.1l-1.1-0.8l-1.3,0.3l-1.4-0.6l-1.7,0.5l-2-1l-0.3-1.1l0.1-4.6l-0.3-1.6h-1.7l-0.8-1.1l0.5-1.7l1.5-2h0.9l1,0.4l2.1,0.1
	l0.2-0.7l-0.3-1l-1.4-2.9l0.7-1.6l-0.2-1.4l-0.1-1.1l-0.2-1.1l-0.4-1.3l-0.6-1.6v-0.4v-0.4V207v-0.4v-0.4l0.1-0.4l0.1-0.4l0.3-0.2
	l0.4-0.1l0.4-0.1l0.4-0.1l0.4-0.1l0.4-0.1l0.4-0.1l0.4-0.1l0.3-0.2l0.3-0.3l0.3-0.4l0.1-0.3l-0.2-0.2L382,203l-0.4-0.1l-0.4-0.1
	l-0.4-0.1l-0.4-0.1l-0.4-0.2l-0.3-0.2l-0.2-0.3l0.1-0.4l0.2-0.4l0.2-0.4l0.2-0.4l0.2-0.3l0.3-0.3l0.3-0.3l0.2-0.3l0.2-0.4l0.2-0.4
	l0.2-0.4l0.2-0.4l0.2-0.4l0.2-0.4l0.2-0.4l0.2-0.4l0.2-0.4l0.2-0.4l0.2-0.4l0.2-0.4l0.2-0.4l0.2-0.4l0.2-0.4l0.2-0.4l0.2-0.4
	l0.2-0.4l0.2-0.4l0.2-0.4l0.2-0.3l0.2-0.3l0.2-0.3l0.2-0.3l0.2-0.3l0.2-0.3l0.3-0.3l0.3-0.3l0.3-0.1l0.4,0.1l0.3-0.2l0.2-0.3
	l0.2-0.4l0.2-0.4l0.1-0.5l-0.2-0.3l-0.3-0.1l-0.4-0.1l-0.4-0.1l-0.4-0.1l-0.4-0.1h-0.4h-0.4h-0.4H385l-0.4-0.1l-0.3-0.2l-0.3-0.2
	l-0.3-0.3l-0.3-0.3l-0.3-0.2l-0.3-0.2l-0.3-0.2l-0.3-0.2l-0.3-0.3l-0.2-0.3l-0.2-0.3l-0.2-0.4l-0.2-0.3l-0.2-0.3l-0.3-0.3l-0.3-0.2
	l-0.4-0.1l-0.3-0.2l-0.3-0.2l-0.3-0.2l-0.3-0.2l-0.3-0.3l-0.2-0.4l0.1-0.4l0.3-0.4l0.3-0.1l0.3,0.2l0.3,0.3l0.3,0.3l0.3,0.3l0.3,0.2
	l0.3,0.2l0.3,0.1l0.3-0.1l0.3-0.3l0.1-0.4l-0.2-0.3l-0.2-0.3l-0.2-0.3l-0.2-0.4l-0.1-0.4l-0.1-0.4l-0.2-0.4l-0.2-0.4l-0.2-0.4
	l-0.1-0.4l0.1-0.5l0.2-0.5l0.3-0.1l0.3,0.2l0.3,0.2l0.3,0.3l0.3,0.3l0.3,0.3l0.3,0.3l0.3,0.3l0.3,0.3l0.3,0.3l0.2,0.3l0.2,0.3
	l0.2,0.3l0.2,0.3l0.3,0.3l0.3,0.2l0.3,0.2l0.3,0.3l0.3,0.3l0.2,0.3l0.2,0.3l0.4,0.5l0.3,0.3l0.3,1.2l1,0.6l2.3,0.3l1,0.7l1.2,0.1
	l1-0.7l1.1-0.4l3.1,2.1l1.6,0.1l0.9-0.3l1.5-1.3l1.7-2.5l-0.1-0.8l-2-1.6l-1.1-1.2l-0.4-0.9l2.7-0.9l0.8,0.6l1.5,3.6l0.9,1.2
	l1.7,0.8h1.5l0.9-0.8l-0.2-1.4v-0.9l-0.6-1.6l0.3-0.5l1-0.4l1.1-1l0.3-0.5l-2.1-3.4l-0.9-1l-0.3-0.9l0.9-0.8l0.7-1.1l1.2-1.4
	l1.8-0.7l1.5,0.9l1.4,3.8l0.1,1.4l-0.4,1.1L415,174v1l0.4,0.9l0.2,1.5l0.8,1.4l0.8,0.8l0.7,0.2l0.9-0.2v1.7l-0.3,1.3l0.3,2.5
	l0.4,1.4l0.5,0.9v0.5v0.4l-0.2,0.3l-0.4,0.1l-0.4,0.1l-0.3,0.2l-0.2,0.3v0.4l-0.1,0.4l-0.1,0.4l-0.1,0.4l-0.1,0.4l-0.1,0.4l-0.2,0.4
	l-0.2,0.4l-0.2,0.4l-0.2,0.4l-0.2,0.4l-0.2,0.4l-0.2,0.4l-0.2,0.4l-0.2,0.4l-0.2,0.3l-0.3,0.3l-0.3,0.2l-0.3,0.2l-0.3,0.2l-0.3,0.3
	l-0.3,0.3l-0.2,0.3l-0.2,0.4l-0.2,0.4v0.4l0.1,0.4l0.1,0.4l0.2,0.4l0.2,0.4l0.2,0.4l0.2,0.4l0.2,0.4l0.2,0.3l0.2,0.3l0.2,0.4
	l0.2,0.3l0.3,0.3l0.3,0.3l0.3,0.2h0.4l0.4-0.2l0.3-0.3l0.2-0.4l0.2-0.4l0.2-0.2l0.3,0.1l0.3,0.3l0.3,0.2l0.4,0.1l0.4,0.1l0.4,0.1
	l0.4-0.1l0.4-0.1l0.4,0.1l0.4,0.3v0.3l-0.1,0.4l-0.1,0.4l-0.2,0.4L421,205l-0.2,0.4l-0.2,0.4l-0.2,0.4l-0.2,0.4L420,207l-0.2,0.4
	l-0.2,0.5l0.5,4.3l-1.2,2.4l0.3,0.9l1.1-0.6l1.1,0.2l0.8,1.4l0.7,0.8l-0.6,4.8l-0.8,3.2l-0.5,1.2l1.3,0.9l1.1,0.3h1.5l1.8,0.6
	l2.5,1.3l2.4,4.5l2.7,3.8l1.2-0.6l0.1-1.5l5.4-2l0.6-3.1l-0.2-1.1l-0.9-1.7l-0.1-1.5l2.8-0.5l1.1-0.8l0.1-1.9l1.1-2.5l1.5,0.6
	l2.1-1.8l0.6-1.7l1.1-0.8h1.4l1.1,2.8l1.2-1l0.2,1.4l-0.2,1.4l0.4,1.8l1,2l1.2-2.8l1.7,1.4l0.8,0.4l1-0.6l1.8-0.7l3.7,0.7l-0.4,1.4
	l-0.4,2.2l-0.6,1.1l-1,1.4l-1.1,1l-0.6,1.5l-1,0.6l-1,0.1l-0.9-0.2l-0.5-0.5l-1.5-2.1l-1,0.6l-0.4,1.8l-0.3,2.1l-0.5,1.5l-1.5,0.6
	v0.7l0.7,0.4l0.9,0.3l0.8,1.2l-0.1,3.2l-0.3,1v1.2l2.7,0.8l1.1,0.6l0.5,1.4l-2.1,3.2l-0.4,1.7l-0.2,2l-1.6,2.3l-0.3,1.2l0.1,1
	l1.5,2.2l-0.4,1.5l0.4,2.4l-0.1,1.8l-1,3.6l0.4,1.1l2.9,1.4l0.2,0.7v1.1l-1,1.7l-0.9,1l-0.7-0.5l-0.7-0.9l-0.7-1.3l-0.6-0.2
	l-0.7,2.7l-0.9,0.5l-2.1-0.6l-1.2,0.3l-0.7,1.1l-0.3,1.6l-1.1,1.1l-2.6,1.5l-1.3,1.8l-1.8,1.6l-1,0.1l-1.2-0.4l-1.8,0.4l-1.8-0.3
	l-2.7,1.6l-0.5,0.7l-0.7,0.7l-1.1,0.3l-0.3,0.8l2.4,4.2l0.3,1.1l-0.2,0.8l-0.6,0.7l-0.9,0.3l-1.1,1.2l-1.2,4.1l0.3,1.6l-0.3,0.8
	l-2.4,0.4l-0.4,1.2l-0.9,1.1l-1.3,2.5l-1.1-1.9l-1.6-0.8l-2.4,0.3l-1.8-1.1l-2.5-0.8l-2.3,0.5l-1.9,1.1l-2.2,0.2l-2.2-1.3l-1.4-4
	l0.2-2.6l-0.7-2.8l0,0l-0.9-0.1l-2.6-0.7l-0.8,0.9l-1.1-0.4l-1.4-0.9l0.1,2.7l-2.1,0.1l-2,0.5l-0.5,2.4v2.2l-0.8,1.6L390,306l-1-0.5
	l-0.5-2.6l-0.5-2.6l-1.3-0.5l-1.1-1.9l-0.7-2.7l-2.5-2.4l-2-2.6l-1.1-3l-1-6.3l-1.9-1.3l-1.7-3.7l1.3-4.5l3-4.5l2.5-5.1l0.2-9.3
	l0.1-5.8l0.7-4L381.8,242.1z"/>
<path id="D074" class="st0" d="M482.3,316.1l-0.4,1.8l-1,0.9l-2.1,1l-1.6-0.4l-3.2-2.3l-1.4,0.8l-0.8,1.9l-1.3,0.3l-2.1-0.9
	l-1.5,0.7l-0.8,0.2l-1.1-1.4l-1.5-1.2l-1.3-0.6l-1.4-0.1l-1.2,0.3l-1.4,0.9l-1.1,0.1L456,318l-4.3-2.3l-0.7-0.6l-0.5-0.2l-2.5,4.3
	h-2.1l-0.8-0.5l-0.7-0.2l-1.8,0.6l-0.9-0.1l-1.3,0.8L439,320l-0.7,0.3l-0.6,0.7l-0.7,0.3h-0.8l-1.7,1l-0.9,0.2l-0.8-0.1l-1.1-1.2
	l-1-0.2l-0.5-0.3l1-3.3l-0.3-0.8l-0.4-0.1l-1.6,0.4l-1.9-0.1l-0.2-1.8l-1.1-0.7l-1-2.4l-0.4-1.3l0,0l0,0l1.3-2.5l0.9-1.1l0.4-1.2
	l2.4-0.4l0.3-0.8l-0.3-1.6l1.2-4.1l1.1-1.2l0.9-0.3l0.6-0.7l0.2-0.8l-0.3-1.1l-2.4-4.2l0.3-0.8l1.1-0.3l0.7-0.7l0.5-0.7l2.7-1.6
	l1.8,0.3l1.8-0.4l1.2,0.4l1-0.1l1.8-1.6l1.3-1.8l2.6-1.5l1.1-1.1l0.3-1.6l0.7-1.1l1.2-0.3l2.1,0.6l0.9-0.5l0.7-2.7l0.6,0.2l0.7,1.3
	l0.7,0.9l0.7,0.5l0.9-1l1-1.7v-1.1l-0.2-0.7l-2.9-1.4l-0.4-1.1l1-3.6l0.1-1.8l-0.4-2.4l0.4-1.5l-1.5-2.2l-0.1-1l0.3-1.2l1.6-2.3
	l0.2-2l0.4-1.7l2.1-3.2l-0.5-1.4l-1.1-0.6l-2.7-0.8v-1.2l0.3-1l0.1-3.2l-0.8-1.2l-0.9-0.3l-0.7-0.4v-0.7l1.5-0.6l0.5-1.5l0.3-2.1
	l0.4-1.8l1-0.6l1.5,2.1l0.5,0.5l0.9,0.2l1-0.1l0.8-0.4l0.6-1.5l1.1-1l1-1.4l0.6-1.1l0.4-2.2l0.4-1.4l1.1-1.9l3.3-0.9l0.9-1l0.9-0.4
	l1.2,0.9l0.7,1.3l0.8,0.8l1.3-0.7l1.1,0.8l0.3,2.8l0.3,1.1l1.2,0.2v-1.6l0.1-1.5l1.9-1l1.4-0.5l0.8,0.1l0.4,1l1.8,0.5l1.4,0.1l2,0.8
	l1.7-0.9l5.1,0.6l0.6-0.1l1.2-2l2.1-2.4l1.3-1.2l0.2-1.7l0.8-1.5l3-0.2l0.3,0.1l-0.1,2.9l0.4,0.2l0.6-0.4l1,0.9l1.4,0.6l1.8-1.4
	l0.4-0.1l2.7,1.4l0.9,0.3l0.5-0.7l0.6-0.2l1.4,0.3l3-0.6l2-2.8l1.5-3.2l-0.4-2.3l0.1-0.5l2.6,1.7l0.8,0.7l-0.4,2.8l0.4,0.6l0.7-0.1
	l0.9-0.8l1-0.5h0.6l0.7,0.7h0.5l0.5-0.5l1.4,1.2l1,1.6l0.9,0.7l-0.5,1.6l1.2,1.6l1.2,0.5l3.7-0.4l-1.4,2l-1.1,0.8l-1,1.1l-0.4,1
	l-0.2,0.9L535,229l-0.1,0.8l0.8,1.6v1L535,234v1.7l-0.4,0.9l-0.3,1.5l-1.7,3.3l-0.1,0.6l0.3,3l-0.6,1.1l-1.5,1.6l-0.3,0.6l-0.3,1.3
	l-0.1,0.9l0.4,1.2l-0.3,0.9l-1.6,1.2l-0.8,1.1l-0.9,0.7l-1.3,0.2l-0.8,0.5l-0.2,1l0.3,1.4l-0.2,0.8l-0.6,1.3l-0.2,1.2l0.3,0.8
	l1.2,0.5v1.4l2.8,3.9l0.5,2.4l-0.1,0.9l-0.4,0.3l-1.2,0.2l-1.1,0.5l-0.7,1.1l-0.3,1.2l0.1,1.2l1.8,2.9v0.7l-0.3,0.9l-1.2,1.1
	l-1.9,1.3l-0.3,1.5l-0.5,0.9l-0.6,0.5l0.1,1.7l-0.2,0.6l-0.9,0.9l-0.1,1l-0.3,0.9l-1,1.7l0.2,0.9l0.5,1.3l0.6,0.7l1.3,2.1l0.8,2.2
	l0.5,2.8l-0.8,0.9l-1.4,0.3l-0.9,0.6l-0.5,1.1l-0.2,1.2l0.2,1.1l1.8,3.4l0.9,0.5l1.8,1.3l0.8,1.2l0.5,2.4l-0.5,1.3l-0.8,1l-0.2,1.1
	v1.8l0.6,1.1l1,0.7l-2.3,0.9l-7,0.7l-1.1-0.1l-2.4-1.4l-1.5-0.3l-2.4,0.5l-2.2,0.1l-1.5-0.3l-0.9-0.6l-2.1-2.4l-1.3-1l-1.1,1
	l-1.3,0.9l-1.4-0.1l-1.1-1.3l-2.4-1.2l0.6-1.2l-1.4-0.4l-1-0.6h-0.6l-1.1,1.4l-0.7,1.2l-0.6,0.1l-0.7-1l-0.5-1.4l-0.8-1.2l-0.8-0.6
	l-1.2-0.4l-1.3-0.1L482.3,316.1z"/>
<path id="D072" class="st0" d="M419.8,187.9l1.5,0.4l3.5-0.1l1.2,0.5l0.7,1v1.1l0.3,1.2l0.6,1l1.2-0.6l2.6-0.3l1.3-0.4l3.4-3.4
	l0.7,0.1l0.4,0.1l0.3,0.1l0.3,0.2l0.3,0.2l0.3,0.3l0.3,0.3l0.3,0.3l0.3,0.3l0.3,0.3l0.3,0.2l0.3,0.2l0.2,0.3v0.4l-0.1,0.4l-0.2,0.4
	l-0.3,0.4l-0.2,0.3l0.1,0.2l0.4,0.1h0.4l0.3-0.2l0.3-0.3l0.3-0.3l0.3-0.2l0.3-0.1h0.4h0.4h0.4l0.4-0.1l0.3-0.2l0.3-0.3l0.2-0.3
	l0.2-0.3l0.2-0.3l0.3-0.3l0.3-0.3l0.3-0.3l0.3-0.3l0.3-0.3l0.3-0.3l0.9-1.4l0.2-0.8l0.1-1l-0.1-0.7l-0.3-0.6l0.1-0.9l0.6-1.9l0.1-1
	l-1-2.1v-1l0.7-1.2l1.1,0.5l1.8-1.3l1-1.5l2-1.6l1.4-3.3l2.4-0.8l4.8-0.7l2.8-0.6l1.8,0.3l1.1-0.9l1-0.3l1-1l0.8-1.1l1.7-0.3
	l1.8-0.5l0.9-0.8l1.3-2.3v-2l0.2-1.1l1.3-1.5l3.6,0.2l1.2,0.4l0.6,0.5L483,159l0.2,1.1l2.2,2.2l0.9,0.6l0.6,0.9l-0.3,1.6l1.1,1.1
	l0.7,0.9l1,0.8l0.8-1.2l1.5-1h1.4l1.8,0.4l3.6,1.1l-0.5,1.7l-1.7,0.8l-0.4,0.7l0.1,2.1l0.9,1.3l1,0.7l0.9,0.6l0.8-0.5l0.3-0.8
	l1.5-0.5l0.7-1l2.9,0.6l0.1,0.1l0.6,0.5l0.8,0.8l1.6,1.2l1,0.9l0.9,1.1l0.8,1.1l0.8,1.3l0.8,0.7l0.8,0.6l0.9,0.5h1.2l0.4-1l0.3-1.4
	l-0.1-1.6l1-2l-0.9-1l-0.5-1l0.4-0.7l0.6-0.1l0.8,0.5l0.8,0.4l0.5,0.7l0.6,1l0.5-0.1l0.2-0.9l0.4-1l0.5-0.9l1-1.8l0.4,0.5l0.5,0.8
	l0.6,1l0.4,0.3l0.9,0.1h0.9l0.6,0.6l0.7,0.9l1.1,0.1l0.7,0.3l0.7,0.7l-0.2,0.7l-0.5,1.2l0.8,0.6l0.9,0.2l1.6,0.7l1.2,0.9l0.5,1.2
	v1.6l-0.5,1l0.5,1.2l-0.5,0.9L532,188l0.2,0.7l1,1l0.7,1.3l-0.7,1.6l-0.6,1.8l0.7,1l2.6,1.9l1.4,1.2l1.9-1l0.4-0.7l0.5,0.2l0.4,0.9
	l0.6,0.3l0.5,0.8l0.8,0.1l1.5-0.2l1.1,0.5l2-0.7l1.2,0.1l0.8,0.2l-0.1,0.9l0.3,0.9l0.2,1.2l-0.5,1.4l-0.3,1.1l-0.3,0.9l-0.2,1
	l-0.4,1.2l-0.1,0.4l0.3,0.7l-1.3,1.3l-0.1,0.6l-0.7,1l-2.4,1.5l-0.4,1.6l-0.2,1.5l-0.4,0.9l-0.7,0.7l-0.2,0.8l-2,3l-3.7,0.4
	l-1.2-0.5l-1.2-1.6l0.5-1.6l-0.9-0.7l-1-1.6l-1.4-1.2l-0.5,0.5h-0.5l-0.7-0.7h-0.6l-1,0.5l-0.9,0.8l-0.7,0.1l-0.4-0.6l0.4-2.8
	l-0.8-0.7l-2.6-1.7l-0.1,0.5l0.4,2.3l-1.5,3.2l-2,2.8l-3,0.6l-1.4-0.3l-0.6,0.2l-0.5,0.7l-0.9-0.3l-2.7-1.4l-0.4,0.1l-1.8,1.4
	l-1.4-0.6l-1-0.9l-0.6,0.4l-0.4-0.2l0.1-2.9l-0.3-0.1l-3,0.2l-0.8,1.5l-0.2,1.7L499,220l-2.1,2.4l-1.2,2l-0.6,0.1l-5.1-0.6l-1.7,0.9
	l-2-0.8l-1.4-0.1l-1.8-0.5l-0.4-1l-0.8-0.1l-1.4,0.5l-1.9,1l-0.1,1.5v1.6l-1.2-0.2l-0.3-1.1l-0.3-2.8l-1.1-0.8l-1.3,0.7l-0.8-0.8
	l-0.7-1.3l-1.2-0.9l-0.9,0.4l-0.9,1L467,222l-1.1,1.9l-3.7-0.7l-1.8,0.7l-1,0.6l-0.8-0.4l-1.7-1.4l-1.2,2.8l-1-2l-0.4-1.8l0.2-1.4
	l-0.2-1.4l-1.2,1l-1.1-2.8h-1.4l-1.1,0.8l-0.6,1.7l-2.1,1.8l-1.5-0.6l-1.1,2.5l-0.1,1.9L443,226l-2.8,0.5l0.1,1.5l0.9,1.7l0.2,1.1
	l-0.6,3.1l-5.4,2l-0.1,1.5l-1.2,0.6l-2.7-3.8l-2.4-4.5l-2.5-1.3l-1.8-0.6h-1.5l-1.1-0.3l-1.3-0.9l0.5-1.2l0.8-3.2l0.6-4.8l-0.7-0.8
	l-0.8-1.4l-1.1-0.2l-1.1,0.6l-0.3-0.9l1.2-2.4l-0.5-4.3l0.2-0.5l0.2-0.4l0.2-0.4l0.2-0.4l0.2-0.4l0.2-0.4l0.2-0.4l0.2-0.4l0.2-0.4
	l0.1-0.4l0.1-0.4v-0.3l-0.4-0.3l-0.4-0.1l-0.4,0.1l-0.4,0.1l-0.4-0.1l-0.4-0.1l0,0.2l-0.3-0.2l-0.3-0.3l-0.3-0.1l-0.2,0.2l-0.2,0.4
	l-0.2,0.4l-0.3,0.3l-0.4,0.2h-0.4l-0.3-0.2l-0.3-0.3l-0.3-0.3l-0.2-0.3l-0.2-0.4l-0.2-0.3l-0.2-0.3l-0.2-0.4l-0.2-0.4l-0.2-0.4
	l-0.2-0.4l-0.2-0.4l-0.1-0.4l-0.1-0.4v-0.4l0.2-0.4l0.2-0.4l0.2-0.3l0.3-0.3l0.3-0.3l0.3-0.2l0.3-0.2l0.3-0.2l0.3-0.3l0.2-0.3
	l0.2-0.4l0.2-0.4l0.2-0.4l0.2-0.4l0.2-0.4l0.2-0.4l0.2-0.4l0.2-0.4l0.2-0.4l0.1-0.4l0.1-0.4l0.1-0.4l0.1-0.4l0.1-0.4v-0.4l0.2-0.3
	l0.3-0.2l0.4-0.1l0.4-0.1l0.2-0.3v-0.4L419.8,187.9z"/>
<path id="D084" class="st0" d="M361.1,661.3l-3.2-1.3l-0.8,1.1l-0.8,0.8l-0.9-0.2l-0.8-0.8l-0.7-0.4l-0.7,0.1l-1.4-0.8l-1.8-1.1
	l-0.6,1.1l-1.4-0.6l-0.3-0.2l-1.6-0.4l-1.4-0.4h-2l0.2-1.4l1.5-1.3l-0.1-1.7l0.4-1.6l-1.3-1.3l1.6-2.1l-1.6-1.3l-1.8-0.9l-2.2,0.1
	l-2,0.5v-2l-0.8-1.4l0.8-1.8l1.6-2l0.5,1l0.5,1.3l1.5,0.1l1.5,0.5l1.6-4.4l-0.8-0.9l0.9-1.6l1.3-1.8l0.7-0.6l0.1-0.7l-0.8-0.5
	l-1.4,0.6l-1.2-0.5l-1.6-0.4v-1.2l0.2-1.4l0.7-0.2l0.6-0.1l0.4,0.1l0.9,0.2h1.2l1.5-0.6l0.2-1.2l-0.7-1l-1.1-0.1l-1-0.6l-0.3-1.2
	l-0.1-1.5l0.7-1.3l1-0.4l1.7-0.3l3,0.7l0.1-2.2l-0.1-0.6l-0.7-1l1.8-0.3l0.4-0.6l0.5-0.7l1.7-1.3l0.4-1.1l-0.2-1.3l-0.5-0.8l-2.5-1
	l-0.1,1.6l-0.4,1l-1.7,3.3l-0.4,0.4l-0.3,0.3l-1,0.2l-1,1.2l-1.1-0.3l-0.4-1l0.3-0.4l1.8-2.5l-0.9-2l-0.8-0.8h-2.9l-3.6-2l1-2.5
	l0.8-0.9l1.6-1.2l1.6-0.8l1.5-1.6l2.2-0.2l0.5-0.6l0.2-0.9l-0.2-3.2l0.8-1.2h1l0.8-0.2l0.8-0.7l1.8-2.4l5.2,0.6l0.9,0.5l-0.1,2.6
	l-0.3,1.2l0.2,1.1l1.6,0.5l1.3-0.1l0.7-0.3l0.6-0.6l0.2-1.1v-0.8l-2-2.7l-0.9-0.9l-0.5-1.4l-0.4-3.2l-0.6-1l-1.4-0.5l-1.8-0.4
	l-0.2-0.5l0.9-0.9l0.4-1l0.1-2.1l-2.6-0.6l-1.7-1.9l-2.3-1.2l-0.6-2.4l1.8-5.9l-4.3-3l-0.7-0.1l-1.1-2.2l-0.7-2l-1.1-1.7l-2,1.2
	v-2.1l-0.5-1l0.8-0.4v-0.6l-4.6-1.4l0.2-2.3l-0.5-1.8l-0.4-0.9l-2.8-1.5l-1.2-0.8V548l-1.2-0.8v-1.1l1.1-1l-0.4-1.6l-0.3-2.2l0.3-2
	l0.6-0.5l10.4-1.9l4.3-0.4l2.7,1.7l-0.4,4.2l1.5,1.8l-0.3,1.9l0.1,0.9l1,0.1l1.4-0.5l3.1-0.7l1.8-0.1l1.8,0.5l1.2-3l1-1.1l0.9-2.4
	l1.6-0.7l0.8-3.3l0.6-1.3l1.6,0.4l1.4-0.3l1.5,0.2l0.8-0.8l0.7-2h1.3v2.3l1.2,0.9l0.1,1.2v1.8l0.4,0.5l1.9-0.3l0.7-1.9l1-0.3l1,0.2
	l0.3-0.6l1-0.1l0.5-1l0.2-2.2l0.6-1.6l1.7-0.1l1.9,1.4l0.3,1.2l0.3,2.6l0.4,0.7l0.9,0.5l2.7-0.5l2.8,1v2.4l-0.3,1.3l-0.7,1.8
	l0.1,0.5l0.4,0.5l2.5,0.3l-0.5,2.4l0.2,1.7l0.9,1.2l2.9,0.7l0.6,0.3l0.4,1.6h2.7l1.2-1l0.7-3l1.1-3.8l1.5-0.3v1.8l0.8-0.1l0.4-0.8
	l2.2,0.6l-0.7,3.9v1.3l-0.4,1.5l-2.2-0.3l-2.5-0.3l0.1,1.5l-0.1,2.9l1.1,1l0.7,3.3l-0.5,0.3l-0.7,0.4L404,563l-1.2,0.7l-0.5,1.4
	l0.5,1.5l0.4,3.3l-1.5,2.3l0.8,1.2l0.1,0.2l0.2,0.9l-0.3,1.9l0.1,1.8l-0.7,3.3l-0.3,0.6l-2.1-0.1l-1,3.2l-0.9,0.8l-1.4,0.1l-0.5,1.3
	l0.6,1.5l0.6,0.7l0.2,1.9l-0.6-0.1l-1.1,0.2H394l-1.5,0.8l-0.4,1.3l0.2,0.9l2.3,0.7l0.9,0.6v0.7l-0.5,0.5l0.1,0.5l0.9,0.8h1.1
	l0.5-0.8l1,0.3l0.9,0.8l1.3,2.2l1,0.9l0.9,0.4l1,0.1l1,0.8l-1.9,3.2l-0.6,0.7l-1.2,0.6l-2.8-1.1l-1,0.2l-1.1,1.1l-0.6,1.1l1.5,1
	l1,0.4l1.1,0.1l0.7,0.5l0.6,0.9l0.4,1.3l0.1,1l0.8,0.8l1.1-0.2l1-0.4l0.6,0.3l-0.2,1.8l-0.4,1.4l-0.8,2.8l-0.7,2l-0.7,1.3l-1.1,1
	l-1,0.2l-1.1,0.6l-3.1-1l-1.1-0.8l-0.3-2.6l0.3-1.5l-1.3-2.1l-1.6-1.6l-1.1-0.5l-2.2-0.5l-1.2,0.4l-1.3,2.1l-0.3,0.5l-1.2,0.3
	l-2.8-0.1l-0.6-0.7l-0.1-0.1l-0.6-0.3l-1.1,0.2l-2.4,0.1v0.1l-0.3,1l0.2,1.1l1,1.2l1.6,1.6l0.8,0.1l0.9-1.5l1.5,0.4v1.8l-1.6,0.3
	l-0.5,1l-0.7,0.8l-0.8,0.1l-1.1-0.4l-0.7,0.1l-0.8,0.3l-0.8,1.1l-1.7,2.6l-0.6,1.2l-0.2,1.4l1.4,0.9l-0.2,1.7l1,0.2l1.1,0.8l0.8,0.5
	l-0.2,1.1l-0.3,1.3l0.1,1.3l-0.1,1.4l-0.3,1.5l-0.7,1.7l-0.4,1l-0.2,1.5l0.1,1.2l0.5,1.1l0.9,0.6l1.2,0.4l1.3,0.5l1.2,0.8l0.2,1.4
	l-0.1,0.9l-0.8,0.9l-0.7,0.5l-0.2,1.1l0.4,1.5l0.3,1.2l0.9,0.9l1,0.9l0.1,1.6l0.7,0.7l2,0.8l-1.5,1.8l-1,0.9l-1.1-0.1l-1-0.5
	l-0.6,0.9l-0.7,1.6l-0.9,1.4l-1.2,1l-0.9-0.4l-0.7-1.2l-1.5-1.4l-1.7-1.4l-2.4-1.1l0.1-1v-1.9l-1-1.6l-1.5-0.9l-1.5-0.8l-1.2-0.5
	l-1.2-0.8l-0.4,0.7l-0.1,1.9L361.1,661.3z"/>
<path id="D087" class="st0" d="M489.5,676.4l0.3-1.4l0.5-1l0.8-0.8l-0.2-1.3l0.6-1.3l-0.2-1l-0.8-1.8l0.1-0.9l0.4-1.5l0.6-0.7
	l1.1,0.3l1.1,0.6l0.7-0.5l0.2-2.1l0.3-2.4l-0.3-2.5l-0.6-2l0.2-2.4v-1.3l1.9-0.3l-0.2-2.4l0.3-2.4l-1.4-0.5l-1.4,0.1l-0.3-0.8v-3.4
	l0.1-2.5l0.5-2.7l0.3-2.6l-0.4-1.6l-0.6-2.5l0.5-1.7l0.8-1.4l0.7-3.8l0.2-2.4l0.3-1.3l0.7-2.3v-0.1l0.7-1.5l0.6-1l0.2-1.5l0.5-3.7
	l0.7-3.3v-2.5l0.9-4.3l-0.8-0.4l-2.3-0.6l-0.2-0.5l0.2-0.9h-0.6l-1.6-0.7l-1-0.7l-1.4-2l-2-1.6l-1.4-1.8l-1-0.8v-0.6l0.3-0.4
	l2.2-1.7l-0.5-0.6l-1.6-0.6H487l-2.1-0.2l-0.1-1.4l-0.3-1.4l-0.9,0.3l-0.5-0.4l-1.2-3l1.5-2.8l1.7-4.3l1.8,1.8l1.1,0.7l1.2-0.2
	l2.1-2.8l0.5-1.8l-2.4-3.5l0.6-1l1.8,0.2l1.9-4.5l2.5,0.5l1.1,0.6l0.7-1.6l0.9-0.9l1-0.3l1.2-1.1l1.2,0.3l0.5,1.4l0.9-0.4l1,0.1
	l0.8,0.3l1.2,4l0.3,4.9l0.4,2.4l0.3,4.7l1.4,0.8l1.1,0.4l3.4,0.3l-0.2,1.8l0.1,1.5l-0.4,1.2l2.4,1.6l1.1-1.9l0.6-1.3l1.5,0.9
	l0.9,0.7l0.9-0.5l1.3,0.6l0.9,0.7h1.2l1.9-0.9l1.5,0.4l0.8,1.3l1,0.2l3.7,2.5l1.3,0.1l1,0.4l0.6,0.8l-0.6,2.7l-1.6,0.1l-1.3-0.5
	l-1.4-0.2l-0.4,0.5l-0.1,1.3l0.3,1.1l-0.4,1.5l-2.1,1.3l-0.4,1.8l-0.5,1.2l-1.6,2.2l0.2,1.2l1.7,0.7l0.2,1.6l-0.5,1l-0.7,0.8
	l0.4,1.7l-1.3,3.1l-0.1,2.3l-1.7,1.2l-0.8-0.3l-2.4,0.9l0.7,1.6l1,0.6h0.1l0.6,1.5l-0.5,1.7l-0.1,1.1l0.2,1.3l-0.6,0.9l-0.8,0.6v0.3
	l0.6,0.5l0.4,0.8L522,627l-1,0.7l-2.9,1.1l-0.9,1.3L517,631l-0.4,0.7l0.5,0.2l1.7,1.3l1.6,1.5l0.5,0.3l0.5,0.6l0.9,0.3l1.6,1.2h2
	l0.7-0.5h1.3l0.3,1.5l0.3,0.6l0.3,0.4l1,0.7l0.4,1.1l0.8,0.4l1.1-0.2l0.4,0.5l0.1,0.4l0.8,0.6l0.4-0.5l0.2-0.9l0.3-0.4l1,0.5
	l0.6,0.9l1.2,1.3l0.7,1.1l1.1,1.2l0.9,1.3l1.8,3.8l0.6,0.7l1.7,1.1l1.6,1.8l0.7,0.3l1.6,0.9l1.7,0.4l0.6-0.4l0.7-2.1l0.4-0.7
	l0.4-1.2l1.6,0.7l2.3,2.7l0.4,1v2.8l1,1.2l1.2,1l-0.8,2.3l0.5,0.7l-0.8,0.6l-0.8,0.3l-0.7,0.7l-1-0.4l-0.2,0.2h-0.9l-1.6,0.5l0.3,2
	l-0.1,0.4l-1,0.4l-0.7,0.8l-0.4,1.1h-0.2l-1.3-1.1l-0.8-0.9l-0.7,1.4l-0.2,0.9l-0.7,1.6l-0.8,0.8l-1.1,0.7l-1,1h-0.4l-0.7-0.6
	l0.2-0.9l-0.3-0.6l-0.7-0.3l-0.8,0.5l-1.6-1.2l-0.2-0.9l-0.6-1.5l-0.8-1.4l-0.5-0.5l-1,1.5l-0.1,1l0.4,2.5l-2.1,2.4l-1.1,0.5
	l-0.7-0.4l-0.3-0.8l0.7-1.1l0.4-1l1.4-0.4l0.4-0.4v-0.9L534,669l-0.6-0.4l-1.8,0.7l-0.7-0.1l-0.7-0.5H530l-0.1,0.7l0.6,2.1v1
	l-0.3,1.3l-0.7,1.1l-0.9,0.1l-1,0.5l-1.4,1.6L526,677l-0.1-1.7l-0.4-0.7l-0.3-0.2l-0.4-0.2l-0.4,0.1l-1.1,0.7l-0.8,0.3l-0.2-0.1
	l-1.2-0.9l-2.1-2.2l-0.6-0.2l-0.4-0.6l-0.3-1.1l-0.6-0.4l-0.5-0.2l-1.4,0.2l-0.7-0.8l-0.8-0.6l-0.3,0.2l-1.1-0.6l-0.5,0.7l0.1,0.5
	l-0.1,0.3l-0.7,0.2l-1,2.8l-0.1,2.3l-0.5,1.4l0.1,0.5h0.3l0.2,0.2l0.4-0.2l0.3-0.5l1.7,1.1l1.2,1.5l0.5,1.5l0.7-0.2l0.3-0.5l0.9-0.3
	l0.9,0.4l0.5,1l0.1,1.5l0.2,0.6l0.9,1.3l0.2,0.6v0.4l-0.2,0.2l-1.1,0.3l-0.9,0.7l-1,0.2l-1,0.7l-0.4-0.1l-1-0.9l-0.2-0.8l-0.4-0.5
	l-0.2-0.7l-0.4-0.6l-0.7-0.8l-0.5-0.2l-0.6,0.5L509,683l-0.9,0.3l-1,1.6l-0.3,0.1h-0.4l-1-0.7l-0.1,0.1l-0.3,1.1l-0.4,0.6l-0.3,0.9
	l-0.7,2.3l-0.6,2.6l-0.5,2.8l-0.5,2.6l-0.1,1.6l-0.3,1.6v1.7L500,701l-1.4-0.8l-1.1-0.9l-1-0.7l-0.7-0.3l-0.6,0.7l-0.5,1.3l-0.5,1
	l-0.8-0.2l-0.8,0.4l-0.7,0.6l-0.6,0.2l-0.4-0.5l-0.3-1l-0.1-1l-0.5-0.9l-0.6-0.9l-0.2-0.6l0.4-0.7l0.4-0.6l-0.3-0.8l-1-0.7l-0.9-0.6
	l-0.3-0.8l0.3-0.8l0.8,0.4l0.9,0.7l1.1,0.8l0.9-0.3l0.7-0.2l0.7-0.9l-0.4-1.1l-0.6-1.3l-0.9-0.9l-1.2-0.4l-1.1-0.2l-0.8-1l0.1-1.4
	l0.6-1.3l0.4-1l0.1-4l0.1-2.3L489.5,676.4z"/>
<path id="D089" class="st0" d="M535.3,590.8l0.6-2.7l-0.6-0.8l-1-0.4l-1.3-0.1l-0.1-1l0.4-1.5l0.7-0.8l2-1.5l0.5-0.8l-0.4-0.9
	l-0.2-2l0.4-1.1l1-0.7l0.7-0.5l0.2-1l0.5-1l2.3-0.8l-0.1-0.1l1.8-1l0.8,0.9l1.1,0.6l1.1,1.1l0.1-0.9l-0.5-2l0.3-0.7l1.1,0.3l1.5,0.9
	l0.9-0.1l0.3,1.3l-0.5,1.7l-0.9,1.2l3.4,1.8l0.9,1l0.5,1.1l0.7,1l0.8-1l0.9-0.7l1.1-0.4l-0.3,1.5l-0.7,0.9l3.5,2.2l1.4,0.6l1.4,0.8
	l1.5-1.7l1-0.8l0.5-0.9l3.3,2.2l1.2-0.3l1,1.3l0.4,1.6h-1.1l-1.4,0.5l-1-0.6l-0.4,1.7l0.8,1.5l1,1.5l-0.4,1.4l0.7,0.7l1,0.5l0.3-1.3
	l1.1,0.5l1.1,1.1l1-0.2l1.1,0.2l1.6-1.5l1.2,0.4l-0.1,1.1l0.7,0.8l2.3-2.8l1.1-0.8l3.5,0.6l0.6-0.1l0.8,0.3l0.7,0.5l0.3,0.4l0.1,1.7
	l-2,0.4l-0.4,0.7l-0.2,3l-0.9,0.3l-0.4,0.6l0.1,0.6l1.7,0.6l0.2,1.8v1l-1.3,2.1l0.3,1l0.1,1.2l-0.2,0.9l-0.3,0.6l-0.7-0.4l-0.5-2.2
	h-0.7l-0.5,0.8l-0.3,0.1l-0.7,3.7l0.2,0.5l0.3,1l0.8,1.1l1,2.7v0.4v0.3l-0.8,1.8l0.2,1l1.7,1l0.9,1.1l0.4,0.8l0.7,0.7l0.8,1.1l0.5,1
	l0.4,1.6l1.3,0.8l2.4,2.8l-0.5,0.9l-0.9,1l-2.1,1.4l-0.6,0.9l0.2,1.1l0.7,0.6l2.2-0.2l1.1,0.1l0.2,1.6l-0.2,1.8l-0.8,1.6l-1.9,2.1
	l-0.9-0.9l-0.4-0.2l-0.8,0.3l-1.3,1l-0.4,0.1l-0.5-0.2l-0.3-0.5l-0.4-1.6l-0.5-0.5l-1.1,0.8l-1.4,1.5v0.2l0.3,0.8v1.5l0.3,0.3
	l0.3,1.5l-0.3,2.3l-0.4,1.4l-1.8,2l-2,1.4h-0.6l-1.9-2.2l-1.3-1.2l-1.3-0.4l-0.3,0.1l-0.2,0.2l-0.6,1.2l-0.5,0.5l-0.4,1l0.5,1.3
	l0.1,0.9l0.2,0.4l1.2,1.5l0.1,0.4l-0.3,0.3l-1.4,0.2l-1.7-0.1l-1.7-0.9l-1.3-0.1l-0.6,0.1l-0.8,0.5l-1.9,0.9l-1.4-0.5l-0.7-0.1
	l-1.1,1l-0.2,0.5l-0.3,0.1l-1.2-1l-1-1.2v-2.8l-0.4-1l-2.3-2.7l-1.6-0.7v-0.7l-0.5-1.5l-0.8-3.4l-0.2-2l0.1-0.4l1-2l0.3-0.9l1.1-2.8
	l-1-3.5l-0.2-1.3l0.5-1.3l1.4-1l0.7-0.9l0.2-0.3l-0.4-0.8l-1.8-1.1l-0.1-1.2l0.2-1.5l0.8-2.7l-0.6-3.1l-1.7-1.5l-0.1-0.1l0.9-1.1
	l0.3-0.9l-0.3-2.7l-0.8-1.1l-1-0.9l-0.8-0.1l-1-0.7l-0.6-0.8l-0.9-0.6l-1,0.6l-0.4,0.6l-0.9,0.6l-1.1-2.5l-1.1-0.2l-4.4-3v-3.1
	l2,0.1l0.4-1.4l0.2-2.2l1.3-0.4l-0.4-1.9l-1.5-0.4l-0.8,0.2l-1.2-0.6l-0.9-1.5L535.3,590.8z"/>
<path id="D069" class="st0" d="M530.5,64.2L530,65l0.1,0.7l0.5,0.9l0.2,1.9l-0.4,2v1l0.5,1.3l0.7,1.2l0.3,0.8l-0.4,1.5l-0.2,3.7v1.3
	v0.9l-0.2,0.8l-0.5,0.7l-0.5,0.7l-0.7,0.8l-1.1,1.2l-1.1,1l-1.1,1l-0.3,0.2l-1.1-1.6l-0.9-0.3l-1-0.1l-0.9-0.5l-0.9-0.2l-0.9,0.5
	l-0.8,0.6l-0.9,0.6l-0.7-0.7l-0.6-1l-0.7-0.9l-0.7-0.8l-0.7-0.8l-0.6-0.9l-0.5-1l-0.6-0.9l-0.6-0.9l-0.6-0.9l-0.6-0.9l-0.5-1
	l-0.6-0.9l-0.7-0.8l-0.6,0.5l-0.2,1.1l0.4,1.1l-0.5,1l-0.6,0.9l-0.7,0.8l-0.8,0.6L506,82l-0.5,1l-0.4,1l-0.4,1l-0.5,1l-1.1,1
	l-2.1,2.6l-0.6,1.2l-0.9,3.8l-1.1,2l-0.9,0.9l-1.1,0.6l-2.7,0.8l-0.9-0.4l-1.1-0.7l-1.4-1l-1.7-0.7l-0.4-0.5l1.1-0.8l1.6-1.4
	l0.6-1.5l-0.3-0.7l-0.8-0.5v-0.6l0.8-1.8l0.1-1.1l-0.9-1.7l1.4-0.6l1-1.7l-0.4-1.3l-1.4-0.5l-0.3-2.4l-0.8-0.7l-1.7-0.8l-0.5-1.3
	l-0.6-0.8l-0.7-0.6l-0.7-0.3l-0.9,0.3l-0.5-0.1L484,72l0.5-1.7l0.2-2.5l-0.1-1.6l-1.1,1.3l-0.9,1.8L481,71l-0.8,0.2v-1.7l-0.8-0.2
	l-0.5,0.3l-0.4,0.7l-0.8-0.1l-0.1-2.6l0.2-2.7l-0.3-1l0.5-1.3l1.1-1.9l1.3-1.8l-0.3-2.1l-1.5-1.4l-0.3-1.9l0.9-5l0.4-0.9l2.5-5.2
	l-0.9-1.4l-1.2-1.2v-2.4l-0.2-2l-0.7-1.5l-1.4-1l-2-0.7l-0.8-0.5l-2.6-3.9l-1.8-2.1l-0.7-1.1l-1-3.6l1.2-2.7l4.6-3.8l1.8-1.2
	l0.5,0.6l0.2,1.3l-0.7,3.1l0.9,2.3l1.1,1.7l2.3,1.9l2.4,1.7l1.5-0.6l1.2-1l1.4-1.6l1.3-0.5l2.5-1.9l0.8,1.3l1.4,4.6l1.7,3.1l0.2,1.3
	v2.3l1,1.1l1.4,0.6l0.8,1.3l1,2.5l1.3,0.5l1.1,0.2L503,41l0.6-1.2l0.3-1.3l0.3-0.6l0.3-0.4l0.7-0.7l0.5,0.3l0.3,0.5l0.1,1l0.2,1
	l0.1,1.5l-0.1,0.8v1l-0.8,0.8l-0.6,0.9l-0.4,0.8l0.4,0.8l0.6,0.5l0.6,0.4l0.6,0.3l0.3,0.3l0.2,1l-0.2,0.9v1l0.3,0.6l0.5,0.8l0.6,0.7
	l0.8,0.4L510,53l0.7-0.4L511,52v-1.1l0.5-0.8l0.7,0.5l1.4,0.9l1.2,0.4l1.1,0.1l1.3-0.2l1.1,0.5l1.5,1l0.8,0.8l0.8,0.3l0.7,0.5
	l0.3,0.3l-0.3,0.9V57l0.5,0.4l1-0.5l1.2,1l0.8,1.2l0.5,1.1l1.4,1l1,1l1.1,0.9l0.7,0.6L530.5,64.2z"/>
<path id="D075" class="st0" d="M483.6,376v-0.4l-4.4-0.4l-1.9-0.6l-4.2-3.7l-0.7-3.2l-0.5-4.1l-0.4-1.9l-0.9-0.8l-1.4-0.8h-1.7
	l-1.4,0.8l-2.4,2.6l-4.9,2.1l-1.6-2.5l-3-1.6l-0.2-1.4l-2.7-0.7l-1.7-1.5l-0.8-0.5l-0.8-1l-0.4-3.4l-0.6-1l1.1-3.3l0.7-1.3l0.3-1.6
	l-0.2-2.3v-1.4l0.4-1.1l1.1-0.7l1.7-0.3l0.7-0.9l1.5-0.1l1.5-0.5l0.8-1.1l2.1,0.3l1.7-1.1l1.3-0.2l0.9-0.6l0.1-1.2l0.4-1.8l-0.4-1.8
	l0.4-1.7l1.1-2l0.8-2.1l0.3-1.9l0.9-3.3l0.8-0.2l1.5-0.7l2.1,0.9l1.3-0.3l0.8-1.9l1.4-0.8l3.2,2.3l1.6,0.4l2.1-1l1-0.9l0.4-1.8
	l1.5-0.8l1.3,0.1l1.2,0.4l0.8,0.6l0.8,1.2l0.5,1.4l0.7,1l0.6-0.1l0.7-1.2l1.1-1.4h0.6l1,0.6l1.4,0.4l-0.6,1.2l2.4,1.2l1.1,1.3
	l1.4,0.1l1.3-0.9l1.1-1l1.3,1l2.1,2.4l0.9,0.6l1.5,0.3l2.2-0.1l2.4-0.5l1.5,0.3l2.4,1.4l1.1,0.1l7-0.7l2.3-0.9l1.2,0.5l0.9,0.8
	l0.3,0.9l-0.1,1.1l-0.4,1l-1.7,2.1l0.2,2.4l0.5,1.7l0.7,0.9l1,0.8l0.9,0.5l0.1,0.6l-1.3,1.2l-1.2,0.7l-1.7,0.4l-0.6,0.4v0.9l0.3,2.2
	l-0.2,1l0.4,1.5l0.6,1l0.6,0.1l3-0.2l0.9,1.2l0.3,0.8l-0.6,0.8l0.2,1.3l0.4,0.7l0.1,1.1l-1.9,3.2l0.3,1.1L528,359l-1.3,3.1l0.9,1.3
	l1.2,3.1l0.2,1.7l-0.2,1.2l-2.5,2l-0.3,0.7l0.4,1.4l0.8,1.1l0.6,1.2l0.3,1.3l0.3,4l-1.2,2.2l-4.6-0.8l-1.8,1.4l-0.5-0.4l-1.1-2
	l-1.4-1.5l-2.4,1l-1.1,0.1l-2-2.3l-1.4,0.8l-1.7,0.3l-1.5-1.1l-1.3-0.7l-0.2-0.8l0.5-4.6L506,372l-1.3,0.3l-0.6,0.3l-2.3,0.2
	l-1.2-0.1l-1.4-0.5l-1.3,1.2l-1.1,0.8l-1.9,0.1l-1.4-1.2l-2.2-0.9l-1.8,0.5l-1.7,1.4l-0.9,2.7l-0.7,1l-0.9-0.3L483.6,376z"/>
<path id="D085" class="st0" d="M455.4,609.4h-2.2l-0.9-0.3l-1.1,0.5l-0.5,1l-0.1,1.5l0.2,1.3v2.4l0.2,1.3l0.2,0.6l0.2,0.7l-0.1,2.3
	l0.4,1l1,1.3l0.3,0.9l0.1,1.3l-0.4,0.8l-0.9,0.7l-1.2,0.6l-1.6,0.4h-1.8l-1.5-0.2l-1.9,0.1l-0.8,0.2l-0.6,0.8l-0.5,0.5l-1.3,0.7
	l-1,1.1l-0.5,1.2l-1,1.1l-1.2,0.4l-1,1.4l-1.1,0.8l-1.3,0.2l-0.7-0.7l-0.4-1.2l0.1-1.3l0.6-1.5l0.1-2.5l0.3-0.1l-0.1-0.5l0.1-1v-1
	l-0.5-1.9l0.5-2.8l-1.1-0.8l-0.9-0.5l-1.1,1.4l-1.1,0.8l-1,0.1l-0.9-0.3l-0.2-0.8l-0.4-0.7l-0.6-0.7l-1.4,0.2l-1.2,0.5l-2.2-0.1
	l-0.9-0.4l-0.3-0.7v-1.1l0.3-0.8l0.3-0.6l2.1,0.2l1.5,0.5l0.5,0.1l0.6-0.1l0.3-0.1l0.8-0.4l0.5-0.8l-0.4-0.6l-1.5-1.6l-2.5-2.4
	l-1,0.5l-0.8-0.2l-0.9-0.6l-0.8-1.1l0.4-0.9l0.4-1.7l0.5-0.9l0.6-0.3l0.8-0.2l1,0.1l0.7,1.4l1.8,0.3l1.4-0.4l-0.1-2l0.1-1.4
	l-1.8-0.1l-0.2-1.1l0.6-1.2l-0.7-0.3h-0.3h-1l-0.6-0.2l-0.5-0.6l0.4-2.3l-0.2-1.1l-0.9-0.2L421,598l-0.8,0.2l-3-0.2l-0.9,1l-0.6,0.3
	l-2.4-0.3l-2.4-0.1l-0.6,1.4l-0.7,0.3l-0.7-0.1l-1.1,0.4l-2.7-1.1l-0.4-0.9l-0.2-2.5l-0.4-1.3l-1.7-1.6l-1.1-0.7h-1.6l-2.7-1.2
	l-0.2-1.9l-0.6-0.7l-0.6-1.5l0.5-1.3l1.4-0.1l0.9-0.8l1-3.2l2.1,0.1l0.3-0.6l0.7-3.3l-0.1-1.8l0.3-1.9l-0.2-0.9l-0.1-0.2l-0.8-1.2
	l1.5-2.3l-0.4-3.3l-0.5-1.5l0.5-1.4l1.2-0.7l0.4-1.8l0.7-0.4l0.5-0.3l-0.7-3.3l-1.1-1l0.1-2.9l-0.1-1.5l2.5,0.3l2.2,0.3l0.4,0.7
	l-0.4,2l-0.6,1.9l0.4,0.8l2.5,1.7l2.3,1.2l0.4-0.1l0.3-0.7l0.4-3.3l-1.1-0.3l-1.5-0.7l-0.7-0.6l0.4-1.6l2.9,0.6l5.6,2.3l1.2-0.9
	l0.2-1.3l0.3-0.6l0.3-0.7l3.5-3.1l1.3-0.3l1.1,0.2l0.4,2.1l0.6,2.1l1.5,1.4l3.7,1l5.1-0.3l0.5-0.6l0.6-3.6l1.6-0.6v-2l0.4-0.9
	l0.2-4.4l0.8-3.4l0.7-1.5l0.2-0.4l1.1,0.2l1.3,0.8l1.2,1.2l1.2,1.8l1,1.8l1.2,1.1l0.8,1.4l0.4,1.8l-0.3,2l-0.8,2.6l0.5,2l-0.2,1.6
	v1.9l-0.6,1.8l-0.1,0.9l0.7,0.6l2.3,0.2l1.6,0.4l-0.1,2.6l-0.6,2.8l-0.7,3.1l0.5,1.4l0.3,1.1l0.3,0.1l0.5,0.2l1.2-0.2l1.2,0.4
	l1.4-0.4h1.7l0,0l0.8,0.7l0.8,0.7l0.3,0.2l0.6,0.3l2.9,1.1l2.1,1.5l0.3,1.3l1.1,1.6l0.6,0.2l0.5-0.7l0.8-1.7l1.1-1.8l1.1-0.6
	l-0.1,0.2l4.4,0.8l0.6,0.5l3.1,1.6l1.2,3l-0.6-0.3l-2.7,0.4l-1,1.5l-0.5,0.6h-0.8l-0.9-0.3l-1.2,0.1l-0.7,0.9l0.2,1.5l0.5,0.9
	l-0.5,0.9l-0.7,0.4l-0.6-1.1l-0.1,0.3l-0.4,1l0.3,2.3v1.5l0.6,1.1l-0.7,2.8l-1.3,0.3l-1.6,0.9l-1.7,0.3l-1.1,0.7l-2.5,3.7l-1,0.1
	h-0.2l-1.8-0.6l-1.6-0.2l-0.2,0.2l-0.6,0.8l-1.1,2.5L458,606l-0.7,0.1l-0.1,0.3l-0.6,1.4l-0.5,1.9L455.4,609.4z"/>
<path id="D082" class="st0" d="M459.1,467.5l0.2-4l-2.4-0.3l-1.4,0.1l-2.4-1.4l-0.4-3.9l-1.1-0.4l-0.4-1.5l-1.3-2.4l-0.8-1.1
	l-1.8,1.7l-0.3,1.2l0.1,1.3l1.5,1.5l0.6,0.9l-0.7,1l-0.4,1l-1.6,1.7L444,463l-1.4,0.3l-1,0.9l-0.3,1.1l0.1,1.9l-0.1,2.2l-0.5,2
	l-1,1.7l-1.4,1.4l-4.2-2l-2-0.6l-1.1-0.5l-1,1.9l-1.4,0.1l-2.2-0.2l-1.2,0.3l-1.5-0.1l-1.2-0.3L418,474l-0.7,1l-2.2,1.3l-1,0.4
	l-1.2-0.1l0.1,2.3l0.5,1.6l-0.7,2.3l-1,2l-1,0.8l-3.5-3.8l-0.5-0.9v-1.2l1-2l0.1-0.9l0.9-1.3l1.1-0.9l0.8-3.9l-0.4-0.8l-0.3-1
	l-1.4-1.6l-0.6-0.4l-0.4-2.1l-0.6-0.7l-1.2-0.5l-1.2-1l-0.9-1.8l-0.6-0.6l-2.9-1.5l-0.6-0.8l-2.8-0.2l-1.5,0.8l-2,0.2l0.7-4.3v-1.2
	l-0.3-1.5l-0.9-1.2l-0.2-0.7l0.8-1.6l0.2-1l-0.3-1.2l-0.6-1.4V444l0.3-1.7l1-3.7l-2-0.6l-2.1,1.1l-3.6-1l-1.5-0.9l0.6-3.6l0.8-2.2
	l-3.2-1.9l-0.6-1.1l-0.7-0.1l-0.3-1.1l0.2-3.2l2-2.7l1.7-2.9l0.3-1.4l-0.1-1.1l0.8-2.4l-0.3-2.7l-0.7-1.9l-0.6-2.1l0.9-1.5l1.1-1
	l2.3-0.2l1.6,0.1l1.5-0.3l0.5-0.9l0.2-0.9l1.5-1.8l4.9-0.1l1.3,0.3l1.7-0.2l4.7,2.9l1.5-0.3l0.9-0.8l1.4-0.6l1.1,0.3l1.9,1.6l1,1.3
	l1.5,0.9l1,0.3l1.4-0.5l0.9-0.9l1.8-3.6l1-2.7l1.3,1.1l1.8,1.8l1.1,0.4l1.1,0.1l1.2-1l1.1-1.5l2.1-2.5l0.9,1.1l0.7,1.4l0.6,1.4
	l2,3.9l0.8,0.7l2.9-0.3l3.4,0.8h3.4l0.9,0.4l0.1,0.8l-0.1,1.3l0.2,2.3l0.3,1.1l2.8,0.3l1.1,0.7l-0.2,3.8l-0.5,1.7l1,2.6l0.6,0.9
	l2.4,1.1l3,1l3.1,0.7l2.9,2.2l2.2-0.8l1.4,1.2l1.7,2.6l0.2,0.3l-0.5,0.8l1.3,2.8l1.2,0.3l3.4-0.5h0.9l1.4,1.6l-0.3,1.5l0.3,2.1
	l-1.2,2.6l0.1,1.2L475,447l1.1,1.1l4.2-0.4h2.1l0.9-0.2l0.6-0.9l1.8-0.7l1.9,0.3l1.7,1.2l-1.2,3l-1.3,2.6l-1.5,0.5l-1,1.2l-1,0.7
	l-0.3,1.5l-2.6,1.6l-2.5,0.2l-0.8-2.2l-1.1-0.7l-3.7,2l-0.2,1.4l2.1,1.9l2,2.7l-3.7,5l-1,2.3l-1.3,1.6l-1-0.4l-1.7-1.2l0.7-2.1
	l-0.6-1.2l-1.1-0.5l-1.2,0.2l-1.4,1.7l-1.1,0.1l-1.8-0.5L459.1,467.5z"/>
<path id="D079" class="st0" d="M198.6,362.9v-0.7l-1.7-3.1l-2.5-0.9l-2.8,1.6l-2.3,2.5l-1.3-1.4l-0.9-0.6l-1.4-0.3l-1.3,0.5
	l-1.1-0.4l-0.9-1.3l-0.8-1.5l-0.4-2l0.9-1.3l0.7-1.6l0.1-1.6l-0.8-1.4l-1.6-1.1l-1.4-5.6l-0.8-0.3l-1.9-1.1l-1.8-1.5l-0.6-1.2
	l-1.1-0.5l-2.8,0.3l-0.6-0.7l-0.4-1.7l-1.1-0.6l-1.2-0.7l-1.3-0.3l-1,0.5l-4,0.6l-1.7,2.9l-2.1,3l-1.6,2.2l-3,0.9l-3.9,0.5l-1.4-1.5
	l-0.9-1.2l-0.9-0.5l-3.6,0.8l-2-0.6l-2.8-0.4l-1.3-0.5l-1,3.8l0.1,4l-0.4,0.9l-5.6,0.8l-1.6-0.2l0.7-5.5l-0.5-1.7l-1-1.8l-1.7-1.7
	l-1.1-1.6l-0.6-2.3l0.1-1.9l-0.9-1l-1-1.7l-0.9-0.8l-1.7-0.2l-1.6-0.4l-0.3-2.1l-0.1-3.1l0.3-1.7l0.6-1.6l1.3-0.3l1.2,0.4h1.4
	l1.9,0.4l1.1,0.8l0.2-1l0.8-1.2l1-2.3l-0.2-1.3l0.4-1.3l1.3-2.4l0.6-1.5l1.1-2l0.4-1.5l-0.5-0.9l-1.9-1.1l-1.3-1.4l-1.5-0.9
	l-1.6-1.7l-0.8-1.7l0.6-1.1l-0.1-3.7l0.7-6l0.4-1.3l-0.3-1.4l0.9-0.7l0.8-1l-0.6-1.9l-0.6-2.2l1-4.3l0.9-1.6l0.5-1.8l-0.2-2l1-1.2
	l0.2-1.5l0.5-1.8l-0.3-4l0.7-1.3l-0.1-1.3l-1.2-1.1l-0.8-1.8l-0.9-0.4l-1.3,0.3L123,261l-1.2-0.3h-2.3l-1.8,0.2l-0.9,0.9l-1,1.7
	l-2.3,0.1l-2.3-0.2L109,263h-1.8l-0.5-3l-0.6-6.2l0.8-3l1.6-2.8l1.7-2.4l2.2-1.3l4.2-1.4l2.4-3.7l1-1.8l-0.3-1.7l-1-1.5l-0.3-1.7
	l-1.5-2.9h-1.3l-2.3-0.4l-0.9-0.7l1.2-4.7l1-2.8l0.9-1.7l0.9,1.4l3,2.5l0.5,0.8h1.6l1.8,0.7l1.2,1.6l0.8,0.7l5.7,1.5l0.7,0.4l1,0.1
	l1.1,0.4l1.2-0.2l-1.3-2.1l0.2-1.7l1.4-1.8l2.6-2.3l2.4-1.6l0.4-2.5l1.2-1.7l0.7-0.5l0.3,0.1l1.4,0.5l2.8,1.5l2.1-1.5l2.1-0.5
	l1.3-0.5l1.4,0.2l1.4-0.4l1.3-1.3l1.6-1.9l1.1-0.6l1.2,0.4l1.2,1.3l0.5,1.1l0.3,1.3l1.2,0.8l1.2,1.1l2.1,1.1l1.5-0.4l1,0.5l1-0.1
	l0.9-0.7l0.6-1.2l0.6,1.3l0.7,0.7l0.7,1.3l-0.2,1.2l-0.6,0.5l-0.7,1.2l1.4-0.1l3.4-2l1.3,1.6l0.7,2.6l0.5,1.3l0.6,1.6l1.2,2.7l2.3,1
	l1.9,1.6l-0.1,1.9l3.2,5.1l0.7-1.4l1.8-0.9l1.3,0.6l1.5-1.7l2.2-1.9l2.3,1.5l1.4-0.3l0.8-0.6l0.7-3l1.2-4l1.1-0.6l0.8,0.7l0.8,1.4
	l1.2,1.7l0.1,4.3l0.2,0.8l-0.6,1.1l-2.5,2l-0.6,0.9v1l0.7,1l2.1,0.7l0.8,0.7l0.5,2.4l-2.2,1.5l-0.7,1.4l0.2,1.3l0.8,0.5l1.1,0.4
	l3.6-0.6l1,4.4l0.6,0.9l1,0.7l1.9-0.8l0.8-0.7l-0.7-1l-0.8-0.5l-0.1-0.9l0.4-1.2l0.7-3.8l0.7-0.8l1.1-0.3l1.3-1l0.1-1.2l0.4-0.4
	l0.6-0.4l1,0.9l1.9,1l0.3,1.8l-0.7,1.7l-0.2,1.8l0.2,1.9l1.2,1.3l1.1,0.7l0.6,1.4l0.1,1.8l1,1.7l0.6,1.6l0.6,0.9l-1.5,4l-0.8,0.6
	l-0.9-0.2l-0.7-0.9l-1.3,0.9l-0.7,1.2l-1,2.8l0.2,1.7l0.6,0.9l0.8,0.6l-0.4,1.8l-1,1.5l-1.4,0.5l-0.7,0.1l-1.2,1l-1.4,0.8l-0.2,1.4
	l0.8,1l0.9,0.8l0.8,1l-0.1,2.3l0.1,1.8l1.8,1.6h2.3l3.5,3.4l0.3,1.6l-0.6,1.3l-1.3,2.1l1.1,0.8l0.6,1.7l1,2.5l-0.6,1.8l-0.1,0.8
	l2.3-1.1l2.6-0.6l2-1.1l1.2-0.4l2.5-0.1l0.3,2.5l-0.1,1.4l-0.9,1l0.6,3.4l-2.2,0.3l-1.3,0.9l-0.4,1.3l1.8,2.8l-0.2,1.7l-0.6,1.5
	l0.1,1.8l0.6,1.7l2.5,4.5l-1.8,2.9l-1.9,1h-2l-1.7,0.5l-1.8,0.3l-1.3,1.1l-1.6,3.3l-0.4,1.4l0.1,1.5l1.4,0.7l1.7,0.6l1.3,1.7
	l1.3,1.2l1,1.5l0.4,0.9l-0.1,1.5l-0.8,1.2l-1.8,1l-1.5-0.1l-1.5,0.9l-0.8,1.5l1.3,3.3l0.5,1.7l0.2,1.9l-1,5.4l0.5,1.8l0.6,1l0.7,0.7
	l-1.9,3.6l-1.8,0.1l-2.6-2l-1.1-3L219,363l-2.5,0.9l-0.5,2.2l-2.1,1.7l-3.6,0.2l-1.7,0.4l-0.9,3.4l-2.5-0.5l-2.3-0.7l-2.4-1.4
	l0.4-1.6l-0.7-1.4l-1.5-2.2L198.6,362.9z"/>
<path id="D076" class="st0" d="M527.1,399.6l1.6,1.6l1.2,0.8l1.2,1.2l0.8,2.6l-0.1,2.7l0.2,0.8l2.2,2.5l2.4,3.2l1.9,1l1.2,1.1l0.5,1
	v0.2l-1,3.1l-0.7,1.8l-2,4.3l-0.1,1.3l0.1,1.9l2.2,1.4l0.1,0.7l-1.4,3.3l0.8,1.1l2.2,0.9l0.9,0.7v0.8l-0.7,0.8l-1.8,1.2l-1,0.4
	l-2.7,0.6l-0.6,0.9v1.2l0.8,1.7l0.6,1l-0.5,1l-3,0.4l-0.8,0.7l-1.4,1.9l-1.3,1.3l-0.5,0.2l-0.8-0.6l0.3-1.7l-0.1-1.2l-1-1.5l-3-0.2
	l-0.4-0.5l-1.2-0.8l-2.5-0.5l-1.2-2.1l-0.9,0.9l-0.7,1.5h-2.5l-1.9,4.3l-1,3.4l-1.1,0.1l-0.9-0.2l-1.9,0.4l-2.7-0.8h-1l-0.6,0.5
	l-0.9,2.3l-0.5,0.2l-1.5-1.4l-0.4,0.3l-0.4,2.2l-1.2,0.5l-0.9-0.6l-1.3-1.2l-1.6-0.6l-1.5,0.6l-0.9-0.3l-0.3-2.4l-0.5-1.3l-0.3-1.4
	l-0.1-2.1l-0.3-0.6l-0.9-0.4l-1.7-1.2l-1.9-0.3l-1.8,0.7l-0.6,0.9l-0.9,0.2h-2.1l-4.2,0.4L475,447l1.2-4.4l-0.1-1.2l1.2-2.6
	l-0.3-2.1l0.3-1.5l-1.4-1.6H475l-3.4,0.5l-1.2-0.3l-1.3-2.8l0.5-0.8l-0.2-0.3l-1.7-2.6l-1.4-1.2l-2.2,0.8l-2.9-2.2l-3.1-0.7l-3-1
	l-2.4-1.1l-0.6-0.9l-1-2.6l0.5-1.7l0.2-3.8l-1.1-0.7l-2.8-0.3l-0.3-1.1l-0.2-2.3l0.1-1.3l-0.1-0.8l-0.9-0.4h-3.4l-3.4-0.8l-2.9,0.3
	l-0.8-0.7l-2-3.9l-0.6-1.4l-0.7-1.4l-0.9-1.1l-2.1,2.5l-1.1,1.5l-1.2,1l-1.1-0.1l-1.1-0.4l-1.8-1.8l-1.3-1.1l0.2-2l-0.1-1.7l0.9-3.3
	l0.2-1.7l0.5-1.3l2.1-2.8l1.1-1l0.6-0.7l-0.5-1.5l-1.4-2l-1.5-5.6v-2l-1.7-2.4l-1-1.7l0.2-1l0.8-0.8l0.8,1.1l1.7,0.5l1,0.7l3.6,0.9
	l0.2,1.6l0.8,1.5l1.2,1.3l1.7,0.1l1.4-0.9l0.7-1.8l0.2-1.6l-0.7-2.3l-0.3-2l-0.6-2.3l0.3-2.7l0.5-1.9l2-0.6h4l0.9-0.8l0.9-0.1
	l1.3,0.6l2.3,2l1.7,0.2l1.1,1.1l1.4,0.8h2.1l1.2-0.6l3,1.6l1.6,2.5l4.9-2.1l2.4-2.6l1.4-0.8h1.7l1.4,0.8l0.9,0.8l0.4,1.9l0.5,4.1
	l0.7,3.2l4.2,3.7l1.9,0.6l4.4,0.4v0.4l1.7,1.6l0.9,0.3l0.7-1l0.9-2.7l1.7-1.4l1.8-0.5l2.2,0.9l1.4,1.2l1.9-0.1l1.1-0.8l1.3-1.2
	l1.4,0.5l1.2,0.1l2.3-0.2l0.6-0.3l1.3-0.3l0.7,0.7l-0.5,4.6l0.2,0.8l1.3,0.7l1.5,1.1l1.7-0.3l1.4-0.8l2,2.3l1.1-0.1l2.4-1l1.4,1.5
	l1.1,2l0.5,0.4l1.8-1.4l4.6,0.8l-0.8,1.9l-0.1,1.9l1.9,4.1l-0.4,1.5l-1.9,3l-0.4,1.6l0.4,0.9L527.1,399.6z"/>
<path id="D071" class="st0" d="M533.9,139h1.5l0.9-1.4l0.9-1.9l1.1-1.4l1.5-0.5l2.1-1.2l0.8,1.6l1.2-1.2l2.1-1.4l1.2-1.2l1-1.1
	l0.8-2.4l0.5-1.6l-0.7-0.6l-0.8-0.6l0.3-1.4l0.5-1l0.8-0.8l1-1.2l0.8-1.4l1-1.2l1.5,0.3l0.9-1.2l0.4-1.1l0.2-1.3l1-0.8l0.9-0.9
	l0.6-0.2l1-0.2l1.1,0.1l1.1,0.4l0.6,1l0.6,1.8l0.5,1.4l2-0.8l1-0.1h0.7l0.2,1.4l1.9,1.1l0.4,0.8l-0.2,2l0.8,0.5l1.1-1.9l1.5-1.3
	l1.4-1.5l1.5-2.1l1.6-3.1l0.8,0.1l0.9,1.5l0.1,1.4l-0.4,1.2l-0.2,1.2l-1.8,2.2l-0.4,1.2l-2.2,0.9l-0.8,0.7l-0.8,0.8l0.1,0.9l2.2,0.2
	l0.7,0.8l1.3-0.2h1.6l1.2-0.1l1.1-1.3l1.5-0.3l0.8-0.4l0.7,0.5l0.7-1v-1.6l0.3-1.7l1.3-2.2l0.7-1l0.7-0.1l0.7,2l0.6,1.8l1.2,2.9
	l0.6,0.8l1,0.9l0.5,1.5l0.7,1l1.5,0.8l0.9,0.6l1.2,1.2l1.5,0.1l1.5,0.7l0.9,0.9l0.3,1.3l-1.5,2.6l-1.3,2.4l-0.7,2.1v1.2l0.8,1.2
	l-0.2,1.5l-0.6,1.6l-1.1,1.1l-1.2,0.7l-1.6,1.8l-0.8,0.7l-1.3,0.9l-0.9,1l-0.3,0.9l-0.3,2.5l-0.4,1.3l-2.3,3.8l-1.5,1.8l-0.4,1.3
	l-0.8,1.8l-0.7,1.8l-0.6,1.7l-0.5,1.5l-0.6,1.4l-2.1,1l-0.7,0.6l-0.7,1.5l-0.7,1.1l-1-0.1l-0.8-0.2l-0.7,0.7l-1.1-0.4l-1.3,2.5
	l-0.6,1.5l-0.1,0.8l0.6,0.5l0.5,0.5l-0.4,1.6l-0.5,1.2l-0.6,0.9l-0.8,0.5l-0.8,0.5l0.4,1.1l0.9,0.4h0.6h0.6v0.8l-0.9,1l-1.9,1.4
	l-0.7,0.3l-1.9,0.3h-1.1l-0.8,0.3l-1.8,1.6l-1.3,1.6l-1.8,1.8l-0.9,0.8l-1.1,0.6l-1.9,0.3h-1.6l-0.8,0.1l-0.9,0.4l-0.9,0.2l-0.9,1
	l-0.7,0.4l-0.9,0.4l-0.8-0.2l-1.2-0.1l-2,0.7l-1.1-0.5l-1.5,0.2l-0.8-0.1l-0.5-0.8l-0.6-0.3L540,197l-0.5-0.2l-0.4,0.7l-1.9,1
	l-1.4-1.2l-2.6-1.9l-0.7-1l0.6-1.8l0.7-1.6l-0.7-1.3l-1-1l-0.2-0.7l1.1-1.4l0.5-0.9l-0.5-1.2l0.5-1v-1.6l-0.5-1.2l-1.2-0.9l-1.6-0.7
	l-0.9-0.2l-0.8-0.6l0.5-1.2l0.2-0.7l-0.7-0.7l-0.7-0.3l-1.1-0.1l-0.7-0.9l-0.6-0.6h-0.9l-0.9-0.1l-0.4-0.3l-0.6-1l-0.5-0.8l-0.4-0.5
	l-0.4-1.4l-0.6-0.6l-0.6-0.5l-1-0.6l-1.6-0.5l-1.3-1l-0.2-1.4l0.5-1.5l1.2-0.9l1.2-0.5l0.2-1.2l1.7-0.3l1,0.1l0.8-1l2.1-0.2l0.8,0.3
	l1,0.7l0.5,1.1l0.5,1.2l1.2-0.5l1.1-1.4l0.4-1.1l0.1-1.6l-0.8-1.4l-1-0.4l-1.1,0.3l-0.8,0.5l-0.8-0.4l-0.5-1.4l0.5-1l0.4-1.7
	l-0.5-1.4l0.7-2.6l1.1-0.8l1.2-0.6l1.1-1.1l1.2-0.9l0.1-1.7l1.2,0.1l1-0.3l0.8-1.4l-0.5-0.9l-0.5-1.3L533.9,139z"/>
<text transform="matrix(1 0 0 1 468.7808 148.1113)" class="textName">Ambala</text>
<text transform="matrix(1 0 0 1 309.4883 472.0391)" class="textName">Bhiwani</text>
<text transform="matrix(1 0 0 1 347.6845 513.5712)" class="textName"><tspan x="0" y="0" class="textName">Charkhi</tspan><tspan x="8.2" y="16.8" class="textName">Dadri</tspan></text>
<text transform="matrix(1 0 0 1 589.6734 558.6211)" class="textName">Faridabad</text>
<text transform="matrix(1 0 0 1 247.4331 295.2979)" class="textName">Fatehabad</text>
<text transform="matrix(1 0 0 1 459.958 551.2832)" class="textName">Gurgaon</text>
<text transform="matrix(1 0 0 1 301.999 379.1572)" class="textName">Hisar</text>
<text transform="matrix(1 0 0 1 424.6641 510.6318)" class="textName">Jhajjar</text>
<text transform="matrix(1 0 0 1 391.7363 341.7568)" class="textName">Jind</text>
<text transform="matrix(1 0 0 1 391.7363 267.895)" class="textName">Kaithal</text>
<text transform="matrix(1 0 0 1 469.9814 268.0767)" class="textName">Karnal</text>
<text transform="matrix(1 0 0 1 430.7314 210.0435)" class="textName">Kurukshetra</text>
<text transform="matrix(1 0 0 1 242.4551 623.2468)" class="textName">Mahendragarh</text>
<text transform="matrix(1 0 0 1 499.3315 662.1057)" class="textName">Mewat</text>
<text transform="matrix(1 0 0 1 591.8562 630.4878)" class="textName">Palwal</text>
<text transform="matrix(1 0 0 1 520.1246 51.4959)" class="textName">Panchkula</text>
<text transform="matrix(1 0 0 1 457.543 354.103)" class="textName">Panipat</text>
<text transform="matrix(1 0 0 1 409.7256 590.2744)" class="textName">Rewari</text>
<text transform="matrix(1 0 0 1 401.3309 439.9427)" class="textName">Rohtak</text>
<text transform="matrix(1 0 0 1 151.2603 291.2319)" class="textName">Sirsa</text>
<text transform="matrix(1 0 0 1 458.5645 405.9789)" class="textName">Sonipat</text>
<text transform="matrix(1 0 0 1 592.8778 161.1234)" class="textName">Yamunanagar</text>
</svg>
