<?xml version="1.0" encoding="utf-8"?>
<!-- Generator: Adobe Illustrator 26.0.0, SVG Export Plug-In . SVG Version: 6.00 Build 0)  -->
<svg version="1.1" id="Layer_1" xmlns="http://www.w3.org/2000/svg" xmlns:xlink="http://www.w3.org/1999/xlink" x="0px" y="0px"
	 viewBox="0 0 800 730" style="enable-background:new 0 0 800 730;" xml:space="preserve">
<style type="text/css">
	.st0{stroke:#000000;stroke-miterlimit:10; cursor:pointer;}
	.textName{font-family:'Arial'; font-weight:bold; color:#000000; font-size:14px; cursor:pointer;}
</style>
<path id="D095" class="st0" d="M597.3,400l0.1-1.6l0.4-1.1l0.9-2.9l1-1.5l1.2-1.8l1.2-2.2l0.9-1.2l1-1l1.4-1.5l1.6-2.4l1.2-2.3
	l0.7-1.7l0.9-2.8l0.7-2.2l1.2-3.1l0.8-2l0.6-1.6l0.4-0.9l0.9-0.6l1.8-1.7l0.7-0.9l0.8-1l-1.3-3.6l-0.5-2.2l-0.5-2.1l-0.8-2.5
	l-1.4-3.2l-1.5-2.2l-1-1.2l-1.3-1.4l-2.1-1.9l-2-1.7l-1.7-1.4l-1.9-0.9l0.3,1.3l-0.3,0.8l-1,0.9l-0.9,0.4l-1.3-0.1l-1.6-0.4
	l-2.1-0.6l-3.2-1.4l-3.4-1.6l-2.2-1.2l-1.9-1.1l-2.3-1.3l-2.5-1.8l-1-0.8l-0.5-1.4l-0.8-2.1l-0.8-2.1l-0.5-1.7l-0.1-1.2v-0.8
	l1.5-0.9l2-1.4l2.3-1.3l1.5-1.1l1.3-1.2l1-1.6l-1.7-0.8l-1.7-0.9l-1-0.3l-1.1-1l-1-1.8l-1-1.9l-0.3-1.2l-0.5-2l-0.4-1.7l-0.8-2.5
	l-0.7-1.7l-0.3-0.8v-1v-1.4l-0.4-1.1l-1-2l-0.4-2l-0.1-1.4v-1.9V284v-1.6v-1.5v-1.5l0.4-1.4l0.6-1.9l0.6-2.1l0.8-2.2l1-1.6l1.7-2.1
	l0.9-1.8l1-2.1l1-2.4l0.8-3l0.6-3.1l0.6-2.4l0.7-2.7l0.3-2.3l0.3-2.6l0.2-2.4l0.2-2.3l0.1-1.7l0-1.2l-0.3-1.5l-0.2-1l0.5-1.8
	l0.3-2.1l0.3-2.4l0.2-1.8l0.2-1.3l-0.2-2.5l-0.3-1.2l-0.7-0.9l-1.2-1l-0.8-1l-1.9-1.1l-1.5-0.6l-2.7-1l-2.1-0.8l-2-1.1l-2.5-1.7
	l-2.1-0.7l-1.5-1.1l-1.7-2.1l-1-2.5l-0.8-2.9l-0.8-2.3l-0.9-2.3l-0.9-2.5l-0.5-1.8l-0.4-2.2l-0.5-2.3l-0.2-0.6v-2.2l-0.4-1.5
	l-0.7-2.2l-0.8-2.1l-0.7-1.4l-0.8-1.3l-0.7-1.4l-0.8-2l-0.9-1l-1.2-1.5l-1.1-1.8l-1.1-1.1l-0.6-1.4l-0.8-1.9l0.3-1.8l0.2-1.1
	l-1.6-1.1l-1.5-1.4h-0.9l-1.4,0.5l-1.7,1.8l-3.4,1.9l-3.1,2l-1.3,1.6c0,0-0.7,1.2-0.7,1.5s-1.2,2-1.2,2l-1.8,2.8l-3.6,2.9l-2.5,2.3
	l-2.2,1.7l-2.3,1.5l-1.9,1.4l-2.2,0.4l-3.3,0.1l-3-0.4l-3.6,0.1l-1.8-0.4l-1.4-0.9l-1.6-0.6l-1.6,0.6v2.4l-0.4,1.5l1.5,2.5l1,1.6
	l0.8,2.1l1,2l0.2,3.7l1.1,1.7l1.4,1.7l1.1,1.1l1.8,2.1l0.9,0.8l1.3,1.1c0,0,1.2,1.4,1.4,1.9c0.2,0.4,0.7,1.4,0.8,1.7
	c0.1,0.4,0.1,1.7,0.1,1.7s-0.5,1-1.1,1.3s-1.4,0.6-1.6,0.6s-1.4,0-1.9,0s-2.9,0-2.9,0s-0.4,0.4-0.6,0.8c-0.2,0.4-0.5,0.3-0.9,1
	s-1.6,1.9-1.6,1.9l0.6,2.1l0.2,1.4c0,0,0.4,1.3,0.5,2.1c0.1,0.9,1.2,3.4,1.2,3.4l1.1,1.5l1.6,1.6l2.2,1.4l1.8,1.7l2.3,1.3l2.6,1.3
	l1.3,0.6l2,1.4l1.8,0.7l1.3,0.6c0,0,0.8,0.4,0.9,0.6c0.1,0.3,0.2,2.4,0.2,2.4l0.1,1.4l0.1,1.4l0.6,1.6l0.4,0.1l2.5-0.6l1.5-1.4
	l1.4-1l2.6-1.2l1.4-0.6l2.5-0.1l2.2,0.6c0,0,1.5,0.2,1.8,0.4c0.3,0.1,2,0.7,2,0.7s1.5,0.9,1.9,0.9s1.1-0.3,1.7,0.1s3.3,0.5,3.3,0.5
	s1.1-0.1,1.6,0.1s2.1,0.4,2.1,0.4l1.3,0.6l1.4,0.9c0,0,0.4,1.6,0.2,1.8c-0.1,0.2-0.2,2.1-0.2,2.1l0.6,1.9l1.2,0.9l1.1,1.6l0.7,1.5
	l0.4,1.9c0,0,0,1.6,0,1.9s-0.7,3.7-0.7,3.7l-0.4,1.9l-0.7,2.1c0,0-0.9,1.7-0.9,2s-1.2,2.9-1.2,2.9l0.3,8.7l0.1,4.4l-0.1,4.4
	l-0.1,3.1l-1.1,3.4l-1.6,3.2l-0.7,1.1l-1.4,2.1l-1.3,1.4l-2.3,1.2l-1.2,0.7l-3.7,0.2c0,0-0.6-0.3-1-0.6c-0.4-0.3-2.3-0.9-2.3-0.9
	l-1.2-0.7L536,306l-1.9,0.1l-3.5,0.5l-1.6-2.4l-0.9-1.7l-1.7-4.2l-2.7,0.3l-2.1-0.9l-0.6-1.2l-1.6-2l-1-0.7l-1.3,0.8l-0.9,1.9
	l-1.8,1.4l-1,1.7l-1.7,1.5l-1.5,1.8l-1.1,0.8l-0.9,1.3l-0.8,1.4l-1.4,0.9l-1.8,0.2l-1.6-0.8l-1.4-1.5c0,0-0.7-0.6-1-1
	s-1.7-1.6-1.7-1.6l-0.9-1.1l-1.1-0.6v1.1l-0.9,2.4l-0.4,1.6v0.9v1.6l1.4,2.2c0,0,1.6,1.4,1.9,1.6c0.2,0.1,2,1.6,2,1.6l0.9,1.1
	c0,0,0.2,0.9,0.4,1.5c0.2,0.6,0.6,1.6,0.6,1.6s0.6,0.9,0.6,1.1c0.1,0.2,0.9,0.9,1.2,1c0.3,0.1,1.4,0.4,1.6,0.5
	c0.2,0.1,1.9,0.4,1.9,0.4l1,0.7l-0.7,1.8l-0.5,1.3l-0.9,2.4l-0.5,1.2l-0.3,1.3c0,0-0.7,1.1-0.8,1.4c-0.1,0.2-0.4,1.6-0.4,1.6
	l-1.3,1.4l-1.4,1.1l-2,0.9c0,0-0.2,0.9-0.2,1.1s-1.1,2.1-1.1,2.1l-0.8,1.3l-0.4,1.3l-0.5,0.8l-1.2,0.6l-1.1,1.8l-0.7,1.1l0.6,1.2
	l0.4,1.6l0.4,0.4l0.6,1.1l1.2,0.7l1.4,0.5l1.4,0.4l1.5,0.1l1.9,1l2.1,0.4l1.4-0.1l1.4,0.3l1.5,0.8l-0.4,0.8l-0.6,1.4l-1.1,1.6
	l-1.1,1.4l-0.9,1.4c0,0,0,0.8,0,1s-1.1,2.4-1.1,2.4l-0.6,1.2c0,0-0.6,1.3-0.6,1.6s-0.3,1.7-0.2,1.9c0.1,0.2,0.1,2.1,0.1,2.1
	l-0.6,1.4l-0.6,2.6l0.9,0.9l0.6,1.7l0.1,1.6v1.2v1.6l0.7,1.5c0,0,1,0.9,1,1.1c0,0.2,0.8,1.1,1,1.7c0.2,0.6,0.6,1.8,0.6,1.8l0.1,0.7
	l1.4,1.4l1.9,0.3l1.9-0.1l2.5-1.2l1.4-1.8l1.4-1.2l1.6-1.8l1.4-2.3l1.6-1.6l1.1-2.1l1.4-2.3l0.9-2.1l1.3-2.4l1.1-2.5l0.6-2.1
	l0.6-0.9l0.8-1.9l1.5-1l3.6,0.5l2.7,0.9c0,0,2.8,1.5,2.8,1.7s2.6,1.6,2.6,1.6l2.7,1.9l1.5,0.9l1.3,0.4l1.5,0.4c0,0,1.6,0.2,1.9,0.2
	s2.5-0.1,2.5-0.1l1.2-0.6l1.6-0.9l1.1-0.9l1.1-0.6l1.6,0.2l0.4,0.8l0.9,1.9l1.2,2.8c0,0,1.9,1.5,2.6,1.9s2.6,1.4,2.6,1.4
	s1.4,1.1,1.6,1.2c0.3,0.1,2.8,1.2,2.8,1.2s2,1.1,2.1,1.3c0.1,0.2,2,1.4,2,1.4l1.4,1.2l2.2,1.6l2.1,1.3c0,0,1.4,1.6,1.6,1.8
	s1.4,0.4,1.9,0.7c0.5,0.3,2.4,1.6,2.4,1.6l1.6,1.4l3.2,3.3l1.1,0.9l1.2,1.7L597.3,400z"/>
<path id="D093" class="st0" d="M646,345.4l1.5-0.6l1.7,2.4l2.2,2.8l1.9,3.2l1.6,3l2.2,3.1l2.3,2l3,2l0.9,0.5l2.1,1.1l7.1,2.6h3.3h2
	l2.4,0.7h2.1l1.9,2.7l3.3,3.7l1.4,1.4l1.6,1.9l2.6,2.1l3.1,2.3l3.9,1.6l3.1,2.7l2.3,1.1l1.4,2.1l2,1.7l2,2.3l0.7,2.4l1,2.7l0.9,3
	v3.7v5.2v3v2.9l-1.6,2.4l-3.1,2.6l-4,1.9l-3.1,1.1l-3.9,1.9L695,428l-3.6,2c0,0-1.7,1.1-2.9,1.3c-1.1,0.1-5.7,1-5.7,1l-3.1,1
	l-3.1,1.6l-1.3,2.4l-2.7,3.1l-2.1,2.4l-2.1,2.6l-1.7,2.7l-1.7,2.7l-2.4,2.3l-1,1.7l-1.3,2.7l-0.6,2l-0.3,3.9l-0.4,5l0.3,5.3l0.1,5.3
	l0.7,2.9l-1.9-4.7l-1.4-2.3l-3.1-3.7l-2.3-2.9l-2-2.6l-1.4-3l-2-2.9l-2.5-4.6l-2-4.6l-3.3-2.3l-1.9-1.3l-2.3-0.7l-3.9,0.7v1.3v-3.1
	l1.3-2.7l0.3-5.1l-0.7-2.1l-0.9-3.3v-2.1l-2.6-2.4l-3.1-0.9h-2.3l-2.6,1.4l-1.7,2.6l-2.4,1.6l-2.9,2.7l-1.4-2.3l-1.7-4.4l-1.3-3.6
	l-1.1-2.7l-2.9-6.4l-1.6-3.6l-3.3-3l-1.1-4.6l-0.7-2.7v-3.1l1.3-4l2.6-3.9l1-2.1l3-3.1l2.3-3.4l1.6-3.7l1.3-4.3l1-2.4l1-2.7l1-2.6
	l1.9-1.1l4.5-6l1.6-2.3l2.4-1.9l4.9-0.9l2.1-1.1l3.2-2.4l1.1-2.4h2.8h1.7h1.1l1.7-1.3L646,345.4z"/>
<path id="D094" class="st0" d="M425,586l0.9,0.2l0.9,0.1l1.6,0.1h1.9h1.6l1.7-0.2l1.7-0.2l1.9-0.4l1.3-0.4l0.5-0.1l3-0.2l1.8,0h2.1
	h3.1l3-0.2l0.9,0l2.1,0.7l1.7,0.5l1.5,0.6l1.7,1.2l1,0.6l1.1,0.6l1.7,0.1l0.7-1.4v-1.1V585v-1.8l0.5-1.8l0.4-0.8l1-1.2l0.8-0.5
	l1.8-1.9l1.4-2.2l1.1-2.4l0.8-2.8v-1l-0.8-1.3l-0.8-0.9l-1.5,0.4l-1.2,0.1l-0.7,0l-1.9,0.9l-1.3-0.3l-1.8-0.8l-1.4-1.1l-1.5-1.2
	l-1.4-1.2l-1.5-1.5l-1.6-0.9l-2.8-1.1l-1.6-0.4l-1.7-1l-1.7-0.8l-1.1-1.3l-0.6-1.2l-0.5-1.6l0.2-2.5l0.6-3.3l0.6-2.2l1.1-3.4
	l0.7-2.3l1.1-3.2l0.7-0.8l1.3-1.5c0,0,1.8-0.7,2.3-0.9c0.5-0.2,1.8-0.3,1.8-0.3l2.9,0l3.4,0.1l2.3,0.2l3.2,0.6l2.8,0.7
	c0,0,0.1,0,2.4,0.4s4.8,0.7,4.8,0.7l3.2,1.1l1.2-2.7l1.5-2.5l1.3-0.9l2.3-0.6l1-0.2l1.5-1.7l2-1.8l1.9-2l1.6-1.6l1.8-1.5l2.1-1.3
	l2-1.2l2.6-1.4l0.8-1.6l-1.5-1.6l-1.5-1.2l-2.4-1.9l-2.6-1.9l-2-1.4l-2.1-1.1l-1.9-0.8l-2-0.8l-1.4-0.4l-0.8-0.4l-0.6-1l1.9-0.6
	l3.5-0.8l2.9-0.9l4.3-2.3l3.5-0.2c0,0,2.9-0.1,2.9,0c0,0.1,4,0.1,4,0.1l2.8-0.4l1.7-1.7l1.1-2l0.7-3l0.2-2.9l-0.4-2.2l-0.8-1.8
	l-0.4-0.9l0.4-1.6l3.6-2l2-0.8l1.4-0.9l0.7-2.2l0.4-8.4v-3.9v-5l0.6-2.1l0.8-2l1-1.3l1-0.4l1.7-0.1h2.6h5.4h2h3l2.8,0.5l2.3,0.1h4.2
	l1-1.6l0.7-1.2v-2.4v-2.6v-2.8l3.6-1.5l5.7-1.7c0,0,3.9-0.9,4.3-1c0.4-0.1,1.9-0.1,1.9-0.1s1.6-0.1,1.9-0.1c0.2,0,1.6-0.1,1.6-0.1
	h2.1l1.8,0.3l2.7,0.3l1.6-2l-0.8-2.4l-0.7-1.9v-2v-3.1l0.1-2l0.5-1.8l1-1.4l1.4-1.8l1.3-1.2l1.6-1l2-2.4l1.5-1.5v-1.7l0.2-1.4l0.8-2
	l2.6-1l0.5-0.2l2.1,0.9h2.6l1.2,0.3l1.6,0.2l2-0.5h0.7l-0.7-2.7l-0.8-3.2l-0.5-3.4l-0.9-0.2l-1-1.4l-2.2-2l-1.8-1.9l-1.7-1.6
	l-1.9-1.4L586,390l-0.9-0.3l-1.6-1.8l-1.5-0.9l-2.4-1.7l-1.8-1.5l-2.3-1.6l-1.9-1.1l-2.4-1.1l-2-1.4l-1.1-0.5l-1.9-1l-2-1.5
	l-0.5-0.6l-0.8-1.8l-1-2.3l-0.5-1l-1.6-0.2l-1.5,0.9l-2.4,1.4l-1.2,0.6l-2.2,0.1l-2.8-0.4l-2.2-0.7l-2.3-1.5l-2.5-1.6l-2.7-1.8
	l-2.1-1.2l-2.7-0.9l-2-0.3l-1.6-0.2l-1.5,1l-0.7,1.6l-0.8,1.4l-0.9,2.8l-2,3.9l-2.4,4.4l-1.5,2.4l-1,1l-1.2,1.9l-1.1,1.5l-1.3,1.4
	l-0.8,0.7l-1.2,1.5l-1.4,0.9l-1.5,0.6l-1.7,0.1l-1.9-0.3l-1.1-1.1l-0.5-1.1l-0.6-1.8l-1-1.7l-1.1-1.5l-0.6-1.2l-1.6,1.5l-1.7,0.6
	l-1.6,0.1l-3.1,0.1l-2.8-0.3l-2.5-1.4l-1.5-2l-1.9-2.8l-1.9-2.5l-2.2-2.3l-2.1-2.7l-1.6-1.4l-1.6-0.9l-1.5,0.9l-1,1.4l-1.3,1.4
	l-1.6,0.3l-2.5-0.6l-0.9-0.9l-1.1-2.1l-1.7-0.2l-0.9,1.5l-1.6,0.5c0,0-0.4-0.6-0.6-0.8c-0.3-0.1-1.8-0.5-2-0.6s-1.6-0.8-1.9-0.8
	c-0.2,0-3.1-0.7-3.1-0.7l-2.9,0.2c0,0-1.7,0-1.9,0.1c-0.2,0.1-1.6,0.7-1.6,0.7s-1.9,0.1-2.4,0.4c-0.6,0.3-1,0.5-1.5,0.7
	s-2.6,0.7-2.6,0.7l-2.4,0.9l-0.9,1.1l-0.9,1.7v2.1l-0.2,2.3l-0.2,2.5v1.6l-0.1,0.9c0,0-1.4,1.3-1.5,1.5s-2,1.6-2,1.6l-1.3,0.9
	l-1.3,2.2l-1.4,2l-0.9,2.6l-0.6,2.3l-1,1.8l-2,1.3l-2.4,1.3l-3.2,1.6l-1.9,1.3l-2.1,0.8l-1.4,0.3l-1.5,0.6v2.2l-0.4,4.4l-0.3,2
	l-1.2,1.7l-0.4,1.6l-0.9,1.9l-1.2,1.7l-0.7,0.9l0.4,1.1l1.1,1.2l0.8,1.4l0.5,1.2l1.2,1.6l-1.9,1.3l-1.8,1.5l-1.1,1.3l-1.4,2
	l-0.4,1.4l-1.4,3.1l-2.4,4.1c0,0-2.6,3.6-2.8,3.9s-2.1,3-2.1,3l-1.4,1.6l-1.4,2.3l-1.7,2.5l-2.4,2.4l-2.1,2.9l-1.7,1l-1.6,0.1
	l-2.3-1l-2.1-1.7l-2-0.8c0,0-2.1-0.2-2.3-0.4c-0.2-0.2-3.5-0.7-3.5-0.7l-1.4,0.9l-1.1,1.4l-1,2.4l-0.8,2.2l-1.1,0.6l-2.7-0.6l-2-1
	l-1.6-1l-1.6-0.5l-1.8,1.6c0,0-1.6,2.1-1.8,2.3s-2.1,2.5-2.1,2.5l-2,2.4l-1.6,2.2l-1.5,1.6l-0.5,3v2.2l1,1.4l1.1,1.7l7.4,4l2.2,1.6
	l2.3,1.4c0,0,2.4,1.4,2.6,1.5c0.2,0.1,1.6,0.7,1.9,0.9c0.2,0.2,1.6,0.9,1.6,0.9l1.6,1l1.1,2.6l0.5,1.4l0.4,1.9l1,1.6l2.5,1.9
	l2.4,1.1l2.4,1.9l2.4,1.2c0,0,2.8,1.8,3.3,1.6s1.8-0.1,3.1-0.1s2.9,0,3.2,0c0.3,0,1.9,0,1.9,0v2.1l-0.8,2l-2.1,3.6l-1.1,2.2
	c0,0,0.3,1.2,0.6,1.4s1.6,1.4,1.6,1.4l2.8,2.3l2.4,2.2l3.1,2.1l2.6,1.6l1.6,1.4l1,1.4l1.4,1.6l1.4,1.2l1.7,1.8l0.8,1.4v1.9l-0.8,2
	l-1.4,2.6l-2.2,3.9l-2.1,4l-2.2,3.5l-0.4,0.4l1.2,1.8l1.6,2.2l1.9,1.9c0,0,2.1,1.5,2.5,2s3.4,2.4,3.4,2.4l2.6,1.5l2.1,2
	c0,0,2.8,1.4,3.1,1.7s2,1.3,2.2,1.5s2.8,2.3,2.8,2.3s1.2,0.6,1.3,1c0.1,0.4,0.1,1.4,0.1,1.9s-0.8,3.1-0.8,3.1l-1.1,1.5
	C425.1,585.1,425.1,585.7,425,586z"/>
<path id="D091" class="st0" d="M544.7,161.3l-1,0.2l-0.7,0.3l-0.6,0.5l-0.7,0.8l-0.5,0.6l-1.2,0.7l-1.2,0.6l-1.4,0.8l-1.2,0.8
	l-1,0.7l-0.7,0.7l-0.8,1l-0.6,1.1l-0.3,0.8l-0.7,1.1l-0.8,1.2l-1.2,1.9l-1.9,1.7l-1.8,1.5l-1.2,1.1l-1.3,1.2l-1.4,1.1l-1.4,1
	l-1.4,0.9l-2.3,1.7l-2.2,0.4l-3.1,0.1h-1.5l-1.7-0.4l-1.5,0l-1.8,0l-1-0.1l-1.2-0.3l-0.9-0.6l-1-0.5l-0.8-0.3l-1.7,0.5l-0.1,2.2
	l-0.4,1.7l2.4,3.9l0.7,1.9l1.2,2.5l0.2,3.7l1.8,2.6l2,2.3l1.8,2.1l1.2,1.1l1,1l1.1,1.5l0.8,1.7l0.1,1.5l-0.7,1.2l-1.3,0.7l-1.2,0.2
	h-2.5h-1.7l-0.9,1.1l-2,2.4l0.5,2.8l0.6,2.9l1.2,3.4l2,2.3l2,1.5l1.4,1l1,0.9l0.9,0.7l1.2,0.7l1.5,0.8l2,1l1.8,1l1.9,1.1l1.4,0.6
	l1.9,1.1l0.2,1.2l0.1,1.8l0.1,1.8l0.4,1.5l0.4,0.7l1.6-0.3l1.4-0.6l1.4-1.2l1.2-0.9l4.1-1.9l2.5-0.1l4.7,1.2l3.1,1.4l1.1-0.1
	l1.5,0.4l2.5,0.4l2.1,0l1.5,0.2l1.2,0.6l1,0.7l0.8,0.9v2.1v1.4l0.4,1.4l0.9,0.8l1.3,1.6l0.8,1.5l0.4,1.8l0.1,1.3l-0.3,2.4l-0.5,2.2
	l-0.6,2.4l-0.5,1.5l-0.7,1.4l-0.8,2.1l-0.6,1.4l0.3,14l-0.2,6.6l-1,3.3l-1.6,3.4l-2.1,3.2l-1.3,1.4l-3.1,1.7l-4.1,0.5l-1.8-0.9
	l-1.4-0.5l-1.1-0.6l-1.6-0.3l-1.4-0.1l-1.5,0.1l-2.1,0.3l-1.8,0.2l-2.7-4.5l-1.6-3.9l-2.7,0.3l-2.1-0.9l-0.9-1.6l-0.9-1.1l-0.7-0.7
	l-1-0.5l-1.1,0.6l-1.6-0.7l-1.2-0.8l-0.7-0.5l-1.6-0.5l-1-0.6l-0.5-0.7l-0.5-1l1.6-4.1l-0.8-1.4l-2.1,0.5l-1.8,0.5l-3,0.1l-1.9,0.2
	l-2.2,0.3l-2.6-0.4l-2.9-0.4l-1.8-0.3l-1.5-0.6l-1.9-1.1l-1.1-0.8l-2.6-1.9l-0.2-1.5l2.1-1.7l-1.1-2.6l0.9-1.9l0.2-1.6l1.3-1.4
	l0.8-2.4l-0.2-5.4l-1.4-2.6l-2.3-3.4l3.1-5.4l0.5-3.4l-0.1-2.1l-3-5.9l-0.2-0.3l-1.5,1l-1.3,0.8l-1.8,1.8l-1.4,1.6l-2.1,1.6
	l-2.5,0.3l-1.9,0.1l-2-0.1l-2.1-0.2l-3.2-0.8l-1.9,1l-2.4,4.6l-1.3,2.2l-2.2,3.3l-1.3,1.7l-1.4,0.9l-1.9,1.2l-0.8,0.7l-1.8,1.6
	l-0.8,1.8l-0.8,2.4l-0.8,2.6l-0.4,1.5l-1.4,1.7L444,275l-3,1.1l-4.3-0.4l-1.1-1.4l-0.4-2.8l-0.5-3.1l-0.5-2.6l-0.4-2.6l-0.9-3.1
	l-0.5-1.4l-0.6-1.4l-1-2.1l-1.2-2.6l-0.9-1.6l-1.6-3.1l-1-2l-1.4-2.7l-1.3-2.3l-1.4-2.3l-1.1-1.6l-2.1-3l-1.8-0.3l-2.6-1.2h-3.3
	l-3.5-1.3l-1.6-1.6l-3,0.9l-2.4,0.5l-2.5,0.7l-1.6,0.9l-1.6,1.3l-1.8,2.3l-1.5,1.7l-0.7,0.8c0,0-0.8,1.3-1,1.5s-0.9,1.3-0.9,1.3
	l-1,0.9l-1.3,1.1l-2,0.2l-2.9-1.7l-3.8-2.8l-3.5-2.5l-2.9-2.4l-2.8-1.7l-3-1.9l-3.1-2.4l-4.9-3.9l-2-1.1l-3.6,0.1l-4.4,0.4l-1.7,0.1
	l-2.4-1.1l-3.4-2l-4.3-2.8l-1.5-0.9l-6.6-2.1l-3.8-1.2l-4.5-0.6l-3.5-0.7l-4.1-1.6l-5.9-1.9l-1-1.8l-0.7-3.4l-0.5-2.3l-0.6-1.8
	l-1.8-2.3l-3.2-4l2-1.9l0.1-4.2l0.2-7.4l-0.2-6.9l-0.6-1.8l-3.7-1.9l-2.4-1.2l-5.1-2.5l-3.3-1.4l-3.8-0.9h-1.4l-3.1,0.3h-2.6
	l-2.6-0.7l-2-2.1l-2.3-2.4l-1.5-1.6l-2-2.3l-1.3-1.7l-1.6-1.1h-1.4l-2,0.9l-1.8,0.8h-1.4l-3.4-2.9l-2.1-1.8l-1.9-1.9l-1.5-1.1
	l-2.1-1.1l1.4-2.7l-0.4-1.4l-1.5-0.3l-0.8-1.9l0-0.6l2-3.4l0.2-0.6l-0.3-1.8l-2.2-1.5l-0.7-1.9l2-1.6l-0.4-1.8l-1.6-1.5l-1.9-1.6
	l-1.3-0.6l1.2-1.8l1.9-1.4l1.1-3l0.1-3.4c0,0,0.2-1.1,0.3-1.4s0.4-3.9,0.6-4.1s1.1-2,1.1-2l2.4-1.3h1.4l2.1,1.9l2.9,2.4l2.9,2.9
	l2.1,1.6l3.1,0.3l2.9-1.6l2.8-6.5l2.5-5.6l2.5-3.7l2.6-1.5l3.5-0.5l3.1-0.5l2.6-1.4l2.8-0.9h3.4l2.8-1.1l1.4-0.6L300,88h5.5h2.9h7.8
	l4.5,1.7c0,0,2.1,1.7,2.6,2.1s4.1,2.6,4.1,2.6s2.8,1.5,3,1.5s3,0.3,3,0.3l3.4-2.6l1.8-5.6l2.9-9l1.7-5.6l3.1-6.4l4-7.3l4.4-8.3l3-6
	l8.2-0.6h13l3.1-6.9l4.3-4.9l4.4-3.5l2.9,4.4L397,39l3,4.5l1.9,0.4c0,0,5.4,1.2,5.6,1.2c0.3,0,3.6-0.1,3.9-0.1s4.8,0.1,4.8,0.1
	l3.9,0.6l2.4,1.6l2.1,1.5l3.8,2.6l1.3,1.1l1.3,1.5c0,0,2,1.4,2.3,1.4s4.6,0,4.6,0s4.7,0.1,5.1,0.3s6.9,0.4,6.9,0.4h5
	c0,0,1.7,0.2,1.9,0.4c0.2,0.2,2.6,3,2.6,3l2.1,2.8l1.7,2.4l1.3,3l0.5,4.4l-1.1,6.7l-1.4,4.4l0.2,2.1l0.9,1.1l3.2,2.3l1.8,1l3-0.3
	l4.4-2.8l2.9-3.3l3.9-3.6l4.7-4.8l5.1-5.4l5.5-4.6l4.5-2.4l6.9-0.5l7.2-0.6l4.6,0.2l3.2-1.4l1.9-1.7l2.2-3.1l0.1-0.7l3.3,0.6
	l3.4,1.2l3.8,0.3h3.1l3.9,0.4l3.8,2.6l3.6,3.2l3.1,4.7l1.8,3.6l-0.1,3.9l-0.4,5.6l-0.1,4.4l1.6,3.2l2,3.4l2.1,3.1l1.6,2.6v2.1
	l-0.7,7.9l-1.7,6.5l-0.6,8.2c0,0-0.4,4.6-0.4,4.9s0,1.9,0,1.9s-3.9,0.4-4.6,0.4s-4.6-1-4.6-1s-2.2,0-2.9,0s-3.3-0.3-3.3-0.3
	s-1-0.6-1.8-0.6s-6.6-0.7-6.6-0.7l-0.6,0.6l-0.4,2.9l-0.3,5.5l1,9.6l0.9,6.4l3.1,5.7L544.7,161.3z"/>
<path id="D092" class="st0" d="M660.1,276.1l-0.9,1.4l-1.5,3l-0.2,2.1l-0.3,1.9l-0.3,1.9v3.8l0.3,2.8l0.5,3.3l0.2,0.9l-0.9,1.5
	l-1.7-0.6l-1.3-0.1l-1.1-0.1l-1.8-1.4l-2.5-1.8l-2.1-1l-1.7-0.9l-1.2,0.2l-2.6,0.8l-1.3,0.4l-0.7-1.1l-1-1.5l-1.7-1.4l-1.2-0.7
	l-2.1-0.7h-1.9l-1.6,0.6l-2.3,1.1l-1.5,1.1l-0.4,1.6l-0.2,2.8l-0.1,2.6l-0.2,2.4l-0.4,2.5l-0.3,2.3l-0.2,2.2l-0.2,2.3l-0.4,2.4
	l-0.9,1.9l-0.9,2.4l-0.8,2.3l-0.8,2.5l-0.5,1.6l-1.7,1.8l-1.2,0.9l-3.1,0.9l-2.3,0.3l-2.8,0.3h-2.1l-3.4,0.2l-2.4,0.4l-1.7,1.5
	l-0.8,1.2l-0.7,1.1l0.5,0.6l0.8,1.4l1.2,2l1.7,1.1l0.4,1.8l-1.8,1.6h-1.3l-3.4-0.8l-3.2-1.4l-2.7-1.3l-2.8-1.3l-2.2-1.4l-2.2-1.2
	l-1.8-1.3l-2.4-1.7l-0.8-2.2l-0.9-2l-0.5-1.7l-0.5-1.7v-1.6l2-1.3l2.4-1.6l1.9-1l1.7-1.4l1-1.1l0.5-1.1l-1.4-0.6l-1.7-1l-1.3-0.4
	l-1-0.8l-1-1.8l-1.1-1.8l-0.5-2l-0.6-2.4l-1.1-3.2l-1-2.5v-2.8l-1.4-2.7l-0.5-2.6v-3.2v-2.8v-2.5v-2l0.8-1.8l0.6-2.5l1-2.9l1-1.6
	l1.9-2.4l1.1-2.5l1.3-2.5l1.2-4.4l0.4-2.4l0.8-2.9l0.9-3.5l0.3-3.2l0.3-3.3l0.3-4.4v-0.9l-0.5-2.6l0.5-1.8l0.5-3.2l0.2-1.7l0.3-2.7
	l-0.3-3.1l-0.4-1.1l-1.6-1.4l-1.1-1.4l-1.6-0.8l-2.1-0.9l-2.9-1.1l-1.7-0.6l-1.6-1l-2.5-1.7l-2.4-0.8l-1.8-1.5l-1.3-1.8l-0.9-2.2
	l-0.6-2.4l-1.4-3.8l-0.9-2l-1.1-3.2l-0.5-3l-0.6-2.6v-2.2l-0.8-2.7l-0.8-2.4l-1.2-2.5l-1.1-1.6l-1.1-2.8l-0.9-1l-1-1.2l-1.1-1.9
	l-1.3-1.3l-0.6-1.4l-0.8-1.4v-1.4l0.5-1.6l2.5,1.1l2.7,1.7l1.9,0.5l3.5,0.9h2.4l3.1-1l2.8-0.5l2.2-0.1l2.6-0.8h1.5l1.6,0.5l-0.1,1.7
	l-1.8,2.4l-1.6,1.2l-2,1.2l-2.4,1.6l-1.2,0.4l0.9,1.9l2.7,1.9l1.1,1.5l3,2.4l3.3,2.9l2.4,2.5l2.1,2l1.1,2.7l2.4,3.3l1.5,3l1.6,2.2
	l1.2,1.7l1.3,2.4l1.1,1.2c0,0,1.9,1.1,2.2,1.2c0.3,0.1,1.6,0.3,2,0.3s3,0.8,3,0.8l4,0.4l3.2,0.9l2.2,2.8l1.4,2.4l0.3,3.8l-0.9,3.8
	l0.1,1.6l-0.2,2.5l0.5,1.6l1.9,1.9l1.7,2l1.5,2.1l2.7,1.9h3.9l3.1-0.3l2.8-0.8l2.2,0.4l2.8,1.5l2.8,1l2.5,1.8l2.5,2.5l2.9,2.1
	l2.6,4.4l1.3,2.7l1.3,3.6l0.9,3.4l-0.6,1.3v3c0,0-0.2,2.1-0.2,2.5c0,0.3,0.6,3.5,0.6,3.5l0.8,1.7l1,2l2.6,1.5c0,0,2.9,0.9,3.3,1
	S660.1,276.1,660.1,276.1z"/>
<path id="D090" class="st0" d="M517,294.5l-0.8,1.6l-1.3,1.2l-1,1.1l-0.7,1.1l-1.9,1.8l-1.9,1.9l-1.2,1.6l-1.6,1.9l-1.3,0.5
	l-1.1,0.1l-1.3-0.6l-1.1-1.1l-1.7-1.8l-1.8-1.8l-1.6-1.4l-0.2,1.8l-0.7,1.9l-0.4,2.4l0.1,1.8l1.1,1.7l1.8,1.6l1.5,1.2l1.2,1.2
	l0.7,1.7l0.6,1.7l0.7,1.4l1.2,1l1,0.3l1.3,0.3l1.1,0.2l0.6,0.3l0.5,0.8l-0.8,2l-0.9,2.6l-0.8,2.5l-0.8,1.6l-0.5,1.7l-1.4,1.7
	l-1.5,1.1l-1.8,0.8l-0.3,1.3l-0.8,1.5l-1,1.7l-0.4,1.3l-0.5,0.8l-1.1,0.5l-0.6,0.8l-0.6,1l-0.7,1.1h-1.6l-1.7-0.7l-1.7-0.6l-1.8-0.7
	l-1.6-0.4l-0.8-0.2l-0.5-1.1l2-2.6l1.1-2l0.2-2.6l-0.4-2.5l-0.2-2.9l-1.3-1.5l-2.4-0.3l-1.6-1l0-1.6l0.2-2.2l0.6-2.2l0.3-1.1
	l-1.1-0.3l-1.1,0.5l-1.8,1.2l-2.3,1.7l-3.7,2.4l-2.5,1.3l-2.1,0.9l-1.3,0.6l-1.8-0.3l-3.3-0.5l-1.9-0.2l-1.3-0.9l-2.1-1.8l-1.6-1.5
	l-1.9-1.8l-1.6-2l-1.9-2.3l-0.3-0.4l-1.9-1l-2.3-0.2l-2.7-1l-1.9-1l-2.6-2.1l-1.6-1.6l-0.9-1.1l-0.5-2.4l1.6-3l1.4-2l0.1-1.9
	l-0.6-1.2l-1.8,0.6l-2.1,2.4l-0.8,2.2l-0.6,1.8l-1.4,2.2l-2,3l-1.5,0.9l-1-0.8l-3.8-7l-1.6-0.9l-1.3,0.5l-3.8,4.6l-2.6,0.8l-2.1-3.4
	l-2.5-3.2l-1.8-1.8l-2-0.5l-0.8,2l-1.4,1.8l-1.3,0.3l-1.8-1.5l-3.8-2l-3.4,0.7l-3.5,1.5l-4.5,4.3l-3.5,1.3l-2.8-1.6l-3.2-3.1l-2.1-2
	l-2.7-3.1l-2.1-1.8H365l-3.7,2.3l-3,3l-2.4,3.7l-2.8,2l-2.7-2.7l-2.4-4l-2.8-4.4l-2.5-3.6l-3.5-3.5l-2.9-2.5l-1.4-1l-2.2-0.1H331
	l-1.5,0.9l-3.5,1l-4.8,1.5l-3.3,0.5l-3,0.1l-4.5,0.2l-4.5,0l-3.4,0.4l-1.8,2.6l-1.5,3.4l-10,15.5l-2.6,0.5l-2.9-2l-4.2-3.7l-2.6-1.3
	l-3.9-3.1l-4.5-3.6l-3.6-3.4l-4.4-3.5l-1.9-2l-1-2.3l-1.1-3.8l-1-1.8l-1.6-1.2l-1.8-0.1l-2.8,0.7l-2.3,0.9l-3.3,2.1l-2.9,1.6
	l-1.8,0.9l-0.7,0.5v-5.1l-0.6-3l-3-3.2l-2.4-2.7l-3.6-3.5l-4.4-3.4l-2.4-2.1l3.9-8.1l1.8-4.2l2.1-4.6l2.1-4.6l1.9-5.9l-1.1-7v-2.9
	l0.8-4.4l-1.1-3.4l-2.2-3.1l-2.9-2.8l-3.9-4l-4-4.9l2.6-5.8l4.1-7.6l2.9-5.8l-0.3-3.4l-2.4-3.9l-1.1-4.1l-0.8-5.3l0.1-6.5l0.5-6.1
	l-0.7-3.5l-2.7-4.4l-3-4.8l-0.5-2.3l0.5-7.4c0,0,1.1-2.5,1.1-2.7c0.1-0.2,1.8-4.9,1.9-5.1s0.9-3.9,0.9-3.9l2.7-3.2l3.9,2.1l1.4,1.4
	c0,0,1.3,0.7,1.6,0.7c0.3,0,6.3-1.5,6.3-1.5l0.8,0.2l2.1,1.8c0,0,1.8,1.5,1.9,1.8s0.4,1.8,0.4,1.8s-1.9,1.4-2,1.6s0.7,1.9,0.7,1.9
	s0.9,0.5,1.1,0.7s1.1,0.8,1.1,0.8s0.4,1.6,0.3,1.8c-0.1,0.2-0.5,1.3-0.9,1.6c-0.4,0.4-1.4,2.3-1.4,2.3l-0.1,1.3c0,0,0.5,1.1,0.8,1.2
	s1.6,0.3,1.6,0.3l0.4,1.1l-1.6,2.9l2.8,1.5l2.6,2.6l5.5,4.6h1.4c0,0,1.8-0.8,2.1-0.9c0.4-0.1,1.6-0.7,1.6-0.7h1.9
	c0,0,0.7,0.4,1.1,1.1c0.4,0.7,3.3,4,3.3,4l5.9,6.1c0,0,0.8,0.4,2.1,0.6c1.3,0.2,4,0,4,0l2.9-0.4l2.8,0.4l4.5,1.8l11.9,5.9l0.4,0.8
	c0,0,0.3,6.1,0.3,7.1s-0.4,11.9-0.3,12.4c0.1,0.4-2,1.9-2,1.9l1.6,1.9l1.4,1.9l2,2.6l0.9,2.7l0.6,3.4l0.4,1.4l1,1.8l2.9,0.9l3.1,1
	l4.1,1.6l3.5,0.7l4.5,0.6l3.8,1.2l3.5,1.1l3.1,1.1l2.8,1.7l3,2l3.9,2.3l1.9,0.8l3.4-0.1l2.8-0.4l3.6-0.1l2,1.1l4.3,3.4l4,3.1
	l5.4,3.4l3.8,3.1l3.5,2.4l3.4,2.5l2.5,1.4l2-0.2l2.2-1.8l1.9-3l2.6-3l1.6-2.1l2.5-1.7l2.7-0.7l3.1-0.6l2.5-0.8l1.6,1.6l3.1,1.3h1.6
	h2.4l2.4,1.2l1.6,0.1l1.9,2.8l1.9,2.6l2.5,4.6l2.5,4.8l1.9,3.6l2.6,5.8l1.4,4.6l0.7,4.4l0.7,3.6l0.5,3.8l1.1,1.4l2.1,0.2l2.1,0.2
	l3-1.1l1.9-2l2-2.4l0.9-2.9l0.9-2.9l1.1-2.4l2.9-2.5l3-1.9l1.9-2.4l1.1-1.6l1.8-3.1l1.4-2.5l1.1-2.1l1.9-1c0,0,3,0.9,3.6,0.9
	s2.6,0.2,2.6,0.2l1.7-0.1l1.9-0.1l1.8-0.2l2.1-1.6l1.6-1.8l2.1-2l1.4-0.6l1-0.8l1.6,2.8l1.6,3.4l0.1,2.1l-0.5,3.4
	c0,0-1.9,3.5-2.1,3.9s-1,1.6-1,1.6l0.6,1.2l1.6,2.1l1.4,2.6l0.2,2.9v2.9l-0.8,2.1l-1.3,1.4l-0.2,1.6l-0.9,1.9l0.6,1.6l0.6,1
	l-2.1,1.7l0.2,1.5l3.2,2.3l1.5,1.1l2.5,0.9l2.6,0.4l4.7,0.6l4.1-0.5l3-0.1l2.6-0.8l1.4-0.2l0.8,1.4l-0.7,1.9l-0.9,2.2
	c0,0,0.6,1.3,0.8,1.5c0.1,0.2,1.3,0.9,1.3,0.9s2.1,0.6,2.1,0.9c0,0.2,1.3,1,1.3,1L517,294.5z"/>
<path id="D846" class="st0" d="M696.7,268.1l-1.5,4.3l-1.7,4.1v5.4v5.8v3.2l1.6,3l1.6,1.3l1.5,1.9l1.5,2.4l1.3,2.6v3.2v3v2.8
	l-1.5,3.6l-2.2,2.4l-4.6,1.7l-2.6,0.9v3.4v3.6v4.7l-1.9,3.6l-0.9,4.7v2.4v5.1v2.4h-3l-3.9-0.9h-3.6l-4.9,0.9l-2.4,1.3l-2.1,2.8
	l-1.3,3.9c0,0-1.3,2.4-1.3,3s-1.5,3.4-1.5,3.4l-2.8-1.5l-3.4-3l-1.9-2.6l-1.5-2.8l-1.9-3.4l-1.7-2.4l-1.3-1.5l-1.3-1.9l-2.8,1.1
	l-2.1,1.1l-1.7,1.3H638h-2.8l-1.1,2.4l-3.2,2.4l-2.1,1.1l-3,0.2l-3.2,1.1l-1.9,2.6l-1.9,2.8l-1.1,1.3l-1.3-3.6l-0.9-4.1l-1.5-4.5
	l-1.5-2.8l-2.8-3.2l-3.4-3l-2.8-2.4l-2.8-1.3l-1.5-1.3l-0.9-2.1l-1.1-1.3l1.5-2.4l1.7-1.5l2.8-0.4l5.8-0.2l4.5-0.6l3.6-1.1l2.4-2.6
	l1.3-4.1l1.7-4.7l1.1-2.4l0.4-4.3l0.2-3.2l0.6-4.3l0.2-4.1l0.2-3.2l0.4-1.9l2.1-1.3l3.2-1.3h1.9l2.6,0.9l2.4,1.9l1.7,2.6l1.9-0.6
	l3-0.9l2.1,1.1l2.4,1.1l3.9,3l2.4,0.2l1.7,0.6l0.9-1.5l-0.6-3.6l-0.4-4.1v-2.6l0.6-4.3l0.2-2.1l1.5-3l1.7-2.6l1.9-3.2l4.3-2.8
	l4.3-1.7l3.9-1.1h4.3h5.4h4.9L696.7,268.1z"/>
<path id="D098" class="st0" d="M597.6,593.7l-0.3-0.9v-0.8l0.1-1.4v-0.9V589v-2v-1.8l-0.1-1l-0.5-1.7l-0.2-1.1l-1.1-1.4l-0.5-1.3
	l-0.5-1.1l-1.1-2l-0.5-0.9l-0.5-0.9l-0.6-1.1l-0.5-1.1l-0.4-1l-0.6-1.7l-0.7-1.5l-0.3-1.1l-0.3-1.7l-0.4-1.7l-0.2-1.8v-2v-1.3V556
	l0.3-0.8l0.4-1.1l1.1-2.7l0.4-1.2l0.8-2.3l0.7-1.3l0.2-1.2l-0.9-1.6l-0.9-1.2h-2.3l-1.6,0.4l-1.1,0.6l-1.2,0.7l-1.4,0.6l-1.2,0.4
	l-1.3,0.5l-1.4,0.9l-0.8,1l-0.5,1l-0.5,1.7v1.9l0.1,1.9c0,0,0.1,0.3,0.3,0.9s0.2,1.8,0.2,1.8l-0.7,1.5l-1,0.8l-1.5,0.9l-2.2,0.7
	l-1.3,0.7l-2.3,1l-2.2,0.5l-1.8,0.4l-1.4-0.4l-0.6-0.2l-1.3-1.1l-0.6-1.3l-0.6-1.1l-1.4-1.5l-2.2-1.9l-1-0.4h-2l-2.1-0.7l-1.2-0.6
	v-1V551l-0.5-1.2l-0.9-1.1L548,548l-1.2-1.2l-1.1-1l-1-1l-0.3-1l-0.5-1.6l-0.7-1.5l-0.7-1.2h-1.3h-0.6h-2.1h-0.8l-1.1-1.3v-1.4
	l1.1-1.3l1.1-1.3l0.2-1.6l1.2-2v-2.1v-2.7V524v-1.6v-1.7v-1.4l0.5-2.1l1-3l0.8-2l0.7-2.6l0.2-2.6l0-2.4l-0.2-2.4l-0.6-1.4l-0.3-0.6
	v-2.6v-2.8l0.1-2l0.8-2.3v-1.7v-1.3l0.9-3.5l0.5-2.3l0-1.5l-0.4-1.7v-1.2l0.2-1.8l0.4-1.9l0.2-2.6v-3.1v-1.5l0.9-3.5l0.6-2.3
	l0.5-1.4l1-2.1l0.5-2.2v-1.7h-2.1h-3.9l-3.3-0.6h-4h-3.8h-1.5h-3h-2.1l-1.6,0.6l-1.1,2l-0.9,3.2v7.4v5.9l-0.4,4.4l-0.6,1.9l-2,1.3
	l-1.3,0.3l-2.4,1.3l-1.3,0.7l-0.4,1.6l1.2,2.7l0.4,2.2v1.9l-1,4l-1.9,3.4l-1.8,0.6l-4.4,0.2l-4.4-0.2l-3.5,0.2l-1.3,0.6l-3,1.7
	l-2.9,0.9l-4,0.9l-1.6,0.5l1.1,1.2l2.6,0.8l3.6,1.5l2.4,1.3l2.1,1.6l3.1,2.2l2.8,2.2l1.5,1.6l-0.8,1.6l-3.3,1.8l-3.3,2l-2.6,2.2
	l-2.8,2.9l-2,1.8l-1.5,1.7l-2.9,0.5l-1.7,1.2l-1.1,1.6l-1.1,2.4l-0.5,1.3l-3.2-1.1l-7.3-1.1l-4.1-1l-3.1-0.5l-3.9-0.1h-2.8l-2,0.1
	l-2.8,1.1l-2,2.2l-0.9,2.5l-0.6,2.2l-1.1,3l-0.6,2.1l-0.5,2l-0.5,3.9v1.6l0.6,1.6l1.1,1.8l1.5,0.6l2.4,1.4l2.2,0.6l3.4,1.5l2.1,2.2
	l4,3.1l1.8,0.8l1.3,0.3l1.9-0.9l1.9-0.1l1.5-0.4l0.8,0.9l1,1.5l-0.4,2.5c0,0-0.9,1.8-1.2,2.7s-2.4,3.9-2.4,3.9l-1.2,1.1l-1.4,1
	l-0.9,1.6l-0.3,1.1l0.1,3.1c0,0,0,0.6-0.1,1.4s-0.9,1.9-0.9,1.9l-1.7-0.1l-2.8-1.6l-1.5-1.1l-2.4-0.6l-2.6-0.9l-3.9,0.2h-4.2h-2.4
	l-3.5,0.2l-1.7,0.5l-1.9,0.4l-2.6,0.3l-2.8,0.2l-4-0.3l-0.9-0.2l-0.8,2.7l-1,3l-0.9,3.2l-0.9,2.4l-0.6,3.3l-0.5,3v3.4v2.6l0.5,2.8
	l1,1.5l1.2,2.4l1.4,1.9l1.4,2.5l0.1,1.1l0,2.7l0.9,3c0,0,1.3,0.5,1.3,0.7s0.6,3.5,0.6,3.5l0.8,1.9l1.2,2.7l1.1,2.2l0.8,2l1.5,2.1
	l1.8,3.6l2.1,2.4l1.8,2.4l1.5,1.9l1.3,1.6l1.4,1.1l1.8,1.1l2.5,0.9c0,0,2.1-0.2,2.6,0s2.8,0.3,2.8,0.3h3.2c0,0,1.9,0.5,2.1,0.6
	c0.2,0.1,2.1,1,2.1,1s1.1,0.8,1.3,0.8s1.1,0.2,1.6,0.3c0.5,0.2,1.8,0.2,2.2,0.3c0.4,0.1,2.2,0.5,2.2,0.5s0.8,0.6,1.7,1.2
	c1,0.6,3.8,2.7,3.8,2.7l2.1,1.7l2.6,2.9l1.5,1.7l1.7,1.8l1.7,2.7l0.8,1.9l0.6,2.8l0.4,1.9l0.4,0.9l1.2,1.3l1.6,1.7l1.2,1.9l1.1,1.5
	l1.2,1.4l2,2.2l1.2,1.3l1.5,2.4c0,0,1.1,2,1.2,2.1c0.1,0.2,1.2,1.2,1.2,1.2l0.4,0.5l4.2-1.5l2.1-1.1l3.2-0.7l3-0.8l3.1-1.1l4-0.5
	l2.8,0.1l3.9-0.4l4.1,0l5.8,0.2c0,0,5,0,5.6,0s3.1-0.1,3.3-0.1s5.2-1.1,6.3-1.2s7-2.1,7-2.1l3.9-1.5l4-1.8l5.3-2.6l2.4-1.7l6.3-3.3
	l5.4-3.6l4-2.6l4.7-3.6l1.5-3.2l0.9-3.5l0.4-2.6l0.2-2.2l0.6-5.2l-0.5-3.9l-0.6-2.6l-0.6-3l-2.2-4.3l-0.9-1.7c0,0-2.6-2.8-2.7-3
	s-0.9-1.3-1.3-1.5s-2.2-2.1-2.2-2.1l-2.1-2c0,0-0.8-0.7-1.5-0.9s-3.7-0.8-3.7-0.8l-2.5-0.4l-1.3-0.7l-0.6-2l-0.3-2.4l0.3-2.6
	l0.8-2.4l1.7-3.5l1.1-1.8l1.8-3l1.2-1.2l2.1-3l4-4l3.1-2.8l2.3-2.5l3.6-2.5L597.6,593.7z"/>
<path id="D847" class="st0" d="M660.1,481.9l-0.7-1.9l-0.8-1.9l-0.4-1l-2-3l-1.4-1.6l-1.2-1.4l-2-2.4l-1.6-2.1l-1.1-1.8l-0.7-1.5
	l-1.2-1.9l-1.1-1.5l-1.5-2.6l-1.1-2l-0.9-2.1l-0.7-1.6l-0.4-0.9l-1-0.7l-2.3-1.6l-2.3-1.4l-1.8-0.6h-1.1h-1.6l-1.1,0.7v-1.9l0.6-1.2
	l0.7-1.5l0.1-1.6l0.1-2.4l-0.2-1.8l-0.5-1.5l-0.4-1.6l-0.5-1.7v-2.1l-0.7-0.6l-1.9-1.8l-2.1-0.6l-1.9-0.3h-1.4l-1.1,0.6l-1.5,0.8
	l-1.2,1.9l-1.5,1.3l-1.4,0.9l-1.2,1.1l-1.2,1.1l-1.3-0.7l-1-1.9l-0.7-1.8l-0.9-2.4l-1-2.9l-0.8-1.8l-1.1-2.5l-0.8-1.9l-0.6-1.4
	l-1.3-3l-1.3-2.5l-1.2-1.1l-1.6-1.5h-1l-2,0.6l-2.6-0.6h-2.6L589,408l-3.1,1.1l-1,2.4v2.7l-1.9,1.9l-1.6,2l-2,1.3l-1.7,1.9l-0.7,1.1
	l-0.9,1.1l-0.6,2.1v2.3v2.4v2l1.1,3l0.4,1.3l-1.6,2l-4-0.4l-2.6-0.1l-3.4,0.3h-1.4l-5,1.1l-3.6,1l-3.6,1.3l-1.9,0.9c0,0,0,1.7,0,2.2
	s0,3.2,0,3.2v2.4l-1.7,2.9v1.7l-0.7,3l-1,1.6l-1,4.1l-0.7,2.7v3.3v3.1l-0.7,3.6v2.1l0.6,2.4l-0.6,2.4l-1,4v3l-0.9,2.6v2.6v4.6
	c0,0,1,2.1,1,2.6s0.1,3.7,0.1,3.7l-0.3,3l-0.9,3l-1.1,2.9l-1,3.9v2.1v2.6v1.7v2.7v2.1l-1.4,2.4v1.1l-1.1,1.3l-1.1,1.3v1.4l1.1,1.3
	h2.9h1.9l1,1.7l0.4,1l0.9,2.6l2.1,2l1.6,1.6l1.3,0.7l0.9,2v2.1c0,0-0.6,0.6,0,1s2.9,1.3,2.9,1.3h3l1.3,1l1.6,1.4l1.3,1.4l0.6,1.1
	l0.6,1.3l1.3,1.1l2,0.6l4-0.9l2.3-1l2-1l2-0.4l2.4-2l0.4-1.9l-0.7-2l-0.1-3.7l0.7-2.3l1.1-1.4l1.7-1.1l2.7-0.9l3-1.7l1.6-0.4h2.3
	l1.1,1.6l0.9,1.6l-1.3,2.6l-1,3l-1.1,2.7l-0.7,1.9v3.6v2.1l0.6,2.7l0.4,2.3l0.9,2l1.1,3.1l1,1.9l1,1.9l1.1,2l1,2.4l1.1,1.4l0.4,2.3
	l0.4,1.6v3.7v1.7l-0.1,2.1l0.3,0.9c0,0,1.3,0,1.7,0s3.9,0,3.9,0l4.3-0.9l3.1-0.4l3-1.6l2.9-2l2.4-2l2.1-2.1l2.6-1.9l2.4-2.1l2.9-2.3
	l2.1-1.3l4-1.3l3.4-0.3l4.1-0.6l2.3,1.6l2.3,0.4l1.9,0.9c0,0,1.9,0.3,2.3,0.7c0.4,0.4,2.4,1.3,2.4,1.3s2.3,1.6,2.7,2
	c0.4,0.4,2.7,1.4,2.7,1.4l2.8,0.7c0,0,1.6,0.9,2,1.1c0.4,0.3,2.3,0.9,2.9,0.9s2.4,0,2.9,0s4.3,0,4.3,0l2.6-1l2.3-1.6l3.7-1.3l2.1-2
	l2.9-1.9l2.1-1.9l2.3-1.7l1.6-1.7l3.3-2.6c0,0,1.7-1.9,2-2.3s2.1-2.3,2.1-2.3l1-2.6l1.7-2.3l2.9-2.1l2.3-0.7c0,0,1.4-0.4,2.1-0.3
	s3.3,0.6,3.3,0.6v-2.1l-0.7-3.7l-0.7-2.9l-1-2.6l-1.4-2.3l-1.9-2l-1.6-2.6l-2.9-3.6l-2-2l-2.7-3.9l-2.4-3.7l-2.1-3.3l-2.4-2.3
	l-2.4-2.3l-1.9-2.1l-1.4-1.9l-2.3-1.9l-4-2.3l-1.7-1.6l-1.9-2.6l-2.9-2l-1.1-2.3l-2.4-1.9l-1.4-3.7l-1.9-2l-1.3-2.7l-1.3-1.4
	l-0.7-1.9l-1.6-2.6l-2-1.6l-0.3-1.4L660.1,481.9z"/>
<path id="D097" class="st0" d="M402.2,558.2c0,0-0.7,1.5,1.4-2.1s2.1-3.6,2.1-3.6l2.3-4.2l2.4-4.5l0.6-1.5l0.2-1.5l-0.5-1.6l-2-2.4
	L406,534l-1.4-1.7l-2.2-1.6l-3.3-2.2l-2.6-2.1l-3.4-2.9l-2.1-1.9l-0.4-0.8l-0.2-0.7l1.2-2.5l2-3.6l0.7-1.8v-2.1h-7.5h-1.1l-1.3-0.5
	l-1.7-1l-2.1-1.1l-2.5-1.9l-2.1-1l-2.2-1.5l-1.4-1.5l-0.8-2l-0.8-2.3l-0.8-1.9l-0.6-0.6l-2.4-1.3l-2.9-1.5l-2-1.2l-2-1.3l-2.8-1.9
	l-2.4-1.3l-2-1.1l-1.4-0.7l-1.3-0.7l-1.1-1.7l-1-1.4v-2.2v-1.9l0.7-1.4l1.3-1.4l5.2-6.5l4-4.4l1.6,0.5l1.6,1l2.5,1.1l1.7,0.4
	l1.1-0.2l0.8-1.2l1.2-3.1l1-1.6l1.7-1.4l2.1,0.4l1.6,0.5l2,0.3l1.6,0.6l1.3,0.9l1.2,1l1.8,0.8c0,0,1.3,0.1,1.5,0.1s1.9-0.8,1.9-0.8
	l1.5-1.6l2.1-2.6l1.4-1.5l1.9-2.8l1-1.7l1.7-2l2-2.9l2.2-3l2.7-4.4l1.4-2.7l0.6-1.7l0.8-1.5l2-2.5l1.5-1.3l1.9-1.3l-1.9-3.2l-0.6-1
	l-1.2-1.6l-0.1-1l1.5-2l1.4-2.8l0.6-1.6l1-1.6l0.4-3l0.1-1.5l0.1-1.4l0-2.5l-2-0.7l-2.9-1.6l-3.2-1.3l-1.8-1.1l-3.2-1.2l-4.1-0.6
	h-2.3l-2.3,1.4l-2.4,1.9l-2.1,1.6l-1.4,0.8l-2.1,0.7l-2.4,0.5l-2.6-1.6l-1.9-1.6l-2.9-2.1l-1.8-1.4l-2.6-2.1l-2.9-1.6l-1-0.7
	l-2.9,2.4l-1.8,1.3c0,0-1.6,0.1-1.8,0.1c-0.2,0-3.6,0-3.6,0l-2.1-0.3h-2.1c0,0-0.6,0.6-0.6,0.9c0,0.2,0.1,3.1,0.1,3.1
	s1.3,1.4,1.4,1.6s1.1,2.5,1.1,2.5l0.2,2.1l-1.6,3.1l-0.9,1.5v0.6l3.4,2.1c0,0,0.4,1.8,0.6,1.8c0.3,0,2.5,1.2,2.9,1.4
	c0.4,0.2,2.4,1.3,2.4,1.5s1.3,1,1.3,1l0.7,1.8c0,0-0.4,1.6-1.1,1.6s-4.6-0.2-4.6-0.2l-1.9,0.6l-2,1.4h-1l-2.4-0.8l-1.3-1.3l-2.4-1.7
	l-2.3-1.4c0,0-1.6-1.2-1.9-1.3c-0.3-0.1-3-0.6-3-0.6l-3.1-0.6l-3-1.4l-1.9-1.5l-2.1-2.9l-1.3-3.5l-1.1-5.3l-0.8-4.3l-1.3-3.3l-3-1.7
	l-4.1-0.8l-4.1-2.7l-1.6-4.2l-0.9-3.2l-2-0.8l-2.6,0.9l-2.6,1.4l-3.8,1.4h-3.2l-2.3,0.2l-1.5-1.6v-4.4v-1.9l-0.8-4.1l-1.4-3.7
	l-1.7-3.6l-1.1-3.3l-0.6-2.9v-4.2v-3.6l1.3-2.1l0.5-1.3l-0.5-2.2l-2-1.1l-3-0.8l-2.5-1.2l-2.8-1.8l-2-1.3l-1.1-2.6l-1.9-1.8
	l-1.4-0.6L270,339l-1.6,1.6l-2.4,2.1l-1.8,1.1l-3.3,1l-3.7-2.1h-2.1l-2.1,1.1l-3.1-0.9c0,0-1.4-1.9-1.6-2.3
	c-0.2-0.4-3.1-2.7-3.1-2.7l-2.1-1.6l-3.6-2.6l-3.4-2.9l-2.4-2.7l-2.1-2.4l-1.6-3.1l-1.6-1.9l-2.9,2.1l-3,0.6l-3.2,0.6c0,0-4.4,0-5,0
	s-5.3,0-5.3,0l-3.8,1.9l-1.6,1.9l-2.7,2.8l-2.9,3.6l-1.4,3.1l-1.2,2.8l-1.1,2.6l-1.6,3.4l-0.6,2.3v2.1l0.9,3.4l1.4,1.6l3.4,4.3
	l3.5,4.1l3.7,4l2.3,2.7l2.1,1.9l2.4,2.9l0.8,1.3l-2.2,2.2l-2.3,2.5l-3.6,4.1l-2.9,2.7l-1.6,1l-2.4-1.6l-2.7-2.1l-3.1-2.5l-2.5-2
	l-2.6-2.1l-2.6-2.1l-2.2-1.1c0,0-3.9-0.2-4.1-0.2s-2.1,0.1-2.1,0.1l-2.1,1.8l-2.9,2.3l-2.2,1.9l-3.1,1.6l-3.1-0.1l-3.5-0.9l-3.2-1.4
	l-3.9-1.6l-3.3-1.4l-2.6-0.9l-2.4-0.6l-1.6,2.9l-3.3,7.5l-2.1,4.1l-3.2,8.2l-3.2,7.1l-4.1,9.4l-3.6,8.3l-4.4,8.9l-3.2,5.5l-3,2.9
	l-2.9,1.3c0,0-3.1,0.2-3.4,0.2s-6.9-0.5-6.9-0.5s-3.1-0.5-3.4-0.5s-2.6-0.4-2.6-0.4l-2.2-0.5c0,0-1.2,1.3-1.4,1.5
	c-0.1,0.2-0.9,2.4-0.9,2.4l-0.5,2.6l-0.9,4.6v3.7l0.8,4.1l0.7,4.7l0.9,5.1l1.1,5.5l0.4,1.9l0.5,5l0.4,3.7l0.6,2.8l1.9,2.1l3.6,1.6
	l1.9,1.3l5.3,2.9c0,0,4.1,2.1,4.4,2.4c0.3,0.2,5.2,2.7,5.2,2.7l2.4,1.8l0.9,3.1l1,3.9l2.8,2.9l4.4,3.6l5.6,5.4l4.9,4.1l4.1,4.1
	l2.8,4.5l0.6,1.9l-0.3,2.1l-2.8,4.4l-1.7,2.1l-1.4,3.1l-0.4,1.1l0.6,1.3l4.3,4.7l2.4,2l5.7-1.9l5.1-2.9l2.9-2.6l5.1-3.3l4.1-1.4
	c0,0,3.1,0.4,3.4,0.5c0.2,0.1,4.7,1.9,4.7,1.9s2.2,1.1,2.6,1.2s4.2,0.1,4.6,0s3.6-2,3.6-2l4.1-1.2l6.1-2.4l1.8-0.1l3.6,1.6l3.2,1.2
	l4.4,1.3l4.7,1.4l4.4,0.9l4.2,1.3l3.7-0.6l5.9-3.7l4.8-3.4l4.1-2.7l4.8-3.4l4.2-2.6l4.5-3.1l3.5,2.3l5.2,2.6l6.9,2.7l5.9,1.8
	l6.8,2.7l4.9,1.8l5.4,2.3l4.6,1.6l2.9,0.9l4.3-2.9l2.1-3.1l0.8-3.1c0,0,0.1-3.4-0.1-3.6c-0.2-0.3-1.1-1.8-1.7-2.1
	c-0.6-0.3-2.9-2.7-3.2-2.8c-0.3-0.1-5.1-3.5-5.1-3.5l-3.9-2.6l-3.6-2.4c0,0-0.6-1.8-0.7-2.1c-0.1-0.4-0.4-3.6-0.4-3.6l0.9-1.4
	l2.1-2.9c0,0,1.8-2.7,2.1-2.9s1.6-0.6,1.6-0.6l2.5-0.3l1.6-0.1l1.5,0.4l2.1,1.9l5.1,5.8l2.9,3.7l1.5,1.4l2.8,0.8
	c0,0,3.2,0.5,3.4,0.6c0.2,0.1,3.7,0.8,3.7,0.8s2.4,0.4,2.6,0.6c0.2,0.2,2.7,1.6,2.7,1.6l4.4,1.6l6.4,6.5l4.1,5.7l3.7,3.4l3.4,2.6
	l3.7,1.7c0,0,3.1,1,3.4,1.1c0.3,0.1,4,0.5,4.3,0.7s3.6,0.6,3.6,0.6s2-1,2.4-1.3s3.5-2.6,3.5-2.6l3.1-3.3l1.6-1.7l1.9-0.5l2.4-0.4
	l2.5,0.6l2.4,0.9l1.7,1.4l2.1,1.3l4,3.6L402.2,558.2z"/>
<path id="D096" class="st0" d="M494.1,346.1l0.9,2.6l0.8,1.2l1.4,1.2l1.4,0.5l2.3,0.5l1,0.2l1.1,0.6l2,0.5l2.5,0.1l2.3,0.9l-0.9,2.1
	l-1.1,1.6l-1.1,1.4l-0.9,1.4l-0.2,1.4l-0.7,1.5l-0.6,1.2l-0.4,0.8l-0.5,1.8l-0.2,1.5l0.1,1.5l-0.3,1.2l-0.4,1.1l-0.4,1.6l0.1,0.9
	l0.4,1l0.6,1l0.1,0.8l0.1,1.8v1.7l-0.7,1.1l-1.6,1.1l-2.3,0.4l-2.4,0.1h-1.9l-1.6-0.2l-1.4-0.6l-1.5-0.8l-1-1.3l-2.5-3.5l-2-2.7
	l-2-2.1l-1.5-2l-1-1.1l-1-0.9l-1.7-1.1l-1.1,0.6l-0.8,0.7l-1.3,1.5l-0.7,0.7l-1.3,0.2l-1.2-0.2l-1.2-0.3l-0.9-0.7l-0.7-1l-0.6-1.1
	l-0.5-0.5l-1.4-0.1l-0.7,1.2l-1.1,0.6l-0.7,0.2l-0.9-0.9l-0.9-0.3l-1.3-0.5l-1.9-0.6l-1.5-0.4l-1-0.3l-2.5,0.2l-2,0.1l-1.4,0.5
	l-1.3,0.3l-1.3,0.2l-1.3,0.6l-1.7,0.6l-1.4,0.4l-1.4,0.5l-1.2,0.6l-0.8,1l-0.8,1.5l-0.1,1.9l-0.5,7.6l-4.8,4.3l-2.6,4.2l-0.9,2.7
	l-0.4,1.6c0,0-0.4,1.1-0.5,1.3c-0.1,0.1-1.1,1.5-1.1,1.5l-2.3,1.4l-2.5,1.3c0,0-2.4,1.3-2.6,1.4c-0.2,0.1-2.3,1.4-2.4,1.4
	c-0.2,0.1-1.9,0.6-2.1,0.6c-0.2,0-2,0.8-2,0.8l-2.6-1l-2.3-1.2l-2.6-1.1l-2.4-1.3l-2.3-0.9l-1.8-0.5l-2-0.3l-2.4-0.2h-1.1l-1.8,1.1
	l-1.9,1.4l-1.9,1.5l-1.6,1.1l-1.3,0.7l-2.2,0.7l-2,0.3l-1.8-1.1l-2-1.6l-3.2-2.4l-2.9-2.3l-1.6-1.3l-1.8-1l-2-1.3l-3.1,2.5l-1.8,1.2
	l-5.6,0.1l-3.1-0.2l-0.9,0.2l-0.4,1.3l0.1,2.5l0.9,1l0.9,1.4l0.8,2.1l0.1,1.1l-0.4,1.6l-0.9,1.7l-1.1,2.1l0.3,0.6l3.1,2.2l0.6,1.5
	l2,0.9l3.1,1.8l0.9,0.8l0.8,0.8l0.6,1.5l-0.8,1.6H360l-2.7-0.1l-1.4,0.5l-1.5,0.9l-1,0.7l-1.3-0.1l-2.2-0.9l-1.8-1.6L346,423
	l-2.1-1.4l-1.6-1.1l-2.8-0.6c0,0-2.4-0.4-2.5-0.5s-2.7-1.1-2.7-1.1l-2.6-1.7l-1.8-2.2l-1.1-1.8l-0.4-1.2l-0.9-2.9l-0.6-2.9l-0.4-2.3
	l-0.4-2.1l-0.5-1.9l-0.6-1.5l-0.3-0.8l-1.9-1.1l-1.1-0.6l-1.8-0.3l-2.4-0.5l-2.5-1.7l-1.5-1.2l-0.7-1.9l-1-2.9l-0.6-2.4l-2-0.8
	l-2.6,0.9l-2.9,1.5l-3.1,1.2l-0.8,0.2l-5.4,0l-1.3-1.4v-6.3l-0.9-4.3l-1.3-3.5l-1.5-3.2l-1.5-4.4l-0.4-2.2v-4.2v-3.6l1.3-2.1
	l0.5-1.3l-0.5-2.2l-2.6-1.2l-2.4-0.6l-2.8-1.4l-2.6-1.7l-2-1.3l-0.7-1.5l-1.4-2l-1.4-1.1l-0.9-0.4l-2.5,2.1l-2.7,2.5l-2.1,1.5
	l-3.7,1.2l-1.9-1.1l-1.8-1h-2.1l-2.1,1.1l-3.1-0.9l-1.1-1.6l-1.8-1.9l-2.3-1.9l-2.9-2.1l-2.7-2l-2.7-2.3l-2.2-2.5l-2.5-2.9l-1.1-2.3
	l-2-2.8v-2.9l-0.5-3.8l0.3-3.4l0.8-2.5l1.4-1.7l1.4-4.7c0,0,1.1-2.2,1.1-2.4s0.4-3.5,0.4-3.5l2-2.2l1.3-2.6l-0.2-1.5l1.2-1.1l1-1.2
	l3.5-1.7l3.4-2.2l2.2-1.5l3.9-1.1l1.4-0.3l1.6,0.5l1.2,1.2l0.9,1.7l0.3,1.6c0,0,0.9,2.3,0.9,2.5s0.9,1.9,0.9,1.9l1.1,1.3l6.2,4.9
	l3.4,3.4l2,1.5l3.4,2.6l2.1,1.8l2.6,1.3c0,0,3.5,3.2,3.7,3.3s3.3,2.4,3.3,2.4l2.6-0.5l2.2-3.5l3-4.4l2.8-4.4l2-3.2l1.5-3.4l1.8-2.6
	c0,0,2.8-0.4,3-0.4s5.5,0,5.5,0l3.5-0.2l4.1-0.2l2.3-0.4l5-1.6l3.3-0.9c0,0,1-1,1.8-1s2.7-0.2,2.7-0.2l1.3,0.4l1.9,1.7l2.4,2
	l3.3,3.4l4.3,6.4l3.2,5.4l1.3,1.2l1.4,1.5l2.7-1.8l2.4-3.8l3.2-3.2l3.7-2.3h2.6l2.5,2.1l2.6,3l1.9,1.7l3,3l3,1.7l3.3-1l2.4-2.3
	l2.4-2.2l3.7-1.6l3.2-0.6l3.8,2l1.8,1.5l1.3-0.3l1.5-2l0.6-1.8l2,0.5l2,2l2.6,3.3l1.8,3l2.5-0.7l1.2-1.5l1.5-1.8l1.3-1.5l1.2-0.4
	l1.6,0.9l1.3,2.8l1.4,2.6l1.2,1.8l0.9,0.6l1.3-0.6l1.8-2.7l1.8-2.8l1.3-3.9l2.4-2.7l1.7-0.2l0.7,1c0,0,0.2,1.6,0,1.7
	c-0.2,0.1-1.9,2.7-1.9,2.7l-1.2,2.5l0.5,2.7l3.6,3.6l2.6,1.7l3.2,1.3l2.6,0.2l1.9,1l1.5,1.9l2.3,2.8l2.5,2.4l2.1,2l2.2,1.6l3,0.3
	l3.9,0.6l3.4-1.5l4.3-2.3l2.5-1.9l1.6-1.1l2.3-1.5l1.3-0.2l0.6,0.2l-0.7,2.4l-0.4,2.1l0,2.6l1.4,1l2.6,0.4l1.3,1.5l0.1,1.5l0.2,1.9
	l0.4,2.3c0,0-0.2,2-0.3,2.2s-1.1,2-1.1,2l-1.3,1.7l-0.8,0.9l0.5,1.1c0,0,2.7,0.6,2.8,0.8s2.3,0.8,2.3,0.8l2.5,1L494.1,346.1
	L494.1,346.1z"/>
<text transform="matrix(1 0 0 1 374.5713 151.5713)" class="textName">NORTH</text>
<text transform="matrix(1 0 0 1 318.2162 271.2341)" class="textName">NORTH WEST</text>
<text transform="matrix(1 0 0 1 587.6809 259.9413)" class="textName">NORTH</text>
<text transform="matrix(1 0 0 1 593.9009 278.7413)" class="textName">EAST</text>
<text transform="matrix(1 0 0 1 515.5671 347.9413)" class="textName">CENTRAL</text>
<text transform="matrix(1 0 0 1 606.5671 340.9413)" class="textName">SHAHDARA</text>
<text transform="matrix(1 0 0 1 639.5671 410.9413)" class="textName">EAST</text>
<text transform="matrix(1 0 0 1 354.3153 346.0713)" class="textName">WEST</text>
<text transform="matrix(1 0 0 1 173.7926 457.0403)" class="textName">SOUTH WEST</text>
<text transform="matrix(1 0 0 1 420.1783 452.7856)" class="textName">NEW DELHI</text>
<text transform="matrix(1 0 0 1 577.2888 531.9342)" class="textName">SOUTH EAST</text>
<text transform="matrix(1 0 0 1 486.6386 612.8699)" class="textName">SOUTH</text>
</svg>
