<?xml version="1.0" encoding="utf-8"?>
<!-- Generator: Adobe Illustrator 26.0.0, SVG Export Plug-In . SVG Version: 6.00 Build 0)  -->
<svg version="1.1" id="Layer_1" xmlns="http://www.w3.org/2000/svg" xmlns:xlink="http://www.w3.org/1999/xlink" x="0px" y="0px"
	 viewBox="0 0 800 730" style="enable-background:new 0 0 800 730;" xml:space="preserve">
<style type="text/css">
	.st0{stroke:#000000;stroke-miterlimit:10; cursor:pointer;}
	.textName{font-family:'Arial'; font-weight:bold; color:#000000; font-size:12px; cursor:pointer;}
</style>
<path id="D146" class="st0" d="M170.8,353.7l2.7,0.4l1.6-1.5l6.3,2l1-2.4l1.7-0.6l2.6-2.9l4.4-0.4l0.8,1.1l-0.3,3.8l2.5,0.9
	l-0.6-2.7l2.2-3.3l0.2,0.2l0.1,3v2.6h2.1l-0.2-2.8l1.9,0.3l1.5,1.8l0.6,3.9l-0.6,2.1l0.8,1.4l3.3-2.4l2.5,2.1l4.3,0.5l3.1-0.5
	l1.1,2.6l-1.4,2.9l0.5,2.6l1.4,0.9l0.1,2.3l5.3-0.7l0.5-4.1l3.6-0.6l-2.2,3.3l1.3,2.5l2.6-0.9l2.2,2.5l3.3,1.6l1.3,3.6l0.2,2.5
	l2.5-1.1l0.4,3l2.3,0.9l4.6-0.6l0.2,2.1l1.3,2l1.3-0.4l1.9,2.3l1,3l2.3,0.1l0.2-4.1l4.7-0.4l1.1,0.6l1.5,1.1l1.2,4.2l2-0.4l3.5,6.4
	l-0.7,1.6l-3.9-0.3l-1.2,4.2l-2.4-3l-2.1-0.8l-3,0.8l-1.5,2.5l-3.1-0.6l-1.5,2l-2.9-0.2l-4-2.9l-4.6-1.1l-2.6-4l-3.2,0.5l-1.9-4.6
	l-1.7-0.3l-4.7,1.1l-1.1,1.5l-0.2,2.7l-4.3-1.5l-0.5-4.2l1.7-0.6l1.7-1.9l1-3.3l-2.3-0.2l-7.5-2.5l-2,0.2l-0.2,2.9l-2.1,2.7
	l-2.1-1.5l-1.5,0.1l0.2,3.3l-2.4-2.6l-4.1-0.4l-1.7,1.4l-2.6-1.5l-1.6,2.7l-1.5-1.7l-5.3-2.5l-1.3,0.7l-1.9-1.7l-3.3,1.6l-1,2.1
	l0.4,2.3l-3.5,0.8l-1.2,1.9L168,398l-3.5,1.1l-3.5,0.3l-0.6-2.5l-1.3-0.3l-1.4,6.4l-1.3,2l-2.9-1.7l0.9-3.6l-1.7-2.5l0.4-2.6
	l2.2-0.9l0.4-1.6l2.2-1.5l7.8-2.9l5-3.9l4-1.3l0.9-2.3L173,375l-1.1,2.8l-4.7-0.7L164,375l0.5-3.1l-3.8-1.1l2.1-2.9l4.2-1.4
	l-0.4-1.2l1.8-3.7l3.2-0.1l1.5-2.6l-2.5-1.5L170.8,353.7z"/>
<path id="D143" class="st0" d="M190.9,317.3l-2.2,0.7l-1.4-2.9l0.6-1.6l-0.9-3.9l-4.6-3.3l0.2-5.3l1.1-1.8l1.9-0.3l-1.6-4l0.2-2.4
	l-1.5-1.2l-1.8-4.5l-1-4L178,280l-1.8-1.4l-2.9,0.1l-2.8-2.5l-1.4,3.1l-2.9,0.2l-2.6,2.4l-2.3-1.5l1.4-1.9v-1.7l-2.1-0.8l2.1-2.1
	l-4.6-6l-0.6-3.7l7.5-0.1l2.9-3.1l0.9,1.5l1.8,0.1l1.3-2l3.1,3.5l3.2-1l-0.1-3.7l2.1-3l0.7,2l3.4-0.8l-0.3-1.4l2.9-2l2,4.4l4,3.9
	l5.4,1.4l3.7-3.2l1.3-2.1l1.9,0.3l2.7,2l2.4,0.4l0.5,3.5l2.7-1.5l1.7-0.1l1.8-2.4l0.9,1l2.3-1.7l3.7-0.3l2.4-1.2l1.3-2l2.7,0.9
	l0.5,2l2.9,2.9l2.6-0.4l1.9-2.8l1.4,1.5v1.8l3.7,3.2l3.1-2v1.5l2.1,1.3l0.3,1.8l-0.9,1l-0.7,5.3l-2,4.6l-1.9,3l-1.7,0.5l-2.9,5.3
	l1.6,1.5l0.2,3.1l-1.1,1.4l-2.3-1.1l-2-1.9l-1,3.8l-2.3,4l-1.1,3.7l-1.9,3.7l-3.2,2.3l-4.5,0.3l-3.4-3.4l-1.1,0.7L213,303l0.6-3.2
	l-1-1.9l-2.5-0.8l-3.3,0.6l-2.1-1.5l-4.1,1.8l1.8,1.5l-2.2,2.8l-1.2,2.6l1.8,3.2l-2.9,4.8l1.1,2.2l-2.4,0.5l-3.2-0.6L190.9,317.3z"
	/>
<path id="D178" class="st0" d="M574.3,459.4l-3.4,1l-2.8-1.6l-1.8,0.4l-2.3-2.9l-1.8,0.5l-1.2-1.3l-1.8,1.1l-1.9-0.3l-4-3.9
	l-1.4-0.8l-0.2-3.3l-1.1-1.9l-4-0.7l-2.9-2.2l-1.8,1.5l-2.5-0.3l-2.3-1.7l2-1.5l2.7-3.5l0.9-3l1.6-2.2l0.3-2.6l2-5.3l3.2,0.4
	l0.9,3.1l2.1-1.4l1.1,1.1l3-3.9l-1.1-2.2l1.8-0.5l-0.7-2.3l0.8-2.5l2.4,1.9l2.9,1l2.8,2.2l2.6,0.4l4.3-0.4l1.8,3.3l2.1,2.1l4.2-0.3
	l3.9-1.7l4.7,3.9l2.4-0.3l3.3,3.6l6.4,3.5l1.1,3.2l2.6,3.9l1,1.6l4.1,0.9l-1.6,3.1l-0.3,7.7l-2.7,0.3l-2.3-0.9l-0.9-3.4l-5.5-3.5
	l0.9-1.5l-1.8-3.6l0.8-4.2l-1.4-0.8l-2.4,2.6l-0.1,3.6l-2.7,0.9l-0.8,2.9l1.8,1l-1.8,3.8l0.1,3.8l0.9,2.6l-2,4.6l2.4,2.9l-2.4,1.5
	l-1.8-1.5l-4.6-1.5l-3.6-5.7l-2.8-2.3L574.3,459.4z"/>
<path id="D751" class="st0" d="M475.1,494.8l-1.8-2.4l-3-0.5l-1.9-2.8l-3.5-3.4l-0.3-4.7l1.9,0.4l1.6-5l-0.7-0.9l1.8-2.9l0.4-2.5
	l-1.1-1.4l0.5-4l-1.1-2.4l0.3-4.4l1.7-2.5l1.2,0.3l1.2-3l-0.3-2.5l0.4-5.8l-1-2.8l-1.8-1.4l-0.3-4.4l-2.1-6.3l1.4-0.6l1.4-2.8
	l-0.7-0.8l6.2,1.4l0.9-1l2.3,3.4l2.1-0.9l1.6,0.6l2.4-4.8l-0.6-2.8l0.2-3.1l1.7-1.1l2.1,0.8l0.9,1.9l1.9-1.1l0.9,5.8l4-0.5l-0.2,5
	l-1.9,1.6l2.9,1.6l0.5-2.8l1-0.7l6,0.6l1.4,1.9l1.7,0.8l1.2-2.2l2.5,0.6l1.4,2.2l0.4,2.5l-0.8,3.7l3.1-0.4l-0.5,2.8l0.7,1.4l-1,3
	l-2.5,0.7l-1.6-0.9l-1,3.1l-2.1,2.6l-0.2,1.9l1.1,3.9l4.2,2.7l0.2,1.9l3.1,2.6l1.8-0.4l0.4,2l1.9,1.8l2,0.7l0.3,1.6l1.9,0.8l0.5,2
	l-0.9,1.6l0.7,2.2l1.5,0.8l-1.7,3.2l-1.2-0.7l-3.1,0.2l-2.8-1.6l-1.7,0.5l-0.8,2.4l-2.7-1.5l-1.1-1.6l-1.9,3.7l-6,2.1l-1.6-2.9
	l0.3-1.6l-3.5-2.7l-1.7,2.8l-1.4-1l-0.3-4.4l-2.9-1.2l0.4-1.9l-2.9-3.3l-0.5,2.6l-1.6,1.3l-1.6-0.2l-2.5,2.4l1,2l0.8,3.9l-1.7,0.8
	l-0.4,2.4l2.3,0.5l-0.5,3.1l1.1,3l-2.1,0.6l-3.3,2.4L475.1,494.8z"/>
<path id="D137" class="st0" d="M222.2,229.5l-0.5-3.2l1.6-2.7l-2.2-1.2l-0.4-2.2l-4.2-1.1l-0.3-5.3l1.1-2.5l-1.6-4.5l-1.3-5.9
	l-4.2-5.4l-0.6-5.4l-1.2-1.8l-0.5-4.3l0.3-3l-0.9-2.3l-3.3-1.6l0.6-2.4l-1-2.4l0.5-2l2.3-2.3l0.6-5.2l-1.3-4.5l1.7-1.6l3,0.5l5.1,3
	l6.6,1.1l5.1-0.3l1.1,1.4l3.9-1l4.1-2.8l3.1,1.1l2.2-2.6l2.2,0.4l1.3-1.5l2.1,0.5l1.4-3l3.6-3.4l-2.1-1.9l2.5-1.3l0.6,5l-0.7,2.7
	l3,4l-2.6,2.8l-2.4,3.9l0.9,2.4l3,3.4l-1.9,3.1l1.6,1.2l-1.4,3.6l-1.9,2.9l-3,2.9l0.3,1.8l-0.6-0.3l-5.2,1.6l-3.7,2.4l-1.6-1l-1.5,1
	l-3.1-1.1l-0.6,4.4l0.9,8.8l-1.4,1.3l0.9,3.8l0.9-0.1l0.6,3.8l-0.4,2.8l0.8,1.2l-1.3,2.2l0.9,3.6l-1.7,1.4l-2.2,0.2l-2.6,3.6h-3
	L222.2,229.5z"/>
<path id="D162" class="st0" d="M319.6,447.6l-1-2.7l-0.4-3.3l-1-1.2h-3l-5.7,2.8l-1.9,0.5l-2.4-1.6l-1.5-2.8l-3.3,1.6l-5.1-0.3
	l-4.2-0.9l-2.7-1.3l-1.9,1.2l-1.8-1.6l1.4-2.7l1.1-1.9l2.7,0.2l1.4-1.1l2.5,1l0.3-3l3.9-2.5v-1.9l2.8-4.3l4.3-3.4l0.7-1.8l-1-3.8
	l2.8-3.4l-0.4-3.7l-0.9-0.9l1.8-7l-0.8-1.9l0.7-3.8l0.2-5l0.7-1.3l2.8,2.2l3.6-1.6l1.9,4.1l7.8,4.5l4-3.4l4,0.4l0.3,2.5l2.7,2.9
	l0.2,1.5l2,2.3l1.4-0.8l1.3,2.8l-1.3,2l-2.1,1.7l-3.2,0.7l3.2,4l0.5,4.2l-3.9,5.5l-2.6,0.9l-0.5,2.9l0.3,7.6l-3.1,2.8l0.1,1.5
	l-1.8,2.1l-1.4,4.1l-1.2,0.7L319.6,447.6z"/>
<path id="D191" class="st0" d="M574.5,470.5l0.6-6.5l-1.2-2.1l0.5-2.6l1.6-1.4l2.8,2.3l3.6,5.7l4.6,1.5l1.8,1.5l2.4-1.5l-2.4-2.9
	l2-4.6l-0.9-2.6l-0.1-3.8l1.8-3.8l-1.8-1l0.8-2.9l2.7-0.9l0.1-3.6l2.4-2.6l1.4,0.8l-0.8,4.2l1.8,3.6l-0.9,1.5l5.5,3.5l0.9,3.4
	l2.3,0.9l2.7-0.3l0.3-7.7l1.6-3.1l2.3-1.3l5.4,0.4l4.6,3.7l3.1,1.4l0.8-0.5l5.1,5.8v1.3l3.2,1.4l3-1.1l2.4,0.4l-0.8,1.6l-2.2,0.4
	l-4.9,9.7l1,3l-1.2,4.7l-2.2,1.8l-6.4-3.8l-0.4-1.4l-2.4,0.1l-0.2,3.3l-3.8,3.7l-1.1,5.8l0.6,2.4l0.2,4.4l-2.5,1.6l-0.1,2.5l1.7,3.4
	l1.8-0.5l1.1,2.2l4-1.3l1.9,1l2.7,3.2l0.4,1.6l-1.7,0.1l-0.8,2.9l-2.4,2.8l-1.4-1.8l-3.8,1.8l-0.5,2.9l2.2,2.8l-4.1,1l-0.5,2.6
	l-3,2.1l-4.7-0.4l-1.8,0.6l0.6-3.4l-2.5-0.7l-0.1-1.2l-3-0.8l-1.5,3.1l-1.7-2.4l-1.5-0.2l-1.8-3.7l0.6-1.2l-2.6-2.4l-4.1,0.9
	l-1.9-0.8l-3.1-5.8l-2.3-1.3l1.4-4.7l-1.2-5.4l-2.7-6.2l-0.5-5.6l-1.6-3.1l0.5-2.4l-2.1-1.4l-1-3.6L574.5,470.5z"/>
<path id="D139" class="st0" d="M131,134l2.3,0.6l2,1.7l3.9-0.2l0.1,0.8l4.3,0.8l3.7,2.3l2.2,0.4l2.3-1l4.2,2.7l2.1,2.4l-2.8,7.6
	l-0.3,4.2l0.6,3.9l-0.3,2.2l2.1,4.1v3.2l-1.6,3.7l-1.2,0.9l-1.7,4l-1.2,0.5l0.7,4.2l-1,3.4l0.2,2.9l-3-1l-0.5-1.7l-4.5,1.1l-0.7-3.6
	l-0.9-0.9l-3.4,1.3l-1.4-0.9l-1-3l-1.4-0.4l-0.4-2.5l2.8-1.1l-1.6-2.2l0.7-1.7l-1.2-2.7l1.9-4.7l-4.1-4.6l-0.4-3.1l-2.6-2.6l1.1-3.6
	l-1-2.1l1.1-3l-1-4.9l1.2-1l-1.1-3.7L131,134z"/>
<path id="D180" class="st0" d="M504.8,283.3l-2.7-2.1l-6.1-6.8l0.7,0.3L504.8,283.3z M497.5,344.6l-3.1,0.8L494,347l2.3,1.1
	l-0.2,2.5l-2.8,3.4l-1.7,5.3l-1.3,5.5l-2-0.4l-1.5,3.1l-1.7-0.5l-1.9,2.3l-2.2,1.3l-0.7,2.5l-2.1-1.2l-0.1-3.4l-1.6-1.1l-0.9-2.3
	l-0.5-4l1.5-1.4L475,356l-0.4-4.8l0.6-4.8l-2.5-3l0.4-2.5l-3.2-3.8l-0.4-1.7l-1.8-1.7l0.2-1.5l-1.6-2.6v-2.8l-1-1.1l-0.2-4l0.5-1.3
	l-0.4-4.6l-1.2-0.9l1.1-3.7l-0.3-3.4l-1-1.2l-0.7-2.1l0.9-1.8l-0.8-3.8l-1-1.3l0.9-2L462,293l1.8-0.6l-1.5-4l-0.5-3.6l2.2-2.2
	l-2.1-4.1l-2.4-1.1l-0.5-2.2l-1.6-1.5l-4.6-6l-0.7-2.5l2.3-4.4l-1.9-3.2l-2.9-3.2l-2.1-4.9l-2.7-2.2l-0.5-3.8l-2-2.6l1.9-5.2
	l-1.9-2.4l1.6-4.1l2.1,1.9l1.5,1l9.7,2.3l1.9,3.8L459,242l3.8,5.8l3.2,4l-0.2,6.8l4.3-0.9l0.3-3.7l2.9,0.3l2.9,1.5l0.2,2.1l2.7,2.4
	l-0.4,3.8l5.5,3.6l8.1,6l-2.9,5.3h-4.9l-2.8-0.6l-2.8,0.9l0.2,6l2.8,4.5l0.6,4l3.2,2.3l1.7,2.3l-3,2.6l0.2,2.3l2.7,3.3l-2,3
	l-0.9-0.4l-1.3-3.8l1.1-0.8l-2.6-2.5l-4,1.7l-1.4,3.3l2.6,3.1l1.4-0.6l1.2,2.1l3,3.4l-0.4,2.7l2.1,1.8l2.8,1.1l2.1,3.2l4,2.9
	l-0.3,1.9l1.4,1.3l-0.8,2.4l0.2,3.3l-0.5,2.5l2.6-0.2l1.9,1.5L497,341l-1.2,2L497.5,344.6z"/>
<path id="D193" class="st0" d="M674.6,533.9l1.3-3.2l-1.1-5.4l1.2-3.7l0.6-7.7l-5.7-1.7l-1.7-3.2l-2,1.4l-1.5-0.3l-5.3-5.4l-1.7-2.4
	l1.2-2.8l4.1-4.3l-1.1-1.3l0.4-4.1l-1.5-3l-6.7-0.8l-1-1.5l0.4-5.1l2.6-2.6l1.8,1.3l4.6-2.6l1-2.9l-1.9-3.2l2.1-2.8l4.2,0.6l0.3,2.1
	l2.5,4.1l2.1,0.7l2.6-1.1l1.8,1.7l3.1,0.3l1.6,1.8l1.5-0.1l3.4,0.3l2,2.3l1.7,3l2.5,2.3l0.4,2.9l2.4-0.2l3.1,1.9l4.1,3.7h1.8l3-1.2
	l4.6,3l1.8,4.1l4.3,0.4l1.7,1.8l1.8-0.6l-0.1,4.6l1.6-0.7l3.2,2.3l2.7,2.9l-1.7,3.4l2.1,2l-5.7,0.6l0.2,3.8l-2.2,0.9l-1.2,1.6
	l-2.2-1.4l-1.8,0.6l-1.4-3.1l-3.8,1.6l-0.7-3.1l-3.1-1.6l-2.3,0.7l-0.6,7l-2.3,1l-5.9-0.1l-1.4-0.9l-0.4-3.3l-2.1-2l-4.8-0.2l-2,1.2
	L686,520l0.8,4.6l-0.3,1.6l-5,2.3l-5.6,5.2L674.6,533.9z"/>
<path id="D182" class="st0" d="M525.7,336.1l0.8-1.7l-2.4-2.9l0.4-5.1l-2-7.7l-0.9-1.4l1.6-3.3l2.7-1.5l1.3-4.6l2.8-3.4l1.2-7
	l1.9-2.8l2.6-1.5l0.6-3.9l8.6,8l5.1,3.3l2.8,4.3l3.8,2.6l2,0.2l3.4-1.5l2,0.5l5.1-2.2l1.1,0.4l3.8-1.4l3.1-0.1l1.1,3.1l-0.3,2.7
	l1.9,2.3l-0.4,2.4l1.8,3.2l-1.4,4.5l0.9,2.6l-1.2,1.9l-2.1,3.1l3.1,4.2l-3.6,2.6l-0.4-1.6l-3.3,1.7l-3.1,0.1l-2.5-1.7l-3.4,2.4
	l-1.1,2.9l-4,1.4l0.1,2.2l-1,1.9l1.2,3.1l1.3,1.3l-0.6,4.5l0.7,2.2l3.2-0.2l1.3,3.2l-1.1,0.7l-3.6-1l-2.1-1.3l-3.5,3.3l1.2,2.2
	l3.4-0.4l-1.2,0.6l-0.8,3.5l-2.5,5.5l-3.3,2.2l-4-5.3l-6.6-5.1l-2.3-0.7L538,361l1.5-5.4l2.7-1.1l0.5-2.3l-7.7-7l-3-1l-2.5-6.5
	L525.7,336.1z"/>
<path id="D170" class="st0" d="M367.8,556.4l1-1.5l1.9-5.3l-1.6,0.4l1.5-5.2l4.1,1.5l0.3-2.7l2.3-3.6l-0.7-5.7l1.5-0.6l1.6-3l2,0.7
	l1.1-2.8l-1.2-1.4l3.3-2.7l-1.1-5.2l1.3-1.7l2.1-0.9l-3.4-4.8l-2.3-0.7l-1.2-2.1v-2l3.2-4h2l2.1-2.8l-0.2-3.1l3.1-1.3l5.4,1.3l4,2.2
	l4,1.2l-1.7,3.4l-4.3,0.2l-1,2.5l2.4,2.5l1.9,1l4.3-0.7l-0.1,2.3l-1.5,2.9l2.8,2.6l5,0.9l5.3,2.3l3.8-0.4l3-1.8l1.9-2.4l1.6,0.4
	l1.2,4.7l3.2-0.1l2.7-1.1l0.9,0.7v6.4l1.9,1.3l3.9-2.6l1.4,0.7l-0.3,3.6l-2.2,1.7l-0.4,1.4l1.7,2.1l-1.1,1l1.5,3.3l-3.1,2.8
	l-0.4,1.6l-3.2-0.7l-1,2.9l-3.5,2.4l-1.9,4.9l-2.7,2.9l-4.1,1.8l-1.6,2.6l1.4,1l0.5,3.7l-2.5,1.1l-0.3,2l1.6,2.9l-1.1,1.9l-2.7-0.2
	l-0.3,2.7l-1.8,1l-0.4,2.5l1.5,5.7l1.2,1.5l-3.3,1.5l0.5-3l-2,0.6l-1-1.8l-2.6-0.6l1.1-2.5l-2.2-3.6l-0.5,4.9l-0.7,2.2l-2.8,2.2
	l-2-1.5l-0.8-2l-1.8,1l1.2,3.1l-2.6,1.9l-0.8-2.7l-1.5-1.3l-1.4,1.1l-2.3-0.1l-1.2,1.7l-0.9,3.3l-3.4,2.4h-0.9l-3.8-2.9l1.2-3.5
	l1.8-1.3l3.5-7l3.1-2.4l3-1.2l-1.8-5l-0.2-2.4l-1.7,0.6l-1.6-1.5l-1.3-2.9l-2.3-0.4l-0.7-1.6l0.7-4l-0.7-2.6l0.5-3.6l-2.8-3.5
	l-1.4-0.4l-0.9,2.5l-4.5-0.2l-0.1,2.4l-2.3,0.6l-2.6,4L367.8,556.4z"/>
<path id="D176" class="st0" d="M469.4,425.1l-1.2,3.1l-2.4-0.6l-0.9,1.3l-2.7-3.3l-2.3-0.8l-2.7-2.2l-2.4-0.7l-2,1.3l1.4-2.8
	l-1.1-3.2l3.9-6.2l-1.2-3.8l-1.3-2.1l2.2-2.2l-1.8-1l-2.8,1.7l-0.2-4.1l-1.9-2l-3.1-0.6l0.7-3.5l-1.6-4.1l-3.1-3.2l0.2-1.8l-1.6-1.8
	l0.4-1.4l-2.4-1.6l-0.3-4.2l-1.9-1.7l2.2-2.1l1.4,1.1l1.7-0.6l1-2.1l-1.9-2.5l-1.3-2.9l-2.7,0.3l-4-2.3l-0.2-3.3l3.1-3.3l0.4-2
	l2.8,1.4l5.8-0.1l1.2-4l2.1-0.9l2.4,1.6l1.8-1l1.1,2.4l2.1-1l2.8-3l-1.4-4l2.2,0.3l3.4-2l1.2,1l-0.2,2.5l0.9,3.3l1.7,1.8l2.8-1.4
	l1.2-5.9l1.6-1.2l2.5,3l-0.6,4.8l0.4,4.8l1.6,3.7l-1.5,1.4l0.5,4l0.9,2.3l1.6,1.1l0.1,3.4l2.1,1.2l1.8,1.2l2.4-0.2l0.2,2.2l1.5,1.9
	l1.6-1.1l2.1,0.3l2.1,1.5l0.3,4.5l5.5,0.6l-0.7,2.7l3,4.9l4,2.3l1.4,1.6l2.8,1.5l0.3,3.1l-1.6-0.2l-2.5,1.1l0.1,2.7l2.5,1.4
	l-1.4,4.4l1.4,2.3l-2.8,0.2l-3.9,1.8l-1.6,2.6l0.9,1.7l-0.3,2.7l-3.3,2.6l-4,0.5l-0.9-5.8l-1.9,1.1l-0.9-1.9l-2.1-0.8l-1.7,1.1
	l-0.2,3.1l0.6,2.8l-2.4,4.8l-1.6-0.6l-2.1,0.9l-2.3-3.4l-0.9,1L469.4,425.1z"/>
<path id="D150" class="st0" d="M334,244.4l-1.4,2.8l-0.2,2.5l-1.5,2.3l-2,4.6l1.3,2.9l-0.6,4l-2.3,0.3l-1.3-1l-2,2.5l-2.6,0.9
	l-2.5,4.1l-1.3-2.6l1.5-2.3l-0.1-4.5l-3.2-2.9l-2.8-3.6l-2.9-0.7L306,256l-1.7-2.4l-3.4,1.3l-2.4-1.9l-2.2-0.7l-1.5,1.4l-6.3-3.1
	l0.6-2.6l-2.4-2l0.5-3.2l-2.6-5.7l0.5-2.5l-2.1-2.2l-4.1-1.1v-5l3.1-0.7l0.3-1l3.3-2.4l4.6-2.2l2-3.4l-0.3-1.5l1.7-2.2l3.1-1.7
	l1.4-7.1l1.3-0.6l2.5-3.9l1.5-4.1l3.7-1.5l3-2.6l-0.2-3.9l-1-2.1l2.5-0.6l0.2-1.9l-2-3.6l2-0.9l1.2,3.2l3.9-0.4l1.4-0.9l2.5,0.4
	l2.1-2.9l1.7,1.3l-0.2,3.5l2.1-0.5l1.3-1.7l3.1,0.8l1.2,5.4l-0.2,3.4l1.4,2.9l-3.5,3.7l-0.6,3.6l-1.8,6.3l1,2.5l2.7-1.1l0.6,2
	l1.8,0.2l-1,3l1.8-0.1v2.9l2.6-0.3l0.3,1.6l2.1,1l-0.2,4.4l-1.9,1.2l0.4,3.9l-4.3,2.9l2.3,1.6l-0.9,4l-1.3,2l0.4,1.5l2.6,2.1
	l0.1,2.4L334,244.4z"/>
<path id="D185" class="st0" d="M594.3,388.1l-1.5,0.3l-2.6-2.8l-1.2,2.1l0.7,5l-1.9,0.2l-1.6,2.2l4.8,4.1l-0.4,3.6l3.5,0.1l0.4,1.6
	l2.5,2.7l1.3,3.4l-1.5,4.2l-1.1-0.8l-2.2,2.4l-1.7,4.6l-0.1,3.5l1.3,0.5l-0.7,3.8l-2.4,0.3l-4.7-3.9l-3.9,1.7l-4.2,0.3l-2.1-2.1
	l-1.8-3.3l-4.3,0.4l-2.6-0.4l-2.8-2.2l-2.9-1l-2.4-1.9l-2.6-0.6l-2.6,1.3l-2.5-1.3l-4.5-5.5l-0.7-1.5l-6.6-3.1l-1-2.7l0.1-3.2l1-1.2
	l0.3-3.9l-0.8-1.4l1.4-2.8l-1.1-2.1l0.6-2.2l3.8-1.7l2.4-2.7l0.7,2.2l2.5,2.6l3.1-1.6l3.1,2.1l0.8-0.4l3.2,2.8l1.3-3.6l1.3-1.5
	l3.5-1.4l0.7-2.4l1.5-1.5l2.1-0.3l1.9-0.8l3.5,0.5l1.5-1.2l1.8,0.6l-0.2,1.9l1.6,1.8l2.9-0.3l2.4,1.7l1.6,3.4l2.2-3l1.8-0.8V381
	l2.1-0.3l0.7,3.3l-0.6,2.1L594.3,388.1z"/>
<path id="D134" class="st0" d="M252.5,147.1l-2.5,1.3l2.1,1.9l-3.6,3.4l-1.4,3l-2.1-0.5l-1.3,1.5l-2.2-0.4l-2.2,2.6l-3.1-1.1
	l-4.1,2.8l-3.9,1l-1.1-1.4l-5.1,0.3l-6.6-1.1l-5.1-3l-3-0.5l0.8-1.5l-0.5-4.6l2.1-2.7l0.3-2.8l-1.1-1.5l0.8-5.1l-2.2-7.5l-3.3-3.8
	l-1.5-3.2l1.3-1.4l-2.5-3.5l-0.4-1.9l-2.4-2.4l-0.5-1.9l0.5-5l1.2-1.1l2.3,0.5l0.9-4.4l2.8-0.7l1-2.7l3.5-3.6l0.4-1.9l2.2-0.4
	l2.2-3.3l2.2-0.8l0.8,1.4l5.7-5.7l2.3-4.1l4.4,2.4l8.1,3.5l1.6,5.4l0.3,4.3l1.5,2.9l3.7,4.6l3.6,3l1.4,0.5l4.3,4.2h2.7l3.1,2.7
	l8,2.6l2.8,0.4l-0.3,3.5l-3.2,4.1l-3.4,1.7l-2.4,2.9l-2.2-0.7l-2.5,2.1l0.1,1.8l2.5,2.8l-1.3-0.2l-3.8,1.6l-2.2,4.4l0.9,2.7
	l-1.4,0.3V147.1z"/>
<path id="D149" class="st0" d="M295.9,303.9l0.2-3.5l-3.4-4.3l-0.5-4.3l-3.2-3l-1.7,1.6l-2.3-1.2l-2.1,0.7l-2-0.6l-0.5-1.7l-2.3-1.6
	l-1.8,2.4h-3.5l0.2-2.6l-2.7-4.4l-1.4,0.7l-3.4-2.8l-0.9-1.7l-4.5,0.3l-2.7-1.2l-2-3.3l-1.8-0.9l-0.7-3.7l-2.6-1.1l-1.5,0.7
	l-0.3-1.8l-2.1-1.3v-1.5l0.9-1.6l-0.9-2l1.1-3.5l-0.3-5l2.7-3.3l0.5-3.7l1.2-2.3l-0.5-1.4l2.6-5.4l2.1-3.3l2-0.8l1.9,0.9l5-7.4
	l4.2-3.8l4,0.2l1.4,3.2l3.2,3.1l1.8,3.8l4.1,1.1l2.1,2.2l-0.5,2.5l2.6,5.7l-0.5,3.2l2.4,2l-0.6,2.6l6.3,3.1l1.5-1.4l2.2,0.7l2.4,1.9
	l3.4-1.3l1.7,2.4l4.2-2.3l2.9,0.7l2.8,3.6l3.2,2.9l0.1,4.5l-1.5,2.3l1.3,2.6l-0.1,2.2l-1.5,1.6l-0.4,2.4l1.5,2.1l-1.6,1.7l-0.7,3.3
	l0.5,2.4l-0.6,2.6l-5.2,3.2l-1.6,0.1l-1.6,3.3l-1.4,5.6l1,8.7l-3.1-1.9l-1.1,0.3l-3.1-1.7l-1.2-1.5L295.9,303.9z"/>
<path id="D142" class="st0" d="M222.2,229.5l-0.5,3.3l3,8.8l1.1,1.4l3.1,1.4l0.6,2.5l2.3,4.6l3,3.1l1.4,2.9l1.6,1.8l-1.9,2.8
	l-2.6,0.4l-2.9-2.9l-0.5-2l-2.7-0.9l-1.3,2l-2.4,1.2l-3.7,0.3l-2.3,1.7l-0.9-1l-1.8,2.4l-1.7,0.1l-2.7,1.5l-0.5-3.5l-2.4-0.4l-2.7-2
	l-1.9-0.3l-1.3,2.1l-3.7,3.2l-5.4-1.4l-4-3.9l-2-4.4l-2.9,2l0.3,1.4l-3.4,0.8l-0.7-2l-0.9-2.8l-2.2-3.7l-4-5.1v-5.4l-0.8-5.4
	l-2.7-3.6l-1.7-0.8l-1.2-2.2l2.3-2.1l-0.5-2.6l5.8-4.5l-0.1-4.7l2.9,0.6l2.6-1.9l0.1-1.6l2.3-1.1l1.1-2.8l3.2-1.5l1.4-2.3l3.6,2.1
	l-0.1-3l2.9-4.6l2.4-1.3l1.6,1.6l1.8,0.1l1.4,2.9l5.2,3.9l2.9,1.2l1.6-0.8l1.6,1.3l3.2,0.2l1.6,4.5l-1.1,2.5l0.3,5.3l4.2,1.1
	l0.4,2.2l2.2,1.2l-1.6,2.7L222.2,229.5z"/>
<path id="D196" class="st0" d="M631.7,617l-1.5,1l-3.6,0.4l-2.5,5.5l-0.9-1.2l-3.4,0.4l-1.5-0.7l-3.3,1.8l-2.5-1.8l-1.9-2.9l-2.4-1
	l-1-3.3l1.4-1.9l-1-2.2l-1.4-5.3l0.2-1.4l-1.1-3.1l-0.5-4.1l1.2-1v-4l-0.9-5.4l3.1,0.2l1.5,0.8l1.1-6l-0.6-1.3l3-1.2l0.6-5.3
	l-3.8-0.3l-0.5-1.3l-3.6-1.2l-0.4-1.6l-3-1.7l2.2-0.3l-1-4l-2.6-2.3l1.9-1.5l4-1.3l3.8,1.4l1.6-1l1.5-2.7l1.5-5.7l-0.3-1.5l-4.8-2.7
	l1-2.7l2.1-1.9l0.8-2.5l1.7-2.3l3.8,0.9l3.2,2.1l1.5,3l2.7,1.3l3.2-2.6l2.6,0.1l3.4,4.7l3.9,3.9l2.5,1.7l-0.5,1.4l1.5,3.3l-1.4,3
	l0.9,0.7l-2.1,3.1l-2.2,0.4l-1.6,3.3l-1.4-0.8l-2.7,1.1l-1.7,4.5l-3.1,0.9l-0.5,4.3l0.8,1v4.1L628,582l-1.3,6.9l-0.3,3.5l1.9,0.5v5
	l1,0.9l0.1,4.4l-0.5,1.2l1.4,4.3l1.8,3.2l0.4,2.4L631.7,617z"/>
<path id="D171" class="st0" d="M417.4,586.7l-1.2-1.5l-1.5-5.7l0.4-2.5l1.8-1l0.3-2.7l2.7,0.2l1.1-1.9l-1.6-2.9l0.3-2l2.5-1.1
	l-0.5-3.7l-1.4-1l1.6-2.6l4.1-1.8l2.7-2.9l1.9-4.9l3.5-2.4l1-2.9l3.2,0.7l0.4-1.6l3.1-2.8l-1.5-3.3l1.1-1l3.3,2.4l7,1.7l3.3,1.9
	l0.1,3.8l-3.3,2.9v3.1l1,1.5l3.1,1.9l3.8,1.1l1.2,3.1l4.8-2.3l1.4,0.1l4.4,1.8l0.5,2.1l-1.4,2.7l0.2,1.4l5.7,1.4l3.8-1l3.4-2.4
	l1.1,5.5l-3.1,0.4l-0.4,4.4l1.7,1h-1.7l0.5,3.9l-2.1,0.3l-1.1,3l1.2,1.1l0.1,3.1l-0.9,0.8l-3.8-2.3l-0.7-4l-3.1,1l-3.2-4.6l-1.6-0.5
	l-4.9,0.8l-0.9,5.2l-1,1.2l1.3,4l-1.1,2.9l-2.2,3.7l-1.5,1.2l0.3,6l-3.6-2.1l-0.5,2.8l-2.2,4.1l-3.1-3.3l-1-3l-4-0.3l-2.1,1.6
	l-3.8,0.1l-1.3-3.5l-6.4,3.9l-2.9-0.1l-1.5-0.8l-0.3-3.3l1.6,0.1l2.5-3.2l-1.7-2.9l1-2.3l2.4-2.1l0.2-3.4l-0.6-2.3l3.3-4.4l-2.9-2.6
	l-2.7-0.4l0.4,2.6l-1.9,4l-1.5-1.7l-1.4,1l-2.5-0.5l-2.7,1.4l0.1,2.7l2.1,0.5l2.4,1.6v2.4L417.4,586.7z"/>
<path id="D190" class="st0" d="M665,466.4l-1.7-4.2l-3.9-3.5l-2.1,0.5l-4.5,3.4l-1.9,0.3l0.7-5.5l2.2-1.5l-1-3.3l-2.2,2l-0.5-2.4
	l-4.7-7.5l-2.1,3.8l-1.2-4.6l-3.4-6.1l1.5-4l2.4,0.1l1.9-1.7l3.8-0.5l1.2-5.7l1.1-0.6l-0.8-4.5l1.2-0.7l-0.2-3.7l1.9-0.1l2.3-4.5
	l1.1,2l5.6-1.8l2.7-1.7l0.9-3.5l1.9,0.4l3.1-0.5l1.8,3l0.8,3l1.6,1.4l2.8,0.8l0.7,5.1l1.5,1.4l1.9,3.7l3.8,3.1l-3.9,2.7l-2.1-0.7
	l-0.7,2.2l-2.8-1.4l-1.9,1.9l-0.4,6l3.5,1.3l3,0.3l0.6-1.4l2.1,0.6l1.6,3.6l2,1.9l4.4,0.5l4.4,1.2l-0.3,3.8l1.2,2.3l-0.8,1.4
	l-0.3,3.2l-0.9,1.4l-3.6-0.1l-0.2,2.1l-3,1.8l-3.2-0.8l-2.5,4.5l2.1,2.9l-0.8,1.9l1.9,1.5l0.5,3.4l-1.5,0.1l-1.6-1.8l-3.1-0.3
	l-1.8-1.7l-2.6,1.1l-2.1-0.7l-2.5-4.1l-0.3-2.1L665,466.4z"/>
<path id="D201" class="st0" d="M214.9,336.4l0.2-2.8l-1.7-0.3l3.2-8.6l2-1.6l2.3,0.3l3.2-3.3l1.7-2.8l4.3,1.7l3.9-2.7l2.8-2.9
	l2.8-0.4l-0.6-2l0.9-2.5l-0.2-4.4l1.6-2l-1.1-1.7l1.7-1.5l-0.4-1.6l2-1.5l0.9,1.7l3,0.2l0.2,1.9l5.6,1.4l1.8,2.1l-0.1,3.1l1.9,1.6
	l1.8,3.1l2.8,1l2.3,2.7l4.2,1.5l1.1,1.6l4.5,2.1l1.6-1.3l1.3,0.8l2-4.8l-0.1-3.6l2.5-0.5l0.8,3.8l3.2,3.2l1.8,0.7l2.1,3l4.2-1.8
	l1.6-2l2.7,1l0.2,4.1l3.9,2.7l-2.2,4l1,3.1l-1,2.9l0.3,2.8l1.3,4.7l-1.4,1.8l-2.8,0.2l-1.6-3l-2.3-2.6l-1.6,0.4l-2.4-3.1l-0.6-2.8
	l-3.7,1.6l-5.1-1.7l-3.2,1.4l-1.5-1.2l-2.7-3.7l-1.5-0.4l-1.2,3.4l-2.6,2.9l1.2,2.1l-1.5,3.1l-4.3,1.5l-2.3,0.1l-1.5,1.3l-1.2-1.1
	l-0.3-3.4l-2.4-0.9l-1.1-3.2l-2.2-0.6l0.4-4.3l0.9-3.3l-2.5,0.1l-1.9-2.2l-3,3.9l-1.9,3.4l-2.9,0.1l-1.4,1.7l-2.1,0.4l1.5,4.1
	l0.4,3.1l-0.9,1.2l-1.7-3.3l-1.6,1.3l-3-1.1l-1.2,3.5l-2.5-1L224,346l-1.8,0.3l-0.8-2.9l1.4-4.8l-1.3-1.2l-2.4,0.2l-2-1.5
	L214.9,336.4z"/>
<path id="D161" class="st0" d="M305.4,383.7l-0.7,1.8l2.5,1l-0.2,5l-0.7,3.8l0.8,1.9l-1.8,7l0.9,0.9l0.4,3.7l-2.8,3.4l1,3.8
	l-0.7,1.8l-4.3,3.4l-2.8,4.3v1.9l-3.9,2.5l-0.3,3l-2.5-1l-1.4,1.1l-2.7-0.2l-1.1,1.9l-0.3-1.8l-2.4-2.3l0.1-1.2l-2.8-1.6v-2.5
	l-1.3-2.1l1.9-1.7l-1.5-3.9l1.1-2.8l-1.4-1.3l-2.9,2.5l-0.9-1l0.9-2.6l-3.5-1.8l-3.1,0.9l-1.9-2.3l-2.3-4.2l-3.3,0.1l1.2-4.2
	l3.9,0.3l0.7-1.6l-3.5-6.4l-2,0.4l-1.2-4.2l-1.5-1.1l1.7-3l3-1.7l1.8,0.6l1.9-2.2l1,1.4l2.5-0.8l1.5,0.5l1.1-2.1l2.2,1.3l3.7,4.2
	l4.2-5.5l5-1.8h6.1l0.4,2.7h3.1l3.5-1l3.3,0.9L305.4,383.7z"/>
<path id="D177" class="st0" d="M537.5,443.1l-2,0.2l-0.6-1.5l-1.9-0.4l-4.4-5.1l-2.1,0.1l-4.4-2.1l-2.9-0.5l-1.4-1.8l-5.1,0.4
	l-1.4-2.2l-2.5-0.6l-1.2,2.2l-1.7-0.8l-1.4-1.9l-6-0.6l-1,0.7L497,432l-2.9-1.6l1.9-1.6l0.2-5l3.3-2.6l0.3-2.7l-0.9-1.7l1.6-2.6
	l3.9-1.8l2.8-0.2l-1.4-2.3l1.4-4.4l-2.5-1.4l-0.1-2.7l2.5-1.1l1.6,0.2l-0.3-3.1l2.2,0.2l2.8,4.7l4.6,1.1l2.4-0.9l2.6-2.1l4-0.3
	l1.8-1.6l2.4-0.8l3.5-0.1l3.1,2.8l-0.1,3.2l1,2.7l6.6,3.1l0.7,1.5l4.5,5.5l2.5,1.3l2.6-1.3l2.6,0.6l-0.8,2.5l0.7,2.3l-1.8,0.5
	l1.1,2.2l-3,3.9l-1.1-1.1l-2.1,1.4l-0.9-3.1l-3.2-0.4l-2,5.3l-0.3,2.6L543,435l-0.9,3l-2.7,3.5L537.5,443.1z"/>
<path id="D159" class="st0" d="M337.4,356.4l-2.3,0.2l-1.3,4.6l-1.4,0.6l-2.4-1.9l-1.8-0.2l-0.9,1.8l-3,1l-2.7-3.4l-0.5-2l-5.9-0.1
	l-1.7-1.6l-2.6,3.2l-4.4-2.1l-1.2-4.5l-0.3-3.1l-2.5,0.5V347l-1.7-0.1l-1.4-2.7l1.4-1.8l-1.3-4.7l-0.3-2.8l1-2.9l-1-3.1l2.2-4
	l-3.9-2.7l-0.2-4.1l-2.7-1l-0.4-3.3l-4-2l0.1-7.6l1.5,0.2l2.3-1.4l2.1,0.8l2.9,1l1.2,1.5l3.1,1.7l1.1-0.3l3.1,1.9l3.6,0.8l2.6,1.9
	l1.4-1.3l2.7,1.7l0.2,2.9l1.7,0.8l1.5-1l2.9,1.1l2.7-0.3l0.6-2.5l1.6-0.4l1-1.7l1.8,2.1l-0.8,3.7l1.1,0.6l0.6,8.5l3.2,0.5l1,1.9
	l2.5,2.3l-2,2.1l0.3,2.1l-2.4,2.9l-0.4,1.8l2.6,4.3l0.8,5.1l-1.8,2.1l-0.7,3.3L337.4,356.4z"/>
<path id="D172" class="st0" d="M466.6,506.9l-1.8,3.1l-6.2,4.2l-0.4,2.5l-2.4-0.2l-0.3,2.1l1.9,1.4l-0.8,4.9l0.6,0.4l-0.6,4.4
	l1.2,0.2l2.3,3.5l0.7,2l-0.7,3.2l0.5,2.8l-1.8,0.6l-1.4,3.8l-2.1-0.6l-0.1-3.8l-3.3-1.9l-7-1.7l-3.3-2.4l-1.7-2.1l0.4-1.4l2.2-1.7
	l0.3-3.6l-1.4-0.7l-3.9,2.6l-1.9-1.3v-6.4l-0.9-0.7l-2.7,1.1l-3.2,0.1l-1.2-4.7l-1.6-0.4l-1.9,2.4l-3,1.8l-3.8,0.4l-5.3-2.3l-5-0.9
	l-2.8-2.6l1.5-2.9l0.1-2.3l-4.3,0.7l-1.9-1l-2.4-2.5l1-2.5l4.3-0.2l1.7-3.4l-4-1.2l-4-2.2l-5.4-1.3l-3.1,1.3l-2.2,1.2l-1.7-0.6
	l-2.4-4l-2.8,0.9l-1.6-5.3l2.5-2l1.2-6.2l3.1-1.3l1.5-3.2l0.2-2.4l2.5-1.3l4.6-3.8l2.6-0.8l0.4-1.2l2.6-0.4l1.2-1.1l1.8,0.6l1.4-1
	l0.6-2.5l1.7-0.7l2.8,0.2l0.7,1.8l-0.5,3.8l0.8,2.2l3.5,0.7l1.4,2.5v1.8l2.5,1.9l4.2,1.5l4.1,4.3l3.2-0.4l3.3-2l2.1,0.1l1.8-1.2
	l2.5-0.3l3.8,0.5l1.7,1.7l2,3.4l0.5,2l3.7,2.6l-0.1,1.9l6.9,2.1l1.1,0.9l0.4,5.6l1.5,1.8l4.6,1.5L466.6,506.9z"/>
<path id="D147" class="st0" d="M263.8,383.9l-3,1.7l-1.7,3L258,388l-4.7,0.4l-0.2,4.1l-2.3-0.1l-1-3l-1.9-2.3l-1.3,0.4l-1.3-2
	l-0.2-2.1l-4.6,0.6l-2.3-0.9l-0.4-3l-2.5,1.1l-0.2-2.5l-1.3-3.6l-3.3-1.6l-2.2-2.5l-2.6,0.9l-1.3-2.5l2.2-3.3l-3.6,0.6l-0.5,4.1
	l-5.3,0.7l-0.1-2.3l-1.4-0.9l-0.5-2.6l1.4-2.9l-1.1-2.6l-3.1,0.5l-4.3-0.5l-2.5-2.1l-3.3,2.4l-0.8-1.4l0.6-2.1l-0.6-3.9l-1.5-1.8
	l-1.9-0.3l0.2,2.8h-2.1v-2.6l1.4-1.5l0.8-0.6l-0.5-4.4l2.3,0.4l2.4-2.7l2.4,1.2l0.6-2.9l-2.2-0.7l2.4-2.5l2,2.5l2.4,0.4l1.2-1.7
	l3.7-2.4l2.2-0.3l2,1.5l2.4-0.2l1.3,1.2l-1.4,4.8l0.8,2.9l1.8-0.3l3.4-3.6l2.5,1l1.2-3.5l3,1.1l1.6-1.3l1.7,3.3l0.9-1.2l-0.4-3.1
	l-1.5-4.1l2.1-0.4l1.4-1.7l2.9-0.1l1.9-3.4l3-3.9l1.9,2.2l2.5-0.1l-0.9,3.3l-0.4,4.3l2.2,0.6l1.1,3.2l2.4,0.9l0.3,3.4l-0.6,3.8
	l0.7,1.4l-0.1,3.5l3.2,4l-1.2,4.6l1.3,0.2l3.8,3.8l-0.9,5l-1.6,1l-0.7,2.4l0.4,4.3L263.8,383.9z"/>
<path id="D141" class="st0" d="M145.8,199.9l2.9-0.2l3,0.8l-0.9,2.1l0.5,2.8l2.4,0.8l2.2-1.2l0.9,0.7l3.7-2.3l2.2,1.5l2.4,0.7l2,1.7
	l0.5,1.8l1.9,1.6l1.7-1.7l1.6,2l1,2.6l0.1,4.7l-5.8,4.5l0.5,2.6l-2.3,2.1l1.2,2.2l1.7,0.8l2.7,3.6l0.8,5.4v5.4l4,5.1l2.2,3.7
	l0.9,2.8l-2.1,3l0.1,3.7l-3.2,1l-3.1-3.5l-1.3,2l-1.8-0.1l-0.9-1.5l-2.9,3.1l-7.5,0.1l0.2-2.1l2.1-2v-4.3l2.6-0.8l0.5-2.2l-1.8-4.2
	l-0.3-2.6l-3.6-1.6l2-1.2l0.2-2.8l-2.4-3.7l2.2-1.8l-2-3.9l0.4-2.1l-3.1-1.9l-0.8-2.5l-2.2-0.4l-3-4.2l-1.4-0.6L145,216l-2.1-2.7
	l-0.1-2l1.1-1.8l2.3-1.3l-0.5-2.4l-1.5-1.4L145.8,199.9z"/>
<path id="D140" class="st0" d="M174,191l-0.9,1.4l-4.4,3.1l-1.8,2.1l-2,0.1l-1.7,3.9l1.3,1.9l-1.7,1.4l-2.2-1.5l-3.7,2.3L156,205
	l-2.2,1.2l-2.4-0.8l-0.5-2.8l0.9-2.1l-3-0.8l-2.9,0.2l-1.7-3.5l-1.1,0.8l-1.3-2.6l-1.4-0.4l-5.3-6.9l1.5-1.2l0.3-2.3l1.4,0.9
	l3.4-1.3l0.9,0.9l0.7,3.6l4.5-1.1l0.5,1.7l3,1l-0.2-2.9l1-3.4l-0.7-4.2l1.2-0.5l1.7-4l1.2-0.9l0.2,2.2l3.7,0.5l2.2,1.3l1.8-0.8
	l2.6,0.5l0.5,1.8l4.7-0.4l3,0.4l1.1,2.9l-0.3,2.6l1.2,1.6l-0.1,2.3L174,191z"/>
<path id="D195" class="st0" d="M643.6,560.3l-0.9-0.7l1.4-3l-1.5-3.3l0.5-1.4l-2.5-1.7l-3.9-3.9l-3.4-4.7l-2.6-0.1l-3.2,2.6
	l-2.7-1.3l-1.5-3l-3.2-2.1l-3.8-0.9l-1.7,2.3l-3.8,0.2l-1.1-1.4l-2.5,2.9l-1.8-3.7l0.6-2.4l0.9-2l-0.4-4.6l-1-2l0.2-2.1l1.8-0.6
	l4.7,0.4l3-2.1l0.5-2.6l4.1-1l-2.2-2.8l0.5-2.9l3.8-1.8l1.4,1.8l2.4-2.8l0.8-2.9l1.7-0.1l2.7,1.7l1.8-4.1l4.6-1.4l1.6,1.3l2.2-2.8
	h3.6l2.8-1.7l3.7-0.1l2.1-1.2l2.3,2.5l3.1,0.2l0.5,1.1l1.7,2.4l5.3,5.4l1.5,0.3l2-1.4l1.7,3.2l5.7,1.7l-0.6,7.7l-1.2,3.7l1.1,5.4
	l-1.3,3.2l-2.3,3.9l-1.6,0.5l-0.1,1.8l-1.6,3.2l-1.4,1.2l0.4,2.8l-2.8,0.4l-0.5,2.6l-1.1,1l-2.7-0.6l-3.1,1l-1.9,2.8l-2.4,0.6
	l-2.9,3.8l-0.8-0.4l-3.1,1.6L643.6,560.3z"/>
<path id="D183" class="st0" d="M480.2,373.3l0.7-2.5l2.2-1.3l1.9-2.3l1.7,0.5l1.5-3.1l2,0.4l1.3-5.5l1.7-5.3l2.8-3.4l0.2-2.5
	l-2.3-1.1l0.4-1.6l3.1-0.8l1.1-0.5l1.9,2.1l2.8,1.8l0.2,2.2l1.3,0.9l2-2.6l0.6-3.6l3-0.8l0.7,1.5l2.1-1.3l-0.9-3.8l2-3l-0.1-2.7
	l1.7-1.7l2.1-0.4l1.9,3l2.7-0.7l3.1,1.2l3.7,1.7l2.5,6.5l3,1l7.7,7l-0.5,2.3l-2.7,1.1l-1.5,5.4l0.9,2.6l2.3,0.7l6.6,5.1l4,5.3
	l3.3-2.2l2.5-5.5l0.8-3.5l1.2-0.6l2,4.1l2.2,1l1.6,4.4l-0.9,1.1l1.3,2l-0.2,1.9l3.6,1.8l-2.1,0.3l-1.5,1.5l-0.7,2.4l-3.5,1.4
	l-1.3,1.5l-1.3,3.6l-3.2-2.8l-0.8,0.4l-3.1-2.1l-3.1,1.6l-2.5-2.6l-0.7-2.2L543,385l-3.8,1.7l-0.6,2.2l1.1,2.1l-1.4,2.8l0.8,1.4
	l-0.3,3.9l-1,1.2l-3.1-2.8l-3.5,0.1l-2.4,0.8L527,400l-4,0.3l-2.6,2.1l-2.4,0.9l-4.6-1.1l-2.8-4.7l-2.2-0.2l-2.8-1.5l-1.4-1.6
	l-4-2.3l-3-4.9l0.7-2.7l-5.5-0.6l-0.3-4.5l-2.1-1.5l-2.1-0.3l-1.6,1.1l-1.5-1.9l-0.2-2.2l-2.4,0.2L480.2,373.3z"/>
<path id="D188" class="st0" d="M610.8,445.6l-4.1-0.9l-1-1.6l2-1.8l0.1-6.3l5.8-2.4l1.7,1.8l0.6-3l-3.4-2.7l-1.4-5.7l-1.6-0.5
	l-0.1-2.3l1.5-1.3l-0.5-2.8l-2.1-0.3l-1-5.6l3.5-1.4l0.9-1.9l-0.1-2.3l-2.5,0.1l0.2-4.9l1.6-5.6l6.6-2.1l0.7-6.3l-2.3-2.7l2.4-1.2
	l-0.4-1.6l2.2,2.3l1.6-0.3l3.4,7.7l1.5-1.9l2.4-4.4l5.7,0.3l3.8,2.1l0.1,2.1l1.4,2.2l4.2,1l-1.5,3.8l2.6,2l2.8,5l-0.2,2.1l2.2,1.8
	l-0.1,5.3l1,5l0.2,3.7l-1.2,0.7l0.8,4.5l-1.1,0.6l-1.2,5.7l-3.8,0.5l-1.9,1.7l-2.4-0.1l-1.5,4l3.4,6.1l1.2,4.6l2.1-3.8l4.7,7.5
	l0.5,2.4l2.2-2l1,3.3l-2.2,1.5l-0.7,5.5l-2-1l-0.2-1.4l-2.8-0.7l-3-2.7H641l-2.4-0.4l-3,1.1l-3.2-1.4V455l-5.1-5.8l-0.8,0.5
	l-3.1-1.4l-4.6-3.7l-5.4-0.4L610.8,445.6z"/>
<path id="D168" class="st0" d="M369.2,549.9l-1.1,0.7l-3.5-2.8l-2.7-0.5l-0.5-1.3l1-3.7l-3-1.1l0.7-2.3l-0.7-2.3l2.1-6l-1.5-0.7
	l-2.2-3.9l-2.2-1.2l0.4,3.2l-1.2,2.2l-2.3-0.4l-1.7,2l-1.7,0.3l-1,3l-2.3-0.2l-0.2,2.4l-1.2,3l-6-2.8l0.3-2.3l-2.4-2.1l-1,1.7
	l-3.3,0.9l0.5,3.1l-1.6,0.3l-0.2,2.6l-2.3,0.3l-1.8-1.3l-4.3,0.3l-0.4,0.9l-3.4-1.1l-2.1-1.3l-3.2,0.2l-3-1.8l1.7-2.5l-2.9-6.1
	l0.3-1.9l-1.3-2.1l1.1-1l1-3.5l-1.1-3.5l1.9-2.8l-1.8-0.5l-0.1-3.2h1.7l0.2-2.1l0.9-1.5l3.3,2.5l1.1-0.5l-0.3-3.5l2.8-3.2l1.1-0.2
	l2.7,3.9l1-0.3l1.6-3l-0.3-1.8l-2.2,0.5l-1.7-1.9l0.9-1.6l3.3,1.1l3.3-1.9l-0.9-2.1l1.3-1.1l3.5,3l2.2-2.4l1.2,2.1l3.5,0.1l1.3,3.6
	l3.1,0.9l1.3-5.2l1.5,2.8l2.4,0.5l-0.3-5.8l2.1-3.2l1.6-0.5l3.4-3.9l-0.6-2v-3.4l-2-3.6l1.4-3.6l0.1-3.5l2.1,0.3l0.4,2.3l-1.1,5.9
	l0.9,0.8l3.5,0.3l5-1.3l1.6,0.2l1.4,2.5l-0.4,3.2l-2,2.1l4.7,4.1l4.3,2l1.5,3.3l1.8-0.5l2.8-0.9l2.4,4l1.7,0.6l2.2-1.2l0.2,3.1
	l-2.1,2.8h-2l-3.2,4v2l1.2,2.1l2.3,0.7l3.4,4.8l-2.1,0.9l-1.3,1.7l1.1,5.2l-3.3,2.7l1.2,1.4l-1.1,2.8l-2-0.7l-1.6,3l-1.5,0.6
	l0.7,5.7l-2.3,3.6l-0.3,2.7l-4.1-1.5L369.2,549.9z"/>
<path id="D752" class="st0" d="M174,191l0.6,2.1l2.8,0.7l4.4-3.3l0.4-2l4.9-1.7l1.4,0.2l-0.8-3.6l0.6-3l2.3-0.5l3.9,2.3l1.8,0.2
	l5.3-2.1l4.4,1.3l2.1-0.6l-0.3,3l0.5,4.3l1.2,1.8l0.6,5.4l4.2,5.4l1.3,5.9l-3.2-0.2l-1.6-1.3l-1.6,0.8l-2.9-1.2l-5.2-3.9l-1.4-2.9
	l-1.8-0.1l-1.6-1.6l-2.4,1.3l-2.9,4.6l0.1,3l-3.6-2.1l-1.4,2.3l-3.2,1.5l-1.1,2.8l-2.3,1.1l-0.1,1.6l-2.6,1.9l-2.9-0.6l-1-2.6
	l-1.6-2l-1.7,1.7l-1.9-1.6l-0.5-1.8l-2-1.7l-2.4-0.7l1.7-1.4l-1.3-1.9l1.7-3.9l2-0.1l1.8-2.1l4.4-3.1L174,191z"/>
<path id="D155" class="st0" d="M425.7,368.7l-2.6-0.9l-0.9,1.3l-3.3-0.4l-4.5,4.1l-3.1-1.6l-2.1,3.6l-1.8,0.3l-0.9,1.7l-2.2,1.7
	l-2.5,0.4l-2.2,2.4l-3.1,0.9l-1.3,1.1l0.1,2l-1.6,0.7l0.2,3.2l-1.1,2.6l-2.5-4.6l-1.9,0.8l-1.8-2.7l-0.9-4.4l-2.6-1.2l0.7-2.6
	l-4.2-0.2l-1.8,6h-1.9l-2.5,1.2l-1-2.8l-4.9,0.6l-3.4,4.9l-0.5,1.6l-2.5-3.6l-0.4-2.6l-3.3-6.2l0.1-3.2l-4.3-3.5l-1.4-5.2l-3.2-0.3
	l-0.5-2.5l-4.4,0.5l-2.1-2.3l-4.3-2.9l-2.1-1.4l0.7-3.3l1.8-2.1l-0.8-5.1l-2.6-4.3l0.4-1.8l2.4-2.9l-0.3-2.1l2-2.1l-2.5-2.3l1.3-1.4
	l-0.4-5.5l-1.5-1l0.6-2.1l-1.2-5.3l-1-1.9l0.6-2.1l2.6-2.1l0.7-5l2.3,0.7l1.5,3.2l2.3,2.8l4.1,0.4l1.3-2.6l-0.1-2.5l2.9-0.3l2.7-1.3
	l0.8-1.3l4.6-0.3l0.8-1.4l2.5,0.3l0.3-3.1l2.1-1.4l2.9,0.8l1.5,2.3l4.6-2.3l3.9,2l4.9,8.3l-0.5,5l0.1,5.4l1.5,2.9l0.6,4l1,0.6
	l0.7,2.9l3,1.1l2.2,5.9l2.3,1.7l1.6,6.1l1.2,0.1l1.1,3.6l0.9,0.8l0.8,3.9l3.4-0.3l0.5-2.4l3.1,2.7l3,0.2l1.3,4.1l3.3,0.9l2.3-1.8
	l3.3,3.8l1.6-0.6l2.1,4.3l0.3,3.2l-0.9,2.5L425.7,368.7z"/>
<path id="D144" class="st0" d="M195.8,348.1l-2.5-2.5l-0.4-5.7l0.2-10.5l-1.8-4.9l-2-1.3l2.4-3.9l-0.7-1.9l2.4-2.2l3.2,0.6l2.4-0.5
	l-1.1-2.2l2.9-4.8l-1.8-3.2l1.2-2.6l2.2-2.8l-1.8-1.5l4.1-1.8l2.1,1.5l3.3-0.6l2.5,0.8l1,1.9l-0.6,3l3.6,3.1l1.1-0.7l3.4,3.4
	l4.5-0.3l3.2-2.3l1.9-3.7l1.1-3.7l2.3-4l1-3.8l2,1.9l1,6.3l2.2,1l1.1,1.7l-1.6,2l0.2,4.4l-1,2.7l0.5,1.9l-2.8,0.4l-2.8,2.9l-3.9,2.7
	l-4.3-1.7L224,320l-3.2,3.3l-2.3-0.3l-2,1.6l-3.2,8.6l1.7,0.3l-0.2,2.8l-3.7,2.4l-1.2,1.7l-2.4-0.4l-2-2.5l-2.4,2.5l2.2,0.7
	l-0.6,2.9l-2.4-1.2l-2.4,2.7l-2.3-0.4l0.5,4.4l-0.8,0.6L195.8,348.1L195.8,348.1z"/>
<path id="D165" class="st0" d="M311.2,508.3l-1.1,1.1l-3,0.1l-2.1,1.7l-2.3-2.4h-2.1l-2.2-1.6l-2,1.9l-2.1-1.2l-4.3-1.3l-1.3-1.2
	l0.8-2.3l-2.3-1.6l0.8-3.2l-2.4,0.1l-0.2,3.3l-2.8-0.9l0.6-3.4l2.7-0.6l0.3-1.3l-3.5-1.2l-1.9-1.4l-1.2,0.7l-2-1.1l-1.1,0.8
	l-2.4-1.5l1.3-3.8l0.6-3.8l-0.5-1.2l3.1-3.9l1.7-0.9l-2.5-2.9l-0.4-1.8l-1.8-1.3l1.3-1.8l3.2-0.1l0.1-4.5l3.1-3.5l1.4-5.8l1.6-0.4
	l1.6-2.9l2.3-0.1l-0.8-4l-3.2-1l1-1.5l-0.7-3l2.9-1.2l0.8-3l4.2,0.9l5.1,0.3l3.3-1.6l1.5,2.8l2.4,1.6l1.9-0.5l5.7-2.8h3l1,1.2
	l0.4,3.3l1,2.7l1.8,2.3l2.3-1.8l1.2,2.2l-3.1,2.3l-0.2,1.3l1.7,3.2l2.8,2l5.5,1.5l-0.1,3.4l6.4,2.8l2.9,0.1l0.3,1.7l-1.9,3.5l2.2,1
	l1.2,1.8l4.2,0.8l2.3-1.4l2.5,2.3l1.8,0.2l2,3.6v3.4l0.6,2l-3.4,3.9l-1.6,0.5l-2.1,3.2l0.3,5.8l-2.4-0.5l-1.5-2.8l-1.3,5.2l-3.1-0.9
	l-1.3-3.6l-3.5-0.1l-1.2-2.1l-2.2,2.4l-3.5-3l-1.3,1.1l0.9,2.1l-3.3,1.9l-3.3-1.1l-0.9,1.6l1.7,1.9l2.2-0.5l0.3,1.8l-1.6,3l-1,0.3
	l-2.7-3.9l-1.1,0.2l-2.8,3.2l0.3,3.5l-1.1,0.5l-3.3-2.5L311.2,508.3z"/>
<path id="D194" class="st0" d="M575.4,551.5l-3.1-0.5l-3-1.9l-0.8-3.6l-1.7-0.2l-3.3,1.7l-2.4-0.5l-0.7-3.3l-4.2-2.2l-0.7-2.6
	l-2.4,1.4l-2.7-1.5l-2.3,0.4l-1.8-2.3l-3.6-1.7l-2.8-2.9l-1.8-0.9l-3.7,0.7l-2.2-2l-2.8-4.6l1.6-0.9l1.2-2.9l1-2.5l1.6-1l0.6-3
	l-1.4-4.4l-0.2-4.3l2.1-0.1l1.2-1.8l3.1,0.6l2.7-2.9l0.6-3.5l6.3-2.3l1.5-2.2L549,493l-1.2-2.2l1.5-1.9l2.9,0.7l1.8-0.9l0.5-2.9
	l4.2,0.9l1.5,1.1l0.5-2.7l-0.4-2.6l-3.1-0.5v-3.2l-2.4-3l0.9-3.4l2.4,0.4l4.7-1.6l2.5,0.5l2.7-5.8l2.1,2.6l3.6,1l0.8,1.1l-1.1,1.1
	l1,3.6l2.1,1.4l-0.5,2.4l1.6,3.1l0.5,5.6l2.7,6.2l1.2,5.4l-1.4,4.7l2.3,1.3l3.1,5.8l1.9,0.8l4.1-0.9l2.6,2.4l-0.6,1.2l1.8,3.7
	l1.5,0.2l1.7,2.4l1.5-3.1l3,0.8l0.1,1.2l2.5,0.7l-0.6,3.4l-0.2,2.1l1,2l0.4,4.6l-0.9,2l-2.5,0.9l-1-3l-3.8,1.8l-1.4,2.9l-2.9-4.7
	l-7.3,0.5l-0.8,1.6l-2.2-0.2l-1.7,2.5l-3-1.9l-2.3,1.7l0.9,2.8l-1.6,5.1l1,2.6l-2.4,0.3L575.4,551.5z"/>
<path id="D166" class="st0" d="M302.1,559l-1.3,1.8l-0.3,3.3l2.4-0.2l2.3,2.1l2-1.2l0.1,4.5l-2.4,1.2l-1.4-2.2l-1.2,3.2l0.4,2.3
	l1.5,1.5l1,2.5l-1.1,2.3l-2,1.1l-2.1-4.4l-1,2l0.1,2.8l-3.2-1.3l-1-2.5l-1.3,0.6l0.9,3l-3.7,0.7l-2.1-3.5l0.9-2.1l-2.3-1.4l-2.1,0.4
	l-0.5,2.3l-1.5,1.5l-1.4-0.6l1.1-3.3L282,574l2.6-4.2l-2.4-1l-0.9-1.4l-0.2-2.8l-2.1-0.1l-1.2,3.4l1.8,1.1l0.4,1.7l-1.4,1.8
	l-2.4-2.3l-2.3,1.1l-1.9,3.2l-1.9,2l-0.8-3l1.1-2.7l-1.2-1.8l0.4-2l1.9,0.1l1-2.6l2.6,1.2l0.3-1.9l2.1-1.2l-1.4-2.2l0.2-3.8l-2,1.6
	l-3.7-1.5l-2.3,3.2l1.2,2.7l-0.8,0.9l-1.3,5.3l-0.9,0.1l-3.3-6.4l3.2-4.1l0.4-2.2l3-3.8l2.1-0.2l3.4-1.5l-1,2.8l-2.9-0.4l0.1,1.7
	l3.3,1.3l0.8-1.8l2.1-0.3l-0.3-5.1l-0.8-2l-2.5,1.1l-2.1-2l2.1-2.3l0.4-2.7l-1.5-2.4l2-1.5v-2.2l-1.3-0.9l-3.2-0.1l-1.4,1.8l0.6,2.1
	l-3.4,0.9l1.9,5.2l-0.3,1.6l-5.1-3.3l-2.6,0.8l-2.4-1.5l-0.1,2.9l3.3,3.6l-0.5,2.8l0.5,4.9l-2.3,1l-2.6-1l0.5-1.9l-4.2-1.3l3.4-4.1
	l-0.9-2.1l-2.5,0.2l-2,1.2l0.1,2.5l-2.4-0.8l-2.1,4.3l-0.1,2.7l-1.6,0.4l-2.2-1.8l0.4,3.7l-0.7,2.6l-1.6,0.5l-1.4-1.9l-1.5,1.8
	l-3.2,0.7l-0.1,1.7l2,1.1l2.8-2.3l2.5,0.4l1.2,1.7l2.6,1.4l-0.5,3.5l-2.9,4.1l-2.1,1.4l-1.5,2.4l-3.1,2.5l-1.6-1.8l1.5-1.3l-4.5-4
	l0.8-2.8l-1.6-0.5l-1.6-2.6l0.6-1.7l-1.4-3.5l-3-1.4l1.9-2.8l-0.6-2l-2.3-1.3l3.1-3.9l0.2-2.8l4-2.5l0.6-1.8l2.2-0.9l-1-3V537
	l1.4-3.1l1.8,0.9l2.6-3l5.3,1.7h2.7l1.8-2.5l1.3,1.5l2.3,0.8l2.3-3l2.7-1.3l1.7,0.4l4.9-1.5l1.3-3v-3.1l-1.6-3.9l-2.4-1.1l-1.1-3
	l2.3-1.3l1.9-4h1.7l-0.4-3.4l3.8,3.1l0.2-3.5l-1.7-1.2l1.1-2.9l2.1-0.5l0.3-2.4l-0.9-1.8l4.1-4.3l2.4,1.5l1.1-0.8l2,1.1l1.2-0.7
	l1.9,1.4l3.5,1.2l-0.3,1.3l-2.7,0.6l-0.6,3.4l2.8,0.9l0.2-3.3l2.4-0.1l-0.8,3.2l2.3,1.6l-0.8,2.3l1.3,1.2l4.3,1.3l2.1,1.2l2-1.9
	l2.2,1.6h2.1l2.3,2.4l2.1-1.7l3-0.1l1.1-1.1l-0.2,2.1H309l0.1,3.2l1.8,0.5l-1.9,2.8l1.1,3.5l-1,3.5l-1.1,1l1.3,2.1l-0.3,1.9l2.9,6.1
	l-1.7,2.5l-2.1,3.9l0.6,2.2l-3,3.9l0.6,2.8l-1.3,0.3l-2,2.5l-1.8,4.2L302.1,559z"/>
<path id="D160" class="st0" d="M361,384.6l-1.7-0.9l-1.6,1.8h-2.9l0.6,2.8l-0.7,4.6l1.8,1.6l-1.3,1.5l-1.6-0.9l-2.5,0.4l0.1,3.4
	l-2.8-1l-0.9,2l1.2,1.3l-2.1,2.6l-3-1.4l-2,1.6l-1.6-1.5l-1.3-2.8l-1.4,0.8l-2-2.3l-0.2-1.5l-2.7-2.9l-0.3-2.5l-4-0.4l-4,3.4
	l-7.8-4.5l-1.9-4.1l-3.6,1.6l-2.8-2.2l-0.7,1.3l-2.5-1l0.7-1.8l2.6-0.6l1.8-2.2l1.4-4.3l0.2-2.4l2.6-1.9l-1.1-2.7l-2-0.7l-0.4-2.4
	l1.7-1.8l-1.5-2l0.1-4.3l2.6-3.2l1.7,1.6l5.9,0.1l0.5,2l2.7,3.4l3-1l0.9-1.8l1.8,0.2l2.4,1.9l1.4-0.6l1.3-4.6l2.3-0.2l4.3,2.9
	l2.1,2.3l4.4-0.5l0.5,2.5l3.2,0.3l1.4,5.2l4.3,3.5l-0.1,3.2l3.3,6.2L361,384.6z"/>
<path id="D163" class="st0" d="M356.7,469.9l-2.1-0.3l-0.1,3.5l-1.4,3.6l-1.8-0.2l-2.5-2.3l-2.3,1.4l-4.2-0.8l-1.2-1.8l-2.2-1
	l1.9-3.5l-0.3-1.7l-2.9-0.1l-6.4-2.8l0.1-3.4l-5.5-1.5l-2.8-2l-1.7-3.2l0.2-1.3l3.1-2.3l-1.2-2.2l-2.3,1.8l-1.8-2.3l3.5-4.2l1.2-0.7
	l1.4-4.1l1.8-2.1l-0.1-1.5l3.1-2.8l-0.3-7.6l0.5-2.9l2.6-0.9l3.9-5.5l-0.5-4.2l-3.2-4l3.2-0.7l2.1-1.7l1.3-2l1.6,1.5l2-1.6l3,1.4
	l2.1-2.6l-1.2-1.3l0.9-2l2.8,1l4.2,3.3l0.4,3.6l2.8,4.3l2.7,11.3l3.3,0.2l0.1,1.4l4.9,2.1l0.9,2.9l1.1,0.1l2,4.5l-3.5,3l0.6,7.8
	l0.7,1l0.1,4.9l1.4,4.6l-3.1,0.2l1.1,2.6l-2.1,1.6l-1.6-1.8l-2.9,1.3l-1-0.7l-2.4,1.1l-1,7.5l1.4,1.6l-3.1,2.5L356.7,469.9z"/>
<path id="D164" class="st0" d="M378.4,494.8l-1.8,0.5l-1.5-3.3l-4.3-2l-4.7-4.1l2-2.1l0.4-3.2l-1.4-2.5l-1.6-0.2l-5,1.3l-3.5-0.3
	l-0.9-0.8l1.1-5.9l-0.4-2.3l1.4,0.1l3.1-2.5l-1.4-1.6l1-7.5l2.4-1.1l1,0.7l2.9-1.3l1.6,1.8l2.1-1.6l-1.1-2.6l3.1-0.2l-1.4-4.6
	l-0.1-4.9l-0.7-1l-0.6-7.8l3.5-3l-2-4.5l-1.1-0.1l-0.9-2.9l-4.9-2.1l-0.1-1.4l-3.3-0.2l-2.7-11.3l-2.8-4.3l-0.4-3.6l-4.2-3.3
	l-0.1-3.4l2.5-0.4l1.6,0.9l1.3-1.5l-1.8-1.6l0.7-4.6l-0.6-2.8h2.9l1.6-1.8l1.7,0.9l2.5,3.6h1.3l3.2,5.1l-0.1,3.6l1.3,4.5l-0.1,2.2
	l1.1,3.5l4.3,6l3.7-0.1l2.1,1.9l3.6,6.8l-0.6,6.2l1.1,2.4l3.1,4.3l4.6,3.1l-0.1,1.6l1.5,1.9l8.9,7.1l0.3,3.8l1.4,3.6l1,6.6l-1.7,0.7
	l-0.6,2.5l-1.4,1l-1.8-0.6l-1.2,1.1l-2.6,0.4l-0.4,1.2l-2.6,0.8l-4.6,3.8l-2.5,1.3l-0.2,2.4l-1.5,3.2l-3.1,1.3l-1.2,6.2l-2.5,2
	L378.4,494.8z"/>
<path id="D202" class="st0" d="M294.3,317.2l-1.6,2l-4.2,1.8l-2.1-3l-1.8-0.7l-3.2-3.2l-0.8-3.8l-2.5,0.5l0.1,3.6l-2,4.8l-1.3-0.8
	l-1.6,1.3l-4.5-2.1l-1.1-1.6l-4.2-1.5l-2.3-2.7l-2.8-1l-1.8-3.1l-1.9-1.6l0.1-3.1l-1.8-2.1l-5.6-1.4l-0.2-1.9l-3-0.2l-0.9-1.7
	l-2,1.5l0.4,1.6l-1.7,1.5l-2.2-1l-1-6.3l2.3,1.1l1.1-1.4l-0.2-3.1l-1.6-1.5l2.9-5.3l1.7-0.5l1.9-3l2-4.6l0.7-5.3l0.9-1l1.5-0.7
	l2.6,1.1l0.7,3.7l1.8,0.9l2,3.3l2.7,1.2l4.5-0.3l0.9,1.7l3.4,2.8l1.4-0.7l2.7,4.4l-0.2,2.6h3.5l1.8-2.4l2.3,1.6l0.5,1.7l2,0.6
	l2.1-0.7l2.3,1.2l1.7-1.6l3.2,3l0.5,4.3l3.4,4.3l-0.2,3.5l-2.1-0.8l-2.3,1.4l-1.5-0.2l-0.1,7.6l4,2L294.3,317.2z"/>
<path id="D174" class="st0" d="M455.1,545.2l2.1,0.6l1.4-3.8l1.8-0.6l-0.5-2.8l0.7-3.2l-0.7-2l-2.3-3.5l-1.2-0.2l0.6-4.4l-0.6-0.4
	l0.8-4.9l-1.9-1.4l0.3-2.1l2.4,0.2l0.4-2.5l6.2-4.2l1.8-3.1l2.6,4.1l2.2,0.1l0.7,2.6l-1.6,2.9l-1.3,0.8l1.7,2.9l2.4,0.6l3.8,4.8
	l2.4,1.4l2.8,0.3l1.6,4.6l1.4,0.9l3.6-2.7l2.8,1.5l0.4,4.8l1.1,2.2l2,0.7l2.6-0.4l2.9,3.7l3,0.8l2.7-1.2l3-3.3l3.4,4.6l-1.6,3.8
	l-5.9,2.6l-1.9,3.8l1.7,3.4l-2.2,2.4l-2.2-2.5l-5.5-1.3l-4.5,0.5l-6.9,6.5l-3.4,2.4l-3.8,1l-5.7-1.4l-0.2-1.4l1.4-2.7l-0.5-2.1
	l-4.4-1.8l-1.4-0.1l-4.8,2.3l-1.2-3.1l-3.8-1.1l-3.1-1.9l-1-1.5v-3.1L455.1,545.2z"/>
<path id="D153" class="st0" d="M384.3,306.9l-4.9-8.3l-3.9-2l-4.6,2.3l-1.5-2.3l-2.9-0.8l-2.1,1.4l-2.1-7.2l1.6-1.7l-2.1-3.1v-4.4
	l3,0.2l1.5-1.3v-2.1l1.9-1.8l0.9-2.8l2.8-0.6l3.8-3l1.9-2.8l1.2,0.3l1.1-3.3l-0.9-1.3l-0.3-4.1l0.5-1.8l4.1-0.2l0.6-3.7l-0.8-2.8
	l1.1-3.2l-0.5-1.7l2.2-4l2.8-3.9l-0.8-5.5l-4.6-7.5l1.8-3l2.8,2.1l1.4,0.1l1.2-2l2.1-0.2l1.2-2.3l-3-5.2L389,209l-2.6-1.5l-2.9-0.8
	l0.1-2.6l2.4-4.5l0.3,2.5l2.8,2.3l0.9,1.7l3.5-1.1l3.7,2l0.8,3.2l2.8,2.4l1.2-0.9l-1.5-9.5l2.9-2.7l4,1.2l-0.8,2l2.1,1l0.4,1.4
	l3.2,0.6l1.3-0.8l0.8,4l3,3.9l1.9-0.7l2.4,0.9l1.3,3.9l2.5,0.9l3.2,2.5l1.7-1.4l2.6,1.3l-0.2,3.4l3.1,1.2l2.8,2.2l1.6-2.1l2.7,2.8
	l3,3.9l-2.1-1.9l-1.6,4.1l1.9,2.4l-1.9,5.2l2,2.6l0.5,3.8l2.7,2.2l2.1,4.9l2.9,3.2l1.9,3.2l-2.3,4.4l0.7,2.5l4.6,6l1.6,1.5l0.5,2.2
	l2.4,1.1l2.1,4.1l-2.2,2.2l0.5,3.6l1.5,4l-1.8,0.6l1.1,2.6l-0.9,2l1,1.3l0.8,3.8l-0.9,1.8l0.7,2.1l-3.3,0.8l0.4-3.9l-6.5-2.4
	l2.4-3.7l-2.7-2l-2.9-0.3l-0.2-2.1l-2.7,2l-1.3-2.8l-2.2,0.1l-5.8-1.2l-0.5-1.7l1.8-4.2l-2-0.5l-1.8-1.7l-1.8,5l-4,1.2l-3.4,2.2
	l-1.5,3.4l-3-2.8l-2.1,1.5l-3.1-0.3l-2.8-1.9l-0.9,0.4l-3.3-1.7l-2.6,9.2l-3.2,0.1l-2.1-5.1l-1.7-1.3l-2.4,3.8l-1.4-0.3l-1.7,2.9
	l-2.3,0.4l-3,3.4l-3.6,1.5L384.3,306.9z"/>
<path id="D189" class="st0" d="M684.8,428.2l-3.8-3.1l-1.9-3.7l-1.5-1.4l-0.6-5l-2.8-0.8l-1.6-1.4l-0.8-3l-1.8-3l-3.1,0.5l-1.9-0.4
	l-0.9,3.5l-2.7,1.7l-5.6,1.8l-1.1-2l-2.3,4.5l-1.9,0.1l-1-5l0.1-5.3l-2.2-1.8l0.2-2.1l-2.8-5l-2.6-2l1.5-3.8l1.9-4.6l3.2,0.7
	l1.2-0.4l-0.3-2.7l4.6,1l0.1-1.9l3.7,1.1l0.5-3.6l1.8-0.7l-2.2-6.6l3-0.3l0.9-5.1l2.2-1.3l0.4-7.3l1.7-2.8l-1.4-3.6l2.4-0.4
	l-0.1-4.1l2.8-1.2l0.4,1.4l2.1,0.9l0.3,2.9l3.7,1.5l2.5,4.1l0.5,2l-1.3,1.7l-2.2,4.9v3.2l1.1,0.4l4.5-2l0.7,1l-2.1,3.7l2.4,1.8
	l2,5.8l-1.2,4.5l1,1.8l0.3,4.3l3.3,1.5l0.7-1.7l2.3,0.9l0.1,3.2l3,2.3l0.6-2l2.6-1.9l1.6,0.1l1.9,2.7l-0.7,2.5l0.8,1.4l-1.3,4.5
	l-0.9,1.1l1.4,2.8l2.9-2.2l1.6-0.2l1.6,4l0.6,3.4l6.1,1.4l1,4.7l-7.1,1.3h-2.3l-2,1.7l-5.6-2.7h-2.8l-1.2-1.5l-5.7-0.2l0.3,3.2
	l-2.8,5.2L684.8,428.2z"/>
<path id="D167" class="st0" d="M235.2,580.2l3.1-2.5l1.5-2.4l2.1-1.4l2.9-4.1l0.6,2.6l1.9,4.8l0.3,6.4l1.9,0.7l1.7,3.2l-1.4,10.6
	l2.3,1.9l1.2,4.5l2.2,0.8l5.5,3.6l1.3,5L261,616l-0.1,3l0.7,6.7l-2.6,4.7l1,6.1l2,1l2-1.6l2.3-0.1l2.6-3.4l1.5,0.2l2.5,6.2l2.6,3
	l-0.2,7.3l-3.4-0.4l1,2.7l2.5,2.2l3-0.4l0.5,2.1l-1.7,5.8l0.1,1.8l-2.9,4.1l-2,1.9l0.2,3l-2.5,2l0.2,2.7l-1.8,1.6l-3.8,0.5l-0.4,2.6
	l-1.7-0.1l-2.4-6.6L258,674l-2.2,1.9l-2.4-1.1l-1.2-3.1l-3-2.4l-3.1-6.5l-2.1-0.4l-4.2-3.6l-2,2.9l-0.6,3l-2.2,1.5l-0.4,3l-3.9,2.6
	l-3.5-3.7l-1.2-3.3l2.9-4.2l-2.1-2.7l-1.5-0.7l-4.1-4l-0.3-3.8l-1.9-0.7l-0.1-2.4l-1.5-1.2l0.4-2l2.5-1.2l1.2-6.7l-1.1-3.6l0.9-2.2
	l-1.4-3.8l-2-3.3V618l-1.4-3.9l-1.8-3.2l-1.7-0.6l0.4-4l2.3-1.2l1.1-2.1l6.1-5.6l1.4-2.2l1.7-1.1l0.8-3l-1-6.1l3.3-2.2l1.8-2.4
	L235.2,580.2z"/>
<path id="D157" class="st0" d="M439.6,429.3l-2.7-2.4l-2.3-1.1l-0.7-1.8l-2.9-1.4l-0.7-3.6l-3.2-3.4l-3.9,1.8l-1-2.2l-2-2.1
	l-2.2,3.2l-2.4-3.5l1.5-1.2l-1.4-1.9l0.1-3.2l2.3-0.8l0.5-2.3l-4.6-9.1l-4.3-3l-1.6-6l-2.1,2.1l-1.7-1.2l0.8-2l2.2-0.8l0.1-2.3
	l-3.2-2.9l2.2-1.7l0.9-1.7l1.8-0.3l2.1-3.6l3.1,1.6l4.5-4.1l3.3,0.4l0.9-1.3l2.6,0.9l2.3-2.1l3-0.7l0.9-2.4l2-1l4,2.3l2.7-0.3
	l1.3,2.9l1.9,2.5l-1,2.1l-1.7,0.6l-1.4-1.1l-2.2,2.1l1.9,1.7l0.3,4.2l2.4,1.6l-0.4,1.4l1.6,1.8l-0.2,1.8l3.1,3.2l1.6,4.1l-0.7,3.5
	l3.1,0.6l1.9,2l0.2,4.1l2.8-1.7l1.8,1l-2.2,2.2l1.3,2.1l1.2,3.8l-3.9,6.2l1.1,3.2l-1.4,2.8l-1.8,0.7l-1.3,2.8l-1.9-0.3l-2.1,4.2
	l-2.6,2.2l-1.5-2.3L439.6,429.3z"/>
<path id="D187" class="st0" d="M672.7,350.3l-2.1-0.9l-0.4-1.4l-2.8,1.2l0.1,4.1l-2.4,0.4l1.4,3.6l-1.7,2.8l-0.4,7.3l-2.2,1.3
	l-0.9,5.1l-3,0.3l2.2,6.6l-1.8,0.7l-0.5,3.6l-3.7-1.1l-0.1,1.9l-4.6-1l0.3,2.7l-1.2,0.4l-3.2-0.7l-1.9,4.6l-4.2-1l-1.4-2.2l-0.1-2.1
	l-3.8-2.1l-5.7-0.3l-2.4,4.4l-1.5,1.9l-3.4-7.7l-1.6,0.3l-2.2-2.3l-1.1-2.5l-2.6,1.6l-2.5-0.7l0.7-3.1l-1.5-1l0.7-2.7l-0.8-1.4
	l1.2-3.8l-1.7-3.2l1.9-1.9l2.3,1.1v-4.7l-0.6-2.2l2.3-0.4l1.8-2l-0.5-2l3.4-2.8l-0.9-1.1l3.7-3.8l1.1,0.3l3.2,0.3l1.7-0.8l2.6-5.4
	l1.7-1.6l-1.7-3.9l1.4-1.6l-1-2.4l18.1,1.1l17.4,10.7l2,2l-0.7,1.6l0.4,2.6l4.3-2l1.2,1.5l-0.4,2.5L672.7,350.3z"/>
<path id="D169" class="st0" d="M302.1,559l-0.6-1.6l1.8-4.2l2-2.5l1.3-0.3l-0.6-2.8l3-3.9l-0.6-2.2l2.1-3.9l3,1.8l3.2-0.2l2.1,1.3
	l3.4,1.1l0.4-0.9l4.3-0.3l1.8,1.3l2.3-0.3l0.2-2.6l1.6-0.3l-0.5-3.1l3.3-0.9l1-1.7l2.4,2.1l-0.3,2.3l6,2.8l1.2-3l0.2-2.4l2.3,0.2
	l1-3l1.7-0.3l1.7-2l2.3,0.4l1.2-2.2l-0.4-3.2l2.2,1.2l2.2,3.9l1.5,0.7l-2.1,6l0.7,2.3l-0.7,2.3l3,1.1l-1,3.7l0.5,1.3l2.7,0.5
	l3.5,2.8l1.1-0.7l1.6-0.4l-1.9,5.3l-1,1.5l-2.1,0.9h-4l-0.9,2l0.2,2.5l-1.5,1.4l0.3,2l-3.9,0.5l-2.3,1.6l-2.2,0.5l-1.7-0.8l-2.2,1.8
	l1.4,1.9l-0.9,1.7l0.9,2.8l-0.2,2.2l-1.4,4.2l-1.2,1.7l-4.7-2.7l-2.4-1.9l-2.6,1l-2.5-0.4l-0.8,1.1l-2.7-0.6l-6.6-3.9l-2.9,4.7
	l0.3,2.6l-2.2,2l-2.4-1.5l0.8-3.7l-2.7,2.4l-3.8-1.4l-0.7-3.1l0.3-2.3l1.6-2.1l0.5-2.1l1.8,0.6l0.8-1.9l-0.7-2.2l1.5-1.6l-4.1-0.6
	l0.1-1.8L310,562l-0.5,2.7l-2.5-5.3l0.9-1.7l-4.1-0.8L302.1,559z"/>
<path id="D148" class="st0" d="M263.8,383.9l-2.9-7.1l-0.4-4.3l0.7-2.4l1.6-1l0.9-5l-3.8-3.8l-1.3-0.2l1.2-4.6l-3.2-4l0.1-3.5
	l-0.7-1.4l0.6-3.8l1.2,1.1l1.5-1.3l2.3-0.1l4.3-1.5l1.5-3.1l-1.2-2.1l2.6-2.9l1.2-3.4l1.5,0.4l2.7,3.7l1.5,1.2l3.2-1.4l5.1,1.7
	l3.7-1.6l0.6,2.8l2.4,3.1l1.6-0.4l2.3,2.6l1.6,3l2.8-0.2l1.4,2.7l1.7,0.1v2.4l2.5-0.5l0.3,3.1l1.2,4.5l4.4,2.1l-0.1,4.3l1.5,2
	l-1.7,1.8l0.4,2.4l2,0.7l1.1,2.7l-2.6,1.9l-0.2,2.4l-1.4,4.3l-1.8,2.2l-2.6,0.6l-0.6-1.6l-3.3-0.9l-3.5,1h-3.1l-0.4-2.7h-6.1l-5,1.8
	l-4.2,5.5l-3.7-4.2l-2.2-1.3l-1.1,2.1l-1.5-0.5l-2.5,0.8l-1-1.4l-1.9,2.2L263.8,383.9z"/>
<path id="D145" class="st0" d="M196,348.3l1.5,1.5l-1.4,1.5L196,348.3z M170.8,353.7l-2.6-2.7l-1.2-3l1.8-1.5l0.2-2.5l-3.4,1.2
	l-2.6-1.7l-3.6-4.2L157,339l-2.8-1.6l-1.3-2.8l1.2-3.9l-2.9-2.1l-0.1-2.1l-1.3-1.8l-2.9-0.7l-1.2-7.7l-1.2-1.6l2.5-4.4l-0.7-5.9
	l-2.5-0.6l0.7-2.5l-0.7-2.1l0.2-3.4l-2-1.6l0.8-2.8l1.9-0.1l2.1-3.2l2.8-0.4l3.1,0.5l-0.9-2.4l1.7-1.3l1.6,1.7l2.2-1.7l-0.1-4.1
	l4,0.1l2.3,1.5l2.6-2.4l2.9-0.2l1.4-3.1l2.8,2.5l2.9-0.1l1.8,1.4l1.9,2.8l1,4l1.8,4.5l1.5,1.2l-0.2,2.4l1.6,4l-1.9,0.3l-1.1,1.8
	l-0.2,5.3l4.6,3.3l0.9,3.9l-0.6,1.6l1.4,2.9l2.2-0.7l0.7,1.9l-2.4,3.9l2,1.3l1.8,4.9l-0.2,10.5l0.4,5.7l2.5,2.5l-2.2,3.3l0.6,2.7
	l-2.5-0.9l0.3-3.8l-0.8-1.1l-4.4,0.4l-2.6,2.9l-1.7,0.6l-1,2.4l-6.3-2l-1.6,1.5L170.8,353.7z"/>
<path id="D192" class="st0" d="M627.7,506.6l-0.4-1.6l-2.7-3.2l-1.9-1l-4,1.3l-1.1-2.2l-1.8,0.5l-1.7-3.4l0.1-2.5l2.5-1.6l-0.2-4.4
	l-0.6-2.4l1.1-5.8l3.8-3.7l0.2-3.3l2.4-0.1l0.4,1.4l6.4,3.8l2.2-1.8l1.2-4.7l-1-3l4.9-9.7l2.2-0.4l0.8-1.6h2.1l3,2.7l2.8,0.7
	l0.2,1.4l2,1l1.9-0.3l4.5-3.4l2.1-0.5l3.9,3.5l1.7,4.2l-2.1,2.8l1.9,3.2l-1,2.9l-4.6,2.6l-1.8-1.3l-2.6,2.6l-0.4,5.1l1,1.5l6.7,0.8
	l1.5,3l-0.4,4.1l1.1,1.3l-4.1,4.3l-1.2,2.8l-0.5-1.1l-3.1-0.2l-2.3-2.5l-2.1,1.2l-3.7,0.1l-2.8,1.7h-3.6l-2.2,2.8l-1.6-1.3l-4.6,1.4
	l-1.8,4.1L627.7,506.6z"/>
<path id="D138" class="st0" d="M155.6,173.6l1.6-3.7v-3.2l-2.1-4.1l0.3-2.2l-0.6-3.9l0.3-4.2l2.8-7.6l1.8,0.8l6.3-7.1l2.9,0.9
	l0.7,2.3l1.4,0.4l1.1-3l1.6,0.4l0.7,2.4l4.5,1l4.3,3.6l0.6-1.6l3.3-0.2l1.3-2.6l2.7,1.8l2.2-0.4l1.2-2.2l1.5,0.3l2.9-2.3l1.8,0.1
	l1.2-1.5l3.6,0.1l2.2,1l2.2-0.2l-0.8,5.1l1.1,1.5l-0.3,2.8l-2.1,2.7l0.5,4.6l-0.8,1.5l-1.7,1.6l1.3,4.5l-0.6,5.2l-2.3,2.3l-0.5,2
	l1,2.4l-0.6,2.4l3.3,1.6l0.9,2.3l-2.1,0.6l-4.4-1.3l-5.3,2.1l-1.8-0.2l-3.9-2.3l-2.3,0.5l-0.6,3l0.8,3.6l-1.4-0.2l-4.9,1.7l-0.4,2
	l-4.4,3.3l-2.8-0.7L174,191l2.2-2.6l0.1-2.3l-1.2-1.6l0.3-2.6l-1.1-2.9l-3-0.4l-4.7,0.4l-0.5-1.8l-2.6-0.5l-1.8,0.8l-2.2-1.3
	l-3.7-0.5L155.6,173.6z"/>
<path id="D199" class="st0" d="M562.1,628.4l-2.5,0.3l-5.3-3.2l-1.5,2.3l0.8,2.8l-0.7,2.3l0.5,4.1l-3.9-0.4l-2.5-2.3l-1.6,1.2
	l-0.9-1.6L544,630l-1.8-1.8l-3.3,0.8l1.1-2.9l-0.4-5.6l-0.9-1.2l-2.6,0.2l1-3.6l-2.8-0.3l-1.1,0.9l-2.2-1.3l-1.6,1.3l-1-1.9
	l-1.9-2.7l4.3-5.5l0.5-2.3l2,1.5l3.4-5.1l1.2,0.6l1.3-3.2l1.8-0.3l3.3-5.7l-0.6-3.2l2.4-2.8l-1.9-3.9l-1-4.2l-1.6-1.2l-0.1-2.2
	l1.5-1.9l-3.5-1.6l-0.1-1.9l1.7-3.8l2.9-0.4l1.2,1.6l1.4,4.7l2.2-0.2l1.3-3.7l2-1.2l5.3,3.9l0.7-2.5l5,0.9l3.1-1.3l2.9,0.6l0.3,2.1
	l1.5,0.8l0.4-3.7l2.4,0.5l0.8-1.3l2.3-0.2l3.7,2.1l3.8-1.4l0.9,3l-1.9,1.9l0.1,3.3l2.6-0.7l1,1.9l1.5-0.1l1.2-3.3l3.8-1.4l1.4,0.6
	l5.3,0.6l2.6-4.1l3,1.7l0.4,1.6l3.6,1.2l0.5,1.3l3.8,0.3l-0.6,5.3l-3,1.2l0.6,1.3l-1.1,6l-1.5-0.8l-3.1-0.2l0.9,5.4v4l-1.2,1
	l0.5,4.1l1.1,3.1l-0.2,1.4l1.4,5.3l1,2.2l-1.5,0.1l-2.5,1.8l-0.9-2l-2.5-0.5l-0.2-8.3l-1-0.4l-3.7,7.1l-1.9-0.6l-2,0.9l-5.4-0.9
	l-1.1-1.3l-5.8,3.6l-2.2,0.3l-5.3,3.6l-2.6-0.4l-1.1-2.5l-2.5-2l-0.9,1.6l-2,0.8l0.7,7.1L563,622l1,4.4L562.1,628.4z"/>
<path id="D135" class="st0" d="M247.7,186.9l-0.3-1.8l3-2.9l1.9-2.9l1.4-3.6l-1.6-1.2l1.9-3.1l-3-3.4l-0.9-2.4l2.4-3.9l2.6-2.8l-3-4
	l0.7-2.7l-0.6-5l0.3-2.6l1.4-0.3l-0.9-2.7l2.2-4.4l3.8-1.6l1.3,0.2l4.4,3.7l1.4-0.9l2.6,1.2l2.8,5l0.5,4.2l3.2,1.5l1.3-1.3l-0.2,3.5
	l-2.8,4.7l1.2,5l-1.2,2.8l-3.4,3.6l0.8,2.7l-1,2.2l-0.2,3.2l1.4,0.9l0.5,2.7l2.2,0.9l0.3,2.5l1.3,1.2l0.8,2.9l-1.2,1.3l1.9,2l-1.8,2
	l-0.5,3.3l-3.2,0.7l-2.1,1.7l-2.1-1.5L266,200l0.1,2.2l5.3,6.1l1.2,3.1l1.4,1.3l-0.7,3.2l0.5,2.3l-2.5-1.3l-0.4,1.6l-5.7,2.8
	l-1.7-0.4l-2.6,2.8l-3.4-1.6l-0.5-1l-3.6,0.1l-1.1-3.7v-3.1l1.4-1.5v-2.3l2-2.1l-2.3-1.6l-0.1-3L252,204l-2.4-2.6l1.4-2.4l-0.1-3
	l0.8-5.3l-2.4-3.4L247.7,186.9z"/>
<path id="D133" class="st0" d="M157.9,144.6l-2.1-2.4l-4.2-2.7l-2.3,1l-2.2-0.4l-3.7-2.3l-4.3-0.8l-0.1-0.8l3.3-0.9l2,1.5l1.6-5
	l1.8,0.9l2.6-2.2l1.9-2.6l1.7-7.6l2.1-2.3l-2.4-2.3l2.8-4.7l0.6-5.2l1.9-4l-1.3-3.7l3,1.3l2.2-0.8l3.8,0.5l2,1l3.3,4.1l2.4-4.3
	l3.8,1.1l4.1-3.5l2.2-3.2l1.9,0.1l3.2-3.2l2.1,0.4l1.3-1.5l2-0.3l0.4,2.9l1.4,1.8l1.1,3v3l-2.3,2.5l2.9,0.6L198,107l0.7,0.9l-0.5,5
	l0.5,1.9l2.4,2.4l0.4,1.9l2.5,3.5l-1.3,1.4l1.5,3.2l3.3,3.8l2.2,7.5l-2.2,0.2l-2.2-1l-3.6-0.1l-1.2,1.5l-1.8-0.1l-2.9,2.3l-1.5-0.3
	l-1.2,2.2l-2.2,0.4l-2.7-1.8l-1.3,2.6l-3.3,0.2l-0.6,1.6l-4.3-3.6l-4.5-1l-0.7-2.4L172,139l-1.1,3l-1.4-0.4l-0.7-2.3l-2.9-0.9
	l-6.3,7.1L157.9,144.6z"/>
<path id="D151" class="st0" d="M330.5,181.4l2.8,1.1l3.5-3.3l5.2-1.3l2.3,2.1l-0.7,2l0.5,2.1l1.8-1.2l2-0.1l-0.7,3.9l3.9,2.4
	l1.9,2.2l1.4,4.1l1.9,1l2.8,0.1l2-2.2l2.2-4.9l-1.2-1.8l2.6-3.8l1.5,1.2l3.5-0.5l4.3,5l3.6,2.9l2.8-0.3l0.5,3l1.7,2.1l1.3-0.1
	l2.3,2.4l-2.4,4.5l-0.1,2.6l2.9,0.8l2.6,1.5l1.9,4.6l3,5.2l-1.2,2.3l-2.1,0.2l-1.2,2l-1.4-0.1l-2.8-2.1l-1.8,3l-4.4-0.2l-0.5,1.2
	l1,3.8l-1.4,2.7l-2-0.2l-0.6,3.6l-2.4-0.1l-0.4-1.9l-1.8-1.8l-2.9,0.4L365,237l-1-1.7l-3.6-1.1l-0.6,1.5l-4,1.4l-1.2,2.2l1.1,6.9
	l0.1,5.9l0.7,2.5l-0.6,5.2l-1.7,0.3l-2.5-2.6l-2.3,1.1l-1.2-2.3l1.7-1.6l-3.6-4.5l0.3-2.4l-2.6-0.9l0.8,4.2l-1.5,3.3l-1.7,0.9
	l-5.4-4.8l1.1-1.5l-3.5-4.7l2.1-0.1l-0.1-2.4l-2.6-2.1l-0.4-1.5l1.3-2l0.9-4l-2.3-1.6l4.3-2.9l-0.4-3.9l1.9-1.2l0.2-4.4l-2.1-1
	l-0.3-1.6L334,216v-2.9l-1.8,0.1l1-3l-1.8-0.2l-0.6-2l-2.7,1.1l-1-2.5l1.8-6.3l0.6-3.6l3.5-3.7l-1.4-2.9l0.2-3.4L330.5,181.4z"/>
<path id="D173" class="st0" d="M466.6,506.9l1.4-1.5l-1.9-2.3l0.3-2.6l2.7,0.5l0.3-1.8l3.1-1.5l2.5-2.9l5-2.3l3.3-2.4l2.1-0.6
	l-1.1-3l0.5-3.1l-2.3-0.5l0.4-2.4l1.7-0.8l-0.8-3.9l-1-2l2.5-2.4l1.6,0.2l1.6-1.3l0.5-2.6l2.9,3.3l-0.4,1.9l2.9,1.2l0.3,4.4l1.4,1
	l1.7-2.8l3.5,2.7L501,481l1.6,2.9l6-2.1l1.9-3.7l1.1,1.6l2.7,1.5l0.8-2.4l1.7-0.5l2.8,1.6l3.1-0.2l1.2,0.7l1,0.8l3.2-2.4l6.5,3.6
	l1.3,2.8l2.2-1.9l1.4-2.5l5.8,1.8l3,3.5l1.7-2.5l2,0.2v2l2.4,0.1l-0.5,2.9l-1.8,0.9l-2.9-0.7l-1.5,1.9l1.2,2.2l2.4,0.7l-1.5,2.2
	l-6.3,2.3l-0.6,3.5l-2.7,2.9l-3.1-0.6l-1.2,1.8l-2.1,0.1l0.2,4.3l1.4,4.4l-0.6,3l-1.6,1l-1,2.5l-2.6-0.2l-1.1,2.9l-3.8-0.5l-0.2-2.6
	l-1.9-0.8l-0.9-1.9l1.1-1.8l-1.5-1.9l-2.6-0.5l-0.6,1.3l-2.9-0.5l-1.1-1.2l-1.1,4l-6-1.2l-3-2.5l-4.1,1.6l0.2,4.3l-0.5,2.6l-2.2-0.6
	v3.2l-3.3,1.5l-1.8,1.9l-1.7-1.9l-2.2,1.2l0.2,2.8l-3.6,2.7l-1.4-0.9l-1.6-4.6l-2.8-0.3l-2.4-1.4l-3.8-4.8l-2.4-0.6l-1.7-2.9
	l1.3-0.8l1.6-2.9l-0.7-2.6l-2.2-0.1L466.6,506.9z"/>
<path id="D175" class="st0" d="M541.4,574.2l0.1,2.2l1.6,1.2l1,4.2l1.9,3.9l-2.4,2.8l0.6,3.2l-3.3,5.7l-1.8,0.3l-1.3,3.2l-1.2-0.6
	l-3.4,5.1l-2-1.5l-0.5,2.3l-4.3,5.5l1.9,2.7l-7.6-4.4l-3.2,1l-3.1-2.1l-1.9-2.5l-0.3-2.3l1-1.6l-0.7-6.7l-2.3-2.1l-3.5-1.8l-3,1
	l-6-4.6l-0.9,1.6l-1.9-0.6l-0.3-2.2l-2.5-1.1l-2,1.9l-2.2-2.1l3-2.8l-1.2-2.1l-2-1.5l2.2-2.1l-3-1.4l0.5-1.7l-1.7-1.3l-2.6,0.8
	l-1.7-1l0.4-4.4l3.1-0.4l-1.1-5.5l6.9-6.5l4.5-0.5l5.5,1.3l2.2,2.5l2.2-2.4l-1.7-3.4l1.9-3.8l5.9-2.6l1.6-3.8l-3.4-4.6l-3,3.3
	l-2.7,1.2l-3-0.8l-2.9-3.7l-2.6,0.4l-2-0.7l-1.1-2.2l-0.4-4.8l-2.8-1.5l-0.2-2.8l2.2-1.2l1.7,1.9l1.8-1.9l3.3-1.5v-3.2l2.2,0.6
	l0.5-2.6l-0.2-4.3l4.1-1.6l3,2.5l6,1.2l1.1-4l1.1,1.2l2.9,0.5l0.6-1.3l2.6,0.5l1.5,1.9l-1.1,1.8l0.9,1.9l1.9,0.8l0.2,2.6l3.8,0.5
	l1.1-2.9l2.6,0.2l-1.2,2.9l-1.6,0.9l2.8,4.6l2.2,2l3.7-0.7l1.8,0.9l2.8,2.9l3.6,1.7l0.7,2.5l-0.8,1.5l-3.3-0.2v1.8l1.9,0.2l-0.1,2.1
	l2,1.2l1.4,3.3l-0.9,1.9l-1.9,0.4l-0.7,3l0.8,3.3l-1.3,3.2l-3.1,1.7l-0.9,2l-2.4-0.2l-2.2,6.4l0.8,2.8l2.7,1.1L541.4,574.2z"/>
<path id="D158" class="st0" d="M466.6,506.9l-3.2-3.6l-4.6-1.5l-1.5-1.8l-0.4-5.6l-1.1-0.9l-6.9-2.1l0.1-1.9l-3.7-2.6l-0.5-2l-2-3.4
	l-1.7-1.7l-3.8-0.5l-2.5,0.3l-1.8,1.2l-2.1-0.1l-3.3,2l-3.2,0.4l-4.1-4.3l-4.2-1.5l-2.5-1.9v-1.8l1-2.2l3.4-3.7l3.1-0.6l0.9-2.7
	l2.5-0.1l3.3-4.3l2.7-4.7l-1.3-2.6l-2-1.3l-1.1-2.2l1.1-2.4l4.4,2.3l3-0.7l0.9,1.3l-0.6,2.6l0.7,1.4l3.8-0.7l0.1-3.4l3-1.6l-1-4.5
	l0.4-0.7l-2.5-3.4l-1.2-3.5l1.5-1.8l-0.3-4.8l2.1,1.2l1.5,2.3l2.6-2.2l2.1-4.2l1.9,0.3l1.3-2.8l1.8-0.7l2-1.3l2.4,0.7l2.7,2.2
	l2.3,0.8l2.7,3.3l0.9-1.3l2.4,0.6l1.2-3.1l0.7,0.8l-1.4,2.8l-1.4,0.6l2.1,6.3l0.3,4.4l1.8,1.4l1,2.8L472,450l0.3,2.5l-1.2,3
	l-1.2-0.3l-1.7,2.5l-0.3,4.4l1.1,2.4l-0.5,4l1.1,1.4l-0.4,2.5l-1.8,2.9l0.7,0.9l-1.6,5l-1.9-0.4l0.3,4.7l3.5,3.4l1.9,2.8l3,0.5
	l1.8,2.4l-2.5,2.9l-3.1,1.5l-0.3,1.8l-2.7-0.5l-0.3,2.6l1.9,2.3L466.6,506.9z"/>
<path id="D136" class="st0" d="M272.7,221.3l1.1-3.4l-0.5-2.3l0.7-3.2l-1.4-1.3l-1.2-3.1l-5.3-6.1l-0.1-2.2l1.2-2.5l2.1,1.5l2.1-1.7
	l3.2-0.7l0.5-3.3l1.8-2l-1.9-2l1.2-1.3l-0.8-2.9l-1.3-1.2l-0.3-2.5l-2.2-0.9l-0.5-2.7l-1.4-0.9l0.2-3.2l1-2.2l-0.8-2.7l3.4-3.6
	l1.2-2.8l-1.2-5l2.8-4.7l0.2-3.5l1.5,0.7l1.7,4.1l1.3-0.1l-0.3-3.3l4.8-0.3l2.2,2.2l1.4-0.2l2,1.5l-0.6,4l0.7,2.3l1.7,0.9l-0.9,2.5
	l1.1,1.2l2.8-1.4l2.7,2.4l3.3,4.5l5.7,1.4l4.2,2.1l-0.5,5l-2,0.9l2,3.6l-0.2,1.9l-2.5,0.6l1,2.1l0.2,3.9l-3,2.6l-3.7,1.5l-1.5,4.1
	l-2.5,3.9l-1.3,0.6l-1.4,7.1l-3.1,1.7l-1.7,2.2l0.3,1.5l-2,3.4l-4.6,2.2l-3.3,2.4l-0.3,1l-3.1,0.7v5l-1.8-3.8l-3.2-3.1L272.7,221.3z
	"/>
<path id="D132" class="st0" d="M157.8,98.1l-0.2-2.5l-3.2-1.5l-4.5,2.5l-1.3-0.7l-2.6,0.8l-3.4-2.7l-1.5,0.6l-2-0.9l-2.7-2.4
	l-1.6,1.7l-4.7-1.6l0.6-1.9l-2.2-3.3l0.4-2.9l2.7-1.9l0.3-2.5l2.1-6l-0.2-3.1l5.7-9.2l1.8-4.9l-0.2-1.5l2.2-1.3l2.7-0.4l3.3-3.1
	l1.5-0.1l1.7-1.8l-0.3-3.7l1-2.4h1.9l2.1-2.1l1.8-4.8l1.9-2.8l1-2.9l3.1-2.6v-2.8l1.8-3.6l-2.3-3.6l5.8-0.6l3.1,2.7l3,4.9l3.2,1.5
	l4.9,3.6l4.3,2.2l4.1,1.5l1,1.7l-2,2.6l-0.7,3.1l-1.9,2.5L188,45l-2.8,4.3l-2.7-0.7l-2.3,5.7l1.3,1.5l-1.7,1.6l-1,2.5l-0.1,3.8
	l-1.8,2.6l1.2,2.3l-1,1.1l-1.3,3.8l2.1,1.6l1,4.7l1.8,2.6l-0.6,7.4l3.2,1.9l1.1,2.7l-2.2,3.2l-4.1,3.5l-3.8-1.1l-2.4,4.3l-3.3-4.1
	l-2-1l-3.8-0.5l-2.2,0.8L157.8,98.1z"/>
<path id="D753" class="st0" d="M222.2,229.5l1.5-3.3h3l2.6-3.6l2.2-0.2l1.7-1.4l-0.9-3.6l1.3-2.2l-0.8-1.2l0.4-2.8l-0.6-3.8
	l-0.9,0.1l-0.9-3.8l1.4-1.3l-0.9-8.8l0.6-4.4l3.1,1.1l1.5-1l1.6,1l3.7-2.4l5.2-1.6l0.6,0.3l1.4,0.1l2.4,3.4l-0.8,5.3l0.1,3l-1.4,2.4
	l2.4,2.6l1.3-0.1l0.1,3l2.3,1.6l-2,2.1v2.3l-1.4,1.5v3.1l1.1,3.7l3.6-0.1l0.5,1l3.4,1.6l2.6-2.8l1.7,0.4l5.7-2.8l0.4-1.6l2.5,1.3
	l-1.1,3.4l-4-0.2l-4.2,3.8l-5,7.4l-1.9-0.9l-2,0.8l-2.1,3.3l-2.6,5.4l0.5,1.4l-1.2,2.3l-0.5,3.7l-2.7,3.3l0.3,5l-1.1,3.5l0.9,2
	l-0.9,1.6l-3.1,2l-3.7-3.2v-1.8l-1.4-1.5l-1.6-1.8l-1.4-2.9l-3-3.1l-2.3-4.6l-0.6-2.5l-3.1-1.4l-1.1-1.4l-3-8.8L222.2,229.5z"/>
<path id="D186" class="st0" d="M594.3,388.1l3.4,1.2l2.2-0.1l3.5-5.2v-3.4l2.4-2.4l3.5-0.9l1.3-2.5l1.5,1l-0.7,3.1l2.5,0.7l2.6-1.6
	l1.1,2.5l0.4,1.6l-2.4,1.2l2.3,2.7l-0.7,6.3l-6.6,2.1L609,400l-0.2,4.9l2.5-0.1l0.1,2.3l-0.9,1.9l-3.5,1.4l1,5.6l2.1,0.3l0.5,2.8
	l-1.5,1.3l0.1,2.3l1.6,0.5l1.4,5.7l3.4,2.7l-0.6,3l-1.7-1.8l-5.8,2.4l-0.1,6.3l-2,1.8l-2.6-3.9l-1.1-3.2l-6.4-3.5l-3.3-3.6l0.7-3.8
	l-1.3-0.5l0.1-3.5l1.7-4.6l2.2-2.4l1.1,0.8l1.5-4.2l-1.3-3.4l-2.5-2.7l-0.4-1.6l-3.5-0.1l0.4-3.6l-4.8-4.1l1.6-2.2l1.9-0.2l-0.7-5
	l1.2-2.1l2.6,2.8L594.3,388.1z"/>
<path id="D198" class="st0" d="M575.4,551.5l1.3,1.7l-2.2,2.7l1,4.5l-0.5,3.3l-1.1-0.2l-0.3,3.5l-2.4-0.5l-0.4,3.7l-1.5-0.8
	l-0.3-2.1l-2.9-0.6L563,568l-5-0.9l-0.7,2.5l-5.3-3.9l-2,1.2l-1.3,3.7l-2.2,0.2l-1.4-4.7l-1.2-1.6L541,565l-1.7,3.8l0.1,1.9l3.5,1.6
	l-1.5,1.9l-2.5,0.2l-2.7-1.1l-0.8-2.8l2.2-6.4l2.4,0.2l0.9-2l3.1-1.7l1.3-3.2l-0.8-3.3l0.7-3l1.9-0.4l0.9-1.9l-1.4-3.3l-2-1.2
	l0.1-2.1l-1.9-0.2v-1.8l3.3,0.2l0.8-1.5l-0.7-2.5l1.8,2.3l2.3-0.4l2.7,1.5l2.4-1.4l0.7,2.6l4.2,2.2l0.7,3.3l2.4,0.5l3.3-1.7l1.7,0.2
	l0.8,3.6l3,1.9L575.4,551.5z"/>
<path id="D152" class="st0" d="M307.2,309.7l-1-8.7l1.4-5.6l1.6-3.3l1.6-0.1l5.2-3.2l0.6-2.6l-0.5-2.4l0.7-3.3l1.6-1.7l-1.5-2.1
	l0.4-2.4l1.5-1.6l0.1-2.2l2.5-4.1l2.6-0.9l2-2.5l1.3,1l2.3-0.3l0.6-4l-1.3-2.9l2-4.6l1.5-2.3l0.2-2.5l1.4-2.8l3.5,4.7l-1.1,1.5
	l5.4,4.8l1.7-0.9l1.5-3.3l-0.8-4.2l2.6,0.9l-0.3,2.4l3.6,4.5l-1.7,1.6l1.2,2.3l2.3-1.1l2.5,2.6l1.7-0.3l0.6-5.2l-0.7-2.5l-0.1-5.9
	l-1.1-6.9l1.2-2.2l4-1.4l0.6-1.5l3.6,1.1l1,1.7l2.8-5.5l2.9-0.4l1.8,1.8l0.4,1.9l2.4,0.1l0.6-3.6l2,0.2l1.4-2.7l-1-3.8l0.5-1.2
	l4.4,0.2l4.6,7.5l0.8,5.5l-2.8,3.9l-2.2,4l0.5,1.7l-1.1,3.2l0.8,2.8l-0.6,3.7l-4.1,0.2l-0.5,1.8l0.3,4.1l0.9,1.3l-1.1,3.3l-1.2-0.3
	l-1.9,2.8l-3.8,3l-2.8,0.6l-0.9,2.8l-1.9,1.8v2.1l-1.5,1.3l-3-0.2v4.4l2.1,3.1l-1.6,1.7l2.1,7.2l-0.3,3.1l-2.5-0.3l-0.8,1.4
	l-4.6,0.3l-0.8,1.3l-2.7,1.3l-2.9,0.3l0.1,2.5l-1.3,2.6l-4.1-0.4l-2.3-2.8l-1.5-3.2l-2.3-0.7l-0.7,5l-2.6,2.1l-0.6,2.1l1,1.9
	l1.2,5.3L336,321l1.5,1l0.4,5.5l-1.3,1.4l-1-1.9l-3.2-0.5l-0.6-8.5l-1.1-0.6l0.8-3.7l-1.8-2.1l-1,1.7l-1.6,0.4l-0.6,2.5l-2.7,0.3
	l-2.9-1.1l-1.5,1l-1.7-0.8l-0.2-2.9l-2.7-1.7l-1.4,1.3l-2.6-1.9L307.2,309.7z"/>
<path id="D754" class="st0" d="M131,134l1-1.6l-0.6-3l-2.1-0.5l-0.2-2.9l1.7-0.8l-1.1-4.1l1.2-2.1l-1.7-1.5l0.4-3.2l-3.1-5.1l2-2.1
	l-1.9-5.1l1.9-5l1.6-1.2l-0.8-2.3l1-2.1L135,93l1.6-1.7l2.7,2.4l2,0.9l1.5-0.6l3.4,2.7l2.6-0.8l1.3,0.7l4.5-2.5l3.2,1.5l0.2,2.5
	l1.3,3.7l-1.9,4l-0.6,5.2l-2.8,4.7l2.4,2.3l-2.1,2.3l-1.7,7.6l-1.9,2.6l-2.6,2.2l-1.8-0.9l-1.6,5l-2-1.5l-3.3,0.9l-3.9,0.2l-2-1.7
	L131,134z"/>
<path id="D181" class="st0" d="M536.4,289.5l-0.6,3.9l-2.6,1.5l-1.9,2.8l-1.2,7l-2.8,3.4l-1.3,4.6l-2.7,1.5l-1.6,3.3l0.9,1.4l2,7.7
	l-0.4,5.1l2.4,2.9l-0.8,1.7l-3.1-1.2l-2.7,0.7l-1.9-3L516,333l-1.7,1.7l0.1,2.7l-2,3l0.9,3.8l-2.1,1.3l-0.7-1.5l-3,0.8l-0.6,3.6
	l-2,2.6l-1.3-0.9l-0.2-2.2l-2.8-1.8l-1.9-2.1l-1.1,0.5l-1.7-1.6l1.2-2l2.6-1.4l-1.9-1.5l-2.6,0.2l0.5-2.5l-0.2-3.3l0.8-2.4l-1.4-1.3
	l0.3-1.9l-4-2.9l-2.1-3.2l-2.8-1.1l-2.1-1.8l0.4-2.7l-3-3.4l-1.2-2.1l-1.4,0.6l-2.6-3.1l1.4-3.3l4-1.7l2.6,2.5l-1.1,0.8l1.3,3.8
	l0.9,0.4l2-3l-2.7-3.3l-0.2-2.3l3-2.6l-1.7-2.3l-3.2-2.3l-0.6-4l-2.8-4.5l-0.2-6l2.8-0.9l2.8,0.6h4.9l2.9-5.3l3.6,0.4l6.1,6.8
	l2.7,2.1l2.5,0.9l5.5,4.7l1.9-0.6l-0.1-1.7l3.4-5.7l8.2,0.7l1.6,3l2.6,3.2l2.5-0.1L536.4,289.5z"/>
<path id="D184" class="st0" d="M610.6,374.7l-1.3,2.5l-3.5,0.9l-2.4,2.4v3.4l-3.5,5.2l-2.2,0.1l-3.4-1.2l-1.9-1.9l0.6-2.1l-0.7-3.3
	l-2.1,0.3v1.9l-1.8,0.8l-2.2,3l-1.6-3.4l-2.4-1.7l-2.9,0.3l-1.6-1.8l0.2-1.9l-1.8-0.6l-1.5,1.2l-3.5-0.5l-1.9,0.8l-3.6-1.8l0.2-1.9
	l-1.3-2l0.9-1.1l-1.6-4.4l-2.2-1l-2-4.1l-3.4,0.4L555,361l3.5-3.3l2.1,1.3l3.6,1l1.1-0.7l-1.3-3.2l-3.2,0.2l-0.7-2.2l0.6-4.5
	l-1.3-1.3l-1.2-3.1l1-1.9l-0.1-2.2l4-1.4l1.1-2.9l3.4-2.4l2.5,1.7l3.1-0.1l3.3-1.7l0.4,1.6l3.6-2.6l-3.1-4.2l2.1-3.1l5.3,0.9
	l2.7-0.5l2.8,0.3l4.8-0.3l2,3.5l6.4,2L614,331l1.9,0.4l1.8,3.2l5,4.4l-0.5,1.9l2.1,3.2l-1.1-0.3l-3.7,3.8l0.9,1.1l-3.4,2.8l0.5,2
	l-1.8,2l-2.3,0.4l0.6,2.2v4.7l-2.3-1.1l-1.9,1.9l1.7,3.2l-1.2,3.8l0.8,1.4L610.6,374.7z"/>
<path id="D154" class="st0" d="M433.8,362.6l-2,1l-0.9,2.4l-3,0.7l-2.3,2.1l-1.5-1.2l0.9-2.5l-0.3-3.2l-2.1-4.3l-1.6,0.6l-3.3-3.8
	l-2.3,1.8l-3.3-0.9l-1.3-4.1l-3-0.2l-3.1-2.7l-0.5,2.4l-3.4,0.3l-0.8-3.9l-0.9-0.8l-1.1-3.6l-1.2-0.1l-1.6-6.1l-2.3-1.7l-2.2-5.9
	l-3-1.1l-0.7-2.9l-1-0.6l-0.6-4l-1.5-2.9l-0.1-5.4l0.5-5l2.2-2.2l3.6-1.5l3-3.4l2.3-0.4l1.7-2.9l1.4,0.3l2.4-3.8l1.7,1.3l2.1,5.1
	l3.2-0.1l2.6-9.2l3.3,1.7l0.9-0.4l2.8,1.9l3.1,0.3l2.1-1.5l3,2.8l1.5-3.4l3.4-2.2l4-1.2l1.8-5l1.8,1.7l2,0.5l-1.8,4.2l0.5,1.7
	l5.8,1.2l2.2-0.1l1.3,2.8l2.7-2l0.2,2.1l2.9,0.3l2.7,2l-2.4,3.7l6.5,2.4l-0.4,3.9l3.3-0.8l1,1.2l0.3,3.4l-1.1,3.7l1.2,0.9l0.4,4.6
	l-0.5,1.3l0.2,4l1,1.1v2.8l1.6,2.6l-0.2,1.5l1.8,1.7l0.4,1.7l3.2,3.8l-0.4,2.5l-1.6,1.2l-1.2,5.9l-2.8,1.4l-1.7-1.8l-0.9-3.3
	l0.2-2.5l-1.2-1l-3.4,2l-2.2-0.3l1.4,4l-2.8,3l-2.1,1l-1.1-2.4l-1.8,1l-2.4-1.6l-2.1,0.9l-1.2,4l-5.8,0.1l-2.8-1.4l-0.4,2l-3.1,3.3
	L433.8,362.6z"/>
<path id="D200" class="st0" d="M562.1,628.4l1.9-2l-1-4.4l1.5-0.6l-0.7-7.1l2-0.8l0.9-1.6l2.5,2l1.1,2.5l2.6,0.4l5.3-3.6l2.2-0.3
	l5.8-3.6l1.1,1.3l5.4,0.9l2-0.9l1.9,0.6l3.7-7.1l1,0.4l0.2,8.3l2.5,0.5l0.9,2l2.5-1.8l1.5-0.1l-1.4,1.9l1,3.3l2.4,1l1.9,2.9l2.5,1.8
	l3.3-1.8l1.5,0.7l3.4-0.4l0.9,1.2l2.5-5.5l3.6-0.4l1.5-1l2,1l3.4,4.5l2.1-0.5l0.8,3.4l1.9,2.9l-1.3,2.9l1.5,0.9l1.5,2.9l-1.4,1.3
	l0.6,1.9l-0.6,3.8l-1.5,2.4l-5.8,1.5l-2.7,1.2l-0.9,4.9l1.5,2l-0.1,2.7l2.5,0.9l1.1,3.3l-0.7,2.7l-2.5,1.1l-2.2,2.6l1.6,2.1l0.5,2.9
	l-2,3.7l0.1,3.2l-3.2,9.7l-3.7,3.6l-1.3,3.4l-0.1,2.4L618,702l-0.4,3.1l-1.7,4.2l-3.6,1.2l-1.4,2.1l-5.3,1.6l-2-0.8l-4.2,0.4
	l-2.4,0.7l-5.8-4l-2.6-3.9l-4-3.2l0.2-2.6l-4.5-1.3l-0.5-1.9l1.3-1.3l-0.1-3.2l-3.7-0.8l-0.6-1.7l-3.5-4l1.1-2.5l1.4,1.5l2.6,0.6
	l1.3-3.1l-0.7-5.9l1.8-1.4l0.1-3.4l1.1-2.6l-0.3-2.8l0.1-5.8l-3.4,0.2l-0.9-1.5l1.5-4.4l-0.2-5.4l1-2.5l-1.7-1.4v-4.7l2.4,1.7
	l4.4-1.2l-0.4-5l-2.3,0.2l-0.2-4.7l-5.9-0.7l0.3-2.9l-2.4-2.6l-6.2,2.8l-1.1,1.1l-3.6,1.2L562.1,628.4z"/>
<path id="D179" class="st0" d="M574.3,459.4l-0.5,2.6l1.2,2.1l-0.6,6.5l-0.8-1.1l-3.6-1l-2.1-2.6l-2.7,5.8l-2.5-0.5l-4.7,1.6
	l-2.4-0.4l-0.9,3.4l2.4,3v3.2l3.1,0.5l0.4,2.6l-0.5,2.7l-1.5-1.1l-4.2-0.9l-2.4-0.1v-2l-2-0.2l-1.7,2.5l-3-3.5l-5.8-1.8l-1.4,2.5
	l-2.2,1.9l-1.3-2.8l-6.5-3.6l-3.2,2.4l-1-0.8l1.7-3.2l-1.5-0.8l-0.7-2.2l0.9-1.6l-0.5-2l-1.9-0.8l-0.3-1.6l-2-0.7l-1.9-1.8l-0.4-2
	l-1.8,0.4l-3.1-2.6l-0.2-1.9l-4.2-2.7l-1.1-3.9l0.2-1.9l2.1-2.6l1-3.1l1.6,0.9l2.5-0.7l1-3l-0.7-1.4l0.5-2.8l-3.1,0.4l0.8-3.7
	l-0.4-2.5l5.1-0.4l1.4,1.8l2.9,0.5l4.4,2.1l2.1-0.1l4.4,5.1l1.9,0.4l0.6,1.5l2-0.2l2.3,1.7l2.5,0.3l1.8-1.5l2.9,2.2l4,0.7l1.1,1.9
	l0.2,3.3l1.4,0.8l4,3.9l1.9,0.3l1.8-1.1l1.2,1.3l1.8-0.5l2.3,2.9l1.8-0.4l2.8,1.6L574.3,459.4z"/>
<path id="D156" class="st0" d="M439.6,429.3l0.3,4.8l-1.5,1.8l1.2,3.5l2.5,3.4l-0.4,0.7l1,4.5l-3,1.6l-0.1,3.4l-3.8,0.7l-0.7-1.4
	l0.6-2.6l-0.9-1.3l-3,0.7l-4.4-2.3l-1.1,2.4l1.1,2.2l2,1.3l1.3,2.6L428,460l-3.3,4.3l-2.5,0.1l-0.9,2.7l-3.1,0.6l-3.4,3.7l-1,2.2
	l-1.4-2.5l-3.5-0.7l-0.8-2.2l0.5-3.8l-0.7-1.8l-2.8-0.2l-1-6.6l-1.4-3.6l-0.3-3.8l-8.9-7.1l-1.5-1.9l0.1-1.6l-4.6-3.1l-3.1-4.3
	l-1.1-2.4l0.6-6.2l-3.6-6.8l-2.1-1.9l-3.7,0.1l-4.3-6l-1.1-3.5l0.1-2.2l-1.3-4.5l0.1-3.6l-3.2-5.1h-1.3l0.5-1.6l3.4-4.9l4.9-0.6
	l1,2.8l2.5-1.2h1.9l1.8-6l4.2,0.2l-0.7,2.6l2.6,1.2l0.9,4.4l1.8,2.7l1.9-0.8l2.5,4.6l1.1-2.6l-0.2-3.2l1.6-0.7l-0.1-2l1.3-1.1
	l3.1-0.9l2.2-2.4l2.5-0.4l3.2,2.9l-0.1,2.3l-2.2,0.8l-0.8,2l1.7,1.2l2.1-2.1l1.6,6l4.3,3l4.6,9.1l-0.5,2.3l-2.3,0.8l-0.1,3.2
	l1.4,1.9l-1.5,1.2l2.4,3.5l2.2-3.2l2,2.1l1,2.2l3.9-1.8l3.2,3.4l0.7,3.6l2.9,1.4l0.7,1.8l2.3,1.1L439.6,429.3z"/>
<path id="D197" class="st0" d="M602.8,567.9l-2.6,4.1l-5.3-0.6l-1.4-0.6l-3.8,1.4l-1.2,3.3l-1.5,0.1l-1-1.9l-2.6,0.7l-0.1-3.3
	l1.9-1.9l-0.9-3l-3.8,1.4l-3.7-2.1l-2.3,0.2l-0.8,1.3l0.3-3.5l1.1,0.2l0.5-3.3l-1-4.5l2.2-2.7l-1.3-1.7l-0.4-3.8l2.4-0.3l-1-2.6
	l1.6-5.1l-0.9-2.8l2.3-1.7l3,1.9l1.7-2.5l2.2,0.2l0.8-1.6l7.3-0.5l2.9,4.7l1.4-2.9l3.8-1.8l1,3l2.5-0.9l-0.6,2.4l1.8,3.7l2.5-2.9
	l1.1,1.4l3.8-0.2l-0.8,2.5l-2.1,1.9l-1,2.7l4.8,2.7l0.3,1.5l-1.5,5.7l-1.5,2.7l-1.6,1l-3.8-1.4l-4,1.3l-1.9,1.5l2.6,2.3l1,4
	L602.8,567.9z"/>
<text transform="matrix(1 0 0 1 186.0088 381.3535)" class="textName">Agra</text>
<text transform="matrix(1 0 0 1 182.4258 278.8208)" class="textName">Aligarh</text>
<text transform="matrix(0.1378 -0.9905 0.9905 0.1378 490.4922 663.7886)" class="textName">Prayagraj</text>
<text transform="matrix(1 0 0 1 548.043 442.8584)" class="textName">Ambed.</text>
<text transform="matrix(0.6455 -0.7638 0.7638 0.6455 478.8497 473.5665)" class="textName">Amethi</text>
<text transform="matrix(1 0 0 1 213.2705 179.4199)" class="textName">Amro.</text>
<text transform="matrix(0.5409 -0.8411 0.8411 0.5409 307.6117 436.3441)" class="textName">Auraiya</text>
<text transform="matrix(1 0 0 1 566.9443 481.2891)" class="textName">Azamgarh</text>
<text transform="matrix(1 0 0 1 60.2432 162.5039)" class="textName">Baghpat</text>
<text transform="matrix(0.9211 -0.3892 0.3892 0.9211 482.288 248.4052)" class="textName">Bahraich</text>
<text transform="matrix(1 0 0 1 731.1133 500.1484)" class="textName">Ballia</text>
<text transform="matrix(0.9082 -0.4186 0.4186 0.9082 562.0778 294.3334)" class="textName">Balrampur</text>
<text transform="matrix(1 0 0 1 385.8877 544.8633)" class="textName">Banda</text>
<text transform="matrix(0.5711 0.8209 -0.8209 0.5711 446.1302 362.7006)" class="textName">Barabanki</text>
<text transform="matrix(1 0 0 1 286.2998 236.1948)" class="textName">Bareilly</text>
<text transform="matrix(1 0 0 1 548.5742 403.4082)" class="textName">Basti</text>
<text transform="matrix(1 0 0 1 216.0571 125.4268)" class="textName">Bijnor</text>
<text transform="matrix(1 0 0 1 262.2686 270.3633)" class="textName">Budaun</text>
<text transform="matrix(1 0 0 1 176.2749 236.1953)" class="textName">Buland.</text>
<text transform="matrix(1 0 0 1 639.6582 600.79)" class="textName">Chandauli</text>
<text transform="matrix(0.141 -0.99 0.99 0.141 433.6641 687.1269)" class="textName">Chitrakoot</text>
<text transform="matrix(1 0 0 1 704.9082 459.8379)" class="textName">Deoria</text>
<text transform="matrix(1 0 0 1 236.4883 324.5459)" class="textName">Etah</text>
<text transform="matrix(1 0 0 1 270.5679 404.7373)" class="textName">Etaw.</text>
<text id="Ayodhya" transform="matrix(1 0 0 1 497.2988 423.8965)" class="textName">Ayodhya</text>
<text transform="matrix(1 0 0 1 301.5312 337.2275)" class="textName">Farruk.</text>
<text transform="matrix(0.9003 0.4352 -0.4352 0.9003 393.9502 487.6858)" class="textName">Fatehpur</text>
<text transform="matrix(0.835 0.5502 -0.5502 0.835 207.9431 351.3825)" class="textName">Firozabad</text>
<text transform="matrix(1 0 0 1 28.7632 253.4668)" class="textName">G.Buddha Nagar</text>
<text transform="matrix(1 0 0 1 50.8701 206.2261)" class="textName">Ghaziabad</text>
<text transform="matrix(1 0 0 1 674.7627 563.7637)" class="textName">Ghazipur</text>
<text transform="matrix(1 0 0 1 498.7578 377.1514)" class="textName">Gonda</text>
<text transform="matrix(0.1679 -0.9858 0.9858 0.1679 630.1498 439.5461)" class="textName">Gorakh.</text>
<text transform="matrix(1 0 0 1 319.6191 520.0215)" class="textName">Hamirpur</text>
<text transform="matrix(0.9593 -0.2824 0.2824 0.9593 171.676 204.8247)" class="textName">Hapur</text>
<text transform="matrix(1 0 0 1 347.4795 351.0562)" class="textName">Hardoi</text>
<text transform="matrix(0.9066 -0.422 0.422 0.9066 195.808 329.4009)" class="textName">Hathras</text>
<text transform="matrix(1 0 0 1 291.7993 482.7139)" class="textName">Jalaun</text>
<text transform="matrix(1 0 0 1 541.0381 524.0254)" class="textName">Jaunpur</text>
<text transform="matrix(1 0 0 1 266.5898 528.7441)" class="textName">Jhansi</text>
<text transform="matrix(1 0 0 1 317.2588 382.332)" class="textName">Kann.</text>
<text transform="matrix(-8.784982e-03 -1 1 -8.784982e-03 351.1388 462.9156)" class="textName">K.Dehat</text>
<text transform="matrix(0.1998 -0.9798 0.9798 0.1998 377.2273 478.3904)" class="textName">K.Nagar</text>
<text transform="matrix(0.8351 0.5501 -0.5501 0.8351 246.173 286.1106)" class="textName">Kasganj</text>
<text transform="matrix(1 0 0 1 460.9922 550.6162)" class="textName">Kaush.</text>
<text transform="matrix(1 0 0 1 699.3438 389.2939)" class="textName">Kushinagar</text>
<text transform="matrix(0.8883 -0.4592 0.4592 0.8883 438.3957 206.2262)" class="textName">Lakhimpur Kheri</text>
<text transform="matrix(1 0 0 1 223.3262 648.9131)" class="textName">Lalitpur</text>
<text transform="matrix(0.6001 0.7999 -0.7999 0.6001 410.8813 380.4437)" class="textName">Lucknow</text>
<text transform="matrix(0.9181 -0.3964 0.3964 0.9181 674.7614 332.1138)" class="textName">Maharajganj</text>
<text transform="matrix(1 0 0 1 310.6597 555.3389)" class="textName">Mahoba</text>
<text transform="matrix(0.8271 0.5621 -0.5621 0.8271 264.8148 348.6465)" class="textName">Mainpuri</text>
<text transform="matrix(1 0 0 1 74.4941 317.9805)" class="textName">Mathura</text>
<text transform="matrix(1 0 0 1 622.7344 491.8066)" class="textName">Mau</text>
<text transform="matrix(1 0 0 1 159.1045 165.7598)" class="textName">Meerut</text>
<text transform="matrix(1 0 0 1 548.5742 600.791)" class="textName">Mirzapur</text>
<text transform="matrix(0.9073 -0.4204 0.4204 0.9073 282.6408 137.67)" class="textName">Moradabad</text>
<text transform="matrix(0.8307 -0.5567 0.5567 0.8307 204.499 84.383)" class="textName">Muzaffarnagar</text>
<text transform="matrix(1 0 0 1 338.6597 214.2002)" class="textName">Pilibhit</text>
<text transform="matrix(0.9203 -0.3912 0.3912 0.9203 478.8489 519.8805)" class="textName">Pratapgarh</text>
<text transform="matrix(1 0 0 1 425.6611 473.5654)" class="textName">Rae B.</text>
<text transform="matrix(0.8659 -0.5002 0.5002 0.8659 310.6586 160.6574)" class="textName">Rampur</text>
<text transform="matrix(1 0 0 1 50.8696 55.4028)" class="textName">Saharanpur</text>
<text transform="matrix(9.511873e-02 -0.9955 0.9955 9.511873e-02 241.3227 248.4058)" class="textName">Sambhal</text>
<text transform="matrix(0.1966 -0.9805 0.9805 0.1966 602.0983 428.2035)" class="textName">Sant K.</text>
<text transform="matrix(1 0 0 1 548.042 561.6699)" class="textName">Bha.</text>
<text transform="matrix(0.7498 -0.6617 0.6617 0.7498 319.0832 306.9884)" class="textName">Shahjahanpur</text>
<text transform="matrix(1 0 0 1 64.6528 114.0708)" class="textName">Shamli</text>
<text transform="matrix(0.9316 -0.3635 0.3635 0.9316 524.6694 270.3615)" class="textName">Shravasti</text>
<text transform="matrix(0.9093 -0.4162 0.4162 0.9093 610.7704 317.9817)" class="textName">Siddharth Nagar</text>
<text transform="matrix(1 0 0 1 400.0049 325.9463)" class="textName">Sitapur</text>
<text transform="matrix(1 0 0 1 648.8984 676.3701)" class="textName">Sonbhadra</text>
<text transform="matrix(0.9243 0.3817 -0.3817 0.9243 514.7781 455.8077)" class="textName">Sultan.</text>
<text transform="matrix(0.5946 0.804 -0.804 0.5946 386.9651 405.0735)" class="textName">Unnao</text>
<text transform="matrix(1 0 0 1 581.2412 555.3389)" class="textName">Vara.</text>
</svg>
