<?xml version="1.0" encoding="utf-8"?>
<!-- Generator: Adobe Illustrator 26.0.0, SVG Export Plug-In . SVG Version: 6.00 Build 0)  -->
<svg version="1.1" id="Layer_1" xmlns="http://www.w3.org/2000/svg" xmlns:xlink="http://www.w3.org/1999/xlink" x="0px" y="0px"
	 viewBox="0 0 800 730" style="enable-background:new 0 0 800 730;" xml:space="preserve">
<style type="text/css">
	.st0{stroke:#000000;stroke-miterlimit:10; cursor:pointer;}
	.textName{font-family:'Arial'; font-weight:bold; color:#000000; font-size:14px; cursor:pointer;}
</style>
<path id="D268" class="st0" d="M195.8,423.1l-1.3,3.1l0.3,1.7l-0.7-0.6l-2.2,0l-1.5,2.4l-3.6,2.6l1,0.9l-0.1,1.2l-0.7-0.3l-5.2,2.6
	l-2.9,0.8l-4.8,2.6l-1.5-0.4l-2.9,0.5l-2.8,1.6l-3.8,2.9l-0.7,1.7l1.9,6l6,13.8l-0.4,1.8l-1.2,0.6l0.5-1l0-1.5l-2.2,0.8l-1.6,1.6
	l-1.2-0.1l0.6,1.3l-3.7,1.3l0.1,1.9l-1.8,2.6l-2.1,0.3l-1.2-0.3l-0.3,1.6l-3,0.1l-1.6-0.8l-1.7,1.4l-1.5-0.4l-1.6,1.7l-1.3,0.6
	l-0.3,1.7l-1.6-0.1l-0.8,1.4l-0.3,1.8l-1.7,0.3l0.3,1.7l-0.9,0.5l-0.2,2.7l-1.2,0.5l-1,2l0.9,0.5l-0.5,1.6l-4.2,1.3l-1.3-0.1
	l-0.9,1.6l-0.1,2l-1.1-1.3l-1.7,0.9l-1.8,1.6l-0.4-0.7l-1.7-0.7l-0.4,1l0,2.3l-1.3,0.7l-4-1.2l0.2,0.4l-0.2,1.2l-1.6,0.6l0.3,1.3
	l-1.8,4l-1.4,0.2l-2.2-0.4l0.3,1.6l-2.7,2l-1.2-0.8l-0.7,2.9l0.5,2.1l1.4,1l-0.4,1.6l-1.1,1.7l-0.6,1.6l-0.3,1.6l4.1,0.8
	c0,0,1.7,0.2,3.5,0.7c0.9,0.2,1.9,0.5,2.8,0.7c0.9,0.3,1.6,0.6,2,0.9c1.7,1.4,4.3,2.5,4.8,2.9c0.3,0.2,1,0.7,2,1.3
	c0.9,0.7,2,1.5,3,2.6c1,1,2.8,2.1,4.4,2.8c1.6,0.8,3,1.3,3,1.3l6.6-1.1c0,0,2-3.5,2.8-4.1s3-2.5,3-2.5l2.5-1.4l4.7-2.8h4.4l6.6-1.8
	c0.8,2,1.8,4.6,1.9,5c0.1,0.3-0.5,1.3-1.1,2.2c-0.6,1-1.3,2-1.4,2.2c-0.1,0.3-0.3,0.9-0.3,1.3c0,0.2,0,0.5,0.1,0.6
	c0.1,0.2,0.3,0.2,0.5,0.2c0.5,0,2-1.1,3.3-2.1c1.4-1,2.6-1.9,2.8-1.6c0.2,0.3,0.5,1.2,0.9,2.3s1,2.3,1.6,3.1
	c0.7,0.8,1.5,1.3,2.1,1.4c0.3,0.1,0.6,0.1,0.7,0c0.2-0.1,0.2-0.2,0.2-0.4c-0.1-0.4-0.1-1.4-0.3-2.5c-0.1-1.1-0.3-2.3-0.7-3
	c-0.1-0.1-0.1-0.2-0.2-0.3c-0.2-0.9-0.8-3.2-0.8-3.9c0-0.4,0.5-1,1-1.6c0.5-0.5,1-1,1-1s0.6-3.6,0.6-4.1c0-0.5,0.2-2.2,0.2-2.2
	l1.2,1.6c0.3,0.9,1.5,4.6,1.9,5c0.4,0.5,3.5,2.7,3.5,2.7s1,0.8,2.2,1.8c1.1,1,2.4,2.2,2.8,3c0.4,0.8,1.3,1.6,2.1,2.2
	c0.8,0.6,1.4,1,1.4,1s3.3-2.3,4.1-2.4c0.8-0.1,5.9-1.6,7.2-1.9c1.3-0.3,7.5-1.7,8.3-1.7c0.8,0,8.4,0.5,8.4,0.5s0.9,0.9,1.8,2
	c0.9,1.1,1.9,2.3,2.1,2.9c0.3,1.2,0.4,3.5,0.4,3.5l2.4,2.2l2.3,3l2.1-3.5l5.3-5.5l5.9-6.2l9.6-11.2l11.5-8.1l2.2-4.7l3.1-4l4.4-5.6
	l5-4.7l2.2-2.5l1.9-3.7V483v-2.5l1.9-4l0.6-3.1v-2.5l-5.3-3.4l-1.9-2.2h-3.4h-2.8l-2.5-0.9l-1.6-2.2l5-3.7l2.2-3.7l-3.4-3.1
	l-6.3-5.4l-0.4,0.2l-4.4,1.6l-3.1,0.1l-2.1,3.7l-4.1,0.6l-3.1,0.8l-0.8,2.3l-4.6,4.1l-1.2,2.8l-2-0.4l-0.7,2.4l-1.2,2.4l-2.2,2.5
	l-3.5-1.9l-1.9-1.7l-6.5-2.9l-3.6,0.1l-3.7,2.4l-3.2,3.5l-1.1,5.6l-1,2.4l-2.8,1.9l-1.5,1.9l-4.5,0.8l-1.7-0.6l-0.2-1.8l-0.7-2
	l-0.5-0.7l-1.1-3l-0.7-0.9l-0.6-2.5l-0.5-0.6l1.5-1.4l-0.3-0.6l0.2-1l-0.8-2.1l1.5-1.5l0.2-1.4l2.3-1.1l-0.5-1.6l-0.9-0.7l-0.3-1.2
	l1.5-4.3l0.2-1.9l1.3-1.2l0.2-1.2l0.9-2l0.1-1.3l-0.8-3.3l-1.6-1.7l0.5-1.4l-0.2-1.9l-1.8-0.8l1.8-1.5l-0.7-1.3l-0.3-1.6l-0.5-0.7
	l-1.1-0.5l1-0.6l0.1-1.4l-1.1-0.6l-0.5-1.6l-1.9-0.9l-0.6-1L195.8,423.1z"/>
<path id="D264" class="st0" d="M607.6,438.2c-0.2-0.9-0.2-1.7-0.3-2.6c-0.1-0.9-0.4-1.7-1-2.6c0-0.8-0.4-1.5-1-2
	c-0.6-0.6-1.3-1.1-1.9-1.7l-2.5-1.7c-0.2-1-0.7-1.9-1.2-2.8s-1.1-1.8-1.6-2.8l-2.8-1.3l-2.9-1.7l-3.1-1.4l-4.6,0.8l-4.5,0.3
	l-3.1-4.8l2.5-4l5.4,0.8l1-2.7l-1.3-0.4l-1.5-1.5l-3.6-2.1l-2.3-1.4l-3.1-0.6l-3.1,0l-3.5,1.8l-3.3-1.8l-2.8-0.4l-3.7,1.1l-3.6,2.7
	l-1.4,0.3l-3.4-0.2l-2.1,0.6l-3.8-0.8l-3.4-2.8l-2,2.4l-1.2,0.8l-0.5,1.7l-1.2,1.2l-11.6,17.6l-4.8,5l-1,2.7l-3,2.9l-2.2,3.2l-5.4,5
	l-2.2,2.8l-0.2,1.3l1.3,2l4.2,1.6l2.1,1.8l3.4,5.1l1.5,3.9l1.8,2.8l0.4,3.2l-0.4,1.1l-2.8,2.9l2.7,4.1l0.7,0.5l3.4-0.9l3.4,1.7
	l6.1-0.7l4,1.4l2.9,1.7l6.6,2.8l6.1,4.6l0.8,1l3.5,6.2l2.1,4.6l1.8,2.8l-0.3,3.2l0.2,1.9l0.5,3.8l-0.6,0.7l2,1.6l1.7-0.5l-0.3-1.3
	l-1.1-0.5l0.5-0.6l-0.4-1.1l-1.2-0.9l0.1-2.3l1.7-0.5l-0.6-2.4l1.8-0.5l-0.3-1.7l2.2-0.4l0.7-1.8l1.7-1.3l0.1-1.9l0.5-1.2l3.2-1.3
	l0.6-1.9l0.7-0.4l1-0.2l5.5,0.3l6.5,1.1l7,3.3l10.4,5.9l1.4,2.5l7.9,8.3l1.3,2.9l-0.9,12l-2.4,8.9l-0.9,4.7l-0.2,6.3l1.5,5.7
	l0.4,3.1l0.3,0.5l2.4,0l3.7,1.2l1.3,3l2.7,4l2.1,0.7l0.1,0l2.6-1.9l3-1.2l0.5-0.1l2.6-0.7l2.2-1.7l0.9-1.3l0.5-1.4l0.5-3.7l1.2-3
	l0.4-3.2l1.2-2.3l0.8-2.1l0.3-0.8l0.6-2.7l0.4-1.3l1-1.7l2-2.4l4.2-3.1l7.5-5.1l0.3-0.2l0.9-0.8l1.4-0.9l1.4-0.9l2.1-1.8l1.6-2
	l2.1-2.9l0-0.2l0.2-1.7l1.2-2.3l2.7-2.3l3.6,0l3.2-0.8l2.5-0.3l2.7-2.4l0.7-1l0.8-1.2l3.1-3.6l-2.6-6.1l-0.1-1.6l0.8-1.9l1.5-4.4
	l0.1-2.3l-0.9-1.9l-2.1-1.1l-1.4-1.5l-1.1-1.2l-0.6-1.4l-0.4-1l-0.1-0.4l0-0.6l-0.2-1.9l-0.2-2.5L680,469l-1.2-1.1l-1-0.8l-1.2-2.7
	l-1.1-1.3l-1.2-2.3l-1.1-1.6l0.1-3.3l-1,0l-3.4,0.4l-2.2,0.6l-2.3,1.6l-2.2,0.2l-1.9,0l-1.9-1.9l-1.2-2.6l-0.1-2.2l-1.9-2.3
	l-2.9,0.1l-2.7-0.2l-1.7-1.5l-2.7-1.8l-2.5-4.7l0.3-2.3l1.1-1.4l0-1.7l-1.3-1.4l-1.1-0.6l-1.8-2.6l-1.4,0l-1.5,0.9l-2.9,1.5
	l-3.3-0.3l-1.9-0.2l-4.2,0.2l-3.2-0.8l-0.7,0l-2,0.3l-2,1.1l-1.8,0.9l-2.6,0.8l-1.8,1.6l-1.6,1.1L607.6,438.2z"/>
<path id="D269" class="st0" d="M367.4,398.8l-1.3,2l-1.2,1.2l0.4,1.7l-1.7,2.8l-2.3,1.4l-1.7,2.7l-1.9,2.5l-1.5-0.3l-1.4,0.2
	l-4.3,2.9l-1,1.4l-1.5,1l-1.5,0l-2.7-1.2l-8.3-4.8l-4.1,0.3l-3.7,1.1l-3.5,0.2l-2.1,0.9l-1.4,1.1l-3.6,6l-1.5,0.7l-2.1,0.3l-3.8,3.4
	l-1.5-0.3l-1.8,1.8l-3.1,1.8l-2.2,1.8l-3.8,0.7l-7.8,0.9l-3.1,1.4l-1.3,1.4l-2-0.6l-1.3,0.6l-0.6-0.4l-1.3-0.1l0.1,0.7l2.7,0.8
	l-1.2,1.9l-2.8,0l-2.2-0.3l-1.3,2.5l-2.8,0.8l-1.1,2.3l-3.2,2.1l6.3,5.4l3.4,3.1l-2.2,3.7l-5,3.7l1.6,2.2l2.5,0.9h2.8h3.4l1.9,2.2
	l5.3,3.4v2.5l-0.6,3.1l-1.9,4v2.5v3.7l-1.9,3.7l-2.2,2.5l-5,4.7l-4.4,5.6l-3.1,4l-2.2,4.7l-11.5,8.1l-9.6,11.2l-5.9,6.2l-5.3,5.5
	l-2.1,3.5c0,0-0.2,1.2-0.3,2.6c-0.1,1.4-0.2,3,0.1,3.8c0.2,0.8,0.3,2.6,0.3,4.3c0,1.6-0.2,3.1-0.3,3.3c-0.2,0.4-1.6,2.5-1.6,2.5
	s0.4-0.1,1,0.1c0,0,0.1,0.1,0.1,0.1l4.7,0.9c0.9,0.2,2.1,1,3.1,2c0.5,0.5,0.9,1.1,1.2,1.8c0.3,0.7,0.5,1.4,0.5,2.1
	c0.6,0.9,1.3,1.4,2,1.7c0.7,0.3,1.5,0.4,2.3,0.7l-0.8,3.5l1.8,0.5l2.3,0l2.4,0.3l0.9,1l4.1-0.5l5.1,0.8l0.6,0.3v0l4.7,2.3l3,0.1
	l2.9-1.8l2-1.9l1-2l7.7-1l2.6,1.5l1.1-0.6l0.5-0.6l0.3-1l-0.2-1.5l-1.5-3.2l-0.1-1.3l1.1-1.7l1.7-0.3l4.1,1.1l0.7,2.1l2.4,1.3
	l0.6,1.2l1.2-0.2l0.5-0.4l-0.1,1.2l1.8,0.9l0.9-1.3l3.1,1.6l4.1,4l1.8,2.8l4.1-1l2.3,0.7l3.5,5.1l0.5,1.8l-1.4,1.4l-0.2,2l5.4,1.5
	l8.6,1.2l3.9,0.8l2.5-1.5l1.1-1.6l1.4-3.9l0.4-2.3l2.8-2.8l1.3,2l1.7,1.1l4.5-1.2l1.2-1.2l3.5,0.9l1.2-0.6l0.3-0.2l1.6-2l-1.8-4.7
	l0.4-2.7l2.6-5.4l2-3l1.3-1.4l1.7-4.6l-0.3-1.5l-0.6-0.2l-0.7-1.1l0.5-5.8l0.9-0.1l1-0.6l1.5-7l-0.2-1.8l-0.9-0.8l-0.3-3.9l-0.7-2.3
	l1-2.9l0.6-1l2.9-3l1.4-2.3l0.5-4.7l2.1-4.8l4.8-8.1l3.3-4.6l1.8-3.3l2.1-5.5l3.7-6.5l1-1.4c0,0,0.6-1.1,1-2.2
	c0.2-0.6,0.5-1.2,0.6-1.7c0.1-0.5,0.1-0.9,0-1c-0.3-0.3-1.2-0.8-2.1-1.1c-0.5-0.2-0.9-0.3-1.3-0.3c-0.4,0-0.8,0-1,0.2
	c-0.5,0.3-1.5,0.9-2.5,1.5l-0.1-0.1l-5.5-4.7l-4.5-6.1l-7.4-7.1c0,0,1.3-1.5,2.7-3.1c1.4-1.6,2.8-3.4,2.9-4c0.1-0.6,0.4-2.7,0.8-4.7
	c0.4-2.1,0.8-4.1,1.4-4.6s1-1.6,1.4-2.5c0.4-0.9,0.6-1.7,0.6-1.7l8.7-1.6l5.8-4.7c0,0,2.8-1.8,4.6-3c0,0-1-3.5-1.2-5
	c-0.1-1.5-0.7-6.9-0.6-7.4c0.1-0.3,0.7-1.5,1.3-2.9c0.6-1.4,1.2-2.9,1.2-3.8c0-1.8,0.5-7.6,0.5-7.6l-2.2-0.2l-2.9-0.3l-3.9-0.9
	l-1.3,0.5l-3.1,1.2l-2.7-0.1l-6.1,1.4l-1.4-0.4l-2.6-2l-2.6-2.5l-1.3-2.1L367.4,398.8z"/>
<path id="D263" class="st0" d="M586.9,102.1l3.1,0.8l2.1-0.3l1.8,0.1l2,1.3l-0.3,1.8l1.3,1.3l0.6,1.5l-3.7,1.4l-2.5,0.5l-1.9,1.1
	l0.4,1.6l2.7-0.6l0.8,0.7l-0.5,1.5l-1,0.8l2.9,6.3l1,0.7l1.5-0.1l1.4,0.9l2.3,3.5l0.4,1.3l2.9,3.2l0.3,0.9l-2.9,2.5l-4.7,5.4
	l-2.7,0.5l-0.4,1.4l-0.9,0.2l-2.8-0.9l-3.2-1.7l-1.8,0l-0.1,1.7l2.3,2.6l0.3,1.4l-1.1,1.9l-1.1,1.1l-0.3,1.9l0.6,1.3l0,1l-1.3,3.3
	l1.5,0.3l1.4,1.7l-0.2,3.1l0.5,2.9l1.5,1.9l2.4-0.2l1.9,0.6l2.4,1.6l7.7,1.1l2.5,0.8l3,1.9l4.5,1.5l2.9-0.6l3.7,0.9l1.6,0l1.6-0.9
	l2.3,0.5l0.2,2.1l1.5,0.8l-1.3,3.3l-0.9,1.1l2.7-0.3l-4.3,4.5l-0.3,2.1l0.8,2.1l1,1.7l-0.8,0.8l1.9,1.3l-1.5,2.2l0.4,1.6l1.3,1.7
	l0.7,4.8l1.2,2.7l-0.7,1.4l-0.1,2.1l0,1.6l0.8,1.9l0.7,1.4l-1.7,2.7l-0.1,1.8l1.2,3.2l-1.4,2l1.9,3.2l1.3,1.6l1.2,3.2l-1.1,4.8
	l0.4,2.2l3.3,2.1h0l0.5,2.2l4,4.4l4,4.8l0.4,2.4l-2.4,5.2v4.1l-1.3,0.3l-1.5,0.6l-1.9,1l0.1,1.3l-2-0.2l-0.5-0.3l-2,0.8l-1.8-0.2
	l-3.2-1.6l-4-0.6l-3-0.3l-5,1l-5.5-2l-3.8-2.7l-3.3-1.8l-1.8-2.4l-1.2-2.1l-1.6-1l-1.3-1.6l-1.8-0.7l-2.3-1.2l-4-3.9l-1.3-0.1
	l-3.7-3.4l-1.7,0.2l-1-2.3l-0.8-1.4l-0.7-2.1l-1.4-2.2l-1.5-0.1l-2.2-0.5l-2.2-0.2l-2.9,0.7l-1.5-0.1l-1.6,0.7l-0.9,0.9l-3.7,1
	l-1.7,0l-2.3,1.5l-1.4-3.3l0.3-1.8l-2.5-5.8l-3.3-2.9l-0.4-1.4l1.4-5.2l0.2-2.6l-1-2.6l-1.1-6.7l4.4-5.6l4.3-4.3l5.6-6.9l0.8-2.5
	l0.1-3.4l1.7-2.2l0.6-2.6l-1-3.5l-3.7-2.2l-0.5-1.8l0.4-2.1l-1.5-2.3l-3.5-3.9l-8.5-2l-3.9-1.9l-1.8,0l-1.7-0.5l1.1-1.4l8.8-4.5
	l1.7-1.5l3.6-2.6l3.5-2.1l0.5-1.7l2.4-3.8l0.3-1l4-0.7l3.9,0.3l1.8-1.5l-0.2-5.5l-0.4-2.3l-1.8-3.1l1-1.2l2.6,1.8l1.5,0.1l-0.6-2
	l-1.6-1.9l-5.4-3.7l-0.1-2.9l-0.8-3l1.5-1.8l0.3-1.9l1.3-1.3l1.9,0.9l1.3,2.1l0.9,0.8l1.1-0.7l0.3-1l0.9-1.3l2.3-1.3l0.3-3l1.5-1.5
	l4.8-1.4L586.9,102.1L586.9,102.1z"/>
<path id="D265" class="st0" d="
	M566.5,114.6l-0.5,0.6l-1.8,1.3l-4.7,2.3l-3.2,2l-5.6,5l-2.1,1.5l-1.9,1.2l-8.2,1.9l-2.5,1.1l-2,0.5l-2.8-0.3l-2.3,0.2l-3.2,1.7
	l-1.4,0.4l-2.1-0.3l-0.6-0.6l-0.4-2.1l-1.1-1.5l-2.1-0.8l-0.6-1.2l-0.1-1.6l-2.3,0.3l-1.6,0.6l-1.8,3l-0.7,1.4l2.7,0.3l1,0.6
	l0.6,1.5l0,1l-0.4,0.4l-2.1-1.4l-0.8,0.7l-0.4,2.2l0,2.2l-1,1.5l-1.3,0.1l-1.4-0.3l-1-0.9l-4.3,3.6l1.2,2l-1.5,0.4l-1.8,0l-1.2-0.3
	l-0.2-1.2l0.9-4.7l-0.5-0.5l-0.9-0.3l-2.5-0.1l-1.7-0.7l-2-0.3l-1.6,0.5l-5,3.2l-1.9-1.2l-1,1.1l-0.2,2.6l-1.6,2.8l-2.1,1.5
	l-1.1,0.2l-1.6,2l-1.2,1l-0.7,0.6l-2.1,0.6l-2.7-0.6l-6.8,1.5l-1.3,0.9l-1,1.7l-1.3,3l1.1,2.8l0.1,1.6l1.1,1.3l0.1,0.6l-0.9,1.2
	l-2.2-0.5l-0.9-0.9l-7.7,5.2l-9.5,3.4l-0.8,0.8l0.3,1.7l-1,3l3.4,7.2l-1.1,3.8l-1,1.7l-0.6,2.9l1.1,0.3l0.5,0.8l-1.1,0.5l-1.1-0.1
	l-0.5,0.8l1.1,1.1l0.1,1l-0.5,0.6l-1.6,0.5l-0.5,1.1l0.4,2l-1.4,1.6l0.2,0.9l-1.1,1l-0.9-1.1l-1-0.1l-5,2.9l-0.5,0.8l0.4,2.3
	l-0.2,1.6l-3.2,1.2l-1.8-0.1l-2.2,0.5l-1.6-0.4l-1.3,0.6l1,1.5l0.7,0.5l-0.8,0.5l-0.7,1.1l0.1,1.3l-0.9,1.1l-2.4,1.1l-2.5,2
	l-1.7-0.1l-1.3,0.5l-2.1,1.7l0.3,2.8l-0.2,0.6l-3,3l0.1,1.2l-2.3,3.1l-3.7,4.1l-3.3,7l0.4,2.8l1,1.6l1.4,1.2l1.6,2.2l0.8,2.2
	l-0.6,4.2l0.5,0.7l1.6-1.4l2.5-3.5l3.8-2.9l0.6-0.8l1,0.5l0.4,1.9l1.3,2.7l3.3,3l0.6,0.7l1.4,0.7l2.4,2.5l0.5,2.3l1.2,2.8l-1.4,5
	l-2,3.7l0,0.9l1,0.7l1.6-0.6l0.8-1.5l2.2-0.5l0.8,0l0.4,1.6l-4.7,7l0.1,2.3l1,3.7l0.2,3.7l0.9,5.3l0,1.5l-0.4,1.4l-3.4,6l-1.2,1.2
	l-1.7,1.2l-1.3,0.5l-0.8,1.2l1.1,1.2l0.9-0.1l2.2-0.9l2.7-0.5l1.7,0.5l1.2,1.6l3.9,2.1l2,1.5l2.3,0.1l1.2,0.6l0.5,2.3l-2.7,5.5
	l-3.1,4.2l-1.4,1.1l4.2-0.8l2.8-1.1l2.8-1.6l5.7-3.9l1.8,0.2l8.4,2.8l2.4-0.2l1.6-1.3l-0.2-2.5l1.3-2.9l1.5-1.8l1.5-4l-1-2.6l3-6.5
	l2.9-4.7l1.6-1.1l0.3-3l0.7-1.5l4.1-1l0.6,1.7l0.1,2.2l1.1,2.3l2.6,1.8l0,0.1l0.9,1.9l1,4.4l1.8,2.6l0.6,1.9l1.1,1l0.4,1.3l-0.7,0.7
	l-3.3,1.4l-0.4,0.8l0.2,1.4l-1.2,1.6l0.3,1.9v0c0,0-0.1,0.7-0.2,1.5c-0.1,0.8,0,1.7,0.2,2.1c0.3,0.4,0.2,1,0.1,1.5
	c-0.1,0.5-0.3,1-0.3,1.2s0.1,0.7,0.3,1.1c0.2,0.4,0.5,0.8,0.9,1.2s0.9,1.4,1.3,2.4c0.4,1,0.7,1.9,0.7,1.9s15.3-3.1,16-3.2
	c0.8-0.1,7.4,0.2,7.4,0.2s0-3,0.1-3.3c0.1-0.3,4.1-3.3,4.1-3.3s2.9-3.1,2.8-3.1l-0.5-1.8l0.5-0.9l0.2-2.8l-0.3-2.9l-3.3-1.1l-1-1.7
	l-4.4-4.9l-0.2-2.1l0.4-1.1l0.1-2.3l-0.4-3.4l1-1.7l1.9-2.1l4.4-0.4l1.9-3.7l1.9,0.6l1.4-1.9l0.9-2l4.3-4.1l4.8-3.2l2-0.9l1-1.4
	l1.2-0.2l2.8,0.1l3.1-2.2l1.1-0.4l0.6-2.6l0.7-0.2l-0.5-1.7l0.1-1.3l0.7-2l3.1-2.9l0.2-1l-1.3-1.8l1.6-1l1.5,0.1l1.2-1.7l1.9-0.6
	l4-5l0.5-2.2l0.9-0.7l0.5-0.8l1.6-1.2l1.1-0.1l2-0.7l-0.2-2.7l0.3-2.2l1.9-5.6l0-0.1l-1.4-3.3l0.3-1.8l-2.5-5.8l-3.3-2.9l-0.4-1.4
	l1.4-5.2l0.2-2.6l-1-2.6l-1.1-6.7l4.4-5.6l4.3-4.3l5.6-6.9l0.8-2.5l0.1-3.4l1.7-2.2l0.6-2.6l-1-3.5l-3.7-2.2l-0.5-1.8l0.4-2.1
	l-1.5-2.3l-3.5-3.9l-8.5-2l-3.9-1.9l-1.8,0l-1.7-0.5l1.1-1.4l8.8-4.5l1.7-1.5l3.6-2.6l3.5-2.1l0.5-1.7l2.4-3.8l0.3-1l4-0.7l3.9,0.3
	l1.8-1.5l-0.2-5.5l-0.4-2.3l-1.8-3.1l1-1.2l2.6,1.8l1.5,0.1l-0.6-2l-1.6-1.9l-5.4-3.7l-0.1-2.9L566.5,114.6z"/>
<path id="D261" class="st0" d="
	M742.4,9.3l-15.8,14.2l-1.9,2.4l-2.6,0.6l-2.2,1.8l-4.1,2.6l-3.6,1.2l-1.3,2.3l-0.1,2l-1.2,2.1l-8.9,5.4l-8.3,1.7l-4.1,2.8l-6.4,0.9
	l-3.6,2.3l-2.8,2.7l-1.8,0.4l-4.1-0.2l-2.4,0.2l-2.5-0.7l-0.7,1.2l0.3,1.7l-1,0.2l-1.5-0.2l-2.3-2.4l-2.1-1.1l-1.4-0.3l-1-1.2
	l-0.5-1.8l-1-1.7l-2.6-1.1l-3.9,1.3l-2.3,0.4l-1,0.5l-1.9-0.2l-2.1-5.2l-1.7,0.7l-2.2,2l-1.6,1l-1.9,0.1l-2.9,0.7l-2.6,1.2l-3.2,1.9
	l-1.8,2.2l-4.6,4.5l-0.4,2l-1.3,1.1l-2.4,5.2l-2.2,3.1l-0.7,1.5l-2.2,1.7l-2.7,1.1l-0.9,2.1l-1.6,2.2l-2.3,1.3l-2,1.9l0.2,2
	l-0.2,1.7l-1.7,1.3l-0.5,1.8l-0.1,2.6l-0.8,2l-1.5,0.6l-0.9,0.8l-3.9,1l1.9,1.8l1.4,0.6l-1.2,2.4l-2.8,0.9l-1.6,0.9l3.1,0.8l2.1-0.3
	l1.8,0.1l2,1.3l-0.3,1.8l1.3,1.3l0.6,1.5l-3.7,1.4l-2.5,0.5l-1.9,1.1l0.4,1.6l2.7-0.6l0.8,0.7l-0.5,1.5l-1,0.8l2.9,6.3l1,0.7
	l1.5-0.1l1.4,0.9l2.3,3.5l0.4,1.3l2.9,3.2l0.3,0.9l-2.9,2.5l-4.7,5.4l-2.7,0.5l-0.4,1.4l-0.9,0.2l-2.8-0.9l-3.2-1.7l-1.8,0l-0.1,1.7
	l2.3,2.6l0.3,1.4l-1.1,1.9l-1.1,1.1l-0.3,1.9l0.6,1.3l0,1l-1.3,3.3l1.5,0.3l1.4,1.7l-0.2,3.1l0.5,2.9l1.5,1.9l2.4-0.2l1.9,0.6
	l2.4,1.6l7.7,1.1l2.5,0.8l3,1.9l4.5,1.5l2.9-0.6l3.7,0.9l1.6,0l1.6-0.9l2.3,0.5l0.2,2.1l1.5,0.8l-1.3,3.3l-0.8,1.1l2.7-0.3l-4.3,4.5
	l-0.3,2.1l0.8,2.1l1,1.7l-0.8,0.8l1.9,1.3l-1.5,2.2l0.4,1.6l1.3,1.7l0.7,4.8l1.2,2.7l-0.7,1.4l-0.1,2.1l0,1.6l0.8,1.9l0.7,1.4
	l-1.7,2.7l-0.1,1.8l1.2,3.2l-1.4,2l1.9,3.2l1.3,1.6l1.2,3.2l-1.1,4.8l0.4,2.2l3.3,2.1h0l0.5,2.2l4,4.4l4,4.8l0.4,2.4l-2.4,5.2v4.1
	v0.7l0.4,1.2c0,0-0.6,1.9-0.8,2.5c-0.2,0.6-0.9,2.3-0.9,3.9c0,1.6,0.3,4.7,0.3,4.7s0.5,2.8,1,3.7c0.5,0.9,3.1,4.8,3.1,4.8l2.8,4.4
	l6,4h5.2l7.2,0.8l6,4.4h4.8l3.6-1.6l4.8-6l8-3.2l12-4.4l10,0.4l3.2-0.7l-0.1-0.5l-0.2-2l2.3-2.6l-0.7-1.5l-1.3-3.1l0.6-2.8l0.8-1.8
	l1-3.5l0.5-2.9l-0.1-1.8l-1.9-1.1l-2.2-1.9l-1.3-1l-6.5-1.2l0.1-2l0.2-1.8l0.1-1.5l0.7-1.5l0.4-1.9l-1-2.4l-1.8-1l-0.6-1.3l-1.2-1.3
	l-2.4-3l-1.4-1.8l-2.1-0.5l-2,0.2l-0.5,0.1l-1.3,0.8l-2,0l0-2.5l0.3-1.8l0.6-2l1.2-1.1l0.1-0.2l1.2-1.3l0.1-1l0.1-0.7l1.2-1.1
	l0.5-0.4l0.6-0.7l0.8-0.9l1.5-1.8l1.2-1.5l1.9-1.5l2.5-1.8l0.8-2.3L707,213l1.3-1l2.2-1.1l0.2-0.1l2.9-4.3l0-1.8l-0.7-2l-1-2
	l-0.6-1.2l2.5-1.9l1.3-1.4l0.8-2.2h2.7l1.8,0.7l1.6-0.7l0.6-0.3l0-0.2l0-1.6l1.6-2.6l0.8-0.9l1.4-1.5l0.7-2.3l-1.2-2.6l-0.3-1.5
	l0.1-1.6l0.5-3l0.4-3.8l1.4-1.4l1.2-0.6l1.3-0.7l2.5-1.3l1.1-1.6l3-3.5l3.6-1.7l2.2,0.1l3.5-0.7l0.6-0.4l0.8-0.5l1.9-1.6l1.8-1.9
	l2-2.6l1-1.7l0.2-0.4l1.4-1.7l1.1-2.1l1.2-1.2l-0.6-0.7l0-1.3l-0.9-2.1l0.9-5.8l-2.5-1.8l-0.6-2.7l-4.6-4.4l0.3-2.3l1.6-2.4l0.1-1.6
	l-0.8-1.5l0.3-1.6l1.5-0.7l2-2.6l1.5-1.3l0-0.7l-0.6-1.5l1.2-1l3-1.6l0.9-1.1l-1.2,0.2l-0.6-0.9l-2,0l-2.9-1.2l-2.3-0.5l-2.5-1.9
	l-3.2-5.1l-1.3-3.7l-0.4-2.9l-0.8-1.6l-0.6-2.7l0.6-1.1l2.3-1.3l0.8-1.7l-1.7,0.7l-2.5-1l-0.1,0.8l-0.7-0.1l-1-0.6l-2.8-3.3l-0.5-2
	l8.4-5l1.9-1.5l0.6-1.5l1.9-0.5l4.7,0.5l1.5-2l-1-2.9l0.9-2.9l0.1-1.4l-0.8-2l0-1.2l0.8-0.3v-0.7l-0.8-2.1l-1-1.7l-1.4-1.5l-3.3,0.1
	l-1-1.1l-0.9-2.5l-1.1-5.1l1.6-0.8l-1.9-0.7l-0.7-0.7l0.8-1.1l1.9-1.1l0.5-0.9l-2.4-1.8l-0.9-1.4l-0.5-1.3l1.8-0.2l-0.8-0.8
	l-2.8-0.3l-2-1.7l0.4-3l1.4-0.6l0.1-2.6l-0.9-3.6l0.1-1.6l-0.8-4.9L742.4,9.3z"/>
<path id="D822" class="st0" d="M651.9,293.8c0,0,1.8,3.3,3.2,6.3c0.3,0.7,0.5,1.3,0.5,1.6c0,0.4-0.1,0.6-0.3,0.8
	c-0.4,0.4-1.2,0.5-1.9,0.9s-1.9,1-3,1.5s-2,1.1-2,1.4c0,0.3-0.1,1.3-0.3,2.5c-0.2,1.1-0.4,2.3-0.9,2.8s-1.3,2.9-2,5.1
	c-0.7,2.2-1.3,4.3-1.3,4.3s-6.2,9.5-6.6,10.1s-6.7,9.1-6.7,9.1s-0.1,0.9-0.1,1.9c0,0.5,0.1,0.9,0.2,1.3c0.1,0.3,0.3,0.6,0.5,0.6
	c1,0,4.5-1,4.5-1l6.6,0.6v3.4c0,0-0.7,2.8-0.7,3.3c0,0.6-2.2,4.3-2.2,4.3s-2.9,3.6-3.6,4c-0.3,0.2-0.5,0.9-0.4,1.7
	c0,0.8,0.2,1.7,0.6,2.3c0.3,0.6,0.8,1,1.2,1.4s0.8,0.6,1.1,0.8c0.3,0.3,1.2,1.5,2.1,2.9c0.4,0.7,0.8,1.4,1,2s0.3,1.1,0.2,1.4
	c-0.2,0.3-0.1,0.9,0.1,1.7c0.2,0.8,0.5,1.7,0.8,2.5c0.3,0.9,0.5,1.7,0.6,2.4c0.1,0.6,0,1.1-0.3,1.2c0.2,0,0.3,0.2,0.3,0.6
	c0,0.4,0,0.9-0.2,1.4c-0.3,1.1-0.9,2.4-1.7,3.2c-0.4,0.4-0.7,1.1-1.1,1.8c-0.4,0.7-0.8,1.5-1.3,1.9c-1.1,1-0.7,0.8-1.8,2.5
	c-0.6,0.8-0.9,1.1-1.2,1.6s-0.6,0.9-1.1,2.2s-0.4,2.2-0.4,3c0,0.4,0,0.8,0,1.2c-0.1,0.4-0.2,0.7-0.5,1.1c-1.1,1.4-1,1.5-2.6,2.8
	c-0.8,0.6-1.4,1.1-1.8,1.6c-0.4,0.6-0.7,1.3-1.1,2.4c-0.7,2.2-1.9,4.7-1.9,4.7l-0.4,0.6l-1.6-0.3l-1.6-0.2l-1.1,0.7l-0.2,2l-1.3,1.4
	l-0.1,1l-1.9,2.6l-0.7,2l-1.2,2.1l-0.8,2.2l-0.6,1.8l-2.2,2.6l-0.6,2.5l-0.8,0.7l-0.3,1.2l-0.8,1l-1.5,0.8l-0.8,1.2l-0.6,1.8
	l1.4,0.7l1.6-1.1l1.8-1.6l2.6-0.8l1.8-0.9l2-1.1l2-0.3l0.7,0l3.2,0.8l4.2-0.2l1.9,0.2l3.3,0.3l2.9-1.5l1.5-0.9l1.4,0l1.8,2.6
	l1.1,0.6l1.3,1.4l0,1.7l-1.1,1.4l-0.3,2.3l2.5,4.7l2.7,1.8l1.7,1.5l2.7,0.2l2.9-0.1l1.9,2.3l0.1,2.2l1.2,2.6l1.9,1.9l1.9,0l2.2-0.2
	l2.3-1.6l2.2-0.6l3.4-0.4l1,0v-0.1l0.7-0.9l0.6-0.7l1.2-1.1l-0.7-2.7l-0.2-1.3l-0.2-1.2l0.3-1.8l0.5-1.3l0.2-0.4l2.4-3.8l2-1.7
	l1.2-1l-0.1-0.6l-0.1-1.1l0.3-1.4l3.2,0.1l1.9-1.7l1.2-2l1.7-1l3.1-0.3l3.1-0.5l2.1-0.7l3.7-2.6l1.9-1.5l2.6-1.3l2.4-1.2l1.2-2.6
	l0.1-0.3l2.9-4.6l4-2.9l1.4-1.9l2-1.6l1.6-0.9l0.8-1.7l2.4-3.1l4.8-4.4l0.5-0.4l0.8-1.4l0.1-0.9l0-0.6l0.1-2.2l0.1-3.4l1-1.7
	l1.9-1.5l1.7-2.2l1.1-1.4l0.5-0.5l0.8-0.7l0.8-2.2l-0.1-1.7l-2-2l-1.2-0.9l-2.3-1.7l-2-0.9l-3.2,1.1l-2.2,0.5l-1.4-1.2l-1.4-1.2
	l-2.4-0.6l-2.5,0.9l-1.8-0.3l-1.3-1.2l-1-2.1l0.1-4.7l0.9-2.2l0.8-1.4l1-2.2l-1.6-4.7l-1.3-2.3l-1.4-3l0.5-2.3l0.8-1.3l1.1-1.6
	l1.1-2.5l0.7-4.3l-1.2-1l1.4-2.5l2.3-1.7l1.5-0.6l1.7-1.9l-0.7-1.5l-2.8-2.9l-1.9-1.5l-2-1.3l-0.7-2.2l0.6-1.5l1.1-1.3l1-2.6
	l0.5-1.4l-0.4-1.6l-1.5-1.5l-0.9-1.7l-0.8-2.4l0.2-1.7l2.2-2.2l1-1.4l0.5-1.5l-0.1-1.6l0.3-2.3l-0.1-1.8l-0.5-3.8l-0.2-1.7l-0.2-1.4
	l-0.2-1.5l-3.2,0.7l-10-0.4l-12,4.4l-8,3.2l-4.8,6l-3.6,1.6h-4.8l-6-4.4l-7.2-0.8L651.9,293.8z"/>
<path id="D270" class="st0" d="M180.1,520.9c0,0-0.2,1.7-0.2,2.2c0,0.5-0.6,4.1-0.6,4.1s-0.5,0.4-1,1c-0.5,0.5-1,1.2-1,1.6
	c0,0.7,0.6,3.1,0.8,3.9c0.1,0.1,0.1,0.2,0.2,0.2c0.4,0.7,0.6,1.9,0.7,3s0.2,2.1,0.3,2.5c0,0.2,0,0.3-0.2,0.4c-0.2,0.1-0.4,0.1-0.7,0
	c-0.6-0.1-1.4-0.6-2.1-1.4c-0.7-0.8-1.2-2-1.6-3.1c-0.4-1.1-0.7-2-0.9-2.3c-0.2-0.3-1.5,0.6-2.8,1.6c-1.4,1-2.8,2.1-3.3,2.1
	c-0.3,0-0.4-0.1-0.5-0.2c-0.1-0.2-0.1-0.4-0.1-0.6c0-0.5,0.2-1,0.3-1.3c0.1-0.3,0.8-1.3,1.4-2.2s1.2-2,1.1-2.2c-0.1-0.4-1.1-3-1.9-5
	l-6.6,1.8h-4.4l-4.7,2.8l-2.5,1.4c0,0-2.2,1.9-3,2.5s-2.8,4.1-2.8,4.1l-6.6,1.1c0,0-1.4-0.5-3-1.3c-1.6-0.8-3.5-1.8-4.4-2.8
	s-2.1-1.9-3-2.6s-1.7-1.1-2-1.3c-0.6-0.4-3.2-1.5-4.8-2.9c-0.4-0.3-1.1-0.7-2-0.9c-0.9-0.3-1.8-0.5-2.8-0.7
	c-1.9-0.4-3.5-0.7-3.5-0.7l-4.1-0.8l-2.1-0.6l-2.5,3.5l-0.4,0.5l-0.8-0.4l-1-2.3l-1.2,2.5l-2.3,2l1,0.8l0.3,0.9l-3.9,4.9l-0.7,1.6
	l-2.4,1.8l-0.8,2.1l-2.3,0.5l-1.4-0.3l0.2,1l-1.3,1.1l-1.4-0.5l-0.1,2.3l-2.8-0.9l-0.4,1.4l-2.4,0.2l-1.1-0.2l-1.9,1l-1.4,0.4
	L75,549l1,0.7l0.3,1.2l-1,0.1l-2.8-1.7l-0.8,1l-1.2-1.5l-0.9,0.3l-1.1,1.3l-0.9,0.1l0,0.8l-1.9,0.9l-1.2,0.3l-1.3-0.9l-1.9,3.5
	l-1.6,0.5l-1.3,1.7l0.7,0.7l-1.7,0.5l-1.2,0.8l-0.5,0.9l-0.2,1.1l0.9,0.9l-0.2,1.4l-0.9,1.5l-2.6,0.1l-3.9,0.6l0.2,2.2l-3.2,1.7
	l0.3,0.7l0.7,0.6l-0.1,1.3l-0.8,0.7l-2.4-0.4l0.1,1.4l-0.3,1l-1,0.7l-1.5-0.4l-1.6,0.2l0.3,2.5l-0.7,1l-1.3,0.1l-2.4-1.8l-2.3,0.8
	l-1.1,0.8l-1.6,2.4l-3,2.2l-0.6,0.8l1.5,0.5l1.8,3.1l1.6,0.5l1.8-0.9l1.2,0.3l-0.8,1.5l1.5,1l1.3,1.4l1,2.8l1.8,1.6l0.8,1.3
	l-0.7,1.1l0.7,0.9l1.6,1l0.3,1.5l4.3,1.4l1.3,1.6l0.3,1.2l1.3,1.8l0.3,1.6l-0.1,1.3l0.3,1.5l-0.6,1.9l2.1,1.9l2.7,1.9l5.5,2.5
	l1.9-0.8l2.1-0.2l2.9,0.2l3.3,1.6l5.1,3.3l1.9,2.8l1.3,4.3l0.1,2.9l-0.8,1.9l1.5,3l2.6,3.8l1.3,2.7l0.4,2.4l-4.6,7l-1.5,1.1
	l-3.3,4.1l-0.7,1.5l2.3,1.3l1.5,1.7l-1.5,2.5l-0.5,1.8l2.5,2.1l1.9,2.3l2.3,1.7l0.4,3.7l-0.2,2.8l-0.8,2.7l1.6,2.5l2.5,0.9l1.6,0.3
	l2.8-1.1l3.6,1.1l2.5,0.1l-2.5,8.5l0.4,3.6l1.3,0.2l3.1-0.4l1.6-1.5l3.4,0.2l4.6,1.1l2.3-1.2l2.9-0.8l3.2,1.5l2.7,4.2l0.3,1.2
	l1.6,1.9l1.3,0.7l1.3-0.1l1.6,1.4l0.8,0.1l0.9,0.9l0.7,2.3l1.1,1.1l-0.8,1.7l0.1,1.1l1.6-0.1l1.5,0.7l1.2-0.7l1.4,0.9l1.8-1.6
	l3.3-7.2l3-4.2l1.1-2.8l2.4-2.9l1.9-3.7l0.2-2.3l2.4-1.2l0.6-1.7l0.1-2.1l5.4-7.5l-0.3-2.2l0.5-1.6l2.6-1.2l0.4-2.2L157,668l4.6-0.4
	l1.2-0.6l1.7-6.2l0.5-5.4l2.8,0.8l4.5,0.5l2.5-1.3l0.4-3.4l1.6-2l3-1.8l3.4-1.6l0.6-1.9l-0.5-2.2l0.7-1.8l1.8-2.2l5.3-3.2l1.6-1.5
	l6.4-2.5l-0.2-1.8l1.5-0.9l1.4-1.5l0.8-2.9l1.4-2l1.8-2l1.6-2.5l1.1-1.2l1.4-0.8l1.9-7.4l-2.4-4.2l-1.4-1.3l-2.6-2.1l-3.4-0.8
	L196,603l-1.6,0.4l-1.4-1.2l-0.6-6l1.9-0.9l-0.4-2.9l0.3-2.1l0.8-2l-0.1-1.6l0.5-0.2l2.9,1.1l10.9-2.5l3.1-0.4l1.5,0.4l1.4-1.4
	l0.7-3l3.2-0.2l0.1-1.9l1.2-0.6l3,0.5l3.1,1.2l3.8,0.4l6.2-1.7l5.2-2.5h0l3.2-0.1l0.8-3.5c-0.8-0.2-1.6-0.3-2.3-0.7
	c-0.7-0.3-1.4-0.8-2-1.7c0-0.7-0.2-1.5-0.5-2.1c-0.3-0.7-0.8-1.3-1.2-1.8c-1-1.1-2.2-1.8-3.1-2l-4.6-0.9c-0.1,0-0.1-0.1-0.2-0.1
	c-0.6-0.2-1-0.1-1-0.1s1.4-2.1,1.6-2.5c0.1-0.2,0.2-1.7,0.3-3.3c0-1.6,0-3.5-0.3-4.3c-0.2-0.8-0.2-2.4-0.1-3.8
	c0.1-1.4,0.3-2.6,0.3-2.6l-2.3-3l-2.4-2.2c0,0-0.1-2.3-0.4-3.5c-0.1-0.6-1.1-1.8-2.1-2.9c-0.9-1.1-1.8-2-1.8-2s-7.6-0.5-8.4-0.5
	c-0.8,0-7,1.4-8.3,1.7c-1.3,0.3-6.4,1.8-7.2,1.9c-0.8,0.1-4.1,2.4-4.1,2.4s-0.7-0.4-1.4-1c-0.8-0.6-1.6-1.4-2.1-2.2
	c-0.4-0.8-1.7-2-2.8-3c-1.1-1-2.2-1.8-2.2-1.8s-3.1-2.2-3.5-2.7c-0.4-0.5-1.7-4.1-1.9-5L180.1,520.9z"/>
<path id="D271" class="st0" d="M459.1,468.8l-10.5,1.3c0,0-9.4,2-12.9,2.6c-1.8,0.3-4.2,1-6.7,1.9c-2.5,0.9-5,2-6.8,3
	c-1.9,1.1-4.1,1.9-6,2.4c-1.1,0.3-1.6,0.3-2.4,0.4c-0.1,0.3-1.3,2.7-1.5,3.5c-0.2,0.8-2.4,5.3-3.3,6.5c-0.9,1.2-1.7,2.1-2.4,3.7
	s-1.8,3-2.2,4.2c-0.2,0.6-0.3,1.4-0.2,2.3c0,0.8,0.1,1.7,0.2,2.3c0,0.6-0.2,1.3-0.6,1.9s-0.9,1.1-1.3,1.3c-0.4,0.2-1.5,0.2-2.6,0.2
	c-1.1-0.1-2-0.2-2-0.2l-3-0.5l-3.9-0.8l-3.8-2.3l-4.1-0.8l-3.3,4.6l-4.8,8.1l-2.1,4.8l-0.5,4.7l-1.4,2.3l-2.9,3l-0.6,1l-1,2.9
	l0.7,2.3l0.3,3.9l0.9,0.8l0.2,1.8l-1.5,7l-1,0.6l-0.9,0.1l-0.5,5.8l0.7,1.1l0.6,0.2l0.3,1.5l-1.7,4.6l-1.3,1.4l-2,3l-2.6,5.4
	l-0.4,2.7l1.8,4.7l-1.6,2l-0.3,0.2l-0.4,3.9l-1.4,2.9l0.2,1.5l3.3,3.1l2.9,3.4l0,0.9l2.3,1.3l0,2.1l0.8,1l1.9,0.2l1.2,1.1l2.4,0.3
	l1-0.9l7.8-0.3l2-1.7l3.7,0.4l2.8-0.2l2.2-0.9l2.6-2.4l1.5,0.8l3.2,3.4l1.4,2.3l2.4,0.3l1.7-0.3l2.7-1.8l3.2-3.5l13.7-5l9.2-5.8
	l6.1-1.7l2.5-1l2.3,0.6l1.3-0.3l2-3.9l0.3-3.3l-0.5-4.4l-1-1.1l1.3-2.1l1.7-4.3l3-1.2l2.5-0.1l1.4-0.8l0.6-1.2l9.5-7.9l6.6,0.7
	l0,0.4l0.9,1.7l2.3-0.8l0.2-0.9l0,0l0.7-0.4l1.4,1.2l0.9-0.8l0.3-3.1l0.9-1.2l1.4-0.2l3.7-5l1.5-0.3l1,0.7l0.3-2.9l3.1-0.4l2-2.5
	l2.7-1.9l0.2-1.9l4.9-5.2l1.1-4.4l1.9-2.1l2.2,0.6l1.7,1.1l1.6,0.5l3.3,0.2l0.5,1.7l-2.7,2.2l-0.7,1.5l-1.1,0.9l0.8,1.2l-0.7,0.7
	l-0.8,1.8l0.7,1.3l-1.2,0.4l-0.3,1.2l-1.8,1.8l0.2,1.7l-0.4,1.4l4.2-0.7l3.2,1.1l-0.2,0.5l-1.6,0.9l-2.6,2.2l-2,3.2l-0.6,2.3
	l-1.6,3.5l-1.6,1.4l-0.7,1.4l-0.7,0.6L498,566l-1.5,3.2l2.2,2.9l-0.4,4l1.6,0l-1.3,2.9l0.6,4.2l-1.2,1.5l1.4,2.3l-2,1.8l1.1,1.6
	l-0.9,2.4l-0.6,4.4l4.1,2.4l2.5,0.5l4,3.2l0.8,1.7l1.4,1l1.6,0.6l1,0.7l3.9,1.5l6.9,5.1l2.9,1.3l5.9,1.6l3.2,1.2l0.9,0.6l2.8,0.6
	l1.5,0l4.9-1.7l2.4-2.2l2.7-1l2-0.1l0.6,0l4.7-0.9l2.7-0.6l3.5-0.9l3.2-0.8l2.8-0.9l1.9-1.3l1.5-2.1l0.1-0.4l0.4-1.2l2.2,0.2
	l0.8,2.3l1,1.2l2.2,0.4l2.4-1.1l2.1-2.3l2-0.4l2.8-1l3.4,0.1l2.5-0.8l1.2-1.8l1.2-2.7l0.6-2.6l0.7-1.3l1.2-1.4l1.3-2.8l0.3-1.9
	l0-0.7l0-1.4l1.6-3.2l1.1-1.4l2.5-2l1.8-1.4l0.6-0.5l0.2-0.1l1.2-0.9l1.3,0l0.1,0l0.7,0l11.3-0.8l6.6-0.7l-0.3-1.6l-2.7-2.4l-2-1.8
	l-1.6-2.1l0.4-1.7l0.2-0.1l-0.1-0.3l0-0.1l-0.1,0l-2.1-0.7l-2.7-4l-1.3-3l-3.7-1.2l-2.4,0l-0.3-0.5l-0.4-3.1l-1.5-5.7l0.2-6.3
	l0.9-4.7l2.4-8.9l0.9-12l-1.3-2.9l-7.9-8.3l-1.4-2.5l-10.4-5.9l-7-3.3l-6.5-1.1l-5.5-0.3l-1,0.2l-0.7,0.4l-0.6,1.9l-3.2,1.3
	l-0.5,1.2l-0.1,1.9l-1.7,1.3l-0.7,1.8l-2.2,0.4l0.3,1.7l-1.8,0.5l0.6,2.4l-1.7,0.5l-0.1,2.3l1.2,0.9l0.4,1.1l-0.5,0.6l1.1,0.5
	l0.3,1.3l-1.7,0.5l-2-1.6l0.6-0.7l-0.5-3.8l-0.2-1.9l0.3-3.2l-1.8-2.8l-1.3,0.2l-4-0.4l-5.1-1.8l-9.8-4.7l-3.2-0.3l-2.5,0.8
	l-1.3,1.5l-1.9,1.1l-3.2-0.1l-2.8-0.9l-2.1-2.3l-2.1-1.3l-1.3,1l-2.4,0.6c0,0-0.1,0.8-0.3,1.8s-0.7,2.2-1.4,3
	c-1.5,1.7-2.5,2.6-4.5,5.3c-1,1.3-1.6,2.6-2.2,3.8s-1.2,2.2-2,3c-0.8,0.8-1.4,1.3-1.9,1.7c-0.5,0.3-0.8,0.5-1.1,0.4
	c-0.5-0.2-0.9-0.9-1.3-2.3c-0.1-0.3-0.4-0.7-0.8-1.1c-0.4-0.4-0.9-0.7-1.4-1c-1-0.6-2-1.1-2.3-1.1c-0.6,0-4.3,0.8-6.6,0.6
	c-1.1-0.1-2-0.4-2.7-0.7c-0.6-0.3-1-0.6-1-0.6s1.2-6.7,1.2-7s0.4-3.4,0.8-4.6s1.6-4.2,1.6-4.2l1.9-4.1l1.6-2.7l0.2-3l-6.1-4.6
	l-2.4-0.4l-1.1,0.6l-0.8,1.5l-0.9,0.5l-1.2-1.2l-3.5-1.5l-2.2-2l-0.8-0.7l-1.7-0.5l-5.1,0.1l-3.2,0.5l-0.9-0.4l-1.3-4.2L459.1,468.8
	z"/>
<path id="D262" class="st0" d="M570.8,234.3l-2.9,0.7l-1.5-0.1l-1.6,0.7l-0.9,0.9l-3.7,1l-1.7,0l-2.3,1.5l0,0.1l-1.9,5.6l-0.3,2.2
	l0.2,2.7l-2,0.7l-1.1,0.1l-1.6,1.2l-0.5,0.8l-0.9,0.7l-0.5,2.2l-4,5l-1.9,0.6l-1.2,1.7l-1.5-0.1l-1.6,1l1.3,1.8l-0.2,1l-3.1,2.9
	l-0.7,2l-0.1,1.3l0.5,1.7l-0.7,0.2l-0.6,2.6l-1.1,0.4l-3.1,2.2l-2.8-0.1l-1.2,0.2l-1,1.4l-2,0.9l-4.8,3.2l-4.3,4.1l-0.9,2l-1.4,1.9
	l-1.9-0.6l-1.9,3.7l-4.4,0.4l-1.9,2.1l-1,1.7l0.5,3.4l-0.1,2.3l-0.4,1.1l0.2,2.1l4.4,4.9l1,1.7l3.3,1.1l0.3,2.9l-0.2,2.8l-0.5,0.9
	l0.5,1.8l3.2,3.4l3.4,2.4l1.3,0.4l1.8,0.2l3.3-0.6l2.9-1.6l1.8-1.7l3-4l2,1.8l3.2,3.6l2.2,0.5l2.7-2.4l2.3,0.5l2.9,3.1l4.2,2.5
	l1.9,4.5l0.9,3.9l1.6-0.3l-0.4,6.2l-0.7,2.6l-3.8,4.4l-0.9,3.4l-0.3,4.4l0.7,5.5l-0.1,2.1l1.3,3.5l1.1,6.2l1.8,1.9l1.8,6.1l-2.5,2.6
	l-1.7,1.5l-3.3,2.1l-2.9,3l-2.6,4.1l-1.5,1.4l3.4,2.8l3.8,0.8l2.1-0.6l3.4,0.2l1.4-0.3l3.6-2.7l3.7-1.1l2.8,0.4l3.3,1.8l3.5-1.8
	l3.1,0l3.1,0.6l2.3,1.4l3.6,2.1l1.5,1.5l1.3,0.4l-1,2.7l-5.4-0.8l-2.5,4l3.1,4.8l4.5-0.3l4.6-0.8l3.1,1.4l2.9,1.7l2.8,1.3
	c0.4,1,1,1.9,1.6,2.8c0.5,0.9,1,1.8,1.2,2.8l2.5,1.7c0.6,0.6,1.3,1.1,1.9,1.7c0.6,0.6,1,1.2,1,2c0.7,0.9,0.9,1.7,1,2.6
	c0.1,0.9,0.1,1.7,0.3,2.6l0.6-1.8l0.8-1.2l1.5-0.8l0.8-1l0.3-1.2l0.8-0.7l0.6-2.5l2.2-2.6l0.6-1.8l0.8-2.2l1.2-2.1l0.7-2l1.9-2.6
	l0.1-1l1.3-1.4l0.2-2l1.1-0.7l1.6,0.2l1.6,0.3l0.4-0.6c0,0,1.2-2.5,1.9-4.7c0.3-1.1,0.7-1.8,1.1-2.4c0.4-0.6,1-1,1.8-1.6
	c1.7-1.2,1.5-1.4,2.6-2.8c0.3-0.3,0.4-0.7,0.5-1.1c0.1-0.4,0-0.7,0-1.2c-0.1-0.8-0.1-1.8,0.4-3c0.5-1.2,0.8-1.8,1.1-2.2
	c0.3-0.4,0.6-0.7,1.2-1.6c1.1-1.7,0.7-1.5,1.8-2.5c0.5-0.5,0.9-1.2,1.3-1.9c0.4-0.7,0.7-1.4,1.1-1.8c0.8-0.8,1.4-2.1,1.7-3.2
	c0.1-0.6,0.2-1,0.2-1.4c0-0.4-0.1-0.6-0.3-0.6c0.3-0.1,0.4-0.5,0.3-1.2c-0.1-0.6-0.4-1.5-0.6-2.4c-0.3-0.9-0.6-1.8-0.8-2.5
	c-0.2-0.8-0.3-1.4-0.1-1.7c0.1-0.3,0-0.8-0.2-1.4s-0.6-1.3-1-2c-0.8-1.3-1.8-2.6-2.1-2.9c-0.3-0.3-0.7-0.5-1.1-0.8
	c-0.4-0.3-0.8-0.7-1.2-1.4c-0.3-0.6-0.6-1.5-0.6-2.3c0-0.8,0.1-1.5,0.4-1.7c0.7-0.4,3.6-4,3.6-4s2.2-3.7,2.2-4.3s0.7-3.3,0.7-3.3
	v-3.4l-6.6-0.6c0,0-3.5,1-4.5,1c-0.2,0-0.4-0.2-0.5-0.6c-0.1-0.3-0.1-0.8-0.2-1.3c0-0.9,0.1-1.9,0.1-1.9s6.3-8.5,6.7-9.1
	c0.4-0.6,6.6-10.1,6.6-10.1s0.6-2.1,1.3-4.3c0.7-2.2,1.5-4.5,2-5.1c0.4-0.5,0.7-1.7,0.9-2.8c0.2-1.1,0.2-2.2,0.3-2.5
	c0-0.3,1-0.8,2-1.4c1.1-0.6,2.3-1.1,3-1.5s1.4-0.5,1.9-0.9c0.2-0.2,0.3-0.4,0.3-0.8c0-0.4-0.2-0.9-0.5-1.6c-1.4-2.9-3.2-6.3-3.2-6.3
	l-6-4l-2.8-4.4c0,0-2.7-3.9-3.1-4.8c-0.5-0.9-1-3.7-1-3.7s-0.3-3.1-0.3-4.7s0.7-3.3,0.9-3.9c0.2-0.6,0.8-2.5,0.8-2.5l-0.4-1.2v-0.7
	l-1.3,0.3l-1.5,0.6l-1.9,1l0.1,1.3l-2-0.2l-0.5-0.3l-2,0.8l-1.8-0.2l-3.2-1.6l-4-0.6l-3-0.3l-5,1l-5.5-2l-3.8-2.7l-3.3-1.8l-1.8-2.4
	l-1.2-2.1l-1.6-1l-1.3-1.6l-1.8-0.7l-2.3-1.2l-4-3.9l-1.3-0.1l-3.7-3.4l-1.7,0.2l-1-2.3l-0.8-1.4l-0.7-2.1l-1.4-2.2l-1.5-0.1
	l-2.2-0.5L570.8,234.3z"/>
<path id="D267" class="st0" d="M347.5,274.3l-1.2-2.6l3.5-2.9l0.8-1.6l0-1l-0.6-1.3l1.9-4.2l-0.8-4.2l0-5.3l-1.1-2.9l1-2.8l-0.3-1.4
	l4.1-11l5.6-3.6l3.2-5.3l0.8-2.4l4.7-4.1l2-1l4.2-3.1l1.9-2.1l2.8-4.2l0.5-1.8l3.6-4.4l5.4-5.7l2.1-1.8l2.9-0.2l-0.3,1.6l-1.4,0.6
	l-0.2,1.1l0.3,3.4l-0.3,2.4l0.3,2.4l1.3,3.4l-0.1,2.6l-0.7,1.3l0.1,2.5l1.2,4.8l0.8,2.3l0.6,3.6l3.6,5.2l2.9,0.5l1,0.4l1.2,0.8
	l0.1,1.2l-2.3,3.1l-3.7,4.1l-3.3,7l0.4,2.8l1,1.6l1.4,1.2l1.6,2.2l0.8,2.2l-0.6,4.2l0.5,0.7l1.6-1.4l2.5-3.5l3.8-2.9l0.6-0.8l1,0.5
	l0.4,1.9l1.3,2.7l3.3,3l0.6,0.7l1.4,0.7l2.4,2.5l0.5,2.3l1.2,2.8l-1.4,5l-2,3.7l0,0.9l1,0.7l1.6-0.6l0.8-1.5l2.2-0.5l0.8,0l0.4,1.6
	l-4.7,7l0.1,2.3l1,3.7l0.2,3.7l0.9,5.3l0,1.5l-0.4,1.4l-3.4,6l-1.1,1.2l-1.7,1.2l-1.3,0.5l-0.8,1.2l1.1,1.2l0.9-0.1l2.2-0.9l2.7-0.5
	l1.7,0.5l1.2,1.6l3.9,2.1l2,1.5l2.3,0.1l1.2,0.6l0.5,2.3l-2.7,5.5l-3.1,4.2l-1.4,1.1l-2.8,1.4l-2.6,0.6l-2.6,2.2l-1.5,0.7l-3.1,0.3
	l0.2,1.7l1.2,1.5l3.9-0.1l-0.2,1.9l-0.6,1l1.7,3.4l3.3,3.1l1.5,3.3l4.6,2.6l3.1,3.3l1.2,3l-0.3,1.1l-1.3,1.5l-1.1,3.2l1.2,3.7
	l0.9,1.5l1,0.7v1.1l-0.7,1.2l-0.3,1.7l-1,0.7l-1.7,2.4l-0.7,2.6l-0.7,1.4l-1.1,0.8l-1,3.8l-1.6,3.3l-2.1,3.1l0.6,0.2l-0.9,2.4
	l-0.1,2.1l-0.6,1.9l-1.7,1l-3.1,1.5l-0.9,0.9l-1.3,1.3l-0.6,0.3l-1.3-0.3l-1.3-1.4l-1.3-1.3l-2.4-4.6l-2.3-0.7l-1,1.9l-1.7,0
	l-1.5,1.8l-2.2,0.4l-2.2-0.2l-2.9-0.3l-3.9-0.9l-1.3,0.5l-3.1,1.2l-2.7-0.1l-6.1,1.4l-1.4-0.4l-2.6-2l-2.6-2.5l-1.3-2.1l-1.1-1
	l-1.3,2l-1.2,1.2l0.4,1.7l-1.7,2.8l-2.3,1.4l-1.7,2.7l-1.9,2.5l-1.5-0.3l-1.4,0.2l-4.3,2.9l-1,1.4l-1.5,1l-1.5,0l-2.7-1.2l-8.3-4.8
	l-4.1,0.3l-3.7,1.1l-3.5,0.2l-2.1,0.9l-1.4,1.1l-3.6,6l-1.5,0.7l-2.1,0.3l-3.8,3.4l-1.5-0.3l-1.8,1.8l-3.1,1.8l-2.2,1.8l-3.8,0.7
	l-7.8,0.9l-3.1,1.4l-1.3,1.4l-2-0.6l-1.3,0.6l-0.6-0.4l-1.3-0.1l0.1,0.7l2.7,0.8l-1.2,1.9l-2.8,0l-2.2-0.3l-4.5-7.1l-0.1-3.2
	l-0.6-2.9l-5.1-5.1l0.8-2.8l1-5.9l-0.6-2.1l-1.1-0.8l-0.4-1.1l1.3-1.8l1.6-3.9l0.2-4.3l1.1-3.5l2.6-1l0.7-2.8l2.4-2.5l4-5.4
	l-0.7-0.6l-1.3-3.6l0.2-1.8l1.7-0.5l0.6-1.3l-0.1-1.9l0.8-3.2l2.1-0.9l1-1.1l0-1.3l-0.9-0.4l-1.9,0.1l-1.4-0.9l0.6-0.8l1.4-0.8
	l0-2.2l0.7-0.5l0-0.6l-1.9-0.7l-1-0.4l0.9-1.4l1.2,0l1.3,0.4l1.3-1l0.8-1.1l0.4-2.1l-1.3-1.6l-1.2-2.7l1.8-2.2l-0.2-2l0.3-1.5
	l1.5-2.8l1.6-2.2l3.4-2l1.8-2.2l1.7-0.9l1.8-1.5l0.4-2.5l-0.1-3.1l1.5-2.2l-0.9-2.3l1.4-1.7l0.9-2.3l1.9-3.9l1.4-2.1l4.5-2.3
	l2.2,0.7l2.1-3.5l0.7-2.3l-0.4-3.8l1.2-1.4l1.7,0.1l1.1-0.7l1.2-2.6l3-2.2l1.8-2.2l0.7-5.1l1.4-1.7l1.2,0.1l2.7,1.3l4-0.2l-3.6-2.8
	l0-1.2l1.8-0.8l4.5-0.9l1.2-1.3l1.5-0.2l0.5,0.7l-0.6,1.6l1.7,0.2l1-1.4l2-0.3l3.8,0.2l2.9-1.9l1.3,0.1l1.5-2.5l0.3-1.3l-1.8-0.4
	l-2.3,0.4L347.5,274.3L347.5,274.3z"/>
<path id="D266" class="st0" d="M470.7,296.6l-4.1,1l-0.7,1.5l-0.3,3l-1.6,1.1l-2.9,4.7l-3,6.5l1,2.6l-1.5,4l-1.5,1.8l-1.3,2.9
	l0.2,2.5l-1.6,1.3l-2.4,0.2l-8.4-2.8l-1.8-0.2l-5.7,3.9l-2.8,1.6l-2.8,1.1l-4.2,0.8l-2.8,1.4l-2.6,0.6l-2.6,2.2l-1.5,0.7l-3.1,0.3
	l0.2,1.7l1.2,1.5l3.9-0.1l-0.2,1.9l-0.6,1l1.7,3.4l3.3,3.1l1.5,3.3l4.6,2.6l3.1,3.3l1.2,3l-0.3,1.1l-1.3,1.5l-1.1,3.2l1.2,3.7
	l0.9,1.5l1,0.7v1.1l-0.7,1.2l-0.3,1.7l-1,0.7l-1.7,2.4l-0.7,2.6l-0.7,1.4l-1.1,0.8l-1,3.8l-1.6,3.3l-2.1,3.1l0.6,0.2l-0.9,2.4
	l-0.1,2.1l-0.6,1.9l-1.7,1l-3.1,1.5l-0.9,0.9l-1.3,1.3l-0.6,0.3l-1.3-0.3l-1.3-1.4l-1.3-1.3l-2.4-4.6l-2.3-0.7l-1,1.9l-1.7,0
	l-1.5,1.8l-2.2,0.4c0,0-0.5,5.8-0.5,7.6c0,0.9-0.6,2.4-1.2,3.8c-0.6,1.4-1.2,2.6-1.3,2.9c-0.1,0.6,0.4,5.9,0.6,7.4s1.2,5,1.2,5
	c-1.8,1.2-4.6,3-4.6,3l-5.8,4.7l-8.7,1.6c0,0-0.2,0.8-0.6,1.7c-0.4,0.9-0.8,2-1.4,2.5c-0.5,0.5-1,2.6-1.4,4.6
	c-0.4,2.1-0.6,4.1-0.8,4.7c-0.1,0.6-1.6,2.4-2.9,4c-1.4,1.6-2.7,3.1-2.7,3.1l7.4,7.1l4.5,6.1l5.5,4.7l0.1,0.1c1-0.6,2-1.2,2.5-1.5
	c0.2-0.2,0.6-0.2,1-0.2c0.4,0,0.9,0.2,1.3,0.3c0.9,0.3,1.8,0.8,2.1,1.1c0.2,0.2,0.1,0.5,0,1c-0.1,0.5-0.3,1.1-0.6,1.7
	c-0.5,1.2-1,2.2-1,2.2l-1,1.4l-3.7,6.5l-2.1,5.5l-1.8,3.3l4.1,0.8l3.8,2.3l3.9,0.8l3,0.5c0,0,1,0.1,2,0.2s2.2,0.1,2.6-0.2
	c0.4-0.2,0.9-0.7,1.3-1.3s0.7-1.3,0.6-1.9c0-0.6-0.1-1.4-0.2-2.3s0-1.7,0.2-2.3c0.4-1.2,1.6-2.6,2.2-4.2s1.5-2.4,2.4-3.7
	c0.9-1.2,3.1-5.7,3.3-6.5c0.2-0.8,1.2-3,1.4-3.4c0.7-0.1,1.6-0.3,2.5-0.5c2-0.5,4.2-1.3,6-2.4c1.9-1.1,4.3-2.1,6.8-3
	c2.5-0.9,4.9-1.6,6.7-1.9c3.5-0.6,12.9-2.6,12.9-2.6l10.5-1.3h3l1.3,4.2l0.9,0.4l3.2-0.5l5.1-0.1l1.7,0.5l0.8,0.7l2.2,2l3.5,1.5
	l1.2,1.2l0.9-0.5l0.8-1.5l1.1-0.6l2.4,0.4l6.1,4.6l-0.2,3l-1.6,2.7l-1.9,4.1c0,0-1.3,3-1.6,4.2s-0.8,4.3-0.8,4.6c0,0.3-1.2,7-1.2,7
	s0.4,0.3,1,0.6c0.6,0.3,1.6,0.6,2.7,0.7c2.2,0.1,5.9-0.6,6.6-0.6c0.3,0,1.3,0.4,2.3,1.1c0.5,0.3,1,0.7,1.4,1
	c0.4,0.4,0.7,0.7,0.8,1.1c0.3,1.4,0.8,2.1,1.3,2.3c0.2,0.1,0.6,0,1.1-0.4c0.5-0.3,1.1-0.9,1.9-1.7c0.8-0.8,1.3-1.8,2-3
	c0.6-1.2,1.3-2.5,2.2-3.8c2-2.6,3-3.6,4.5-5.3c0.7-0.8,1.2-2,1.4-3c0.3-1,0.3-1.8,0.3-1.8l2.4-0.6l1.3-1l2.1,1.3l2.1,2.3l2.8,0.9
	l3.2,0.1l1.9-1.1l1.3-1.5l2.5-0.8l3.2,0.3l9.8,4.7l5.1,1.8l4,0.4l1.3-0.2l-2.1-4.6l-3.5-6.2l-0.8-1l-6.1-4.6l-6.6-2.8l-2.9-1.7
	l-4-1.4l-6.1,0.7l-3.4-1.7l-3.4,0.9l-0.7-0.5l-2.7-4.1l2.8-2.9l0.4-1.1l-0.4-3.2l-1.8-2.8l-1.5-3.9l-3.4-5.1l-2.1-1.8l-4.2-1.6
	l-1.3-2l0.2-1.3l2.2-2.8l5.4-5l2.2-3.2l3-2.9l1-2.7l4.8-5l11.6-17.6l1.2-1.2l0.5-1.7l1.2-0.8l2-2.4l1.5-1.4l2.6-4.1l2.9-3l3.3-2.1
	l1.7-1.5l2.5-2.6l-1.8-6.1l-1.8-1.9l-1.1-6.2l-1.3-3.5l0.1-2.1l-0.7-5.5l0.3-4.4l0.9-3.4l3.8-4.4l0.7-2.6l0.4-6.2l-1.6,0.3l-0.9-3.9
	l-1.9-4.5l-4.2-2.5l-2.9-3.1l-2.3-0.5l-2.7,2.4l-2.2-0.5l-3.2-3.6l-2-1.8l-3,4l-1.8,1.7l-2.9,1.6l-3.3,0.6l-1.8-0.2l-1.3-0.4
	l-3.4-2.4l-3.2-3.4c0,0-2.8,3.1-2.8,3.1s-4,3-4.1,3.3s-0.1,3.3-0.1,3.3s-6.7-0.2-7.4-0.2c-0.8,0.1-16,3.2-16,3.2s-0.3-0.9-0.7-1.9
	c-0.4-1-0.9-2.1-1.3-2.4s-0.7-0.8-0.9-1.2c-0.2-0.4-0.3-0.8-0.3-1.1s0.2-0.7,0.3-1.2c0.1-0.5,0.1-1.1-0.1-1.5
	c-0.3-0.4-0.3-1.4-0.2-2.1c0.1-0.8,0.2-1.5,0.2-1.5l-0.3-1.9l1.2-1.6l-0.2-1.4l0.4-0.8l3.3-1.4l0.7-0.7l-0.4-1.3l-1.1-1l-0.6-1.9
	l-1.8-2.6l-1-4.4l-0.9-1.9l0-0.1l-2.6-1.8l-1.1-2.3l-0.1-2.2L470.7,296.6z"/>
<text transform="matrix(1 0 0 1 168.3703 503.0832)" class="textName">Dimapur</text>
<text transform="matrix(1 0 0 1 561.6008 465.6516)" class="textName">Kiphire</text>
<text transform="matrix(1 0 0 1 289.8068 523.2355)" class="textName">Kohima</text>
<text transform="matrix(1 0 0 1 562.0168 219.2419)" class="textName">Longleng</text>
<text transform="matrix(1 0 0 1 439.7473 243.6022)" class="textName">Mokokchung</text>
<text transform="matrix(1 0 0 1 653.174 153.4103)" class="textName">Mon</text>
<text transform="matrix(1 0 0 1 655.6027 389.1867)" class="textName">Noklak</text>
<text transform="matrix(1 0 0 1 106.9474 601.1086)" class="textName">Peren</text>
<text transform="matrix(1 0 0 1 430.7209 533.2336)" class="textName">Phek</text>
<text transform="matrix(1 0 0 1 545.7189 311.6403)" class="textName">Tuensang</text>
<text transform="matrix(1 0 0 1 330.9865 343.8669)" class="textName">Wokha</text>
<text transform="matrix(1 0 0 1 439.1926 415.673)" class="textName">Zunheboto</text>
</svg>
