<?xml version="1.0" encoding="utf-8"?>
<!-- Generator: Adobe Illustrator 26.0.0, SVG Export Plug-In . SVG Version: 6.00 Build 0)  -->
<svg version="1.1" id="Layer_1" xmlns="http://www.w3.org/2000/svg" xmlns:xlink="http://www.w3.org/1999/xlink" x="0px" y="0px"
	 viewBox="0 0 800 730" style="enable-background:new 0 0 800 730;" xml:space="preserve">
<style type="text/css">
	.st0{stroke:#000000;stroke-miterlimit:10; cursor:pointer;}
	.textName{font-family:'Arial'; font-weight:bold; color:#000000; font-size:14px; cursor:pointer;}
</style>
<path id="D291" class="st0" d="M422.1,155.7L422.1,155.7l-0.1,0.1v0.1l0.1,0.1h0.1v-0.1L422.1,155.7l0.1,0.1v0.2v0.1v0.1l0.1,0.1
	v0.1l0,0l0,0h-0.1l0.1,0.1h0.1l-0.1,0.1l0,0l0,0l0,0h0.1l0.1,0.1v0.1l0.1,0.1v0.1h0.1v0.1l0,0V157l0,0v0.2v0.1v0.1v0.1l0,0v0.1
	l0.1-0.1l0.1-0.1v0.1l0.2,0.1l0,0l0,0h0.1l0,0l0.1,0.1h0.1l0,0v0.1l0,0l0,0l0,0v-0.1h0.1l0,0v0.1l0,0l0,0l0.1,0.1v0.1l0,0l0,0l0,0
	l0,0l0,0l0,0v0.1v0.1v0.1v0.1v0.1l0,0l0,0h0.1l0,0v-0.1h0.1l0,0v0.1l0,0l0,0h0.1v0.1l0,0h0.1l-0.1-0.1l0,0v-0.1v-0.1h0.1h0.1v0.1
	h0.1l0,0l0,0v0.1h0.1v-0.1l0,0h0.1l0,0l0,0v0.1v0.1l0.1,0.1v0.1v0.1h0.1h0.1l0,0v-0.1l0,0v-0.1l0,0l0,0l0.1,0.1l0,0l0.5-0.3v-0.1
	h0.1h0.1l0,0v0.1h0.1h0.1l0.1-0.1l0,0l-0.1,0.1h0.1l0.1-0.1l0,0v0.1l0,0l0,0h0.1h0.2l0,0v-0.1l-0.1-0.1l0,0l0,0v-0.1v-0.1l0,0h0.1
	V158l0,0l0,0h0.1l0.1,0.1h0.1l0,0V158v-0.1l0,0v-0.1v-0.1l0,0l0.1-0.1v-0.1l0,0v-0.1v-0.1h0.1l0,0l0,0l0,0l0,0l0,0l0,0l0,0l0,0l0,0
	v-0.1v-0.1l0,0h0.1l0,0l0.1,0.1l0,0l0,0l0,0l0,0l0,0h0.1h0.1h0.1h0.3l0,0l0,0l0,0v-0.1V157l0,0v-0.1l0,0l0,0l0,0h0.1l0,0v-0.1v-0.1
	l0,0l0,0v-0.1v-0.2l0,0l0,0l0,0l0.1-0.1l0,0h0.1v-0.1l0,0v-0.1V156l0,0l0,0h0.1v-0.1l0,0l0,0l0,0v-0.1l0,0v-0.1v-0.1v-0.1h-0.1l0,0
	v-0.1l0,0h0.1h0.1v-0.1h0.1l0,0l0,0l0,0l0,0v-0.1h0.1l0,0v0.1l0,0h0.1v-0.1l0,0l0,0l0,0v-0.1l0,0v0.1l0,0h0.1l0,0h0.1l0,0l0,0l0,0
	l0.9-0.6v-0.7v-0.1v-0.3l0,0v-0.1l-0.1-0.2v-0.1V153l0,0l0,0h0.1v-0.1l-0.1-0.1l-0.1-0.1h0.1h0.2l0,0l0,0l0,0l-0.1-0.1v-0.1
	l-0.1-0.1v-0.1l0,0h0.1v-0.1l-0.1-0.1l-0.1-0.1v0.1l0,0h-0.1V152l0,0v-0.1v-0.1h0.1h0.1l0.1-0.1v-0.1l0.1-0.1l0.1-0.1h0.1l0.1,0.1
	h0.1l0.2-0.4l1.3-0.8l0.3,0.1l0.9,0.3l-0.9,1.1l0.1,0.1l0.3,0.3l0.1,0.1v0.1v0.1l0,0l-0.1,0.1l-0.1,0.1l-0.2,0.1h-0.3h-0.1h-0.1l0,0
	l-0.1,0.1l-0.1,0.1v0.2v0.1v0.1l0,0v0.2l0.1,0.2v0.1l0.1,0.1h0.1l0.1-0.1l0.1-0.1l0.1-0.1l0.1-0.1l0.2-0.1h0.1h0.1h0.2h0.3l0.2-0.1
	h0.1h0.1h0.1l0.1,0.1l0.6-0.2l0,0l0.4,1.2v0.1l0.7,0.9l0.6,1l0,0l-1.1-0.1h-0.3l0.3,0.2l0.3,0.1l0.1,0.1l0.1,0.1l0.1,0.1v0.3v0.1
	v0.1l-0.1,0.1h-0.1l-0.3-0.1h-0.1l-0.1-0.1l-0.1-0.1l-0.2-0.3l-0.1-0.1h-0.1h-0.1h-0.1h-0.1l-0.1,0.1l-0.1,0.1l-0.1,0.1v0.2v0.2v0.1
	l0.1,0.3l0.1,0.2l0.2,0.2l0.1,0.2l0.1,0.1l0.1,0.1v0.1v0.1v0.1l-0.1,0.2l-0.1,0.1h-0.1l-0.1-0.1l-0.1-0.2l-0.1-0.1l-0.1-0.1h-0.2
	L433,159l0,0v0.1v0.2l-0.1,0.5h0.5l-0.1,1.2l-0.1,0.9l-0.1,0.1l-0.7,0.9l0,0h-0.3l-0.2-0.4v0.1h-0.1l-0.2-0.2l-0.2-0.3l-0.1-0.1
	h-0.1H431h-0.2l-0.2,0.1l-0.1,0.2v0.2l0.1,0.1l0.1,0.1h0.1l0.2,0.1l0.1,0.1l0.1,0.1l0.1,0.1l0.1,0.1v0.2l-0.2,0.6l0.1,0.1l0,0v0.1
	v0.1v0.1l0,0l0,0v-0.1v-0.1v-0.1l0,0V164h0.1h0.1l0,0h0.1l0,0v0.1v0.1v0.1l-0.1,0.1v0.1v0.1v0.1v0.1l0,0l0,0h0.1v-0.1l0,0v-0.1l0,0
	l0,0l0,0v0.1v0.1v0.1v0.1l0,0l0.1-0.1l0.1-0.1v0.1l0,0v0.1v0.1v0.1v0.1l0,0v0.1v0.1l0,0h0.1h0.1h0.1h0.1l0,0v0.1l0,0l0,0l0,0h-0.1
	H432h-0.1l0,0l0,0l0.1,0.1v0.1v0.1l0,0v0.1v0.1l0,0h-0.1h-0.1h-0.1v0.1v0.1v0.1l0.1,0.1l0,0l0,0v0.1l0,0v0.1v0.1v0.1l0,0h-0.1l0,0
	l-0.1,0.1l0,0l0.1,0.1h0.1v0.1l0,0l0,0h0.1l0,0l0,0h0.1l0,0l0,0v0.1l0,0l0,0l0,0l0,0l0,0l0,0v0.1v0.1l0,0l0,0l0,0l0,0l0,0v0.1l0,0
	l0,0l0,0l0,0v0.1v0.1l0,0l0,0l0,0v0.1l0,0v0.1l0,0v0.1l0,0l0,0l0,0h0.1l0,0H432l-0.1,0.1l0,0v0.1l0,0h0.1h0.1v0.1l-0.1,0.1l0,0l0,0
	l0,0v0.1v0.1l0,0l0,0l0,0l0,0l0,0h0.1l0,0l0,0l0,0h0.1v0.1v0.1v0.1l0,0v0.1v0.1l0,0v0.1l0,0l0,0l0,0l0,0v0.1v0.1v0.1l0,0l0,0h0.1
	v0.1l0,0v0.1l0.1,0.1l0,0v0.1h0.2l0,0v0.1l0,0l0,0v0.1l0,0l0,0h0.1l0,0l0,0l0,0l0,0v0.1l0,0l0,0l0,0v-0.1v-0.1V170h0.1l0,0h0.1l0,0
	v-0.1l0,0l0,0l0,0l0,0l0,0l0,0l0,0l0,0l0,0h0.1l0,0v-0.1l0,0l0.1-0.1v-0.1v-0.1l0,0l0,0l0,0l0.1,0.1l0,0v0.1l0,0h0.1l0.1-0.1l0,0
	l0,0l0,0h0.1l0,0l0,0l0,0l0,0h-0.1v0.1l0,0h0.1h0.1l0,0l0,0v0.1l0,0l0,0l-0.1,0.1l0,0l0,0l0,0v0.1l0,0v-0.1h0.1l0,0l0,0h0.1l0,0l0,0
	v-0.1l0,0v-0.1l0,0h0.1l0,0v0.2l0,0l0.1-0.1h0.1l0.1,0.1v0.1v0.1l0,0h0.4V170l0,0l0.1-0.1h0.1l0.1,0.1v0.1l0,0l0,0V170v-0.1l0,0h0.1
	v-0.1l0,0v-0.1l0,0l0,0l0,0h0.1l0.1,0.1l0,0v0.1L435,170l0,0v0.1v0.1v0.1v0.1h0.1v-0.1v-0.1l0,0l0,0v0.1l0,0v-0.1l0,0l0,0l0,0l0,0
	v0.1l0,0v0.1l0,0l0.1,0.1h0.1h0.1l0,0l0,0l0,0v0.1l0,0l0.1,0.2l0,0l0.1,0.1h0.1h0.1l0,0h0.1l0,0l0.1,0.1v0.1v0.1v0.1v0.1v0.1v0.1
	v0.1v0.1l0,0v0.1v0.1v0.1l0,0h0.1l0,0l0.1,0.1l0,0l0,0l-0.1,0.1v0.1l0,0h0.1h0.1l0,0l0,0l0,0v0.1l0,0l0,0l0,0l0,0h0.1h0.1h0.1
	l0.1-0.1v-0.1v-0.1v-0.1V172l0,0l0.1-0.1l0,0v0.2v0.1l0,0v0.1l0.1,0.1h0.1l0,0l0,0l0,0v-0.1l0,0l0,0l0.1-0.1l0.1-0.1l0,0l0,0
	l-0.2,0.1l0,0l0,0h0.1v-0.1l0,0v0.1v0.1l0.1,0.1l0,0h0.1h0.1v0.1v0.1l0,0v0.1l0,0v0.1l0.2,0.2l0,0l0,0l0,0h0.1l0,0v0.1l0,0l0,0l0,0
	h0.1h0.1V173l0,0l0,0l0,0v-0.1v-0.1v0.1l0,0l0.1,0.1l0.1,0.1l0.1,0.1l0,0l0,0l0,0h0.1l0,0l0,0v0.1l0,0l0,0h-0.1l0,0l0,0l0.1,0.1
	l0.1,0.1l-0.1,0.1l0,0l0,0l0,0l-0.1,0.1v0.1v0.1v0.1h-0.1l0,0l0,0H438v0.1l0,0v0.1l0,0l0,0h0.1l0,0h0.1h0.1l0,0v0.1l0,0h-0.1l0,0
	l0,0v-0.1h-0.1v0.1v0.1h0.1l0,0v0.1v0.1l0,0h0.1h0.1l0,0l0,0l-0.1-0.1l0,0v-0.1l0.1-0.1l0,0v0.1l0,0h0.1l0,0v-0.1l0,0h0.1h0.1h0.1
	h0.1v0.1v0.1l0,0l0,0h-0.1v0.2v0.1l0,0h0.1v-0.1l0,0l0,0l0,0h0.1l0,0l0,0l0,0l0,0h-0.1v0.1l0,0h0.1l0,0l-0.1,0.1l0,0l0,0h-0.1
	l-0.1,0.1h-0.1h-0.1l0,0l0,0l0,0l0,0l0,0l0,0l0,0l0,0h-0.1v0.1l0,0v0.1l0,0l0,0l0,0v0.1v0.1l0.1,0.1v0.1l0,0h-0.1h-0.1l0,0v0.1v0.1
	l0,0l0,0l0.1-0.1l0,0l0,0l0.1,0.1l0,0l0,0l0,0h0.1l0,0l0,0l0,0l0,0v0.1v0.1l0,0l0,0l0,0v-0.1v-0.1l0,0l0,0v0.1l0,0v0.1v0.1l0,0l0,0
	v0.1l0,0h0.1h0.1h0.1l0,0v0.1l0,0h-0.1l0,0h0.1v0.1v0.1v0.1l0,0h-0.1v0.1v0.1v0.1v0.1v0.1v0.1v-0.1l0,0l0,0v0.1l0,0l0,0l0.1,0.1l0,0
	h-0.1l0,0l-0.1-0.1l0,0l0,0l0,0l0,0v0.1l0.1,0.1v0.1v0.1l0,0l0,0l0,0v-0.1l0,0l0,0l0,0l0,0l-0.1,0.1l0,0l0,0v0.1l0,0v0.1l0,0h0.1
	v0.1v0.1l0,0h0.1l0.1,0.1l0,0l0,0l0,0l0.1-0.1l0,0h0.1v0.1l0,0v0.1v0.1v0.1v0.1h0.1v0.1l0,0v0.1h-0.1l0,0l0,0l0,0l0,0v0.1l0,0h-0.1
	l0,0l0,0l0,0l0,0l0,0l0,0l0,0l0,0h0.1v0.1h-0.1v0.1h0.1l0,0h0.1l0,0l-0.1,0.1v0.1v0.1h-0.1H439l0,0l0,0l0.1,0.1l0,0h0.1v0.1h0.1l0,0
	v0.1h-0.1v0.1h-0.1v0.1v0.1l0,0H439l-0.1,0.1v0.1h-0.1l0,0l0,0l0.5,0.9l0,0v0.1V181v0.1v0.1v0.2l0,0l0,0l0,0h0.1l0,0l0,0h0.1v0.1
	v0.1v0.1l0,0l0,0v-0.1l0,0v0.1l0,0l0,0l0.1,0.1l0,0l0,0l0,0v0.1l0.1-0.1v-0.1l0,0l0.1,0.1v0.1h-0.1l0,0l0.1,0.1v0.1l0,0l0,0l0,0
	l-0.1-0.1l0,0l0,0v0.1v0.1l0,0l-0.1-0.1v0.2v0.1l-0.1,0.1l0,0l0,0l0,0h0.1l0,0v0.1v0.1l0,0l0.1,0.1l0,0v0.1l0,0l0,0h0.1v0.1l0,0
	h-0.1l0,0v0.1l0,0v0.1l0,0h-0.1h-0.1l0,0l0,0l0,0h0.1l0,0l0,0h0.1l0,0l0,0l0,0v0.1l0,0h0.1h0.1l0,0v-0.1l0,0v0.1v0.1v0.1l0,0h-0.1
	l0,0l0,0l0,0l0,0v0.1l0,0v0.1h0.1l0,0l0,0l0,0l0.1,0.1l0,0l0.1,0.1l0,0l0,0l0.1-0.1v-0.1l0,0v-0.1h0.1h0.1l0,0l0,0l0,0v0.1l0.1,0.1
	l0.1,0.3l0,0v0.1l0.1,0.3h0.1l0,0l0.1,0.1l0.1,0.1l0.1,0.1l0.1,0.1h0.1l0,0l0,0v0.1l0,0v0.1h0.1l0.1-0.1v0.1l0,0v0.1l-0.1,0.1l0,0
	v0.1v0.2l0,0h0.1l0,0v0.1l0,0v0.1v0.1l0.8,1l0,0l0,0h0.1l0.2,0.1l0,0l0,0l0,0l0,0v-0.1h0.1h0.1l0,0l0,0l0,0v0.1v0.1l0,0l0,0l0,0l0,0
	h0.1h0.1l0,0l0,0v0.1v0.1l0.7-0.2l0.4-0.4l0,0l0.4-0.5l0.4-0.1l0.5,0.3l0,0h0.1l0.1-0.1l0,0h0.1l0,0l0,0h0.1l0,0l0.3,0.3l0.8,0.7
	h0.1v0.2l3.7,7.6l0.3,1.8l-0.7,1.6l3.7,3.7l2.7,2.5l2.2,1l1.8,0.7l2.2,1.3l2,1.8l2.7,3.8l0.9,1.4l0.9,0.6l2.8-0.3l2-2l2.2-2l3.3-2.3
	l1.8-2.4l3.9-0.5l8-2.4l5.3-1.6l0.3,8.5l-0.4,6.3l0.3,4.9l1.6,3.7l1,2.8l-1.3,5.6l-2.5,1.5l-2.8,1.1l-0.3,5l1.8,3.7v3.7l1.1,2.5l3-1
	l3,0.5l2,2.7l3.7,1.1l-0.1,3.9l1.9,2.3l0.8,2.3l-0.7,3.7l-0.9,2.5l-0.8,1.4l-0.1,0.7l0.5,3.1l0.9,0.3l2.2-0.1l1.2,0.6l0.8,1l3.3,0.9
	l3.3-1.2l0.5,0.3l1,1.4l0.1,1l0.9,2.4l0.6,2.4l0.7,7.1l1,2.7l1.2,1.6l0.3,2.4l2.5,10l0.9,5l-0.1,5.2l-0.5,1l0.3,3.1l-0.1,4.6
	l0.5,2.3l-0.1,6.6l0.5,1.8l0.1,3.3l-0.1,2.4l0.4,3l0.5,1.5l-0.7,1.2l0.1,0.5l-0.3,0.5l-0.1,2.1l0.7,2.1l0.5,0.3l2.2,0.1l1.2,0.9
	l0.7,1.2l0.1,0.8l-0.5,2.1l-0.3,0.6l-0.7,0.2l0,0l-1.3,0.4l0,0l-1.5,0.8h-0.2l-0.4,0.2l0,0l-0.1,0.2l-0.3,0.2h-0.3h-0.2l-0.3,0.2
	l-0.1,0.2l-0.3,0.1l-0.1,0.2v0.2v0.3l-0.1,0.2l-0.2,0.2l-0.2-0.1l-0.1-0.1l0,0l-0.3,0.1l-0.3,0.2l-0.3-0.2l-0.1-0.5l-0.3,0.1l0,0
	v-0.1h-0.2l-0.2,0.2v0.1l-0.2,0.1h-0.2l-0.3,0.3l-0.2,0.1l-0.2,0.2l-0.1,0.5l-0.1,0.4v0.5l-0.1,0.2h-0.2v0.4l-0.1,0.6v0.4v0.4
	l-0.1,0.1l-0.1,0.4H526l-0.2,0.4v0.3l-0.4,0.4v0.1h-0.1v-0.1l-0.2,0.3l0.3,0.3l-0.3,0.1v0.2l-0.5,0.2l-0.1,0.4h-0.2v0.1l-0.2,0.1
	l0.1,0.2l-0.2,0.2l-0.1,0.3h-0.2h-0.1v0.1v0.4l-0.5,0.4l-0.3,0.6l0.1,0.3l-0.1,0.2l-0.1,0.1l-0.1,0.1h-0.1l-0.1,0.4l-0.3,0.3H522
	h-0.1l0,0v0.4l-0.3,0.2l-0.2-0.1l-0.3,0.4l-0.1-0.1l-0.3,0.2v0.4h-0.1l0.1,0.2l-0.2,0.5l-0.1,0.5l0.2,0.4l-0.2,0.2l0.1,0.4l-0.3,0.2
	v0.2l-0.2,0.2l0.2,0.2l-0.1,0.4l0.3,0.3l-0.3,0.3l0.1,0.4l0.1,0.1l-0.3,0.3l-0.5,0.7l-0.2,0.2v0.1l-0.2,0.1l-0.7,0.9l-0.3,0.4
	l-0.8,1.1l-0.3,0.5l-0.3,0.5l-0.6,1.1l-0.2,0.3v0.1l-0.2,0.6v0.1l-0.3,0.6l-0.9,1l-0.4,0.2h-0.2l-0.3,0.1l0,0l-0.6-0.3l-0.3-0.2
	l-0.1-0.1l-0.1,0.2h-0.1h-0.1l-0.3,0.1l-0.3-0.2l-0.2,0.1l-0.3-0.3h-0.5l-0.2-0.3l-0.3,0.2l-0.1,0.1l-0.1,0.1v0.2l-0.1-0.1l-0.4-0.4
	l-0.4-0.3l-0.3-0.1l-0.1-0.5l-0.3,0.1v0.1v0.3l-0.3-0.3l-0.1-0.1l-0.1-0.2l-0.2,0.3h-0.1h-0.4l3.8,3.2l0.1,0.8l-0.4,0.5l-0.1,0.1
	v0.5l-0.2,0.7l-0.2,0.8H510l-0.5,0.1l-0.3,0.7l-0.4,0.7l0.1,0.1l0.1,0.2l0,0l0.3,0.2l0.1,0.5v0.2l0.2,0.1l0.2,0.1v0.2v0.1l0.2,0.7
	l-0.2,1l-0.2,0.5l-0.1,0.4l0.2,0.8v0.1l-0.1,0.2l-0.4,0.4l0.2,0.2h0.1v0.1l-0.2,0.6l0.2,0.2l-0.1,0.3l0.2,0.6l0.1,0.5l-0.3,0.1
	l-0.6-0.2l-0.3,0.1l-0.3,0.5l-0.2-0.1l-0.1,0.1l-0.4,0.3l-0.5-0.2l-0.3-0.1l-0.3-0.2l-0.4,0.1l-0.3,0.4l-0.3,0.1l-0.1,0.3H505
	l-0.5,0.2v0.2v0.1l-0.5-0.2l-0.1-0.3l-0.1-0.4l-0.5-0.1l-0.1-0.2l-0.4-0.1l-0.2-0.2h-0.3h-0.2l-0.2-0.2h-0.6l-0.3-0.1h-0.1h-0.1
	l-0.2-0.1l-0.1,0.1l-0.2-0.2H500l-0.1,0.4l-0.4,0.2v-0.1l-0.1,0.4v0.1h-0.5l-0.3-0.6l-0.2-0.1h-0.1l-0.3-0.1l-0.3,0.3l-0.6-0.3
	l-0.5-0.8l0.1-0.4l-0.4-0.3l-0.2-0.1l-0.1,0.1l0,0l0,0v-0.3l-0.4-0.3h-0.1h-0.2l-0.1-0.1h-0.1l-0.3-0.5v-0.2h-0.3h-0.1v-0.1v-0.2
	h-0.2h-0.1v-0.1l0.1-0.4H494h-0.1v-0.3h-0.2l-0.1-0.2l-0.4,0.2L493,399l0,0l-0.1-0.2l-0.1,0.1h-0.1v-0.1h-0.2l-0.1,0.3l-0.4,0.1v0.1
	v0.1l-0.1-0.1l-0.1-0.1h-0.1l-0.2-0.1l0,0h-0.1h-0.1l0.1-0.3v-0.1v-0.1v-0.2l0.3-0.3l0.2-0.4l-0.1-0.1l0.1-0.3l-0.3-0.2h-0.1l0,0
	l-0.1,0.3l-0.2-0.1l0,0v-0.1v-0.1h-0.1h-0.3l-0.2,0.2l-0.1-0.2l-0.1-0.2l-0.5,0.3l-0.3,0.3l-0.3,0.2l-0.2,0.6l-0.4-0.2l0,0l-0.2-0.5
	l-0.1-0.7l-0.1-0.2l-0.1-0.1l-0.3,0.1l-0.2,0.2l-0.3-0.2l-0.1-0.1h-0.2h-0.2l-0.2-0.1l-0.2-0.4l-0.3-0.9l-0.1-0.4l0.2-0.4l-0.2-0.3
	l-0.1-0.6l-0.4-0.4L485,393l-0.5,0.5h-0.1h-0.2l-0.2-0.3v-0.9l0.2-0.1l-0.3-0.4l-0.1-0.1v-0.3v-0.2l-0.1-1.1v0.2l-0.4-0.6l-0.3-0.2
	l-0.1-0.1v-0.1l-0.2-1.2l-0.2-0.4v-0.5l-0.2-0.4l-0.1-0.3l0.1-0.4l-0.4-0.1l-0.1-0.8l0.2-0.7l-0.1-0.7l-0.1-0.2l-0.1-0.7l-0.5-0.5
	l-0.3-0.8l-0.3-0.9l-0.4-0.6v-0.4l0.1-0.2l-0.1-0.2l0.1-0.8l-0.2-0.5l-0.3-1v-0.6l-0.1-0.7v-0.1l-0.3-0.7l0.1-0.3l-0.1-0.6v-0.2
	l-0.3-0.4l0.1-1.2l0.2-0.4l-0.2-0.8l-0.1-0.5h-0.3l-0.1-0.4l-0.2,0.2l-0.2,0.2l-0.6,0.1l-0.2-0.2l-0.1-0.6l-0.2-0.6v-0.5l-0.2-0.5
	l-0.4-1.2v-0.1v-0.8l-0.4,0.1l0.1,0.7l0,0l-2.1,0.5l-0.6,0.1l-0.1,0.2h-0.4l-0.1-0.1h-0.3l-0.6,0.3l-0.7,0.6l-0.9,1.9l-0.6,1.2
	l-0.3,0.6v0.5l0.2,0.9l0.3,1.2v1.3l-0.6,0.9v0.3v0.2l0.3,1.3v0.2v0.1l0.1,0.7v0.4v0.1v0.1l-0.1,0.6l-0.4,0.7h0.1h0.2v0.6v0.8v0.2
	h-0.6l-0.6,0.3l-0.4,0.7l-0.1,0.2l-0.1,0.1l0,0l-0.7,0.7l-0.2,0.2l0,0l-0.1,0.1l0,0l-1,1v0.1l-0.3,0.3v0.1l-0.5,0.8l-0.1,0.6v0.2
	l0.4,2.1l0,0l1,3.6l0,0l1,4.4l0.6,4.9l-0.1,3.3v1l-0.1,1.8l0.3,1.5l0.1,0.3l0,0l0.9,2.2l0.6,2.5v1.6v2.7l-0.6,5.3l-0.3,1.2l0.1,0.6
	l0.4,0.8l-0.4,1.3l0.1,0.2l0.2-0.1l0.3-0.2l0.4-0.1l0,0l0.7,0.4l0,0l1.1,2.2l0.5,1.1l0,0l-0.1,1.6l-0.5,1.5v0.1l-0.2,0.5l0,0
	l-0.1,0.4l0,0l-0.2,1v0.2l0.1,0.3l0.1,0.4l0,0l0.3,0.4l0.1,0.1v0.5v0.1v0.1l0.1,1v0.4l0,0l0.3,1l0.1,0.3l0,0l0.1,0.1l0.5,0.7
	l-0.2,1.2l-0.1,0.4l-0.1,1.2v0.1L472,448l-0.1,0.6l-0.1,0.2v0.1l-0.1,0.7l-0.2,0.3l0.2,0.4l0.1,0.6l0.1,0.7l0.5,0.8v0.1l-0.3,0.8
	l-0.6,0.1l-0.9,0.3l-0.3,0.8l0,0l-0.4,0.5l-0.2,1.5l0.5,1.5l0.6,1l0.1,0.6h0.1l1.3-0.2l-0.4,0.6l0.3,0.7l0.3,0.2l0.3,0.1v0.1
	l0.7,0.5l0.2,0.6l0,0v0.6v0.1v0.5l0.1,0.3l0.4,0.3l0.5,0.6l0.4,0.5l0.4,0.7l0,0l-0.1,0.3v0.2l-0.5,0.6l-0.1,0.5l-0.1,0.6l0.2,0.6
	l0.2,0.4l0.8,0.3l0.3,0.1v0.4l0,0l-0.1,0.4l-0.6,0.6l-0.1,0.1h-0.1L475,472l0.3,0.9v0.1l0,0l0.2,0.7v0.1v0.4l0.2,1.4l-0.6,0.7
	l-0.5-0.1l-0.5-0.2l0,0h-0.2h-0.1l0.1,1.3l-0.2,0.9l-0.6-0.3v-0.4l-0.3-0.1l-0.3-0.1l-1,0.1h-0.3l-1.1-0.6l0.1,0.9l0.1,0.4v1.5
	l-0.5-0.5l-0.2-0.8l-0.4,0.2l-0.2,0.3l-0.1,0.1l-0.3,0.3l-0.2,0.3l-0.2,0.4l-0.1,0.8l-0.8,0.1H467h-0.1l-0.2,0.2v1.3l-0.7,0.4
	l-0.3-0.8l-0.7,0.5v0.1l0,0l-0.1,1l0,0l-0.2,1.1v0.3l0.4,1.4l0.3,0.8l0.2,0.5l0.1,0.3l0.4,1.5l0.1,0.4l0,0l0.2,0.8v0.5v0.1l0.1,1
	l-0.2,0.3l0,0l-0.1,0.2l-0.1,0.5l-0.5,0.8l-0.7,0.6l-0.1,0.1l0.1,0.5l-0.1,0.8l-0.2,0.1l-0.3-0.1l-0.2-0.1l-0.1,0.2l-0.5,0.3
	l-0.4,0.7l-0.3-0.2l-0.4-0.2l-0.3-0.2l0.2-0.7l-0.2-0.1l-0.3-0.2l0.2,0.5l-0.5,0.3l-0.3-0.4l-0.2,0.3h-0.3l-0.2,0.2l-0.5,0.1
	l-0.1-0.2l-0.4,0.1l-0.3,0.2l-0.2-0.5l-0.2-0.2l-0.2-0.4l-0.2-0.2v-0.5l-0.2-0.1l-0.3-0.3l-0.3,0.2l-0.1-0.5l-0.2-0.1l-0.3,0.5
	l-0.2-0.2l-0.2,0.1l-0.1,0.2l-0.2,0.1l-0.2,0.2l-0.2,0.2l-0.3-0.2v0.3h-0.5l-0.5-0.1l-0.2,0.1l-0.3,0.1l-0.2-0.1h-0.2l-0.2-0.1
	l-0.3,0.2l-0.2-0.4l-0.3,0.1l-0.2-0.4h-0.1l-0.3-0.1l-0.1-0.3l-0.1-0.1l-0.6-0.4l-0.3-0.1l-0.2,0.1l0.1,0.4l0.1,0.1v0.1v0.1v0.2
	l-4.5-3.5l-3-1.1l-3.1-2l-0.7-2l0.4-1.8l1.1-2.5l-7.3-0.6l-2.7-5H428l-3.2,5.5l3.6,5.8l2.2,6.3l-1.9,5.4l-4.1-1.1l-3.3,4.8l-0.5-7.8
	l-4.4,4.4l-1.6-4.4v-4.4l-2.4-12.4l-7.2-6.6l-0.6-4.4l-3-4.4v-4l-0.5-6.6l-3.1,1.5l-5.2,3.3l-3.3-6.3l3.1-3.7l3,0.7l3.3-2.5
	l-1.9-9.5l-6.1-1.5l-0.3-5.5l-1.6-10.3l0.8-7l1.1-9.2l-0.5-8.4l-1.6-2.6v-4l-3.8-0.4l-2-2.9l2-5.1l1.9-6.6v-8l-1-8.1l0,0h1.4
	l0.9-2.2l0.9-1v-0.1l0,0l1.4,0.5l0,0l0.5,3.3l0.9,0.5l0,0l0.9,3.7v0.1l2.9,2.4l0.4,0.3h0.5l1.9,2.2v2.2l0.4,1.6l0.9,0.6v2.7
	l-0.9,3.2l-2.8,3.2l0,0l-0.9,2.7l0.5,1.1l1.2,0.5l0.2,0.1l1.4,1.6v0.1l0.9,2.7l1.9,2.2l0.5,3.3l0,0l1.4-1.6l0,0l0.9-1.6l1.4-1.1
	v-0.1l0.5-1l0.9-0.2l0,0l3.7-0.9l1.4-2.7l-0.2-1.4l-0.3-3.1l-0.8-1.2l-0.6-1l0.9-1.6l-0.9-3.8l0.4-0.9l4.2-9.3l-2.3-3.3l-1.9-9.2
	l0,0v-4.3l1.4-4.3l-0.1-0.6l-0.8-3.3l2.3-2.1v-1.1h-1.9l0,0l-0.5-1.6l-2.3-3.8l-0.5-1.6l0,0l1.4,1.1l0,0l1.4,0.5l0.9-0.5l1.4,0.5
	l0,0v-4.3l0,0l0.4-2.1l0,0v-1.6l-0.5-2.7l0.4-3.3v-8.2l0.5-3.8v-0.1l0.4-1.6l-2.3-2.7l0.4-3.2l0,0l-1-6.5l-0.6-0.4l-4.5-2.9
	l-0.5-3.7l1.9-2.2l-0.9-1.6l-0.4-2.7l0.1-2.1l0,0l-0.3-2.2l-1.4-0.5L404,269l0.2-2.6l0.7-2.2l0.2-2.2l-0.2-2.7v-0.1l-0.7-3.2l1-5.8
	l0,0l0.5-4.7l-0.2-2.5l0.4-2.1l0,0v-0.4l0.1-2l-0.9-2.3l-0.4-2.3l0,0l0.5-3.2l-0.3-4.5l-0.5-2.7l0.2-0.5l0.4-1.1l-0.3-1.4l-1.6-2
	l1.9-6.8v-0.6l0.1-2.2l-0.7-8.1l0,0l1.7-10.8l-1-1l-0.6-0.6l1.1,0.3v-0.1v-0.1v-0.1v-0.1v-0.1v-0.1V188v-0.1v-0.1v-0.1l0,0l0,0l0,0
	l0,0v-0.1v-0.1v-0.1v-0.1l0,0V187l-0.1-0.3l-0.1-0.2l-0.1-0.3l-0.1-0.8l-0.1-0.9v-0.1l-0.1-1.1v-0.4l-0.1-0.7l-0.1-0.9v-0.2
	l-0.2-1.9l-0.1-1.2l-0.1-1.2v-0.4v-0.3l-0.1-1v-0.4l-0.1-1.2l-0.1-1.2l-0.2-1.6l-0.2-1.5l-0.2-1.4l-0.1-1v-0.4l-0.1-1.1v-0.4
	l-0.1-1.4l-0.1-1.3l-0.1-0.5l-0.1-0.9l-0.1-1.1l-0.1-1.2V158l-0.1-1.2l-0.1-0.5l-0.1-0.9l-0.1-0.9l-0.1-1.3l-0.2-1.5l-0.1-0.7
	l-0.1-0.9l-0.2-1.7l-0.1-1.3L401,146l-0.1-0.7l-0.1-0.8l-0.2-1.7v-0.3l0.1,0.1l0.3,0.2l1,0.7l1,0.8l0.5,0.4l1.1,0.9l0.8,0.6l0.5,0.4
	l0.9,0.7l0.3,0.2l0.6,0.4l1,0.7l1.1,0.8l0.4,0.3l0.6,0.5l0.7,0.5l0.9,0.7l0.8,0.6l0.4,0.3l1,0.7l0.1,0.1l0,0l0.2,0.2l0,0l0.8,0.5
	l0.6,0.1l0,0h0.1h0.1v0.1l0,0l0,0l0,0h0.1v0.1l-0.1,0.1v0.1l0.1,0.1v0.1v0.1v0.1l0.1,0.1h0.1l0,0l0,0l0,0h0.1h0.1l0.1-0.1v-0.1h0.1
	l0,0l0,0l0.1,0.1l0,0v0.1v0.1v0.1h0.1l0,0h0.1l0,0l0,0l0,0h0.1l0,0h0.1l0,0l0,0l0.1,0.1h0.1l0,0l0,0l0,0V155l0,0l0,0v-0.1v-0.1l0,0
	h0.1l0,0v-0.1l0,0v0.1v0.1v0.1h0.1h0.1l0,0h0.1v0.1v0.1l0,0l0.1-0.1l0,0v0.1l0,0v0.1l0,0h0.1h0.1v-0.1l0,0l0.1,0.1h0.1l0,0v-0.1
	v-0.1l0,0h0.1l0,0l0,0l0.1-0.1l0,0v-0.1l0,0h0.1h0.1h0.1l0,0l0,0h0.1v0.1v0.1l0,0l0.1,0.1h0.1l0,0h0.1l0,0v-0.1V155h0.1h0.1l0,0l0,0
	l0,0l0.1,0.1l0.1,0.1v0.1l0,0l0,0l0,0v0.1v0.1v0.1l0,0l0,0h0.1v0.1l-0.2-0.1v0.1v0.1l0,0l0,0v-0.1l-0.1,0.1l0.1,0.1v0.1h0.2v0.1h0.1
	h0.1l0,0h-0.1l0.1,0.1h0.3h0.1l0,0l0,0l0,0h0.1l0.1,0.1v-0.1v-0.1V156v0.1v0.1l0,0v0.1l0,0v-0.1h0.1l-0.1,0.1v0.1h0.1v0.1l0,0h0.1
	L422.1,155.7L422.1,155.7z M422.1,155.7L422.1,155.7L422.1,155.7L422.1,155.7z M444,184.6L444,184.6v0.1l0,0V184.6L444,184.6z
	 M400.4,144.1l-0.2-1.5l0.5,0.3l0,0v0.1v0.1l0,0l0,0v0.1l0,0l0,0l0,0l0,0l0,0l0,0l0,0v0.1v0.1v0.1L400.4,144.1L400.4,144.1z"/>
<path id="D901" class="st0" d="M415.6,587.4L415.6,587.4l0.1-0.1l0,0l0,0v0.1l0,0l0,0v0.1v0.2v0.1v0.1v0.1l0,0l-0.1,0.1l0,0l0,0l0,0
	h0.1l0,0l0,0l0,0l0,0v0.1v0.1l0,0l0,0h-0.1l0,0h-0.1l-0.2,0.1l0,0v0.1v0.1l0,0l0,0l0,0v0.1l-0.1,0.1l0,0v0.1v0.1v0.1v0.1v0.1l0,0
	l0,0l0,0l0,0l0.1,0.1v0.1l0.1,0.1l0,0l0,0v0.1v0.1v0.1v0.2v0.1v0.1v0.1l0,0l0,0h-0.1l-0.1,0.1l0,0h-0.1H415h-0.1h-0.1h-0.1h-0.1
	h-0.1h-0.1l-0.1,0.1l0,0l0,0v0.1v0.1v0.1v0.2v0.1v0.1l0.1,0.3l0.1,0.1h0.1l0,0h0.1h0.1l0,0l0,0h0.1h0.1l0,0l0,0l0,0l0,0v0.1v0.1v0.1
	l0,0l0,0l0.1,0.1l0,0l0,0h0.1l0,0l0,0l0,0l0,0l0,0v0.1l0,0l0,0h-0.1H415l0,0l0,0l0,0l0,0l0,0l0,0l0,0l0,0l0,0l0,0l0.1,0.1l0,0v0.1
	v0.1v0.1l0,0v0.1v0.1l0.1,0.1v-0.1l0,0l0,0l0,0v0.1v0.1v0.1v0.1v0.1l0.1,0.1l0.1,0.3v0.3l0.2,0.9l0.1,1.8l0,0l0.3,0.5l0,0l0.3,0.3
	l0,0l0.1,0.2l0.1,0.2l0.1,0.3l0,0l0.7,0.5l0.2,1.7l0,0v0.2l-0.2,0.8l0,0l-0.1,0.4l-0.1,0.9l0.5,0.7l0.1,0.6h0.1l0,0l0,0l0,0v0.1l0,0
	l0,0l0,0l0,0v0.1l0,0l0.1,0.1l0,0l0,0l0,0l0,0l0,0h0.1l0,0l0,0l0.1,0.1h0.1h0.1h0.1l0,0h0.1h0.1l0,0l0,0v0.1v0.1v0.1l0,0l0,0h0.1
	h0.1l0,0h0.1h0.1l0,0l0,0v0.1v0.1v0.1v0.1v0.1v0.1v0.1l0,0h0.1h0.1l0,0l0,0l-0.1,0.1l-0.1,0.1l0,0l-0.1,0.1l0,0l0,0l0,0h-0.1h-0.1
	l0,0l0,0l0,0l0,0v0.1v0.1v0.1v0.1v0.1v0.1v0.1v0.1l0,0l0,0h-0.1h-0.1l0,0h-0.1l0,0l0,0v0.1v0.1l0.1,0.1l0,0v0.1v0.1h0.1l0,0h0.1l0,0
	l0,0v0.1v0.1v0.1v0.1l-0.1,0.1v0.1l0,0l0,0l0,0l0,0l0,0l0,0l0,0l0,0l0,0l0,0v-0.1l0,0v-0.1v-0.1l0,0l0,0l0,0h0.1l0,0l0,0l0,0l0,0
	v0.1v0.1l0,0l0,0l0,0l0,0h0.1l0,0l0,0l0,0l0,0l0,0l0,0l-0.1,0.1l0,0l0,0v0.1h-0.1h-0.1h-0.1h-0.1h-0.1l0,0l0,0l0,0l0.1,0.1l0,0l0,0
	l0,0l0,0l0,0l0,0l0,0l0,0l0,0l0,0v0.1v0.1v0.1v0.1v0.1l0,0l0,0l0,0l0,0h0.1h0.1l0,0l0,0l0,0v0.1v0.1v0.1v0.1l0,0l0,0h-0.1l-0.1-0.1
	l0,0l0,0l0,0l0,0l0,0l0,0v0.1l0,0l0,0l0,0v0.1l0,0v0.1l0,0l0,0v0.1v0.1l0,0v0.1v0.1v0.1h-0.1l0.4,0.5l0.1,1v0.1l0.1,0.1l0,0l0,0h0.1
	l0,0l0,0l0,0l0,0l0,0l0,0l0,0h0.1h0.1h0.1l0.1,0.1l0,0l0,0v0.1v0.1v0.1l0,0l0,0l0,0v0.1l0,0l-0.1,0.1v0.1l-0.1,0.2H419l0,0l0,0h-0.1
	l0,0l0,0h-0.1h-0.1h-0.1l0,0h-0.1l-0.1,0.1l0,0l0,0l0,0l0,0l0,0l0,0l0,0l0,0l0,0l0,0l0,0l0,0l0,0l0,0l0,0l0,0l0,0v0.1v0.1v0.1
	l-0.1,0.2l-0.1,0.1l-0.1,0.2v0.1v0.1v0.1v0.1l-0.1,0.2l0,0v0.1v0.1l0,0v0.1v0.1v0.1l0,0l0,0l0,0l0,0l0.1,0.1l0.1,0.1l0,0l0,0
	l0.1,0.1l0,0l0,0l0,0l0.1,0.1l0,0l0,0v0.1l0,0v0.1v0.1l0.1,0.1l0.1,0.1l0,0v0.1v0.1v0.1v0.1l0.1,0.1h0.1h0.1l0,0l0,0v0.1v0.1v0.1
	v0.1v0.1l0,0h-0.1l0,0l0,0l0,0l0,0l0,0l0,0l0,0v0.1l0,0l0,0h0.1l0,0l0.1-0.2l0.1-0.2l0.1-0.1l0.1-0.2l0.1-0.2V615l0.4,1.3v0.4
	l0.2,1.1v0.1v0.8v0.1v0.1v0.1l-0.1,0.1l0,0l0,0l0,0h-0.1v0.1l-0.1,0.1l0,0l-0.1-0.1v-0.1l0,0l0,0l-0.1-0.1l0,0h-0.1h-0.1h-0.1h-0.1
	H419l0,0v0.1v0.1v0.2v0.1l0,0l0,0l0,0l0,0v0.1v0.1l0,0v0.1l0,0v0.1v0.1v0.1l-0.1,0.1l-0.1,0.1l-0.1,0.1l-0.1,0.1l-0.1,0.2v0.1v0.1
	v0.1v0.1v0.1l0,0l0,0v0.1l0,0h-0.1v0.1v0.2v0.1v0.1v0.1v0.1v0.1l0.1,0.1v0.1l0,0v0.2l0,0v0.1l0,0l0,0v0.1l0,0l0,0l0,0h-0.1l0,0h-0.1
	l-0.1,0.1v0.1v0.1v0.1v0.1v0.1v0.1v0.1v0.1l0.1,0.1l0,0h0.1l0,0l0,0l0,0l0,0h0.1h0.1h0.1l0,0l0.1-0.1l0.1-0.1v-0.1v-0.1v-0.1V623
	v-0.3l0,0v-0.1v-0.1v-0.1v-0.1l0,0v-0.1l0,0v-0.1V622l0,0l0,0v0.1v0.4v0.1v0.1v0.1v0.2l0,0v0.1v0.1l0,0h0.1h0.1h0.1l0,0l0,0h0.1h0.1
	h0.1l0,0h0.1l0,0l0,0l0,0h0.1l0.1,0.1l0,0v0.1v0.1v0.1v0.1v0.1v0.1v0.1l0,0v0.1v0.1v0.1l0,0h-0.1l0,0h-0.1h-0.1h-0.1l0,0l0,0h-0.1
	h-0.1l-0.1,0.1H419l0,0l0,0l0,0h0.1v0.1l0.1,0.1l0,0l0.1,0.1l0.2,0.1l0,0l0.4,0.1h0.2l0.4,0.2v0.3l0.4,0.3l-0.2,0.7l-0.3,0.6v0.5
	l0,0l-0.4,0.4l-0.3,0.3l-0.2,0.2l0.1,1.1l0,0h0.1h0.1h0.1l0.1-0.1h0.1l0,0l0,0l0,0v0.1h0.1l0,0l0.5-0.6l0,0l0,0l0.2-0.4l0.1-0.1
	l0.1-0.1l0.4-0.3l0,0l0.3,0.2v0.1v0.1v0.6l-0.1,1.1l-0.4,1l-0.2,0.5l-0.1,0.3v0.1l-0.2,0.6l0.2,0.2h0.5h0.4h0.5l0.1,0.4l0.1,0.2v0.5
	l0,0l0.4,0.6l0,0l0.2,0.3l-0.2,0.4l-0.2,0.5l0,0l-0.3,0.3l0,0l-0.1,0.1l-0.1,0.3l0.2,0.3l0.1,0.3l0.1,0.3l0.3,0.3l0.3,0.1l0.6-0.1
	l0.8-0.2l0.7,0.3l0.3,0.5l0.6,1l0,0l0.3,0.5v0.7l0,0v0.1l0,0v0.1l0,0v0.1v0.1v0.1l0,0l0,0l-0.1,0.1l0,0l0,0l0,0h3.5h-0.1h-0.1h-0.1
	h-0.1h-0.1h-0.1h-0.1h-0.1v0.1v0.1l0,0v0.1l0,0l0,0v0.1v0.1v0.1v0.1v0.1v0.1l0,0l0,0l0,0l0,0l0,0l0,0h-0.1l0,0H429h-0.1l0,0l0,0l0,0
	l0,0l-0.1,0.1v0.1v0.1v0.1v0.1v0.1l0,0l0,0l0,0l0,0v-0.1l0,0l0,0v-0.1v-0.1l-0.1-0.1V642v-0.1v-0.1v-0.1l-0.1-0.1l0,0h-0.1l0,0l0,0
	h-0.1l0,0v0.1v0.1v0.1v0.1l0,0v0.1l-3.7-1.6l-5.9-6.8l-4.7-7.9l-3,1.4l-2.1-4.3l-4-6.3l4.9,0.9l5.5,0.9l2.4-5.2l-0.8-4.5l-4.4-6.5
	l-0.9-6.2l-6.7-5l0.5-6l-2.2-10.2l-3.6-8.5l-5-6.9l-0.5-3.8l0.6-1.7l1.7-4.4l-0.5-2.7l-1.8-0.6l-0.9,0.5l-2.4-2.7l-4.2-6.5l-1.9-4.3
	l0.9-2.1V531l-0.4-2.6h-0.9l-0.2,0.4l-0.7,1.2l-0.5-1l0.9-2.7l-0.9-1.1l-1.8,1l0,0l-2.8,0.5l-0.5,0.6l-3.7,1.1l-3.7,3.7l-1-4.3l0,0
	l-1.8-2.2l-1-7.5l0,0l-0.5-1.1l-2.8,0.5v-5.4l-0.9-3.2l1.4-1.7l-1-3.8l-0.9-2.2l0,0l-0.9-1l-2.8,2.7l-1.8,4.3l-3.3,1.1l-2.3,3.2
	l-1.4-1l-1.4-1.7l-1.4-0.5l0,0v-2.7l-0.9-2.7l-1.7-1.3l-1.1-0.8l-0.9-0.3l-0.9-0.3l-0.6-1l-0.4-0.6l0,0l-0.5,0.5l-1.3,1.5l0,0
	l-2.3,1.6l0,0l-5.6,2.1h-1.8l0,0l-1.9-1.1l-0.9,0.5v1.6l0,0L324,507l-4.2,0.5h-3.3l0,0l-1.9,1.1h-2.3l0,0l-0.6-0.2l-1.3-0.3v1
	l0.9,2.2l-0.4,3.2l0,0H309l-1.8,5.9l-3.2,2.5l-1,0.8l-1.4,1.6l-1.9-0.5l-5.5-3.7V521l-0.1-3.2l-2.8-1.1l-3.3-2.2l-2.4-0.5l-2.4-1.6
	l-0.9-1.6v-2.7v-1.6l0.9-4.4v-2.7l-0.5-1.6l-1.8-1.1l-0.9-2.2v-1.6l0.9-2.2l-0.1-3.3l0.9-4.8l1.9-1.6l0.9-2.7l-2.8-2.2l0.5-2.2
	l-0.1-4.9l-0.9-1l-0.9-3.8l-1-1.1l0.9-1.6l1.5-1.6l2.3-0.5h2.8l3.1,1.9l4.2-3.1l6.9-2.7l5.1,1.5l1.2-7.1l-6.5-4.6l-5.3,3.7l-4.2,4.6
	l-4-1.8l-0.5-1.6v-3.8l-1-1.6l0.5-1.1l0.9-0.5v-2.7l-0.5-1.6l0.5-1v-2.2l-0.5-1.7v-1l2.7-1.6l3.7-4.4l4.2-3.7l0.9-2.2l1.4-2.2v-1.6
	l-0.9-0.6l1.9-1.6l1.8-2.2l0.9-2.7l2.8-2.2l1.8-6.5v-1.1l3.3-2.7l1.4-2.2l1.8-0.5l0.9,2.9l0.9,7.5l3.7,1.2l4.2-4l3.3-3.5l4.4,1.6
	l4.9-4l-1.6-5.8l-2.4-5.9l1.9-3.7l5.5-5.3l1.3-8.5l2.4-3.8l0.9-3.2l-1-1.6l-0.4-2.7l1.4,0.5l1.4-0.5l2.3,1.6l3.3-1.1l0.5-1.6h1.8
	l4.2-1.1l0,0h4.6l0,0l0.9-0.5l1.5,0.5l1.4-0.5l0.9,1.1h1.4l1.4,0.5h5.1l2.3,0.5l1.4,1.1h1.4l1.4,0.5l1.4-1.6l1.9,0.5l0,0l1,8.1v8
	l-1.9,6.6l-2,5.1l2,2.9l3.8,0.4v4l1.6,2.6l0.5,8.4l-1.1,9.2l-0.8,7l1.6,10.3l0.3,5.5l6.1,1.5l1.9,9.5l-3.3,2.5l-3-0.7l-3.1,3.7
	l3.3,6.3l5.2-3.3l3.1-1.5l0.5,6.6v4l3,4.4l0.6,4.4l7.2,6.6l2.4,12.4v4.4l1.6,4.4l4.4-4.4l0.5,7.8l3.3-4.8l4.1,1.1l1.9-5.4l-2.2-6.3
	l-3.6-5.8l3.2-5.5h3.3l2.7,5l7.3,0.6l-1.1,2.5l-0.4,1.8l0.7,2l3.1,2l3,1.1l4.5,3.5l0,0l0.4,0.5l-0.2,0.5l-0.7,0.3l-0.2,0.1h-0.1
	l-0.1,0.1l-0.1,0.4l-0.2,0.1l-0.3,0.1l0.1,0.4l-0.3,0.5h-0.4l-0.1-0.4h-0.1h-0.2l-0.2-0.3l-0.1-0.1l-0.2-0.1h-0.3l-0.2,0.1h-0.3
	l-0.2,0.1h-0.3l0.1,0.5v0.2l0.1,0.3l0.1,0.3v0.4l-0.2,0.1l-0.1,0.3l-0.2,0.3l-0.1,0.4l-0.4,0.3l-0.2,0.2l-0.3,0.2h-0.3l-0.1,0.1
	h-0.2l-0.1,0.6h-0.5l-0.2,0.1l-0.1,0.3H443l-0.1,0.3h-0.6l-0.2,0.8l-0.3,0.2l-0.2,0.3l-0.2,1.2l-0.1,0.5v0.1v0.1l0.1,0.4l-0.2-0.1
	l-0.2,0.1h-0.1h-0.1l0,0l-0.1,0.2l-0.2,0.3h-0.2h-0.1h-0.1l-0.2,0.3l1.1-0.2h-0.1l-0.5,0.3l-0.2,0.2l0,0l-0.2,0.6l0,0h-0.2l-0.3,0.3
	v0.2l-0.3,0.4l-0.4,0.1l-0.5,0.6v0.1v0.3l-0.7,0.1l0,0l-0.3-0.3l-0.3,0.3l-0.1-0.1l-0.1-0.2h-0.3v-0.3l-0.2-0.1l-0.3,0.1l-0.3,0.1
	v0.3l-0.3,0.2l-0.1,0.3l-0.3,0.1l-0.1-0.3l-0.7-0.2l-1.1,0.2l0.1,0.8v0.9l-0.7,0.2v0.4l-0.4-0.2h-0.3l-0.1,0.4l0.1,0.5l0.2,0.4v1.2
	v1.2l0.1,0.2l0.1,0.7l-0.1,0.4L431,517l-0.5-0.1v0.2l-0.3,0.2l0.1,0.5v1l0.2,0.9l0.3,1.1l-0.1,0.7l-0.1,0.8l0.2,0.1l0.1,0.4l0.1,0.4
	v0.1l-0.1,0.9l-0.6,0.3h-0.1l-0.9,0.2l-0.1-0.1l-0.2,0.6l0.1,0.5l-0.1,0.6l-0.1,0.3l-0.4,0.4l-0.1-0.2l-0.5-0.7l-0.1,0.4l-0.4,0.1
	l-0.3,0.7l-0.2,0.1l0.1,0.2l-0.2,1.3v0.2l0.1,0.3v0.3l-0.1,0.3v0.4l-0.1,0.1l0.1,0.1v0.2l0.1,0.2l-0.1,0.1l-0.1,0.3l0.1,0.3
	l-0.1,0.5h-0.1l-0.2,0.2l-0.4,0.1l-0.2,0.2h-0.1h-0.2h-0.1l-0.1-0.1l-0.3,0.2l-0.2,0.1l-0.1-0.1l-0.1,0.2l-0.1,0.1v0.4l-0.1,0.2v0.1
	h-0.3l-0.1,0.3v0.2v0.1h0.2l-0.2,0.1h0.1v0.1v0.1h0.2v0.1L424,535v0.2h-0.1l-0.2,0.2v0.1l-0.2,0.1l-0.2,0.2l0.1,0.1l-0.2,0.1v-0.1
	h-0.1v-0.1l0,0l-0.3,0.3l0,0l-0.9,0.9l-0.6,0.9l-0.2,0.3l-0.2,0.6h0.1v0.1h0.2l-0.3,0.3v0.3l0,0v0.1l-0.1,0.1h-0.1v0.2l-0.1-0.1
	l-0.1,0.3l0.1,0.1l-0.2,0.3l-0.2,0.2l0,0v0.1l-0.8,1.6v0.1l-1.2,2.8l-0.9,2.1l-0.2,0.5l0,0l-1.2,2.4l0.1-0.7l-0.6,1.4l-0.1,0.4l0,0
	l-0.2,0.7v0.1l-0.3,0.9v0.1l-0.1,0.3l-0.4,1.3l-0.1,0.4l-0.3,0.5l0,0l-0.7,1.9l0,0l-0.3,0.9l-0.2,0.5l-0.2,1l-0.3,0.3l0,0l-0.1,0.3
	l0,0l-0.1,0.2l-0.4,0.6v0.1l-0.4,1.2l-0.3,1l-0.1,0.3l-0.3,0.6v0.8v1.4l-0.6,1.2v0.1h0.1l0,0l0,0l0,0V568h0.1l0,0l0,0l0,0l0,0l0,0
	l0,0v0.1l0,0l0,0l0,0h0.1l0,0l0,0h0.1V568l0,0l0.1-0.1l0.1-0.1l0,0h0.1l0,0l0,0l0,0l0,0h0.1h0.1l0,0l0,0l0,0h0.1l0,0v0.1l0,0l0,0
	l0,0v0.1v0.1l0,0l0,0l0,0v0.1l0,0l0,0l0,0l0,0l0,0v0.1v0.1l0,0l0,0v0.1v0.1l0,0v0.1l0,0l0,0l0,0h0.1l0,0v0.1v0.1v0.1v0.1l0,0l0,0
	l0,0l0,0l0,0v0.1v0.1l0,0l0,0v0.1l0,0v0.1v0.1v0.1l0,0l0,0v0.1l0,0l0,0h-0.1l0,0l-0.1,0.1l0,0h-0.1l0,0l0,0l0,0l0,0l0,0l0,0v0.1v0.1
	l0,0h-0.1h-0.1h-0.1l0,0v0.1l0,0v0.1l0,0l0,0l0,0l0.1,0.1l0,0h0.1h0.1l0,0l0,0l0,0h0.1l0,0l0,0l0,0l0,0v0.1v0.1v0.1v0.1v0.1v0.1l0,0
	h-0.1l0,0h-0.1l0,0l0,0l0,0l0,0l0,0l0,0l0,0v0.1v0.1l0,0v0.1v0.1v0.1l0,0l0,0v0.1v0.1l0.1,0.1l0,0l0,0l0,0l0,0l0,0l0,0h-0.1v-0.1
	l0,0l0,0v0.1l0,0l0,0l0,0l0,0l0,0v0.1l0,0v0.1v0.1v0.1v0.1v0.1v0.1l0,0l0,0l0,0h0.1h0.1h0.1h0.1l0,0l0.1,0.1l0,0l0,0l0,0h0.1l0,0
	l0,0l0,0v-0.1v-0.1l0,0v-0.1v-0.1v-0.1l0,0l0,0l0.1-0.1l0,0l0,0l0,0v0.1v0.1l0,0l0,0v0.1v0.1l0,0l0,0v0.1v0.1v0.1v0.1l0,0l0,0
	l0.1,0.1l0,0l0,0l0,0l0,0h0.1l0,0l0,0l0.1,0.1l0.1,0.1l0,0l-0.1,0.1l0,0v0.1l0,0v0.1v0.1l-0.1,0.1v0.1l0,0l0,0v0.1l0,0v0.1v0.1l0,0
	l0,0l0,0l0,0h0.1l0,0l0,0l0,0l0,0v0.1v0.1l0,0v0.1v0.1v0.1v0.1v0.1l0,0v0.1l0,0l0,0l0,0l0,0l0,0l0,0l0,0v0.1l0,0l0,0l0,0v0.2v0.1
	v0.1v0.1v0.1v0.1l0,0l0,0l0,0v0.1v0.1l0,0l0,0l0,0l0,0v0.1l0,0v0.1l0,0l0,0h-0.1l0,0l0,0l0,0l0,0l0,0l0,0h-0.1l0,0l0,0l0,0l0,0l0,0
	l0,0l0,0l0,0v0.1v0.1v0.1v0.1l0,0l0,0l0,0h-0.1l0,0v0.1v0.1l0,0v0.1l0,0l0,0l0,0l0,0l0,0l0,0h-0.1l0,0l0,0l0,0l0,0l0,0h-0.1H411
	l0.3,0.6l0.3,0.7l0,0l0,0l0,0l0,0l0,0l0,0l0,0v0.1v0.1l0,0l0.1,0.1h0.1l0,0v0.1l0,0l0.1,0.1v-0.1l0,0v-0.1v-0.1v-0.1V578v-0.1l0,0
	l0,0l0,0l0,0l0,0l0,0v-0.1l0,0l0,0l0,0l0,0l0,0l0,0l0,0l0,0h-0.1h-0.1l0,0l0,0l0,0l0,0v-0.1v-0.1v-0.1l0,0v-0.1v-0.1l0,0v-0.1l0,0
	l0,0h0.1l0,0h0.1h0.1l0,0v0.1l0,0l0,0l0,0v-0.1v-0.1l0,0l0,0l0,0l0,0v0.1v0.1l0,0l0,0l0,0l0,0l0,0l0,0h0.1h0.1l0,0l0,0l0,0l0,0v0.1
	v0.1l0,0v0.1l0,0l0,0v0.1v0.1l0,0l0,0l0,0l0,0l0,0l0,0l0,0v0.1l0,0l0,0h0.1l0,0l0,0v0.1v0.1l0,0v0.1v0.1v0.1l0,0v0.1l0,0l0,0l0,0
	l0.1,0.1v0.1l0.1,0.1v0.1v0.1l0,0l0,0v0.1l0,0l0,0l0,0l0,0l0,0l0,0l0,0V579l0,0l0,0l0,0l0,0l0,0l0,0v0.1l0,0v0.1v0.1v0.1v0.1v0.1
	v0.1v0.1v0.1v0.1v0.1l0,0l0,0l0,0l0,0l0,0l0,0l1,1.3l0.5,0.6l1.1,1.3l0,0l-0.1,0.1l-0.1,0.1l-0.2,0.8v0.1v0.1L415.6,587.4z
	 M415.6,587.4v0.3l0,0l0,0l0,0l0,0V587.4L415.6,587.4z"/>
<path id="D902" class="st0" d="M342.9,347.2l-0.1-6.4l-1.9-6.5l-0.9-1.1l0.9-2.7v-1.6l-0.5-1.1l0.4-2.1l0,0l-0.1-0.3l-0.8-2.9
	l1.4-7.6l-0.5-0.5l0.5-5.4l-2.4-3.8l-1-2.2l0.3-2.1l0.6-4.4l-1-4.9h-0.9l0,0l-1.8,1.6l-2.3-2.1l0,0l-0.6,0.2l-0.8,0.3H330l-0.9-3.3
	l1.3-1.1l0,0v-1.1l-0.9-0.5l0.5-1.6l-0.5-1.6l-1-1.6v-0.1l0.1-2l-2.3-5.5l-0.4-2.7l0,0l-0.8-3.3l0,0l-1.2-2.8l-0.8-1.1l0.2-4
	l-0.9-1.1l-0.8-2.8l-1.8-2.2l-2.2-3l1.5-2.8l-0.6-7.1l1-4.8V234v-0.9l-0.3-2.8l-1.1-2.3l0,0l-4.7-6.5v-0.1v-0.2l-0.2-2.7l0.4-5.9
	l0.4-4.4l0,0l-0.1-0.1l0,0l-0.3-0.3h0.2h0.2h0.1h0.2h0.1l0,0h0.1l0.1,0.1h0.1h0.1l0.1,0.1h0.3v0.1l0.1,0.1h0.1l-0.1,0.2v0.1l0.1,0.1
	v0.1h0.2h0.2h0.1l0.3,0.1l0.3,0.1l0.2,0.1v0.2l0,0l0,0l0.1-0.1h0.1l0.2-0.1l0.1,0.1h0.1h0.1l-0.1-0.1l0.1-0.1l0.1-0.1h0.2l0.3-0.1
	v-0.1l0.1-0.1v-0.1h0.1l0.2,0.1l0.2,0.1l0.1,0.1l0.4,0.3l-0.1,0.3l-0.1,0.2l-0.2,0.5l-0.2,0.4l-0.1,0.2l0.1,0.7l0.2,0.1l0.2,0.1
	l0.3,0.2l0.1,0.1l0.2,0.2l0.1,0.1l0.3,0.5l0.9,0.1l0.6,0.1l0.3-0.1h0.4h0.2h0.4h0.2l0.3,0.1h0.4l0.4,0.2l0.8,0.3l0.3,0.1l0.5,0.2
	l0.3,0.1l0.3,0.1l0.4,0.2l0.2,0.1l0.8,0.3l0.9,0.4l0.6,0.2l0.7,0.3l0.4,0.2l0.3,0.1l0.3,0.1l0.9,0.3l0.4,0.2l0.6,0.2l0.7,0.5
	l0.5,0.2h0.2h0.3h0.4h0.2h0.3l0.2,0.1l0.1,0.4l0.1,0.2h0.1l0.8-0.2h0.1v-0.1l0.1-0.1l0.1-0.1v-0.1l0,0v-0.1l0,0l0,0V217l0,0v-0.1
	v-0.1l0,0v-0.1v-0.1v-0.1v-0.1l0,0v-0.1v-0.1h0.5l0.8,0.6h0.6l0,0l0.6-0.9l0.9-0.2l1.2,0.2l1.3,0.1h1.2l0.2-0.1l0.3-0.1v-0.1h0.1
	l0,0l0.1-0.1l0,0h0.1l-0.1-0.2l0.1-0.1v-0.1h0.1l0.3,0.2l0.4-0.1h0.8l0.8,0.5l1.2,1.1l0.9-0.4l0.3-0.1l1.2-0.7l0.1-0.1l0.1-0.2
	l0.1-0.2l0.1-0.3v-0.2l0.1-0.5l0.1-0.2l0.1-0.1l0.1-0.1l0.2-0.1h0.2h0.1h0.1h0.1h0.3l0.1-0.1l0.1-0.1l0.1-0.3v-0.4v-0.1v-0.2v-0.1
	l-0.1-0.1v-0.1l-0.1-0.1l-0.2-0.1l-0.3-0.1L352,212l-0.2-0.2l-0.2-0.2l-0.2-0.1l-0.1-0.1l-0.2-0.1v-0.1l-0.1-0.3v-0.1v-0.2l-0.1-0.2
	l-0.2-0.5v-0.2v-0.1l0.2-0.1h0.2l0.2,0.1l0.2,0.1h0.1h0.1h0.2l0,0h0.1l-0.2-0.7l0.5-0.4l-0.1-0.2l-0.3-0.3h0.1h0.1l0.2-0.1h0.1
	l0.1,0.2l0.1,0.1l0.1,0.1l0.1,0.1h0.1l0.2-0.1l0.1-0.1l-0.1-0.1v-0.1l0,0h0.1l0.1-0.1l0.1-0.1v0.2v0.1v0.1h0.1h0.1l0.1,0.1l0.2,0.1
	l-0.2,0.2v0.1h0.1h0.1l0.1-0.1h0.3l0.1-0.1l-0.1-0.2l0.1-0.1l0.1-0.1h0.1l0.2,0.1h-0.1l-0.1,0.1v0.1v0.2l0.1,0.1l0,0l0.1-0.1h0.1
	h0.1l0.1-0.2l0,0h0.1l0.1,0.1v0.1l-0.2,0.2l0,0v0.1l-0.1,0.1l0,0v0.1l0,0h0.1h0.1l0.1,0.1l0,0l0.1-0.1l0.1-0.1h0.1l0,0h0.1h0.1
	l0.1,0.1v0.1l0,0v0.1v0.1l0,0l0,0h0.1l0,0l0,0l0,0h0.1v-0.1h0.1v0.1v0.1l0,0h0.1l0.1-0.1l0.1-0.1v-0.1v-0.1h0.1l0.2,0.2l0.1,0.1
	l0.1,0.1v0.1v0.1v0.1l0,0l0,0l0,0v-0.1v-0.2v-0.1l0,0h0.1h0.1h0.1l0.2,0.1v0.1v0.1h-0.1h-0.1l0,0h0.1h0.1l0.1-0.1v-0.1v-0.2l0.1-0.2
	v-0.1l0.1,0.1h0.1h0.1h0.1h0.1h0.1h0.1l0.1-0.1v-0.2v-0.2v-0.1v-0.1l0,0h0.1l0,0l0.1-0.1l0.1,0.2h0.1v-0.1v-0.1v-0.2v-0.1l0.1-0.1
	l0,0l0,0v0.1v0.1l0.1,0.1l0.2,0.1l0.1,0.1h0.1v-0.1v-0.1h-0.1h-0.1v-0.1l0.1-0.1l0.2-0.1h0.1l0.1,0.2l0.1,0.1l0,0v-0.1v-0.1V208
	v-0.1h0.1h0.1h0.1l0,0l0,0l-0.1-0.1v-0.1l0.1-0.1l0.1-0.1l0,0h0.1l0.1,0.1h0.1l0,0l0,0v0.2l0.1,0.1l0.1,0.2l0,0l0.1-0.1l0.1-0.1l0,0
	v-0.1l-0.1-0.1v-0.1h0.2h0.1v-0.1l-0.1-0.1v-0.1l0,0l0,0l0.8-0.5l0.2-0.1l0,0l-0.1-0.1v-0.1l0.1-0.1l0.1-0.1h0.1v0.1v0.2l0.2-0.1
	v-0.1l0,0l0.1,0.1h0.1v-0.1v-0.1v-0.2V206l0,0l0.1,0.1l0.1-0.3l0.1-0.1l0.1-0.1l0.1-0.1h0.1l0,0v0.1l-0.1,0.2v0.1l0,0l0,0v-0.1l0,0
	l0,0h0.1l0.1,0.1h0.1v0.1l1.2-0.9l1.2-1.2l-0.3-0.6l0.1-0.1l0.4-0.4l0.4-0.4l0.1-0.3l0.3-1l0.2-0.7l-0.2-1.1l-0.1-0.9l-0.1-0.8v-0.1
	l-0.1-1.1l-0.1-0.8v-0.5l-0.1-0.9l-0.1-0.8v-0.2l-0.4-1.2l-0.4-1l-0.2-0.5l-0.2-0.6l-0.1-0.3l0.1-0.3l0.4-0.8l0.2-0.4l0.3-0.5
	l0.7-1.4l0.5-0.9l0.5-0.9l0.3-0.5l0.5-1.1l0.3-0.5l0.2-0.3l0.2-0.4l-0.1-0.5v-0.3l-0.1-0.6l-0.1-0.6l-0.1-0.6v-0.3v-0.3l-0.1-0.5
	l-0.1-0.7l-0.1-0.7l-0.1-0.6v-0.4v-0.1v-0.2l0.1-0.4l0.2-0.7l0.1-0.6l0.1-0.6l0.1-0.5l0.1-0.3l0.2,0.1l0.7,0.3l0.7,0.3l0.7,0.3
	l0.3,0.2l0,0l0.3-0.1l0.1-0.1V173v-0.2v-0.2v-0.1l0.1-0.1l0,0l0,0l0,0h0.1l0,0h0.1v-0.2l0.1-0.4l0,0l-0.1-0.1l0.1-0.1l0,0h-0.1v-0.1
	h-0.1l0,0l0.1-0.1h0.1l0,0l0,0l0.1-0.1l0,0l0.1-0.4l0.1-0.5l0.1-0.2l0,0l0.1-0.2l0,0l0,0h-0.1l0,0v-0.1l0.1-0.1v-0.1l0,0h-0.1h-0.1
	l-0.2-0.2l0,0l0.1-0.1l0.1-0.1h0.1v-0.1l0.1-0.1v-0.2v-0.1v-0.1l0,0v-0.1l0,0l0.1,0.1l0,0v-0.1v-0.1l0,0H373l-0.1-0.1v-0.1l0,0
	l0.1,0.1l0,0v-0.1v-0.1v-0.1l0.1-0.1h0.1v-0.1l0,0h-0.1v-0.1h0.1l0,0v-0.1v-0.1l0.1-0.1l0,0h-0.1v-0.1h0.1l-0.1-0.7v-0.1h-0.1H373
	v0.1l0,0h-0.1l0,0l0.1-0.1l0,0h-0.2l0,0l0.1-0.1v-0.1l-0.1-0.2l0,0h-0.1l-0.1-0.1l0,0h0.1h0.1h0.1l0,0l0,0l-1.2-0.8l0,0l0,0l0,0
	l-0.4-0.2h-0.1h-0.1l0,0l0,0V165v-0.1l0.1-0.1l0.1,0.1h0.1v-0.1v-0.1l-0.1-0.1l0,0l-0.1,0.1v-0.1v-0.1l0,0h0.1l0,0h-0.1l0,0l0.2-0.1
	l0,0h-0.2v-0.1v-0.1l0.1-0.1v-0.2h0.1l0,0l0.1,0.1l0.1,0.2l0,0v-0.1V164v-0.1v-0.2v-0.1v-0.1l-0.1-0.1v-0.1l0,0v-0.1h-0.1v-0.1V163
	v-0.1h-0.1v-0.1l0.1-0.1l0,0l0.1-0.1v-0.1h-0.1h-0.1v-0.1v-0.1v-0.1h-0.1l0,0v-0.1l0.1-0.1v-0.1l0,0l0,0l-0.1,0.1l0,0v-0.1v-0.1
	v-0.1l0.1-0.1l0,0v-0.1l0,0l0,0h-0.1h-0.1l0,0v-0.1h0.1l0,0v-0.1h-0.1v-0.1l0,0l0.1-0.1V161l-0.2-0.7v-0.2V160l0,0v-0.1l-0.1-0.1
	l-0.1-0.1l0,0l0,0l0,0v-0.1l-0.3-0.8l-0.3-0.6v-0.1V158l0,0l0.1-0.1v-0.1v-0.1l0,0h-0.1l-0.1-0.1v-0.1v-0.1h0.1h0.1v-0.1l-0.1-0.1
	l-0.1-0.1V157l0,0l-0.1,0.1h-0.1l0,0l-0.1-0.1l-0.1-0.1h-0.1v-0.1h0.1h0.1h0.1h0.1v-0.1v-0.1v-0.1l0,0l0.1-0.1l0,0H370l-0.1,0.1
	l-0.1-0.1l0.1-0.1l0.1-0.1l0.1-0.1V156H370l0,0l0,0l0.1-0.2l0,0H370v-0.1l0,0h-0.1v-0.1l0,0l0.1-0.1v-0.1v-0.1l0.1-0.1h0.1h0.1v-0.1
	v-0.2h0.1l0.2,0.1l0,0v-0.2v-0.1l0.1,0.1v0.1l0.1,0.1l-0.1,0.1h-0.1v0.1v0.1l0,0h0.2l0,0l0,0v0.1v0.1v0.1l0,0v-0.1l-0.1-0.1v-0.1
	l0.2-0.1l0.2-0.1h0.1V155v-0.1v-0.1l0,0h0.1l0,0v0.2l0,0v-0.1v-0.1l0,0v-0.1l0,0l0,0l0.1,0.1l0,0l0.1-0.1V154v-0.1l0.1-0.1v-0.1
	v-0.1l0,0l0.1,0.1v-0.1v-0.2v-0.1l-0.1-0.3v-0.1l0.1-0.1h0.1v0.1h0.2l0.1-0.1v-0.1l0.1-0.2v-0.1l0,0v-0.1l0,0v-0.1l0,0l0,0h0.1
	l0.1-0.1l-0.1-0.1v-0.1v-0.1v-0.1l0,0h0.1l0.1,0.1l0,0v-0.1v-0.1v-0.1v-0.1h0.1h0.1v-0.1v-0.1v-0.1l0.1-0.1v-0.1l0,0h0.1h0.1l0,0
	v-0.1v-0.1h0.1l0.2,0.1l0.1-0.1h0.1l0,0v-0.1v-0.1l0.2,0.1h0.1l0,0l0,0l0,0l0.1-0.1v-0.1h-0.1v-0.1l0.1-0.1l0.1,0.1h0.2v-0.1v-0.1
	V150l0.1-0.1h0.2v0.3h0.1h0.1v0.1v0.1l0.1-0.1l0,0v0.1v0.1l0,0h0.1v-0.1l-0.1-0.2l0.1-0.2v-0.1l-0.1-0.2v-0.2l0.1-0.2v-0.1v-0.1
	l0.1-0.1l0.1-0.1v-0.1l0.1-0.1v-0.1l-0.1-0.1v-0.1l0.1-0.1h0.1l0.1,0.1v0.1l0,0l0,0h0.1l0.1,0.1v0.1l0,0l0,0l0.1,0.1v0.1v0.1v0.1
	h0.1h0.1h0.1l0.1,0.1v0.1v0.1v0.1H376h-0.1l0,0v0.1l0.1,0.1v0.1l0,0l0.4,1.4v0.7v1.8l0.1,1.2l-0.5,1.3h-0.1h-0.1v0.2v0.1h-0.1v0.1
	l0.1,0.1h-0.1v0.1h0.1l0,0h0.1v0.1l-0.1,0.1v0.2h-0.1v0.1v0.1l-0.1,0.2v0.1l0,0l0.1-0.2l0.1,0.1l-0.1,0.1v0.2v0.2v0.1v0.1v0.1h0.2
	h0.1l0,0v0.1v0.1v0.1l0,0l0.1-0.1l0,0v0.1l0.1,0.2h0.1v0.1v0.1l0,0l0,0l0.1-0.1v0.1v0.1l0,0l0,0l0,0v0.1l0,0l0,0h0.1l0,0l0.3,0.3
	l0.9,1.5l0.1,0.6l0.1,0.1v0.1v0.1v0.2h0.1l0.1-0.1l0.1-0.1l0,0v0.2v0.1l0,0h-0.1v0.1l0,0l0,0h0.2h0.1l0.1-0.1l0.1-0.1l0.2,0.1
	l0.1,0.1l0.1,0.1v0.1v0.1l-0.1,0.1h-0.1h-0.1v0.1v0.1v0.1v0.1l0.1,0.1v-0.1l0.1-0.1h0.1l0.1,0.1v0.2v0.1l0.2,0.2v0.5v0.4v-0.1l0,0
	h0.1h0.1v0.2l0,0v0.1l-0.1,0.1l0,0l-0.1,0.1v0.1l0.1,0.1v0.1v0.3h0.1v-0.1v-0.1l0,0l0.1,0.1h0.1l0,0v0.1v0.1l0.2,0.1h0.1h0.1
	l0.1,0.1v0.2v0.4v0.1v0.1v0.1v0.1h0.1l0,0v0.1v0.1v0.1l-0.1,0.2l0.1,0.2l0.1,0.2v0.1v0.1v0.1l-0.1,0.1l-0.1-0.1l0.1,0.8l0.7,2.1
	l0.1,2.2l0.5,2.5l0.2,0.9l1.1,1.8l0.7,1.1l0.4,0.9h0.1v0.1l0.1,0.1l0,0v0.1h-0.1H384v0.1v0.1h0.1l0.1-0.1h0.1v-0.1h0.1h0.1v-0.1l0,0
	v0.1v0.1l0,0h0.1h0.1h0.1h0.1h0.1h0.1l0,0v-0.1v-0.1h0.1v-0.1l0,0h0.1l0,0v-0.1v-0.1v-0.1v-0.1V180v-0.1l0,0l0,0l0,0v-0.1h0.1h0.1
	h0.1l0,0v-0.1l0.1-0.1v-0.1l0,0h-0.1v-0.1v-0.1l0,0v0.1l0,0h0.1l0.1-0.1v-0.1l0,0l0,0h-0.1l0,0V179l0.1-0.1v-0.1h0.1v0.1v0.1l0,0
	l0.1-0.1h0.1l0.1,0.1h0.1h0.1h0.1h0.1l0.1-0.1v-0.1v-0.1l0,0l0,0l0,0v0.1v0.1l0,0h0.1l0.2-0.2l0,0v0.1v0.1v0.1l0,0v0.1l0,0l0,0h0.1
	V179l0.1-0.1v-0.1v-0.1l0,0v0.1v0.1l0,0h0.1l0.1-0.1l0.1-0.1h0.1l0,0v0.1l0,0L387,179h-0.1v0.1v0.1l0.1,0.1l0,0v0.1l0,0l0.1-0.1l0,0
	v0.1l0,0l0,0H387v0.1v0.1h0.1h0.1l0,0l0,0l0,0v0.1l0,0l0,0l-0.1,0.1l0.1,0.1h0.1l0,0h0.1l0,0h0.1l0,0v0.1l-0.1,0.1l0,0v0.1h0.1l0,0
	v0.1v0.1v0.1l0.1,0.1l0,0l0.2,0.3v0.5l0,0l0.1,0.1l0.1,0.1l0,0l-0.1,0.1l0,0l0.1,0.2v0.1v0.1v0.1v0.1l0,0v0.1v0.2l-0.1,0.2v0.1
	l-0.1,0.1v0.1l0,0h0.1l0.2-0.1l0.2-0.1l0,0h0.1h0.1l0.2,0.1l0.2,0.1l0.1-0.1h0.1h0.1h0.2h0.1l0.1,0.1l0.1,0.1l0.1,0.1v0.1v0.1v0.1
	l0,0h0.1h0.1h0.1l0.1,0.1h0.1l0.1-0.2l0.1-0.2l0,0h0.1h0.1l0.1,0.1v0.1v0.1l0.1,0.1h0.1v-0.1l0,0h0.2h0.1l0,0l0,0h-0.1l-0.1,0.1l0,0
	l0.1,0.1v0.1h0.1h0.1h0.1l0,0l0,0v-0.1v-0.1l0,0l0.1,0.1v0.1l0,0l0,0l0.1-0.1h0.1l0.1,0.1l0.1,0.1l0,0l0,0v-0.1v-0.1l0,0v-0.1l0,0
	l0.1,0.1l0.1,0.1h0.1h0.1l0.2-0.2v-0.1l0,0v0.1h0.1h0.1v0.1l0,0h-0.1l0,0h0.1l0.1,0.1v0.1h0.1v0.1l-0.1,0.1l0.1,0.2h0.1h0.1l0,0l0,0
	v0.1v0.2v0.1v0.1l0.1,0.2v0.1v0.1v0.1v0.1l0.1,0.2l0.1,0.1l0.1,0.1l0.1,0.1l0,0v0.1v0.1l0,0h0.1h0.1h0.1l0,0h0.1h0.1h0.1h0.1
	l0.1,0.1v0.2v0.1l0,0h0.1h0.1l0.1,0.2l0.1,0.1l0.1,0.1h0.1l0,0l0,0v0.1l-0.1,0.1h-0.1h-0.1l0,0h-0.1v0.1l0,0l0.1,0.1l0,0h0.1
	l0.1,0.1l0.2-0.1h0.1h0.1h0.1l0.1-0.1l0.2,0.1h0.1h0.1l0.1-0.1v-0.2V187v-0.1l0.1-0.2l0.2-0.1h0.1l0.1,0.1v0.1l0.1,0.2l0.1,0.1
	l0.1,0.1l0.1,0.1l0.1,0.1l0,0v-0.1v-0.1v-0.1V187v-0.1l0,0l0.1-0.1h0.1h0.1l0.2-0.2l0.1-0.1l0.1-0.1l0.2,0.3l0.1,0.1l0.2,0.2l0,0
	v0.1l0,0l0.1,0.1v0.2v0.1v0.1l0.2-0.1v0.1l0,0l0,0l0,0l0.1,0.1l0.3,0.5v-0.1l0,0V188v-0.1h0.1h0.1l0.1-0.1l0,0h0.1l0.1,0.1l0.1,0.1
	v0.1v0.2v0.2v0.1l0,0h0.1h0.1h0.1h0.1l0,0l0,0l0,0v0.1h0.1l0,0l0.1-0.1l0.1-0.1l0,0l0.1-0.2l-0.1-0.2l0,0V188v-0.1v-0.1h0.1h0.1h0.1
	l0,0v0.1l-0.1,0.3v0.1l0.1,0.1l0.1,0.1v0.1v0.1v0.1l0,0v-0.1v-0.1v-0.1l0,0h0.1h0.1h0.1l0.2-0.1l0,0v0.1v0.1h0.1h0.1h0.1h0.1
	l0.2-0.1l0,0v-0.1l0,0h0.1h0.1l0.1-0.1l0,0v-0.1l0,0l0,0h0.1l0,0l0.2-0.1l0,0l0,0v0.1v0.1l0.2,0.1l0.2,0.1l0,0h0.1h0.1h0.1l0,0h0.1
	l0,0l0.1-0.1v-0.1h0.1l0,0l0.1,0.1v0.1h0.1v-0.1l0,0l0.1,0.1l0.1,0.1l0.1,0.1l0.1,0.1h0.1h0.1h0.1l0,0l0,0h0.1h0.1l1,1l-1.7,10.8
	l0,0l0.7,8.1l-0.1,2.2v0.6l-1.9,6.8l1.6,2l0.3,1.4l-0.4,1.1l-0.2,0.5l0.5,2.7l0.3,4.5l-0.5,3.2l0,0l0.4,2.3l0.9,2.3l-0.1,2v0.4l0,0
	l-0.4,2.1l0.2,2.5l-0.5,4.7l0,0l-1,5.8l0.7,3.2v0.1l0.2,2.7l-0.2,2.2l-0.7,2.2l-0.2,2.6l0.9,1.1l1.4,0.5l0.3,2.2l0,0l-0.1,2.1
	l0.4,2.7l0.9,1.6l-1.9,2.2l0.5,3.7l4.5,2.9l0.6,0.4l1,6.5l0,0l-0.4,3.2l2.3,2.7l-0.4,1.6v0.1l-0.5,3.8v8.2l-0.4,3.3l0.5,2.7v1.6l0,0
	l-0.4,2.1l0,0v4.3l0,0l-1.4-0.5l-0.9,0.5l-1.4-0.5l0,0l-1.4-1.1l0,0l0.5,1.6l2.3,3.8l0.5,1.6l0,0h1.9v1.1l-2.3,2.1l0.8,3.3l0.1,0.6
	l-1.4,4.3v4.3l0,0l1.9,9.2l2.3,3.3l-4.2,9.3l-0.4,0.9l0.9,3.8l-0.9,1.6l0.6,1l0.8,1.2l0.3,3.1l0.2,1.4l-1.4,2.7l-3.7,0.9l0,0
	l-0.9,0.2l-0.5,1v0.1l-1.4,1.1l-0.9,1.6l0,0l-1.4,1.6l0,0l-0.5-3.3l-1.9-2.2l-0.9-2.7v-0.1l-1.4-1.6l-0.2-0.1l-1.2-0.5l-0.5-1.1
	l0.9-2.7l0,0l2.8-3.2l0.9-3.2V370l-0.9-0.6l-0.4-1.6v-2.2l-1.9-2.2h-0.5l-0.4-0.3l-2.9-2.4v-0.1l-0.9-3.7l0,0l-0.9-0.5l-0.5-3.3l0,0
	l-1.4-0.5l0,0v0.1l-0.9,1l-0.9,2.2h-1.4l-1.9-0.5L382,357l-1.4-0.5h-1.4l-1.4-1.1l-2.3-0.5h-5.1l-1.4-0.5h-1.4l-0.9-1.1l-1.4,0.5
	l-1.5-0.5l-0.9,0.5l0,0h-4.6l0,0l-4.2,1.1h-1.8l-0.5,1.6l-3.3,1.1l-2.3-1.6l-1.4,0.5l-1.4-0.5l0,0L342.9,347.2z M344.3,217.5
	L344.3,217.5l0.1-0.1L344.3,217.5z"/>
<path id="D292" class="st0" d="M508.9,254.4l8.9-3.7h3.1l1.6-5.2l-3.9-5.7l0.8-6.3l2-4.2l5.1,2.6l2.4-4.7l1.2-6.8l2-4.2l5.5-4.7
	l-0.8-5.7l0.4-5.7l-3.9-4.2L532,189l3.9-2.1l5.5-3.1l3.5-6.7l5.5-2.2l-2.3-5.7l-1.6-7.2H541l-3.9-4.7l-2-7.8l-5.9-3.1l-4.7-2.1
	l-4.7-3.6v-6.8l-2.8-0.5l-5.1,1.1l-2.4-5.8l-3.2-11.1l-0.2-2.1l-0.6-1l-1.7-4.1l-0.7-3.7l1.2-17.9l0.4-1.5l0.5-0.6l0.4-2.8h0.1h0.1
	v-0.1l0.1-0.1h0.1h0.1h0.1h0.1h0.1h0.1h0.1l0.1-0.1l0.1,0.1l0.1,0.1l1.1,0.8l1.5-0.4l0.9-0.5l0,0l0.2-0.3v-0.1v-0.1l0,0l0,0l0.8-0.9
	l0,0l0,0l0.3-0.6l0,0v-0.1l0,0h-0.1h-0.1h-0.1v-0.1v-0.1h0.1h0.1l0,0h0.1v-0.1v-0.1l0.1-0.1V81l0.1-0.1v-0.1v-0.1h-0.1v-0.1l0.1-0.1
	l0,0l0.1-0.1h0.1h0.1h0.1l0.1,0.1v0.1v0.1v0.1v0.1v0.2v0.1h0.1l0.4-0.4h0.1v-0.3v-0.1v-0.1v-0.1l0.9,0.5l1.2-0.3l1.3-0.7l0,0
	l1.1,0.3l0.9-0.9l0,0l-0.1-0.1v-0.1l0.1-0.1v-0.1h-0.1v-0.1h0.1l0,0l0,0l-0.1-0.1l0,0h-0.1h-0.1l-0.1-0.3l-0.1,0.1l-0.1-0.1v-0.1
	l0.1-0.2L518,78h-0.1l0,0v-0.1l0.2-0.1v-0.1v-0.1v-0.1h0.1l0,0l0.1,0.1l0.1-0.1v-0.1l-0.1-0.1h-0.1l-0.2,0.2v-0.1l0,0l-0.1-0.1l0,0
	v-0.1h0.1v-0.1h0.2V77v-0.1l0.1-0.1l-0.1-0.1l0.2-0.2l-0.1-0.1v-0.1v-0.1l0.1-0.1h0.1h0.1h0.1l0.2-0.3l0,0v-0.2v-0.1h0.1v-0.1v-0.1
	l0.1-0.1v-0.1V75v-0.1v-0.1v-0.1v-0.1v-0.1h0.1h0.1v-0.1l0.1-0.1l0,0l0.1,0.2l0,0h0.1l0.3-0.4l0.6-0.7v-0.1l-0.1-0.1l-0.1-0.3v-0.1
	l0.2-0.1l0.2,0.2v-0.1v-0.1l-0.1-0.2h-0.1l0,0l-0.1-0.1l-0.1-0.1v-0.1V72l0,0h0.1l0.1-0.1l0.1-0.1l0.1-0.1h0.1l0.1-0.2l0.1-0.1v-0.2
	V71l0.1,0.1h0.1V71l-0.1-0.1v-0.1v-0.1l0.1-0.1l0.1-0.2l0.1-0.1l0.1-0.2h0.1V70l-0.1-0.1l0.1-0.1l0,0h0.1v0.1V70v0.1v0.1l0,0l0,0V70
	v-0.1h0.1h0.1v-0.1v-0.1v-0.1h0.1v0.1v0.1l0.1,0.1h0.1v-0.1v-0.1l0.1-0.1l0,0l0.2-0.2v-0.2l-0.1-0.1l0,0l0,0v-0.2v-0.2v-0.1h-0.1
	h-0.1v-0.1l0.1-0.1l0,0v-0.1h-0.1h-0.1v-0.2V68l0,0l0,0l-0.1,0.1h-0.1l-0.1-0.1v-0.1v-0.1h0.1l0.1,0.1h0.1v-0.2v-0.2l0.1-0.2l0,0
	v-0.1l-0.1-0.1V67l0.1-0.1l0,0l-0.1-0.1v-0.1v-0.1l0.1-0.1v-0.2v-0.2l0.1-0.1l-0.1-0.1v-0.1l0.1-0.1l-0.1-0.1l0.1-0.1l0.1-0.1
	l0.1-0.1l0.1-0.1v-0.1V65l0.1-0.1l0,0v-0.1l0.1-0.1l0.1-0.1l0.1-0.1h0.1l0,0l0.1-0.1v-0.1v-0.1v-0.1V64v-0.2l-0.1-0.1l0,0v-0.1v-0.1
	v-0.1l-0.1-0.1h-0.1v-0.2V63v-0.1l0.1-0.1l0.1-0.1l0.1-0.1l0,0l0,0l0,0v-0.1v-0.1v-0.1l0,0v-0.1l0,0h0.1h0.1h0.1h0.1h0.1h0.1l0,0
	l0,0l0.1,0.1v0.1v0.1v0.1h0.5l0.7-0.1l0,0l1.7,0.3l1.4-0.4l0,0l0.3-0.1l0,0l0,0h0.1l0.7-0.3h0.1l1.2,0.7l1.3,1.4l0.8-0.2l-0.1-0.1
	v-0.1l0,0l0,0h0.1h0.1l0,0l0,0v-0.1v-0.1v-0.1l0.1-0.1l0.1-0.1l0.1-0.1V63l0.1-0.2v-0.1v-0.1v-0.2l-0.1-0.2l0,0v-0.1V62v-0.1l0,0
	l0.1-0.1h0.1h0.1h0.1v-0.1v-0.1v-0.1v-0.1h-0.1h-0.1h-0.1H533l0,0h-0.1l-0.2,0.1l-0.1,0.1h-0.1v-0.1v-0.1l0.1-0.2l0.1-0.2v-0.2v-0.1
	v-0.1v-0.1v-0.1v-0.1l0,0l0,0l0.1-0.2V60l-0.1-0.1l-0.1-0.2l-0.1-0.1l-0.1-0.1v-0.1v-0.1l0.1-0.1l0,0h0.1h0.1h0.1l0.1-0.1V59v-0.1
	v-0.1v-0.1l-0.1-0.1l-0.1-0.1v-0.1v-0.1v-0.2V58l-0.2-0.2l0,0L533,57h-0.1h-0.1h-0.1h-0.1l-0.1-0.1l-0.1-0.1v-0.1v-0.1v-0.1v-0.1
	v-0.1l0.1-0.1l0,0v-0.1V56v-0.1l0,0l0,0v-0.1l-0.1-0.1h-0.1h-0.1h-0.1H532l-0.1-0.1v-0.1v-0.1h0.1l0,0v-0.1v-1.4l0.4-0.4l0,0
	l-0.1-0.1l-0.1-0.1v-0.1v-0.1l-0.1-0.1l-0.1-0.1v-0.1l-0.1-0.1l-0.1-0.1v-0.1l0,0v-0.2v-0.1V52v-0.1l-0.1-0.1h-0.1h-0.1l0,0v-0.1
	v-0.2v-0.1l0.1-0.1l0.1-0.1l0.2-0.1L532,51v-0.1v-0.1v-0.1v-0.1l-0.1-0.2v-0.1l0,0v-0.1v-0.1l-0.1-0.1l-0.1-0.1h-0.1h-0.1h-0.1h-0.1
	v-0.1v-0.1l0.1-0.1l0.1-0.1v-0.1v-0.1v-0.1v-0.1v-0.2v-0.1l0.2-0.1h0.1v-0.1v-0.1v-0.1v-0.1v-0.1v-0.1l-0.2-0.8h-0.1h-0.1l-0.2,0.1
	h-0.1H531v-0.1v-0.1v-0.1v-0.2v-0.1h0.1l-0.2-0.1v-0.9v-0.1l0.2-0.4H531v-0.1v-0.1l0.1-0.2v-0.2v-0.1v-0.1v-0.1v-0.1l-0.1-0.1
	l-0.1-0.1h-0.1h-0.1h-0.1l-0.1,0.1l-0.1,0.1l-0.1,0.1l0,0h-0.1l0,0l0,0l-0.1-0.1v-0.1v-0.1v-0.2v-0.2v-0.2v-0.1l0,0v-0.1l0.1-0.2
	l0.1-0.1l0.1-0.1l0.1-0.1l0.1,0.1l0.1,0.1v0.1v0.2v0.1v0.1l0,0h0.1l0,0v-0.1v-0.1v-0.2V43v-0.2v-0.2v-0.2l0,0h-0.1h-0.2l-0.1,0.1
	h-0.1v0.1l-0.1,0.1h-0.1H530h-0.1v-0.1v-0.1v-0.1l0.1-0.1v-0.1v-0.1V42l0,0l0,0l-0.1-0.1h-0.1l-0.1-0.1l-0.1-0.1v-0.1v-0.1l0,0v-0.1
	l0.1-0.2l0.1-0.1l0.1-0.1l0.1-0.1l0,0h0.1V41l0,0v0.2l-0.1,0.2v0.1v0.1h0.1l0.1-0.1h0.1h0.1l0.1-0.1l0,0v-0.1v-0.1V41v-0.1v-0.1
	l-0.1-0.1l-0.1-0.1l-0.1-0.1l-0.1-0.1v-0.1v-0.1v-0.1V40v-0.2v-0.1l0,0v-0.1v-0.1v-0.1l-0.1-0.1l-0.2-0.1l-0.2-0.1l-0.2-0.1
	l-0.1-0.1v-0.1v-0.1l0,0v-0.2v-0.2v-0.1v-0.1l-0.1-0.2l-0.2-0.2v-0.1v-0.2v-0.1v-0.1v-0.1l0.1-0.1v-0.1v-0.1v-0.2v-0.1v-0.1v-0.1
	l0.1-0.1l0.1-0.1l0,0V36v-0.1l-0.1-0.1l-0.1-0.2v-0.1v-0.1v-0.1v-0.1v-0.1l0.1-0.1v-0.2h-0.1l-0.1,0.1h-0.1h-0.1l-0.1-0.1v-0.1
	l0.1-0.3v-0.1v-0.1V34l-0.1-0.3v-0.2v-0.1l0.1-0.1v-0.1v-0.1l-0.1-0.1l-0.1-0.1l0,0h-0.1v-0.1v-0.1v-0.1h0.1h0.1h0.2h0.1h0.1l0,0
	l0.1-0.1l0,0v-0.1v-0.1l-0.1-0.2l-0.2-0.2l-0.1-0.1v-0.1v-0.1V32v-0.2v-0.1l0,0l-0.2-0.1l0,0h-0.1h-0.1h-0.1l0,0v-0.1l0,0l0.1-0.1
	l0.1-0.1l0.1-0.1l0,0v-0.1V31v-0.2v-0.2v-0.1v-0.1v-0.1v-0.2V30v-0.1v-0.1l0.1-0.1l0.1-0.1l0.1-0.1l0.1-0.4l-0.1-0.1l-0.1-0.1
	l-0.1-0.2v-0.1l0.1-0.1l0,0l0,0h0.1h0.1h0.1l0,0l0.2-0.5l0,0l0,0l0.1-0.2l0.5-1.2h0.9l-0.2-0.2l-0.1-0.1l-0.1-0.1l-0.1-0.1l-0.1-0.1
	l-0.1-0.1l-0.1-0.1l-0.2-0.1l-0.1-0.1l-0.1-0.1l-0.1-0.1l-0.1-0.1v-0.1V25v-0.1l0,0v-0.1h-0.1h-0.1l-0.1,0.1H529l-0.1-0.1l0,0v-0.1
	v-0.1l0.1-0.1l0.1-0.1h0.1h0.1h0.1l0.1-0.1v-0.2h0.1V24v-0.1h0.1V24v0.1v0.1v0.1v0.1l0,0h0.1l0,0v-0.1v-0.2V24v-0.1v-0.1v-0.1v-0.1
	l0.1-0.1l0,0l0.1-0.1l0.1-0.1l0.1-0.1v-0.1V23l0,0h-0.1H530h-0.1l-0.1-0.1l-0.1-0.1l-0.1-0.1v-0.1v-0.1v-0.1v-0.1v-0.1v-0.1v-0.2
	v-0.1l-0.1-0.5l0.2-1.5h-0.1l0,0v-0.1v-0.1h0.1h0.1h0.1h0.1l0.1-0.5l0.6-0.2l0,0l0.7-0.3v-0.1l-0.1-0.1L531,18l-0.1-0.1l-0.1-0.2
	v-0.1v-0.1v-0.1l0,0v-0.1v-0.1v-0.1V17v-0.1l0,0v-0.1l0.1-0.1v-0.1l0,0v0.1v0.1h0.1h0.1h0.1h0.1h0.1l0,0l0,0v0.1v0.2v0.1l0,0l0,0
	h0.1l0.1-0.1l0.1-0.2v-0.1L532,17l0,0l0.1,0.1h0.1h0.1l0,0h0.1l0.1-0.1l0.1-0.1l0.1-0.1v-0.1h0.2h0.1h0.1v-0.1v-0.1v-0.1v-0.1v-0.2
	v-0.2v-0.1v-0.1l0,0v-0.1h0.1l0,0h0.1h0.1h0.1h0.1h0.1l0,0l0,0v0.1l0,0v0.1v0.1V16l0,0h0.1l0,0h0.1l0.1-0.1l0.1-0.1l0.1-0.1l0.1-0.1
	h0.1h0.1h0.1l0.1,0.1l0,0l1.1-1.1l1.4,1.4l0.7,0.9l-0.1,0.9l-0.2,1.3h0.1V19h0.1l0.1-0.1h0.1l0.1,0.1v0.1l0.1,0.1v0.1l0,0v0.1l0,0
	v0.1v0.1v0.1l0.1,0.1l0,0v-0.1v-0.1v-0.1v-0.1v-0.1l0,0l0,0l0,0h0.1l0.1-0.1h0.1l0,0l0,0v0.1l0,0l0,0v0.1v0.1v0.1h0.5l0,0l0.1-0.1
	l0,0l0,0h0.1h0.1h0.1h0.1h0.1l0,0l0.1,0.1l0.1,0.1l0.1,0.1v0.1l0.5,0.5h0.1l0,0l0,0v0.1l0,0v0.1l0.3,0.3l0.8-0.3l0.5-0.2l0.5,0.8
	l0.9,1.3l0.9,0.6v1.8l0,0V25v0.1v0.1v0.1v0.1l0,0l0.1,0.1v0.1v0.1v0.1V26v0.1l0,0h0.1h0.1h0.1v0.1v0.1l-0.1,0.1v0.1v0.1l0,0l0.1,0.1
	h0.1l0,0l0,0h0.2h0.1h0.1h0.1h0.1h0.1h0.1h0.1h0.1h0.1h0.1l0,0l0,0l0,0v0.1v0.1V27l0,0h0.1h0.1l0,0h0.1h0.1l0,0l0,0v0.1l0,0v0.1v0.1
	v0.1v0.1v0.1v0.1v0.1l0.1,0.1l0,0l0,0h0.1h0.1h0.1h0.1h0.1h0.1h0.1l0,0h0.1l0,0h0.1h0.1h0.1h0.1l0,0h0.1h0.1l0,0l0,0l0.2-0.4L549,27
	l0.2-0.5l0.2-0.5l0.5,0.2l1,0.4l0.3,1.5l0.1,0.6l3.1,0.8v-1.1v-0.8l1.1,1.6l0.1,0.5l0.1,0.5l0.1,0.6l0.2,0.9l0.1,0.2l0.1,0.7
	l0.9,1.3l-1.8,2.3l-1.2,2l-0.4,3.5l0,0l0.7,2.9v2v0.1l0,0l0.4,0.8l0.9,0.9l0.3,1.2v1.5l1.1,1.3l5.6,4.8l0.1,0.1l0.3,1.6l-0.5,5.9
	l0.9,1.9l0.2,0.5l1.1,1.6l0.2,0.8l-0.2,1.4l0,0l0.5,3.1l1.8,1.2l0.2,1.7l0.8,1.1L568,79l0,0l-0.9,1.7l0,0l0.7,0.9l0.2,0.3l-0.1,0.7
	l-1.3,1.3l-0.2,0.7l0.1,2.6l-1.3,2.2l0,0l-16.7,49.1l9-0.6l6.2,0.1l0,0l8.2-0.7l0,0l2.3,0.3l1.5-0.2l0,0l0.1,1l-0.6,0.6l-0.4,1.6
	l0.3,1.6l0.6,1.1l-0.2,0.9v1l1,1v0.9v0.1l-0.5,0.9l1.1,0.8l0.3,0.2l-0.2,0.3l-0.1,1.1l0.8,0.2l0,0l2.4-0.4l1-0.1v0.8l-1.3,2.2v0.6
	l0.9,1.6l1.1-1l1,1.8l1.8,1.4l0.1,0.5l0,0l-1.5,0.2v0.7l1.6,1.6l0,0l0.2,0.6l-0.3,0.5v0.7l1.5,1.6l-0.2,0.9l0.3,0.4l0,0l-0.8,0.9
	l1.1,0.6l0.2,1.2l-0.3,0.9l0,0v2.4l-0.4,3.7l0.3,0.7l0.8,0.4l0.8,5.6l0.8,1.7v0.1l-0.2,1.1l-0.3,0.3l-0.5-0.3l0,0h-0.2l-0.2,0.1v1.5
	l-1,0.3l-0.3,0.6v1.5l0.3,1.5l-0.1,0.8l0,0l0.7,0.7v0.1l-0.9,1.4l0.1,3.8l1,1.2v0.6l0,0l-0.8,0.6l1,1.5l0,0v0.7l-0.9,1l0.1,0.7v0.1
	l-0.4,1.1l1-0.1l-0.2,0.8l-0.1,0.4v0.1l-0.7,1l0.3,2l-0.2,1.7v0.1l0.3,1.2l-0.3,0.7l0,0l-1.7,1.4v0.1v0.1l1.4,0.2l0.1,0.9l-1.2,0.5
	l-0.3,0.6l0,0l0.1,0.9l-0.7,0.5l-0.7-0.5l-0.3,0.2l0,0l-0.4,0.9l0.6,2.1l0.1,0.3l0.9,1.1l-1,0.6l0.4,2.2l0.1,0.5l-0.4,0.5l-0.7-0.5
	l-0.5,1.2l0.1,1.6l0.7,2.4L583,231l-0.7,0.8l-0.3,0.4l1.7,1.5v0.5l-0.8,1l0,0l0.8,1.1l-0.2,1.2l1.1,1.6l0,0l-0.2,0.4l-0.7-0.6
	l-0.5,0.2l-0.1,0.6l2.5,4.8l0.9,1l-0.1,1l0.6,5.3l-1,0.9l0,0l0.5,0.6l0.1,0.1v0.4l-0.5,0.5l-0.2,0.2l-0.5,1.6L585,256l0,0l-0.2,2
	H584l-0.6,1.4h-0.8l0.1,0.6l-0.6,0.2l-0.3,0.1l0.2,4v0.1l-0.6,0.2l0,0l0.4,1.3l-0.5,5.1l0.7,1l-0.3,0.9l0.3,2.9l1.5,1.8l1,1.8l0,0
	l2.1,0.9l0.6,0.4l0.3,0.7l-0.4,1.1l0.6,3.1l-0.2,1.7v0.1v0.1l-0.2,0.9L586,288l-0.6,0.8l0,0l-0.7-0.1l0,0l-0.1,0.1l-0.1,0.1
	l-0.5,5.6l0,0l-0.3,0.1l-0.3,0.6l-0.2-0.3l0,0L583,295l0,0l0.2,0.6l-0.2,0.5l0.4,0.8l-0.1,1l-0.7-0.2l-0.2,0.3v0.1l0.1,0.7l0.3,0.1
	v0.1l-0.1,0.9l0,0l0.6,0.7l0.4-0.1l0.5,1.7v0.1l0,0v1.7l0,0l-1.2,0.8l-0.1,0.4l0.7,0.5l0,0l-0.2,0.2l0,0l-1.3,0.7l0,0l-1.8,0.4
	l-0.8-0.5h-1l0,0l-1.2-1.1l-1.8,0.4v-2l-0.4-0.5h-0.2h-0.4l-1.3,2v1.6l-0.6,1.8l-0.2,0.6l-2.9,2l-0.6,1.7l-0.2,2.4l-0.1,0.8l0.6,0.8
	l0.4,1.4l0,0l1.6,2.5l-0.2,2v0.1l0.7,0.9l-0.1,0.3l0.7,0.4l0.4,2.6l-0.3,0.5l-0.7-0.2l-0.9,0.5l-0.6-0.7l-0.8,0.7l-2.3-1.1l-3.2,1.2
	l0,0l0.4,3.4l0.5,1l0.4,2.3l0.1,3.5l1.3,9.5l0.1,1.5l-0.2,1.6l-0.1,0.4l0.4,2.3l0,0l-0.6,7.7l0.7,4.4l0,0l0.2,0.2l2.3,2.7l0.1,0.4
	l1,2.3l-0.2-0.4l-0.3-0.4l-0.3-0.3l-0.5-0.6l-0.4-0.4l-0.6-0.2l-0.6-0.2l-1-0.4L566,368l-0.1-0.4v-0.2h-0.4h-0.2l-0.1,0.1l-0.3,0.4
	l-0.6,0.1l-0.5-0.5l-0.1-0.1l-0.7-0.1l-0.2,0.1l-0.3,0.1l-0.4-0.1l-0.3,0.3h-0.7l-0.3,0.1l-0.1-0.1l0,0h-0.4l-0.2,0.4l-0.2,0.3h-0.3
	h-0.1l-0.4,1v0.1l-0.8,1.5v0.1l-0.5,1.3l-0.1,1.3l0,0l-0.2,0.9l0.1,1l0,0l0.5,0.8l0.1,0.2l0.6,1.7l0.1,0.4v0.2l0.4,1.1v0.1l0.3,0.5
	v1.2l-0.8,0.8h-0.1l-0.6,0.4l0,0l-0.1,1v0.3v0.2l0,0v0.4l-0.5,0.6l0,0l-0.2,0.2v0.7v0.3l-0.1,0.3v0.1v0.1v0.1l-0.1,0.2l0,0l-0.4,0.8
	l0,0v0.6l0.2,1.3v0.1v0.9l-1,1.2l-0.4,0.9l-0.4,0.7l-0.6,1l-0.3,0.4v0.1l-0.3,0.5l0,0l-0.7,0.4l-0.1,0.3v0.2l0.1,0.4l-0.1,0.4
	l-0.5,0.2l-0.3,0.1v0.1l-0.2,0.6l-0.3-0.1l-0.3,0.2l-0.2,0.2l-0.2,0.1H551l0,0l-0.4-0.1h-0.1h-0.4v-0.3h-0.4h-0.2h-0.6l-0.2-0.1
	h-0.1l-0.3-0.3v-0.6l0.2-0.2l-0.2-0.6l0.1-0.3l-0.1-0.6l-0.5-0.4l-0.3-0.3l-0.6-0.3v-1l0.1-0.9v-0.7l0.2-0.3l0,0l0.1-0.1l-0.1-0.4
	l-0.1-0.3l-0.2-0.4l0.1-0.5v-0.3l-0.1-0.2l-0.1-0.1l0.1-0.1l0.1-0.1v-0.5v-0.3v-0.1l0.1-0.2l0.1-0.4l0.1-0.2l0.1-0.3l0.3,0.2
	l0.1-0.3l0.5-0.3l0.1-0.1l0.1-0.2l0.2-0.2l0.4-0.6v-0.2l0.1-0.2v-0.1v-0.4l0.1-0.7l0.2-0.2l-0.1-0.3l-0.1-0.2h-0.2l-0.1-0.3
	l-0.1-0.1l-0.2-0.1l-0.1-0.1l-0.2-0.4v-0.6l0.1-0.3l-0.3-0.3l-0.1,0.1l-0.1-0.2l0.1-0.4l-0.1-0.2l-0.1-0.3v-0.4v-0.3v-0.1l-0.1-0.4
	l-0.1-0.1l-0.1-0.4l-0.2-0.3l-0.1-0.3v-0.1l-0.1-0.4h-0.1v-0.3l-0.2-0.1l-0.3-0.4l-0.2,0.1l0,0l-0.1-0.1l-0.1-0.1l-0.1-0.3l0.1-0.5
	l-0.1-0.1l-0.1-0.1v-0.1l-0.1-0.1l-0.1-0.5h-0.1h-0.1h-0.1l-0.3-0.1l-0.3-0.4l-0.6-0.1l-0.1-0.1l-0.3,0.1h-0.1l0,0l-0.1,0.1h-0.1
	h-0.2l-0.1,0.1l-0.4-0.1h-0.2l-0.2-0.1l-0.1-0.2H542l-0.2-0.2v-0.1l-0.3-0.1l-0.2-0.3l-0.2-0.4l0,0H541l-0.5-0.2h-0.1V373l-0.1-0.2
	l-0.2,0.2l-0.1,0.3v0.1h-0.1l-0.2,0.1l0.1,0.1l0,0l-0.1,0.4l-0.4,0.1l0,0l0,0l-0.1,0.1l0,0l-0.5-0.1h-0.3h-0.1l-0.5-0.1l-0.1,0.1
	l-0.1,0.1h-0.1v-0.1l-0.1-0.4l-0.1-0.3l0.2-0.1V373l-0.2-0.2v-0.1l-0.1-0.3l-0.1-0.3l0.1-0.4l-0.1-0.1V371v-0.7l-0.4-0.4l-0.5-0.2
	h-0.1l0,0H536l-0.1-0.1l-0.1-0.3l-0.1-0.3l-0.2-0.5l-0.2-0.4V368v-0.4l-0.3-0.2l-0.1-0.1v-0.6h0.2l0.2-0.1l0.2-0.5v-0.7l-0.1-0.6
	v-0.3v-0.1v-0.3v-0.3v-0.4v-0.3l0.4-0.4l0.1-0.4l0.1-0.1l0.1-0.2l0.1-0.2l-0.1-0.1l-0.1-0.2v-0.1l0,0l-0.1-0.2l-0.2-0.1v-0.2v-0.2
	l-0.1-0.2l-0.2-0.1l-0.4-0.3l-0.4-0.1h-0.3l-0.3-0.1l-0.2,0.1l-0.2,0.3l-0.2,0.1l-0.4-0.1l-0.1-0.2h-0.1l1.5-0.8l0,0l1.3-0.4l0,0
	l0.7-0.2l0.3-0.6l0.5-2.1l-0.1-0.8l-0.7-1.2l-1.2-0.9l-2.2-0.1l-0.5-0.3l-0.7-2.1l0.1-2.1l0.3-0.5l-0.1-0.5l0.7-1.2l-0.5-1.5l-0.4-3
	l0.1-2.4l-0.1-3.3l-0.5-1.8l0.1-6.6l-0.5-2.3l0.1-4.6l-0.3-3.1l0.5-1l0.1-5.2l-0.9-5l-2.5-10l-0.3-2.4l-1.2-1.6l-1-2.7l-0.7-7.1
	l-0.6-2.4l-0.9-2.4l-0.1-1l-1-1.4l-0.5-0.3l-3.3,1.2l-3.3-0.9l-0.8-1l-1.2-0.6l-2.2,0.1l-0.9-0.3l-0.5-3.1l0.1-0.7l0.8-1.4l0.9-2.5
	l0.7-3.7l-0.8-2.3l-1.9-2.3L508.9,254.4z"/>
<path id="D903" class="st0" d="M222.9,459v-0.3v-0.1v-0.5v-0.4l0.2-0.6l0.2-0.8l0.4-1.1l0.2-0.6l0.1-0.2l0.1-0.3l0.1-0.3l0.1-0.3
	l0.1-0.4l0.1-0.5l0.1-0.3l0.2-0.8l0.1-0.6v-0.2l0.2-0.8l0.1-0.6v-0.2V449l0.7-0.4l0.6-0.4l0.2-0.1v-0.2v-1v-0.1l0,0l-0.2,0.1
	l-0.5,0.4h0v0.1l-0.3,0.1l-0.1,0.2l-0.1,0.1l-0.2,0.1h-0.1l-0.1-0.1H225l-0.1,0.2h-0.1l-0.2-0.1h-0.1l-0.2,0.1l-0.2,0.1l-0.4-0.7
	l-0.2-0.3l-0.4,0.1l0,0l-0.9-0.3l-0.1-0.1l-0.1,0.1v0.3h-0.3H221h-0.5V447v-0.1l0.1-1.6l0.1-1.6l0.1-1.4v-0.4v-0.7v-0.3v-0.1v-0.2
	l0,0l-0.1-0.1l-0.3-0.5l-0.3-0.6l-0.4-0.7l-0.4-0.7l-0.3-0.6l-0.1-0.2l-0.2-0.4l-0.3-0.6l-0.1-0.1V436v-0.1l0,0v-0.1v-0.2v-1.4h-0.2
	h-0.3l-0.6-0.8l0,0l-0.5-0.5l-0.3-0.3l-0.1-0.1l-0.2-0.3l-0.1-0.1V432l-0.7-0.7h-0.4l-0.4-0.4l-0.2-0.2v-0.1v-0.2l0.1-0.2l0.4-0.5
	l-0.1-0.4v-0.1l0.1-0.2l0.2-0.2l0.3-0.8l-0.3-0.6h-0.1h-0.6h-0.2l-0.7,0.1h-0.2l-0.8,0.1l-0.2,0.1l-0.4-0.2l-1.2-0.7l-0.3-0.2h-0.1
	v-0.3v-0.1v-0.3v-0.2l0,0h-0.1v-0.2v-0.4l0.4-0.8l0.1-0.2l-0.5-1.6L210,421l-0.2-0.7l-0.3-1l0.3-0.7l0.2-0.4l-0.1-0.2l0,0v-0.2
	l-0.1-0.4l-0.3-0.5l0,0v-0.1l-0.1-0.9h-0.1v-0.4v-0.3l-0.1-0.4v-1v-0.3l0.1-0.5h0.3l-0.2-1.3l0.7-1l-0.4-1.5v-0.5l-0.2-0.5l-0.1-1.3
	v-0.4v-0.2h-0.1l0.1-0.2l0.1-0.1l0.1-0.5v-1l-0.1-0.1l0.1-0.3l0.1-0.5l0.1-0.3h0.1l0.1-0.3v-0.4v-0.8h-0.1v-0.2v-0.1h0.1l0.1-0.7
	v-0.2l-0.1-0.3l-0.3-0.9v-0.1l0,0v-0.5l-0.1-0.4l-0.3-1.4v-0.1l-0.3-1.1l-0.2-0.8l0,0l-0.1-0.6l-0.1-0.3l-0.1-0.2v-0.4v-0.2l0.4,0.3
	l0,0l0,0l0.3,0.3l0.3,0.4l0.1,0.3l0.1,0.1l0.1,0.1h0.1l-0.1-0.3l0.3-1.1l0,0l0.7,1.1l0,0l0.5,1.3l1,0.5l1.1,0.7l0.2,0.2l0,0l0.5,0.8
	l0.5,0.8l0.1-0.1v-0.1l0,0v-0.1v-0.1v-0.1v-0.2l0.1-0.1l0,0v0.1v0.1v0.1v0.1l0,0v0.1v0.1v0.1l0,0h0.1l0,0l0,0l0.1-0.1l0,0v-0.1v-0.1
	v-0.1l0,0h0.1l0,0v0.1l0.1,0.1v0.1v0.1l0,0l0.1,0.1l0.2,0.1h0.1h0.1l0,0l0,0l0.1,0.1h0.1l0.1,0.1h0.1h0.1h0.1h0.1h0.1l0.2-0.1h0.1
	v-0.1v-0.1v-0.1l0,0h-0.1h-0.1l0,0l0,0v-0.1v-0.1l0.1-0.3V398v-0.1v-0.1v-0.1l0,0l0,0h0.1l0.1,0.1v0.1l0.1,0.2v0.1l0,0l0.1,0.1l0,0
	l0,0v0.1l0,0l0,0l0,0v0.1v0.1v0.1l0.1,0.2l0,0l0,0l0.2,0.1l0.4,0.1h0.1l0.3,0.1l0.4,0.2l0.5,0.2l0.4,0.2h0.1l-0.2,1l-0.2,1l-0.2,0.9
	l-0.1,0.4l0.4,0.2l0.4,0.2l0.2,0.1l0.9-0.1h0.2h0.3l0.5-0.1v-0.2v-0.4l0.1-0.7l0.6-0.1h0.1l0.4-0.1l0.6-0.1l-0.3-0.6l-0.3-0.6
	l-0.1-0.3h0.2h0.7v-0.5l-0.2-0.1l-0.2-0.1l-0.7-0.3l0,0l0.4-0.5l0.3-0.5l-0.2-1l-0.2-0.8v-0.2l0.1-0.6v-0.2l0.1-0.9l0.1-0.7l0.1-0.7
	v-0.4l0.1-0.8l0.1-0.6l0.1-1.1l0.1-0.4l0.1-0.9l-0.2-0.1h-0.1l-0.2-0.1v-0.1v-0.1v-0.2l0,0l0,0v-0.1l0,0l0.1-0.1v-0.1V388l0,0v-0.1
	v-0.1l0,0v-0.1h0.1l0,0l0,0l0,0h0.1h0.1l0,0v-0.2l0,0v-0.1v-0.1v-0.1V387v-0.1v-0.1v-0.2l0,0l0,0h0.1h0.1h0.1l0.1-0.2v-0.1l0,0v-0.1
	l0.1-0.1V386l-0.5,0.1l-0.7,0.2l0.9,0.7h-0.1l-0.1-0.1l-0.3-0.6l-0.1-0.2l-0.8-0.7l-0.2-0.2l-0.3-0.3l-0.5-0.5l-0.1-0.1l-0.2-0.2
	l-0.1,0.1l-0.2,0.3l-0.1,0.2l-0.2,0.4h-0.6h-0.4h-0.6h-0.6h-0.6h-0.4H217h-0.7H216h-0.5h-0.2h-0.2h-0.2h-0.3h-0.2H214h-0.2h-0.4H213
	h-0.6l-0.8,0.1l-0.9,0.1l-0.8,0.1l-0.9,0.1h-0.5h-0.3h-0.3h-0.3l-0.1-0.1l-0.2-0.3V385l-0.1-0.9v-0.4v-0.2l-0.1-0.8l-0.2-1l-0.1-0.4
	v-0.4v-0.2v-0.3v-0.2v-0.4v-0.2v-0.1v-0.2l-0.1-0.5v-0.2v-0.1v-0.1v-0.2l-0.3-0.2l-0.1-0.5l-0.1-0.4l-0.1-0.6v-0.2l0.1-0.3l-0.1-0.2
	l-0.2-0.3l0.2-0.5l0.1-0.4v-0.2l0.1-0.4l0.1-0.4l0.1-0.5l0.1-0.2l0.2-0.6l0.3-0.9l0.1-0.8v-0.5v-0.2l0.1-0.5l0.2-0.6l0.1-0.3
	l0.3-0.9l0.1-0.4l-0.1-0.5v-0.3l0.3-1l0.1-0.3v-0.2v-0.1v-0.2l0.3-0.7l0,0l0.2-0.5l-0.2-0.1l-0.3-0.1l0.1-0.4l0.1-0.5l0.5,0.1h0.1
	l0.4-0.6l0.1-0.2l0.1-0.1l0.2-0.3v-0.1l0.2-0.3l0.1-0.2l0.2-0.2l0.1-0.1l0.2-0.3l0.3-0.3l0.2-0.3l0.1-0.1l0.3-0.2l0.2-0.1h0.2h0.2
	h0.1h0.3v-0.1l0,0l0,0l0,0l0,0l0,0l0,0l0,0h0.1l0,0l0,0l0,0l0,0v-0.1l0,0l0,0l0,0l0.3-0.3l0,0l1.8,0.1l1.6,0.2h1.5l0.5-0.2l1.8-0.6
	l0.2-0.1l1.3,0.1h0.2l1.8,0.4l1.6,0.3h0.2l1.1,0.6l0.2,0.6l0.3,0.7l0,0l0.4,1.4l0.9,1.1l0.2,0.1l0.6,0.4l0.2,0.1l3.5,12.7l4.4-2.8
	l9.5,9.6l7-10.2l3,7.8l3.2-2.2l1.4-5.9l3.7-9.6l4.4,0.6l3.7,5l4.2,2.2l3.3-2.8l2.6-9.2l3.7,1.5l5.6,1l3.6-1.2l4,5.2l10.2,4.4
	l7.6-1.8l9-5.9l4.6-4.3l4.2,0.9l3.7-5.6l2.5-5.4v-0.1l0.6,8.8l0,0l0.4,2.7l1,1.6l-0.9,3.2l-2.4,3.8l-1.3,8.5l-5.5,5.3l-1.9,3.7
	l2.4,5.9l1.6,5.8l-4.9,4l-4.4-1.6l-3.3,3.5l-4.2,4l-3.7-1.2l-0.9-7.5l-0.9-2.9l-1.8,0.5l-1.4,2.2l-3.3,2.7v1.1l-1.8,6.5l-2.8,2.2
	l-0.9,2.7l-1.8,2.2l-1.9,1.6l0.9,0.6v1.6l-1.4,2.2l-0.9,2.2l-4.2,3.7l-3.7,4.4l-2.7,1.6v1l0.5,1.7v2.2l-0.5,1l0.5,1.6v2.7l-0.9,0.5
	l-0.5,1.1l1,1.6v3.8l0.5,1.6l4,1.8l4.2-4.6l5.3-3.7l6.5,4.6l-1.2,7.1l-5.1-1.5l-6.9,2.7l-4.2,3.1l-3.1-1.9h-2.8l-2.3,0.5l-1.5,1.6
	l-0.9,1.6l1,1.1l0.9,3.8l0.9,1l0.1,4.9l-0.5,2.2l2.8,2.2l-0.9,2.7l-1.9,1.6l-0.9,4.8l0.1,3.3l-0.9,2.2v1.6l0.9,2.2l1.8,1.1l0.5,1.6
	v2.7l-0.9,4.4v1.6v2.7l0.9,1.6l2.4,1.6l2.4,0.5l3.3,2.2l2.8,1.1l0.1,3.2v0.1h-0.1l0.5,2.7l-1.1,0.7l-0.7,0.4l-0.5,1.6v0.1l-0.9,1.1
	h-1.4v1.1l-2.8,2.7h-1.4l-0.7,0.6l-0.7,0.5v4.9l0.5,2.7l-0.9,1.6l0,0l-0.5,1.6v1.6l-1.8,0.6l-0.9,1.5v0.1l-2.3,7v0.1v1.6l-1.9,1.1
	l-3.2,2.7v1.1l0,0l-2.3,2.7l-3.2,2.2l-1.9,0.5h-1.9l-1.9-0.5l-1.5,0.8l-0.1-0.4l-0.1-0.8l0.8-1.3v-0.1l0,0l1.2-1l-1.1-0.6l-1.2-0.9
	l-1.4-0.2l-1-1.1l-0.6-1l0.3-1l0,0l0.2-0.5l0.5-1l0.5-0.7l0.4-0.5h0.6l-0.1-1v-0.2l-0.1-0.6l-0.1-0.8v-0.2v-0.3l-0.2-0.6l-0.1-0.4
	l-0.1-0.2v-0.1l-0.2-0.5l-0.2-0.5l-0.3-0.9h-0.1h-0.6h-0.7h-0.4h-0.1h-0.5h-0.1h-0.2h-0.1h-0.2h-0.3h-0.1H254h-0.8h-0.1l-0.2-0.2
	l-0.7-0.7l-0.1-0.1l-0.2-0.2l-0.6-0.6l-0.3-0.3v-0.1l0.1-0.2l0.2-0.6l0.2-0.8l0.1-0.3l0.1-0.2l0.2-0.5l0.1-0.5l0.1-0.4l0.1-0.4
	l0.2-1l0.1-0.8l0.1-0.5l0.1-0.8l0.1-0.5l0.1-0.4l0.1-0.5l0.1-0.6l0.1-0.7h0.3l0.9-0.4l1.1-0.5l0.6-0.2h0.1l0.8,0.2l0.9,0.2h0.1
	l-0.1-0.7v-0.3l-0.1-0.6l0.1-1.3l0.1-1l0.1-0.5v-0.1v-0.1h0.1l0,0l0.1-0.1v-0.1l0,0v-0.1l0,0l0,0h0.1v-0.1v-0.1h0.1h0.1h0.1l0.1,0.1
	l0.1,0.2l0.1,0.1l0.1,0.1l0,0h0.1l0.1-0.1l0.1-0.1l0.1-0.1l0,0l0.1-0.1l0.1,0.1l0.2,0.1h0.1h0.1h0.1l0.1-0.1l0,0v-0.1l0.1-0.7
	l0.1-0.7v-0.2l0.2-0.7l0.1-0.6l-0.5-0.1h-0.1l-0.5,0.3l0,0l-0.1,0.1l-1.3,1l0,0l-1,0.9l-0.8,0.3l-0.7,0.2l-0.2,0.1l-0.1,0.1
	l-0.3,0.3l-0.7,0.6l0,0h-0.3h-0.4l-0.4,0.1h-0.5h-0.2h-0.2h-0.2l-0.4,0.1h-0.4h-0.2h-0.2l0.1-0.2v-0.1l0.1-0.4l0.2-0.8v-0.2l0.1-0.2
	l0.1-0.4l0.2-0.7l0.3-1.3l0.1-0.3l-0.6-0.2l-0.7-0.2l-0.3-0.1l-0.5-0.1l-0.2-0.1l-0.3-0.1h-0.1h-0.1l-0.1-0.5l-0.2-0.9l-0.1-0.8
	l-0.1-0.8v-0.1v-0.1l-0.1-0.3h0.3h0.3h0.6h1l-0.1-0.2l0.9-0.2v-0.3l0.1-0.9l-0.2-0.2l-0.1-0.1v-0.1v-0.1v-0.1v-0.2v-0.2v-0.1
	l-0.6,0.2l-0.3-0.1l-0.1,0.2l-0.1,0.2l0,0h-0.1h-0.1l-0.1,0.1h-0.1l0,0l0,0h-0.1l0,0l-0.1-0.1l-0.1-0.1v-0.1h-0.1l0,0l-0.1,0.1
	l-0.2-0.1l-0.2-0.1l0,0l-0.1-0.1l-0.1-0.2h-0.3l-0.1,0.1l-0.3,0.1v0.1l-0.2,0.2l0,0l0,0h-0.1l-0.2-0.1l-0.1-0.1l-0.1-0.1h-0.1v0.1
	l-0.1-0.1h-0.1h-0.1v-0.5v-0.4v-0.2v-0.7v-0.2v-0.1v-0.5v-0.2v-0.4v-0.5V517v-0.7l-0.1-0.9v-0.2v-0.5v-0.1v-0.3v-0.6v-0.2v-0.4v-0.6
	V512v-0.1v-0.4v-0.3v-0.5l-0.1-0.8v-0.6V509v-0.5V508v-0.4v-0.4v-0.5v-0.6v-0.4l-0.1-0.8v-0.4l-0.5-0.4l-0.2-0.1l-0.3-0.3l-0.2-0.2
	l-0.4-0.3l-0.2-0.2l-0.1-0.1l-0.3-0.3l-0.1-0.1l-0.1-0.1l-0.3-0.3l-0.2-0.1l-0.3-0.3l-0.2-0.1l-0.2-0.2l-0.1-0.1l-0.2-0.2L243,501
	l0,0l-0.2-0.2l0.3-0.3l0.2-0.2l0.4-0.4l0.3-0.4l0.2-0.2l0.1-0.2l0.2-0.3l0.2-0.2l0.1-0.2l0.1-0.1l0.2-0.2l-0.5-0.6l-0.1-0.1
	l-0.1-0.2l-0.1-0.1l-0.1-0.2l0,0l-0.3-0.4l-0.1-0.1l-0.1-0.1l-0.2-0.2l-0.3-0.3l-0.4-0.4l-0.3-0.3l-0.2-0.2l-0.1-0.2l-0.2-0.3
	l-0.5-0.4l0,0l-0.2-0.2l-0.3-0.3l-0.3-0.3l-0.1-0.2l-0.1-0.1v-0.3v-0.7v-0.1v-0.3l-0.1-0.7l-0.1-0.4l-0.1-0.2l-0.2-0.4l-0.1-0.1
	l-0.1-0.3l-0.1-0.2l-0.1-0.3l0.4,0.1l-0.1-0.2l-0.3-0.7l-0.1-0.1l0.2-0.5l0,0l0.3-0.8l0.2-0.6v-0.5V485v-0.4l-0.3-0.2l-0.3-0.2
	l-0.2-0.2l0,0v-0.2v-0.2v-0.3l0.1-0.2l0.1-0.2v-0.3v-0.3v-0.2v-0.2l0,0v-0.1v-0.2v-0.2l0,0l-0.1-0.2l-0.1-0.1l0.1-0.4v-0.2v-0.2
	l0.1-0.6v-0.5V479l0.1-1v-0.1v-0.5v-0.2v-0.3v-0.1v-0.5v-0.1l-0.1-0.3l-0.1-0.4l-0.1-0.4l-0.1-0.2l-0.2-0.6l-0.1-0.4l-0.1-0.5
	l-0.1-0.6v-0.3v-0.2H237h-0.8H236l-0.3,0.1l-0.3,0.1l-0.8,0.3l0.1-0.9l0.1-0.6l0.1-1.1l-0.3-0.2l-0.2-0.1l-0.3-0.1l-0.1-0.1v-0.1
	v-0.2l0.1-0.7v-0.2l0.1-0.5l0.1-0.8l0,0l-1,0.6l-0.1,0.1l-0.4,0.3l-0.2,0.1l-0.2,0.1l-0.2,0.1l-0.4,0.1h-0.1l-0.5,0.2l-0.3,0.1
	l-0.5,0.2h-0.1h-0.1h-0.1l-0.4-0.2l-0.5-0.3l-0.2-0.1l-0.3-0.2l-0.1-0.1l0.1-0.4l0.1-0.3l0.1-0.4l0.1-0.4l0.1-0.5l0.3-1.1l0.1-0.5
	l0.2-0.6l0.1-0.2l0.1-0.4l0.1-0.4l0.3-0.9h-0.2l-1.6,0.2l0,0l-0.8,0.4l-1-0.4h-0.1l-0.2,0.1l-0.4,0.2l-0.7,0.3l-0.6-0.9l-0.3-0.4
	l-0.1-0.1l-0.1-0.1l-0.3-0.4l0,0l-0.1-0.2l-0.3-0.5l-0.4-0.6L222.9,459L222.9,459z M210.3,396.5L210,396v0.5h0.1H210.3z
	 M209.9,395.5v-0.2l0,0V395.5L209.9,395.5z"/>
<path id="D290" class="st0" d="M388.2,688.5L388.2,688.5L388.2,688.5l-0.1-0.1H388h-0.1h-0.1l-0.1,0.1l0,0l-0.1,0.1l-0.1,0.1
	l-0.1,0.1v0.1v0.1v0.1v0.1v0.1v0.1v0.1v0.2v0.1v0.1v0.2v0.2v0.1l0,0v0.1v0.1v0.1l0,0v0.1l-0.1,0.2l0,0l-0.1,0.1l-0.1,0.1l-0.1,0.1
	l-0.2,0.1l0,0h-0.1h-0.1l0,0h-0.1h-0.1h-0.1h-0.1l-0.1-0.1H386h-0.1l0,0l-0.1-0.1h-0.1l-0.1-0.1l-0.1-0.1v-0.1l-0.1-0.2l-0.1-0.2
	v-0.1l-0.1-0.2l-0.1-0.1l0,0V690l-0.1-0.2l0,0v-0.1v-0.1l-0.1-0.1l0,0l-0.1-0.1l-0.1-0.1v-0.1v-0.1V689v-0.1l0,0h-0.1h-0.1h-0.1
	h-0.1l-0.1-0.1h-0.1l-0.1-0.1l0,0h-0.1h-0.1h-0.1l-0.2,0.1h-0.1h-0.1h-0.1h-0.1H383h-0.1h-0.1h-0.1l-0.2,0.1h-0.1h-0.1h-0.1h-0.1
	H382h-0.1h-0.1h-0.1h-0.2h-0.2h-0.1l-0.1,0.1l-0.1,0.1l-0.1,0.1l-0.1,0.1l-0.1,0.1l-0.1,0.1v0.1l-0.1,0.1v0.1v0.1v0.2v0.1v0.1v0.1
	v0.2v0.2l-0.1,0.1v0.1v0.1v0.1l-0.1,0.1l-0.1,0.1l-0.2,0.2l-0.1,0.1l0,0l-0.1,0.1h-0.1h-0.1h-0.1h-0.1h-0.1h-0.1l-0.1,0.1L379,692
	h-0.1l0,0h-0.1h-0.1h-0.1h-0.1l-0.1,0.1l0,0l-0.1,0.1l0,0l0,0l-0.1,0.1l0,0v0.1l-0.1,0.1l-0.1,0.1l-0.2,0.3l0,0v0.1l0,0l-0.1,0.1
	l0,0l-0.1,0.1l-0.1,0.1h-0.1h-0.1h-0.1h-0.1H377l0,0h-0.1v-0.1v-0.1l-0.1-0.1l0,0v-0.1l0,0l0,0l0,0v-0.1v-0.1v-0.1v-0.1v-0.1v-0.1
	v-0.1v-0.1l-0.1-0.1v-0.1l0,0l-0.1-0.1h-0.1l0,0h-0.1l0,0h-0.2h-0.1H376l0,0l-0.1,0.1h-0.1h-0.1h-0.1h-0.1h-0.1h-0.1h-0.1v0.1
	l-0.1,0.1v0.1l-0.1,0.1l0,0l-0.1,0.1l-0.1,0.1v0.1v0.1l0.2,0.3v0.1v0.1l-0.1,0.1l-0.1,0.1l-0.1,0.1h-0.1h-0.1h-0.1h-0.1l0,0l0,0
	h-0.1l0,0h-0.1l0,0H374h-0.1h-0.1v0.3v-0.4l0,0l-0.1-0.1l0,0h-0.1l0,0l0,0h-0.1l0,0l0,0h-0.1l-0.1-0.1v-0.1l-0.1-0.1l-0.1-0.1
	l-0.1-0.1l-0.1-0.1v-0.1v-0.1v-0.1v-0.1v-0.1v-0.1l-0.1-0.1l-0.1-0.1l-0.1-0.1l-0.1-0.1l-0.1-0.1l0,0l0,0h-0.1l0,0l0,0v0.1v0.1v0.1
	v0.1v0.1v0.1v0.1v0.1v0.1v0.1v0.1l-0.1,0.1h-0.1l0,0H372h-0.1h-0.1h-0.1h-0.1l-0.1-0.1l0,0l-0.1-0.1l-0.1-0.1l0,0v-0.1v-0.1
	l-0.1-0.1l-0.1-0.1V692H371l0,0l0,0l-0.1-0.1h-0.1h-0.1l-0.1-0.1h-0.1h-0.1h-0.1h-0.1h-0.1H370l0,0h-0.1h-0.1l0,0v0.1v0.1v0.1v0.1
	v0.1v0.1l0,0l0,0v0.1l0,0l0,0h0.1l0,0l0,0l0,0l0.1,0.1v0.1l0,0v0.1v0.1v0.1v0.1v0.2l0,0l0,0l0,0l-0.1,0.1l0,0l0,0v0.1l-0.1,0.1
	l-0.1,0.1v0.1l0,0l0,0l0,0l0,0l-0.1,0.1l0,0l-0.2,0.1h-0.1h-0.1h-0.1h-0.2h-0.2h-0.1h-0.1h-0.1h-0.1l0,0h-0.1h-0.1H368h-0.1l0,0l0,0
	h-0.1h-0.1l0,0l0,0h-0.1v-0.1v-0.1v-0.1v-0.1v-0.1v-0.1v-0.1v-0.1v-0.1V693v-0.1v-0.1v-0.1v-0.1v-0.1v-0.1v-0.1v-0.1v-0.1V692v-0.1
	l0,0l-0.1-0.1v-0.1l0,0v-0.1l0,0v-0.1v-0.1l-0.1-0.1v-0.1v-0.1V691l-0.1-0.1l-0.1-0.1l-0.1-0.1l-0.1-0.1l-0.1-0.1l-0.1-0.1l0,0h-0.1
	l0,0l-0.1-0.1l-0.1-0.1h-0.1l0,0h-0.1h-0.1l0,0l0,0l0,0l0,0l0,0v0.1v0.1v0.1v0.2l0,0v0.1v0.2v0.1v0.1v0.1l0,0v0.1v0.2v0.2v0.1v0.2
	v0.1v0.1v0.1l0,0v0.1v0.1v0.1v0.1l0,0l0,0v0.1v0.1v0.1v0.1v0.1l0,0v0.1v0.1l0,0v0.1v0.1v0.1l-0.1,0.1l0,0L366,694h-0.1l0,0l0,0l0,0
	h-0.1h-0.1h-0.1h-0.1l0,0h-0.1l0,0h-0.1h-0.2H365l0,0h-0.1l0,0l-0.1,0.1l0,0l0,0l-0.1,0.1l0,0l0,0v0.1v0.1v0.1l0,0v0.2v0.1v0.1v0.1
	v0.1v0.1v0.2v0.2v0.1v0.1v0.2v0.1l0,0l0,0l0,0l0,0l0,0l0,0v0.1v0.1v0.1v0.1v0.1v0.1v0.1v0.1l0,0l0,0l0,0l0,0l0,0l0,0l-0.1,0.1v0.1
	v0.1v0.1v0.1l-0.1,0.1v0.1l-0.1,0.2l0,0l0,0v0.1l0,0l0,0v0.1v0.1v0.1v0.1v0.2v0.1v0.1l0,0v0.1l0,0v0.1v0.1v0.1v0.1l0,0l0,0v0.1v0.1
	v0.1l0,0v0.1v0.1l-0.1,0.1l0,0l-0.1,0.1l0,0l0,0l0,0l0,0l0,0l0,0l0,0l-0.1,0.1l-0.1,0.1l0,0l0,0l-0.1,0.1l0,0l0,0l0,0h-0.1l-0.1,0.1
	l-0.1,0.1l0,0h-0.1l-0.1,0.1l-0.1,0.1l0,0h-0.1h-0.1H363l0,0h-0.1l-0.2-0.1h-0.1l-0.1-0.1h-0.1l-0.1-0.1l-0.1-0.1l0,0l0,0l-0.1-0.1
	V700l-0.2,0.3v0.3v0.1l0.2,0.7l0.4,0.4l-0.5,0.8v0.1l-0.6,0.9l-0.1,0.1l0,0l-0.1,0.1v0.1v0.1l-0.1,0.1l-0.1,0.2l-0.1,0.1l-0.1,0.1
	l-0.1,0.1v0.1l0,0v0.1v0.1v0.1v0.1v0.1l0,0v0.1v0.1v0.1l0,0l0.1,0.1l0,0v0.1l0,0l0,0v0.1v0.1l0,0l0.1,0.1l0,0v0.1v0.1l0.1,0.2v0.1
	l0.1,0.2v0.2v0.2v0.2v0.1v0.1v0.1v0.1H361l0,0v0.1l-0.1,0.1l0,0l0,0v0.1l-0.1,0.1l-0.1,0.1l-0.2,0.2l-0.2,0.2l-0.1,0.1l-0.1,0.1
	l-0.1,0.1l-0.1,0.2v0.1l0,0l0,0v0.1l0,0l-0.1,0.2l-0.1,0.1v0.1l-0.1,0.1h-0.1l0,0h-0.1h-0.1h-0.1h-0.1H359h-0.1h-0.1l-0.1-0.1
	l-0.1-0.1v-0.1l-0.1-0.1l-0.1-0.1v-0.2v-0.2v-0.2v-0.2v-0.3V708v-0.2v-0.1v-0.1v-0.1v-0.1l0,0h-0.1l-0.2-0.1H358l-0.1-0.1l-0.1-0.1
	l-0.2-0.1l-0.2-0.1l-0.1-0.1h-0.1l-0.1-0.1H357l-0.1-0.1v-0.2l-0.1-0.2v-0.1V706l0,0l0,0l0,0v-0.1v-0.1v-0.1v-0.1v-0.2l0,0l0,0v-0.1
	h0.1h0.1h0.1h0.1h0.1h0.1l0.1,0.1h0.1h0.1l0,0l0,0h0.1h0.1l0,0v-0.2l0.1-0.1V705v-0.1v-0.1v-0.1v-0.1l0,0l0,0v-0.1v-0.1l-0.1-0.1
	l-0.1-0.1l0,0l-0.1-0.1l-0.1-0.1l-0.1-0.1h-0.2h-0.1h-0.1l0,0l0,0l0,0l0,0H357l-0.2,0.1h-0.1h-0.1h-0.1h-0.1l0,0h-0.1l-0.1,0.1
	l-0.2,0.1l-0.1,0.1l-0.1,0.1l-0.5,0.1l0.2,0.1h-0.2h-0.1h-0.1H355l0,0l0,0v-0.1l-0.1-0.1v-0.1v-0.1v-0.1V704v-0.1v-0.1v-0.1v-0.1
	l0,0v-0.1l0.1-0.1l0.1-0.2l0.1-0.1l0.1-0.1l0.1-0.1l0.1-0.2l0.1-0.1v-0.1l0.1-0.2v-0.1v-0.1h-0.1l-0.1-0.2l-0.7,0.2h-0.3l-0.1,0.1
	v0.1l-0.1,0.1l0,0l-0.1,0.2l0,0l0,0l-0.1,0.1l0,0l-0.1,0.2l-0.1,0.2l-0.1,0.1h-0.1h-0.1h-0.1h-0.1l0,0l0,0h-0.1l0,0l0,0l0,0
	l-0.1-0.1l0,0l-0.1-0.1l0,0v-0.1v-0.1v-0.1v-0.1v-0.1v-0.1v-0.3V702l0,0l0,0v-0.1v-0.1l0,0l0.1-0.1l0.1-0.2l0.1-0.2l0.1-0.1l0.1-0.1
	l0.1-0.2v-0.1l0.1-0.1v-0.1l0.1-0.1l0.1-0.1v-0.1v-0.1l0.1-0.1V700l0.1-0.1v-0.1l0.1-0.1l0.1-0.1l0.1-0.2l0.1-0.2l0,0l0,0l0,0l0,0
	l0,0l0,0h0.1h0.1h0.1h0.1h0.1l0,0l0.2-0.5l0.2-0.4l0,0l-0.4-0.2L355,698l-0.1-0.1l-0.1-0.1l-0.1-0.2v-0.2v-0.1v-0.1V697v-0.2
	l0.1-0.3l0.1-0.4l0.1-0.4v-0.1v-0.1v-0.2v-0.1v-0.1V695v-0.1h-0.1h-0.1l-0.2,0.1l-0.3,0.1h-0.1l-0.1,0.1l-1.2,0.9l-0.8-0.3l0.1-0.9
	l0.3-1.2l-0.2-0.2h-0.1l-0.1,0.1l-0.1,0.1l-0.2,0.1l-0.2,0.2l-0.2,0.2l-0.2,0.2l-0.1,0.1H351l-0.1,0.1l-0.1,0.1l-0.1,0.1l0,0h-0.1
	h-0.1l-0.1-0.1l-0.1-0.1v-0.1v-0.1v-0.2V694v-0.3v-0.3v-0.2v-0.1V693l0,0l-0.1-0.1h-0.1H350h-0.1h-0.1h-0.1l0,0v0.1l-0.1,0.2
	l-0.2,0.3l-0.1,0.1v0.1L349,694l-0.2,0.3l-0.2,0.2l-0.3,0.3l-0.2,0.2l-0.2,0.1l-0.3,0.3l-0.4,0.4l-0.5,0.6l-0.4,0.4l-0.3,0.3
	l-0.1,0.1l-0.1,0.2l-0.1,0.1l-0.1,0.1l-0.1,0.2l-0.1,0.1l-0.1-0.1v-0.1l-0.2-0.7l-0.2-0.6l-0.1-0.1l-2.2-1.4l-0.1-0.2l-0.3-0.2
	l-0.1-0.1l-0.1-0.1l-0.5-0.4l-0.6-0.4l-0.5-0.3l-0.3-0.3l-0.5-0.4l-0.4-0.3v-0.6v-0.5v-0.3v-0.7V689v-0.8v-1v-0.5v-0.1v-0.3V686
	l-1.3,0.1l-1.3-0.9l-0.5,0.2l-0.2-0.2v-0.1l-0.3-0.4l-0.1-0.1l-0.3-0.4l-0.4-0.6l-0.2-0.2l-0.2-0.3l0.1-0.4l0,0l0.2-0.7l0.1-0.6
	l0.1-0.6l0.1-0.6l0.1-0.4l0.2-1l0.1-0.5l0.3-1.2l0.1-0.3l0.1-0.4l-0.5,0.1v-0.1l0.3-0.9l-0.7-0.3l0.3-0.7h-0.6h-0.8h-0.4h-0.4
	l0.1-0.2l0.2-0.3l0.1-0.1l0.1-0.2l0.3-0.6l0.1-0.1l0.2-0.4l0.2-0.3l0.2-0.3l0.2-0.4l0.4-0.9l0.4-0.9l0.3-0.6l0.2-0.5l0.2-0.5v-0.1
	l0.2-0.4l0.1-0.3l0.1-0.2l0.2-0.4l0.3-0.7H335h-0.5h-0.7h-0.6h-0.6h-0.3h-0.1H332h-0.1h-0.2h-0.5h-0.8h-0.1h-0.6h-0.8h-0.3h-0.1
	l0.2-0.8l0.2-0.8l0,0v-0.2l0.2-0.6l0.2-0.7l0.2-0.6l0.1-0.4l0.2-0.7l0.1-0.5l0.1-0.4l0.1-0.2l0,0l-1-0.4l-0.3-0.1l0,0l-0.3-0.1l0,0
	l-0.5-0.1l0.3-0.8h-0.1H328h-0.3h-0.8h-0.1l0.1-0.5V658v-0.3l0.1-0.6l0.1-0.4l0.6-0.3l0.5-0.2l0.2-0.1l1.1-0.5l0.7-0.3l0,0l-0.1-0.3
	l-0.3-0.7v-0.1l-0.2-0.5l-0.2-0.6V653l-0.2-0.4l-0.2-0.7l-0.3-0.9l-0.2-0.5l-0.3-0.8l-0.2-0.4l-0.2-0.6l-0.2-0.4l-0.2-0.5l-0.4-0.9
	l0.7-0.6l0.4-0.3l0.1-0.1l0.3-0.3v-1v-0.5v-0.5v-0.3v-0.2h-0.2H328l-0.6-0.2h-0.1l-0.5-0.2l-0.2-0.1l-0.3-0.1l-0.4-0.2l-0.5-0.2
	l-0.4-0.2l0.1-0.5l0.1-0.5l0.2-0.9l0.2-0.7l0.2-0.7v-0.1l-0.1-0.1l-0.8-0.1l-0.5-0.3l-0.3-0.5h-0.3H323h-0.1h-0.6l0.1-1l0.1-0.7
	v-0.1v-0.1l0.1-0.9l0.1-0.6v-0.5l0.8-0.2l0.5-0.1l0.5-0.1h0.2l0.6-0.1V633v-0.1l-0.2-0.9l-0.1-0.2v-0.1h-0.7H324h-0.3v-0.1l-0.1-0.3
	v-0.1V631l-0.1-0.6l-0.1-0.4l-0.1-0.5l0.6-0.6l-0.3-0.4l-0.4-0.2h-0.6l-0.5-0.3l-0.1-0.1l-0.1-0.1h-0.1l-0.4-0.1l-0.7-0.1l-0.6-0.1
	v-0.3V627l-0.1-0.7v-0.2l0.4-0.4l0.6-0.6l0.4-0.4l0.5-0.4l0.9-0.8l0.3-0.3h-0.2l-1-0.3l-0.5-0.8h-0.1l0,0l0,0V622v-0.1l0,0l0,0l0,0
	h-0.1l0,0l0,0l0,0l0,0l0,0h-0.1H321h-0.1l0,0l0,0l0,0l0,0l0,0h-0.1v-0.1l0,0l0,0l0,0l0,0h-0.1l0,0l0,0v-0.1v-0.1v-0.1l0,0v-0.1l0,0
	v-0.1l0,0l0,0h-0.1l0,0l0,0l0,0l0,0l0,0l0,0l0,0l0,0l0,0l0,0h-0.1l0,0l0,0l0,0l0,0l0,0l0,0l0,0l0,0l0,0v-0.1v-0.1l0,0l0,0l0,0l0,0
	l0,0l0,0h-0.1h-0.1l0,0l0,0l0,0v0.1l0,0l0,0v0.1l0,0l0,0l0,0l0,0l0,0l-0.1-0.1l-0.1-0.1l0,0l0,0l0,0H320l0,0l0,0l0,0V621l0,0l0,0
	l0,0l0,0v-0.1l0,0l0,0l0,0l0,0l0,0v-0.1l0,0l0,0l0,0l0,0l0,0l0,0l0,0l0,0l0,0l0,0l0,0l0,0l0,0l0,0l0,0l0,0l0,0l0,0l0,0l0,0l0,0l0,0
	l0,0v-0.1v-0.1l0,0l0,0l0,0l0,0l0,0l0,0l0,0l0,0l0,0l0,0l0,0l0,0l0,0l0,0v-0.1v-0.1l0,0l0,0l0,0l0,0l0,0l0,0l0,0h-0.1l0,0l0,0h-0.1
	h-0.1l0,0l0,0l0,0l0,0l0,0h-0.1l0.7-0.4l0.5-0.3l0.9-0.5l0.2-0.1l0.4-0.2l0.4-0.3l0.8-0.6l0.1-0.1l0.1-0.1v-0.3v-0.1l-0.6,0.1
	l-0.5,0.1l-0.6,0.1l-0.2,0.1h-0.1l-0.3,0.1l-0.8,0.2l-0.4,0.1l-0.7,0.1l-0.1-0.2V618l-0.2-0.4l-0.2-0.4l-0.2-0.3l-0.3-0.6l-0.2-0.4
	l0.3-0.6l0.2-0.4l0.1-0.2h0.1l0,0v-0.4v-0.1l0,0v0.1l0,0l0.3-0.3l0.1-0.3l0.1-0.3l0.3-1.1l0.1-0.5l0.1-0.4l0.2-0.7l0.2-0.8h-0.6
	h-0.1h-0.2H319h-0.6v-0.4v-0.1V609l-0.1-0.7v-0.4v-0.4v-0.2l0.5-0.3l0.4-0.2l0.6-0.3l0.2-0.1l0.1-0.1h0.4h0.4h0.4h0.1h0.1h0.3h0.3
	h0.1l0,0h0.1h0.1h0.2l0.6,0.1v-0.1v-0.2l0.1-0.4v-0.1v-0.3v-0.2V605l-0.1-0.1l-0.2-0.3h-0.1l0,0l-0.3-0.1l-0.3-0.1l-0.3-0.1h-0.1
	l-0.4-0.1l-0.2-0.1l0.3-0.5l0.1-0.1h-0.5l-1.7-0.2l-1.2-0.1l-0.4,0.3L315,602l-0.5-0.2l-1.1-0.2l-0.8,0.9l-0.8-0.2l-1.4-0.9
	l-0.2-0.2l0.6-1.6l0.1-0.3l-0.2-0.2l-0.2-0.2l-0.3-0.2l-0.3-0.2l-0.3-0.2l-0.3-0.2l-0.3-0.2l0.4-0.1l0.5-0.1l0.4-0.1h0.2l0.3-0.1
	h0.2l0.3-0.1l0.3-0.1l0.3-0.1l0.4-0.1l0.3-0.1l0.2-0.1v-0.3l0.1-0.4l0.1-0.5l0.1-0.6l0.1-0.5l0.1-0.7l0.1-0.5v-0.3v-0.3v-0.3v-0.4
	l-0.2-0.3l-0.1-0.1l-0.2-0.3l-0.3-0.4l-0.2-0.3l-0.1-0.2l-0.2-0.3l-0.2-0.4l0.1,0.2l-0.2-0.3l-0.1-0.2h-0.1l-1.6,0.7l-2.1,0.8h-0.5
	l-0.4,0.1l-0.2-0.3l-0.5-0.1l-0.1-0.4l-0.3-0.1l-0.2,0.1l-0.3,0.2l-0.2,0.1v-0.1l0,0l0,0l0,0v-0.1v-0.1v-0.1v-0.1V590v-0.1v-0.1
	v-0.1v-0.1l0,0l0,0l0,0h-0.1H305l-0.1-0.1l-0.2-0.1l-0.1-0.1l-0.1-0.1l-0.1-0.1l-0.1-0.1h-0.1h-0.1l0,0l0,0l0,0H304l-0.1-0.1l0,0
	l0,0l0,0l0,0v-0.1v-0.1h0.1h0.1l0,0l0,0l0,0H304h-0.1h-0.1h-0.1h-0.1h-0.1h-0.1l0,0h-0.1l0,0v-0.1l0,0h-0.1l0,0l0,0h-0.1H303l0,0
	l0,0l0,0v-0.1l0,0h-0.1v-0.1v-0.1v-0.1v-0.1l0,0h0.1V588v-0.1l0.1-0.1l0.1-0.1l0,0l0,0l0,0l0,0h0.1l0,0l0,0l0,0l0,0l0,0l0,0l0,0l0,0
	l0,0l0,0l0,0h0.1v-0.1v-0.1v-0.1l0,0l0,0l0,0l0,0v-0.1l0,0h-0.1l0,0l0,0v-0.1v-0.1l0,0h0.1h0.1h0.1l0,0l0,0h0.1V587l0.3-0.1l0.4-0.1
	l0.7-0.2l0.6-0.2l0.8-0.3l0.3-0.1l0.6-0.2l0.7-0.3l0.8-0.3l-0.2-0.5l-0.4-0.9l-0.3-0.7l-0.4-0.9l-0.4-0.8l-0.4-0.9l-0.3-0.6h-0.2
	l-0.3-0.5l-0.2-0.5v-0.1l-0.7-0.1l-0.5,0.3l-0.3,0.2l-0.7-0.1l-0.7-0.6l0.1-0.5h-0.2l-0.2,0.1h-0.2l-0.3,0.1h-0.2l0.1-0.3l1.6-4.8
	l0.1-0.3l-0.6-0.1l-2.8-0.6l-2.2-0.1h-1.3h-1.1h-0.2h-0.7l-0.4,0.6l-0.4,0.9l-0.6-1l0.1-1.1v-0.7l-0.3-0.2l-0.1,0.2L293,571
	l-0.3,0.8l-0.1,0.4l-0.2,0.7l-0.1,0.4l0,0v-0.1v-0.1V573v-0.1l-0.1-0.1l0,0v-0.1v-0.1v-0.1v-0.1v-0.1l0,0l0,0l0,0l0.1-0.1l0,0v-0.1
	l0.1-0.2v-0.1v-0.1l0,0l0,0l-0.1,0.1l0,0l0,0l0,0l0,0l0,0v-0.1l0,0l0,0v-0.1l0,0l0,0l0,0v-0.1v-0.1l0,0v-0.1v-0.1h-0.1h-0.1l0,0l0,0
	v-0.1v-0.2v-0.1l0,0H292l0,0l0,0v-0.1v-0.1v-0.1l0,0l0,0l0,0h-0.1l0,0v-0.1l0,0v-0.1l0,0h0.1l0,0l0,0l0,0l-0.1-0.1h-0.1h-0.1h-0.1
	l0,0v-0.1h0.1l0,0V570h-0.1l0,0h-0.1l0,0l0.2-0.1l0.1-0.1l0,0l0,0v-0.1v-0.1l0,0l0,0v-0.1v-0.1l0,0l0,0v0.1l0,0l0,0h0.1h0.1l0,0
	v-0.1l0,0l0,0l0,0h-0.1l0,0l0,0v-0.2v-0.1V569v-0.1l0,0v-0.1v-0.1l-0.1-0.2l0.1,0.1l0,0h0.1v-0.1v-0.1v-0.1v-0.1l0,0v-0.1V568v-0.1
	v-0.1l0,0l-0.1-0.1v-0.1v-0.1l0,0l-0.1-0.1l-0.1-0.2v-0.1l0,0l0.2,0.2l0,0l0,0v-0.1v-0.1l0,0h0.1h0.1h0.1l0,0l0,0l0,0V567v-0.1v-0.1
	l0,0l0.1-0.1l0.1-0.1l0,0l0,0v-0.1v-0.1v-0.1v-0.1v-0.1l0,0h0.1h0.1l0.1-0.1l0.1-0.1v-0.1v-0.1v-0.2l-0.1-0.1l0,0l0,0l0,0l0,0l0,0
	l0,0v-0.1v-0.1l0,0l0,0l0,0l0,0v-0.1l0,0h-0.1l0,0l0,0h-0.1h-0.1l0,0l0,0V565l0,0h-0.1l0,0l0,0v-0.1l0,0v-0.1l0,0l0,0l0,0v-0.1l0,0
	l0,0l0,0l0,0h-0.1l0,0l0,0l0,0l0,0v0.1l0,0l0,0l0,0l0,0v-0.1v-0.1v-0.1v-0.1v-0.1v-0.1l0,0h0.1l0,0v-0.1l0,0h0.1l0,0V564l-0.1-0.1
	h-0.1v-0.1v-0.1v-0.1v-0.1l0,0h-0.1l0,0l0,0l0,0v-0.1l0,0l0,0l0,0H292l0,0l0,0v-0.1l0,0l0,0l0,0l0,0l0,0v0.1l0,0l0,0h-0.1h-0.1l0,0
	v-0.1v-0.1l0,0l0,0l0,0l0,0l0,0v-0.1l0,0l0,0V563v-0.1v-0.2v-0.1l0,0l0,0l0,0v-0.1l0,0l0,0l0,0l0,0l0,0l0,0v-0.1l0,0l0,0l0,0l0,0
	h-0.1l0,0l0,0l0,0h-0.1l0,0l-0.1,0.1v0.1l-0.1,0.1l0,0l0,0l0,0l0,0l0,0l0,0h-0.1h-0.1l0,0l0,0v-0.1v-0.1v-0.1v-0.1v-0.1v-0.1V562
	l0,0l0,0v-0.1l0,0l0,0l0,0l0,0v0.1v0.1l0,0l0,0V562v-0.1v-0.1v-0.1v-0.1l0,0l0,0v-0.1v-0.1l0,0l0,0h-0.1l0,0H291l0,0l0,0l0,0l0,0
	l0,0v-0.1l-0.1-0.1l0,0l0,0l0,0l0,0l0,0h-0.1l0,0v-0.1l0,0l0,0l0,0l0,0V561l0,0l0,0l0,0v0.1v0.1v0.4v0.6v0.9v0.3v0.3v0.5v0.4v0.6
	v0.4v0.3v0.2v0.4v0.6v0.3v0.6v0.4v0.4v0.6v0.5v0.2v0.3v0.5v0.1v0.3v0.1v0.4v0.3v0.3v0.4v0.5v0.5v0.3l-0.4-0.1h-0.1l-0.4-0.1h-0.2v1
	v0.2l0.3,0.3l0.2,0.3l0.6,0.9l0.7,0.6l0.8,1.7L292,579l-2.5,0.8l-1.4,2.2l1,2.6l0.1,0.3l-0.8,2.2l-2.7,1.2l0.4,2.1v0.2l0,0H286h-0.1
	l0,0l0,0l0,0h-0.1h-0.1l0,0h-0.1l0,0l0,0l0,0l0,0l0,0l0,0l0,0l0,0l0,0l0,0l0,0l0,0l0,0l0,0h-0.1h-0.1v0.1h-0.1l-0.1,0.1l0,0h-0.1
	H285h-0.1h-0.1h-0.1l-0.1-0.1l-0.1-0.1l-0.1-0.1l-0.2,0.4l-0.2,0.4l-0.1,0.3l-0.1,0.2l-0.3,0.3l-0.2,0.3l-0.4,0.5l-0.3,0.3l-0.2,0.2
	l-0.3,0.3l-0.2,0.3l-0.3,0.3l-0.2,0.2h0.4h0.4h0.4h0.1h0.3h0.2h0.4v0.3v0.2v0.2v0.2l-0.1,0.5v0.2l-0.1,0.5v0.4l-0.1,0.5v0.4v0.3
	l-0.1,0.6v0.3v0.4v0.5v0.2v0.5v0.2v0.5H283h-0.3h-0.4H282h-0.2h-0.2v0.3l-0.1,0.5l-0.1,0.6v0.3v0.5v0.5v0.4v0.1h0.2h0.1h0.1h0.1h0.2
	h0.2v0.4l-0.1,0.6v0.4v0.4v0.5v0.5v0.4v0.6v0.3v0.1h0.3h0.3h0.1h0.2h0.2v0.1h0.1h0.1h0.1l0,0h0.1h0.1h0.1l0,0h0.1h0.1h0.1l0,0h0.1
	l0,0h0.1l0,0h0.1l0,0l0,0h0.1l0,0l0,0l0,0l0,0l0,0l0,0l0,0l0.1-0.1v0.4l0.8,3.2l-0.7,4.4v0.1l0.2,2.1v0.1l0.5,0.8l0.4,0.3l0.5,1.1
	v0.2v0.1v0.1v0.1v0.1v0.1v0.1v0.1v0.1l0,0v0.1l0,0l0,0v0.1v0.1l0,0v0.1v0.1v0.1v0.1v0.1v0.1v0.1v0.1v0.1v0.1v0.1v0.1v0.1v0.1v0.1
	v0.1l0,0l0,0v0.1v0.1v0.1v0.1v0.1v0.1l0,0l0,0l0,0v0.1l0,0l0,0v0.1v0.1l0,0v0.1l0,0l0,0h0.1l0,0h0.1l0,0h0.1h0.1l0,0l0,0l0,0l0,0
	l0,0l0,0l0,0h0.1h0.1h0.1l0.8,2.1l0.6,2.6v1.7l0.1,2.7l0.1,0.5l0.4,0.9l0.1,0.3l0.4,0.6l0.3,0.4l0.5,1.4l0.4,1.4l-0.3,1l0.1,0.3
	l-0.4,3.8v0.2h0.1l0.4,0.1l1-0.1l0.2,0.5l-0.3,0.8l0.2,0.2l-0.1,2l-0.1,1.4l0.2,0.2l0,0h0.1l0,0l0.3,0.1l0,0h0.1h0.1l0.1-0.1l0,0
	v-0.1l0,0l0,0h0.3v0.1l0,0l0.1-0.1h0.1h0.1v0.1l0,0v0.1l-0.1,0.2l-0.2,0.2l-0.1,0.2v0.2l0,0v0.1v0.4v0.1v0.2l-0.1,0.1l-0.1,0.1v0.2
	v0.1v0.1v0.1v0.1v0.1v0.1v0.1l-0.4,0.1l-0.4,0.1l-0.1,0.1l-0.1,0.2v0.1v0.1h0.1v0.1v0.6v0.4v0.6v0.5v0.1l-0.1,0.1v0.2v0.2l-0.1,0.2
	l-0.1,0.2l-0.2,0.3l-0.1,0.1v0.1l-0.1,0.1v0.1l0,0l0.1,0.1l0.3,0.1h0.3l0,0l0.3,0.1l0.2,0.1h0.1h0.2h0.2l0.2-0.1h0.2h0.1v0.1v0.1
	l-0.1,0.1l-0.1,0.1l0.1,0.1l0,0l0,0l0,0h0.1l0,0h0.1h0.1l0,0l0,0l0,0l0,0h0.1l0,0h0.1l0,0h0.1l0,0l0.3,0.7l0.7,0.9l-1.4,1.6
	l-1.7,0.7v-0.1v-0.1V662l0,0v-0.1l0,0v-0.1v-0.1l0,0l0,0v-0.1v-0.1v-0.1v-0.1l0,0v-0.1v-0.1l0,0V661l0,0l0,0h-0.1h-0.1l0,0l0,0l0,0
	l0,0l0,0l0,0v-0.1v-0.1v-0.1v-0.1v-0.1v-0.1v-0.1v-0.1l0,0v-0.1V660l0,0v-0.1l0,0v-0.1l0,0v-0.1v-0.1v-0.1v-0.1l0,0l0,0v-0.1v-0.1
	v-0.1V659l0,0v-0.1v-0.1l-0.2,0.2H291v0.1l-0.2,0.1l-0.2,0.1h-0.1h-0.1l-0.1,0.1l0,0h-0.1h-0.3h-0.2l0,0v0.1l0,0l-0.1,0.1h-0.1v0.1
	h-0.2h-0.2l-0.1,0.1l0,0l-0.3-0.2h-0.2l-0.1,0.2l-0.1,0.1h-0.1h-0.1h-0.2l-0.1-0.1h-0.1l0,0l0,0h-0.1h-0.1h-0.1h-0.1l-0.1,0.4
	l-0.1,0.4l0,0H287h-0.1h-0.1l0,0h-0.2l0,0l-0.1,0.1v-0.1h-0.2l0,0l0,0l-0.2-0.1l-0.3-0.2l-0.4-0.3l-0.5-0.5l-0.4-0.4h-0.2l-0.2-0.2
	l-0.4-0.3l-0.1-0.1l-0.2-0.2l-0.3-0.2l-0.4-0.3l-0.3-0.2l-0.2-0.2l-0.3-0.2l-0.3-0.2l-0.2-0.1l-0.2-0.2l-0.3-0.2h-0.1l-0.2-0.1
	l-0.1-0.1l-0.1-0.1l-0.1-0.1h-0.1h-0.3l-0.2-0.1l-0.2-0.2l-0.2-0.1l-0.2-0.1l-0.2-0.1l-0.2-0.1l-0.1-0.1l-0.1-0.1l-0.1-0.1l0,0
	l-0.1-0.1l-0.1-0.1l-0.2-0.2l-0.1-0.1l-0.2-0.1l-0.1-0.2l-0.3-0.5l-0.2-0.4l-0.1-0.2l-0.3-0.7l-0.2-0.4l-0.3-0.7l-0.2-0.3l-0.2-0.4
	l-0.2-0.3l-0.2-0.4l-0.3-0.5l-0.5-0.9l-0.4-0.8l-0.3-0.6l-0.1-0.2l-0.2-0.4l-0.2-0.3l-0.2-0.5l-0.3-0.6l-0.2-0.5l-0.2-0.4l-0.2-0.3
	l-0.2-0.4l-0.2-0.3l-0.3-0.6l-0.4-0.6l-0.4-0.6l-0.2-0.2l-0.4-0.5v-0.1l-0.1-0.1v-0.8v-0.5v-0.6v-0.5v-0.3v-0.2v-0.2v-0.3v-0.4v-0.3
	v-0.4v-0.6v-0.6v-0.5v-0.1v-0.1v-0.8H270h-0.2l-0.4,0.1l-0.5,0.1l-0.4,0.1l-0.3,0.1v-0.2v-0.5v-0.4v-0.6v-0.7v-0.6v-0.4v-0.8v-0.5
	l-0.3-0.2l-0.5-0.3l-0.4-0.2l-0.4-0.3l-0.1-0.4l-0.1-0.7l-0.1-0.9l-0.1-0.9l-0.1-0.6l-0.1-0.9l-0.1-0.9l-0.1-0.6l-0.1-0.5v-0.1v-0.3
	l-0.1-0.7l-0.1-0.5v-0.4l-0.1-0.5l-0.1-0.6l-0.5-0.4l-0.4-0.3l-0.5-0.3l-0.3-0.2l-0.3-0.2l-0.4-0.3l-0.4-0.3l-0.5-0.4l0.3-0.8v-0.6
	v-0.6v-0.3v-0.1v-0.3v-0.6v-0.5v-0.3v-0.5v-0.4v-0.7v-0.4v-0.6v-1v-0.8v-0.4v-1v-1v-0.8v-0.7v-0.7v-0.8v-1v-1v-0.8v-0.3v-0.7v-0.3
	v-0.7v-0.3v-0.7v-0.6v-0.4v-0.8v-0.5v-0.7V593v-0.2v-0.1v-0.6v-0.6V591v-0.6V590v-0.6v-0.3v-0.7v-0.6V587v-0.4v-0.3v-0.6v-0.2v-0.6
	v-0.6v-0.8v-0.7V582v-0.2v-0.3l-0.4-0.3l-0.7-0.5l-0.4-0.3V580v-0.8v-0.7v-0.3V578l0.6-0.2l0.6-0.2l0.5-0.2h0.1l0.2-0.1l0.3-0.1
	l0.1-0.4v-0.3l0.1-0.4l0.1-0.6l0.1-0.6l-0.5-0.1h-0.5h-0.2h-0.4h-0.1h-0.2h-0.2l-0.6-0.1v-0.2l-0.1-0.3l-0.2-0.9v-0.1l-0.1-0.3
	l-0.1-0.5l-0.1-0.5l-0.1-0.4L260,571v-0.1l-0.1-0.3l-0.2-0.7l-0.2-0.6l-0.1-0.6l-0.2-0.6V568l-0.1-0.4l-0.1-0.3l-0.2-0.7l-0.1-0.5
	v-0.2l-0.1-0.5l-0.2-0.7l0.4-0.3l0.3-0.2h0.1l0.3-0.2l0.2-0.2l0.3-0.2l0.2-0.1l0.2-0.1v-0.1l0.2-0.4l0.1-0.3l0,0v-0.3l-0.3-0.1
	l-0.5-0.2l-0.5-0.2l-0.3-0.1l-0.4-0.2l-0.4-0.2l-0.2-0.1l0,0l-0.3-0.1h-0.1l-0.9-0.4l-0.5-0.2l-0.2-0.7l-0.1-0.3l-0.1-0.5l-0.1-0.3
	l-0.2-0.7v-0.1v-0.1l0.3-0.4l0.3-0.5l0.4-0.6l0.3-0.4l0.1-0.1l0.2-0.3l0.2-0.3l0.3-0.4l0,0l0.1-0.1l0.3,0.2l0.2,0.1l0.2,0.1l0.2,0.1
	l0.4,0.2l-0.5,0.7l-0.5,1l-0.2,0.5l0,0l-0.3,1l0.6,1l1,1.1l1.4,0.2l1.2,0.9l1.1,0.6l-1.2,1l0,0v0.1l-0.8,1.3l0.1,0.8l0.1,0.4
	l1.5-0.8l1.9,0.5h1.9l1.9-0.5l3.2-2.2l2.3-2.7l0,0v-1.1l3.2-2.7l1.9-1.1v-1.6V552l2.3-7v-0.1l0.9-1.5l1.8-0.6v-1.6l0.5-1.6l0,0
	l0.9-1.6l-0.5-2.7v-4.9l0.7-0.5l0.7-0.6h1.4l2.8-2.7v-1.1h1.4l0.9-1.1v-0.1l0.5-1.6l0.7-0.4l1.1-0.7l-0.5-2.7h0.1l5.5,3.7l1.9,0.5
	l1.4-1.6l1-0.8l3.2-2.5l1.8-5.9h1.9l0,0l0.4-3.2l-0.9-2.2v-1l1.3,0.3l0.6,0.2l0,0h2.3l1.9-1.1l0,0h3.3l4.2-0.5l1.8-1.6l0,0v-1.6
	l0.9-0.5l1.9,1.1l0,0h1.8l5.6-2.1l0,0l2.3-1.6l0,0l1.3-1.5l0.5-0.5l0,0l0.4,0.6l0.6,1l0.9,0.3l0.9,0.3l1.1,0.8l1.7,1.3l0.9,2.7v2.7
	l0,0l1.4,0.5l1.4,1.7l1.4,1l2.3-3.2l3.3-1.1l1.8-4.3l2.8-2.7l0.9,1l0,0l0.9,2.2l1,3.8l-1.4,1.7l0.9,3.2v5.4l2.8-0.5l0.5,1.1l0,0
	l1,7.5l1.8,2.2l0,0l1,4.3l3.7-3.7l3.7-1.1l0.5-0.6l2.8-0.5l0,0l1.8-1l0.9,1.1l-0.9,2.7l0.5,1l0.7-1.2l0.2-0.4h0.9l0.4,2.6v0.1
	l-0.9,2.1l1.9,4.3l4.2,6.5l2.4,2.7l0.9-0.5l1.8,0.6l0.5,2.7l-1.7,4.4l-0.6,1.7l0.5,3.8l5,6.9l3.6,8.5l2.2,10.2l-0.5,6l6.2,9.1
	l0.9,6.2l4.4,6.5l0.8,4.5l-2.4,5.2l-5.5-0.9l-4.9-0.9l4,6.3l2.1,4.3l3-1.4l4.7,7.9l5.9,6.8l3.7,1.6l1.1,0.5H427l-0.4,0.1h-0.2
	l-0.1,0.3l-0.2,0.1h-0.2l-0.2,0.1l-0.2,0.1l-0.2,0.1l-0.3,0.1l0,0l0,0l-0.1,0.1l-0.1,0.1v0.1l-0.1,0.1l0,0h-0.1h-0.1h-0.1h-0.1h-0.1
	l0,0l0,0l0,0l0,0v0.1v0.1v0.1l0,0l-0.1,0.2v0.1v0.1l0,0l0.1,0.1v0.1l0.1,0.1h0.1h0.1h0.1l0,0l0,0l0.1,0.1l0,0l0.1,0.1v0.1v0.1v0.1
	v0.1v0.1l0,0l-0.1,0.1h-0.1l-0.1,0.1h-0.1l-0.1,0.1l0,0v0.1l-0.1,0.1l-0.1,0.1l0,0l0,0l0,0H424l-0.1,0.1l0,0l-0.1,0.1l-0.1,0.1l0,0
	l0,0l0,0l-0.1,0.1v0.1l0,0l0,0l-0.1,0.1h-0.1l0,0l0,0l0,0v-0.1v-0.1v-0.1v-0.1v-0.1v-0.1v-0.1l0,0V648l0,0v-0.1v-0.1v-0.1l0,0v-0.1
	v-0.1l0,0l0,0l0,0l0,0l0,0l0,0l0,0h-0.1h-0.1l0,0l0,0v0.1l0,0v0.1v0.1v0.1v0.1v0.1v0.1v0.1v0.1l-0.1,0.1l0,0H423l0,0l0,0h-0.1h-0.1
	h-0.1h-0.1l-0.1,0.1v0.1l0,0l0,0l0,0l0,0h0.1l0,0l0,0l0,0l0.2,0.1h0.1h0.1l0,0h0.1l0,0l0,0l0,0l0,0v0.1v0.1v0.1v0.1v0.1v0.1v0.1v0.1
	v0.2v0.1l0,0v0.1v0.1v0.1v0.1l0,0l0,0l0,0l0,0l0,0l0,0H423l-0.1,0.1l0,0h-0.1v0.1l0,0v0.1l0,0v0.1l0,0v0.1l0,0l0.1,0.1h0.1l0.1,0.1
	l0,0h0.1h0.2l0,0h0.1v0.1v0.1v0.1v0.1v0.1l-0.1,0.1l0,0l0,0l0,0l0,0l-0.1,0.1l0,0h-0.1h-0.1H423h-0.1h-0.1h-0.1l0,0h-0.1h-0.1l0,0
	l0,0v-0.1l-0.1-0.1v-0.1l0,0l0,0v-0.1l0,0l-0.1-0.1l0,0h-0.1h-0.1H422l0,0l0,0l0,0l0,0l0,0v0.1l0,0l0,0v0.1v0.1l0,0v0.1l0,0l0,0l0,0
	l0,0l0,0l0,0l0,0l0,0l0,0l0.1,0.1v0.1l0,0l0,0v0.1v0.1l0,0l0,0l0,0l0,0H422h-0.1h-0.1l0,0h-0.1h-0.1h-0.1l0,0l0,0l0,0l0,0l0,0v0.1
	v0.1v0.1l0,0v0.2v0.1l0,0l0,0l0,0l0,0l0.1,0.1v0.1v0.1l0,0l0,0l0,0l0,0v0.1v0.1v0.1l0,0l0,0v0.1v0.1l0,0h-0.1h-0.1h-0.1h-0.1l0,0
	h-0.1l0,0l-0.1-0.1l0,0l0,0h-0.1l0,0h-0.1l0,0h-0.1h-0.1h-0.1h-0.1h-0.1l0,0h-0.1h-0.1H420h-0.1l0,0l0,0l0,0l0,0l0,0l-0.1,0.1
	l-0.1-0.1h-0.1l0,0l-0.1,0.1v0.1v0.1v0.1v0.1v0.1l0,0l0.1,0.2l0.1,0.1v0.1v0.1v0.1l0,0v0.1v0.2l0,0v0.1l0,0l0,0l0,0l-0.1,0.1h-0.1
	l0,0l0,0h-0.1h-0.1h-0.2H419l0,0h-0.1l0,0h-0.1l0,0l0,0l0,0l-0.1-0.1l-0.1-0.1h-0.1l-0.1-0.1h-0.1l0,0h-0.1h-0.1H418l0,0h-0.1h-0.1
	h-0.1h-0.1h-0.1h-0.1h-0.1h-0.1h-0.1l-0.1,0.1l0,0l0,0l-0.1,0.1l0,0l0,0l0,0v0.1l0,0l-0.1,0.2l0,0l-0.1,0.1l-0.1,0.1l-0.1,0.1l0,0
	l-0.1,0.1l0,0l0,0h-0.1h-0.1h-0.1l0,0H416v-0.1v-0.1v-0.1v-0.2v-0.2v-0.1v-0.1v-0.2v-0.1v-0.1v-0.1v-0.1l0.1-0.1l0.1-0.1l0.1-0.1
	l0,0l0,0l0,0h0.1l-0.1-0.1l-0.3-0.5l0.1-0.6l0,0l-0.1-0.1l0,0l0,0h-0.1l0,0h-0.1h-0.1l0,0h-0.1h-0.1h-0.1h-0.1h-0.1h-0.1H415h-0.1
	l0,0h-0.1h-0.1l0,0l0,0v-0.1v-0.1v-0.2V652v1v-0.2v-0.1v-0.1v-0.1v-0.1v-0.1v-0.1l0,0l0,0l-0.1,0.1v0.1l-0.1,0.1l-0.1,0.1l0,0v0.1
	v0.1v0.1v0.1v0.1v0.1v0.1v0.1v0.1v0.1v0.1v0.1v0.1v0.1v0.1l0,0v0.1l0,0v0.1v0.1l0,0l0,0h-0.1h-0.1h-0.1H414h-0.1h-0.1l0,0l0,0l0,0
	h-0.1h-0.1l-0.2-0.1l0,0l0,0l-0.1-0.1l0,0l0,0v-0.1V654v-0.2v-0.3v-0.1v-0.1v-0.1l0,0v-0.1V653v-0.1l0,0l0,0h-0.1l0,0h-0.1H413l0,0
	h-0.1l0,0h-0.1h-0.2h-0.1h-0.1h-0.1h-0.1h-0.1h-0.2h-0.1h-0.1l0,0h-0.1h-0.2h-0.1l0,0l0,0h-0.1l-0.1,0.1l0,0l-0.2,0.1h-0.1h-0.1
	h-0.1l0,0l0,0h-0.1l-0.1,0.1l-0.2,0.1l-0.1,0.1H410l-0.1,0.1l-0.1,0.1l0,0v0.1v0.1v0.1v0.1v0.2v0.1v0.1v0.1v0.2v0.1l0.1,0.2l0.1,0.1
	l0.1,0.1v0.1l0.1,0.1l0.1,0.1l0,0l0.1,0.2l0.1,0.1v0.1l0,0l0,0v0.1l0.1,0.1l0.1,0.1l0.1,0.1l0,0l0.1,0.1l0.1,0.1v0.1l0.1,0.1v0.1
	l0,0v0.1l0.1,0.1l0.1,0.1l0,0l0,0v0.1v0.1v0.1l0.1,0.1v0.1l0,0v0.1v0.1v0.1v0.1v0.1v0.1v0.1l0.1,0.1l-0.1,0.1l0,0v0.1v0.2v0.1v0.1
	v0.1v0.1l0,0l-0.1,0.1l0,0l-0.2,0.1l-0.1,0.1l1.1,0.6l0.4,1l0.2,0.2l0.6,0.7l0,0l0.6,1l0.1,0.4l0.1,1v1.6l-0.2,0.8v1.6L412,669
	l-0.3,0.8l-0.4,0.1h-0.1l-0.9,0.2V670v0.2v0.1v0.1v0.2v0.2v0.1v0.1l0,0l0,0v0.1l-0.1,0.1v0.1l-0.1,0.1l0,0H410l-0.1,0.1l0,0l0,0
	l-0.1,0.1l-0.3,0.2h-0.1l0,0l0,0h-0.1l-0.1,0.1h-0.1H409h-0.1h-0.2l-0.1-0.1l-0.1-0.2l-0.1-0.1v-0.1l-0.1-0.3l-0.1-0.2v-0.1v-0.1
	v-0.1v-0.2v-0.2v-0.1v-0.2v-0.2v-0.2v-0.2v-0.2v-0.2v-0.1v-0.1v-0.2v-0.1v-0.1l0,0l0,0v-0.1l0.1-0.4l0.1-0.3l0.1-0.1v-0.1v-0.1
	l-0.9,0.2l-0.1,0.3l0.1,0.1v0.1l0.2,0.3l0.1,0.2v0.1v0.2l0,0v0.1h-0.1l0,0h-0.2h-0.2h-0.1l-0.1-0.1l-0.1-0.1l-0.1-0.1l0,0l-0.1-0.1
	l-0.1-0.1h-0.1l0,0v0.1l-0.1,0.1h-0.1l0,0l-0.1,0.1l-0.1,0.1v0.1l-0.1,0.1l-0.1,0.1l-0.1,0.1l-0.1,0.2v0.1l0,0l0,0l-0.2,0.2L405,670
	l-0.1,0.1h-0.2h-0.1h-0.1l-0.3,0.1l-0.2,0.2v0.1v0.1l0,0v0.1l0.1,0.7v0.1v0.3v0.1v0.1l-0.1,0.2l-0.2,0.3l-0.1,0.1l-0.2,0.1h-0.1H403
	h-0.1l0.1,1.5l0.1,0.2v0.2v0.2l-0.7,1.8l0,0l-1.6,2.4l-1.6,1.5l-0.2,0.2l-1.3,0.5l0,0l-0.7,0.2l0,0l-0.1,0.1L395,683l-1.6,1.6
	l-0.3,0.3l-0.2,0.9v0.1l-0.1,0.4l-0.1,0.5l-0.3,1.2l-0.1,0.2v0.1v0.1l-0.5,0.2l-0.2-0.4l-0.3,0.2l-0.3,0.2v0.2v0.1v0.1l-0.1,0.1
	l-0.1,0.1h-0.1h-0.1h-0.1l-0.2,0.1l-0.2,0.1H390l0,0h-0.1h-0.2h-0.2h-0.1h-0.1l-0.2-0.1l-0.3-0.2l-0.1-0.1l-0.1-0.1l-0.2-0.1
	L388.2,688.5L388.2,688.5L388.2,688.5z M282.7,606.4L282.7,606.4L282.7,606.4l-0.1-0.1l0,0l-0.1-0.1v-0.1l0,0V606v-0.1v-0.1v-0.1
	l0,0v-0.1v-0.1l0,0v-0.1l0,0l0,0L282.7,606.4z M291.9,571.5L291.9,571.5L291.9,571.5l-0.1,0.1l0,0L291.9,571.5L291.9,571.5z"/>
<path id="D904" class="st0" d="M456.1,115.8v-0.2l-0.3-1.4l-0.1-0.4l-0.2-0.9l-0.1-0.5l-0.1-0.4l-0.2-1l-0.2-1l-0.2-0.9l-0.2-0.6
	v-0.1l0,0l-0.2-0.8l-0.2-0.8l-0.2-1l-0.1-0.4l-0.3-1.4l-0.1-0.4l-0.3-1.2L453,102l-0.2-0.8l0.1,0.2l0.1,0.2h0.1h0.1l0,0l0,0v0.1h0.1
	v0.1l0.1,0.1l0,0h0.1l0,0l0,0l0,0l0,0l0,0h0.1l0,0l0,0l0,0l0,0h0.1l0,0h0.1l0,0l0,0l0,0h0.1l0,0l0,0l0,0l0,0v-0.1l0,0l0,0l0,0v-0.1
	l0,0l0,0l0,0l0,0l0,0l0,0l0.1-0.1h0.1l0,0l0,0l0.1-0.1v-0.1l0,0l0,0l0,0l0,0l0,0l0,0l0,0h0.1l0,0l0,0v-0.1l0,0v-0.1l0,0l0,0l0,0
	v-0.1l0,0V101v-0.1l0,0l0,0l0,0v-0.1l0,0v-0.1v0.1l0,0l0,0v-0.1l0,0l0,0l-0.1-0.1l0,0l0,0l0,0v-0.1h0.1h0.1l0,0v-0.1l0,0l0,0l0,0
	h0.1l0,0l0,0l0,0l0,0l0,0l0,0l0,0h0.1h0.1h0.1l0,0h0.1h0.1v-0.1l0,0l0,0l0,0l0,0l0,0l0,0l0.2-0.2l0,0l0.3-0.1l0,0h0.1v-0.1l0,0h0.1
	v-0.1l0,0l0,0l0,0v-0.1l0,0v0.1h0.1l0,0h0.1v-0.1l0,0v0.1l0,0l0,0v0.1l0.1-0.1l0,0v0.1v0.1l0,0l0,0l0,0l0,0v-0.1l0,0v0.1h0.1h0.1
	l0,0l0,0l0,0l0,0v0.1h0.1l0,0l0,0l0,0l0,0l0.1-0.1l0,0l0,0l0,0l0,0l0,0v-0.1v-0.1l0.1-0.1l0.1-0.1v-0.1l0,0l0,0l0,0l0,0l0,0h0.1l0,0
	h0.1l0,0h-0.1v-0.1l0,0h0.1v-0.1l0,0h0.1v-0.1l0,0l0,0l0,0v-0.1h0.1h0.1V99h0.1l0,0v-0.1v-0.1l0,0l0,0l0.1-0.1v-0.1l0,0v0.1l0,0h0.1
	l0,0v0.1l0.5-0.2l0.4-0.8v-0.1l0.1-0.1v-0.1v-0.1l0,0h0.1l0,0l0,0v-0.1l0,0l0,0l0,0l0,0l0,0h-0.1l-0.1-0.1v-0.1l0,0h0.1V97l0,0h0.1
	l0,0l0.1-0.1l0,0l0,0l0,0l0.1-0.3v-0.1v-0.1h0.1l0,0v0.1l0,0v-0.1l0.1,0.1h0.1l0,0l0.1-0.1h0.1h0.1v-0.1l0.3-0.2l0.1-0.1v-0.1v-0.1
	v-0.1l0,0l0,0v-0.1l0,0h0.1l0.1-0.1l0,0l0,0l0.1,0.1h0.1l0,0h0.1l0,0l0,0v-0.1l0,0h0.1h0.1h0.1l0,0v0.1l0.1,0.1l0.2-0.2l0,0l0,0
	l0.1-0.1l0,0l0.1,0.1l0.1,0.1h0.1v-0.1v-0.1v-0.1h0.1h0.1v-0.1l0.1-0.1l0,0h-0.1V95v-0.1l0,0h0.1l0.1-0.1l0.1-0.1l0,0l0,0l0.1-0.1
	l0.1-0.1l0,0l1.1-0.9v-0.1v-0.1v-0.1v-0.1v-0.1l0.1-0.1l0.1,0.1L465,93l0.1,0.1v0.1l0.1,0.1l0.1,0.2l0.2,0.3l0.1,0.2l0.1,0.1h0.1
	l0.2,0.1l0,0h0.2h0.1l0.1,0.1l0.1,0.1v0.1v0.1l0.2,0.4l0.1,0.3v0.1l0.1,0.2l0.1,0.1h0.1h0.1h0.1h0.2h0.1h0.2h0.1h0.1h0.2l0.1,0.1
	l0.1,0.1V96v0.1v0.1v0.1v0.1l-0.1,0.1l-0.1,0.1h-0.1l-0.3,0.1l-0.3,0.2l-0.1,0.1v0.1v0.1l0,0v0.1l0.1,0.1l0.1,0.1l0.5,0.2l0.3,0.2
	l0.2,0.2l0.2,0.2l0.2,0.3l0.2,0.3l0.1,0.2l0.1,0.2v0.3v0.4v0.5v0.1v0.1v0.2l0.1,0.5l0.1,0.4v0.1l0.1,0.4l0.1,0.4l0.1,0.4l0.1,0.2
	l0.1,0.1l0.1,0.1l0.1,0.1l0.2,0.2l1.4-0.1l1.2,0.3l1,2.2l1.3,0.9l0,0l0,0h0.1l0.2,0.1l0.1,0.1l0.1,0.1l0.2,0.2l0,0l0.3,0.2l0.1,0.1
	h0.3h0.4v-0.4v-0.1l0,0v-0.1v-0.1v-0.1l0,0l0,0v-0.3v-0.3v-0.1v-0.3V106h-0.1H477h-0.1l0,0v-0.1v-0.1v-0.1l0,0h-0.1v-0.1v-0.2v-0.2
	v-0.1h-0.1V105l0,0v-0.2v-0.3v-0.1v-0.2V104l0.2-0.1v-0.4v-0.6h0.1v-0.2h0.1v-0.3l0,0v-0.2h0.1v-0.6h-0.1v-0.1v-0.4l-0.2-0.5
	l-0.6-0.3H476v-0.7l0,0v-0.1v-0.3l-0.3-0.5l-0.9-0.1l-0.3-1.2v-0.1v-0.1l0,0h-0.1v-0.1V97v-0.1v-0.1l0,0v-0.1v-0.1l0,0h-0.1l0,0
	l-0.1-0.1l0,0l0,0l0,0l0,0l0,0v-0.1v-0.1v-0.1l0,0v-0.1h-0.1H474l0,0V96v-0.1v-0.1l0,0l0,0l0,0l0,0h-0.1h-0.1h-0.1l0,0v-0.1v-0.1
	v-0.1l0,0l0,0l-0.1-0.1l-0.1-0.1l0,0l-0.1-0.1l0,0h-0.1h-0.1v-0.1V95v-0.1v-0.1l0,0v-0.1v-0.1v-0.1v-0.1v-0.1v-0.1v-0.1V94l0,0h-0.1
	H473l0,0l0,0h-0.1l0,0l0,0l0.1-0.1v-0.1v-0.1l0.1-0.1l0,0v-0.1l0,0H473h-0.1h-0.1h-0.1l0,0l-0.1-0.1l-0.1-0.1v-0.1l-0.1-0.1V93v-0.1
	l0,0l0,0v-0.1l0,0l0,0l0,0h-0.1h-0.1l-0.1-0.1v-0.1v-0.1v-0.1l0,0v-0.1l0,0h0.1h0.1h0.1l0,0l0,0l0,0v-0.1l0,0l0,0v-0.1l0,0l0,0l0,0
	l0,0V92v-0.1l0,0l0,0v-0.1v-0.1v-0.1l0,0l0,0l0,0l0,0l0,0v-0.1v-0.1v-0.1v-0.1l0,0l0,0l0,0v0.1l0,0v0.1l0,0l0,0h0.1h0.1l0,0l0,0l0,0
	l0,0l0.1-0.1l0.9-0.2l0,0l0,0l0,0V91v-0.1l0,0v-0.1v-0.1v-0.1l0,0l-0.1-0.1v-0.1l-0.1-0.1l0,0h-0.1h-0.1h-0.1l-0.1-0.1l0,0h-0.1
	h-0.1h-0.1l0,0l0,0v-0.1V90l0,0v-0.1l0,0l0,0l0,0l0,0v-0.1v-0.1l0,0l-0.1-0.1l0,0v-0.1l0,0v-0.1v-0.1v-0.1v-0.1V89v-0.1v-0.1v-0.1
	l0,0v-0.1v-0.1v-0.1h-0.1h-0.1h-0.1l-0.1-0.1l-0.1-0.1v-0.1V88l0,0v-0.1v-0.1v-0.1v-0.1l0.1-0.2v-0.2V87v-0.1v-0.2v-0.1v-0.1v-0.1
	l-0.1-0.2l0,0l-0.1-0.1l-0.1-0.2l0,0l0,0l0,0l0,0v-0.1l0,0l0,0l-0.1-0.1l0,0l0.1-0.1l0,0l0.1-0.1v-0.1l0,0l0,0h-0.1l0,0v0.1
	l-0.1,0.1l-0.1,0.1l-0.1,0.1l-0.1,0.1l-0.1,0.2l-0.1,0.1l-0.1,0.1l-0.1,0.1H471h-0.1l-0.1-0.1l0,0v-0.1l0,0l0,0l0,0l-0.1-0.3
	l-0.1-0.2l-0.1-0.1v-0.1l-0.1-0.1l-0.1-0.1l0,0l0,0l-0.1-0.1h-0.1l0,0l-0.1-0.1l-0.1-0.1l-0.1-0.1l0,0l0,0h-0.1h-0.1l0,0l-0.1-0.1
	l0.1-0.1l0.1-0.1l0.1-0.1l0.1-0.1l0.1-0.1l0,0l0.1-0.2l0.2-0.3l0.1-0.2v-0.1v-0.1v-0.2V83l-0.1-0.2l-0.1-0.2h-0.1l-0.1-0.1l-0.1-0.1
	h-0.1h-0.1l-0.1,0.1h-0.1l-0.2,0.1l-0.1,0.1l-0.1,0.1l-0.1,0.1l-0.1,0.1h-0.1h-0.1h-0.1v-0.1v-0.1l0,0v-0.1v-0.2v-0.2v-0.2V82
	l0.1-0.1l0.1-0.2l0.1-0.2l0.1-0.2l0.1-0.1l0.1-0.2l-0.2,0l0.1-0.1l0.1-0.1l0,0l0.1-0.1l0,0h0.1h0.1h0.1h0.1h0.1l0.1,0.1l0.1,0.1
	l0.1,0.1l0.1,0.1l0.1,0.1l0.2,0.2l0.2,0.2l0.2,0.1l0.1,0.1l0.1,0.1l0.1,0.1h0.2h0.2h0.2h0.2h0.2h0.2h0.1h0.1h0.1l0.2,0.1l0.1,0.1
	l0.1,0.1l0.1,0.1l0.1,0.2v0.2l0.1,0.3v0.3v0.2v0.1v0.1l0.1,0.1V84l0.2,0.1l0.1,0.1h0.1l0.1-0.1h0.1l0.1-0.1l0.1-0.1l-0.2-1.8
	l0.2-1.1l0,0l0.1-0.5l0.3-0.4l0.9-1.1l0.7,0.3V79v-0.1v-0.1l-0.1-0.1l-0.2-0.1h-0.1h-0.1h-0.2v-0.2h0.1h0.1l0,0l0.1-0.1l0,0l0.1,0.1
	l0,0h0.1l0.1,0.1h0.1l0.1,0.1l0.1,0.1l0.1,0.1l0.1,0.2l0.1,0.1l0.1,0.1v0.1v0.1l0,0l0,0h0.1h0.2h0.1h0.1l0,0l0.2-0.2l0,0V79v-0.2
	v-0.1l0.1-0.4v-0.1v-0.1V78v-0.1h-0.1l-0.1-0.1l0,0l0,0v-0.1l0,0l-0.1-0.1v-0.1l0,0l0,0l0.1,0.1h0.1l0.1-0.1l0.1-0.1v-0.1l0,0v-0.1
	V77v-0.1l0,0v-0.1l0,0l0,0h0.1h0.1v0.1V77v0.1v0.2v0.1l0,0l0,0h0.1h0.1l0.1,0.1l0,0l0,0l0,0l0,0h0.1l0,0l0.1,0.1l0.1,0.1l0,0
	l0.1-0.1l0,0l0,0l0.3,0.6l1,0.8l0.9,0.9V80v1.6l0,0l1.1,0.5l0,0l-0.1-0.1l0,0l0,0v-0.1l0.1-0.1l0.1-0.1h0.1v-0.1h0.1l0,0v0.1
	l0.4-0.3l0.2-0.1v-0.1v-0.1l0,0v0.2h0.1l0,0l0,0h0.1h0.1h0.1h0.1l0,0l0,0h0.1l0,0v-0.1h0.1v-0.1l0,0h0.1h0.1h0.1h0.1v0.1v-0.1l0,0
	l0,0V81v-0.1h0.1v-0.1l0,0v-0.1l0,0l0,0l0,0l0,0h0.1v-0.1l0,0v-0.1v-0.1v-0.1h0.1v-0.1l0,0l0,0v0.1l0,0h0.1l0.1,0.1h0.1h0.1h0.1h0.1
	l0.1-0.1h0.1h0.1l0,0l0,0h0.1l0.1,0.1h0.1l0,0l0,0l0,0l0,0v0.1l0,0v0.1v0.1l0,0l0,0h-0.1h-0.1v0.1l0,0h-0.1l0,0v0.1l-0.1,0.1l0,0
	l0,0H485l0,0l1,0l0,0l0,0v0.1v0.1l0,0l0,0l0.1,0.1l0,0h0.1h0.1h0.1h0.1h0.1l0.1-0.1l0.1-0.1l0.1-0.1l0,0h0.1l0.1-0.1l0,0h0.1V81l0,0
	l0,0v0.1l0,0v0.1v0.1h0.1l0,0l0,0l0.1,0.1h0.1h0.1h0.1h0.1h0.1l0.1,0.1v0.2l0,0v0.1V82v0.1l0,0l0,0v0.1l-0.1,0.1v0.1v0.1l0.1-0.1
	l0,0v0.1h0.1l0.1-0.1v0.1h0.1l0,0v-0.1l0.1-0.1l0,0l0.1,0.1v-0.1l0.1-0.1h0.1v0.1v0.1l0.3-0.1l0.4-0.2l0,0l0.7,0.4h0.1v-0.1l0.1-0.1
	l0,0l0,0l0.1,0.1l0,0h0.1v-0.1v-0.1v-0.1l0,0l0,0l0,0l0,0l0.1,0.1l0,0v0.1l0.1,0.1v0.1l0,0l0.1-0.1l0,0l0,0l0,0h0.1l0,0l0,0l0,0l0,0
	v0.1l0,0l0,0l0,0l0.1,0.1l0,0v0.1l-0.1,0.1h0.1v0.1l0,0h0.1h0.1l0,0V83v0.1l0,0l0.1-0.1l0.1,0.1l0,0h0.1l0,0l0,0l0,0v0.1h0.1l0,0
	h-0.1v-0.1l0,0l0,0l0,0h0.1l0,0l0,0V83v-0.1l0,0l0,0h0.1l0,0l0,0l0,0h0.1h0.1l0,0h0.1h0.1l0,0l0.1-0.1l0,0l0,0v0.1V83v0.1l0,0v0.1
	l0,0l0.1,0.1l0,0l0,0v-0.1l0,0l0,0l0.4,0.4l0.3-0.1l0,0v-0.1l0,0h0.1l0,0l0,0l0,0l0,0l0,0v0.1h0.1l0,0l0,0l0,0h0.1l0,0l0,0v-0.1
	v-0.1h0.1l0.1-0.1l0.1,0.1v-0.1l0.1-0.1V83h0.1v-0.1l0,0l0,0l0,0l0,0h0.1v-0.1l0,0l0,0V83l0,0l0,0v0.1l2.3,0.3l1.4,0.1l1.2,0.1
	l2.5,0.2h1.6l0,0h0.1h0.1h0.1v-0.1h0.1h0.1l0.1,0.1h0.1h0.1h0.1h0.1l0.1,0.1v-0.1h0.1h0.1l0,0h0.1h0.1h0.1h0.1h0.1l-0.4,2.8
	l-0.5,0.6l-0.4,1.5l-1.2,17.9l0.7,3.7l1.7,4.1l0.6,1l0.2,2.1l3.2,11.1l2.4,5.8l5.1-1.1l2.8,0.5v6.8l4.7,3.6l4.7,2.1l5.9,3.1l2,7.8
	l3.9,4.7h5.5l1.6,7.2l2.3,5.7L544,177l-3.5,6.7l-5.5,3.1l-3,3.2l1.2,6.8l3.9,4.2l-0.4,5.7l0.8,5.7l-5.5,4.7l-2,4.2l-1.2,6.8
	l-2.4,4.7l-5.1-2.6l-2,4.2l-0.8,6.3l3.9,5.7l-1.6,5.2h-3.1l-8.9,3.7l-3.7-1.1l-2-2.7l-3-0.5l-3,1l-1.1-2.5v-3.7l-1.8-3.7l0.3-5
	l2.8-1.1l2.5-1.5l1.3-5.6l-1-2.8l-1.6-3.7l-0.3-4.9l0.4-6.3l-0.3-8.5l-5.3,1.6l-8,2.4l-3.9,0.5l-1.8,2.4l-3.3,2.3l-2.2,2l-2,2
	l-2.8,0.3l-0.9-0.6l-0.9-1.4l-2.7-3.8l-2-1.8l-2.2-1.3l-1.8-0.7l-2.2-1l-2.7-2.5l-3.7-3.7l0.7-1.6l-0.3-1.8l-3.7-7.6v-0.2v-0.3h0.1
	l0.1-0.1l0.2-0.2l0,0h0.2h0.2v-0.1l0.1-0.1h0.1l0.1-0.2v-0.1V187v-0.1l0,0l0,0l-0.1-0.3l0.1-0.2l0.1-0.1l-0.1-0.1v-0.1h0.1l0,0
	l-0.1-0.1v-0.1h-0.1v-0.1l0.1-0.1h0.1l0,0l0,0v-0.1l0,0v-0.1l0.1-0.1l0,0l0,0l0,0l-0.1-0.1v-0.1l-0.1-0.1l0.1-0.1v-0.1l0.1-0.1
	l0.1-0.2l0.2-0.1h0.1v-0.1v-0.1l0.1-0.1l0.1,0.1h0.1l0,0l0,0l0,0l0,0l0.2-0.1h0.1l0,0v-0.1l0,0h-0.1V184v-0.1v-0.1h0.1v-0.1v-0.1
	v-0.1v-0.1l0.1-0.1l0.2-0.1h0.1v-0.1V183l0,0l0,0l0,0l0,0l0,0h-0.1h-0.1l-0.1-0.1v-0.1l0,0l0,0v-0.2l0,0l0,0l0,0l-0.1-0.1l0,0v-0.1
	l0.1-0.1l0.1-0.1h0.1l0.2-0.3h-0.1v-0.1v-0.1v-0.2l0.1-0.2l0,0l0,0l0,0l0,0l0,0l0.1,0.1l0.1,0.1h0.1h0.2h0.1h0.1h0.1l0,0h0.1h0.1
	l0,0l0,0l0,0l0,0l0,0l0,0l0,0l0,0l0,0l0,0l0,0h-0.1l0,0l0,0l0,0v-0.1v-0.1l0,0l0,0l0,0l0,0h0.1l0,0h0.1l0,0l0,0l0,0l0,0l0,0l0,0
	v-0.1v-0.1l0,0l0,0h-0.1h-0.1h-0.1l-0.1-0.1v-0.1v-0.1h0.1l0,0h0.1v-0.1l-0.1-0.1v-0.1v-0.1v-0.1v-0.1v-0.1h0.1h0.1h0.1l0,0l0,0V180
	v-0.1h-0.1h-0.1h-0.1l0,0v-0.1v-0.1v-0.1v-0.1v-0.1v-0.1l0,0l0,0h0.1l0,0l-0.1-0.1l0,0l0,0l-0.2-0.1l0,0l0.1-0.1l0,0H450l0,0l0,0
	l0,0v-0.1v-0.1v-0.1l0,0l0,0l0,0l0,0l0.1-0.1v-0.2l0,0h0.1h0.1h0.1l0,0l0,0l0,0l0,0h-0.1l0,0l0,0l0,0l0,0l0,0h0.1l0,0l0,0l0,0v-0.1
	l0,0l0,0l0,0l0,0v-0.1l0,0v-0.1l0,0l0,0l0,0V178l0,0l0,0l0,0l0,0l0,0l0,0h-0.1l0,0l0,0l0,0h-0.1l0,0v-0.1v-0.1v-0.1v-0.1l0,0h0.1
	l0,0l0,0h0.1h0.1l0,0h0.1l0.1-0.1l0,0v-0.1v-0.1v-0.1v-0.1l0,0l0,0h0.1h0.1l0,0h0.1h0.1h0.1V177v-0.1v-0.1l0,0l0,0l0,0l0,0l0,0l0,0
	v-0.2h-0.1l0,0l0,0l0,0l0,0v-0.1l0,0l0,0l0,0l0,0v-0.1l0,0l0,0H451l0,0l0,0l0,0h-0.1h-0.1h-0.1v-0.1h-0.1h-0.1v-0.1v-0.1l0,0l0,0
	l0,0l0,0l0,0l0,0l0,0l0,0l0,0V176l0.1-0.4l0.1-0.4V175l0.1-0.2l0.1-0.6l0.2-0.9l0.2-1.1l0.2-1l0.3-1.4l0.2-0.9l0.2-1l0.4-1.5
	l0.4-1.8l0.1-0.3l0.2-1.1l0.2-0.9l0.3-1.4l0.2-1.1l0.4-1.7l0.3-1.4l0.3-1.2l0.2-0.7v-0.1v-0.1v-0.1v-0.1l0.1-0.4l0.2-0.7l0.3-1.6
	l0.3-1.2l0.2-0.8l0.1-0.7l0.3-1.4l0.1-0.7l0.2-0.9l0.1-0.5l0.1-0.4l0.2-1.1l0.2-0.8l0.2-0.7l0.2-0.9l0.1-0.6l0.3-1.4l0.1-0.6
	l0.2-0.8l0.3-1.4l0.2-1.1l0.2-0.7l0.3-1.2l0.3-1.2l-0.2-1.1l-0.1-0.4l-0.1-0.4L459,129l-0.2-0.9l-0.3-1.3l-0.3-1.3l-0.3-1.2l-0.2-1
	l-0.1-0.6l-0.2-0.7l-0.2-1l-0.1-0.5l-0.2-1l-0.2-0.8l-0.3-1.2l-0.1-0.6l-0.2-0.7L456.1,115.8z M491.3,83.6L491.3,83.6L491.3,83.6
	L491.3,83.6z"/>
<path id="D289" class="st0" d="M240.4,289v-0.1l0.1-0.7l0.1-0.9l0.1-0.3v-0.3l-0.4-0.9L240,285l-0.2-0.6l-0.6-1.6l-0.6-0.4L238,282
	l-0.2-0.1l-0.3-0.2l-0.4-0.2l-0.4-0.3l-0.3-0.2l0.3-0.4h0.2l0,0h0.1h0.2l-0.1-0.4l0.4-0.4l0.9,0.1h0.1l2.4,0.5l1.6-0.3l0.8,0.6
	l0.9,0.1l1.7,0.3l1.6-0.3l1.6,0.1h0.1l0,0l0,0l0.8,0.2l-0.2-1.3l-0.2-1l-0.2-0.9l-0.1-0.8l-0.1-0.7v-0.2l-0.3-0.4l0,0l-0.3-0.3
	l-0.4-0.4l-0.3-0.3l-0.1-0.1l-0.4-0.4l-0.3-0.2l-0.7-0.6l0.1-0.3l0.1-0.4l0.1-0.3l0.2-0.8l0.2-0.8l0.3-1.1l0.1-0.3l0.3-0.9l0.4-1.2
	l0.2-0.6l0.2-0.6l0.2-0.8l0.1-0.2l0,0l0.5-1.3l0.9-1.5l0.9-1.7l0.4-1.3l0,0l0.5-1.4v-0.1l0.7-1.2h0.6l0,0l-0.1,0.5l0,0l0,0l0,0h0.1
	l0,0v-0.1l0,0l-0.1,0.1v0.1v0.1v0.1v0.1v0.1v0.1l0,0h-0.1l0,0l-0.1,0.1v0.1v0.1v0.1v0.1l0,0v0.1v0.1v0.1l-0.1,0.2v0.1l0,0v0.2v0.1
	l0,0v0.1v0.1l0,0l0.1,0.1h0.1l0,0l0,0v0.1l0,0l0,0h0.1h0.1h0.1l0,0v0.1v0.2v0.1v0.1l0,0l0,0l0,0l0,0l0.1,0.1l0,0v0.1v0.1v0.1l0,0
	l0.1-0.1v-0.1l0,0l0,0l0,0l0,0v0.1v0.1v0.1v0.1v0.1v0.1h-0.1h-0.1l-0.1,0.1v0.1l0,0v0.1l0.1,0.1v0.1v0.1v0.1v0.1l0.1,0.1l0.1,0.1
	l0.1,0.1l0.1,0.1l0,0h-0.1l0,0l0,0v0.1v0.1l-0.1,0.1l0,0l0,0l0,0v0.1v0.1l0.1,0.1v0.1v0.1l0.1,0.1l0,0l0,0l0,0l0,0v-0.1h0.1l0,0h0.1
	h0.1h0.1l0,0h0.1l0,0v0.1v0.1l0.4-0.2l0.8-0.4l0.4-0.3l0,0l0.5-0.6l0,0l1.1-0.4l-0.4-0.8l-0.1-0.2l-0.2-0.4v-0.1l-0.1-0.2l0.3-0.6
	l0.1-0.1l0.1-0.2l0.2-0.4l0.2-0.6l0.3-0.8v-0.2l0,0l0.1-0.2l0.3-0.6l0.1-0.4l0.1-0.3l0.2-0.6l0,0l0,0l-0.1-0.3v-0.1l0,0l0,0l0,0l0,0
	l0,0V254v-0.1v-0.1v-0.1l0,0v-0.1l0,0l0,0l0,0l0,0l0,0l0,0l0,0v-0.1v-0.1v-0.1l0,0v-0.1v-0.1V253v-0.1v-0.1v-0.2l-0.1-0.1l0,0l0,0
	v-0.1l0,0l0,0l0,0l0,0v-0.1v-0.1v-0.1l0,0l0,0V252v-0.1l0,0l0,0v-0.1v-0.1l0.1-0.1l0,0v-0.1l0,0l0,0l0,0l0,0l0,0v-0.1v-0.1h0.1h0.1
	l0,0l0,0v-0.1h-0.1l0,0l0,0l0,0l0,0l0,0l0,0v-0.1l0,0l0,0l0.1-0.1v-0.1v-0.1h0.1l0,0v0.1v0.2v0.1l0,0v0.1l0.1,0.2l-0.1,0.1v0.2h0.1
	v0.1v0.1l0,0v0.1l0,0l0.1-0.1l0,0v0.1l0,0h0.1l0,0h0.1l0.2,0.1l0,0h0.2l0,0v0.1h0.1l0,0v0.1l0,0h0.1h0.1h0.1l0,0v0.1l0,0l0,0v0.1
	l0,0l0,0l0,0h0.1v0.1h0.1l0.1-0.1l0,0v0.1l-0.1,0.1l0,0l0,0l0,0l0,0v0.1h0.1l0,0v0.1l0,0l0,0v0.1l0,0h0.1h0.1l0.1,0.1h0.1v0.1h0.1
	l0.1,0.1l0.2,0.1h0.1l0,0h0.1h0.1v0.1l0,0l0,0v0.1v0.1l0.1,0.1v0.1h0.1h0.1h0.1h0.1l0,0l0.1-0.1h0.1l0,0h0.1l0,0l0,0v-0.1l0.1-0.2
	l0.1-0.1v-0.1l0.1-0.1l0,0l0,0l0,0l0,0l0.1-0.1h0.1v-0.1l0.1-0.1h0.1h0.1l0.1-0.1l0,0v-0.1h0.1v-0.1l0.2,0.1h0.1l0.1-0.1l0.2-0.1
	l0.1-0.1h0.1l0.1-0.1h0.1l0.1,0.1l0,0h0.1v0.1v0.1l0.1,0.1v0.1h0.2l0.2,0.4v0.1h0.1v0.1h0.2l0.1,0.2l0.2-0.1l0.2,0.1l0,0l0.1-0.1
	h0.1h0.1h0.1l0.1-0.1l0,0l0.1-0.1h0.2v-0.1l0.1,0.1l0,0v0.1h0.1h0.1h0.1l0,0l0,0l0,0v0.1v0.1v0.1l0.1-0.1l0,0v0.1l0.1,0.1l0.1-0.1
	v0.1h0.1l0.1,0.2h0.1v0.1v0.1l0,0h0.1l0,0v0.2h-0.1v0.2h0.1l0,0v0.2l0.1,0.1l0.1,0.1h0.1l0,0l0,0l0,0l0.1,0.1v0.1l0,0l0,0v0.1v0.1
	v0.1l0,0v0.1l0,0v0.2l0.1,0.1l0,0l-0.1,0.1v0.1h0.1h0.1l0.1,0.1v0.1l0,0v0.1v0.1l0.1,0.2l0.1,0.2v0.1h0.1h0.1v0.1h0.1l0.1,0.1h0.1
	h0.1h0.1h0.1l0.1,0.1v0.1l0,0h0.1v0.1v0.1v0.1l0.1,0.1h0.1h0.1v0.1v0.1v0.1h0.1h0.1l0.1-0.1h0.1l0,0l0.1-0.1v-0.1l0,0h0.1v-0.2l0,0
	h0.1l0.2,0.1h0.1h0.1l0,0l0.1-0.2l0.2,0.1v-0.1l0.1-0.2h0.1l0.1-0.1l0.1-0.1l0.1-0.1h0.1l0.1,0.1h0.1l0.2,0.1l0.1,0.1h0.1l0.1,0.1
	l0.1,0.1v0.1l0,0h0.1l0,0l0,0v0.1h0.1v0.1h0.1l0,0h0.2h0.1h0.1v0.1h0.1h0.1h0.1v0.2l0.1-0.1h0.1V258h0.1h0.1l0.1-0.1v-0.1h0.1v-0.1
	v-0.1l0.2-0.1v-0.1l0.3-0.2h0.1h0.3l0.5-0.1l0.1-0.5l0.4-0.3l0.3-0.1l0.2-0.1l0.3,0.4l0.1,0.1l0.3,0.3l0.1,0.1l0.5,0.4l1.3,1.2
	l0.2,0.2l0.9,0.8l0.8,0.5l0.9,0.2l0.3-0.8v-0.1v-0.2l0.2,0.1l0,0v-0.1l0,0l-0.1-0.1l0,0v-0.2h-0.1l-0.1,0.1h-0.1v-0.1v-0.1l0,0
	l-0.1,0.1h-0.1v-0.1l0.3-0.3h0.1l-0.1-0.8l0,0h-0.1l0,0l0,0h-0.1h-0.1v-0.1v-0.1v-0.1v-0.1H282l0,0v-0.1v-0.1V257v-0.1l0.1-0.1h0.1
	l0,0v-0.1v-0.1v-0.1h-0.1l0,0v0.1l0,0H282l0,0v-0.1v-0.2l0,0h-0.1v-0.1v-0.1v-0.2l-0.1-0.1v-0.1l0,0l0.1-0.1l0.1-0.1l0,0l0,0
	l-0.1-0.1l-0.1-0.1v-0.1l0,0l0.1,0.1v-0.9v-0.1h-0.1v-0.1l0,0v-0.1l0.1-0.1l0.1-1.1l0,0l0,0l0,0l-0.1,0.2l-0.1-0.1v-0.1v-0.1l0,0
	l0.1-0.1l0,0h-0.1h-0.2h-0.1h-0.1l0,0v-0.1v-0.1v-0.1v-0.1l-0.1-0.1l-0.1-0.1h-0.1V252v-0.1h0.1h0.2h0.1l0.1,0.1h0.1v-0.1v-0.1l0,0
	v-0.1l-0.3-0.3v0.1l0,0l0,0v0.1l0,0h-0.1l0,0h-0.1l-0.1-0.1v-0.1l0,0l0.1-0.1l-0.2-0.2l0,0l-0.1-0.1l-0.1-0.1v-0.2v-0.1v-0.1
	l0.1-0.1l0.1-0.1l0,0l0.1,0.1l0,0v-0.1v-0.1v-0.1L281,250l-0.1-0.1l-0.1-0.1l-0.1-0.1v-0.1v-0.1v-0.2l0.1-0.1h0.1h0.1h0.1l0.1-0.1
	V249l-0.1-0.1H281h-0.1l-0.2,0.1l0,0v-0.1v-0.1l0.1-0.2l0.2-0.1h0.1v-0.1l0,0l-0.1-0.2l0,0l0.5-0.9l0.6-1l0.6-1l0.6-1l0.6-1l0.6-1
	l0.4-0.7l0.2-0.4l0.1-0.2l0.1-0.1l0.5-0.9l0.5-0.9v-0.9l0.1-0.4l0.1-0.4l0.9-3l0.2-0.8l0.3-0.9l0.2-0.8v-0.2v-1v-1.1v-0.2v-0.6
	l-0.1-0.2l-0.5-0.9l-0.5-1.1l-0.4-0.8l-0.5-1l-0.3-0.7l-0.4-0.8l-0.4-0.8l-0.6-1.1l-0.3-0.5l-0.4-0.8l-0.4-0.8l-0.3-0.6l-0.1-0.3
	l-0.4-0.9l-0.4-0.8v-0.1l-0.3-0.5l-0.1-0.2l-0.1-0.1v-0.5v-0.5l-0.1-1.1l-0.1-1l-0.1-1.1v-0.5V211l0,0v-0.1v-0.2l0,0v-0.1l0,0
	l-0.1-1.1l-0.1-0.8l-0.1-1.3l-0.1-1.1l-0.1-0.9v-0.5v-0.2v-0.1l0.1-0.6v-0.2l0.1,0.1l0,0l0.1,0.1h0.1v-0.1l0.8-0.9l1.8,0.2h0.3h0.6
	l0.5-0.2l0.6-0.2l0,0h0.7l0,0l1,0.2h0.4l0.2-0.1l0.1-0.1l0.2-0.1h0.1h0.1l0,0l0.1-0.1l0.2-0.2l0.1-0.1l0.2-0.3l0.1-0.1h0.3h0.1
	l-0.1,0.3v0.1l0,0l0.1,0.4l0.2,0.1h0.1h0.2l0,0l0,0l0.2,0.1h0.2h0.2h0.2h0.3h0.1h0.2h0.3h0.2h0.3l0.1-0.1l0.1-0.1l0.1-0.1h0.1h0.1
	h0.5l0.4,0.1l0.2,0.1l0.3,0.2l0.3,0.2l0.1,0.1l0,0l0.1,0.1l0.2-0.1l0.2-0.1h0.1h0.1h0.1h0.2h0.1h0.1h0.1l0.4,0.2l0.4,0.2l0.5,0.1
	l0.1,0.2v-0.4h0.2l0,0l0.1-0.1h0.1l0.1-0.1h0.1h0.1h0.1l0.1,0.1v0.1v0.1h0.1l0,0l0,0l0.5,0.1l0.1,1.5l0.3,0.9l0,0l0.6,0.3l0,0h0.2
	v0.1v0.1l0,0l0,0h0.1h0.1l0.1-0.1l0.1-0.1l0.2-0.3l0.1-0.2l0.1-0.1l0.1-0.1l0,0h0.2h0.1l0.3-0.2h0.6l0,0l0.5,1l0.7,1.3l0,0v-0.1
	v-0.1l0.1-0.1l0.1-0.1l0.1-0.1h0.1l0.2-0.1h0.1h0.1l-0.1-0.1h0.1l0,0v0.1l0,0h0.1h0.1l0,0l0.1-0.1h-0.1V207v-0.1l0,0h0.1l0.1-0.1
	v-0.1h0.1l0.1,0.2l0,0v-0.1l0,0v0.1l0,0l0,0v0.1v-0.1l0.1-0.1h-0.1v-0.2l0,0l0.1,0.1l0,0l0.1,0.1v-0.1h0.1v-0.1l0,0l0,0h0.1v0.1h0.1
	v0.1v0.1h0.1v0.1l-0.1,0.1l0,0l0.1,0.1v0.1v0.1v0.1h0.1l0.1,0.1v0.1l0,0v0.1l0.1,0.1v0.1l0.1,0.1l0,0h0.1l0.1-0.1l0,0v0.1h0.1h0.1
	l-0.1-0.2v-0.1l0,0h0.1l0,0l0,0h0.1l0.3,0.3l0,0h0.9h1.1l0.8,0.2l0,0l0,0l0.1-0.1h0.1l0.2-0.2l0.2-0.1h0.1l0,0l0.4-0.1l0.2-0.1h0.1
	l0,0h0.1l0.1,0.1l0.2,0.1h0.1h0.2l0,0h0.1h0.1l0.1-0.1l0.1-0.3v-0.1l0.2-0.5l0.2-0.4l0,0l0.1,0.1h0.1l-0.2,0.4v0.1v0.1l0.1,0.2l0,0
	l0,0l0,0l0,0l0,0h0.1v-0.1l0.1-0.1l0,0v-0.1h0.1l0.1-0.1v0.1h0.1v0.2v0.1h0.1v0.1l0.1,0.1l0,0l0.4,0.3l0.1,0.1l0,0l0,0l0.3,0.3l0,0
	l0.1,0.1l0,0l-0.4,4.4l-0.4,5.9l0.2,2.7v0.2v0.1l4.7,6.5l0,0l1.1,2.3l0.3,2.8v0.9v1.5l-1,4.8l0.6,7.1l-1.5,2.8l2.2,3l1.8,2.2
	l0.8,2.8l0.9,1.1l-0.2,4l0.8,1.1l1.2,2.8l0,0l0.8,3.3l0,0l0.4,2.7l2.3,5.5l-0.1,2v0.1l1,1.6l0.5,1.6l-0.5,1.6l0.9,0.5v1.1l0,0
	l-1.3,1.1l0.9,3.3h1.4l0.8-0.3l0.6-0.2l0,0l2.3,2.1l1.8-1.6l0,0h0.9l1,4.9l-0.6,4.4l-0.3,2.1l1,2.2l2.4,3.8l-0.5,5.4l0.5,0.5
	l-1.4,7.6l0.8,2.9l0.1,0.3l0,0l-0.4,2.1l0.5,1.1v1.6l-0.9,2.7l0.9,1.1l1.9,6.5l0.1,6.4v0.1l-2.5,5.4l-3.7,5.6l-4.2-0.9l-4.6,4.3
	l-9,5.9l-7.6,1.8l-10.2-4.4l-4-5.2l-3.6,1.2l-5.6-1l-3.7-1.5l-2.6,9.2l-3.3,2.8l-4.2-2.2l-3.7-5l-4.4-0.6l-3.7,9.6l-1.4,5.9
	l-3.2,2.2l-3-7.8l-7,10.2l-9.5-9.6l-4.4,2.8l-3.5-12.7l-0.2-0.1l-0.6-0.4l0.2-0.7l0.2-0.7l0.2-0.7l0.3-0.5l0.3-0.6l0.4-0.7l0.1-0.1
	l0.1-0.2l0.1-0.2v-0.1l-0.1-0.4v-0.2v-0.1v-0.2l-0.1-0.8l-0.1-0.5l0.3-0.6l0.1-0.3l0.2-0.4l0.2-0.4l0.1-0.3l0.1-0.2l0.3-0.7l0.2-0.3
	l0.2-0.4v-0.1v-0.4v-0.4v-1v-1.1v-0.9v-1.1l-0.1-0.7l-0.1-0.8l0.1-1.2l0.1-0.9v-0.2h-0.1l-0.1-0.1l-0.3-0.2l-0.2-0.1l0.1-0.6v-0.1
	v-0.2v-0.2v-0.3l-0.1-0.2l-0.3-0.3l-0.1-0.1v-0.1l-0.1-0.1l-0.1-0.2l0.1-0.3l0.2-0.6l0,0v-0.1l0.4-0.8l0.2-0.2l0.1-0.1l0.2-0.2
	l0.1-0.1l0.1-0.1l0.1-0.1l0.1-0.1v-0.2h0.1h0.1l-0.1-0.3l0,0v-0.1l0.1-0.5l0.3-0.8l0.1-0.3l0.1-0.6l0.1-0.3l0.1-0.4v-0.2v-0.1v-0.1
	v-0.1v-0.1v-0.1l0,0v-0.1V334v-0.1v-0.1v-0.3v-0.3v-0.4h0.1v-0.1v-0.1l0.1-0.1l0,0v-0.1l0,0h0.1v-0.1l0,0l0.1-0.1l0.1-0.1l0,0h0.1
	h0.1h0.1l0,0h0.1l0.1-0.1v-0.1h0.1l0,0l0.1-0.1l0.1-0.1l0,0v-0.1l0.3-0.8l0.4-0.9l0.1-0.3l0.2-0.4l0,0l0.1-0.3l0.4-0.8l0.2-0.5
	l0.3-0.5V327l0.3-0.6l0.4-0.7l0.5-0.9l0.6-1.1l0.4-0.6l0.4-0.5l0.3-0.4l0.3-0.4l0.2-0.3v-0.4l-0.3-0.7l-0.1-0.2v-0.1V320l-0.1-0.1
	l-0.2-0.7l-0.2-0.5l-0.2-0.6l-0.3-0.7l-0.1-0.4l-0.1-0.4l-0.2-0.9l-0.2-0.3l-0.1-0.2l-0.3-0.6L238,314l-0.3-0.5l-0.3-0.5l-0.3-0.6
	l-0.4-0.8l-0.2-0.4l-0.2-0.3l-0.1-0.4l-0.1-0.5l-0.3-1l-0.1-0.4l-0.1-0.4l0,0l0,0l-0.1-0.9v-0.4v-0.2v-0.3v-0.1v-0.1l-0.1-0.4
	l-0.3-0.8v-0.1l-0.3-0.8l-0.4-0.1h-0.2l-0.7-0.1l-0.1-0.2l-0.2-0.3l-0.3-0.5l-0.1-0.1V302v-0.6v-0.7v-0.6v-0.7v-0.6v-0.9v-0.8v-0.7
	v-0.7v-0.4v-0.5h0.1l0.3-0.2h0.1l0.1-0.1l0.2-0.1l0.7-0.4l0.7-0.4l0.4-0.3l0.3-0.2l0.3-0.2l0.5-0.4l0.8-0.6l0.8-0.6l0.1-0.1v-0.3
	L240.4,289z"/>
<text transform="matrix(1 0 0 1 434.3721 322.7012)" class="textName">Dhalai</text>
<text transform="matrix(1 0 0 1 313.2852 471.9912)" class="textName">Gomati</text>
<text transform="matrix(1 0 0 1 331.7021 271.0371)" class="textName">Khowai</text>
<text transform="matrix(0.1645 -0.9864 0.9864 0.1645 554.2365 307.8418)" class="textName">North Tripura</text>
<text transform="matrix(0.3711 -0.9286 0.9286 0.3711 255.3794 464.2294)" class="textName">Sipahijala</text>
<text transform="matrix(0.444 0.896 -0.896 0.444 325.5973 546.9656)" class="textName">South Tripura</text>
<text transform="matrix(1 0 0 1 469.7793 176.0342)" class="textName">Unokoti</text>
<text transform="matrix(1 0 0 1 247.835 329.9644)" class="textName">W.Tripura</text>
</svg>
