<?xml version="1.0" encoding="utf-8"?>
<!-- Generator: Adobe Illustrator 26.0.0, SVG Export Plug-In . SVG Version: 6.00 Build 0)  -->
<svg version="1.1" id="Layer_1" xmlns="http://www.w3.org/2000/svg" xmlns:xlink="http://www.w3.org/1999/xlink" x="0px" y="0px"
	 viewBox="0 0 800 730" style="enable-background:new 0 0 800 730;" xml:space="preserve">
<style type="text/css">
	.st0{stroke:#000000;stroke-miterlimit:10; cursor:pointer;}
	.textName{font-family:'Arial'; font-weight:bold; color:#000000; font-size:12px; cursor:pointer;}
</style>
<path id="D324" class="st0" d="M238.3,270.8 234.2,269 228.3,264.3 224.6,270.3 219.7,272.3 
	215,271.6 212.7,269.5 208.6,267.9 203.4,267.9 197.7,268.2 191.4,266 185.8,271.7 179.3,270.2 176.6,270.1 174.3,270.8 
	172.9,272.7 172.9,275.9 169.7,278 169.7,283 167.6,283 167.6,287.2 171.4,287.8 172.7,288.9 172.7,290.4 171.4,294.8 171.4,296.6 
	172.5,298 174.4,297.1 177.4,295.3 178.6,296.7 177.4,301.5 177.4,303 179,302.4 181.9,297.9 184,296 185.4,296 192.5,300.3 
	195,298.7 198,297.4 198.4,295.3 197,287.7 197,283.5 198.3,283 201.5,284.5 203.8,290 205.3,290.4 209.1,288.9 209.1,288.9 
	210.6,289.6 213,293.3 218.1,293.4 218.8,294.1 216.7,301.5 217.7,304.3 219.3,304.9 222.8,303.3 224.3,299.5 226.5,298.1 
	231.3,297.8 237.4,295.6 240.7,298.8 242.8,298.6 244.6,295 248.6,295.5 249.4,297.3 249.6,297.2 251.5,296.1 252.5,297 
	251.5,301.2 252.9,303.5 252.9,305.5 255.8,302.7 261,310.1 263.7,310.1 269.4,305 271.9,305.6 272,305.6 271.9,304.8 271.3,302.5 
	270.5,301.3 270.5,299.6 268.7,298.8 269.3,297.3 268.7,297.3 268.7,296.1 267.3,296.1 268.7,294.1 266.7,292.8 268.7,292.2 
	267.9,290.6 268.7,290.6 266.5,288.9 268,287.8 268,285.2 267.2,284.4 268,283.2 267.4,280.3 266.6,278.4 265.2,276.1 264.7,273.8 
	264.7,271.6 263.6,268.6 263,268.7 261.8,268.9 254.5,266.8 250.6,269 245.2,270.2 241.2,270.8 " />
<path id="D303" class="st0" d="M207.2,343.1 207.2,340.6 204.5,340.6 204.5,339 205.6,337.9 
	207.4,338.8 209.7,337.2 209.1,335.3 209.3,333.7 211.3,332.6 210.7,330.5 212.9,330.5 211.8,328 211.4,325 209,327.1 207.5,325.5 
	206.6,323.6 208.6,322 207.2,320.2 206.1,317.7 207.7,316.3 207.9,313.9 209.3,313.9 209.8,311.9 211.6,310.1 210,308.7 
	208.1,307.6 208.1,304.8 210.7,303.4 211.8,301.9 214.5,301.2 214.5,298.6 211.6,298 208.6,298 207.4,297.2 208.8,296.4 
	210.6,295.2 211.6,293.3 210.2,293.3 207.2,294.1 208.8,291.5 209.1,288.9 205.3,290.4 203.8,290 201.5,284.5 198.3,283 197,283.5 
	197,287.7 198.4,295.3 198,297.4 195,298.7 192.5,300.3 185.4,296 184,296 181.9,297.9 179,302.4 177.4,303 177.4,301.5 
	178.6,296.7 177.4,295.3 174.4,297.1 172.5,298 171.4,296.6 171.4,294.8 172.7,290.4 172.7,288.9 171.4,287.8 167.6,287.2 
	167.6,287.3 167.6,289 165.4,293.3 162.2,295.1 160.5,298.6 159,298.6 159,300.8 158.6,301 159.1,303.5 161.3,304.2 160.9,305.5 
	160.4,307.4 159.3,307.4 157.9,308.5 156.7,308.5 155.2,308.5 155.2,311.7 156.8,312.6 157.2,313.9 157.9,315.2 156.3,316.3 
	155.2,315.2 153.6,316.1 153.6,317.7 154.5,318.6 155.9,318.6 157.5,317.7 159.5,316.7 161.4,315.2 162.5,316.7 163,319.5 
	161.3,319.5 160.6,320.7 160.9,322.5 162.7,326.1 162.1,326.9 160.9,326.9 159.3,326.8 157.2,326.1 156.1,327.8 155.4,328.7 
	154.9,330.8 153.6,330.8 153.6,331.7 155.8,332.6 155.8,333.7 151.7,334.4 150.6,332.6 149.6,332.6 148.8,334.7 146.7,335.6 
	145.5,337.8 146.4,339.2 144.8,339.2 143.5,340.2 140.5,340.2 138.4,341.1 136.3,343.6 137.7,344.4 140,347.3 140,349.7 
	141.7,352.4 141.9,354.6 143.2,354.6 144.3,356.7 149,356.7 152.6,356.7 155.1,357.3 156.4,358.7 158.5,358.7 159,360.3 
	160.5,358.7 162.6,359.7 163,361.6 168.1,362.4 170.2,362.2 172.2,362.9 172.5,363.1 178.1,359.6 180.1,359.6 180.1,357.8 
	181.3,359.6 184,358.7 185.7,356 187.3,354.4 190.3,353.3 192.5,354.4 196,354.4 197.4,353.4 200.4,352.1 203.6,352.1 205.5,352.1 
	206.6,352.1 207.4,350.3 208.8,349.5 207.7,347.9 205.8,346.8 204.2,346.8 203.3,344.5 205.6,343.1 "/>
<path id="D836" class="st0" d="M424.4,253.6l-1.5,2.5l1.7,4.7l-1.9,6.1l0.8,7.2l1.1,9.4l8.9,15.6l3.6-3
	l7-3v-3.4l1.8-3.4h1.3h2.6l1.6-2.6h1.4h0.4l3.6-1.2l1.3-3.1l2.8-2.1l3.4-0.5l2.3,0.5l8.8-1h2.6l3.9,0.3v1.3l1.8,2.7l10.3,3.2
	l2.3-1.5l-0.8-3.9l-1.5-2.1V271h3.1h2.8l1.6-2.8l3.9,1v1.8l1.5-2.1v-3.1l1.9-1.7l0.1-0.1l1.8-1.8l-2.1-4.1h-2.8v-2.3l-1.3-2.2
	l1.3-2.5l-1.3-2.1l-2.1-1.8l-2.2-2l-0.4-0.3l-3.9,3.9l-3.9,0.3l-4.4,1.5l-6.5,0.3l-5.7,2.7l-1.3-2.5l-2.6,2.5l-1.3-2.7l-5.2-1
	l-7.2-0.5l-5.9,1.3h-3.4l-5.7,0.5l-5.7,2.5h-7.5L428,256L424.4,253.6z"/>
<path id="D319" class="st0" d="M116.1,336.2 116.1,338.3 114.4,339.3 112.7,339.3 114,340.6 
	112.7,342.7 110.4,342.7 109.2,342.7 107.3,344.8 105.4,343.7 105.4,345.8 105.2,346.3 106.6,346.5 112.4,346.5 113.9,347.3 
	113.9,349.2 117.8,349.5 120,348 123.5,347.3 126.6,346.9 129.8,346.1 132.6,344.8 135.3,343.1 136.3,343.6 138.4,341.1 
	140.5,340.2 143.5,340.2 144.8,339.2 146.4,339.2 145.5,337.8 146.7,335.6 148.8,334.7 149.6,332.6 150.6,332.6 151.7,334.4 
	155.8,333.7 155.8,332.6 153.6,331.7 153.6,330.8 154.9,330.8 155.4,328.7 156.1,327.8 157.2,326.1 159.3,326.8 160.9,326.9 
	162.1,326.9 162.7,326.1 160.9,322.5 160.6,320.7 161.3,319.5 163,319.5 162.5,316.7 161.4,315.2 159.5,316.7 157.5,317.7 
	155.9,318.6 154.5,318.6 153.6,317.7 153.6,316.1 155.2,315.2 156.3,316.3 157.9,315.2 157.2,313.9 156.8,312.6 155.2,311.7 
	155.2,308.5 156.7,308.5 157.9,308.5 159.3,307.4 160.4,307.4 160.9,305.5 161.3,304.2 159.1,303.5 158.6,301 153.3,303.3 
	150.5,303.3 145.9,303.3 140.2,299.4 138,300.1 138,303.3 138,305.4 133.4,305.4 131.9,301.8 128.8,302.9 128.8,307.5 128.8,311.1 
	124.9,312.9 124.9,311.5 124.9,307.5 121.7,307.5 121.7,311.1 121.7,312.9 119.5,312.9 117.8,310.7 116,310.7 116,312.9 116,313.9 
	112.9,312.1 112.8,312.6 111.8,314 109.7,314.4 109.9,315.5 111.5,316.1 111.5,317.7 110.1,317.7 109.9,319.3 110.9,320.7 
	110.9,321.8 112,323.9 113.4,326.3 114.4,326.5 114.4,329.7 116.5,328.1 116.5,331.3 117.8,332.8 117.8,334.7 "/>
<path id="D316" class="st0" d="M380.3,494.9 379.1,494.3 376.3,495.4 374.6,494.3 372.3,495.5 
	371,496.1 369,494.5 364.4,496.4 361.5,496.4 360.7,494.7 359.8,495.1 357.6,495.1 356.5,494 354.3,494.5 354.3,498 354.3,499.4 
	354.3,501.5 351.2,501.5 352.4,503.7 349.7,502.5 349.7,503.7 347.3,505.4 347.3,507.4 346.4,510.5 347.3,513 349.9,513 352,513 
	353.1,514.2 352,515.2 350.4,515.2 350.8,517.1 353.1,517.1 355.3,515.5 355.7,517.1 354.5,517.1 354.9,520.4 356.5,520.4 
	356.5,521.6 356.7,524.3 358.7,524.3 359.8,525.7 364.4,525.7 366.7,525.7 368.6,524.8 369.9,527.2 371.7,527.2 374.2,527.2 
	374.2,529.6 373,531.4 374.2,533 376.9,533 379.2,533 379.2,534.9 377.3,535.7 376.9,538.2 375.8,540.8 375.7,543.7 375.7,549.6 
	374.5,550.4 375.3,551.8 376.8,551.8 376.8,558.1 379.2,558.1 380.6,559.8 376.8,559.8 377.1,562.9 378.7,563.9 380.6,565.9 
	383.5,566.5 383.5,565.1 384.8,563.9 384.8,562.9 387.3,563.9 388.9,566.5 390.5,565.7 391.5,566.5 390.1,568 390.1,569.7 
	388.5,571.2 389.7,575.2 391.5,580.9 391.5,583.8 393.8,586.3 396.5,587.5 395.2,590.6 396.5,592.2 398.7,592.2 400,588.1 402,589 
	403.5,587.9 405.5,589.6 405.5,586.7 407,586.7 408,588.3 409.7,589.2 411.1,587.9 412.7,589.4 414.2,587.1 417.1,588.3 
	418.7,585.9 419.9,586.9 422.2,586.3 420.8,584.2 422.2,579.9 423.2,578.7 421,575.6 422,574 421.4,572.5 423.2,572.3 423.2,569 
	424.5,568.8 424.5,567.1 424.5,565.5 426.7,565.5 429.2,563.9 428.2,562.4 426.7,563 425.3,561.4 427.2,560.3 426.3,558.5 
	427.6,557.7 426.7,554.8 429.2,554.4 429.2,552.1 428.2,550.7 426.3,547.6 427.8,547.2 428.2,544.7 430.4,543.1 428.6,541 
	429.6,539.1 430.4,534.2 431.7,533.2 433.5,533.8 435.2,536.9 436.8,535.4 438.9,535.8 440.5,534.2 440.5,532.3 440.5,528.8 
	441.8,528.6 444.6,524.8 444.6,521.8 447.1,520.4 445.9,518.1 447.1,515.3 448.1,513.2 447.3,511.8 447.1,513.9 444.5,511.9 
	443.7,511.3 441.8,512 438.2,509.8 425.5,509.6 423.9,508.4 423.1,507.7 423.5,506.1 422.7,504.8 421.4,504.7 420,503.4 
	419.2,502.1 418.4,500.9 419.1,498.3 420.4,498.3 421.2,497.1 422,496 421,495.5 419.7,496.1 416.6,496.9 413.9,498.4 412.4,497.5 
	412.1,499.4 410.5,500.6 408.6,499.3 405.4,499.3 403.6,499.4 400.8,501.2 400,500.9 397.2,502.9 395.6,501.5 396.3,500.1 
	392.2,498 390.2,498.1 388.3,496.2 387.9,493.8 387.6,491.4 385.7,491.4 385.7,492.9 384.7,493.6 382.2,494.5 "/>
<path id="D839" class="st0" d="M635.5,231.5l1,6.9l-1.9,1.4l-2.5,4.6l-4.1,2.3l-1.5,3.7l4.4,0.4l7.2-1.7
	l9.1-6.6l2.2,2.1l-4.1,5.7l0.9,1.8l2.5-1l1.6,0.3v1.9h1.2l0.9,1.2h1.2l1.3-1.8h2.2l1.9-2h1.5l2.3-1.5h1.9l2.3-1.8v-2l3.6-2.2h1.8v-1
	l2.2-1.5l2-3.1h1.3l1,1.5l2.3-2.3l1.8,0.4v1.9l1.5-1.2l2.5-1V235l2.6-2l1.5-1.5l1.6-0.7l1.8-1.2l1.8-1.2v-2.1V224v-2.5l-1.2-0.8
	l-2.2-2.8l-2.7,0.2l-1.7-1.2l-1.9,1l-3.4,0.2v2.6h-3.1l-3,0.8l-3.2,3.5l-2.4,0.7l-2.7-1l-1.7,1.7l-1.7-1.5h-5.1l-1.5-2.4l-3.4,1.5
	l-4.6-0.2l1.2-2.3l-1.2-2.1l-1.5-6.6l-7.8,7.9l-5.9,9.4L635.5,231.5L635.5,231.5z"/>
<path id="D320" class="st0" d="M116.8,303.3 116.6,308.1 113.6,309.6 112.9,312.1 116,313.9 
	116,312.9 116,310.7 117.8,310.7 119.5,312.9 121.7,312.9 121.7,311.1 121.7,307.5 124.9,307.5 124.9,311.5 124.9,312.9 
	128.8,311.1 128.8,307.5 128.8,302.9 131.9,301.8 133.4,305.4 138,305.4 138,303.3 138,300.1 140.2,299.4 145.9,303.3 150.5,303.3 
	153.3,303.3 158.6,301 159,300.8 159,298.6 160.5,298.6 162.2,295.1 165.4,293.3 167.6,289 167.6,287.3 167.6,287.2 167.6,283 
	169.7,283 169.7,278 172.9,275.9 172.9,272.7 174.3,270.8 175,269.8 166.1,271.3 156.9,271.6 148.4,271.6 145.5,273 143,272.3 
	140.9,270.5 137.7,270.9 135.9,268 133.2,268 126.9,265.6 125.2,263.8 122.9,263.8 120.8,267.2 121.4,269.3 119.9,270.8 
	119.9,272.5 121,275.2 121,277.5 122.7,279.8 125.8,283.6 125.8,284.9 125.2,288.2 126.9,291.1 126.9,292.7 125.8,295.1 
	125.8,296.8 124.3,296.6 124.3,295.6 123.1,295.8 123.1,297.2 121.4,297.7 121.2,296 119.7,296 119.7,298.3 117.8,298.3 
	117.8,296.2 116,295.3 113,296.6 110.7,296.4 109,295.8 109.4,292.7 108.4,292.7 106.3,294.3 103.8,294.3 104.4,295.1 104.2,296.6 
	105.7,297.4 104.6,299.8 107.6,301.4 106.5,303.1 109.4,303.5 111.5,302.3 114.3,302.9 114.7,304 "/>
<path id="D325" class="st0" d="M339.7,307.1 340.2,306.5 343.1,306.5 343.1,304.9 341.5,303 
	341.5,301.1 340,301.1 341.5,299.4 340.9,298.5 339.2,299.9 337.3,298.9 336.2,297.5 338.4,297.5 337.3,296.1 336.2,295.3 
	337,292.9 338.4,292.1 337,290.3 338.4,288.1 338.4,285.2 337.5,283.8 335.5,285.7 333.5,288.9 331.2,292.8 328.6,293.8 
	327.1,292.1 324.7,286.4 322.4,285.4 319.9,285.1 316.1,286.1 310.9,288 307.9,290.5 306.4,293.8 305.6,295.1 306.4,298 
	307.6,299.7 309.7,299.7 311.7,301.7 310.9,306.1 310.4,307.7 307.4,307.7 305.6,306.6 305.6,302.8 305,300 303.8,298.4 
	301.4,297.4 298.2,296.9 296.3,297.7 293.8,296.4 291,296.4 288.4,297.4 286.4,299 283.5,300 281.2,301 279.9,301 276.3,302.8 
	273.6,305.6 271.9,304.8 272,305.6 271.9,305.6 272,310.1 272,311.5 272,313.9 270.3,313.9 269.5,315.8 270.3,318.5 272,323 
	273.5,323 274.4,324.4 275.9,325.8 275.9,329.8 275.9,332.2 273.8,334.2 272,334.2 272,340 272,343.1 271.8,343.1 272.4,344.1 
	270.1,346 268.1,347.3 271.3,348.7 272.8,348.1 274.3,347.9 275.9,347.9 278.7,347.1 279.9,347.2 282.2,346.2 283.7,346.8 
	286.1,344.6 288.2,343 289.8,343.2 293.5,342.4 293.5,342.8 295.8,340 296.9,340.8 299.8,338.7 300.7,340.8 303.4,340 305.5,335.1 
	307.2,335.1 307.9,331.7 310.3,331.7 310.3,331.3 310.3,329 311.6,329 313.5,325.5 315.8,323 318.7,320.4 322.1,320.7 323.1,322 
	326.5,319.6 326.5,317.9 328.4,317 331.1,317 333.2,314.7 336.2,311.8 339.7,310.1 339.3,309.7 338.9,309.3 336.2,309.3 337,307.7 
	"/>
<path id="D308" class="st0" d="M612,200.9 610,198.8 611.8,197 614.5,197 612.9,194.1 
	613.9,192.9 615.9,192.9 617.6,191.6 615.9,188.7 617.2,187.3 620.1,187.3 621.1,185.4 623.4,185.4 624.2,182.8 626,179.5 
	629.5,178.6 632.2,176.8 631,173.5 633,173.5 635.9,170 639.6,166.1 642.5,164.9 644.3,161.8 646.8,161.8 648.9,157 651.5,156 
	654.2,157 655.3,154.4 656.9,153.9 658.6,155.2 662,155.2 666,155.2 666,152.5 674.2,149.6 676.1,148.8 676.1,151.3 674.2,153.5 
	678.3,155.2 681.2,155.2 682.8,155.2 684.3,152.1 686.1,152.7 689.6,153.9 693.3,151.1 694.6,149.8 696.8,150.4 700.1,151.1 
	700.8,149.6 701.2,141.8 700.1,140.6 700.1,137.7 702.6,137.7 702.6,135.6 704.5,135.6 706.7,133.8 708.6,132.1 708.6,128.8 
	711.5,128.8 711.5,125.9 709.9,126.4 696.8,130.9 688.8,126.8 634.5,146.5 634.1,149 632.2,150.6 630.1,150.6 627.7,150.4 
	626.2,152.1 625,152.3 623.8,154.8 621.3,154.8 620.7,153.7 619.6,154.2 618.8,155.8 617,155 616.1,154.6 614.5,155.4 614.9,157.4 
	612.9,157 611.4,157.9 609.8,159.7 608.7,159.5 606.3,160.7 603.4,161.4 601.7,162.8 599.9,163.6 598,164.2 596.2,164.7 
	595.8,166.1 593.9,167.5 590.8,166.9 589.4,169.6 589.2,168.1 585.9,165.5 586.1,164 584,164 582,166.1 581.1,165.5 579.7,166.1 
	577.9,167.5 571.5,165.5 569.6,163.8 567.8,165.5 567.3,164.2 565.3,163 566.3,161.2 566.3,160.1 564.3,159.1 562.8,159.3 
	561.4,163.2 559.5,162.4 560.1,164.6 561.6,165.7 561,168.4 563.6,168.4 564.9,170.4 564.9,171.6 565.6,175.5 565.7,175.4 
	568,177.2 567.8,181.9 571.6,186.3 570.9,188.9 571.2,191.5 568.9,193.4 566.1,190.8 564,191.8 565,193.7 567.1,195.8 569.8,196.9 
	570.8,197.7 570.2,199.8 571.1,201.6 573.4,201.5 579.2,199.6 581.2,199.7 583.2,198.5 583.2,199.7 584.4,199.2 585.7,199.3 
	585.7,201.1 587.1,201.1 587.2,202.5 588.3,202.1 588,200.8 590.2,199.6 590.9,200.1 592.2,199.5 593.8,199.5 595.1,199.3 
	599.5,204.6 598.4,206.1 598.3,206.9 599.5,207.1 600.6,205.8 600.8,206.8 603,205.9 604.7,206.2 608.1,202.9 606.3,199.8 
	608.1,199.6 610,200.9 "/>
<path id="D301" class="st0" d="M101.6,317.7l-2.7,1.7v2.3h-1.7l-0.4,1.9l0.6,2.9l-1.9,0.6l-1.7,2.1
	l-1,1.3l-0.8-1.7l-1.9-0.6l-1.5,1.1l-1,0.2l-0.4-1.5l1.1-2.3l-0.2-2.3l-1-1.7l-2.9,1.9v1.3l-3.1,1.7h-1.5h-1.7l-4.6,1.5l-7.8,4.6
	l-2.1-1.7l1.3-1.9l-1.5-1.5l-2.1,0.8l-1.3-0.4l1-1.5h-1h-3.1l-3.8,1.5l-1.7-1.5h-1.7l-1.3,1.9h-1.3l-2.3,2.9l-2.7,1.1l-1.5-1.1
	l-2.3-1l-2.5,1l-2.5-1.5l-0.7-0.4l-1.2-0.6h-1.5v2.5l-1.9,0.6l-1.3-1.9l-0.8,2.5L28,335l-1.3,1.9l-1.9-2.5l-2.1,2.5l3.8,2.3
	l-2.1,2.5h-1.7v1.1l2.3,1l0.2,1.5h-2.5v1l1.5,2.3h1.7v0.8v1.7h2.9l0.8,2.3l1.1,0.4l0.2,0.8l-2.1,1.7l0.8,2.2h2.9v3.1l1.5-1l0.2,2.9
	l-1.7,0.4l-1.1,2.9l1.7,1.5v1.7l1.7-0.4l1.7-2.5v3.4v2.5l1,1l1.7,0.4l0.4-2.9l0.4,0.7l1.1,1.8l1.7,0.6l-1.1,0.8l-1.5-0.2l-1.5,1.1
	l0.4,1l-2.7,1.5l3.4,1.5l4-0.8v2.3l-3.1,2.9l-2.9,3.6v1.4l9-6.1l5-1.2l2.6-4.7l4.6-6.8l6.6-3.6l1.2-2.2l13.4-8.1l-2.3-1.3v-1v-3.1h4
	h2.3h2.7l4-1.9l2.3-0.4l2.3,1h1.9l1.3,1.3l3.8-0.8l2.1-1.1v-1.5l0.7-2.1l0.1-0.4v-2.1l1.9,1l1.9-2.1h1.3h2.3l1.3-2.1l-1.3-1.3h1.7
	l1.7-1V336l1.7-1.5v-1.9l-1.3-1.5v-3.3l-2.1,1.6v-3.1l-1-0.2l-2.1-0.4l-1.3-1.3h-3.6l1.3-2.3l-1.1-1.3l-2.1,1.3v-1.5l-1.3-1.7
	L101.6,317.7z"/>
<path id="D310" class="st0" d="M686.1,170 684.7,168.2 684.9,167.2 686.3,167.2 687.1,166.5 
	689,166.5 690.4,163.9 686.1,152.7 684.3,152.1 682.8,155.2 681.2,155.2 678.3,155.2 674.2,153.5 676.1,151.3 676.1,148.8 
	674.2,149.6 666,152.5 666,155.2 662,155.2 658.6,155.2 656.9,153.9 655.3,154.4 654.2,157 651.5,156 648.9,157 646.8,161.8 
	644.3,161.8 642.5,164.9 639.6,166.1 635.9,170 633,173.5 631,173.5 632.2,176.8 629.5,178.6 626,179.5 624.2,182.8 623.4,185.4 
	621.1,185.4 620.1,187.3 617.2,187.3 615.9,188.7 617.6,191.6 615.9,192.9 613.9,192.9 612.9,194.1 614.5,197 611.8,197 610,198.8 
	612,200.9 610,200.9 608.1,199.6 606.3,199.8 608.1,202.9 604.7,206.2 606.3,206.4 604.4,208 604.4,209.7 605.1,210.5 604.3,212.6 
	603.6,215 604.3,217.4 603,219.1 601.1,219 601.1,219.5 604.3,224.7 604.7,225.2 609.3,219.3 609.3,215 611.2,211.6 612.9,211.1 
	616.1,211.1 619,208.1 619,211.6 620.2,212.8 620.2,207.1 623.1,207.1 623.1,210.8 625.8,210.8 625.6,212.8 627,215.7 625.8,219.1 
	626.3,222.1 623.1,224.7 627.8,227.9 631.4,228.1 630,231.5 632.1,231.5 633.4,231.5 635.5,231.5 635.5,230 641.4,220.7 
	649.2,212.8 650.6,219.3 651.8,221.4 650.6,223.7 655.3,224 658.7,222.5 660.1,224.9 665.2,224.9 666.9,226.4 668.6,224.7 
	671.3,225.7 673.7,224.9 676.9,221.4 679.9,220.7 683,220.7 683,218.1 686.4,217.9 688.3,216.9 690,218.1 692.7,217.9 694.9,220.7 
	696.1,221.4 696.1,224 696.1,226.4 696.1,228.5 696.1,228.6 698.8,228.6 701,228.6 702.9,225.2 705.6,225.2 708.9,225.2 
	708.9,221.4 708.9,218.9 707.6,215.7 708.8,214.2 710.2,212.8 711.5,210.1 710.3,208.7 709.5,207.1 708.4,208.1 707.4,211.4 
	705.3,208.3 707,207.1 708.2,206 707.4,204.3 705.3,203.5 708.4,200 706.6,197.1 708.6,196.1 709.1,193 706.8,192.2 705.3,194 
	704.1,191.5 701,190.3 698.3,189.9 696.4,191.3 695.2,191.3 695.2,189.9 691.9,189.9 689.8,190.5 688.6,189.3 688.6,186.8 
	686.3,187.2 684.2,187.8 682.6,188.4 681.4,186.8 682.8,185.1 681.4,184.5 679.9,184.3 679.9,181.4 679.9,178.7 679.9,176.5 
	681.6,175.4 684.2,175.4 685.1,174.4 685.1,172.9 684,171.5 684.7,170.3 "/>
<path id="D315" class="st0" d="M415.4,404.6 414.5,404.6 412.2,401.9 413.4,401.3 413.4,400.3 
	412.2,400.3 411.3,401.9 410,401.9 408.2,401.9 408.2,403.7 408.2,406.4 402.9,408.4 399.4,409.1 398.2,409.1 397.4,410 
	395.6,410.6 394.7,411.8 394.7,414.3 394.7,416 393.5,416 392.1,417.9 390,418.6 390,420.7 391.1,421.8 391.1,423.3 390,424 
	387.8,425.7 387.8,427 386.6,428.6 386.6,429.9 385.2,429.9 383.7,429.9 383,429.1 380.3,428.8 379.6,429.9 378.1,432 376.3,432.7 
	376.3,432.6 375.6,435.5 372.6,437.5 363.7,445 362.2,447.4 362.2,449.4 366.9,448.6 367.9,451.2 369,455 372.6,454.1 375.3,455.6 
	378.8,456.1 382.6,459.6 385,459.6 386.1,463.4 389.3,464.9 391.5,464.9 389.9,467.8 391.5,469.6 391.5,471.9 388.7,473.3 
	389.9,475.1 388.2,475.1 388.2,476.6 389,478.6 391.5,479.2 393.4,480.3 391.5,480.9 390.2,482.4 386.4,480.9 384.1,482.4 
	380.9,484.4 378.2,484.4 375.9,485.3 375.6,487.9 373.9,487.9 371.2,490.6 371.2,492.9 367.9,491.7 363.4,491.1 361,490.8 
	358.7,490.8 360.7,494.7 361.5,496.4 364.4,496.4 369,494.5 371,496.1 372.3,495.5 374.6,494.3 376.3,495.4 379.1,494.3 
	380.3,494.9 382.2,494.5 384.7,493.6 385.7,492.9 385.7,491.4 387.6,491.4 387.9,493.8 388.3,496.2 390.2,498.1 392.2,498 
	396.3,500.1 395.6,501.5 397.2,502.9 400,500.9 400.8,501.2 403.6,499.4 405.4,499.3 408.6,499.3 410.5,500.6 412.1,499.4 
	412.4,497.5 413.9,498.4 416.6,496.9 419.7,496.1 421,495.5 422,496 421.2,497.1 420.4,498.3 419.1,498.3 418.4,500.9 419.2,502.1 
	420,503.4 421.4,504.7 422.7,504.8 423.5,506.1 423.1,507.7 423.9,508.4 425.5,509.6 438.2,509.8 441.8,512 443.7,511.3 
	444.5,511.9 447.1,513.9 447.3,511.8 447.7,508.9 447.7,506.3 450.9,502.5 450.9,504 454.2,502.8 454.2,499.9 457.3,497.3 
	458.5,494.6 458.5,491.1 458.5,486.5 462,481.5 463.7,479.2 464.9,474.5 466.5,474.5 467.8,472.8 471.6,470.1 474.5,470.1 
	474.5,466.9 472.5,466.9 472.2,464.6 472.2,462 474.5,462 474.5,458.5 472.5,457 472.5,454.4 472.5,451.5 469.2,448.6 466,448.6 
	464.6,448.6 464.6,445.6 462.5,444.2 462.5,441.5 460.2,441.5 460.2,439.1 458.5,437.5 457.4,435.8 457,436.4 455.1,438.3 
	452.9,438.3 452.1,436.4 450,439.1 448.4,437.8 448.4,436.4 446.1,436.4 444,436.4 442.4,437.8 438.5,431.3 438.5,428.2 
	440.3,425.9 438.5,424.7 438.5,421.8 434.2,421.8 432.3,419.3 433.5,415.2 434.7,412.1 434.7,411 433.5,410 432.6,409.5 
	432.9,407.7 431,408 430.3,406.7 428.6,405.9 426.7,407.1 425.1,407.5 426.3,405.5 425.6,405.2 424,406.1 424,404.8 422.6,403.8 
	421.7,403.1 420.8,403.7 419.8,402.5 418.7,402.5 418.7,403.7 417.6,404.6 417.6,402.1 418.1,400.5 417.6,399.2 415.6,399.2 
	414.5,401.9 "/>
<path id="D302" class="st0" d="M123.5,347.3 120,348 117.8,349.5 113.9,349.2 113.9,347.3 
	112.4,346.5 106.6,346.5 105.2,346.3 104.5,348.3 104.5,349.8 102.4,350.9 98.7,351.7 97.4,350.4 95.5,350.4 93.2,349.4 90.9,349.8 
	86.9,351.7 84.2,351.7 81.9,351.7 77.9,351.7 77.9,354.9 77.9,355.9 80.2,357.2 81.9,357.2 80.6,359.9 77.9,362.8 79.6,363.7 
	81,363.7 80.4,366.2 78.9,366.2 80.4,367.9 81.9,367.9 81.5,371.4 80.6,373.7 80.2,375.2 77.9,375.2 74.7,377.3 74.7,378.2 
	76.6,377.5 77.5,378.8 79.8,379.2 79.8,380.5 81.5,380.5 81.5,379.2 84.3,378.2 84.3,380.5 97.3,377.3 98.1,375.2 99.8,374.1 
	102.4,372 104.7,372 106.2,372 108.7,373.1 108.7,375 110.2,375.2 116.6,372 117.8,373.5 119.2,373.5 120.2,377.8 122.8,379.5 
	121.9,382.9 120.2,382.9 120.2,387.5 124.7,385.1 123.9,383.3 127.5,382.2 126.4,380.5 128.3,379.5 130.2,380.5 133.4,382.7 
	130.2,385.1 131.9,388 133.6,388 133.6,385.1 139.2,383.3 140.5,381.4 144.1,380.5 145.6,380.5 147.5,379.5 148.5,380.5 146.6,382 
	148.5,383.5 147.5,385.6 149.4,385.6 149.4,386.5 151.5,386.5 152.6,383.7 155.3,380.5 158.3,382 159.4,382 162.4,382 164.3,382 
	165.8,383.7 169,386.4 168.1,382 170.2,382 171.5,382 173.2,384.1 174.3,387.1 174.3,389.7 174.3,390.7 176.8,389.7 179.4,389.7 
	181.1,389.7 181.1,389.6 183,386.3 184.1,384.4 184.1,382.9 185.6,380.5 187,378.6 189,378 189,375.2 189,373.5 189,371.4 
	187.7,370.1 185.3,369 183.9,369.5 182.6,368.6 180,368.8 177.9,366.5 174.9,366.5 174.3,364.1 172.5,363.1 172.2,362.9 
	170.2,362.2 168.1,362.4 163,361.6 162.6,359.7 160.5,358.7 159,360.3 158.5,358.7 156.4,358.7 155.1,357.3 152.6,356.7 149,356.7 
	144.3,356.7 143.2,354.6 141.9,354.6 141.7,352.4 140,349.7 140,347.3 137.7,344.4 136.3,343.6 135.3,343.1 132.6,344.8 
	129.8,346.1 126.6,346.9 "/>
<path id="D313" class="st0" d="M531.5,271.8l-4.2,1.6h-5.1l-5.7-5.4v0.2h-3.2h-3.2l-0.5-1
	c-1-1.8-1-1.9-1.5-1.5c-0.3,0.2-0.4,0.8-0.4,1.9c0,1.4-0.1,1.7-1.5,3.5l-1.5,2l-0.1-1.6l-0.1-1.6l-1.3-0.3c-1.5-0.4-1.6-0.3-2.4,1.6
	c-0.3,0.8-0.3,0.8-3.2,0.8h-2.9v2.1c0,1.8,0.1,2.3,0.7,3.2c0.5,0.7,0.9,1.9,1.2,3.3l0.5,2.3l-1.3,0.9c-0.7,0.5-1.5,0.9-1.7,0.9
	s-2.7-0.7-5.6-1.6l-5.3-1.6l-1-1.5c-0.6-0.8-1-1.7-1-2c0-0.9-3.8-1-9.6-0.3c-3.5,0.4-5.2,0.5-6.2,0.3c-1.8-0.4-4,0.1-5.5,1.2
	c-1,0.7-1.4,1.3-1.9,2.5c-0.6,1.6-0.6,1.6-2.3,2.1l-1.6,0.5l0.5,0.9l0.5,0.9l-0.6,1.4l-0.6,1.4l0.6,1.2l0.6,1.2l-0.7,1.3
	c-0.9,1.5-1.3,1.7-2.1,1.1c-0.5-0.5-0.6-0.5-0.5,3.2c0.1,3.5,0.1,3.7,0.6,3.8c0.4,0.1,0.9-0.4,1.9-1.6c0.7-0.9,1.4-1.7,1.6-1.7
	c0.1,0,0.5,0.5,0.8,1.1c0.5,0.9,0.8,1.1,1.5,1.1c0.5,0,1.3,0.1,1.8,0.3c0.7,0.2,1.1,0.2,2-0.2l1.2-0.5l0.8,0.9
	c0.9,1.1,1.6,1.1,4.3,0.2l1.7-0.6l0.8,0.8c0.4,0.4,0.9,0.8,1.1,0.8s0.8-0.6,1.3-1.2c0.6-0.7,0.9-1.2,0.8-1.2s-0.5-0.2-0.7-0.4
	c-0.5-0.3-0.4-0.4,0.8-1.1c0.7-0.4,1.7-1,2.2-1.3l0.9-0.5l0.6,1.1c0.5,1,0.7,1.1,1.6,1.1c0.8,0,1.2-0.2,2-1c0.8-0.9,1.1-1,2.3-1
	c1.3,0,1.4,0.1,2.3,1.2c0.6,0.8,0.9,1.5,0.9,2.1c0,1.4,0.3,1.8,1,1.1c0.5-0.5,0.6-0.5,1.3-0.1c0.8,0.4,0.8,0.4,1.4-0.7
	c0.5-0.9,0.9-1.2,2-1.5c0.8-0.2,2.2-0.4,3.2-0.4c1.5,0,2-0.1,3.3-0.8c1-0.6,1.8-0.8,2.7-0.8c1.1,0,1.3,0.1,2.3,1.5
	c0.7,0.9,1.3,2.1,1.6,3.1c0.4,1.5,0.4,1.8,0,3.3l-0.4,1.7l0.9,1c0.5,0.5,1.1,1.4,1.4,1.9s0.8,1.5,1.3,2.1c0.5,0.7,0.8,1.5,0.8,2.1
	s0.3,1.4,1,2.3l1,1.4v4.3c0,2.3,0.1,4.2,0.2,4.2c0.1-0.1,0.8-0.3,1.5-0.6l1.3-0.6l0.1-1.6l0.1-1.6l2.9,1.9c1.6,1.1,3.5,2.4,4.2,3
	l1.3,1.1v4.1v4.1l-1.1,1.1c-1,1-1.1,1.2-0.9,2c0.1,0.5,0.1,1.7,0,2.7c-0.2,1.5-0.4,2-1.1,2.9c-1.1,1.3-1.2,1.6-0.4,2.4
	c0.5,0.6,0.6,0.6,0.1,1.8c-0.4,1.1-0.5,1.1-1.4,1l-0.9-0.2v1.3c0,1-0.2,1.7-0.8,2.8c-0.7,1.2-0.8,1.8-0.8,3.1c0,2.9-0.5,5.9-1.3,7.1
	c-0.6,1.1-0.7,1.4-0.5,3.1c0.2,1.9,0.2,1.9-0.7,2.5c-0.5,0.3-1,1-1.3,1.4c-0.6,1.1-0.5,3.1,0.1,4.2c0.5,0.8,0.5,0.9,0.1,1.6
	c-0.4,0.6-0.4,0.7,0.2,1.3l0.6,0.7l-1.4,1.6c-0.8,0.9-1.4,1.8-1.4,2.1s0.3,1,0.7,1.5l0.7,0.9v7.4c0,6.3,0.1,7.6,0.5,8.8
	c0.8,2.2,1.6,1.7,3.7-2.7l0.9-1.8h1.5c1.5,0,1.6,0,2.2,1.1c0.4,0.6,0.9,1.1,1.1,1.1c0.7,0,2.9-2.2,3.8-3.8c0.7-1.3,0.9-1.5,1.8-1.5
	c1.5,0,1.9-0.2,2-1.3c0.2-0.9,0.3-0.9,1.7-1.2c1.2-0.2,1.6-0.5,2.2-1.3c0.7-1,0.7-1,0.3-2.2c-0.3-0.9-0.4-1.6-0.3-2.5
	c0.2-1.2,0.2-1.3-0.8-1.8c-0.5-0.3-1-0.6-1-0.6s0.2-0.7,0.4-1.5l0.4-1.5h-0.8c-0.4,0-0.8-0.1-0.8-0.1c0-0.1,0.5-1,1-2
	c0.8-1.5,1-2.1,1-3.1c0-1.1,0.1-1.4,0.7-2c1.2-1.1,1.8-2.9,1.6-4.5c-0.2-1.2-0.1-1.3,0.7-1.9c1-0.7,1.1-1.9,0.4-3.3
	c-0.5-0.8-0.5-0.8,0.4-1.8l0.9-0.9l-0.1-3l-0.1-3l1.8-1l1.8-1V349c0-1.1,0.3-2.3,0.8-3.9c0.8-2.2,0.9-2.3,1.8-2.5
	c0.8-0.1,1-0.4,1.4-1.5c0.6-1.5,1.5-2.9,2.8-4.1c0.5-0.5,1.1-1.4,1.2-2c0.3-1,0.5-1.2,1.1-1.2c0.7,0,0.8-0.1,0.8-1.1
	c0-0.6,0-1.1,0.1-1.1c0,0,0.7,0.2,1.5,0.4c1.4,0.4,1.6,0.3,3.1-0.2c1.3-0.5,1.6-0.7,1.6-1.2c0-0.7-0.9-0.9-3.6-0.9H551V328
	c0-1.4-0.1-1.7-1.2-3.3c-1.2-1.6-1.2-1.9-1.2-3.5v-1.8l1.5-0.8c2-1.1,2.1-1.7,0.1-2.4c-1.3-0.5-1.9-1-3.8-3.5
	c-0.3-0.4-0.2-0.8,0.5-2.6c0.5-1.2,1.2-3,1.5-4.1c0.6-2,0.6-2,0.1-3.4c-0.3-0.8-0.9-1.7-1.4-2.1s-1.5-1.4-2.2-2.2l-1.4-1.5l1.8-2.2
	c1-1.2,1.8-2.3,1.8-2.3c0-1.1-2-2.4-3.8-2.4c-0.8,0-0.9-0.1-2-2.9s-1.2-3.1-1.2-5.8v-2.9h-2.5h-2.5v-0.8v-0.8H533
	c-1.2,0-2.2-0.1-2.2-0.2s0.6-0.8,1.3-1.7c1.2-1.4,1.3-1.5,0.8-1.9c-0.3-0.2-0.7-0.5-1-0.6C531.6,272.1,531.5,271.9,531.5,271.8z"/>
<path id="D318" class="st0" d="M350.7,621c-1.1-1-1.3-1.3-1.3-3.1
	c0-1.9-0.1-2.1-1.2-2.5L347,615v-3.7v-3.7l1.9-1.3c1.8-1.2,2.1-1.6,5.1-7.9l3.1-6.6v-10.4V571l1.2-2.7c0.6-1.5,1.2-2.8,1.2-2.9
	c0-0.1-0.5-1-1.1-1.9c-0.8-1.2-1-1.8-0.8-2.2c0.2-0.3,0.4-2.5,0.4-5c0-4-0.1-4.4-0.8-4.9c-0.4-0.3-0.8-0.6-0.8-0.8s0.7-1.5,1.6-3
	c1-1.7,1.6-3.1,1.6-4c0-1.2,0.2-1.5,1.8-2.5l1.8-1.2v-2.5v-2.5l2.3-2.6c2.2-2.5,2.3-2.7,2.3-4.6c0-2.2,0.4-2.5,1.1-1
	c0.4,0.9,0.7,1,2.6,1c2.5,0,2.7,0.4,1.3,2.3l-0.8,1.1l0.9,1.2c0.8,1.1,1,1.2,3.2,1.2c2.4,0,3.1,0.6,1.3,1c-0.8,0.2-1,0.5-1,1.6
	c0,0.7-0.3,1.9-0.7,2.6c-0.5,0.9-0.7,2.6-0.8,5.7c-0.1,3.5-0.3,4.6-0.8,5s-0.6,0.6-0.1,1.5c0.3,0.6,0.9,1.1,1.2,1.2
	c0.6,0.2,0.7,0.7,0.7,3.2v3.1l1.5,0.2l1.5,0.2l-1.5,0.1l-1.5,0.1l0.3,2c0.2,1.8,0.5,2.2,2.1,3.6c1.7,1.5,3.7,2.5,5.3,2.5
	c0.5,0,0.7-0.3,0.7-0.9c0-0.9,1.1-2.2,1.9-2.2c0.2,0,0.9,0.7,1.4,1.6c0.5,0.9,1.2,1.6,1.4,1.6c0.7,0,0.4,1.8-0.4,2.6
	c-0.5,0.4-1.4,2.6-2.2,5.2c-0.8,2.5-1.8,5.2-2.3,6.1c-0.5,0.9-1.4,3.4-2,5.6c-1,3.6-1.2,4-2,4c-0.7,0-0.9,0.2-0.9,1.3
	c0,2.2-0.3,2.6-2,2.6c-1.2,0-1.7,0.2-2.3,1.1c-0.8,1.1-0.8,1.1-1.1,0.2c-0.3-1-0.1-1-1.8-0.3c-1.3,0.5-1.4,0.7-1.9,3.6
	c-0.4,2.2-0.4,3.2-0.1,3.7c0.5,0.9-0.5,4.2-1.4,4.6c-0.3,0.1-1.3-0.1-2.2-0.4c-1.5-0.6-1.7-0.6-3.3,0.1c-1.7,0.8-1.7,0.8-1.7,2.8
	c0,1.5-0.3,2.5-1,3.6c-0.5,0.9-1,2-1,2.4c0,0.6-0.2,0.9-0.7,0.9c-0.4,0-1,0.4-1.4,0.8c-0.5,0.6-1.2,0.8-2.4,0.8h-1.7v1.5
	c0,1-0.2,1.6-0.6,1.8C351.9,622.2,352.1,622.3,350.7,621L350.7,621z"/>
<path id="D840" class="st0" d="M395.3,341.3l-7.8,8.3l0.3,4.3c0,0,0,0.1-4.3,0.2c-0.6,0-1,0.2-1.4,0.6
	c-0.3,0.3-0.5,0.7-0.6,1.1c-0.2,0.8-0.1,1.6-0.1,1.6l1.1,1l4.5,10.3l0.8,1.8L387,371v0.8l1.1,0.5l1.3,0.6l-1.3,1.8h2l0.5,1l-2.5,1
	l0.5,0.8l2.4-0.3l-1.3,0.9l-1.1,0.8l0.9,1.4l-1.4,1.3l1.8,2.2l1.9-2.3l1.7-0.1l0.8,1.9l-2.4,1.3v0.9l1.1,0.9l0.6,1.1l2.2-0.6
	l0.8,1.3l2.7-1.3l0.9,1.4l-1.2,1l2.7,4.8l3.1,0.8l10.9-1.8l1.4,3.6l1.8,0.9l1.1,3.3l1.3,0.8l0.1,1.3l0.4,0.3l1,0.7l1.4,1v1.3
	l1.5-0.9l0.8,0.4l-1.3,1.9l1.7-0.4l1.9-1.1l1.7,0.8l0.8,1.3l1.9-0.3l-0.4,1.8l0.9,0.5l1.3,1v1.1v2.3h0.6l1-1.3l1.5,1.3l1.1-2
	l2.7,0.8h2.5l0.3-3.4l-0.3-1.7l2.5-2.2v-1.5l-0.8-2.4l0.3-2.4l-0.9-0.9v-3H444l-0.6-1.7l-1.7-1.4l-1.4-2.5l-1.1-0.8v-2.2l-1.3-3.1
	l-0.4-1.9h-1.4V381l-0.4-2l-0.1-1.4l-1.1-1l-0.9-1.9l-1.5-0.8l-0.4-1.8h-1.9H428l1.8-6l-2.3,0.8l-1.9-1.3h-2.1l-0.9-0.8h-1.1
	l-0.1-1.9l-1-0.8h-1.9l-1-1.7H416l-1.1-0.9h-1.5l-1.1-0.9l-1.4-0.6l-1.9,0.6l-0.3-1.6l1.4-0.6l1.4-0.8l0.8-2.4l-1.4-1.7l-1-1.3h-1.7
	l-1.4-0.5l-2.8-0.3l-2-0.4l-1.6,1.1l-1.4-0.5h-1.4h-1.9H394h-1.1l-0.6-1.8l0.8-0.5l1.8,1.1l1-0.6l0.5-1.3l-1-0.5v-1.8v-2
	L395.3,341.3L395.3,341.3z"/>
<path id="D312" class="st0" d="M581.2,249.9l-4.5,4.8l-6.6,1.6l-7.8,1.6l-12.9,3.5l-6.3,4.3l-7.2,1.7
	c-0.1,0.2-0.2,0.8-0.3,0.9c-1.2,0.7-2.3,1.6-2.7,2.3c-0.5,0.8-0.5,0.8,1.2,2c0.5,0.4,0.5,0.4-0.2,1.4l-0.8,1h1.4h1.4v1v1h2.4h2.4
	v3.2c0,3.1,0.1,3.4,1,5.8c0.9,2.2,1.1,2.6,1.7,2.6c0.4,0,1.3,0.3,2.1,0.7c1.3,0.6,1.5,0.8,2,1.9c0.6,1.5,0.6,1.4-1.6,4.2l-1.2,1.5
	l1.9,1.9c1.6,1.6,2.1,2.2,2.5,3.6l0.6,1.7l-0.6,2.1c-0.3,1.2-1,3-1.4,4l-0.8,1.9l1.1,1.3c0.8,1,1.5,1.4,2.8,1.9l1.7,0.6v1.4v1.4
	l-1.6,0.8c-1.4,0.7-1.6,0.9-1.7,1.8c-0.1,0.7,0.2,1.3,1.2,2.8s1.3,2.1,1.3,3v1.1h1.4h1.4l0.7-2.2l0.7-2.2l-0.8-1.7
	c-0.5-0.9-0.8-1.8-0.8-2s0.4-0.7,0.8-1.2c0.7-0.7,0.8-1,0.8-2.3v-1.5h1.2h1.2l0.6-1.7c0.8-2.3,2.4-4.4,4.2-5.4l1.4-0.8v-1.9v-1.9
	l2.9-1.4c1.6-0.8,3-1.4,3-1.4c0.1,0,0.1,2.6,0.2,5.9c0,4.9,0.1,6.1,0.5,7.3c0.5,1.4,0.5,1.4,1.8,1.5l1.3,0.1v-2v-2h1c1,0,1,0,1-1.2
	V309h1.7c1.6,0,1.7,0,1.7-0.7c0-0.5,0.5-1.3,1.7-2.5c0.9-1,1.7-1.9,1.7-2.1c0-0.1-0.4-0.8-0.9-1.5s-0.8-1.3-0.6-1.5
	c0.1-0.1,0.8-0.4,1.4-0.5c0.6-0.2,1.2-0.4,1.2-0.6c0-0.7-1-2.5-2-3.5L581,295l2.8-0.9c1.6-0.5,3.3-1.2,4-1.6
	c0.6-0.4,1.4-0.8,1.8-0.9l0.6-0.2l-1-1.6c-0.5-0.9-1-1.7-1-1.7c0-0.1,1.4-0.1,3-0.1h3v-1.5V285h1.2c1.2,0,1.2,0,1.2-0.8
	s1.5-3.3,2-3.3c0.1,0,0.8,0.3,1.5,0.6c1.3,0.6,1.3,0.6,1.3,2.1c0,1.4,0,1.5,0.7,1.5s0.7-0.1,0.7-1.7v-1.7l1.4,0.7l1.4,0.7l0.3-0.8
	c0.2-0.4,0.6-1.1,0.8-1.5c0.3-0.4,0.4-0.9,0.3-1.2c-0.1-0.4-0.3-0.3-1.2,0.4c-0.6,0.5-1.1,0.8-1.2,0.8c-0.3,0-1.9-2.5-1.9-3
	c0-0.4-0.2-0.6-0.5-0.6c-1.3,0-5.1-1.6-6-2.4l-0.9-0.9l0.5-1c0.3-0.5,0.5-1.5,0.5-2.1c0-1.2-0.6-1.8-3.2-3.4l-1.5-0.9l0.7-1.3
	l0.7-1.3l-0.8-0.6c-1.1-0.8-1-1.1,0.1-1.3c0.9-0.2,0.9-0.2,0.7-1s-0.4-1-1.7-2c-0.5-0.4-0.5-0.4,0-1.8l0.5-1.4l-0.8-1.5
	c-0.4-0.8-0.9-1.5-1-1.6s-0.9,0-1.7,0.2c-1.3,0.3-1.6,0.2-2.4-0.2c-0.9-0.4-0.9-0.4-1.9,0.1c-0.5,0.3-1.1,0.5-1.2,0.4
	C582.1,252.8,581.5,250.9,581.2,249.9z"/>
<path id="D321" class="st0" d="M244.4,305.9 245.8,307.7 244.4,310.1 246.4,313.9 244.4,316.1 
	244.4,318.2 242.9,319.6 241.7,323 241.7,325.8 237.1,327.9 238.5,333.3 232.4,333.3 232.4,335.7 232.4,338.9 230.4,340.9 
	228.9,339.8 226.9,341.5 229.5,344.4 228.6,347 226.9,348.2 228,349.5 228.9,352.6 228.6,356.4 226.9,357.3 224,356.7 221,353.5 
	219.8,353.2 217,353.2 214.5,354 210.8,354 205.5,352.1 203.6,352.1 200.4,352.1 197.4,353.4 196,354.4 192.5,354.4 190.3,353.3 
	187.3,354.4 185.7,356 184,358.7 181.3,359.6 180.1,357.8 180.1,359.6 178.1,359.6 172.5,363.1 174.3,364.1 174.9,366.5 
	177.9,366.5 180,368.8 182.6,368.6 183.9,369.5 185.3,369 187.7,370.1 189,371.4 189,373.5 189,375.2 189,378 187,378.6 
	185.6,380.5 184.1,382.9 184.1,384.4 183,386.3 181.1,389.6 182.2,390.7 181.7,392.8 179.3,392.8 179,395.8 177.6,397.8 
	178.7,397.8 180.2,397.8 183.1,395.8 186.6,394.3 186.9,396.3 184,397.8 184.9,399.8 189,398.1 191.9,396.6 195.4,394.9 
	199.2,395.8 201.5,394 203,396.3 200.9,398.4 200.3,401.6 198.6,405.1 200.3,406.5 200,410.3 202.1,411.8 205,411.8 207,410.3 
	207.9,408.9 210.2,408.3 218.1,396.9 222.8,397.8 228.9,395.2 231.2,397.2 233.9,395.5 237.7,394.3 240,393.7 241.2,393.4 
	242,390.7 235.6,392.5 235.3,390.7 238,390.7 242.3,384.7 237.7,386.1 240,383.5 240.6,381.2 244.1,378 245.2,375 247.3,373.6 
	246.4,371.8 249.6,372.1 252.8,372.1 253.7,373.6 252.5,376.8 253.7,379.4 255.2,381.2 253.4,383.5 250.5,383.2 250.5,384.7 
	256,388.8 258.4,388.5 261.3,384.1 264.2,383.5 264.2,380.3 264.2,373 265.7,368.3 268.6,366.9 268.5,366.9 258.4,363.1 254,360.5 
	249.6,358.7 249.6,353.2 252.5,350.8 260.7,346.5 261,343.1 263,340 264.8,341.8 267.1,343.1 271.8,343.1 272,343.1 272,340 
	272,334.2 273.8,334.2 275.9,332.2 275.9,329.8 275.9,325.8 274.4,324.4 273.5,323 272,323 270.3,318.5 269.5,315.8 270.3,313.9 
	272,313.9 272,311.5 272,310.1 271.9,305.6 269.4,305 263.7,310.1 261,310.1 255.8,302.7 252.9,305.5 252.9,303.5 251.5,301.2 
	252.5,297 251.5,296.1 249.6,297.2 249.6,299.4 246.4,301 246.4,302.7 246.4,305.6 "/>
<path id="D322" class="st0" d="M270.1,346 272.4,344.1 271.8,343.1 267.1,343.1 264.8,341.8 
	263,340 261,343.1 260.7,346.5 252.5,350.8 249.6,353.2 249.6,358.7 254,360.5 258.4,363.1 268.5,366.9 270.3,366.3 271.5,364.7 
	272.2,365.6 273.5,365.1 274.2,363.8 275.4,363.5 275.9,362.7 276.9,361.8 276.8,361 277.5,361.3 281.9,363.2 283,363.4 
	282.6,365.9 281.8,367.5 281.8,369.6 281.1,370.4 282.2,371.9 283.8,373.3 284.5,373.3 286.7,373.9 286.2,375.1 286.6,375.8 
	287.1,376.7 287.7,377.3 289.3,376.6 289.6,375.3 291.1,375.3 293.3,374.2 295.4,373.3 296.1,373.1 296.7,371.9 297.6,372.1 
	301.3,371.3 303.4,372.5 306.2,371.9 308.5,370.1 310.6,370.2 312.2,370.7 313.2,370.8 314.2,370.5 314.2,369.7 315.2,369.1 
	318.1,366.7 318.7,366.2 318.7,364.3 318.7,362.7 318.7,360.7 317.6,357.3 318.1,356.4 318.1,354 317.6,354 316.3,353.1 
	315.4,353.1 315.4,354 313.7,353.1 313.7,351.8 312.8,351.8 310.2,352.9 309,352.4 309,351 308.5,351 307.6,351 307.6,350.2 
	306.1,349.4 305.4,349.4 303.7,346.8 302.7,347.9 300.8,347.9 300.8,349 299.3,348.1 298.1,348.5 294.5,345.3 293.5,345.3 
	293.5,342.8 293.5,342.4 289.8,343.2 288.2,343 286.1,344.6 283.7,346.8 282.2,346.2 279.9,347.2 278.7,347.1 275.9,347.9 
	274.3,347.9 272.8,348.1 271.3,348.7 268.1,347.3 "/>
<path id="D314" class="st0" d="M464.4,302 463,300.3 460.9,301.1 458.6,300.3 457,300.5 
	455.8,298.5 453.3,301.6 452.1,301.6 450.9,300.9 450.9,301.4 448.7,301.4 446.8,301.4 445.2,303.3 447.3,304.7 449.7,304.7 
	450.9,307.7 451.1,310.1 449.7,310.1 447.8,307.7 445.2,306.1 443.3,305.6 442.3,306.4 442.3,309 440.9,310.1 440.9,307.7 
	440.9,306.1 438.5,307.7 435.9,307.7 438.3,305.9 440.7,304.5 442.6,302.1 439.7,301.6 435.9,304.2 434.3,303 431.9,305.6 
	429.8,307.7 428.6,305.4 426.4,304.2 423.4,304.2 421.9,305.2 421.9,307.7 418.4,310.1 418.4,312 418.4,313.2 423.4,312 
	424.8,310.1 428.1,310.1 426.4,312 424.6,313.2 426.7,313.2 428.1,314.9 431.2,312 431.9,313.2 429.8,316.2 432.1,316.2 
	429.9,317.9 428,317.9 425.8,319.1 429,319.1 430.4,319.1 428.7,320.1 427.1,320.8 426.1,321.8 424.4,321.8 422.5,321.8 
	423.4,319.8 422.1,318.9 420.6,320.4 418.9,320.8 417.3,320.5 415.6,321.8 414.1,321.8 413,322.7 411.3,324.5 410.2,323.5 
	407.5,324.5 406,323.6 405.3,324.5 404.2,325.1 402.7,326.1 403.7,327.7 404.8,326.8 405.2,325.7 406.3,326.5 407.5,325.9 
	408.5,326.9 407.5,327.7 406.9,329.4 406,330.2 407.1,330.2 408.1,329.7 409.3,330.2 410.4,331.1 410.5,332.6 410.3,333.9 
	408.4,334.7 407.7,335.7 406.7,334.8 404.7,336.2 404.4,338 403.9,339.1 402.7,339.1 401.5,338 400,337.7 400,336.4 399,336.4 
	398.2,336.8 398.2,337.8 398.2,339.1 397.2,340.4 395.3,341.3 395.3,342.4 395.3,344.5 395.3,346.2 396.3,346.7 395.8,348 
	394.8,348.7 393,347.5 392.2,348 392.9,349.8 394,349.8 395.3,349.8 397.2,349.8 398.6,349.8 400,350.3 401.6,349.2 403.7,349.5 
	406.5,349.8 407.9,350.3 409.5,350.3 410.5,351.6 411.9,353.2 411.2,355.7 409.8,356.4 408.4,357.1 408.6,358.7 410.5,358.1 
	411.9,358.7 413.1,359.6 414.6,359.6 415.8,360.5 417.3,360.5 418.3,362.1 420.2,362.1 421.2,362.9 421.4,364.8 422.5,364.8 
	423.4,365.6 425.6,365.6 427.5,366.9 429.8,366.1 428,372.1 429.8,372.1 431.7,372.1 432,373.9 433.6,374.6 434.5,376.5 
	435.6,377.5 435.7,378.9 436.1,381 436.1,382.5 437.5,382.5 437.9,384.4 439.2,387.5 439.2,389.6 440.3,390.4 441.7,392.9 
	443.4,394.3 444,396 445.4,396 445.4,398.5 446.3,399.4 446,401.9 446.8,404.3 446.8,405.8 444.3,408 444.5,409.6 444.3,413.1 
	441.7,413.1 439,412.3 437.9,414.3 436.4,413.1 435.4,414.3 434.7,414.3 434.7,412.1 433.5,415.2 432.3,419.3 434.2,421.8 
	438.5,421.8 438.5,424.7 440.3,425.9 438.5,428.2 438.5,431.3 442.4,437.8 444,436.4 446.1,436.4 448.4,436.4 448.4,437.8 
	450,439.1 452.1,436.4 452.9,438.3 455.1,438.3 457,436.4 457.4,435.8 458.4,434.5 460.3,435.5 463,433.2 465,430.2 466.3,428.2 
	468.1,426.5 469.8,425.3 472.4,425.7 472.6,424.1 474.5,424.1 476.6,422.6 478,421 479.4,419.3 479.4,417.9 481.9,417.3 
	483.1,415.2 482.5,412.5 484.4,411.5 486,409.2 488.9,407 491.8,405.5 492,402.8 494.1,400.6 497.2,400.6 498.8,398.7 500.9,397.9 
	503.5,397.1 501.9,395.6 500.2,391.5 499.6,389 501.5,388.8 502.9,387 506,386.4 507.4,385.6 507.4,384.1 509.1,382.5 509.2,381.4 
	509.3,380.2 510.6,378.3 511.8,377.1 510.6,376.1 511.6,374.6 510.6,372.6 510.6,370.5 511.4,368.3 513.2,367 512.8,363.5 
	514.4,360.8 514.7,357.6 514.7,353.6 516.5,350.5 516.7,347.3 518.6,347.5 519.2,346.2 518.2,345.2 518.2,343.8 520,341.7 
	520.4,339.4 520.2,336.3 522.3,333.9 522.3,331.2 522.3,329.1 522.3,326.7 520.6,325.2 517.9,323.2 515.1,321.5 515.1,323.8 
	512.2,325.2 512.2,326.9 510.6,326.5 508.7,325.4 510.6,324.4 510.6,323 510.6,320.9 510.6,318.9 510.6,316.2 508.9,313.9 
	508.9,312 507.4,309.8 506.4,307.7 504.2,305.7 505.2,302 504.4,299.3 502.3,296.6 500.6,296.6 497.8,298.1 494.3,298.1 
	491.6,298.9 490.1,301.6 488.5,300.7 486.9,302 486.2,300.3 486.2,298.5 484.6,296.6 482.5,296.6 480.7,298.5 479.4,298.5 
	477.8,298.5 476.8,296.6 474.1,298.1 476.1,299.1 474.3,299.9 472.6,302 471,302 469.8,300.7 467.1,301.6 "/>
<path id="D317" class="st0" d="M327,551.1 324.9,553.5 325.9,555.7 324.9,561 323.8,566.7 
	322,573.5 324.5,574.6 324.5,577.1 323.8,580.3 327,582.1 326.6,585.6 327.7,587.8 329.5,588.8 327,593.8 322,607.4 338.4,607.4 
	345.9,607.4 346.4,607 350.2,604.5 352.7,599.5 356.2,592 356.2,583.1 356.2,571.4 358.7,565.7 356.2,562.1 357.3,560.3 
	357.3,552.8 355.2,551.1 358.7,545 358.7,542.1 362.3,539.6 362.3,534.7 366.9,529.7 366.9,525.7 366.7,525.7 364.4,525.7 
	359.8,525.7 358.7,524.3 356.7,524.3 356.2,524.3 353.7,525.7 351.2,525.7 349.5,527.9 345.9,526.8 345.9,529.7 343,529 
	341.6,524.3 338.8,524.3 335.6,524.3 331.6,524.3 328.1,520.4 324.9,522.2 324.9,524.7 324.5,527.5 325.9,530.4 328.4,531.1 
	329.9,535.7 330.2,540.7 331.6,543.6 329.5,546.4 "/>
<path id="D300" class="st0" d="M101.6,317.7 103.3,319.2 104.5,320.9 104.5,322.3 106.6,321.1 
	107.7,322.3 106.4,324.6 110,324.6 111.3,325.9 113.4,326.3 112,323.9 110.9,321.8 110.9,320.7 109.9,319.3 110.1,317.7 
	111.5,317.7 111.5,316.1 109.9,315.5 109.7,314.4 111.8,314 112.8,312.6 112.9,312.1 113.6,309.6 116.6,308.1 116.8,303.3 
	114.7,304 114.3,302.9 111.5,302.3 109.4,303.5 106.5,303.1 107.6,301.4 104.6,299.8 105.7,297.4 104.2,296.6 104.4,295.1 
	103.8,294.3 106.3,294.3 108.4,292.7 109.4,292.7 109,295.8 110.7,296.4 113,296.6 116,295.3 117.8,296.2 117.8,298.3 119.7,298.3 
	119.7,296 121.2,296 121.4,297.7 123.1,297.2 123.1,295.8 124.3,295.6 124.3,296.6 125.8,296.8 125.8,295.1 126.9,292.7 
	126.9,291.1 125.2,288.2 125.8,284.9 125.8,283.6 122.7,279.8 121,277.5 121,275.2 119.9,272.5 119.9,270.8 121.4,269.3 
	120.8,267.2 122.9,263.8 123.1,263.4 111.1,254 108.6,254 104.2,254 102.3,256.1 102.3,258 97.1,261.3 92.9,259.7 89.1,259.7 
	86.4,261.8 85.1,263.4 83.6,266.6 83.6,271.2 74.7,274.2 66.6,276.5 62.6,276.5 57.2,277.7 57.2,276.9 49.6,276.9 44.8,274.4 
	44.8,279.6 46.5,281.7 44.8,283.4 45.7,285.1 46.3,287 44.8,288 43.3,289.3 44.4,290.7 46.1,290.7 45.9,292.2 45.2,293.7 
	46.2,294.4 46.9,294.9 43.3,296 44.8,297.4 44.8,299.5 43.3,300.8 44.4,302.1 43.3,303.7 43.3,305.4 43.3,306.9 43.3,309 44.4,309 
	44.6,310.9 44.6,312.3 43.3,313.6 43.3,315.3 41.7,316.3 43.3,317.7 40.8,317.7 39.6,319.1 40.6,319.1 42.5,319.1 43.3,320.3 
	41.9,321.4 39.6,321.4 39.6,322.6 38.3,322.6 38.3,324.9 37,322.8 35.6,324.9 33.5,325.8 33.5,327.9 32.3,329.5 33,329.9 
	35.5,331.3 38,330.3 40.3,331.3 41.8,332.4 44.5,331.3 46.8,328.4 48.1,328.4 49.4,326.5 51,326.5 52.7,328 56.5,326.5 59.6,326.5 
	60.7,326.5 59.6,328 60.9,328.4 63,327.6 64.5,329 63.2,330.9 65.3,332.6 73.1,328 77.7,326.5 79.4,326.5 80.8,326.5 84,324.8 
	84,323.6 86.9,321.7 88,323.4 88.2,325.7 87.1,328 87.5,329.5 88.6,329.3 90.1,328.2 92,328.8 92.8,330.5 93.8,329.3 95.5,327.2 
	97.4,326.5 96.8,323.6 97.2,321.7 98.9,321.7 98.9,319.4 "/>
<path id="D307" class="st0" d="M592.7,225.5 594.1,227 594.8,227.7 596,227 595.5,224.5 
	597.9,224.6 597.9,223.6 596.8,222.8 597.5,221.4 599.7,220.3 601.1,220.5 601.1,219.5 601.1,219 603,219.1 604.3,217.4 603.6,215 
	604.3,212.6 605.1,210.5 604.4,209.7 604.4,208 606.3,206.4 604.7,206.2 603,205.9 600.8,206.8 600.6,205.8 599.5,207.1 
	598.3,206.9 598.4,206.1 599.5,204.6 595.1,199.3 593.8,199.5 592.2,199.5 590.9,200.1 590.2,199.6 588,200.8 588.3,202.1 
	587.2,202.5 587.1,201.1 585.7,201.1 585.7,199.3 584.4,199.2 583.2,199.7 583.2,198.5 581.2,199.7 579.2,199.6 573.4,201.5 
	571.1,201.6 570.2,199.8 570.8,197.7 569.8,196.9 567.1,195.8 565,193.7 564,191.8 566.1,190.8 568.9,193.4 571.2,191.5 
	570.9,188.9 571.6,186.3 567.8,181.9 568,177.2 565.7,175.4 565.6,175.5 560.8,177.5 560.8,180 558,177.7 553,182.1 553,184.9 
	548.8,187.4 544.3,191.6 544.3,196.5 539.7,196.5 536.2,200 532.7,201.4 517.2,221.1 512.7,223.9 510.6,227.4 514.4,229.5 
	516.9,232.7 515.5,234.8 510.6,236.5 508.4,236.5 506.3,239.2 502.5,242.1 500.1,245.3 502.3,247.3 504.4,249.1 505.7,251.1 
	504.4,253.6 505.7,255.8 505.7,258.1 508.5,258.1 510.6,262.2 508.8,264 508.7,264.1 510.6,267.4 513,267.4 515.8,267.4 
	515.8,262.9 519,261.5 522.8,261.8 522.5,258 525.6,255.8 527.1,251.6 532.2,254.2 532.7,254.4 535.1,251.6 537.9,254.1 539.3,253 
	538.3,248.8 542.5,245 543.9,249.5 547.1,247.8 553,247.8 551.6,245.7 555.8,243.6 557.6,243.6 556.9,239.2 558.7,239.2 
	560.8,239.2 561.8,236.2 565.7,233.4 567.8,230.6 572,232 572,235.1 573.8,234.8 573.8,231.6 576.2,232 579.4,229.5 580.9,231 
	582.8,230.7 584.4,231.5 585.4,231.3 585.4,228.3 587.3,227.9 589.3,228 590.1,229.1 591.3,228.7 591.3,225.5 "/>
<path id="D837" class="st0" d="
	M544,265.6l6.3-4.3l12.9-3.5l7.8-1.6l6.6-1.6l4.5-4.8c-0.1-0.2-0.2-0.6-0.2-0.6c0-0.5,2.7-2.1,3.9-2.3c0.8-0.1,1-0.3,1.2-1
	c0.2-0.6,0.6-1.1,1.6-1.6c1.4-0.8,1.7-1.4,1.7-3.3c0-0.4,0.3-1.3,0.6-1.9c0.6-1,0.8-1.1,2.2-1.4c1.5-0.3,1.7-0.4,2.8-1.9
	c0.7-0.9,1.7-1.9,2.3-2.2c0.9-0.5,1.1-0.8,1.3-1.6c0.1-0.6,0.5-1.3,1-1.8c0.5-0.4,1.3-1.8,1.9-3.1l1.1-2.3l-1.1-1.8
	c-1-1.6-1.2-1.8-2-1.8l0,0c-0.5,0-1.3,0.3-1.8,0.6c-0.9,0.5-0.9,0.6-0.5,1.1c0.2,0.3,0.4,1,0.4,1.5c0,1,0,1-1.1,1h-1.1l0.2,1
	c0.1,0.6,0.2,1,0.2,1.1c0,0-0.5,0.3-1.1,0.7l-1.1,0.7l-1.1-1.3c-0.6-0.7-1.2-1.3-1.3-1.3s-0.2,0.7-0.2,1.5c0,1.5,0,1.5-1,1.9
	s-1,0.4-1.5-0.3s-1.3-0.9-2.6-0.5c-0.5,0.1-0.6,0.3-0.6,1.6c0,1.1-0.1,1.5-0.4,1.6c-0.7,0.3-1.9,0.2-2.4-0.2
	c-0.3-0.2-0.9-0.3-1.6-0.2c-0.9,0.1-1.2,0-1.7-0.5l-0.6-0.6l-1.4,1.1c-1.2,1-1.5,1.1-2.4,1l-1-0.2v1.5v1.5l-1.3,0.2
	c-0.7,0.1-1.4,0.3-1.6,0.3c-0.3,0.1-0.4-0.3-0.4-1.7l-0.1-1.9l-1.5-0.5l-1.5-0.5l-0.9,1.2c-0.5,0.7-1.8,1.9-2.8,2.6
	c-1.6,1.2-1.9,1.6-2.5,3l-0.6,1.6l-1.7,0.1l-1.7,0.1l0.2,1.6c0.1,0.9,0.3,1.9,0.3,2.2c0.1,0.6,0.1,0.6-1.1,0.6
	c-1.1,0-3.6,0.9-4.3,1.5c-0.1,0.1,0.2,0.6,0.6,1.2c0.4,0.6,0.7,1.2,0.7,1.3s-1.6,0.1-3.5,0.1h-3.5l-1.9,1c-1,0.6-1.9,1-2,0.9
	c0-0.1-0.4-1-0.7-2.2l-0.6-2l-1.5,1.5l-1.5,1.5l0.5,2.1l0.5,2.1l-0.6,0.5c-1.6,1.2-1.8,1.2-3,0.1c-1.3-1.3-1.6-0.9-5.9-0.6
	c-5.7-3.8-3.8,1.1-3.8,1.1c-0.5,1.6-0.7,1.9-2.1,2.8l-1.5,1l0.2,2.2l0.2,2.2l-0.9-0.2c-2.1-0.4-4-0.3-5.1,0.3l-1.2,0.6v2.3v2.2
	l5.7,5.4h5.1l4.2-1.6"/>
<path id="D304" class="st0" d="M351,316.2 348.9,315.1 348,313.1 348.2,311 347.2,307.7 
	347,307.7 339.3,309.7 339.7,310.1 336.2,311.8 333.2,314.7 331.1,317 328.4,317 326.5,317.9 326.5,319.6 323.1,322 322.1,320.7 
	318.7,320.4 315.8,323 313.5,325.5 311.6,329 310.3,329 310.3,331.3 310.3,331.7 307.9,331.7 307.2,335.1 305.5,335.1 303.4,340 
	300.7,340.8 299.8,338.7 296.9,340.8 295.8,340 293.5,342.8 293.5,345.3 294.5,345.3 298.1,348.5 299.3,348.1 300.8,349 
	300.8,347.9 302.7,347.9 303.7,346.8 305.4,349.4 306.1,349.4 307.6,350.2 307.6,351 308.5,351 309,351 309,352.4 310.2,352.9 
	312.8,351.8 313.7,351.8 313.7,353.1 315.4,354 315.4,353.1 316.3,353.1 317.6,354 318.1,354 318.1,356.4 317.6,357.3 318.7,360.7 
	318.7,362.7 318.7,364.3 318.7,366.2 318.1,366.7 324,367.2 326.5,368.3 329.1,367.8 329,367.7 333.3,365 334.4,365 335.8,363 
	338.4,361.7 340.8,361.2 341.7,358.7 343.7,357 347.3,358 348.8,356.8 347.8,353.5 348.7,350.3 350.1,348.7 348.8,346.1 
	349.5,344.1 348,343.2 347.3,342.3 347.7,340.8 349.5,340.8 351,339.6 353.8,339.5 356.3,339.5 359.3,339.4 362.6,338.2 
	363.8,336.3 365.6,334 366.3,331.1 366.3,330.1 367.9,327.8 367.3,327.1 365.5,327.1 365.2,326.5 364.3,326 362.8,327.4 360,326.9 
	358.1,325.7 357,326.1 355.6,327.7 354.3,326.4 350.6,327.5 350,326.3 350,323.1 350.1,319.9 351,317.7 "/>
<path id="D305" class="st0" d="M451.2,283.8l-1.6,2.6H447h-1.3l-1.8,3.4v3.4l-7,3l-3.6,3l-4.4,1.8
	l-3.1-3.4l-3.6,0.3h-4.9v-1.7l-3.1-1.1l-3.4-0.3l-1.8,1.4l-1.8,2.5l-2.6-1l-2.8,2.1h-3.4l-3.4,1.3l-2.6,2.8l-2.8-1.3v3.1l-2.3,2.1
	v1.2h-1.8h-1.3v-2.8h-2.3l-1.6,2.8h-2.1h-2.3h-3.4h-4.9v1.8l-3.1-1.3h-2.6l-4.1-0.3L355,312l-2.1-1.3v-3h-5.7l1,3.3l-0.1,2.2
	l0.9,1.9l2,1.2v1.5l-0.9,2.2l-0.1,3.2v3.2l0.6,1.3l3.7-1.1l1.3,1.3l1.4-1.5l1.1-0.4l1.9,1.1l2.8,0.5l1.5-1.4l0.9,0.5l0.3,0.6h1.8
	l0.6,0.6l-1.7,2.3v1l-0.6,2.9l-1.8,2.3l-1.3,1.9l-3.3,1.1l-2.9,0.1h-2.5l-2.8,0.1l-1.5,1.1h-1.8l-0.4,1.5l0.8,0.9l1.4,0.9l-0.6,2
	l1.3,2.5l-1.4,1.6l-0.9,3.2l1,3.3l-1.5,1.2l-0.8,0.7l-0.6,2.1l2,0.5l1.4,0.6v-1l1.3-1l1.7-1.9l1.3-1.5l1.3,1.1l0.6-1.1h2.2v1.7
	l1.3-0.5l0.9-1.9l1.1,0.8v2.3l-0.5,1.2l-0.6,1v1.9l1.1,0.5l1.7-0.3v-1.3l1.9-1l1.3,0.3l1.3,1v1.3l-0.5,0.8l2.5,1.5l0.5,1.7l-1.4,1.7
	l-0.9,1.7v1.7l1.1,0.4l0.3,1.1l-3.6,1.5l-0.4,1.9l-0.6,1.7l-0.6,1.1l1.9,1.4l1.5-0.8l1.1,0.6l1.3-1.9l1.5,0.6l0.9-1.3l2.4-0.8v-1.1
	l1.8,0.1V374l1.7-1.3l1.8,0.3l0.9,1l1.4,0.3l1.5-0.8l0.4-1.4l-0.6-0.5l-0.6-1.5l1.3-1l3.3-0.4l-4.5-10.3l-1.1-1c0,0-0.1-0.8,0.1-1.6
	c0.1-0.4,0.3-0.8,0.6-1.1c0.3-0.3,0.7-0.5,1.4-0.6c4.3-0.2,4.3-0.2,4.3-0.2l-0.3-4.3l7.8-8.3l1.9-0.9l1-1.3v-1.3v-1l0.8-0.4h1.1v1.3
	l1.5,0.3l1.1,1.1h1.3l0.5-1.1l0.3-1.8l2-1.4l1,0.9l0.6-1l1.9-0.8l0.3-1.3l-0.1-1.5l-1.1-0.9l-1.1-0.5l-1,0.5H406l0.9-0.8l0.6-1.8
	l1-0.8l-1-1l-1.1,0.6l-1.1-0.8l-0.4,1l-1.1,0.9l-1-1.5l1.5-1l1.1-0.6l0.6-0.9l1.5,0.9l2.7-1l1.1,1l1.7-1.8l1.1-0.9h1.5l1.7-1.3
	l1.7,0.3l1.7-0.4l1.5-1.5l1.3,0.9l-0.9,2h1.9h1.7l1-1l1.7-0.6l1.7-1H429h-3.2l2.2-1.3h1.9l2.3-1.6h-2.4l2.1-3l-0.7-1.2l-3.1,2.9
	l-1.4-1.7h-2.1l1.9-1.2l1.7-1.9h-3.3l-1.4,1.9l-5,1.2V312v-1.9l3.6-2.4v-2.6l1.5-1h3l2.1,1.2l1.2,2.3l2.1-2.1l2.4-2.6l1.7,1.2
	l3.8-2.6l2.8,0.5l-1.9,2.4l-2.4,1.4l-2.4,1.8h2.6l2.4-1.6v1.6v2.4l1.4-1.1v-2.6l0.9-0.7l1.9,0.5l2.6,1.6l1.9,2.4h1.4l-0.2-2.4
	l-1.2-3h-2.4l-2.1-1.4l1.7-1.9h1.9h2.1v-0.5v-4.7v-2.8v-1.7l2.1,1.7l1.2-1.9L453,289l1.2-2.7l-1.5-2.4L451.2,283.8L451.2,283.8z"/>
<path id="D323" class="st0" d="M208.6,322 206.6,323.6 207.5,325.5 209,327.1 211.4,325 
	211.8,328 212.9,330.5 210.7,330.5 211.3,332.6 209.3,333.7 209.1,335.3 209.7,337.2 207.4,338.8 205.6,337.9 204.5,339 
	204.5,340.6 207.2,340.6 207.2,343.1 205.6,343.1 203.3,344.5 204.2,346.8 205.8,346.8 207.7,347.9 208.8,349.5 207.4,350.3 
	206.6,352.1 205.5,352.1 210.8,354 214.5,354 217,353.2 219.8,353.2 221,353.5 224,356.7 226.9,357.3 228.6,356.4 228.9,352.6 
	228,349.5 226.9,348.2 228.6,347 229.5,344.4 226.9,341.5 228.9,339.8 230.4,340.9 232.4,338.9 232.4,335.7 232.4,333.3 
	238.5,333.3 237.1,327.9 241.7,325.8 241.7,323 242.9,319.6 244.4,318.2 244.4,316.1 246.4,313.9 244.4,310.1 245.8,307.7 
	244.4,305.9 246.4,305.6 246.4,302.7 246.4,301 249.6,299.4 249.6,297.2 249.4,297.3 248.6,295.5 244.6,295 242.8,298.6 
	240.7,298.8 237.4,295.6 231.3,297.8 226.5,298.1 224.3,299.5 222.8,303.3 219.3,304.9 217.7,304.3 216.7,301.5 218.8,294.1 
	218.1,293.4 213,293.3 210.6,289.6 209.1,288.9 209.1,288.9 208.8,291.5 207.2,294.1 210.2,293.3 211.6,293.3 210.6,295.2 
	208.8,296.4 207.4,297.2 208.6,298 211.6,298 214.5,298.6 214.5,301.2 211.8,301.9 210.7,303.4 208.1,304.8 208.1,307.6 210,308.7 
	211.6,310.1 209.8,311.9 209.3,313.9 207.9,313.9 207.7,316.3 206.1,317.7 207.2,320.2 "/>
<path id="D311" class="st0" d="M620.2,207.1v5.7l-1.2-1.2v-3.4l-2.9,2.9h-3.2l-1.7,0.5l-1.9,3.4v4.3
	l-4.6,5.9l-0.3-0.5l-2.2,5l-1.8,1.9l-0.3,1.9l-2.3,1.3l-2.5,3.2l-3.2,0.7l-1,1.8l-0.3,3.5l-2.8,1.6l-0.7,2h-1.8l-2.8,1.8l1,2.9
	l1.8-1l2,1l2.9-0.6l0.9,0.4l0.9,1.8l1,1.7l-1,2.7l1.8,1.3l0.7,2.6l-1.5,0.4l1.3,1l-1.3,2.5l2.2,1.3l1.5,1l0.9,1v2.2l-0.9,1.9
	l1.3,1.3l1.2,0.3l1.8,0.7l2.7,0.6v1.3l1.5,1.9l1.6-1.3l1.3-0.1v0.9l0.7,0.3l1,0.4v1.6l2.5-1.3h2.2l4.2-1.2l1.9-2.8l2.2-1l0.7-1.9
	l2,1V273h1.3v-1.8l2.3-2.2h1.8l-0.9-1.6h1.8l0.6-3.1V263l2.2-1v-1.9h1.6v-1.8l1.6-2l1.3-2.8l1.2-0.9l1.8-1.3h1.6l1.5-1l4.1-5.7
	l-2.2-2.1l-9.1,6.6l-7.2,1.7l-4.4-0.4l1.5-3.7l4.1-2.3l2.5-4.6l1.9-1.4l-1-6.9h-2.1h-1.2H630l1.5-3.4l-3.6-0.2l-4.6-3.2l3.2-2.5
	l-0.5-3l1.2-3.4l-1.5-2.9l0.2-2h-2.7v-3.8L620.2,207.1L620.2,207.1z"/>
<path id="D306" class="st0" d="
	M376.1,239.3l-1.6,3.1l0.5,2.6l-8,4.6h-4l-4.6-1.5l-4.9,1.5h-2.3l-1.8,2.6l-2.1-1l-1.5,3.6l-2.6-2.1l-1.9,0.9h0.4l-1.5,2.5v2.5
	l-1,1.1l1.2,3l-1.2,2.3l-1.5,1.3l0.8,2.1l-0.8,0.7v2.8l2,0.8l-2,1.5l1.1,1l-1.1,1v2.1v1l1,1h-1l1.3,2.8l-1.3,0.8l-0.1,0.1l0.9,1.4
	v2.9l-1.5,2.2l1.5,1.8l-1.5,0.9l-0.7,2.3l1.1,0.9l1.1,1.3h-2.2l1.1,1.5l1.8,1l1.8-1.5l0.6,0.9l-1.5,1.8h1.5v1.9l1.5,1.9v1.6h-2.9
	l-0.5,0.6L337,308l-0.7,1.6h2.6l0.4,0.4l7.7-2h0.2h5.7v3l2.1,1.3l3.1-2.8l4.1,0.3h2.6l3.1,1.3v-1.8h4.9h3.4h2.3h2.1l1.6-2.8h2.3v2.8
	h1.3h1.8v-1.2l2.3-2.1v-3.1l2.8,1.3l2.6-2.8l3.4-1.3h3.4l2.8-2.1l2.6,1l1.8-2.5l1.8-1.4l3.4,0.3l3.1,1.1v1.7h4.9l3.6-0.3l3.1,3.4
	l4.4-1.8l-8.9-15.6l-1.1-9.4l-0.8-7.2l1.9-6.1l-1.7-4.7l0.5-2.2l-4.3,2.3l-4.6-4.1l-6.7-2.1l0.3-3.1l-4.1-3.1l-4.9-1l-3.4-1.3
	l-6.2-2.3l-6.2,1.8L376.1,239.3z"/>
<path id="D838" class="st0" d="M80.2,357.2l-13.4,8.1l-1.2,2.2l-6.6,3.6l-4.6,6.8l-2.6,4.7l-5,1.2l-9,6.1
	v2.8l-1.3,2.7v1.3l0.8,1.3v2.5l1.5,3.1l-2.3,2.5v1.7l1.7,2.7h1.5l-1.5,2.7l2.3,1.7l0.8,2.1l1.3,0.6l0.2,4.4l-1.3,4l-0.2,3.6
	l-0.4,2.1l-2.7,1l1.7,3.1l-0.6,2.3l-1,1.5l1.3,2.5v1l1.3-0.8l1.3-1.7l0.8-2.5h1V435h-2l1.3-0.8v-2.1l4.2-1.9h3.1l2.1-0.8H55l0.8-2.3
	l2.3,0.8l1.9-2.1l0.2-1.5l-0.6-1.7l-1.7-1.3h-1.5l-2.1-2.3l-1.7-1.5h-1.1v-2.3l-1-1.7l-1.7-1.3l-0.4-1.9l-2.1-2.1v-1.9l2.9,1
	l1.9-2.1l2.3-2.7v-2.9v-2.3h1.1l1.5-2.5h2.3v-1l1.9-0.8l1.9-3.1l-1.9-1.5l1.7-1.5l1.9,1.5l1-1.9l1.7-1.9H68l1.3-1.5l1.5-1.3l1.3-1.7
	l2.7-1v-1v-0.9l3.1-2.1h2.3l0.4-1.5l0.8-2.3l0.4-3.6h-1.5l-1.5-1.7h1.5l0.6-2.5h-1.5l-1.7-0.8l2.7-2.9l1.3-2.7L80.2,357.2
	L80.2,357.2z"/>
<path id="D309" class="st0" d="M746.2,155.8 743.5,154.6 743.5,151.7 746,151.7 744.8,150.2 
	742.7,150.2 742.7,146.3 740.9,146.3 741.3,145.1 742.9,145.1 744.6,144.2 743.6,140.9 745.2,140.9 746.7,138.4 747.3,136.2 
	748.9,134.1 751,134.1 751,130.8 754.9,130.8 756.2,127.5 757.8,125.9 760.5,125 760.9,122.9 761.1,120.7 763.2,120.3 764.6,118.7 
	763.4,116.7 765,115.7 766.3,112.4 749.1,112.4 722.9,114.5 720.8,117.6 719.8,116.5 718.3,117.6 718.3,120.7 715.9,120.7 
	715.9,122.9 714.6,122.9 713,125 709.9,126.4 709.9,126.4 711.5,125.9 711.5,128.8 708.6,128.8 708.6,132.1 706.7,133.8 
	704.5,135.6 702.6,135.6 702.6,137.7 700.1,137.7 700.1,140.6 701.2,141.8 700.8,149.6 700.1,151.1 696.8,150.4 694.6,149.8 
	693.3,151.1 689.6,153.9 686.1,152.7 690.4,163.9 689,166.5 687.1,166.5 686.3,167.2 684.9,167.2 684.7,168.2 686.1,170 
	684.7,170.3 684,171.5 685.1,172.9 685.1,174.4 684.2,175.4 681.6,175.4 679.9,176.5 679.9,178.7 679.9,181.4 679.9,184.3 
	681.4,184.5 682.8,185.1 681.4,186.8 682.6,188.4 684.2,187.8 686.3,187.2 688.6,186.8 688.6,189.3 689.8,190.5 691.9,189.9 
	695.2,189.9 695.2,191.3 696.4,191.3 698.3,189.9 701,190.3 704.1,191.5 705.3,194 706.8,192.2 709.1,193 708.6,196.1 706.6,197.1 
	708.4,200 705.3,203.5 707.4,204.3 708.2,206 707,207.1 705.3,208.3 707.4,211.4 708.4,208.1 709.5,207.1 710.3,208.7 711.5,210.1 
	711.5,210.1 713,207.7 714.6,207.1 716.5,207.1 719.4,209.1 721.4,209.1 721.2,211.4 722.5,212.8 724.8,211.4 726.8,210.6 
	728.5,211.4 732,209.7 734.7,208.3 736.5,208.3 738.8,208.3 740.5,207.1 743.3,206.2 745.2,205.8 746,204.3 748.1,203.5 
	748.5,204.6 750.8,204.3 754.5,202.3 754.3,204.4 755.3,206.2 757,207.1 759.1,207.1 759.9,204.4 759.3,203.1 762.4,202.1 
	766.7,199.2 767.3,197.7 768.8,197.7 767.9,196.1 770,195.3 770,193.8 772.5,192.6 773.5,190.3 771.7,188.2 769.8,188.2 
	769.8,186.2 768.1,185.8 768.1,184.5 766.3,183.3 766.3,185.1 764.6,184.5 764.6,182.5 761.1,182.9 759.3,184.5 759.3,186.4 
	758,188.2 757.4,186.6 758,182.7 756.6,182.9 755.9,184.7 753.9,184.9 755.3,186.6 753.5,186.6 752.4,184.1 752.7,182.2 
	754.3,182.2 754.3,180 755.9,180 755.9,177.7 755.9,175.4 758.4,175.4 756.6,173.8 756.6,172.1 756,168.8 754.3,168.8 752.4,166.5 
	751,166.5 749.1,165.3 747.9,164.3 749.7,162.2 747.7,160.8 745.6,162.2 745.6,160.1 743.8,158.3 745.6,158.3 746.7,157.5 "/>
<path id="D326" class="st0" d="M337.6,278.2 337.6,276.1 338.8,275.1 337.6,274.1 339.6,272.6 
	337.6,271.8 337.6,269 338.4,268.4 337.6,266.2 339.1,264.9 340.3,262.6 339.1,259.7 340.1,258.5 340.1,256.1 341.5,253.6 
	341.2,253.6 339.7,253.6 334.7,253.6 334.3,256.5 331,257.5 328.7,255.7 321.4,258.5 317.3,258.8 313,258.7 312.5,257.9 
	310.2,259.7 310.5,261.6 305.1,264.3 300.5,264.3 297.6,262.9 296.6,262.9 294.5,260.8 294.6,259.7 293.3,258.7 285.9,254.4 
	285.1,255.4 281.7,255.1 278.6,260.2 277.1,262.3 273.5,264.3 271.3,264.3 271.3,265.9 267.9,267.5 266.4,268 265.1,268 263,268.7 
	263.6,268.6 264.7,271.6 264.7,273.8 265.2,276.1 266.6,278.4 267.4,280.3 268,283.2 267.2,284.4 268,285.2 268,287.8 266.5,288.9 
	268.7,290.6 267.9,290.6 268.7,292.2 266.7,292.8 268.7,294.1 267.3,296.1 268.7,296.1 268.7,297.3 269.3,297.3 268.7,298.8 
	270.5,299.6 270.5,301.3 271.3,302.5 271.9,304.8 273.6,305.6 276.3,302.8 279.9,301 281.2,301 283.5,300 286.4,299 288.4,297.4 
	291,296.4 293.8,296.4 296.3,297.7 298.2,296.9 301.4,297.4 303.8,298.4 305,300 305.6,302.8 305.6,306.6 307.4,307.7 310.4,307.7 
	310.9,306.1 311.7,301.7 309.7,299.7 307.6,299.7 306.4,298 305.6,295.1 306.4,293.8 307.9,290.5 310.9,288 316.1,286.1 
	319.9,285.1 322.4,285.4 324.7,286.4 327.1,292.1 328.6,293.8 331.2,292.8 333.5,288.9 335.5,285.7 337.5,283.8 337.6,283.8 
	338.9,283 337.6,280.2 338.6,280.2 337.6,279.2 "/>
<path id="D841" class="st0" d="M378.1,432
	l1.5-2.1l0.7-1.1l2.6,0.3l0.7,0.8h1.5h1.4v-1.4l1.2-1.5v-1.4l2.2-1.7l1.1-0.7v-1.5l-1.1-1.1v-2.1l2.1-0.7l1.4-1.9h1.2v-1.6v-2.5
	l0.8-1.2l1.8-0.6l0.8-1h1.2l3.5-0.7l5.3-1.9v-2.8v-1.7h1.8h1.4l0.8-1.6h1.2v1l-1.2,0.6l2.4,2.7h0.8l-0.8-2.7l1.1-2.7h1.9l0.6,1.2
	l-0.6,1.7v2.5l1.1-1v-1.1h1.1l1,1.1l0.9-0.6l-0.4-0.3l-0.1-1.3l-1.3-0.8l-1.1-3.3l-1.8-0.9l-1.4-3.6l-10.9,1.8l-3.1-0.8l-2.7-4.8
	l1.2-1l-0.9-1.4l-2.7,1.3l-0.8-1.3l-2.2,0.6l-0.6-1.1l-1.1-0.9v-0.9l2.4-1.3l-0.8-1.9l-1.7,0.1l-1.9,2.3l-1.8-2.2l1.4-1.3l-0.9-1.4
	l1.1-0.8l1.3-0.9l-2.4,0.3l-0.5-0.8l2.5-1l-0.5-1h-2l1.3-1.8l-1.3-0.6l-1.1-0.5v-0.8l0.8-0.5l-0.8-1.8l-3.3,0.4l-1.3,1l0.6,1.5
	l0.6,0.5l-0.4,1.4l-1.5,0.8l-1.4-0.3l-0.9-1l-1.8-0.3l-1.7,1.3v2.9l-1.8-0.1v1.1l-2.4,0.8l-0.9,1.3l-1.5-0.6l-1.3,1.9l-1.1-0.6
	l-1.5,0.8l-1.9-1.4l0.6-1.1l0.6-1.7l0.4-1.9l3.6-1.5l-0.3-1.1l-1.1-0.4v-1.7l0.9-1.7l1.4-1.7l-0.5-1.7l-2.5-1.5l0.5-0.8v-1l-1.3-1
	l-1.3-0.3l-1.9,1v1.3l-1.7,0.3l-1.1-0.5v-1.9l0.6-1l0.5-1.2v-2.3l-1.1-0.8l-0.9,1.9l-1.3,0.5v-1.7h-2.2l-0.6,1.1l-1.3-1.1l-1.3,1.5
	l-1.7,1.9l-1.3,1v1l-1.4-0.6l-2-0.5l0.6-2.1l0.8-0.7l-3.7-1l-1.9,1.6l-1,2.5l-2.4,0.6l-2.6,1.2l-1.4,2.1h-1.1l-4.3,2.6l0.1,0.2
	l0.6,2.2l-1.1,2.1l-2.1,2.4l-3.6,2.8l-2.6,2l-2.6,1.7l-1.9,2.4l0.7,0.7l-0.1,3.7l2.4,0.8l1.1-1.9h1.4l0.3,1.2h3l0.8,1.1l-1.1,1.7
	l-2.6,0.7l-2.9,2.4v3.5l-2,2.9l-1,1.9v2.6v2.5l1.4,2.2l0.1,2.5l-1.5,1.1l1.7,7.2l2.5-2.8l2.6-1.9l1.5-2.1l1.4,1h2.1h2.9l1.8-0.9
	l2.5-1.7l1,1h2.5l1.9-1.8l1.7-1.5l2.1-0.7l0.7,1.8l1.4-0.7l1.4,1v0.9h1.4l1.4,1.1l0.8,0.8l1.1,2.1l-1.1,0.4v1.1l3.2,1.9l3.3,7.2
	l1,0.1l3.3,0.6l1.1-0.4l1.1,0.6v4.7l0.8,1.8l2.2,0.7v1h2.6v-1.2h1.1c0,0,1.6-1,1.9-1c0-0.4,0.1-1.4,0.1-1.4l1.8-1.2l1.2-0.1l0.6,2.2
	v0.1L378.1,432z"/>
<text transform="matrix(1 0 0 1 214.4516 285.8434)" class="textName">Baksa</text>
<text transform="matrix(1 0 0 1 153.4014 348.65)" class="textName">Barpeta</text>
<text transform="matrix(1 0 0 1 429.4386 270.9107)" class="textName">Biswanath</text>
<text transform="matrix(1 0 0 1 188.9613 221.155)" class="textName">Bongaigaon</text>
<text transform="matrix(1 0 0 1 381.332 525.9841)" class="textName">Cachar</text>
<text transform="matrix(1 0 0 1 679.8837 251.6306)" class="textName">Charaideo</text>
<text transform="matrix(1 0 0 1 126.8647 263.7805)" class="textName">Chirang</text>
<text transform="matrix(1 0 0 1 276.7449 316.2466)" class="textName">Darrang</text>
<text transform="matrix(1 0 0 1 573.6479 180.5949)" class="textName">Dhemaji</text>
<text transform="matrix(1 0 0 1 36.5526 348.65)" class="textName">Dhubri</text>
<text transform="matrix(1 0 0 1 630.3828 203.0509)" class="textName">Dibrugarh</text>
<text transform="matrix(1 0 0 1 392.2159 457.7486)" class="textName">Dima Hasao</text>
<text transform="matrix(1 0 0 1 92.3403 367)" class="textName">Goalpara</text>
<text transform="matrix(1 0 0 1 485.9895 294.145)" class="textName">Golaghat</text>
<text transform="matrix(1 0 0 1 376.1826 611.3732)" class="textName">Hailakandi</text>
<text transform="matrix(1 0 0 1 398.2345 383.9736)" class="textName">Hojai</text>
<text transform="matrix(1 0 0 1 551.2249 281.6587)" class="textName">Jorhat</text>
<text transform="matrix(1 0 0 1 193.9116 372.2646)" class="textName">Kamrup</text>
<text transform="matrix(1 0 0 1 268.1138 384.9733)" class="textName">Kamrup</text>
<text transform="matrix(1 0 0 1 268.1138 399.3733)" class="textName">Metro</text>
<text transform="matrix(1 0 0 1 421.6716 349.462)" class="textName">Karbi Anglong</text>
<text transform="matrix(1 0 0 1 264.1139 541.7893)" class="textName">Karimganj</text>
<text transform="matrix(1 0 0 1 49.8995 312.0348)" class="textName">Kokrajhar</text>
<text transform="matrix(1 0 0 1 530.96 221.4346)" class="textName">Lakhimpur</text>
<text transform="matrix(1 0 0 1 446.817 203.0508)" class="textName">Majuli</text>
<text transform="matrix(1 0 0 1 336.2423 203.0508)" class="textName">Marigaon</text>
<text transform="matrix(1 0 0 1 359.1212 323.0205)" class="textName">Nagaon</text>
<text transform="matrix(1 0 0 1 238.8091 239.2502)" class="textName">Nalbari</text>
<text transform="matrix(1 0 0 1 630.3828 280.6587)" class="textName">Sivasagar</text>
<text transform="matrix(1 0 0 1 358.7012 277.2516)" class="textName">Sonitpur</text>
<text transform="matrix(1 0 0 1 50.4796 443.1929)" class="textName">South Salmara</text>
<text transform="matrix(1 0 0 1 50.4796 457.5929)" class="textName">Mancachar</text>
<text transform="matrix(1 0 0 1 696.1174 179.4391)" class="textName">Tinsukia</text>
<text transform="matrix(1 0 0 1 275.8689 280.2515)" class="textName">Udalguri</text>
<text transform="matrix(1 0 0 1 330.4141 393.5654)" class="textName">West Karbi</text>
<text transform="matrix(1 0 0 1 344.4141 407.9654)" class="textName">Anglong</text>
<line class="st0" x1="200.6" y1="223.7" x2="147.1" y2="310.9"/>
<line class="st0" x1="249.6" y1="244.2" x2="224.2" y2="323"/>
<line class="st0" x1="345.9" y1="212.6" x2="330.7" y2="333"/>
<line class="st0" x1="466.6" y1="212.6" x2="570.6" y2="244.9"/>
</svg>
