<?xml version="1.0" encoding="utf-8"?>
<!-- Generator: Adobe Illustrator 26.0.0, SVG Export Plug-In . SVG Version: 6.00 Build 0)  -->
<svg version="1.1" id="Layer_1" xmlns="http://www.w3.org/2000/svg" xmlns:xlink="http://www.w3.org/1999/xlink" x="0px" y="0px"
	 viewBox="0 0 800 730" style="enable-background:new 0 0 800 730;" xml:space="preserve">
<style type="text/css">
	.st0{stroke:#000000;stroke-miterlimit:10; cursor:pointer;}
	.textName{font-family:'Arial'; font-weight:bold; color:#000000; font-size:14px; cursor:pointer;}
</style>
<path id="D384" class="st0" d="M361.1,261.7l0.4-3.7l1.3-1.9l2.4-1.9l3.1-1.8l3.7-1l0.8,0.6l1.4-2l2.5-1.5l1-3.3l1.5-1l0.5-1.6
	l-2.7-1.6l2.2-1.5l1.3,0.9l1-1l0.8-2.2l3-3.9l1.3,0.3l1.1-1.1l3.1,0l2.3,2.5l1.8,0.8l3.1-0.1l3.5-2.4l2.3-0.3l3,3l0.6-1.1l-1.5-2.2
	l0.2-3.1l1-3.1l0.5-3l1.8-0.9l2.6,0.9l0.9-2.3l1.2-0.9l2.1,3.1l1.7,0.7l2.3,1.8l2.1-1.7l-1.3-3.2l1.8-0.8l3.8,0.9l2.5,0.2l0.6,1.2
	l4,2.2l1.3-1.5l0-4.2l1.7,0.7l0.2,2.4l1.3,1.6l1.2-1.8l-0.9-1.1l0.3-3.4l-2.8-0.9l-1.4-5.1l-3-3.2l0.2-1.5l1.8-2.1l4.6-3.1l2.1,1.3
	l2.8,0l0.3-0.9l3,0.3l-1.1-2l-1-0.3l-0.8-2.3l0.3-1.7l-0.7-2l0-4.8l-1.3-4.7l0.9-3.6l1.9-0.5l0.3-1.8l1.7,0.5l2.4,1.5l1.9-2.2
	l3.4,0.1l1.9,0.4l1.7-1.3l1.8,0.3l2.1-3.3l1-2.8l2.3-2.7l1-5l-2.7-4.9l-4.5-1l0.5-1.6l2.4-2.3l1.6-0.5l0.4-2.8l-1.2-1.6l1.2-1.3
	l1.1,0.3l0.8-2l4.1-0.3l2,5.5l0.2,2.5l1.2,2.3l1.6,1.4l-0.8,0.9l0.8,2.3l1.2,1.6l-0.4,4.1l1.7,0.5l1.3,3.8l0.5,4.2l-1,2.2l-1.4,1
	l-1.4,2.1l-3.5-1.3l0.7,4.1l3.3,1.9l0.2,2.8l2.6,1.8l1.5,3.5l-0.7,1.2l-0.9,4l-1.5-0.7l-0.8,1.6l-3.4,3.7l-0.5,2.6l1.5,1.4l1.4-1.5
	l1.4,1.8l3.2,1l2.9,2.5l1.6,3.7l0,2.5l1.3,2.1l-1.2,2.2l-3.6,0.2l-1.7-1.1l-1.6,2.3l-2.2-2.4l-3.6,1l-0.9,4.4l-1.8,2.4l0.7,1.5
	l-1,1.9l-1,4.4l-1.4-0.1l-2.8-1.2l-1.7,0.7l-1.3,3.3l0.6,1.3l3.1,1.3l3.2,2.7l3,3.4l0.8,2l-2.1,3l0.3,4.5l-0.6,3.3l0.3,1.1l1.7,0.8
	l-1,1.3l0.9,2.5l-0.2,3.8l-0.4,1.1l0.1,5.4l-2.1,1l-3.6,0.3l-0.7,0.9l1,1.9l0.1,2.2l0.7,1l-1,1.9l-0.2,2.6l-0.7,1.5l-0.2,4.6
	l-2.7,2.4l-0.9-2.1l1.2-3.7l-1.5-1.1l-0.9-2.2l-1.4-1l-0.6,2.7l-1.7,2.6l-0.6,1.6l1.4,4.4l1,1.9l-0.8,3.6l-1.1,0.9l-3-0.3l-0.5,2.1
	l-1.2,2.3l-2.2,0.7l-0.9-0.9l-2.5-0.7l-3,0.9l-1.1,1.6l-2.6-0.4l-1.7-1.1l-5.9,0.1l-0.3,1.7l-1.6,1.6l-0.6,1.6l-1.7,2.3l-1.1,0.4
	l-2.9-4.7l-3.4-3.1l-1.8-3.1l-1.6-1l-3.3-1.3l-2.5,0.9l-8.2-1.9l-3.5-3.7l-1.9-3.6l-1.9-1.9l-4-1.6l-2.6-2.6l-6.1-4.1l-3.4,0.3
	l-6-3.1l-1.6-2.8l0.3-2.5l0.1-4.2l-1.1-2.2l-3.7-3.2L361.1,261.7z"/>
<path id="D393" class="st0" d="M201.6,368.3l-1.3-1.1l0.6-2.3l1.5,0.2l1.9-1.4l1.5-5.7l-0.9-0.6l0.9-4.6l-1.3-2.5l-2,1l-1.3-0.8
	l-0.7-1.3l0.9-1.7l0.1-2.2l1.6,0.2l0.1,2.1l1.6,1.4l0.2-5.9l-1.5,0l-3-2.6l-0.6,1.8l0.6,2.1l-1,1.1l-1.4-0.8l0.1-3l2.4-2.6l0.2-2.8
	l-1.2-0.1l-1.2,1.9l-1.2,0.3l-0.5,1.5l-1.7,0.7l-2.2-1.1l-2.8,0.7l-0.3-1.4l1.7-2.5l-3.7-5.8l0.4-2.1l-1.7-1.9l0.6-3.4l0.7-0.5
	l1.1-3.5l0.4-6.1l0.5-4.3l1.6-1.6l0.3-2.4l1.1-3.7l-1.2-1.2l0.1-2.9L190,293l-2.7-0.8l-0.1-3l0.8-3.6l1-0.7l2.8,0.8l1.2-7l1.7-1.2
	l1.3-3.8l3.1-4.5l1.5-1.2l1.9-2.8l2.8-2.1l3.4-4.7l2.7,0.6l1.6,2.7l1.7,0l1.1-1.5l1.5,0.1l1.7,4.3l-0.1,1.8l1.1,0.9l2.3-1.7l1.3,0.5
	l7.2-0.5l1.5-2.2l1.9,1.8l1.2,0l1.7-2.9l2-0.5l3.1-1.8l2.9-4.3l1.3-0.5l2.4,1.7l0,3l2.1,2.8l0.2,1.8l1.1,3.3l0.7-1.4l1.3,0.4
	l2.1-1.9l0.9-2.4l1-0.3l1.2,1.2l4.7-1.7l2.2-1.1l0.4-2l-2.1-2.5l-1.5-2.5l0.1-2.1l0.9-2l-0.7-3.3l-2.1-1.8l-0.8,0.3l-2.7,2.9
	l-2.5-2.4l-1.7-2.2l2.5-3.5l0.5-2.4l2.2-0.5l1.5-1.6l2.5,0.9l1.5-0.9l1.5,1.5l0.1,1.8l2.1,2.3l1-0.5l0.7-1.7l1.8-1.2l-1,5.3l2.2,3.2
	l2,0.1l2.2,2.1l2.6-0.3l4.7,1.5l2.5-0.9l3.1-0.6l1.8,0.8l-0.6,2l-1.8,2.9l-0.3,1.6l0.4,4.8l-1.9,1.6l-2.7,2.9l-0.5,3.9l4.9,2.2
	l0.5,2.4l-3-0.9l0.2,3.1l2-0.3l2.1,1l0.2,3.7l1.4-0.4l1,0.7l-0.7,2l0.7,1.5l2.1,0.6l-0.8,2.3l-0.1,2.2l-1.7,3.3l-1.4,1.3l-0.3,2.1
	l-0.8,1.2l0,2l-0.8,2l-2.9,4l0.8,4.5l-0.8,3.4l0.3,2.2l0.9,0.8l-2,0.5l-0.8,1.2l-0.1,2.1l-0.8,2.9l1.4-0.2l3.8,4l0.3,1.4l4,2.5
	l0.9,1.4l-0.9,1.4l0.2,1.4l-0.9,2.1l0.4,2.8l-2.9,0.2l-0.5,2.6l-3.5-1.8l-2-0.7l-0.4-3.1l-2.4-2l-0.6,0.5l-2.3-1.1l-0.5-1.1
	l-3.1-0.4l0.6-2.7l-0.2-2l-0.8-1l-3.2,3.6l-1,1.5l-2.9,2.3l-1.2,4.6l-2.9,4.1l-2.2,1.1l-0.6,3.3l-1.8-0.3l-2.1,1.3l-2.7,0.7
	l-1.7,3.3l-1.7,1.6l-2.9,1.4l-0.8,2.1l0.5,2.3l-1.5,3.7l-2.5,1.6l-0.9,1.9l-1.3,1.2l-4.2,0.4l-1.9-3.5l-2.9,0.4l-1.2-1.1l-1.1,1.1
	l-2.4,1l-0.9-0.3l-4.2,2.4l-3.3-0.5l-1.6-0.8l-2.5,0.8l-1.5-0.9l-2,1.9l-0.3,2.7l-1.1-0.1l-1.9-1.4l-3.4-0.5l-1.5-0.7L201.6,368.3z"
	/>
<path id="D377" class="st0" d="M674.3,117.8l0.2-3.8l-0.7-0.9l0.5-2.3l0.9-1.2l1.6-0.7l2.8,0.1l2.1-2.1l0.1-4.2l1.6-0.6l2.2,1.9
	l1.6-0.6l2.8,0.4l0.1,3l1.8,1.9l-1.4,2.1l-0.5,1.7l1.4,3.5l-0.3,2.3l1.2,1.8l2.8,6.6l1.3-0.9l0.7,1.6l2.1,1.3l3.8,0l0.6,1.3l1.8,1.6
	l1.9-0.6l0.5,1.2l3.3-0.5l2.1,0.7l-0.1,4.7l1.2-0.1l1.8,3.3l-0.3,4.4l-1.1,4.8l1-0.1l1.6,2.9l-0.1,2.7l-1.9,0.2l-0.9,1.4l-4.9,4.5
	l-0.8,1.5l-1.9-1.3l-0.4,2.4l-5.5-0.8l-3.3-0.2l-6.9,0.5l-3.7,0.8l-5.8,2.9l-2.8,2l-1.7,0.7l-3.1,4.1l-2.4,2.5l-1.2,0.3l-3,3.3
	l-3.3,2.8l-1.9,2.2l-3.5,4.7l-4.3,6.8l-1.7,1.7l-1,3.2l-1.7,2.7l-2.5,5.8l-0.1,2.5l-0.8,2.1l-1,0.6l-1.1-1l-0.6-1.8l-1.5-0.7
	l-2.2,1.2l-1.4-0.2l-0.4,2.3l-1,1.5l0.4,4.1l-1.9-1.3l-1.9,0.5l-2.2-1l-1.8,2.4l-1.9-0.2l-1,1.5l0.1,2.5l-1.2,1.8l0.3,1.3l-0.4,2.4
	l1.4,1l-0.5,1.9l-1.9,0.2l0.5,2.2l-1.6,0.6l-0.9-1.8l0.4-2.2l-2.6-1.3l-1.6,0.4l-0.2-1.9l-0.9-1.1l-2.5-4.6l0-1l-2.5-0.8l-0.9,0.6
	l-2.2,2.8L604,222l-1.3,0.8l-1.8-0.9l0.8-1.4l-0.1-1.7l0.8-2.9l-0.9-0.8l-0.3-2.1l-1.4-0.3l-0.5,1.9l-1.4-1.4l-3.2-1.1l-0.9-1.7
	l0.2-3.3l-0.9-0.6l-0.9-3.3l0.4-2l2.4-1.3l1.4-1.6l3.5-1.8l0.9-1l0.5-2l2.6-2.4l2.2-1.1l1.7-2l4-5.7l2.5-5.5l1.3-4.2l1.7-4l1.5,0.6
	l2.4-0.9l1-1.4l1.2-0.3l0.2-2l1.1-2.6l0.1-2.1l1.4,0.3l2.5-2.5l0.7,1.3l1.3,0.1l1.1-1.7l2.3-0.4l1.9-1l1.2,0.6l3.1,0.5l2.2-1.3
	l3.2,1l0.8-0.7l1.8,1.2l1.7-1.7l-0.3-1.5l1.4-0.6l1.3,1.9l1.9,4.3l1-1l2.6,2.1l1.4-1.3l3.9-1.9l0-3.9l1.3-1.6l0.1-2.4l-2.4-0.5
	l-0.1-2.3l1.1-1.2l2.6,0.5l0.9,1.5l1.2-2.3l1.2-0.9l-1.7-1.8l0-3.4l-0.8-0.2l-0.5-3.1l2.3,0.2l-0.4,3.2l1.1,1.5l1.9,0.1l2.1-3.7
	l1.2-2.9l2.2-0.3l-2-2.9l1-1.9l2.1,2.5l1.6,0.9l1.5-0.7l1.3-3.6l-0.2-1.9l1-1l-5.4-3.7l-1-2.3l-1.6-0.6L674.3,117.8z"/>
<path id="D370" class="st0" d="M188.1,285.6l-1.3-0.5l-0.1-1.5l0.8-2l-0.7-3l-0.5-7.1l0.3-1.7l-0.4-7.6l1.2-2.7l0.5-5.7l-1.3-4.7
	l0.5-7.3l-1.2-2.1l-1-3.6l-1.4-2.4l-1.6-0.7l-0.9-1.3l1.5-2.2l-0.6-2.2l0.9-1.2l-1.5-1.7l0.2-1.9l2.9-0.2l2.5-1.1l1.8,0.7l2.3-0.8
	l4,0.1l2.7,2.6l3.4-2.6l3-0.7l0.7,0.8l3.6,1.3l2.6-2l2.2,0.7l2.3-0.7l1.5-1.8l1,2.9l1.6-0.3l3.4,1.8l2.1,2.1l1.2,1.8l2.1,0.4
	l1.3,1.2l2.6,0.6l1.4-0.5l1.3,1l1.6-0.6l3-3.9l1.7,0.1l1.8-1.3l0.1-2.7l0.6-2.4l1.3-2.5l-0.4-1.5l1.3-3.3l-0.5-4l1.2-2.4l0.8,0.2
	l1.2-1.6l1.6,0.1l1.1,1l0.8-2.5l-0.2-1.5l-1.5-0.9l-0.4-4.4l1.2-2l0.5-2l-0.1-2.3l4.4,1.5l7.2,3.6l1.5,0.2l1.6-1.4l-0.9-1.9l0-5.6
	l-1.4-1.5l-1.2-3.9l-2.2-1.2l-0.8-3.1l-0.1-3l-0.8-1.5l1.2-1.9l0.9-4l1.3-2.1l-0.4-3.4l0.6-3.6l1.4-2.3l3.6-3.5l3.1-1.9l0,4.6
	l0.8,1.5l1.6,0.4l0.8-3.1l1.6,0.2l-0.2-2.1l2.2-2l1.9-2.4l1.2-2.8l0.8-5l1.7-2.5l4.3,1.2l2.8,1.2l3.6,1l1.2,1.1l3.1,1.7l1.2,1.9
	l0.7,3.3l1.3,3.2l0.4,2.1l7.3,8.4l0.8,1.1l1.7,3.9l2.1,1.5l1.4,0.4l2.9,7.6l0.5,3.1l1,2.3l-0.3,1.7l-3.8,1.7l0.2,1.7l2.3,1.1l0.9,1
	l0.2,6l-0.6,3.9l-0.7,1.9l0.7,2.5l1.5-0.4l0,2.3l2.4,5.2l-0.1,2.9l-1.8,7.1l-0.9,0.2l-1.5,2.8l-2.4,7.6l-0.8,1.3l-2-0.6l-3-2.2
	l-1.4-2.8l-0.5-2.9l-1.3-0.1l-0.7,1.6l-1.7,0.5l-3.4,2.9l-1.3-0.2L297,228l-0.8-1.1l-2.9-0.8l-4.6,0.1l-1.6,2.7l-5.3,5l-2.3,1
	l-1.8,1.4l-2-0.2l0.3,2.7l-0.8,0.3l-3-2.7l-0.7,0.7l-1.8,1.2l-0.7,1.7l-1,0.5l-2.1-2.3l-0.1-1.8l-1.5-1.5l-1.5,0.9l-2.5-0.9
	l-1.5,1.6l-2.2,0.5l-0.5,2.4l-2.5,3.5l1.7,2.2l2.5,2.4l2.7-2.9l0.8-0.3l2.1,1.8l0.7,3.3l-0.9,2l-0.1,2.1l1.5,2.5l2.1,2.5l-0.4,2
	l-2.2,1.1l-4.7,1.7l-1.2-1.2l-1,0.3l-0.9,2.4l-2.1,1.9l-1.3-0.4l-0.7,1.4l-1.1-3.3l-0.2-1.8l-2.1-2.8l0-3l-2.4-1.7l-1.3,0.5
	l-2.9,4.3l-3.1,1.8l-2,0.5l-1.7,2.9l-1.2,0l-1.9-1.8l-1.5,2.2l-7.2,0.5l-1.3-0.5l-2.3,1.7l-1.1-0.9l0.1-1.8l-1.7-4.3l-1.5-0.1
	l-1.1,1.5l-1.7,0l-1.6-2.7l-2.7-0.6l-3.4,4.7l-2.8,2.1l-1.9,2.8l-1.5,1.2l-3.1,4.5l-1.3,3.8l-1.7,1.2l-1.2,7l-2.8-0.8L188.1,285.6z"
	/>
<path id="D378" class="st0" d="M665.7,273.7l-1.3-1.4l-0.4-2.4l2,0.8L665.7,273.7z M643.5,285.2l-0.8,0.1l-3.2-2l-1.7,1.2l-1.3-1.8
	l0.8-2.5l-1.2-1.2l-2,0.3l-0.6,0.9l-1.8,0.3l-0.1-1.7l-3.2-1.9l-1.9-0.5l-1.5-1.1l-1.1,1.1l-1.8-0.8l-1-0.1l-0.6-4.6l-0.8-0.2
	l-0.8-3.9l-3-1.3l-2.3,0.4l-3.5-1.3l-2.3,0.5l-1.4,1.7l-1.5-0.7l-0.9,1.9l-1,0.5l-2.5-0.7l-0.7-1.1l-3.3-1.3l-2.5,0.8l-1.4,1
	l-3.2-1.8l0.6-2l-1.4,0l-1-2.5l-3.4-1.6l-0.3-2.4l1-3.2l0.2-3.7l-0.5-1.3l0.4-3.5l-0.1-2.5l1.6,0.4l1-3.8l0.3-2.3l1.2-0.4l-1.1-3.2
	l-1.1-1l-0.1-2.2l0.6-1.3l-1.8-1.1l-2.1-4.7l1.9-3.7l2.4,0.7l0.9-1.5l2,0.2l1.1-1.8l0.6-2.7l-0.3-3.6l2-0.6l0.9,1.7l3.2,1.1l1.4,1.4
	l0.5-1.9l1.4,0.3l0.3,2.1l0.9,0.8l-0.8,2.9l0.1,1.7l-0.8,1.4l1.8,0.9l1.3-0.8l5.3,3.2l2.2-2.8l0.9-0.6l2.5,0.8l0,1l2.5,4.6l0.9,1.1
	l0.2,1.9l1.6-0.4l2.6,1.3l-0.4,2.2l0.9,1.8l1.6-0.6l-0.5-2.2l1.9-0.2l0.5-1.9l-1.4-1l0.4-2.4l-0.3-1.3l1.2-1.8l-0.1-2.5l1-1.5
	l1.9,0.2l1.8-2.4l2.2,1l1.9-0.5l1.9,1.3l-0.4-4.1l1-1.5l0.4-2.3l1.4,0.2l2.2-1.2l1.5,0.7l0.6,1.8l1.1,1l-0.6,1.5l0.5,2.3l-0.4,5.6
	l2.2,7.8l1.6,4.4l3.4,5.7l1.1,2.7l1.3,4.8l0,1.4l3.1,8.1l0.6,2.2l1.6,3.2l1.2,5.3l-0.6,4.5l-0.7,1.8l-2.1-0.8l-2.2-0.1l-4.2-1
	l-2,0.9l-3.1,2.2l-1.9,2.4L643.5,285.2z"/>
<path id="D391" class="st0" d="M419.3,307.2l0.2,3.1l-1.6,1.8l-0.5,1.9l-1.4,0.5l-2.2-1.2l-2.7,2.2l-0.9,2.6l-1.4,1.3l-0.7,4.3
	l-0.2,4l-3.1,2.5l-1.8,0.1l-2.8-1.4l-1.8,1.8l-1.2-0.4l-3.7,1.8l-1.1-1.5l-1.3,1.5l-2.4,0.9l-0.6,1.2l-1.7,0.2l-1.1,1.5l-2-0.8
	l-0.9-1.5l-0.3-4l0.8-1.8l-1.1-3.9l-0.6,0.1l-2.5-3.1l0.9-3l-1.4-1.7l-3.3-1.6l-1-3.7l0.1-4.2l-0.5-1.6l0.6-1l-1.6-5.3l0.4-1
	l-1.6-3.6l-1.9-0.8l-0.9-2.1l-1.7-0.8l-2.9,1l-1.6,2l0.5,4.7l-0.9,0.3l-2.1,5.2l-3.8,2.7l-3.6-0.5l-1.2-2l-2.6,1.7l-1,1.4l-1.2-0.9
	l-1.8,0.3l-1.6-1.7l-2.1,1.1l-1.1-0.9l-2,0.4l-4.4,3.6l-2.2-0.2l-2.6-2.1l-2.5,0.8l-1.7-1.2l0.4-2.1l-1.5-1.1l-1,1.7l-0.4,3.1
	l-4.3-0.1l-1.6,1l-1.7,4.1l-1.4-0.4l-0.5,1.9l-2.1,3.5l-1,0.7l1.2,1.6l0.7,4.8l-0.5,4.5l-1.7-0.5l-0.8-1.2l-0.5,4.4l-1.4-0.2l-1.7-2
	l-0.9,0.9l-2.7-1.8l-3,2.7l-1.7-1.9l-1.5,0.9l-0.9-1.4l-4-2.5l-0.3-1.4l-3.8-4l-1.4,0.2l0.8-2.9l0.1-2.1l0.8-1.2l2-0.5l0.6,0.3
	l4.6-1.7l2.3-2.1l1.8-0.9l2.6-4.3l2.1-2.5l0.2-2.8l-1.6-1.3l0-1l2.3-5.1l0.5-3.3l1.7-2.7l0.1-3.9l0.5-1.7l-0.2-3.2l1.4-2.8l1.4-1.3
	l3.8-1.7l1.6-1.1l1.7-0.3l2,1.3l2.4,0l1.5-0.7l3.3-2.9l6.2-0.5l4,0.9l1.3,1.4l1.8-0.2l0.6-1l5.8-1.6l1.9-1.2l2.3-2.4l3.4-2.1
	l1.5-1.3l2.4-1.2l3.3,0.5l2.2,1.3l5.6,3.9l3.7,3.2l1.1,2.2l-0.1,4.2l-0.3,2.5l1.6,2.8l6,3.1l3.4-0.3l6.1,4.1l2.6,2.6l4,1.6l1.9,1.9
	l1.9,3.6l3.5,3.7l8.2,1.9l2.5-0.9l3.3,1.3l1.6,1L419.3,307.2z"/>
<path id="D381" class="st0" d="M561.8,377.5l-1.7-2.8l-1.6-1.3l-0.4-3.5l0.7-0.8l-1.4-2.6l-0.9,1.5l-1-0.8l-1.2-4.8l-0.8-2.3
	l-1.5-0.7l-3.7-3.5l-1-2.4l-2-0.7l0.4-2.1l-1.1-0.8l-0.6-3.6l0.8-1.8l-1-0.9l-0.3-1.6l-3.4-1.7l-1.5,2.6l1,3.1l1.3,0.9l-0.9,1.4
	l0.1,2.3l-1.4-0.3l-0.3-1.3l-1.2-0.3l-4.2-2.2l-1.9-1.4l-0.3-1.7l0.7-2.5l1.5-2.1l-0.1-3.1l1-0.7l-1.2-4.9l-1.6-1.1l-2.1,1.8
	l0.5,1.8l-3,0.8l-3-0.7l-1.9,1.4l-0.8,1.8l-0.8,3.7l-0.9,2.2l-1,0.9l-0.6,2.3l-1.8-1l-2.5,1.8l-0.6,3.1l-0.9,0.9l-4.7-1.3l-6.6-0.4
	l-1.6,1.9l-2.9-0.9l-2.5,0.4l-1.2,4.6l-2.1-1.4l-1,0.1l-1.5,2.4l-1.1-0.5l-0.3-2.6l-1.4-1.2l-1.3,1.4l-3.8,0.5l-0.2-1.2l1.2-0.6
	l1.2-2.6l-0.6-2.7l1.1-3.7l1.4-0.8l-0.3-2.3l-3.2,1.3l-7.9-0.1l-1.6-1.1l-4.9-1.2l-1.1-0.7l-1.8,0.4l-2.8-0.4l-2.6-1.4l-2.1-2.7
	l-4.6-1.4l-2.7-1.8l-2.6-2.4l-1.6-0.7l-1.6-1.6l-6-4.7l-1.4-0.7l-4.2,0.1l-1.1-0.4l-2.2-2.2l-1.5-2.1l1.1-0.4l1.7-2.3l0.6-1.6
	l1.6-1.6l0.3-1.7l5.9-0.1l1.7,1.1l2.6,0.4l1.1-1.6l3-0.9l2.5,0.7l0.9,0.9l2.2-0.7l1.2-2.3l0.5-2.1l3,0.3l1.1-0.9l1,0.8l2.4,0.2
	l2.1,1.5l1.8,2.3l1.5,1.1l-1,1.1l1.4,2.9l3,3.3l1.3,1.1l2.8,0.6l1.7-0.2l1.6,1.5l1.5,0.5l1.7-0.3l1.3,1l3.5,0.3l0.8-0.6l1.9,1.9
	l0.8-0.6l-0.4-2.9l3.5,1.5l2.2,2.2l2.8-3.3l0.8-1.9l2.3-2.2l2.3,1.1l3.7,1.1l2.6,1.3l1.1-3.5l1.7-0.8l2.2,0.2l2.6-1.4l0.7-2.4l1.2-1
	l1.9-3.5l1.5-0.9l0.9-1.6l-0.4-1.1l0.7-2.2l2.1-1.2l0.6,0.9l2.1-0.6l0.5-2.7l1.7-0.2l1-1.6l1.9,1.8l1.8-0.2l0.8-0.8l3.7-0.1l1.5,1.4
	l0.9-0.2l1.4-2.4l1.1-1l0.2-2.2l1.1-0.2l4,2.3l1,2.5l2.1,1.1l1.1,2.6l1.3,0.3l0.5,2.3l1.4,1l2.6,2.7l0.7,1.5l2.3-1.6l2-2.6l3,0.1
	l0.7-1.3l2.1-1.1l0.4-1.4l3.8-2.2l1.5,1l-1.4,1.8l0.5,2.2l2.3-1.4l0.4,2.3l1.8,1.1l2.7,0.4l0.9,2.7l2.3,0.8l-1.2,3.6l-2.2,3.1
	l2.7,3.1l-0.6,1.2l0.8,2l-1.2,2.4l0.4,3.3l-0.5,0.9l1.2,3.9l-0.9,5l-2,1.8l0.2,1.7l-2.9,0.8l-3-0.3l-1.3-1.7l-2.4-0.3l-3.5,2.9
	l-5.5-1.5l-3.5-3.6l-2.2-0.4l-0.9-1l-1.4,3l2.3,6.1l-0.6,1.1l0.4,3.1l-0.4,1.7l1.3,1l0.9,2.4l2.1,0.8l1.1,3.8l5.3,2.9l2.7,0.6
	l0.5,1.6l-1.4,2.4l1.1,0.8l0,1.8l-0.8,1.4l0.8,0.9l-0.7,2.3l1.5,1.7l-0.2,1.4l0.9,2l-1.1,2.6l1.2,1.5l0.3,1.5l2.1,3l-1.3,0.2
	l-2.6,1.4l-2.1,0.4l-1.4-0.4l0.7-2.7l-1.2-1l-1.5-0.1l-1.5,1.1l-1.4-3.3l1.6-1.4L561.8,377.5z"/>
<path id="D373" class="st0" d="M413.9,220.2l0.4-1.9l-0.8-2.3l-2.1-1.4l0.7-2.7l1.7-1.2l1.9-0.2l1.2-2.8l-1.5-0.8l0.9-2.2l-2.8-2.6
	l-0.6-1.4l-2-2.2l-2.8-0.8l-2.9,1.3l-3.7,5.3l-1.8,0.5l-1.6,2l-3.1-0.5l-0.4-8.7l-1.7-4.6l-0.8-1.2l0.2-1.8l-1.3-1.3l-1.7,0.3
	l-0.4,1l-2.1,1.2l-1-0.7l0.6-2.3l-1.5-1.4l1.2-2.9l-1.2-1.7l1.3-3.1l-0.6-2.6l0.4-3.5l0.8-2.2l-1.7-0.7l2.3-4.6l0.8-3.3l3-1l0.1-1.8
	l1.4-0.2l2.5,1.1l-0.6-1.9l-1.8-1l-2.8-4.5l-1.2,0.5l-2.8-2.7l1.1-5.1l1.3-1.7l2.7,1.2l2.4-1l1.2-2.4l0.9-0.2l5.4,0.8l1.3-1.5
	l0.4-2.9l-0.5-1.9l1.4-0.4l2.9,0.9l2.2,4.4l2.5-1.2l1.2,3l2,2l0.8,5.1l-0.1,2.8l1.2,0.7l1.8-0.3l1.2-1l-0.7-1.2l0.7-4.2l2,0.8
	l3.7,0.7l1.5-0.2l0.8,1l4-1l0.8-1.5l1.9,0.1l1.8,1.3l1.4-0.7l0.5-2.7l2.2,1.4l0.8-1.2l1.4-0.1l3,1.5l0.3,1.2l0,4.6l1.1,1.5l-0.4,2.3
	l1.7,2.6l2.8-1.9l1.2-0.3l2.2,1.6l2.5-0.7l2.2,0.5l4.5,1l2.7,4.9l-1,5l-2.3,2.7l-1,2.8l-2.1,3.3l-1.8-0.3l-1.7,1.3L454,178l-3.4-0.1
	l-1.9,2.2l-2.4-1.5l-1.7-0.5l-0.3,1.8l-1.9,0.5l-0.9,3.6l1.3,4.7l0,4.8l0.7,2l-0.3,1.7l0.8,2.3l1,0.3l1.1,2l-3-0.3l-0.3,0.9l-2.8,0
	l-2.1-1.3l-4.6,3.1l-1.8,2.1l-0.2,1.5l3,3.2l1.4,5.1l2.8,0.9l-0.3,3.4l0.9,1.1l-1.2,1.8l-1.3-1.6l-0.2-2.4l-1.7-0.7l0,4.2l-1.3,1.5
	l-4-2.2l-0.6-1.2l-2.5-0.2l-3.8-0.9l-1.8,0.8l1.3,3.2l-2.1,1.7l-2.3-1.8l-1.7-0.7L413.9,220.2z"/>
<path id="D383" class="st0" d="M456.4,302.2l0.8-3.6l-1-1.9l-1.4-4.4l0.6-1.6l1.7-2.6l0.6-2.7l1.4,1l0.9,2.2l1.5,1.1l-1.2,3.7
	l0.9,2.1l2.7-2.4l0.2-4.6l0.7-1.5l0.2-2.6l1-1.9l-0.7-1l-0.1-2.2l-1-1.9l0.7-0.9l3.6-0.3l2.1-1l-0.1-5.4l0.4-1.1l0.2-3.8l-0.9-2.5
	l1-1.3l-1.7-0.8l-0.3-1.1l0.6-3.3l-0.3-4.5l2.1-3l-0.8-2l-3-3.4l-3.2-2.7l-3.1-1.3l-0.6-1.3l1.3-3.3l1.7-0.7l2.8,1.2l1.4,0.1l1-4.4
	l1-1.9l-0.7-1.5l1.8-2.4l0.9-4.4l3.6-1l2.2,2.4l1.6-2.3l1.7,1.1l3.6-0.2l1.2-2.2l2.4,2l4.9,5.8l0.3,0.8l4.2,2l3.6-5.1l1.6-2.7
	l5.7,4.3l1.9-0.7l2.3-3.5l3-0.1l2.1-2.8l1.1,0.8l1.3-0.4l0.1,1.8l1.8,1.5l0.6,2.6l-3.1,0.6l-1.4,1.2l-0.1,3.6l1.6,3.8l1.8,2l1.1,0
	l0.8,5.4l-1.5,5.4l0.4,1.6l2-1.3l1.7,0.2l2.4,1.3l0.8,1.7l0.9-0.1l3.3,4.6l0.3,2l1.7-0.9l3,0.7l3-0.3l2.5,0.4l0.2,4.3l-1.3,2.7
	l-1.2,3.5l0.2,1.4l2.6,1.1l3.7,0.2l1.3,0.9l1,1.8l2.2,0.1l2.3,1.4l1.4,0l-0.1,2.1l-1.1,2.6l0.6,2.2l-0.2,5.3l-1.8,0.3l-2.7-1.7
	l-3.3,2.1l-3.6,1.1l-1.7,0.2l0.4,2.1l-0.2,2.2l-1.1,1l-1.4,2.4l-0.9,0.2l-1.5-1.4l-3.7,0.1l-0.8,0.8l-1.8,0.2l-1.9-1.8l-1,1.6
	l-1.7,0.2l-0.5,2.7l-2.1,0.6l-0.6-0.9l-2.1,1.2l-0.7,2.2l0.4,1.1l-0.9,1.6l-1.5,0.9l-1.9,3.5l-1.2,1l-0.7,2.4l-2.6,1.4l-2.2-0.2
	l-1.7,0.8l-1.1,3.5l-2.6-1.3l-3.7-1.1l-2.3-1.1l-2.3,2.2l-0.8,1.9l-2.8,3.3l-2.2-2.2l-3.5-1.5l0.4,2.9l-0.8,0.6l-1.9-1.9L484,320
	l-3.5-0.3l-1.3-1l-1.7,0.3l-1.5-0.5l-1.6-1.5l-1.7,0.2l-2.8-0.6l-1.3-1.1l-3-3.3l-1.4-2.9l1-1.1l-1.5-1.1l-1.8-2.3l-2.1-1.5
	l-2.4-0.2L456.4,302.2z"/>
<path id="D389" class="st0" d="M308.9,538.2l0.6-1.7l1.4-0.5l2,3.4l2.3,1.2l1.1,3.2l1.4-0.6l2.5-0.1l0.5-2.5l1.3-2.5l2.2,0.8
	l2.1,3.4l1.7,0.1l0.3-1.8l1.6-1.6l0.4-1.3l-2.4-3.3l-0.1-2.4l1.9-1.7l2.1,1l0.8,1.6l2.3-0.2l-0.2-2.2l-0.8-0.1l-0.9-3.5l0.8-4.5
	l1.3-1l-0.9-1.6l-1.3,0l-2.8-2.6l0.4-3.8l0.8-0.5l-1.5-2.5l1.4-5.8l1.5-1l1.2-4.9l-0.7-3l1.3-2.9l0.3-3.1l-1.4-4.2l-2-1.6l-1.1,0.7
	l-2.2-0.8l-0.5-1.2l-1.9-0.5l-0.3-3.3l2.8-6l1-3.7l-2-2.1l0.1-0.9l1.7-3.6l-1.2-1.8l-2.1-0.7l-1.2-2.8l-0.1-4.2l-0.9-5.3l1.8-0.7
	l1.4,0.2l2.3,1.9l3.1-0.9l2.1,0.3l0.7-1.1l2.1,1.1l1.5-0.7l2,0.8l1.5-0.6l2.3,0.3l1.5-0.9l0.8,0.8l0.8,3.6l1,2.5l1.5,0.9l0.6-1
	l1.4,0.2l2-0.7l0.9,0.3l2.1,2.3l1.5-0.3l1.1,0.5l0.2,5.2l0.4,2.9l0,3l5.3,0.2l1.2-2.6l0.3-3.7l1.6-1.6l4.3,1.4l0.6,2.8l-0.2,2.2
	l0.7,1.7l-0.7,1.6l2.2,2.4l0.1,2.7l1.3,0.5l-1.9,7.9l-0.8,1.5l1.4,1.8l5,1l-1.9,1.8l-0.9,2.5l0.3,3.6l1,1.5l-0.8,2.8l0.4,2.6
	l-1.8,3.6l0.2,1.8l-1.2,1.2l-0.2,2.5l-3.3,0.8l-0.1,4.8l1.2,2.4l0,2.2l1,0.6l0.1,1.6l-1,2.2l0.4,1.5l-1.2,1.9l-1.1,3.3l-0.2,2.7
	l-1,1.6l0.2,1.4l3.2,4l2.1-2.2l1.5,1.4l0.7,1.4l1.5-0.8l1.4,2.3l-2.2,2.6l-0.5,1.7l1.5,3.6l-2.2,3.4l-2.6,1.1l-0.3,2l-3.1-2
	l-0.3,0.8l2.2,1.6l-1,2.4l-1.2,0l-0.5-1.3l-1.4-0.6l0.4,4.1l0.7,0.5l0,3.1l-1.6,0.4l0.3,2.5l-3.5,1.5l-1.8-1.3l-2.8,2.4l-1.4,0.2
	l-3.2-2l-2.9,1.6l-1.2,1.1l-2.3-0.9l-2.7,1.2l-1.3,2.7l-1-1l-1.5,0.4l-1,1.1l-2.9-1l-0.8-2.4l-1-0.4l-0.1-1.9l-4.5-3.1l-1.8-0.1
	l-1,0.7l-3-0.4l-1.7,1l-0.7-1.5l-2.9-1.4l-1.4,0.2l-1.4-0.7l-1.4,0.2l-0.6-3l-2.3-1.8l-0.8-3.1l0.6-2.3l-0.8-3.1l-2,0l0.5-1.9
	l-0.9-1.7l0.3-2.2l-1.5-4.9l-1.3-1.6L308.9,538.2z"/>
<path id="D388" class="st0" d="M413,526.2l3.1,0.3l-0.1-1.6l2.6-0.7l-2.2,4.7L413,526.2z M379.6,541.9l-1.5,0.8l-0.7-1.4l-1.5-1.4
	l-2.1,2.2l-3.2-4l-0.2-1.4l1-1.6l0.2-2.7l1.1-3.3l1.2-1.9l-0.4-1.5l1-2.2l-0.1-1.6l-1-0.6l0-2.2l-1.2-2.4l0.1-4.8l3.3-0.8l0.2-2.5
	l1.2-1.2l-0.2-1.8l1.8-3.6l-0.4-2.6l0.8-2.8l-1-1.5l-0.3-3.6l0.9-2.5l1.9-1.8l-5-1l-1.4-1.8l0.8-1.5l1.9-7.9l-1.3-0.5l-0.1-2.7
	l-2.2-2.4l0.7-1.6l-0.7-1.7l0.2-2.2l-0.6-2.8l-4.3-1.4l-1.6,1.6l-0.3,3.7l-1.2,2.6l-5.3-0.2l0-3l-0.4-2.9l-0.2-5.2l-1.1-0.5
	l-0.7-3.2l0.1-1.8l-1-2.5l2.2-2.4l-0.9-3.1l-1.3-0.5l-4.2-5.4l1.5-4.1l-2.1-0.8l-1.8,0.8l-0.7-0.5L348,429l-1.9-3.5l3.8-0.9l0.8-0.9
	l-0.6-1.7l0.6-2.4l1.3-0.2l1.8-2l-1.9-3.7l1.1,0l4.4-1.2l4.8-1.6l1.4-2.3l1.9-1.8l1.5,4.3l2.6,2.4l1.3-0.3l0.7,1.4l2.3,1.8l4.5,1
	l2.4-1.2l1.6-1.4l0.2-3.6l-0.5-4l0.6-1.4l-0.1-2l0.9-1.7l-0.5-2l-1.3,0.3l-2.2-1.2l-1.3,0.5l-2.3-0.9l-0.9,0.8l-1.8-1.6l-2-3.2
	l-0.8,0l-1.7,1.6l-1.3-1.5l1-3.4l0.9-0.6l1.7-3.2l0.7,0.9l5.8-3.5l-1.5-2.8l0.1-2.2l0.8-0.5l0.5-4.3l1.2-0.7l0.2-3l0.9-1.6l-0.7-4.4
	l0.9-3l1-0.1l1.4,2.7l-0.8,1l0.2,1.8l2.8,3.4l3,0.9l0.5-1.8l1.3-0.3l0.9,1.7l3.8,0.4l-0.6-3l3.1-1.9l-0.3-2.5l1.7,2l3.7-2.4l1.6-1.9
	l0.2-2.5l1.9-3.8l0.7-3.6l2.6-1.2l2.1,1.2l1.8,3.1l1.4,1.1l1.8,0.3l1-0.7l1.3,1.8l1.3,0.9l4.1,1l0.7,2.1l-1,3.7l0.1,3.2l-0.8,6.6
	l-1.8,0.4l0.5,1.3l-1,1.6l1.3,3.7l0.7,1l2.5,1.8l1.9,3l0.7,4.4l2.8,0.1l1.5,1l1.8,6.4l0.6,1.3l-2,4l0.6,1.3l2.3,0.1l0.9,1.1
	l-0.5,3.6l1.7,0.6l2.3,2.3l1.3,4.2l1.7,1.1l1.1,2.1l1.8-0.7l2,0.2l3.7,2.2l1.2,3.7l4.5,2.6l2,3.1l0.3,1.6l2.9,5.2l1,1l-1.8,1.4
	l-0.4,3l1.1,2.3l-0.9,1.1l-2.7,0.6l-1.5,2.5l-0.3,2l3.2,2.8l-3.2,1.1l-1.1,2.7l-2.3,3.1l-0.3,2.4l1.8,1.2l1-2.4l1.1,1.7l-0.6,4.3
	l2.1-2.2l0.8-0.2l2.4,3.2l-2.8,2.7l-3.7,4.2l-2.3,4.5l-2.1,1.9l-0.6,1.3l-2.8,2l-5.6,4.5l-5.8,6.1l-5.1,5.9l-4.6,6.1l-4.4,7.1
	l-1,2.8l-2.1,2.8l-1,0.1l-2.5-1.2l0.5-2.9l-0.3-0.9l-2.6,0.4l-1.5,2.7l-1.8,0.4l1.4-3.5l-0.5-1.1l-2.3,0.2l-1.8-1l0.1,3.2l-0.5,2
	l-2.3-0.1l-3.4,0.7l-1.6-0.9l0.9,4l1.3,0.6l0.6,2.3l1.3,0.6l1.5-1.7l1.7,2l-0.6,2.7l-2-0.7l-2.7,0.3l-1.4,3.2l-0.4,1.9l-1,1
	l-1.1-0.9l-0.5-2.4l0.5-4l-2,0.4l-0.7,1.8l-2.1,0.3l-0.8,1l-1.9,0.2l-2.3,2.4l-1.3,1.9l-0.7,3.9l-2.2-1l-2.5-1.9L379.6,541.9z"/>
<path id="D380" class="st0" d="M581.4,385.2l0.9-1.3l3.4,1.4l0.5,2.4l-1,0.1l-1.2-1.2l-0.1-1.6L581.4,385.2z M580.1,387.4l-1.5-0.6
	l-1,0.7l-2.2-2.1l-1.8-0.2l-2.1-3l-0.3-1.5l-1.2-1.5l1.1-2.6l-0.9-2l0.2-1.4l-1.5-1.7l0.7-2.3l-0.8-0.9l0.8-1.4l0-1.8l-1.1-0.8
	l1.4-2.4l-0.5-1.6l-2.7-0.6l-5.3-2.9l-1.1-3.8l-2.1-0.8l-0.9-2.4l-1.3-1l0.4-1.7l-0.4-3.1l0.6-1.1l-2.3-6.1l1.4-3l0.9,1l2.2,0.4
	l3.5,3.6l5.5,1.5l3.5-2.9l2.4,0.3l1.3,1.7l3,0.3l2.9-0.8l2.5-0.9l0.1,1.7l1.6-0.4l1.2,1.2l3.1-0.4l0.4-1.7l1,0l1,2.5l1.3-1.1
	l2.4,0.6l1.3-1.7l4.2,4.3l2.8,0.9l1.8-1l2.2,1.1l1.1-0.1l2.4-1.5l2.5,2.4l1.2,0l2-1.7l2-0.9l1.6,0.1l1.6,0.9l3.6,0.5l2.7,2l1.6,3.1
	l1.6-0.1l0.9,1.1l-2.2,1.2l-2.1,1.7l-0.2,1.3l-2.1,0.8l-4.2,2.3l-4,2.8l-0.7,0l-3.3,2.4l-1.1,0.3l-2,1.9l-0.9,1.5l-1.6-0.5l-0.8,2
	l0.7,2l2.2-3.1l0.9,0.4l-2.7,5.5l-0.4,1.4l-1.4,1.4l-0.6,2.1l-2.5,3.4l-2.4,2.6l-1.9,2.8l-0.8,3.1l0.6,1.1l-0.2,1.8l-2.7,3.5
	l-1.4-0.6l-2.9-0.3l-1-1.2l-0.4-3l-0.9-2.8l-3.8-3.7l-0.8,0.7l-1.3-1.8l-1.3-0.1l-1.6,1.3L580.1,387.4z"/>
<path id="D382" class="st0" d="M522.7,224.3l1.4,0.7l1.2-1.4l1.6,0.7l0.4,4l0.7,1.8l0.9,0.5l2.8-0.6l0.7,1.5l1.6,0.6l2.2-0.7
	l2.9,1.4l1.2-0.1l3.5-1.2l2-6.2l1.3,1h1.3l0.4-1.3l5.1-0.7l2.6,0.2l0.7-2.2l2.7-0.3l1.6-1.2l0,4.2l-0.5,1.7l-1.9,1.7l-0.8,2.6
	l-1.2,0.8l-1,3l1.1,5l1.1,2.2l3.8,1.5l0.8-0.6l0.7-4.8l2.3-2l1.4-0.1l1.4-1.3l2.3,1.5l6.2,1.6l2,2l2.9,0l3.1,3.1l0.1,2.5l-0.4,3.5
	l0.5,1.3l-0.2,3.7l-1,3.2l0.3,2.4l3.4,1.6l1,2.5l1.4,0l-0.6,2l3.2,1.8l1.4-1l2.5-0.8l3.3,1.3l0.7,1.1l2.5,0.7l1-0.5l0.9-1.9l1.5,0.7
	l1.4-1.7l2.3-0.5l3.5,1.3l2.3-0.4l3,1.3l0.8,3.9l0.8,0.2l0.6,4.6l1,0.1l0,0.9l-1.8,2.6l-2.8-1.1l-2,0.8l-1.3,2.6l-1.2,0.5l-0.2,2.9
	l0.8,0.5l0.2,3.7l-0.8,1.8l-2.4-0.6l-1,1.6l-3,1.1l-1.4-1.2l-1.8,2.6l0,2.5l-3.2,1.5l-1.5,2.2l-1.1,0.3l-1.2,1.8l0.1,1l-2.3,1.9
	l-1.6-1.4l-3-0.9l-0.8-3.1l-0.9,1.8l0.1,3.2l0.4,1.6l-2,1.1l-1.3-1.2l-1,0.4l-2.3-0.8l-0.9-2.7l-2.7-0.4l-1.8-1.1l-0.4-2.3l-2.3,1.4
	l-0.5-2.2l1.4-1.8l-1.5-1l-3.8,2.2l-0.4,1.4l-2.1,1.1L566,302l-3-0.1l-2,2.6l-2.3,1.6l-0.7-1.5l-2.6-2.7l-1.4-1l-0.5-2.3l-1.3-0.3
	l-1.1-2.6l-2.1-1.1l-1-2.5l-4-2.3l-1.1,0.2l-0.4-2.1l1.7-0.2l3.6-1.1l3.3-2.1l2.7,1.7l1.8-0.3l0.2-5.3l-0.6-2.2l1.1-2.6l0.1-2.1
	l-1.4,0l-2.3-1.4l-2.2-0.1l-1-1.8l-1.3-0.9l-3.7-0.2l-2.6-1.1l-0.2-1.4l1.2-3.5l1.3-2.7l-0.2-4.3l-2.5-0.4l-3,0.3l-3-0.7l-1.7,0.9
	l-0.3-2l-3.3-4.6l-0.9,0.1l-0.8-1.7l-2.4-1.3l-1.7-0.2l-2,1.3l-0.4-1.6l1.5-5.4l-0.8-5.4l-1.1,0l-1.8-2l-1.6-3.8l0.1-3.6l1.4-1.2
	L522.7,224.3z"/>
<path id="D371" class="st0" d="M285.1,122.4l1.4,1l2.2-1.4l0.1-1.5l1.8-0.4l0.2,1.6l1.3,3.1l3.6,1.2l1.2,0.7l1,1.8l2.9,0.7l1.3-2.6
	l3-4.7l0.9-0.5l1.5-2.5l2-1.9l1.2,1.1l0.6-3.2l1.5,0.8l1.2-2.5l2.7-2.3l-1.2-1.8l2.9-0.2l1.8-3.3l3.4,0.6l1-0.4l2.7,0.5l1.3,4.2
	l0.9,1l2.9-2.6l2.4-4.3l2.2,0.6l0.7,1.4l2.5,0.2l0.3-2.8l0.8-0.7l-0.3-2.9l0.8-2.7l1.8,0.8l0.7-2.3L348,98l2.5-0.1l3,1.8l0.9,1.4
	l2.9,0.4l1.5-1.1l2.5-4.6l2.2-0.4l0.7-2.2l2.9-0.8l1.7,1l2.2-0.9l1.3,1.3l2.2,0.5l-0.1,3.5l0.5,1.2l-2,2.6l0.2,3l-1.3,1.9l-1,2.6
	l-0.9,4.1l-1.5,3.2l-0.8,2.7l0.3,2.2l-1.6,2.2l-0.5,2.4l-1.6,2.1l-0.1,2.7l-1,2.3l-1.5,0.4l-2.8-1.5l-1.1,0.9l-1.8-0.5l-1,1
	l-2.4,0.7l-5-3.6l-3.3-1.5l-2.8,1.9l-2.9,0.3l-2.7,2.2l-1.2-3.2l-1.4-0.7l-1.6,2.6l-0.6,1.8l-2.9,0.1l-1.7,1.9l-1,2.2l0.5,1.1
	l2.7,1.7l-0.5,2.6l1.4,14.1l-0.8,2.6l-1.1,0.9l-2.5-0.8l-4.4,0.5l-1.7-0.2l-2.9-1.8l-1.5,0.2l-2.5-1.3l-1,0.5l-1.6,3.6l-0.8-1.1
	l-7.3-8.4l-0.4-2.1l-1.3-3.2l-0.7-3.3l-1.2-1.9l-3.1-1.7l-1.2-1.1l-3.6-1l-2.8-1.2l-4.3-1.2l-1.7,2.5l-0.8,5l-1.2,2.8l-1.9,2.4
	l-2.2,2l-4.7-2.3l-2.3-2.9l0.2-1.7l1.2-1.1l2,0.4l0.7-0.5l2.4-5l0.7-2l-1.1-1.2l0.6-1.3l-0.3-2.2l-1-1.3l1.9-1.7l0.8-2.1l3.4,2.1
	l1.6,0l0-3.6l-0.6-2l2.9-0.4L285.1,122.4z"/>
<path id="D395" class="st0" d="M175.9,425.7l1.5-1.5l2.2-0.7l1.1-2.6l1.4-1.5l0.4-1.7l4.2,0.2l1.7-0.5l1.4-3.2l0.7-3.3l-0.9,0.1
	l-1-3.4l0-2l1-5.9l0.2-5.4l-1.4-1.4l1.9-3.5l1.7-0.4l1.1-2.6l-1-1.5l1.9-0.5l1.4-2.9l1.4-1.7l1-2.2l2.3,0.3l1.1-2l-0.4-2.3l0.8-5.4
	l1.6-0.2l1.5,0.7l3.4,0.5l1.9,1.4l1.1,0.1l0.3-2.7l2-1.9l1.5,0.9l2.5-0.8l1.6,0.8l3.3,0.5l4.2-2.4l0.9,0.3l2.4-1l1.1-1.1l1.2,1.1
	l2.9-0.4l1.9,3.5l4.2-0.4l1.3-1.2l0.9-1.9l2.5-1.6l1.5-3.7l-0.5-2.3l0.8-2.1l2.9-1.4l1.7-1.6l1.7-3.3l2.7-0.7l2.1-1.3l1.8,0.3
	l0.6-3.3l2.2-1.1l2.9-4.1l1.2-4.6l2.9-2.3l1-1.5l3.2-3.6l0.8,1l0.2,2l-0.6,2.7l3.1,0.4l0.5,1.1l2.3,1.1l0.6-0.5l2.4,2l0.4,3.1l2,0.7
	l3.5,1.8l0.5-2.6l2.9-0.2l-0.4-2.8l4.3,2.4l1.6,0.4l-0.2,3l0.9,3.7l0.2,3.1l0.6,2.3l0.1,7.3l2.3,2.2l-1,1.7l4.3,0.7l1.7-0.6l0.6,2.5
	l-0.1,2.2l-1.4,1.1l-0.5,1.8l-1.2-0.6l-3.2,2.4l-0.7,3.1l-1.8,3.8l-1.6,0.1l-2-1.6l-1.5,0.5l-3.2,2.8l-3.7-2.1l-1-1.2l-0.9,2.8
	l-1.1,0.8l-0.2,3.3l-0.8,1.8l-1.2,0.2l-1.2,4.4l-1.8,0.8l-1.8,1.9l-1,1.8l0,2.7l-0.8,2.1l-2.4-0.6l-2.5-1.3l-0.4,0.5l-0.7,5.3
	l-1.8,0.9l-0.6-1l-1.4,1.6l0,1.5l2,4.7l0.4,1.7l-0.3,3.7l1.4,1.6l-0.5,1.5l0.8,3.5l1.3,1.8l0.3,3.1l-0.1,4l-0.8,1.1l-0.2,1.9l-1,0.8
	l-0.7,2.4l-1.7,2.1l-1.3,0.3l-1.9,2.2l-0.8,2.3l-0.6,4.6l0.3,2.5l-0.9,0.5l-1.4-0.8l-2.4,1.4l-3.3,0.7l-1.8-0.2l-1.5-1.4l-0.7,0.6
	l0.3,2.9l-1.3,0.6l0.6,3.5l-1.4,1.6l0.6,1.8l-1.2,3.5l-1.8,0.4l-2.1,4l-0.5,1.9l-1.9-0.1l-0.3,5.5l-1.9-0.9L238,473l-0.6-2.5l1-1.7
	l-2.6-3.5l-1.5,1.2l-0.8-2.2l-1.2-1.7l0.4-1.5l-2-0.5l-1.3-2.9l-3,0.2l-1.4,1.2l-1.2,3.5l0.1,2.1l-3,2.1l-1,3.5l0.7,0.7l-0.6,3.3
	l-2-0.1l-1.1,1.7l-0.8-1.2l-1.9-0.7l-1.6,2.1l1,1l0.4,3.1l1.8,2.5l-0.6,4l1.1,1.8l0,3.9l-2.2,2l-1,1.9l-1.1-1l-1.5,2.9l0.2,1.4
	l-0.8,2.4l-0.9,0.8l1.3,3.7l-1.8,5.8l-0.8,0.9l-0.7-2.3l-1.8-0.6l-0.9-0.8l-0.2-2.2l-0.8-1.6l-1.4-0.5l-0.9,1l-1.4-0.9l1.3-2.2
	l0.9-0.6l0.8-5.2l2.1-2.7l-1.6-2.3l-1.3,0.5l-1.4-1l-1.5,0l-1.4-2l-3.3,2.1l-0.3-1.5l-1.3-1.7l-1.7,0.4l-1.4-1.8l-0.8-4.4l0.6-3.6
	l-2.2-0.6l-1.3-2.8l-1.9-0.9l-0.4-1.9l-1.2-0.8l-0.2-2.4l-1.7-0.8l1.3-3.7l-4.1-1.9l1-1.9l-1.7-1.1l-3.6-0.4l0-3.2l-1.1-2.2
	l-2.5,0.4l-0.6-1.2l1.2-1.5l0.8-2.3l-2.4-3l3.3-2.4l1.6-3.9l-0.4-1.6l0.1-4.6l-0.6-1.8l0.5-1.2l3.8-1.8l-0.5-3.1L175.9,425.7z"/>
<path id="D390" class="st0" d="M325.2,446.8l-0.9-3.1l0.3-1.9l-0.6-1.2l-1.3-0.4l-1.8,1l-3.4-0.3l-2.1-2.1l-1.3-3.1l-1.4,0l-1.9-1.1
	l-2.4,0.8l-2.2-0.4l-0.6,0.9l-0.7,5l-2.3,3l-1.3-0.6l-0.5-1.4l-2.6-2.6l-1.3-0.2l-1.6,1.1l-1.3,2.4l-1.5,0.9l-1.3-2.1l0.8-4.6
	l-1.2-2.1l-0.7-3.6l-1.6-0.9l-0.4-1.4l1.4-3l-0.4-2.5l0.1-3l-1.3-0.5l-0.6-2.2l-1.5,1.5l-4.8-3l-0.7-2.1l-0.9,0.3l-0.4-2.8l1.5-3.6
	l1.2-1l1.1-2.8l-2-2.6l-1.5-1.1l-3.8-1.5l0.8-2.1l0-2.7l1-1.8l1.8-1.9l1.8-0.8l1.2-4.4l1.2-0.2l0.8-1.8l0.2-3.3l1.1-0.8l0.9-2.8
	l1,1.2l3.7,2.1l3.2-2.8l1.5-0.5l2,1.6l1.6-0.1l1.8-3.8l0.7-3.1l3.2-2.4l1.2,0.6l0.5-1.8l1.4-1.1l0.1-2.2l-0.6-2.5l-1.7,0.6l-4.3-0.7
	l1-1.7l-2.3-2.2l-0.1-7.3l-0.6-2.3l-0.2-3.1l-0.9-3.7l0.2-3l-1.6-0.4l-4.3-2.4l0.9-2.1l-0.2-1.4l0.9-1.4l1.5-0.9l1.7,1.9l3-2.7
	l2.7,1.8l0.9-0.9l1.7,2l1.4,0.2l0.5-4.4l0.8,1.2l1.7,0.5l0.5-4.5l-0.7-4.8l-1.2-1.6l1-0.7l2.1-3.5l0.5-1.9l1.4,0.4l1.7-4.1l1.6-1
	l4.3,0.1l0.4-3.1l1-1.7l1.5,1.1l-0.4,2.1l1.7,1.2l2.5-0.8l2.6,2.1l2.2,0.2l4.4-3.6l2-0.4l1.1,0.9l2.1-1.1l1.6,1.7l1.8-0.3l1.2,0.9
	l1-1.4l2.6-1.7l1.2,2l3.6,0.5l3.8-2.7l2.1-5.2l0.9-0.3l-0.5-4.7l1.6-2l2.9-1l1.7,0.8l0.9,2.1l1.9,0.8l1.6,3.6l-0.4,1l1.6,5.3l-0.6,1
	l0.5,1.6l-0.1,4.2l1,3.7l3.3,1.6l1.4,1.7l-0.9,3l2.5,3.1l0.6-0.1l1.1,3.9l-0.8,1.8l0.3,4l0.9,1.5l2,0.8l1.1-1.5l1.7-0.2l0.8,3.8
	l-1.8,1.1l-2,2l0.4,1.8l6.3,2.5l0.8,5.1l-0.8,1.9l0.2,4.5l3.2,5.7l0.9,2.2l0.3,2.5l-3.1,1.9l0.6,3l-3.8-0.4l-0.9-1.7l-1.3,0.3
	l-0.5,1.8l-3-0.9l-2.8-3.4l-0.2-1.8l0.8-1l-1.4-2.7l-1,0.1l-0.9,3l0.7,4.4l-0.9,1.6l-0.2,3l-1.2,0.7l-0.5,4.3l-0.8,0.5l-0.1,2.2
	l1.5,2.8l-5.8,3.5l-0.7-0.9l-1.7,3.2l-0.9,0.6l-1,3.4l1.3,1.5l1.7-1.6l0.8,0l2,3.2l1.8,1.6l0.9-0.8l2.3,0.9l1.3-0.5l2.2,1.2l1.3-0.3
	l0.5,2l-0.9,1.7l0.1,2l-0.6,1.4l0.5,4l-0.2,3.6l-1.6,1.4l-2.4,1.2l-4.5-1l-2.3-1.8l-0.7-1.4l-1.3,0.3l-2.6-2.4l-1.5-4.3l-1.9,1.8
	l-1.4,2.3l-4.8,1.6l-4.4,1.2l-1.1,0l1.9,3.7l-1.8,2l-1.3,0.2l-0.6,2.4l0.6,1.7l-0.8,0.9l-3.8,0.9l1.9,3.5l1.3,3.2l0.7,0.5l1.8-0.8
	l2.1,0.8l-1.5,4.1l4.2,5.4l1.3,0.5l0.9,3.1l-2.2,2.4l1,2.5l-0.1,1.8l0.7,3.2l-1.5,0.3l-2.1-2.3l-0.9-0.3l-2,0.7l-1.4-0.2l-0.6,1
	l-1.5-0.9l-1-2.5l-0.8-3.6l-0.8-0.8l-1.5,0.9l-2.3-0.3l-1.5,0.6l-2-0.8l-1.5,0.7l-2.1-1.1l-0.7,1.1l-2.1-0.3l-3.1,0.9l-2.3-1.9
	L325.2,446.8z"/>
<path id="D379" class="st0" d="M642,330l1.3,2.5l-0.8,2.8l-0.9-1.9L642,330z M642.2,292.3l-1,1.6l1.4-0.1l1.5,2.9l-0.7,1.4l-1-1.1
	l-2.2,0.2l-1.1-1l1.5-2.1l1.4-2.7l0.4-3.2l1.4-1.8l1.4-6.2l2.2-2.1l1.3-0.2l3.3,1.2l2.8-0.2l5.2,0.3l3-0.7l1.8,4.2l-0.6,4l-0.7,0.9
	l-1.6-0.6l-5-0.4l-4.6,3.1l-2.6,3l-1.9,2.7l-1.5,0.4l-0.4-1.8l-0.9-1.2l-1.2-0.5L642.2,292.3z M621.9,275.5l1.8,0.8l1.1-1.1l1.5,1.1
	l1.9,0.5l3.2,1.9l0.1,1.7l1.8-0.3l0.6-0.9l2-0.3l1.2,1.2l-0.8,2.5l1.3,1.8l1.7-1.2l3.2,2l0.8-0.1l-1.7,2.5l-1.4,3.8l0,1l-2.4,4.5
	l4.5,0.2l1.1,1l0.7-1.4l-0.7-2.2l-1.2-1.2l0.8-1l1.4,0.3l1.3,2.5l0.6,0.8l0.7-0.2l2.5-2.4l3.2-4.1l3.8-2.2l3.8,0.3l4,1.8l2.3,0
	l-6,5.3l-3.9,3l-2,2l-5.2,4.2l-5.9,5.6l-2.9,2.3L640,313l-1.5,4.6l-1.3-0.2l-0.9,1.8l-0.8,3.5l-1.3,2.2v7.6l1.8-0.3l2.2,1.1l1.4,1.4
	l0.9,4.3l-2.3,4.1l-2.6,2l-1.2,1.4l-1.4,0.2l-1.5,1.8l-1.6,0.1l-1.6-3.1l-2.7-2l-3.6-0.5l-1.6-0.9l-1.6-0.1l-2,0.9l-2,1.7l-1.2,0
	l-2.5-2.4l-2.4,1.5l-1.1,0.1l-2.2-1.1l-1.8,1l-2.8-0.9l-4.2-4.3l-1.3,1.7l-2.4-0.6l-1.3,1.1l-1-2.5l-1,0l-0.4,1.7l-3.1,0.4l-1.2-1.2
	l-1.6,0.4l-0.1-1.7l-2.5,0.9l-0.2-1.7l2-1.8l0.9-5l-1.2-3.9l0.5-0.9l-0.4-3.3l1.2-2.4l-0.8-2l0.6-1.2l-2.7-3.1l2.2-3.1l1.2-3.6
	l1-0.4l1.3,1.2l2-1.1L588,305l-0.1-3.2l0.9-1.8l0.8,3.1l3,0.9l1.6,1.4l2.3-1.9l-0.1-1l1.2-1.8l1.1-0.3l1.5-2.2l3.2-1.5l0-2.5
	l1.8-2.6l1.4,1.2l3-1.1l1-1.6l2.4,0.6l0.8-1.8l-0.2-3.7l-0.8-0.5l0.2-2.9l1.2-0.5l1.3-2.6l2-0.8l2.8,1.1l1.8-2.6L621.9,275.5z
	 M650.8,275.8l3.6,0.9l3,0.4l0.5,1.1l-4.3-0.3l-2.7,0.2l-1.7-1.8L650.8,275.8z"/>
<path id="D375" class="st0" d="M592.7,201.2l-0.4,2l0.9,3.3l0.9,0.6l-0.2,3.3l-2,0.6l0.3,3.6l-0.6,2.7l-1.1,1.8l-2-0.2l-0.9,1.5
	l-2.4-0.7l-1.9,3.7l2.1,4.7l1.8,1.1l-0.6,1.3l0.1,2.2l1.1,1l1.1,3.2l-1.2,0.4l-0.3,2.3l-1,3.8l-1.6-0.4l-3.1-3.1l-2.9,0l-2-2
	l-6.2-1.6l-2.3-1.5l-1.4,1.3l-1.4,0.1l-2.3,2l-0.7,4.8l-0.8,0.6L558,242l-1.1-2.2l-1.1-5l1-3l1.2-0.8l0.8-2.6l1.9-1.7l0.5-1.7l0-4.2
	l-1.6,1.2l-2.7,0.3l-0.7,2.2l-2.6-0.2l-5.1,0.7l-0.4,1.3H547l-1.3-1l-2,6.2l-3.5,1.2l-1.2,0.1l-2.9-1.4l-2.2,0.7l-1.6-0.6l-0.7-1.5
	l-2.8,0.6l-0.9-0.5l-0.7-1.8l-0.4-4l-1.6-0.7l-1.2,1.4l-1.4-0.7l-0.6-2.6l-1.8-1.5l-0.1-1.8l-1.3,0.4l-1.1-0.8l-2.1,2.8l-3,0.1
	l-2.3,3.5l-1.9,0.7l-5.7-4.3l-1.6,2.7l-3.6,5.1l-4.2-2l-0.3-0.8l-4.9-5.8l-2.4-2l-1.3-2.1l0-2.5l-1.6-3.7l-2.9-2.5l-3.2-1l-1.4-1.8
	l-1.4,1.5l-1.5-1.4l0.5-2.6l3.4-3.7l0.8-1.6l1.5,0.7l0.9-4l0.7-1.2l-1.5-3.5l-2.6-1.8l-0.2-2.8l-3.3-1.9l-0.7-4.1l3.5,1.3l1.4-2.1
	l1.4-1l1-2.2l-0.5-4.2l-1.3-3.8l-1.7-0.5l0.4-4.1l-1.2-1.6l-0.8-2.3l0.8-0.9l-1.6-1.4l-1.2-2.3l-0.2-2.5l-2-5.5l-4.1,0.3l-0.8,2
	l-1.1-0.3l-0.6-2.3l0.6-2l-0.8-2.3l0.3-1.4l2.6-3.1l-1-4.4l0.8-1.1l0.2-2.3l1.5-2.8l1.8,0.9l3.4-2.3l0.9-2.2l3.9,2.2l2.9-1.3
	l1.8-3.6l0-4l0.7-0.5l0.2-2.3l1-1.8l-0.3-3.6l-2.1-1.3l-0.8-1.2l-3.4-1.1l-1.9,0.9l-2.7-1.1l-1-1.9l-3.2-3.6l0.1-1.1l1.1-1.8l3.7-10
	l2.9-4l2.5-2.6l2.5-0.3l1.8,0.3l-0.4-1.9l0.6-2.4l2.5,0.3l1-0.9l1.8,0.4l5.2,3l3.2,2.8l2.2,0.7l3.4,2.5l0.4,1.2l1.6-0.6l3.1,1.4l1,1
	l4.4-1L514,84l3.1,4.5l0,1.2l-0.2,1.9l-1.3,1.5l0.9,2.9l3.5,0.9l-0.2,2.2l1.5,1.1l2.7-1.2l1.7,2.4l2.3,2l1.2,0.3l0.9,1.5l0,3.5
	l-0.6,3.2l1.7,2.8l-0.2,1.9l1.1,3.9l-0.5,2.5l0.3,2.8l2.1,0.9l1-0.5l2.7,1.9l2.1,0.4l2.6,3.9l1.5,0.6l2.4,0.1l3.4,3.3l4.7-0.9
	l1.5,3.3l-0.3,3.6l1.7-0.2l1.5-1.3l0.8,3.1l2.5,0.5l-1.1,2.8l0.7,5.4l-1.4,3.5l-1.4,2.4l-0.7,2.3l-3.2,2.2l0.2,1.4l-1.2,2.5l2.7,2
	l7.3,4.2l3.2,2.9l1,2.5l1.6,2.2l1.1,2.8l-0.6,1.2l-1.7,1.3l-2.3,5l0.2,1.3l-1.5,1.6l0,2.4l-1.7,3.3l1.6,1.2l0.1,1.7l1.2,3l2,0.9
	l0-2.2l1.4-0.8l4.3,2l2.2-1.4l1.1-4.4l3.8-5.8l1.8-2.3l-0.2-1.8l1.8,0.6l1.5,3l2.2,1.3l4.3,3.9L592.7,201.2z"/>
<path id="D386" class="st0" d="M435.5,408.3l3.9-1.1l3.8,0.8l2.1-0.5l3-1.7l3.9-1.4l0.8-1l3.3-0.4l1.1,1.4l1.8,1.1l1.4,1.7l1.5-0.7
	l1.7,0.3l3-0.6l2.3,0.9l3.6-1.1l1.7-1.2l4.3-0.7l0.3-1.4l1.7-1.1l1.5-2.3l2.3,1.2l0,1.5l1.4,0.1l0.7,1.4l2,0.4l0.4-1.6l1.3-0.4
	l1.9-3.5l0-2.5l-1.4-2l-2.7-0.1l2-4.7l-1.4,0.4l-1.1-1.4l-1.3,0l-2.1-5.6l0.5-2.7l1.2,0.2l0.7-1.1l0.2-2.5l1.1-2.2l-1.6-1.8
	l-1.1,0.2l-0.3-2.4l-1.3,1.4l-2.1,0l0.9-3.1l0.7-1l-0.8-1.9l-3.3,0.8l-2.3,2l0,1.8l-1.9,0.1l-2.6,1.1l-1.4,2l-1.5,1.3l-0.4,1.4
	l-1.5-1.7l-1.5-0.9l0.2-1.9l-1.1-1.5l0.8-2.1l-1-0.5l-0.3-2.7l1.1-1.3l0.2-1.6l1.4-2l1,1.9l1,0.3l1.3-1l0-1.7h2.6l4.9-0.7l0.7-3.6
	l0-2.9l0.5-0.8l0.2,1.2l3.8-0.5l1.3-1.4l1.4,1.2l0.3,2.6l1.1,0.5l1.5-2.4l1-0.1l2.1,1.4l1.2-4.6l2.5-0.4l2.9,0.9l1.6-1.9l6.6,0.4
	l4.7,1.3l0.9-0.9l0.6-3.1l2.5-1.8l1.8,1l0.6-2.3l1-0.9l0.9-2.2l0.8-3.7l0.8-1.8l1.9-1.4l3,0.7l3-0.8l-0.5-1.8l2.1-1.8l1.6,1.1
	l1.2,4.9l-1,0.7l0.1,3.1l-1.5,2.1l-0.7,2.5l0.3,1.7l1.9,1.4l4.2,2.2l1.2,0.3l0.3,1.3l1.4,0.3l-0.1-2.3l0.9-1.4l-1.3-0.9l-1-3.1
	l1.5-2.6l3.4,1.7l0.3,1.6l1,0.9l-0.8,1.8l0.6,3.6l1.1,0.8l-0.4,2.1l2,0.7l1,2.4l3.7,3.5l1.5,0.7l0.8,2.3l1.2,4.8l1,0.8l0.9-1.5
	l1.4,2.6l-0.7,0.8l0.4,3.5l1.6,1.3l1.7,2.8l-1-0.5l-1.8,0.6l-2.7-0.3l-1.3,0.8l-0.9-1.9l-1.9,1.1l-3.9-2l-2,1l-1.6-0.1l-2.6-1.4
	l-0.5,1.6l-1.6,0.4l-1.1-1.8l3-3.3l-1.4-4.7l-2.4-2.1l-1.5-0.5l0.4,2.2l-1.3,0.6l-0.6-3.1l-1.2,3.7l-0.2,1.8l-2.3,0l-0.7,1.2l-1.9-1
	l-0.2-1.5l-1.7,0.1l-0.3,2.2l-1.8,0.7l-1.5-0.6l-0.9,1.3l-1.9-0.3l-0.8-1l-1.2,0.3l-1.3,3.9l-0.1,1.6l1.1,2.1l-1.1,1.7l0.3,2.3
	l-1.8,0.9l-1.2-0.1l-0.6-1.4l-2.7,1.3l-0.7,3.5l1.5,2.6l-2.2,3.5l-1.6,0l-1.6-1.2l-1-2.3l-0.8,1.8l0.4,4.1l-1,1.6l1,0.7l-0.5,2.8
	l-1.9-1l-2.4-2.8l-0.6,0.9l-1.1,3.4l1.1,1.3l1-0.6l0.8,2l3.4,1.6l0.4,1.8l-0.6,7.3l-1.2-0.4l0-1.6l-2-2.7l-3.6-0.3l-2.1,0.7
	l-0.9-1.1l-2.9,0.8l-2.3-1.1l-3.5,4l-0.1,1.2l-2.1,2.9l-1.8,0.5l-1.8,1.1l-0.4,2.6l-1.4,1.4l-3,0.5l-5.3,2.5l0.2,1.6l-1.4,1.1
	l0.1,2.1l-1.6-0.3l-1.1,0.6l-1.2,3l-1,0.4l-1,2.1l0.3,2.1l1.3,1.5l-2.4,1.2l-1-1l-2.9-5.2l-0.3-1.6l-2-3.1l-4.5-2.6l-1.2-3.7
	l-3.7-2.2l-2-0.2l-1.8,0.7l-1.1-2.1l-1.7-1.1l-1.3-4.2l-2.3-2.3l-1.7-0.6L435.5,408.3z"/>
<path id="D398" class="st0" d="M205,510.4l1.8,0.6l0.7,2.3l2.3,1.4l0.6,1.9l3.9,0.1l1.1,1l2-0.9l1.5-1.5l-0.2,2.7l0.4,2.9l1.8,1.2
	l1.1,1.5l0.1,2.4l1.7,1.1l0.6,1.5l-1,1.6l1.2,1.8l1.8,0.5l1.7,1.5l0.8-0.8l-0.1-2.3l0.7-2.4l1.8-1.8l0.9-2.4l1-0.2l1.2,2.7l1.3-1
	l0.5-5.7l1.1,0.3l1.5,1.7l1.3-2.6l0.9,1.7l-1.3,1.2l0.7,1.1l1.2-0.1l1.7-3.5l0.3-1.7l-0.6-2.2l2.4,0.4l1.2-1.4l2,1.2l0.2,2l-0.9,1.1
	l0,2.3l-1.7,0.6l-1-1.9l-1.3,0.7l-3.4,5.7l1.3-0.2l0.7,3.3l-0.5,2.1l0.2,1.9l-0.3,4.2l1.2,2.2l0.6,3.6l3.7,0.9l0.2-0.4l-0.3-7.5
	l2.3-1.8l1-3.1l-0.7-2l1.6-6.5l1.2,0l1.2-1.1l2.7,1.7l0.5,1.4l1.4-0.1l0.5,3.3l-0.3,2.6l0.4,1.4l1.9,0.3l-1.1,2.2l-0.5,2.6l-0.7,0.4
	l-0.6,2.7l-2.4-0.4l0.6,3.6l1.5,1.4l0.5,2.9l-1.4,1.4l1.1,1.7l1.4-0.2l0.4-5.6l1.8,0.4l0.3,2.3l1.8,2.2l-1,0.9l-0.9-1.9l-1.5-0.6
	l-0.1,1.9l1,2.4l1.2,0.7l2.3,4.3l2,0.8l0.6,0.9l-1.6,1.5l0.2,2.3l-2.9,1.8l-1.2-1.6l-1.3,1.5l1.1,2.1l-0.4,1.1l-1.9-0.4l-0.7,1.5
	l-1.1-0.8l-2.1-0.1l-2.7,1.4l-1.1,2.8l-0.3,2l-2.9-0.3l-1.9-1.1l-0.6,1l0.6,1.6l-1.9,2.8l-0.5-2l-1.8-0.3l-1.9-2.2l-2,0.1l-2-2
	l-2.3,2.1l0.6,1.1l-1.3,1.8l-2,3.8l-1.1,1l-0.8,2.4l-1.7,3.3l-0.5,1.9l-4.4,2.2l1,5l-1.4,2.5l2.2,0.9l1.5-2.1l1.4,1.5l-1.9,1.3
	l-1.2,2l0.9,0.9l-0.1,1.5l2.1,1.9l2.2-1.1l1.7,0.2l0.2,1.2l-1.7,2.7l-0.5,1.9l-1.5,2l-0.4,1.6l-3.9,4.4l0.2,1.1l2.1,0.8l0.6,2.4
	l1.7-1.6l0.4,1.2l-0.7,1.9l1.2,2.3l-1.1,2.2l-1.8,1.1L223,631l-2.2,0.5l-1.7,3l-1.8-0.3l-1.6,1l-1.4-0.1l-0.6-1.4l-2.7,0.7l-2-3.3
	l0.7-2l-0.7-3l-1.6,1l-2.4-1.3l-1.3,0.1l-0.1-1.5l-1.9-1.3l-2.2-0.9l-2.5,2.9l1.2,4.3l0,1.8l-1.1,1.1l0.7,2.5l-1.9,3.4l-1.8,0.4
	l-1.8,2.2l-1.9-0.2l-1.6,0.9l-0.5,1.8l-3.7,0.8l-2.2,4.9l0.3,1.8l-1.8,2.4l-2-1.6l-0.4-1.4l-2.2-1.1l-0.4-3.6l0.6-1.6l-0.3-1.5
	l-1.3-0.7l1.5-1.9l1.6-0.1l-0.8-3l0.5-3.7l-1.3-1.6l-1.3,0l-2.4-1.6l-0.7,0.7l-1.6-0.9l0.1-2.8l1-1.3l1-3l-0.7-0.6l-1.9,1.1
	l-0.1-1.3l-1.5-1.9l1.3-1.8l-0.5-5.3l-2.8-0.3l-1.9-1.3l-0.8-3.2l-2.3,2.9l-2.7,4.7l-1.8-0.9l-1.6-2.8l-0.2-1.5l0.6-3.9l0.7-1.5
	l1.6,1l1.4-1.7l0.5-4.4l-3.3-0.9l-1,1.5l-1.6-2.7l-1.3-0.2l-2-1.3l-0.7,0.1l-2.3,3.2l-0.8,0.1l-1.7,3.2l-1.6-0.1l-2.1-1.2l-1.8-0.1
	l-2.4-3.4l-0.1-1.5l-1.3-2l0.4-2.3l-1-2.8l-1.5,2.6l-1.2,0.1l-1,2.9l-1.8-0.3l-1.1-2.1l-0.5-3.2l-1.4,1.4l-1.4-2.4l1.3-2.4l-0.5-1.5
	l-1.7-0.7l0.3-2.3l-2.1-0.5l-2-2l0.7-3.5l2.5-0.7l1.7,0.4l0.2-1.8l1.6-0.5l1.7-2.6l-0.6-1.3l1-4.5l-0.8-3.2l1.4-3.8l0-2.1l4.8-3
	l2.3,1l0.6-0.8l-1.9-16.3l-3.1-5.8l1.6-2.7l0.4-1.8l-1.4-0.2l-0.3-1.3l0.5-2.2l-1.2-0.1l-1.6-1.3l-0.7,1.8l-1.1-2l0.9-1.1l1.2-3.7
	l-0.6-0.9l0-2.9l-2-1.8l0.6-1.7l1.2-1.2l3.1-1l1-1.5l1.1,2.6l1.7-0.7l1.9,2.3l0.9,0.2l3,2.7l2.2-1.4l1-1.7l1.5-0.3l0.4,1.2l3.6,1
	l2-1.5l1.5,1.1l-0.1,1.8l3.1,2.5l3-1.6l1.2,0.7l2.6-0.7l2.5-3l1.1,0.6l2.4-1.1l5.7,2.2l1.8,1.2l0.2,3.6l0.8,1.2l1.3,0.3l0.6-1.6
	L181,515l1.7-2.3l1.6,0.5l3-0.8l1.3,1.8l1.7,0.7l1.4,2.4l1.1-3.2l3.1,1.9l1.7-0.7l0.4,2.2l1,1l1-1.5l2.3,1.3l-0.5-3l0.3-1.4l1.5-2.9
	L205,510.4z"/>
<path id="D399" class="st0" d="M120.6,578.8l2,2l2.1,0.5l-0.3,2.3l1.7,0.7l0.5,1.5l-1.3,2.4l1.4,2.4l1.4-1.4l0.5,3.2l1.1,2.1
	l1.8,0.3l1-2.9l1.2-0.1l1.5-2.6l1,2.8l-0.4,2.3l1.3,2l0.1,1.5l2.4,3.4l1.8,0.1l2.1,1.2l1.6,0.1l1.7-3.2l0.8-0.1l2.3-3.2l0.7-0.1
	l2,1.3l1.3,0.2l1.6,2.7l1-1.5l3.3,0.9l-0.5,4.4l-1.4,1.7l-1.6-1l-0.7,1.5l-0.6,3.9l0.2,1.5l1.6,2.8l1.8,0.9l-0.3,1.2l-3.3,3.7
	l-2.2,4.4l-1.8,1.8l1.2,1.7l0.3,2.2l1,1.6l-0.9,2.8l-1.8,1.4l-1.6,3.2l-0.3,2.1l1.7-0.1l0.8-1.2l2.1-0.3l1,1.8l-1.2,3.3l-1.7,2
	l-2.6-0.1l-0.7,0.8l-0.7,5.1l-1,1.3l1.3,1l-1.4,2.2l-1.5,0.8l0.5,3.1l2.5,1.6l1.7,0.2l1.8,3.3l-0.8,2.1l-2.7-2.5l0.2,2.2l-0.6,1.2
	l0.2,3.7l1.2,1.7l0,2.2l-0.8,3l-1.6-0.4l-1.9,1.6l-1.8-3.1l-2.3,1.8l-1,2l0.9,1.4l0.5,2.2l-0.4,3.6l-2.8,1l-0.5-1.8l-2.1-0.3
	l-2.3-2.1l-2.2-0.3l-0.1-1.5l-1.5-3.1l-3.5,0.9l-0.3-1.9l-2.4-0.8l-1.7,0.2l-2.2-1.9l-1.2,1.7l-0.1,1.3l-1.6-0.1l-2.3-1.8l-2.6,1.9
	l0,3.1l-5.5,4.7l-1.7,1.2l-2.5,0.6l-1.6,1.7l-5.8,2.6l-1.5,0l-3.6,2.2l-1.7,3.3l-1.1,1.3l-8,6.4l-0.6-2.1l-1.1-1.4l-1.2,1.1
	l-1.6,0.1l-1.9,3l-0.4,2.5l-3.5,3.5l-1.3,0l-2.7-1.8l-1.1,0.2l-1.2,1.4l-4.7,1.4l-3.3,0.5l-1.2-3l-1.2-0.2l-2.4,1.4l-1.3-0.9
	l-1.3,0.7l-0.6,1.7l-2.7-0.3l-0.1-2.8l1.5-3.1l-0.9-1.9l0.7-4.1l0.9-0.2l2.9,2.1L49,705l1.2-4l-0.4-2.8l1.1-3.6l1.3-1.2l1.1-2.8
	l-0.4-1.4l0.6-3l-0.6-3.7l0.8-3.2l1.5-1.2l0.1-1.6l1.5-3.5l0.4-5.4l1.2-4.1l-2-3.9l2.3-7.8l0.2-3.3l2.2-0.4l2.2-1.6l2.9-4.1l2.5,0.1
	l1.8-1.1l3.1-1.1l-1.2-2.2l1-1.2l4.5-0.6l5-0.3l1.7-8l0.2-1.7l3.9-4.2l5.7-7.3l-0.1-1.7l1.5-2.5l0.9,0l1.3-1.7l1.6,0.1l0.4-4.2
	l0.9-1l1.3,1l3-0.3l-0.1-2.3l1-1.7l-2.7-1.4l-0.4-1l-2.9-2.4l-1.3-0.2l0.5-4.8l2.5,2.7l3.5,1l0-4l1.5-1.8l-0.6-1.8l2.3-2.2l1.7-0.4
	l2.6-2.3l2-0.8l3.7,0.2l1.2,0.7L120.6,578.8z"/>
<path id="D376" class="st0" d="M592.7,201.2l-0.4-2.9l-4.3-3.9l-2.2-1.3l-1.5-3l-1.8-0.6l0.2,1.8l-1.8,2.3l-3.8,5.8l-1.1,4.4
	l-2.2,1.4l-4.3-2L568,204l0,2.2l-2-0.9l-1.2-3l-0.1-1.7l-1.6-1.2l1.7-3.3l0-2.4l1.5-1.6l-0.2-1.3l2.3-5l1.7-1.3l0.6-1.2l-1.1-2.8
	l-1.6-2.2l-1-2.5l-3.2-2.9l-7.3-4.2l-2.7-2l1.2-2.5l-0.2-1.4l3.2-2.2l0.7-2.3l1.4-2.4l1.4-3.5l-0.7-5.4l1.1-2.8l-2.5-0.5l-0.8-3.1
	l-1.5,1.3l-1.7,0.2l0.3-3.6l-1.5-3.3l-4.7,0.9l-3.4-3.3l-2.4-0.1l-1.5-0.6l-2.6-3.9l-2.1-0.4l-2.7-1.9l-1,0.5l-2.1-0.9l-0.3-2.8
	l0.5-2.5l-1.1-3.9l0.2-1.9l-1.7-2.8l0.6-3.2l0-3.5l-0.9-1.5l-1.2-0.3l-2.3-2l-1.7-2.4l-2.7,1.2l-1.5-1.1l0.2-2.2l-3.5-0.9l-0.9-2.9
	l1.3-1.5l0.2-1.9l1.8-0.7l3.8-0.3l2.6-1.7l1.3-2.2l3.7-2.3l1.2-1.5l1.4,1.3l0.1,1.4l1.7,2.3l-1.8,1l-2.9-1l-1.9,3.8l1,2.2l-0.4,1.2
	l-2.2,2.9l0.5,2.8l2.6,1.6l3.4-0.2l0.8,1.5l2-0.9l3.4,0.3l2.5-0.5l1,1.7l1.1-4.4l-0.1-1.2l1.8-2.1l1.5,0l3.6-7.8L551,85l2.6-4.4
	l-0.9-2.8l0.5-1.9l1.3-1.9l0.4-2.2l1.3-1.9l-1-2l-2.7-2.5l-2.5-4.1l1.7-2.1l0-1.4l1.4-1.2l0.3-1.3l1.9-3l-1.3-1.7l1.6-2l-3-1.3
	l2.7-3.5l0.5-2.9l-1.4-6.3l-1.7,0.3l-3.3-3.4l-1.1-1.6l1.5-3.9l0.3-2.6l1.3-1.5l1.7,0.1l3.6-3.7l-1.1-1.4l2.2-2.9l2.2,1.5l1.2,1.5
	l2.5,5l1.1,2.8l5,1.6l3,0.4l2.5,1.3l0.6-0.4l2,3.1l0.9-0.1l4.1,1.5l1.6-0.9l0.9,3l1.4,1.5l0.2,1.5l1.7,2.2l0.8,2.6l1.5,1l1.5,2.1
	l0,0.9l2.5,1.2l1.7,1.7l3.7,2.8l1.7,0.1l-0.1-2.6l2.2,0.2l1.1-1.5l1.1-0.3l0.6-1.5l1.8,0.5l0.9,2.5l1.7,0.8l0.1,2.3l1.7-0.1l1.3,1.2
	l2.9-0.4l1.3,2.3l2.9,0.9l1.2,1.4l2,0.8l0.3,3.8l2.4-0.2l1.4,2.6l4.3,0.4l-0.9,5.7l0.5,2.1l-0.2,3l4.1-0.1l2.1-0.4l2.1-1.1l1.1,1.2
	l0,2.3l0.6,2.4l1.9,0.2l1,2.6l1.8-0.5l6.7,1.8l5.4,0.4l1.5,1.4l0.2,1.1l2.6,3l2.5,0.7l0.9,1.8l-0.4,2.5l1.3,3.4l-1.5,3.1l-1.6,4.1
	l-0.8,4.9l0.8,1.8l1.7,1.4l1.1,3l2.6,0.6l4.5,0.1l0.7,1.3l1.6,0.6l1,2.3l5.4,3.7l-1,1l0.2,1.9l-1.3,3.6l-1.5,0.7l-1.6-0.9l-2.1-2.5
	l-1,1.9l2,2.9l-2.2,0.3l-1.2,2.9l-2.1,3.7l-1.9-0.1l-1.1-1.5l0.4-3.2l-2.3-0.2l0.5,3.1l0.8,0.2l0,3.4l1.7,1.8l-1.2,0.9l-1.2,2.3
	l-0.9-1.5l-2.6-0.5l-1.1,1.2l0.1,2.3l2.4,0.5l-0.1,2.4l-1.3,1.6l0,3.9l-3.9,1.9L658,161l-2.6-2.1l-1,1l-1.9-4.3l-1.3-1.9l-1.4,0.6
	l0.3,1.5l-1.7,1.7l-1.8-1.2l-0.8,0.7l-3.2-1l-2.2,1.3l-3.1-0.5l-1.2-0.6l-1.9,1l-2.3,0.4l-1.1,1.7l-1.3-0.1l-0.7-1.3l-2.5,2.5
	l-1.4-0.3l-0.1,2.1l-1.1,2.6l-0.2,2l-1.2,0.3l-1,1.4l-2.4,0.9l-1.5-0.6l-1.7,4l-1.3,4.2l-2.5,5.5l-4,5.7l-1.7,2l-2.2,1.1l-2.6,2.4
	l-0.5,2l-0.9,1l-3.5,1.8l-1.4,1.6L592.7,201.2z"/>
<path id="D397" class="st0" d="M205,510.4l-1.5,0.5l-1.5,2.9l-0.3,1.4l0.5,3l-2.3-1.3l-1,1.5l-1-1l-0.4-2.2l-1.7,0.7l-3.1-1.9
	l-1.1,3.2l-1.4-2.4l-1.7-0.7l-1.3-1.8l-3,0.8l-1.6-0.5L181,515l0.4,1.9l-0.6,1.6l-1.3-0.3l-0.8-1.2l-0.2-3.6l-1.8-1.2L171,510
	l-2.4,1.1l-1.1-0.6l-2.5,3l-2.6,0.7l-1.2-0.7l-3,1.6l-3.1-2.5l0.1-1.8l-1.5-1.1l-2,1.5l-3.6-1l-0.4-1.2l-1.5,0.3l-1,1.7l-2.2,1.4
	l-3-2.7l-0.9-0.2l-1.9-2.3l-1.7,0.7l-1.1-2.6l-1,1.5l-3.1,1l-1.2,1.2l-1.1-2.2l0-6.2l0.7-2.4l1.1-1.4l0.6-3.8l1-0.5l-0.3-1.8
	l-4.2-2.4l-0.1-2.6l1.1-0.7l1.7,0.6l0.8-1.6l0.4-4.2l0.6-1l-1.4-2.5l-5.7,0.8l-1.4-2.8l0-1.4l-1.1-1.2l0.5-1.9l-0.3-2.3l-0.9-0.7
	l0.1-2.3l-2.3-0.9l-1.2,1.8l-4.1,0.3l1.1-2.9l0.9-0.6l0.6-1.9l-0.6-2l0.4-1.9l-1-2.7l0.3-2.2l1.6-3.9l-0.5-2.9l0-3.7l-1-5.1l0.7-1.5
	l0-3.5l1.5-2.3l0.3-4.4l-0.8-1.2l-2.6-0.1l-3.3-0.9l-1.3,1l-0.8-0.6l-2.1-4.2l-0.4-1.7l0.3-2.8l-2.3-1.5l-4.6-2l-4.4-3.1l-1.4-2.3
	l0.3-3.5l-1.3-1.7l1.1-3l0.5-3.8l0.9-4l1.5-3.4l1.7,0.4l2.9-4.5l0.7-1.9l1.3-1.8l1.1-0.3l3.2,3.8l1.1,2.7l1,1.4l1.6,0.1l0.6,0.9
	l0.2,3.2l1.1,1.4l0.7-1.9l2-1.8l1-2.2l2,0.9l0.7,1.7l1.1,0l0.5,1.4l2,1.9l1.7-0.3l3.8,2.5l2,2.2l2.2,0.1l0.7-1.5l2.2-1.1l2.4,3.2
	l1,0.7l0.8,2l0.1,1.9l2.9,6.8l0.3,2.3l2.2,3.6l1,3.1l1.4,1.2l3.2-3.6l2.3-4l2.8-2.2l3.2-1l1.8,1.2l1.9-0.9l2.4,0.8l0.1,1.5l1.5,0.2
	l1.2,1.7l0.8-1.4l1.6,1.9l2.5-0.4l1.2,1.2l1.5-0.4l0.7,0.8l-2.8,4.8l0,3.8l0.9,0.7l-0.1,3.2l0.7,0.7l0.6,1.3l0.5,3.1l-3.8,1.8
	l-0.5,1.2l0.6,1.8l-0.1,4.6l0.4,1.6L172,445l-3.3,2.4l2.4,3l-0.8,2.3l-1.2,1.5l0.6,1.2l2.5-0.4l1.1,2.2l0,3.2l3.6,0.4l1.7,1.1
	l-1,1.9l4.1,1.9l-1.3,3.7l1.7,0.8l0.2,2.4l1.2,0.8l0.4,1.9l1.9,0.9l1.3,2.8l2.2,0.6l-0.6,3.6l0.8,4.4l1.4,1.8l1.7-0.4l1.3,1.7
	l0.3,1.5l3.3-2.1l1.4,2l1.5,0l1.4,1l1.3-0.5l1.6,2.3l-2.1,2.7l-0.8,5.2l-0.9,0.6l-1.3,2.2l1.4,0.9l0.9-1l1.4,0.5l0.8,1.6l0.2,2.2
	L205,510.4z"/>
<path id="D385" class="st0" d="M388.2,334.2l0.6-1.2l2.4-0.9l1.3-1.5l1.1,1.5l3.7-1.8l1.2,0.4l1.8-1.8l2.8,1.4l1.8-0.1l3.1-2.5
	l0.2-4l0.7-4.3l1.4-1.3l0.9-2.6l2.7-2.2l2.2,1.2l1.4-0.5l0.5-1.9l1.6-1.8l-0.2-3.1l3.4,3.1l2.9,4.7l1.5,2.1l2.2,2.2l1.1,0.4l4.2-0.1
	l1.4,0.7l6,4.7l1.6,1.6l1.6,0.7l2.6,2.4l2.7,1.8l4.6,1.4l2.1,2.7l2.6,1.4l2.8,0.4l1.8-0.4l1.1,0.7l4.9,1.2l1.6,1.1l7.9,0.1l3.2-1.3
	l0.3,2.3l-1.4,0.8l-1.1,3.7l0.6,2.7l-1.2,2.6l-1.2,0.6l-0.5,0.8l0,2.9l-0.7,3.6l-4.9,0.7h-2.6l0,1.7l-1.3,1l-1-0.3l-1-1.9l-1.4,2
	l-0.2,1.6l-1.1,1.3l0.3,2.7l1,0.5l-0.8,2.1l1.1,1.5l-0.2,1.9l1.5,0.9l1.5,1.7l0.4-1.4l1.5-1.3l1.4-2l2.6-1.1l1.9-0.1l0-1.8l2.3-2
	l3.3-0.8l0.8,1.9l-0.7,1l-0.9,3.1l2.1,0l1.3-1.4l0.3,2.4l1.1-0.2l1.6,1.8l-1.1,2.2l-0.2,2.5l-0.7,1.1l-1.2-0.2l-0.5,2.7l2.1,5.6
	l1.3,0l1.1,1.4l1.4-0.4l-2,4.7l2.7,0.1l1.4,2l0,2.5l-1.9,3.5l-1.3,0.4l-0.4,1.6l-2-0.4l-0.7-1.4l-1.4-0.1l0-1.5l-2.3-1.2l-1.5,2.3
	l-1.7,1.1l-0.3,1.4l-4.3,0.7l-1.7,1.2l-3.6,1.1l-2.3-0.9l-3,0.6l-1.7-0.3l-1.5,0.7l-1.4-1.7l-1.8-1.1l-1.1-1.4l-3.3,0.4l-0.8,1
	l-3.9,1.4l-3,1.7l-2.1,0.5l-3.8-0.8l-3.9,1.1l-0.9-1.1l-2.3-0.1l-0.6-1.3l2-4l-0.6-1.3l-1.8-6.4l-1.5-1l-2.8-0.1l-0.7-4.4l-1.9-3
	l-2.5-1.8l-0.7-1l-1.3-3.7l1-1.6l-0.5-1.3l1.8-0.4l0.8-6.6l-0.1-3.2l1-3.7l-0.7-2.1l-4.1-1l-1.3-0.9l-1.3-1.8l-1,0.7l-1.8-0.3
	l-1.4-1.1l-1.8-3.1l-2.1-1.2l-2.6,1.2l-0.7,3.6l-1.9,3.8l-0.2,2.5l-1.6,1.9l-3.7,2.4l-1.7-2l-0.9-2.2l-3.2-5.7l-0.2-4.5l0.8-1.9
	l-0.8-5.1l-6.3-2.5l-0.4-1.8l2-2l1.8-1.1L388.2,334.2z"/>
<path id="D394" class="st0" d="M201.6,368.3l-0.8,5.4l0.4,2.3l-1.1,2l-2.3-0.3l-1,2.2l-1.4,1.7l-1.4,2.9l-1.9,0.5l1,1.5l-1.1,2.6
	l-1.7,0.4l-1.9,3.5l-5.3-1l-3,0.3l-1,1.6l-1.8,0.2l-1.8-0.6l-0.7-1.3l-3.6-1.9l-2.1,0.2l-2.4-0.5l-2.9-2.4l-3.8-0.8l-1.8-1.2
	l-3.2-0.8l-0.5-1.6l0.4-4.4l-0.4-4.4l-1.3-3.8l0.9-0.6l-0.4-1.7l2.5-2.7l0.9-3.4l-1-5.5l1.1-0.3l-1-3.2l2.5-2.2l-0.6-4.6l-2.4-2.2
	l-0.7-1.6l0.5-3l1.4-3.1l-0.1-3.8l1.6-1.1l0.5-2.3l-1.3-1.8l0.2-2.8l-1-2.4l-1.4,3.2l-1-0.1l-0.8-8.4l-2.4-0.9l-1.1-1l-0.7-2.2
	l-2-2.4l2-3.1l-0.4-2.8l1.9-1.4l0.3-1.7l1-2.1l-0.6-3.1l0.4-1.6l-1.6-2.5l-0.9-3.1l0.3-4.4l-1.2-4.4l0.4-4.7l-0.6-4.4l0.1-3.1
	l1.4-6.4l1.4,0.2l-0.4,1.9l1.3,0.9l1.6-0.9l2.1,1.1l0.6,2.1l-0.2,1.6l1.1,1.6l2.3-0.5l1.9,1.2l0.7-2.1l2-1.6l0.8-3.9l-0.2-3.9
	l1.2-1.4l2.2-1.2l0.6-1.1l1.8-0.7l1.9-1.8l1.5-3.8l1.7-2.9l2.5-2.8l0.5-1.8l1.5-2.7l-1.5-4l0-1.1l1.8-0.8l0.7-1.5l0.9,1.3l1.6,0.7
	l1.4,2.4l1,3.6l1.2,2.1l-0.5,7.3l1.3,4.7l-0.5,5.7l-1.2,2.7l0.4,7.6l-0.3,1.7l0.5,7.1l0.7,3l-0.8,2l0.1,1.5l1.3,0.5l-0.8,3.6l0.1,3
	l2.7,0.8l1.4,3.7l-0.1,2.9l1.2,1.2l-1.1,3.7l-0.3,2.4l-1.6,1.6l-0.5,4.3l-0.4,6.1l-1.1,3.5l-0.7,0.5l-0.6,3.4l1.7,1.9l-0.4,2.1
	l3.7,5.8l-1.7,2.5l0.3,1.4l2.8-0.7l2.2,1.1l1.7-0.7l0.5-1.5l1.2-0.3l1.2-1.9l1.2,0.1l-0.2,2.8l-2.4,2.6l-0.1,3l1.4,0.8l1-1.1
	l-0.6-2.1l0.6-1.8l3,2.6l1.5,0l-0.2,5.9l-1.6-1.4l-0.1-2.1l-1.6-0.2l-0.1,2.2l-0.9,1.7l0.7,1.3l1.3,0.8l2-1l1.3,2.5l-0.9,4.6
	l0.9,0.6l-1.5,5.7l-1.9,1.4l-1.5-0.2l-0.6,2.3L201.6,368.3z"/>
<path id="D387" class="st0" d="M461,471.3l-2.4-3.2l-0.8,0.2l-2.1,2.2l0.6-4.3l-1.1-1.7l-1,2.4l-1.8-1.2l0.3-2.4l2.3-3.1l1.1-2.7
	l3.2-1.1l-3.2-2.8l0.3-2l1.5-2.5l2.7-0.6l0.9-1.1l-1.1-2.3l0.4-3l1.8-1.4l2.4-1.2l-1.3-1.5l-0.3-2.1l1-2.1l1-0.4l1.2-3l1.1-0.6
	l1.6,0.3l-0.1-2.1l1.4-1.1l-0.2-1.6l5.3-2.5l3-0.5l1.4-1.4l0.4-2.6l1.8-1.1l1.8-0.5l2.1-2.9l0.1-1.2l3.5-4l2.3,1.1l2.9-0.8l0.9,1.1
	l2.1-0.7l3.6,0.3l2,2.7l0,1.6l1.2,0.4l0.6-7.3l-0.4-1.8l-3.4-1.6l-0.8-2l-1,0.6l-1.1-1.3l1.1-3.4l0.6-0.9l2.4,2.8l1.9,1l0.5-2.8
	l-1-0.7l1-1.6l-0.4-4.1l0.8-1.8l1,2.3l1.6,1.2l1.6,0l2.2-3.5l-1.5-2.6l0.7-3.5l2.7-1.3l0.6,1.4l1.2,0.1l1.8-0.9l-0.3-2.3l1.1-1.7
	l-1.1-2.1l0.1-1.6l1.3-3.9l1.2-0.3l0.8,1l1.9,0.3l0.9-1.3l1.5,0.6l1.8-0.7l0.3-2.2l1.7-0.1l0.2,1.5l1.9,1l0.7-1.2l2.3,0l0.2-1.8
	l1.2-3.7l0.6,3.1l1.3-0.6l-0.4-2.2l1.5,0.5l2.4,2.1l1.4,4.7l-3,3.3l1.1,1.8l1.6-0.4l0.5-1.6l2.6,1.4l1.6,0.1l2-1l3.9,2l1.9-1.1
	l0.9,1.9l1.3-0.8l2.7,0.3l1.8-0.6l1,0.5l1,2.2l-1.6,1.4l1.4,3.3l1.5-1.1l1.5,0.1l1.2,1l-0.7,2.7l1.4,0.4l2.1-0.4l2.6-1.4l1.3-0.2
	l1.8,0.2l2.2,2.1l1-0.7l1.5,0.6l1.5,1.9l2.1,0.1l2.2-1l1.1,1.5l1.5,3.6l1.1,1.6l2.9,2.5l0.8,1.3l-4.5,1.3l-2.9,1.2l-5.4,3.6
	l-1.1-0.3l-1.1,1.8l-4.1,1.9l-6.5,2.7l-4,1.4l-5.3,1.2l-0.3,0.7l-4.6,1.3l-5.5,1.2l-11.9,4.2l-6,2.6l-14.1,6.5l-1.2,1.1l-4.2,2.5
	l-3.6,2.5l-5.6,3.4l-4.2,3l-8.1,4.6l-9,6.4l-4.7,3.8l-3.3,3.2L461,471.3z M585.2,387.8l-0.9,0.3l-1.4-1.3l-1.4,0.8l-0.9-1.2l0.9-1.3
	l2.5-0.2l0.1,1.6L585.2,387.8z"/>
<path id="D396" class="st0" d="M207.5,513.3l0.8-0.9l1.8-5.8l-1.3-3.7l0.9-0.8l0.8-2.4l-0.2-1.4l1.5-2.9l1.1,1l1-1.9l2.2-2l0-3.9
	l-1.1-1.8l0.6-4l-1.8-2.5l-0.4-3.1l-1-1l1.6-2.1l1.9,0.7l0.8,1.2l1.1-1.7l2,0.1l0.6-3.3l-0.7-0.7l1-3.5l3-2.1l-0.1-2.1l1.2-3.5
	l1.4-1.2l3-0.2l1.3,2.9l2,0.5l-0.4,1.5l1.2,1.7l0.8,2.2l1.5-1.2l2.6,3.5l-1,1.7l0.6,2.5l1.4,3.7l1.9,0.9l0.3-5.5l1.9,0.1l0.5-1.9
	l2.1-4l1.8-0.4l1.2-3.5l-0.6-1.8l1.4-1.6l-0.6-3.5l1.3-0.6l-0.3-2.9l0.7-0.6l1.5,1.4l1.8,0.2l3.3-0.7l2.4-1.4l1.4,0.8l0.9-0.5
	l-0.3-2.5l0.6-4.6l0.8-2.3l1.9-2.2l1.3-0.3l1.7-2.1l0.7-2.4l1-0.8l0.2-1.9l0.8-1.1l0.1-4l-0.3-3.1l-1.3-1.8l-0.8-3.5l0.5-1.5
	l-1.4-1.6l0.3-3.7l-0.4-1.7l-2-4.7l0-1.5l1.4-1.6l0.6,1l1.8-0.9l0.7-5.3l0.4-0.5l2.5,1.3l2.4,0.6l3.8,1.5l1.5,1.1l2,2.6l-1.1,2.8
	l-1.2,1l-1.5,3.6l0.4,2.8l0.9-0.3l0.7,2.1l4.8,3l1.5-1.5l0.6,2.2l1.3,0.5l-0.1,3l0.4,2.5l-1.4,3l0.4,1.4l1.6,0.9l0.7,3.6l1.2,2.1
	l-0.8,4.6l1.3,2.1l1.5-0.9l1.3-2.4l1.6-1.1l1.3,0.2l2.6,2.6l0.5,1.4l1.3,0.6l2.3-3l0.7-5l0.6-0.9l2.2,0.4l2.4-0.8l1.9,1.1l1.4,0
	l1.3,3.1l2.1,2.1l3.4,0.3l1.8-1l1.3,0.4l0.6,1.2l-0.3,1.9l0.9,3.1l-1.8,0.7l0.9,5.3l0.1,4.2l1.2,2.8l2.1,0.7l1.2,1.8l-1.7,3.6
	l-0.1,0.9l2,2.1l-1,3.7l-2.8,6l0.3,3.3l1.9,0.5l0.5,1.2l2.2,0.8l1.1-0.7l2,1.6l1.4,4.2l-0.3,3.1l-1.3,2.9l0.7,3l-1.2,4.9l-1.5,1
	l-1.4,5.8l1.5,2.5l-0.8,0.5l-0.4,3.8l2.8,2.6l1.3,0l0.9,1.6l-1.3,1l-0.8,4.5l0.9,3.5l0.8,0.1l0.2,2.2l-2.3,0.2l-0.8-1.6l-2.1-1
	l-1.9,1.7l0.1,2.4l2.4,3.3l-0.4,1.3l-1.6,1.6l-0.3,1.8l-1.7-0.1l-2.1-3.4l-2.2-0.8l-1.3,2.5l-0.5,2.5l-2.5,0.1l-1.4,0.6l-1.1-3.2
	l-2.3-1.2l-2-3.4l-1.4,0.5l-0.6,1.7l-1.4-0.2l-0.9,1.6l-1.8,0.8l-1.1,1.4l0.1,2.5l0.8,1.3l0.2,2.1l1.2,0l1.7,3.8l0.3,1.7l-1,0.9
	l-1.7-2.3l-1.1-0.2l-1-3.1L302,543l-2.3-1.4l-0.1-2.1l1.6-0.7l-0.3-1.5l-1.9-0.1l-1.7-4.3l-3-4.6l0.1-1.9l-1.4-3.8l-2.8-4.2
	l-2.7,3.2v1.4l1.1,2.6l-0.5,1.2l-2,1.4l-0.4,3.8l-2.3-0.2l0.3-2.2l-1.6-1.1l-0.2,1.7l0.7,1.7l-1.8,3.2l-0.4,3.4l-1.8,0.1l-2.2-0.9
	l-0.2-2.3l2.2,0.3l-0.3-3.4l-0.6-2.5l-1.4,1.4l-1.7-3l-1.9,0.8l-0.3,2l0.7,0.5l0.2,2.4l1.3,1.6l-0.3,3.7l-2.9,0.1l0.2,2.5l1.3,3.4
	l-0.8,2l-1.4-0.3l-0.7-1.5l-2.4-2.9l-0.7-2.7l-2.2-0.6l-1.3,0.8l-1.6,0L261,538l-1.6,0l0.5-2.6l1.1-2.2l-1.9-0.3l-0.4-1.4l0.3-2.6
	l-0.5-3.3l-1.4,0.1l-0.5-1.4l-2.7-1.7l-1.2,1.1l-1.2,0l-1.6,6.5l0.7,2l-1,3.1l-2.3,1.8l0.3,7.5l-0.2,0.4l-3.7-0.9l-0.6-3.6l-1.2-2.2
	l0.3-4.2l-0.2-1.9l0.5-2.1l-0.7-3.3l-1.3,0.2l3.4-5.7l1.3-0.7l1,1.9l1.7-0.6l0-2.3l0.9-1.1l-0.2-2l-2-1.2l-1.2,1.4l-2.4-0.4l0.6,2.2
	l-0.3,1.7l-1.7,3.5l-1.2,0.1l-0.7-1.1l1.3-1.2l-0.9-1.7l-1.3,2.6l-1.5-1.7l-1.1-0.3l-0.5,5.7l-1.3,1l-1.2-2.7l-1,0.2l-0.9,2.4
	l-1.8,1.8l-0.7,2.4l0.1,2.3l-0.8,0.8l-1.7-1.5l-1.8-0.5l-1.2-1.8l1-1.6l-0.6-1.5L222,526l-0.1-2.4l-1.1-1.5l-1.8-1.2l-0.4-2.9
	l0.2-2.7l-1.5,1.5l-2,0.9l-1.1-1l-3.9-0.1l-0.6-1.9L207.5,513.3z"/>
<path id="D372" class="st0" d="M362.8,256.1l-0.8,0.5l-3.7-0.3l-1.5-1.4l-1.4-2.7l-0.2-1.5l-2-1.9l-3.7,0.1l-0.6-1.4l0-2.4l-0.9-1.7
	l0.1-3.3l-3.7-0.5l-4.8-1.8l-2.5,1l-1.4-1.6l-2-0.8l-3-2.8l0.4-3.3l-1-2.4l0.1-2.4l-1.3-0.5l-4.4-3.1l-3-2.6l-1.3-0.2l1.8-7.1
	l0.1-2.9l-2.4-5.2l0-2.3l-1.5,0.4l-0.7-2.5l0.7-1.9l0.6-3.9l-0.2-6l-0.9-1l-2.3-1.1l-0.2-1.7l3.8-1.7l0.3-1.7l-1-2.3l-0.5-3.1
	l-2.9-7.6l-1.4-0.4l-2.1-1.5l-1.7-3.9l1.6-3.6l1-0.5l2.5,1.3l1.5-0.2l2.9,1.8l1.7,0.2l4.4-0.5l2.5,0.8l1.1-0.9l0.8-2.6l-1.4-14.1
	l0.5-2.6l-2.7-1.7l-0.5-1.1l1-2.2l1.7-1.9l2.9-0.1l0.6-1.8l1.6-2.6l1.4,0.7l1.2,3.2l2.7-2.2l2.9-0.3l2.8-1.9l3.3,1.5l5,3.6l2.4-0.7
	l1-1l1.8,0.5l1.1-0.9l2.8,1.5l1.5-0.4l1-2.3l0.1-2.7l1.6-2.1l0.5-2.4l1.6-2.2l-0.3-2.2l0.8-2.7l1.5-3.2l0.9-4.1l1-2.6l1.3-1.9
	l-0.2-3l2-2.6l-0.5-1.2l0.1-3.5l-2.2-0.5l-1.3-1.3l-2.2,0.9l-1.7-1l-2.9,0.8l-0.7,2.2l-2.2,0.4l-0.2-4.2l0.7-2.2l-0.8-2.8l0.5-2.4
	l-0.4-1.7l1.2-0.5l-0.1-2l2.3,0.7l3-1.2l2.4-1.6l2.1-2l2,0.3l4.1-3.7l6.3-2.4l0.5,3.4l1.5,4.4l0.5,4.4l-0.5,1.1l0.5,1.6l1.2,0.1
	l-0.3,2.6l0.4,2.3l1.8,1.3l-0.6,2l-1,0.8l-0.8,2.2l0.2,2.9l-0.6,2l0.5,2.6l1.2-1.9l1.1,0l0.1,2.2l-0.8,0.3l0,4.9l-2.8,1.1l0.1,1.7
	l1.9,0.5l1.5,1.7l-0.1,2.2l1.3,1.9l-0.8,1.5l-0.5,3.4l0.2,2.1l4.1,3.2l0.5,1.5l-1.2,2.1l1.6,0l2.2,1.3l2.2-1l2.3,0.6l2.2-0.9
	l2.5,1.9l0.1,2.6l-2.9-0.9l-1.4,0.4l0.5,1.9l-0.4,2.9l-1.3,1.5l-5.4-0.8l-0.9,0.2l-1.2,2.4l-2.4,1l-2.7-1.2l-1.3,1.7l-1.1,5.1
	l2.8,2.7l1.2-0.5l2.8,4.5l1.8,1l0.6,1.9l-2.5-1.1l-1.4,0.2l-0.1,1.8l-3,1l-0.8,3.3l-2.3,4.6l1.7,0.7l-0.8,2.2l-0.4,3.5l0.6,2.6
	l-1.3,3.1l1.2,1.7l-1.2,2.9l1.5,1.4l-0.6,2.3l1,0.7l2.1-1.2l0.4-1l1.7-0.3l1.3,1.3l-0.2,1.8l0.8,1.2l1.7,4.6l0.4,8.7l3.1,0.5l1.6-2
	l1.8-0.5l3.7-5.3l2.9-1.3l2.8,0.8l2,2.2l0.6,1.4l2.8,2.6l-0.9,2.2l1.5,0.8l-1.2,2.8l-1.9,0.2l-1.7,1.2l-0.7,2.7l2.1,1.4l0.8,2.3
	l-0.4,1.9l-1.2,0.9l-0.9,2.3l-2.6-0.9l-1.8,0.9l-0.5,3l-1,3.1l-0.2,3.1l1.5,2.2l-0.6,1.1l-3-3l-2.3,0.3l-3.5,2.4l-3.1,0.1l-1.8-0.8
	l-2.3-2.5l-3.1,0l-1.1,1.1l-1.3-0.3l-3,3.9l-0.8,2.2l-1,1l-1.3-0.9l-2.2,1.5l2.7,1.6l-0.5,1.6l-1.5,1l-1,3.3l-2.5,1.5l-1.4,2
	l-0.8-0.6l-3.7,1l-3.1,1.8L362.8,256.1z"/>
<path id="D392" class="st0" d="M361.1,261.7l-2.2-1.3l-3.3-0.5l-2.4,1.2l-1.5,1.3l-3.4,2.1l-2.3,2.4l-1.9,1.2l-5.8,1.6l-0.6,1
	l-1.8,0.2l-1.3-1.4l-4-0.9l-6.2,0.5L321,272l-1.5,0.7l-2.4,0l-2-1.3l-1.7,0.3l-1.6,1.1l-3.8,1.7l-1.4,1.3l-1.4,2.8l0.2,3.2l-0.5,1.7
	l-0.1,3.9l-1.7,2.7l-0.5,3.3l-2.3,5.1l0,1l1.6,1.3l-0.2,2.8l-2.1,2.5l-2.6,4.3l-1.8,0.9l-2.3,2.1l-4.6,1.7l-0.6-0.3l-0.9-0.8
	l-0.3-2.2l0.8-3.4l-0.8-4.5l2.9-4l0.8-2l0-2l0.8-1.2l0.3-2.1l1.4-1.3l1.7-3.3l0.1-2.2l0.8-2.3l-2.1-0.6l-0.7-1.5l0.7-2l-1-0.7
	l-1.4,0.4l-0.2-3.7l-2.1-1l-2,0.3l-0.2-3.1l3,0.9l-0.5-2.4l-4.9-2.2l0.5-3.9l2.7-2.9l1.9-1.6l-0.4-4.8l0.3-1.6l1.8-2.9l0.6-2
	l-1.8-0.8L287,248l-2.5,0.9l-4.7-1.5l-2.6,0.3l-2.2-2.1l-2-0.1l-2.2-3.2l1-5.3l0.7-0.7l3,2.7l0.8-0.3l-0.3-2.7l2,0.2l1.8-1.4l2.3-1
	l5.3-5l1.6-2.7l4.6-0.1l2.9,0.8l0.8,1.1l1.9-0.7l1.3,0.2l3.4-2.9l1.7-0.5l0.7-1.6l1.3,0.1l0.5,2.9l1.4,2.8l3,2.2l2,0.6l0.8-1.3
	l2.4-7.6l1.5-2.8l0.9-0.2l1.3,0.2l3,2.6l4.4,3.1l1.3,0.5l-0.1,2.4l1,2.4l-0.4,3.3l3,2.8l2,0.8l1.4,1.6l2.5-1l4.8,1.8l3.7,0.5
	l-0.1,3.3l0.9,1.7l0,2.4l0.6,1.4l3.7-0.1l2,1.9l0.2,1.5l1.4,2.7l1.5,1.4l3.7,0.3l0.8-0.5l-1.3,1.9L361.1,261.7z"/>
<path id="D374" class="st0" d="M463.6,147.5l-1.2,1.3l1.2,1.6l-0.4,2.8l-1.6,0.5l-2.4,2.3l-0.5,1.6l-2.2-0.5l-2.5,0.7l-2.2-1.6
	l-1.2,0.3l-2.8,1.9l-1.7-2.6l0.4-2.3l-1.1-1.5l0-4.6l-0.3-1.2l-3-1.5l-1.4,0.1l-0.8,1.2l-2.2-1.4l-0.5,2.7l-1.4,0.7l-1.8-1.3
	l-1.9-0.1l-0.8,1.5l-4,1l-0.8-1l-1.5,0.2l-3.7-0.7l-2-0.8l-0.7,4.2l0.7,1.2l-1.2,1l-1.8,0.3l-1.2-0.7l0.1-2.8l-0.8-5.1l-2-2l-1.2-3
	l-2.5,1.2l-2.2-4.4l-0.1-2.6l-2.5-1.9l-2.2,0.9l-2.3-0.6l-2.2,1l-2.2-1.3l-1.6,0l1.2-2.1l-0.5-1.5l-4.1-3.2l-0.2-2.1l0.5-3.4
	l0.8-1.5l-1.3-1.9l0.1-2.2l-1.5-1.7l-1.9-0.5l-0.1-1.7l2.8-1.1l0-4.9l0.8-0.3l-0.1-2.2l-1.1,0l-1.2,1.9l-0.5-2.6l0.6-2l-0.2-2.9
	l0.8-2.2l1-0.8l0.6-2l-1.8-1.3l-0.4-2.3l0.3-2.6l-1.2-0.1l-0.5-1.6l0.5-1.1l-0.5-4.4l-1.5-4.4l-0.5-3.4l-6.3,2.4L374,76l-2-0.3
	l-2.1,2l-2.4,1.6l-3,1.2l-2.3-0.7l0.1,2l-1.2,0.5l0.4,1.7l-0.5,2.4l0.8,2.8l-0.7,2.2l0.2,4.2l-2.5,4.6l-1.5,1.1l-2.9-0.4l-0.9-1.4
	l-3-1.8L348,98l-3.6-1.6l-0.7,2.3l-1.8-0.8l-0.8,2.7l0.3,2.9l-0.8,0.7l-0.3,2.8l-2.5-0.2l-0.7-1.4l-2.2-0.6l-2.4,4.3l-2.9,2.6
	l-0.9-1l-1.3-4.2l-2.7-0.5l-1,0.4l-3.4-0.6l-1.8,3.3l-2.9,0.2l1.2,1.8l-2.7,2.3l-1.2,2.5l-1.5-0.8l-0.6,3.2l-1.2-1.1l-2,1.9
	l-1.5,2.5l-0.9,0.5l-3,4.7l-1.3,2.6l-2.9-0.7l-1-1.8l-1.2-0.7l-3.6-1.2l-1.3-3.1l-0.2-1.6l-1.8,0.4l-0.1,1.5l-2.2,1.4l-1.4-1
	l1.2-2.1l0-1.4l-1.4-2.8l1.3-2.8l1.9-2.9l-1.4-2.3l-3.8-0.9l0.5-1.7l-2.5-2.9l-0.1-1.9l1.6-4.5l-1.6-2.3l-0.2-1.7l0.7-3.1l3-0.2
	l2,0.3l1.9-1.6l-2.9-3.4l-1.8-1.6l1.1-2l2.8-3.9l1.5-2.6l1.5-5.7l2.9-4.2l1.3,0l2.4-2.3l1.5-0.7l5.8,0.6l2.8-2.4l0.8-2.5l2.1-2.3
	l2.5-0.9l0.2-2.9l0.8-1.2l1.5-0.4l2-2.6l1.2,0.7l2.8-0.1l2.1-2.9l1.6,0.5L327,44l1.6,0.5l1.2-1.1l2.5-0.7l0.1-1.6l1.4-3.5l2.8-4.2
	l0.2-4.6l-2.2-1.2l-1-1.9l-4.1-2.5l0.1-2.4l2-1.5l0.9,1.2l1.8,0l1.5,1.3l2.7,0.3l2.4,3.1l2.3,1.3l0.7,1l2.5,0.1l0.9,0.9l-0.5,3.2
	l0.3,3.6l1.8,2.9l3.4,2.5l1.2,1.7l5.8-0.3l2.2,3.8l2.5,1.5l3.8-0.2l1.1-0.6l4.2-0.9l2.5,0.8l3.5-1.2l0.1-1.9l2.3-2.1l0.9,0.6
	l1.9-1.1l0.2-2.8l3-2l2.1,0.1l0.6-0.8l1.8,0.4l3.2-0.9l6.6-0.8l3.3,2.2l0.9-0.4l2.4,0.6l3.8-0.6l2,0.3l1-4l5.4-0.3l1.3,1.8l2.5,0.6
	l0.4-1l1.8,0.3l2.5-1.6l0.3,3.7l3-0.3l1.3-0.9l-0.3-1.2l3.9-2.7l0.9,1.3l3.7-2.1l4.1-1.7l2.2-1.4l2.4,1l-0.2,2.5l-1.6,1.6l0.7,3.2
	l1.2,1.4l0.9,5.2l-0.9,2.6l-0.1,1.8l2.1,1.1l-0.8,3.6l1,0.7l2.1-0.3l0,3.5l-1-0.1l-3.8,2.8l0.4,3.1l-0.7,1.1l0.2,1.9l-1.2,3.6
	l-1.3,3l0.3,1l-2.7,3.7l0.6,2.5l-0.8,3.7l-4.8,3.1l0.8,2.1l1.6-0.5L445,82l0.8,0.3l1.9-1.4l2.8,0.5l3.3,1.6l0.1,1.7l1,0.7l1.1,2
	l2.4-1l2.6,1.2l1.6,0.1l0.5,1.5l3,1.7l0.4,0.9l0,3.9l1.8,1.5l-0.1,1.1l3.2,3.6l1,1.9l2.7,1.1l1.9-0.9l3.4,1.1l0.8,1.2l2.1,1.3
	l0.3,3.6l-1,1.8l-0.2,2.3l-0.7,0.5l0,4l-1.8,3.6l-2.9,1.3l-3.9-2.2l-0.9,2.2l-3.4,2.3l-1.8-0.9l-1.5,2.8l-0.2,2.3l-0.8,1.1l1,4.4
	l-2.6,3.1l-0.3,1.4l0.8,2.3l-0.6,2L463.6,147.5z"/>
<text transform="matrix(1 0 0 1 392.3223 266.9541)" class="textName">Anugul</text>
<text transform="matrix(1 0 0 1 204.7471 302.9111)" class="textName">Balangir</text>
<text transform="matrix(1 0 0 1 683.0703 190.396)" class="textName">Baleshwar</text>
<text transform="matrix(1 0 0 1 181.0522 180.7529)" class="textName">Bargarh</text>
<text transform="matrix(1 0 0 1 316.7705 287.8584)" class="textName">Boudh</text>
<text transform="matrix(1 0 0 1 666.8262 247.8511)" class="textName">Bhadrak</text>
<text transform="matrix(1 0 0 1 520.2217 319.9106)" class="textName">Cuttack</text>
<text transform="matrix(1 0 0 1 393 174.4849)" class="textName">Deogarh</text>
<text transform="matrix(1 0 0 1 473.7773 283.8252)" class="textName">Dhenkanal</text>
<text transform="matrix(1 0 0 1 380.1543 589.4395)" class="textName">Gajapati</text>
<text transform="matrix(1 0 0 1 380.9707 460.2109)" class="textName">Ganjam</text>
<text transform="matrix(1 0 0 1 623.7568 385.0117)" class="textName">Jagatsinghapur</text>
<text transform="matrix(0.6842 0.7293 -0.7293 0.6842 549.7829 254.1162)" class="textName">Jajapur</text>
<text transform="matrix(1 0 0 1 176.3896 135.5605)" class="textName">Jharsuguda</text>
<text transform="matrix(1 0 0 1 186.2964 434.668)" class="textName">Kalahandi</text>
<text transform="matrix(0.4065 -0.9136 0.9136 0.4065 321.5618 409.3473)" class="textName">Kandhamal</text>
<text transform="matrix(1 0 0 1 664.9014 321.478)" class="textName">Kendrapara</text>
<text transform="matrix(1 0 0 1 477.7754 158.666)" class="textName">Kendujhar</text>
<text transform="matrix(1 0 0 1 487.1768 365.0005)" class="textName">Khordha</text>
<text transform="matrix(1 0 0 1 158.6533 566.9199)" class="textName">Koraput</text>
<text transform="matrix(0.5789 -0.8154 0.8154 0.5789 93.237 679.1196)" class="textName">Malkangiri</text>
<text transform="matrix(1 0 0 1 556.4375 126.9585)" class="textName">Mayurbhanj</text>
<text transform="matrix(0.4427 0.8967 -0.8967 0.4427 120.6012 411.2664)" class="textName">Nabarangpur</text>
<text transform="matrix(1 0 0 1 397.4023 348.8306)" class="textName">Nayagarh</text>
<text transform="matrix(1 0 0 1 67.106 290.4658)" class="textName">Nuapada</text>
<text transform="matrix(1 0 0 1 528.3799 447.1152)" class="textName">Puri</text>
<text transform="matrix(1 0 0 1 237.4834 504.96)" class="textName">Rayagada</text>
<text transform="matrix(1 0 0 1 325.4316 220.8086)" class="textName">Sambalpur</text>
<text transform="matrix(1 0 0 1 293.8584 261.5884)" class="textName">Sonepur</text>
<text transform="matrix(1 0 0 1 330.1929 63.1182)" class="textName">Sundargarh</text>
</svg>
