<?xml version="1.0" encoding="utf-8"?>
<!-- Generator: Adobe Illustrator 26.0.0, SVG Export Plug-In . SVG Version: 6.00 Build 0)  -->
<svg version="1.1" id="Layer_1" xmlns="http://www.w3.org/2000/svg" xmlns:xlink="http://www.w3.org/1999/xlink" x="0px" y="0px"
	 viewBox="0 0 800 730" style="enable-background:new 0 0 800 730;" xml:space="preserve">
<style type="text/css">
	.st0{stroke:#000000;stroke-miterlimit:10; cursor:pointer;}
	.textName{font-family:'Arial'; font-weight:bold; color:#000000; font-size:14px; cursor:pointer;}
</style>
<path id="D675" class="st0" d="M313.6,380.7h-1.9l-3.1-1l-0.5-1.1h-1.6l-1,1.5l-1-0.6l-0.5-3.2
	l-2.3-1.5l0.2-1.9l1.8-3.4v-6l-1.9-3.1h-1.6l-2.8,1.1l-0.8,1.3l-3.4,0.2l-1.5-0.8H291l-3.6,2.3l-3.7-0.2l-1.5-0.6l-3.1-0.3l-1.1,1.8
	l-2.1,0.3l-2.7-3l-2.3-0.1l-4.2,3.2l-3.5,1.5l-3.6-0.5l-1.3,1.5l-0.5,3.9l-0.9,0.7v0.8l3.1,2.8l0.7,5.1l-2.3,1.1l-3.8,5.8l-5.9,2.9
	l-3.6,0.7l-4.6,5.5l-0.9,3.9v4.4l1.9,0.7l1.5,1.9l2,0.1l2.1-1.6h2.9l1.2,1.6h2.5l1.7-1.5l1.9-0.1l0.4,1.7l4.6,3.8l0.7,2.9l-1.7,1.7
	l-1.9,0.4l-1.3,2.1l2.1,3.5l0.3,1.1l-0.3,3.3l5,0.4l1.7,2.3l3.5,1.8l5.7,1.1l11.6-3.9l0.7-4.4l0.5-4.6l3.9-2.5l5.2-2.5l5.6-0.1
	l5.2-6.6l3.7-6.8l0.8-5.8L313.6,380.7z"/>
<path id="D678" class="st0" d="M467.7,277.3l-2.1-0.4l-2.6,0.3l-3.4,1.6l-6.4,0.7l-4.7,3.4
	l-3.3,0.3l-2.5-1.5l-6.3-2.6h-3l-3.6-0.5l-1.5-1.2l-2.5,0.1l-3.2,1l-2.4-0.6c-0.3,0-7.7-0.4-7.7-0.4l-0.8,1l-7.7-0.3l-3.9-3.3
	l-1.1,0.3l-0.5,1.1l-1.9,0.1l0.1-2.1l-3.6-5.1l-4.3-0.9l-7.9-3.7h-2l-4.2,1.8l-3.9,1.7l-1.8,1.6l-1.6,0.1l-1.1-0.6l-4.1-0.9
	l-0.9,4.8l-3.1,2.7L351,277l-3.7-0.7l-3.2,2.1v3.3l-0.4,2.7l-3.1,2.8l-2.3,2.8v3.3l-1.7,3.8l2.1,0.4h2.3l2.4-1.5l5.4,0.5l5,3.7
	l2.3,0.1l2-1l2.2,0.9l-0.3,3.3l-1.1,1.1v2.8l1.8,0.8l3.1-0.2l4.1,3.4v0.9l1.4,1.8l4.2,0.6l0.8,2.3l-0.7,1.5l0.8,3h2.3l3.3-1.4l4,0.8
	l5-4.1l2-0.7h1.8l0.6,1.6l-3.1,4l0.1,2.8l1.9,1.7h6.7l1.4,0.8l1,1.4h1.4l0.4-0.7l4.4-1.4l1.1-1h1.2l0.8,0.8l2.8,0.4l4.3-4l5-2.2
	l3.1-0.4l3.2-1.8l4.2-0.2l2.8,0.5l4-1.7l1.2-4.3l0.4-6.3l-2.5-4.3l0.4-2l1.9-1.1l6,0.5l1.2,0.2l3.7-1l3.6-2.3l1.6-1l1.2,1.1l1.2-0.4
	l2,0.6l4.2-4l0.4-2.5l-1-3l1.6-2.9l0.4-5.2v-1.5H467.7z"/>
<path id="D672" class="st0" d="M508.5,8.3l-4.6,0.6l-3.4,4.4v2.9l-1.9,2.7l-2.5,0.4l-2.9,3.8
	l-0.6,4l-3.4,4l-8.6,3.4H476l-6.1,1l-5.4-0.6l-1.9-1.5l-4.2-1.3l-3.4-4l-1.7-2.3l-1.1-1.1l-2.7,0.8l-1,2.5l-5.6,2.3l-3.1-1.1l-4.6,1
	l-2.1,3.6l3.2,2.1l3.6,0.9l7.6-0.3l2.4,2.5l0.3,2.8h3.1l2.1,3.3l5.1-0.9l2.5-3.1l1,0.6l0.4,2.5l1.2,0.6l1.6,2.7l4,3.3l3.1-0.3
	l3.4,2.2h3.9l2.4-1.6l1.6,1.3l-1.2,2.2l1,0.6v4.9l-1,2.4l2.2,1.6v3.6l-1.8,3.4l1.9,1.6l1.9-0.7h3.4l4.2-1.2l1.6,1.6l-0.3,2.2
	l-1.3,1.8l0.7,3.6l3.6-0.6l4.3-3.9l0.6,4l-1,1.3l0.1,2.7l1.3,1.5v1.3l-3.4,1.2l-1,3l1.8,2.8v1.6h-5.4c-0.3,0-0.5-0.1-0.8-0.1
	c-0.2-0.1-0.4-0.2-0.5-0.3c-0.3-0.2-0.4-0.4-0.4-0.4h-2.7l-3,2.4l1.3,2.8l-1,4.3l0.9,5.1l4.6,0.6l1.2,1.6l2.1,2.5l1.5,3.3l3.7,1.5
	l3.1-1.2l0.6-7.1v-4.5l3.1-2.5l1.5-0.1l0.9,2.2l2.5,1l4.5,0.3l4.3,2.1l1.5,2.7l0.3,4l0.9,3l0.8,2.4l4.2-4.2l6.8-3.7l3.4-4.7
	l12.1,0.5l7.1-0.8l10.8,6.6l4.5-3.2l4,0.4l-0.8-4.9l2.1-8.2h1l-0.4-1.9l-1.9-1.5l-1-2.1l-3.1-0.2l-2.3,2.5h-1.9l-1.7-2.9l1.1-2.5
	l0.4-7.3l4.2-4.2l1.5-4.8l-0.8-6.3l-3.4-3.4l-3.3-0.2l-2.5,4l-0.6,4.2h-2.7l-1.1-1.5l-3.4-1.3l-4.4,0.2l-3.3-0.6l-2.7-3.8l-2.1-0.8
	v-1.1l1.5-0.6l-0.8-1.9l-3.1-1.5v-2.7l2.1-2.9l-1.3-5.6l-1.9-1.1l-1-5.4l-4.4-0.6l-1.5-1.9l-7.5-1l-0.6-1.1l1-1.5l-1.3-1.3l-2.1-0.6
	l0.2-3.1l-2.3-3.6l-1.1-1.3l-1-3.6l0.8-1.5l-1.1-1.9l-4.2-0.8l-2.3-1.7l-0.4-2.1l-1.1-1.9h-2.5l-3.4-1.9L508.5,8.3z"/>
<path id="D414" class="st0" d="M368.5,529.1l-3.1-0.8l-0.6-0.9l-0.8-2.3l-2.1-1.5l-4,0.3l-1.1,0.7
	l-4.5-0.6l-0.8-0.9l-1.4,0.3l-1.3,1.1l-0.2,1.5l2.1,2.6l-0.1,1.1l-0.5,1l1.2,1l-0.5,2.5h-1.3l-0.4-0.7l-3,0.2l-1.1,2.9l1.2,3.6
	l-0.2,3.2l-1.5,2.2H342l-2.9,1.4l-5.8-0.7l-1.2-0.7l-1.4,0.1l-1.6,2.4v5.2l4.3,1.4l0.6,1.2l-0.9,0.6l-2.2-0.5l-0.2-0.8h-2.2
	l-0.9,1.3l-1.4,0.2l-2.2-2l-3.5,0.3l-2.6,1.5l-2.7,0.9l-1.4-0.1l-4.8-3l-1.3-1.6l-2.2-1l-3.8,0.4l0.2,3.3l-0.6,1.3v1.4l3.2,2.5h4.9
	l0.5,0.8h0.9l1.6-1.6l1.7,0.5l-0.9,4.2l-1.3,2.2l1.5,9.3l-0.9,2.7l-2.1,1l-3,2.4v4.6l-0.9,1.7l3,2.9l6.3,0.9l-0.1,2.4l-1.6,1.3
	l7.1,5.6l2-0.6l10.6-0.1l3.4,2.7v4.7l1.3,1l5.4,0.9l1.9-1.3l3.7,1.1l2.4,1.4l1.9-1.3h2.3l2.7,1.3l1,5.1l2.3,4.1c0,0,0.2,0.3,0.4,0.5
	l1.8-2.1l4.7-2.1l3,1l2.7-0.8l-0.6-1.3l1.1-2.7h3.4l3.2-2.4l1.4-5l-0.8-4l2.4-4.3l2.6-1l1.6,0.6l1.8-0.6l-0.8-5.6l0.2-4l-1.4-3.9
	l-2.2-0.8l-1.8-3.4l0.5-2.6l1.3-0.5l0.3-2.2l-1.3-1.6l-2.7-0.6l-0.2-2.2l1.9-1.1v-2.7l-2.6-1.6l-0.5-4.7l-0.2-3.4l2.6-4l1.4-0.5
	v-1.4l-4.7-2.2l-0.2-1.1l1.6-1.3l1.4,0.3l2.2-1.9l-2.1-1.1l1.4-1l0.2-1.3l-1.6-1l-2.1,1.1l-3.7-1.1l-0.5-1.9l-1.4-0.8l0.3-2.2l-1-4
	l-2.1-1.7l-1.7,2.1h-2.9v-1.3H368.5z M350.5,614.3l-5,1.6l-7,0.6l-4.7,1.3l-3,2l-2.1,0.4l-1.4,1.7l0.3,1.3l2.9,1.9l11.6,0.4l3.4-2.1
	l3.1-0.6l5.1-4.1v-3L350.5,614.3z"/>
<path id="D676" class="st0" d="M275.6,308.4l4.9-0.9l2.3-1.5l4.5,0.6l1.3-0.9l-1-2.1l1.8-0.3
	l2.1-1.5l2.6,2.6l1.9,0.2l2.8,2.3l3.6,0.2l2.3,3.7l-0.8,3.6l-1,0.8l-0.5,1.9l3.6,2.3l2.3,2.6l3.6,1.3h3.2l4.1,2l1.9-4.4l1.9-6.4
	v-2.4l3.3-4.1l5-4.4l5.6-6.6l1.7-3.8V290l2.3-2.8l3.1-2.8l0.4-2.7v-3.3l3.2-2.1l3.7,0.7l7.2-1.2l3.1-2.7l0.9-4.8l-1.5-2.1l-4.7-2.3
	l-0.5-0.9l-1,0.1l-2.3,2l-2.4,0.3l-2-1.8l-1.3-4.4l-0.2-2.3l-3-3l-3-0.3l-3.4,0.1l-3.3-0.7l-0.6-1.1l-2.4-1.4l-5.6,0.2l-2.8-0.2
	l-0.7-1.1l-1.1-0.7l-2.3-0.4l-2.3,1.2l-2.3,2.2l-1.5,2.1v4.3l-1.8,2.3l-2.7,0.4l-1.5,1.1l0.5,4.9l-1.1,2.2l-1.8,1.1l-5.8,3.8
	l-0.1,2.8l-1,0.9l-8.3,3l-4.2,2.2l-3.3,3.5l-2.4,0.7l-1.2,1.2l-0.4,3.8l-1.9,5.6l-1.3,3.9l0.1,2.1l0.9,1.7L275.6,308.4z"/>
<path id="D417" class="st0" d="M258.4,679.6C258.4,679.5,258.4,679.5,258.4,679.6
	c0-0.1,0.3-0.4,1.8-1.6c0.4-0.3,0.6-0.6,0.7-0.8c0.1-0.3,0.1-0.5,0.1-0.7c-0.1-0.4-0.3-0.7-0.3-0.7l-2.1-3.8l-0.3-3.3l2-4.1
	l-0.5-3.1l-2.5-1.5h-3.5h-3l-1.5-1.8l1-2.8l5-4.1l0.8-5.1l2.8-3.1l4.3-0.7l3-2.5l6-1.7l3.5,0.5h5.3l2.3,1.5l2.1-0.7l0.2-3.3
	l-1.7-4.6l-1.2-0.5l-3,2.3l-1.2-0.3l-0.7-2.5l0.8-4.8l3.8-4.8l0.3-7.1l-1.7-5.1l2.3-6.3l1.7-5l-0.5-2.8l-5.1-1.7l-1-2.3l1-2.1l4.6-2
	l1.8-2l-1.7-1.8l-1.5-4.8l-0.3-4.8l0,0l-8,0.1l-9.7-2.9l-2.3-2.3l-1.3,0.1l-2,2.4l-3.9,1.2l-3.1-1.1l-2.7-3.9l-1.9-4.4l-1.5-0.6
	l-2.4-0.2l-1.5-1.4l-0.9-1.6l-2.3-0.7l-1.9,1.1l-1.2,3.3h-2v-1.8l1-2.5l1.5-0.6l1.1-2.3l-0.1-0.9l-1.4-1.5l-0.1,0.3l-2.8,1.7h-1.4
	l-1.5,1l-1.8-0.4l-1-1.2l-0.5-2l0.8-1.4l-0.6-1.3h-1.3l-2,1l-0.6,1.9l-1.3,0.6H220l-1.2-1.3v-2l-0.8-1.3h-1.2l0.5-3.2l1.2-0.4
	l-0.1-1.5l-2.3-2.3l-1.8,1.2H213l-1.9,1.8l0.1,3.3l-1.5,1.4l-1.7,0.3l-1-0.8l-2.2,1.4l-1.3,3.7v1.2l-0.6,2.7l-3.5,1.2l-2.6,0.1
	l-1.8,2v1.6l1.7,2.7l-1,1.7l-2,0.4l-4.1,3.8v2.6l1.8,3.1v1.7l-2.8,1.9l-1.4-0.1l-0.5,1.5l0.3,3.5l-1.9,1l-1.7,2.4l0.8,5.4l2.6,1.5
	l2.3,3.2l1.8,3.5l2.3,2.6l-1.2,2.7l-3.2,1.9l-1.8,0.1l-0.8,1.8l-2.9,1.7h-1.7l-0.3,1.9l2,1l3.1,3.8l1.7,3.2l2.7,7.3l1.7,2.2l1.7-1.4
	l1.5-0.1l1.9,1.4l0.9-0.1l0.8-2l3.2-2h4.9l2,1l0.9,3.1l3.2,2.6l0.9-0.8l4.7,4.5l2,0.8l0.9,1.5l0.1,3.1l2,1.5l2.3,0.9l1.5,2.4v2.2
	l1.2,1.3l1.8,0.6v4.7l2.2,3.2l0.3,4.6l3.1,2.9h1.3l0.9,0.9l-0.9,1.7l-2.9,1.8l-1.9,0.6l-0.4,4l0.4,2.4l4.1,0.9l1.4-1.3l1.7-0.2
	l1.8-1.2l-0.2-1.9l-0.8-1.9l0.7-0.7l0.5-1.6l1.3-0.2l0.4,1.1l2.5,1.7l0.1,1.6l-1.9,0.4l-0.4,1.6l0.2,2.5l1.3,0.5l0.5,2.1l-0.7,1h3.9
	l2.9-1.9l1.5-2.4l1.2,0.1l0.5,1.6l2.3,0.1L258.4,679.6z"/>
<path id="D406" class="st0" d="M374.7,266.3l4.2-1.8h2l7.9,3.7l4.3,0.9l3.6,5.1l-0.1,2.1l1.9-0.1
	l0.5-1.1l1.1-0.3l3.9,3.3l7.7,0.3l0.8-1c0,0,7.5,0.4,7.7,0.4l-1.4-3.4l-4.5-2.9l-3.4-0.1l-4.2-5.1l-2.1-4.6l-0.4-3.5l-2-2.9
	l-0.3-5.1l1.6-2.1l0.8-6.6l0.7-1.6l0.9-4l1.3-3.8l1.6-1.1l1.9-1.6l2.3-0.2l3.3-1.1l0.7-1.8v-1.9l1.8-1.4l0.5-2l-0.9-1.2l-0.3-1.4
	l-1.2,0.4l-1.2-0.8l-1.5-0.4l0.1-4.7l-2.1-3.3l-2.6-0.4l-0.5-0.8l-1.1-0.1l-5.8,2.5l-1.4,1.4l-2.2,0.4l-0.6-1.1l-2.7-0.4l-1,0.7
	l-3.3-0.5l-2.9-1.8v-1.6l-1.1-0.8v-1.7l2.4-2.5l0.8-0.2v-1.1l-1.5-1l-2.7,0.1l-2.7-2.7l-0.3-1.8l0.8-1l0.3-7.6l-1.4-1.1l-1.7-0.6
	l-1.3-1.1h-1.8l-2,0.7l0.1,1.4l0.7,1.7v1.3l-2.3-0.2l-2.4,0.4l-3.5,0.3l-2.2-1l-1.5-1.6l-1.6-2.9l-3.1-0.8l-3.3,0.6l-2.4,1.1l-3-0.7
	l-5.8,3.5L345,193l0.7,1.4l1.8,0.8l2.4,2.7l2.8-0.2c0,0,1.7,0.6,2.1,0.8c0.1,0,0.2,0.3,0.3,0.8c0.1,0.4,0.2,1,0.3,1.5
	c0.2,1.1,0.3,2.1,0.3,2.1l3.8,4.3v4.4l-0.6,2.3l-1.9,1.9l-3.7,0.4l-2.1,2.6l-1.8,0.9l-4.6-0.3l-1.3-1.4l-6-0.3v0.9l1.5,1l0.4,2.8
	l-0.5,0.7l0.2,1.4l2.3,0.5l1.8,2.4l1.2,0.4l1.1-0.4l3.4,2.1l6,6.4l1.7,2.7v2.2l1.4,2.1l1.3,0.2l1.2,0.9l0.6,3.7l2,1.9l1.9,0.5
	l0.8,1.1l-0.3,2.8l0.9,2.3l3.2,3.4l3,0.9l0.2,1.2l-0.7,1.9L374.7,266.3z"/>
<path id="D416" class="st0" d="M311.7,566.9l-6.3-0.1l-2.8-1.9h-0.9l-2.2,1.2l-2.4-0.2l-1.7-1.3
	l-7.5-0.3l-2.1,1.5l0.4,3.1l-2,2.7l-1.7,1.3l0.3,4.8l1.5,4.8l1.7,1.8l-1.8,2l-4.6,2l-1,2.1l1,2.3l5.1,1.7l0.5,2.8l-1.7,5l-2.3,6.3
	l1.7,5.1l-0.3,7.1l-3.8,4.8l-0.8,4.8l0.7,2.5l1.2,0.3l3-2.3l1.2,0.5l1.7,4.6l-0.2,3.3l2.5,2l1,2.4l1.7,1.3h2l1.3,1.6l0.1,2.1l2.4,1
	l3.5-1.7l0.7-3.5h1.7l2.8-1.3l1-0.1l1.1-3.1l-1.7-1.8l0.7-4.4l0.7-1.6l0.4-1.8l1.7-0.7l0.6-2.1l3.8-1l1.4,1.4l1.8-0.4l0.9-2.6
	l-1.3-1.6l0.1-1.1l1.6-0.9l-0.1-2.8l1.1-3.3l1.7-0.1l2.1-1.7l2.6-0.4l0.3,1.3l2.4,0.3l1.3,1.8v1.8l1.3,1.5l3-2l4.7-1.3l7-0.6l5-1.6
	l1.3-2.7l-2.4-1.4l-3.7-1.1l-1.9,1.3l-5.4-0.9l-1.3-1v-4.7l-3.4-2.7l-10.6,0.1l-2,0.6l-7.1-5.6l1.6-1.3l0.1-2.4l-6.3-0.9l-3-2.9
	l0.9-1.7v-4.6l3-2.4l2.1-1l0.9-2.7L311.7,566.9z"/>
<path id="D412" class="st0" d="M371.2,468.8l-0.1-0.7l-1.3-1.5v-3.4L368,461v-1.2l3.8-2.2l1.2-2.4
	l5.7-3.3l0.3-1.9l-1.5-3.3l0.9-2.6l1.5-1.7l0.3-2.7l-1-1l-2.6,0.3l-3.1-1.5l-1.9-3.9l0.3-3.9l0.5-3.1l-0.3-4.3l-3.1-3.4l-1-4.1
	l1.4-2.1l0.2-1.5l-2.7-3.1l-0.2-3.4l-2.6-2.2v-1.9l1-1.9l-1-2.1l-2.7-1l-4.6,0.2v-2.6l1.5-3.9l-0.2-1.4l-1.9-2.7l-2.1-5.3l1-2.7
	l1-0.9v-4.5l-1.2-0.7l-3.6,2.1h-2.6l-2.4-2.1l-1.2-5.1l-2.4-1.9l-2.7-0.2l-3.6,1.4h-9.1l-3.4-2.3l-0.5,4.6l-5.4,4.9l-2.6,1.8
	l-1.8,3.2l-0.1,3.5l-0.3,14.4l-0.8,5.8l-3.7,6.8l-5.2,6.6l1.8,2.6l0.1,1.7l2.4,1l1.2,1.2l1.7,0.1l4.5-2.2h5l1.1,0.3l1.9,0.4l2.2-1.3
	l4.5-0.3l0.8-0.7h2l0.8,1l3.6,1.3v1.2l-1,3.5l-0.5,1.1l-0.2,2.5l1.4,1.1l1.2,4.6l0.3,5.6l1.4,1.2l2.4,0.8l0.9,3.5l-0.4,2.3l0.5,3.3
	v2.6l4.2,3l0.5,2.4l1.5,1.8l4.3,1l2,1.5l2.1,0.9l0.3,0.2l0,0l3.3,0.4l3.3,5.6l2.9,0.6l1.1,3.4l1.1-0.2l1.3-2.5v-1.9L371.2,468.8z"/>
<path id="D409" class="st0" d="M324,362.8l-1.5-2.4l0.3-4.2l4.1-1.6l0.3-2.7l-2.4-5.2l-9-5.2
	l-0.3-4.1l2-6.1l1.7-6l-4.1-2h-3.2l-3.6-1.3l-2.3-2.6l-3.6-2.3l0.5-1.9l1-0.8l0.8-3.6l-2.3-3.7l-3.6-0.2l-2.8-2.3l-1.9-0.2l-2.6-2.6
	l-2.1,1.5l-1.8,0.3l1,2.1l-1.3,0.9l-4.5-0.6l-2.3,1.5l-4.9,0.9l0.2,0.7l-0.3,4.6l-0.8,0.5v1.2l2,2.4l0.4,2.9L277,325l-0.7,0.4
	l0.8,1.9l-0.1,6.2l-1.2,2.5l-0.7,4.6l1.2,2.8l2.9,2l0.4,3.5l-1.3,1.2l-2.4,0.5l-0.8,1.7l-0.9,6l-0.9,3.8l2.7,3l2.1-0.3l1.1-1.8
	l3.1,0.3l1.5,0.6l3.7,0.2l3.6-2.3h0.8l1.5,0.8l3.4-0.2l0.8-1.3l2.8-1.1h1.6l1.9,3.1v6l-1.8,3.4l-0.2,1.9l2.3,1.5l0.5,3.2l1,0.6
	l1-1.5h1.6l0.5,1.1l3.1,1h1.9l0.1-3.5l1.8-3.2l2.6-1.8l5.4-4.9L324,362.8z"/>
<path id="D677" class="st0" d="M401.8,375c0-0.1-0.1-0.4-0.1-0.4l-1-3l-2.5-1l-4.8,3.2l-2.9-0.4
	l-0.8-3.5l1-2.3l-2.8-2l-3.4,0.7l-1.3-1.1l-1.4-6.6l-6.5-5.4l-2.9-0.4l-1.7,0.5l-1.2-2.9l-2-1l-2.9-0.2l-1.7,2.2l-2.5,1.8l-1.1,1.6
	l-0.4,2.9l-1.3,2.3l-3.8,2.4l-3.7,1.3l-2,1.8l-1.8,0.4l-1.2-0.2l1.2,5.1l2.4,2.1h2.6l3.6-2.1l1.2,0.7v4.5l-1,0.9l-1,2.7l2.1,5.3
	l1.9,2.7l0.2,1.4l-1.5,3.9v2.6l4.6-0.2l2.7,1l1,2.1l-1,1.9v1.9l2.6,2.2l0.2,3.4l2.7,3.1l-0.2,1.5l-1.4,2.1l1,4.1l3.1,3.4l0.3,4.3
	l-0.5,3.1l-0.3,3.9l1.9,3.9l3.1,1.5l2.6-0.3l1,1l-0.3,2.7l-1.5,1.7l-0.9,2.6l1.5,3.3l-0.3,1.9l-5.7,3.3l-1.2,2.4l-3.8,2.2v1.2
	l1.7,2.2v3.4l1.3,1.5l0.1,0.7l2.1,0.2l1.1,2.3h2.1l0.8,2.1l1.7,0.4l1.5-0.6l3.4,1.9l1,2.7l2.7-0.6l0.6-1l0.2-1.5l1.7,0.6l2.3,1.7
	l1.3,5.6l2.7,5.4l2.9,2.3l1.5,4.8l3.3-1.9l0.6-2.5l1.1-1.9l3.1-1.1v-1.1l4.4-1.1l5,1.3l2.1,2.1l4.2-0.2l2.1,1.1v3.1l-1.1,1.5
	l-0.4,3.4l1.9,0.8l0.4,2.5l3.4-2.1c0,0,1.3-2.1,2.5-3.8c1.1-1.7,2.7-2.1,2.7-2.1l3.3,0.8l1.9-2.3v-3.1l-2.5-2.5l1.9-2.1l-0.2-7.9
	h-1.9l-2.9-1.1H431l-1.7,1.5l-2.7-0.8l-0.8-1l-3.1-1.5h-4l-4.6-1.3l-2.7-1.9H408l-2.1-1.5l-0.2-2.3l1.5-1.1l-0.4-4.8l-1.1-1.7
	l0.6-1.9l2.7-3.4l0.2-3.3l-1.7-1.7l0.8-2.9l1.9-2.3l-0.4-2.1l-3.1-2.5l0.4-2.1l1.3-1.1l1.7-4.8l0.2-3.8l-1.7-3.1l0.4-1.7h-1.9
	l-0.6,3.3l-1.3-1.3l1-4l-1.3-1.5l-3.1-2.1l-0.4-2.7l-1.1-1.7l1.1-3.4l1.3-0.4l0.6-2.3l1.1-1l-0.6-3.1l-1.7-2.3l-0.4-4l-1.9-6.9
	l1.1-7.5l0.4-3.3l-1.1-1.5L401.8,375z"/>
<path id="D680" class="st0" d="M335.8,175.3l-0.1,1.7l0.3,1.1l2.2,3.3l1.3,0.6l1.6-0.7l1.7,2
	l0.2,3.2l2.8,2l5.8-3.5l3,0.7l2.4-1.1l3.3-0.6l3.1,0.8l1.6,2.9l1.5,1.6l2.2,1l3.5-0.3l2.4-0.4l2.3,0.2v-1.3l-0.7-1.7l-0.1-1.4l2-0.7
	h1.8l1.3,1.1l1.7,0.6l1.4,1.1l1.4-2.1l2.4-1.2l1,0.1l0.3,0.7l2.7,0.2l1.6-2.1l1.3-0.1l0.6-1.7l-0.8-1l-0.1-1.2l1.4-0.8l-0.2-2.9
	l-8-0.4l-1.5-1.9l0.1-1.8l0.8-1.8l-0.2-1.6l-3.5-2.7l0.1-1.4l1.1-0.9l1.6-2.5l0.3-1.4l-0.9-1l-1.9-2l-0.5-2.3l0.5-2.5l0.5-0.6
	l0.5-1.9l2.3-3.2l3.3-2.3l1.6-2.3l-1.8-1.9l-1.4-3.4l0.8-1.4v-1.6l-3.7-2.3l-0.6-3.3l0.6-1.7l-2.5-3.3l-1.2-0.9l-0.9-1.3l-0.9,1.9
	l-2.3,2.1h-2.5l-2.1-1.5l-2.9,1.1l-2.1,2.9l-4,0.8l-2.3-0.8l-4.6,2.5l-0.4,3.1l1.7,5l-1.5,3.1l-1.9,1.3l-4.4,6.1l-6.7,2.1l-1.3-1.1
	l-2.9,1.3l0.2,5.7l2.5,2.9l-0.2,4.4l-2.4,1.9l-1.7,0.8v2.2l1.2,1.1v2c0,0-1.4,0.7-1.8,0.9s-0.1,1.9-0.1,1.9l1.2,1.6l-0.1,0.3
	L335.8,175.3L335.8,175.3z"/>
<path id="D405" class="st0" d="M465.6,228.9l-2.2-0.9l-1.1-1h-2.4l-9.8,1.8l-0.9,0.3l-1.3,0.1
	l-0.9,1l-1,2.7l-1.7,2.1l-0.7,0.1l-1.2-1.1l-6.3-3.7l-1.3-3.5v-2.6l0.9-1.5l1-3.5l0.7-0.5l-0.2-1.6l-0.5-0.3l-0.5-1l-2.5-0.3
	l-2.1,1.5l-1.6,3.1l-2.3,0.3l-1.9-0.9l-0.9-1.2l-6.3-0.5l-0.7,0.8l0.3,1.4l0.9,1.2l-0.5,2l-1.8,1.4v1.9l-0.7,1.8l-3.3,1.1l-2.3,0.2
	l-1.9,1.6l-1.6,1.1l-1.3,3.8l-0.9,4l-0.7,1.6l-0.8,6.6l-1.6,2.1l0.3,5.1l2,2.9l0.4,3.5l2.1,4.6l4.2,5.1l3.4,0.1l4.5,2.9l1.4,3.4
	l2.4,0.6l3.2-1l2.5-0.1l1.5,1.2l3.6,0.5h3l6.3,2.6l2.5,1.5l3.3-0.3l4.7-3.4l6.4-0.7l3.4-1.6l2.6-0.3l2.1,0.4l3-1.8l3.9-1.8l3.4,0.3
	l2.5-1.6l2.1,0.3l1.7,2.3l6.4,1.9l2.3-1.7l6-0.5v-1.4l-0.6-1.7l-2.5-1.9l-0.5-1.6l0.4-1.7l-1.4-0.5l-1.7,1l-2.5-2.2l0.3-4.7
	l-0.5-2.1l-6.6-7.1H480l-0.8,1.2l-1.8-0.3l-2.1-3.8l-1.2-5.7l-2.3-0.9l-2.7-0.3l-3.2-3.8L465.6,228.9z"/>
<path id="D402" class="st0" d="M581.9,111.3l-4-0.4l-4.5,3.2l-10.8-6.6l-7.1,0.8l-12.1-0.5
	l-3.4,4.7l-6.8,3.7l-4.2,4.2v2.1l3.2,1.1l0.5,2.1l-2.1,7.6l-2.4,3.9l2.1,5.5l0.5,5.5l8.7,2.4l0.8,3.7l6.1,2.9v1.8l-1.3,2.9l1.1,6.1
	l3.9,7.1v2.6l-3.9,0.5l-6.3-6.6l-6-0.3l-2.6-2.1l-5.3,1.3l-4.2,3.2l-4.8,1.1l-0.5,3.9l-3.2,3.4l5.6,8.4l4.7,1.3l9.2-4.5l1.6,0.8
	l-0.5,12.9l5.5,5.8l4.5,2.1l4.5-1.6h2.9l2.9,4.5l3.7,3.2l0.4-1l3.4-4.2l5-0.6l1.5-1l4.8,0.8l4-1.5l1.1-5.7l1.5-0.4l0.4-3.4l-1-2.3
	l-2.5-1l-2.7-2.3v-2.1l2.1-1.9l-0.8-2.3l3.1-3.1l2.1-0.2l1.9-1.9l-0.4-2.5l2.1-1.3l2.9,0.2l3.3,1.1l4.4-2.9h1.5l2.7-2.5l1.3-4v-3.6
	l2.9-2.3l2.3,0.6l1-1.5l0.6-2.7l2.9-1.7v-4l1.7-2.9h3.3l1-1.3l0.2-3.8l1.7-1.9v-2.1l-3.6-1.9l-0.2-2.5l-3.4,0.2l-1.5,3.1l-3.8-1.5
	l-0.4-1.7l-2.9,1l-3.4-1.1l-1.5-2.7l-0.2-2.3l-2.3,0.6l-1,3.1l0.8,2.3l-1.3,2.1l-1.5-0.4l-0.2-1.9l-1.5-2.1l-0.6-3.6l0.8-2.1
	l-0.6-3.3l-3.1-3.1l-3.3-0.2l-3.1-3.8l0.2-3.6l2.5-3.1L581.9,111.3z"/>
<path id="D407" class="st0" d="M243.4,267.6l0.8,1l2.2,1.1l4.4,0.1l1.5,0.7l3,1.4l4.4,1l0.9,0.7
	v1.6l1,2.2l3.3,2.8l2.1,0.9l6.8,0.6l0.9,0.6h2.5l1.1-1.2h2.6l0.5,0.9l2.9,0.7l4.2-2.2l8.3-3l1-0.9l0.1-2.8l5.8-3.8l1.8-1.1l1.1-2.2
	l-0.5-4.9l1.5-1.1l2.7-0.4l1.8-2.3v-4.3l1.5-2.1l2.3-2.2l2.3-1.2v-6.4l1.3-1v-3.7l-1-1.1v-1.5l3.3-1.5l0.5-3.6l-3-5.1l-0.2-5.4
	l-0.9-2.3l-3.6-1.9l-1-3.2l1.3-2.4l0.8-6l-1.8-4l-2.8-3.5l-2.2-1.9l-1.9,2.5l-2.7,1.2v1.8h-1.2l-2.4-1.3l-1.1-4.1l0.6-1.9l-1.6-1.4
	l-4.5,0.4l-0.6-0.6l-1.5,1.3l0.7,2.1l1.1,0.9l-0.5,1.6l-1.2-0.2l-0.3-1.2l-1.3-0.9V193l-1.5-0.4l-1.3,1.1l-0.6,2.4l-2.2,1.2
	l-0.6,2.1l-1.4,0.2l-2-1.7l-0.5-1.3l0.2-2.6l-0.9-0.4l-2,0.8l-0.9,2.2l-2.7,2l-1.9,0.2l-2,2.7l1.2,5.5l1.1,1.3l-0.1,6l-0.5,2
	l-1.2,1.5l0.1,1.9l-1.7,1.3l-2.2,0.6l-1.1,1.5l-1.1-0.5l-1.6,0.8l0.4,2.1l0.8,1.1l-0.8,0.4l-2.1,2.3l0.1,2.3l1.5,1.6l-0.8,1.1
	l-1.2,0.6l-1.3-0.3l-1.3,0.7l0.4,1.6l1.9,1.2v1.3l-1.3,1.2l0.5,2.4l-0.8,1.3h-2.3l-0.9-4.8l0.1-1.7l-1.5-1.6l-2.9,0.3l-1.9,1.5
	l-0.4,2.3l-1.3,0.6l-0.6,1.7l-0.2,4.6l-1.6,2.3v2.3l-2.1,2.1l-1.8,0.6l0.1,0.9l0.8,0.5v2.5c0,0.5-1.2,2.3-1.2,2.3l1.1,2.9l1.2,1.2
	L243.4,267.6z"/>
<path id="D413" class="st0" d="M215.1,502.9l3-2.8l2.7-1l1,0.5l2-0.3l3.5-5.3c0,0,0.9-0.7,1.8-1.4
	c0.9-0.7,1.9-1.4,2.1-1.4c0.3,0,3-0.3,3-0.3l0.3,0.7l1.1-0.2l2.2-1.7l-0.3-1.6l-3.8-1.6l-1.8,0.3l-2.4,1.6l-2.5,0.3l-1.1-1.2
	l0.9-1.4h1l6.7-2.1l3.1-1.7l4.7-0.9c0,0,3.7-1.8,4.1-1.9c0.3-0.1,3.8-0.9,3.8-0.9l2.3,0.9l2.2,0.9l0.8,1l-0.1,5l2,3.1l4.7,1.9
	l0.9,1.4l-0.3,1.6c0,0-0.4,2.7-0.4,3c0,0.2,0.4,0.8,0.9,1.3c0.4,0.5,0.9,1,0.9,1h3.5l1.1,0.3l5.1,0.3l1.8,2.3l0.7,1.7l3.1,2h3.1
	l2.2-1.6l0.2-4.9l3.9-0.8l2.4,1.6l2.3,0.8l2.9,0.9l2.7-0.8l2-2.3c0,0,0.3,0.1,0.6,0.1c0.2,0,0.3,0,0.4-0.1c0.1,0,0.2-0.1,0.2-0.2
	v-1.9l-1.8-1.5l-0.7-8.2l-6.8-5.8l-0.6-3.6v-1.7l1.1-2.4l3.5-2.6l3-0.5l2-1.8l1.3-4.7l3.9-4.7l3.1-1.9l4.2-3.5l3.9-1.9l7.8-0.5
	l2.7,2.4l1.6,1.4l3.3,0.3c0,0,2.4-0.5,2.9-0.6c0.4-0.1,5.2-0.7,5.2-0.7l1.5-1.9v-2.6l-0.5-3.3l0.4-2.3L342,441l-2.4-0.8l-1.4-1.2
	l-0.3-5.6l-1.2-4.6l-1.4-1.1l0.2-2.5l0.5-1.1l1-3.5v-1.2l-3.6-1.3l-0.8-1h-2l-0.8,0.7l-4.5,0.3l-2.2,1.3l-1.9-0.4l-1.1-0.3h-5
	l-4.5,2.2l-1.7-0.1l-1.2-1.2l-2.4-1l-0.1-1.7l-1.8-2.6l-5.6,0.1l-5.2,2.5l-3.9,2.5l-0.5,4.6l-0.7,4.4l-11.6,3.9l-5.7-1.1l-3.5-1.8
	l-1.7-2.3l-5-0.4l-4.7,0.9l-6.7,4.2l-3.2,4.6l-3.5,1.9l-8.8,10.3l-2.5,1.1l-8,4.2l-4.3,4.3l-3.5,1.3l-2.5,0.3l-2.8,0.6l1.7,1.4
	l0.4,3.9l1.4,0.9l-0.9,2.4l-0.8,0.6v1.8l0.5,3.9l0.9,0.9l-0.3,2.4l-2.2,1.9v1.9l-2.4,1.1l-2.4-0.8l-0.8-2.3l-1.6-0.6l-0.4-0.5h-1.1
	l-1.9,1.4h-1.1l-1.1,1.6l0.4,2.7l3,1.4h3l1.5-1.1l2.4,1.1v1.8l-2.8,2.3l0.3,1l1.4,0.9v1.3l-1.3,0.5l-1.6-0.6l-2.7,1.5l-0.1,0.9
	l-2.7,0.5l-0.9-0.5l-1.1,0.5v1.3l3.3,0.3l2.7-0.5l1.4,1.3l1,0.9h1.4V498l-1.1-1.3l0.9-0.9l1.5-0.5l1.3-1.5l2.5,0.3l1.4,1.4v3.4
	l1,2.7L215.1,502.9z"/>
<path id="D674" class="st0" d="M358,463.4l-0.3-0.2l-2.1-0.9l-2-1.5l-4.3-1l-1.5-1.8l-0.5-2.4
	l-4.2-3l-1.5,1.9c0,0-4.8,0.6-5.2,0.7c-0.4,0.1-2.9,0.6-2.9,0.6l-3.3-0.3l-1.6-1.4l-2.7-2.4l-7.8,0.5l-3.9,1.9l-4.2,3.5l-3.1,1.9
	l-3.9,4.7l-1.3,4.7l-2,1.8l-3,0.5l-3.5,2.6l-1.1,2.4v1.7l0.6,3.6l6.8,5.8l0.7,8.2l1.8,1.5v1.9c0,0.1-0.1,0.2-0.2,0.2
	s-0.3,0.1-0.4,0.1c-0.3,0-0.6-0.1-0.6-0.1l-2,2.3l1.4,1.4l0.6,1.8l0.9,0.7l5.9-2l0.7-1.8l2.1-0.7l1.4,1.5l-0.3,2.5l-0.8,0.6
	l-0.3,1.8l2.6,2l2.1,0.9l-0.4,2l-3.7,0.6l-0.3,1.4l-2,2.4l0.7,1.6l-0.3,4.7l-1.5,3.4l-1.4,1.4l1,3.1l3.8,3.6v4.3l-1.3,1.2l-2.2-0.5
	l-0.4-1.7l-1.8-1.6l-2.1,1.3v1.7l1.4,1.8l-1,3.8L301,545l-1.2,2.5l0.4,1.8l1.3,1.5v0.7l3.8-0.4l2.2,1l1.3,1.6l4.8,3l1.4,0.1l2.7-0.9
	l2.6-1.5l3.5-0.3l2.2,2l1.4-0.2l0.9-1.3h2.2l0.2,0.8l2.2,0.5l0.9-0.6l-0.6-1.2l-4.3-1.4v-5.2l1.6-2.4l1.4-0.1l1.2,0.7l5.8,0.7
	l2.9-1.4h2.4l1.5-2.2l0.2-3.2l-1.2-3.6l1.1-2.9l3-0.2l0.4,0.7h1.3l0.5-2.5l-1.2-1l0.5-1l0.1-1.1l-2.1-2.6l0.2-1.5l1.3-1.1l1.4-0.3
	l0.8,0.9l4.5,0.6l1.1-0.7l4-0.3l2.1,1.5l0.8,2.3l0.6,0.9l3.1,0.8l0,0l1.7-1.3v-3.3l-0.8-1.1v-2.7l2.5-1.3l-0.6-6.1l-1-0.7l-0.2-4
	l0.8-4l1.7-1.5l-0.6-4l-1.3-0.6l-5.6,0.6l-1.7-1.1l-1-3.4v-1.5l-0.8-1.3l-2.7-0.4l-3.3-2.7l-2.3-0.2l-2.7-1.9l-2.1-4l0.2-2.3
	l1.3-2.7l-0.6-3.1l1.5-2.1l2.7-1.3l4.2-5L358,463.4z"/>
<path id="D404" class="st0" d="M478.4,167l-4.2,0.1l-1.3,0.5l-1.6,2.1l-1.8,0.7l-0.8-0.5l-4-2.1
	l-0.1-5.2l-3.8-3.4l-1.5,0.4l-1.8,2.1l-2.1-0.7l-3.8-2.8l-0.4-3.5l-4.2-1.9l-4.9-0.2l-6.5,1.7l-2.2-1l-3.3-3l-0.5-4.9l1.5-3
	l-0.4-4.6l-2.6-2.8l-1.9-0.4l-0.4-0.5L425,134l-0.6,0.7h-3.3l-1.2,0.9l-4,2.7L415,138l-2.9-3.3h-3.4l-5.9,1l-1.5,2.4l-1.6,2.9
	l-7.9-0.2l-1.6,2.3l-3.3,2.3l-2.3,3.2l-0.5,1.9l-0.5,0.6l-0.5,2.5l0.5,2.3l1.9,2l0.9,1l-0.3,1.4l-1.6,2.5l-1.1,0.9l-0.1,1.4l3.5,2.7
	l0.2,1.6l-0.8,1.8l-0.1,1.8l1.5,1.9l8,0.4l0.2,2.9l-1.4,0.8l0.1,1.2l0.8,1l-0.6,1.7l-1.3,0.1l-1.6,2.1l-2.7-0.2l-0.3-0.7l-1-0.1
	l-2.4,1.2l-1.4,2.1l-0.3,7.6l-0.8,1l0.3,1.8l2.7,2.7l2.7-0.1l1.5,1v1.1l-0.8,0.2l-2.4,2.5v1.7l1.1,0.8v1.6l2.9,1.8l3.3,0.5l1-0.7
	l2.7,0.4l0.6,1.1l2.2-0.4l1.4-1.4l5.8-2.5l1.1,0.1l0.5,0.8l2.6,0.4l2.1,3.3l-0.1,4.7l1.5,0.4l1.2,0.8l1.2-0.4l0.7-0.8l6.3,0.5
	l0.9,1.2l1.9,0.9l2.3-0.3l1.6-3.1l2.1-1.5l2.5,0.3l0.5,1l0.5,0.3l0.2,1.6l-0.7,0.5l-1,3.5l-0.9,1.5v2.6l1.3,3.5l6.3,3.7l1.2,1.1
	l0.7-0.1l1.7-2.1l1-2.7l0.9-1l1.3-0.1l0.9-0.3l9.8-1.8h2.4l1.1,1l2.2,0.9l3.2-5.2l0.5-4.1l2.9-3.2l1.2-2.9l-0.9-4.4l2.4-8.9l4.3-4
	l0.8-2.4l-0.3-3.7l1.7-5.2v-4.1l-2.6-3.1l-0.5-2.6l1.1-2.1l-1.1-3.2L478.4,167z"/>
<path id="D400" class="st0" d="M381.2,119.7l0.9,1.3l1.2,0.9l2.5,3.3l-0.6,1.7l0.6,3.3l3.7,2.3
	v1.6l-0.8,1.4l1.4,3.4l1.8,1.9l7.9,0.2l1.6-2.9l1.5-2.4l5.9-1h3.4l2.9,3.3l0.9,0.1l4-2.7l1.2-0.9h3.3l0.6-0.7l0.8,0.1l0.4,0.5
	l1.9,0.4l1.3-2.7l0.1-2.5l-1.8-3.3l-0.5-5.1l-0.2-4.5l1.1-2.1l1.8-0.8l1-3l-0.1-2.5l1.9-2.4l2.9-0.7l3.5-1.9l0.5-2.7l-1-2.4l1-1
	l0.4-6.3l-0.6-2.1l-8.9-2.5l-2.1-1.9l-0.2-2.3l0.5-3.2l-0.5-5.5l-4.6-6.4l-0.4-4.5l-1.7-1.6v-1.6l1.9-1.9l0.4-3.5l-1.3-3.2l-4.4-2.4
	l-2.8-0.1l-1.7-1.6l-0.1-1.7l0.8-2.2l-0.2-0.3l-1.5-0.2l-4.2,1.5l-6.1-0.2l-1.3-1.7l-7.9-0.2l-2.7,1.9l-3.8-1.9l-1.7-2.5h-1.3
	l-2.7,2.5l-5.7,0.8l-5.6-1.7l-1.1-1.9l-3.6-1.5l-5.7-0.2l-1.1-1.1l-2.5,1l-1.3,2.3l-5.7,2.9l-3.1-0.2l-1.1,1.1l-2.7-0.2l-1.1-1.5
	L339,41l-1.5-1.1v-2.1c0,0-1.9-2.1-2.9-3.4c-1-1.3-3.8-2.1-3.8-2.1l-1.5-2.5l-1.7,1l-1.3,1.9l-2.5,2.5l1.7,4.4l1.1,1.1l0.4,5.7
	l1.5,2.3l2.7,0.6l1.5,3.3v3.1l-4,2.5l-4.6,4l-1.9,5l-1.7,0.2l-1.1,1.1v2.3l4.4,1.5l0.8,5.6l3.1,1.5l1.3-0.6l1-2.3l4-1l3.8-4h2.3
	l2.1,2.5l3.1-0.8l1.5,3.6l5.6,0.8l2.3-1.9l3.1,0.2l2.1,1.7l0.4,4.4l2.7,1l0.8,2.9v2.5l3.6,0.8l1.5,2.5l3.1-0.2l1.1-1h2.3l1.1,2.1
	l2.1,2.3l2.1,0.2l1.9,3.8h2.5l2.1,1.5l-0.4,3.1l-1.3,1.7l-1.3-1.1l-3.6,6.3l-0.2,6.9l1.7,2.3L381.2,119.7z"/>
<path id="D411" class="st0" d="M500.4,319.3l-0.1-0.2l-2.1-2.6l-7.3-3.8h-1.8l-2.6,2.1l-2.7-0.7
	V309l-6.3-5.4l-4.1-1l-3,1.1l-2.2,2.1l-4.1-0.3l-1.9-1.6l-0.2-7.4l-2-0.6l-1.2,0.4l-1.2-1.1l-1.6,1l-3.6,2.3l-3.7,1l-1.2-0.2l-6-0.5
	l-1.9,1.1l-0.4,2l2.5,4.3l-0.4,6.3l-1.2,4.3l-4,1.7l-2.8-0.5l-4.2,0.2L426,320l-3.1,0.4l-5,2.2l-4.3,4l-2.8-0.4l-0.8-0.8h-1.2
	l-1.1,1l-4.4,1.4l-0.4,0.7h-1.4l-1-1.4l-1.4-0.8h-6.7l-1.9-1.7l-0.1-2.8l3.1-4l-0.6-1.6h-1.8l-2,0.7l-5,4.1l0,0l-2.2,1.8l-5.4,2.6
	l-4.2,0.7l-6.5,12.7l0.8,1.4l0.7,3l-2.5,4.3l-0.1,1.9l2.9,0.2l2,1l1.2,2.9l1.7-0.5l2.9,0.4l6.5,5.4l1.4,6.6l1.3,1.1l3.4-0.7l2.8,2
	l-1,2.3l0.8,3.5l2.9,0.4l4.8-3.2l2.5,1l1,3c0,0,0.1,0.3,0.1,0.4l0.2-0.1l1.9,0.8v2.1l2.7-1.1l1.3,0.6l0.4,3.8l1.7,1.3h4.4l1.9-1.5
	L416,377l-0.6-2.7l1.7-2.1l1.7-0.2l3.8-1.9l1-2.9l2.3-3.1l2.3-1l2.9-5.2v-1.7l-1.1-1.1l0.2-1l2.5-1.1v-1.5l1.3-1.7l-0.6-2.3
	l-1.1-1.1l2.3-1.3l3.6,0.8l2.1-1.3l5.6,0.2l1.5,2.1l1.7-0.4l1-1.7l3.6-0.8l1.7,1.3l0.8-1.3l5,0.4l2.5,1.1l1.5-1.5l4,0.6l3.8,4
	l3.8,0.2l4,3.1l4.4-0.2l2.1-2.9l3.1-0.8l1.3-2.7l0.8-4.4l2.1-3.8l-1.3-2.5l1.9-2.3l4.4-1.3v-2l-2.5-1.5c0,0,2.5-2.7,2.9-3.6
	c0.4-1-0.8-4.2-0.8-4.2L500.4,319.3z"/>
<path id="D679" class="st0" d="M308.8,193.4l2.2,1.9l2.8,3.5l1.8,4l-0.8,6l-1.3,2.4l1,3.2l3.6,1.9
	l0.9,2.3l0.2,5.4l3,5.1l-0.5,3.6l-3.3,1.5v1.5l1,1.1v3.7l-1.3,1v6.4l2.3,0.4l1.1,0.7l0.7,1.1l2.8,0.2l5.6-0.2l2.4,1.4l0.6,1.1
	l3.3,0.7l3.4-0.1l3,0.3l3,3l0.2,2.3l1.3,4.4l2,1.8l2.4-0.3l2.3-2l1-0.1l0.5,0.9l4.7,2.3l1.5,2.1l4.1,0.9l1.1,0.6l1.6-0.1l1.8-1.6
	l3.9-1.7l-2.5-2.8l0.7-1.9l-0.2-1.2l-3-0.9l-3.2-3.4l-0.9-2.3l0.3-2.8l-0.8-1.1l-1.9-0.5l-2-1.9l-0.6-3.7l-1.2-0.9l-1.3-0.2
	l-1.4-2.1v-2.2l-1.7-2.7l-6-6.4l-3.4-2.1l-1.1,0.4l-1.2-0.4l-1.8-2.4l-2.3-0.5l-0.2-1.4l0.5-0.7l-0.4-2.8l-1.5-1v-0.9l6,0.3l1.3,1.4
	l4.6,0.3l1.8-0.9l2.1-2.6l3.7-0.4l1.9-1.9l0.6-2.3v-4.4l-3.8-4.3c0,0-0.1-1.1-0.3-2.1c-0.1-0.5-0.2-1.1-0.3-1.5
	c-0.1-0.4-0.2-0.7-0.3-0.8c-0.4-0.2-2.1-0.8-2.1-0.8l-2.8,0.2l-2.4-2.7l-1.8-0.8l-0.7-1.4l0.6-4.4l-2.8-2l-0.2-3.2l-1.7-2l-1.6,0.7
	l-1.3-0.6l-2.2-3.3l-0.3-1.1l0.1-1.7l-0.5-1.1l-3.8,1.6l-1.1,2.3l-1.9,1.2l-0.6,2l0.5,3.3l-0.9,0.8l-1.1-0.2l-1.2,0.8v2l-1.5,1.2
	l-1.1-0.4l0.4-1.2l-1.4-0.9l-2.4,0.4l-1.5,2.4h-1.1l-0.7-1.9l-1.5,0.7l-1.3,2.8l-2.1,0.3L308.8,193.4L308.8,193.4z"/>
<path id="D415" class="st0" d="M236.3,552.6l1.4,1.5l0.1,0.9l-1.1,2.3l-1.5,0.6l-1,2.5v1.8h2
	l1.2-3.3l1.9-1.1l2.3,0.7l0.9,1.6l1.5,1.4l2.4,0.2l1.5,0.6l1.9,4.4l2.7,3.9l3.1,1.1l3.9-1.2l2-2.4l1.3-0.1l2.3,2.3l9.7,2.9l8-0.1
	l0,0l0,0l1.7-1.3l2-2.7l-0.4-3.1l2.1-1.5l7.5,0.3l1.7,1.3l2.4,0.2l2.2-1.2h0.9l2.8,1.9l6.3,0.1l1.3-2.2l0.9-4.2l-1.7-0.5l-1.6,1.6
	H310l-0.5-0.8h-4.9l-3.2-2.5v-1.4l0.6-1.3l-0.2-3.3l0,0v-0.7l-1.3-1.5l-0.4-1.8l1.2-2.5l2.6-0.4l1-3.8l-1.4-1.8v-1.7l2.1-1.3
	l1.8,1.6l0.4,1.7l2.2,0.5l1.3-1.2v-4.3l-3.8-3.6l-1-3.1l1.4-1.4l1.5-3.4l0.3-4.7l-0.7-1.6l2-2.4l0.3-1.4l3.7-0.6l0.4-2l-2.1-0.9
	l-2.6-2l0.3-1.8l0.8-0.6l0.3-2.5l-1.4-1.5l-2.1,0.7l-0.7,1.8l-5.9,2l-0.9-0.7l-0.6-1.8l-1.4-1.4l-2.7,0.8l-2.9-0.9l-2.3-0.8
	l-2.4-1.6l-3.9,0.8l-0.2,4.9l-2.2,1.6h-3.1l-3.1-2l-0.7-1.7l-1.8-2.3l-5.1-0.3l-1.1-0.3h-3.5c0,0-0.4-0.5-0.9-1
	c-0.4-0.5-0.9-1.1-0.9-1.3c0-0.3,0.4-3,0.4-3l0.3-1.6l-0.9-1.4l-4.7-1.9l-2-3.1l0.1-5l-0.8-1l-2.2-0.9l-2.3-0.9c0,0-3.4,0.8-3.8,0.9
	c-0.3,0.1-4.1,1.9-4.1,1.9l-4.7,0.9l-3.1,1.7l-6.7,2.1h-1l-0.9,1.4l1.1,1.2l2.5-0.3l2.4-1.6l1.8-0.3l3.8,1.6l0.3,1.6l-2.2,1.7
	l-1.1,0.2l-0.3-0.7c0,0-2.7,0.3-3,0.3c-0.2,0-1.1,0.7-2.1,1.4c-0.9,0.7-1.8,1.4-1.8,1.4l-3.5,5.3l-2,0.3l-1-0.5l-2.7,1l-3,2.8l2,1.6
	l4.8,2.3h1.3l1.8,1.3l0.4,3.7l-0.1,2.7l-1.1,1.4l1.5,2l1.9,0.6l1.3-0.6l2.2,0.3l4.3,2.5l0.8,2.4l2.7,0.4l1.8-0.5l1.5,1.3l1.1,2.2
	l3.3,1l2.5,2.2l0.3,2.9l0.9,0.8v1.8l-1.5,1.3l-0.9-0.1l-1,0.5l-2.3,0.5l-2-0.4l-2,0.5l-0.6,1.3l-1.7,0.1l-0.3,2l2,0.9l0.1,1.9l2.2,2
	l1.5,0.1l-0.8,1.9l-2.7,2.3h-1.4l-2,1.9L236.3,552.6z"/>
<path id="D403" class="st0" d="M557.6,215.1l-3.7-3.2l-2.9-4.5h-2.9l-4.5,1.6l-4.5-2.1l-5.5-5.8
	l0.5-12.9l-1.6-0.8l-9.2,4.5l-4.7-1.3l-5.6-8.4l3.2-3.4l0.5-3.9l-4.3-3.7l0.2-3.7l-0.2-3.1l-4.1-3.3l-4.8-0.1l-1.6-0.7l-4.2,0.4
	l-4.7,2.1l-5.9,0.3l-2.7-0.5l-2.4,1l-3.7,3.6l-0.1,2.7l1.1,3.2l-1.1,2.1l0.5,2.6l2.6,3.1v4.1l-1.7,5.2l0.3,3.7l-0.8,2.4l-4.3,4
	l-2.4,8.9l0.9,4.4l-1.2,2.9l-2.9,3.2l-0.5,4.1l-3.2,5.2l0.3,8.3l3.2,3.8l2.7,0.3l2.3,0.9l1.2,5.7l2.1,3.8l1.8,0.3l0.8-1.2h3.1
	l6.6,7.1l0.5,2.1l-0.3,4.7l2.5,2.2l1.7-1l1.4,0.5l-0.4,1.7l0.5,1.6l2.5,1.9l0.6,1.7v1.4l-6,0.5l-2.3,1.7l-6.4-1.9l-1.7-2.3l-2.1-0.3
	l-2.5,1.6l-3.4-0.3l-3.9,1.8l-3,1.8v1.6l-0.4,5.2l-1.6,2.9l1,3l-0.4,2.5l-4.2,4l0.2,7.4l1.9,1.6l4.1,0.3l2.2-2.1l3-1.1l4.1,1
	l6.3,5.4v5.1l2.7,0.7l2.6-2.1h1.8l7.3,3.8l2.1,2.6l0.1,0.2l0.6-0.1l2.5,3.6h4.4l4,2.3l1.9-2.7l-0.4-2.7l-2.3-1.5l-0.2-2.5l-2.7-2.9
	l-1-3.3l-1.7-2.1l1.7-3.1l1.5-1.5l0.6-3.3l-0.6-3.6l1.7-2.5l2.3-1l2.7-2.1l1.5,0.6l1.1,2.5h1.9l1.9-2.7l-0.4-1.7l-4.2-0.8L515,286
	l0.8-1.7l3.4-0.4l0.6-1.5l1.7-2.3l0.2-1.5l-1.3-1.1l-0.8-1.9l2.1-1.3l-0.8-1.3l1.3-1.9l2.7,1.9l1.7-3.8l1.7-0.6h3.1l0.2-2.1
	l-0.8-2.1v-1.9l1.9-2.1l-1.3-2.1l-2.9-1l-1.5-3.6V248l-0.8-2.5l1.7-2.1l2.5,0.4l2.1-0.8v-2.3l-3.1-2.7l1.7-2.9l2.3-2.1l1.9-6.9
	l4.4-2.1l0.8-1.5l1.5-1l4.6,0.8l3.8-0.8c0,0,0.8-1.1,1.3-2.7s2.1-1.7,2.1-1.7l2.3-0.6L557.6,215.1z"/>
<path id="D410" class="st0" d="M384,320.9l-4-0.8l-3.3,1.4h-2.3l-0.8-3l0.7-1.5l-0.8-2.3l-4.2-0.6
	l-1.4-1.8v-0.9l-4.1-3.4l-3.1,0.2l-1.8-0.8v-2.8l1.1-1.1l0.3-3.3l-2.2-0.9l-2,1l-2.3-0.1l-5-3.7l-5.4-0.5l-2.4,1.5h-2.3l-2.1-0.4
	l-5.6,6.6l-5,4.4l-3.3,4.1v2.4l-1.9,6.4l-1.9,4.4l-1.7,6l-2,6.1l0.3,4.1l9,5.2l2.4,5.2l-0.3,2.7l-4.1,1.6l-0.3,4.2l1.5,2.4l3.4,2.3
	h9.1l3.6-1.4l2.7,0.2l2.4,1.9l1.2,0.2l1.8-0.4l2-1.8l3.7-1.3l3.8-2.4l1.3-2.3l0.4-2.9l1.1-1.6l2.5-1.8l1.7-2.2l0.1-1.9l2.5-4.3
	l-0.7-3l-0.8-1.4l6.5-12.7l4.2-0.7l5.4-2.6L384,320.9z"/>
<path id="D408" class="st0" d="M209.6,460.6l2.8-0.6l2.5-0.3l3.5-1.3l4.3-4.3l8-4.2l2.5-1.1
	l8.8-10.3l3.5-1.9l3.2-4.6l6.7-4.2l4.7-0.9l0.3-3.3l-0.3-1.1L258,419l1.3-2.1l1.9-0.4l1.7-1.7l-0.7-2.9l-4.6-3.8l-0.4-1.7l-1.9,0.1
	l-1.7,1.5h-2.5l-1.2-1.6H247l-2.1,1.6l-2-0.1l-1.5-1.9l-1.9-0.7v-4.4l0.9-3.9l4.6-5.5l3.6-0.7l5.9-2.9l3.8-5.8l2.3-1.1l-0.7-5.1
	l-3.1-2.8v-0.8l0.9-0.7l0.5-3.9l1.3-1.5l3.6,0.5l3.5-1.5l4.2-3.2l2.3,0.1l0.9-3.8l0.9-6l0.8-1.7l2.4-0.5l1.3-1.2l-0.4-3.5l-2.9-2
	l-1.2-2.8l0.7-4.6l1.2-2.5l0.1-6.2l-0.8-1.9l0.7-0.4l0.1-4.3l-0.4-2.9l-2-2.4v-1.2l0.8-0.5l0.3-4.6l-0.2-0.7l-0.9-3.2l-0.9-1.7
	l-0.1-2.1l1.3-3.9l1.9-5.6l0.4-3.8l1.2-1.2l2.4-0.7l3.3-3.5l-2.9-0.7l-0.5-0.9H278l-1.1,1.2h-2.5l-0.9-0.6l-6.8-0.6l-2.1-0.9
	l-3.3-2.8l-1-2.2v-1.6l-0.9-0.7l-4.4-1l-3-1.4l-1.5-0.7l-4.4-0.1l-2.2-1.1l-0.8-1l-0.1,1.3l-0.8,0.4v3.7l-0.6,1.5l-1.4,1.6l-0.3,2
	l-1.6,0.4l-2.5-0.6l-0.3-1.3h-1.6l-2,1.9l-1.5,4.1c0,0,0.2,7.8,0.2,8.3s-0.8,2.1-0.8,2.1l-0.2,6.9l2,3.9l-0.5,5.4l-0.5,2.9l-2.8,2.6
	l0.1,5.1l-1.2,0.5l-0.7,1.8l-1.4,1.7v1.3l1.9,1.9l-1.4,2.4l-1.6,0.4l-0.7,2.5l-3.3,4l-2.1,0.5l-3.4,2.3l-4.2,0.4l-3.6,3.1l-2,0.1
	l-3.5,4v1.5l1.3,0.7v1.2l-0.6,0.3l-0.1,3.8l1.9,1.3l-1.5,4.2l-1.9,1.2v2.1l1.8,1.7l0.5,3.9l2.8,2l5.4,0.3l1.7,2.1l1.5,6.4v3.8
	l-1.9,0.7l-0.2,2.2l1.4,3.6l1,1.1l1.2,5.2l1.7,1.1l-1.2,1.5l-1.2-0.2l-2.9,1.2l-1.9,1.5h-2.1l-2.1,2.6v2.1l2.1,2.9l4.2-0.1l4.4-2.9
	h1.4l1.4,0.7h1.6l0.2,3.2l-0.9,1.5v3.2l-1.5,7.2l-1.2,1.2l1.1,2l-0.2,3.2l-2,1.1l0.1,1.5l2.1,1.1l0.5,2.6l0.9,0.4l-0.4,2.7l-0.9,1.1
	l-2-0.5l-1.9,1.5l-2,0.1l-1.5,1.6l0.4,0.9l-1,1.1l-2.6,0.9l-2.2-0.9l-3.2,1.4l-0.5,0.9l-3.4,1.1l-1.1-0.6l-2.2,0.9l0.1,1l1.4,0.2
	l-0.1,1.9l1.9,0.4l0.4,1.4l-0.8,1.6l-1.5,0.1l-0.3,2l-0.9,0.5v1.3l2.9,0.9l0.8,1.8l3.3-0.4l0.8-1.8h2.8l1,2.2h2.4L209.6,460.6z"/>
<path id="D673" class="st0" d="M362.3,621.3c-0.2-0.2-0.4-0.5-0.4-0.5l-2.3-4.1l-1-5.1l-2.7-1.3
	h-2.3l-1.9,1.3l-1.3,2.7l3.1,1.3v3l-5.1,4.1l-3.1,0.6l-3.4,2.1l-11.6-0.4l-2.9-1.9l-0.3-1.3l1.4-1.7l2.1-0.4l-1.3-1.5v-1.8l-1.3-1.8
	l-2.4-0.3l-0.3-1.3l-2.6,0.4l-2.1,1.7l-1.7,0.1l-1.1,3.3l0.1,2.8l-1.6,0.9l-0.1,1.1l1.3,1.6l-0.9,2.6l-1.8,0.4l-1.4-1.4l-3.8,1
	l-0.6,2.1l-1.7,0.7l-0.4,1.8l-0.7,1.6l-0.7,4.4l1.7,1.8l-1.1,3.1l-1,0.1l-2.8,1.3h-1.7l-0.7,3.5l-3.5,1.7l-2.4-1l-0.1-2.1l-1.3-1.6
	h-2l-1.7-1.3l-1-2.4l-2.5-2l-2.1,0.7l-2.3-1.5h-5.3l-3.5-0.5l-6,1.7l-3,2.5l-4.3,0.7l-2.8,3.1l-0.8,5.1l-5,4.1l-1,2.8l1.5,1.8h3h3.5
	l2.5,1.5l0.5,3.1l-2,4.1l0.3,3.3l2.1,3.8c0,0,0.2,0.3,0.3,0.7c0,0.2,0,0.5-0.1,0.7c-0.1,0.3-0.3,0.6-0.7,0.8
	c-1.5,1.2-1.8,1.5-1.8,1.5c0,0.1,0,0.1,0,0.1l0,0l0.5,1.9l-2.8,1l-0.4,2.8l-1.5,0.7l-0.6,2.2l2.1,1.7l0.7,7.3l1.5,2.4l0.5,5.1
	l2.3,2.8l0.1,6.7l-0.2,1.3v1.1l1.6,0.7l0.5,1.9l0.1,1.2l2.7,0.6l2.4,0.5l2.2-1.8v-1.3l3.3-1.3l1.1-1.6l1.8-0.7l0.5-1.5l2.7-0.1
	l2.1,2.2l4.4,2.3l5.9-0.2l4.2,0.1l0.5,0.7l4.2,0.4l0.8-0.4l-0.8-2.1l1.1-3.5l0.1-2.5l2.3-1.3l1.1,1.3l2.1-0.6l-0.2-5.1l1.6-2.5
	l2.3-1l0.4-3.3l-1.2-5.7l1-1.5l1.6-0.5l1-1.5l0.4-3l-0.7-1.7l0.5-1.3c0,0,0.7-0.2,1.1-0.8s0.7-2.1,0.7-2.1l-2.1-2.1v-2.8l1.8-2.2
	l0.5-4.6l1.6-1.6l1,1.1l1.9-1l1.7-3.3l3-0.7l1,0.7l2.3-1.3l1.3-2.4l3.5-0.7l1.3,0.7l3.3-0.1l2.5-1.9l-0.7-1.7l0.5-3l2.8-4.4l3.9-1.9
	l3-3.2c0,0,0-2.6,0.5-3.2s4-4.5,4-4.5l3.4-0.5l2.2-1.4v-1.6l-2.2-1.6l-3.9-0.5l-0.5-1.3l2.4-0.3l1.4-1.3l-2.7-1.8l1-1.1l0.3,1
	l4.2,2.2l1.1-0.8l-0.6-2.9L362.3,621.3z"/>
<path id="D671" class="st0" d="M414.4,42.5l-0.8,2.2l0.1,1.7l1.7,1.6l2.8,0.1l4.4,2.4l1.3,3.2
	l-0.4,3.5l-1.9,1.9v1.6l1.7,1.6l0.4,4.5l4.6,6.4l0.5,5.5l-0.5,3.2l0.2,2.3l2.1,1.9l8.9,2.5l0.6,2.1l-0.4,6.3l-1,1l1,2.4l-0.5,2.7
	l-3.5,1.9l-2.9,0.7l-1.9,2.4l0.1,2.5l-1,3l-1.8,0.8l-1.1,2.1l0.2,4.5l0.5,5.1l1.8,3.3l-0.1,2.5l-1.3,2.7l2.6,2.8l0.4,4.6l-1.5,3
	l0.5,4.9l3.3,3l2.2,1l6.5-1.7l4.9,0.2l4.2,1.9l0.6-0.4l1.2-2.3l2.7-5.7l4.5-7.4l5.5-2.7l-0.4-2.5l-5.2-0.7l-4.5-2.2l0.1-1.2l3.9-0.9
	c0,0,0.1-0.1,0.4-0.3c0.2-0.2,0.5-0.4,0.8-0.4c0.3-0.1,1.9-0.1,3.3-0.1c1.5,0,2.9,0.1,2.9,0.1s0.3,0.4,0.7,0.7
	c0.2,0.2,0.4,0.4,0.6,0.5s0.4,0.2,0.5,0.2h5.4l2.4-1.2l2.2-0.3l1.9,1.6l1.8-0.9l-0.7-2.7l-0.7-1.3l2.2-1.6l4-0.3l1.5-0.6l-2.1-4.3
	l-0.1-3.3l2.1-3.6l2.7,0.1l1.3,1l3.1-0.1l1.8-1l-1.2-1.6l-4.6-0.6l-0.9-5.1l1-4.3l-1.3-2.8l3-2.4h2.7c0,0,0.1,0.2,0.4,0.4
	c0.1,0.1,0.3,0.2,0.5,0.3c0.2,0.1,0.5,0.1,0.8,0.1h5.4v-1.6l-1.8-2.8l1-3l3.4-1.2v-1.3l-1.3-1.5l-0.1-2.7l1-1.3l-0.6-4l-4.3,3.9
	l-3.6,0.6l-0.7-3.6l1.3-1.8l0.3-2.2l-1.6-1.6l-4.2,1.2h-3.4l-1.9,0.7l-1.9-1.6l1.8-3.4v-3.6l-2.2-1.6l1-2.4V55l-1-0.6l1.2-2.2
	l-1.6-1.3l-2.4,1.6H478l-3.4-2.2l-3.1,0.3l-4-3.3l-1.6-2.7l-1.2-0.6l-0.4-2.5l-1-0.6l-2.5,3.1l-5.1,0.9l-2.1-3.3H450l-0.3-2.8
	l-2.4-2.5l-7.6,0.3l-3.6-0.9l-3.2-2.1l0,0l0.4,2.5l-1.5,2.7l-5.6,2.5l-2.1-0.2l-2.5,1.3l0.2,2.1l-1.7,0.6l-4.4-0.2L414.4,42.5z"/>
<path id="D401" class="st0" d="M497.6,110.8l-1.8,1l-3.1,0.1l-1.3-1l-2.7-0.1l-2.1,3.6l0.1,3.3
	l2.1,4.3l-1.5,0.6l-4,0.3l-2.2,1.6l0.7,1.3l0.7,2.7l-1.8,0.9l-1.9-1.6l-2.2,0.3l-2.4,1.2h-5.4c-0.1,0-0.3-0.1-0.5-0.2
	c-0.2-0.1-0.4-0.3-0.6-0.5c-0.4-0.4-0.7-0.7-0.7-0.7s-1.4,0-2.9-0.1c-1.5,0-3,0-3.3,0.1c-0.3,0.1-0.6,0.3-0.8,0.4
	c-0.2,0.2-0.4,0.3-0.4,0.3l-3.9,0.9l-0.1,1.2l4.5,2.2l5.2,0.7l0.4,2.5l-5.5,2.7l-4.5,7.4l-2.7,5.7l-1.2,2.3l-0.6,0.4l0.4,3.5
	l3.8,2.8l2.1,0.7l1.8-2.1l1.5-0.4l3.8,3.4l0.1,5.2l4,2.1l0.8,0.5l1.8-0.7l1.6-2.1l1.3-0.5l4.2-0.1l3.7-3.6l2.4-1l2.7,0.5l5.9-0.3
	l4.7-2.1l4.2-0.4l1.6,0.7l4.8,0.1l4.1,3.3l0.2,3.1l-0.2,3.7l4.3,3.7l4.8-1.1l4.2-3.2l5.3-1.3l2.6,2.1l6,0.3l6.3,6.6l3.9-0.5v-2.6
	L546,168l-1.1-6.1l1.3-2.9v-1.8l-6.1-2.9l-0.8-3.7l-8.7-2.4l-0.5-5.5l-2.1-5.5l2.4-3.9l2.1-7.6l-0.5-2.1l-3.2-1.1v-2.1L528,118
	l-0.9-3l-0.3-4l-1.5-2.7l-4.3-2.1l-4.5-0.3l-2.5-1l-0.9-2.2l-1.5,0.1l-3.1,2.5v4.5l-0.6,7.1l-3.1,1.2l-3.7-1.5l-1.5-3.3L497.6,110.8
	z"/>
<text transform="matrix(1 0 0 1 266.6233 397.3408)" class="textName">Balod</text>
<text transform="matrix(1 0 0 1 365.9372 296.3999)" class="textName">Baloda Bazar</text>
<text transform="matrix(1 0 0 1 512.0695 94.0528)" class="textName">Balrampur</text>
<text transform="matrix(1 0 0 1 333.2495 580.3009)" class="textName">Bastar</text>
<text transform="matrix(1 0 0 1 284.0288 296.1794)" class="textName">Bemetara</text>
<text transform="matrix(1 0 0 1 215.0501 602.5226)" class="textName">Bijapur</text>
<text transform="matrix(1 0 0 1 360.2793 229.5338)" class="textName">Bilaspur</text>
<text transform="matrix(1 0 0 1 393.2087 625.4214)" class="textName">Dantewada</text>
<text transform="matrix(1 0 0 1 314.3999 413.2998)" class="textName">Dhamtari</text>
<text transform="matrix(1 0 0 1 281.8499 341.0499)" class="textName">Durg</text>
<text transform="matrix(1 0 0 1 404.4966 414.3)" class="textName">Gariyaband</text>
<text transform="matrix(1 0 0 1 218.1496 146.9365)" class="textName">Gaurella Pendra Marwahi</text>
<text transform="matrix(1 0 0 1 423.5322 249.4002)"><tspan x="0" y="0" class="textName">Janjgir</tspan><tspan x="-4.4" y="14.4" class="textName">Champa</tspan></text>
<text transform="matrix(1 0 0 1 557.6 154.3)" class="textName">Jashpur</text>
<text transform="matrix(1 0 0 1 249.3001 260.293)" class="textName">Kabirdham</text>
<text transform="matrix(1 0 0 1 257.4687 460.3)" class="textName">Kanker</text>
<text transform="matrix(1 0 0 1 302.5001 499.8476)" class="textName">Kondagaon</text>
<text transform="matrix(1 0 0 1 413.6 185.7031)" class="textName">Korba</text>
<text transform="matrix(1 0 0 1 372.3 73.4242)" class="textName">Korea</text>
<text transform="matrix(1 0 0 1 403.8008 339.8999)" class="textName">Mahasamund</text>
<text transform="matrix(1 0 0 1 281.8499 181)" class="textName">Mungeli</text>
<text transform="matrix(1 0 0 1 242.3999 522.1)" class="textName">Narayanpur</text>
<text transform="matrix(1 0 0 1 488.3592 220.942)" class="textName">Raigarh</text>
<text transform="matrix(1 0 0 1 327.2 332.902)" class="textName">Raipur</text>
<text transform="matrix(1 0 0 1 232.022 338.9)"><tspan x="0" y="0" class="textName">Raj</tspan><tspan x="-18.8" y="14.4" class="textName">Nandgaon</tspan></text>
<text transform="matrix(1 0 0 1 273.3 675.5289)" class="textName">Sukma</text>
<text transform="matrix(1 0 0 1 446.0833 87.8253)" class="textName">Surajpur</text>
<text transform="matrix(1 0 0 1 481.5002 144.4287)" class="textName">Surguja</text>
<line class="st0" x1="308.8" y1="605" x2="384" y2="621.3"/>
</svg>
