<?xml version="1.0" encoding="utf-8"?>
<!-- Generator: Adobe Illustrator 26.0.0, SVG Export Plug-In . SVG Version: 6.00 Build 0)  -->
<svg version="1.1" id="Layer_1" xmlns="http://www.w3.org/2000/svg" xmlns:xlink="http://www.w3.org/1999/xlink" x="0px" y="0px"
	 viewBox="0 0 800 730" style="enable-background:new 0 0 800 730;" xml:space="preserve">
<style type="text/css">
	.st0{stroke:#000000;stroke-miterlimit:10; cursor:pointer;}
	.textName{font-family:'Arial'; font-weight:bold; color:#000000; font-size:14px; cursor:pointer;}
</style>
<path id="D638" class="st0" d="M346,694.9l0.2,0.1l-0.2,0.3l-0.2-0.1L346,694.9z M349.8,658.7l-0.2,0.3l-0.1-0.2l0.1-0.2
	L349.8,658.7z M341.8,665.5l-0.4,0l-0.1-0.2v-0.5l-0.2-0.4l0-0.3L341,664l0.1-0.4l0.3,0.5l0,0.2l0.2,0.2l0.1,0.2l0.3,0.3l-0.1,0.3
	L341.8,665.5z M344.8,649.5l0.2,0.3l0,0.2l-0.1,0.1l-0.2,0l-0.2-0.3v-0.1l0.3-0.4L344.8,649.5z M339.9,648.8l0.2,0.1l-0.1,0.2l0,0.2
	l0.2,0.3l-0.1,0.1l-0.2,0.1l-0.2,0l-0.2-0.3l-0.1-0.5l0.3-0.3L339.9,648.8z M345.4,692.6l0.2-0.1l0-0.2l-0.1-0.1l0.2-0.3l0-0.3
	l-0.2,0.1l-0.2-0.2l-0.2-0.1l-0.1-0.3l-0.1,0.2l-0.1-0.3l0.1-0.2l-0.2-0.3l-0.1-0.3l0.2-0.1l0.1-0.4l-0.1-0.2h-0.1l-0.4,0.4l0,0.2
	l-0.1,0.2l-0.2-0.1l-0.2-0.5l-0.1-0.4l-0.1-0.2l-0.2-0.4l0-0.3l0.2,0l0.2,0.1l0.2-0.1l0-0.3l0.1-0.4l-0.2-0.3l0.1-0.2l-0.1-0.3
	l-0.2-0.2v-0.2l0.1-0.1l-0.2-0.6l-0.2-0.1l-0.2,0.3l-0.2-0.1l0-0.4l-0.1-0.1l-0.1-0.2l0.1-0.5l-0.1-0.3l-0.2-0.3l-0.1-0.2l-0.3-0.5
	l-0.3-0.2l-0.2,0.1l-0.1,0l-0.2,0.3l-0.2-0.1l-0.1-0.3l0.1-0.2l0-0.4l-0.3-0.6l-0.1-0.2l-0.3-0.3l-0.5-0.3l-0.4,0.1l-0.1,0.1l0,0.3
	L339,682l0,0.2l-0.1,0.2l-0.3,0l-0.2-0.1l-0.1-0.2l0.1-0.3l0.2,0l0.2-0.2l0-0.6l0.1,0l0.1-0.3l-0.2-0.2l-0.1-0.2l0-0.2l0.2-0.2
	l0-0.2l-0.1-0.2l-0.2-0.1l-0.1-0.1l-0.1-0.5l0.1-0.2l0.1-0.3l0-0.4l0.1-0.5l0-0.1l-0.3,0l-0.1-0.2l0.1-0.2l0.2-0.3l0.2-0.2l0.1-0.2
	l0-0.2l-0.2-0.2l-0.2,0.1l-0.2-0.1l0-0.3l-0.2-0.4l0-0.5l0.1-0.1l0.3-0.1l0.1,0l0.2-0.3l0.3-0.2l0.1-0.3l-0.1-0.2l-0.3-0.2l-0.3,0.5
	l-0.3,0l-0.1-0.3l0-0.9l0.1-0.2l0.4-0.1l0.2-0.2l0-0.5l0.2-0.1l0.2,0.2l0.2-0.2l0.1-0.4l0.1-0.6l0-0.3l-0.2-0.2l0-0.3l0.1-0.7
	l-0.1-0.4l0.1-0.2l0.3-0.3l0.2-0.1l0.1-0.4l0.1-0.2l0.3-0.1l0.5,0.2l0.2,0l0.3-0.2l0.2,0l0.2-0.1l0.3,0.2l0.1,0.2l0.1,0l0.3,0.2
	l0.2-0.1l0.3,0l0.4-0.4l0.1-0.2l0.4-0.5l0.3-0.2l0.2,0l-0.2-0.3l0.2-0.4l0.1,0l0.2-0.2l0.2,0.1l0.1,0.3l0.3,0.2l0.3,0l0.2-0.2l0-0.3
	l0.3,0l0.2-0.1l0.2,0.2l0.4-0.1l0,0.2l0.2,0.1l0.2,0.3l0.1,0.1l0,0.3h0.1l0.1-0.4l-0.1-0.3l0.2-0.1l0.4,0l0-0.2l-0.2,0l-0.1-0.4
	l0.2,0.1l0.1-0.1l-0.1-0.3l0-0.5l-0.2,0l0-0.2l0.1,0l0.2,0.1l0.3-0.1l0.1-0.2l0.3-0.1l0.1,0l0.2-0.1l0.2,0.2h0.1l0.1-0.2l0.2-0.1
	l0.1-0.2l0.3,0.1l0.1,0.1l0.3-0.2l-0.1,0.5l0.1,0.2l-0.2,0.2l-0.2,0.2l0.1,0.6l0.1,0.3l0.3,0.3h0.3l0.2-0.3l0.3,0.1l0.2-0.1l0.2,0.1
	l0.1,0.3l0.1,0.1l0.2,0.6l0.4,0l0,0.3l-0.1,0.5l0.2,0.4l0,0.4l-0.1,0.4l-0.1,0.1l-0.1,0.3l0.1,0.5l0.1,0l0.1,0.2l-0.1,0.2l0.2,0.7
	l0.1,0.2l-0.1,0.5l0,0.5l-0.1,0.4l0,0.4l0.1,0.3l0.3,0.2l0.1,0.2l-0.1,0.4l-0.1,0.2l0,0.4l-0.2,0.4l0,0.3l0.1,0.4l0,0.3l0,0.6
	l0.2,0.5l0.2,0.2l0.2,0l0.3,0.1l0.3,0.6l0,0.2l-0.1,0.4l0.2,0.3l0.1,0.3l0,0.3l0.2,0.2l0.1,0.1l0,0.3l-0.3,0.3l0,0.2l0.1,0.2l0,0.2
	l0.2,0.2l0,0.2l0,0.3l0.1,0.2l0.1,0l0.4-0.3l0.2,0.2l0.2,0.4l0,0.3l0.1,0.3l0.2,0.3l0.3,0.1l0.1,0.6l0,0.4l-0.1,0.2l-0.2,0.2
	l-0.1-0.1l-0.1-0.3l-0.2-0.1l-0.2-0.2l-0.1-0.4l-0.1-0.3l-0.1-0.1l-0.3,0.1l-0.3,0.4l-0.2,0.4l0,0.4l0.1,0.1l0.2,0l0.3,0.4l0.2,0.1
	l0.2,0.3l-0.1,0.3l0,0.5l0.3,0.3l0.1,0.3l0,0.3l0.1,0.1l0.5,0.2l0.1,0.3l-0.1,0.4l-0.2,0.1l-0.2-0.1l-0.4-0.3l-0.2,0l-0.2,0.3
	l-0.2,0.1l-0.2,0.3l-0.1,0.2l0,0.4l0,0.6l-0.2,0l-0.2,0.2l-0.1,0.3l0.1,0.3l0.1,0.2l0.2,0.3l0.1,0.3l-0.2,0.3l0,0.2l-0.2,0.2
	l-0.2-0.2l-0.2,0l-0.2,0.2l-0.1,0.3l0.1,0.2l0.1,0.2l-0.1,0.2l-0.1,0.1l0,0.4l0.1,0.1l0,0.3l0.1,0.2l0,0.5l-0.1,0.2l-0.4,0.4l0,0.3
	l0.1,0.6l-0.1,0.4l0,0.3l0.2,0.5l0.3,0.1l0.2,0l0.3,0.2l0.1,0.3l0,0.3l-0.5,0.9l0.1,0.3l0,0.3l-0.1,0.1l-0.2,0.6l-0.2,0.1l-0.3,0
	l-0.1,0.4l-0.2,0.3l-0.3,0.1l-0.1-0.3l0-0.3l-0.6-0.9L351,698l-0.4-0.1l-0.5,0l-0.1,0.1l-0.2,0.5l-0.1,0.5l-0.1,0.1l0.1,0.2v0.3
	l0.1,0.4l-0.1,0.2l0,0.6l-0.1,0.3l-0.3,0.4l-0.1,0.1l-0.1,1l-0.2,0.2l-0.2-0.1l-0.2,0.1l-0.7-0.2l-0.4-0.3l0-0.1l-0.2,0l-0.1-0.2
	l-0.1-0.3l0.1-0.4l0.1-0.1l0.3-0.3l0-0.2l-0.2-0.1l-0.1-0.2l0-0.3l0.1-0.2l0.1-0.1l0.1-0.3l-0.2-0.1l-0.1-0.2l0.1-0.4l0-0.3l0.3-0.1
	l0.2-0.3l0-0.4l-0.2-0.2l-0.1,0l-0.3,0.5l-0.1,0l-0.2-0.1l-0.3-0.4l0-0.2l-0.1-0.2l-0.2-0.2l-0.1-0.2l-0.1-0.1l-0.1-0.3l0-0.3
	l0.1-0.3l0-0.3l0.1,0l0.3-0.5l-0.1-0.2l-0.1-0.1l-0.1-0.3l-0.2-0.1l-0.1,0.1l-0.2,0.1l-0.2-0.2l-0.1-0.3l-0.2-0.3l0-0.2l0.1-0.2
	l0-0.3l-0.2-0.4L345.4,692.6z M341.4,646l0,0.3l0.2,0.5l0.2,0.2l0.1,0.2l0,0.6l0.1,0.1l-0.1,0.3l0,0.2l0,1.1l0.2,0.4l0.2,0.2h0.1
	l0.3,0.3l0.2,0.2l0.3,0.3l0.2,0.2h0.1l0.2,0.2l0.1,0.3l0.1,0l0.2,0.2l0,0.6l-0.1,0.4l0,0.3l-0.4,0.2l-0.1,0.2l0.1,0.2l-0.4,0.4
	l-0.3,0.7l0,0.3l-0.1,0.5l-0.1,0.4l-0.2,0.2l-0.1,0.4l-0.1,0.6l-0.1,0.1l-0.3,0.3l-0.2-0.2l-0.1,0.1l-0.4,0.2l-0.1,0.4l-0.2,0.1
	l-0.2,0.3l-0.2,0.1l-0.6,0.2l-0.1,0.3l-0.3,0.2l-0.1,0.3l0,0.3l-0.2,0.2l-0.1,0.4l-0.2,0.3l-0.1,0.6l-0.2,0.3l-0.3,0.1l-0.2,0.3
	l-0.2,0.2l-0.2,0.3h-0.1l-0.1,0.2l-0.3-0.3l-0.3-0.6l0-0.3l-0.1-0.3l-0.2-0.2l-0.1-0.1l-0.2,0l-0.1-0.1l0-0.3l0.2-0.3l0.1-0.1l0-0.2
	l-0.2-0.2v-0.1l0.2-0.3l-0.1-0.6l-0.1-0.3l-0.1-0.5l0-0.3l-0.2-0.2h-0.2l-0.1-0.2l0-0.2l0.2,0l0.3-0.2l0.1-0.1l0.2-0.2l0.2-0.3
	l0-0.4l0-0.5l-0.2-0.2v-0.8l0.1-0.2l-0.1-0.3l-0.1-0.8l0.1-0.7l0.2-0.3l0.2,0l0.6,0.4l0.2-0.1l0.3-0.3l0.1-0.2l0.3-0.4h0.2l0.1,0.3
	l0.2,0.3l0.2,0l0.3-0.2l0.1-0.2l0-0.5l0.2-0.3l0.2,0l0.3-0.2l0.1,0l0.1-0.2l0.2-0.2l0.1,0.1l0.3,0l0.2-0.1l0.1,0.1h0.2l0.1-0.3
	l-0.2-0.1l-0.1-0.1v-0.2l-0.3-0.1l0-0.1l0.2-0.2l0.1-0.3l0-0.4l0.2-0.4l0-0.3l0-0.3l-0.2-0.2l0.1-0.4l-0.1-0.2l0-0.3l-0.1-0.3l0-0.3
	l0.2,0.1l0.2-0.1L341.4,646z M337.3,643.3l0.1,0l0.2,0.2l0,0.2l-0.2,0.1l-0.3-0.1l0-0.3L337.3,643.3z M336.5,643.2l-0.1,0.2
	l-0.2-0.2l0.2-0.1L336.5,643.2z M330.9,639.3l0.4,0.6l0,0.1l-0.1,0.3l-0.2,0.1h-0.2l-0.1-0.3l0.1-0.3l-0.1-0.1l0.1-0.4L330.9,639.3z
	 M333.1,589.7l0.1,0l0.1,0.3l0.3,0.6l0.1,0l0.1,0.4l0,0.4l0.1,0.2l0,0.5l-0.1,0.1l0.1,0.2v0.8l0.2,0.6l-0.1,0.4l0,0.5l0.2,0.3
	l0.1,0.3l0,0.2l0.2,0.5l-0.1,0.3l0,0.2l-0.2,0.3l-0.2,0.2l-0.1,0l-0.3-0.7l-0.1-0.3l-0.2,0l-0.1-0.2l-0.1-0.4l-0.1-0.2l-0.2,0
	l-0.1-0.2l-0.1-0.5l0.2-0.5l0.2-0.1l0.3,0l0-0.4l-0.1-0.2l-0.4-0.6l-0.1-0.2l-0.2-0.1l-0.1-0.3l0.2-0.4l0.1-0.6l-0.2,0.1l-0.4-0.7
	l-0.1,0l-0.1-0.3l0.1-0.2l0.3-0.1l0.3-0.2l0.2,0L333.1,589.7z M308.9,584.2l-0.2-0.2l-0.2-0.1l-0.2,0l-0.1-0.2l-0.2-0.2l-0.4,0
	l-0.2,0.1l-0.3-0.1l-0.1-0.3l-0.2-0.1l-0.2,0l0-0.2l-0.3-0.1l-0.6-0.4l-0.2,0.1l-0.1-0.2l-0.2-0.2l-0.3,0l-0.1-0.1l-0.1,0.1
	l-0.2-0.2l-0.1-0.2l-0.2-0.1l0.1-0.3l-0.1-0.2l-0.1,0.1l-0.3-0.5l-0.3-0.7l-0.1-0.4l-0.3-0.7l-0.2-0.5l-0.2-0.2l-0.2-0.5l-0.1-0.8
	l0.1-0.2l-0.1-0.7l0.1-0.8l0-0.3l0.1-0.4l0.3-0.6l0.2-0.6l-0.1-0.6l0-0.2l0.1-0.4l0.2-0.1l0.1-0.3l0.2-0.1l0.1-0.3l0.4,0.3l0.2-0.2
	l0.1,0l0.2-0.1l0.1-0.2l0.2-0.2l0.2,0.1l0,0.2l0.2,0.3l0.1,0l0.3,0.1h0.2l0.1,0.1l0,0.4l-0.1,0.3l0,0.6l-0.1,0.4l-0.1,0.2l-0.2,0.6
	l-0.1,0.5l0.1,0.3l0,0.2l0.1,0.1l-0.1,0.2l-0.1,0.6l-0.1,0.2l-0.2,0.5l0,0.5l0.1,0.3l0.2,0.5l0.4,0.6l0.4,0.5l0.1,0.2l0.2,0.1
	l0.4,0.6l0.1,0.1l0.3,0.1l0.3,0.2l0.2,0.1l0.3,0.2l0.3,0.3l0.4,0.2l0.4,0.1l0.3,0.1l0.2,0.3l0.2,0.2l0.2,0l0.2,0.2l0,0.3l-0.1,0.2
	l0,0.3l-0.1,0.8l-0.2,0.2l-0.2,0.1L309,584L308.9,584.2z M337.6,567.5l0.1,0.2l0.2,0.1l-0.2,0.3l-0.2-0.2l-0.2,0l-0.1-0.2l0.1-0.1
	L337.6,567.5z M299.9,560.9l0.3,0.4l0.2,0.1l0.3,0.4l0.1,0.3l0,0.3l-0.1,0.2v0.4l0.1,0.1l0.1,0.3l-0.2,0.3l-0.2,0l-0.2,0.1l-0.2-0.1
	l-0.4-0.1l-0.3-0.3l-0.2-0.3l-0.1-0.2l0-0.4l0.1-0.4l0.3-0.8L299.9,560.9z M335.4,552.7l0.1,0.2l0,0.3l0.2,0.3l0,0.5l0,0.3l-0.1,0.3
	l0.1,0.3l0,0.5l0.1,0.2l0,0.4l0.1,0.2l-0.1,0.1l0.1,0.2l0.2,0.2l0.3,0.1l0.1,0.2l0.2-0.1l0.1,0.2l-0.2,0.2l0,0.2l0.3,0.4l0,0.2
	l-0.2,0.1l-0.1,0.3l0.2,0.3l0.1,0.4l0.1,0.5l0,0.3l0.1,0.3l-0.1,0.3l0.1,0.2l0.1,0.9l-0.1,0.2l-0.1,0l-0.1-0.3l-0.2-0.2l-0.3,0.1
	l-0.2,0.2l-0.1,0.4v0.5l-0.1,0.4l0,0.3l0.1,0.3l0.2,0.2l0,0.3l0,0.5l-0.1,0.3l0,0.3l-0.1,0.2l-0.1-0.1l0-0.2l-0.1-0.6l-0.2-0.2
	l0.2-0.2l0-0.2l-0.2-0.4l0.2-0.2l0-0.3l0-0.2l-0.1-0.2l0.1-0.4l0.2-0.2v-0.2l-0.1-0.3l0.1-0.5l-0.2-0.1l0.1-0.2l-0.1-0.4l0.1-0.1
	l0.3,0l0.2-0.3l0-0.2l-0.2-0.3l-0.1-0.5l0.1-0.1l0-0.3l0-0.5l-0.1-0.3l0-0.2l-0.2-0.4l-0.1-0.1l0.1-0.3l-0.1-0.2l-0.2,0l0-0.3
	l-0.1-0.2l0-0.3l-0.2-0.2l-0.1-0.3l-0.1-0.2l0.1-0.1l0-0.3l-0.1-0.2l0.1-0.5l0-0.2l0.1-0.1l0-0.2l-0.1-0.4l-0.1-0.2l0.2-0.2
	L335.4,552.7z M335,552l-0.1,0.3l-0.1-0.1l0-0.2L335,552z M288.5,532.3l-0.1,0.1l-0.2,0l-0.1-0.2l0.1-0.2v-0.5l0.1-0.2l0.3-0.4
	l0.1,0l0.2,0.2l0.1,0.4l0,0.6L288.5,532.3z M284,497.2l0.2,0.2l0.6,0.9l0.4,0.5l0.4,0.4l0.3,0.6l0.3,1.1l0.1,0.4l1.9-1.1l0.2,0.6
	l-1.9,0.8l0.1,0.4l-0.1,0.6l0,0.1l0.2,0.2l0.1,0.5l0.1,0.6l-0.1,0.4l-0.2,0.5l0,0.4l0.1,0.7l-0.4,0l-0.4,0.2l-0.1,0l-0.2,0.3
	l-0.2,0.1l0,0.4l-0.1,0.2l-0.3,0l-0.2,0.2l-0.6,0.1l-0.3,0l-0.7-0.2l-0.3-0.3l-0.3-0.2l-0.1,0.2l-0.3,0.1l-0.2-0.1l-0.3-0.2
	l-0.2,0.1l-0.3,0l-0.3,0l-0.3,0.1l-0.3,0l-0.2-0.1l-0.2-0.3l-0.1-0.3l0-0.3l-0.1-0.3l-0.2-0.2l0-0.2l-0.2-0.2l0-0.3l-0.1-0.2l0-0.5
	l0.1-0.7l0.1-0.4l0-0.9l-0.1-0.4l0-0.6l0.1-0.3l-0.1-0.2l0-0.5l-0.1-0.1l0.1-0.5l0.2-0.4l0.3-0.1l0.3,0.2l0.1,0.2l0.2-0.1l0.2,0.1
	l0.1,0.3l0.1,0.1l0.3-0.3l0.3,0l0.1,0.1h0.4l0.2-0.1l0.2-0.4l-0.1-0.2l0-0.3l0.2-0.2l0.1-0.4l-0.1-0.2l-0.1-0.1l0.1-0.2l0.2,0.1
	l0.1-0.5l-0.2-0.5l-0.2-0.3l0.1-0.1l0.2,0l0.2,0.3l0.1,0.2L284,497.2z M311.8,578.1l0.3,0.4l0.2,0.6l0.2,0.4l0.1,0.2l0.1,0.3
	l0.2,0.3l0,0.3l0.1,0.2l0,0.3l0.1,0.2l-0.2,0.4l-0.4,0.2l-0.1-0.1l-0.1,0.2l-0.3-0.3l0-0.5l-0.1-0.2l-0.2-0.1l-0.2-0.3l-0.3-0.7
	l0-0.3l0.1-0.7l0.2-0.2l0.4-0.3L311.8,578.1L311.8,578.1z M322.3,608.1l-0.2,0l-0.3,0.1l-0.1,0.2l-0.2,0.6l-0.2,0.3l-0.2,0.2l-0.2,0
	l-0.1,0.2l-0.2,0.1l-0.3-0.2l-0.1-0.3l-0.2,0.1l-0.7-0.3L319,609l-0.1-0.2l-0.1-0.4l-0.3-0.2l0-0.3l0.2-0.3l0-0.3l-0.1-0.4l-0.1-0.1
	l0.1-0.2l0.3-0.4l0-0.2l-0.1,0l0-0.2l0.1-0.2l0.3-0.2l0.3-0.5l-0.3-0.2l-0.1-0.2l-0.3,0.4l0.2,0l0,0.3l-0.3,0.4l-0.2-0.3l-0.2-0.1
	l-0.2,0.1l0,0.2l-0.1,0.4l0.2,0.2l-0.2,0.2l-0.3-0.3h-0.1l-0.1-0.2l-0.3-0.4l0.1-0.3V605l-0.1-0.3l-0.4-0.6l-0.1-0.9l0.3-0.3
	l0.2-0.4l0.2-0.1l0.2-0.3v-0.3l-0.1-0.4l0-0.6l0.1-0.1l0-0.2l0.2-0.4l0.6-0.8l0.4,0.1l0.3-0.5l0.2,0.3v0.3l0.1,0.1l0.2,0l0.4-0.2
	l0.3-0.3l0.3-0.6l0.3,0l0.2-0.2l0.1,0.1l0.5,0.3h0.2l0.4,0.2l0.3,0.4l0.2,0.1l0.2,0.3l0,0.1l-0.2,0.1l-0.1,0.5l0,0.7l0.1,0.4v0.3
	l-0.1,0.3l0,0.3l0.3,0.4l0.2,0.2l0.1,0.5l0.3,0.2h0.3l0.1-0.1l0.1-0.2l0.3-0.4l0.2,0.2l0.1,0.5l0.1,0.3l0.2,0.1l0.3,0.4l0.3,0.3
	l0.2,0.3l0.3,0.3l0.2,0.3l0.3,0.7l0,0.6l-0.1,0.3l0.1,0.5l0.1,0.2l0.1,0.5l0.2,0.5l0,0.3l-0.2,0.2l-0.1,0.5l-0.3,0.4l-0.1,0.3
	l-0.2,0.2l-0.3-0.1l-0.3-0.2l-0.1-0.5l0-0.2l-0.2-0.3l-0.1-0.4l-0.3-0.6l-0.8-0.5l-0.4-0.2l-0.4,0l-0.3,0.1l-0.3,0.3L322.3,608.1z
	 M331.1,597.7l0.4,0.1l0.2,0.2l0.4,0l0.1,0.1l0.1,0.5l0,0.1l0.2,0.3l0.1,0.1l0,0.2l0.1,0.2l0.2,0.5l0.2,0.2l0.1,0.3l0.2,0.2
	l-0.1,0.3v0.3l0.1,0.2l-0.2,0.2l0,0.3l0.1,0.1l0.1,0.4l-0.2,0.3l0,0.2l0.2,0.2l0,0.4l-0.1,0.2l0,0.2l0.1,0.1l0,0.2l-0.1,0.2l0,0.5
	l0.1,0.3l-0.1,0.1v0.3l-0.1,0.1l0,0.2l-0.2,0.1l-0.4-0.5l-0.2-0.2l0-0.2l-0.3-0.4l-0.1-0.1l-0.2-0.3l-0.2-0.1l-0.4-0.4l-0.3-0.3
	l0-0.2l-0.2-0.2l-0.2-0.1l-0.3-0.3l-0.2,0l-0.2-0.2l-0.2-0.2l-0.1-0.4l-0.3-0.3l-0.2-0.3l0.1-0.3l-0.2-0.4l0.2-0.2l0.3-0.2l0.1,0.3
	l0.2,0.2l0.3-0.5l0.1-0.1l0.2-0.4l0.2-0.1l0-0.2l0-0.6l-0.1-0.3l0.1-0.4l0.2,0l0.2,0.3l0,0.2l0.3,0.1l0.1,0.2l0,0.3l0.1,0.5l0.2,0.3
	l0,0.3l0.2,0.1l0-0.2l-0.1-0.5v-0.3l-0.2-0.7l0.1-0.2l-0.3-0.3l0.1-0.3L331.1,597.7z M330.2,596.1l-0.2,0l-0.1,0.2l0.1,0.6l-0.1,0.2
	l0,0.2l-0.2,0.1l-0.1-0.2l-0.1-0.3l-0.2,0.2l-0.3,0.1l-0.2,0l-0.1,0.3l-0.1,0.2l0,0.4l0.1,0.2l0.2,0.1l0.1,0.3l-0.1,0.1l-0.1-0.1
	l-0.1,0.3l0.2,0.2l-0.2,0.2l0,0.2l-0.1,0.3l-0.1,0.3l-0.1-0.1l-0.1,0.3l-0.4-0.3l-0.2,0l-0.1-0.5l-0.2-0.6l-0.1-0.4l0-0.5v-0.7
	l0-0.2l0.1-0.1l0-0.4l-0.1-0.2l0.1-0.2l0.2,0l0.2,0.3l0.2,0.1l0.2,0.2l0.1-0.2v-0.2l0.3-0.1l0.2-0.6l-0.1-0.2l-0.2-0.1l0-0.1
	l0.2-0.1l0.1,0l0.1-0.4l-0.1-0.1l0.1-0.4l0.1-0.1l0.1,0.4l0,0.3l0.1,0.2l-0.1,0.6l0.3,0.3l0.1-0.2l0.3-0.2l0.1-0.3l-0.1-0.2l0-0.5
	l0.2,0.1l0.1-0.1l0.1-0.3l-0.1,0l-0.1,0.1l-0.1-0.2l0-0.4l0.2-0.2l0-0.1l-0.2-0.1l0-0.3l-0.1,0l-0.1,0.2l-0.2-0.2l-0.1,0l-0.1,0.2
	l0.1,0.2l-0.1,0.1l0,0.2l-0.4,0.1l-0.1,0.3l-0.1-0.1l-0.1,0.3l-0.2,0.1l-0.1-0.1l-0.3,0.4l0.1,0.2l0,0.4l-0.2,0.4l-0.2-0.2l-0.2,0
	l-0.1-0.3l0.1-0.3l0-0.3l-0.1-0.3l0.1-0.2l-0.1-0.4l0-0.3l-0.2-0.7l0.2,0l0.1-0.1l0.2,0l0.1-0.3l-0.3-0.3l-0.2-0.1l-0.2,0.5
	l-0.1-0.3l-0.3-0.4l-0.3-0.6l-0.1-0.3l0-0.3l-0.1-0.2l0.2-0.2l-0.1-0.1l-0.2,0l-0.1-0.4l0.1-0.2l0-0.2l-0.1-0.2l0-0.3l0.2-0.2
	l0.2-0.2l-0.1-0.2l-0.2-0.1l-0.2,0.2l-0.2-0.4l0-0.3l0.1-0.8l-0.2-0.6l0.1-0.2l-0.1-0.4l0.1-0.2l0.2-0.1l0.1-0.2l0.4-0.1l0.5-0.2
	l0.2-0.2l0.2-0.6l0.1-0.2l0.3-0.2l0.1-0.2l0-0.4l0.1-0.4l-0.1-0.4l0-0.4l0.2-0.4l0.2-0.1l0.3-0.1l0.3-0.2l0.2,0.1l0.3-0.2l0.1,0
	l0.2-0.2l0.1,0l0.3,0.2l0.2,0l0.2,0.1l0.2,0l0.4,0.4l0.1,0.3l0,0.6l0.1,0.3l0,0.2l0,0.4l-0.1,0.6l-0.2,0.3l-0.2,0.1l0,0.4l-0.2,0.5
	l-0.6,0.7l-0.1-0.2l0.2-0.3l0.2,0l0.2-0.3l0-0.2l-0.3,0.2l-0.2,0.3l-0.3,0.5l-0.2,0l-0.1,0.2l-0.2,0.1l-0.2,0.3l0.1,0.2l0.1,0.1
	l-0.1,0.4l-0.2,0.1l0,0.3l-0.1,0.4l-0.2,0l0.1,0.3l0.2,0.2l0.4,0.5l0.1,0.3l0.1,0.1l0.1,0.3l0.3,0.6v0.2l0.2,0.4l0,0.1l0.2,0.5
	l0,0.4l0.6,0.7l0.3,0.1l0.1,0.2l0,0.3l0.1,0.3l0,0.3l0.1,0.2v0.4l0.1,0.3l-0.1,0.2l-0.1,0.6l-0.1,0.1l0,0.4l-0.1,0.2l-0.2,0l0.2,0.3
	l0.1,0.3v0.6l-0.3-0.2l-0.2,0l-0.2-0.2l0-0.2l-0.2-0.2l0-0.2L330.2,596.1z"/>
<path id="D639" class="st0" d="M293.4,251l0.2,0.4l-0.1,0.5l-0.3,0.2l0.1,0.6l-0.1,0.5l-0.1-0.5l-0.4-0.3l-0.1-0.1l0-0.3l0.2-0.6
	l0-0.2l0.2-0.1l0.2-0.2l0.2,0.1L293.4,251z M280.5,254l0,0.2l0.1,0.3l-0.2,0.1v-0.3l-0.2,0l0.2-0.3L280.5,254z M278.5,249.3
	l-0.1-0.1l0-0.2l0.1-0.3l0.2,0.3L278.5,249.3z M280.1,253.9l-0.1-0.6l0.1-0.6l-0.1-0.1l0.1-0.3L280,252l0-0.5l0.2-0.2l-0.2-0.6
	l0-0.5l0.2-0.2l0-0.3l0.2,0l0.1-0.1l0.2,0l0.1,0.2l-0.1,0.3l-0.1,0.1l-0.1,0.5l0,0.6l0.1,0v0.7l0.1,0l0.1-0.3l0-0.4l0.1,0l0-0.2
	l0.2,0l0.2,0.2l0-0.2l-0.2-0.1l-0.2-0.3l0.1-0.4l0.2,0l0.3,0.4l0.2-0.2l0.2,0.2l0.1-0.2l0.2,0.1l0.1-0.1l0.3,0v0.5l0,0l0,1.1
	l0.1,0.3l0.2,0.3l0,0.4l-0.1,0.3l0.1,0.3l0,0.4l-0.2,0.2l-0.3-0.1l-0.4,0.1l-0.2,0l-0.1,0.2l-0.2-0.3l-0.5-0.1h-0.2l-0.1-0.2l0-0.3
	l-0.2-0.1l-0.2,0.3L280.1,253.9z M291.1,248.4l0.2,0.4l0,0.3l0.1,0.1l0.1,0.5l0.1,0.1l0.2,0.7l-0.1,0.3l-0.2-0.3l-0.2-0.1l-0.1,0.2
	l-0.3,0.1l-0.2-0.1l0-0.1l-0.2-0.1l-0.1-0.2l-0.2,0.1l-0.2,0.3l-0.2,0.2l0,0.2l-0.1,0.1l0.1,0.2l-0.2,0.3l0,0.3l-0.1,0.4l-0.1,0
	l-0.1-0.3l-0.1-0.6l0-0.7l-0.2-0.5l-0.1-0.3l0.1-0.5l0.2-0.4l0.2,0.1l0.1,0.2l0,0.3l0.1,0.1l0.2,0l0.1-0.3l0-0.3l0.2-0.3l0.3-0.1
	l0.2-0.2L291.1,248.4z M288.9,250.1l-0.2-0.3l-0.1-0.3l0-0.4l0.2-0.2l0.2,0.1l0,0.2l-0.1,0.4l0,0.4L288.9,250.1z M281.7,245.7
	l-0.1,0.2l0,0.4l-0.1,0.1l-0.1,0.7l-0.1,0.1l0,0.3l-0.1,0.2l-0.1,0.7l-0.1,0.1l-0.3,0.1l-0.1-0.2l0.1-0.4l0.1-0.1l0-0.3l0.1-0.1
	l0.1-0.9l0-0.2l0.2-0.1l0.1-0.2l0.1,0l0.1-0.3L281.7,245.7z M280.9,246l-0.1-0.3l0.2-0.1L280.9,246z M282.7,247.2l-0.1,0.3l-0.1,0
	l-0.1-0.3l-0.2,0l-0.3-0.5l0-0.2l0.1-0.4l0.2-0.3l0.2-0.6l0.1,0l0.1,0.2l0,0.2l0,0.2l0.2,0.2l0,0.5l0,0.1L282.7,247.2z M283,245.2
	l0,0.2l-0.1,0.3l-0.1-0.3L283,245.2z M277.3,224.8l0.2,0l0.2,0.2l-0.2,0.5l-0.1,0.6l0,0.2l-0.1,0.1l-0.2-0.2l-0.3-0.4l-0.1-0.4
	l0.2-0.5l0.2-0.1L277.3,224.8z M280.1,208.6l0.2,0.1l0.1,0.3l-0.1,0.3l-0.1-0.1l-0.1-0.5L280.1,208.6z M275.9,206l-0.1-0.2l0.1-0.2
	l0.1,0L275.9,206z M278.5,204.2l-0.2-0.3l0-0.3l0.1-0.3l0.2-0.1l0-0.2l0.1-0.2l0.1-0.6l0.1-0.1l0.1-0.3l0-0.3l0.1-0.5l0.4,0.1l0,0.2
	l-0.1,0.7l0,1.9l0.1,0.4l0,0.3l-0.1,0.7l0.1,0.4l0.3,0.5l0.2,0.4l0.2,0.6l0,0.4l0,0.3l-0.1,0.3l-0.3-0.6v0.4l0,1l0.1,0.4l0,0.5
	l-0.1,0.3l-0.2-0.1l-0.1,0.1l-0.3-0.1l0.2-0.3l-0.1-0.3l0-0.3l0.2-0.5l0-0.3l-0.1-0.5l0-0.5l0-0.6l-0.1-0.6l0-0.4l-0.1-0.4L279,205
	l-0.4-0.5L278.5,204.2z M282.7,198.9l-0.1-0.1l-0.1-0.3l0-0.3l-0.1-0.4l0-0.1l0.2-0.3l0.1,0.1l-0.1,0.3l0,0.3l0.1,0.2l0,0.4
	L282.7,198.9z M280.2,206.6l-0.2-0.3l-0.1-0.3l-0.1-0.3l0.1-0.4l-0.3,0l0-0.2l0.1-0.1l0-0.4l0.1,0.1l0.2,0.6l0,0.5l0.1,0.5
	L280.2,206.6z M280.4,198.1l0.1,0.3l-0.2,0.4l-0.1,0.3l0.1,0.2l-0.2,0.5l-0.1,0.6l-0.2,0.4l-0.1,0.1l-0.2-0.1l-0.2,0l-0.1-0.3
	l0.2-0.4l0.1-0.1l0-0.3l0.1-0.3l0.1-0.2l0.1-0.4l0.1-0.2v-0.3l0.3,0l0.1-0.1L280.4,198.1z M279.3,245.1l0.2,0.1l0.2-0.1l0.1,0.1
	l0.2,0l0,0.3l-0.1,0.2l0,0.3l-0.1,0.2l0,0.3l-0.3,1.1l0.1,0.2l-0.2,0.2l0,0.2l0.1,0.2l-0.2,0.2l-0.1,0.2l-0.1,0.5l0,0.5l0,0.5
	l-0.2,0.3l-0.1-0.8l-0.2-0.2l0-0.4l0-0.3l-0.1-0.7l-0.1-0.3l0-0.3l0.1-0.4l-0.1-0.3l0.1-0.3l0.1-0.4l-0.1-0.5l0.1-0.2l0-0.5l0.1,0
	l0.1,0.1L279.3,245.1z M291.7,241.6L291.7,241.6l-0.2-0.3l0.1-0.3l0-0.2l0.1-0.3l0.3-0.4l0.2,0.1l0.1,0.3l-0.2,0.5l-0.2,0.3
	L291.7,241.6z M288.9,234.7l0.2,0.1l0,0.5l-0.1,0.1l-0.3,0l-0.2-0.2l0.1-0.2L288.9,234.7z M286.8,234.3l0.4,0.2l0.5,0.6l0.1,0.2
	l-0.5,0.1l-0.3-0.2l-0.3-0.4v-0.2L286.8,234.3z M291.2,234.8l-0.2-0.1l0-0.4l0.2,0l0.1,0.2L291.2,234.8z M288.1,235.7l0.3,0.1
	l0.5,0.3l0.3,0l0.2-0.1l0.2,0.4l0.3,0.2l0.2-0.1l0-0.2l0.2-0.4l0.2,0.1l0,0.3l0.1,0.2l0.2,0l0,0.3l-0.2,0.4l-0.2,0.1l-0.1,0.2l0,0.3
	l0.1,0.4l-0.1,0.4l-0.2-0.1l0-0.4l-0.1-0.2l-0.2,0.1l-0.2-0.1l-0.3,0.4l-0.1,0.1l-0.3-0.2l-0.1-0.3l0.1-0.3l-0.1-0.2l-0.3,0
	l-0.4-0.5l-0.3-0.1l0-0.5l0-0.3l0.2-0.2L288.1,235.7z M294.4,235.3l-0.1,0.2l0,0.3l-0.1,0.1l-0.3,0.1l-0.1,0.2l-0.1,0.4l0,0.4l0,0.3
	l0,0.7l-0.1,0.3l-0.2,0.2l-0.1,0.4l-0.1,0.7l-0.1,0.4l-0.2-0.2l-0.6-0.3l-0.1-0.2l0-0.5l0.1-0.3l0.5-0.8l-0.2-0.4l0.1-0.7l0-0.3
	l0.2-0.7l0.2-0.6l0.2-0.2l0.2,0l0.5,0.4v-0.4l0.1-0.3l0-0.2l0.2-0.1l0-0.2l0.2-0.2l0,0.3l0,0.2l0.1,0.4l0.2,0.1l0,0.2l-0.1,0.3
	L294.4,235.3z M283.4,243.9l0.2,0l0.3-0.1l0.3,0.3l0.1,0.3l0.2,0l0.2-0.2l0.2-0.4l0.4-0.2l0.4,0.1l0.3,0.2l0.4,0.4l0.2,0.2l0.3,0
	l0.2-0.3l0.6-0.1l0.1,0.2l0.2-0.1l0.4-0.2l0.1,0.1l0.2,0l0.2,0l-0.1,0.2l0.2,0l0.2-0.1l-0.1,0.3l0.1,0.2l0,0.3l0.2,0.4l0.3-0.1
	l0.2-0.1l0.3,0.3l-0.1,0.4l-0.1,0l-0.2,0.2l0.2,0.4l0,0.8l0.1,0.1l0.1-0.3l0.2,0.1l-0.2,0.2l0.1,0.3l-0.2,0.2l-0.1,0.2l-0.3,0.3
	l-0.2,0.1l-0.4,0l-0.2-0.1l-0.2,0l-0.3,0.3l0,0.3l0.1,0.1l0.1,0.5l0.2,0.1l0.1,0.2l0.1,0.3l0.2,0.2l0.1,0.5l0,0.5l0,0.7l0.1,0.2
	l0.3,0.2l0.1,0l0.1,0.2l-0.1,0.3l-0.3,0.1l-0.3-0.3l-0.4,0l0-0.2l-0.1-0.1l-0.3-0.1l-0.2-0.2l-0.1,0.1l-0.3,0.4l0.1,0.4l-0.1,0.2
	l0.1,0.1l0.3-0.2l0.1,0.2l0,0.3l-0.1,0.1l0,0.2l-0.1,0.4l0.3,0.5l-0.3,0.3l-0.1,0.4l0.1,0.3l-0.2,0.2l-0.1-0.3l-0.3,0l-0.3-0.6
	l-0.3,0l-0.2,0.2l-0.2-0.2l-0.1,0.1l-0.1,0.3l-0.1,0.1l0,0.3l0.1,0.2l0.2,0.1l0.1,0.2l-0.2,0.1l-0.1,0.2l-0.2,0.5l0,0.2l-0.1,0.3
	l0,0.3l-0.2,0.2l-0.3-0.3l-0.2,0.1l-0.1,0.2l0.1,0.4l0.3,0.1l0.2,0.5l0,0.3l0.1,0.2l0,0.3l-0.1,0.2l-0.3-0.1l-0.3-0.2l-0.2,0
	l-0.4,0.3l-0.3,0.1l0,0.1l0.2,0.3l0.2,0.1l0,0.5l-0.1,0.3l0.1,0.4l-0.1,0.2l-0.2-0.1l-0.2,0.2l-0.2,0l-0.2,0.4l-0.2,0.1l-0.2,0.4
	l-0.3,0l-0.2,0.4l-0.2-0.1l-0.1-0.2l-0.3-0.6l-0.3-0.1l-0.2,0l-0.2-0.1l-0.2-0.2l-0.1-0.5l0-0.8l0-0.3l0.1-0.6l0.2-0.5l0.1-0.5
	l0-0.5l0.2-0.5l0.1-0.4l0.2-0.5l0-0.5l0.2-0.3l0.2-1.1l0.1-0.5l0.2-0.5l0-0.4l0.1-0.2l0.1-0.5l-0.1-0.3l0.2-0.4l0-0.3l-0.3-0.5
	l0-0.2l0.2-0.8l0.1-0.3l0-0.2l0.1-0.3l-0.1-0.2l0-0.3l-0.1-0.1l-0.2,0.2l-0.1,0.2l-0.1,0.1l-0.2-0.2l-0.5,0.2l-0.2-0.2l0-0.5
	l-0.2-0.4l-0.2,0l0.1-0.4l0.1-0.3l0.2-0.7l0-0.2l0.1-0.3l0-0.1l0.1-0.3l0.1,0l0.2,0.3l0.1,0.2l0.1,0l0.3,0.3l0.1-0.1l0.1-0.3
	l0.3-0.3l0.2-0.6l0.2,0l0.2-0.5l-0.2-0.5l-0.2-0.1l-0.1-0.2l0.2-0.2l-0.1-0.4l-0.1,0L283,245l-0.2-0.1l0.1-0.4l0.1-0.2l0-0.4
	l0.1-0.3L283.4,243.9z M293.6,246.3l0.1,0.2l0,0.3l-0.2,0.4l-0.1,0.1l-0.3,0.7l-0.1,0.2l-0.2,0.6l0.1,0.3l0,0.5l-0.1,0.3l-0.2,0.5
	l-0.2,0.1l-0.1-0.1l-0.1-0.5v-0.4l0.1-0.4l0-0.3l0.1-0.2l0.1-0.4l-0.1-0.4l-0.1,0l-0.1,0.2l-0.2-0.2l-0.1-0.2l0-0.3l-0.4-0.2
	l-0.2,0.3l-0.2-0.1l0-0.2l0.1-0.2l-0.1-0.3l0.1-0.3l-0.1-0.3l0.1-0.2l0.1-0.1l0.3-0.1l0.2,0l0.3,0.3l0,0.4l0.1,0.1l0.2-0.2l0.1,0.3
	l0.1,0.1l0.1-0.2l0.1-0.2l0-0.2l-0.1-0.3l0.1-0.6l-0.1-0.4l0.1-0.2l0.2-0.3l0.1,0.5l0.1,0.3l0,0.3l-0.2,0.4l0,0.4l0.1,0.2l0.3,0.3
	L293.6,246.3z M289.6,245.3l-0.1-0.1l0.2-0.2l0.1,0.2L289.6,245.3z M279.8,178.7l0.1,0.3l-0.1,0.2l-0.2,0.1l-0.3,0.2l-0.2,0.3
	l-0.2,0.5v0.2l0.1,0.3l0,0.2l-0.1,0.1l-0.3-0.2l-0.1-0.4l0-0.2l-0.1-0.4l-0.1-0.5v-0.4l0.2-0.3h0.1l0.3,0.3l0.5-0.1l0.2-0.2
	L279.8,178.7z M280.5,179l0.1,0.1l-0.2,0.3l-0.1-0.2L280.5,179z M301.8,161.8l0.3,0.1l0,0.2l-0.3,0.1l-0.1-0.2L301.8,161.8z
	 M298.4,159.6l0.4,0.1l0,0.2h-0.2l-0.1,0.4l0,0.2l-0.1,0.2l0.2,0.6l0,0.3l-0.1,0.2l-0.1-0.4l-0.2-0.1l-0.2,0l-0.2-0.2l0-0.5l0.3,0.1
	l0-0.5l0.1-0.5l-0.2-0.2l0.1-0.1L298.4,159.6z M285.6,152.2l0.4,0.3l-0.1,0.2l0,0.2l-0.1,0.4l0,0.2l-0.1,0.1l-0.2-0.2l0.1-0.4
	L285.6,152.2z M303.1,152.4l-0.2,0.6l-0.2,0l-0.1-0.2l0-0.3l0.2-0.3l0.2,0L303.1,152.4z M287.5,150.5l0.1,0.5l0.1,0.3l-0.2,0.4
	l-0.2,0.1l-0.3,0.4l-0.2,0.1l-0.3-0.2l-0.2,0.1l-0.2-0.5l0-0.2l0.1-0.3l0.1-0.4l0.1-0.2l0.1,0.1l0.4,0l0.4-0.2L287.5,150.5z
	 M292.2,183.6H292l-0.1-0.2l0-0.2l0.1-0.2l0.1,0.1L292.2,183.6L292.2,183.6z M292,182.1l-0.2-0.3l0-0.4l0.2,0.3V182.1z M284.5,172.7
	l0.2,0.1l-0.2,0.1l-0.1-0.2L284.5,172.7z M301,168.6l-0.1,0l-0.1-0.4l0.1,0L301,168.6z M376.1,148.5l0.1,0.2l0.2,0.1l-0.1,0.3l0,0.3
	l0.1,0.2l0,0.3l-0.1,0.2v0.4l-0.2,0.5l-0.2,0.2l-0.1,0l-0.2,0.2l0,0.1l-0.3-0.1l-0.1,0.1l-0.1-0.2l-0.2-0.2l0-0.2l-0.2-0.3l0-0.5
	l0.2-0.1l0-0.2l0.3-0.7h0.1l0.2-0.5l0.3,0.2l0.2-0.2L376.1,148.5z M301.2,132.8l0.2,0.3l-0.2,0.3l-0.1,0l-0.3,0.1l-0.2,0.3l0,0.5
	l-0.1,0.3l-0.3,0.8l-0.2-0.1l0-0.5l-0.1-0.3l0-0.3l0.2-0.3l0.3-0.3l0.1-0.2l0-0.2l0.2-0.3L301.2,132.8z M311.1,102.9l0.2,0.3
	l-0.1,0.6l-0.1,0.3l0.2,0.4l0.1,0.6l0.1,0.3l0,0.4l-0.1,0.4l0,0.3l-0.2,0.2l-0.3,0.1l-0.2-0.2l0-0.2l0.1-0.4l0.1-0.7l0-0.8l-0.1-0.3
	l0-0.3l-0.1-0.3l0-0.3L311.1,102.9L311.1,102.9z M298.2,131l0.1,0.1l0.1,0.2l0.2,0.2l0,0.3l0.1,0.3l0.1,0.2l-0.1,0.2l0.1,0.4
	l-0.1,0.4l0.3,0.7l0,0.3l0.1,0.2l0,0.4l-0.2,0.2l-0.2,0l-0.3-0.3l-0.1-0.1l0-0.2l-0.1-0.2l-0.1-0.5h-0.2l-0.2-0.2l-0.3-0.1l-0.1-0.2
	l-0.4,0.4l-0.1-0.1l-0.2,0l-0.2,0.1l-0.2-0.1l0.1-0.2l-0.1-0.2L296,133l-0.2-0.2l0-0.2l0.3-0.2l0.1-0.5l0.2-0.1l0.2,0l0.4-0.2h0.3
	l0.3-0.2l0.1,0.3l0.1-0.1v-0.3l0.2-0.3l0.1,0L298.2,131z M319.9,100.3l-0.2,0l0-0.2l0.2-0.4l0.1,0.3l-0.1,0.2L319.9,100.3z
	 M319.9,91.3l0.1,0.6l0.1,0.1l0.4-0.1l-0.1,0.3l-0.3,0l-0.1,0.4l0.1,0.7l0.2,0.4l0.3,0.5l-0.1,0.3l-0.2,0.5l0.1,0.3l-0.1,0.5
	l0.1,0.4l-0.1,0.3l-0.2,0.5l0,0.1l-0.1,0.4l0,0.3l-0.1,0.3l-0.1,0.2L320,99l-0.1,0.3l-0.1-0.4l-0.1-0.1v-0.2l-0.2-0.2l-0.2,0
	l-0.1-0.3l0-0.2l0.1-0.2l0-0.2l0.2-0.1l0.1-0.2l0-0.3l0.1-0.1l0.2-0.6l0-0.2l0-0.3l-0.1-0.2l0-0.7l-0.1-0.4l0.1-0.1l-0.1-0.3l0-0.3
	l-0.1-0.3l-0.1-0.7l-0.1-0.3l0-0.4l0.3-0.1l0.3-0.4L319.9,91.3z M332.7,32.3l-0.3,0l0.1-0.2L332.7,32.3z M337.4,27l0.2,0.2l-0.1,0.2
	l-0.1-0.2L337.4,27z M336.9,29.7l0.1,0.2l0,0.2l-0.3,0.4l-0.1,0.3l0,0.2l-0.1,0.4l0,0.2l-0.1,0.3l-0.1,0.2l-0.4,0.3l-0.3,0.4
	l-0.1,0.3l-0.1,0.1l-0.1,0.4l-0.2,0.4l-0.2,0.3l-0.1,0.3l0.1,0.2l-0.1,0.4l-0.1-0.6l0-0.3l0.2-0.7l0-0.5l0-0.7l0.1-0.4l0.2-0.3
	l0.2-0.4l0.2-0.6l0.2-0.8l0.2-0.2l0.3,0l0.3-0.1l0.2-0.1L336.9,29.7z M320.1,88.3l0.2,0.3l-0.2,0.7l-0.1,0.2l-0.2-0.2l-0.2,0l0-0.3
	l0-0.3l0.2,0l0-0.2l0.2,0L320.1,88.3z M319.3,88.3l0.2,0l0,0.1l-0.2,0.1L319.3,88.3z M303.3,150.9l0.3,0.1l0.1,0.4l-0.3,0l-0.2-0.3
	L303.3,150.9z M301.7,151.7l-0.1,0.3l0.1,0.7l-0.1,0.1l0-0.3l-0.1-0.4l0.3-0.7l0.1,0L301.7,151.7z M289.4,144.6l-0.1,0.2l0.1,0.3
	l0,0.2l-0.1,0.2l-0.2,0l-0.2-0.3v-0.2l0.2-0.3L289.4,144.6z M292.2,144.3l0.2,0.1l-0.2,0.5L292,145l-0.2-0.1l0.1-0.2l0-0.3
	L292.2,144.3z M300.8,140.1l0,0.3l-0.2,0.3l-0.1-0.3l0.1-0.3L300.8,140.1z M290.8,137.2l0.2,0l0.2,0.2v0.2l-0.3,0.5l-0.3,0.3
	l-0.2,0.4l-0.1,0.4l-0.2,0.2l-0.1-0.2l-0.1-0.3l0-0.2l0.2-0.6v-0.3l0.2-0.3l0.3-0.3L290.8,137.2z M291.6,142.5l0.2,0.3l-0.3,0.3
	l-0.1,0l-0.1-0.3l0.1-0.3L291.6,142.5z M289.5,142.2l0.2,0.3l-0.2,0.3l-0.1-0.2L289.5,142.2z M292.6,184.9l0.2,0.1l0.3-0.1l0.2-0.1
	l0.2,0.1l-0.1,0.2v0.2l0.3,0.1l-0.1,0.4l-0.1,0.3l0.1,0.7l0.1,0.1l0.1,0.4l-0.3,0.1l-0.2,0l-0.1-0.2l-0.2-0.2l-0.4,0l0-0.1l-0.3,0
	l0-0.3l-0.1-0.2l-0.2-0.4l0.1-0.4l0.3-0.2l0.1-0.2l-0.1-0.2l0-0.3l0.2,0L292.6,184.9z M283.9,195.7l0.3,0.1l0.1,0.1l-0.2,0.7
	l-0.2,0.1l-0.2-0.2l0-0.2l0-0.4L283.9,195.7z M282,194.1l0.1,0.3l0.1,0.1l0,1.1l-0.1,0.3l-0.1,0.2l-0.3-0.1l0-0.5l0.2,0l0.1,0.1
	l0.1-0.3l-0.1-0.2L282,194.1L282,194.1z M284.5,194.2l0.1,0.3l0.1,0.6l0.1,0.3l-0.2,0.3l-0.3,0.2l-0.2-0.2l-0.3,0l-0.1-0.3l0.2-0.1
	l0.2-0.4l-0.2-0.2l-0.3,0.3l-0.2,0l-0.3-0.2l-0.1-0.1l0-0.3l0.1-0.2l0.3,0.1l0.4-0.1l0.2-0.3l0.1,0L284.5,194.2z M278.3,187.6
	l0.1,0.2l0.4,0.2l0.4-0.1l0.1,0.3l0.2,0v0.2l0.3,0.2l0,0.3l0,0.5l0.1,0.1l-0.1,0.4l-0.1,1.2l-0.2,0.3l0.1,0.2l0.2-0.2l0.1,0.1v1
	l0,0.6l-0.2,0l0.1,0.3l0,0.7l0.1,0.4l0.1,0.2l0,0.3l-0.1,0.2l0,0.9l-0.1,0.1l0,0.3l-0.2,0.2l-0.1,0l-0.2-0.2l-0.1,0.1l0.1,0.4l0.4,0
	l0,0.4l-0.2,0.2l-0.1,0.4l0,0.2l-0.1,0.3l-0.2,0.2l-0.4,0.6l0.1,0.5l-0.2,0.4l-0.4,0.2l-0.1,0.2l-0.2,0.1l-0.4-0.1l-0.1-0.1
	l-0.2-0.1l-0.2,0.3l0.2,0.2l-0.1,0.3v0.4l0.4-0.4h0.1l0.2,0.2l-0.1,0.2l0.2,0.6l0,0.2l-0.2,0.2l-0.2,0l-0.1,0.3l-0.3,0l-0.1,0.1
	l0,0.3l-0.2,0.9l0,0.3l-0.1,0.3l0,0.3l-0.1,0l0-0.5l-0.2-0.2l-0.1-0.3l0.1-0.2l0.1-0.5l-0.1-0.7l-0.2-0.3l-0.1-0.2l0-0.6l-0.1-0.4
	l-0.2-0.1l0-0.2l-0.2-0.3l0-0.3l-0.1-0.4l0-0.5l-0.1-0.3l0-0.4l0.1-0.1l0.1-0.4l0.1,0l0.2-0.3l0.1-0.4l0.2-0.3l-0.3,0l-1.7-0.2
	l0-0.2l1.8,0.2l0.1,0l0.3,0v-0.2l0.1-0.3l0-0.5l0.1-0.2l-0.1-0.2l0-0.3l0.3-0.3l0-0.5l-0.1,0.1l-2-0.2l0-0.5l1.9,0.1l0.1,0l0-0.3
	l0.1-0.1l0-0.3l0.1-0.1l0-0.4l0.2-0.4l0-0.2l0.2-0.1l0-0.3l0.1-0.2l-0.2,0l-0.1-0.2l-0.4-0.1l0-0.9l0.1-0.1l0.2,0l0.1-0.2l0-0.2
	l0.1-0.1l0.4-0.9l0-0.3l0.1-0.2h0.2l0.1-0.3l0.2-0.1L278.3,187.6z M283.6,217.5l0.3,0.4l-0.1,0.3l0.1,0.1l0-0.4L283.6,217.5l0-0.2
	l0.1-0.4l0-0.7l-0.1-0.4l0-0.4l0.2-0.2l0-0.3l0-0.4l0.3-0.8l-0.1-0.4l0-0.5l0-0.6l0-1.1l-0.1,0.4l-0.1,0.6l-0.4,0.6l-0.1,0.4
	l-0.2,0.3l-0.1,0.3l-0.2,0.2l-0.4,0l-0.3-0.1l-0.2-0.2l-0.5,0.3l-0.2-0.1l-0.3,0l-0.2-0.2l0.2-0.6l0-0.3l-0.1-0.3l-0.2-0.2l-0.2,0
	l0.1-0.5l0.2-0.1l0.4,0l0.2-0.1l0-0.5l-0.1-0.5l0.1-0.5l0.1-0.3l0.1,0l0-0.3l-0.1,0l-0.1-0.5l-0.1-0.4l0-0.1l-0.3-0.1l-0.2-0.3
	l-0.1-0.3l0.1-0.5l-0.2-0.4l-0.1-0.6l0-0.3l-0.2-0.8l0-0.4l-0.1-0.4l0-0.3l0.1-0.4l-0.2-0.1l0-0.4l0-0.2l0.1-0.5l0-0.4l0.1-0.4
	l0-0.2l0.1-0.4l0.2-0.1l0.2-0.5l0.1,0.2l0,0.2l0.1,0.6l0.1,0.3l0,0.2l0,0.4l0.2,0l0-0.5l-0.1-0.4l0-0.4l0.1-0.3l0.1-0.1l0,0.8
	l0.1-0.3l0-0.3l0-0.5l0.1-0.2l0.1-0.1l0.3-0.3l0.1-0.2l0.2,0.1l0.1-0.8l0.2-0.2l0,0.3l0.1,0.2l0.7,0.9l0,0.2l-0.1,0.5l0.1,0.3
	l0.3,0.2l0.1,0.2l0.1,0.8l0.1-0.2l-0.1-0.4l0-0.3l-0.4-0.3l-0.1-0.4l0.1-0.5l-0.1-0.2l-0.2-0.2l-0.1-0.4l0.1-0.6l0-0.3l0.1-0.2
	l0.2,0.1l0.2-0.2l0.2,0.3l0.1,0l0.2-0.1l0.2,0l0.2-0.1l0-0.4l0.1-0.3l-0.1-0.6l0.1-0.3l-0.2-0.3l0.1-0.4l0.3-0.1l0.2-0.3l0.2-0.2
	l0.5,0l0.3,0.1l0.5,0.1l0.1,0.2l0,0.3l0.1,0.3l0.2,0.1l0.2-0.1l0.2-0.2l0.1-0.2l0.2,0.1l0,0.3l-0.2,0.6l0.1,0.2l0.2,0l0.5-0.2l0.3,0
	l0.4-0.2l0.4,0l0.3-0.1l0.1-0.2l-0.3-0.3l0-0.2l0.2-0.2l0.3-0.1l0.3,0.1l0.3-0.1l0.1,0l0.3-0.3l0.1-0.4v-0.5l-0.2-0.6l0.2-0.3l0-0.2
	l-0.1-0.2l0.1-0.1l0.2,0.1l0,0.4l-0.1,0.4l0.2,0l0.3,0.2l0,0.3l0.1,0.1l0.4-0.1l0.2-0.2l0.1,0.1l-0.2,0.3l-0.1,0.1l-0.4,0.2l0,0.2
	l0,0.2l-0.1,0.3l-0.2,0.3l-0.1,0.4l0.1,0.2l0.2,0l0.3-0.2l0.2,0l0.2-0.2l0.1,0.1l0.3,0l0.1,0.2l0,0.5l-0.1,0.2l0.1,0.8l0,0.3
	l0.1,0.3l0.3,0.3l0.2-0.1l0.1,0.1l-0.1,0.5l0,0.5l0.1,0.5l0.2-0.1l0.3,0.1l-0.2,0.3l-0.1,0.5l0.2,0.3l0,0.2l0.1,0.3l0.2,0.4l0.1,0.4
	l0,0.4l-0.3,0.3l0,0.3l-0.1,0.3l-0.3,0.2l-0.2,0.2l-0.2,0.3l-0.2,0.1l-0.1,0.4l0,0.2l0.3,0.5l0.4-0.2l0.2,0l-0.1,0.6l0.2,0.4
	l0.5,0.2l0.2,0.2l0,0.4l0.3,0.5l0.1,0.2l-0.1,0.6l-0.1,0.3l0,0.3l0.1,0.4l0.1,0.1l0.3,0l0.2,0.1l0.2,0.7l-0.1,0.1l-0.3-0.3l-0.2,0
	l-0.3,0.3l-0.2,0.7l0,0.3l0.1,0.1l0,0.5l-0.1,0.3l0.1,0.3l0,0.4l-0.2,0.6l0,0.4v0.4l-0.1,0.4l-0.2,0.9l0,0.9l0,0.6l-0.1,0.2l0.1,0.3
	l-0.1,0.4l-0.1,0.5l0,0.5l0.1,0.3l0,0.3l0.2,0.5l0.1,0.3l0,0.5l0,0.2l0.1,0.2l0,0.1l0.1,0.4l0.3,0.6l0.1,0.5l0.1,0.2l0.1,0.7
	l-0.1,0.4l0,0.4l-0.2,0.7l-0.2,0.5l-0.2,0.2l0,0.8l0.2,0.7l-0.3,0.3l0,0.3l-0.2,0.2l-0.1,0l-0.1-0.2l-0.1-0.2l-0.2-0.1l-0.1-0.2
	l-0.1-0.3l-0.2,0.1l0,0.2l-0.1,0.2l-0.2,0.6l-0.2,0.3l-0.3,0l-0.1,0.5l0.2,0.2l0.1,0.3l-0.1,0.3l0.3-0.2l0.2,0l0.1-0.1l0.1-0.4
	l0.3-0.2l0.1,0l0.2,0.1l0.1,0.2l-0.1,0.5l-0.2,0.1l-0.2,0l-0.3,0.4l0,0.1l-0.3,0.6l-0.3,0.2l-0.2,0l-0.2-0.1l-0.3,0.3l-0.3,0.2
	l-0.1-0.1l-0.1,0.1l-0.2-0.1l0,0.2l0.2,0l0,0.3l0.2,0.1l-0.3,0.6l0.1,0.2l0,0.3l-0.1,0.2l0,0.2l-0.2,0.5l0,0.4l-0.1,0.1l-0.3,0
	l-0.2-0.2l0.1-0.5l0.1-0.5l0-0.2l-0.2-0.2l0-0.1l-0.5-0.4l-0.3-0.5l-0.4-0.4l-0.1-0.1l-0.4-0.3l0.2-0.2l0-0.2l-0.3,0.2l-0.3,0
	l-0.2,0.1l-0.4-0.6l-0.6-0.5l-0.4-0.6l-0.2-0.4l0-0.5l0-0.4l-0.3-0.3l0,0.2l0.3,0.3l-0.1,0.5v0.2l0.1,0.2l0.3,0.8l0.3,0.4l0.4,0.4
	l0.2,0.3l0.2,0.2l0.3,0.2l0.2-0.2l0.7,0.7l0.2,0.3l0.3,0.5l0.2,0.6l-0.2,0.1l-0.2-0.2l-0.3-0.2l-0.2-0.2l-0.2,0.3l-0.2,0.2l-0.1,0.3
	l-0.3-0.5l-0.2-0.2l-0.2-0.3l-0.3,0.1l-0.2,0.2l-0.3-0.2l-0.4,0.1l-0.2-0.2l-0.3-0.2l-0.1-0.2l-0.2,0.1l-0.7-0.3l-0.2-0.2l-0.1,0.2
	l-0.3-0.1l-0.3-0.1l-0.2-0.3l-0.1-0.1l-0.2,0.1l-0.3,0l0-0.5l0.1-0.4l0.2-0.5l-0.1-0.5l0.1-0.2l-0.1-0.2l-0.1,0.5l0.1,0.5l-0.2,0.6
	l0,0.6l0.1,0.1l0.2,0.1l0.4-0.2l0.3,0.4l0.2,0.1l0.5,0.1l0.5,0.2l-0.1,0.5l0.1,0.3l0.2,0.2l0.1,0.6l0.1,0.1l0.3,0.2l0.1,0.2
	l-0.2,0.5l0.1,0.3l0.2,0.2l0.2,0.1l0.3,0.6l0,0.2l0.1,0.3l0.3,0.4l0.2,0.1l0,0.3l-0.1,0.2l0.1,0.4l0.1,0.1l0.3-0.1l0.2,0.1l0,0.3
	l0.1,0.2l0.1,0.1l0.2-0.1l0.1-0.3l0.2,0.2l0.1,0l0.1,0.2l0,0.2l0.2,0l0,0.3l0.1,0.1l0.1,0.6l-0.2-0.2l-0.1-0.2l-0.2,0.1l-0.2,0
	l0,0.3l0,0.3l-0.1,0.3l0.5,0.2l-0.1,0.3l0.1,0.2l0.1,0.1l0.4,0l-0.1,0.4l-0.3-0.1l-0.2-0.2l-0.1,0.1l-0.2,0.3l-0.2,0.5l-0.2-0.2
	l-0.1-0.2l-0.1,0.1l-0.2,0.3l-0.1-0.1l-0.1,0.1l-0.4-0.1l-0.3,0.1l-0.4,0.4l-0.4,0.1l-0.2,0.1l-0.4,0.3l-0.4-0.4l-0.7-0.4l-0.1-0.1
	l-0.3-0.1l-0.3,0.1l-0.2,0.2l-0.1,0.2l-0.2,0.2l-0.2-0.4l-0.2-0.1l-0.4-0.1l-0.2,0.1l-0.4-0.3l-0.1-0.1l-0.2,0.3l-0.1,0.4l-0.1,0.4
	l-0.2,0.2l0-0.3l0.1-0.4l-0.4,0.6l0,0.3l-0.1,0.1l-0.2,0.1l-0.2-0.2l-0.2-0.1l-0.2,0.1l-0.2-0.2l-0.4,0.1l-0.1-0.2l-0.2,0.1
	l-0.1-0.1l-0.4,0.1l-0.1,0.1l-0.2-0.1l0-0.3l-0.3-0.7l-0.3,0.2l-0.1-0.4l-0.1-0.1l0-0.6l0.1-0.3l-0.1-0.2l-0.2-0.1l-0.2,0.3l-0.1,0
	l0-0.3l0.1-0.5l0-0.7l0-0.1l0-0.6l0.1-0.3l0-0.3l-0.1-0.3l0.1-0.4l0.2-0.1l0.1-0.2l-0.1-0.3l0-0.3l-0.3-0.2l0-0.4l-0.1-0.4l0-0.2
	l0-0.8l0.1-0.6l-0.1-0.3l-0.1-0.7l0.1-0.5l0.3-0.8l0-0.3l-0.1-0.3l0-0.3l0.1,0l0.1-0.3l-0.1-0.2l0-0.2l-0.2-0.2l-0.1-0.4l-0.1-0.2
	l0.1-0.2l0.1-0.8l0-0.3l0.3-0.6l0-0.2l-0.2-0.3l-0.2-0.1l-0.1-0.2l0-0.3l0-0.3l0-0.2l-0.3-0.2l-0.1-0.2l0.1-0.2l0-0.2l0.2-0.1l0-0.4
	l0.1-0.1l0.1-0.5l-0.1-0.1l0-0.4l0.1-0.5l0.1-0.1l0.3-0.8l-0.1-0.4L279,223l0-0.2l0-0.3l0.1-0.2l0.1-0.4l-0.2-0.2l0.1-0.5l-0.2-0.2
	v-0.1l0.2-0.3l0-0.3h-0.2l-0.2-0.3l-0.3,0l-0.5-0.2l-0.1,0.1l-0.1-0.2l0-0.4l0.1-0.2l0.1-0.1l0.3,0.3l0.2,0l0.3-0.4l0.2,0.1l0.1,0.2
	l0.1-0.4l0.2-0.2l0.1-0.4l0.1-0.2l0-0.2l0.2-0.8l0-0.5l0.3-0.1l0,0.1l0,0.4l0.2,0.9l0.1,0l0.1-0.6l0.5-0.3l0.1-0.2l0-0.3l-0.1-0.2
	l-0.1-0.6l0.1-0.3l0.3-0.2l0.2-0.4l0.1-0.3l0.2,0l0.2,0.2l0.1-0.1l0-0.3l0.1-0.1l0.2,0.1l0.3,0.1l0.4,0l0.3-0.2l0.1,0l0.1,0.2
	l0.1,0.4l0,0.7l0,0.3l0,0.5l0,0.3l0,0.2l0.1,0.2L283.6,217.5L283.6,217.5z M293.2,193.7l0.1,0.3l-0.3-0.1l0-0.2L293.2,193.7z
	 M282.8,193.1l0,0.4l-0.2,0.2l-0.1-0.3l0.1-0.2L282.8,193.1z M283.2,192.6L283.2,192.6l0.1,0.4l-0.1,0.5l-0.1,0.1l-0.1-0.2l-0.1-0.2
	l0.1-0.3l0-0.3L283.2,192.6z M297.6,187.1l0,0.1l-0.3,0.4L297,188l-0.2,0l-0.1,0.4l-0.2,0.4l-0.2,0.3l-0.2,0.1l0,0.1l-0.2,0.2l0,0.6
	l0.2,0.2l0.3,0l0,0.2l-0.2,0.2L296,191l-0.1,0.2l0,0.5l0.2,0.3l0,0.3l-0.2,0.1l-0.4-0.2l-0.1-0.6l-0.2-0.1l-0.4,0.1l-0.3,0l-0.1,0.2
	l-0.1-0.1l0.1-0.4l0.2-0.3l0.2,0l0.1,0.1l0.2,0l0.2,0.2h0.2l-0.1-0.5l0-0.3l-0.5,0l-0.4-0.1l-0.2-0.1l-0.2-0.3l0-0.4l0.4,0l0.1-0.5
	l-0.1,0l0-0.3l-0.3-0.2l-0.2-0.3l0.2-0.2l0.2,0l0.1-0.4l0.1-0.1l0.1,0.1l0.4,0.6l-0.3,0.1l0,0.1l0.3,0.3l0,0.2l0.2,0.2l0.3-0.4
	l0.2,0l0-0.3l0-0.1l0.2-0.1l0.1,0l0.1-0.2l0.2-0.1l0-0.2l-0.2-0.4l0-0.2l0.3,0.1l0.2,0.1l0.3-0.3l0.1,0l0.2-0.2H297.6z M282.7,192.5
	l0.1,0.4l-0.1,0.2l-0.1,0l-0.1-0.3l0.1-0.4l0.1-0.1L282.7,192.5z M289.6,192.5l0.1,0.1l0.4,0.1l0.1,0.5l-0.3,0.2l-0.1-0.2l-0.2-0.2
	l-0.2,0.2l0,0.2l0,0.4l-0.1,0.1l-0.5-0.1l-0.1-0.4l-0.2-0.4l-0.1-0.3l0.1-0.3l0.1-0.1l0.3,0l0.2,0.1l0.2-0.2L289.6,192.5z
	 M286.7,172.7l0.2,0.1l0.1-0.3l-0.4-0.3l-0.2-0.2l-0.2,0.2l-0.2-0.3l-0.1-0.1l0.2-0.2l0.1-0.6l-0.1-0.1l-0.2-0.5l0-0.1l0.2,0
	l0.3-0.5l0.2,0l0.2-0.4l-0.4-0.3l0.3-0.4l-0.1-0.1l0-0.2l0.1-0.2l0-0.7l0.1-0.2l0.1-0.3l0.2,0l0.1-0.1l0.2,0.1l0.1,0.3l0.2,0.2
	l0.3-0.2l0-0.3l0.2-0.5l0.1-0.7l-0.4-0.4l-0.4,0.1l-0.1,0.2l-0.2-0.7l-0.2-0.2h-0.1l-0.1,0.2l-0.2-0.4l0-0.3l-0.1-0.2l0.1-0.2l0-0.3
	l-0.1-0.4l0.3,0l0.2,0.3l0.3,0l0.1-0.2l-0.2-0.4l0-0.2l0.4-0.4v-0.2l-0.2-0.3l-0.1,0l-0.2,0.2l-0.2-0.1l-0.3-0.1l-0.3-0.3l0.2-0.1
	l0.3,0l0.1-0.3l-0.2-0.1l-0.1-0.2l0-0.3l-0.1-0.3l0-0.2l0.2-0.4l0.2-0.2l0.1-0.2l-0.1-0.3l0.1-0.2l0-0.3l-0.1-0.2l0-0.2l0.2-0.4
	l0-0.8l0.1-0.2l0.1-0.5l0.2-0.3l0.2,0l0.2,0.4l0.2,0.1l0.1-0.4l0.2-0.2l0.6-0.2l0.1-0.4l-0.1-0.2l-0.1,0.1l-0.2,0.3l-0.2-0.1l-0.2,0
	l-0.1-0.2l-0.3-0.2l-0.2-0.3l0-0.3l0.2-0.9l0.3-0.3l0.1,0l0.1,0.2l0.3,0l0.1,0.4l0.3,0.3l0.1-0.1l0.1-0.3l0-0.4l0.2-0.2l0-0.3
	l-0.2-0.1l-0.1-0.2l0.1-0.2l0-0.3l0.2-0.1l0.2,0.1l0.2-0.3l0.4-0.2l0-0.4l-0.1-0.2l0.1-0.2l-0.1-0.4l-0.1-0.1l-0.2,0.1l-0.2-0.2
	l0-0.5l0.1-0.2l0.1-0.4l-0.2-0.1l-0.2-0.3l0.1-0.2l0-0.3l0.1-0.1l0.2,0.2l0.1-0.2l0-0.2l0.2-0.1l0.3,0l0.2-0.1l0.3,0l0.2,0.2
	l0.3-0.1l0.1-0.1l0.1-0.3l0.1-0.3l0.1-0.4l-0.1-0.4l0-0.2l0.2-0.1l0.4,0.1l0.1-0.2l0.2,0l0.1,0.4l0.2,0l0.3-0.5v-0.1l-0.2-0.2
	l-0.1-0.3l0-0.1l-0.1-0.2l0-0.1l0.2-0.1l0.1-0.3l-0.1-0.2l-0.3,0.1l-0.2-0.1l-0.2-0.3l0-0.4l0.1-0.2l0.2-0.3l0.4,0l0.1-0.2l0.7-0.1
	l0.1,0.2l0.4,0l0.2,0l0.1-0.2l0-0.2l0.3-0.1l0.2,0.2l0.3-0.2l0.3,0.2l0,0.2l0.2,0l0.1,0.3l0.2,0.7h0.2l0.3,0.1l0.2-0.1l0-0.3
	l0.2-0.4l-0.2-0.1l-0.1-0.3l0-0.3l-0.3-0.3l-0.1-0.4l0.3-0.4l0-0.4l0.2-0.2l0.1-0.4l-0.1-0.1l0.1-0.3l0.3,0.3l0,0.2l-0.1,0.2
	l0.2,0.2l0.2,0.2l0.2,0.1l0.2,0.5l0,0.4l0.1,0.2l0,0.3l0.1,0.1l0.3,0l0-0.3l0.1-0.2l-0.1-0.2l0-0.4l0.1-0.2l-0.2-0.2l0.1-0.4l0-0.2
	l0.2-0.3l0.3,0.1l0.2-0.5l0.2,0.3v0.3l0.2,0.6l0.2,0.8l0.2,0.4l0.1,0.3l0,0.2l0.1,0.3l0.1,0.6l0.2,0.4l0,0.3l-0.1,0.3l0,0.2l0.1,0.3
	l0,0.3l0,0.5l-0.2,0.5l0,0.4l0.1,0.2l-0.1,0.5l-0.2,0.2l0,0.3l0.1,0.1l-0.2,0.2l0,0.3l0.1,0.3l-0.1,0.3l-0.1,0.2l-0.1,0l-0.3-0.2
	l-0.3,0.2l0,0.1l0.4,0.2l0.2,0l0.4,0.3l0.1,0.2l0,0.3l0.1,0.1l0.1,0.6l-0.1,0.2l0,0.4l-0.2,0.2L299,151l-0.4,0.1l0,0.2l0.4,0.2
	l0.2,0l0.2,0.3l0.3-0.2l0.2,0l0,0.3l-0.2,0.3l0,0.2l0.2,0.1l0.3,0.4l0,0.5l0.2,0.1l0.2-0.1l0.2-0.4l0.1,0l0.1-0.2l0.1-0.4l0.2,0
	l-0.1,0.4l0,0.3l-0.1,0.3l0,0.3l-0.1,0.3l0.1,0.2l0.1-0.1l0.1-0.3l0.1-0.2l0.3-0.1l-0.1,0.4l0,0.4l-0.3,0.2l-0.1,0.2l-0.3,0
	l-0.1-0.1l-0.1,0.2l-0.1-0.1l-0.1,0.4l0,0.4l-0.1,0.3l-0.4,0.1l0.4,0.2l0.1-0.2l0.3-0.4l0.1,0l0.2,0.6l0,0.3l0.1,0.2l0.1,0.5
	l0.2,0.1l0.2,0.6l0.2,0.4l0.2,0l0.1,0.1v0.2l0.1,0.1h0.3l0.1-0.2l0.1,0.1l0.1,0.5l-0.2,0.3l-0.2,0.1l-0.2,0l-0.2,0.1l-0.3,0.6l0,0.5
	l-0.1,0.3l0,0.5l-0.4,0.2l-0.1-0.2l0.1-0.2L301,161l-0.1-0.6l0.1-0.3l-0.1-0.3l-0.1-0.1l-0.3,0l-0.2,0.1l-0.1,0.3l-0.2,0.3l-0.2,0
	l-0.2-0.1l0-0.3l0.1-0.6v-0.5l0.2-0.3l0.1-0.3l-0.1-0.4l-0.1-0.4l-0.2-0.5l0.2-0.5l-0.3,0.2l-0.1,0.2l0.1,0.3l0.1,0.2l0.1,0.3
	l-0.1,0.3l-0.4,0.2l0,0.2l-0.2,0l-0.2,0.1l-0.1-0.2l-0.4-0.3l-0.2,0.1l-0.1-0.2l-0.2-0.1l-0.4,0l-0.3,0.3l-0.2,0.3l-0.3,0.3
	l-0.1,0.3l0,0.7l-0.2,0.1l-0.1-0.1l-0.3-0.5l0-0.2l-0.2-0.4l0-0.3l-0.1-0.2l-0.1-0.1l-0.1,0.2l-0.1-0.2l0.1-0.2l-0.2-0.3l0.1-0.3
	l-0.2-0.1l-0.2,0.1l-0.1,0.3l-0.1,0.1l0,0.2l-0.3,0.6l-0.2,0l0,0.2l0.1,0.2l0,0.5l0.4,0.5l0.1,0l0.1,0.2l0.5,0.2l0.4-0.1l0.3,0.3
	l0.2,0l0.1,0.2l0.2,0l0.3,0.1l0.2,0l0.1,0.2l0.1,0.3l0.2-0.5l0.2-0.2l0.2,0l0,0.4l-0.1,0.3l0.2,0.1l0.2,0.2l0.1,0.3l-0.1,0.2
	l0.1,0.1l0.2,0.2l0.2,0l0,0.3l-0.2,0l-0.3-0.2l0,0.2l0.2,0.3l-0.2,0.5l-0.2,0.2l0.1,0.4l0.1,0.1l0.2-0.2l0.2,0.1l0.4-0.4l0.2,0
	l0.1,0.2l0,0.2l0.2,0.1l0.2-0.3l0.2,0l0.2,0.1l0.2-0.2l0.1,0.3l-0.1,0.2l-0.3,0.4l0,0.1l0.2,0.3l0,0.3l0.2,0.2l0.2-0.2l0.2-0.1
	l0.4-0.4l0.5-0.4l0,0.4l-0.1,0.3l-0.1,0l-0.2,0.2l-0.2,0.4l0,0.3l-0.1,0.5l-0.1,0.1v0.2l0.1,0.3l-0.1,0.4l-0.2,0.2l0,0.1l-0.2,0.2
	l-0.4,0.2l0.1,0.2l0.1,0.7l-0.2,0.4l-0.1,0.5l-0.2,0.4l-0.1,0.6l-0.1,0.3l-0.1,0.4l0.3,0.5l0,0.3l-0.2,0.3l0,0.8l0.1,0.3l0,0.4
	l0,0.5l0.1,0.3l-0.4,0.8l0,0.3l0.1,0.3l0,0.6l0.1,0.3l0,0.3l0.1,0.1l0,0.4l0.1,0.2l0,0.2l-0.1,0.2l0.1,0.3l-0.1,0.4l0,0.5l-0.3,0.1
	l-0.1,0.3l-0.1,0.4l0.3,0.2l-0.2,0.6l-0.1,0.1l-0.1,0.4l-0.1,0.2l0,0.2l-0.3,0l-0.2,0.2l0,0.2l-0.2,0.3l0.1,0.3l-0.1,0.3l-0.2,0.4
	l-0.2,0.2l-0.1-0.3l-0.2,0l-0.2-0.3l-0.2,0.1l-0.1,0.3l0,0.3l-0.1,0.1l-0.2,0l-0.2,0.2l-0.1-0.3l-0.3-0.1l-0.3-0.1l-0.1-0.2
	l-0.2-0.3l0,0.2l0,0.4l0,0.2l0.1,0.2l0,0.4l0.1,0.2l0.2,0.1l0.1-0.1l0.1,0.2l-0.1,0.1l-0.3,0l-0.2-0.1l-0.2-0.2l-0.1,0l-0.1,0.1
	l-0.2-0.2l-0.2-0.1l0-0.4l-0.2-0.5l-0.5-0.4l-0.4-0.5l-0.1-0.3l-0.1-0.4l0.1-0.2l0.3-0.1l0.2-0.2l-0.1-0.3l0.1-0.4l-0.2-0.4l0-0.2
	l0-0.5l-0.1-0.6l-0.1,0.2l0,0.3l0,1.1l-0.1,0.4l-0.3-0.2l-0.2,0.1l0,0.2l-0.2,0.1l-0.1-0.1l-0.1-0.4l0-0.3l-0.2-0.4l-0.1,0l0,0.2
	l-0.1,0.5l-0.4,0.2l-0.3,0l-0.2,0.1l-0.4,0.6l-0.1,0.4l0.1,0l0-0.3l0.3-0.3l0.2-0.3l0.3,0l0.5,0.1l0.4,0.2l-0.1,0.5l-0.2,0.5l0,0.1
	l-0.1,0.3l-0.1,0.4l-0.1,0.2l-0.1,0.5l0.1,0.3l0,0.3l0.1,0.2l0,0.2l0.1,0.2l0,0.3l0.1,0.3l0.2,0.2l0.3-0.2l0,0.5l0.2,0.3l-0.1,0.1
	l0.1,0.2l0.2,0l0.3-0.2l0.3-0.1l0.1,0.3l-0.1,0.2l0,0.3l0.3-0.1l0.1,0.1l0.1,0.4l0,0.2l0,0.2l-0.1,0.3l-0.2,0.1l-0.1,0.1l0,0.3
	l-0.2,0.4l-0.1,0l-0.3-0.3l-0.2,0.1l-0.1,0.3l0,0.3l-0.2,0.5l-0.2,0l-0.2-0.3l0-0.2l0-0.4l0.1-0.2l-0.2-0.4l0-0.3l0-0.2l-0.1-0.3
	l0.1-0.2l-0.1-0.2l0.1-0.3l-0.1-0.2l-0.3,0l-0.1-0.1l0-0.4l-0.1-0.2l-0.1,0.2l-0.2,0.2l-0.2,0.5l-0.1-0.1l-0.2,0l0,0.3l0,0.2
	l-0.2,0.4l0.1,0.3l-0.4,0.4l0.1,0.3l0,0.2l-0.2,0.4l-0.1,0.2l0,0.2l0.2,0.1l0.1,0.1l-0.2,0.5l-0.1,0.3l-0.1,0.2l-0.1,0.1l-0.2,0
	l-0.4,0l0,0.2l-0.2,0.2l0,0.3l0,0.6l0,0.2l0.1,0.3l0.2,0l0,0.2l-0.1,0.3l0.1,0.4l0.3,0.1l0.1-0.2l0.2-0.3l0.3-0.1l0.2,0.1l0,0.2
	l-0.2,0.3l-0.1,0.3l-0.2,0.7l0.1,0.3l0.1,0.2l-0.1,0.2l-0.3,0.1l-0.3,0l-0.3,0.2l-0.4,0l-0.5,0.2l-0.1-0.1l0-0.3l0.1-0.3l0-0.4
	l-0.1-0.1l-0.3,0.1l-0.3,0.4l-0.2-0.2l-0.1-0.6l-0.1-0.1l-0.5-0.1l-0.3-0.2l-0.4,0l-0.2,0.1l-0.1-0.2l-0.1-0.4l-0.2-0.5l-0.2-0.2
	l0.1-0.3l0-0.7l-0.1-0.3l0-0.1l0.2,0.1l0.2-0.5l0-0.3l-0.1-0.2l0.1-0.4l-0.1-0.2l-0.2,0l-0.2-0.2l0-0.3l0.1-0.5l0-0.5l0.2,0.1
	l0.1-0.4l-0.2-0.4l-0.1-0.4l0.1-0.6l0.3-0.4l0.1,0.1l0.1,0.4l0.2,0.2l0.3-0.1l0.2,0.1l0.1-0.3l0.2-0.1l-0.1-0.2l-0.3-0.1l-0.1-0.2
	l-0.1-0.1l0-0.3l0.3,0l0.2-0.1l0.1-0.1l0.1-0.3l0.2-0.1l0-0.2l0.1-0.3l-0.1-0.1l-0.1,0.1l-0.2,0l-0.2,0.1l-0.1,0.2l-0.2-0.2
	l-0.3,0.2l-0.1-0.1l0-0.3l-0.1-0.1l-0.2,0.2l-0.1,0l-0.2-0.2l-0.2,0l-0.1-0.1l-0.1-0.4l0.1-0.6l0.2-0.2l0.1-0.4l-0.1-0.2l0.1-0.4
	l0.1-0.2l-0.1-0.2V183l0.1-0.2l-0.1-0.3l-0.1-0.1l0.1-0.4v-0.3l0.1-0.1l0.1-0.3l-0.1-0.6l0.1-0.3v-0.2l-0.1-0.3l0.1-0.1l0-0.3
	l0.2-0.2l0.2,0.3l-0.1,0.4l0.1,0.2l0.1,0.3l0.2,0.2l0.3-0.1l0-0.3l-0.2,0l0.1-0.2l-0.2-0.2l-0.1-0.3l0.2-0.5v-0.5l0.2-0.3l0.1,0
	l0.1,0.2l0.2,0.1l0.2,0.3l0.1-0.1l-0.1-0.4l0.1-0.3l-0.1-0.3l0.1-0.3l0.1-0.1l0-0.2l-0.2,0.1l-0.3,0l-0.2-0.4l-0.2-0.2l0-0.4l0.5,0
	l0.1-0.4l0.2-0.1l0.1,0.3l0.2-0.2l0.2,0.6l0.1-0.1l0-0.3l0.1,0l0.2,0.2l0.1,0l0.1-0.3l-0.2-0.4l0.2-0.2l0.2,0.1l-0.1-0.3l-0.2-0.4
	l-0.1,0.1l-0.3,0l-0.2,0.1l0-0.2l-0.2-0.1l-0.5,0.3l-0.1-0.3l-0.3-0.2l-0.1-0.2l-0.2,0l-0.1-0.1l0.2-0.5l0-0.3l0.1-0.5l0.1-0.2
	l-0.1-0.3l0.1-0.1l0.1,0.2l0.4,0l0.2-0.1L286.7,172.7z"/>
<path id="D640" class="st0" d="M265,391.8l-0.3-0.2l-0.3-0.3l-0.3-0.4l-0.2-0.4l-0.3-0.3l-0.3-0.1l0-0.2l-0.1,0.1l-0.5-0.2l-0.4-0.3
	l-0.4-0.1l-0.3,0l-0.3,0.1l-0.3,0.5l-0.1,0.1l-0.3,0.3l-0.4,0.3l-0.7,0l-0.4-0.1l-0.2-0.4l0-0.3l0.1-0.3l0.3-0.4l0.1-0.2l0.2-0.2
	l-0.1-0.3l0.2-0.5l0.2-0.3l0.1-0.4l0.2-0.2l0.2-0.3l0.2-0.4v-0.7l0.1-0.3l0.1-0.2l0.1-0.4l0-0.3l0.2-0.3l0.3-0.1l0.1-0.3l-0.1-0.5
	l-0.1-0.6l-0.3-0.8l-0.3-0.9l-0.3-0.6l-0.5-0.9l-0.3,0.1l-0.5-0.1l-0.1,0l0.1-0.5V379l-0.1-0.2l0.1-0.3l-0.1-0.2v-0.5l-0.1-0.3
	l0.1-0.2l0-0.8l0-0.7l0.1-0.4l-0.1-0.5l-0.1-0.2l-0.1-0.5l-0.1-0.5l0.1-0.2l0-1l0-0.2l0.2-0.4l0-0.2l-0.2-0.5l-0.1-0.5l0-0.5
	l0.1-0.2l0.3-0.5l0.1,0l0.1,0.3l0,0.4l0.3,0.1l0.2,0.1l0,0.1l-0.1,0.2l0,0.5l0.1,0.5l0.1,0l-0.1-0.8l0.1-0.1l0-0.3l0.1-0.4l0.1-0.1
	l0.4-0.1l0.4-0.4l0.3-0.5l0.2-0.6l0-0.4l0.2-0.2l0.1-0.5l0-0.5l0.3,0.1l0.2,0l0.2-0.1l0.3-0.4l0-0.1l0.3-0.6l0.2,0l0.2,0l0.2-0.2
	l0.2-0.5l0-0.4l0-0.2l-0.2-0.3l0-0.2l0.1-0.1l0.2,0l0.4-0.3l0.1-0.2l0.1-0.1l0.3,0l0.1,0l0.2-0.3l0.1-0.2l0.3-0.4l0.1-0.3l0.2-0.3
	l0.5-0.1h0.1l0.1,0.1l0,0.4l0.1,0.2h0.1l-0.1-0.6l0.2-0.4l0.2-0.2l0.2-0.1l0.4,0.1l0.4,0.6l0.1,0.3l-0.1,0.4l0.1,0.2l0.1-0.2v-0.3
	l0.3,0.2l0.7,0.9l0.2,0l0.5,0.6l0.1,0.3v0.2l-0.1,0.3v0.3l-0.1,0.2l0,0.5l0.2,0.8l0.1,0.3l0.1,0.3l-0.1,0.3l0,0.4l0.1,0.2l0,0.4
	l0.2,0.3l0,0.3l0.2,0.1h0.3l0.1,0.1l0.1,0.4l0.2,0.3l0.4,0.2l0.2,0.3l0,0.7l-0.1,0.4l0,0.3l-0.1,0.2l-0.1,0.5l0,1.1l0,0.5l0.3,0.7
	l0,0.3l0,0.4l0.1,0.7l0.1,0.1l0.1,0.3l0.3,0.4l0.1,0.5l-0.1,0.6l0,0.2l0,0.6l-0.1,0.4l-0.1,0.1l-0.5-0.2l-0.2,0.1l-0.4,0.4l-0.1,0.3
	l0.1,0.5l0.1,0.1l0.1,0.4l0.2,0.1l-0.2,0.2l-0.2,0.1l-0.3,0l-0.4,0.3l-0.7,0.9l-0.2,0.3L269,383l-0.3,0.8l-0.1,0.4l0,0.7l0.1,0.3
	l0.2,0.6l0.1,0.1l0.2,0l0.5,0.3l0.2,0l0.2,0.1l0.3,0.5l-0.1,0.4l-0.1,0.2l-0.2,0.3l-0.1,0.2l-0.2,0.5l-0.2,0.2l0,0.2l-0.5,0.4
	l-0.1,0.3l-0.1,0.6l-0.2,0.5l-0.2,0.1l-0.3,0.6l0,0.2l0,0.2l-0.2,0.3l-0.2,0.1l-0.2,0l-0.4,0.3l-0.4,0.2l-0.3,0l-0.2,0.1l-0.4,0
	l-0.2-0.2l-0.1-0.2l-0.2,0l-0.5-0.2L265,391.8z M273,357.2l0.4,0.3l0.2,0.1l0.2,0.3l-0.1,0.2l-0.2,0.1l-0.2-0.1l-0.2-0.2l-0.2-0.3
	l0-0.2L273,357.2z M249.3,353.6l0.2,0.1l-0.1,0.4l-0.4,0.3l-0.2,0l-0.2-0.4v-0.2l0.5-0.4L249.3,353.6z M276.3,353.7l-0.2-0.1
	l-0.1-0.3l0.1-0.4l0.2-0.1l0.2,0l0.2,0.1l0.1,0.3l0,0.2l-0.2,0.2L276.3,353.7z M280.2,340.2l-0.1,0.3l-0.1-0.2L280.2,340.2z
	 M280.6,339.8l0.1,0.2l0,0.2l-0.3,0.3l-0.2-0.3l0.1-0.2L280.6,339.8z M277.2,337l0.3,0.2l-0.2,0.3l-0.3-0.8l0.1-0.2l0.1,0.1
	L277.2,337z M279,328.3l0.1,0.2l0,0.3l0,0.4l-0.1,0.1l0,0.3l-0.1,0.2l0.1,0.3l0,0.3l-0.2,0.3l-0.5,0.6l0,0.4l-0.1,0.4l-0.4,0.1
	l0-0.4l0.1-0.2l0.1-0.4l0-0.2l0.2-0.2l0.1-0.3l0-0.3l-0.2-0.6l0.1-0.3l-0.1-0.6l0.1-0.2l0.4-0.3l0.1-0.1L279,328.3z M278.6,326.4
	l0.1,0.2l0.2,0.1l0.3,0l0.1,0.4l-0.2,0.2l-0.4-0.5l-0.2-0.1l-0.2,0l0-0.2L278.6,326.4z M280,326l-0.1,0.2l-0.2-0.1l-0.1,0.2l0,0.3
	l-0.1,0.2l-0.2-0.2l0.2-0.4l-0.1-0.4l0.2-0.2l0.1-0.2l-0.1-0.3l0.1-0.1l0.2-0.2l0.1,0l0,0.2l-0.1,0.4l0,0.3l0.1,0.2L280,326z
	 M269.8,319.9l-0.1,0l0-0.4l0.3-0.2l0.1,0l0,0.2l-0.1,0.2L269.8,319.9z M269.2,319.7l-0.2-0.1l0.2-0.2l0.2,0.1l0,0.2L269.2,319.7z
	 M248.5,304.6l-0.2-0.4l-0.2-0.2l0-0.2l0.3-0.1l0.2-0.2l0.1-0.3l0.3,0.1l0.2,0.2l0.2,0.1l0.2,0l0.2-0.3l0.4-0.1l0.5,0.1l0.5,0
	l0.4,0.1l0.5,0.4l0.1,0.2l0,0.5l-0.1,0.6l0.1,0.3l-0.1,0.3l0,0.5l0.1,0.6l0.1,0.1l0.1,0.6l0,0.4l-0.2,0.5l-0.1,0.6l-0.2,0l0,0.1
	l-0.4,0.2l-0.4-0.5l-0.3-0.1l-0.3,0l-0.1,0.1l-0.4,0l-0.1,0l-0.2-0.1l-0.5-0.3l-0.2-0.1l-0.3,0.1l-0.3-0.5l-0.1-0.7l-0.2-0.4l0-0.7
	l0-0.3l0.1-0.2l0.2-0.7L248.5,304.6z M302.3,287.7l-0.2,0l-0.1-0.1l0.1-0.3l0.1-0.2l0.1-0.1l0.2,0.1l0,0.2L302.3,287.7z
	 M298.5,282.5l0.2,0.1l0.2,0.1l0.3,0.3l0.3,0l0.3-0.2l0.2-0.2l0.5-0.2l0.3,0l0.2-0.1l0.2,0l0.1,0.2l0.3,0l0.1,0.3v0.2l-0.2,0.6
	l-0.4,0.6l0.1,0.2l-0.2,0.2l-0.4,0.3l-0.3,0l-0.4-0.2l-0.4-0.3l-0.1,0l-0.3-0.4l-0.1-0.2l-0.2,0l-0.3-0.2l-0.3-0.2l-0.1,0.1
	l-0.1-0.3l0-0.2l-0.1-0.2l0-0.7l0.1-0.3l0.3,0.4L298.5,282.5z M270.3,273.7l0.1,0l0.1,0.3l-0.1,0.2l-0.4-0.3L270.3,273.7z
	 M272.2,277.3l-0.1-0.4v-0.4l0.1-0.2l0.3,0l0,0.3l-0.2,0.3l0.1,0.1l-0.1,0.3L272.2,277.3z M281.7,272.1l0.5,0.1l0.3,0l0.2,0.2l0,0.3
	l0.1,0.4l-0.1,0.3l-0.2,0.2l-0.2,0.1l-0.2,0l-0.2,0.2l-0.4,0.1l-0.2-0.2l-0.1-0.2l-0.2-0.2l-0.1,0.1l-0.1-0.2l0.1-0.4l0.1-0.3
	l0.3-0.1l0.1,0.1l0.2-0.2l0-0.3L281.7,272.1z M280.6,273.3l-0.1,0.2l-0.1,0.2l0.1,0.5l-0.3,0.2l-0.1-0.3l0-0.4l-0.1-0.1l0.1-0.3
	l0.2-0.2l0.3-0.2l0,0.2L280.6,273.3z M272.2,271.5l0.2,0.3l0.1,0v0.2l0.2,0.3l-0.1,0.1l0.1,0.4l0,0.3l0.1,0.3v0.5l0.1,0.2l0,0.2
	l-0.2,0.3l-0.2,0l-0.1,0.2v0.2l-0.2,0.3l-0.1-0.2l0-0.2l-0.1-0.5l0.1-0.6l-0.1-0.1l0-1.2l-0.1-0.5l-0.1-0.2l-0.1,0l-0.1-0.2
	l-0.1-0.1v-0.3H272.2L272.2,271.5z M271.3,271.5l-0.1-0.1l0-0.3l0.1-0.2l0.1,0.4L271.3,271.5z M283.3,268.1L283.3,268.1l-0.1,0.4
	l-0.2-0.1l0-0.3L283.3,268.1z M295.1,272.3l-0.1-0.3l-0.2-0.8l-0.2-0.2l-0.6-0.2l-0.4,0l-0.1-0.1l-0.1,0.1l-0.3,0l-0.1-0.2l-0.1-0.4
	l-0.3-0.2l0-0.2l0.2-0.1l0.2-0.5l0.2-0.1l0.5,0l0.4-0.2l0.2-0.3l0.2-0.6l0.3-0.4l0.2-0.4l0.1-0.6l0-0.6l0.1-0.4l0.1,0l-0.1,0.3
	l0,0.3l0.1,0.3l0.2,0.4l0.2-0.2l0.1-0.1l0-0.4l0.3,0l0.2-0.1l0.2,0.3l0.3,0.2l0.2,0l0.3,0.2l0.1,0.1l0.2,0.2l0.2,0.4l0.1,0.3
	l0.2,0.4l0,0.3l-0.1,0.2l-0.1,0.5v0.2l0.1,0.3l0.4,1l0.1,0.5l0.1,0.2l0.5,1.2l0,0.3l0.2,0.6l0,0.1l0.2,0.2l0.2,0l0.3,0.1l0,0.2
	l0.1,0.1l0.2,0.6l0,0.2l0.2,0.3l0,0.3l0.1,0.1l0.1,0.4l0,0.3l0,0.3l0.1,0.2l0,0.2l0.3,0.5l0,0.6l-0.1,0.4l-0.3,0.6l-0.2,0.1
	l-0.4,0.1l-0.3-0.1l-0.4-0.4l-0.2-0.7l0-0.3l-0.1-0.2l-0.1-0.4l-0.3-0.5l-0.1-0.2l-0.1-0.3l-0.3-0.7l-0.2-0.4l-0.2-0.2l-0.1,0l0-0.3
	l-0.3-0.4l0.2-0.3l0-0.1l-0.2,0l-0.1-0.2l-0.2-0.1l-0.1,0.1l-0.2,0.4L296,274l-0.1-0.1l-0.3-0.2l-0.3-0.6l-0.1-0.5L295.1,272.3z
	 M304.7,257.3v0.3l0.1,0.5l-0.3,0.5l-0.1,0.2l-0.2-0.4l0-0.2l-0.2-0.2l0-0.3l0.3-0.1l0.1-0.3L304.7,257.3z M299,246.4l0,0.2
	l-0.1,0.3l-0.1,0.1l-0.3-0.1l0.2-0.3L299,246.4z M349.2,243l1.1,2.3l0.3-0.2l0.3,0l0.5,0.6l0,0.4l0.2,0.2l-0.1,0.4l0,0.5l-0.2,0.3
	l0.2,1l0.3,1.5l-0.6,0.3l-0.1,0l-0.3-2.6l-0.2,0.1l0.2,2.6l-0.7,0l-0.7-0.2l-0.5-0.4l0.1-0.1l1.2-2.1l-0.2-0.1l-1.4,2l-0.7-2.1
	l0-1.2l0.2-1.2l0.2-0.4l0.2-0.2l1.5,1.8l0.2-0.1l-1.4-2.1l0.1-0.2L349.2,243z M301.7,243.2l0.1,0.1l-0.1,0.2l-0.3-0.1l0-0.2
	L301.7,243.2z M294,259.9l0.3,0.3l0.1,0.3l0.1,0.2l0.1,0.6l-0.1,0.3l-0.3,0.3l-0.1,0l-0.1-0.4l0-0.6l0.1-0.6l-0.1-0.2L294,259.9z
	 M296.7,260.5l0.1,0.2l0.1,0l0.2,0.1l0.3,0l0.1,0.2v0.3l-0.1,0.2v0.3l-0.1,0.2v0.3l-0.1,0.3l0,0.4l0,0.2l0.1,0.1l-0.2,0.2l0.1,0.2
	v0.2l-0.1,0.2l0.2,0.2l-0.2,0.6l0.1,0.4l-0.1,0.3l-0.1,0.2l-0.2,0.1l-0.2-0.1l-0.4-0.5l-0.2,0l-0.1-0.1l0-0.3l-0.3-0.4l-0.1,0
	l0.1-0.3l-0.2-0.1l-0.2-0.2l-0.3,0l-0.1-0.3l-0.1-0.6l0-0.2l0.3-0.2l0.3-0.1l0.1-0.2l-0.1-0.2l-0.2,0.1L295,262l0-0.2l-0.2-0.1
	l0-0.5l-0.1-0.1l-0.1-0.4l0.3,0l0.1-0.1l0.2,0.4l0.2,0.2l0-0.3l0.3-0.1h0.2l0.2-0.2L296.7,260.5z M294.9,259.4l-0.1-0.6l-0.2-0.4
	l-0.1-0.7l0-0.3l0.1-0.2l0.4-0.2l0.3,0.1l0.4,0.1l0.6-0.1l0.4,0.4l0.2,0.1l0.1,0.2l0,0.4l0.1,0.3l0,0.2l0.1,0.4l0.2,0.4l0,0.3
	l0.1,0.2l0.1-0.2l-0.2-0.5v-0.4l-0.1-0.4l0.1-0.3l0.2-0.3l0.1-0.4l0.3-0.4l0.3-0.2l0.3-0.3l0.1-0.4l0.1-0.2l0.2-0.1l0.1,0.2
	l-0.1,0.3l-0.1,0.4l0,0.4l0,0.2l0.1,0.4l-0.1,0.2v0.2l0.3,0.3l0.2,0.6l0.1,0.2l-0.1,0.5l-0.1,0.1l0,0.6l0.2,0.5l0,0.3l0.1,0.2
	l0.2,0.2l0.2,0.6l0.3,0.3l0.2,0l0.2,0.4l0.1,0.3l-0.2,0.3l0.1,0.2l0,0.4l-0.1,0.2l0.1,0.2l-0.1,0.2l0,0.2l-0.3,0.6l-0.1,0.2l-0.2,0
	l-0.4-0.9l-0.1-0.4l-0.6-0.7l-0.3-0.2l-0.4,0l-0.1,0.1l-0.3-0.4l-0.1-0.3v-0.3l0.1-0.3l0-0.5l0.1-0.5l0-0.4l-0.1-0.3l-0.3,0.1l0-0.3
	l-0.2-0.3l-0.4,0.1l-0.3,0l-0.3,0.1l-0.1-0.1l-0.2,0l-0.1-0.3l-0.3,0l-0.3-0.2L294.9,259.4z M277.6,251.8l-0.1,0l-0.1-0.3l0.1-0.4
	l0.1,0.1L277.6,251.8z M302.3,253.3l0.1,0l0,0.6l0.2,0.6l0,0.7l-0.1,0.6l-0.1,0l-0.1,0.6l0,0.2l0.1,0.2l0.2,0.1l0.4,0.3l0,0.5
	l-0.1,0.5l-0.2,0.2l-0.1,0.3l0.1,0.2l0,0.4l0.2,0l0,0.3l0,0.3l-0.2,0.1l0.1,0.3l0,0.5l-0.1,0.6l-0.2,0.3l0,0.4l-0.1,0.1l-0.4,0.1
	l0,0.3l-0.3,0l-0.1-0.1l-0.2,0l0-0.3l-0.2-0.7l-0.1,0L301,261l-0.2,0l-0.4-0.6l-0.2-0.4l0-0.2l0.2-0.1l0-0.3l-0.2,0.3l-0.1,0
	l-0.1-0.3l0-0.3l-0.2,0l-0.2,0.1l0-0.3l-0.1-0.2v-0.2l0.1-0.5l0-0.4l0.2-0.8l-0.4-0.1l0.1-0.2l0.4,0.1l0.1-0.2l0.2-0.6l0.1-0.1
	l0.1-0.5l0.1-0.2l0.1-0.6l0.2-0.5l0.4-0.9l0.3-0.7l0.5,0.1l0.1,0.3l0,0.3l0.3,0.3L302.3,253.3z M282.3,254.5l0.2,0.2l0.1,0.2
	l-0.2,0.6l-0.1-0.6l-0.2-0.3L282.3,254.5z M302,247.9l0.2,0.2l0.2,0.1l0.1,0.5l0,0.3v0.6l-0.1,0.3l0.1,0.1l0.3-0.1l0.1-0.3l0.1-0.2
	l0-0.2l0.2-0.3l0-0.3l0.1-0.5l0.1-0.2l0.3,0l0,0.2l0,0.3l0.1,0.2l0,0.2l0,0.4l0,0.4l-0.1,0.3l-0.2,0.2l-0.1,0.2l0.2,0.8l0,0.8l0,0.3
	l-0.2,0.4l-0.1,0l-0.1-0.4l-0.2-0.1l-0.2-0.5l0.1-0.4l0-0.3l-0.1,0l-0.3-0.1l-0.1,0.2l-0.2,0l-0.1-0.1l-0.3-0.1l-0.2,0l-0.3-0.1
	h-0.2l-0.1-0.2l-0.1-0.4l0.1-0.2l0.1-0.6l0.1-0.6l0.2-0.3l0-0.4l0.2-0.2L302,247.9z M273.1,310.5L273.1,310.5l0-0.3l0.2-0.2l0.2,0
	L273.1,310.5z M274.1,307.4L274.1,307.4l0-0.6l0.1,0l0,0.4L274.1,307.4z M272.7,308l0.1,0l0,0.6l0,0.4l-0.3-0.2v-0.4l-0.1-0.4
	l0.1-0.3L272.7,308z M278.6,297.2l0.1,0.1l0,0.3l-0.4,0l-0.1-0.1l0.1-0.2L278.6,297.2z M282.5,296.8L282.5,296.8l-0.1-0.7l0.2,0
	l0.1-0.2l0.1,0.1L282.5,296.8z M280.2,295.2l0,0.2l-0.1-0.1l0-0.2L280.2,295.2z M270.8,305.7l-0.1-0.3l0.2-0.3l0,0.4L270.8,305.7z
	 M273,306l0.1-0.2l0.2,0.1l0.2-0.1l0.1,0.2v0.5l-0.1,0.3l0,0.5l-0.2,0.6l-0.3,0.3l-0.2-0.3l-0.1-0.7l0-0.3l0-0.2l-0.2-0.2l0-0.3
	l0.2,0.1l0.3,0l-0.2-0.5l0.2-0.2L273,306z M272.2,307.4l-0.1,0.6l-0.2-0.1l-0.3,0.2l0-0.5l-0.1,0l-0.2,0.3l0-0.3l0.2-0.1l0-0.4
	l-0.1-0.2l0-0.2l0.1-0.1l0.1-0.3l0.1-0.4l-0.1-0.3l0-0.4l0.1-0.3l0.2-0.2l0.1,0.5l-0.1,0.4l0.2,0.2l0.1,0.2l0,0.4l0,0.3l0,0.8
	L272.2,307.4z M273.1,303.5l0.4,0.5l0.1,0.4l0,0.3l-0.1,0.6l-0.1,0.3l-0.2-0.1l-0.2-0.4l-0.3-0.1l-0.1,0.1l-0.2,0l0-0.6l0.1-0.9
	l0.3-0.1L273.1,303.5z M268.7,302.3l0.2,0.1l0.2,0l0,0.3L269,303l0.1,0.2l0.3-0.1l0.2,0.2l0.2,0l0.3-0.1l0.3,0l0.2,0.3l-0.4,0.2
	l-0.1,0.1l0,0.3l0.1,0.2l0.1,0.3l-0.1,0.2l-0.2,0.2l-0.2,0.2l0,0.2l-0.2,0.4l-0.3,0.1l-0.3-0.2l-0.3,0.1l-0.1,0.2l-0.2,0.2l-0.1,0
	l0.2-0.5l0.1-0.1l0-0.2l-0.2-0.5l0.1-0.3l0.1-0.4l0-0.2l-0.1-0.4l0-0.5l0.1-0.3l0-0.2l0.2-0.4L268.7,302.3z M274,317.4l-0.1-0.7
	l-0.2-0.3l0-0.2l0.2-0.1l0.1-0.3l-0.2-0.1l-0.1-0.2l-0.2-0.4l-0.3-0.8l0.1-0.8l0-0.5l0.2-0.9l0.1-0.1l0-0.4l0.1-0.3l0-0.1l0.1-0.3
	l0.3-0.3l0.1-0.5l0.1-0.2l0-0.1l0.2-0.2l0.2,0.4l0.1,0.1l0.3-0.1l0,0.7l0,0.1l0.6,0.5l0.3,0.3l0.2,0.1l0.1-0.1l0.2,0.1l0.1,0.4
	l0,0.5l0.2,0.5l0.2,0.2l-0.1,0.8l0.1,0.3l0.2,0.2l0,0.2l0.3,0.9l0,0.1l0.1,0.4l0,0.3l-0.2,0.1l0,0.2l0.1,0.1l-0.1,0.2l-0.1-0.2
	l-0.2,0.1l-0.2,0l-0.1,0.2l0.2,0.3l-0.1,0.2l-0.1,0.2l-0.6,0.3l-0.3,0.1l-0.2,0.2l-0.2,0l-0.1,0.1l0.6,0.1l0,0.3l0.2,0.1l-0.1,0.2
	l0.1,0.3l0.2,0l0.3-0.1l0-0.2l0.2,0l0.2,0.6l0.3,0.2l0.3-0.1l0,0.3l0.2,0l-0.1,0.5l0.1,0.4l-0.1,0.4l0,0.2l-0.3,0.2l-0.4,0.1l0,0.2
	l-0.2,0.2l-0.2-0.1l-0.3,0.1l-0.1,0.1l-0.1,0.3l0,0.4l-0.2-0.2l-0.4-0.2l-0.3,0.1l-0.6,0.6l-0.1,0.3l-0.5-0.2l-0.2,0l-0.3,0.2
	l-0.2-0.2l-0.4,0.1l0,0.1l-0.2,0.1l-0.4,0l-0.2-0.1l-0.4-0.3l-0.3-0.4l-0.1-0.3l0-0.2l-0.3-0.5l0-0.2l0.3-0.3l0.2-0.1l0.2-0.5
	l-0.1-1l-0.1-0.8l0.3,0l0.2,0.1l0.3-0.1l0.3,0l0.3-0.1l0.3,0.1l0.3-0.1l0.2-0.2l0.1-0.4l0-0.4L274,317.4z M270,307.7l0,0.3l0.1,0.2
	l0.2,0.1l0.2,0.2l-0.1,0.8l-0.3,0.1l-0.1-0.4l-0.1-0.1l-0.4-0.7l-0.1-0.5l0.1-0.2l0.2,0.1l0.1-0.2l0.1,0L270,307.7z M283,287l0,0.3
	l-0.2,0.5l0.1,0.4l-0.1,0.4l-0.2,0.3l0.1,0.3l-0.1,0.3l0.1,0.1l0,0.5l-0.2,0.4l-0.1,0.1l0,0.4l-0.1,0.2l-0.1,0.2l0,0.7l-0.1,0.2
	l0,0.6l-0.1,0.2l0.2,0.5l0,0.3l-0.2,0.6l-0.2-0.3l-0.1-0.2l-0.2-0.3l-0.1-0.3l-0.2,0.2l0,0.3l0.1,0.6l0,0.4l0.1,0.5l-0.2,0.2
	l-0.2-0.1l-0.1-0.2l-0.3-0.5l-0.2,0.3l-0.1-0.2l-0.3,0l-0.1-0.1l-0.1-0.4l-0.1-0.2l-0.2,0.2l0,0.4l-0.1,0.3l-0.2-0.1l-0.1-0.4
	l0.1-0.1l-0.2-0.3l-0.1,0.3l0.2,0.3l-0.2,0.2l0,0.3l0.1,0.3l0,0.4l-0.2,0.5l0,0.3l0.2,0.1l0.2,0l0,0.1l-0.3,0.3l-0.3,0.1l-0.3-0.2
	l-0.1,0.1l0,0.2l-0.2,0.2l-0.2,0l-0.1,0.3l0.2,0.2l-0.2,0.4l-0.4-0.2l-0.6-0.1l0,0.1l-0.1,0.5l0.2,0.4l0,0.4l0,0.2l0.3,0.3l-0.1,0.2
	l0.1,0.2l0.1-0.2l0-0.2l0.2,0l0.1-0.2l-0.1-0.2l0.1-0.2l0.2,0.2l0.1,0l0-0.5l0.2,0.1l0,0.6l-0.1,0.2l0.3,0.4l0-0.3l-0.1-0.6l0.1-0.3
	l0.2,0l0.2-0.2l0-0.3l0-0.2l-0.1-0.1l-0.2-0.1l0-0.3l0.3-0.1l0.2,0.2l0.1,0.2l0.1,0.5l0.2,0l0-0.1l-0.1-0.4l0-0.1l0.3-0.1l0.3,0
	l0.1-0.2l0.4-0.2l0-0.3l-0.5-0.1l-0.3-0.2l-0.1-0.1l0.1-0.4l-0.1-0.5l0.1-0.5l0.3-0.4l0.3,0.5l0.2,0l0.1,0.2l0,0.4l0.2,0l0.1-0.3
	l0.2-0.1l0.4,0.2l0.2-0.1l0.1,0.2l-0.1,0.2l0,0.3l0.1,0.1l0.3,0l0.1,0.1l0,0.4l-0.1,0.3l0.2,0.2l-0.1,0.3l0.1,0.1l-0.1,0.3l-0.2,0.2
	l-0.3,0l-0.1,0.3l0.1,0.3l0.1,0l0.1,0.3l-0.1,0.3l0.1,0.1l0,0.7l0,0.2l0,0.6l-0.3,0.3l0,0.4l-0.2,0.1l-0.3,0.5l0,0.3l0.2,0l0,0.4
	l-0.2,0.5l-0.2-0.1l0,0.3l0.1,0.1l0,0.3l-0.2,0.3l-0.2,0.2l-0.1,0.2l-0.1,0.2l0,0.2l0.1,0.2l0.2,0.2l-0.1,0.4l-0.1,0l0.1,0.3
	l-0.1,0.2l-0.1,0l-0.2,0.5l-0.1,0.1l-0.1,0.4l0.3,0.8v0.1l-0.3,0.2l0,0.3l-0.2,0.4l-0.1,0.3l0,0.2l-0.1,0.1l0,0.4l-0.1,0.1l0,0.2
	l-0.1,0.2l0,0.3l0,0.5l-0.2-0.3L279,312l0.1-0.2l-0.1-0.3l-0.2-0.1l-0.1-0.5l-0.2-0.4l0-0.1l-0.1-0.2l-0.3,0.1l-0.1-0.2l-0.2,0
	l-0.2-0.3l-0.2,0l-0.2-0.1l-0.2,0.2l-0.1,0.2l-0.2,0.2l-0.2,0l-0.2-0.2l-0.3-0.6l-0.3-0.2l-0.1-0.2l-0.3-0.3l-0.1-0.2l0-0.4
	l-0.1-0.5l0-0.2l-0.1-0.4l0.3-0.4l0.1-0.4l0-0.2l-0.5-0.4l-0.1-0.2l0-0.3l0.1-0.1l0.1-0.4l0.1-0.2l-0.5-0.2l-0.2-0.3l-0.1-0.1
	l-0.1,0.1l0,0.4l-0.3,0.2l-0.4,0.7l-0.2,0l0-0.4l0.1-0.4l0-0.4l-0.1-0.7l-0.2-0.1l-0.2-0.5l-0.2-0.2l0.1-0.4l-0.1-0.2l-0.1-0.5
	l0.2-0.6l0-0.3l0.1-0.2l0.3,0l0.2,0.1l0.3,0.2l0.2-0.7l0.1,0.1l0,0.5l0,0.2l0.5,0l0.2-0.3l0.2-0.4l0-0.6l-0.1-0.5l-0.1,0l-0.1,0.3
	l-0.2,0l-0.1-0.1l0.1-0.4l0.2-0.4l-0.2-0.4l-0.2-0.1l0,0.2l0.1,0.7l-0.1,1l-0.4,0l-0.3-0.4l-0.2,0l-0.1-0.1l-0.2-0.1l-0.2,0.1
	l-0.1-0.5l-0.3-0.7l-0.2-0.2l0.1-0.3l-0.3-0.8l-0.2-0.3l0-0.2l0.2-0.1l0.2-0.5l0-0.9l0-0.2l-0.1-0.2l0-0.3l-0.2-0.4l0.1-0.5
	l-0.1-0.3l-0.3-0.4l-0.1,0.3l-0.2-0.2l-0.2,0l-0.3,0.1l0,0.2l0,0.4l-0.1,0.2l0,0.5l-0.4,0.4l-0.1,0.2l-0.2-0.1l-0.1-0.2l-0.1-0.5
	l-0.4-1.6l0-0.3l0-0.9l0.1-0.3l-0.1-0.4l0-0.7l-0.1-0.2l0.1-0.4l0-0.2l0.1-0.3l0.2-0.2l0.1-0.3l0-0.2l-0.2,0.1l-0.1-0.4l-0.1-0.4
	l-0.1-0.1l0.1-0.2l0-0.2l0.1-0.3l-0.2-0.6l0-0.3l0-0.2l-0.1-0.1l0-0.4l-0.1-0.4l-0.2-0.1l-0.2,0.1l-0.1-0.3l0.1-0.2l0.2-0.2
	l-0.2-0.4l-0.1-0.3l-0.3-0.2l-0.2,0.4l-0.2,0.1l-0.3,0.5l-0.1,0l-0.2-0.4l-0.1-0.4l0.1-0.2l-0.1-0.4l-0.1-0.2l-0.2-0.2l0.4-1.3
	l0-0.2l0.1-0.3l0.1-0.2l0-0.6l0.1-0.3l-0.1-0.3l0-0.8l0.2-0.1l0.4-0.3l0.1-0.3l0-0.3l-0.1-0.1l-0.1-0.3l0.2-0.3l0.2-0.2l0.1-0.4
	l0.2-0.1l0.3-0.2l0.3,0.1l0-0.3l0.3-0.6l0-0.3l-0.1-0.1l0.2-0.3l0.1-0.2l0.2,0.2l0.3,1l0.2,0.4l0.3,0l0.1,0.2l0.1,0.3l0,0.3l0.1,0.2
	l0.1,0.6l-0.1,0.3l0.1,0.3l0.1,0.5l-0.1,0.3l0.1,0.3l0.1,0.1l0.2,0l0.1-0.1l0-0.5l0.1-0.5l0.3,0.2l0.2-0.1l0,0.3l-0.1,0.2l0.1,0.3
	l-0.1,0.7l0,0.4l-0.1,0.4l0,0.4l0.1,0.4l0.1,0l-0.1-0.5l0.1-0.2l0.3-0.2l0-0.5l0-0.2l-0.1-0.7l0-1.1l0-0.3l0-0.3l0.1-0.5l-0.2-0.4
	l-0.2,0l0-0.5l0.2-0.4l0.1-1l0-0.3L273,274l-0.1-0.2l0-0.2l0-0.4l0.1-0.1l0.1-0.3l0-0.6l-0.1-0.5l0-0.2l0-0.6l0.1-0.5l0.2,0l0-0.2
	l-0.2-0.3l-0.1-0.9l0.1-0.4l0.1-0.7l0.1-0.1l0-0.3h0.2l0.1-0.1l0-0.2l-0.1-0.3l0.1-0.2l-0.1-0.5l0.2,0.1l0.3-0.2l0-0.3l-0.1-0.2
	l-0.2,0l-0.1-0.2l0-0.3l0.2-0.1l0.1-0.3l0-0.3l-0.2-0.1l-0.1-0.1l0-0.5l0.1-0.4l0.1-0.6v-0.6l0.1-0.1v-0.5l0.1-0.3l0-0.2l0.1-0.2
	l0.2-0.5l0.2-0.2l0.1-0.4l0.1-0.1l0-0.2l-0.2-0.1l0.1-0.6l0.1-0.8l0.1-0.3l0-0.1l0.2-0.5l0.1-0.6l0.1-0.6l0.1-0.3l0.1-0.9l0.2-0.4
	l0.2-0.6l0.1-0.3l0.2-0.8l0.2-0.4l0.1-0.5l0.1-0.2l0.1,0l-0.1,0.7l-0.2,0.6l-0.1,0.2l-0.2,0.8l-0.1,0.5l0.1,0.1l0.2-0.1l0-0.2
	l-0.1-0.1l0.2-0.4l0.1-0.5l0.1-0.4l0.3-0.3l0.1-0.3l0.1-0.3l0.1-0.4l0.2,0.1l0,0.7l0.1,0l0.1-0.4l0.2,0l0.1,0.4l0.1-0.4l-0.1-0.5
	l0.1-0.5l0.1-0.1l0-0.3l0.1-0.2l0.1,0l0.2-0.3l0.2-0.1l0.2,0.1l0.1,0.4l0.2,0.1l0.1,0.3l0,0.5l0.1,0.2l0,0.2l0.1,0.1l0,0.7l-0.1,0.7
	l-0.1,0.2l0.3,0.5l0,0.2l-0.2,0.1l-0.2,0.6l0,0.2l0,0.5l-0.1,0.2l0,0.3l0.2-0.3l0-0.1l0.4-0.4l-0.1,0.6l0.1,0.3l0.1-0.3l0.1-0.5
	l0-0.2l0.2-0.3l0.2,0.1l0.4-0.2l0.4-0.1l0.2,0.1l0.2,0l0.2,0.2l0.2,0.1l0.2-0.3l0.3,0.2l0.1,0.2l0,0.6l0,0.3l-0.1,0.4l0,0.5L282,257
	l-0.1,0.3l-0.1,0.5l0,0.1l-0.3,0.8l-0.1,0.4l0,0.4l-0.2,0.4l-0.2,0.3l-0.1,0.7l0,0.2l-0.1,0.5l0,0.5l0,0.4l0.1,0.3l0.2,0.4l0.5,0.3
	l0.2,0l0.3,0.3l0.1,0.3l-0.1,0.2l-0.2,0.3l-0.2,0.1l0,0.1l0.3,0l0.2-0.1l0.2,0.4l0.2,0l0,0.3l0.1,0.1l0.2-0.1l0.2,0l0.3-0.3l0.2,0
	l0.2,0.2l-0.1,0.4l-0.1,0.1l-0.2,0.1l-0.1,0.8l0.1,0.1l0.1,0.3l-0.1,0.1l-0.3-0.1l-0.2,0l-0.2-0.1l-0.1,0.2l-0.2,0.2l-0.2-0.1l0-0.3
	l-0.2-0.1l-0.1-0.4l-0.1,0.1l-0.1-0.3l-0.2,0.1l-0.1,0l-0.1-0.3l-0.1,0.3l-0.1-0.1l-0.1,0.4l0.1,0.1l0.2-0.1l0,0.3l-0.2,0.2l-0.2,0
	l0,0.3l0.3,0l0.1,0.1l0,0.2l-0.1,0.1l0.2,0.2l0.2-0.4l0.2,0l0.1,0.2l0.1,0.1l0,0.2l-0.1,0.2l0.1,0.2l0,0.2l0.1,0.2l0.1-0.1l0.2,0.1
	l0.1-0.4l0.1-0.3l0.2-0.1l0.1,0.2l-0.1,0.1l0.1,0.5l0.1,0.3l-0.2,0.1l-0.2-0.1l-0.1,0.1l-0.8,0.2l-0.3,0.2l0,0.4l0.1,0l0.3-0.3
	l0.2,0l0.2,0.3l-0.1,0.3l0,0.2l-0.2,0.3l-0.1,0.1l-0.2,0l0-0.3l-0.1,0l-0.1,0.2l-0.4,0.3l-0.2-0.2l0-0.4l0.2-0.1l0.1-0.4l-0.1-0.1
	l0.1-0.5l-0.3-0.1l-0.3,0.3l0.1,0.1l-0.1,0.6l-0.1,0.2l0,0.1l-0.2,0.1l0.2,0.5l0.2-0.1l0.1,0.1l0.1,0.4l-0.1,0.2l-0.2-0.1l-0.2,0.1
	l0,0.1l-0.1,0.2l-0.2-0.1l-0.1,0.2l0,0.3l-0.2,0.5l0.2,0.2l-0.1,0.2l0.1,0.6l-0.1,0.2l-0.1,0l0,0.3l0.2-0.1l0.3,0.1l0.1,0.2l0,0.3
	l0,0.4l-0.1,0.4l0.1,0.6l-0.1,0.7l0.1,0.1l0.1,0.4l-0.1,0.4l-0.1,0.2l0.2,0.1l-0.1,0.6l-0.1,0.4l0.1,0.2l0,0.2l0.1,0.9l-0.2,0.9
	l-0.2,0.6l-0.1,0.4l-0.2,0.7l0,0.2l-0.3,0.6l-0.4,0.4l-0.3,0.1l-0.2-0.1l-0.1,0.2l-0.4-0.3l-0.2-0.1l-0.1-0.1l-0.3,0l0.6,0.4l0.2,0
	l0.1,0.3l0.1,0l0.3-0.2l0.1,0.1l0.6-0.2l0.2-0.4l0.3-0.4l0.1-0.6l0.2-0.6l0.1-0.3l0.2-0.8l0.2-0.2l0.1-0.3l-0.1-0.2l0.1-0.4l0-0.4
	l0.1-0.5l-0.1-0.8l0.1-0.6l-0.1-0.4l0-0.2l0.1-0.5l0.2-0.9l0.3-0.5l0.1-0.3l0.2-0.5l0.1,0l0.3,0.1l0.2-0.2l0.5-0.5l0.2,0.1l0.2-0.1
	l0.4,0.1l0.2,0.2l0.2,0l0.1,0.2l-0.1,0.1l0,0.2l0.2,0.3l0.2,0.1l0,0.5l-0.2,0.6l0,0.3l-0.1,0.2l0.2,0.3l0,0.1l-0.3,0.2l-0.1,0.4
	l0.2,0.4l0.3,0.3l-0.1,0.3l0,0.3l-0.1,0.2l0.1,0.2l-0.1,0.3l0.1,0.2l-0.2,0.5l0,0.3l0.1,0.1l-0.1,0.3l-0.3,0.1l0,0.4l0.1,0.2
	l-0.2,0.4l0,0.2l-0.2,0.3l0.1,0.3l0,0.2l-0.1,0.2l0,0.3l-0.1,0.4l0,0.2l-0.1,0.4l0,0.2l-0.1,0.3l0,0.3l-0.1,0.1l0.1,0.3l0,0.2
	L283,287z"/>
<text transform="matrix(1 0 0 1 366.7295 601.8369)" class="textName">Nicobar Islands</text>
<text transform="matrix(1 0 0 1 331.9893 178.7148)" class="textName">North and Middle Andaman</text>
<text transform="matrix(1 0 0 1 328.3916 336.5)" class="textName">South Andaman</text>
</svg>
