<?xml version="1.0" encoding="utf-8"?>
<!-- Generator: Adobe Illustrator 26.0.0, SVG Export Plug-In . SVG Version: 6.00 Build 0)  -->
<svg version="1.1" id="Layer_1" xmlns="http://www.w3.org/2000/svg" xmlns:xlink="http://www.w3.org/1999/xlink" x="0px" y="0px"
	 viewBox="0 0 800 730" style="enable-background:new 0 0 800 730;" xml:space="preserve">
<style type="text/css">
	.st0{stroke:#000000;stroke-miterlimit:10; cursor:pointer;}
	.textName{font-family:'Arial'; font-weight:bold; color:#000000; font-size:14px; cursor:pointer;}
</style>
<path id="D030" class="st0" d="M322.2,480.4v0.2v1l0.3,0.9l0.8,1.4l-1.1,2.2l0.8,1l2.7,2l1.7,0.8l1.6-0.1l1.2,0.7l0.7,2.5l0.9,0.3
	l-1.4,3.1l-0.8,1.3l-1.1,0.7l-1,0.2l-1.1,0.5l-0.5,1.1l0.6,1.4l-0.5,0.8l-1.2-0.3l-1.4,0.8l-1.1,0.2l-0.8,1.3l-0.9,2.6h0.6l0.7,2.7
	l1.7,2.8l-1.8,1.3l-2.4-0.1l-2-1.2l-0.9-1.5l-1.3-0.5L314,512l-0.9,0.1l-0.2,0.1l-1.3-0.7l-1,0.1l-1-0.5l-1.6,1l-3.7,1.5l-0.8-1.6
	l-1.3-0.3l-1.9-0.1l-1.6-1.2l-0.7-0.8l-1.3-0.7l-1-0.2l-0.7,1.4l-1.1,1l-1.8,1l-1.4,0.6l-1.1,0.7l-1.1,1l-4.1,0.5l-1.4,0.7l-2.7,0.6
	l-0.2-0.6l-1.8-1.4l0.3-1.5l-1.8-0.6l-5.5,3.3l-1.1-0.1l-0.2-1l-0.6-1.3l1.2-1.3l0.4-2.1l1.5-1.6l1.7-1.2l-5.8-7.2l-3.4,3.8
	l-1.2,2.2l-2,0.1l-0.4-2.8l0.4-1.4l0.4-2.9l-1.1,0.1l-0.6,3.3l-1.8,1.9l-0.7-0.5l0.4-3.2l-0.4-1.4l-0.6,0.1l-1.4,1.2l-1,1.1h-1.8
	l-1-2.7l-0.6-1.2l-0.8-0.8l-0.1-1.7l-0.5-1.9l-1.1-0.9l-0.9,0.8l-2,2.6l-1,1.6l-2.7,1.7l-0.5-1.6l1.4-1.3l1.8-1.4l0.5-1.4l-2-2.8
	l-1.7-1.9l-1.8-3l-1-2.5l-0.7-1.5l-1.8-2.9l-1.5-3.2l-2.2-3.1l2.1-1.5l-1.6-3.3l0.1-1.2l-0.1-2.2l0.6-1.3l3.4,3.5l3.3,0.3l1.2-0.8
	l1.4-0.5l2-1.4l1.3-0.5h0.6h0.3l0.3-1.6v-2.3l1-0.4l-0.2-0.7l-1.3,0.2l-1.3-0.6l0.3-0.6l0.7-2.4l-2.2-3.6l-1.1-2.5l1.1-0.7l0.9,0.5
	l0.7,0.9l3.1,2.4l1.4,0.3l1.4,0.1l2.4,2.2l0.9-1.9l1.5,1.7l1.3-0.1l0.3,1.7l3.6,3.1l0.6,0.7l0.7,2.3l2.2-0.6l3.2,2.4l0.7-0.9
	l1.6,0.9l1.2,0.3l1.1,0.6l0.7-1.2l-0.3-1.9l1.7-1.9l0.4-1.6l-3.1-6.1l-0.4-5.1l2.1-5.9v-1.4l0.3-1.8l-0.7-1.2v-1.7L274,433l0.9-2.5
	l-0.5-2.1l1-1.9h0.1l1.8-0.5l2.2-2.9l2,0.8l2.1,0.3l1.2-0.6l1.5-0.4l0.7-1.5l3.8-1.4l4.4,2.9l0.2,0.4l0.3,0.8v2.3l-0.5,2.3l1.2,0.3
	l-1.1,1.8l0.2,2.2l1.1,1.7l-0.3,1.7l0.9,1.9l-0.5,0.7l-0.7,0.6l1.5,0.5l1.2-0.2l3-0.1l0.7-0.2l1,1l2.4,3.3l0.2,0.3l0.5,1.8l-0.6,2.6
	l1.2,1.2l1.1,0.8l0.1,2.8l0.7,1.9l0.1,1.3l-0.9-0.1l-0.3,1.5l1.2,1.3l0.4,1.8l-0.5,1.5l0.2,1l1.5-0.3l0.8,0.8l1.5,0.5l0.7-0.6
	l1.1-0.3l2.2,1.4l2.5,0.8h2l2,0.3l0.4,2.6l0.1,3.2l-1.3,0.7H321l-0.8,0.9l1,1.6l0.9,1.8l-0.3,1.6L322.2,480.4z"/>
<path id="D023" class="st0" d="M200.7,224.8l-0.6,1.6l-1,2.1l-1,1.2l-1.3,1.2l-1.6,1l-2.4,2l-2,0.8l0.6,0.7l0.2,1.3l0.5,1.3
	l-0.1,0.7l-0.6,1.2l-0.2,1.5l-0.5,0.9l-1,1.2l0.4,1.2v3.6l0.8,2.3l0.2,1.3l1,0.8l1.5,0.8l0.9,1l0.1,1.5l-0.4,2.6l-0.8,2.7l0.7,3.2
	l-0.5,1.2l-0.9,0.6H192V265l-0.8-1.6l-1.7,1.6l-1.6,0.8l-1.3,0.4l-2.1-0.8h-1.1h-0.6l0.5-1.7L183,262l0.1-2.3l-0.8-1.3l-1.8-0.4
	l-2-1.2l-1.1-1.2l-1.3-0.7h-1.5l-1.1,0.6l-4.6,1.1l-1.1-1.1l-1.9-0.4l-0.8-2l-1.8-3v-2l0.5-1.1l0.2-2.1l0.5-1.5v-0.6l-1.5,0.7
	l0.4-1.6l0.7-1.5l-0.4-1.8l-2.7-4l-1-2.3l-1.6-2.9l-2.2-2.3l-0.9-1.4l-1.3-0.2l-1.5,0.4l-2.2-0.5l-1.8-0.8l-0.5-1.2l-1.5-2l0.8-0.3
	l1.9-0.4l1.2-1.2l0.5-2l-0.6-1.5l-1.3-2l-1.7-2.4l-3.7-3.2l-1.5-2.5l-3.4-4.1l-2.5-2.7l-0.8-2l0.1-3.3l0.9-4l2.6-5.2l1-3l-0.5-1.3
	l2.5-3.9l3.4-5.7l0.6-1l2.9-6.1l0.3-2.6l-0.3-1l-1.7-1.9l-1.7-1.6l-1.2-2.1l-0.4-2.6l0.5-2.3l1.1-2.2l0.9-2.9l0.8-5.2l-0.3-3.7
	l-2.3-3.1l-2.7-6.3l-2.2-4.5l-3.4-3.1l-3.3-2.6l-1.8-0.9l-1.2-0.6l-1-1.1l-1.4-1.5l-0.5-0.7l-1.9-3.2l-0.1-0.2l-0.9-2.8l-0.1-0.8
	l-0.3-2.1l0.5-0.2l0.7-0.8l0.8-1.2l0.3-0.4l0.3-1.6l-0.6-2.3l0.9-1l0.9-1.5l2.5-0.9l1.2-0.2l1.1-0.1l3,0.8l3.2,0.2l2.5,1.3l3.6,2.2
	l2.5,2.3l1.8,2l1.9,3.4h1.1l1.1-0.2l6.9-3.8h0.8l1.9-2.2l1.3-1.1l1.6-0.5l0.7-0.4l0.7-1.7l0.5-1.8l0.8-1.4l2.7-0.7l1.4-1l0.8-1.7
	l2.1-1.7l0.8-1l1.5-0.9l0.7-0.7l0.6-1.5l1-4.4l0.6-1.9l-0.2-1.1l2.5-0.8l1.6-0.2l0.8-0.5l1.4,0.1l2.9-1.6l1.5-1.6l6.7-1.2l5.1-0.2
	l2.5-0.4l0.1-0.1l1.4-0.4l3.3-4.9l2.3-8.3l0.7-2.5l0.9-0.4l0.2-0.6l-0.3-0.8l2.4-2.3l0.7-1.7l2.8-1.7l1.6-0.7l3.7-4l3.1-2.1l0.7,0.1
	l0.6-0.7l0.4-1.3l1-1.3L232,33l1.2-0.7l0.9-1.6l1.3-0.9h1.7l1.3-0.5l2.6,1.6l1.5-0.2l2.2,0.6l1.6-0.6l1-0.1l2,0.8h0.5l3.6-2.5
	l1.3-1.4l0.5-0.2l1.3,0.2l2.7-1.1l2.6,0.3l1.4-1.8l1-0.7l1.6,0.7l1.3,0.2l0.9-0.2l1.7,0.3l1-0.3l0.8,0.7l-0.3,1.1l-0.1,1.6l0.7,0.8
	l0.8-0.2l0.9,0.6l0.3,1l-0.1,1.8l0.2,0.7l2.4,1.9l2.7,0.9l2.5-0.5l1.9-1.8l1.4,0.2h0.1l0.2-0.1l1.6-0.5l2.9-0.2l1.5-0.9l0.6-1h2.2
	l1.1,1l2.9-0.5l-0.2,4.9l-0.4,1l0.7,1.4l0.1,2.1l-0.2,2.4l-0.4,1.2l-0.9,1.2l0.1,1.5l-0.6,2.1l-0.4,2.4l0.3,1.8l-0.3,1.7l0.3,1.9
	l1.2,2.8l0.4,2.6l1.8,2.2l-0.2,1.4l0.6,0.4l-0.2,2.8l1.1,1.8l1.2,0.1l1.3,0.8l-0.5,1.2L303,75l-0.2,0.4L303,77l1.1,0.3l1,0.6
	l0.3,0.5l-1.3,1l-0.6,0.9l0.6,3.1v1.7l1.1-0.1l1.1,0.2l-2.6,3.7l-0.7,2l-1,0.3l-0.5,0.6l-0.4,1l-3.4,0.9l-4.7,0.8l-0.2,2.3l-0.1,5.7
	l-2.9,2.2l-0.8,0.8l-0.2,1.7l-1.1,1.7l-1,2.5l-1.1,0.6l-1.5,1.5l-1.3-0.1l-1.3-0.6l-1.7,1.2l-1.4,0.6l-1.9-0.4l-1.3-1.2l-0.9-1.2
	l-1-0.3l-1.6,1.4l-2.3,2.6l-2.9,2.4l-2.4,1.1l-1.5,1.7l-1.4,1.1l-1.9,0.3l-1.7,1.2l-2.6,0.9l-7.4-0.5l-0.6-1.8l0.2-2.1l-1.2-1.2
	l-1.5-5.1L244,112l-2.2-0.4l-1.9,0.6l-2.8,1.4l-1.5,1l-1,1.2l-1.1,1.9l-1.1,1.4l-1.9,0.4l-1,0.4l-0.4,2.4l0.1,3.2l1.8,1.1l0.3,2
	l-0.4,2.4l3.5,9.1v2.5l2.6,2l1.4,1.8l0.7,1.5l0.3,1.8l-0.3,1.8l-0.5,0.8l0.8,1.3l1,1.2l0.7,0.5l1.2,0.4l-0.6,3.6l1.7,1.1l2.3,0.5
	l5.2-2.3l2.2-0.7l2.3-0.5l1,0.3l1.5,2l1.5,0.5l2.1-0.6l4.7,2.1l3.3,1.7l0.6,2.9l1.3,1.3v2l0.2,1.7l0.8,1l1.3,0.4l2.9,0.4l-0.5,1.2
	l-0.8,3l0.1,1.9l0.9,1.1l1.7-0.4l1.9-1.1l3.6,2l2.1,0.6l1.7-0.1l3-0.7l0.8,0.9l-0.2,2l-0.5,1.7l-1.1,2l1.2,0.7l1.4,1.3l1.8-3.4
	l1.2-0.7l1.5-1.4l1.3,0.6l1.3,0.1l0.8-0.2l1.8,2.7l0.9-0.9l1.7-0.4l2,2.1l0.6,1.7l1.2,0.7l1.3,0.1l1.1-0.3l1.3-0.7l1.2-0.2l0.4,1.9
	l1.7,1.1l1.7-0.6l1.5-0.8l1.7-0.3l1.4,0.5l-0.3,1.1l0.5,1.3l1.7,0.4l-0.6,0.7l-0.7,1.8l-1.1,1.4l-0.9,2l-0.4,1.7l-1.1,1.6l-0.6,1.7
	l0.4,1.7l0.6,1.2l1.1,0.8l-1.5,1.2l-1.8,2l-2.2,1.6l-2.1,1l-1.9,2.3l-0.5,2.2l-1.5,1.6l-3,1.5l-0.4,4l0.2,2l0.4,1.8l-0.9,1.3
	l-0.9,1.8l-0.9,0.6l-2.6-0.1l-0.9,0.4l0.6,1.6l1.1,1.6l1.8,1.5l0.8,1.6l0.4,1.5l1.2,2.5l-1,1l-1.5,1l0.5,2l0.2,2.3l-1,2.3l1.7,3.4
	l-0.7,1.6l-1.1,1.8l0.2,0.9l1.3,0.4l-1.2,1.5l0.3,3.8l-0.3,1.5l-0.9,1.8l-1,1.7l-1.1,0.9l-2.7,3.6l-0.5,0.2l-1.6-0.8l-1.4-1.1
	l-1.3-0.7h-0.8l-2,0.5l-0.9,1.7l-1,1.1l-1,1.5l-1.7,0.2l-1.4-0.3l-1.2-0.7l-6.4-2.3l-2.1-1.6l-1.1-1.9l-1.5-1.9l-1.8-1.5l-3.3-1.1
	l-1.5,0.1l-1.5-0.9l-1.5,0.1l-4.2-1.2l-0.3-1.1l-2,1.2l-1.7-0.1l-1.8-2.5l-1-0.6l-1.3-1.5l-1,1l-1.2,0.1l-1.2-0.2l-1-1.6l-1.6-1.7
	l-1.7-0.9l-1.4,0.6l-1.5-0.3l-0.9-3.8l-2.3-0.7l-5.2-3.5l-1.1-1.3l-1.7-3.7l-1.5-2.3l-1.4,0.2l-1.8-0.1l-1.4-1.6l-1-0.8l-1.6-0.4
	l-1.4-0.7l-1.3,0.6l-1.3-0.6l-1.4-4l-0.2-1.7l-0.4-1.1l-1.6-1.6l-0.4-0.3l-1.3,0.4l-0.9-1.5L208,225l-0.9-0.3l-2.2,0.2l-3.6-0.5
	L200.7,224.8z"/>
<path id="D028" class="st0" d="M245.2,448.2l-2.6-4.3l-1.1-2.6l-0.6-2l0.4-0.6l-0.2-0.7l0.5-2.3l-0.7-0.9l-0.6-1.2l-4.6-11l-1.5-5
	l-0.8-0.8l-0.3-0.3l0.1-1.3l-3-3.5l-1.9-1.5l-2-2.8l-0.9-3l-1.4-2.7l-1.6-1.8l-1.4-3l-1.6-4.3l-0.9-1.5l-0.2-0.8l0.6-1l0.4-1.3
	l-0.6-0.6v-1.5l-0.6-0.6l-0.4-1.4l0.2-1.9l-0.6-0.4l0.4-1.5l0.5-1.1l-1.9-1.9l-0.3-1.6v-1.3l0.6,0.1l0.4,1.3l0.3,0.5l1.1,0.5
	l1.3-0.2l3.1-1.4l2.7-2.2l0.7,0.5l1.1,1.3l0.9,1.1l0.4,0.9l2.3-0.8l2-2.9l1.1-1.2l1.6,1.5l0.9,1.6l0.3-2.8l2.9,0.3l1.1-0.6l0.7-3.3
	h1.1l-0.2,1.8l1.1-0.1l2-0.5l-1.1-2.1l0.7-1l1.1,0.6l0.7,1.3l1-0.1l0.2-1.3l-1.4-2.7l0.5-0.5l0.6-0.3l1.1-0.2l3.7-1.9l3.8-1.1
	l0.1-1.7l-0.8-1.5l0.1-0.3l1.2-1.5l2.6-1.8l2.8-2.6l2.9-1.9l4.4-1.6l2.6,0.5l6.4,4.8l-0.8,1.5l-0.4,4.3l-1.1,2.1l-0.1,1.9l0.2,2.4
	l-0.2,2.2l-1.1,6.5l0.8,3.6l0.8,1.7l1.3,4.7l2.1,1.8l0.4,0.1l1.4,0.5l1.6,0.3l1.4,1.6l-0.3,2.5l0.7,1.7l2.3,1.5l-0.3,1.8l0.9,1v1
	l0.4,2.8l4.5,2.5l1.8,1.7l-0.7,1.8l-1.5,6.6l0.1,2.4l1.4,3.5l0.9,3.4l0.2,1.9l-0.2-0.4l-4.4-2.9l-3.8,1.4l-0.7,1.5l-1.5,0.4
	l-1.2,0.6l-2.1-0.3l-2-0.8l-2.2,2.9l-1.8,0.5h-0.1l-1,1.9l0.5,2.1l-0.9,2.5l0.4,1.8v1.7l0.7,1.2l-0.3,1.8v1.4l-2.1,5.9l0.4,5.1
	l3.1,6.1l-0.4,1.6l-1.7,1.9l0.3,1.9l-0.7,1.2l-1.1-0.6l-1.2-0.3L270,463l-0.7,0.9l-3.2-2.4l-2.2,0.6l-0.7-2.3l-0.6-0.7L259,456
	l-0.3-1.7l-1.3,0.1l-1.5-1.7l-0.9,1.9l-2.4-2.2l-1.4-0.1l-1.4-0.3l-3.1-2.4l-0.7-0.9L245.2,448.2z"/>
<path id="D024" class="st0" d="M176.1,363.6l-0.1-0.2l-0.4-3.2l-1.8,1.3l-3.4-3.8l-1.3-1.7l-1.7-0.6l-5.5,0.2l-1.2,1.9l-0.3,1.1
	l-1.9,0.3l-1.9,0.1l-1.7-1l-2.1-0.7l-1.1-2.6l-1.3-3.9l-1-1.5l-2.5-6.6l-1.8-2.8l-1.3-3l-0.3-2.4l-3.1-3l-1.5-1l-0.2-0.2l-0.4-0.5
	l-1.7-0.2l-1-0.8l-1.8-0.3l-1-2l-4.1-0.4l-1.6-0.4l-1.9-0.9l-2-1.4l-1.8-1.6l-1.5-1.7l-0.9-1.5l-1.4-1.5l-1-1.8l-1.5-1.8l-0.4-0.3
	l-0.7-0.4l-2,0.3h-2.4l-1.9-1.9l-1.5-3.9l-0.5-0.5l-3.1-1.3l-4.4-2.5l-1.7,0.1l-2.7,1l-2.9,0.8l-2,0.9l-3.7-3.9l5.9-4.4l3.8-4.9
	l3.1-4.5l1.4-2.1l1.2-4.6l-1-2.9l-1.2-0.8l-5.4-1.3l-0.1-1.2l-0.2-1.8l0.3-5.7l0.3-2.4l0.1-1.1l2.1-2.5l1.3-0.7l2.1-2l0.4-0.1l3.9-2
	l1.7-0.2l3.7-0.5l5.8-1.6l2.9-2.6l0.5-0.5l1.3-2.5l0.3-1.5l3.7-4.9l0.4-0.4l1.5-2.1l1-1.2l2.7-3.2l0.9-1.1l3.4-4.4l1.2-1.6l4.1-3.8
	l1-1l7.2-2.6l1.5,2l0.5,1.2l1.8,0.8l2.2,0.5l1.5-0.4l1.3,0.2l0.9,1.4l2.2,2.3l1.6,2.9l1,2.3l2.7,4l0.4,1.8l-0.7,1.5l-0.4,1.6
	l1.5-0.7v0.6l-0.5,1.5l-0.2,2.1l-0.5,1.1v2l1.8,3l0.8,2l1.9,0.4l1.1,1.1l4.6-1.1l1.1-0.6h1.5l1.3,0.7l1.1,1.2l2,1.2l1.8,0.4l0.8,1.3
	l-0.1,2.3l0.3,1.7l-0.5,1.7h0.6h1.1l2.1,0.8l1.3-0.4l1.6-0.8l1.7-1.6l0.8,1.6l0.1,1.4h0.7l0.9-0.6l0.5-1.2l-0.7-3.2l0.8-2.7l0.4-2.6
	l-0.1-1.5l-0.9-1l-1.5-0.8l-1-0.8l-0.2-1.3l-0.8-2.3v-3.6l-0.4-1.2l1-1.2l0.5-0.9l0.2-1.5l0.6-1.2l0.1-0.7l-0.5-1.3l-0.2-1.3
	l-0.6-0.7l2-0.8l2.4-2l1.6-1l1.3-1.2l1-1.2l1-2.1l0.6-1.6l0.6-0.4l3.6,0.5l2.2-0.2l0.9,0.3l0.4,3.3l0.9,1.5l1.3-0.4l0.4,0.3l1.6,1.6
	l0.4,1.1l0.2,1.7l1.4,4l1.3,0.6l1.3-0.6l1.4,0.7l1.6,0.4l1,0.8l1.4,1.6l1.8,0.1l1.4-0.2l1.5,2.3l1.7,3.7l1.1,1.3l5.2,3.5l2.3,0.7
	l0.9,3.8l1.5,0.3l1.4-0.6l1.7,0.9l1.6,1.7l1,1.6l1.2,0.2l1.2-0.1l1-1l1.3,1.5l1,0.6l1.8,2.5l1.7,0.1l2-1.2l0.3,1.1l4.2,1.2l1.5-0.1
	l1.5,0.9l1.5-0.1l3.3,1.1l1.8,1.5l1.5,1.9l1.1,1.9l2.1,1.6l6.4,2.3l1.2,0.7l1.4,0.3l1.7-0.2l1-1.5l1-1.1l0.9-1.7l2-0.5h0.8l1.3,0.7
	l1.4,1.1l1.6,0.8l0.5-0.2l2.7-3.6l1.1-0.9l1-1.7l0.9-1.8l0.3-1.5l-0.3-3.8l1.2-1.5l-1.3-0.4l-0.2-0.9l1.1-1.8l0.7-1.6l-1.7-3.4
	l1-2.3l-0.2-2.3l-0.5-2l1.5-1l1-1l-1.2-2.5l-0.4-1.5l-0.8-1.6l-1.8-1.5L300,235l-0.6-1.6l0.9-0.4l2.6,0.1l0.9-0.6l0.9-1.8l0.9-1.3
	l-0.4-1.8l-0.2-2l0.4-4l3-1.5l1.5-1.6l0.5-2.2l1.9-2.3l2.1-1l2.2-1.6l1.8-2l1.5-1.2l3.1-1.5l2.1-0.6l1.4-0.2l1.4,0.7l-0.2,1.7
	l-1.5,1.7l-0.8,1.6l-0.7,2l1.7-0.8l1.7,0.1l1.5,1.5v1.7l-1,2.2l1.3,0.8l1.3,0.3l1.9-1l1.2-0.9l1-0.5l0.9,0.1l-0.4,3.7l0.2,1.6h1.7
	l1.7-0.7l1.9,0.3l1.8-1.6l0.9,0.3l1.3-0.3l2.1-1.1l3.4-1l2.6-1l2.3-1.2l1.2,1l0.4,0.7l0.3,1.3l1.8-0.1l0.4,1.2l0.1,0.8l-0.4,2.1
	l-0.7,0.9l0.3,0.7l-0.6,0.9l-0.6,1.7l-2.6,3.2l-0.5,1l-1.1,4.5l-1,2.1l0.6,1.6l0.2,1.4v1.2l-0.5,1.1l-1.9,1.9l-0.2,0.9l0.7,3.2
	l0.4,0.8v1.3l-0.9,2.2l-0.2,1v2.6l0.4,1.1l0.1,1l-0.2,1.3l0.5,1.1l1.7,1.7l1.7,2.5l-1,2.4l-1.5,2.3l-3.2,0.3l-0.9,1.2l-2,0.3
	l-0.6,0.9l-1.3,2.4l0.8,1.1l-0.8,1.8l-0.7,2.7l-0.8,2.4l-0.4,5.6l0.4,3.6l0.3,1.5l-7.8-0.3l-0.3,1.8l-0.4,1.5l-0.7,1.5l0.8,1.7
	l-0.1,1.6l0.3,3.1l-0.8,1l-1.8,0.8l-1.4,0.2l-1.4-0.5l-2.2,0.2l-2.9,0.5l-3.5,1.6l-1.7,0.2l-1.3,0.6l-0.6,0.9l-1.1,0.8l-0.6-0.6
	l-2.4-1.3l-2.1-2.4l-2.1-1.9l-0.5-1.9l-1.6-0.3l-1,0.3l-0.8,1.6l-1.1-0.5l-1.2,0.9l-1.6,2.9l-3.2,3.9l-1.1,1.8l-1.4,0.2l-0.1-0.8
	h-1.2l-1.7-0.6l-1.4-1.1l-0.1-1.4l-0.6-1l-2.7-0.7l-1.6,0.9l-0.6,0.7l-0.2,1l-2.3,2.6l0.4,4.6l0.8,2.8l2.1,3.4l0.8,2.5l0.4,2.5
	l-0.4,1.4l1,1.6l0.1,1.8l0.2,1l0.5,2.7l-1,0.5l-0.3,1v1.1l-0.8,2.7l-0.9,0.7l-0.1,0.8l0.3,1.6l-0.7,0.9v1.6v0.5l0.4,1.6l0.1,1.4
	l-1.7,0.1l-1.7,0.6l-1.9-0.3l-1.6-0.6l-6.4-4.8l-2.6-0.5l-4.4,1.6l-2.9,1.9l-2.8,2.6l-2.6,1.8l-1.2,1.5l-0.1,0.3l0.8,1.5l-0.1,1.7
	l-3.8,1.1l-3.7,1.9l-1.1,0.2l-0.6,0.3l-0.5,0.5l1.4,2.7l-0.2,1.3l-1,0.1l-0.7-1.3l-1.1-0.6l-0.7,1l1.1,2.1l-2,0.5L243,370l0.2-1.8
	h-1.1l-0.7,3.3l-1.1,0.6l-2.9-0.3l-0.3,2.8l-0.9-1.6l-1.6-1.5l-1.1,1.2l-2,2.9l-2.3,0.8l-0.4-0.9l-0.9-1.1l-1.1-1.3l-0.7-0.5
	l-2.7,2.2l-3.1,1.4l-1.3,0.2l-1.1-0.5l-0.3-0.5l-0.4-1.3l-0.6-0.1v1.3l0.3,1.6l1.9,1.9l-0.5,1.1l-0.4,1.5l0.6,0.4l-0.2,1.9l0.4,1.4
	l0.6,0.6v1.5l0.6,0.6l-0.4,1.3l-0.6,1l-0.2,0.4l-3.3,7.1l-0.9,1.1l-1-1l-1-1.9l-1.5-1.7l-2.6-2.2l-1-0.9l-0.5-1l-4.6-5l-2.6-5.1
	l-0.1-1.3l-1-1.1l-1.7,0.2l-0.9,1l-1.3-0.5l0.4-1.6l-0.8-1.8l-1.6-1.1l-1.1-1.2l-1.1-0.6l-5.2-1l-3.1-1.3l-2.4-3.3l-2.1-1.1
	L176.1,363.6z"/>
<path id="D034" class="st0" d="M700.3,504.7l-0.2,2.2l0.8,4l1.1,2.2l0.7,0.5l2.9,0.2v0.8l-0.3,1.1l0.5,2.2l1.1,1.2l0.6,1l0.2,0.8
	l1.2,0.9l1.5,0.8l1,0.1l0.4,0.6l0.6,0.3l0.5,1.1l0.5,2v3.8l-0.3,1l0.4,1.2l1.2,1.2l0.4,0.1l0.4,0.8l0.3,1.6l1.1,3.3v0.3v0.2
	l-1.1-0.4l-1.1,0.2l-3.6,0.3l-1.8,1.1l-0.6,0.6l-1.9,0.8l-0.8-0.1l-0.9-0.4l-2.2-0.2l-1.4-2.1h-0.9l-0.7,0.2l-0.6,0.8l-0.2,1.1
	l-0.5,0.5l-1.1-0.1l-1.2,0.5l-0.8,0.1l-1.6-0.9l-1.7-1.3l-1.9-3.4l-1.4-0.5l-1.2-0.7l-1.6-1.4l-0.8-1.8l-1.1-0.9l-0.5-1.7l-1-2.4
	l0.3-1.4l-2.1-2.2l-0.5-1l0.1-1.6l0.6-1.2l0.4-1.3l-0.6-0.8l-0.9-0.7l-1.2,0.1l-3.3,1.8l-1.2,0.3l-1.3,0.3l-1.5,0.1l-5.4-0.7
	l-1.4,0.1l-1,0.4l-1.3-0.3h-0.9l-3.6-1.7l-1.9,0.2l-1.1-0.2l-1.7,1.3l-0.5,0.8l-0.4-1.9l-1.4-1.4l-0.4-2.8l-0.3-0.6h-1.1l-2.1-0.8
	l-0.7-0.5l-0.6-0.9l-1.7-1.2l-1-0.1l-2.1,0.5l-0.8-0.2l-2.4,0.3l-0.9,1l-1,0.5l-1.1,2.2l-2.4,2.9l-4.2,0.7L623,518l-1.8-0.2
	l-1.3,0.3l-0.5-2l-0.1-2.2l-1.7-1.7l-2.4-4l-2.3-1.3l-0.9-1.6l-1.4-1l-0.9,2.2l-1.7,0.6l-1.4,0.2l-1.1-1.3l0.3-2.3l-1.3-1.8
	l-0.5-1.2l-0.4-1.8l-1.5,0.6l-0.8-2.1l-1.1-0.5l-1.3-0.2l-1.6,0.2l-0.9,0.3l-1.2,0.4l-1.7-0.2l-1.8,0.8l-2-0.3l-1.5-0.5l-1.2-0.6
	l-2.1-1.7v-1.6l0.4-1.2l-0.1-1.3l0.8-1.4l-1.8-2.1l-3.2-0.2l-2.7-0.8l-0.8-0.6l-0.5-1l-0.7-0.6l-0.4-1l-0.5-0.3l-0.7,0.3l-1.1,1.6
	l-1.2,0.7l-0.6,0.8l-1,0.6l-1,0.1l-1.1-0.8l-1.1-0.1l-3.1-1.8l-1.1,0.1l-1.6-1.9l-1.3-0.1l-0.8-1.2l-1.2-2.6l2.4-4.5l-0.5-1.4
	l-0.7-0.9l-1.2-0.8L557,472l-1.1-1.7l-1-0.5l-1.1-1.7l-0.6-0.6l-1.8-0.8l-1.2-0.1l-1.1-1.6l-0.2-1l-1.8-0.2l-1-0.4l-0.5,0.2l-1.2,1
	l-1.1-0.1l-0.8,0.5l-2.7-0.8l-1.3,0.9l-2.7,2.5l-0.7,0.6l-0.8,0.3l-1.9-0.6l-1,0.2l-1.6-0.1l-0.8-0.5l-3.5,0.8l-2.4-0.2l-0.6-2.9
	l-2.2-1.9l-0.8-0.3l-2.2,0.3l-0.8-0.5l-1.1-1.8l-1-0.3l-0.8-0.7l-0.6-1l-1.1-0.6L511,455l-0.6-0.9l-1.2-1.3l-1.6-1.3l0.6-2.4
	l-0.1-1.6l-0.6-1.1l-1.5-1.5l-0.4-1.5l-1.1-0.9l-0.7-1l-0.6,1.4l-0.9-0.6l-1.9,0.4v-1.5l0.6-1.9l0.2-1.6l-0.3-2.4l-0.5-2.1l-0.8-2
	l-0.2-2.2l0.7-4.1l-0.7-1.5l-2.8-4.7l-1.1-1.5l0.2-1.5l1.5-3.8l0.2-1.4l-0.9-1.3l-0.8-3.5l-0.7-1.4l-1.5-1.5l-1.7-1.1l-0.3-1.2
	l-0.7-2l-1.1-1.9l-2.1-2.2l-1.5-0.2l-1.5-0.8l-0.8-1.5l0.2-0.7l0.8-0.7l-0.1-1.7l-0.6-4.1v-2l1.7-0.9l0.2-1.7l1,1.1l2.1,1.4h1.7
	l1.8-1.7l2.2-0.4h3.3l3.8,1.4l0.9-1.1l0.5-2.2l0.3-1.6l-0.5-1.6l2.1-0.5l0.9,0.8l0.8,1.7l1.5,0.8l2.4,2.6l0.3,1.5l1.3,0.4l1.6-0.3
	l1.2,1.2l1.7,0.3l1.1-0.5l-0.1-1.8l1.1-0.5l0.6-4.9v-1.6h1.6l1,0.7l1.1,0.4l1.5,0.1l0.8,0.5l0.9-0.5l1.8,0.8l1.5,0.2l0.8,0.1
	l1.1-0.1l0.7,1.2l1.2,1.1l1.1,1.4l1.3-0.2l2.5-2.9l1-0.8l0.5-1.1l0.6-0.8l3.3-0.1l1.3-0.9l0.1-0.8l-0.2-0.8l0.5-1.7l0.1-2.1l0.9-1.4
	l0.8-2l-0.5-1.7l0.7-0.8l-0.2-1.2l-1.9-1.8l0.5-1.4l1.1-0.6l-0.8-1.3l1.1-0.2l1.9,0.2l1.2-0.6l2.2-1.6h1.6l1,0.2l2-0.2l0.7,1
	l1.6,0.4l2.1-0.2l0.6-0.8l2.3-1.5l-0.2-1.4l-0.9-2.5l0.5-1.5l-0.4-1l0.5-1.4v-0.9l-0.4-2.1l1.4-0.8l0.6-0.8l0.2-1.3l1.1-1.2l1.9-0.5
	l1.5,0.4l6.9-0.3l2.6-0.4l2.5,1.3l3,1l0.3-2l1.4-0.8l5.1,0.5l0.7,0.5l0.8-1.3l1.2-0.4l1.4-1.7l1.7-3.1l3.4,1l2.2,0.3l1.3,1l2.5,3.2
	l1.2-0.3l1,0.6l1.4-0.5l1.2,0.3l1-0.2l0.7-0.4l0.3-0.6l-0.7-1.9l0.8-1.1l0.3-1.2l-2-2.1l-1-0.7l-1.5-0.5l-0.5-1.7l-2.4-2.5l0.1-1.6
	l0.3-1.2l0.9-1.2l-0.1-2.6l0.7-2.3l0.9-2.1l0.5-2.3l0.6-0.9l0.6-1.4l0.9-0.6l1.2,0.1l1,0.4l1.8,1.1l1,0.2l1.2-0.1l0.1,1l0.2,0.5
	l0.5-0.3l0.7-0.9l2.7-0.7l1.9-0.8l1.6-1.2l3.4-1.3l0.9,0.3l2.3,0.4l1.6-0.2l3.6,0.3l1.8,0.6l0.7,1.4h0.8l2.1-1.8l1.6-1l1.7-0.2
	l1.7-0.4l1.7-0.9l1.1-1l0.5-1.6l0.1-1.4l0.4-0.8l0.5,0.1l0.2,1.3l0.8,1.1l0.1,0.6l0.1,0.1l0.3,0.3v0.1l0.2,0.2l2.5,2.2l1.2,1.3
	l0.1,0.1l0.1,0.3l0.1,0.3l0.4,0.6l0.2,0.2l0.3,1.1l0.1,0.1l0.1,0.1l0.1,0.4l0.1,1.3l0.1,0.1l0.5,0.5l0.1,0.1v0.2l0.3,0.1l0.1,0.3
	l0.2,0.2l0.1,0.1l1.4,1.2v0.2l1.2,0.9l0.9,1v0.2l1,1v0.2l0.5,0.6l0.1,0.3l0.2,0.8l0.1,0.1l0.1,0.1l0.2,0.2v0.2l0.1,0.1l0.1,0.3v0.2
	l0.2,0.1v0.2l1,0.9l0.4-0.1l2,0.2l0.5,0.2l1.4,0.4l1.4,0.3l0.3,0.1l0.2-0.1v0.8l-0.1,0.4v0.1l-0.2,0.8l-1.5,6.8l-0.7,2.2l-0.3,1.1
	l-0.6,2.6l-0.4,1.2l-0.9,2.4l-0.9,1.2H669l-0.4,0.6l-0.3,0.3h-0.1l-0.1,0.2l-0.1,0.1l-0.3,0.4l-0.1,0.8l-0.2,0.2l-0.2,0.2l-0.1,0.4
	v0.2l0.3,0.3l0.1,0.3v1.2l-0.6,2l-0.1,0.1l-0.1,0.2l-0.5,0.9v0.2v0.1v0.2l-0.1,0.4v1.6l-0.1,6.9l-0.3,2.2v0.2l-0.2,0.5l-0.2,0.1
	l-0.2,0.2l-2.7,1.8l-0.3,0.3H662v0.1l-0.1,0.2h-0.1l-1.1,1.8l-0.3,0.7l-0.1,0.4l-0.3,1.5l0.1,2.4v0.9l0.3,1.7l0.1,0.1l0.1,0.5
	l0.4,1.2l0.1,0.2l0.7,0.9l0.2,0.2l0.3,0.8l1.9,0.7l0.3,0.1l1.2,0.5l0.5,0.3l-0.1,0.9l-0.8,0.9l-0.5,0.6l-0.1,0.3l-0.2,0.5l-0.2,0.3
	l-0.4,1.1l-0.1,0.9l0.1,0.1l0.1,0.1v0.5l0.1,0.1l0.1,0.1v0.3l0.8,0.5l0.3,0.6h0.1l0.2,0.4l0.3,1.2l0.1,0.4l0.4,1.5l0.5,3.8l0.6,1.1
	l0.2,0.4l0.2,1l0.1,0.1v0.1l0.1,0.1l0.7,0.6l1.4,0.7h0.2l0.3,0.1h0.4h0.3l0.2,0.1l1.9-0.3l1.2-0.4l0.3-0.1l1.2-0.4l0.1,0.6l0.1,2.9
	v0.5v0.2l0.6,2.8l0.3,0.4l0.1,0.3v0.2l0.1,0.1l0.3,0.6l0.6,0.6l0.1,0.3l0.3,0.2v0.1l0.1,0.2l2.5,2.3l0.1,0.1l1.3,0.8l0.6,0.7
	l0.7,0.8l0.1,0.1l0.1,0.3l0.4,0.3l0.1,0.2l0.1,0.2v0.2l0.1,0.2v0.1l0.4,1l0.1,0.1v1.1l-0.7,2l-0.6,1.1l-0.1,0.1l-0.2,0.4l-0.7,0.8
	l-0.2,0.3l-0.5,0.6l-0.2,0.1l-0.2,0.3l-0.1,0.3l-0.2,0.4l-0.1,0.2h-0.1l-0.1,0.2l-0.7,1l-1.4,1.7l-1.1,0.6l-1.2,0.6l-3.1,1.4v0.2
	l-0.8,0.7l-0.5,1.1l-0.7,1l-1.4,1.2l-0.6,0.3l-3,0.9l-1.6,0.8l-0.4,1l-0.4,1.5l-0.1,0.1h-0.2l-0.1,0.2l-1.2,1.3l-0.4,0.7v0.7
	l0.3,0.8l1.3,1.8l0.2,1v4.1l0.1,0.6l0.5,0.2l0.8-0.5l0,0l1-0.3l2.8-0.8h0.5l0.2-0.1l0.1,0.1l0.5,0.4l0.6,2l1.1,1l0.1,0.2v0.1v0.1
	l0.2,0.2l0.6,0.4l0.1,0.1v0.2l0.3,0.1l0.6,0.4l0.3,0.4l0.2,0.3l0.9,0.8l0.2,0.3l2.3,1.6l0.6,0.6l0.3,0.9l0.1,1.1l-0.2,1.2v1.3v0.9
	l-0.6,3.1l-0.5,0.6l-1.1,0.6l-0.2,0.2l-0.1,0.1v0.2l-0.1,0.1l-0.9,1l-0.1,1.1l0.1,0.2v0.1h0.3l0.8,0.3l2.3,0.9l1.3,0.7l1.2,0.4
	l0.6,0.4l1,0.6l0.8,1v0.2l1,0.5l0.1-0.1l0.5,1.4l0.8,0.8l0.1,0.3v0.2l0.2,0.3l0.3,1.2l0.1,0.1l0.4,2.4v0.9l-0.4,1.4l-1.1,1.5
	l-0.6,1.6l0.1,0.6l0.8,0.3h0.3l0.5,0.1l0.1,0.1l0.3,0.2l1,0.9l0.5,0.5l0.2,0.3l0.2,0.2v0.2l0.2,0.2l0.1,0.1l0.2,0.2v0.2h0.1l0.8,0.8
	l0.4,0.9l0.1,0.2h0.1v0.1l0.5,0.6l0.1,0.2v0.1l0.5,0.6l0.5,2.5l0.1,0.1l0.1,0.4l0.1,0.1l1.3,4l0.1,0.1l0.1,0.5l1,1l0.1,0.1l0.8,0.3
	l2.1,1L700.3,504.7z"/>
<path id="D026" class="st0" d="M433.6,480.7l-0.5,0.7l-4,0.6l-1.4,1.1l-2-0.3l-1.2,0.7l-1-1.3l-1,0.1l-2.3-2.6l-0.8-1.3l-1,0.7
	l-0.9-0.1l-1-0.4l0.8-2.5l-0.3-1.2l0.3-1.7l-0.6-0.7l0.2-0.7l-1.1-1.2l0.2-1.2l-0.2-0.8l0.4-1.2l-0.2-1.3l-0.6-1.5l-0.8-0.8l-1-0.6
	l-1.3-1.2l-1-1l-2.6-3.2l-1.3-0.8l-1.1-2.2l-0.9-3.1l-0.5-2.9l-0.3-3.7l-0.8-2.4l-0.2-4.2l0.6-1.3l-1.1-2l-1.4-2.1l-0.8-2.7l0.5-2
	l0.2-3.5l-0.8-3.2l0.5-1.5l0.5-2.9l-0.2-2.7l-1.3-7.8l1.3-2.1l-3.9-7l-2-2.7l-2.9-2.2l-2.2-0.6l-1.5-1.5l-2-0.9l-0.2-0.3l-0.2-0.3
	l-1.4,0.9l-0.8-2.5v-2.5l-0.3-1.9v-1.5l-0.6-2.4l-0.4-1.1l-1.4-2.4l0.1-1.4l-0.8-1.5l0.3-1.6l-1.4-2.7l0.3-1.6l-0.6-1.7l-2.1-1.2
	l0.5-1.4l0.3-2.4l-1.4,0.4l-1,0.5l-8.5,0.1l-3-0.2l-1.8,0.4l-2.3,1.8l-0.8-0.9l-1.7-0.6L356,362v-0.9l-0.3-1.3l0.7-3l-0.8-0.4
	l-0.3-1.1l-4.5-7.7l-0.5-1.7l-0.1-2.7l-0.5-2.3l-1.3-2.2l-2.6-3.9l-0.7-2l-1.8-2.7l-2.1-4.5l0.5-2.1l0.2-1.9l-0.1-2.8l-0.8-3l-2.4-1
	l-0.9-1.3l-2.8-2.8l-0.2-3.1l-0.6-1.3l0.8-1l-0.3-3.1l0.1-1.6l-0.8-1.7l0.7-1.5l0.4-1.5l0.3-1.8l7.8,0.3l-0.3-1.5l-0.4-3.6l0.4-5.6
	l0.8-2.4l0.7-2.7l0.8-1.8l-0.8-1.1l1.3-2.4l0.6-0.9l2-0.3l0.9-1.2l3.2-0.3l1.5-2.3l1-2.4l-1.7-2.5l-1.7-1.7l-0.5-1.1l0.2-1.3l-0.1-1
	l-0.4-1.1v-2.6l0.2-1l0.9-2.2v-1.3l-0.4-0.8l-0.7-3.2l0.2-0.9l1.9-1.9l0.5-1.1V241l-0.2-1.4l-0.6-1.6l1-2.1l1.1-4.5l0.5-1l2.6-3.2
	l0.6-1.7l0.6-0.9l-0.3-0.7l3.7-0.3l2.8-0.3l1.1-0.9l3.5-1.4l3-1.8l1.2,0.5l4.4,2.4l2.9,0.8l0.8,2.2l0.6,0.8l2.5,1.6l2.3,2.1l1.4-0.6
	l0.9-0.2l0.8,0.3l1.8,1.4l1.6,1.8l2.3,1.2l0.9,1.8l0.3,1.6h0.6l2,2.1l1.9-0.1l0.6,1.3l2,1.4l0.7,0.9l0.8,1.7l-0.2,1.1l0.3,0.7
	l0.9-0.3l1.2,4.4l0.6,0.7l0.3,1l-0.1,1.2l0.1,1.5l0.6,1.4l-0.4,1.1l0.1,1.1l-0.8,1.1l0.3,1l2,4.2l2.3,2.4l0.9,0.1l1.7,1.3l0.9,0.2
	l1.2-0.6l4,3.3l0.5,2.1l0.5,0.5l1,0.1l1.1-0.3l2.1,0.1l2.3-0.5l1-0.6l0.4-0.9l-0.1-1.1l0.1-1.2l0.5-2.3l0.3-0.9l0.9-0.8l1.2,0.6
	l1.5,0.1l2.1,1l0.7,1.4l1.1,1.3l0.5,1l0.4,1.1l1.9,0.5l1.3-0.1l0.5-1.4l-0.3-1.9l1.4-1.1l0.9-1.1l3.5,3.3l0.1,1.9l0.3,1.3l1.2,1.8
	l1.6,0.5l0.7,1l0.2,0.8l1.4,0.4l1.7,1.8l1.8,1.6l1,0.5l1.5-0.1l1.1,1.9l1.2,0.1l2.3,1.5l0.2,0.8l1.1,1l0.1,1.2l0.5,1.7l1.1,0.7
	l0.4,1.3l0.6,0.3l0.5,0.4l1.3,2.2l0.8,0.7l2.5,0.2l2.2,1.9l1.4,0.7l2.6,0.5l1.9,0.1l0.2,3.5l0.3,0.7l1.3,0.9l0.6,2.5l1,1.1l0.5,1
	l-0.1,1.3l-0.3,1.5l0.6,0.9l1.3,0.8h0.8l2.4,3.8l-0.2,0.5l-2.8,2.2l1.8,1.7l1.2,2.1l1.7,1.5l0.1,1.1l-1.2,1.6l-1.5,0.9l-0.9,1.1
	l0.2,1.5l-1.5,2.1l-1,2.2l0.7,2.1l1.4,2.2l0.5,2.6l1.7,2.4l2.6,2.5l2.2,0.5l2.3-0.4l3.2,1.5l2.1,1.2l1.8,0.3l-0.9,1L502,353
	l-1.7,3.8l-0.3,1.7l1,2.9l1,1.8l-0.4,1.1l-0.1,1.7l0.2,3l1.3,2.3l1.6,1.5l0.6,1.7l-2.1,0.5l0.5,1.6l-0.3,1.6l-0.5,2.2l-0.9,1.1
	l-3.8-1.4h-3.3l-2.2,0.4l-1.8,1.7h-1.7l-2.1-1.4l-1-1.1l-0.2,1.7l-1.7,0.9v2l0.6,4.1l0.1,1.7l-0.8,0.7l-0.2,0.7l-1.5-0.3l-1.5,0.1
	l-3.5,2.6l-1.2,0.3l-2.7-0.4l-1.6,0.2l-1.1,1.1l-1.8,3.9l-1.5,1l-0.5,2.2l-1.3,1.3l-0.7,1.2l-0.2,0.7l0.2,1.2l0.5,0.4l2.1,4
	l-0.7,0.8l-1.1,0.5l-0.4,1.1l-0.5,2.9l-0.1,1.8l0.2,1.7l0.6,1.6l0.7,3.4l1.6,1.5l1.8,2.7l1.1,0.4l0.8,2.5l1.3,1.2l1.5,0.7l1,3
	l-0.6,2.7l0.4,2.4l1.1,1.6l-0.4,1.4l-1,0.3l-2.3,2.2l-1.3,2.1l-0.9,2.1l-1,1.6l-1.5,0.8l-1.6,0.3l-2.5,1l-1.6,1l-0.7,1l-0.6,1.7
	l-0.4,3.8l0.6,2.4l1.5,4l-0.7,1.6l-1.9,0.6l-1.7-1.3L456,470l-1.7,0.1l-3.7,2.2l-1.5-0.5l-1.7,0.5l-1.2,1.1l-1.5,3.3l-1.5,3.8
	l-1.1,0.5h-1.4l-2-1l-1.7-0.2L433.6,480.7z"/>
<path id="D025" class="st0" d="M543.8,374.4l-3.3,0.1l-0.6,0.8l-0.5,1.1l-1,0.8l-2.5,2.9l-1.3,0.2l-1.1-1.4l-1.2-1.1l-0.7-1.2
	l-1.1,0.1l-0.8-0.1l-1.5-0.2l-1.8-0.8l-0.9,0.5l-0.8-0.5l-1.5-0.1l-1.1-0.4l-1-0.7h-1.6v1.6l-0.6,4.9l-1.1,0.5l0.1,1.8l-1.1,0.5
	l-1.7-0.3l-1.2-1.2l-1.6,0.3l-1.3-0.4l-0.3-1.5l-2.4-2.6l-1.5-0.8l-0.8-1.7l-0.9-0.8l-0.6-1.7l-1.6-1.5l-1.3-2.3l-0.2-3l0.1-1.7
	l0.4-1.1l-1-1.8l-1-2.9l0.3-1.7l1.7-3.8l2.6-1.9l0.9-1l-1.8-0.3l-2.1-1.2l-3.2-1.5l-2.3,0.4l-2.2-0.5l-2.6-2.5l-1.7-2.4l-0.5-2.6
	l-1.4-2.2l-0.7-2.1l1-2.2l1.5-2.1l-0.2-1.5l0.9-1.1l1.5-0.9l1.2-1.6l-0.1-1.1l-1.7-1.5l-1.2-2.1l-1.8-1.7l2.8-2.2l0.2-0.5l-2.4-3.8
	h-0.8l-1.3-0.8l-0.6-0.9l0.3-1.5l0.1-1.3l-0.5-1l-1-1.1l-0.6-2.5l-1.3-0.9l-0.3-0.7l-0.2-3.5l-1.9-0.1l-2.6-0.5l-1.4-0.7l-2.2-1.9
	l-2.5-0.2l-0.8-0.7l-1.3-2.2l-0.5-0.4l-0.6-0.3l-0.4-1.3l-1.1-0.7l-0.5-1.7l-0.1-1.2l-1.1-1l-0.2-0.8l-2.3-1.5l-1.2-0.1l-1.1-1.9
	l-1.5,0.1l-1-0.5l-1.8-1.6l-1.7-1.8l-1.4-0.4l-0.2-0.8l-0.7-1l-1.6-0.5l-1.2-1.8l-0.3-1.3l-0.1-1.9l-3.5-3.3l-0.9,1.1l-1.4,1.1
	l0.3,1.9l-0.5,1.4l-1.3,0.1l-1.9-0.5l-0.4-1.1l-0.5-1l-1.1-1.3l-0.7-1.4l-2.1-1l-1.5-0.1l-1.2-0.6l-0.9,0.8l-0.3,0.9l-0.5,2.3
	l-0.1,1.2l0.1,1.1l-0.4,0.9l-1,0.6l-2.3,0.5l-2.1-0.1l-1.1,0.3l-1-0.1l-0.5-0.5l-0.5-2.1l-4-3.3l-1.2,0.6l-0.9-0.2l-1.7-1.3
	l-0.9-0.1l-2.3-2.4l-2-4.2l-0.3-1l0.8-1.1l-0.1-1.1l0.4-1.1l-0.6-1.4l-0.1-1.5l0.1-1.2l-0.3-1l-0.6-0.7l-1.2-4.4l-0.9,0.3l-0.3-0.7
	l0.2-1.1l-0.8-1.7l-0.7-0.9l-2-1.4l-0.6-1.3l-1.9,0.1l-2-2.1h-0.6l-0.3-1.6l-0.9-1.8l-2.3-1.2l-1.6-1.8l-1.8-1.4l-0.8-0.3l-0.9,0.2
	l-1.4,0.6l-2.3-2.1l-2.5-1.6l-0.6-0.8l-0.8-2.2l-2.9-0.8l-4.4-2.4l-1.2-0.5l-3,1.8l-3.5,1.4l-1.1,0.9l-2.8,0.3l-3.7,0.3l0.7-0.9
	l0.4-2.1l-0.1-0.8l-0.4-1.2l-1.8,0.1l-0.3-1.3l-0.4-0.7l-1.2-1l-2.3,1.2l-2.6,1l-3.4,1l-2.1,1.1l-1.3,0.3l-0.9-0.3l-1.8,1.6
	l-1.9-0.3l-1.7,0.7h-1.7l-0.2-1.6l0.4-3.7l-0.9-0.1l-1,0.5l-1.2,0.9l-1.9,1l-1.3-0.3l-1.3-0.8l1-2.2v-1.7l-1.5-1.5l-1.7-0.1
	l-1.7,0.8l0.7-2l0.8-1.6l1.5-1.7l0.2-1.7l-1.4-0.7l-1.4,0.2l-2.1,0.6l-3.1,1.5l-1.1-0.8l-0.6-1.2l-0.4-1.7l0.6-1.7l1.1-1.6l0.4-1.7
	l0.9-2l1.1-1.4l0.7-1.8l0.6-0.7l-1.7-0.4l-0.5-1.3l0.3-1.1l-1.4-0.5l-1.7,0.3l-1.5,0.8L315,192l-1.7-1.1l-0.4-1.9l-1.2,0.2l-1.3,0.7
	l-1.1,0.3l-1.3-0.1l-1.2-0.7l-0.6-1.7l-2-2.1l-1.7,0.4l-0.9,0.9l-1.8-2.7l-0.8,0.2l-1.3-0.1l-1.3-0.6l-1.5,1.4l-1.2,0.7l-1.8,3.4
	l-1.4-1.3l-1.2-0.7l1.1-2l0.5-1.7l0.2-2l-0.8-0.9l-3,0.7l-1.7,0.1l-2.1-0.6l-3.6-2l-1.9,1.1l-1.7,0.4l-0.9-1.1l-0.1-1.9l0.8-3
	l0.5-1.2l-2.9-0.4l-1.3-0.4l-0.8-1l-0.2-1.7v-2l-1.3-1.3l-0.6-2.9l-3.3-1.7l-4.7-2.1l-2.1,0.6l-1.5-0.5l-1.5-2l-1-0.3l-2.3,0.5
	l-2.2,0.7l-5.2,2.3l-2.3-0.5l-1.7-1.1l0.6-3.6l-1.2-0.4l-0.7-0.5l-1-1.2l-0.8-1.3l0.5-0.8l0.3-1.8l-0.3-1.8l-0.7-1.5l-1.4-1.8
	l-2.6-2v-2.5l-3.5-9.1l0.4-2.4l-0.3-2l-1.8-1.1l-0.1-3.2l0.4-2.4l1-0.4l1.9-0.4l1.1-1.4l1.1-1.9l1-1.2l1.5-1l2.8-1.4l1.9-0.6
	l2.2,0.4l0.3,1.4l1.5,5.1l1.2,1.2l-0.2,2.1l0.6,1.8l7.4,0.5l2.6-0.9l1.7-1.2l1.9-0.3l1.4-1.1l1.5-1.7l2.4-1.1l2.9-2.4l2.3-2.6
	l1.6-1.4l1,0.3l0.9,1.2l1.3,1.2l1.9,0.4l1.4-0.6l1.7-1.2l1.3,0.6l1.3,0.1l1.5-1.5l1.1-0.6l1-2.5l1.1-1.7l0.2-1.7l0.8-0.8l2.9-2.2
	l0.1-5.7l0.2-2.3l4.7-0.8l3.4-0.9l0.4-1l0.5-0.6l1-0.3l0.7-2l2.6-3.7l-1.1-0.2l-1.1,0.1v-1.7l-0.6-3.1l0.6-0.9l1.3-1l-0.3-0.5
	l-1-0.6l-1.1-0.3l-0.2-1.6l0.2-0.4l-0.3-1.8l0.5-1.2l-1.3-0.8l-1.2-0.1l-1.1-1.8l0.2-2.8L299,66l0.2-1.4l-1.8-2.2l-0.4-2.6l-1.2-2.8
	l-0.3-1.9l0.3-1.7l-0.3-1.8l0.4-2.4l0.6-2.1l-0.1-1.5l0.9-1.2l0.4-1.2l0.2-2.4l-0.1-2.1l-0.7-1.4l0.4-1l0.2-4.9l0.1-1.4l0.7-1.9
	l1.4-1.1l0.6-1.7l0.9-1.4l1-2.4l0.7-1.2l0.5-3.7l-0.9-0.9l-0.4-1.1v-0.5l0.3-0.3l0.6-0.6l0.7-0.3l2.7-0.3l1.3,0.5l2.1,3.1l1.1,1.1
	l0.7,0.1l0.4-1.5l0.1-0.5l0.9-0.8l0.6-0.3h0.9l0.3,0.1l0.7,0.3l0.2,0.1l0.1,0.9l-1,1.3l-1,1.5l-0.9,2.1l-0.4,1.8l1.1,0.8l0.3,1.6
	l-2.8,2.9l0.6,2.2l-0.3,0.6l-0.9,1.1l-0.4,1.1l0.2,0.9l0.5,0.8l-0.1,1.1l0.4,1.4l1.1,1.8l1,0.6l0.4,1l1.1,0.2l1.1,0.9l-0.2,1.5
	l1.7,1.3l-0.6,1.4l0.9,1.3l1,0.7l1.5,0.2l1.5-1.2l1.5-0.9l1.6,1.5v1.7l1.4,2.4l1.8,0.6l0.1,0.9l-0.8,1.7v0.9l1,1.2l0.1,1.2l0.6,1.7
	l1.9,3.4l0.6,1.5l0.2,1.3l0.5,1.3l1.2,1.2l1.6,0.1l2.9,2.5l1.6,0.4l1,0.7l0.3,1l0.5,0.7L344,75l1.1,1.4l0.8,0.8l0.5,0.1l0.8,0.7
	l2.4-0.9l1.6,0.4l0.8-1.3l2-0.7l3.2,2.2l1.1,1.2l1.4,0.1l1.1,2.3l0.6,0.7l1.7-0.1l2.4-1l1.1-2.4l1.7,0.8L370,80l1.4-0.3l1.6,0.8
	l-0.1,1.5l-0.3,1.2l0.2,1.2v0.9l0.2,0.8l1.8,0.3v3.4l0.5,0.3V91l-0.3,0.9l0.7,3.5l-0.8,1.5l2.1,0.2l0.6-0.7l0.2-1.2l0.4-1l0.5-0.7
	l1.3-0.8l1.5,3.9l1.3,1.3l2.9,0.9l2.5,2.2l1.9,0.4l0.2,2.2l-0.3,0.7l-0.6,0.3l0.1,0.7l0.6,0.8l1.6,1.2l0.3,0.8l0.2,0.9l1.6,0.1
	l2-2.8l2.2,2.5l0.8,1.6l1.3,1l1.4,0.7l1.7-0.3h1.3l1.4,1.9l-0.3,2.1l1,2l0.8,0.4l0.2,1.4l1.2,0.6l1.5,0.2l0.8-0.4l1.5-0.2l1.5-1
	l0.6-3.2l0.4-1.1l0.2-1l-0.5-1.2l-0.2-1.2l0.2-0.8l0.6-1l1.5-1l1.5-3.3l1.5-1.2l1.5-0.4l0.4,0.1l0.3,0.8l0.7,0.6l1.3,0.8l1.4-0.2
	l1.5-1.1l1,1.9l0.2,1.3l0.7,1.1l2.3,1h1.3l3.3-4.2l2.1-1.9l1.8,1.2l2.2-0.4l0.9-0.6l1.5-0.5l0.7-0.6l0.7-0.6l1.5-2.5l1.7-2.3
	l0.9-0.4l0.8,0.1l2.9-2.1l1.9-2.5l0.2-0.7l0.1-1.2l0.4-1.1l0.5,1l1.3-0.4l2.3-0.2h0.8l0.4,0.2l0.8-0.6l1.1-0.1l2.8-2.9L467,86
	l1.2-0.1l0.6-0.3l0.6-1.6l0.7-0.7l0.6-1.7l0.4-2.5l1-0.1l1.3,1.4l0.3,0.7l2.1-0.4l0.8,0.4l0.3,1.1l0.6,1.1l0.7,0.7l0.9-0.3l0.8-1.1
	l2,1.8l0.8,1.7l1.3,1.8l0.4,0.6l0.5,0.1l1.1,0.3l0.4,0.9l0.1,0.4v0.3l0.6,0.8l1.6,2.1l3.4,2.9l0.7,1.4l1.6,1.1l0.4,1.8l-1,1.6
	l-2.6,0.2l-1.3,2.6l-0.8,3.8l1.2,1.6l1.5,0.9l0.9,0.1l1.3,1.1l0.8,0.1l1.3,0.8l1.7,2.4h1.1l0.8-0.6l1.2-0.3l1.2,1.2l3,1.6l0.9,0.8
	l0.4,1l1.2,1.2l0.5,1.2l0.1,1.2l0.8,1.5l-0.4,2.5l1,1l0.7,1.5l0.9,1.1h1.2l0.6,0.2l1.6-0.2l0.7,0.6l1,0.2l0.6,1.2l0.5,0.3l0.3,0.8
	l0.2,1.4l-0.1,1.2l-0.5,1.8v0.7l-0.5,1.3l0.7,0.7l0.5,0.7l-1.2,1.2l-0.5,1.1l-0.2,1.2l-0.4,1l-0.1,2.2l-0.6,1.3l0.2,1.3l1.4,1.2
	l1.7,2.1l1.1,3.1l0.2,1l0.9,1.6l1.2,2l1.4,1.3l1.1,0.6l0.5,1.4l-0.2,2.2l1,1.3l0.5,1.7l1,1.4l1.3,2.9l0.3,1.1l1.1,1.3l0.8-0.4
	l5.6,0.3l1.9-0.4l1.5-0.8l1.1-1.8v-1.5l-0.9-1.4l-0.4-1.2l-0.4-3.1l0.1-1.3l0.2-0.5l1.9,1.7l2.8,1.1l1.2,0.1l0.4-0.3l1-4.6l1.1-2.1
	l1.8-1.7l0.9-0.6l1.1,0.5l1.4,2.5l1.7,1.8h1l1-1.7l0.7-2.7l1-2.5l1.6-1.5l1.5-0.6h1.1l2.2,0.5l1.7,1.7l0.8,1.6l2-0.9l1.2,0.5l2.1-1
	l2.2-1.6l1.5-2l0.6-2.7l4.2-2h2.5l2.2-0.9l2-1.5l0.5-1.7l-0.1-1.3l-0.6-1.7l-1.3-1.5l4.9-2.7l5.7-3.6l3.6,0.1l1.3,0.3l0.3,0.4
	l-0.4,3.5l0.1,3l0.7,2.7l0.5,0.8l-1.9,4.9l-0.7,3.4l-0.1,3.3l1.4,8.3l0.9,2.1l2.4,1.6l-2.2,2.1l-6.7,5.4l-1.6,2l-2.5,1.1l-2.9,0.4
	l-1.1,0.3l0.5,11.9l-0.8,1.7l-3.1,3.6l5.1,7.4l0.8,0.4l8.5-9.1l3.8-3.3l1.1-0.9l2.2,0.3l0.7,0.4l0.2,0.2l0.2,0.7l0.2,1.4l0.7,0.8
	v0.2l0.7,0.4v0.2l0.3,0.1l0.8,0.2h0.3l1.7-0.2l1.1,0.4l0.7,0.6l0.1,0.2l0.4,0.4l0.3,0.5l0.1,0.7l0.5,0.3l0.3,0.3l0.5,1.4l0.2,0.6
	v0.2l-0.1,0.5l-0.1,0.2l-0.4,1.1l-0.5,0.6l-0.3,0.4l-0.1,0.2l-0.7,1.4l-0.3,1.2l-0.1,0.9l0.2,0.8l0.1,0.1v0.3l0.2,0.2v0.2l0.6,0.4
	l0.3,0.1l0.5,0.2l1.6,0.7l1.3,0.6l0.8,0.7l0.1,0.5l0.1,0.1h0.1v0.1l0.1,0.1l0.4,1.2l0,0h0.1l0.1,0.1l0.2,1l0.1,0.1l0.2,0.3v0.2
	l0.3,0.3v0.4l0.2,0.2v0.2l1,0.2l0.7-0.1l2.8-0.2l1.6,0.6l0.5,0.4l0.8,0.8l-0.3,1.3l-0.1,0.2l-2.2,2.4l-0.2,0.3l-0.3,0.3l-0.1,0.1
	l-0.8,1.2l-0.3,1.1l-0.4,3.3l-0.4,1l-1.2,1.4l-0.2,0.2l-0.2,0.2l-1,0.7l-1.7,1.2l-0.6,1.2l-0.1,0.2l-0.2,0.7l-0.3,1.6l-0.1,1.4
	l0.1,0.1l0.6,4l0.1,2.1l0.3,5l-0.2,1.9l-0.3,1.5l-0.3,0.4l-0.7,1.3l-0.1,0.4l-0.4,0.3l-0.5,0.9l-0.2,0.1l-0.4,0.4l-0.1,0.1l-0.4,0.8
	l-0.2,0.3l-0.3,0.3l-0.1,0.1l-0.6,0.9l-0.1,0.1l-0.3,0.8v0.4l1.4,0.2h0.2l2.1,0.1l0.2,0.1l0.7-0.2l2.5,0.5l1,0.2l3.5-0.6l0.8-0.5
	l1.5-0.4l1.2-0.2h0.1l0.6-0.1l2.2,0.2h0.7l0.7,0.3l3.5,2.8l2.2,1.5l3.5,3.1l0.1,0.2l0.2,0.2l0.1,0.1v0.2v1.1l-0.7,1.9l-0.1,1.6
	l0.1,0.1l0.5,2.2l-0.1,1.5l-0.3,0.6l-0.5,1.5l-0.1,0.6l-0.6,0.6l-0.2,0.1l-1.1,0.7v0.1h-0.1l-0.5,0.9v0.7l0.1,0.2h0.2l0.1,0.3
	l0.6,0.5l1.6,1.7l0.1,0.3l0.1,0.1l0.1,0.8l0.2,0.3l0.2,0.3l0.3,1.1l0.1,0.9l0.3,2.1l0.1,0.1v0.2l0.4,0.3v0.1l1.2,0.7l0.7-0.1
	l1.1,0.5l0.1-0.1h0.1l2.1,0.3l2,0.7l1.5,1.2l0.1,0.2l0.1,0.3l0.1,1.6l0.3,1.3l-0.5-0.1l-0.4,0.8l-0.1,1.4l-0.5,1.6l-1.1,1l-1.7,0.9
	l-1.7,0.4l-1.7,0.2l-1.6,1l-2.1,1.8h-0.8l-0.7-1.4l-1.8-0.6l-3.6-0.3l-1.6,0.2l-2.3-0.4l-0.9-0.3l-3.4,1.3l-1.6,1.2l-1.9,0.8
	l-2.7,0.7l-0.7,0.9l-0.5,0.3l-0.2-0.5l-0.1-1l-1.2,0.1l-1-0.2l-1.8-1.1l-1-0.4l-1.2-0.1l-0.9,0.6l-0.6,1.4l-0.6,0.9l-0.5,2.3
	l-0.9,2.1l-0.7,2.3l0.1,2.6l-0.9,1.2l-0.3,1.2l-0.1,1.6l2.4,2.5l0.5,1.7l1.5,0.5l1,0.7l2,2.1l-0.3,1.2l-0.8,1.1l0.7,1.9l-0.3,0.6
	l-0.7,0.4l-1,0.2l-1.2-0.3l-1.4,0.5l-1-0.6l-1.2,0.3l-2.5-3.2l-1.3-1l-2.2-0.3l-3.4-1l-1.7,3.1l-1.4,1.7l-1.2,0.4l-0.8,1.3l-0.7-0.5
	l-5.1-0.5l-1.4,0.8l-0.3,2l-3-1l-2.5-1.3l-2.6,0.4l-6.9,0.3l-1.5-0.4l-1.9,0.5l-1.1,1.2l-0.2,1.3l-0.6,0.8l-1.4,0.8l0.4,2.1v0.9
	l-0.5,1.4l0.4,1l-0.5,1.5l0.9,2.5l0.2,1.4l-2.3,1.5l-0.6,0.8l-2.1,0.2l-1.6-0.4l-0.7-1l-2,0.2l-1-0.2h-1.6l-2.2,1.6l-1.2,0.6
	l-1.9-0.2l-1.1,0.2l0.8,1.3L546,358l-0.5,1.4l1.9,1.8l0.2,1.2l-0.7,0.8l0.5,1.7l-0.8,2l-0.9,1.4l-0.1,2.1l-0.5,1.7l0.2,0.8l-0.1,0.8
	L543.8,374.4z"/>
<path id="D027" class="st0" d="M416.6,478.6l-0.2,0.7l-1.3-0.2l-1.2,0.1l-1.4,0.6l-1.2,1.1l-0.9,1.6l-2.1,5.7l-0.4,4.3l-0.4,1.7
	l-1,1.1l-1.2,0.2l-1.3,2.4l-0.8,0.5l-1.5,2.4l-0.7,0.4l-2.2,0.5l-1.3,0.5l-0.9-0.5l-0.4-1.4l-1-0.5l-0.7,1.3l-2.2,1.9l-0.6,1.3
	l-0.7,0.9l-0.4-0.5l-1.1-0.6l-2.6-0.5l-1.2,0.3l-1.6,2.6l-1.2,1.2l-1.5,0.1l-0.4-1.6l-0.8-1.1l-2,2.7L376,510l-1,0.8l-1.3,0.1
	l-1.4-0.3l-1.4,0.7l-1.2-0.1l-1-0.6l-0.4-1l0.2-1.3l-0.2-1l-0.6-0.6l-1.9,0.7l-1-0.8l-2,0.8l-2.2-0.8l-1.8-2.1l-1.9-1.3l-0.5-0.4
	l-3.8-1.8l-1.5-1l-2.6-3.3l-2.7-2.3l-0.6-0.5l-4-2.8l-1.9-2.9l-2.2-1.8l-2.3-1.1l0.4-1.2l-0.6-2.1l-1.8-2.5l-2.2-2.2l-2.2,1L327,478
	l-1.9,0.6l-1.2,0.9l-1.7,1l-0.4-1.6l0.3-1.6l-0.9-1.8l-1-1.6l0.8-0.9l1.4-0.2l1.3-0.7l-0.1-3.2l-0.4-2.6l-2-0.3h-2l-2.5-0.8
	l-2.2-1.4l-1.1,0.3l-0.7,0.6l-1.5-0.5l-0.8-0.8l-1.5,0.3l-0.2-1l0.5-1.5l-0.4-1.8l-1.2-1.3l0.3-1.5l0.9,0.1l-0.1-1.3l-0.7-1.9
	l-0.1-2.8l-1.1-0.8l-1.2-1.2l0.6-2.6l-0.5-1.8l-0.2-0.3l-2.4-3.3l-1-1l-0.7,0.2l-3,0.1l-1.2,0.2l-1.5-0.5l0.7-0.6l0.5-0.7l-0.9-1.9
	l0.3-1.7l-1.1-1.7l-0.2-2.2l1.1-1.8l-1.2-0.3l0.5-2.3v-2.3l-0.3-0.8l-0.2-1.9l-0.9-3.4l-1.4-3.5l-0.1-2.4l1.5-6.6l0.7-1.8l-1.8-1.7
	l-4.5-2.5l-0.4-2.8v-1l-0.9-1l0.3-1.8l-2.3-1.5l-0.7-1.7l0.3-2.5l-1.4-1.6l-1.6-0.3l-1.4-0.5L280,385l-2.1-1.8l-1.3-4.7l-0.8-1.7
	l-0.8-3.6l1.1-6.5l0.2-2.2l-0.2-2.4l0.1-1.9l1.1-2.1l0.4-4.3l0.8-1.5l1.6,0.6l1.9,0.3l1.7-0.6l1.7-0.1l-0.1-1.4l-0.4-1.6V349v-1.6
	l0.7-0.9l-0.3-1.6l0.1-0.8l0.9-0.7l0.8-2.7v-1.1l0.3-1l1-0.5l-0.5-2.7l-0.2-1l-0.1-1.8l-1-1.6l0.4-1.4l-0.4-2.5l-0.8-2.5l-2.1-3.4
	l-0.8-2.8l-0.4-4.6l2.3-2.6l0.2-1l0.6-0.7l1.6-0.9l2.7,0.7l0.6,1l0.1,1.4l1.4,1.1l1.7,0.6h1.2l0.1,0.8l1.4-0.2l1.1-1.8l3.2-3.9
	l1.6-2.9l1.2-0.9l1.1,0.5l0.8-1.6l1-0.3l1.6,0.3l0.5,1.9l2.1,1.9l2.1,2.4l2.4,1.3l0.6,0.6l1.1-0.8l0.6-0.9l1.3-0.6l1.7-0.2l3.5-1.6
	l2.9-0.5l2.2-0.2l1.4,0.5l1.4-0.2l1.8-0.8l0.6,1.3l0.2,3.1l2.8,2.8l0.9,1.3l2.4,1l0.8,3l0.1,2.8l-0.2,1.9l-0.5,2.1l2.1,4.5l1.8,2.7
	l0.7,2l2.6,3.9l1.3,2.2l0.5,2.3l0.1,2.7l0.5,1.7l4.5,7.7l0.3,1.1l0.8,0.4l-0.7,3l0.3,1.3v0.9l1.9-0.2l1.7,0.6l0.8,0.9l2.3-1.8
	l1.8-0.4l3,0.2l8.5-0.1l1-0.5l1.4-0.4l-0.3,2.4l-0.5,1.4l2.1,1.2l0.6,1.7l-0.3,1.6l1.4,2.7l-0.3,1.6l0.8,1.5l-0.1,1.4l1.4,2.4
	l0.4,1.1l0.6,2.4v1.5l0.3,1.9v2.5l0.8,2.5l1.4-0.9l0.2,0.3l0.2,0.3l2,0.9l1.5,1.5l2.2,0.6l2.9,2.2l2,2.7l3.9,7l-1.3,2.1l1.3,7.8
	l0.2,2.7l-0.5,2.9l-0.5,1.5l0.8,3.2l-0.2,3.5l-0.5,2l0.8,2.7l1.4,2.1l1.1,2l-0.6,1.3l0.2,4.2l0.8,2.4l0.3,3.7l0.5,2.9l0.9,3.1
	l1.1,2.2l1.3,0.8l2.6,3.2l1,1l1.3,1.2l1,0.6l0.8,0.8l0.6,1.5l0.2,1.3l-0.4,1.2l0.2,0.8l-0.2,1.2l1.1,1.2l-0.2,0.7l0.6,0.7l-0.3,1.7
	l0.3,1.2L416.6,478.6z"/>
<path id="D033" class="st0" d="M442.2,621l-1.8-1.3l-1.1-0.3l-1.4-0.9l-1.5-0.4l0.6-1.4l-0.5-1v-1.6l-0.2-0.9l-0.4-0.6l-0.2-2.2
	l0.1-2.5l0.5-1.3l-1-1l-0.4-1.1l-1.5-3.8l-1.3,0.3l-1-0.2l-0.8-0.4l-1.7,0.8l-1.6-1.8l-2-0.6l0.7-1.6l0.2-2.1l-0.4-1.6l-0.7-1
	l-0.7-0.7l-0.2-1.7l-0.2-1.3l-0.7-0.7l-0.6-1.1l-1.1-1l-0.2-0.4l3.4-1.8l1.1-1l1.3-1.8l-0.1-1.2v-1.5l0.1-1.7v-1.2l-0.3-2.1L425,571
	l-1-0.6l-0.8-0.8l-0.2-0.5l-0.7-0.6l-0.3-0.8l-1.2-0.4l-0.1-0.2l-0.9-0.9l-1.9-1.8l-3.8-2.5l-0.1,1.3l-1.8,1.8l-4.8,2.2l-0.6,1.3
	l-0.6,1.6l-0.5,0.6l-0.5,0.7l-0.2,1l-0.6,1h-0.7l-0.7,1l-0.8,0.6l-1.3,0.2l-0.2,1v1.8l-1,1.3h-1.4l-1.2,0.6l-1.2,1.1l-1.6,0.9
	l-0.5,0.9l-0.3,2.1l-1.2,1.6l-1.5,0.8l-0.2-1.6l-0.3-1.2l-0.5-1.1v-1.2l1.3-0.7l0.9-1.3l-1-1.1l-1-0.8l-1.2-1.1l-2.8-1.4h-1.3
	l-1.1-0.2l-0.7-0.7l-0.1-1.1l0.5-0.7l0.5-1.2l0.3-1.2l-0.2-1.1l-0.9-1.1l-1-1l-0.3-0.3l-2-2.1l-1-0.1l-0.3,0.3l-0.4,0.1l-1.2,0.7
	l-4.1-0.9l-0.8-3l-2.8-2.1l-1.7-0.7l-1.3,0.4l-1.4-0.2l-2.4-1.6l-1.1-1.3L360,556l-1.3-0.4l-1.1-0.8l0.6-1l1.8-0.4l0.2-1.4l0.9-0.9
	l-1.3-3.4l-0.3-1.4l-0.9-0.5l-0.6,0.4l-1-0.7l-1.1-0.4l-1.3,1.2l-1,1.3l-0.6,1.9l-0.8,1l-0.8-2.8l-1.3-0.5l-0.4-1.4l0.1-1.1l1.8-0.8
	l0.9-1.1l1.6-0.2l1.1-0.9l-0.8-1.6l-1-1.4l-1.3,0.3h-1.7l-0.5,1.1l-0.4,0.2h-1.6l-3.2,0.9l-1.3-1.6v-0.7v-0.5l0.6-0.2l0.8,0.6
	l1.1,0.1l0.6-0.3l0.4-0.6l-0.1-3l0.3-1.6l3.3-3.8l0.6-1.6l-1.5-2.4l-2.4-1.5l-1.3-1.5l-0.3-1.7l-0.1-1.8l0.3-1.9l0.9-1.7l1.8-2.1
	l-1.1-2l-0.2-1.9l-1.5-0.8l1.3-6.3l0.6-2.2l-0.2-1.8l-2-4.7l2.7,2.3l2.6,3.3l1.5,1l3.8,1.8l0.5,0.4l1.9,1.3l1.8,2.1l2.2,0.8l2-0.8
	l1,0.8l1.9-0.7l0.6,0.6l0.2,1l-0.2,1.3l0.4,1l1,0.6l1.2,0.1l1.4-0.7l1.4,0.3l1.3-0.1l1-0.8l2.2-2.6l2-2.7l0.8,1.1l0.4,1.6l1.5-0.1
	l1.2-1.2l1.6-2.6l1.2-0.3l2.6,0.5l1.1,0.6l0.4,0.5l0.7-0.9l0.6-1.3l2.2-1.9l0.7-1.3l1,0.5l0.4,1.4l0.9,0.5l1.3-0.5l2.2-0.5l0.7-0.4
	l1.5-2.4l0.8-0.5l1.3-2.4l1.2-0.2l1-1.1l0.4-1.7l0.4-4.3l2.1-5.7l0.9-1.6l1.2-1.1l1.4-0.6l1.2-0.1l1.3,0.2l0.2-0.7l1,0.4l0.9,0.1
	l1-0.7l0.8,1.3l2.3,2.6l1-0.1l1,1.3l1.2-0.7l2,0.3l1.4-1.1l4-0.6l0.5-0.7l3.6-0.8l1.7,0.2l2,1h1.4l1.1-0.5l1.5-3.8l1.5-3.3l1.2-1.1
	l1.7-0.5l1.5,0.5l3.7-2.2l1.7-0.1l1.8,0.6l1.7,1.3l1.9-0.6l0.7-1.6l-1.5-4l-0.6-2.4l0.4-3.8l0.6-1.7l0.7-1l1.6-1l2.5-1l1.6-0.3
	l1.5-0.8l1-1.6l0.9-2.1l1.3-2.1l2.3-2.2l1-0.3l0.4-1.4l-1.1-1.6l-0.4-2.4l0.6-2.7l-1-3l-1.5-0.7l-1.3-1.2l-0.8-2.5l-1.1-0.4
	l-1.8-2.7l-1.6-1.5l-0.7-3.4l0.1-0.9l-0.2-1.7l0.1-1.8l0.5-2.9l0.4-1.1l1.1-0.5l0.7-0.8l-2.1-4l-0.5-0.4l-0.2-1.2l0.2-0.7l0.7-1.2
	l1.3-1.3l0.5-2.2l1.5-1l1.8-3.9l1.1-1.1l1.6-0.2l2.7,0.4l1.2-0.3l3.5-2.6l1.5-0.1l1.5,0.3l0.8,1.5l1.5,0.8l1.5,0.2l2.1,2.2l1.1,1.9
	l0.7,2l0.3,1.2l1.7,1.1l1.5,1.5l0.7,1.4l0.8,3.5l0.9,1.3l-0.2,1.4l-1.5,3.8l-0.2,1.5l1.1,1.5l2.8,4.7l0.7,1.5l-0.7,4.1l0.2,2.2
	l0.8,2l0.5,2.1l0.3,2.4l-0.2,1.6l-0.6,1.9v1.5l1.9-0.4l0.9,0.6l0.6-1.4l0.7,1l1.1,0.9l0.4,1.5l1.5,1.5l0.6,1.1l0.1,1.6l-0.6,2.4
	l1.6,1.3l1.2,1.3l0.6,0.9l0.8,3.4l1.1,0.6l0.6,1.1l0.8,0.7l1,0.3l1.1,1.8l0.8,0.5l2.2-0.3l0.8,0.3l2.2,1.9l0.6,2.9l2.4,0.2l3.5-0.8
	l0.8,0.5l1.6,0.1l1-0.2l1.9,0.6l0.8-0.3l0.7-0.6l2.7-2.5l1.3-0.9l2.7,0.8l0.8-0.5l1.1,0.1l1.2-1l0.5-0.2l1,0.4l1.8,0.2l0.2,1
	l1.1,1.6l1.2,0.1l1.8,0.8l0.6,0.6l1.1,1.7l1,0.5l1.1,1.7l1.2-0.8l1.2,0.8l0.7,0.9l0.5,1.4l-2.4,4.5l1.2,2.6l0.8,1.2l1.3,0.1l1.6,1.9
	l1.1-0.1l3.1,1.8l1.1,0.1l1.1,0.8l1-0.1l1-0.6l0.6-0.8l1.2-0.7l1.1-1.6l0.7-0.3l0.5,0.3l0.4,1l0.7,0.6l0.5,1l0.8,0.6l2.7,0.8
	l3.2,0.2l1.8,2.1l-0.8,1.4l0.1,1.3l-0.4,1.2v1.6l2.1,1.7l1.2,0.6l-0.3,0.9l-0.2,2.9l-0.4,1.7l-0.9,0.5l-1.9-0.6l-1.7-1.2l-2,2.7
	l-0.6,0.9l-0.3,0.9l-0.6,0.6l-0.3,1l-1,0.8l-0.9-0.1v1l-0.9,1.2l-2.6-0.9h-1.2l-1,0.3l-0.5,0.8l-0.7,2.1l-1.4,0.7l-1,0.2l-0.5-0.3
	l-1.6-1.7l-0.9-0.4l-1,0.2l-0.5-0.1l-0.5-0.1l-0.9,0.4l-0.4-0.1l-1-0.2l-0.4,1.2l-0.4,0.7l-1.2,0.4l-0.4,1.6l-2.9,0.5l-1,1.9
	l-0.7,0.1l-0.5,0.8l-1.1,0.7l-1.6,1.7l-0.9,0.5h-1.4l-0.8-0.5h-0.8l-2.2,0.1l-1-0.1l-2.6,1.3l-0.2,0.1l-1.6,0.5l-0.6,1.3l-2,2.1
	l-0.2,1.3l0.2,1.9l-0.4,0.9l-1.2-0.5l-2.8-2.5l-1.4-0.2l-1.2,0.4l-1.8,0.3l-2.7-3.4l-1.6,0.6l-0.9,1.2l-0.4,1h-0.9L517,530l-1,0.3
	l-1.3-0.8l-1.7,0.4l-1,0.6l0.4,1.4l-0.7,1.5l-1,1.4l-0.2,1.4l-0.1,1.7l-1.1,0.4l-2.8,1.7l-1.2,1.3L505,543v2.2l-1.4,3.4l-1,0.9
	l-1.2,0.1l-1.2,0.6l-1,2.3l-0.9,1l-1,0.3v-0.4l-0.5-0.2l-1.2,0.1l0.8,0.8v1.2l1,2.6l0.8,2.4l0.7,0.4l0.5,0.6l-0.1,2.2l-0.4,1.3
	l0.7,1l0.5,0.9l-0.1,0.7h-2.7v0.8l0.6,0.8l-0.5,0.9l-0.6,0.4l-0.2,1.4v0.7v0.4l-0.2,0.5l-0.4,0.5l-0.8,0.9l-0.3,0.8l0.1,0.5l0.2,0.5
	l0.8,1l0.6,0.6l1.6-0.4l0.6,0.1l0.5,0.5l0.1,0.8l-0.4,0.8l-0.8,0.2l-0.9-0.2l-1-0.3l-1.1-0.8l-1.7-1.8l-1.7-1.6l-1.4-0.8l-1.3-0.3
	h-1.8l-2.2,2.3l-1,1l-0.3,1l-0.2,2.5l0.3,1.4l0.1,0.5l0.2,0.6l0.5,0.7l0.8,0.4l0.5,0.3l0.2,1.3l-0.3,1.6l1.2,0.3l1.1,0.1l0.9,0.1
	l0.8-0.1l0.8-0.9l0.5-0.3l1.4-0.2h1.3h0.4h0.4l0.4,0.5l-0.1,0.8l0.4,0.9l0.6,1l-0.4,1l-0.8,1.3l-0.7,0.7l-0.8,1.1l-0.2,0.7l-0.2,1.2
	l-0.1,1.5l-0.1,0.9v1.6l0.7,1l0.3,0.8l0.1,1.6l-2-0.4l-0.9-0.3l-0.9-0.5l-0.7-0.5l-0.4-0.7l-0.2-1.7l-0.3-0.7L488,598l-0.7-0.5
	l-0.6-0.1l-0.6,0.1l-0.6,0.3l-0.5,0.7l-0.2,1v1.1l0.1,1.4l-0.4,1l-0.7,0.8l-0.4,0.7l-0.4,0.8l0.4,0.8l1.4,1.8l0.6,1l0.1,1.6
	l-0.7,0.5l-0.5,0.3l-0.6,0.5l-0.6,1.2l-0.8,1.2l-0.5,0.8l-0.9,0.7l-0.3,0.8l-0.2,1.4l-0.3,1.3l-1.2,2.4l-0.8,1.4l-1.1,1.4l-1.1,0.5
	l-0.8,0.7l-1.1-1l-1-1.2l-0.6-1.2l-0.3-1.2l-0.1-1.1l-0.7-0.8l-1.1-0.4l-0.8-1l-0.5-0.9l-0.7-0.5l-0.8,0.6l-0.2-0.8l-0.2-0.9
	l-0.6,0.6l-1-0.2l-2.3-0.6h-1.4l-0.9-0.2l-0.4,0.9l-0.1,0.6v0.9l-0.2,1l-0.7,0.9l-0.9,0.5l-1.8,1.9l-1.4,0.7l-1.4,0.5h-1.5l-1.5,0.1
	l-1.6-0.2h-1.6l-1.1,0.4l-0.6,0.3l-0.2-0.7l0.7-1.2l0.3-0.7l0.6-2.1l-0.1-0.9l-0.7-0.3l-1-0.1h-0.8l-1,0.1l-0.6,0.4l-0.3,0.8
	L442.2,621z"/>
<path id="D032" class="st0" d="M495.8,688.6l-0.3,0.4l-1,0.7l-1.1,0.6l-3.8,0.4l-0.8,1l-1.6,0.5l-1.4,1.1l-2,1.7l-1.4,1.2l-1.4,1.1
	l-1.9,0.1l-1.2,1l-1,1.2l-1.7,1.4l-1.5,1.3l-0.6,1.5l-3.2,0.7l-1.6-0.2l-1.2-0.7h-1.2l-0.4,0.7l-0.4,1.3l-0.4,1.1l-0.5,0.9h-2.6
	l-0.9-0.5l-1.5,0.2l-2.5,0.9l-1.7,0.9l-1.2,0.9l-1.2,1.2l-0.9,1.1l-0.1,1.7l0.2,1.4l0.9,1.4l0.9,1.4l0.6,0.8l-0.2,1.3l-1.8-0.1
	l-1.4-1.4l-1-0.7l-1.8-1l-0.8-1.2l-0.6-1.8l-1.2-1.1l-0.6-0.9l-1.4-3.4l-0.7-2.1l-0.8-2.3l-0.8,0.1l-0.8,1.2l-1.5,2.6l-0.3,2v1.9
	l-0.8,1.2l-0.8-0.6l-0.9,0.5l-1.8,0.4l-1.3,1.6l-1.5,0.1h-1.9l-1.5,0.2l-0.8-0.9l-2.6-0.2l-0.1-1.1l0.9-1l0.9-0.8l2.6-1.1l0.4-1.4
	l2.1-2.6l0.2-1.4l0.5-1.4L432,702l-1.1-1.7l-0.9-0.1l-1.9,3.6l-1.7,2.4l-1.7,1.8l-1.8,1.5l-1.3,2.3l-1-0.5l0.2-2.3l-0.5-0.9
	l-2.3-1.2l-0.3-1.7h-0.8l-1.2,0.1l-2.4,0.9l-0.6-1.6l-0.7-2.1l-0.7-1.1l-1.2-0.4l-1.2-0.2l-1.2,0.3l-0.7,0.3l-1,1.1l-1.1,1l-1.8-0.7
	l-1.3-0.6l-2.1-0.7l-1.5-0.5l-2-0.6l-0.3-1.1l-0.2-1.3l-0.8-1.3L394,696l-1.8-0.2l-1.6-0.5l-1.2-0.3l-1.5,0.6l-1.3,1l-1.7,0.4
	l-0.7-1l0.2-1.1l-0.1-2.5v-1.8l-0.7-1.3l-0.9-1.9l-1-1.6l-2-1.1l-0.9-0.6l-1.1-0.3l-2.2-0.7l-1.2-0.2l-1.5-0.2l-1.2-0.7l-1.6-1.7
	l-1.1-2.3l-0.5-1.2l-0.4-1.2l0.3-0.2l0.4-0.4l1-0.3l0.6-0.4l0.4-0.2l1.3-1.2l1.3-1.2l1.3-1.4l0.8-1l0.5-0.9l0.6-0.8l0.2-0.9v-1.1
	V664l0.2-4.4l0.5-1.8l-0.4-0.9l-0.8-1.4l-0.6-1.5v-1.1l0.5-2.3l-0.2-2.2l-0.6-1l-0.1-0.8l0.6-1l-0.3-0.4l-0.8-0.7l-1.3-1l-1.2-1.1
	l-1.6-1.2l-0.5-1.2l-0.9-1.4l-1.5-1.2l-1.2,0.6l-0.6-0.5l0.1-1l0.4-1.1l-0.3-0.4l-0.8-0.6l-0.9-0.4l-0.9-0.9l-1.7-1.2l-1.3-0.5
	l-1.5,0.2l-1-0.6l-1.5-0.5l-1.7-1.1l-0.8-0.6l-0.6,0.9v1.3l-0.4,0.7l-0.8,0.4l-1.1,0.3l-0.9-0.4l-0.7-0.9l-0.5-0.9l-0.3-0.7h0.5
	l0.6,0.3l0.9-0.1l0.3-0.7v-1.1l0.3-0.9l0.5-0.6l1.7-1.1l1.2-1.4l3.6-2.6l1.1-0.9l1-1.2l0.6-1.1l-0.1-2l0.4-1.6l0.4-1.4l0.1-1.4v-1.1
	l-0.1-1l0.9-0.4l0.9-0.5l0.8-0.1l0.6-0.4l0.4-0.5l0.3-0.8l1.2-1.1l0.7-2.2l1.2-0.2h1l0.7-0.4l1.1,0.2l0.7,0.3l0.6,0.1l0.5-1l0.9,0.1
	l0.3,1l1.1,1l0.7,0.9h0.9l1.1-0.3l0.6-0.9l-0.2-1.5l0.1-1.6h0.8l1.1-0.1l0.9-0.6l0.5-0.8l0.8-0.7l2.3-1.3l-1.6-3l1.6-1.9l0.1-1.5
	l0.4-0.4l0.7,0.4l0.6,0.5l0.6,0.1l0.7-0.3l0.6-0.3l0.3-1l0.8-1.9l1.1-1.2l1.5-0.8l1.2-1.6l0.3-2.1l0.5-0.9l1.6-0.9l1.2-1.1l1.2-0.6
	h1.4l1-1.3v-1.8l0.2-1l1.3-0.2l0.8-0.6l0.7-1h0.7l0.6-1l0.2-1l0.5-0.7l0.5-0.6l0.6-1.6l0.6-1.3l4.8-2.2l1.8-1.8l0.1-1.3l3.8,2.5
	l1.9,1.8l0.9,0.9l0.1,0.2l1.2,0.4l0.3,0.8l0.7,0.6l0.2,0.5l0.8,0.8l1,0.6l1.6,2.3l0.3,2.1v1.2l-0.1,1.7v1.5l0.1,1.2l-1.3,1.8l-1.1,1
	l-3.4,1.8l0.2,0.4l1.1,1l0.6,1.1l0.7,0.7l0.2,1.3l0.2,1.7l0.7,0.7l0.7,1l0.4,1.6l-0.2,2.1l-0.7,1.6l2,0.6l1.6,1.8l1.7-0.8l0.8,0.4
	l1,0.2l1.3-0.3l1.5,3.8l0.4,1.1l1,1l-0.5,1.3l-0.1,2.5l0.2,2.2l0.4,0.6l0.2,0.9v1.6l0.5,1l-0.6,1.4l1.5,0.4l1.4,0.9l1.1,0.3l1.8,1.3
	l0.7-2.4l0.3-0.8l0.6-0.4l1-0.1h0.8l1,0.1l0.7,0.3l0.1,0.9l-0.6,2.1l-0.3,0.7l-0.7,1.2l0.2,0.7l0.6-0.3l1.1-0.4h1.6l1.6,0.2l1.5-0.1
	h1.5l1.4-0.5l1.4-0.7l1.8-1.9l0.9-0.5l0.7-0.9l0.2-1v-0.9l0.1-0.6l0.4-0.9l0.9,0.2h1.4l2.3,0.6l1,0.2l0.6-0.6l0.2,0.9l0.2,0.8
	l0.8-0.6l0.7,0.5l0.5,0.9l0.8,1l1.1,0.4l0.7,0.8l0.1,1.1l0.3,1.2l0.6,1.2l1,1.2l1.1,1l0.6,2.1l0.3,0.6l-0.2,0.7l-0.2,0.9l0.2,0.7
	l0.4,0.5l0.7,0.3h0.6l0.7-0.2h0.5l0.4,0.3l0.4,0.5l0.2,0.6l0.5,0.3l0.4-0.1l0.5,0.2l0.3,0.5l0.1,0.7l-0.1,0.7l0.6,0.8l1,0.7l0.3,0.9
	l0.4,1l0.5,0.8l0.7,0.7l-0.1,0.9l-0.6,0.5l-0.2,0.8l-0.4,1v1v1.9l0.6,0.7l1.1,0.6l0.9,0.6l1.2,0.5l0.9,0.9l0.8,1l0.5,0.8l0.7,0.3
	l0.5-0.3l0.4-0.1h0.5l0.4,0.4l-0.8,1.3l-0.9,0.8l-0.4,0.9l0.7,1.6l0.5,0.9l0.1,0.9L491,659l-0.2,1l1,0.6l0.6,0.9l0.4,0.8l-0.6,0.4
	H491l-0.9-0.1l-1.1-0.3l-0.9-0.2l-0.2,1l0.3,2.8l-0.5,1l-0.9-0.2l-1.3-1.4l-0.8-0.2H484l-0.5,0.3L483,666l-0.1,0.8l-0.3,0.8l0.4,0.5
	l1.2,0.8l0.9,0.8l0.5,1.3l0.6,1.1l0.4,1.3l0.3,1.1l0.7,1.1l0.8,0.6l0.9-0.1l0.8,0.3l0.7,0.9l0.7,0.4l1.5-1l0.8,0.3l0.9-0.2l0.6-0.7
	l0.9,0.1l0.5,0.7l0.2,1.6v1.2l0.6,1.3l0.4,1.5l-0.3,1.2l-1,2.1l-0.2,1.1L496,688L495.8,688.6z"/>
<path id="D031" class="st0" d="M343.9,539.5v0.7l1.3,1.6l3.2-0.9h1.6l0.4-0.2l0.5-1.1h1.7l1.3-0.3l1,1.4l0.8,1.6l-1.1,0.9l-1.6,0.2
	l-0.9,1.1l-1.8,0.8l-0.1,1.1l0.4,1.4l1.3,0.5l0.8,2.8l0.8-1l0.6-1.9l1-1.3l1.3-1.2l1.1,0.4l1,0.7l0.6-0.4l0.9,0.5l0.3,1.4l1.3,3.4
	l-0.9,0.9l-0.2,1.4l-1.8,0.4l-0.6,1l1.1,0.8l1.3,0.4l1.2,0.7l1.1,1.3l2.4,1.6l1.4,0.2l1.3-0.4l1.7,0.7l2.8,2.1l0.8,3l4.1,0.9
	l1.2-0.7l0.4-0.1l0.3-0.3l1,0.1l2,2.1l0.3,0.3l1,1l0.9,1.1l0.2,1.1l-0.3,1.2l-0.5,1.2l-0.5,0.7l0.1,1.1l0.7,0.7l1.1,0.2h1.3l2.8,1.4
	l1.2,1.1l1,0.8l1,1.1l-0.9,1.3l-1.3,0.7v1.2l0.5,1.1l0.3,1.2l0.2,1.6l-1.1,1.2l-0.8,1.9l-0.3,1l-0.6,0.3l-0.7,0.3l-0.6-0.1l-0.6-0.5
	l-0.7-0.4l-0.4,0.4l-0.1,1.5l-1.6,1.9l1.6,3l-2.3,1.3l-0.8,0.7l-0.5,0.8l-0.9,0.6l-1.1,0.1H379l-0.1,1.6l0.2,1.5l-0.6,0.9l-1.1,0.3
	h-0.9l-0.7-0.9l-1.1-1l-0.3-1l-0.9-0.1l-0.5,1l-0.6-0.1l-0.7-0.3l-1.1-0.2l-0.7,0.4h-1l-1.2,0.2l-0.7,2.2l-1.2,1.1l-0.3,0.8
	l-0.4,0.5l-0.6,0.4l-0.8,0.1l-0.9,0.5l-0.9,0.4l0.1,1v1.1l-0.1,1.4l-0.4,1.4l-0.4,1.6l0.1,2l-0.6,1.1l-1,1.2l-1.1,0.9l-3.6,2.6
	l-1.2,1.4L352,627l-0.5,0.6l-0.3,0.9v1.1l-0.3,0.7l-0.9,0.1l-0.6-0.3h-0.5v-1.2l0.2-1.1l-0.3-1.1l-0.4-0.4l-0.7-0.3l-0.7-0.5
	l-0.7-0.6l-0.5-0.9l0.4-0.9l0.7-1.1l1-1l-0.1-1.2l0.1-0.9l-0.1-1.8l-0.2-1.2l-0.1-1.1l-0.4-0.6l-0.6-0.4l-0.8,0.8l-0.4,0.4l-0.3,0.7
	l-0.4,1.5l-0.7,1.4l-1.9-2.3l-1.3-0.3l-1.5-0.5l-1.1-2.9l-0.9-1.5l-1.7-0.7l-1.1-1.3l0.1-2.7l-0.2-1.6l-2-3.7l-1.6-5.3l-0.9-1.5
	l-2.9,2.2l-1.5,0.6l-1.7,1.9l-1.4,1.1l-1.7,0.7l-2.8-2l-2.7-2.3l-1.3-1.9l-1.1-2.7l0.8-3.6l-0.2-1.5l-0.6-0.8l-2.1,1.4l-5.3,4.5
	l-3-2.8l0.1-1.3l-1-0.2v-1.3h-0.9l-1-0.3l-2.3-2.3l-0.1-0.8l-0.2-2l-2.1-3.2h-1.4l-1.2-1.4l-0.4-0.7l-0.4-0.2l-4.8,0.6l-1-0.3
	l-1.8-2.6l-3.6-2.2l-1.4-0.4l-0.9-1.4l-1.6-0.9l-0.4-0.5l0.7-4.4l-1.6-2.8l-0.7-2.5l-0.5-2.5l2-1.8l-0.9-4.4l0.5-1.3l0.7-3.2
	l2.6-3.4l-0.4-1.9l-1.5-0.9l-1.5,0.5l-1.8-1.6l-1.5-0.4l0.9-2.2l0.9-3.6H273l-0.9-1.5l0.3-0.8l-0.4-1.1l0.6-1.9l-0.4-2.6l1.5-0.9
	l0.4-1.1l0.9-1.5l1.2-1.4l1.2-0.3l0.3-0.7l2.8-1.6l2.7-0.6l1.4-0.7l4.1-0.5l1.1-1l1.1-0.7l1.4-0.6l1.8-1l1.1-1l0.7-1.4l1,0.2
	l1.3,0.7l0.7,0.8l1.6,1.2l1.9,0.1l1.3,0.3l0.8,1.6l3.7-1.5l1.6-1l1,0.5l1-0.1l1.3,0.7l0.2-0.1l0.9-0.1l1.2-1.4l1.3,0.5l0.9,1.5
	l2,1.2l2.4,0.1l1.8-1.3l-1.7-2.8l-0.7-2.7h-0.6l0.9-2.6l0.8-1.3l1.1-0.2l1.4-0.8l1.2,0.3l0.5-0.8l-0.6-1.4l0.5-1.1l1.1-0.5l1-0.2
	l1.1-0.7l0.8-1.3l1.4-3.1l-1-0.1l-0.7-2.5l-1.2-0.7l-1.6,0.1l-1.7-0.8l-2.7-2l-0.8-1l1.1-2.2l-0.8-1.4l-0.3-0.9v-1v-0.2l1.7-1
	l1.2-0.9l1.9-0.6l1.4,0.4l2.2-1l2.2,2.2l1.8,2.5l0.6,2.1l-0.4,1.2l2.3,1.1l2.2,1.8l1.9,2.9l4,2.8l0.6,0.5l2,4.7l0.2,1.8l-0.6,2.2
	l-1.3,6.3l1.5,0.8l0.2,1.9l1.1,2l-1.8,2.1l-0.9,1.7l-0.3,1.9l0.1,1.8l0.3,1.7l1.3,1.5l2.4,1.5l1.5,2.4l-0.6,1.6l-3.3,3.8l-0.3,1.6
	l0.1,3l-0.4,0.6l-0.6,0.3l-1.1-0.1l-0.8-0.6l-0.6,0.2L343.9,539.5z"/>
<path id="D029" class="st0" d="M233.5,467.4l-1.6-0.7l0.4-2.1l-1.1-1.5l-1.1-3.3l-1.2,2.9l0.4,3.4l-1.1,0.8l-1.2,1.7l-2.3,0.5
	l-0.9,0.6l-2.5-0.3l0.5,3.5l-0.1,1.7l2.1,0.4l0.1,2.9l0.2,2.1l1,1.5l-1.2,1.9l-1-0.5l-1.2-1.3l-0.4,1.2l-2.9,0.9l-0.7,0.4l1.2,3.9
	l-1.1,1.8l-1.1,0.9l-1.1,0.5l-1.3,0.9l-1.7,0.8l-1.3,0.2l-1-2.2l-2.1,0.3l-3.9,0.2l-1.5,1.3l-1.6,0.6l-3.8,0.1l-2.4-0.5l-0.8-1.8
	l-0.4-3v-3.8l-1.5-1.4l-1.9-0.3l-1.5-1.2l-0.8-2.1l-0.2-5.1l0.8-1l1.6-1.2l1.1-1.3l0.7-1.8l-0.6-2.3l-1.2-1.2v-1.7l-0.7-1.6
	l-1.5-1.3l-1.3-1.5l-1-2.5l-0.2-1.8l-1.1-1.1l-0.1-2l-1.3-2.1v-3.2l-0.8-1.8l-1.8-2.9l-0.7-1.2l-0.3-2.1l-0.9-2.4l-1.3-2.2l-1-2
	l-1-1.6l-0.2-0.3l-2.5-4.9l-1.5-2.5l-0.1-1l0.2-1.8l-0.7-1.3l-0.6,0.4l-1-0.7l-1.5-1.5l-1-1.5l-2.7-6.1l0.6-1.2l-0.4-1.3l0.1-1.5
	l-1.4-1.4V402l-0.5-1.4l-0.5-0.7l-0.2-0.3l-0.1,0.2l-0.9-0.2l-1.8-2.4l0.3-2.4l-0.9-2.5l-0.6-1.1l-0.6-3.4l-0.9-0.8l-0.6-0.9
	l0.4-0.9v-1.3l-1.4-3.3l-1.3-4.5l-1.6-0.8l-0.1-1.3l-0.5-1.8l-1.1-2l-1-3l0.9,0.2l0.5,0.3l0.7,0.1l0.5-0.8l2.3-1.2l0.8-0.2l1.4,1.4
	l1.2,0.9l0.8,0.1l-0.1-1.1l-0.6-1.1l-2.2-2.2l-0.4-1.9l-0.7-2l-1-2.3l2.1,0.7l1.7,1l1.9-0.1l1.9-0.3l0.3-1.1l1.2-1.9l5.5-0.2
	l1.7,0.6l1.3,1.7l3.4,3.8l1.8-1.3l0.4,3.2l0.1,0.2l0.9,1.7l2.1,1.1l2.4,3.3l3.1,1.3l5.2,1l1.1,0.6l1.1,1.2l1.6,1.1l0.8,1.8l-0.4,1.6
	l1.3,0.5l0.9-1l1.7-0.2l1,1.1l0.1,1.3l2.6,5.1l4.6,5l0.5,1l1,0.9l2.6,2.2l1.5,1.7l1,1.9l1,1l0.9-1.1l3.3-7.1l0.2-0.4l0.2,0.8
	l0.9,1.5l1.6,4.3l1.4,3l1.6,1.8l1.4,2.7l0.9,3l2,2.8l1.9,1.5l3,3.5l-0.1,1.3l0.3,0.3l0.8,0.8l1.5,5l4.6,11l0.6,1.2l0.7,0.9L241,438
	l0.2,0.7l-0.4,0.6l0.6,2l1.1,2.6l2.6,4.3l-1.1,0.7l1.1,2.5l2.2,3.6l-0.7,2.4l-0.3,0.6l1.3,0.6l1.3-0.2l0.2,0.7l-1,0.4v2.3l-0.3,1.6
	h-0.3h-0.6l-1.3,0.5l-2,1.4l-1.4,0.5l-1.2,0.8l-3.3-0.3l-3.4-3.5l-0.6,1.3l0.1,2.2L233.5,467.4z"/>
<text transform="matrix(1 0 0 1 254.9214 487.6875)" class="textName">Bilaspur</text>
<text transform="matrix(1 0 0 1 186.4419 198.1235)" class="textName">Chamba</text>
<text transform="matrix(-4.846871e-02 -0.9988 0.9988 -4.846871e-02 265.6425 437.0003)" class="textName">Hamirpur</text>
<text transform="matrix(1 0 0 1 185.4785 312.3276)" class="textName">Kangra</text>
<text transform="matrix(1 0 0 1 565.6172 421.0645)" class="textName">Kinnaur</text>
<text transform="matrix(1 0 0 1 407.3306 351.2427)" class="textName">Kullu</text>
<text transform="matrix(1 0 0 1 383.9204 198.1235)" class="textName">Lahul And Spiti</text>
<text transform="matrix(1 0 0 1 319.1206 424.4375)" class="textName">Mandi</text>
<text transform="matrix(1 0 0 1 429.5205 527.9922)" class="textName">Shimla</text>
<text transform="matrix(1 0 0 1 397.3301 662.5195)" class="textName">Sirmaur</text>
<text transform="matrix(1 0 0 1 299.1523 562.084)" class="textName">Solan</text>
<text transform="matrix(1 0 0 1 187.8755 434.438)" class="textName">Una</text>
</svg>
