<?xml version="1.0" encoding="UTF-8" standalone="no"?>
<svg version="1.1" id="Layer_1" xmlns="http://www.w3.org/2000/svg" xmlns:xlink="http://www.w3.org/1999/xlink" x="0px" y="0px" viewBox="0 0 1520 1691.1" style="enable-background:new 0 0 1520 1691.1;" xml:space="preserve">
<style>
.stroke {
    stroke: #333333 !important;
}


.S01 {
    fill: #FEBC85 !important;
}

.S02 {
    fill: #FEDD86 !important;
}

.S03 {
    fill: #ECBED9 !important;
}

.S04 {
    fill: #FEDD86 !important;
}

.S05 {
    fill: #D1C6B7 !important;
}

.S06 {
    fill: #E5677D !important;
}

.S07 {
    fill: #F9AFA9 !important;
}

.S08 {
    fill: #E59A89 !important;
}

.S09 {
    fill: #8DD3B7 !important;
}

.S10 {
    fill: #CCC9A3 !important;
}

.S11 {
    fill: #BAC2E1 !important;
}

.S12 {
    fill: #E5A4BC !important;
}

.S13 {
    fill: #92D1E6 !important;
}

.S14 {
    fill: #ECB9B0 !important;
}

.S15 {
    fill: #CAB1DA !important;
}

.S16 {
    fill: #C6B7AA !important;
}

.S17 {
    fill: #EEE7AF !important;
}

.S18 {
    fill: #7ECBB6 !important;
}

.S19 {
    fill: #78C6E6 !important;
}

.S20 {
    fill: #B0C3BD !important;
}

.S21 {
    fill: #F9AFA9 !important;
}

.S22 {
    fill: #63CCC3 !important;
}

.S23 {
    fill: #D3CD85 !important;
}

.S24 {
    fill: #CCC9A3 !important;
}

.S27 {
    fill: #BAC2E1 !important;
}

.S28 {
    fill: #88AEBA !important;
}

.S29 {
    fill: #FEF4C7 !important;
}

.S30 {
    fill: #78C6E6 !important;
}

.S31 {
    fill: #C9CC9B !important;
}

.S32 {
    fill: #F2C1A4 !important;
}

.S33 {
    fill: #63CCC3 !important;
}

.S34 {
    fill: #E3A4BC !important;
}

.S35 {
    fill: #D67F98 !important;
}

.S36 {
    fill: #D1BA96 !important;
}

.S37 {
    fill: #92E2F7 !important;
}

.S38 {
    fill: #88A4BC !important;
}</style>
<path id="S07" class="S07 stroke" d="M470.2,499.2l0.1,0.5l0.6,0.4h0.7l-0.1,0.4l0.4,0.4l0.9,0.7l0.3,0.3l0.1,0.7h0.6l0.1,0.1l0.7,1
	l0.5,0.6l0.1-0.1l1-0.3l0.3,0.3l0.3,1.2l-0.6,1.2l-0.3,1.5l1.3,1.3l-0.4,1l-0.9,0.3l-0.9,0.9v0.3l0.4,1.6l0.6,0.4l0.9,1l0.3,0.4
	l-0.4,0.5l-0.7,0.9l-0.6,0.2l-1.2-0.4l-1.3,0.7l-1,0.6l-0.3,0.6l0.9,1l-0.1,1l-1.3,0.7l-1,0.2l-1.5,0.3l-0.6-1.2l-1-0.6l-1-0.6
	l-0.5-1.9l0.3-0.6L465,516l-0.9-0.7l-0.3-0.2l-0.6,0.4h-0.4l-0.3-0.3l-1.2-0.7h-0.1l-0.7-0.6l0.6,1l-0.3,0.6l-1.5-0.6l-0.4-0.2
	l-1.2,0.7l-0.6-0.2l-1.2,0.2l-0.9-0.2l-0.6,0.5v-0.9l-1-1l-1.2-0.9l-0.3-1.3v-0.5h1l1.2-2.6l0.7,0.3l0.9-0.3l0.5-0.9l0.1-0.9l1-0.5
	h0.3l0.1-1l-0.4-1.3l0.4-1.6l-0.6-0.7l0.4-0.9l-0.6-1.8v-0.3l0.3-0.6l0.3,0.1l0.5-0.7l1.2-0.4h2.7l0.3-0.9l0.6-1.2h1.6l0.9,0.1
	l0.4,0.3h1l0.3,0.7l0.7,0.3l0.7-0.7l0.9-0.1l0.6-0.1l0.6,0.1l0.6,1.6l-0.1,1.3L470.2,499.2z"></path>
	</svg>