<?xml version="1.0" encoding="utf-8"?>
<!-- Generator: Adobe Illustrator 26.0.0, SVG Export Plug-In . SVG Version: 6.00 Build 0)  -->
<svg version="1.1" id="Layer_1" xmlns="http://www.w3.org/2000/svg" xmlns:xlink="http://www.w3.org/1999/xlink" x="0px" y="0px"
	 viewBox="0 0 800 730" style="enable-background:new 0 0 800 730;" xml:space="preserve">
<style type="text/css">
	.st0{stroke:#000000;stroke-miterlimit:10; cursor:pointer;}
	.textName{font-family:'Arial'; font-weight:bold; color:#000000; font-size:14px; cursor:pointer;}
</style>
<path id="D294" class="st0" d="M283,314.5c-0.6,0-1.1,0.2-1.6,0.7
	c-1,1-1.9,0.7-3,1s-2.5,1.7-3.4,1.3c-0.9-0.3-2.2-1-2.9-0.9c-0.7,0-1.7,0.6-2.5,0.4s-2-0.3-2.6-0.3c-0.3,0-1,0.2-2,0.2
	s-2.9,0.7-3.2,1.3c-0.3,0.6-1.3,1.7-1.8,1.8c-0.6,0.2-1.7-0.4-2.7,0.1c-0.9,0.5-2.8,0.5-3.3,0.3c-0.6-0.2-1.9-0.4-2.6,0.1
	c-0.7,0.5-2.5-0.6-3.5,0.6s-3.7,0-4.2,0c0,0-1.3,1-1.4,2s-0.4,1.9-0.9,2.1s-2.3,0.6-2.7,1.1c-0.5,0.6-1.4,1.6-1.9,2s-0.5,1-0.6,1.7
	c-0.2,0.6-1.2,2-1.4,2.1c-0.2,0.2-0.9,1.2-0.9,1.5s-0.6,1.7-1,2c-0.3,0.3-2,1.1-2.1,1.5s-1.2,1.6-1.7,1.8c-0.5,0.2-1.3,0.3-1.3,0.3
	s-1.7-0.2-2.5-1.2c-0.8-1.1-0.7-1.5-1.2-1.8s-1-0.6-1.5-1c0,0-0.9-1.9-1.6-2.6s-1.2-2.3-1.1-3c0.1-0.6-0.1-2.7-0.4-3.2
	c-0.3-0.5-1.4-1.1-1.4-1.1l-2.8,0.3c0,0-1.1,0.3-1.7,0.4c-0.7,0-2.6-0.6-3-0.6s-1.7,1-2.3,1s-1.5,2-1.7,2.4c-0.3,0.4-0.3,3-0.1,3.4
	s-0.6,2.2-0.6,2.2c-0.1,1.8-1.2,4.5-2.1,5.7c-0.7,1.3-1.3,2.4-1.7,2.8c-0.8,1.1-1.2,2.2-2,3.2c-0.3,0.3-0.5,0.4-0.8,0.3
	c-0.6-0.1-1.5,0.1-2-0.3c-0.8-0.1-1.4-0.6-1.9-1.1c-0.3-0.4-0.9-0.9-1.5-1c-0.4-0.4-0.6-0.7-1.2-0.7c-1.1-0.5-2.3-0.9-3.1-1.4
	s-1.8-0.9-2.7-1.3c-0.1-0.3-0.5-0.6-1.3-0.8c-0.9-0.3-0.9-0.7-0.8-1.1c-0.2-0.5-0.4-0.9-0.9-1c-0.3-0.6-0.6-0.9-1.1-0.9
	c-1.1-0.3-2-0.5-2.3-0.9c-1-0.5-5.1-3.1-5.1-3.1c-1.7-0.8-4.5-2-4.5-2l0,0l0,0l8,11.9l0.9,2l-2.3,4.1l-0.1,2l-3.9,10.1l-1.3,5.4
	l-1.3,2.7l-0.9,12.5l1.3,5.7c0,0,0.6,5.1,1,5.4c0.3,0.3,0.6,3.6,0.4,3.9s-1.4,3.2-2.5,4c-1,0.8-1.6,7.2-1.6,7.2l9.7-0.8l2.8,0.1h3.5
	l4-0.7l2.7,1.8l3.9,2.1l4.3,1.4l8.4-0.1l5,1.5l2.2,1.6l6.4-0.9l6.8,1.5l2,0.9l1.3-0.2l2.8-5.6l0.9-3.6l5.1-7.5l5.8-6.5l7.3-6.6
	l5-3.8l2.2-1l1.2-0.4c0.1-0.4,1.1-1,0.9-1.4c-0.5-1.2,1.1-1.6,1.3-2.6c-0.1-1.3,1.1-2.1,1.4-3.3c0-1.4,1.4-0.4,1.8,0.2
	c0.5,0.7,0.7,1.9,1.4,2.3c1.2,0.2,0.5-1.6,1.6-1.8c1.1-0.1,0.7-2.1,1.8-1.5c1.1,0.1,1.4,0.9,1.7,1.8c0.7,0.7,1.9-0.2,1.7-1.2
	c-0.2-1.2,1.3-1,2.1-1.4c1-0.6,2.1-0.1,3.2,0.1c0.8-0.5,1.7-0.9,2.7-0.7c1-0.4,1.8-1.3,2.8-2c0.6-0.8,1.6-0.5,2.4-0.9
	c1.1-0.3,1.4-1.7,2.5-2.1c0.7-0.6-0.1-1.9,0.6-2.6c1.2-0.7,1.6-2,2.5-2.9c0.5-0.9,1.3-1.3,2.3-1.4c1-0.3,2.2-0.7,2.5-1.7
	c0.6-0.8,0.3-2,0.8-2.7c1.2-0.4,1.9-1.5,2.6-2.4c1.1-1.1,1.4-2.7,2.5-3.8c1-1.2,2.4-1.9,3.6-3c0.7-0.6,1.3-1.3,1.3-2.3
	c0.4-1.1,0.1-2.5,1-3.3c1-0.7,1.2-2.1,2.3-2.6c0.9-0.4,1.4-1.1,1.7-2c0.5-1.2,1.1-2.2,2.1-3c1-0.6-0.5-1.5-1-1.9
	c-0.7-0.6-1.7-0.8-2.5-0.2c-1.2,0.6-2.5,0.1-3.3-0.9c-0.9-0.1-1.7,0.9-2.7,0.4c0,0-1.5-0.3-2.3-0.3s-2.3-1-2.8-2s-1.5-1.1-2.7-0.6
	s-1.3-0.1-2.1-1.3c-0.8-1.2-2-1.3-2.5-1.2c-0.6,0.1-1.8-1.3-1.8-1.3c0-0.9-0.2-1.8-1.2-2.5c0,0-0.5-2.4-1.1-2.9
	c-0.7-0.5-2.4-0.4-3.7-1.3s-1.7-2-2.7-2.2C284.1,314.5,283.6,314.4,283,314.5L283,314.5z"/>
<path id="D803" class="st0" d="M723.7,401.8c-0.7-0.1-1.9,1.1-2.5,1.5c-0.3,0.2-0.6,0.3-1,0.3l0,0L720,404l-0.6,0.8l-2.2,3.4
	c0,0-0.2,0.3-0.5,0.7c-0.2,0.2-0.4,0.4-0.7,0.6s-0.6,0.3-1,0.4s-0.8,0.3-1.3,0.6s-1,0.6-1.4,1c-0.9,0.7-1.6,1.3-1.6,1.3
	s0.2,0.2,0.1,0.4c0,0.1-0.1,0.3-0.4,0.5c-0.2,0.2-0.6,0.4-1.1,0.6c-1.1,0.4-1.7,0.9-2.3,1.2c-0.6,0.4-1,0.7-1.8,0.8
	c-0.8,0.2-1.5,0.6-2.3,0.9c-0.7,0.4-1.4,0.7-2,0.8c-0.3,0-0.4,0.1-0.4,0.2s0,0.2-0.1,0.2c-0.2,0.1-0.8,0.3-3,0.3
	c-4.4,0-4.6-0.2-6.3,0c-0.4,0-0.9-0.1-1.4-0.4c-0.5-0.2-1-0.6-1.5-0.9c-0.9-0.7-1.7-1.4-1.7-1.4H680c0,0-0.8,0.2-1.7,0.3
	c-1,0.1-2.2,0.1-3-0.1c-0.9-0.3-1.5-0.3-2.1-0.3s-1.2,0-1.8-0.2c-0.7-0.2-1.4-0.3-2.2-0.3c-0.7,0-1.3,0-1.8,0.2
	c-0.4,0.2-1.3,0.6-2.3,0.9s-2,0.6-2.8,0.6c-1.5,0-4.4,0-5.6-0.2c-0.6-0.1-2.3,0.3-3.8,0.8c-1.5,0.4-2.9,0.9-2.9,0.9
	s-0.9-0.1-1.3-0.2c-0.4,0.6-0.8,1.1-1,1.6c-0.4,0.7-0.6,1.2-0.6,1.6s-0.1,0.7-0.4,1.1c-0.2,0.3-0.5,0.7-0.9,1
	c-0.7,0.7-1.6,1.4-2.2,2.4c-0.3,0.5-0.7,0.8-1.1,1.1c-0.4,0.3-0.8,0.6-1.2,0.8c-0.8,0.5-1.7,0.8-2.4,1.4c-0.6,0.5-1,1-1.6,1.4
	c-0.3,0.2-0.7,0.4-1.1,0.5c-0.4,0.1-1,0.3-1.6,0.4c-1.4,0.2-4.1,0-5.7,0.3c-0.4,0.1-0.8,0-1.1-0.1c-0.2-0.1-0.3-0.2-0.5-0.2
	c0,0-0.1,0-0.1,0.1c-0.4,0.3-0.7,0.7-0.9,1.2s-0.3,1.4-0.7,2.4c-0.2,0.5-0.4,1-0.7,1.4s-0.7,0.8-1.2,1s-0.9,0.5-1.2,0.7
	s-0.5,0.6-0.6,0.9c-0.3,0.6-0.2,1.4-0.1,2.1c0.1,0.8,0.4,1.7,0.6,2.7c0.2,0.9,0.4,1.9,0.3,2.6c-0.1,0.7-0.1,1.6,0.1,2.4
	c0.1,0.9,0.4,1.7,1,2.5c0.5,0.8,1.4,1.7,2.3,2.6c0.9,0.9,1.7,1.7,2.1,2.3c0.4,0.6,0.8,1.6,1.1,2.7c0.3,1,0.6,2.2,0.6,3
	s0.1,2.1,0.1,3.2c0,1.2,0,2.3-0.3,3.1c-0.1,0.4-0.2,0.8-0.2,1.2c0,0.4,0.1,0.8,0.2,1.2c0.2,0.7,0.5,1.4,0.7,1.8s0.4,0.7,0.6,1
	s0.3,0.8,0.2,1.6s-0.3,1.4-0.4,1.9c-0.1,0.3-0.1,0.6-0.1,0.9s0.1,0.7,0.3,1.2c0.4,1,0.7,1.7,0.9,2.3c0.2,0.6,0.3,1.1,0.2,1.5
	s-0.3,0.7-0.4,1.1c-0.1,0.4-0.1,0.9,0,1.8c0.3,1.8,0.5,5.7,0.5,5.7l0,0l0,0c-0.6-0.4-1.2-0.7-1.9-1c0.7,0.3,1.3,0.6,1.9,1.1
	c-0.9,1.3-5.1-2.7-5.3,0.7c-0.4,1-0.9,2.2,0.8,1.8c1.7-0.5,3.7,0.2,5.5,1.1c-0.4,1,1,3.2,1.9,1.7c1.9,0.9,4,1.8,6,2.6
	c2,1,4.6,0.8,6.2,2.3c1.8-0.1,3.4,0.7,5.2,1.4c1.6,0,2.1,0.7,3.4,0.5c0.7-1.1,2.3,0.9,1.8-1c1.6-0.7,3.2-1.8,5-0.5
	c1.8,0.1,2.7,0.7,2.5,2.4c1.4,2.1-2.7,3-2.3,4c0.2-0.2,0.3-0.3,0.4-0.4c-0.2,0.3-0.6,1,0.4,1c1.3,0.3,2.6-0.3,3.5,0.2
	c0.3-1.7,0.8,1.7,1.5-0.4c1.5-0.1,1.5,1.5,1.9,2.2c1-1.2,1.6-0.2,2.7,0.3c-0.1-0.7,1.2,0.8,0.9-0.6c1.3,0.7,2.5,0.5,3.3,1.9
	c0.9,0.3,2.8,1,4.3,1.3c1.1-0.5,1.9,0.7,2.8-0.1c0,0,3.8-0.8,3.9-1s1.7-1.2,1.7-1.2c0.2,0.6,1.6,1,2.5,0.9c0.9,0,1.3-1.8,1-2.4
	s-0.1-2.6-0.1-2.6c-0.1-0.6,0.6-2.5,0.9-2.8c0.3-0.2,1.4-0.9,1-1.5c-0.4-0.7-0.4-1.7,0.1-2s1-2.8,1.1-3.6c0.1-0.8,1.7-4.1,1.7-4.1
	c0.7-0.1,5.5,0.5,6.7,0.9c1.1,0.4,1.8-0.5,2.9-0.5c1.1,0,4.5,1.9,4.5,1.9s-0.8-2.7-1-3.5s-1.7-2.4-2-2.9c-0.4-0.5-0.1-2.7-0.1-2.7
	s1.9,0.2,2.3,0.6c0.5,0.4,1.3,0.5,2.2,0.5s1.7,0.9,2.3,1.3c0.5,0.4,1.1-0.7,1.3-1.1c0.2-0.5,1.7,0.3,2.5,0.6c0.8,0.3,1-0.7,1.7-0.8
	c0.7-0.1,1.8,0.8,2.7,0.5c0.8-0.4,1.3,0.4,1.6,1c0.4,0.5,2.2,0.7,3.7,0.7s1.4,0.6,1.9,1.1s1.9,0.8,2.3,0.4c0.5-0.5,1.3-2.5,1.4-2.9
	c0.1-0.4-0.3-2,0-2.7s3.9-3.1,4.8-3.3c0.9-0.2,2.4-1.4,2.8-2c0.4-0.6,0.2-2.3,0.1-2.8c-0.1-0.5,1.1-1.3,2-1.3s1.8-0.7,2.3-1.3
	c0.5-0.5,2.4-0.3,2.4-0.3c1,0,2.4,0.6,3.4,0.4c0.5-0.3,1.1-0.2,1.1-0.9c0-0.7,0.2-1.3,0.8-1.3c0.7,0.1,1.4,0,1.8-0.7
	c0.4-0.7,2.1-1.2,2.6-1.3c0.5-0.2,1.6-0.7,2.6-0.5s1.8-0.8,1.8-1.2s0.5-1.3,1.5-0.7c1,0.6,1.7,1.3,2.7,1.3s1.9-0.9,2.7-0.4
	c0.9,0.5,1.8,0.7,2.2,0.5s1.6-2,2.4-2.2c0.7-0.2,2.4,0.2,3-0.2c0.6-0.4,1.7-2.1,1-2.6c-0.7-0.6-2.6-0.9-3.1-0.9s-0.9-1-1.9-1.3
	c-1.1-0.3-1.7,0.4-2.2-0.1c-0.5-0.6,0.2-1.5-1-2.4c-1.2-0.8-2.2-1.9-2-2.3s1.7-1,2.4-0.7s1.8-1.6,1.5-2.1s-1.7-1.3-2.1-1.5
	c-0.4-0.3-0.4-1,0.3-1c0.6,0,1.5,0,1.9-0.6s0.3-0.8,1-0.8s1.6,0.3,1.9-0.2c0.3-0.5,1.2-1.7,1-2.3c-0.2-0.6-1.2-0.7-1.2-1.5
	s0.1-1.8-0.2-2.1c-0.3-0.2-0.9-0.7-1-1.2c-0.1-0.6-0.4-0.9-0.1-1.4s1-0.3,0.9-1.3c0-1-0.3-4.2-0.8-4.8c-0.6-0.6-1.2-0.2-1.9-0.7
	s-0.7-0.6-1.3-0.4s-1.2,1-1.6,0.9c-0.4,0-2.5-2.3-2.9-2.3s-1,0.1-1-0.3s0.3-1.1,0.1-1.8c-0.2-0.7-0.9-2.1-1.4-2.2s-1.2-0.6-1.3-1.1
	s0.3-1.2-0.3-1.1s-1.5,0.2-1.4-0.4s0.1-0.9,0.6-1.1s1.5-1.2,0.9-1.4c-0.6-0.2-3.9,0-4.1,0.5c-0.2,0.5-1,1.3-1.4,1.2
	c-0.3-0.1-1.3-3.1-2-3.3c-0.7-0.2-1.6,0.8-2.2,0.4s-1.5-3.6-2.2-3.9c-0.6-0.3-1.7-1.6-2.5-1.6s-1.6-0.7-1.6-1s-0.3-1.5-1.1-1.5
	c-0.8,0.1-1.3,0.5-1.5,0.9c-0.1,0.4-0.3,1.9-1,1.4s-2.6-3-2.7-3.7c-0.1-0.7,0.6-2.8,0.8-3.1c0.2-0.3-0.6-0.2-1.2,0.4
	c-0.6,0.6-1.7,1.5-1.9,2.6s-1.5,0.6-1.5-0.2c0-0.8-2.2-3.5-2.5-3.5c-0.4,0-0.4,1.4-0.1,1.9c0.3,0.5,0.7,1.5,0.1,1.7
	c-0.6,0.1-1.7-0.6-2.2-0.3c-0.5,0.3-1.2,2.2-1.7,2.3s-1.2,0.1-1.4-0.3c-0.1-0.4,0.3-2.2,0.4-2.5c0-0.3-0.5-1.8-0.9-2.5
	c-0.3-0.6,0.3-3.1,0.3-3.5c0.1-0.3-0.9-0.6-1.4-0.8c-0.5-0.2-0.4-1.5-0.1-2.2c0.3-0.7,0.5-2.2-0.2-2.5c0,0-1.2-0.6-1.9-0.3
	c-0.7,0.4-2,1.5-2.1,1C723.8,402.6,724.4,401.9,723.7,401.8L723.7,401.8z"/>
<path id="D298" class="st0" d="M563.3,347.5c-0.1,0-0.1,0-0.2,0.1c-0.6,0.3-1,1.5-1.4,2.1s-1,0.6-1.6,0.6s-1.2,1-2.1,1.3
	c-0.8,0.2-1.9-0.3-2.3,0c-0.3,0.3,0.2,1.3-0.4,1.2c-0.7-0.1-1.7-0.9-2-0.6s-0.6,2.4-1.3,2.1s-1.6-0.1-2.1,0.5
	c-0.5,0.5-0.6,0.9-1.2,0.7c-1.1,0-1.3-0.2-2-1.3c0.4,2.2-1.4,2-1.3,3c0,1.3-2.5,0.5-3.4,1.3c-1.3-0.4-2.4-1.8-3.9-1.8
	c-3.4-0.2-6.6-0.9-9.9-1.8l0,0c0.1,0,0.1,0.3,0.2,0.3c0.1,1-0.5,2.1-0.6,3.2c0.1,1.1-0.4,1.9-1.3,2.5c-1,0.6-1.3,1.6-1.2,2.6
	c-0.1,1,1,1.8,0.5,2.9c-1.5,1.6-3.4,2.9-4.6,4.8c-0.7,0.7-2.1,0-2.6,1.2c-1.7,0.8-3.5,1.3-5.3,2c-1.1,0.3-2.1,1.1-3.2,1
	c-1.3-0.7-1.5,0.2-1.5,1.4c-0.4,3-0.4,6.3-2,9c-1.2,2.4-4.8,5-7.2,2.8c-2.4,1.6-5.2,4.2-8.4,3c-2.7,0.2-5.3,0.8-7.9,0.6
	c-3.1,1-1.8-2.8-3.3-4c-1.5-1.9,2.9-3.2,0.1-3.8c-3.2-2.1-5.2,1.6-7.6,3c-3.5,0.7-2.3,4-3.5,6.7c-0.3,2-1.8,3.2-3.4,4.1v0.1
	c0,0,1.8,4.6,1.8,5.1s-0.2,3.7,0.1,4.5c0.2,0.8-0.1,3.4,0.1,4.5s0.7,2.2-0.1,3c-0.8,0.8-0.2,2.5-1.2,2.7s-1.9-0.1-2.4,0.7
	c-0.5,0.8-0.9,2.7-1.5,3s-2.7,1.4-3,1.9c-0.2,0.5-1.4,2-0.8,2.2c0.5,0.2,1.3,0.1,0.8,1c-0.4,0.9-3,4.6-3.1,5.4
	c-0.2,0.8-0.2,1.4,0.3,1.6s1.1,1.3,1.4,1.7s3,0.4,3.3,0.6c0.2,0.2-0.3,1.8,0.1,2.1c0.4,0.3,1.3,1.1,1,1.7c-0.2,0.5-1,2.4-0.6,2.8
	s1.4,0.9,0.7,1.6s-0.5,1.6-0.4,2.3c0.2,0.8-0.8,2.5-1.6,3c-0.8,0.5-2.5,0.7-3.6,0.3s-3.9-0.3-4.4-0.1c-0.5,0.2-3.3-1.4-4-1.3
	c-0.8,0.1-2.1,1.4-2.2,1.9c-0.1,0.4,0.2,2-0.4,3c-0.6,0.9-2.7,0.9-3.1,0.6s-1.1-2-1.7-1.7s-1.5,1.1-2.3,0.4s-3.6-1.3-4.3-1.3
	s-2.2,1.8-3.3,2.4c-1,0.6-2.4-0.2-3.7-0.3c-1.3-0.1-3.4,1.3-3.7,1.8s-0.8,2.6-1.6,2.7c-0.8,0.1-1.6,0.1-1.6,0.4s0.4,1.7-0.1,1.9
	c-0.5,0.1-2.2-1.3-2.8-1.3c-0.6,0-2.1,1.4-2.2,1.9s-1.7,0.4-2.3,0.7c-0.6,0.3-0.4,1.6-0.2,2.4s-0.2,2.7,0.5,3.4
	c0.7,0.7,0.5,2.2,1.4,3s2.7,1,3,1.6c0.2,0.6-1.3,1.4-0.5,2.1s2.2,0.5,2.6,1.5s0.2,2.6,0.2,2.6c1.2,0.9,1.4,0.6,2.9,1.1
	c1,0.7,2.6-0.8,3.4,0.5c1.4,0.1,0.2-1.5,1.2-1.6c0.8-0.2,1.4,1.7,2.2,2.1c0.1,0.9,0.5,1.6,1.6,1.2c1.4,0,2.2,1.2,3.1,2
	c1.5-0.2,3.2,0.8,4.9,0.4c1,0,2.6-0.9,2,0.4c-0.5,0.6,0,1.5,0.6,1.6c-0.2,0.6-2.6,1-1,1.5c1.3,0.1,2.7,0.2,4.1,0.1
	c0.2-1.1,1.8,0.1,2.6-0.7c1.3,0.4,3.1,0.7,3.6-1c1.2-2.2,4.1-0.5,6.1-0.8c2.5-0.1,5.1-0.8,7.4-1.6c1-1.5,2.5-2.9,4.2-2.5
	c1,0.3-0.4-2.7,1.3-3.1c1,0,2.2,0.3,2.7-0.6c1.9,0.2,3.9,0.1,5.9-0.2c0.6,1.3-0.2,1.5-1.3,1.3c-1.2,0.1-1.7,1-1.9,2
	c-1.5,1.2,1.2,0.2,0.1,1.8c-1.3,1-0.5,2.7,0.3,3.8c0.3-1,1.6-1.1,2.2-1c-0.5,0.9,0.3,1.1,0.6,0.1c0.2-0.7,2.2-0.1,1.7,0.8
	c0.9,0.9-0.1,2.3,0.5,3.2c0.8,0.9,2.5,0.8,3.2,1.1c0.7,0.4,1.8,0.3,2.2-0.8c1.2-0.3,2.5-0.3,3.7-1.1c-0.5,0.8,0.6,1.2,1.5,0.7
	c0.4-0.5,1.9-1.4,3-2.2c0.9,1.1,1.9-0.1,2.8,0c1,0.2,1.9-0.4,2.8-1c-0.6-1.3,1.9-1.6,1.3-2.4c0.2-0.7-1.4-1.1-0.7-1.5
	c0.6-1.2,0.5-0.4,1.2-0.1c0.3-1,1.8-0.2,2.2,0.1c0.2,2,2.9,0.9,4.3,1.5c0,1.1,0.4-0.1,1,0.6c-0.2,1.4,0.7,1.6,1.7,1.6
	c1.6,0.9,1.4-0.1-0.1-0.7c0.7-0.8,0.1-1.7,0.8-2.5c1.3-0.3,1.3-1.8,0.3-2.6c0.4-1.1,1-3.1,2.3-3.3c0,1-0.9,1.4,0.3,1.9
	c0.5,0.8,1.6,0.9,2.3,0.8c0.7,0.6,1.5,0.2,2,1c1.3-0.4,2.6-1.2,4.1-1.1c1.1-0.2,2.5-0.4,3.8-0.1c0.9-0.4,0-0.6-0.3-0.6
	c-0.1-0.8,1.6-0.2,2.3-0.3c1.5,0.6,1.9-1.7,3.3-1.3c0.2-0.6,0.8-0.3,1.1-0.2c0.4-0.2,0.7-0.2,1.6-0.1c1.9,0.1,3.5,1.6,5.5,1.1
	c1.2,0.3,1.8-1.2,3.1-0.3c1.4-1.3,1.3-0.1,2.6,0.3c0.5-1.8,2.6-0.2,3.5-0.9c-0.1-0.7,1.6-1,2.7-0.8c1.4,0.1,3-0.8,4.4-0.2
	c1.3,0.5,2.5-0.7,3.1,0.6c2-0.2,3.8,0.4,5.8,0.2c1.9,0.4,4,0.3,5.7,1.5c2.3-0.1,4-2,5.6-3.4c0.7-0.6,1.6,0.1,2.5-0.1l0,0
	c0.7-0.2,1.5-1.3,1.6-1.6c0.2-0.3-0.3-3.3-0.9-3.4c-0.6-0.2-1.6,0.6-2.5-0.5s-1.5-1.6-1.7-2.5s-1.6-1.2-1.6-2s0.2-2.5-0.5-2.9
	s-1.8-1-1.6-1.9s-1.3-2.5-1.2-3.2c0.2-0.7,0.5-2.8,0.8-3.9s3.8-4.7,4.2-5s0-1.5,0.7-1.7s2.9-0.7,3.1-1.2c0.2-0.5,0.5-1.5,1.3-1.6
	c0.7-0.2,2.7-0.9,3.2-1.2c0.5-0.4,0.9-0.8,1.6-0.8s1.3-0.7,1.8-0.7s1.6-0.1,1.6,0.7c0.1,0.7,0.8,1.6,1.2,1.2s1.8-1.5,2.4-1.3
	c0.6,0.2,0.5,0.7,2.2,1c1.6,0.3,1.5-0.1,2,0.7c0.5,0.8,2.9,0.5,3.3,0.9c0.5,0.4,0.9,1,1.6,1s2.1-0.6,2.2-0.8s0.8-1.8,0.8-2.1
	c0-0.4-0.6-1.2-0.1-1.7s0.9-1.6,0.9-1.9s-0.6-0.1-1.2-0.6c-0.6-0.5-0.7-1.5-0.5-1.7s0.5-0.6,0.3-1.2s-0.1-2.1-0.6-2s-1.1,0-0.9-0.4
	c0.2-0.4,0.3-1.6,0.7-1.9c0.4-0.2,0.2-1.1,0.2-1.4c-0.1-0.3-0.3-1.3,0-1.6c0.3-0.3,0.4-2.4,0.2-2.8s-1-0.7-1.1-1.6
	c-0.2-0.9-0.4-1.2-0.7-1.7s-0.6-1-0.1-1.2s1.7-0.4,2-1.1s0.5-1.1,0.3-1.8c-0.3-0.7-0.6-2.5-0.7-3.1c-0.1-0.6-0.2-1.1-0.2-1.5
	s-0.4-0.5-0.8-0.3c-0.4,0.2-0.5-0.3-0.7-0.8s0-2.6-0.3-2.7s-1.8-0.8-1.9-1.3c0-0.5,0.8-1,1.3-1.5c0.5-0.4,1.8-2.5,2-3.1
	c0.3-0.6-0.4-1.3-0.3-1.7c0.1-0.4,0.7-1.6,0.1-1.9c-0.6-0.2-2.4-0.1-2.7-0.9s-0.2-1.9-0.7-1.9c0.6-0.7,1.1-1.3,1.7-2
	c-0.1-0.8-0.5-1.6-0.4-2.5c0.3-0.7,1-1.1,1.4-1.7c1.1-2.1,2.3-4.2,3.2-6.5c-0.4-0.7-0.7-1.5-1.5-2c-0.7-0.7-0.2-1.8-0.2-2.7
	c0.3-1,1-1.8,1.4-2.7c0,0,1.5-1.2,1.5-2s-0.7-1.7-0.4-2.6s1.1-1.2,0.8-2.2c-0.3-1.1-0.5-1.5-0.2-2.1s1.4-1.2,1.7-1.5s-0.3-1,0.6-1.4
	c0.9-0.5,2-1,1.8-1.8s-1.2-0.6-1.2-1.3c0-0.7,0-2.1-0.3-2.8c-0.3-0.6-0.4-1.6,0.2-1c0.6,0.6,0.8,1.2,1.4,0.9c0.7-0.2,1.8-0.6,2-1
	c0.2-0.3,0.3-1.6,0.6-1.7s-0.2,0.2,0.6,1.3c0.7,1.1,1.3,0,1.2-0.6s-0.2-2.1-0.5-2.5s-1-0.6-1.1-1s-0.2-1-0.2-1
	c-3.9,0.2-7.5,3.3-9.8,5.3c-2.9,0.5-6.2,1-9.1,1.2c-2.7,0-5.4,0.7-8-0.1c-2.7-0.7-5.5-1-8.3-1.2c-1.4,0.2-2.1-0.9-3.1-1.7
	c-1.6-0.4-3.5-0.3-5.2-0.3c-1.6,0.3-2.8-1.1-3.8-2.1c-0.7-0.9,0.3-2.4-1-3c-1.4-0.8-0.6-0.9-1.2-1.3c-0.4-0.1-0.8-0.7-1.1-0.9
	C563.4,347.5,563.4,347.5,563.3,347.5L563.3,347.5z"/>
<path id="D802" class="st0" d="M189.1,263.5c-0.8-0.1-1.5,0.1-2.1,0.8c-1.4,1.2-2.7,2.5-4.1,3.3c-2.2,0.6-4.3,1.6-6.4,2.4
	c0,0-0.3,4-1,4.9s-2.1,4.5-2.1,4.5l-0.7,7.5l-8.2,14l0.4,6.8l-1,1.6l-3.1,0.8l-4.7-0.2l-1.8,1l-0.9,6l0.5,0.6l8.8-0.1
	c2.9,0.7,2.1,4,2.7,5.7c2.7,1,2.3,3.2,2.4,5.4c1,0.6,2.3,0.2,2.9,2.1l0,0c0,0,2.8,1.1,4.5,2c0,0,4.1,2.6,5.1,3.1
	c0.2,0.4,1.2,0.6,2.3,0.9c0.4,0,0.7,0.2,1.1,0.9c0.5,0.2,0.8,0.6,0.9,1c-0.1,0.5-0.1,0.8,0.8,1.1c0.8,0.2,1.2,0.4,1.3,0.8
	c0.9,0.5,2,0.8,2.7,1.3c0.8,0.5,2,1,3.1,1.4c0.6,0,0.8,0.2,1.2,0.7c0.5,0,1.2,0.6,1.5,1c0.5,0.5,1.1,0.9,1.9,1.1
	c0.5,0.4,1.4,0.2,2,0.3c0.3,0.1,0.6-0.1,0.8-0.3c0.8-1,1.2-2.1,2-3.2c0.4-0.4,1-1.4,1.7-2.8c0.9-1.1,2.1-3.8,2.1-5.7
	c0,0,0.7-1.8,0.6-2.2c-0.2-0.4-0.2-3,0.1-3.4s1.2-2.4,1.7-2.4c0.6,0,1.8-1,2.3-1s2.3,0.6,3,0.6s1.7-0.4,1.7-0.4l2.8-0.3
	c0,0,1.2,0.6,1.4,1.1c0.3,0.5,0.5,2.6,0.4,3.2s0.3,2.3,1.1,3s1.6,2.6,1.6,2.6c0.6,0.4,1.1,0.8,1.5,1c0.5,0.3,0.4,0.7,1.2,1.8
	c0.8,1.1,2.5,1.2,2.5,1.2s0.8-0.1,1.3-0.3c0.5-0.2,1.6-1.4,1.7-1.8c0.1-0.4,1.7-1.2,2.1-1.5c0.3-0.3,1-1.7,1-2s0.7-1.4,0.9-1.5
	c0.3-0.2,1.2-1.5,1.4-2.1s0.1-1.2,0.6-1.7c0.5-0.4,1.4-1.4,1.9-2s2.2-0.9,2.7-1.1s0.8-1.2,0.9-2.1s1.4-2,1.4-2c0.5,0,3.2,1.2,4.2,0
	s2.9-0.1,3.5-0.6c0.7-0.5,2-0.3,2.6-0.1c0.6,0.2,2.4,0.1,3.3-0.3c0.9-0.5,2.1,0.1,2.7-0.1s1.5-1.2,1.8-1.8c0.3-0.6,2.3-1.3,3.2-1.3
	s1.7-0.2,2-0.2c0.6,0,1.8,0,2.6,0.3s1.8-0.4,2.5-0.4s2,0.6,2.9,0.9s2.3-1,3.4-1.3s2,0,3-1c0.5-0.5,1-0.7,1.6-0.7s1.1,0.1,1.6,0.2
	c1,0.2,1.4,1.3,2.7,2.2c1.3,0.9,3,0.8,3.7,1.3s1.1,2.9,1.1,2.9c1,0.6,1.2,1.6,1.2,2.5c0,0,1.2,1.4,1.8,1.3c0.6-0.1,1.7,0,2.5,1.2
	s1,1.8,2.1,1.3c1.2-0.5,2.2-0.5,2.7,0.6c0.5,1,2,2,2.8,2s2.3,0.3,2.3,0.3c-0.2-0.4-0.6-0.8-0.6-1.3c-0.1-0.7-0.3-1.5,0.2-2.2
	c0.2-0.8,0.7-1.2,1.5-1.3c0.9-0.1,1.4-0.9,2-1.4c0.7-0.6,1.7-0.7,2.5-1.1c0.3-0.9,0.6-1.8,0.9-2.7c0.1-0.7,1-0.9,1.5-1.3
	c0.7-0.6,1.2-1.4,2.1-1.9c0.8-0.8,1.8-1.5,2.3-2.5c0.4-1,1.6-1.1,2.1-1.9l0,0l0,0c1-3,3.5-5.5,3.2-8.9c1.4-1,3.8-1.4,3.7-3.7
	c0.1-1.3,1.5-4.8-0.8-4.2c-1.9,0.7-3.6,1.2-5.6,0.5c-2.7-1.1-5.9-1.2-8.6-0.3c-1.2-0.8,0.1-3.4-0.6-4.9c-0.9-2.4-0.9-5.5-2.7-7.3
	c-2.3,0.1-2.8-2.8-3.9-2.8c-1.3,1.6-2.9,2-4.9,1c-2.4-1-0.9,2.7-1.1,4c0.7,2.1,0.8,4.8-1,1.7c-1.2-1.3-3.3-2.4-4.2-3.2
	c0.8-1.8-2.5-2.2-2.8-4.1c-1-1-1.4,0.9-3,0.3c0.3,2.3-2.7,0.7-4.2,0.8c-1.9-0.2-4.2-0.4-4.6,1.5c-0.6-1.5-0.6-2.5-3-2.2
	c-1.2,1.1-4.1-2.9-4.6-0.4c-1.3,1.3-3.7,1.6-4.6,3.5c-1.3,2.1-3.4,4.1-3.3,6.8c-1.7-0.1-4.1,0-5.2-1c0.8-2.4-0.7-3-2.3-1.3
	c-1.5,2.7-2.7-0.3-0.5-1.5c1.5-2.4,1.6-2.8-0.8-2.8c-1.6-1.8,0.3-3.1,0.6-4.8c1.1-2.4-2.3,0.1-3.5,0c-1.9,2.3-3.3-0.6-4.6-0.1
	c-2.3,0.5-4.8,0.3-7.2,0.5c-1.4,1.9-2.6,4.4-5.3,4.6c-3.4,0.9-6.8,2-9.7,4.1c-0.3,1.5,1.1,4.4-1.3,4.6c-2.4,0.7-2.6-1.8-3.8-2.9
	c-0.9-2.8,2.5-4,4.1-5.7c3.1-1.6-1-2-2.4-2.8c-2.2-0.2-2.7-2.8-5-2.1c-2,0.6-2.9-3.5-4.3-1c-1.7,1.2-0.5,4-2.4,4.7
	c-2.2,0.9-4.3,2.3-5.4,4.5c-3.4,1.3-4.7,6.1-8.7,6.1c-1-1.9,2.1-2.9,2.1-4.9c0.5-2.1,1.7-3.6,3.1-5c0.4-1.9,0.7-4.3,0.1-6.1
	c-2-2.1-3.8-4.4-5.5-6.8c-1.1-2.3-2.8-4.4-5.1-5.6C191.6,264.5,190.3,263.6,189.1,263.5L189.1,263.5z"/>
<path id="D297" class="st0" d="M530.5,237L530.5,237c-0.5,3.5-3.7,3.2-5.3,4.7c-0.8,3-3.7,4.2-5.4,2.6c-2.5,2.9-5.2,5.7-9,6.7
	c-3.6,0.5-0.9,3.1-4,4.8c-0.7,3.5-0.7,6.7-1.2,10.4c-0.6,3.8-0.2,7.7-0.1,11.5c0.7,3.5-5.1,3.2-4.8,5.4c-2.3,1.5-3.2,4.5-5.9,5.3
	c-1.1,4.1-3.6,1.5-6.5,2.4c-2.1-2.3-5.1-4.7-8.1-6.2c-3.9-1.7-2.4-4.4,1.4-3.4c1.2-0.3,3.8-5.3,1.5-6.3c-2.4-2-1.3-4.9-1.4-7
	c2.3-0.9,1.9-5.1,0.9-6.4c-2.5-1.6-4.9,0-7.7,0.2c-1.5,3.2-2-3.4-5-2.7c-3.5-0.6-2.4,3.8-3.3,5.6c-0.2,2.4-2.6,4.5-3.5,7
	c0.5,3.2-5,2-4.2,5.3c-2.8-0.3-6.1,1-4.6,4.3c0.1,2.5-4.1,4.1-4.4,6.7c0.9,3.5,4.2-1.2,5.8-2c4.1-3.8,2.3,1.4-0.9,2.1
	c-2.2,1.5-6.1,3.7-4.6,6.8c-2.4-1.1-5.1-0.9-6.3,1.9c-2.6,3.4,0.6,4.8,3.8,4.9c2.5-0.6,5.3-0.4,6.7-3.2c-0.7-3.6,5.3-3.6,2.3-0.7
	c-0.9,2.3-3.5,2.7-5.8,4.2c-2.8,0.8-5.8-0.2-7.9,1.8c-2.7-1-5.3,1.8-7.2,3.4c-2.1,2.2-4.5-2.8-7-2.7c-2.7,0.7-5,1.1-7.7,1.9
	c-2.5,0.3-5,1-7.6,1.1c-0.2,0.5-1.2,1.1-1.6,1.1c-0.3,0-1.4-0.5-1.7-0.2c-0.2,0.1-0.4,0.4-0.5,0.7c-0.1,0.3-0.2,0.7-0.1,1.1
	c0.2,0.8-0.3,1.1-0.5,1.4s1.4,1.6,2,1.7c0.6,0.2,1.6,1.9,1.9,2.6c0.4,0.8,1.1,0.7,1.6,0.8c0.5,0,1.5,0.5,2.3,1.1
	c0.8,0.5,2.7,0.1,2.8-0.1c0.1-0.2,2.1-0.8,2.6-0.9c0.5-0.2,4.5,1.4,5.2,1.2c0.7-0.2,1.1-0.5,1.3-0.1c0.2,0.5-0.6,1.9-0.3,2.6
	c0.3,0.8,2.6,0.1,2.6,0.1s1.8-0.7,2.3-1.2s0.6,0.1,0.9,0.5s2,0.4,2.7-0.1s1-0.5,1.5-0.2s-0.6,1.4-0.3,1.7c0.4,0.3,1.9,0.4,2.2,0
	c0.3-0.4,0.8-0.5,1.4-0.6s2.2-1.6,2.5-1.9s1.3,0,1.7,0.2c0.4,0.2,2.7-0.5,3-1s0.8,0.1,1,0.4s1.1,0.1,1.3-0.2c0.3-0.2,3.5,0,4.1,0
	c0.6,0.1,0.9-0.2,0.9-0.8c0.1-0.6,0.9,0.5,1.3,1s1.6-0.3,1.8-0.6c0.2-0.3,1.2-0.2,1.2-0.5s1-0.9,1.3-1.1s2.2,0.1,3-0.3
	s1.4-0.1,2-0.1c0.6,0.1,1.9-0.9,2.6-0.7c0.6,0.2,1.6,0.1,2,0.1s0.8,0.9,1,1.4s0.9,0.1,1.2-0.3c0.3-0.3,1.4-0.9,2-0.9s3.5,0.2,4,0
	c0.5-0.1,0.4-0.5,0.7-0.5c0.3,0,3.8,1.1,3.9,1.4c0.6,0.4,1.2,1.5,1.9,0.6c0.6-0.8,1.4-1.3,2.4-1.6c0.8-0.1,1.2-1.3,2.1-0.7
	c2.1,0.7,4.2,0.8,6.4,1.2c0.9,0.4,1.8,0.7,2.7,1.1c2.9-0.5,6-1.3,8.1-3.4c1.1-0.8,1.4-3.3,3.1-2.6c0.9,0.2,2,0,2.6,0.9
	c1.4,1.5,2.9,2.8,4.5,4c0.9,1.2,1.5,2.6,2.5,3.7c0.7,0.4,1.6,0.6,2.1,1.1c0,1,0.4,2-0.3,2.8c-0.6,1.2-1.5,2.3-1.9,3.5
	c0,0.8-1.2,0.9-1.5,1.7l-2,2.3c0.4,0.6,0.4,2.1,1.4,1.5c0.9-0.4,0.2,1.5,1.3,1.3c0.6,0.6,1.9-0.2,2,0.3c-0.4,0.7-0.1,1.9,0.9,1.4
	c0.9-0.4,1.8,0.2,2.7,0.2c0.9-0.2,1.9-0.6,2.7-0.4c0.7,0.6,0.8,1.4,1,2.2c0.7,0.6,0.7,1.4,0.5,2.2c0,0.9-0.4,1.9-0.2,2.7
	c0.4,0.9,1.7,0.2,2,1.2c0.5,1,1.3,2,1.7,3.1c-0.1,0.9-0.4,1.9-0.4,2.8c0.6,0.6,0.6,1.5,0,2.1l-3.4,1.1c0.1,0.9-1.3,1.1-1.3,1.8
	c0,0.3,0.1,0.6,0.4,0.8c3.3,0.8,6.5,1.5,9.9,1.8c1.4,0,2.5,1.4,3.9,1.8c0.9-0.8,3.4,0,3.4-1.3c-0.1-1,1.7-0.9,1.3-3
	c0.7,1,0.9,1.3,2,1.3c0.5,0.2,0.7-0.2,1.2-0.7s1.4-0.8,2.1-0.5s1-1.9,1.3-2.1c0.3-0.3,1.3,0.5,2,0.6s0.1-0.9,0.4-1.2s1.4,0.2,2.3,0
	c0.8-0.2,1.5-1.3,2.1-1.3s1.1,0.1,1.6-0.6c0.5-0.6,0.9-1.8,1.4-2.1c0.6-0.3,1,0.7,1.6,0.9c0.6,0.5-0.2,0.5,1.2,1.3
	c1.2,0.6,0.3,2.1,1,3c1.1,1,2.2,2.5,3.8,2.1c1.7,0,3.5-0.1,5.2,0.3c0.9,0.8,1.7,2,3.1,1.7c2.8,0.1,5.6,0.5,8.3,1.2
	c2.6,0.8,5.3,0.2,8,0.1c2.9-0.2,6.2-0.7,9.1-1.2c2.4-2,5.9-5.2,9.8-5.3c1-0.3,0.8-0.2,1.1-1.2c0.6-0.1,1.4,1.3,2.2,1.5l0,0l0,0
	c0.1-0.5,0-1.1,0.2-1.5l1.2-1.3c-0.2-0.8-0.1-1.6-0.7-2.2c-0.2-0.4-0.7-0.8-0.5-1.3c0.1-0.5,0.4-1.2-0.1-1.6
	c-0.3-0.4-0.8-0.7-0.8-1.3c-0.2-0.5-0.2-1.1-0.4-1.5c-0.5-0.3-1.2-0.5-1.4-1.1c-0.2-0.4,0.2-0.8,0.2-1.2c0.3-0.7,0.8-1.2,1.5-1.6
	c0.7-0.2,1.3-0.4,1.9-0.9c0.3-0.4,0.2-1,0.4-1.4c0-0.9-0.1-1.8-0.2-2.8c-0.5-1.1-1.2-2.2-1.7-3.3c-0.1-0.6-0.2-1.2-0.6-1.7
	c-0.2-1-0.6-2-0.4-3c0.1-0.4,0.4-0.9-0.1-1.1c-0.3-0.4-0.9-0.7-0.7-1.2c0.1-1-0.3-1.9-0.4-2.8c-0.1-0.5-0.2-1.1-0.3-1.6
	c-0.2-0.7-0.6-1.1-0.1-1.5s0.2-1.6,0.3-2.2c0.2-0.6,1.2-1.3,1.8-1.3s0.8-1.2,0.7-1.6s-0.3-1.6,0.1-1.8c0.3-0.2,1.1-0.1,1.5-0.3
	s1.2-1,1.2-1.8c-0.1-0.7-0.2-1.6,0.5-1.7s1.8-1.1,1.4-1.9c-0.4-0.8-1.3-2.3-1-3s0.7-1.5,1.8-1.5s3.3-2.5,4-3s1.5-1.9,2.3-1.9
	c0.9,0,1.4-0.3,1.5-0.7c0.1-0.4,0.5-1.3,1.1-1.1c0.6,0.2,1,0.1,1.2-0.3c0.1-0.4,0-1.2,0.3-1.2s0.6-0.8-0.3-1
	c-0.8-0.2-2.1,0.1-2.4,0.3c-0.3,0.2-2-0.2-2.3,0.1c-0.3,0.3-0.7,0.5-1.4,0.2s-1.4-0.3-1.3-0.8c0.1-0.5,0.6-0.4,0.4-0.9
	c-0.2-0.5-0.1-0.9-0.5-0.7c-0.4,0.2-1,1-1.2,0.8c-0.3-0.2-0.5-0.6-0.8-0.3c-0.3,0.4-0.5,1-1,1.2c-0.6,0.2-1.1,0.1-1.2,0.3
	c0,0.2-0.2,0.8-0.5,0.8s-3.6-1.2-3.8-1.1c-0.3,0.1-1.5,0.3-1.6,0s0.5-0.7,0.7-1.2s1-1.7,0.8-2.6s0.2-2.3-0.5-2.5
	c-0.6-0.2-1.8-0.8-1.6-1.4s0.6-1.4,0.8-1.9c0.3-0.5,1.8-1.8,2-2.1c0.2-0.3-0.2-0.4-0.3-0.8s-0.1-1.5,0.2-1.9c0.3-0.3,0.2-1,1.1-1
	c0.9,0,0.9-0.5,1.2-0.6s1.1-0.1,1.5-0.6s0.8-1.8,1.2-2.1c0.4-0.2,1.4-0.4,2-0.2c0.6,0.1,1.1-0.5,1.4-0.5c0.3-0.1,1.3-0.2,1.3-0.4
	s-0.8,0.1-0.9-0.4c-0.1-0.5,0.1-1,0.4-0.9c0.3,0.1,1.1-0.8,1.3-1.2c0.2-0.4,0.7-0.9,0.9-0.4c0.3,0.5,0.8,1,0.9,0.8
	c0.1-0.2-0.2-1.4,0.3-1.6c0.5-0.1,2-0.5,2.9-0.7s2.8-0.6,3.1-1.1s1.7-1.3,2-1.7s0.2-1.2,0.9-1.3c0.7-0.2,1.3-1.5,1.9-1.5
	s3-1.4,2.8-1.9s-1.2-1.4-0.7-1.7c0.5-0.3,1.8,0,1.9-0.5c0.1-0.6-0.2-1.8-0.8-2s-1.2-0.9-0.7-1.2c0.4-0.3,1.6-1.9,2.2-1.9
	c-2.2-0.6-3.8,0.5-6.5,0.5c-2.6-0.1-5.1-2.1-7.7-1.7c-1.4-0.7-4.6,0.9-6.4,0.2c-3.8,1.2-0.5-4.2-4.9-2.2c-2.5,1.3-4.5,3.3-6.4,5.1
	c-1.8,2.3-4,4.1-7,2.8c-4.6-2.4-9.3,1.3-13.5,3c-2.7,1.2-5.4-0.3-7.7-1.3c-2.6,0.3-5.4-0.1-7.9,0.3c-3.4-1.8-3.8,1.6-6,3.3
	c-3.3,0.9-6.5,2.6-9.9,3c-2.5-1.3-3.3,6.5-5.1,2.7c-1.3-2.2,0.4-5.1-3-6c-2.6-0.1-6.4,0.1-7.4-2.9c-1.9-2.4-2.9-5.1-1.6-8.1
	c0.1-2.4,2.7-7.3-1-7.5C538.7,241,535,237.5,530.5,237L530.5,237z"/>
<path id="D295" class="st0" d="M261.7,381l-1.2,0.4l-2.2,1l-5,3.8l-7.3,6.6l-5.8,6.5l-5.1,7.5l-0.9,3.6l-2.8,5.6l-1.3,0.2l-2-0.9
	l-6.8-1.5l-6.4,0.9l-2.2-1.6l-5-1.5l-8.4,0.1l-4.3-1.4l-3.9-2.1l-2.7-1.8l-4,0.7h-3.5l-2.8-0.1l-9.7,0.8l-4,0.5
	c-3.3,0-5.2,0.5-8.3-1.1c0,0-0.9,2.8-1.1,3.6c-0.2,0.7-0.7,4.1-0.3,4.9s-0.3,3.5-0.3,3.5c-0.5,0.6,0,1.4-0.3,1.7
	c-0.2,0.3-0.9,1.5-1.5,1.7s0.5,0.8,0.8,1.4s-0.5,0.5-0.7,0.9s1,1.7,1.9,2.8c0.9,1.1,0.9,1.7,0.2,2.5c-0.7,0.7-1.7,0.8-2.3,0.9
	c-0.5,0-0.7,1.7-1.3,2c-0.6,0.4-3.3-0.7-3.5-0.4c-0.3,0.3,0.6,0.9,0.5,1.4s-1.7,0.5-1.7,0.8s0.1,2.6-0.2,2.6s-0.8-0.9-1.3-1.1
	s-2.7-0.1-2.7-0.1c0.5,0.9,0.2,1.6-0.5,2.5c-0.7,0.8,0.9,0.7,1.1,1.5c0.2,0.8-2.7,0.4-2.7,0.4c0.2,0.5,1.5,1.1,1,1.5
	c-0.4,0.4-2.3,0.2-3,0.2c-0.8,0-1.3,0.5-1.2,1.1c0.2,0.5-1.3,1.7-0.9,2.3c0.4,0.6,0.8,1.8,0.5,2.8s-1.6,1.8-0.6,2.1
	c1,0.3,1.8-0.2,2,0.5s-1.9,0.5-1,1.2s2.7,0.7,3.3,1.5c0.7,0.8-0.8,0.7-1.6,0.4c-0.8-0.3-1.1,0-1.8,1.1s-0.2,2,0.1,2.6
	c0.2,0.5-0.5,1.1-0.9,1.7s0.8,1.1,0.2,1.5s-1.5-0.8-2.6-0.8s-0.5,1.1,0,1.5s-1.1,1.1-2.1,1.1s-3-0.5-3.8,0s-0.4,2.4,0,2.4
	c0.4,0,0.5-1.2,1.4-1.1s1.6,1.1,1.9,1.8c0.3,0.7,1.6,1.8,1.5,2.3s0.1,2.6-1.2,2.4v0.2c0.1,0,0.2,0,0.3-0.1c0.1,0,0.2,0,0.2,0
	c1.2,0.6,2.7,1.5,3.8,0.5c1.6,0.1,3.1,1,4.5,0.6c2.1,1.1,4,1.2,6.3,1.8c1.4-0.7,3.1-0.2,4.7-1.2c2.3,0.4,3,3.3,5.2,4.4
	c1.9,1.2,4,2.3,5.7,3.6c2.4,0.6,4.9,0,7.2,0.9c1.9-0.9,3.2,1.7,4.7,2c1.3,0.3,4.1,1,5.9,1.7c1.4-0.6,3.6,1,4.1-1.1
	c0.8-1.7,3.5-1.2,5-2.1c1.9-0.6,4-0.7,5.4-2.1c1.2-0.5,2.4-1.4,3.1-1.3c1.6,0.4,1.4-0.8,2.9-0.6c1.7,0.2,3.6-0.1,5.4-0.1
	c1.1,0,2-0.9,2.5,0.1c0.4,0.6,1.1-0.1,1.4-0.2c0.8,0.5,2.8,0.9,3.8,0.2c0.4,0.5,1.1,0.3,1.3-0.4c0.6,0,0.8,0.2,1.1-0.1
	c0,0.4,1,0.3,0.9,0.1c0.5-0.9,0.7,0.1,1.5-0.3c0.4,0.3,1.6-0.6,2.1,0.1c0.6,0.1,1.2,0.3,1.2-0.2c1.4-0.2,2.4,1.2,2.7-0.3
	c0.3-0.2,0.3,1.7,0.7,0.9c0.3,0.5,0.6-0.5,0.9-0.1c1.2,0.5,2.1,0.4,3.8,0.5c2.1-0.7,3.4,0,2.9-2.1c1-0.2,0.9-1.5,0.9-2
	c0.5-0.4-0.2-2.4,0-2.4c0.9,0.1,1.9,4.6,2.1,5.4c0.1,0.7,1.3,2.6,1.6,2.9c0.8-0.1,0.9-0.1,1.2-0.8c0.6-0.1,0.3-1.8,1.1-1.9
	c0.7,0.2-0.9,1.3,0.4,1c0.7,0,1.3,0,2-0.4c1-0.3-0.5,1.3-1,1.3c0.2,0.7,0.6,2.3,1.6,1.1c0.9,0,1.1,0.8,1.5,1.1
	c0.5,0.3,1.8,1.6,1.9,0.2c-0.5,0,0.2-2,0.4-0.9c0.5,0.9,1.5,0.4,1.5-0.3c-0.1-1.6,2.3-0.9,2.5,0.1c0.9,0,2-0.4,2.1,0.7
	c-0.2,0.7,0.8,1.2,1.1,0.9c0.4,0,0.5,1.4,1,0.1c0.5,1.3,4.6-0.1,2.3-1.1c-1-0.4-1.8-1-2.4-0.1c0-0.5-0.2-0.9,0.2-1
	c-0.1-0.7,1.7,0.3,1.4-0.8c0.5-0.6,0.7-0.3,0.5,0.4c0.7,1,1.8,0.2,2.3,0.8c1.3-0.9,4.3,0.1,3.5-1.8c0.7-1.6,3.1-2.2,4.2-2.5
	c0.4,0.3,0.8-0.4,0.7,0.4c0.7,0.6,2.4-0.8,2.8-0.2c0,1.4,1.9,1.6,2.5,2.2c-0.8,1.7,1.6,1.4,2.5,2.3c1.3-1.2,0.9,0.2,2.3-0.2
	c1.2,1.1,3.6,0.8,5.3,1c1.6,1,3.7,0.8,5.3,0.4c1.8,0.1,3.6-0.7,5.3-1.8c1.3,0.8,3.6-0.4,3.9,0.3c0.8,0.3,2.2,0.3,3.1,0
	c1.2,0.2,2.4-0.3,3.8,0.2c1-0.8,3-0.7,4.2-1.3c1-0.4,1.3-1,2.4-0.8c1.1,0.1,2,0.1,2.8-0.3c-0.2,0.6,1.1-0.4,1.3-0.5v-0.1
	c0.1-1.4,0.3-2.9,0.4-4.3c-0.1-0.9-0.5-1.7-0.7-2.6c-0.8-0.2-1.5-0.5-2.3-0.7c-0.3-0.4-0.5-1-0.8-1.5c-0.1-0.6-0.7-0.7-1.2-1
	c-0.7-0.1-0.6-0.7-0.6-1.2c0.3-0.5,1.1-0.8,0.8-1.5c-0.1-0.5-0.2-1.1,0.5-1.3c0.6-0.2,0.8-0.7,1.1-1.2c0-1-0.1-2-0.2-3
	c-0.3-0.6-0.8-1.2-1.2-1.8c-0.4-0.7-1-1.1-1.6-1.5c-0.4-0.4-1-0.6-1.6-0.6c-1.2-0.1-2.3-0.7-3.4-1.1c-0.7-0.1-1-0.8-1.5-1.3
	c-1-1-1.4-2.4-2-3.6c-1.1-1-2.4-1.9-3.6-2.9c-2.1,0.2-4.2,0.6-6.2,1c-1.6-0.1-3.2-0.4-4.8-0.2c-0.5-0.6-1-1.3-1.2-2
	c-1.2-0.8-2.4-1.6-3.2-2.8c-0.1-2.1,0.1-4.2-0.1-6.2c-0.7-0.9,0-1.9,0.3-2.9c0.7-0.9-0.3-1.6-0.8-2.3c-0.7-0.3-1.7,0.2-2.5-0.2
	c-0.9-0.4-1.8-0.1-2.7-0.3c-1.1,0.1-0.8-1.4-1.8-1.6c-1.2-1-2.8-0.3-4.1-0.8c-1-0.5-1.7,0.5-2.5,0.9c-1.1,0.1-2.4-0.3-3.5-0.4
	c-1.1,0-2.2-0.5-2.9-1.3c-0.3-1-1.6-1.5-2.4-2c0.1-0.7,0-1.8,0-2.2c0.1-0.7,1.2-1.9,2.1-1.9s1.5-0.8,1.5-1.4s-0.6-1.6-0.2-2.3
	c0.4-0.7,1.8-1.9,0.7-2.5c-1-0.6-2.1-2.6-2-3.2s1.6-2.4,1.5-3s-0.9-1.1-1.6-1.1s-1.5,0-1.2-0.5s1.4-1,1.4-1.6c0,0,0.4-0.7,1.6-0.2
	c1.2,0.6,1.3,1.5,2.2,1.5c0.8,0,0.4-0.9,0.7-1.3c0.3-0.4,2.1-1.3,2.7-1.3s1.7-1.1,1.4-1.6c-0.2-0.5-2.8-0.5-3.2-0.1
	s-1.1,0.6-1.1-0.1c0-0.6-0.2-1.7,0.3-2c0.5-0.2,2.4-0.2,2.4-0.8s0-1.2,0.5-1.3c0.5-0.2,1.1-0.3,1.1-0.9s-0.3-1.1-1-1.1
	c-0.6,0-0.8-0.7-0.5-1.5c0.4-0.8,1.3-1.5,1.2-2.1c-0.1-0.6-1.7-1.4-1.7-1.9s0.2-1.3-0.3-1.7c-0.5-0.4-0.5-0.7-0.5-1.2
	s0.2-1.4-0.4-2.2c-0.6-0.8-0.4-0.9-1.3-1.1s-1.8-0.9-1.6-1.3c0.1-0.5,0.4-1-0.3-1.2C261.8,381.8,261.7,381,261.7,381L261.7,381z"/>
<path id="D801" class="st0" d="M62,371.5l-1,1.9l-0.5,2.2l-1.6,0.8l-2.5,0.3l-1.9,0.5l-2,0.2l-1.5,1.3l-2.5-0.2l-2.1,0.2l-3.4,0.8
	l-4.6,0.4l-2.2,2.2l-0.9-0.1c-1,1.3-1.4,1.7-2.8,1.5l-0.1-0.1c-1,0.2-1.8,1-2.8,1.1c0.3,1.1,1,2.1,1.3,3.3c0.2,1,1.2,1.9,0.8,2.9
	c-0.2,0.9-0.3,1.9-0.8,2.7c-0.9-0.3-0.8,0.6-0.5,1.2c0.4,0.7-0.5,1.3-1,1.4c-0.6,0.3-0.3,0.8-0.4,1.4c0.3,0.3,0.3,0.9,0.3,1
	c-0.4,0.8-0.1,1.8-0.3,2.7c0.6,0.1,0.9,0.4,0.7,1c-0.3,0.5,0.3,1-0.4,1.3c-0.7,0.6-0.6,0.1-0.9,0.9c-1.7,1.7-2.7,3.8-3.7,5.9
	c-0.3,1.3-0.4,2.8-1.2,4c-0.6,1.3-1,2.7-0.5,4.1c0.8,0.2,0.2,1.6-0.1,2.3c-0.5,1.1-0.3,2.3-1.1,3.2c-0.6,0.8-0.5,1.9,0,2.7
	c0.1,1.8-0.4,3.7,0.3,5.4c0,0.7,0.2,1.9,1.1,1.6c0.6,1.8,1.1,3.7,2.4,5.1c0.4,0.7,1,1.6,1,2.3c0.7,0.6-0.1,1.7,0.3,2.4
	c-1.1,0.2-0.9,1-1.2,1.7c-0.1,0.5-1.8,1.1-1.1,1.5c0.8,0.2,1.3,0.3,2,0.7c0.9-0.1,1.3,0.3,2,0.5c0.1,0.7,1.2,0,1.7,0.5
	s1.2,0.8,1.8,0.4c0.9-0.5,1.9,0.3,2.8,0.1c1.1,0.9,2.4-0.3,3.5-0.2c1.4-0.8,2.1-2.4,3.3-3.4c0.9-0.8,1.8-2.2,3.2-1.7
	c0.8,0.2,1.5,1,2.5,0.8c0.8,0,1.2,1.1,2.2,0.8c0.8,0,1.3,0.5,2.1,0.5c0.5-0.3,1-1.8,1.6-1.1c0.1,0.7,0.3,1.7,0.6,2.4
	c0.7,0.8,0.4-1.2,1.3-0.4c0.6-0.5,1.1-1.5,2.1-1.7c0.7,0.3,1.3-0.7,2-0.1c0.9,0.8,2.2,1.2,2.6,2.5c0.7,0.9,0.1,2.1,0.5,3.1
	c1.5,0,2.8,1,4.3,1c0.2-0.3,0.5-0.3,0.8-0.5l0,0l0.5-3.1l1.4-3.2c1.1-0.6,3.4-2.4,3.4-2.4l4.2-1.6l31.3-4.8l5.3-52.5l-2.2-0.1
	c-0.5,0.3-1.8-0.6-2.8-1s-1.6,0.2-1.7,0.6s-1.2,1.3-1.5,0.6c-0.3-0.7-0.8-2.4-1.2-2.3c-0.4,0.1-1.6,2-1.7,2.2s0.9,1.4,0.8,1.7
	c-0.1,0.3-2.3-0.1-2.7,0.1c-0.3,0.2,1,0.7,0.3,1.1s-1-0.1-1.5,0.1c-0.4,0.2-1.8,1.6-2.7,1.7c-0.9,0.1-1.4,0.1-1-0.3
	c0.3-0.4,1.2-0.2,1.2-0.8c0-0.6-0.1-1,0.2-1.3c0.3-0.3,1.3-1.7,0.6-2s-1.5,0.4-2.1,0.2c-0.6-0.2-2.2-0.9-2.5-1.9s-0.9-2.8-1.5-3
	c-0.5-0.3-1.7-1.3-2.1-1.3c-0.3,0-1.2,0.7-1.5,0.5c-0.3-0.3-2.7-2-3.4-2.1s-1,0.8-1.5,0.6c-0.5-0.2-1.1-0.9-1.5-0.9
	c-0.5,0-1.6,0.2-2.1,0.3c-0.4,0.1-1.3-1.2-1.9-1.2s-2.2,0-1.9,0.6c0.3,0.5,0.7,1.2,0.6,1.7s-0.4,1.6-0.9,1.7s-1.9,0.3-1.5-0.6
	s1.2-2.4,0.6-2.8s-1.8,0-2.3-0.6s-0.6-0.9-1.2-1.1c-0.6-0.1-2.3-1-2.1-1.4l-0.2-0.2v0.1l-0.9,1.1l-1.7-0.5l-1.5-0.7L62,371.5z"/>
<path id="D804" class="st0" d="M457.9,394.2c-0.1,0-0.3,0.1-0.4,0.4c-0.4,1.1-0.3,2.4-0.8,3.5c-0.9,1.8-1.7,3.7-3.2,5.1
	c-0.7,0.8-1.7,1.6-1.5,2.7c-0.7,0.9-1.9,1.3-3,1.6c-2.2,0.2-4.2,1.1-6.4,1.6c-1.3,0-2.7-0.2-4-0.4c-1.1-0.1-2.1-1-3.2-1.2
	c-0.7,0.2-1.4,0.3-1.8,0.2c-0.9,0-1-0.1-1.7,0.1c-0.6,0.2-2.1-0.4-2.5-0.4s-1.9,0.9-2.4,1.1c-0.5,0.3-1.5,0.6-2,0
	c-2.4,0.3-3.8,0.9-6.2,1.4c-1.7,0.5-3.4-0.5-5-0.8c-1.5,0.1-2.9,0.6-4.2,1.3c-1.3,0.8-3,0.2-4.4,0.8c-1.3,1.2-2.9,1.4-4.5,1
	c-1.4,0-3.3,0.3-3.2,2.1c-1,1.5-3,0.8-4.4,0.7c0.1,0.8,0.1,2.3-0.2,3.3c0.6,1.5-1.7,2.9-2.9,1.9c-1.3-2.4-2.7-4.8-4-7.3
	c-0.9-0.2-2.5-3.5-3-4s-1.5-1.8-1.9-1.4c-0.3,0.4-0.9,4.1-1.2,4.1c-0.3,0-2.5-0.3-2.8-1.9c-0.3-1.5-1.3-2-1.9-1.9s-1.2,1.5-1.7,1.2
	s-2.4-0.9-2.9-0.5s0.3,1.1-0.4,2c-0.7,0.9-2.2,1.5-2.6,0.6s0.9-2.8,0.6-3.3s-1.7-1-2.2-0.9s-3,1.4-3.8,2.2s-2.4,1.1-3.3,1.2
	s-4,2.2-4.5,2.7s-2.7,0.7-3,1c-0.3,0.2-1,3-0.3,3.3s1.7,1.9,1.5,2.2c-0.2,0.2,0,2.1,0.8,2.3c0.8,0.2,3,0.1,3.6,0.2
	c0.6,0.2,1.6,1.9,1.7,3c0.1,1-0.7,0.8-1.2,0.9s-0.3,1-0.9,1c-0.5,0.1-1.3-0.5-1.7-0.1c-0.4,0.4-3,2.5-4,2.5s-1.8,1.2-2,1.9
	c-0.2,0.8-1,1.3-1.8,1.8s0.2,1.5,0.2,2.1c-0.1,0.7-0.5,1.4-0.7,2s1.2,3.2,1.5,3.7c0.4,0.5,1.5,0.2,2.1,0.2c0,0-3.4,2.1-4.3,2.2
	s-2.7-0.6-3.3-1.9c-0.6-1.2-1.6-2.5-2.9-3.1s-3.1-1.1-3.6-0.6s-1,1.2-2.8,1.6c-1.7,0.4-3.5-0.2-3.9-0.1s-0.5,0-1.5-1.1
	c-1-1.2-1-1.3-0.7-1.7c0.3-0.4,0.3-1.4-0.3-1.4c-0.6,0-1.3,0.9-1.7,0c-0.3-0.8-0.5-3.4-1-3.8c-0.6-0.5-2.6-1.6-2.8-2.4
	c-0.1-0.8,1.2-1.7,1.2-2.4c0-0.6,0.3-2.1-0.4-2c-0.6,0.1-1.8,0.4-1.9-0.2l-2,2.9l-0.6,5.8l-1.2,4.3l-3.2-2.4c0,0-0.3,0.2-0.8,0.5
	s-1.2,0.6-1.9,0.7c-0.4,0.1-0.6,0-0.8-0.1c-0.2-0.1-0.3-0.3-0.4-0.5c-0.1-0.4-0.1-0.8-0.1-0.8l-3.3,0.6l-1.5,1.7l-3.8,1.8
	c0,0-1.1,1.2-2.3,2.4s-2.4,2.5-2.7,2.6c-0.3,0.1-1.7-0.1-3-0.3c-1.3-0.2-2.5-0.5-2.5-0.5l-4.8,4.1c1.6-0.1,3.2,0.1,4.8,0.2
	c2.1-0.4,4.1-0.9,6.2-1c1.2,1,2.5,1.9,3.6,2.9c0.6,1.2,1,2.6,2,3.6c0.4,0.5,0.7,1.2,1.5,1.3c1.1,0.4,2.2,1.1,3.4,1.1
	c0.6,0.1,1.2,0.2,1.6,0.6c0.6,0.4,1.2,0.8,1.6,1.5c0.4,0.6,0.9,1.1,1.2,1.8c0,1,0.2,2.1,0.2,3c-0.3,0.5-0.5,1-1.1,1.2
	c-0.7,0.2-0.5,0.8-0.5,1.3c0.2,0.7-0.5,1-0.8,1.5c0,0.5-0.2,1.2,0.6,1.2c0.5,0.2,1.1,0.3,1.2,1c0.3,0.5,0.4,1.1,0.8,1.5
	c0.8,0.2,1.5,0.5,2.3,0.7c0.2,0.9,0.6,1.7,0.7,2.6c-0.1,1.4-0.3,2.9-0.4,4.3v0.1l0,0c0.7-0.8,1.7,0.4,2.6-0.4
	c1.4,0.3,2.6-0.8,3.9-0.9c0.5-0.2,1.5-0.1,1.6-0.7c0.6,0.5,1.6,0.2,1.9-0.5c0.7,0.3,1.9,0,2.4-0.3c-0.1-1.2,1-0.1,1.7-0.3
	c0.9,0.1,1.5-0.1,2.3-0.2c0.7,0.1,1.3-0.4,1.4-0.4c0.5,0.3,1.7-0.6,2.2-0.5c0.7,0,1.3-1.1,2.2-0.5c1.2,0.1,2.7,0.4,3.5-0.4
	c-0.1-0.6-1.2-1.4,0.2-1.3c1-0.1,2,0.6,2.9,0.5c2.1-0.1,4.3-0.1,6.3,0.4c3.2,0.1,6.4,0.9,9.5,0c1.4-0.1,2.7-0.5,4,0.2
	c2.8,0.1,5.7-0.2,8.3-1c-0.6-0.9,0.3-1.1,1.1-0.8c1.9,0.2,3.8,0.2,5.8,0.4c0.7,0.2,1.4-0.1,1.9,0.5c0.9,0.3,1.8,1,2.8,0.3
	c1,0,2-0.7,2.7,0.2c0.1,0.7,2.2,0.3,2.2-0.7c1.2-0.2,1.9-1.3,3.1-1.4c1.1,1.5,3,1.8,4.6,2.3s0,0.9-0.2,1.6c-1.1,1.2,0.5,0.5,1.3,1.2
	c1.1-0.2,2.1,0,3.1,0.3c1-0.5,2.4-0.4,3.4-0.1c0.6,0.3,1.8,0.4,1.8,1.5c0.5,0.6,1.4-0.5,2.1,0.1c0.4,1.5,2.2,0.5,3.3,0.7
	c0.6-0.5,1.3-0.6,1.4,0.3c0.4,0.9,0.9-0.7,1.6-0.7c0.2-0.9,1.8-1,1.5,0.2c0.5,0.8,1.1,1.1,2,1.4c1,0.5,2.1,0.3,3-0.2
	c0,0,0.2-1.7-0.2-2.6c-0.4-1-1.8-0.8-2.6-1.5c-0.8-0.7,0.7-1.5,0.5-2.1s-2-0.8-3-1.6c-0.9-0.8-0.8-2.4-1.4-3
	c-0.7-0.7-0.3-2.5-0.5-3.4c-0.2-0.8-0.4-2.1,0.2-2.4s2.2-0.2,2.3-0.7c0.1-0.5,1.6-1.9,2.2-1.9s2.3,1.4,2.8,1.3s0.1-1.5,0.1-1.9
	s0.8-0.3,1.6-0.4c0.8-0.1,1.2-2.2,1.6-2.7s2.4-1.9,3.7-1.8c1.3,0.1,2.7,0.9,3.7,0.3s2.5-2.4,3.3-2.4s3.5,0.5,4.3,1.3
	s1.7-0.1,2.3-0.4c0.6-0.3,1.3,1.4,1.7,1.7s2.5,0.3,3.1-0.6s0.3-2.5,0.4-3c0.1-0.4,1.4-1.7,2.2-1.9c0.8-0.1,3.5,1.4,4,1.3
	c0.5-0.2,3.3-0.3,4.4,0.1s2.8,0.2,3.6-0.3c0.8-0.5,1.7-2.2,1.6-3c-0.2-0.8-0.4-1.6,0.4-2.3c0.7-0.7-0.4-1.2-0.7-1.6
	c-0.4-0.4,0.4-2.3,0.6-2.8s-0.6-1.4-1-1.7c-0.4-0.3,0.1-1.9-0.1-2.1s-2.9-0.2-3.3-0.6s-1-1.5-1.4-1.7c-0.5-0.2-0.5-0.8-0.3-1.6
	c0.2-0.8,2.7-4.5,3.1-5.4s-0.3-0.8-0.8-1s0.6-1.7,0.8-2.2c0.2-0.5,2.3-1.6,3-1.9c0.6-0.3,1-2.2,1.5-3s1.4-0.5,2.4-0.7
	s0.4-1.9,1.2-2.7c0.8-0.8,0.3-1.9,0.1-3c-0.2-1.1,0.2-3.7-0.1-4.5c-0.2-0.8-0.1-4-0.1-4.5s-1.8-5.1-1.8-5.1V398
	c-1.1,0.7-2.4,1.3-3.4,1.9l-0.1-2.9c-0.7-0.6-1.8-1.1-2.6-1.8C458.9,395.5,458.3,394.3,457.9,394.2L457.9,394.2z"/>
<path id="D293" class="st0" d="M167.3,263.8c-2.7,1.2-6-0.1-8.7,1.5c-2.2,0.9-5.1,1.8-5.5,4.5c-2.7-0.3-1.6,3.2-3.6,4.1
	c-4.5,1.2-8.9,2.7-13.6,3.1c-4.8,0.7-9.6,1.8-14.5,2.1c-0.6-2.8-2.8-1.4-4.8-0.8c-1.5,0.5-2.1,4.8-3.5,2.2c-0.4-2.7-2.4-2.6-4.6-2.4
	s-2.4-3.4-4.5-1c-1.3,2-3.6,0.2-5.4,1.2c-1.5-1.6-2.5,0.1-3.9,1.7c-0.2,2.4-1.9,2.5-3.7,3.1c-2.9,0.2,1.3,3.5-2.6,3.4
	c-0.9,2-2.4,1.4-4.3,2.3c-1.8,0.6-3.3,2.3-3.6,4.3c-1.5,1.7-3.1,2.4-5.2,1.3c-3-0.8-4.9,2.1-6.9,3.9c1.3,1.5,3.9,1.3,4.4,3.3
	c-0.5,1.9-2.1,3.4-3.4,4.8c-3.4-1.3-1.9,0.9-2.6,1.8c-1.7,1.1-3.6,1.4-5.7,1.5c-0.4,3.1-4,1.4-6,2.3c-2.8-0.6-1.9,2.5-0.3,3.3
	c0.7,2.3-0.9,5.4,0.7,7.6c1.4,1.8-0.8,3.6-2,4.8c-1.3,1.7-3.6,2.4-3.1,4.7c-1.7,1.6-4.3,1.9-6.4,0.7c-2-0.8-4.1-0.9-4.1,1.8
	c0.3,3.4,3.9,5.1,5.6,7.9c1.7,0.6,1.3,3.5,4,3.4c2.4,0.7,2.9,3.3,3.3,5.4c0.3,2.4,1.9,3.7,3.9,4.7c1.8,1.4,4.2,2.3,5.6,3.9
	c-0.3,2.6,2.1,2.9,4.1,3.4c1.7-0.9,3.1,0.7,4.4,2.3c2.4,1.5,0.3,3.3-1,4.5l-0.9,1.8l0.2,0.2c-0.2,0.4,1.4,1.2,2.1,1.4
	c0.6,0.1,0.6,0.5,1.2,1.1s1.7,0.2,2.3,0.6c0.6,0.4-0.2,1.8-0.6,2.8c-0.4,0.9,1,0.7,1.5,0.6s0.8-1.2,0.9-1.7s-0.2-1.2-0.6-1.7
	c-0.3-0.5,1.3-0.6,1.9-0.6s1.5,1.3,1.9,1.2c0.4-0.1,1.6-0.2,2.1-0.3c0.5,0,1.1,0.7,1.5,0.9c0.5,0.2,0.8-0.6,1.5-0.6s3.1,1.8,3.4,2.1
	c0.3,0.3,1.2-0.5,1.5-0.5s1.5,1.1,2.1,1.3c0.5,0.3,1.2,2.1,1.5,3s1.8,1.6,2.5,1.9c0.6,0.2,1.4-0.5,2.1-0.2s-0.3,1.7-0.6,2
	c-0.3,0.3-0.2,0.6-0.2,1.3c0,0.6-0.9,0.4-1.2,0.8c-0.3,0.4,0.1,0.4,1,0.3s2.3-1.5,2.7-1.7s0.8,0.3,1.5-0.1s-0.7-0.9-0.3-1.1
	c0.3-0.2,2.6,0.3,2.7-0.1c0.1-0.3-0.9-1.5-0.8-1.7s1.3-2,1.7-2.2c0.4-0.1,0.9,1.6,1.2,2.3s1.5-0.2,1.5-0.6c0.1-0.4,0.7-1,1.7-0.6
	s2.3,1.3,2.8,1l2.2,0.1l-5.3,52.5l-31.3,4.8l-4.2,1.6c0,0-2.3,1.8-3.4,2.4l-1.4,3.2l-0.5,3.1c0.5-0.2,0.9-0.7,1.3-0.1
	c0.9,1,2.2,1.2,3.4,1.8c0.3,0.5,0.7,0.9,1.3,1.1c0.8,0.6,1.8,0.9,2.6,1.4c1.1,0.4,2.2,0.1,3.2,0.3c0.8,0,1.9-0.5,2.4,0.2
	c0.3,0.7,0.6,1.5,1.3,1.8c1.1,0.7,2.2,1.3,3.1,2.2c1.1,0.5,2.1,1.3,3.4,1.2c1,0,1.9,0.7,2.8,1.1c0.4,0.4,1.1,0.8,1.5,1.3
	c1,0.6,1.9,1.2,3,1.4c0.7,0.5,1.2-0.3,1.9-0.3c1.6-0.2,3.2,0.4,4.8,0.3c1.9,0,3.7,0.1,5.6,0.3c0.8,0,1.8-0.2,2.4,0.4
	c1.2,0.4,2.4,1.2,3.6,1.6c0.9-0.3,0.9,0.5,1.5,0.8c0.5,0.5,1.3,0.2,1.9,0.4c0.6,0.2,1.6-0.3,1.8,0.6c0.6,0.2,1.1,0.7,1.7,0.8
	c0.2-0.3,1-0.3,1.3,0c0.7,0.2,0.4,1.1,1,1.2c0.7,0,0.9-1,1.6-0.9c0.7-0.5,1.7,0.1,2.5,0.3c0.9,0.1,1.6,0.9,2.6,0.8v-0.2
	c1.2,0.2,1-1.9,1.2-2.4s-1.2-1.6-1.5-2.3c-0.3-0.7-1-1.7-1.9-1.8c-0.9-0.1-1,1.1-1.4,1.1s-0.8-1.9,0-2.4c0.8-0.5,2.8,0,3.8,0
	s2.7-0.7,2.1-1.1c-0.5-0.4-1.1-1.5,0-1.5s2,1.2,2.6,0.8c0.6-0.4-0.5-0.9-0.2-1.5c0.4-0.6,1.1-1.2,0.9-1.7c-0.2-0.5-0.8-1.5-0.1-2.6
	s1-1.4,1.8-1.1s2.3,0.4,1.6-0.4s-2.4-0.8-3.3-1.5c-0.9-0.7,1.2-0.5,1-1.2s-1-0.2-2-0.5s0.3-1.2,0.6-2.1c0.3-1-0.1-2.2-0.5-2.8
	c-0.4-0.6,1.1-1.8,0.9-2.3c-0.2-0.5,0.4-1.1,1.2-1.1s2.6,0.2,3-0.2c0.4-0.4-0.9-1-1-1.5c0,0,3,0.4,2.7-0.4c-0.2-0.8-1.8-0.7-1.1-1.5
	s1-1.6,0.5-2.5c0,0,2.2-0.1,2.7,0.1s1,1.1,1.3,1.1s0.2-2.2,0.2-2.6c0-0.3,1.6-0.3,1.7-0.8c0.1-0.5-0.7-1.1-0.5-1.4
	c0.3-0.3,2.9,0.8,3.5,0.4s0.8-2,1.3-2s1.6-0.1,2.3-0.9c0.7-0.7,0.8-1.4-0.2-2.5c-0.9-1.1-2.1-2.3-1.9-2.8c0.2-0.4,1-0.4,0.7-0.9
	c-0.3-0.6-1.4-1.2-0.8-1.4c0.6-0.2,1.3-1.4,1.5-1.7c0.2-0.3-0.3-1.2,0.3-1.7c0,0,0.7-2.8,0.3-3.5s0.1-4.2,0.3-4.9
	c0.2-0.7,1.1-3.6,1.1-3.6c3,1.6,4.9,1.2,8.3,1.1l4-0.5c0,0,0.6-6.4,1.6-7.2c1-0.8,2.3-3.7,2.5-4s-0.1-3.7-0.4-3.9
	c-0.3-0.3-1-5.4-1-5.4l-1.3-5.7l0.9-12.5l1.3-2.7l1.3-5.4l3.9-10.1l0.1-2l2.3-4.1l-0.9-2l-8-11.9c-0.7-2-1.9-1.5-2.9-2.1
	c-0.1-2.2,0.3-4.5-2.4-5.4c-0.6-1.7,0.2-5-2.7-5.7l-8.8,0.1l-0.5-0.6l0.9-6l1.8-1l4.7,0.2l3.1-0.8l1-1.6l-0.4-6.8l8.2-14l0.7-7.5
	c0,0,1.5-3.5,2.1-4.5c0.7-1,1-4.9,1-4.9c-2.5-0.1-3.2-1.8-4.1-3.8C170.8,265.3,168.7,264.2,167.3,263.8L167.3,263.8z"/>
<path id="D299" class="st0" d="M674.5,330.3c-0.4,0-1.1,0.4-2.2,1c-2.1,0.5-1.7,2.7-3.5,3.2c-1.9-0.1-3.5,0.4-5,1.4
	c0,0-2.4,1.7-3.3,1.5c-0.9-0.2-1.7-0.5-2.5,0c-0.7,0.4-1.6,0.6-1.9,0.2c-0.3-0.4-0.3-1.2-1.4-1c-1.1,0.1-1.2,1.5-1.8,1.7
	s-1.8,0.3-2.1,0.5c-0.3,0.3-1.9,0.6-2.8,0.6c-0.9,0-1.8,0.4-2.1,1s-2,1-2.5,0.9s-3.6-1-4-0.8c-0.4,0.3-2.6,0.6-2.7,0.8
	c-0.1,0.3-0.8,1.2-1.2,0.6c-0.3-0.6,0-2-0.5-2.2s-2-0.1-2.4,0.3s-1,1.9-1.4,2.4c-0.3,0.5-1.7,1.2-1.9,1.4s0.2,0.6-0.4,0.9
	c-0.6,0.3-1.7,0.9-2.2,1.4c-0.4,0.5-1.2,1.1-1.8,1.1s-1.5,0.7-2.3,1.5s-1.4,1.2-2,1.2c-0.5,0-1.1,0.8-1.1,1.2c0,0.4-0.4,0.8-0.8,0.9
	c-0.4,0-1.4,0.1-1.4,0.1l0,0c-0.8-0.2-1.6-1.6-2.2-1.5c-0.3,1-0.1,0.9-1.1,1.2c0,0,0.1,0.6,0.2,1c0.1,0.4,0.8,0.6,1.1,1
	s0.4,1.9,0.5,2.5s-0.5,1.7-1.2,0.6s-0.3-1.4-0.6-1.3s-0.3,1.4-0.6,1.7s-1.3,0.8-2,1s-0.9-0.3-1.4-0.9c-0.6-0.6-0.4,0.3-0.2,1
	c0.3,0.6,0.3,2.1,0.3,2.8c0,0.7,1,0.5,1.2,1.3s-0.9,1.3-1.8,1.8c-0.9,0.5-0.3,1.1-0.6,1.4s-1.4,0.9-1.7,1.5s-0.1,1.1,0.2,2.1
	c0.3,1.1-0.5,1.3-0.8,2.2c-0.3,0.9,0.4,1.8,0.4,2.6c0,0.8-1.5,2-1.5,2c-0.4,0.9-1.1,1.8-1.4,2.7c0,0.9-0.4,1.9,0.2,2.7
	c0.8,0.4,1.1,1.2,1.5,2c-0.9,2.2-2.1,4.3-3.2,6.5c-0.4,0.6-1.1,1-1.4,1.7c-0.2,0.8,0.3,1.7,0.4,2.5c-0.6,0.6-1.1,1.3-1.7,2
	c0.5,0,0.4,1.2,0.7,1.9c0.3,0.8,2.1,0.7,2.7,0.9c0.6,0.2,0,1.5-0.1,1.9s0.6,1.1,0.3,1.7s-1.5,2.7-2,3.1s-1.4,0.9-1.3,1.5
	c0,0.5,1.5,1.2,1.9,1.3c0.3,0.1,0.1,2.2,0.3,2.7s0.3,1,0.7,0.8s0.8-0.2,0.8,0.3c0,0.4,0.1,0.9,0.2,1.5c0.1,0.6,0.4,2.4,0.7,3.1
	s0.1,1.1-0.3,1.8c-0.3,0.7-1.5,0.9-2,1.1s-0.2,0.7,0.1,1.2s0.5,0.8,0.7,1.7c0.2,0.9,0.9,1.2,1.1,1.6c0.2,0.4,0.2,2.5-0.2,2.8
	c-0.3,0.3-0.1,1.3,0,1.6s0.2,1.2-0.2,1.4c-0.4,0.2-0.5,1.4-0.7,1.9c-0.2,0.4,0.4,0.5,0.9,0.4s0.4,1.4,0.6,2c0.2,0.6-0.1,1-0.3,1.2
	s-0.2,1.2,0.5,1.7c0.6,0.5,1.2,0.3,1.2,0.6c0,0.3-0.4,1.4-0.9,1.9s0.1,1.4,0.1,1.7c0,0.4-0.7,1.9-0.8,2.1s-1.4,0.8-2.2,0.8
	s-1.2-0.7-1.6-1c-0.5-0.4-2.8-0.1-3.3-0.9s-0.4-0.4-2-0.7c-1.6-0.3-1.6-0.8-2.2-1c-0.6-0.2-2,0.9-2.4,1.3s-1.2-0.4-1.2-1.2
	c-0.1-0.7-1.2-0.7-1.6-0.7s-1,0.7-1.8,0.7s-1.1,0.4-1.6,0.8s-2.5,1-3.2,1.2s-1.1,1.2-1.3,1.6c-0.2,0.5-2.4,1-3.1,1.2
	c-0.7,0.2-0.3,1.4-0.7,1.7c-0.4,0.3-3.9,3.9-4.2,5s-0.6,3.2-0.8,3.9c-0.2,0.7,1.4,2.3,1.2,3.2c-0.2,0.9,0.9,1.5,1.6,1.9
	c0.7,0.4,0.5,2,0.5,2.9s1.4,1.1,1.6,2c0.2,0.9,0.8,1.5,1.7,2.5c0.9,1.1,1.9,0.3,2.5,0.5s1.1,3.1,0.9,3.4c-0.2,0.3-0.9,1.5-1.6,1.6
	c1.6-0.3,2.4,2,3.9,1.4c0.4-1.6,2.1-0.6,3.1-0.6c0.2-1.5,3.1-1.2,3.8-0.8c0.8,0.2,2.2-0.8,3.5,0.1c1.7-0.5,2.4,1.5,4,0.8
	c1.7,1.3,4.1,1.1,5.7,2.3c1.6,0.8,3.2,1.9,4.9,2.7c1.1,0.1,2.3,0.5,2.2,1.5c0.9,0,2.4,0.8,0.9,1c-1.1-0.4,0.1,0.4-0.6,0.9
	c0,1.2,0.2,2.1,1.8,1.9c2.1,0.8-2.1-0.4-1,0.7c1.3,0.3,2.4,1.3,3.7,0.1c0.7,0.7,0.2,1.6,1.6,1.2c0.7-0.8,3.1-0.8,1.1,0
	c-1.6-0.1-0.3,1.6,0.7,0.8c-0.4,0.7-2.4,0.9-0.5,1.1c1.1,0.4,2.1-1.2,2.9,0c0.7,0.2,0.6,0.8,1.2,0.1c0.4,0.8-1.1,1,0.4,1.3
	c1,2.1,1.1-1.5,2.3-0.1c1.1,0.3,2-2,3.5-0.7c1.5,0.4,2.8,0.9,4.1,1.8l0,0l0,0c0,0-0.2-3.9-0.5-5.7c-0.2-0.9-0.1-1.4,0-1.8
	s0.3-0.7,0.4-1.1c0.1-0.4,0-0.9-0.2-1.5s-0.5-1.4-0.9-2.3c-0.2-0.5-0.3-0.9-0.3-1.2c0-0.3,0-0.6,0.1-0.9c0.1-0.6,0.4-1.1,0.4-1.9
	c0.1-0.9,0-1.3-0.2-1.6c-0.2-0.3-0.4-0.6-0.6-1c-0.2-0.4-0.5-1.1-0.7-1.8c-0.1-0.4-0.2-0.8-0.2-1.2c0-0.4,0-0.8,0.2-1.2
	c0.3-0.8,0.3-1.9,0.3-3.1s-0.1-2.4-0.1-3.2c0-0.9-0.2-2-0.6-3s-0.8-2-1.1-2.7c-0.4-0.6-1.2-1.4-2.1-2.3c-0.9-0.9-1.8-1.7-2.3-2.6
	c-0.5-0.8-0.8-1.7-1-2.5c-0.1-0.9-0.1-1.7-0.1-2.4c0.1-0.7-0.1-1.7-0.3-2.6s-0.5-1.9-0.6-2.7c-0.1-0.8-0.2-1.5,0.1-2.1
	c0.1-0.3,0.3-0.6,0.6-0.9s0.7-0.5,1.2-0.7s0.9-0.6,1.2-1s0.5-0.9,0.7-1.4c0.4-1,0.5-1.9,0.7-2.4s0.4-0.8,0.9-1.2c0,0,0.1,0,0.1-0.1
	c0.2,0.1,0.3,0.2,0.5,0.2c0.3,0.1,0.7,0.1,1.1,0.1c1.6-0.3,4.3-0.2,5.7-0.3c0.7-0.1,1.2-0.2,1.6-0.4c0.4-0.1,0.8-0.3,1.1-0.5
	c0.6-0.4,1.1-0.9,1.6-1.4c0.7-0.6,1.5-0.9,2.4-1.4c0.4-0.2,0.8-0.5,1.2-0.8s0.8-0.7,1.1-1.1c0.6-0.9,1.5-1.7,2.2-2.4
	c0.4-0.3,0.7-0.7,0.9-1s0.4-0.7,0.4-1.1s0.2-0.9,0.6-1.6c0.3-0.5,0.7-1.1,1-1.6c0.4,0.1,1.3,0.2,1.3,0.2s1.4-0.5,2.9-0.9
	s3.2-0.9,3.8-0.8c1.2,0.2,4.1,0.2,5.6,0.2c0.8,0,1.8-0.3,2.8-0.6c1-0.3,1.9-0.7,2.3-0.9c0.4-0.2,1.1-0.2,1.8-0.2s1.5,0.2,2.2,0.3
	c0.7,0.2,1.2,0.2,1.8,0.2s1.2,0.1,2.1,0.3c0.9,0.3,2,0.2,3,0.1s1.7-0.3,1.7-0.3h6.5c0,0,0.7,0.7,1.7,1.4c0.5,0.4,1,0.7,1.5,0.9
	c0.5,0.2,1,0.4,1.4,0.4c1.7-0.2,1.9,0,6.3,0c2.2,0,2.8-0.1,3-0.3c0.1-0.1,0.1-0.2,0.1-0.2c0-0.1,0.1-0.1,0.4-0.2
	c0.6-0.1,1.3-0.4,2-0.8s1.5-0.7,2.3-0.9c0.8-0.2,1.2-0.5,1.8-0.8c0.6-0.4,1.2-0.8,2.3-1.2c0.6-0.2,0.9-0.4,1.1-0.6
	c0.2-0.2,0.3-0.3,0.4-0.5c0.1-0.3-0.1-0.4-0.1-0.4s0.7-0.6,1.6-1.3c0.4-0.3,0.9-0.7,1.4-1s0.9-0.5,1.3-0.6c0.4-0.1,0.7-0.2,1-0.4
	c0.3-0.2,0.5-0.4,0.7-0.6c0.4-0.4,0.5-0.7,0.5-0.7l2.2-3.4l0.6-0.8l0.2-0.4c-0.4,0-0.7-0.1-0.7-0.4c0-0.6,0.8-3.4,1-3.8
	s1.1-2,1.4-2.6c0.3-0.6,2.4-1.3,2.4-1.3c1.4-1.8,2.1-0.9,3.8-2.3c1.8-0.3,2.9-1.5,4.5-2.1c2,0,2.6-2.9,4.1-3.9c0,0,1.5-0.3,1.7-0.6
	c0.2-0.3,0.6-0.5,1-0.7s-0.4-1.6-0.2-2c0.1-0.4,0.5-1.9,0.7-2.3c0.2-0.3,0.1-1.2,0.2-1.5c0.1-0.2,2.3-1.1,2.6-1.3
	c0.3-0.2,0.2-1.7,0.4-2s0.9-0.6,1.5-0.6c0.3-0.8,0.3-1.7,0.2-3.3c-0.8-1.5-2.7-2.8-4.1-1.2c-1.9,1-2.5,3.1-3.5,4.9
	c-1.5,0.9-3.3,0.6-4.9,1.3c-2-0.2-1.7,2.6-3.6,2.6c-1.8,1.2-3.1-0.1-4.3-1.1c-1.9,0.6-2.6-1.3-4-2.2c-1.5-1.5-0.4-3.7-1.7-5.3
	c-0.4-1.4-0.6-3.4-0.1-4.8c0.7-2-2.5-1.4-3.6-1.9c-1.3-1.3-3.3,0.3-4.9-0.8c-1.7-1.3-3.3,1.2-4.7-0.5c-3.6-2-3.5-6.8-5.6-9.9
	c-0.8-1.9-2.2-3.4-3.7-4.7c-0.8-2-3.2-0.9-4.6-2.2c-2-0.4-2.9-0.4-4.5-0.5c-0.7-1.4,0.3-3.6-1.2-5c-1.2-1.8,2.5-1.4,3-2.9
	c0.1-0.9-1.8-3.8-3.4-2.9c-1.5,0.7-4.1,0.4-3.8-1.7c2.3-1.1-1.5-1.8-2.5-1.5c-1.5,0.4-3.6,0.6-4.6-0.7
	C674.8,330.8,674.8,330.4,674.5,330.3L674.5,330.3z"/>
<path id="D296" class="st0" d="M371.9,303.2c-1.1,1.4-3,2-3.8,3.8c-1,0.8-2.3-0.3-3.4-0.4c-1.2-0.9-2.8-1.3-4.2-1
	c-1.4,0.3-2.4,1.3-3.7,1.9c-1.9-0.3-3.1,1.5-4.2,2.8c-3.5,0.2-7.1,0.2-10.6,0.6c-1.1,0.4-2.4,0.4-3.4,1c-0.3,1.6-1.5,1.1-2.4,0.3
	c-1.2-0.7-2.2-1.5-0.3-1.8c1-0.5,1.6-1.6,2.9-1.3c1.5,0,1.5-1.2,1.9-2.3c0.5-1,1.6-2.6-0.2-1.4c-1.1,0.5-2.1,1.3-3.3,0.8
	c-1.1,0.1-2.6-0.9-3.3,0c-0.9,1.4-2.1,2.5-3.5,3.3c-1.2,0.8-2.6,1.6-3.4,2.9c-1.7,0.3-3.4,0.7-5.1,0.1l0,0c-0.6,0.8-1.8,0.9-2.1,1.9
	c-0.6,1-1.5,1.7-2.3,2.5c-0.8,0.5-1.4,1.3-2.1,1.9c-0.5,0.4-1.3,0.6-1.5,1.3c-0.3,0.9-0.6,1.8-0.9,2.7c-0.8,0.4-1.8,0.5-2.5,1.1
	c-0.6,0.5-1.1,1.3-2,1.4c-0.8,0.1-1.3,0.5-1.5,1.3c-0.5,0.6-0.3,1.4-0.2,2.2c0,0.5,0.4,0.9,0.6,1.3c1,0.4,1.8-0.5,2.7-0.4
	c0.8,1,2.1,1.5,3.3,0.9c0.8-0.6,1.8-0.4,2.5,0.2c0.5,0.4,1.9,1.4,1,1.9c-1,0.8-1.7,1.8-2.1,3c-0.3,0.9-0.9,1.6-1.7,2
	c-1.1,0.6-1.3,2-2.3,2.6c-0.9,0.8-0.7,2.2-1,3.3c0,1-0.6,1.7-1.3,2.3c-1.2,1-2.6,1.8-3.6,3c-1.1,1.1-1.4,2.7-2.5,3.8
	c-0.8,0.9-1.4,2-2.6,2.4c-0.6,0.7-0.2,1.9-0.8,2.7c-0.3,1.1-1.5,1.4-2.5,1.7c-1,0.1-1.8,0.5-2.3,1.4c-0.9,0.9-1.3,2.2-2.5,2.9
	c-0.7,0.6,0.2,2-0.6,2.6c-1.1,0.4-1.4,1.8-2.5,2.1c-0.8,0.5-1.8,0.1-2.4,0.9c-0.9,0.6-1.8,1.5-2.8,2c-1-0.2-1.9,0.1-2.7,0.7
	c-1.1-0.2-2.1-0.7-3.2-0.1c-0.8,0.4-2.3,0.2-2.1,1.4c0.2,1-1,1.9-1.7,1.2c-0.3-0.9-0.6-1.8-1.7-1.8c-1-0.6-0.7,1.4-1.8,1.5
	c-1.1,0.2-0.5,2-1.6,1.8c-0.7-0.3-0.9-1.6-1.4-2.3c-0.4-0.7-1.8-1.6-1.8-0.2c-0.3,1.2-1.5,2-1.4,3.3c-0.2,1-1.8,1.5-1.3,2.6
	c0.2,0.4-0.9,1-0.9,1.4c0,0,0.2,0.8,0.8,1c0.6,0.2,0.4,0.7,0.3,1.2s0.8,1.2,1.6,1.3c0.9,0.2,0.7,0.3,1.3,1.1
	c0.6,0.8,0.4,1.7,0.4,2.2s0,0.8,0.5,1.2c0.5,0.4,0.3,1.3,0.3,1.7s1.6,1.4,1.7,1.9c0.1,0.6-0.8,1.3-1.2,2.1c-0.4,0.8-0.1,1.5,0.5,1.5
	s0.9,0.5,1,1.1c0,0.6-0.6,0.7-1.1,0.9c-0.5,0.2-0.5,0.7-0.5,1.3s-1.9,0.6-2.4,0.8c-0.5,0.2-0.3,1.3-0.3,2s0.7,0.4,1.1,0.1
	c0.4-0.4,3-0.3,3.2,0.1c0.2,0.5-0.8,1.6-1.4,1.6c-0.6-0.1-2.4,0.8-2.7,1.3c-0.3,0.4,0.1,1.3-0.7,1.3c-0.8,0-1-0.9-2.2-1.5
	s-1.6,0.2-1.6,0.2c0,0.6-1.1,1.2-1.4,1.6c-0.3,0.5,0.5,0.5,1.2,0.5s1.5,0.5,1.6,1.1s-1.5,2.4-1.5,3c-0.1,0.6,1,2.6,2,3.2
	s-0.4,1.8-0.7,2.5c-0.4,0.7,0.2,1.7,0.2,2.3s-0.5,1.4-1.5,1.4s-2,1.2-2.1,1.9c0,0.4,0.1,1.5,0,2.2c0.8,0.4,2.2,1,2.4,2
	c0.7,0.8,1.8,1.3,2.9,1.3c1.2,0.1,2.4,0.5,3.5,0.4c0.8-0.4,1.5-1.4,2.5-0.9c1.4,0.5,3-0.2,4.1,0.8c1,0.2,0.7,1.7,1.8,1.6
	c0.9,0.3,1.9-0.1,2.7,0.3c0.8,0.4,1.8-0.1,2.5,0.2c0.4,0.8,1.4,1.4,0.8,2.3c-0.3,1-1,1.9-0.3,2.9c0.2,2,0,4.1,0.1,6.2
	c0.8,1.2,2,2,3.2,2.8c0.2,0.8,0.7,1.4,1.2,2l0,0l4.8-4.1c0,0,1.2,0.3,2.5,0.5s2.7,0.4,3,0.3s1.6-1.4,2.7-2.6
	c1.2-1.2,2.3-2.4,2.3-2.4l3.8-1.8l1.5-1.7l3.3-0.6c0,0-0.1,0.4,0.1,0.8c0.1,0.2,0.2,0.4,0.4,0.5c0.2,0.1,0.4,0.2,0.8,0.1
	c0.7-0.1,1.4-0.4,1.9-0.7c0.5-0.3,0.8-0.5,0.8-0.5l3.2,2.4l1.2-4.3l0.6-5.8l2-2.9c0.1,0.6,1.2,0.3,1.9,0.2c0.6-0.1,0.4,1.4,0.4,2
	s-1.4,1.5-1.2,2.4c0.1,0.8,2.2,1.9,2.8,2.4c0.6,0.5,0.7,3,1,3.8s1.1,0,1.7,0s0.6,0.9,0.3,1.4c-0.3,0.4-0.3,0.6,0.7,1.7
	c1,1.2,1.1,1.2,1.5,1.1s2.2,0.5,3.9,0.1c1.7-0.4,2.3-1.1,2.8-1.6s2.3,0,3.6,0.6c1.3,0.6,2.3,1.9,2.9,3.1s2.3,2,3.3,1.9
	c0.9-0.1,4.3-2.2,4.3-2.2c-0.7,0-1.8,0.2-2.1-0.2c-0.4-0.5-1.6-3.1-1.5-3.7s0.6-1.3,0.7-2s-1-1.6-0.2-2.1s1.6-1,1.8-1.8
	c0.2-0.8,1-1.9,2-1.9s3.7-2.1,4-2.5c0.4-0.4,1.2,0.2,1.7,0.1s0.3-1,0.9-1c0.5-0.1,1.3,0.2,1.2-0.9c-0.1-1-1.1-2.8-1.7-3
	s-2.8-0.1-3.6-0.2c-0.8-0.2-1-2-0.8-2.3c0.2-0.2-0.8-1.9-1.5-2.2s0-3,0.3-3.3s2.4-0.5,3-1c0.5-0.5,3.7-2.6,4.5-2.7
	c0.9-0.1,2.5-0.3,3.3-1.2c0.8-0.9,3.3-2.2,3.8-2.2s1.9,0.4,2.2,0.9c0.3,0.5-1,2.4-0.6,3.3s1.9,0.3,2.6-0.6s-0.1-1.5,0.4-2
	c0.5-0.4,2.4,0.2,2.9,0.5s1.1-1.1,1.7-1.2s1.6,0.3,1.9,1.9c0.3,1.5,2.4,1.9,2.8,1.9c0.3,0,0.9-3.7,1.2-4.1c0.3-0.4,1.4,0.9,1.9,1.4
	s2.1,3.9,3,4c1.4,2.4,2.8,4.8,4,7.3c1.2,1,3.5-0.4,2.9-1.9c0.2-1,0.3-2.5,0.2-3.3c1.4,0.2,3.5,0.9,4.4-0.7c-0.1-1.8,1.8-2.1,3.2-2.1
	c1.7,0.4,3.2,0.2,4.5-1c1.4-0.7,3.1-0.1,4.4-0.8c1.3-0.7,2.8-1.2,4.2-1.3c1.7,0.3,3.3,1.2,5,0.8c2.4-0.5,3.8-1.1,6.2-1.4
	c0.5,0.6,1.5,0.2,2,0c0.5-0.3,2-1.1,2.4-1.1s1.9,0.6,2.5,0.4s0.8-0.1,1.7-0.1c0.4,0.1,1.1,0,1.8-0.2c1.1,0.3,2.1,1.2,3.2,1.2
	c1.3,0.1,2.7,0.4,4,0.4c2.1-0.5,4.2-1.4,6.4-1.6c1.1-0.3,2.3-0.7,3-1.6c-0.1-1.1,0.9-1.9,1.5-2.7c1.5-1.4,2.3-3.3,3.2-5.1
	c0.5-1.1,0.4-2.4,0.8-3.5c0.4-1.3,1.1,0.8,1.9,0.9c0.8,0.7,1.9,1.1,2.6,1.8l0.1,2.9c2.6-1.5,6.2-2.6,6.8-6c1.1-2.6-0.1-6,3.5-6.7
	c2.4-1.4,4.4-5.1,7.6-3c2.9,0.6-1.6,1.9-0.1,3.8c1.5,1.1,0.2,4.9,3.3,4c2.6,0.2,5.3-0.4,7.9-0.6c3.2,1.2,6-1.4,8.4-3
	c2.4,2.2,6-0.4,7.2-2.8c1.6-2.7,1.6-5.9,2-9c0-1.2,0.1-2.1,1.5-1.4c1.1,0.1,2.2-0.7,3.2-1c1.7-0.7,3.6-1.2,5.3-2
	c0.4-1.2,1.9-0.5,2.6-1.2c1.2-1.9,3.1-3.2,4.6-4.8c0.5-1.1-0.6-1.9-0.5-2.9c0-1.1,0.3-2.1,1.2-2.6c0.9-0.6,1.4-1.4,1.3-2.5
	c0.1-1.1,0.7-2.1,0.6-3.2c-0.1,0-0.1-0.3-0.2-0.3l0,0c-0.3-0.2-0.3-0.5-0.4-0.8c0-0.8,1.4-0.9,1.3-1.8l3.4-1.1
	c0.5-0.5,0.6-1.5,0-2.1c-0.1-0.9,0.3-1.9,0.4-2.8c-0.4-1.1-1.2-2-1.7-3.1c-0.2-1-1.5-0.4-2-1.2c-0.1-0.8,0.2-1.8,0.2-2.7
	c0.2-0.8,0.2-1.6-0.5-2.2c-0.2-0.8-0.4-1.6-1-2.2c-0.8-0.3-1.8,0.2-2.7,0.4c-0.9,0-1.8-0.6-2.7-0.2c-1,0.5-1.3-0.7-0.9-1.4
	c0-0.5-1.4,0.3-2-0.3c-1.1,0.3-0.4-1.7-1.3-1.3c-1,0.6-1-0.9-1.4-1.5l2-2.3c0.3-0.8,1.5-0.9,1.5-1.7c0.4-1.2,1.3-2.3,1.9-3.5
	c0.8-0.8,0.3-1.9,0.3-2.8c-0.5-0.5-1.4-0.7-2.1-1.1c-0.9-1.1-1.6-2.5-2.5-3.7c-1.7-1.2-3.2-2.5-4.5-4c-0.5-0.9-1.7-0.7-2.6-0.9
	c-1.7-0.7-2,1.8-3.1,2.6c-2.2,2.1-5.3,2.9-8.1,3.4c-0.9-0.4-1.8-0.7-2.7-1.1c-2.1-0.4-4.3-0.5-6.4-1.2c-0.9-0.6-1.2,0.6-2.1,0.7
	c-1,0.3-1.8,0.8-2.4,1.6c-0.7,0.9-1.3-0.2-1.9-0.6c-0.1-0.3-3.6-1.4-3.9-1.4s-0.2,0.4-0.7,0.5s-3.4,0-4,0s-1.7,0.5-2,0.9
	c-0.3,0.3-1.1,0.8-1.2,0.3c-0.2-0.5-0.5-1.4-1-1.4c-0.4,0-1.4,0-2-0.1c-0.6-0.2-1.9,0.8-2.6,0.7c-0.6-0.1-1.2-0.4-2,0.1
	c-0.8,0.4-2.7,0.1-3,0.3c-0.3,0.2-1.2,0.8-1.3,1.1c0,0.3-1.1,0.2-1.2,0.5c-0.2,0.3-1.3,1.1-1.8,0.6c-0.4-0.5-1.2-1.6-1.3-1
	c-0.1,0.6-0.3,0.8-0.9,0.8c-0.6-0.1-3.8-0.2-4.1,0c-0.3,0.2-1.1,0.5-1.3,0.2c-0.2-0.3-0.7-0.9-1-0.4s-2.6,1.2-3,1s-1.3-0.5-1.7-0.2
	c-0.3,0.3-1.9,1.8-2.5,1.9s-1.1,0.2-1.4,0.6s-1.9,0.3-2.2,0c-0.4-0.3,0.8-1.4,0.3-1.7c-0.5-0.3-0.9-0.3-1.5,0.2
	c-0.7,0.5-2.4,0.5-2.7,0.1c-0.3-0.4-0.4-1-0.9-0.5s-2.3,1.2-2.3,1.2s-2.3,0.6-2.6-0.1c-0.3-0.8,0.5-2.2,0.3-2.6
	c-0.2-0.5-0.6-0.2-1.3,0.1c-0.7,0.2-4.7-1.3-5.2-1.2c-0.5,0.2-2.4,0.7-2.6,0.9c-0.1,0.2-2,0.7-2.8,0.1c-0.8-0.5-1.8-1.1-2.3-1.1
	s-1.2,0-1.6-0.8s-1.3-2.4-1.9-2.6s-2.2-1.4-2-1.7c0.2-0.3,0.6-0.5,0.5-1.4c-0.1-0.4,0-0.8,0.1-1.1c-0.8,0.1-2.6-1.2-2.8,0
	c0,1.2-0.7,1.9-1.5,2.7c-2,2.6-3.8,5.3-5.5,8.1c-1.5,2.9-3,5.8-5.1,8.2c-1.2,1-2.3,2.2-2.4,3.8c-1.9-0.3-4.2-1.2-5.8,0.3
	c-2.5,1.9-4.8,4.1-7.4,5.7c-0.7-1.5-2,0.5-3.1-0.6c-1.3-0.4-2.6-1.3-3.9-1.3c-1.9,1.1-0.5-1.1-1.5-1.7c-1-0.7-0.2-2.2-0.4-3.3
	c-0.1-1.1,0.2-2.4-0.1-3.5c-1-0.7-0.4-2-1.9-2.4c-0.9-1.2,1.1-1.9,0.7-3.2c-0.1-2.3,0.6-4.4,1.7-6.4c-0.9-0.9-0.7-2.1,0.1-3
	c1.1-0.8,0.5-2.2,1.6-2.9c0.8-0.9,1.9-1.7,0.7-2.8C372.1,305.7,372.7,304.2,371.9,303.2L371.9,303.2z"/>
<text transform="matrix(1 0 0 1 192.6689 366.1607)" class="textName">East Garo</text>
<text transform="matrix(1 0 0 1 206.6689 380.5607)" class="textName">Hills </text>
<text transform="matrix(1 0 0 1 658.006 462.4205)" class="textName">East Jaintia Hills </text>
<text transform="matrix(1 0 0 1 495.2276 427.358)" class="textName">East Khasi Hills </text>
<text transform="matrix(1 0 0 1 191.4684 309.0367)" class="textName">North Garo Hills </text>
<text transform="matrix(1 0 0 1 533.0763 297.8033)" class="textName">Ri Bhoi </text>
<text transform="matrix(1 0 0 1 169.6031 453.2007)" class="textName">South Garo Hills </text>
<text transform="matrix(1 0 0 1 35.4015 409.73)" class="textName">South West</text>
<text transform="matrix(1 0 0 1 40.1015 424.13)" class="textName">Garo Hills</text>
<text transform="matrix(1 0 0 1 365.3525 433.0464)" class="textName">South West</text>
<text transform="matrix(1 0 0 1 366.6525 447.4464)" class="textName">Khasi Hills </text>
<text transform="matrix(1 0 0 1 67.5553 347.5137)" class="textName">West Garo Hills</text>
<text transform="matrix(1 0 0 1 633.1613 380.9866)" class="textName">West Jaintia</text>
<text transform="matrix(1 0 0 1 655.4613 395.3866)" class="textName">Hills</text>
<text transform="matrix(1 0 0 1 350.1275 375.191)" class="textName">West Khasi Hills</text>
</svg>
