<?xml version="1.0" encoding="utf-8"?>
<!-- Generator: Adobe Illustrator 26.0.0, SVG Export Plug-In . SVG Version: 6.00 Build 0)  -->
<svg version="1.1" id="Layer_1" xmlns="http://www.w3.org/2000/svg" xmlns:xlink="http://www.w3.org/1999/xlink" x="0px" y="0px"
	 viewBox="0 0 800 730" style="enable-background:new 0 0 800 730;" xml:space="preserve">
<style type="text/css">
	.st0{stroke:#000000;stroke-miterlimit:10; cursor:pointer;}
	.textName{font-family:'Arial'; font-weight:bold; color:#000000; font-size:12px; cursor:pointer;}
</style>
<path id="D553" class="st0" d="M86.3,442.9l0.3-0.9l1.6,0.3l0.4-1.3l0.7-0.4l1.3,0.5l0.6,0.7l1.3,0.4l2.1,0.2l0.5,1.2l1.7-0.1
	l0.6-2.3l0.6-0.1l0.8-2.3h2.4l0.2-1.8l0.9-2.9l1.6,0.5l1.5-0.2l0.3-0.5l1.8,0.3l0.3,1.2l1.3,0.4v-1.6l2.4,1.2l1.6-1.3l1.7-0.3
	l1.3,1.4l2.3,1.1l0.7,1.1l1.1,0.6h1.2l0.3-2.3l1.5-0.2l0.4-1.6l1.7-1.1l1.1,0.2l0.2,1.1l1.7,2l-0.3,1.8l1.3-0.2l0.6,1.4l0.8,0.2
	l0.1,2.1l1.1,0.6l0.2,1.5l1.8,0.6l-0.1,1.1l1.6,0.8l0.5-1.1l1.1-1.1l0.4-1.5l1.7-0.2l0.1,1.3l2.6-0.4l0.4-0.9l0.6-3.3l1.2-0.1
	l1.4,0.6l0.4,2l1.7-0.5h1.7v1.8l2.3,0.3l2.1,2.2v2l-0.8,1.9l-1.6,0.8v1.9l0.5,0.7l1.1-1.4l0.3,0.8l0.2,2.5l2,2.6l1.3,0.6l2.3,1.4
	l1,1.2l1.7,0.3l1.2,1l0.2,1.1l-0.6,0.9l-1.4,0.9l-1.5,5.6v1.3l1.3,0.5l-0.4,3.1l-0.5,0.7l-1.4-0.7l-0.6,1.6l-1.8,3.6l1.6,1.9
	l0.7,0.3l-0.1,1.5l-0.8,2.1l1.3-0.1l1,0.5l0.3,1.4l0.8,0.9l1.1-0.3l0.7,0.4l0.3,1l-0.5,2.3v1.7l-0.8,2.2l-1.3-0.5l-1.1,0.4l-1.5,4.8
	l-1.8,1.6l-0.1,1.7l-0.5,0.9l-1.9-0.3l-2.7,0.1l-0.2-2l-1.6-1.9l-1.3,1.2l1.2,1.1l1.3,2.1l-0.2,1.1l1.5,2.5l2.1,2.2l1.1,1.7l1.1,0.8
	l4.5,4.9l3.2,3.6l3.2,1.9l1.9,1.3l1.4,2.1l0.8,0.8l3.2,1.1l0.8,0.7l2.7,1l2.6,0.2l4.7,0.8l-0.9,4.5l-0.3,3l0.4,0.5l1.4,0.4l-0.7,3.3
	l0.6,2l1.6,1.2l0.9,2.4l-0.2,1.7l-1.2,1.5l0.4,1.4l-0.5,2l-0.2,2.7l0.6,0.6l1.5,0.6l-0.4,1.8l-0.7,0.8l-2.3,0.9l-0.8,1.6l-1.3,1.1
	l-0.9,1.2l-0.9-0.2l-0.3-1.3l-1.8,2l-0.8-0.1l-0.5,1.7l-1.5,0.5l-1.1,1.3l-0.5,1.2h-1.3l-0.9,3.4l-1.5,0.8l0.7,1.9l0.1,2.7l0.5,1
	l-1.6,1.4l-0.9,0.3l-1.8-0.2L166,583l-3.5,0.6l-1.3-0.4l-0.8-2.8l0.7-1.9l-0.3-2l-0.6-1.3l-2.4-0.1l-0.3-1.8l-2.3-1.5l0.1,2.4
	l-0.4,1.1l-1.7-0.2l-0.8-0.8h-1.5l-0.3,1.3l-1.2,3l-1.4-0.5l-0.5-4.8l0.6-1.4l1.7-0.4l0.5-0.5l-0.3-3l0.4-2.4l-1.3-0.2l-0.8,2.3
	l-0.9,0.3l-0.7,1.6l-1.4,1.2l-1.7-1.5l-0.2-2.1l-1.9,0.5H139l-1.2-0.4l-0.6,1.4l0.4,2.4l0.8,0.6l0.5,3l-1.3,0.9l-0.6,1.2l-1.3,0.1
	l-1,0.8l0.5,1.2l-0.9,1.2l-3.2,0.7l-1.2,1.2l0.1,3.1l-0.2,2.4l-0.7,0.7l-0.5-3.2l-2.1,0.9l0.1-2.6l-1.6,0.2l-2.7,1.6l-0.1,1.4
	l1.6,0.6l0.2,0.6l-1.6,0.7l-0.9-1.5l-0.7-0.1l-1.1,1.3l-1.2,0.1l-0.8,1.3l-0.6-0.4l-0.7-2.4h-1.5l-0.4,0.7l0.9,1.2l0.1,1.9l-0.5,2
	l-1.1-0.1l-0.4-1.6l-1.2-0.2l-0.6,0.4l0.4,1.7l-0.7,0.9l-2.1,0.2l-0.4-2.1l0.9-1.7l0.4-3.2L110,586l-0.6-3.7l0.4-1.5l-1.2-0.3
	l-0.9,1.5l-0.9-0.3l-0.6-0.9l0.3-1.3l0.9-1.5v-0.9l-1.6,0.4h-2.4v-0.7l-1.1-0.8l-0.6,0.1l-1.9,2l-0.6-0.1l-1-3.3l-1.7,1.2l-2.7,0.7
	l0.2-1.7l-0.7-0.4l-0.4-2.2L93,571l-1.1-0.1l-0.7,2.7l-0.6-0.9l-1.3,2.3l-1.4-0.5l0.5-4.1l-0.4-1.7l-1.4,0.9l-0.3,0.9L87,574l-0.2,1
	l-1.8-0.2l-1.1,1.7l1.6,0.8l0.9,1l0.3,1l-0.6,1.5l0.3,1.4l1,1.6l-0.4,1.8l-2.3-0.1l-1.1,0.5l-2.2-1l-1.2,0.8v1.7l-1.6-0.2l-1.9-3.1
	l-1.2-0.1l-0.7,3.8l-1.5-1l-0.9-4.5l0.2-1.9l-1.2-0.6l0.2-0.9l1-0.9l1.7-2.3l0.9-4.5l1.9-0.4l-0.4-2.9l-1.3-1l-0.8-1.3l-1.5-1
	L74,562l-1.5-1.6l-2.1-1.1l-0.6-1.4l-0.8-0.2l0.5-2.6l2.6-0.5l0.3-1.3l-0.5-1.5l-1.3-0.6l-0.7-2.7l-1.6-1.8l-0.8,0.7l-2.2-0.9
	l0.6-2.9l0.4-0.3l1.6,0.4l1.5-0.9l0.4-2.4l1.3,1.4l2.2,0.3l1.5-0.2l1.1,0.2l-0.5,4.7l0.2,2.2l-0.5,1.5l1.1,0.9l-0.3,2.3l0.3,0.8
	l3.5,0.6v0.8l1.6,0.1l2.4-0.4l0.5,2.4l0.5,0.9v1.2l1.6,0.8l1.3-1.9l1.8,0.6l1.9-0.5l1.8,0.2l1-1.5l1.2-0.7l0.5,2.2l1.1-0.8l0.9-1.3
	l0.8,0.2l1.6,3.8l1.6,0.6l-0.8,3.3l1.5,0.9l-1.6,3.1l0.4,1.6l3.3-0.1l0.5,1.8l1.7-1.5l0.7-1.5l-1.3-0.6l-0.2-2.2l1.6-0.7l0.2-2.6
	l-0.8-0.8l-2.6,0.3l-0.8,0.5l-0.2-1.3l0.8-2.7l-1.6-0.9h-0.9l-1.9-0.7l0.9-3.2h0.9l0.9-1.3l0.9-0.6l0.6-1.9l1.2-1.4l-0.4-1.6
	l-2.9,1.4l-0.4-2l2.2-0.5l0.5-1.9l0.5-0.6v-1.2l1.6-0.5l1.1,0.5l3.1,0.1l2,1.2l0.9,0.2l0.8-2.2l-0.5-0.9l-0.3-2.5l-0.7-2.4l0.5-1.3
	l0.2-2.1l-0.2-1.2l-0.9-0.4l-0.4-0.9l-1.9,1.2l-0.9-0.6l-0.1-3.3l-1.1,0.5l-0.1-1.7l-2.4-0.9l-1.2,1.3l-0.3,2.3l1.2,3.5l0.9,0.1
	l0.6,3.8l0.4,0.7v1.4l-1.8,1.3l-0.6-0.1l-0.6-2.6l-1.6-1.4l0.3-1.4v-2.7l-5-0.7h-1.2l0.2-2.7l-0.1-3l-1.8,0.6l-1,1.2l-1,0.4
	l-0.7-0.4l-2.1,0.1l-1.3-1.2l-2.1-1.2l-1.6,0.7l-0.1,1.7l-0.4,1.3l-1.1,1.4l-0.4,2.7l0.7,0.5l-0.4,3.7l-1.1,1.2h-1.5l-1.2-1.5
	l-0.8-1.6l-1.3-0.1l-2.2,0.9l-1.7-0.7l-2.4,0.4L70,535l-0.9-2.5l-0.1-0.8l1.5-1l0.5-1.3l-0.6-1.2l-1.5-0.4l-1.9-1l-1.6-3.3l0.4-4
	l1-0.4l1.3-2l2.2,1.5l0.2-1L70,514h1.1l1.2-2.6l-0.1-0.8l-2.2-0.4l-3-0.2l-1,0.4l-1.1,1.1l-1.3-0.4l-0.7-2.5l-0.8-1.1l-3.4-1.9
	l-1.1-2.6l-0.6-2.7l-1.3-1.8l0.8-8l0.8-1.7l0.3-1.7l1-2.8l-0.8-1.8l-0.6-2.8l2.4-0.2l1.2-0.6l0.6,0.2l0.3-2l0.8,0.2l-0.5-2.9
	l0.7-0.9l0.2-2.5l-0.4-2.9l1.1-0.1l0.4-5l-0.1-2.7l-1.8,0.3l-1,1.1l-1-1.3l-1.4,0.1l-2.6-0.7l-0.5-1.4l1-1.8l0.8-0.5l0.4-1.1
	l-0.3-1.8l-0.8-2.1l0.1-1.1l1.9-2.7l1.9,1.6l1.3,0.2l1.8,1.6l1.3,2.9l0.9-0.3l1.9,0.1l2.9,0.7l1.3,1.2l1.2,0.3l0.1-1l1.3-0.9
	l1.7,0.2l1.9-0.2l0.1,0.6l-0.6,1.9l2.9,0.6l0.3-2.3l0.7-0.6l1.5-0.1l0.5-1.2l0.7-2.9l0.2-2.6l1.6-1.4l0.5-1.4L86.3,442.9z"/>
<path id="D554" class="st0" d="M161.2,583.2l1.3,0.4l3.5-0.6l1.4,0.5l1.8,0.2l0.9-0.3l1.6-1.4l-0.5-1l-0.1-2.7l-0.7-1.9l1.5-0.8
	l0.9-3.4h1.3l0.5-1.2l1.1-1.3l1.5-0.5l0.5-1.7l0.8,0.1l1.8-2l0.3,1.3l0.9,0.2l0.9-1.2l1.3-1.1l0.8-1.6l2.3-0.9l0.7-0.8l0.7,1.3
	l-0.4,1.4l0.3,1.6l1.4,1.4l0.7-0.5l0.6-1.6l1-1.3l1.5-1.2l0.4-0.7l1.5,0.2l1.4,0.6l-0.9,2.1l1.4,0.6l0.6-0.1l-0.6,3.1l-0.2,1.8h1.5
	l2.3,0.8l1.2-0.5l0.2,0.9l-0.9,1.1v2.1l3.3-0.2l1.5-0.6l0.1-0.9l1.3-0.2l1.7,1.9l0.6,2.2l1.1,1.8l1.3-0.1l0.4-2l-0.3-1.8l1.2-1.2
	l4.6-0.8l1.8-1.1l1.4,0.2l2.8-0.1l0.3,0.9l0.8,0.3l2.6-0.5l0.5-2l1.2,0.1l1.6,1.1l0.1,0.8l2.4,0.9l2.1,0.5l1.1,2.8h1.6l2.2-1.2
	l2.7,2.8l2.2,1.9l-1.6,2.2l1.9,2.2l0.8,1.6l0.8,0.4l0.6-0.7h3.3l0.5,0.2l0.8,2.8l0.5,0.7l3.2-1.8l2.3-1.6l2.9-0.5l0.3-2l0.3-0.3
	l1.8,0.4l1.4-1.4l-0.6-1l-0.8-3.9l-0.9-2.2l-0.1-1.8l0.6-1.2l2.3-0.7l0.5-1.4l1.7,0.1l2.1-0.4l1.9,0.2l2.7-0.7l0.6,0.4l-0.1,2.6
	l2,0.5l0.2,2.2l-1.1,1l1.2,1.3l0.6-0.2l2.8,0.9l0.4-4.4l-0.3-1.3l0.8-3.5l0.8,0.9l3,1.4l0.2,1.3l-0.3,2.3l0.2,0.8l3,1l0.4-1.4h0.5
	l0.5-4.9l1.7-1.4l0.2,1.6l0.8,1l0.3,1.5l0.6,1.1v1.4l0.7,0.8l1.2-1.7l1.2,0.4l0.6,1.8l-0.3,1.7l-0.4,4.9l-0.3,0.8l-1.6,0.9l0.6,2.6
	l0.5,1.1l-0.1,1.1l0.4,1.3l1.1,0.6l4.9-0.6l2,2l-1,2.2l0.9,2.1l1.4-0.1l0.9,0.4l0.2,2l1.1,1.6l0.5,1.3v1.9l1.7,0.2l0.4,1.8l-0.9,0.5
	l0.1,1.7l-0.9-0.2l-0.8-0.7l-1.4,0.6v1.7l1.2-0.5l1,1.4l1.4,0.2l-0.1,1.5l-2.3-0.3l-0.8,2.9l-0.6-0.3l-2,1.1l0.1,3.5l-1,1l-1.2-0.2
	l-0.3,0.5l0.2,2l1.1,0.3l0.3,0.8l-1.1,1.7l-1.1,2.3l-1.2-0.8l-0.5,1.1l-2.6,2.2l-0.9-0.2l-0.6,1.1l-2.1,0.1l-1.8-0.2l-1,2l-0.6,0.3
	l-2-2.1l-0.6,2.4l-1.9,0.8v0.7l2.4,2.3l2.4,1.6l-0.8,1.1l-2.3,2.3l-0.5-0.3l-0.4-1.7l-1.1-0.8l-0.2,0.8l-1.2,1.2l-0.8-0.9l0.5-1.3
	l-0.3-1.5l-0.9,1.1l-0.7-0.8l0.2-1.2l0.8-1L282,635l-0.8-1.3l-0.5,1.4l-0.7-0.7l-1.6,0.1l-0.2,1.3l-0.7,0.2l-1.5-0.9l-1,0.8
	l-0.3,1.4l-1.6-0.2l-0.8-1l-1-2l-0.4-3.3l-1-0.5l-1.9,0.1l-1.4-0.7l-1.9-0.3l-2.9,0.2l-3.3,2l2.4,1.8l1.3-0.1l-0.2,2.1l-0.5,0.9
	l-0.4,2.1l0.3,2.6l2-1.8l0.7,1.4l-1.9,0.9l-0.1,2.5l-1.8-0.2l-1.1,0.2l-1.2,0.9l0.1,0.8l-0.7,1.3l-1-0.7l-0.1,2.9l0.3,1l-2.6,0.6
	l-0.7,2.3h-0.8l0.1-1.8l-1.1-0.8l-0.9,0.2l-0.2-1.8l-2.2,0.5l-0.5,0.7l-0.8-0.8L246,650l0.6,1.2l-0.6,2l-1.6,0.7l-1,2.3l-0.9,1.5
	l0.6,1.5L243,662l-1.4,0.9l-0.9-0.3l-1.7-1.3l-1.2-0.2l-1.7,1.2l-1.1-0.2l-1.2-1.5l-0.1-1l-2.1-1.2l-0.2-0.7l-1.7-0.2l-1.4-1.9
	l-1.5,0.5l-1.3,0.8l-2.4-0.4l-0.4,1.8l-0.6-0.2l-0.6,1.8l0.8,0.4l1-0.2l0.8,0.9l-3.5,0.4l-0.2-0.6l0.1-4.6l0.2-1.3l-1.5-0.3
	l-0.5,1.4l-2,0.2l-2.4-0.6l-1.8,2.3l-3,0.8l-1.1-0.8l-1.8-0.3l-0.7,5.4l-3.3-1.4l-0.7,1.7l-1.6,2v0.9l1.4,2l-0.7,0.1l1.4,3.5
	l-1.7,0.5l-1.5,4.2l-0.1,1.7l-1,2l0.5,2.8l-0.7,0.7l0.1,1.3l-0.6,0.7l-0.2,1.9l-1.7,1.6l-1,2.4l0.6,0.3l-0.7,1.9l0.5,1.1l-0.8,1.3
	l-1.3,0.6l-0.7-2.5l-1.7-2.8h-1.1l1.1,2l1.2,0.6l-1.2,1.2v2.5l-0.4,0.6l-1.1,0.4l-1.3-0.3l0.2,4.6l-2.7,0.3l-0.5-0.6l-1.4,0.8
	l-2.4,0.2l-0.6-0.3l-2.4-2.4l-0.5,0.1l-1.1-1.3l-1.4-0.3l-0.5-1.5l-1.5-2.5l-2-0.1l-0.9,0.3v1.6l-2.2-0.2l-0.8-0.8l0.4-1.2l2-0.8
	l0.7-1.8l-0.7-2.8l0.8-1.6l1-5.2l-0.1-3.6l1-0.2l0.7-0.7l1,0.8l2.1,0.2l0.1-1.9l0.5-0.8l0.4-1.9l0.8,0.3l0.9-1.8l0.2-1.9l0.4-0.3
	l1.8,2.7l0.8,0.7l0.8-1.1l1.1,1.5l1.1,0.2l0.7-1.3l0.7,0.1l0.2,2.2l1.4,1.4l-0.1-2.8l-1.7-1.6l-1-1.6l0.3-1.5L185,667h0.8l1.9,0.6
	l0.3-1.6l-0.5-1.1l-0.4-2.6l0.1-1.7h0.7l0.5-1l1.6-0.9l1.3-0.3l-0.5-1.8l0.3-1.2l0.9-0.3l0.2-1.7l-0.6-1.9l1-1l1.1-0.2l-0.2-1.2
	l0.5-1l1.5-0.1l0.9-0.4l-0.3-1.6l-1-1.8l1.2-1.6l-0.9-0.8l0.2-2.2l1-1.6l0.4-1.4l-0.8-1l-0.5-2.2l-1,2.1l-1.4-0.3l-0.6,2.1l-0.7-0.5
	l-1-1.8l-2.4-1.7l-0.3-1.7l-2.4,1.2l-0.5-1.9h-1.1l-1.9,1.4l-0.6-1.1l-1.2-0.6l0.1-0.9l2.1,0.6l0.2-1l-1.1-1l-2.2-1.3l1.1-2.6
	l0.2-1.2l-0.5-3.5l-0.2-2.9l0.4-1.5v-2.9l0.5-1.8l1-2v-1.3l0.9-2.3l-0.5-1.2l-0.8-0.3l-2.8,0.4l-2.4-0.6l-1.6,0.5l-2.1,0.1l-1.2,0.4
	L170,603l-0.4,1l-1.1-0.5l-0.5,1.4l-1,1.2l-0.7-0.8l-0.1-1.5l1.1-1.7v-2.2l-0.6-0.5l-2-0.2l-0.1-2.3l-1-0.5l-3,0.3l-2.1,1.2
	l-0.1-1.6l-1.1-1.5l-0.1-2.5l1.6,0.8l1.6-0.4l0.3-2.7l-1.9-2.4l0.8-1.7l1.2-1.2L161.2,583.2z"/>
<path id="D545" class="st0" d="M440.2,319.9l0.2-3.8l-0.4-2.9l-0.7-2.7l-0.2-1.8l0.5-2.1h1.5l1,1.9l0.6,0.4l0.9-0.4l0.7-0.9l1.6-3.1
	l2-2.5l2.6-2.2l0.5-0.9l0.3-1.5l0.3-4.7v-2.3l-0.5-1.8l-1.2-2.4l-1.3-1.7l-2.3-3.4l-0.8-2.8l0.2-2.1l-0.5-1.3l-1-0.6l-0.9-1.2
	l-1-3.2v-1.7l0.4-3.8l-1.3-3.2l-0.5-2l-0.2-2.1l0.3-3.5l0.7-3l-0.4-4.6l-0.8-2.6l-2.7-4.4l-1.5-3.3L436,231l-1-2.9l-0.3-3.9l0.4-1.6
	l0.1-3.5l0.3-2l-0.7-1.3l-2-1.6l-0.6-1l-0.7-2.9l-0.2-1.5l0.5-2.5l-0.4-0.4h-1.7l-1.5-2.3l-2.6-1.1l-1.4-1.9l-0.6-1.8v-2.1l0.3-3
	l1.7-3.4l-1.6-1.8l0.7-2.1l1.7-2.1l0.8-1.5l0.7-2.2l1.4-2.2l0.1-3.2l0.7-1.2l2.1-1.3l1.1-2l1.5-0.3l2.5-0.2l0.8-0.4l1-1.4l0.4-1.6
	l2-2l1.8,0.1l0.9-1.2l1.4-0.2l0.9-1.3l-1-2.8l-1-0.8l-0.8-1.5l2.2-2.1l1.2-2.3l2.5-1.5h1l4.1-1.8l1.1-1.2l1.7-0.4l2.9-2.2l1.6,2.9
	l0.9,3.1l1.4,2L464,155l-1.4,2.2l-0.5,1.7l1.4,3.1l-0.1,1.4l-2.1-0.9l-1.1,0.9l-0.8,2.3l-0.8,0.6l-1.9,0.5l-0.6,0.9l-2.9,2.7
	l-1.5,2.1l0.3,0.9l0.9,0.4l1.2-0.3l0.9,0.4l1.4-0.3l0.7,0.4l2.6-0.5l-0.2-1.7l1.4-0.7l2.5,0.8l-0.2,1l1.2,2.2l0.3,1.7l-0.4,1.3
	l0.2,1.3l-0.6,0.9l-0.3,1.5l-0.7,1.1l-0.5,1.8l1.3,2l0.8-1.6l1.2-0.7l1.5,0.1l2-1.5l2.9-0.2l0.7,0.5l0.4,1.5l1.7,2.2l1.2,0.5
	l0.6-0.3l1-1.6l1.4-0.9l0.9,0.1l1.2,1.2l1.9,0.3l2.2,1.9l0.7,1l1.2,0.8l1.3-0.3l0.7,1.2l-0.8,0.9l-0.3,2.2l0.5,1.7l-0.3,2.2l1.3,1.3
	l1-2l0.5,0.3v2.7l1.9,0.7l1.1,1l2.2-0.4l1.3-1.1v-2.6l1-0.7l-0.2-1.3l0.9-0.3l0.4,2.7l1.3-0.7l1.1,0.6l2.2-0.7l0.7-1l0.7,0.6
	l0.1,1.2l1,1.7l1.9,1.7l0.4,1.3l-1.1,2.5l-1.7,1.7L505,210l0.8,2.3l-0.3,2.6l-1.4,1l-0.5,1.6l-0.7,0.9l-0.3,1.8l0.3,1.2l0.9,0.7
	l0.6,1.9l-3.7,3.3l-3.9,4.2l-8.6,10.8l-2,2.9l-0.6,1.4l-1.3,3.7l0.4,1.6l-0.6,0.6l-0.5,1.6l0.2,1.6l-1.6,0.6v3l0.6,1.8l0.9,1.3
	l0.9-0.2l2.9,2.7l1.4-0.5l1.3,0.5l0.1-1.8l0.5-2l0.1-2.3l-0.5-4.2l-1.3-1.5l-0.7-1.7l1.3,0.3l0.6,1.4l0.6,5.1l-0.1,3.2l-0.5,2
	l0.1,1.7l-0.6,2.8l0.3,1l-0.5,2.8l-0.3,0.8l-0.3,2.4v1.8l-1.8,0.3l-1.4,2l0.3-0.9l-0.4-1.8l-0.7-0.1l-0.7,1.9l-1.3,0.3l-3.4,0.1
	l-0.8-1.3l0.8-1.4l-0.2-0.7l-1.6,1.6l-1.4,2.1l1.1,0.8l1.7-0.1l2.4,1.9l0.9,0.1l0.3,2.4l-0.5,0.7l-0.1,0.8l0.6,1.2l1.3,0.5l1.7,4.6
	l-0.8,2.1h-0.8l-0.5,1.2l-1,1l-3,1.5l-11.5,7.6l-4.8,3.6l-5.2,3.4l-1.6,0.2l-2.6,0.8l-3.8,1.7l-5.3,3.7l-4.3,2.3L440.2,319.9z
	 M488.5,278l0.7,2.1l1.3-0.1l-1.8,2.6l-1.2,2.8v3.7l-0.5,1.5l-1.1-1.1l-1.2-3L483,286l-0.3-1.1l0.8-1.4l-0.6-1.9l2.1-0.8l1.4-0.2
	l1-0.6L488.5,278z"/>
<path id="D548" class="st0" d="M370.2,380.8l0.5-1l-0.3-1.9l-1.4-5l0.2-0.9l1.1,0.1l0.1-1.6l-0.5-1l-1.6-1.9l-3-1.3l-2.7-0.8l-2-0.1
	l-3.2,0.4l-2.6,0.6l-3.4,1.1l-4.5,2.1l-4.5,2.6l-1.7,1.2l-0.4-3.7l0.1-0.7l1-0.9l0.4-1.5l1.8-1l0.4-0.9l-1.4-1.3l-1,0.7l-0.5-1
	l-1.6,1.3l-1.4,0.7l-1.1-2.8l-0.4-2.1l-0.2-3.2l-0.4-1.6l1.2-1.1h1.2l1-0.4l-1.6-1.1l-4-1.7l-0.8,1.3l-1.4-1.6l0.1-1.4l-1.3-1
	l-1.9,0.6l-0.8-0.5l-0.6,0.6l-1.6-0.5l-0.2,1.4l-0.6,0.7l-2.7-0.6l-0.4,0.3l-3.3-1.1l-1,0.5l-0.1,1.8l-1.9,0.7l-0.9,0.7l-1-1.2v-2.3
	l-1.3-2.7l0.1-1.9l-1.4,0.3l-0.9-0.6l0.9-2.7l-0.6-0.9l-1.5,1.3l-1-0.3l-1.1-2.5l-1.1,0.2l-1.3-0.6l-1.9-1.6l-1.2,0.5l-2.4-1.3
	l-1.8,0.3l-0.6,0.9l-0.1,1.4l0.3,1.7l1.2,1l2.8,3.8l-0.6,1.5l-1.7,0.6l-1.6,3.4l0.8,1.1l1.8,0.8l-0.1,1.3l0.8,1.3l-0.3,0.9l1.1,0.8
	l-0.7,1.8l-1.4,0.5l-0.9,2.3l-1.9-0.4l-0.2-0.7l-2.4-0.8h-2.1l-0.8,2.7l-1.4,1l-0.5,0.7l-0.1,2l-0.4,1.5l0.6,1.4l1.2,0.7l-0.3,1.6
	l-1.6,0.3l-2.8-1.8l0.4-2l-0.8-1.1l-1.4-1l0.3-1.9l-1.3-0.7l-1.9-1.5l-1.8,1l-1.7-1.3l-0.1-1.6l-1.7-0.5l-1.2,0.3l-0.8-0.8l-0.7-6.1
	l0.5-1l1.3-0.6v-1.4l-1-3l-0.5-4.5l0.1-1.5l-0.7-2l0.1-2.1l1.3-3.6l-1-5.7l-0.2-3.9l-0.2-1.7l-1.8-1.4l-1.6,1.4l-1.1,0.3l-2.7-1
	l-1.4,0.9l-1.6,1.8l-1.3,0.9l-1.8,2.2l-1.3,1.2l-2-0.3l-1.1,0.4l-1.9,1.3l-3.7,2.9l-2.4,2.1l-0.3-4.3l-0.6-0.7l-1.1-0.1l2.1-1.8
	l0.5-1.1l0.4-5.2l-0.2-3.8l-0.4-1.4l-0.9-1.3l0.1-3.2l0.5-4.6l0.6-1.5l0.8-0.6l-0.1-1.3l-0.9-2.2l0.1-1.7l0.4-1.1l2.4-2.8l0.4-1.6
	l2.3-0.6l1.9-0.9l2-0.4l4.4-0.1l1.9-0.2l1.3-1.2l0.6-1.6l3.6-2.2l1.2-0.3l1.9,0.2l1.3-0.3l1.6-0.9l2-2l1.3-0.1l1.3,0.4l1.1-0.1
	l0.6-1.3l2.1-1.7l3.1-0.2l0.9-0.6l1.3-2.3l1.9-1l0.7,0.5l2.1,3.6l1.2-0.1l2.8-0.7l0.9,1l0.6,1.3l0.8,2.8l0.9,1.2l1.7,0.7l1.5-0.2
	l1.2-1l1.2-1.8l1.4-3.4l2-2l1.2-2.1l1.2-1.4l0.3-2.7l0.5-1.1l0.9-3.3l0.7-1l1.8-0.3l0.7,0.6l0.7,1.7l0.6,3.2l0.8,2.7l0.1,5.3
	l-0.9,2.7l0.7,1.5l3.6,2.5l2.8,1.7l1.2,0.2l4.3-0.1l1.6-0.2l2.2,0.5l2.1,0.3l1.1,1.6l2-0.3l2.5,0.3l2.8,0.7l1.9,1.2l2.2,1.9l2.3,2.3
	l4.1,3l2,1.7l2.1,3l1.3,2.8l3.8,6.4l2.9,5.7l1.4,2.2l1.2,2.2l0.9,2.7l1.1,4.3l1.2,4.5l1.4,3.3v2.3l0.4,1.2l0.2,2.3l0.9,1.3l0.2,2.9
	l0.8,2.3l0.3,2.5l-0.1,4.1l0.2,3.9l-1.7,3.8l-1.2,4.1l-1.4,3l-1,5.3L370.2,380.8z"/>
<path id="D547" class="st0" d="M370.2,380.8l1.5-2.7l1-5.3l1.4-3l1.2-4.1l1.7-3.8l-0.2-3.9l0.1-4.1l-0.3-2.5l-0.8-2.3l-0.2-2.9
	l-0.9-1.3l-0.2-2.3l-0.4-1.2v-2.3l-1.4-3.3l-1.2-4.5l-1.1-4.3l-0.9-2.7l-1.2-2.2l-1.4-2.2l-2.9-5.7l-3.8-6.4l-1.3-2.8l-2.1-3l-2-1.7
	l-4.1-3l-2.3-2.3l-2.2-1.9l-1.9-1.2l-2.8-0.7l-2.5-0.3l-2,0.3l-1.1-1.6l-2.1-0.3l-2.2-0.5L330,289l-4.3,0.1l-1.2-0.2l-2.8-1.7
	l-3.6-2.5l-0.7-1.5l0.9-2.7l-0.1-5.3l-0.8-2.7l-0.6-3.2l-0.7-1.7l-0.7-0.6l-1.8,0.3l-0.7,1l-2.2-1.3l-0.6-1.4l-0.1-1.4l-1.5-0.1
	l-1.7-1.1l0.3-1.5l1.1-3.1l2.1-3l0.7-3l3,0.2l0.3-2.5l1.4,0.6l1.1-0.6l1.1,0.2l0.7-1.7l1.9-2.3l1.2-2.2l0.9,0.3l0.1,2.5l0.4,0.5
	l1.3-0.7l1.1,1.5l0.7,0.2l1.6-0.8l2.1,3.5l1,2.2l0.5,3.3l0.4,1.2l0.5,4.3l1.4,0.4l-0.2,1.2l1.8,0.1l1.1,4.5l0.5-0.9l1.5-1.2v-1.9
	l1.5,0.8l0.3,1.3l2.3,1.5l0.3,2.6l1.1,0.2l1.4,1.3l2.2,0.7l0.9-0.1l2.5,0.7l0.5-0.8l2.2-1.5v-0.7l-0.9-1.5l-2.4-1.9l0.6-1.2l0.2-3.4
	l1.7-0.5l-0.4-3l0.6-0.4l-0.4-2h-1.1l-2.9-2.4l-0.9,1.4l-2.3-1.2l-0.4,2.2l-0.7,0.6l-2.7-2.5l-3.5-1.2l-2.9-1.4l0.7-1.3l0.1-1.3
	l1.2-0.7l0.2-1.2l-0.8-1v-1.1l-0.9-2.3l2.2-2.2l0.4,2.4l1,1.3l0.5,1.8l2,0.8l0.5-2.1l1.5-0.1l1-1.9l0.2-2.8l0.8-1.9l2.5-1.3l1.5-1
	l0.9-1.5l1,0.3l1.7,1.6l1.4,0.3l1.3,0.7l-0.4,0.9l1.6,0.8l0.7,1.1l-1.4,1.2l-0.3,1.4l1.2,0.4l2.1-0.7l0.6-0.8l3.2,0.4l1.6,1l3,0.8
	l0.6,0.5l2.4,0.5l0.7,1.2l1-0.7l1.1-1.9l1-0.8l1.5,0.4l3.4-0.2l1.7,2.4l-0.2,2.3l-1.5,2.9l-0.5,2.8l0.3,1.8l1.5,2.4l0.4,1.8l2,3.4
	l0.8,0.4l0.7,3l2.1,2.5l0.2,1.9l-1.9,3.5l-0.1,2.2l-1,2.2l-1.3,0.5l0.7,3.7l1.3,0.7l0.7,1l-0.2,1.4l-1.3,1.1l-0.5-0.2l-1.8-2.8
	l-1.1-0.2l-0.1,1.1l0.7,0.8l0.6,2.1l2.2,2.9l0.3,0.7l0.5,3.8l0.8,0.2l1.8-1.5l1.2-0.3l1.6-0.8l0.8-0.8l-0.7-0.8l0.8-1.3l1.5,1.5
	l1.8-0.9l1.2,0.9l1-2.4l1.7-0.3l2.8,4.7h1.2l0.2-1.5l2.1-1.4l0.7-2.6l0.3-2.1l0.5-1.6l1.8-2.5h0.6l1.4,1.4l-0.1,2.1l-0.6,3.5
	l0.7,1.1l1.5,0.8l-0.4,1.2l-0.2,2.4l0.8,0.4l-0.8,2.7l-1.1,1.8l0.7,1l1.7-0.4l0.8,0.9l-0.2,2.2l0.3,1.5l1.1,2.1l0.8,0.3l0.9,1.9
	l1,0.1l1.3,1.9l1.3-0.4l1.8,1.2l0.5,1.5l1.3,0.8l2.2-1l2.2,0.9l1.1,2.9l-1.4-1.3l-1.3,0.4l-0.7-0.4l-0.7,0.6l-3-0.1l-2.5,0.3
	l-3.6,0.8l-4.2,2l-1.6,0.9l-2.8,2.3l-1.1,1.3l-2,3l-1.9,4.1l-1,3.5l-0.2,3l-0.3,2.1l-0.7,2.4l-2.9,7.1l-0.8,1.7l-0.1,2.1l0.5,2.5h-1
	l-0.3,1.1l-3.1,3.4l-2.4,3.5l-0.7,1.3l-2.2,2.9l-0.8,1.7l-1,1.1l-0.2,2.7l0.9,2.3v2.4l-0.6,0.8l-2.5,2l-2.2,1.4l-0.6-0.6l-1.1,0.4
	l-4.7,1l-1.4,0.1l-1.2-0.4L370.2,380.8z"/>
<path id="D552" class="st0" d="M86.3,442.9l-1.4-0.5L85,441h1.6l0.5-2l-0.5-2.6l-1.3-2.5l-1.6-0.3l0.2-1.3l0.7-0.1l0.6-1.8l1.9,0.1
	l-1.3-2.1v-1.5l-2.5-0.4l-0.2-3l-0.3-0.8l-3.2,0.8l-0.6-0.2l0.1-1.7l-1.6-1.5l-0.4-0.7l0.4-2.6l-0.2-0.8l-1-1l0.2-1.8l-0.3-1.7
	l-1.7-1.4l-0.8-2l-1.5-1.5l-0.4-0.9l0.1-1.6l1.9,0.7l0.7-0.3l1.6,0.3l0.2-2.6l-0.4-5.3l0.4-2.3l-0.1-3.2l3.2-1.2l1-1.2l1.1,0.9
	l1.6,2l0.7-3.5l-1.9-2.1l-1.9-1.2l0.7-1.9l-0.6-1.3l-2.3-0.4l-0.3-1l0.3-1.7L79,376l0.4-1.8L79,374l0.2-2.6l-2.8-0.3l-0.5-0.6
	l0.8-2.2l1.5-2.4l1-2.4l0.8-1.1l2.2-1.5l2-0.6l1-1.1l2.1-0.5l0.8-0.5h1.7l2.6-0.3l1-0.5l1.1,0.7l1.5,0.4l1.4-0.3l1.1,0.5l3,0.2
	l1.8,1.1l1.3-0.4l1.2,0.1l1.5-0.7l3.1,1.5l2.4,0.1l0.9,0.6l3.1,0.7l1.8,0.1l1.3,0.6l1.4-0.5l1.5,1.3l1.1,1.7l1.5,0.7l1.9,0.3
	l2.5-1.3l2.6,1.1l0.8-0.1l1.5,0.8l1.6,0.4l2.7-1.1h1.7l0.9-1.7l1.6-0.4l3.2,2l3.5,0.2l1.6,1.4l0.6,0.2l1.2-3.7l0.9-0.8l0.9,0.5
	l0.1,2.7l0.6,0.2l1.1,2.7l2.9,1.7l0.7,0.1l1.3-0.8l-0.1-1.5h3l1.3-4l-0.1-1.3l2-1.7l1.7-0.7l1.2-1.4l0.4-3.2l0.9-2.7l-0.6-3.2
	l1.3-0.9l1.9,0.6l1.9-0.1l1.2-1.9l0.7-0.6l2.3-0.7l1.1-1.2l1.7-0.9l1.2-0.2l2.3,0.2l3.5,0.8l2.9,1.1l1.1,0.6h0.9l1.3-1.4l2.1-2.7
	l1-0.3l1.5,0.8l1.7,2.1l0.8,1.6l1.4,1.6l2.1,1.4l2,0.6l2.8-0.3l2.6-2.3l1.1-1.7l1.2-2.6l0.3-1.6l-0.5-1.8l-0.3-2.3l0.1-1l1.1-0.8
	l0.8,0.1l0.8,1.5l0.5,3.5l1.3,1.2l0.9,0.1l0.9-1.2l0.9,4.8l-0.5,4.5l-0.5,2.7l-0.8,2.4l-0.7,1.3l-3.2,3.5l-2.1,2.4l-1.6,3.4
	l-0.5,3.1l-0.6,5.5l-0.2,3.8l-0.3,1.9l-0.9,3.8l-0.5,3.9v6.5l0.3,2.4l0.2,4.6l-0.6,8.3l0.1,4.8l-1.6,4.5l-0.5,2.2l-0.3,3.8v6.6
	l0.5,6.1l1.5-0.3v1.7l-0.7,6.6v1.9l0.7,2.3l-0.7,1.4l0.2,1.4l-1.2,1l-2.2,0.8l-0.2,2.9l0.1,2.9l-0.9,0.4l-1.2-0.1l-0.5,2.7l-3.8,1.4
	l-0.5-1.9l-2-0.7l-0.5,0.8l-2.1,1.3l-1.2,0.3l-0.3-0.8l0.1-2.4L193,462l-1.3,2.3l-1.3,1.6l-0.7,1.8l-0.7,0.1l1-3.9l1.5-3.1l0.4-2.5
	l0.4-0.9l0.2-3.3l-0.2-2.7l-0.3-0.8l-1.8-0.2l-0.7,1l0.4,2.2l-1.8-0.1l-1.2,0.6l-0.5-0.4l-1.5,0.2l-0.3,0.7l-0.7,3.4l-0.3,3.2
	l-1.5-0.4l-1.5-1.4l-1.5-0.8l-0.4-1.2l0.8-2.8h1.3l1.2-1.5l0.2-1.2l-1.6-0.3l-0.4-0.4l-2.5-0.7l-3.1-0.5l-0.9,1.1l0.4,1.5l-0.1,1.6
	l-1.6,0.9l-1.5,2.4l-0.6,4.1l-1.1,1.3l-0.9-0.6l-2.1-0.5l-1.8,0.2l-1.7,1.2l-0.2-1.1l-1.2-1l-1.7-0.3l-1-1.2l-2.3-1.4l-1.3-0.6
	l-2-2.6l-0.2-2.5l-0.3-0.8l-1.1,1.4l-0.5-0.7v-1.9l1.6-0.8l0.8-1.9v-2l-2.1-2.2l-2.3-0.3v-1.8h-1.7l-1.7,0.5l-0.4-2l-1.4-0.6
	l-1.2,0.1l-0.6,3.3l-0.4,0.9l-2.6,0.4l-0.1-1.3l-1.7,0.2l-0.4,1.5l-1.1,1.1l-0.5,1.1l-1.6-0.8l0.1-1.1l-1.8-0.6l-0.2-1.5l-1.1-0.6
	l-0.1-2.1l-0.8-0.2l-0.6-1.4l-1.3,0.2l0.3-1.8l-1.7-2l-0.2-1.1l-1.1-0.2l-1.7,1.1l-0.4,1.6l-1.5,0.2l-0.3,2.3h-1.2l-1.1-0.6
	l-0.7-1.1l-2.3-1.1l-1.3-1.4l-1.7,0.3l-1.6,1.3l-2.4-1.2v1.6l-1.3-0.4l-0.3-1.2l-1.8-0.3l-0.3,0.5l-1.5,0.2l-1.6-0.5l-0.9,2.9
	l-0.2,1.8h-2.4l-0.8,2.3l-0.6,0.1l-0.6,2.3l-1.7,0.1l-0.5-1.2l-2.1-0.2l-1.3-0.4l-0.6-0.7l-1.3-0.5l-0.7,0.4l-0.4,1.3l-1.6-0.3
	L86.3,442.9z"/>
<path id="D549" class="st0" d="M311.5,455.6l-1.8,0.5l-0.6,0.8v1.2l-2.6,1l-0.8-1.8l-0.8-1.2l-2.6-0.4l-2.8,1.4l-0.6,0.6l-0.7,1.6
	l-1.3,1.2l-0.7,1.8l-0.8,0.2l-2.7-0.9l-1.4-0.3l-1.8-1.1l1.1-2.5l0.4-1.5l-1-1.1l1-1l0.4-2.2l-1.9-0.6l-1.1,1h-0.7l-0.4,1.6
	l-0.7,0.5l-1.5-0.7l-0.5-0.7l-1.9,1.3l-5.1-0.2l-2.4-0.2l-2.5-0.5v1l-0.8,1.1l-2.8-1.5l-0.9-0.8l-0.3-1l-2.1-0.5l-0.4-0.5l-2.3,0.8
	l-1.3-0.1l-0.6-0.6l0.1-1.3l-1.8-0.2l-0.5-1.3l-1.1,0.4l-0.8-0.2l-1.3-1.9l-0.4,1.6l-0.9-0.8l0.3-1.6l-1-0.3l-1,2.4l-2.5-0.9h-1.2
	l-0.1-0.8l-1.6,0.3l-1.6,1.2l-1.3,0.6h-1.7l-1.6-0.4l-1.9-1.1l-1.1,0.2l-0.6,1l-1.5,0.5l-1,3.2l-0.8-4.1l-0.6-4.9l0.8-3.6l-4.7-0.6
	l-1.1,1.4l-1.1-0.1l-1.3-1.1l-0.6-2.4l-0.2-2.3l-0.6-1l-0.7,1.7l-0.4,1.7l-0.5,0.6l-1.4-0.1l-6.4-1.1l-2,0.3l-1.2,0.7l-1,1.2
	l-1.5,0.3l-0.5-6.1v-6.6l0.3-3.8l0.5-2.2l1.6-4.5l-0.1-4.8l0.6-8.3l-0.2-4.6l-0.3-2.4v-6.5l0.5-3.9l0.9-3.8l0.3-1.9l0.2-3.8l0.6-5.5
	l0.5-3.1l1.6-3.4l2.1-2.4l3.2-3.5l0.7-1.3l0.8-2.4l0.5-2.7l0.5-4.5l-0.9-4.8l0.7-1.3l-0.1-1.2l-1.2-3.2l0.2-2.7l1.4-1.2l2.6-1.5
	l2.6-1.1l2.2-1.7l1.7-0.1l2,0.7h4.2l3.1,1.8l1.1,0.3l1.2-0.6l1.1,0.1l0.6,0.7l0.3,4.3l2.4-2.1l3.7-2.9l1.9-1.3l1.1-0.4l2,0.3
	l1.3-1.2l1.8-2.2l1.3-0.9l1.6-1.8l1.4-0.9l2.7,1l1.1-0.3l1.6-1.4l1.8,1.4l0.2,1.7l0.2,3.9l1,5.7l-1.3,3.6l-0.1,2.1l0.7,2l-0.1,1.5
	l0.5,4.5l1,3v1.4l-1.3,0.6l-0.5,1l0.7,6.1l0.8,0.8l1.2-0.3l1.7,0.5l0.1,1.6l1.7,1.3l1.8-1l1.9,1.5l1.3,0.7l-0.3,1.9l1.4,1l0.8,1.1
	l-0.4,2l2.8,1.8l1.6-0.3l0.3-1.6l-1.2-0.7l-0.6-1.4l0.4-1.5l0.1-2l0.5-0.7l1.4-1l0.8-2.7h2.1l2.4,0.8l0.2,0.7l1.9,0.4l0.9-2.3
	l1.4-0.5l0.7-1.8l-1.1-0.8l0.3-0.9l-0.8-1.3l0.1-1.3l-1.8-0.8l-0.8-1.1l1.6-3.4l1.7-0.6l0.6-1.5l-2.8-3.8l-1.2-1l-0.3-1.7l0.1-1.4
	l0.6-0.9l1.8-0.3l2.4,1.3l1.2-0.5l1.9,1.6l1.3,0.6l1.1-0.2l1.1,2.5l1,0.3l1.5-1.3l0.6,0.9l-0.9,2.7l0.9,0.6l1.4-0.3l-0.1,1.9
	l1.3,2.7v2.3l1,1.2l0.9-0.7l1.9-0.7l0.1-1.8l1-0.5l3.3,1.1l0.4-0.3l2.7,0.6l0.6-0.7l0.2-1.4l1.6,0.5l0.6-0.6l0.8,0.5l1.9-0.6l1.3,1
	l-0.1,1.4l1.4,1.6l0.8-1.3l4,1.7l1.6,1.1l-1,0.4h-1.2l-1.2,1.1l0.4,1.6l0.2,3.2l0.4,2.1l1.1,2.8l1.4-0.7l1.6-1.3l0.5,1l1-0.7
	l1.4,1.3l-0.4,0.9l-1.8,1l-0.4,1.5l-1,0.9l-0.1,0.7l0.4,3.7l-3.7,2.9l-3.2,2.9l-2.2,2.7L329,387l-0.6,2l-1.3,3.3l-0.6,2.1l-0.9,4.9
	l0.1,1.2l-0.9,2.6l-1.1,2.2l0.7,0.1l-0.8,3l-2.1,3.5l-1.9,2.8l-1.3,2.2l-1.8,3.9l-0.4,1.9l-0.6,1.5l-1.1,5.3l0.4,4.5l-0.4,2.6
	l-1.3,3.9l-1.1,4.8l-0.3,3.4l0.2,5.1L311.5,455.6z"/>
<path id="D550" class="st0" d="M319,599.6l1.1,1.4l0.4,1.6l-0.6,0.9v1.1l-0.7,2l-1.1-0.2l0.2-1.3l-1-1.3v-0.9l1.5-0.5l-1-0.9
	L319,599.6z M309.7,609.4l-0.1-1.7l0.9-0.5l-0.4-1.8l-1.7-0.2v-1.9l-0.5-1.3l-1.1-1.6l-0.2-2l-0.9-0.4l-1.4,0.1l-0.9-2.1l1-2.2l-2-2
	l-4.9,0.6l-1.1-0.6l-0.4-1.3l0.1-1.1l-0.5-1.1l-0.6-2.6l1.6-0.9l0.3-0.8l0.4-4.9l0.3-1.7l-0.6-1.8l-1.2-0.4l-1.2,1.7l-0.7-0.8v-1.4
	l-0.6-1.1l-0.3-1.5l-0.8-1l-0.2-1.6l-1.7,1.4l-0.5,4.9h-0.5l-0.4,1.4l-3-1l-0.2-0.8l0.3-2.3l-0.2-1.3l-3-1.4l-0.8-0.9l-0.8,3.5
	l0.3,1.3l-0.4,4.4l-2.8-0.9l-0.6,0.2l-1.2-1.3l1.1-1l-0.2-2.2l-2-0.5l0.1-2.6l-0.6-0.4l-2.7,0.7l-1.9-0.2l-2.1,0.4l-1.7-0.1
	l-0.5,1.4l-2.3,0.7l-0.3-0.9l1.2-2.4l0.2-2.5l-0.6-2.1l0.3-1.9l-1.6-3.6l0.6-3.7v-1l0.7-1.6l0.1-2.9l-0.8-1.4l-0.8-6v-1.5l-0.6-2.4
	l0.4-3.3l-0.8-1.8l-0.1-2.1l-0.3-1l-1.4-2.8l-0.6-1.9l-1.8-1.4l-0.4-2.4l-2.4-5.4l-0.4-3.1l-0.4-1l-2.1-1.6l-1.3-4.5l-0.8-1.7
	l-1.2-1.5l-1-3l-1-0.9l-0.7,0.9l-2.5-2.8l-0.6-2.9v-2.3l-0.5-1.3l0.8-1l-0.2-2.8l-0.7-1.7l-0.3-2.3l-1.6-3.7l-0.2-3.3l-0.6-2.8
	l-0.8-2l-1.1-1.3l-0.3-1.1l-0.8-0.4l-1.2-6.4l-0.5-1.7l0.2-2l-0.1-4.4l0.2-2.4l1-3.2l1.5-0.5l0.6-1l1.1-0.2l1.9,1.1l1.6,0.4h1.7
	l1.3-0.6l1.6-1.2l1.6-0.3l0.1,0.8h1.2l2.5,0.9l1-2.4l1,0.3l-0.3,1.6l0.9,0.8l0.4-1.6l1.3,1.9l0.8,0.2l1.1-0.4l0.5,1.3l1.8,0.2
	l-0.1,1.3l0.6,0.6l1.3,0.1l2.3-0.8l0.4,0.5l2.1,0.5l0.3,1l0.9,0.8l2.8,1.5l0.8-1.1v-1l2.5,0.5l2.4,0.2l5.1,0.2l1.9-1.3l0.5,0.7
	l1.5,0.7l0.7-0.5l0.4-1.6h0.7l1.1-1l1.9,0.6l-0.4,2.2l-1,1l1,1.1l-0.4,1.5l-1.1,2.5l1.8,1.1l1.4,0.3l2.7,0.9l0.8-0.2l0.7-1.8
	l1.3-1.2l0.7-1.6l0.6-0.6l2.8-1.4l2.6,0.4l0.8,1.2l0.8,1.8l2.6-1v-1.2l0.6-0.8l1.8-0.5l1.2,8.6l0.3,0.7l0.8,3.5l0.2,1.6l0.1,5.1
	l0.5,1.7l0.7,3.9l0.8,2.4l1.4,2.1l0.6,1.9l0.4,0.4l1.7,8.2l0.5,1.3l1.9,1.6v1.4l-0.7,2.5l-0.7,4.5l-0.5,9l-0.1,4.5l-0.2,2.3
	l-0.7,2.7l-1.1,3.6l-0.7,3.1l-0.8,5.9l-0.2,4.9l0.2,4.4l0.2,2.4l1.2,7.5l0.5,0.9l0.2,2l1.1,1.7l1.2,3.5l0.7,2.6l1.9,4.9l0.4,2.1
	l0.8,2.6l0.7,1.3l0.6,3.8l-0.3,2.1l-0.5,2l-0.5,3.1l-0.3,4.5l0.1,2l0.7,3.7l2,5.3l-1.1-0.9l-1.1-2.8l-1.1-1.1l-0.9-1.9l-1.5-1.1
	l-0.5-1.1v-2.3l-1.6-1.7l-1-1.7l-1,0.9l0.1,2.4l0.3,1l-0.6,5l-1,0.2l-1.4-3.2l-0.1-1.2l1.3-1.7l-1.3-0.5l-0.3,2.1l-1.1,0.1l-1.4,2
	v2.8l-1.4,2.6l1,1.1l0.5,1.5l1,0.6l0.8,1.2l0.2,1l0.8,1.2l0.8,0.6l-0.2,1.1l-1.3-0.2l-0.9-2.1l-1.5-1.2l-1.4,0.7l-0.4,0.9
	L309.7,609.4z"/>
<path id="D542" class="st0" d="M591.6,138.1l-1.8-2.6l-0.8-0.1l-1.1-1.6l0.5-0.7l-1.3-1.5l-0.4-2l0.6-0.6v-1.7l-2.8-1.2l0.1-2.7
	l-1.4,0.2l-0.8-0.9l0.9-1.3l-0.8-1.3l-0.5,2l-0.9,0.3l-0.8-0.5l-0.1-2.1l1-0.3l0.4-1l-1-0.5l-2-1.9l-0.9,1L576,116l-0.8-1.8
	l-1.2,0.3l-0.7-1.1l0.5-0.8v-1.3l-0.7-0.2l0.2-2.1l-0.3-1.4l1.3-0.7l-0.3-1.8l-0.8,0.4l-1.2-1.7l1.6-2.4l1.5-0.5l1.1,0.6l0.9-0.5
	l0.9,0.7l2.9,0.3l0.5-1l1.9,1.2h1l-0.4-1.5l0.3-0.7l1.7-1l-0.2-0.9l-2.2-2.2l0.1-1.3l1.7-0.4l1.9-1.1v-3.2l-0.3-1.2l-1.8,0.1
	l-1.7-0.6l-0.7,0.4l-0.9,1.5h-1l-0.6-1.1l0.3-2l-0.2-1.5l1-1.3l0.6-1.5l0.3-5.2l-1.5-3l0.3-1.2l1-1.4l2.2-1.6l1-1.5l4.3-2.1l0.9-0.9
	l1.5-2.1l1,0.1l2,1.4l2.9,1.7l0.6-1.5l0.4-2.6l0.7-1l2.3-0.2l1.9-0.7l-0.3-3l-1.7-1.9l-1.5-3.1l0.7-0.6l-0.2-1.2l-1.2-2.6h-0.9
	l-0.1-1.5l-0.6-0.9v-1.7l0.8-1l1.3-0.5l0.6-1.1l1,0.1l0.2,1.6l0.9,1.1l1.1,3.4l-0.2,1.6l0.6,1.2l-0.3,1.3h1.4l0.4,0.5l0.2,1.6
	l-0.4,1.6L606,58l1.6,1.3l0.5,2.1l1-0.1l1,0.5l1-0.2l2,1l0.5,1.1l1.2-0.7l2.1,0.3l0.7-0.5h1.2l1,0.7l0.6-0.5l0.6,1.3l1.1,0.7
	l0.1,1.3l0.7,0.3l0.6,1.7l2,0.7l0.7-0.8l1-0.3l0.7,0.7l0.9-1.9l1.9-0.9l1.6,0.6l0.8-0.8l2-1.1l2.3,1.4l1-0.1l1.9-1.7l1.3,0.9
	l2.5-1.1l-0.2-1.8l1.1-0.3v-2.2l-0.5-0.4l-0.3-2.9l1,0.4l0.3,0.9h0.9l0.7-1.7l-1.5-1.1l0.2-0.5l2.2,1.4l0.2-1.4l1.8-0.8l1.5-2.4
	l-1.1-2.5l0.4-1.2l1.6-1.8l-1.1-1.8l0.3-1.8l1.7,1.3l1.5,0.7l0.5-2.8l0.9-1.4l1.6-1.7l1.3-0.1l0.6-0.7l1.5-0.2l0.5-1.3l1.4-0.3
	l-0.3,2.8l0.3,1.7l0.7,0.6l0.7-0.7l0.3-1.4l0.9-2.3l1.9-0.2l1.4,0.5l0.4-1.9l-0.4-1l-0.7-0.4l-1,1.2l-0.9-0.4l-0.4-1.6l-0.9-0.4
	l-0.6-2.8l1.1,0.6l2.4-0.5h1.6l0.4-1.4l-0.1-2.2l1.3,0.7l1.6-0.1l0.3,0.8l-1,2.5l0.3,1.1l4.9,3.9l-3.5,6.2l-1.1,2.1l-1.5,2.3
	l-1.4,0.4l0.4,1.5l-4.2,5.1l-2,3.1l-1,2.6l0.1,1.1l-1.5,2l-0.2,2.2l-1.8,2.5l-1.6,1.5l-1.6,1.9l-1.4,2.2l-2.3,3.8l-0.1,1.8l-5,6.2
	l-1.6,3l-0.2,2l-5.3,5.7l-6.4,7.7l-3.8,5.1l-1.5,3l-0.7,2l0.3,1.4l-4.7,4l-4.1,2.6l-0.5,0.1l-4.7,3.4l-1.3,0.3l-0.2,0.6l-2.4,0.8
	l-1.2,0.6l-1.8,2l-6.1,2.9l-5.5,3.8l-3.4,2.8L591.6,138.1z"/>
<path id="D544" class="st0" d="M504.5,224l-0.6-1.9l-0.9-0.7l-0.3-1.2l0.3-1.8l0.7-0.9l0.5-1.6l1.4-1l0.3-2.6L505,210l1.1-3.2
	l1.7-1.7l1.1-2.5l-0.4-1.3l-1.9-1.7l-1-1.7l-0.1-1.2l-0.7-0.6l-0.7,1l-2.2,0.7l-1.1-0.6l-1.3,0.7l-0.4-2.7l-0.9,0.3l0.2,1.3l-1,0.7
	v2.6l-1.3,1.1l-2.2,0.4l-1.1-1l-1.9-0.7v-2.7l-0.5-0.3l-1,2l-1.3-1.3l0.3-2.2l-0.5-1.7l0.3-2.2l0.8-0.9l-0.7-1.2l-1.3,0.3l-1.2-0.8
	l-0.7-1l-2.2-1.9l-1.9-0.3l-1.2-1.2l-0.9-0.1l-1.4,0.9l-1,1.6l-0.6,0.3l-1.2-0.5l-1.7-2.2l-0.4-1.5l-0.7-0.5l-2.9,0.2l-2,1.5
	l-1.5-0.1l-1.2,0.7l-0.8,1.6l-1.3-2l0.5-1.8l0.7-1.1l0.3-1.5l0.6-0.9l-0.2-1.3l0.4-1.3l-0.3-1.7l-1.2-2.2l0.2-1l-2.5-0.8l-1.4,0.7
	l0.2,1.7l-2.6,0.5l-0.7-0.4l-1.4,0.3l-0.9-0.4l-1.2,0.3l-0.9-0.4l-0.3-0.9l1.5-2.1l2.9-2.7l0.6-0.9l1.9-0.5l0.8-0.6l0.8-2.3l1.1-0.9
	l2.1,0.9l0.1-1.4l-1.4-3.1l0.5-1.7l1.4-2.2l0.3-1.4l-1.4-2l-0.9-3.1l-1.6-2.9l1.2-1.5l1-0.3v-2.2l1.8-1.4l1.6,1.3h1.1l0.1-0.9
	l0.9-1.2l1.6,1.3l1.2-0.1l1.7,0.6l0.2,1.4l2.4-0.6l1,2.1v1.1l1.5,0.2l1.7,1.5l1.5,0.2l0.4,1.3l2-0.7l0.3-2.5l-0.4-1.6l-0.6-1
	l0.7-1.4l1.6-1.3l1.3,2.2l1.4-1.1l1.1,0.3l0.5-2.1v-1.5l-0.9-1.2l-0.1-2.6l0.4-0.9l-0.2-1.6l1.9,1.8l0.6-1.5l-1.3-2.3l-1.2-0.2
	l-1.8-1.2l-0.3-2.2l1.1-0.6l1-1.5l-0.9-0.7l0.7-0.9l0.5-3.6l0.5-0.6l1.8,0.1l1.2-1.4l0.8-2.3l-0.7-1.3l-1.5,0.2l-0.6,0.8l-1.2,0.1
	l-0.7-1l0.9-0.5l0.9-1.2l0.3-1l1.3-1l0.6-2l-0.7-1.1l-0.2-1.6l-0.9-1.2l1.3-1.3l1.5-3.1l2.3-2.6l0.8-2.1l1.3-2l1.6-2.1l0.6,2.3
	l1.3,0.9l0.7-0.2l1.2,0.4l0.3,3.7l-0.9,1.3l1,1.3l0.1,0.9l1.4-0.8l0.5,0.4l-0.7,2.1l-0.7,0.9l-0.1,1.9l1.1,0.6l0.5-0.5l1.1,0.4
	l0.5,0.7h0.9l0.9,1.1l-0.2,1.2l0.8,0.3l-0.1,1l-0.9,0.1l0.6,2.1l-1.1,0.1l-1,1.3l0.9,0.5l0.2,1l-0.4,1.1l0.3,2.5l1.6,0.8l0.3,1
	l1.4,1.1l1.2-1.7l-0.2-1.3l1.6-3.5l2.6-0.6l0.3-1.3l1.1-0.7l1.3,0.2l0.9-0.7l0.4-0.9l1.2-0.3l1.3-2.4l-0.5-1.7l0.8-0.7v-1.2
	l-0.9-3.1l1.8-2l1.5,0.6l1.3,0.9l0.1,1l0.9-0.1l1.7,0.9l1.1-0.7l0.5,2.1l-0.5,1.4l1.4,2.4l1.9-0.5l0.4,1l1,0.1l1.1-0.7l1.3,0.2
	l0.4-1.1l0.8-1l1.5-0.3l2.2,0.8l1.3-0.7l0.7-1.6l1.2-1.3l0.6,1l-1.7,2.4l-0.2,1.3l0.4,1.9l-0.3,1.6l0.2,1.2l0.8,0.2l1.2-4l2.3,0.6
	l1.8,1.2l0.5,1l0.5,2.2l0.5,0.2l3.1-2.5l1.2,0.3l-0.7,1.9l0.3,1.5l1,0.9l2.6,1.4l0.3,1.5l-0.1,2.2l0.3,1.4h-1.9l-0.2,2.4l-1.2-0.9
	l-0.7-0.1l-0.3,2.1l-1.4-0.5l-0.7-1.3l-0.6-2.2l-1.9-2.4l-1.6-0.8v1.2l1.4,2.4l-0.3,2l0.9,2.3l-0.8,0.7l-1.7-0.1l-0.4-0.9l0.2-1.7
	l-0.2-1.1l-1.4-0.9l-0.6,0.6l0.1,1.1l0.7,2l0.1,1.3l-0.4,1.5l0.8,0.4l1.8-1.1l1.1,0.4l-0.2,0.9l-1,0.7l-1,0.2l-1,0.9l-1,0.3
	l-0.3,1.3l0.2,1.9l-1.6,1.3l-1.8,0.2l-1.2,1.8l-0.6,1.7l-1.5,2.1l-1.2,3.4l0.1,2l0.6,1.3l1.5,0.4l1.9,1.1l1.5,1.4l2.6,1l0.6,1.7
	l0.9,1.5l0.2,2.7l1,0.6l0.4,2.7l0.9,1.3l0.4-1l0.9-0.5l2.2,0.1l0.4-2.2l0.5-0.7l1.5,0.3v-1.6l0.8-1.9l1.2-1l-0.6-0.9l-1-0.6
	l-0.1-1.9l1.4-0.8l2.3-1.8l2.2-1.3l1-1.8l-0.6-2.1l1.7-2.3l1-0.3l0.7-0.9l1.5,0.4h1.4l0.9,1.4l-0.1,2l0.8,1.3l-0.1,2l-1.4,1.9v1.4
	l-0.9,1.2l-0.7,2.3l0.4,0.9l1.6,0.9l0.1-1.9l1-0.7l0.8-1.3l0.8,0.1l1.1,0.9l1.1-0.5l1.4,0.8l-2,1.9l0.2,1.3l-0.8,1.6l-1.9,1.6
	l-0.7,1.4l0.5,1l-0.5,2.4l-1.5,1.7l-0.4,1.5l-2.5,2.3l-0.9,2l-0.1,1.5l-2,1.4l-1.3,1.6l-0.2,2l-1.4,1.7l-1.3,0.9v0.6l-1.6,1.1
	l-0.6,1.1l0.2,1.2l-1.2,1l-0.3,0.7l-3.4,2.1l-0.9,1.3l-4.4,1.7l-1.2,1.1l-4.3,2.1l-2,1.6l-0.3,1.2l-1,1.5l-2.8,1.3l-2.2,1.7
	l-3.2,1.7l-1.2,1.2l-2.3,0.9l-6.3,3.7l-4.2,2.7l-5,3.6l-6.6,5.4L504.5,224z"/>
<path id="D543" class="st0" d="M591.6,138.1l-2.4,2.4l-1.4,1l-2,2.2l-1.1,0.7l-0.9,1.6v1.6l-1.2,2.1l-1.1,1.5l-4,3.2l-1.4-0.8
	l-1.1,0.5l-1.1-0.9l-0.8-0.1l-0.8,1.3l-1,0.7l-0.1,1.9l-1.6-0.9l-0.4-0.9l0.7-2.3l0.9-1.2v-1.4l1.4-1.9l0.1-2l-0.8-1.3l0.1-2
	l-0.9-1.4h-1.4l-1.5-0.4l-0.7,0.9l-1,0.3l-1.7,2.3l0.6,2.1l-1,1.8l-2.2,1.3l-2.3,1.8l-1.4,0.8l0.1,1.9l1,0.6l0.6,0.9l-1.2,1
	l-0.8,1.9v1.6l-1.5-0.3l-0.5,0.7l-0.4,2.2l-2.2-0.1l-0.9,0.5l-0.4,1l-0.9-1.3l-0.4-2.7l-1-0.6l-0.2-2.7l-0.9-1.5l-0.6-1.7l-2.6-1
	l-1.5-1.4l-1.9-1.1l-1.5-0.4l-0.6-1.3l-0.1-2l1.2-3.4l1.5-2.1l0.6-1.7l1.2-1.8l1.8-0.2l1.6-1.3l-0.2-1.9l0.3-1.3l1-0.3l1-0.9l1-0.2
	l1-0.7l0.2-0.9l-1.1-0.4l-1.8,1.1l-0.8-0.4l0.4-1.5l-0.1-1.3l-0.7-2l-0.1-1.1l0.6-0.6l1.4,0.9l0.2,1.1l-0.2,1.7l0.4,0.9l1.7,0.1
	l0.8-0.7l-0.9-2.3l0.3-2l-1.4-2.4V120l1.6,0.8l1.9,2.4l0.6,2.2l0.7,1.3l1.4,0.5l0.3-2.1l0.7,0.1l1.2,0.9l0.2-2.4h1.9l-0.3-1.4
	l0.1-2.2l-0.3-1.5L558,117l-1-0.9l-0.3-1.5l0.7-1.9l-1.2-0.3l-3.1,2.5l-0.5-0.2l-0.5-2.2l-0.5-1l-1.8-1.2l-2.3-0.6l-1.2,4l-0.8-0.2
	l-0.2-1.2l0.3-1.6l-0.4-1.9l0.2-1.3l1.7-2.4l-0.6-1l-1.2,1.3l-0.8-1.5l0.5-1.3l-0.3-0.8l-1.2,1.1l-0.4-1.7l-1.5-0.6l-0.1-0.8
	l1.6-1.6l1.1-1.5l0.3-1.1l1.1-1.4l0.3-1.3l1.2-1.9l-0.1-0.9l-1.2-0.1l-1.6,0.8l-1.5-1.3l0.1-1.1l-0.6-0.6l0.9-1.4l1.4-0.9l-1-1.1
	l-1,1.5L541,85l1-1.8l-0.7-3.5l3.1-1.6l0.4-1.3l1.2-2.3l0.5-1.7l0.8-0.7l1.4-2.7l0.9-1.2l-0.4-0.8l1.6-1.5l1.4,1.4h1.4l1.3,1.5
	l1.3,0.2l0.4,1.4l1.3-2l-0.4-1.1l0.4-0.7l1.3,0.7l2.1,0.2l0.2-1.4l0.8-2l1.9-1l1.5,0.1l0.8,0.6l0.5-1.1l1.3,0.3l0.3-0.7l-0.8-1.5
	l0.9-1.1l0.8,1.1l2-1.3l-0.1-1.6l1.1-1l-0.4-0.6l-1.4-0.6l-1.6-3l-0.8-0.5l-0.7-1.7l0.1-1.3l1.1,0.4l0.6,1.3l0.7-0.6l-1.3-1.5
	l-0.2-1.6l-1.2-0.3l-0.3,3.9l-1,0.2l-0.8-1.2l1-1l-0.3-2l-1.1-1l-0.4-2.5l1.7,0.3l0.5-1.9l1.6-0.3l0.6,1.5h1.2l0.9-0.5l1.6,0.4
	l0.5,1.9l1.7,2.1l0.5,1l1,0.2l0.5-1.4l-0.3-1.4l-0.6-1l-0.1-1.8l2-0.1l0.2-2.6l-0.9-1.1l-0.2-1.7l-0.5-0.4l0.2-1.4l1.4-0.6l1.2,2.1
	l1-1l0.4,1.7l0.2,2.4l-1.6-0.2l0.1,1.6l1.5,0.6l1.2-0.1l0.3-2.4l1.3-2.3l-0.5-1.2l0.1-1.2l0.7-0.4l0.4,1.2l-0.2,1.5l1.6,0.2l0.3-2.7
	l0.4-0.8l0.9-0.2l0.4-0.8l-0.8-1.8v-1l1.9-2.2l1.1,1.8l1.3,0.3l-0.4,0.9l1,2.6v1.3l2.1,3.2l0.8,2.4l0.4,0.6l1.3,0.1l0.2,1.1
	l-1.2,0.5l0.1,1.5l1.6,1l0.8,3.8l0.7,2.2l0.8,0.2l1.1,1.6l1.5,3.1l1.7,1.9l0.3,3l-1.9,0.7l-2.3,0.2l-0.7,1l-0.4,2.6l-0.6,1.5
	l-2.9-1.7l-2-1.4l-1-0.1l-1.5,2.1l-0.9,0.9l-4.3,2.1l-1,1.5l-2.2,1.6l-1,1.4l-0.3,1.2l1.5,3l-0.3,5.2l-0.6,1.5l-1,1.3l0.2,1.5
	l-0.3,2l0.6,1.1h1l0.9-1.5l0.7-0.4l1.7,0.6l1.8-0.1l0.3,1.2v3.2l-1.9,1.1l-1.7,0.4l-0.1,1.3l2.2,2.2l0.2,0.9l-1.7,1l-0.3,0.7
	l0.4,1.5h-1l-1.9-1.2l-0.5,1l-2.9-0.3l-0.9-0.7l-0.9,0.5L575,101l-1.5,0.5l-1.6,2.4l1.2,1.7l0.8-0.4l0.3,1.8l-1.3,0.7l0.3,1.4
	l-0.2,2.1l0.7,0.2v1.3l-0.5,0.8l0.7,1.1l1.2-0.3l0.8,1.8l1.7,1.1l0.9-1l2,1.9l1,0.5l-0.4,1l-1,0.3l0.1,2.1l0.8,0.5l0.9-0.3l0.5-2
	l0.8,1.3l-0.9,1.3l0.8,0.9l1.4-0.2l-0.1,2.7l2.8,1.2v1.7l-0.6,0.6l0.4,2l1.3,1.5l-0.5,0.7l1.1,1.6l0.8,0.1L591.6,138.1z"/>
<path id="D546" class="st0" d="M440.2,319.9l-2-1.3l-2.8-0.2l-5.3-1l-1.4-0.2l-1.1-2.9l-2.2-0.9l-2.2,1l-1.3-0.8l-0.5-1.5l-1.8-1.2
	l-1.3,0.4l-1.3-1.9l-1-0.1l-0.9-1.9l-0.8-0.3l-1.1-2.1l-0.3-1.5l0.2-2.2l-0.8-0.9l-1.7,0.4l-0.7-1l1.1-1.8l0.8-2.7l-0.8-0.4l0.2-2.4
	l0.4-1.2l-1.5-0.8l-0.7-1.1l0.6-3.5l0.1-2.1l-1.4-1.4h-0.6l-1.8,2.5l-0.5,1.6l-0.3,2.1l-0.7,2.6l-2.1,1.4l-0.2,1.5h-1.2l-2.8-4.7
	l-1.7,0.3l-1,2.4l-1.2-0.9l-1.8,0.9l-1.5-1.5l-0.8,1.3l0.7,0.8l-0.8,0.8l-1.6,0.8l-1.2,0.3l-1.8,1.5l-0.8-0.2l-0.5-3.8l-0.3-0.7
	l-2.2-2.9l-0.6-2.1l-0.7-0.8l0.1-1.1l1.1,0.2l1.8,2.8l0.5,0.2l1.3-1.1l0.2-1.4l-0.7-1l-1.3-0.7l-0.7-3.7l1.3-0.5l1-2.2l0.1-2.2
	l1.9-3.5l-0.2-1.9L385,267l-0.7-3l-0.8-0.4l-2-3.4l-0.4-1.8l-1.5-2.4l-0.3-1.8l0.5-2.8l1.5-2.9l0.2-2.3l-1.7-2.4l-3.4,0.2l-1.5-0.4
	l-1,0.8l-0.2-1.8l0.6-2.8l-0.7-1.6l0.9-1.4l0.3-2.2l1.4,0.5h1.2l0.7-0.5l0.1-2.5l-0.5-0.8l-0.2-2.4l0.7-0.4h1.3l2,1.7l2.3,0.9
	l3.2-0.8l1.4-1.9l0.2-1l1.2,1l1.7-1l4.7-1.9l1.3-0.1l1.4-2.3l-0.7-1.2l0.1-4l0.7-1.7l0.7-0.5l2.2,0.6l3-0.1l0.7,0.3l1.7-1.8l1-2.3
	l1.6-3l0.6-0.3l1,0.7l0.5,1.7l1.7,1.2l1,0.2l2.4-0.7l0.3-1.1l1.1-0.3l0.6-0.7l1.2-2.5l1.2-1.5l1.6-3l0.2-1.2l-0.2-1.7l0.4-1.3
	l0.6,1.8l1.4,1.9l2.6,1.1l1.5,2.3h1.7l0.4,0.4l-0.5,2.5l0.2,1.5l0.7,2.9l0.6,1l2,1.6l0.7,1.3l-0.3,2l-0.1,3.5l-0.4,1.6l0.3,3.9
	l1,2.9l0.6,4.5l1.5,3.3l2.7,4.4l0.8,2.6l0.4,4.6l-0.7,3l-0.3,3.5l0.2,2.1l0.5,2l1.3,3.2l-0.4,3.8v1.7l1,3.2l0.9,1.2l1,0.6l0.5,1.3
	l-0.2,2.1l0.8,2.8l2.3,3.4l1.3,1.7l1.2,2.4l0.5,1.8v2.3l-0.3,4.7l-0.3,1.5l-0.5,0.9l-2.6,2.2l-2,2.5l-1.6,3.1l-0.7,0.9l-0.9,0.4
	l-0.6-0.4l-1-1.9h-1.5l-0.5,2.1l0.2,1.8l0.7,2.7l0.4,2.9L440.2,319.9z"/>
<path id="D551" class="st0" d="M187.5,561.7l0.4-1.8l-1.5-0.6l-0.6-0.6l0.2-2.7l0.5-2l-0.4-1.4l1.2-1.5l0.2-1.7l-0.9-2.4l-1.6-1.2
	l-0.6-2l0.7-3.3l-1.4-0.4l-0.4-0.5l0.3-3l0.9-4.5l-4.7-0.8l-2.6-0.2l-2.7-1l-0.8-0.7l-3.2-1.1l-0.8-0.8l-1.4-2.1l-1.9-1.3l-3.2-1.9
	l-3.2-3.6l-4.5-4.9l-1.1-0.8l-1.1-1.7l-2.1-2.2l-1.5-2.5l0.2-1.1l-1.3-2.1l-1.2-1.1l1.3-1.2l1.6,1.9l0.2,2l2.7-0.1l1.9,0.3l0.5-0.9
	l0.1-1.7l1.8-1.6l1.5-4.8l1.1-0.4l1.3,0.5l0.8-2.2v-1.7l0.5-2.3l-0.3-1l-0.7-0.4l-1.1,0.3l-0.8-0.9l-0.3-1.4l-1-0.5l-1.3,0.1
	l0.8-2.1l0.1-1.5l-0.7-0.3l-1.6-1.9l1.8-3.6l0.6-1.6l1.4,0.7l0.5-0.7l0.4-3.1l-1.3-0.5v-1.3l1.5-5.6l1.4-0.9l0.6-0.9l1.7-1.2
	l1.8-0.2l2.1,0.5l0.9,0.6l1.1-1.3l0.6-4.1l1.5-2.4l1.6-0.9l0.1-1.6l-0.4-1.5l0.9-1.1l3.1,0.5l2.5,0.7l0.4,0.4l1.6,0.3L182,453
	l-1.2,1.5h-1.3l-0.8,2.8l0.4,1.2l1.5,0.8l1.5,1.4l1.5,0.4l0.3-3.2l0.7-3.4l0.3-0.7l1.5-0.2l0.5,0.4l1.2-0.6l1.8,0.1l-0.4-2.2l0.7-1
	l1.8,0.2l0.3,0.8l0.2,2.7l-0.2,3.3l-0.4,0.9l-0.4,2.5l-1.5,3.1l-1,3.9l0.7-0.1l0.7-1.8l1.3-1.6l1.3-2.3l1.4-0.1l-0.1,2.4l0.3,0.8
	l1.2-0.3l2.1-1.3l0.5-0.8l2,0.7l0.5,1.9l3.8-1.4l0.5-2.7l1.2,0.1l0.9-0.4l-0.1-2.9l0.2-2.9l2.2-0.8l1.2-1l-0.2-1.4l0.7-1.4l-0.7-2.3
	v-1.9l0.7-6.6v-1.7l1-1.2l1.2-0.7l2-0.3l6.4,1.1l1.4,0.1l0.5-0.6l0.4-1.7l0.7-1.7l0.6,1l0.2,2.3l0.6,2.4l1.3,1.1l1.1,0.1l1.1-1.4
	l4.7,0.6l-0.8,3.6l0.6,4.9l0.8,4.1l-0.2,2.4l0.1,4.4l-0.2,2l0.5,1.7l1.2,6.4l0.8,0.4l0.3,1.1l1.1,1.3l0.8,2l0.6,2.8l0.2,3.3l1.6,3.7
	l0.3,2.3l0.7,1.7l0.2,2.8l-0.8,1l0.5,1.3v2.3l0.6,2.9l2.5,2.8l0.7-0.9l1,0.9l1,3l1.2,1.5l0.8,1.7l1.3,4.5l2.1,1.6l0.4,1l0.4,3.1
	l2.4,5.4l0.4,2.4l1.8,1.4l0.6,1.9l1.4,2.8l0.3,1l0.1,2.1l0.8,1.8l-0.4,3.3l0.6,2.4v1.5l0.8,6l0.8,1.4l-0.1,2.9l-0.7,1.6v1l-0.6,3.7
	l1.6,3.6l-0.3,1.9l0.6,2.1l-0.2,2.5l-1.2,2.4l0.3,0.9l-0.6,1.2l0.1,1.8l0.9,2.2l0.8,3.9l0.6,1l-1.4,1.4l-1.8-0.4l-0.3,0.3l-0.3,2
	l-2.9,0.5l-2.3,1.6l-3.2,1.8l-0.5-0.7l-0.8-2.8l-0.5-0.2h-3.3l-0.6,0.7l-0.8-0.4l-0.8-1.6l-1.9-2.2l1.6-2.2l-2.2-1.9l-2.7-2.8
	l-2.2,1.2h-1.6l-1.1-2.8l-2.1-0.5l-2.4-0.9l-0.1-0.8l-1.6-1.1l-1.2-0.1l-0.5,2l-2.6,0.5l-0.8-0.3l-0.3-0.9l-2.8,0.1l-1.4-0.2
	l-1.8,1.1l-4.6,0.8l-1.2,1.2l0.3,1.8l-0.4,2l-1.3,0.1l-1.1-1.8l-0.6-2.2l-1.7-1.9l-1.3,0.2l-0.1,0.9l-1.5,0.6l-3.3,0.2v-2.1l0.9-1.1
	l-0.2-0.9l-1.2,0.5l-2.3-0.8h-1.5l0.2-1.8l0.6-3.1l-0.6,0.1l-1.4-0.6l0.9-2.1l-1.4-0.6l-1.5-0.2l-0.4,0.7l-1.5,1.2l-1,1.3l-0.6,1.6
	l-0.7,0.5l-1.4-1.4l-0.3-1.6l0.4-1.4L187.5,561.7z"/>
<text transform="matrix(0.6761 0.7369 -0.7369 0.6761 86.2534 481.9787)" class="textName">Anantapur</text>
<text transform="matrix(1 0 0 1 206.4585 611.5996)" class="textName">Chittoor</text>
<text transform="matrix(1 0 0 1 492.8896 253.791)" class="textName">East Godavari</text>
<text transform="matrix(1 0 0 1 285.8174 322.5371)" class="textName">Guntur</text>
<text transform="matrix(1 0 0 1 403.5264 357.0527)" class="textName">Krishna</text>
<text transform="matrix(1 0 0 1 113.1216 402.1104)" class="textName">Kurnool</text>
<text transform="matrix(1 0 0 1 328.2603 538.0391)" class="textName">SPSR Nellore</text>
<text transform="matrix(1 0 0 1 232.4609 391.6445)" class="textName">Prakasam</text>
<text transform="matrix(1 0 0 1 651.2969 104.7812)" class="textName">Srikakulam</text>
<text transform="matrix(1 0 0 1 553.7534 206.3516)" class="textName">Visakhapatnam</text>
<text transform="matrix(1 0 0 1 455.4775 66.9155)" class="textName">Vizianagaram</text>
<text transform="matrix(1 0 0 1 305.5249 213.2324)" class="textName">West Godavari</text>
<text transform="matrix(1 0 0 1 178.9561 511.3945)" class="textName">Y.S.R.</text>
</svg>
