<?xml version="1.0" encoding="utf-8"?>
<!-- Generator: Adobe Illustrator 26.0.0, SVG Export Plug-In . SVG Version: 6.00 Build 0)  -->
<svg version="1.1" id="Layer_1" xmlns="http://www.w3.org/2000/svg" xmlns:xlink="http://www.w3.org/1999/xlink" x="0px" y="0px"
	 viewBox="0 0 800 730" style="enable-background:new 0 0 800 730;" xml:space="preserve">
<style type="text/css">
	.st0{stroke:#000000;stroke-miterlimit:10; cursor:pointer;}
	.textName{font-family:'Arial'; font-weight:bold; color:#000000; font-size:14px; cursor:pointer;}
</style>
<path id="D587" class="st0" d="M416.1,680.6L416.1,680.6L416.1,680.6l0,0.1l0,0v0.1h0v0.1l0.1,0v0.1h0.1v0.1h0.1v0.3h0v0.1h0v0.1
	l-0.1,0v0.1h-0.1v-0.1l0,0v-0.1h0v-0.1h0v-0.1h0v-0.3h0L416.1,680.6L416.1,680.6z M425.9,671.9v0.1l0,0v0.2l0,0v0.1l-0.1,0v0.1l0,0
	v0.1h0v0.1l0,0v0.1l0,0v0.1h0v0.1l0,0v0.1h0v0.1l0,0v0.1h0v0.1h-0.1v0.1h0v0.1l0,0v0.1l0,0v0.2l0,0v0.1l0,0v0.2h0v0.1h0v0.2h0v0.1h0
	v0.1l0,0v0.1l0,0v0.1l0,0v0.1h0v0.1h0v0.1l0,0v0.1h0v0.1l0,0v0.1l0,0v0.1h0v0.1h0v0.1l0,0v0.1h0v0.1l0,0v0.2l0,0v0.1l0,0v0.1h0v0.1
	h0v0.1l0,0v0.3h0v0.1l0,0v0.2h0v0.1l0,0v0.2h0v0.2l0,0v0.2h0v0.2l0,0v0.1h0v0.4h0v0.1h0v0.1l0,0v0.2h0v0.6l0,0v0.2v0.4h0v0.7v0.1h0
	v0.1l0,0v0.1h0v0.1h0v0.1h0v0.1l0,0v0.1h0v0.1l0,0v0.1h0v0.1l0,0v0.1h0v0.1h0h0v0.1h0l-0.1,0v0.1h-0.1v0.1l-0.1,0v0.1h0v0.1l0,0v0.1
	h0v0.1l0,0v0.1h0v0.1l-0.1,0v0.1h0v0.1h0v0.1l0,0v0.1l0,0v0.1l0,0v0.1h0v0.1l0,0v0.1l0,0v0.1h0v0.1h0v0.1h0v0.1h0h-0.1v0v0.1h0v0.1
	h0v0.1h0v0.1l0,0l0,0l0,0l0,0v0v0h0h0v0v0.1h0v0.1l0,0v0.1l0,0v0.1l0,0v0.1h0v0.1l0,0v0.1h0v0.1l0,0v0.1h0v0.1h0v0.1l0,0v0.1h0v0.1
	h0v0.1h0v0.1l0,0v0.1h-0.1v0.1h0v0.1l-0.1,0v0.1h-0.3v0.1h-0.5v0.1h-0.8v-0.1h-0.4v-0.1H419v-0.1l-0.1,0v-0.1h-0.1V683h-0.1V683
	h-0.1l0-0.1l-0.1,0v-0.1h-0.1v-0.1l-0.3,0v-0.1h-0.2l0,0l0,0h0v-0.1l0,0v-0.1h-0.1v-0.1h-0.1v-0.1h0v-0.1l-0.1,0v-0.1h0v-0.1l-0.1,0
	v-0.1h0v-0.1h-0.1v-0.2h0v-0.2l0,0v-0.2l0,0v-0.1l0,0v-0.2h0v-0.2l0,0v-0.2l0,0v-0.1h0v-0.1h0.2v0.1h0l0,0.1l0.1,0v0.1l0,0v0.1h0.1
	v0.1h0.1v0.1h0.1v0.1h0v0.1l0,0v0.1h0v0.1h0v0.1h0v0.3l0,0v0.1h0.3v0.1h0.3v-0.1h0.2V682l0.3,0v-0.1h0.1v-0.1h0.2v-0.1h0.2v-0.1h0.1
	v-0.1h0.9v0.1h0v-0.1l0.2,0v-0.1h0.1v-0.1h0.1v-0.1h0.1v-0.1l0.1,0v-0.1h0.1v-0.1h0v-0.1h0.2v-0.1h0v-0.1l0,0v-0.1h0v-0.1h0v-0.1h0
	v-0.1l0.1,0V681l0,0V681l0.1,0v-0.1h0v-0.1l0.1,0v-0.1h0.1v-0.1l0,0v-0.1h0.1v-0.1l0,0v-0.1h0v-0.1l0,0v-0.1h0v-0.1h0v-0.1l0.1,0
	v-0.1h0.1v-0.1h0v-0.1h0.1V680h0v-0.1h0v-0.2l0,0v-0.1h0v-0.1l0,0v-0.1l0,0v-0.1h0v-0.1h0.1v-0.1h0v-0.1h0V679l0.1,0v-0.1l0,0v-0.2
	l0,0v-0.1h0v-0.1h0v-0.1h0v-0.1h0v-0.1l0,0v-0.1h0v-0.1h0v-0.1h0v-0.1l0,0v-0.1l0,0V678l0,0v-0.1h0v-0.1l0.1,0v-0.1h0v-0.1h0v-0.1
	l0,0v-0.1l0,0v-0.2h0v-0.2l0,0v-0.4h0v-0.3l0,0v-0.1l0,0v-0.2l0,0v-0.2h0v-0.2l0,0v-0.1h0v-0.1l0,0v-0.1h0v-0.1l0,0v-0.1l0,0v-0.2
	l0,0v-0.1l0,0v-0.2h0v-0.2h0v-0.1l0,0v-0.1l0,0v-0.1l0,0v-0.1l0,0v-0.2h0v-0.1h0v-0.1l0,0v-0.1h0V674h0v-0.1h0v-0.1h0v-0.1l0,0v-0.2
	l0,0v-0.1h0v-0.1l0,0v-0.1h0v-0.1l0,0v-0.1l0,0v-0.1h0V673l0,0v-0.1h0v-0.1l0,0v-0.1l0,0v-0.1h0v-0.1h0v-0.1h0v-0.2h0v-0.1l0.2,0
	v-0.1h0.1v-0.1l0,0v-0.1h0v-0.1l0,0V672h0v-0.1L425.9,671.9L425.9,671.9L425.9,671.9L425.9,671.9L425.9,671.9z M316,353.3L316,353.3
	l0.1-0.1v0.1L316,353.3l0.1,0.2l0,0v0.1h0v0.1H316v0.1l0,0v0.2h0v0.1h0v0.4h0v0.2l0,0v0.1l0,0v0.2h0v0.1l0,0v0.1l0,0v0.1h0v0.1h0
	v0.1h0v0.1l0,0v0.1h-0.1v0.1h0l0,0.1l0,0v0.1h-0.1v0.1H315v-0.1h0v-0.1l0,0v-0.2h0V355l0,0v-0.1h0v-0.1l0,0v-0.1h0v-0.1h0v-0.1l0,0
	v-0.1h0v-0.1l0,0v-0.1h0v-0.1h0v-0.1h0v-0.1l0,0v-0.1h0v-0.1l0,0V354l0,0V354l0,0v-0.1h0v-0.1l0,0v-0.1h0v-0.1h0v-0.1h0v-0.1l0,0
	v-0.1l0.1,0v-0.2L316,353.3L316,353.3L316,353.3z M501.9,348.6v-0.1h0.1v0.1h0v0.1h0v0.1l0,0v0.1h0v0.1l0,0v0.1h0v0.1h0v0.1h0v0.1
	h-0.2v-0.1h0V349h0h0V349h0v-0.1l0,0v-0.1h0v-0.1h0h0.1v-0.1h0.1v-0.1h0.1v-0.1L501.9,348.6L501.9,348.6L501.9,348.6z M505.1,344.1
	v-0.9h0v0.3h0v0.2h0v0.2h0v0.4l0,0v0.1l0,0v0.1h0v0.3l0,0v0.3h0v0.1l0,0v0.2l0,0v0.2l0,0v0.3l0,0v0.3l0,0v0.3h0v0.1h0v0.3l0,0v0.3
	l0,0v0.1h0v0.3l0,0v0.2l0,0v0.1l0,0v0.1h0v0.3l0,0v0.2h0v0.2l0,0v0.1l0,0v0.2l0,0v0.2h0v0.2h0v0.1l0,0v0.3h0.1v0.1l0,0v0.1h-0.1v0.1
	l-0.1,0v0.1h0v0.2l0,0v0.1h0v0.1h0v0.4l0,0v0.6h0v0.4h0v0.2l0,0v0.3h0v0.1h0v0.2h-0.1v0.1h-0.1v0.1h-0.5v-0.1h-0.1v-0.1h0v-0.1
	l-0.1,0v-0.1h0v-0.1h0v-0.1l0,0v-0.2l0,0v-0.1l0.1,0v-0.1h0v-0.1l0,0v-0.1h0V351h-0.1v-0.2h0v-0.1l0,0v-0.1h0v-0.1h0v-0.1l0,0v-0.1
	l0,0v-0.1h0v-0.2h0v-0.1h0v-0.3l0,0v-0.1h0v-0.1l0,0v-0.1h0v-0.1l0,0v-0.1h0v-0.1l0,0v-0.1h0v-0.3h0.1V349h0v0.1h0v0.1l0.1,0v0.1h0
	v0.1h0.1v0.1h0.3v-0.1h0.1v-0.1l0,0v-0.1l0,0V349l0,0v-0.2h0v-0.1h0v-0.1h0v-0.1l0,0v-0.1h0.1v-0.1l0,0v-0.1l0,0v-0.1h0v-0.1l0,0
	v-0.1l0,0v-0.1h0v-0.3h0v-0.2l0,0v-0.2h0v-0.2l0,0v-0.1l0,0V347l0,0v-0.1h0v-0.1h0v-0.1h0v-0.3h0v-0.1h0v-0.3l0,0v-0.1l0,0V346h0
	v-0.1l0.1,0v-0.1h0v-0.3h0v-0.2l0,0v-0.1h0.1v-0.2h0V345l0,0v-0.1h0v-0.2h0v-0.1l0,0v-0.4h0L505.1,344.1L505.1,344.1z M321.3,337.2
	L321.3,337.2L321.3,337.2L321.3,337.2h0.1l0,0.1l0,0v0.1l0,0v0.3h0v0.2l0,0v0.1l0,0v0.1l0,0v0.1h0v0.1h0v0.1h0v0.2h0v0.2h0v0.1h0
	v0.2h0v0v0.4l-0.1,0v-0.1l0,0v-0.1h0v-0.1h0V339h-0.2v0.1h-0.2V339h-0.2V339l0,0v-0.3l0,0v-0.2h0v-0.2h0V338l0,0v-0.3l0,0v-0.4l0,0
	v-0.1h0L321.3,337.2L321.3,337.2L321.3,337.2L321.3,337.2z M506.2,333.6L506.2,333.6l0.2-0.1v0.1h0v0.1l0,0v0.2l0,0.2l0,0v0.4l0,0
	v0.2h0v0.2h0v0.2l0,0v0.1h0v0.2l0,0v0.2l0,0v0.1l0,0v0.1l0,0v0.1l0,0v0.2l0,0v0.3l0,0v0.4l0,0v0.3l0,0v0.2h0v0.2h0v0.2l0,0v0.2h0
	v0.2l0,0v0.2h0v0.1l0,0v0.2h0v0.2l0,0v0.1h-0.1v-0.1h0v-0.2h0v-0.3h0v-0.2h0v-0.2h0v-0.2l0,0v-0.1h0v-0.4h0v-0.5l0,0V336l0,0v-0.2h0
	v-0.3l0,0v-0.1l0,0v-0.1h0v-0.2h0V335l0,0v-0.2l0,0v-0.2h0v-0.1h0v-0.3l0,0v-0.1h-0.1v-0.1h0l0,0.1l-0.1,0h0v-0.1h0v-0.3l0,0v-0.1h0
	v-0.1h0L506.2,333.6L506.2,333.6L506.2,333.6L506.2,333.6z M365,255.6L365,255.6l0.4,0.1v0.1l0.1,0v0.1h0.1v0.1h0v0.1l0,0v0.1h0v0.1
	l0,0v0h0v0.1l0,0v0.1l0,0v0.1l0,0v0.1l0,0v0.1h0v0.1l0,0v0.2h0v0.1v0.1l0,0v0.1h0v0.3h0v0.3l0,0v0.4l0,0v0.2h0v0.4h0v0.1h0v0.1h0
	v0.1h-0.1v0.1h0v0.1l0,0v0.1h-0.1v0.1l-0.2,0v0.1h-0.1v-0.1h0v0.1l0,0l0,0l0,0l-0.1,0v0.1v0h0H365v0.1h-0.2v0.1l0,0v0.1h-0.2v0.1
	h-0.1v0.1h0v0.1l-0.1,0v0.1h-0.1v0.1h-0.3v0.1l-0.1,0v0.1h0v0.1l-0.1,0v0.1h-0.1v0.1h0v0.1h0v0.1l0,0v0.1l0,0v0.1h0v0.1l-0.1,0v0.1
	h-0.1v0.1h-0.1v0.1h0v0.1l0,0v0.1h-0.1v0.1h-0.1v0.1l0,0v0.1h0v0.1l-0.1,0v0.1h0v0.1h-0.1v0.1h0v0.1l0,0v0.1h0v0.1h-0.1v0.1l0,0v0.1
	h0v0.1l0,0v0.1h0v0.1l0,0v0.1l0,0v0.1h0v0.1h0v0.1h0v0.1h0v0.1l0,0v0.1h0v0.1l0,0v0.1l0,0v0.1h0v0.1l0,0v0.1h0v0.1l0,0v0.1h0v0.1
	l0,0v0.1h0v0.1h-0.1v0.1l0,0v0.1h-0.1v0.1l0,0v0.1h-0.1v0.1h-0.1v-0.1h-0.1v-0.1h0v-0.3l0,0V262l0,0v-0.1h0v-0.1l0,0v-0.1l0,0v-0.1
	l0,0v-0.1h0.1v0h0.1v-0.1l0.1,0v-0.1h0.1v-0.1h0.1v-0.1h0.1v-0.1l0.1,0l0.2,0v-0.1l0.1,0v-0.1l0,0v-0.1h0V261l0,0v-0.1l0,0v-0.1l0,0
	v-0.1l0,0v-0.2l0,0v-0.1h0v-0.1h0v-0.1l0,0v-0.1h0v-0.1h0v-0.1l0,0v-0.1l0,0v-0.2l0,0v-0.1h0v-0.1h0v-0.1l0,0v-0.1l0,0v-0.1h0v-0.1
	l0.1,0v-0.1h0v-0.1h0v-0.1l0,0v-0.1h0V259h0V259l0,0v-0.1l0,0v-0.1l0,0v-0.1h0v-0.1h0v-0.1l0,0v-0.1h0v-0.1l0,0v-0.1h0v-0.1l0,0
	v-0.1h0v-0.1l0,0V258l0,0v-0.1h0v-0.1l0,0v-0.2l0,0v-0.1l0,0v-0.1h0v-0.1l0,0v-0.1l0,0v-0.2l0,0V257h0v-0.2h0v-0.2h0v-0.1l0,0v-0.1
	h0v-0.1l0,0v-0.1h0v-0.1h0v-0.1l0-0.4h0v-0.1h0.1v-0.1l0,0v-0.1h0.1v-0.1h0.1H365z M508.8,210.4v0.2l-0.2,0v0.1l0,0v0.1h0v0.2h0v0.1
	l0,0v0.1l0,0v0.1h0v-0.1l0.1,0V211h0.1V211h0.2v0.1h0.2v0.1l0.1,0v0.1h0.2v-0.1h0.5v0.1h0.1v0.1h0.2v-0.1h0.1v-0.1l0.1,0V211h0.3
	V211h0v0.1h0.4v0.1h0.1V211h0.1v0.1l0.3,0v0.1h0.2v0.1h0.1v0.1h0.2v0.1l0.1,0v0.1h0v0.3h0v0.1h0v0.1l0,0v0.1h0v0.1h0v0.1h-0.1v0.1
	l-0.1,0v0.1l-0.2,0v0.1l-0.1,0v0.1l-0.1,0v0.1l-0.1,0v0.1h-0.2v0.1H511v0.1l-0.1,0v0.1h0v0.1l-0.2,0v0.1h-0.1v0.1l-0.1,0v0.1l-0.1,0
	v0.1h-0.1v0.1h-0.2v0.1h-0.1v0.1h0v0.1h0v0.1l0,0v0.1h-0.1v0.1h-0.2v0.1h-0.2v0.1l-0.2,0v0.1h-0.1v0.1h-0.1v0.1l-0.2,0v0.1h-0.2v0.1
	l-0.2,0v0.1h-0.2v0.1h-0.2v0.1h0v-0.1h-0.1v0.1l-0.1,0l0-0.1h0v0.1l0,0l0-0.1h-0.2v-0.1h-0.2v-0.1l-0.1,0v-0.1h0v-0.1l-0.1,0v-0.1
	H507v-0.1h-0.1v-0.1l0,0v-0.1h0h-0.1V213h-0.1V213l0,0v-0.1h0v-0.1h0v-0.1h0v-0.1h0v-0.1h0v-0.2h0v-0.2h0v-0.1l0,0v-0.2h0v-0.2h0
	v-0.5h0v-0.1h0v-0.1l0,0v-0.1h0v-0.1h0v-0.1h0.1v-0.1l0.1,0V211h0.1V211l0.1,0v-0.1h0.5v0h0v0h0.1v0.1l0.2,0v0.1h0.2V211h0v0.1h0.3
	V211h0v0.1h0V211l0,0v-0.1h0v-0.1l0,0v-0.3l0,0v-0.1h0.1v-0.1H508.8z M299.2,211.7L299.2,211.7L299.2,211.7l0.1,0.2h0v0.1h0v0.2
	l-0.1,0v0.1h-0.1v-0.1h-0.1v0.1h0v-0.1h0v0.1h-0.2V212l0,0V212l0,0v-0.1h0v-0.1h0.1v-0.1h0.1v-0.1L299.2,211.7L299.2,211.7
	L299.2,211.7z M502.5,349.5L502.5,349.5l0.1-0.1v0.1h0v0.3h-0.1v0.1h-0.1v-0.1h-0.1v0.1h0v0.1l0,0v0.1h-0.1v-0.1l0,0v-0.1h0v-0.1
	h0.1v-0.1h0.1v-0.1h0.1v-0.1h0L502.5,349.5L502.5,349.5L502.5,349.5L502.5,349.5z M315.7,187.4L315.7,187.4l0.6-0.1v0.2l-0.1,0v0.1
	l-0.2,0v0.1H316v0.1l0,0v0.1h0v0.2h0v0.1h0v0.2h0l0,0.1h0v0.3h0v0.1l0,0v0.1h0v0.1h0v0.1h0v0.2h0v0.1h0v0.1l0,0v0.1h0v0.1l-0.1,0
	v0.1h-0.2v0.1h-0.3v-0.1h-0.1v-0.1l-0.1,0v-0.1l0,0v-0.3h0v-0.5h0v-0.2h0v-0.2h0v-0.2h0v-0.2l0,0v-0.1l0,0v-0.1h0L315.7,187.4
	L315.7,187.4L315.7,187.4L315.7,187.4z M321.1,186.1L321.1,186.1L321.1,186.1l0.1,0.1h0v0.1l0,0v0.1h0v0.1H321v0.1l-0.1,0v0.1h0v0.1
	l0,0v0.1h0v0.1l0,0v0.1h0v0.1l0,0v0.1h-0.1v0.1l-0.1,0v0.1l0,0v0.1h0v0.1h0v0.1h0v0.1l0,0v0.1h0v0.1l0,0v0.1h0v0.1l-0.1,0v0h0v0.1
	l0,0v0.1h0v0.1l0,0v0.1h0v0.1h-0.1v0.1h-0.1v0.1h-0.1v0.1l-0.1,0v0.1h-0.2V188l0,0v-0.1h0v-0.3h0v-0.2l0,0v-0.1l0,0v-0.2h0v-0.1h0
	V187l0,0V187h0v-0.1h0.1v-0.1h0.2v-0.1h0.3v-0.1l0.1,0v-0.1h0.2v-0.1l0.1,0v-0.1h0.1v-0.1l0,0v-0.1h0.1v-0.1l0,0v-0.1h0.2v-0.1
	l0.1,0v-0.1h0v-0.1h0L321.1,186.1L321.1,186.1z M322,185.2v-0.2h0.2v0.1h0.1v0.4h0v0.1h0v0.1l0,0v0.1l-0.2,0v-0.1l0,0v-0.2h0
	L322,185.2L322,185.2z M377.4,152.2L377.4,152.2l0.1,0.1v0.1h0.1v0.1l0.1,0v0.1h0v0.1h0l0,0.1h0v0.3h0v0.3h0v0.2h0v0.2h0v0.1h0v0.1
	v0.1l0,0v0.1l0,0v0.1l0,0v0.1h0v0.1l0,0v0.1h0v0.2h0v0.1h0v0.1l0,0v0.1l0,0v0.1l0,0v0.1h0v0.1l0,0l0,0.1v0h0v0.1l0,0v0.1h0v0.1
	l-0.2,0v0.1h0v0.1h0v0.1l0,0v0.1h0v0.1l0,0v0.1h-0.1v0.1h0v0.1h0v0.1l0,0v0.1h0v0.1l-0.1,0v0.1h-0.1v0.1l0,0v0.1h0v0.1h0v0.1h0v0.1
	l0,0v0.1h-0.1l0,0.1h0v0.1l-0.1,0v0.1h0v0.1l0,0v0.1h0v0.1h0v0.1l0,0v0.1h0v0.1h0v0.1l-0.1,0v-0.1l0,0v-0.1h-0.1v-0.1l0.1,0v-0.1
	l-0.2,0v-0.2l0,0v-0.1l0,0v-0.1h0v-0.1h0v-0.1l0,0v-0.1h0v-0.1h0V156l0,0V156l0,0l0-0.1h0v-0.1h0v-0.2h0v-0.7l0,0l0-0.2h0v-0.2l0,0
	v-0.2h0v-0.2h0v-0.1l0,0v-0.1h0.1v-0.1h0V154l0,0v-0.1l0,0v-0.1h0v-0.1l0,0v-0.1h0.1v-0.1h0.1v-0.1h0v-0.1l0,0v-0.1h0v-0.1h0v-0.1h0
	v-0.1l0.1,0v-0.1h0.1v-0.1h0v-0.1h0v-0.1h0V153l0,0V153h0.1v-0.1l0.1,0v-0.1h0v-0.1l0.1,0v-0.1h0v-0.1l0,0v-0.1h0v-0.1h0.1v-0.1l0,0
	v-0.1h0.1v-0.1h0v-0.1h0v-0.1l0.1,0v-0.1h0v-0.1h0.2v-0.1H377.4z M385.5,129.4L385.5,129.4L385.5,129.4L385.5,129.4h0.1v0.1l0,0v0.2
	l0,0v0.1l0,0v0.5h0v0.2h0v0.1h0v0.1l0,0v0.1l0,0v0.2h0v0.1h0v0.2l0,0v0.2h0v0.2h0v0.1l0,0v0.1l0,0v0.2l0,0v0.1l0,0v0.2l0,0v0.1h0
	v0.2h0v0.1l0,0v0.2l0,0v0.2h0v0.2h0v0.2h0v0h-0.1v0.2h0v0.3h0v0.1h0v0.3h0v0.2h0v0.2h0v0.2h0v0.3h0v0.1l0,0v0.2h0v0.1h0v0.2h0v0.1h0
	v0.1h0v0.3h0v0.1l0,0v0.2l0,0v0.2h0v0.2h0v0.1l0,0v0.1l0,0v0.1h0v0.1l0,0v0.3h0v0.2l0,0v0.4h0v0.1l0,0v0.2h0v0.1h0v0.2h-0.1v0.1h0
	v0.1l0,0v0.2h0v0.1h0v0.1l0,0v0.1h0v0.1h-0.1v0.1h0v0.1h0v0.1h0v0.1l0,0v0.1l0,0v0.1h0v0.2l0,0v0.1l0,0v0.1h0v0.1l0,0v0.1h0v0.1l0,0
	v0.1h0v0.1h0v0.2h0v0.1h0v0.1l0,0v0h0v0.2l0,0v0.3l0,0v0.1h0v0.1l0,0v0.1l0,0v0.2h0v0.2l0,0v0.1l0,0v0.3l0,0v0.1l0,0v0.1h0v0.3
	l-0.1,0v0.2l0,0v0.1l0,0v0.1l0,0v0.2l0,0v0.2l0,0v0.2h0v0.1H382v0.1h0v0.1h0v0.3l0,0v0.3l0,0v0.2h0v0.2l0,0v0.2l0,0v0.2h0v0.1l0,0
	v0.1h-0.1v-0.8h0V143l0,0v-0.2l0,0v-0.8l0,0v-0.2h0v-0.2l0,0v-0.2l0,0v-0.2l0,0v-0.1h0v-0.2l0,0V141l0,0v-0.4l0,0v-0.1h0v-0.1h0
	v-0.1h0v-0.2l0,0v-0.1h0V140l0,0v-0.3h0v-0.1l0,0v-0.1l0,0v-0.2h0v-0.2h0v-0.1h0V139h0v-0.2h0v-0.2l0,0v-0.1h0v-0.1h0v-0.1h0v-0.2
	l0,0v-0.3l0,0v-0.1h0v-0.3h0v-0.1h0v-0.1h0v-0.3l0,0V137l0,0v-0.1h0v-0.2h0v-0.1h0v-0.1l0,0v-0.3l0,0v-0.2l0,0V136l0,0v-0.2l0,0
	v-0.1l0,0v-0.3h0.2v-0.1l0,0v-0.1l0,0v-0.2l0,0v-0.3l0,0v-0.2h0v-0.2h0v-0.3h0V134h0v-0.2h0v-0.1l0,0v-0.2h0v-0.3l0,0v-0.1h0v-0.1
	l0,0V133h0v-0.2l0,0l0-0.1h0v-0.1l0,0v-0.1l0,0v-0.1l0,0v-0.1l0,0v-0.2l0,0v-0.1h0v-0.1l0,0v-0.2l0,0v-0.2l0,0v-0.1h0v-0.1h0v-0.2h0
	v-0.1l0,0v-0.2l0,0v-0.1l0,0v-0.1l0,0V131h0v-0.2l0,0v-0.1h0v-0.1l0,0v-0.2h0v-0.1h0v-0.1h0v-0.1h0v0l0,0V130h0v-0.1l0,0v-0.1h0
	v-0.1h0v-0.1h0v-0.1l0,0v-0.1l0.1,0v-0.1l0.1,0v-0.1l0.1,0L385.5,129.4L385.5,129.4z M290.5,138.1V138h0.1L290.5,138.1l0.1-0.1v0.1
	l0,0v0.2h0v0.2h0v0.1l0,0v0.1h0v0.1h-0.1v-0.1h0v0.1l-0.1,0v-0.1h0v-0.1h0v-0.1h0v-0.4h0v-0.1l0,0L290.5,138.1L290.5,138.1z
	 M289.8,137.6L289.8,137.6l0.3-0.1v0.1h0l0,0.1h0.1v0.1l0,0v0.1h0.1v0.1h0v0.1l0,0v0.1h0v0.1h0V138h-0.1v-0.1h0v-0.1l-0.1,0v-0.1
	H290v-0.1h-0.1v-0.1h-0.1L289.8,137.6L289.8,137.6z M414.5,85.3L414.5,85.3l0.2-0.1v0.1h0v-0.1h0.2v0.1h0.1v0.1h0h0v0.1l0,0v0.1h0
	v0.1h0v0.1l0.1,0v0.1l0,0v0.1h0v0.1l0,0V86l0,0v0.1l0,0v0.1h0v0.1l0,0v0.1h0v0.1h0v0.1l0,0v0.1l0,0v0.1h0v0.1l0,0v0.1l0,0v0h0v0.1h0
	V87h0v0.1l0,0v0.2h0l0,0.2h0v0.2h0v0.3l0,0v0.3h0v0.1h0v0.3h0v0.1l0,0V89l0,0v0.1h0v0.4h0v0.2h0v0.1l0,0V90h0v0.2h0v0.1l0,0v0.1l0,0
	v0.1h0v0.1l0,0v0.1l0,0v0.1h0v0.1l0,0v0.1h-0.1v0.1h-0.1v0.1l-0.1,0v0.1h-0.1v-0.1l0,0v-0.1l0,0v-0.4h0v-0.1l0,0v-0.1h0v-0.2l0,0
	v-0.2l0,0v-0.2l0,0v-0.1l0,0v-0.1l0,0v-0.2h0v-0.2h0v-0.1h0V89h0v-0.2h0v-0.1h0v-0.2h0v-0.2h0V88h0v-0.3v-0.2h0v-0.4l0,0v-0.1h0V87
	h0l0-0.1h0v-0.1v-0.2l0,0l0,0v-0.2h0v-0.1l0,0v-0.1l-0.1,0v-0.1h0h0h0v0.1h-0.1v-0.1h0v-0.1l0,0v-0.1l0,0V86h0v-0.1l0,0v-0.1l0,0
	v-0.1h0v-0.1h0v-0.2h0v-0.1l0,0v-0.1h0v-0.1L414.5,85.3L414.5,85.3L414.5,85.3z M414.8,87.1L414.8,87.1L414.8,87.1L414.8,87.1l0.1,0
	v0.2h0.1v0.2l0,0v0.2h-0.1v0.1h-0.1v-0.1l0,0v-0.1l0,0v-0.3l0,0L414.8,87.1L414.8,87.1z M301.6,66.1L301.6,66.1h0.2v0.1l0,0v0.1
	l0.1,0v0.1h0v0.1h0.1v0.1h0v0.1l0,0v0.1h0v0.1h0v0.1l0,0v0.1l0,0V67h0v0.1h0v0.1h-0.4v-0.1h0V67l0,0v-0.1l0,0v-0.1h0v-0.1l0,0v-0.1
	l0,0v-0.3l0,0v-0.1h0V66.1L301.6,66.1z M374.9,46.9v-0.2h0.1v0.1l0,0v0.1l0,0v0.1h0V47h0v0.2h0v0.1h0v0.1l0,0v0.1h0v0.2h0v0.1h0v0.6
	l0,0v0.1h0l0,0.1l0,0v0.2h0v0.1l0,0v0.1v0.3h0V49v0.1h0v0.2h0v0.1l0,0v0.1h0v0.1l0,0v0.1h0v0.1l0,0v0.1l0,0v0.1h0V50h0v0.1l0,0v0.1
	v0h0h0v0l0,0v0.1l0,0v0.1l0,0v0.1h0v0.1h0v0.1l0,0v0.1l0,0v0.1h0v0.1l0,0v0.1l0,0v0.1h0V51l0,0v0.1l0,0v0.1l0,0v0.1h0v0.1l0,0v0.1h0
	v0.1h0v0.1l-0.1,0v0.1H374v0.1h-0.2v-0.1h-0.2v-0.1l0,0v-0.1h-0.1v-0.2l0,0v-0.3h0v-0.1h0.1v-0.1l0.1,0v-0.1h0.1v-0.1h0v-0.1h0v-0.1
	l0,0v-0.1l0,0v-0.2h0v-0.2h0v-0.1l0,0v-0.4h0v-0.2h0v-0.1l0,0v-0.1l0,0v-0.1h0V49h0v-0.1h0v-0.2h0.1v0.1l0,0v0.1h0.1v-0.1l0,0v-0.1
	l0,0v-0.1l0,0v-0.1h0v-0.2h0v-0.1l0,0v-0.1h0v-0.2h0v-0.2l0,0v-0.1h0v-0.1h0v-0.1l0,0v-0.1h0v-0.1h0v-0.1l0,0v-0.1l0,0v-0.2l0,0V47
	l0,0L374.9,46.9L374.9,46.9L374.9,46.9L374.9,46.9z M299.9,210.7v0.2h0v0.2h0v0.1h0v0.1h-0.1V211h0V211l0,0v-0.1h0v-0.1l0,0
	L299.9,210.7L299.9,210.7L299.9,210.7L299.9,210.7z M299.9,210.7L299.9,210.7L299.9,210.7l0-0.2l0,0v-0.1h0v-0.1h0v-0.1l0,0v-0.1h0
	v-0.1l0,0v-0.1l0.1,0V210l0,0v-0.1l0,0v-0.1l0,0v-0.1l0,0v-0.1h0v-0.1l0,0v-0.1h0v-0.1h0v-0.1l0,0v-0.1l0,0v-0.1h0V209h0v-0.1h0
	v-0.1h0v-0.1l0,0v-0.1h0v-0.1l0,0v-0.1l0,0v-0.1h0v-0.1h0v-0.1l0,0v-0.1l0,0V208h0V208l0,0v-0.1l0,0v-0.2h0v-0.1l0,0v-0.2h0v-0.2
	l0,0v-0.1h0v-0.1l0,0V207h0v-0.2h0v-0.1l0,0v-0.1h0v-0.1l0,0v-0.1h0v-0.1l0,0v-0.1l0,0v-0.1h0v-0.2h0v-0.1h0V206h0v-0.1h0v-0.2l0,0
	v-0.1l0,0v-0.1l0,0v-0.1h0v-0.1l0,0v-0.1h0v-0.2l0,0v-0.3l0,0v-0.2l0,0v-0.1h0v-0.2h0v-0.1h0v-0.3h0v-0.2h0v-0.2h0V203l0,0v-0.1l0,0
	v-0.1l0,0v-0.2l0,0v-0.1l0,0v-0.3h0v-0.3h0v-0.1h0v-0.1l0,0v-0.1l0,0v-0.1h0v-0.3l0,0v-0.1h0v-0.1h0v-0.1h0v-0.1l0,0v-0.1h0V201h0
	v-0.1h0v-0.2h0v-0.1h0v-0.1l0.1,0v-0.1h0.1v-0.1l0,0v-0.1h0v-0.1l0,0v-0.1h0v-0.1h0v-0.1h0v-0.1l0,0v-0.1h0.1v-0.1h0V200h0.1V200
	h0.3v0.1h0.3v0.1h0.1v0.4l0,0v0.1l0,0v0.2h0v0.1l0,0v0.1l0,0v0.1l0,0v0.1l0,0v0.1h0v0.2l0,0v0.1h0v0.2h0v0.1l0,0v0.1h0v0.2h0v0.1h0
	v0.1l-0.1,0v0.1h0v0.1l0,0v0.1l0,0v0.1l0,0v0.1l0,0v0.1l0,0v0.2h0v0.1h0v0.1h0v0.1l0,0v0.1h0v0.1h0v0.1h0v0.1h0v0.1l0,0v0.1l0,0v0.1
	h0v0.1h0v0.1h0v0.1l0,0v0.1h0v0.1h0v0.1h0v0.1h0v0.1h0v0.1l0,0v0.1h0v0.1h0v0.1h0v0.1h0v0.1h0v0.1h0v0.1h0v0.1l0,0v0.1l0,0v0.1h0
	v0.1l0,0v0.1l0,0v0.1h0v0.1h0v0.1l0,0v0.1l0,0v0.1h0v0.1l0,0v0.2l0,0v0.1l0,0v0.1h0v0.1l0,0v0.1l0,0v0.1h0v0.2h0v0.1h0v0.1l0,0v0.1
	l0,0v0.1l0,0v0.1h0v0.1l0,0v0.2l0,0v0.1l0,0v0.1l0,0v0.1l0,0v0.1h0v0.1l0,0v0.1l0,0v0.1l0,0v0.1h0v0.1h0v0.1h0v0.1h0v0.1l0,0v0.2
	l0,0v0.2l0,0v0.2h0v0.1l0,0v0.1l0,0v0.1l0,0v0.1h0v0.1l0,0v0.1l0,0v0.1h0v0.1l0,0v0.1l-0.1,0v0.1h0v0.1l0,0v0.1l0,0v0.1h0v0.2h0v0.1
	h0v0.1l0,0v0.1h0v0.1h0v0.1l0,0v0.1h0v0.1l0,0v0.1h0v0.1h0v0.1h0v0.1l0,0v0.1h0v0.2l0,0v0.1l0,0v0.1L299.9,210.7L299.9,210.7
	L299.9,210.7z"/>
<text transform="matrix(1 0 0 1 343.8115 303.791)" class="textName">Lakshadweep</text>
</svg>
