<?xml version="1.0" encoding="utf-8"?>
<!-- Generator: Adobe Illustrator 26.0.0, SVG Export Plug-In . SVG Version: 6.00 Build 0)  -->
<svg version="1.1" id="Layer_1" xmlns="http://www.w3.org/2000/svg" xmlns:xlink="http://www.w3.org/1999/xlink" x="0px" y="0px"
	 viewBox="0 0 800 730" style="enable-background:new 0 0 800 730;" xml:space="preserve">
<style type="text/css">
	.st0{stroke:#000000;stroke-miterlimit:10; cursor:pointer;}
	.textName{font-family:'Arial'; font-weight:bold; color:#000000; font-size:14px; cursor:pointer;}
</style>
<path id="D598" class="st0" d="M369.9,511.8l0.2,0.7l0.8,0.3l0.2,0.9l-1.5,0.7l-1.3,0.5l-1.9,1l-0.1-1.2l1-0.6l1.5-1v-0.8
	L369.9,511.8z M374.1,514.4l0.1,1.8l0.9,0.5l-2.8,0.2l0.1-3.5L374.1,514.4z M372.2,513.6v1.7l-0.1,1.7l-3.1,0.1l-0.1-2.2l2.6-1.2
	L372.2,513.6z M368.8,515.1l0.1,2.1h-2.4l-0.1-1L368.8,515.1z M366.7,503.2l0.3,0.5l-0.3,0.6l-0.4-0.4l0.1-0.5L366.7,503.2z
	 M359.8,472.5l0.4,0.6l0.1,0.7l-0.2,1.5h-0.4v-2L359.8,472.5z M362.6,465.2v0.5l0.3,1l0.3,0.2l0.1,0.5l0.4,0.1l0.3,0.5h0.3l0.2,0.7
	v1l0.4,1.5l-0.3,0.6l-1-0.1l-0.7-0.6l-0.5-0.6l0.3-0.6l0.1-2.2l-0.3-0.5l-0.1-0.9l-0.2-0.2L362.6,465.2z M375.5,517.1l0.2,0.2
	l0.1,1.2l-0.1,2.3l0.2,0.7l1.3,0.1l0.7,0.4h0.8l0.2,0.5v0.6l-0.1,1.3v1.3l-0.2,0.5l0.1,0.9l-0.2,0.6l-0.6,1.2l-0.3,2.4l1.1,0.5
	l0.6,0.5l-0.6,1.1l0.3,0.2l0.2,1l-0.3,0.4l0.2,1.9l0.6,0.3l-0.4,1l0.3,1l-0.3,0.8v0.7l-0.3,0.1l0.2,0.8l0.7,0.6l0.7,0.2v0.4h-1
	l-0.2,1.4l-1.9,0.9h-0.7l-1.3,1.9l-0.2,0.8l0.4,0.4h1l1.4,0.8h0.6l1-0.5l1.6,0.1l0.4,0.2l0.3,0.5l1.5-0.4l0.5-0.3V547l0.4-0.4
	l0.1-0.7l-0.7-0.2l-0.3-0.5l0.5-0.3l0.4,0.4l0.5-0.5l1-0.6l0.9,0.9l0.7-0.2l1.1-0.1l0.5,0.2l0.4,0.4l2.2,0.7h0.5l0.4-0.3h1.1
	l0.2,0.4l-0.1,0.7l0.3,0.7l-0.7,0.7l1,2l0.8,1.2v1.4l0.1,1l0.4,0.4l0.5-0.1l0.5,0.2l0.4-0.4l0.5-0.2l0.5-0.8l0.5,0.7l0.3-0.7
	l0.7-0.1v1.2l-0.1,0.6l-1.1,0.4l-0.5,1.6l-1.5,0.3l-0.8,1.4l-0.3,1l0.5,1.8l-0.5,0.7l-1.5,0.7l0.4,1.8v1l-0.2,0.4l0.3,1l0.3,0.1V566
	l0.3-0.1l0.5,1.1l1.6,0.3l1,2.1l0.7,1.1l0.2,0.6l-0.2,0.6l-0.6-0.2l-0.4,0.1l-0.3,1l0.1,1.3l-0.1,0.5l-0.7,0.3h-1.3l-1.5,0.1
	l-0.3,0.4l-0.6,1.5l-1.2,0.2l-0.4,0.3l-0.2,0.4l-0.5,0.3l-1.9-0.2L388,578l-0.1,1.2l-0.4,0.3l-0.1,0.6l-0.9-0.2l-0.8,1l-1.3,0.2
	l-0.8-0.4l-0.4-2l-0.4-0.6v-1.4L382,577l-2.5-0.2l-0.3,0.5l-0.4,0.2l-0.2,0.6l0.1,1l-0.6-0.3h-0.5l-1.3,0.2l-0.6-2l0.4-0.3l0.9-0.1
	l0.1,0.6h0.4l0.2-1.6l-0.2-1.3l-0.3-0.7l-0.1-1.2l0.1-1h-0.5l0.1,1.3l0.3,0.4l-0.2,1l-0.3,0.2v0.5h-0.4l-0.3-0.7l-0.1-1.7l-0.4-0.8
	l-0.4-0.1l-0.7-1.5l-0.2-1l-0.5-0.8l-0.6-1.7l-0.4-3l0.1-1.2l-0.1-0.7l-0.9,0.1l-0.3-0.5l-0.1-0.5l-0.6-1.4l-0.3,0.6l0.6,1.4
	l0.6,1.1l0.2,1l0.4,1.1v0.7l0.2,0.4l0.1,2.1l0.7,0.9l0.1,0.3l0.5,0.5l0.1,0.5l0.7,1.6l-0.1,0.5l-0.3,0.1l0.2,0.7l0.6-0.2l0.5,1.2
	l0.3,1.2l-0.8,0.1l-0.4-1.4l-0.6-1.5l-0.1-0.5l-0.9-2.2l-0.3-1.2l-0.2-0.2L372,566v-0.3l-0.6-1.7l-0.2-0.5l-0.9-2.6l-0.7-2v-0.3
	l-1.2-3.2l-0.2-0.7l-0.5-1.2l-0.8-2.5l-0.2-0.5l-1-3.3L365,545l-0.6-1.6l-0.2-0.7l-1.2-3.1l-0.7-2.7l-0.7-2.3l-0.7-3.2l0.1-0.5
	l-0.6-1.8l-0.2-1.2l-0.2-0.8l-0.4-2.6l-0.2-0.3v-1.3l-0.4-1.4l-0.6-3.5l-0.1-1.1l-0.2-0.5l-0.1-1.5l-0.1-0.1l-0.3-2.5l-0.3-3.5
	l-0.1-0.3l-0.1-2l-0.1-0.2l-0.2-2.4l-0.2-2.2l-0.1-2.1l-0.2-1.7V497l-0.4-4.7v-1.2l-0.3-3l-0.1-1.9l-0.1-0.3l-0.1-1.9l-0.2-1l-0.3-3
	l-0.3-2l-0.2-2l-0.2-0.4v-0.9l-0.2-1.2V473l0.3-1.1l0.2-1.6l1-0.2l0.2-0.2l-0.2,0.6l0.2,1.2l0.5-0.2l0.1-0.5h0.4l-0.1-1.2l-0.2-0.6
	h0.8l0.1,1l0.4-0.5l-0.3-0.4l0.3-0.5l-0.6-0.5l-0.2-1.4v-2.5l-0.2-0.4l0.4-0.7l0.6,0.7l1.2,1l0.7,0.2l-0.3,1.2v1l0.1,2.1l-0.1,0.5
	l0.2,0.8l0.2,0.1l0.2,0.9l-0.1,0.3v1.2l0.1,0.4v2l0.4,0.3v1.9l0.3,1l0.5,0.4l0.3,0.7l-0.2,0.8l0.3,1.2l0.5,0.5l0.1,1.2l0.2,0.6
	l-0.2,1l0.1,1.9l0.1,0.5l0.3,0.4v1.7l0.4,0.1l0.1-0.9v-0.9l-0.4-1.2l-0.1-1.1l0.2-0.5l-0.1-1l-0.2-0.7l-0.3-0.3v-0.8l-0.5-1
	l-0.1-0.7l0.2-0.7l0.1-1.2l-0.8-2.3V476l0.6-0.5l-0.3-0.9v-0.5l-0.2-1.2l-0.2-0.4l-0.3,0.5l-0.6-0.6l0.1-1l-0.3-0.6l-0.1-0.5
	l0.2-0.6l-0.1-1.2l0.2-0.6l-0.2-0.5v-1.2l0.7-0.3h0.5l0.4,0.9l0.3,0.2l0.3,1.3v2.2l0.3,1l0.7,0.7l0.1,0.3l0.6,0.7l0.8,0.5h0.3
	l0.3-0.4l0.4,0.4v0.4l-0.4,1l-0.5,0.6l-0.3,0.9v0.6l0.2,1.1l0.7,1.9l0.1,1.4l-0.2,1.2l0.2,1.5l-0.1,1.1l0.3,0.2v0.7l-0.2,1l-0.3,0.2
	l-0.1,1.2l0.1,0.2l-0.1,1.2l-0.2,0.3l-0.1,0.8l-0.3,0.4l0.5,0.6l0.1,0.5l0.3,0.2l0.5,1l0.9,0.2l0.4,0.7l0.7-0.1l0.3,0.6l-0.2,0.6
	v1.5l-0.2,0.5l-0.9,0.8l-0.3,2l0.2,0.8l-0.6,1.8l-0.7,0.9l-0.3,0.7v0.5l-0.2,1l-0.2,0.5l0.2,0.7l-0.1,0.7l0.2,0.8l-0.2,0.7l-0.6,0.3
	l-0.1,0.2v1.5l-0.2,0.2v1.3l-0.5,2.2v1l0.4,1.2l0.4,0.2l0.9,0.3l0.7-0.1l0.9,1l0.1-0.1v-1.4l4.6-0.2h1.2l0.6,1.4l-0.1,0.5l0.5,0.3
	v-2.3L375.5,517.1z"/>
<path id="D595" class="st0" d="M366.3,472.7l0.3-0.2l0.7,0.7l-0.8-0.1L366.3,472.7z M350.5,444.3l0.4,0.5l1,0.7l0.1,0.7l0.5,1.5
	l0.1,1.5l-1,0.7h-0.5v-1.6l-0.3-1.6v-0.9l-0.2-0.4L350.5,444.3z M353.8,472.9l-0.2-2.2l-0.3-1.2v-0.8l-0.3-1.1l-0.1-0.9l-0.3-1.5
	v-0.5l-0.8-4.5l-0.3-1.7l-0.7-2.6l-0.1-0.5l-0.5-1.5l-0.2-1v-1.3l0.7-0.6l1.1-0.1l0.1,0.4l0.7,0.7l0.2,1l-0.1,0.9l0.1,0.3l0.1,1.2
	l0.2,0.7l0.3,0.5l1.7,1.3l0.7,0.3h0.4l0.2,0.3l0.2,0.9v3.1l-0.7-0.9l0.4-0.5l-0.2-1l-0.7,0.1l0.1,0.8l-1.3,0.4l-0.5-0.2l-0.3,0.4
	l-0.4-0.1l-0.1-1l-0.5-0.4v1.4l0.3,1l0.2,1.5l0.2,0.3l0.2,1.4l0.3,0.8l0.6-0.2l0.7-0.6v-0.8l-0.3-1.5l-0.3-1l0.4,0.1l0.3,0.4
	l0.1-1.2l0.4,0.3l0.3,0.8l0.3,1.9l0.1,1l0.3,0.8l-0.1,1l0.3,0.8l-0.2,0.5l-0.6-0.2l-0.7,0.2l0.2,0.9l-0.2,0.2l-1,0.2l-0.2,1.6
	L353.8,472.9z M352.4,450.9l0.9,0.2l0.9,0.5l1,2.6l0.2,0.8l0.4,0.9l0.5,1.7l-0.6-0.2l-1.1-0.6l-0.8-0.5l-0.5-0.8l-0.2-1l0.1-0.5
	l-0.2-1.7l-0.6-0.7L352.4,450.9z M357.9,458.2l0.6,0.9l-0.2,1.1l0.7,0.8l-0.2,0.7l0.3,1.2v0.5l-0.8-0.1l-0.3-1v-0.5l-0.3-0.9V460
	l0.2-0.9l-0.1-0.7L357.9,458.2z M393,469.2l-1-0.3l-1.3,1.3l0.6,1l-0.5,0.4l-0.5,0.1l-0.6-0.7l-0.9-0.3l-1,0.7h-0.4l-0.1,1.4
	l0.2,0.8l-0.2,0.6l-0.6,0.5l-0.6-0.5h-0.4l-0.8,1.1v0.5l-0.3,1.3l-1.1,0.5l-0.2-0.8l-0.3-0.1v-1l-0.2-0.1l-0.2-1.3l-0.8-0.3h-1.2
	l-1-3.9l-0.5-0.2h-1.2l-1.3,0.7l-0.6-0.2l-0.8,0.5l-1.5-0.6l-0.8,1.1l-0.5,0.5l-0.5,0.8l-1.5,1l-1,0.4l-0.6,0.1l-0.4-0.2l-1-0.7
	l-0.4-0.6l-0.7-0.5l-0.1-0.8h0.5l-0.1-1l-0.9-0.6l-0.2,0.3h-0.6v-0.8l0.9-0.9l-0.2-1.3l-0.6-1.2v-0.7l-0.6-1.2l-0.3-1.5l-0.4-0.7
	l-0.1-0.6l-0.7-1.3l-0.3-0.2H362l0-0.7l-0.4-0.5h-0.4v0.5l-0.5,0.3l0.4,1.6l0.6,0.2l-0.1,1.2l0.1,0.6l0.3,0.7h-0.5L361,463l0.2-0.2
	l-0.1-0.7h-0.3v1l0.3,0.7l-0.5,0.4l-0.9-1l-0.5-0.1l-0.3-1.2l0.2-0.2L359,461l-0.3-0.4l-0.2-0.7l0.1-0.4l-0.4-0.7l-0.1-0.6l-0.7-1.7
	l0.2-0.5v-1l0.7-0.4l-0.3-0.4l-0.3,0.4l-0.4,1.3l-0.2,0.2l0.2,0.6l0.3,0.5l-0.4,0.3l-1-2.2l-0.1-0.5l-0.7-1.7l-0.4-1.3l-1.3-3.6
	l0.6-1.5l0.1-0.5l-0.4-1.1v-0.8l-0.5-0.9l-0.2-1v-0.5h-0.4l-0.3-0.5l-0.3,0.9l-0.1,0.7l0.3,0.6l0.3,1.5l0.1,0.9l0.2,0.5l0.1,1.6
	l-0.4-1l-0.2-1.5l-0.6-1.7l-0.3-1l-0.2-1l0.2-0.6l0.5-0.6l0.3-0.2l0.5,0.7l0.2-0.2l-0.3-0.6l-0.5-0.3l-0.6,0.2l-0.7-2.4l-0.3-0.5
	l-0.5-1.6l0.3-0.2l0.2,0.8l0.3,0.9l0.3,1.2l0.2-0.3l0.5,0.2l-0.3,0.5l0.5,0.7v-0.8l-0.2-0.4l0.2-0.6l-0.4-0.6l1-0.7l0.2-0.6
	l-0.6,0.2l-0.1-1.2h0.4l-0.4-1l-0.2-0.1l-0.7,0.5l-0.2-0.7l0.1-0.8l-0.5-0.2l0.1-0.5l-0.4-0.6h-0.3l-0.1-0.9l-0.4-0.3l-0.1-0.5H349
	l-0.3-0.9l0.1-0.7h-0.3l0.4,1.7l0.3,0.3l0.3,1.9l0.3,0.6l0.7,2.9l-0.3,0.1l-0.7-1.5v-0.4l-1.1-1.7l-0.9-2.2l0.3,0.1l0.4,1l0.4-0.7
	l-0.4-0.5l0.1-0.6l-0.2-1.1l-0.5-0.7h-0.4l-0.4-0.9l0.3-0.3l-0.2-0.7l-0.5-0.3l-0.1,0.7l-0.2,0.5l-0.1,0.7l0.5,0.7v0.6l0.5,2
	l0.3,0.8l-0.6,0.6l0.3,1.4l0.5,0.3l0.1,2l0.5,0.5l-0.3-1.6h0.3l0.1,1l0.4,1v0.5l0.3,0.5l0.2,0.6l-0.1,0.6l-0.4,0.1l-0.1-1.1
	l-0.4-0.3l-0.1,1.2l0.5,0.4l-0.1,0.4l1,0.6l0.1,1.1l-0.2,0.6l0.8,0.9l-0.1,1.1l-0.5,0.7l0.4,0.3l-0.1,1.1l0.5,1l-0.2,1.5l0.2,0.7
	l0.3,0.5l-0.1,0.9l0.3,0.2l0.1,0.6h-0.5l-0.2-0.3l-0.8,0.3l-0.5-0.2l-0.4-0.5l-0.6-2.7l-0.1-1.6l-0.6-3l-0.2-0.2l-0.4-2.3l-0.3-1.3
	l-0.2-0.2l-0.5-2.5v-0.4l-0.3-1v-0.5l-0.3-1.4l-0.2-0.7l-0.1-1.3l-0.7-3.9l-0.4-1.3l-0.3-1.6l-0.4-1.1l-0.3-1.4l-0.3-0.7v-1l0.4-0.7
	h0.7l0.2,1.4l0.4,0.5l0.3,0.7l1,0.6v0.6l0.7,1.5l0.5-0.2l-0.7-0.5l-0.5-1.7l-0.5-0.1l-0.3-0.7l-0.7-0.7l-0.2-1.4l1.9-0.8l0.9-0.2
	l0.2-0.7h0.3l0.5-0.8l0.8,0.5l0.9,0.2l0.5-0.2l1,0.6l0.4-0.2l0.9,0.2l0.4,0.2l-0.4,0.5l0.2,1l0.7,0.2l0.7,1.2l0.1,0.8l1.7-0.5
	l0.7-0.1l0.6-0.9l0.4-0.2l0.9,0.6l-0.1-1v-1.1l-0.2-1.1l0.2-0.5l1.9-0.5l0.5-0.5l0.3-0.5l0.2-1.8l0.2-0.6l0.3-0.3l3.2-1.1l0.7-0.8
	v-0.9l0.2-0.4h0.6l0.5-0.3l-0.1-0.7l0.1-0.4l0.6-0.5l0.3-0.9l0.6-0.7l0.9-0.2l0.1-1.3l0.4-0.1l-0.1-1l0.2-0.1l1.6,0.8l0.5-0.3
	l0.5-0.1l1-0.4h1.3l1.4,0.7h2.3l0.6,0.6l0.4,0.1l1.6,0.1l0.9,0.2l1.7-0.4l0.5,0.2l0.8,0.6l0.4,0.1l0.7-0.3l1.1,0.2l-0.7-1.5l0.4-0.5
	l1-0.8l0.7,0.5h0.5l0.1,0.9l0.5,0.7l0.9,0.8l1.6,0.3l0.5,0.8l0.3,0.1l1.5-0.1l0.5-0.3l0.3-0.7l1.3,0.1l0.6,0.3l0.7,1l1.4,0.3
	l0.8,0.4l-0.2,0.8l-0.5,0.7l-0.3,0.8l0.1,1.7l-0.2,1.8l-0.4,1.6l-0.2,0.5l-1.7,2.7l-0.7,0.6l-0.9,3.8l-0.1,0.7l0.6,0.9l1,2.2
	l0.4,0.2l0.5-0.3l0.8,0.1l0.4,0.3l1.5,2l1.1,1.2l1,0.8l0.9,0.9l1.3,1.7l1.7,1.3l0.8,1.5l0.4,0.5l1.8,1.6l1,0.1l0.4,0.2l0.6,1.2
	l-0.1,0.7l0.8,0.9l0.5,0.3l0.6,0.1l0.7,0.6l0.6,0.2l1.3,1.2l1.3,0.3l-0.6,0.8l-0.3,0.6l-0.3,0.2l-1.5-0.8l-1.3-1.2l-1.2-0.6
	l-0.2-0.3l-0.9-0.3l-0.9,1.3l-1.1,2.2l0.6,1.7l-0.1,1.5l-0.7,0.2v1.1l-1.9-1.2l-0.5,0.1l-1.4,0.6l-0.6,0.6l-0.9-0.9l-0.2,0.3
	l-0.7-0.3l0.7,2.8l0.1,1.5l-0.2,0.4l-0.8,0.6l0.1,0.5l-0.7,1.7l-0.7,1.1L400,458l-0.5,0.7v0.5l1.1,1l-0.2,0.8l-0.4,0.4l-0.3-0.1
	l-0.8-0.7l-0.4-0.9l-1.1-0.1l-0.6,0.4h-0.4l-0.5-0.3l-0.5,0.1l-0.5-0.3l-0.8,0.4l-0.5-0.1l-0.6,0.7l-0.2,0.6l0.1,1l-0.1,0.6l0.1,0.5
	l0.1,1.5l0.6,1v0.6l-0.5,0.9v1.3L393,469.2z M353.2,441.9l0.2,1.1l-0.5,0.1l-0.2-0.5l0.1-0.7H353.2z"/>
<path id="D596" class="st0" d="M465.7,556.8l-1-0.6l-0.8-0.6l-0.7-0.1l-0.5-0.8l-1.2-0.5l-0.1,1l-0.5-0.4l-0.3,0.4l-0.2-1.5
	l-0.8-0.7l-0.3,0.2l-0.1-2.6l1.2-1.8l-0.4-0.9l0.5-0.6l0.3-0.6l-0.1-0.7l-0.3-0.7l0.2-0.8l0.5-0.6l0.1-1.6l0.4-1l0.2-0.8l-0.1-0.6
	l-2-3.8l0.3-0.8l-0.2-0.5l-0.5,0.2l-0.1-0.5l-0.3-0.4l0.2-1.2L458,532l-0.5-1.1l-0.5-0.7l-0.4,0.3l-0.5-0.2l-0.6,0.2l-0.3-0.1
	l-0.2-0.7l-0.3,0.1l-0.3-0.5l0.2-0.5l-0.4-1.4l-0.8,0.7l-0.6,0.8l-0.3-1.3l-0.7,0.1h-0.6l-1.4,1.3l-0.2-1.4l0.1-0.9l0.2-0.7v-0.7
	l-0.2-0.5l-1.1-0.4l-0.9,1.6l-0.4,0.4l-1-0.1h-0.8l-1.3,1.9l-0.6,0.6l-0.9,0.4l-0.7,0.5l-0.4,0.1l-0.8-0.7l-1-0.1l-0.4,0.5l-0.2,0.8
	l1,2.7l0.7,1.3l0.5,1.3l-0.4,0.1l-1.1-0.2l-1.2,0.6l-0.7,0.1l-0.6,0.4l-0.3,0.4l-0.4-0.1l-0.5,0.2l-0.9-0.3l0.1-1.6l-1,0.2l-0.6-0.6
	l-0.8,0.1l-1.6-0.4l-1.6-0.7l-2.6-0.1l0.6-0.7l-0.6-0.9l0.2-0.7l0.8-0.2l0.7-1l0.6-1l0.6-0.4l2-0.6l0.2-0.9v-0.6l-0.3-0.6l0.2-0.6
	l-1.1-2.3l-1-0.9l-0.8,0.9l-0.6,1.5l-0.8-0.1l-0.9-1.3l-0.3-0.7l-0.5,0.2l-0.8-0.7l-2.1-2.4l-0.4-1.9l-1.5-0.2l-0.2-3.2l0.1-1.4
	l-0.4-1.6l0.2-0.4l0.9-0.6l-0.2-1.1V508l-0.3-1v-0.8l-0.2-0.6l0.1-0.3l0.6-0.4l-0.1-0.7l0.6-0.9l0.6-0.1l1,1.2l2.1,1.6l0.5-0.8
	l-1.4-2.1l-0.2-0.6v-0.7l0.2-0.3l0.6-0.5v-0.4l-1-1.3l-0.7-1.4l-0.9-0.9l-0.1-1.3l-1-3.1l-0.9-1.8L420,490l-0.7-0.7l-0.5-0.8
	l-0.6,0.4l-0.7-0.7l-2.1-3.7l-0.7-0.7l-0.1-0.6l-1.7-2.5l-1.1-1.1l-2.3-2.1l-0.7-0.4l-0.9-0.2l-0.6-0.5l-0.7-0.4l-0.3,0.2l-0.9,1.4
	l-0.5-0.1l-0.8-0.5l-0.4-0.5l-0.5-0.1l-0.6-0.3l-1.4-1.3l-0.9-0.5l-0.2-0.9l-0.4-0.2h-0.8l-0.5-0.7h-0.6l-0.6-0.7l-0.4,0.1l-0.6,0.6
	l-1.6-0.4l-1.6-0.7l-0.5-0.5l0.2-0.9l0.1-0.7V468l0.5-0.9v-0.6l-0.6-1l-0.1-1.5l-0.1-0.5l0.1-0.6l-0.1-1l0.2-0.6l0.6-0.7l0.5,0.1
	l0.8-0.4l0.5,0.3l0.5-0.1l0.5,0.3h0.4l0.6-0.4l1.1,0.1l0.4,0.9l0.8,0.7l0.3,0.1l0.4-0.4l0.2-0.8l-1.1-1v-0.5l0.5-0.7l0.4,0.2
	l0.7-1.1l0.7-1.7l-0.1-0.5l0.8-0.6l0.2-0.4l-0.1-1.5l-0.7-2.8l0.7,0.3l0.2-0.3l0.9,0.9l0.6-0.6l1.4-0.6l0.5-0.1l1.9,1.2v-1.1
	l0.7-0.2l0.1-1.5l-0.6-1.7l1.1-2.2l0.9-1.3l0.9,0.3l0.2,0.3l1.2,0.6l1.3,1.2l1.5,0.8l0.3-0.2l0.3-0.6l0.6-0.8l-1.3-0.3l-1.3-1.2
	l-0.6-0.2l-0.7-0.6l-0.6-0.1l-0.5-0.3l-0.8-0.9l0.1-0.7l-0.6-1.2l-0.4-0.2l-1-0.1l-1.8-1.6l-0.4-0.5l-0.8-1.5l-1.7-1.3l-1.3-1.7
	l-0.9-0.9l-1-0.8l-1.1-1.2l-1.5-2l-0.4-0.3l-0.8-0.1l-0.5,0.3l-0.4-0.2l-1-2.2l-0.6-0.9l0.1-0.7l0.9-3.8l0.7-0.6l1.7-2.7l0.2-0.5
	l0.4-1.6l0.2-1.8l-0.1-1.7l0.3-0.8l0.5-0.7l0.2-0.8l1.1,0.3l0.7-0.3l0.3-0.3l2.4-0.3l0.8-0.4l0.8-0.1l0.6-0.4l0.4,0.5l0.8,0.8
	l1.1-0.1l0.6-0.2l0.1-0.8h0.6l0.9-0.1l0.5-0.3l0.5,0.4l0.7-1.2l0.7,0.1l0.8,0.3l1,0.5l0.2,0.5l0.6-0.2l0.3-0.9h0.2l0.5,0.6l0.2-0.1
	l2.1,1.3l0.4,0.4l0.2-0.4l0.9,0.5l0.1,0.8l0.7,0.4l0.3,0.5l0.7-0.2l0.4,0.8l0.6,0.3l0.2,0.8l-0.1,0.7h0.7l0.3,0.7l0.9,0.7l1.2-0.3
	l0.5-0.6h0.3l1.3,1.3l0.7-0.3l0.7,0.5l0.7,0.2l0.3,0.4l0.6,0.5l0.4,0.6l0.4-0.8l0.8-0.9h0.7l0.5-0.5l0.3-0.7l0.6-0.3l0.8-1l1-0.2
	l0.1-0.5l0.3-0.1l1.3-0.2l0.9-0.8l0.4-2.1l-1-1.5l1.4-0.3l0.8-0.8l-0.2-0.4l0.1-0.4l1-0.1l0.8-0.6l0.7-0.8l0.9-0.6l0.7-0.3l0.5-0.4
	h1l0.9-0.4l0.7-0.5l0.6-0.7l0.8-0.7l0.8-0.5l1.6-1.5l1.7-1.8h0.7l0.5,0.3l0.9,0.1l0.9-0.4l0.4,0.4l0.8,0.2l1.7,0.1l0.9,0.2v1.8
	l-0.5,1l-0.4,2.4l0.3,1.2l0.4,0.3l1.2,2.8l1.6,2.9l0.5,0.6l-0.6,0.8l-0.1,0.5l0.1,2v0.9l0.1,0.8l0.5-0.6l0.5-0.2l0.4,0.2l0.8-0.2
	l0.4,0.1l0.5,0.6l0.6,2l-0.2,0.5l-0.6,0.4l-0.5,2.2l-0.6,1.1l-0.6,3.7l0.1,2.1l-0.2,0.8v0.5l0.4,0.5l-0.1,1.4l-0.5,0.4L464,431
	l-0.8-0.1l-0.7-0.3L462,429l-0.5-0.5l-0.6,0.2l-0.4,0.5l-0.3,0.6l-1.4,0.8l-0.3,0.4l-0.6-0.4h-0.4l-0.7,1.6l0.2,0.7l0.1,1.5l0.5,1.1
	l0.4,0.4l0.6,0.3l1,1.5l0.6,0.2l0.3,0.9l0.4,0.8l0.7,0.9l0.7,0.6l0.6,1.4l0.6,0.9l0.1,0.7l-0.5,1.2l-0.4,0.7v0.4l0.8,0.8v0.6
	l-0.3,0.7l0.2,0.7h0.5l-0.2,0.6l0.1,0.7l1.1,1l0.2,0.4l-0.3,1.5l-0.4,0.5l-0.6,1.1l-1.1-0.1l-0.4,0.3l-0.2,0.5l-1.4,2.3l-0.1,0.8
	l-0.5,1.8l-1.4,1.7l0.2,2.5l-0.4,0.5l-0.1,0.7l-0.3,0.6l1.1,1.8l0.5,0.3l0.6-0.2l0.6,0.7v0.9l-1.1,0.7l-0.1,0.8l0.2,0.3l-0.7,2.4
	l0.4,0.2h0.7l0.1,0.7l0.9,0.4l0.6,1.4l-0.1,0.4l0.2,0.9l-0.8,0.3l-0.5,0.7l-1.4,0.3l0.1,2l0.9,1l-0.7,0.7l-0.1,1.5l-0.6,1.2l0.2,2.4
	l-0.9,0.7L457,489v1.4l-0.1,1.3l0.3,1.7l-0.7,1.2l-0.1,1l-0.3,0.4l-0.3,1.2l-0.8,0.6l0.1,0.7h-0.5l-0.4,0.5v1.5l-0.6,1.2l0.2,1.6
	l-0.9,0.9v0.8l-0.3,0.4l0.4,0.7l1.3,0.1l0.8,0.5l0.5-0.6l0.5-0.1l0.2-0.5l1.1,0.3l0.1,1.3l0.5,0.5h0.5l0.4,0.5l0.1,0.7l0.6,0.8
	l0.9,0.9l0.8-0.5l1,0.4l0.7,0.7l0.7,0.5l0.5,0.1l0.3-0.5l0.4,0.2l1.6-1.5v-0.7l0.5,0.1l0.8-1.1l2-0.9l0.5,0.6l0.5-0.2l0.1,0.2
	l-0.5,0.6l0.1,1l-0.3,0.3l0.1,0.8l1.2,0.4l0.4,0.6l0.4-1.5l1.4-3.3l1.1,0.9l-0.2,0.4l-0.5-0.2l-0.4,1.5l0.5,1.6l-0.2,0.5h-0.4
	l-0.5,1.1l0.2,1l0.2,0.2l0.7,0.1l0.3,0.4l0.2,0.9v2.1l0.5,0.4l0.7,1.2l0.6,0.2l0.5,0.9l1.8-1.2v1.5l0.4,0.3h0.5l0.2,1.2l-0.9,0.8
	l-0.3,0.7l-0.2,1.1v1.4l0.3,0.4l-0.5,0.9l-0.5,0.4l0.1,1.2l-0.7,0.8l-1,0.3l-0.4-0.1l-0.4-0.6l-0.6-0.3l-0.7,0.7l-0.3,0.7l-1,1.4
	v1.1l-0.3,0.4l-0.2,0.9l-0.9,1.4v0.6l0.7,1.2v0.6l-0.3,0.9l0.1,0.7l-0.7,0.4v1.9l0.4,0.7l-0.3,0.6l0.1,0.6l-1.2,2.5l0.2,1h-0.5
	l-0.8,0.4l-1.1-0.4h-0.7l0.1,0.9l-0.3,0.2l0.3,0.6l0.2,1.1l-0.3,0.5l-0.1,0.6l-0.7,0.8L466,552l-0.7,0.5v1.4l0.8,2.8L465.7,556.8z"
	/>
<path id="D589" class="st0" d="M232.2,127.4l0.1-0.5l0.4-0.6l-0.4-0.8l-0.2-2.1l-0.3-1.5l-0.7-1l-0.5-0.9l-0.3-1l0.4-0.2l0.4,0.1
	l1.1-0.1l0.7-0.3l0.6,0.3l0.4-0.2l0.7-0.9l0.7-0.7l0.8-0.9l0.4-1.1l0.5-0.4l0.4,0.2l1.1,0.2l1-0.3l0.7-0.8l1.1-0.3l0.6-0.3l0.6-0.8
	h0.5l0.6-0.4l0.1-0.8l-0.4-1.9v-0.5l0.7-1.1l0.5-0.5l0.7-0.3h0.7l0.9-0.3l0.5,0.1l0.4,0.4l0.7,0.3l0.6-0.3l0.8,0.2l1.8-1.3l0.4-0.7
	l0.4-0.2l1-0.1l0.7-0.6l0.1-1.1h0.6l-0.1,0.9l0.7-0.6l1.6-0.1l0.8,0.1l0.5-0.1l0.4-0.5l0.4-0.2h0.6l0.6,0.3l1.9,0.2l1-1l1.7,1.4
	l0.4,0.7l0.7,2.2l0.2,0.3l1.1,0.3v0.5l0.8,1l0.6,1.4l0.4,1.6l-0.2,0.4l0.5,0.3l0.2,1.4l1.4,1.3l-0.1,1.1l-0.4,0.7l0.1,0.4l0.5,0.1
	l0.3,0.5l0.4,0.1l0.5,0.5l0.3,0.6l0.1,1.2h0.3l0.5,1.1l1.2,0.5l0.7,2.2h0.7l0.5,0.3l0.5,0.8l0.7-0.5h0.5l0.7-0.3l0.4,0.4l0.6-0.5
	l1.1,0.6l0.3,0.5l0.6-0.1l0.2,0.3l0.1,1l0.5,0.5l0.2,1.1l-0.2,0.6l0.5,0.8l0.1,1.4l0.4,0.2l0.7,1.4l0.5,0.5l0.6,0.2l0.6-0.1l0.6-0.4
	l0.4-0.5l0.3-0.8l0.9-0.1l1.1,0.3l-0.1,1.8v0.7l0.7,0.1l1.2,0.7l-0.3,1.4l0.1,0.6l0.3,0.5l1.2-0.3l0.7-0.5l0.5-0.7l0.5,0.1l0.5-0.2
	l0.5-0.6h0.7l0.5-0.2l0.6,0.2l1.8,0.2l0.7,0.3l0.6,0.1l0.5,0.5l0.2,0.5l-0.6,2.8l-0.3,0.3l0.6,1.2v1l0.2,0.4l1.1,0.9l0.2,0.3v0.9
	l1.3,1l0.4,1l-0.4,1.2l0.1,1.5l0.3,0.9l0.4,0.5l1,0.3l0.5,0.4l0.2,0.8l0.5,1.1l1.7,1.7l1.2,0.7l0.7,0.3l0.7,0.1l0.5,0.2l1,0.3
	l1.3,0.1l0.5-0.2l0.6,0.4l-0.6,1.8l-0.1,0.9l1.1,1.7l0.2,1.2l0.1,1.2l-0.2,0.9l-0.7,1.2l-1.8,1l0.6,0.8l1.3,1.1l-0.3,1.3l0.1,1.3
	l-0.2,0.5l-0.6-0.8l-0.4,0.3l-0.4-0.1l-1.4,0.4l-0.6-0.2l-0.4,0.1l-0.5-0.3l-0.8,0.1l-0.6-0.5l-0.9,0.2l-0.4-0.4l-0.9,0.2l-0.7-0.3
	l-0.6-0.8h-0.4l-0.9,0.7l-1.1-0.1l-0.8-0.7l-1.1,0.1l-0.5,1l-0.3,0.3h-0.9l-0.3,1.5l0.3,0.6l0.5,0.5l0.2,0.7v0.7l-0.2,0.7l-0.5,0.4
	l-0.5,0.1l-0.6,0.5l-0.3,0.5l-0.3,1l-0.5-0.5l-0.7-0.2l-1.5-0.2l-0.4,0.3l0.1,0.9l0.4,0.5l0.2,0.7l-0.1,0.4l-0.7,0.1l-1-0.3
	l-0.2,0.8l-0.6,0.2l-0.5-0.5l-0.4-1l-0.8-0.7l-0.6-0.2h-0.5l-0.4-0.3l-0.6-0.1l-0.7,0.5l-0.6,2.9l-0.4,0.3l-1,0.7l-0.3,0.3l-0.3,1.3
	l-1.1,0.6l-2.5,2.8l-0.9-0.1l-0.4,1.1l-1.6,1.8l-0.4,0.2l-0.5-0.2l-0.4,0.4l-0.8-0.1l-0.1,0.2l0.4,0.9v1.1l1,0.7l0.2,0.2l-0.2,1.1
	l-0.5,0.2l-1.1-0.2l-0.3,0.3l-0.5,1l-0.4,0.4l-0.8,0.3l-0.3-0.5l-0.5-0.3l-0.1-0.4l0.1-0.6l-0.2-0.7l-0.7-1.5l-1.3-0.3l-0.4-0.9
	l-0.7,0.2l-0.3-0.6h-0.3l-0.5-1.2h-0.4v-0.5L268,187l-0.4-0.2l-0.7,0.2l-0.5-1.4l-0.5-0.5h-0.2l-0.4-1.2l-0.5-0.4l-0.5-0.9l0.8-0.4
	h0.5l0.4,0.4l0.1,0.8l0.3-0.1l-0.1-0.7l-0.4-0.6l-0.7-0.2L265,182h-0.6l0.1-0.7l0.7-0.6l0.3,0.1v-0.7l0.2-0.7l-0.3-0.5l0.7-0.8
	l1.1-0.8L267,177l-1.1,0.5l-1,1l-0.1,1l0.2,0.5l-0.3,0.5l-0.5,0.2l-0.3,1.1l-0.2,0.4l-1-0.3l-0.7-0.5l0.2-1h0.5l0.4-1.3v-0.9h-0.3v1
	l-0.2,1l-0.7-0.2l-0.7-0.4l0.1-0.7l-0.5-1l-0.2-0.6l-0.9-1.4h-0.6l-0.8-1.4l-0.5-0.7l-0.1-0.3l-1.1-1.8l-0.8-0.9h-0.2l-0.6-1.2
	l-1.1-1.2l-0.7-0.3l-0.6,0.4l0.2,0.5l-0.7,0.1l-0.4-0.3v-0.4l-0.6-0.5H251l-0.3-1.1v-0.4l-2.2-3.7l-0.2-0.5l-0.7-1l-0.7-0.2l0.2-0.8
	l-0.3-1.2l-1.1-1.8l-0.2-0.5l-0.6-0.8l-0.2-0.6l0.4-0.5l1.1,0.4l1.9,1.2l1.3,0.7l0.7,0.2l0.6-0.1l0.3,0.4l0.8-0.3l0.3-0.8l0.4-0.5
	l0.6,0.3l0.2,1.5l0.7,0.1l0.1,1.5l0.6,0.3l0.7-0.3l-0.4-0.5l-0.4,0.2l0.2-1.1l-0.3-0.7l-0.3-0.2l-0.8,0.2l-0.1-1.4l-0.6-0.4v-0.7
	l0.2-1h-0.3l-0.9,1.1l-0.2,0.7v0.9l-0.4,0.6l-1.3-0.5l-0.6-0.4l-0.7-1l-1.1-0.1l-1.1-0.4l0.2-0.6l-0.6-1.3l-0.4-1.5l-0.3,1.1l0.9,1
	l0.1,0.5l-0.4,0.2l-0.5-0.2v-0.5l-0.4-0.7l-1.2-2.9l-0.3-0.3l0.2-0.5l-0.4-0.6l-0.3-0.2l-0.3-0.8h-0.4l-1.3-1.6l0.1-1.7l0.2-0.8
	l1.2,0.2l0.7,0.5v0.5l0.8,1.5l0.3-0.2l0.1-0.5l0.4,0.6l0.3-0.2l0.7,0.2v0.4l0.9-0.2l-0.2-0.5l0.1-0.4l0.8-0.2l-0.2-0.3l-1.3-0.1
	l-0.2-0.2l-0.7,0.1v-0.4l0.6-0.2l-0.3-0.4l0.1-0.4l-0.3-0.7l0.4-0.4h0.7l-0.2-0.7l-0.4-0.2l0.2-1.3l0.3-0.3l-0.3-0.7l-0.4,0.1
	l-0.5-0.8l-0.5-0.2l0.3-1.1l1.1-1.7l0.6-1.4l-0.6-0.5l-0.1-1.8l0.4-0.4l0.8-0.2l1-0.1l0.2,0.7l0.7,0.6l0.4,0.1l1.4-1.6l0.4-0.1
	l0.3-0.5l0.9-0.6l0.3-0.6l0.8-0.3l0.4,0.2l0.4-0.3l1-0.4l0.7-0.5l0.4-0.6v-0.4L256,126l-0.7-0.7l-0.6-0.1h-1.1l-0.4-0.5l-0.3,0.4
	l-0.1,0.6l-0.4,0.4l-0.2,0.7l-0.3,0.1l-1.8-0.1l-0.2-0.5l-0.5,0.2l-0.8-1l-0.5-0.2h-0.7l-0.5,0.2l-0.7,0.5l-0.4,0.5l-0.1,0.7
	l0.1,1.1l-2,1.3l-1,0.2l-0.2,0.9l-0.5,1.1l-0.4,0.2l-1-0.5l-0.7-0.8l-0.4,0.1l-1,0.7l-0.4-0.1l-0.3-0.7l-0.4-0.1l-1.5,0.8l-0.2,0.6
	l0.1,2.3v1.1l0.2,0.6l-0.1,1.5l0.1,1.5l0.4,1.5l-0.3,1.8l0.7,1.1l-0.5,0.3l-0.5,1v0.3l-0.6,0.5h-0.9l-0.4,0.9h-0.3v-0.7l-0.4-1.1
	l-1.2-3l-0.3-1.1l0.4-0.4l-0.3-0.9l0.2-0.3l-0.3-0.4l-0.2-0.9l-0.6-1.5l0.2-1.4l-0.5-0.1l-0.1-1h0.4l-0.3-0.8l0.4-0.4l0.2,0.5
	l0.3,0.2h0.6l0.4-0.5l0.2-0.5v-0.7l-0.1-1l0.4-0.1v-0.8l-0.7-1.1L232.2,127.4z M243.2,149l0.9,1.7l0.2,0.7l-0.3,0.2l-0.5-0.7
	l-0.3-1.1L243.2,149z"/>
<path id="D588" class="st0" d="M228.8,130.7l0.9,1.4l0.1,1.6l0.2,0.5l0.8,1.4l0.1,1.4l0.5,0.9l0.2,1l-0.1,0.3l-0.9-2.6l-0.5-2
	l-0.4-1l-0.2-1.1l-0.5-1.6v-0.2H228.8z M228.4,125.7l0.5,0.6l0.3,0.6l-0.2,0.7v0.6l-0.2,0.3l-0.7-1.5l-0.2-1L228.4,125.7z
	 M229.5,129.8l0.7,0.6l0.1,0.6l-0.2,0.7l0.2,0.7l-0.3,0.3l-0.2-0.8l-0.4-0.5l-0.3-1.3L229.5,129.8z M225.3,116.3l0.1,1.4l0.4,1v0.7
	l0.5,1.4l0.1,0.7l0.6,0.9l0.1,1.5l0.6,1.4l-0.1,1.4l0.7,2.1l0.4,0.7l-0.1,0.6l-0.9-2.9l-0.2-0.8l-0.7-1.9l-0.3-1.2V123l-0.5-1.4
	l-0.4-1.9l-0.4-1l-0.3-1.1v-1L225.3,116.3z M226.3,119.2l0.6,0.8v0.7l0.2,0.7l0.7,0.9l0.4,0.8v0.8l-0.5,0.2l-0.2-0.9l-0.2-1.3
	l-0.4-0.9L226.3,119.2z M232.2,127.4l-0.1,0.2l0.6,1.9l-0.4,0.6l0.2,0.3l-0.1,0.8l0.1,0.5l-0.3,0.7l-0.6,0.2l-0.6-0.8h-0.5v-0.9
	l-0.2-1.2l-0.4-0.4l-0.4,0.1l-0.3-0.3l0.3-1.2l0.1-0.7l-0.3-1.2l-0.7-1l-0.2-1.2l0.1-0.5l-0.5-1.8l-0.4-0.4l-0.3-0.7l-0.1-1
	l-0.5-0.2l-0.2-0.9l-0.3-0.8v-0.9l-0.2-0.3l-0.2-1.2l-0.8-0.3l-0.1,0.3l0.2,1.1l-0.5-0.2l-0.7-2.2l-0.7-2.5l-1.2-4l-1.4-4.4v-0.1
	l-1.2-3.7l-0.8-2.3v-1l-0.5-0.5l-0.6-1.6l-1.1-3.4l-0.5-1.3l-0.4-0.6l-0.4,0.3l-0.3-0.6l-0.9-2.7l-0.5-0.7h-0.3l-0.7-2.2l-0.9-2.5
	l-0.3-0.3l-0.1-0.7l-0.5-1.2l-0.1-0.7l-0.7-1.4l-0.2-0.7l-0.5-0.7l-0.5-1.7l-0.2-0.3l-0.1-0.6l-0.4-1.2l-0.4-1.6l-0.2-0.3l-0.3-1.3
	l-0.3-1.9l-0.4-0.6l-0.5-1.6l-0.5-1.3l-0.1-0.5l-1.1-3.2l0.3-0.5l-0.3-0.5l-0.3-1.2l-0.2-0.5l-0.5-0.3l-0.2-1l-0.5-1.7l-0.4-1
	l-0.2-0.8l-0.6-2l-0.8-2.1l-0.3-1.2l-0.7-1.9l-0.5-1.9l0.3-0.7l-0.3-0.5l-0.7,0.3l-0.4-1.6l-0.4-1l-0.1-0.7l-0.7-1.7l-0.4-1.5
	l0.1-0.3l1-0.1l0.2,0.8l0.8,0.2l0.3-0.5l0.7-0.6l0.4,0.1l0.4-0.6l0.4-0.1l0.3-0.4l2.4-1.3l0.9-0.1l1.9-1.1h0.7l0.3,0.6l0.6-0.2
	l0.2,0.6l1.3-0.4l0.6-0.4l0.6-0.9l-0.4-0.8l0.4-0.2l0.9,1l0.6-0.3l-0.1,1.8l0.4,1.3l0.1,0.7l-0.5,1l-0.5,0.4l-0.6,1l-0.4,1h-0.6
	l-0.2,0.4v0.9l0.2,0.2l0.7-0.6l0.8,0.9l1.3,0.7l-0.1,0.5l-0.9,0.8l0.5,0.7l0.8,0.2l0.5-1l0.4-0.1l0.3,0.2l0.6-0.4l0.8-0.2l0.6,0.5
	l0.4-0.1l0.4,0.2l0.7,1.7l-0.4,0.8l0.5,1.7l-0.3,0.5l-0.3-0.5l-0.4-0.2l-0.4,0.1l-0.2,2.5l0.2,1.1l0.3,0.5h0.8l0.3,0.2L218,48
	l0.6,0.5h0.5l0.6-1.1l0.9-0.1l0.4-0.7l0.1-0.8l-0.3-2.1l-0.3-0.5l0.4-0.7l0.6,0.5l0.9,0.2l0.6,0.3l0.5,1l0.5,1.4l0.9,0.4h0.7
	l0.6,0.4h0.5l0.3-0.2h0.6l0.7-0.5v1.1l1.2,0.7l-0.7,1.6l-0.4,0.6l-0.4,1l-1,0.6l0.2,0.7l0.5,0.7l0.8,1.4l0.5,0.4l0.4-0.1l0.8,0.2
	l0.8-0.8l0.6-0.8l0.8,0.1l0.5,0.2h0.8l0.2,0.3l-0.4,1.5l-0.1,1l1,0.9l0.3,0.4l-0.1,0.9l-0.5,0.7l-0.1,0.9l0.8-0.5l0.4,1.6l0.3,0.4
	l0.7,1.3l0.9,0.3l0.6-0.2l0.2-0.3l0.1-1.3l0.2-0.2l1.1-0.1l0.1-0.6l0.7-1l0.3-0.8l0.4-0.3l0.6-1.9l0.3-0.5l0.7-0.4l0.5,0.5l0.9,0.5
	l0.3,1.2l0.3,0.2l0.9-0.5l0.5,0.6l0.3,1.1l1.2,0.4h1l0.1,1.2l-0.2,0.4l-0.8,0.1l-0.4,0.8l-0.7-0.4l-0.7-0.3l-1.3-0.2l-0.5,1.5
	l-1.1,0.1l-0.5,0.8l-0.2,0.8l0.2,2L243,69l0.2,0.8l1.2-0.4l0.5,0.2l0.4,0.4l0.5-0.1v3h0.3l0.8,0.8l0.7,0.1l0.8-0.1l0.8,0.2l0.1,0.8
	l0.4,0.3l-0.1,1.4l0.2,1.3l-0.4,1l0.5,0.3l1.7-0.3l0.4-0.3l0.4-0.7l1-0.6l0.1-1.3l-0.3-0.9l0.3-0.3l0.8-0.4l0.2-0.5l1.2-0.2l0.3-0.8
	h0.3l0.4,1.1l0.4,0.1l0.5-0.7l0.6-0.4l0.6,2.6v1.2l0.4,0.8l-0.2,0.9l-0.6,0.2l-0.2,0.7l-0.6,0.6l-0.6,0.3l-1.3,0.4l-0.7-0.8
	l-2.2-0.1l-0.1,0.4l0.4,0.5l0.1,2.5l-0.6,3.3l0.5,0.8l0.3,0.9l0.4,0.5l0.3,0.9l0.3,0.3l0.5-0.1l0.6,0.3l0.4,0.5l0.3,0.7l0.5-0.1
	l0.2,0.5l0.9-0.3l0.8,0.8l0.3,0.4v0.7l-0.2,1.4l-0.2,0.6l-0.4,0.7l-0.5,0.4l0.1,0.5l0.4,0.6l0.2,1.8l0.4,0.3v0.7l0.4,0.9l0.8,0.9
	l0.1,0.4l-1,1.3l-0.3,0.7l-0.8-0.1l-1.6,0.1l-0.7,0.6l0.1-0.9h-0.6l-0.1,1.1l-0.7,0.6l-1,0.1l-0.4,0.2l-0.4,0.7l-1.8,1.3l-0.8-0.2
	l-0.6,0.3l-0.7-0.3l-0.4-0.4L247,107l-0.9,0.3h-0.7l-0.7,0.3l-0.5,0.5l-0.7,1.1v0.5l0.4,1.9l-0.1,0.8l-0.6,0.4h-0.5l-0.6,0.8
	l-0.6,0.3l-1.1,0.3l-0.7,0.8l-1,0.3l-1.1-0.2l-0.4-0.2l-0.5,0.4l-0.4,1.1l-0.8,0.9l-0.7,0.7l-0.7,0.9l-0.4,0.2l-0.6-0.3l-0.7,0.3
	l-1.1,0.1l-0.4-0.1l-0.4,0.2l0.3,1l0.5,0.9l0.7,1l0.3,1.5l0.2,2.1l0.4,0.8l-0.4,0.6L232.2,127.4z"/>
<path id="D600" class="st0" d="M399.4,629.7l-0.7-1.4l-0.3-0.2l-0.6-1.1l-0.3-0.2l-0.2-0.6l-1.1-1.7l-0.2-1l-0.7-1.2l-0.7-1
	l-0.3-0.6l-1-1.3l-0.4-0.8l-1.4-1.7l-0.3-0.2L390,615l-0.5-0.2l-0.9-0.8l-1.1-0.2l-0.3,0.5l-0.7-0.8l-0.1-0.4l-0.4-0.3l-0.7-1
	l-0.2-0.6l-0.4-0.3v-0.4l-0.4-0.8l-0.2-0.7l-0.1-1.7l-0.3-1l-0.2-0.9l-0.3-2.1l-0.6-1.9v-0.5l-0.2-0.5l-0.4-2.7l-0.1-0.3v-1.6
	l-0.2-0.5l-0.1-1.4l-0.8-1.7l-0.3-1.1l-0.6-1.4l-0.7-2.5l-0.4-1l-1-3.2l-0.4-1l-0.3-1.1l-0.6-1.4l1.3-0.2h0.5l0.6,0.3l-0.1-1
	l0.2-0.6l0.4-0.2l0.3-0.5l2.5,0.2l0.7-0.2v1.4l0.4,0.6l0.4,2l0.8,0.4l1.3-0.2l0.8-1l0.9,0.2l0.1-0.6l0.4-0.3l0.1-1.2l0.7-0.1
	l1.9,0.2l0.5-0.3l0.2-0.4l0.4-0.3l1.2-0.2l0.6-1.5l0.3-0.4l1.5-0.1l0.1,2.2l-0.1,1.9l-0.7,0.8l0.5,0.9l0.3,0.6l0.1,1.5l0.4,0.5
	l1.5,0.2l2.6,0.9l2.2,0.4l0.9,0.4l0.5-0.4l0.7,0.4l0.3-0.7h0.3l0.4,0.5h0.5l0.8-0.9l0.3,0.3l0.1,2.1l1.3-0.2v-1.6l-0.3-0.6l-0.2-1.2
	l2-2.4l2.5,0.6l0.7,0.3l0.3,0.3l0.2,0.7l0.7,0.8l0.6,0.3l0.4-0.2l0.5,0.1l1.3-0.7l0.2-0.7v-1.4l0.5-0.9l0.5,0.3l0.2-0.2l0.2-0.9
	l0.5,0.3l0.9-1.1l1.6,0.9l0.8-0.9l0.3,0.6l0.3,1.5l0.3-1l1-0.1l0.9,0.2l1.6,0.8l1.3,0.1l0.5-0.4l1.4-1.3l-1.8-0.8l-0.9-0.8h-0.7
	l-0.7-0.2l-0.3-2.6l0.2-0.8v-0.6l0.2-0.9l0.8,0.3l1.2,1.2l2.8,2.2l1.1,0.8l1.2,0.6l0.7,0.8l1.1-1l1,1.2l0.8,0.6l0.8-0.1l0.3,0.5
	l0.8,0.3l0.7-0.5l0.6-0.1l0.1,0.7l0.6,0.7l0.5,0.1l0.3,0.6l0.3,0.2l1,0.1l0.2,0.3l1.1,0.6l0.4,0.4l1.3,0.8l0.5,0.1l1.2,0.4l1.4,0.8
	l1.3,0.6l0.6,0.1l0.5-0.2l-0.2,0.8l1.3,0.6l0.9-0.1l0.5-0.2l0.5,0.4h0.4l0.5-0.3l1.2,0.7l0.3,0.4l0.3-0.2l-0.3,0.8l-1,1.7l0.2,1.2
	l-1.3,0.4l-0.3-0.7l-1.5,0.3l-0.6,0.5L452,592l0.2,0.8l-0.7,0.9l-0.9,0.5l0.3,1l-0.1,0.8l0.3,0.3l0.7,0.1l0.1,0.9l0.3,0.7l1.3,1.3
	l0.5,2.4l1.3,0.8l0.1,0.9l0.5,0.6l0.1,0.8l-0.2,0.7l0.2,1.3l-0.3,1.2l0.1,0.8l0.5,0.8l0.5-0.4l-0.3-0.5l0.3-0.6l0.5-0.4l0.5,0.4
	l0.7,0.3l0.3,0.5l-0.6,1.1l0.5,2l1,0.2l0.8,0.6l0.3,0.4l-0.1,1.1l0.4,0.9l0.6,0.4l0.9,0.1l0.4,1.3v0.6l-0.3,0.5l0.6,1l-0.3,0.6
	l0.5,1.4l-1.2,2.1l-0.6,0.9l0.1,0.7l-0.5,1l-0.4,0.3l-0.7,0.2l-0.2,1.6l-0.1,1.6l-0.6,0.3l-0.5,0.5l-0.8,0.1l0.1,0.6l0.3,0.7
	l-0.5,0.5l-0.7-0.1l-0.9-0.4l-1.4-0.8l-0.8-0.7l-0.7-0.8l-1.2-0.8l-0.5-0.6l-0.7,0l-0.5-0.8l-0.7-0.5l-0.9-0.4l-0.8-0.8l-0.6-0.8
	l-1.4-1l-0.3-0.7l-1-0.2l-1.8-1.1l-3.3-1.1h-0.9l-1.2,0.5l-0.5,1.2l-0.4,0.6l-0.3,2.1l-0.8,0.3l-0.4,0.7l0.3,1.6l0.4,1.4l1.1,2.2
	l-0.9,0.3l-1.7,0.2l-1.2-1.7l-0.9-0.5l-0.7-0.1l-0.4,0.3l-0.3,0.7l-0.1,0.8l-0.5,0.2l-1.1,0.2l-0.8-0.1l-0.4,0.2l-0.7,0.7l-0.9,0.6
	l-0.3-0.7l-1.8-2l0.8-0.9l-0.3-1.1l-0.4-0.4l-0.3-0.7l-1.2-1.7h-1.1l-0.6,0.8l-0.8-0.6l-1.1-0.4l-1-0.8l-0.7-0.1l-0.4-1.1l-0.3-0.3
	v-1.2l-0.5-0.6l-1-0.6h-0.8l-0.5-1.7l-0.7-0.5l-0.5,0.5l-0.5-0.1l-0.3,0.7l-0.5-0.1l-0.4-0.5l-1.2-0.3l-0.2-0.5l-0.6,0.1l0.2,1
	l-0.3,0.8v0.6l0.3,0.2l1.5,2.2l-0.2,0.9l-0.4-0.1l-0.4,0.6l0.5,0.1l0.4,0.7l-0.1,0.6h-2.1l-0.1,0.2l0.1,0.9l-0.5,0.5l-0.8-0.2
	l-0.1,0.6h-1.3l-0.5-0.1l-2.3-0.9l-1,1l-0.3,0.2l-0.4,0.6l-0.5-0.2h-1L399.4,629.7z"/>
<path id="D597" class="st0" d="M375.9,515.1l1.2,0.5l0.1,1.1h-1.5v-1.4L375.9,515.1z M374.1,514.4l1.4,0.6v1.7l-0.5,0.1l-0.9-0.5
	V514.4z M379.7,537.3l-0.6-0.3l-0.2-1.9l0.3-0.4l-0.2-1l-0.3-0.2l0.6-1.1l-0.6-0.5l-1.1-0.5l0.3-2.4l0.6-1.2l0.2-0.6l-0.1-0.9
	l0.2-0.5v-1.3l0.1-1.3v-0.6l-0.2-0.5h-0.8l-0.7-0.4l-1.3-0.1l-0.2-0.7l0.1-2.3l-0.1-1.2l-0.2-0.2l1.9-0.1h2.3l-0.4-0.6l-0.7-0.4
	l-0.1-0.7l-0.7-0.2l-0.5,0.5h-0.2l-1.4-0.7l0.1-2.5h-0.1l-0.1,2.3h-0.2l-1-0.5l-0.8-0.2l-0.9-0.5l-0.1-0.4L372,513h-0.6l-1.2-0.7
	v-0.7l-0.3-0.2l0.1-0.9l0.4-1l0.3-1.7v-0.6l0.2-0.6l0.2-1l0.2-0.2l0.1-1l-0.2-0.7l-0.3-0.5l-0.3-1.2l-0.5-0.5l-0.3-0.9l0.1-0.4
	l0.7-0.7l-0.6-0.4l-0.1,0.6l-1.1-0.3l-0.6-0.4l0.2-1.7l-0.1-1.2l0.1-0.9l0.2-0.2l0.2-0.7l0.4-0.6l0.3-1.2l-0.1-1l-0.9-0.4l-0.4,0.5
	l-0.4-0.2l-0.3-0.6l-1,0.2l-0.5-0.3l0.2-1.4l0.2-0.5l0.2-0.8v-1l0.3-2.2l-0.1-0.2l0.3-1.6l-0.4-0.8l-0.7-0.7v-0.4l-0.5-0.7l0.1-0.9
	l-0.3-0.1v-0.7l-0.3-0.4l-0.1-0.7l0.1-0.5l0.6-0.6h0.4l0.3-0.8l0.7-1.1l0.4-0.9v-0.5l-0.8,0.1l-0.1-0.7l0.2,0.4l0.8,0.1h0.2l1,0.7
	l0.4,0.2l0.6-0.1l1-0.4l1.5-1l0.5-0.8l0.5-0.5l0.8-1.1l1.5,0.6l0.8-0.5l0.6,0.2l1.3-0.7h1.2l0.5,0.2l1,3.9h1.2l0.8,0.3l0.2,1.3
	l0.2,0.1v1l0.3,0.1l0.2,0.8l1.1-0.5l0.3-1.3v-0.5l0.8-1.1h0.4l0.6,0.5l0.6-0.5l0.2-0.6l-0.2-0.8l0.1-1.4h0.4l1-0.7l0.9,0.3l0.6,0.7
	l0.5-0.1l0.5-0.4l-0.6-1l1.3-1.3l1,0.3l-0.2,0.9l0.5,0.5l1.6,0.7l1.6,0.4l0.6-0.6l0.4-0.1l0.6,0.7h0.6l0.5,0.7h0.8l0.4,0.2l0.2,0.9
	l0.9,0.5l1.4,1.3l0.6,0.3l0.5,0.1l0.4,0.5l0.8,0.5l0.5,0.1l0.9-1.4l0.3-0.2l0.7,0.4l0.6,0.5l0.9,0.2l0.7,0.4l2.3,2.1l1.1,1.1
	l1.7,2.5l0.1,0.6l0.7,0.7l2.1,3.7l0.7,0.7l0.6-0.4l0.5,0.8l0.7,0.7l1.3,0.8l0.9,1.8l1,3.1l0.1,1.3l0.9,0.9l0.7,1.4l1,1.3v0.4
	l-0.6,0.5l-0.2,0.3v0.7l0.2,0.6l1.4,2.1l-0.5,0.8l-2.1-1.6l-1-1.2l-0.6,0.1l-0.6,0.9l0.1,0.7l-0.6,0.4l-0.1,0.3l0.2,0.6v0.8l0.3,1
	v1.3l0.2,1.1l-0.9,0.6l-0.2,0.4l0.4,1.6l-0.1,1.4l0.2,3.2l1.5,0.2l0.4,1.9l2.1,2.4l0.8,0.7l0.5-0.2l0.3,0.7l0.9,1.3l0.8,0.1l0.6-1.5
	l0.8-0.9l1,0.9l1.1,2.3l-0.2,0.6l0.3,0.6v0.6l-0.2,0.9l-2,0.6l-0.6,0.4l-0.6,1l-0.7,1l-0.8,0.2l-0.2,0.7l0.6,0.9l-0.6,0.7l-0.1,1.2
	l-0.3-0.1l-0.4,0.4l-0.9,0.2l-0.1-0.9l-0.2-0.3l-1.3-0.2l-1.5-1.2l-0.8-0.8l-0.6-0.5l-1.3-0.2l-0.9-0.6l-1.1-1l-0.3,1l-0.3,0.5h-0.5
	l-0.7-0.4l-1-0.1l-0.2,0.5l-0.4,0.2l-0.4-0.9l-0.5-0.4l-0.3,0.2l-1.3-0.1l-0.2,0.5l-0.3-0.3l-0.4,0.1l-0.1,1l-0.8-0.3l-0.3,0.1
	l-1,0.6l-0.4,0.3l-0.7,0.1l-0.3-0.5l-0.2-1.2l-0.2-0.3l-0.6,0.1l-0.2-0.3l0.3-1.2l-0.7-1.8l-0.4,0.1h-1.1l-0.3,0.5l0.1,0.7l-0.4,0.3
	l-1.1,0.6l-0.5,0.7h-0.6l-0.5-1.1l-0.3-0.3v-1.4l-0.1-0.4l-0.7-0.2h-0.8l-0.8-0.6l-0.7,0.3l-1.1-0.2l-1,0.1l-1.4,0.7l-0.1,0.9
	l-0.5,1l-0.5-1l-0.5,0.4l-0.1,0.7l0.1,0.4l-1.4-0.1l-0.5,0.2l-0.1,0.8l-0.4-0.7l-0.2,0.1v1.2h-0.4l-0.9,0.7v0.5l0.2,0.6L389,533
	l0.5,1l0.1,0.4l-0.3,0.3l-0.3-0.4l-1-0.6l-0.4,0.1l-0.6,0.7l-0.8,0.7l-0.5,0.2l-0.4-0.1l-0.1-0.7l-0.3-0.6l-0.5-0.2l-0.5,0.1
	l-0.5,0.9l-0.5,0.1l-0.2-0.3l-0.7,0.6l-0.4,0.7h-0.9L379.7,537.3z"/>
<path id="D591" class="st0" d="M305.2,276.6l-0.3,1l-0.5-0.2l0.4-0.6L305.2,276.6z M306.5,275.3l-0.5-0.1l-0.8,1.2l-0.4,0.1
	l-0.2,0.5l-0.4,0.1l-0.4,0.8l-1.2-3.5l-0.4-0.2l-0.9-1.4l0.5-0.4h0.3l0.1,0.8l0.8-0.4l0.2,0.4l0.4,0.2l0.4-0.6l-0.2-0.3l-0.3,0.8
	l-0.4-0.5l-0.7-0.3l0.3-0.7l0.2-0.8l0.4-0.2l0.2-0.5l0.4-0.5l-0.6-0.2l-0.7,0.4l-0.3,0.7l-0.2,1.2l-0.7,0.5l-0.3-1.5l-0.1-0.1
	l-0.3-1.6l-0.5-1.5l-0.5-1.7l-0.2-1.1l-0.7-2.1l-0.6-2.2l-0.1-0.9l-0.3-1.1l-0.2-1.2l-0.2-0.2l-0.3-1v-0.7l-0.4-1L296,252l-0.2-1
	l-0.3-1l-0.2-1l-0.6-0.2l-0.5-0.6L294,247l-0.2-0.2l0.2-0.9V245l0.2-0.4l-0.2-0.8l-0.4-0.3l-0.4-1.1l-0.8-2.8l-0.3-0.6l-0.3-1.1
	l-0.3-0.3l-0.3-1l-0.5-1l-0.3-1.4l-0.5-1.1l-0.6-0.9l-0.5-1.2l-0.6-1l-0.3-0.7h-0.7l-1.2-1.7h-0.3l-0.5-0.5l-1.3-0.5l-0.9,0.5v0.5
	l-0.5-0.2l-0.3-1.1l-0.5-0.6l-0.5-0.1l-0.3-0.4l0.2-0.5l-0.1-1.2l-0.5-1.4l-0.1-0.9l-0.5-1.3l-0.5-2l-1-3.4v-0.3l-0.4-1.1h0.4
	l0.2,1.1l0.3-0.1l-0.2-1.5l-0.3-0.4l-0.1-0.6l0.2-0.5l-0.5-0.3v-0.5l-0.6-0.1l-0.2-0.5l-0.4-1.7l-0.2-0.3l-0.5-2.1l-1.1-3.5
	l-0.2-0.9l-0.8-2.3l-0.8-2l-0.2-1l-0.9-2.3l-1-2.2l0.7-0.2l0.4,0.9l1.3,0.3l0.7,1.5l0.2,0.7l-0.1,0.6l0.1,0.4l0.5,0.3l0.3,0.5
	l0.8-0.3l0.4-0.4l0.5-1l0.3-0.3l1.1,0.2l0.5-0.2l0.2-1.1l-0.2-0.2l-1-0.7v-1.1l-0.4-0.9l0.1-0.2l0.8,0.1l0.4-0.4l0.5,0.2l0.4-0.2
	l1.6-1.8l0.4-1.1l0.9,0.1l2.5-2.8l1.1-0.6l0.3-1.3l0.3-0.3l1-0.7l0.4-0.3l0.6-2.9l0.7-0.5l0.6,0.1l0.4,0.3h0.5l0.6,0.2l0.8,0.7
	l0.4,1l0.5,0.5l0.6-0.2l0.2-0.8l1,0.3l0.7-0.1l0.1-0.4l-0.2-0.7l-0.4-0.5l-0.1-0.9l0.4-0.3l1.5,0.2l0.7,0.2l0.5,0.5l1.3,0.7l0.5,0.6
	l0.1,1.3l-0.4,0.9l-0.1,1.4l-0.4,0.5v0.4l0.4,0.5l1.1,1.2l-0.4,0.8h0.8l0.6,0.3l1.1,0.9l0.3,0.4l0.4,1.2l0.6,0.2l0.6,0.9l1,0.7
	l0.1,1.1l0.5,0.4l0.1,0.5l0.9-0.2l1.2,0.2l0.8-0.2l0.3,0.4l0.8,0.1l1.2-0.2l0.9,0.4l0.3,0.5l1.1,0.8l-0.2,0.3l-0.6,0.5l-0.8,0.9
	l0.2,1.6v1l-0.2,1.8l-0.2,0.7v2l-0.2,0.6l-0.1,1l0.8,0.8l0.1,1.3l0.2,0.4l2.1,1.8l1.3,0.4l0.9,0.9l0.6,0.1l0.6,0.3v1.1l0.2,0.8
	l-0.1,0.8l1.1,1.6l0.7,0.6l0.6,0.8l0.8,0.6l0.4,0.6l1,1l0.9,0.7l1,1.1l0.7,0.3l1.1,0.7l0.9,1.1l0.3-0.5l0.4-0.1l0.5,0.4l0.6-0.9
	l0.6,0.2l1.3-1.9h0.3l1.4,2.2l0.1,1.1l0.4,0.7l-0.5,0.7l0.5,1l1.1,0.2l0.9,0.8l1,0.5l0.9,1.2l0.6,1.2l0.9,1l-0.3,0.8l0.1,1l0.4,1.5
	l-0.3,1.2l-1-0.9l-1.7,2.7l-0.7-0.4l-0.6,0.2l0.1,1.1l-0.6,0.8l-0.2,1.8l0.1,2.1l-0.6,1.4l-0.2,1.2l0.5,1.9l1.5,1l0.4-0.5l0.2,0.2
	l-0.1,0.7l0.2,0.6v0.6l-0.4,0.8l-0.9,0.5l-2,0.6l-2.1,2.4l0.1,1.4l-1,0.7l-0.6,1l-0.8,0.8l-0.6,0.4l-0.9-0.2l-1.1,0.1l-1.1-0.5
	l-1,1.5l-0.8,0l-1.1,0.9l-0.6-0.5l-0.4-0.6l-1.1-1.1l-0.8,0.7l-0.6,1.2l-0.4,0.5l-0.6,0.3l-1.8,0.1l-0.7,0.2l-1.4,1.4l-0.5,0.1
	l-1.3-1l-0.2,0.4l-0.2,1.2l-0.7,0.5l-0.6,0.1l-0.7,0.5l-0.5,0.8l-0.7,1.7l-0.9,0.7l-0.3,1.4l0.6,0.6l1.4,0.8l0.7-0.3l0.6,0.1
	l0.2,0.3l-0.2,0.6l-0.5,1.1l-1.2,0.6l-0.5-0.1l-0.4,0.2l-0.2,0.5l-0.9,1.2l-0.1,0.5L306.5,275.3z"/>
<path id="D592" class="st0" d="M330.3,338.5l-0.2,0.8l-0.6,0.3l-0.3,0.6l-0.6,0.5l-0.3,1.4l-0.4-0.1l-0.3,0.3l-0.6-0.1l-0.2-0.2
	l-0.6,1l-1.1,0.4l-0.7,0.4l-0.9,0.9l-0.6-0.3l-0.1-0.4l-0.4-0.3l-0.7-0.1l-1.1,0.2l-0.1,1.1l-0.3-0.1V344h-0.7l-0.5-0.2l-0.5,0.5
	l-0.7-2.3l-0.7-2l-1.6-4.6l-0.2-0.9l-0.9-2.9l-0.2-1L314,330l-0.7-2.1l-0.6-3.1l-0.3-2.5l-1.1-6.7l-0.2-0.5l-0.2-2l-0.2-1.1
	l-0.9-5.6l-0.5-3L308,297l-0.2-0.4l-0.3-1.9l-0.3-1.6l-0.2-0.4l-0.2-1.3l-0.1-0.4l-0.2-1.5l-0.4-2.5l-0.2-0.7l-0.6-2.7l-0.1-0.6
	l-0.5-1.8l-0.3-1.6l-0.1-1l0.4-0.5l0.3-0.1l0.4-0.9v-0.4l0.4-0.7l0.8-0.4l-0.1-0.5l0.1-0.5l0.9-1.2l0.2-0.5l0.4-0.2l0.5,0.1l1.2-0.6
	l0.5-1.1l0.2-0.6l-0.2-0.3l-0.6-0.1L309,270l-1.4-0.8l-0.6-0.6l0.3-1.4l0.9-0.7l0.7-1.7l0.5-0.8l0.7-0.5l0.6-0.1l0.7-0.5l0.2-1.2
	l0.2-0.4l1.3,1l0.5-0.1l1.4-1.4l0.7-0.2l1.8-0.1l0.6-0.3l0.4-0.5l0.6-1.2l0.8-0.7l1.1,1.1l0.4,0.6l0.6,0.5l1.1-0.9l0.5-0.2l1-1.5
	l1.1,0.5l1.1-0.1l0.9,0.2l0.6-0.4l0.8-0.8l0.6-1l1-0.7l-0.1-1.4l2.1-2.4l2-0.6l0.9-0.5l0.4-0.8v-0.6l-0.2-0.6l0.1-0.7l-0.2-0.2
	l-0.4,0.5l-1.5-1l-0.5-1.9l0.2-1.2l0.6-1.4l-0.1-2.1l0.2-1.8l0.6-0.8l-0.1-1.1l0.6-0.2l0.7,0.4l1.7-2.7l1,0.9l0.3-1.2l-0.4-1.5
	l-0.1-1l0.3-0.8l2.5-1.4l0.4-1l0.7-0.3l1-0.6l0.2-0.8l-0.4-0.9l0.8-2l1.3-1.7l2.4-0.8l0.5-1l0.5-0.8l0.9-0.1l0.9,2.1l0.4,1.6
	l-0.4,2.9l-0.1,2.3l0.8-0.7l1.2-1.4l0.9,0.7l1.3-0.9l0.9,0.9l0.2,0.4l-0.4,0.5l0.6,0.9l1-0.4l0.9,0.8l1.7,1.3l1.4-2.1l0.6,0.7
	l1.6,0.5l0.9,0.4l1,1.1l2.2,1.9l2.2-0.8v1.3l-0.2,1.6l1.1,1.4l2.4,2.2l1,1.4l2.7,0.9l4.2,2.1l-0.1,1.1l-0.3,0.9l0.3,0.2l0.8-0.4
	l1.5,0.2l0.9-0.6l0.3,3.7l-0.1,0.9l-0.5,0.7l-0.5,1l-0.2,0.9l0.2,1.2l1.1,0.5l-0.7,0.7l-1.4,1l-0.7,1.3l-0.3,1.2v0.4L378,259
	l-4.7,3.2l-0.4,4.5l-0.5,0.8l-0.7-0.2l-0.7,0.3l-1.6-0.7h-1.1l0.1,1.2l-0.6,2.1l0.7,1l0.4,0.9l-0.4,2.6l0.6,1.9l-0.4,1.2l-0.2,2
	l0.1,0.7h-0.9l-1,0.8l-0.5,1l-1.1,0.4l-0.5,0.4l-0.9-0.2l-0.6,0.1l-0.5,0.4l-0.8,0.3l-0.6,0.7L360,287v0.9l0.2,0.6l-0.3,0.6l0.1,0.4
	l-0.6,0.6l-0.6,0.3l-1.2-0.4l-0.4,0.7l-1.4-0.3l-0.1,0.9l-1,1l0.1,1l-0.2,1l0.3,0.5l0.9-0.7l1.4-0.1l1,0.2l1.3,0.5l-0.4,1.6v0.9
	l1.1,1h0.9l2.9,0.3l0.1,0.5l-0.3,1.1l-0.6,1.6l-0.5-0.1h-0.9l-0.4-0.2h-0.9l-0.4-0.6l-0.6,0.4l-0.2,1.6l0.1,0.7l-0.1,0.7l-0.4,0.6v3
	l0.3,0.8l0.7,0.9l0.2,0.7l-0.1,1.9h-0.8l-0.4-0.2l-0.2-0.7l-0.4-0.1H357l-0.8-1l-1,0.7l-1-0.3l-0.7,0.1l-0.4-0.2l-0.6,0.4l-0.3,1.3
	l-1.2,2.8h-1l-1.2,0.2l-0.4-0.8l-0.1-0.7l-0.8-1.1l-0.2-0.7v-0.7l-0.5-0.2l-0.4,0.3l-0.4,0.9l-0.2,1.1l-0.7,0.1l-1.2-0.2l-0.3-0.7
	l0.1-0.7l-0.4-0.4l-0.9,0.6l-0.2-0.3l-0.2-0.9h-0.9l-0.5,0.6l-0.1,1.6l-0.9,1.4l-0.4,0.2l-0.6-0.4l-0.9-0.8l-0.4,0.1l-0.1,1.1
	l0.3,0.8v0.6l-0.4,0.1l-1-0.4l-0.3,0.2l-0.1,1.3l-0.3,0.6l-0.3,0.1l-0.6-0.5l-0.4,0.7l0.2,1.8l-0.1,0.9l-0.4,0.7l-0.6,0.4l-2.9,0.3
	l-1.4-0.8l-0.4-0.3l-0.7-0.2l-0.5,0.3l-0.6,1.5l-0.3,1.2l-0.5,0.1l-0.2,0.5l0.5,0.8l0.6,0.5l-0.2,0.9l1.5,0.6l-0.1,0.3l0.3,0.6
	l-0.1,0.5l-0.6,0.1l-0.4,4.7l0.2,0.1l-0.2,1.2h0.6v0.8l0.2,0.7l0.6-0.1l0.6,0.2l0.5-0.4l0.4,0.8l0.1,0.6l0.3,0.6L330.3,338.5z"/>
<path id="D593" class="st0" d="M416.2,397l-0.9,0.2l-0.5-0.5l-0.9-1.2l-1,0.4l-0.4,1.1l-1.5,0.2l-0.5-0.1l-0.6-0.5l-0.6-0.1
	l-0.1,0.7l-0.4,0.3l-1.1-0.3l-0.9,0.1l-0.2-0.4l0.2-0.6l-0.1-0.6l0.7-0.2l0.3-0.3l0.4-1.1l-0.1-0.6l-0.4,0.2h-0.5L406,393l-0.6-0.1
	l-1.7-0.8l-0.7-0.2h-0.8l-0.7,0.3l-0.3,1.1l-0.8,0.2h-0.9l-0.3-0.1l-0.2-0.7l-1.2-0.5l-1.3-1.9l-0.4,0.4l-0.2,0.6l-1.2-0.7l-1,0.4
	l-0.4,0.6l-0.3-0.1v-0.7l-0.6,0.2l-0.4-0.3l-0.4-0.9l-1.2-1.9l-0.2-0.8l-0.6-2l-0.4-0.4l-0.5-1.1l-0.8-0.9l-0.7-0.2h-1.1l-0.5,0.2
	l-0.6,0.5l-0.2-0.3l-0.1-1.5l-0.4-0.2l-1.8-0.4l-0.3-0.4l-0.8-1.9l-0.5-0.5l-1.2-0.7l-0.6-0.2l-0.4-0.4l-1.4-0.6l-0.6-0.8H376
	l-0.4-0.4l-0.6-1.1l-0.4-0.3l0.1-0.8l-0.6-0.7l-0.2-0.6l-1.1-1.6l-0.7-0.1l-0.4-0.7l-0.9-0.9l0.2-1.1l0.7-2.5l-0.8-0.2v-0.8
	l-0.4-0.4l-0.2-1.2l-0.4-0.1l-0.1-0.6H369l-0.5,0.6l-0.1-0.9l-0.7-1.4l-0.2-1l0.2-0.7l0.6,0.4h0.5l0.2-0.5l-0.1-0.7l0.6-0.1l0.4-0.4
	l0.5-1.2l-0.3-0.7l-0.1-0.9h-0.6l-0.2-0.3l0.7-2.2v-0.7l0.5-0.5h0.8l0.1-0.7l0.4-0.5l0.2-0.8l1.1,0.6l0.1-1.3l-0.1-1.4l-0.8-2.3
	l-0.1-0.6l0.7-0.5l0.9,0.2l0.4-0.9l0.5-2.2l0.3-0.5l0.9-0.7l0.2-0.7l-0.4-0.8l-0.6-0.4l-0.1-0.3l0.5-0.9l-0.5-0.6h-1l-1.3,0.4
	l-1.1,0.1l-1.2-0.1l-1.1,0.1h-1.1l-0.8,0.3l-0.8-0.3l-0.3-0.6l-0.5-1.3l-0.1-0.5l-0.5-0.6h-0.5l-1.6,0.7l-0.4,0.8l-0.3,1.7l-0.3,0.4
	l-0.5-0.1l-1.3-0.5l-0.4,0.1l-1.2,0.4l-0.8-0.2l-2.3-1.3l-1.1-0.3l-0.9,0.4h-1.4l-0.7,0.6l-1.1,0.5l-0.5-0.3l-0.2-0.4v-2.4l-0.3-0.7
	l-1.1-0.1l-1-1.2l-0.3-0.1l-0.9,0.5l-0.4-0.1l-0.9-0.5l-0.9-0.2l-0.2,0.4l1.6,1.9l-0.1,2.2l-0.8,0.2l-0.6,0.6l-0.2,0.9l-0.2,0.6
	l-0.7,0.7l-0.1,0.9l-0.9,1.4l-0.1,0.9l-0.5,0.6l-0.3,0.6l-0.5-0.5l-0.3-1l-0.4,0.5l-0.9-0.9h-0.8l-0.7-0.5l-0.4,1.1l-0.3,0.4
	l-0.7-0.4l-1-1.1l-1.2-0.6l-2.1-0.2l-1.1-0.3l0.1-0.6l-0.3-0.6l-0.1-0.6l-0.4-0.8l-0.5,0.4l-0.6-0.2l-0.6,0.1l-0.2-0.7v-0.8h-0.6
	l0.2-1.2l-0.2-0.1l0.4-4.7l0.6-0.1l0.1-0.5l-0.3-0.6l0.1-0.3l-1.5-0.6l0.2-0.9l-0.6-0.5l-0.5-0.8l0.2-0.5l0.5-0.1l0.3-1.2l0.6-1.5
	l0.5-0.3l0.7,0.2l0.4,0.3l1.4,0.8l2.9-0.3l0.6-0.4l0.4-0.7l0.1-0.9l-0.2-1.8l0.4-0.7l0.6,0.5l0.3-0.1l0.3-0.6l0.1-1.3l0.3-0.2l1,0.4
	l0.4-0.1v-0.6l-0.3-0.8l0.1-1.1l0.4-0.1l0.9,0.8l0.6,0.4l0.4-0.2l0.9-1.4l0.1-1.6l0.5-0.6h0.9l0.2,0.9l0.2,0.3l0.9-0.6l0.4,0.4
	l-0.1,0.7l0.3,0.7l1.2,0.2l0.7-0.1l0.2-1.1l0.4-0.9l0.4-0.3l0.5,0.2v0.7l0.2,0.7l0.8,1.1l0.1,0.7l0.4,0.8l1.2-0.2h1l1.2-2.8l0.3-1.3
	l0.6-0.4l0.4,0.2l0.7-0.1l1,0.3l1-0.7l0.8,1h1.2l0.4,0.1l0.2,0.7l0.4,0.2h0.8l0.1-1.9l-0.2-0.7l-0.7-0.9l-0.3-0.8v-3l0.4-0.6
	l0.1-0.7l-0.1-0.7l0.2-1.6l0.6-0.4l0.4,0.6h0.9l0.4,0.2h0.9l0.5,0.1l0.6-1.6l0.3-1.1l-0.1-0.5L361,298h-0.9l-1.1-1v-0.9l0.4-1.6
	l-1.3-0.5l-1-0.2l-1.4,0.1l-0.9,0.7l-0.3-0.5l0.2-1l-0.1-1l1-1l0.1-0.9l1.4,0.3l0.4-0.7l1.2,0.4l0.6-0.3l0.6-0.6l-0.1-0.4l0.3-0.6
	L360,288v-0.9l1.4-2.4l0.6-0.7l0.8-0.3l0.5-0.4l0.6-0.1l0.9,0.2l0.5-0.4l1.1-0.4l0.5-1l1-0.8h0.9l-0.1-0.7l0.2-2l0.4-1.2l-0.6-1.9
	l0.4-2.6l-0.4-0.9l-0.7-1l0.6-2.1l-0.1-1.2h1.1l1.6,0.7l0.7-0.3l0.7,0.2l0.3,0.5l0.4,0.1l1,1.6l0.7-0.6l0.9-0.3l-0.1-1.9l1-0.4
	l1.4-0.2h1.6l0.4,0.1l0.5,1l1.2,0.8l1.7,0.1l1.3-0.6l3.3-0.6l1.7-0.1l1,0.3l2.4,1.5l0.7-0.8l1.3-0.9l1.3-1.2l1.7-1l1.1-1.2v-0.6
	l0.2-0.6l2-0.6l1.5,1.9l1.1,1l0.2,0.5l0.4,0.2l-1,1.2v0.9l0.4,1.2l-0.8,1l-0.8-0.2l-0.6,0.8l-0.5,0.4l-0.4,0.8l-0.5,0.2l-0.3,1.1
	l0.6,2l0.4,0.6l0.2,1.1l0.8,0.1l0.2-0.6l-0.3-0.4v-0.5l0.8,0.2l0.3,1.1l0.3,0.7l0.8,0.9l0.8-0.4h0.6l0.4,0.6v1l0.2,0.7l-0.1,0.9
	l-0.5,0.7l-0.1,0.9l0.5,1.4l0.5-0.3l0.3,0.3l0.1,0.8l0.2,0.6l-0.2,0.6l-1.3,1v0.8l0.2,0.6l0.1,1l0.4,0.3l0.7-0.2h0.5l0.4,1.1
	l0.8,0.7l0.5,0.3l0.9-0.3l1.6-2.3l0.4,0.4l-0.1,0.7l-0.6,1.5l-0.6,0.5l-2.8,0.7l-1.5-0.2l-1.3-0.5l-2.3-0.5l-0.6,0.2l-0.9,1.3
	l-0.9,0.8l-1.2,2.7l0.1,1l-0.2,1l-0.1,1l-1.9,2.9l-0.1,1.5l-0.5,1.2l0.3,0.5l-0.2,0.7l-0.9,0.8l0.2,0.7l0.4,0.6l2.5,2l1.1,0.6h0.9
	l0.8,0.2l1.2,0.8l0.8,0.9l0.5,0.3l0.6,0.1l0.5,0.9l0.8-0.5l1.1-0.1l1.4,0.8l0.5-0.3h0.7l0.5,0.4l0.4,0.8l0.4,0.4l0.6,0.1l3,1.4
	l0.4,0.4l0.4,1.3l0.3,0.5l0.7,0.7l0.5,0.8l0.4,0.9l0.3,0.8l-0.2,0.6l-0.7,1l0.4,1.2l1.4-0.1l0.8,1.3l2.5-0.2l0.7,0.2l0.4,1.2
	l0.7,3.2l-0.1,0.7l-0.3,0.8v0.8l-0.1,0.7l-0.6,1.1l-0.1,0.9l-0.7,1.6l-0.1,0.9l0.2,1.1l0.3,0.8l-0.3,0.2l-0.7-0.1l-1.1,2.1l-0.4,1
	v0.9l-0.2,0.5l-0.5,0.3v0.4l0.9,0.8l0.5,0.1l0.3,0.3l-0.1,1.2l0.3,0.4l0.3,2.1l-0.2,1.5l-1.5,0.6l-0.8,0.2l-0.9-0.3l-0.7-0.1
	l-0.8,0.1l-1-0.2l-0.9,0.2l-1.1-0.1l0.1,0.8l-0.3,1l0.2,0.7l0.4,0.3l0.1,0.4l-0.1,1.5l0.8,0.9l1-0.2l0.4,0.2l0.2,0.5v1.3l-0.4,1.3
	l-0.1,0.9l0.4,0.7l0.1,0.6l-0.5,1.5l-0.1,0.8l0.8,1.3l-0.1,0.7l-0.7,3.2l-0.6,1.8l0.1,1.6l-0.4,6.2l-1.1,3.5l0.5,0.5l0.3,1.4
	l0.7-0.2l0.1,1.4l-0.8,1.1l0.5,0.7l0.5,1l0.7,0.5l0.8,1.4l0.1,0.4l-0.3,1l-0.1,1l-0.9,1.3l-0.2,0.5L416.2,397z"/>
<path id="D599" class="st0" d="M395.4,574.9h1.3l0.7-0.3l0.1-0.5l-0.1-1.3l0.3-1l0.4-0.1l0.6,0.2l0.2-0.6l-0.2-0.6l-0.7-1.1l-1-2.1
	l-1.6-0.3l-0.5-1.1l-0.3,0.1v0.9l-0.3-0.1l-0.3-1l0.2-0.4v-1l-0.4-1.8l1.5-0.7l0.5-0.7l-0.5-1.8l0.3-1l0.8-1.4l1.5-0.3l0.5-1.6
	l1.1-0.4l0.1-0.6v-1.2l-0.7,0.1l-0.3,0.7l-0.5-0.7l-0.5,0.8l-0.5,0.2l-0.4,0.4l-0.5-0.2l-0.5,0.1l-0.4-0.4l-0.1-1v-1.4l-0.8-1.2
	l-1-2l0.7-0.7l-0.3-0.7l0.1-0.7l-0.2-0.4h-1.1l-0.4,0.3h-0.5l-2.2-0.7l-0.4-0.4l-0.5-0.2l-1.1,0.1l-0.7,0.2l-0.9-0.9l-1,0.6
	l-0.5,0.5l-0.4-0.4l-0.5,0.3l0.3,0.5l0.7,0.2l-0.1,0.7l-0.4,0.4v1.6l-0.5,0.3l-1.5,0.4l-0.3-0.5l-0.4-0.2l-1.6-0.1l-1,0.5h-0.6
	l-1.4-0.8h-1l-0.4-0.4l0.2-0.8l1.3-1.9h0.7l1.9-0.9l0.2-1.4h1v-0.4l-0.7-0.2l-0.7-0.6L379,541l0.3-0.1v-0.7l0.3-0.8l-0.3-1l0.4-1
	v-1.1h0.9l0.4-0.7l0.7-0.6l0.2,0.3l0.5-0.1l0.5-0.9l0.5-0.1l0.5,0.2l0.3,0.6l0.1,0.7l0.4,0.1l0.5-0.2l0.8-0.7l0.6-0.7l0.4-0.1l1,0.6
	l0.3,0.4l0.3-0.3l-0.1-0.4l-0.5-1l0.2-1.4l-0.2-0.6v-0.5l0.9-0.7h0.4V529l0.2-0.1l0.4,0.7l0.1-0.8l0.5-0.2l1.4,0.1l-0.1-0.4l0.1-0.7
	l0.5-0.4l0.5,1l0.5-1l0.1-0.9l1.4-0.7l1-0.1l1.1,0.2l0.7-0.3l0.8,0.6h0.8l0.7,0.2l0.1,0.4v1.4l0.3,0.3l0.5,1.1h0.6l0.5-0.7l1.1-0.6
	l0.4-0.3l-0.1-0.7l0.3-0.5h1.1l0.4-0.1l0.7,1.8l-0.3,1.2l0.2,0.3l0.6-0.1l0.2,0.3l0.2,1.2l0.3,0.5l0.7-0.1l0.4-0.3l1-0.6l0.3-0.1
	l0.8,0.3l0.1-1l0.4-0.1l0.3,0.3l0.2-0.5l1.3,0.1l0.3-0.2l0.5,0.4l0.4,0.9l0.4-0.2l0.2-0.5l1,0.1l0.7,0.4h0.5l0.3-0.5l0.3-1l1.1,1
	l0.9,0.6l1.3,0.2l0.6,0.5l0.8,0.8l1.5,1.2l1.3,0.2l0.2,0.3l0.1,0.9l0.9-0.2l0.4-0.4l0.3,0.1l0.1-1.2l2.6,0.1l1.6,0.7l1.6,0.4
	l0.8-0.1l0.6,0.6l1-0.2l-0.1,1.6l0.9,0.3l0.5-0.2l0.4,0.1l0.3-0.4l0.6-0.4l0.7-0.1l1.2-0.6l1.1,0.2l0.4-0.1l-0.5-1.3l-0.7-1.3
	l-1-2.7l0.2-0.8l0.4-0.5l1,0.1l0.8,0.7l0.4-0.1l0.7-0.5l0.9-0.4l0.6-0.6l1.3-1.9h0.8l1,0.1l0.4-0.4l0.9-1.6l1.1,0.4l0.2,0.5v0.7
	l-0.2,0.7l-0.1,0.9l0.2,1.4l1.4-1.3h0.6l0.7-0.1l0.3,1.3l0.6-0.8l0.8-0.7l0.4,1.4l-0.2,0.5l0.3,0.5l0.3-0.1l0.2,0.7l0.3,0.1l0.6-0.2
	l0.5,0.2l0.4-0.3l0.5,0.7l0.5,1.1l1.1,0.9l-0.2,1.2l0.3,0.4l0.1,0.5l0.5-0.2l0.2,0.5l-0.3,0.8l2,3.8l0.1,0.6l-0.2,0.8l-0.4,1
	l-0.1,1.6l-0.5,0.6l-0.2,0.8l0.3,0.7l0.1,0.7l-0.3,0.6l-0.5,0.6l0.4,0.9l-1.2,1.8l0.1,2.6l0.3-0.2l0.8,0.7l0.2,1.5l0.3-0.4l0.5,0.4
	l0.1-1l1.2,0.5l0.5,0.8l0.7,0.1l0.8,0.6l1,0.6v0.7l-0.2,0.4v1.7l-0.4,0.4l0.1,1.4l-0.5,1.1l0.2,1.1l0.6,1.2l-1,1.3l-0.9,1.5
	l-0.4,0.1l-0.8-0.1v0.5l-0.3,1.1l0.7,0.5l0.6,0.1l0.4,1.6l-0.3,1.3l0.2,1.9l-0.6,0.6l-0.1,0.6l-0.9,0.8l-0.6,1.8l-0.3,0.5l0.3,0.7
	l-1,0.9l-0.6,0.3l-0.3,1.3l-0.5,0.3l-0.3,0.7l-0.7,0.4l-0.7,2l0.1,0.8l0.3,0.7l-0.2,0.5l-0.3,0.2l-0.3-0.4l-1.2-0.7l-0.5,0.3h-0.4
	l-0.5-0.4l-0.5,0.2l-0.9,0.1l-1.3-0.6l0.2-0.8l-0.5,0.2l-0.6-0.1l-1.3-0.6l-1.4-0.8l-1.2-0.4l-0.5-0.1l-1.3-0.8l-0.4-0.4l-1.1-0.6
	l-0.2-0.3l-1-0.1l-0.3-0.2l-0.3-0.6l-0.5-0.1l-0.6-0.7l-0.1-0.7l-0.6,0.1l-0.7,0.5l-0.8-0.3l-0.3-0.5l-0.8,0.1l-0.8-0.6l-1-1.2
	l-1.1,1l-0.7-0.8l-1.2-0.6l-1.1-0.8l-2.8-2.2L427,572l-0.8-0.3l-0.2,0.9v0.6l-0.2,0.8l0.3,2.6l0.7,0.2h0.7l0.9,0.8l1.8,0.8l-1.4,1.3
	l-0.5,0.4L427,580l-1.6-0.8l-0.9-0.2l-1,0.1l-0.3,1l-0.3-1.5l-0.3-0.6l-0.8,0.9l-1.6-0.9l-0.9,1.1l-0.5-0.3l-0.2,0.9l-0.2,0.2
	l-0.5-0.3l-0.5,0.9v1.4l-0.2,0.7l-1.3,0.7l-0.5-0.1l-0.4,0.2l-0.6-0.3l-0.7-0.8l-0.2-0.7l-0.3-0.3l-0.7-0.3l-2.5-0.6l-2,2.4l0.2,1.2
	l0.3,0.6v1.6l-1.3,0.2l-0.1-2.1l-0.3-0.3l-0.8,0.9h-0.5l-0.4-0.5h-0.3l-0.3,0.7l-0.7-0.4l-0.5,0.4l-0.9-0.4l-2.2-0.4l-2.6-0.9
	l-1.5-0.2l-0.4-0.5l-0.1-1.5l-0.3-0.6l-0.5-0.9l0.7-0.8l0.1-1.9L395.4,574.9z"/>
<path id="D601" class="st0" d="M399.4,629.7l0.1-1.1h1l0.5,0.2l0.4-0.6l0.3-0.2l1-1l2.3,0.9l0.5,0.1h1.3l0.1-0.6l0.8,0.2l0.5-0.5
	l-0.1-0.9l0.1-0.2h2.1l0.1-0.6l-0.4-0.7l-0.5-0.1l0.4-0.6l0.4,0.1l0.2-0.9L409,621l-0.3-0.2v-0.6l0.3-0.8l-0.2-1l0.6-0.1l0.2,0.5
	l1.2,0.3l0.4,0.5l0.5,0.1l0.3-0.7l0.5,0.1l0.5-0.5l0.7,0.5l0.5,1.7h0.8l1,0.6l0.5,0.6v1.2l0.3,0.3l0.4,1.1l0.7,0.1l1,0.8l1.1,0.4
	l0.8,0.6l0.6-0.8h1.1l1.2,1.7l0.3,0.7l0.4,0.4l0.3,1.1l-0.8,0.9l1.8,2l0.3,0.7l0.9-0.6l0.7-0.7l0.4-0.2l0.8,0.1l1.1-0.2l0.5-0.2
	l0.1-0.8l0.3-0.7l0.4-0.3l0.7,0.1l0.9,0.5l1.2,1.7l1.7-0.2l0.9-0.3l-1.1-2.2l-0.4-1.4l-0.3-1.6l0.4-0.7l0.8-0.3l0.3-2.1l0.4-0.6
	l0.5-1.2l1.2-0.5h0.9l3.3,1.1l1.8,1.1l1,0.2l0.3,0.7l1.4,1l0.6,0.8l0.8,0.8l0.9,0.4l0.7,0.5l0.5,0.8l0.5,0.2l0.5,0.6l1.2,0.8
	l0.7,0.8l0.8,0.7l1.4,0.8l-0.3,0.5l0.3,0.6v0.8l-0.3,1.1l-0.5,0.9l-0.6,0.2l-0.9-0.3l-0.6-0.8l-0.2,0.5l0.2,1l0.6,1.5l-0.1,0.9
	l0.6,1.1l0.6,0.7l0.8,0.5l0.4,1.4l0.5,0.9l0.2,1l0.1,0.9l-0.4,1.3l0.4,1.1l0.5,0.9l0.4,1.1l0.8,0.9l0.3,0.6l0.5,0.4l0.7,1.6l1.1,0.8
	v1.5l0.1,0.8l0.4,0.9l0.6,0.6l0.6,1.2l1,1.4l0.9,3.3l0.6,1v0.8l-0.8,1.4l-0.6,1.7l-0.6,2.4l-0.7,0.5l-1,0.3l-0.5,0.8l-0.6,0.3
	l-0.6-1.2l-1.2-1.2l-0.9,0.1l-0.7,0.7l-0.6,0.9l0.5,0.8l0.4,2.8l0.5,1.4l0.7,0.7l0.4,0.7l0.1,1.1l-0.1,0.8l-1.2,0.1l-1.1,0.3
	l-0.7,1.1l-0.3,1.3l-0.1,1.4l-0.8,1.1l-0.6,0.9l-0.3,1.1l-1.2,1.6l-0.5,0.3l-0.4-0.9l-0.6-0.2l-0.7,0.6l0.1,0.9l0.6,0.5l0.2,1
	l-0.9,1.6v0.9l0.6-0.5l0.7-0.8h0.5l0.3,0.5l0.2,0.9l-0.7,1.5v0.7l0.2,0.8l0.7,1.2v0.7l-0.5-0.2l-0.3-0.9l-0.3-0.4l-0.6,0.3h-0.9
	l-0.7-0.6l-1,0.2l-1.2,1l-0.3,0.5l-0.9,0.2l0.4,1.5h-0.7l-0.2,0.5l-0.7,0.1l-0.6-0.5l0.1-0.5l-0.7-0.7l-0.3,0.1l-0.9-0.8l-0.5-0.7
	l-0.3-0.1l-0.7-1l-0.2-0.2l-0.8-1l-2.2-2.3l-0.8-0.7l-0.3-0.4l-0.3,0.1l-0.5-0.2l-0.2-0.9l-0.4-0.3l-0.2-0.8l-0.3-0.1l-0.4-0.7h-0.5
	l-0.2,0.2l-0.4-0.3l-0.1-0.5l-0.6-0.3l-0.4-1.1l-0.4-0.2l-0.2-0.7l0.3-0.2l-0.2-0.9l-0.4-1.1l-0.2-0.3l-0.3-0.9l-0.4-0.7l-0.5-0.5
	l-0.4-1l-0.7-0.9l-0.9-1.7l-0.8-1.2l-0.4-0.7l-0.4-0.5l-0.9-1.7l-1.1-1.5l-2.1-3.2l-0.2-0.5l-1.5-2.4l-0.7-1.4l-0.8-1l-0.4-0.8
	l-1.2-1.8l-0.7-1.3l-0.6-0.8l-0.2-0.6l-1.4-2.2l-0.4-0.9l-2.3-3.8l-0.9-1.3l-0.9-1.7l-0.6-0.8l-0.5-1l-0.8-1.2l-0.2-0.5l-0.4-0.4
	l-0.3-0.8l-1.1-1.6l-0.7-1.2l-0.2-0.5l-1.3-2l-0.3-0.6l-0.5-0.7l-0.7-1.2l-0.4-0.4l-0.2-0.7l-0.6-0.5l-0.2-0.9l-0.8-1.4l-0.9-1.9
	v-0.3L399.4,629.7z"/>
<path id="D594" class="st0" d="M343.3,419l0.3-0.6l1.3-0.6l-0.1-0.5h-0.5l-1.3,0.8l-1.2,0.2l0.1,0.7l-0.2,0.2l-0.4-1l-0.3-1.3
	l-0.7-3.2l-0.4-1.3l-0.3-1.5l-0.4-1.5l-0.2-1.1l-0.2-0.7v-0.7l-0.2-0.6l-0.2-1.4l-0.2-0.4L338,403l-0.2-0.6l-0.4-2.2l-0.7-2.5
	l-0.6-2.7l-0.8-2.4l-0.5-1.9l-0.8-2.5l-0.6-2.3l-0.7-1.7l-0.1-0.8l-0.3-0.7v-0.4l-0.5-1.1l-0.3-1.1l-0.6-1.5l-0.7-2l-0.4-0.9
	l-1.1-2.9l-0.6-1.5l-0.3-0.6l0.2-0.2l-0.1-1.6l-0.3-0.6l-0.5-0.6v-0.6l0.3-0.4h0.9l0.5,0.2l0.5-0.5l-0.1-1.2l0.5,0.6l0.2-0.2
	l0.4,0.5l0.2-0.4l0.1-1l-0.5-0.2l-0.1,0.3l-0.5-0.3l-0.6,0.1l-0.2-0.2l-0.1-0.7l-0.5-0.7v-0.5L328,362l0.2-0.5l0.4-0.3l-0.2-0.5
	l-0.7,0.3l-0.1,0.5l0.4,0.6v0.4l0.4,0.7l0.2,0.9l0.3,0.4l0.1,1.8l-1.1-0.1l-0.6,0.2l-0.3,1.2l0.6,1.1l0.4,1.4h-0.4l-0.3-0.6
	l-0.6-1.8l-1.2-3.6l-0.2-0.9l-0.6-1.5l-0.1-0.4l-0.6-1.6l-0.2-0.9l-0.3-0.5l-0.4-1.6l-1.4-4.2L321,351l-0.1-0.6l-0.5-1.4l-0.3-1.2
	l-0.4-0.8l-1-2.9l0.5-0.5l0.5,0.2h0.7v0.8l0.3,0.1l0.1-1.1l1.1-0.2l0.7,0.1l0.4,0.3l0.1,0.4l0.6,0.3l0.9-0.9l0.7-0.4l1.1-0.4l0.6-1
	l0.2,0.2l0.6,0.1l0.3-0.3l0.4,0.1l0.3-1.4l0.6-0.5l0.3-0.6l0.6-0.3l0.2-0.8l1.1,0.3l2.1,0.2l1.2,0.6l1,1.1l0.7,0.4l0.3-0.4l0.4-1.1
	l0.7,0.5h0.8l0.9,0.9l0.4-0.5l0.3,1l0.5,0.5l0.3-0.6l0.5-0.6l0.1-0.9l0.9-1.4l0.1-0.9l0.7-0.7l0.2-0.6l0.2-0.9l0.6-0.6l0.8-0.2
	l0.1-2.2l-1.6-1.9l0.2-0.4l0.9,0.2l0.9,0.5l0.4,0.1l0.9-0.5l0.3,0.1l1,1.2l1.1,0.1l0.3,0.7v2.4l0.2,0.4l0.5,0.3l1.1-0.5l0.7-0.6h1.4
	l0.9-0.4l1.1,0.3l2.3,1.3l0.8,0.2l1.2-0.4l0.4-0.1l1.3,0.5l0.5,0.1l0.3-0.4l0.3-1.7l0.4-0.8l1.6-0.7h0.5l0.5,0.6l0.1,0.5l0.5,1.3
	l0.3,0.6l0.8,0.3l0.8-0.3h1.1l1.1-0.1l1.2,0.1l1.1-0.1l1.3-0.4h1l0.5,0.6l-0.5,0.9l0.1,0.3l0.6,0.4l0.4,0.8l-0.2,0.7l-0.9,0.7
	l-0.3,0.5l-0.5,2.2l-0.4,0.9l-0.9-0.2l-0.7,0.5l0.1,0.6l0.8,2.3l0.1,1.4l-0.1,1.3l-1.1-0.6l-0.2,0.8l-0.4,0.5l-0.1,0.7h-0.8
	l-0.5,0.5v0.7l-0.7,2.2l0.2,0.3h0.6l0.1,0.9l0.3,0.7l-0.5,1.2l-0.4,0.4l-0.6,0.1l0.1,0.7l-0.2,0.5h-0.5l-0.6-0.4l-0.2,0.7l0.2,1
	l0.7,1.4l0.1,0.9l0.5-0.6h0.8l0.1,0.6l0.4,0.1l0.2,1.2l0.4,0.4v0.8l0.8,0.2L371,367l0.1,0.8l0.9,0.9l0.4,0.7l0.7,0.1l1.1,1.6
	l0.2,0.6l0.6,0.7l-0.1,0.8l0.4,0.3l0.6,1.1l0.4,0.4h0.7l0.6,0.8l1.4,0.6l0.4,0.4l0.6,0.2l1.2,0.7l0.5,0.5l0.8,1.9l0.3,0.4l1.8,0.4
	l0.4,0.2l0.1,1.5l0.2,0.3l0.6-0.5l0.5-0.2h1.1l0.7,0.2l0.8,0.9l0.5,1.1l0.4,0.4l0.6,2l0.2,0.8l1.2,1.9l0.4,0.9l0.4,0.3l0.6-0.2v0.7
	l0.3,0.1l0.4-0.6l1-0.4l1.2,0.7l0.2-0.6l0.4-0.4l1.3,1.9l1.2,0.5l0.2,0.7l0.3,0.1h0.9l0.8-0.2l0.3-1.1l0.7-0.3h0.8l0.7,0.2l1.7,0.8
	l0.6,0.1l1.1,0.7h0.5l0.4-0.2l0.1,0.6l-0.4,1.1l-0.3,0.3l-0.7,0.2l0.1,0.6l-0.2,0.6l0.2,0.4l0.9-0.1l1.1,0.3l0.4-0.3l0.1-0.7
	l0.6,0.1l0.6,0.5l0.5,0.1l1.5-0.2l0.4-1.1l1-0.4l0.9,1.2l0.5,0.5l0.9-0.2l-0.1,1.5l-0.2,1.2l-0.5,1.4v1.1l0.6,0.2l0.6,0.4l0.2,1.1
	l0.9,0.9l0.1-0.9l1.1,0.1l0.8-1l0.3-0.2l0.4,0.1l-0.2,1.1l-0.1,1.9l0.1,0.4l1,0.4l0.7,1.2l0.8,0.2l0.8,1.8l-0.6-0.3l-0.4-0.8
	l-0.7,0.2l-0.3-0.5l-0.7-0.4L421,407l-0.9-0.5l-0.2,0.4l-0.4-0.4l-2.1-1.3l-0.2,0.1l-0.5-0.6h-0.2l-0.3,0.9l-0.6,0.2l-0.2-0.5
	l-1-0.5l-0.8-0.3l-0.7-0.1l-0.7,1.2l-0.5-0.4l-0.5,0.3l-0.9,0.1h-0.6l-0.1,0.8l-0.6,0.2l-1.1,0.1l-0.8-0.8l-0.4-0.5l-0.6,0.4
	l-0.8,0.1l-0.8,0.4l-2.4,0.3l-0.3,0.3l-0.7,0.3l-1.1-0.3l-0.8-0.4l-1.4-0.3l-0.7-1l-0.6-0.3l-1.3-0.1l-0.3,0.7l-0.5,0.3l-1.5,0.1
	l-0.3-0.1l-0.5-0.8l-1.6-0.3l-0.9-0.8l-0.5-0.7l-0.1-0.9h-0.5l-0.7-0.5l-1,0.8l-0.4,0.5l0.7,1.5l-1.1-0.2l-0.7,0.3l-0.4-0.1
	l-0.8-0.6l-0.5-0.2l-1.7,0.4L381,404l-1.6-0.1l-0.4-0.1l-0.6-0.6h-2.3l-1.4-0.7h-1.3l-1,0.4l-0.5,0.1l-0.5,0.3l-1.6-0.8l-0.2,0.1
	l0.1,1l-0.4,0.1l-0.1,1.3l-0.9,0.2l-0.6,0.7l-0.3,0.9l-0.6,0.5l-0.1,0.4l0.1,0.7l-0.5,0.3h-0.6l-0.2,0.4v0.9l-0.7,0.8l-3.2,1.1
	l-0.3,0.3l-0.2,0.6l-0.2,1.8l-0.3,0.5l-0.5,0.5l-1.9,0.5l-0.2,0.5l0.2,1.1v1.1l0.1,1l-0.9-0.6l-0.4,0.2l-0.6,0.9l-0.7,0.1l-1.7,0.5
	l-0.1-0.8l-0.7-1.2l-0.7-0.2l-0.2-1l0.4-0.5l-0.4-0.2l-0.9-0.2L351,417l-1-0.6l-0.5,0.2l-0.9-0.2l-0.8-0.5l-0.5,0.8H347l-0.2,0.7
	l-0.9,0.2L343.3,419z"/>
<path id="D590" class="st0" d="M349.6,219.1l-0.9,0.1l-0.5,0.8l-0.5,1l-2.4,0.8l-1.3,1.7l-0.8,2l0.4,0.9l-0.2,0.8l-1,0.6l-0.7,0.3
	l-0.4,1l-2.5,1.4l-0.9-1l-0.6-1.2l-0.9-1.2l-1-0.5l-0.9-0.8l-1.1-0.2l-0.5-1l0.5-0.7l-0.4-0.7l-0.1-1.1l-1.4-2.2h-0.3l-1.3,1.9
	l-0.6-0.2l-0.6,0.9l-0.5-0.4l-0.4,0.1l-0.3,0.5l-0.9-1.1l-1.1-0.7l-0.7-0.3l-1-1.1l-0.9-0.7l-1-1l-0.4-0.6l-0.8-0.6l-0.6-0.8
	l-0.7-0.6l-1.1-1.6l0.1-0.8l-0.2-0.8v-1.1l-0.6-0.3l-0.6-0.1l-0.9-0.9l-1.3-0.4l-2.1-1.8l-0.2-0.4l-0.1-1.3l-0.8-0.8l0.1-1l0.2-0.6
	v-2l0.2-0.7l0.2-1.8v-1l-0.2-1.6l0.8-0.9l0.6-0.5l0.2-0.3l-1.1-0.8l-0.3-0.5l-0.9-0.4l-1.2,0.2l-0.8-0.1l-0.3-0.4l-0.8,0.2l-1.2-0.2
	l-0.9,0.2l-0.1-0.5l-0.5-0.4l-0.1-1.1l-1-0.7l-0.6-0.9l-0.6-0.2l-0.4-1.2l-0.3-0.4l-1.1-0.9l-0.6-0.3h-0.8l0.4-0.8l-1.1-1.2
	l-0.4-0.5v-0.4l0.4-0.5l0.1-1.4l0.4-0.9l-0.1-1.3l-0.5-0.6l-1.3-0.7l0.3-1l0.3-0.5l0.6-0.5l0.5-0.1l0.5-0.4l0.2-0.7v-0.7l-0.2-0.7
	l-0.5-0.5l-0.3-0.6l0.3-1.5h0.9l0.3-0.3l0.5-1l1.1-0.1l0.8,0.7l1.1,0.1l0.9-0.7h0.4l0.6,0.8l0.7,0.3l0.9-0.2l0.4,0.4l0.9-0.2
	l0.6,0.5l0.8-0.1l0.5,0.3l0.4-0.1l0.6,0.2l1.4-0.4l0.4,0.1l0.4-0.3l0.6,0.8l0.2-0.5l-0.1-1.3l0.3-1.3l-1.3-1.1l-0.6-0.8l1.8-1
	l0.7-1.2l0.2-0.9l-0.1-1.2l-0.2-1.2l-1.1-1.7l0.1-0.9l0.6-1.8l0.7,0.3l0.7-0.3l1.3-0.2l0.7,0.4l0.4,0.4l1,0.2l0.5-0.1l0.4,0.4
	l0.8-0.1l1.2,0.3h0.4l0.6-1.2l1.1-0.2l0.5-0.3l1.3,0.3l1-0.9l0.4-0.6l0.7-0.2l2.1-2.1l0.7-0.5l0.9,0.1l1.2-0.1l1.9-1.4l0.1,6.4
	l-0.1,7.7l0.1,0.9l0.1,1.8l-0.1,1.1l1,1.2l1-0.3l1.5-1.8l1.2-0.6l1.5,0.1l1.2-0.4l1.2-0.2l1.4,1.2l0.5,0.2l0.3,0.8l0.2,1.6l0.2,1
	l-0.2,1.8l0.7,0.8l0.3,1.5l0.5,0.6l1.5,0.5l1.4,0.2l1-0.7l1.4-0.1l0.7-0.5l0.3,0.4l1,2.4l1.2,1l0.6,0.3l0.4,1l0.8,3.8l0.8,0.5
	l0.8,0.2l1.2,1.2h1.3l0.5-0.6l0.6-0.8l1.8,0.6l1.3-1.3l0.8,0.3l1.5-1l0.4-0.5l0.4,1l-0.5,0.9l-0.1,1.1l0.7-0.1l0.6,1.3l0.2,0.7
	l-0.1,1.2l-0.8,0.5l-0.3,0.9l-0.3,0.1l-0.4-0.5l-0.8,0.9l0.7,0.2l-0.1,2.4l0.6,2l0.3,0.7l0.8,0.2l0.7,0.6l0.5,1.8l0.8,0.9l0.1,0.6
	l-0.2,0.6l-0.4,0.6l-0.5,0.1l-0.1,0.9l-0.4-0.3h-2.8l-1.8,0.4l-0.4,1.1v1.5l-0.6,0.6v1.1l-0.6,0.3l-1.7,1.3l-1.1,0.3l-0.5,0.3
	l-0.2-0.3v-0.7l-0.5-0.5l-2,1.7l-0.2,1.2l-0.5-0.1l-0.8,0.9l-0.5-0.1l-0.1-1l-0.3-1.3l-0.5-0.4l-0.9-0.1l-0.2-1l-0.6-0.4l-0.5,0.5
	l-0.8,0.4l-3.8,3.4l0.1,0.7l0.8,2l0.4,2l0.5,0.7l0.1,0.7l-0.4,0.5L349.6,219.1z"/>
<text transform="matrix(1 0 0 1 283.0001 548.7062)" class="textName">Alappuzha</text>
<text transform="matrix(1 0 0 1 264.0876 450.9)" class="textName">Ernakulam</text>
<text transform="matrix(1 0 0 1 409.3607 468.6998)" class="textName">Idukki</text>
<text transform="matrix(1 0 0 1 259.9999 161.5337)" class="textName">Kannur</text>
<text transform="matrix(1 0 0 1 252.3599 68.355)" class="textName">Kasaragod</text>
<text transform="matrix(1 0 0 1 398.8 608.4509)" class="textName">Kollam</text>
<text transform="matrix(1 0 0 1 287.167 504.2461)" class="textName">Kottayam</text>
<text transform="matrix(1 0 0 1 210.9 242.3789)" class="textName">Kozhikode</text>
<text transform="matrix(1 0 0 1 374.7501 233.7871)" class="textName">Malappuram</text>
<text transform="matrix(1 0 0 1 354.3505 327.7592)" class="textName">Palakkad</text>
<text transform="matrix(1 0 0 1 469.1998 581.1)" class="textName">Pathanamthitta</text>
<text transform="matrix(1 0 0 1 473.1905 664.8301)" class="textName">Thiruvananthapuram</text>
<text transform="matrix(1 0 0 1 339.2 395.8999)" class="textName">Thrissur</text>
<text transform="matrix(1 0 0 1 356.3 172.1878)" class="textName">Wayanad</text>
<line class="st0" x1="398.8" y1="504.3" x2="315.3" y2="513.4"/>
<line class="st0" x1="377.2" y1="441.9" x2="305.2" y2="457.6"/>
</svg>
