<?xml version="1.0" encoding="utf-8"?>
<!-- Generator: Adobe Illustrator 26.0.0, SVG Export Plug-In . SVG Version: 6.00 Build 0)  -->
<svg version="1.1" id="Layer_1" xmlns="http://www.w3.org/2000/svg" xmlns:xlink="http://www.w3.org/1999/xlink" x="0px" y="0px"
	 viewBox="0 0 800 730" style="enable-background:new 0 0 800 730;" xml:space="preserve">
<style type="text/css">
	.st0{stroke:#000000;stroke-miterlimit:10; cursor:pointer;}
	.textName{font-family:'Arial'; font-weight:bold; color:#000000; font-size:12px; cursor:pointer;}
</style>
<path class="st0" d="M308.7,482.9l-0.1-0.3l-1.9-1.5l-1.5-3.2l-1.4-2.2l-5.3-0.7h-1.6l-1.4-3l-1.2-3l-1.6-1.9l-2.1,0.8l-1.4,1.9
	l-2.9,1.4l-5.3-0.8l-3.9-1.6l-1.2-0.8l1-3l1.6-2.5l1-3.6l-0.4-5.2l-1.6-2.7l-2.1-3.3l-0.8-3.6l-3.3-4.1l-2.9-3.3l-2.9-2.7l0.4-2.2
	l-0.1-3.7l-2.8,0.6l-2.5-1.7l-1.6-2.9l-5.9,1.9H250l-2.3-3l-2.6-2.8l-4.6-6l-2.9-1.1l-1.2,0.3l-1.6,1.4v4.4l-1.6,1.6l-2.1,1.1
	l-1.4,0.5L228,422l-1.2,1.9h-1.2l-1,3.3l-9.7-0.5v-2.7v-3l-1.4-0.3l-1.4-2.7l-1.6-0.3l0.4-2.5l0.6-1.4l1.8-1.1l0.6-2.7l1.8-0.8
	l0.4-2.5l-0.2-11.2v-4.1l-0.8-2.7l-0.4-3.3l0.4-2.5l-1.6-1.9l0.4-2.5l-0.2-3.3l-2.9-2.2l-1.6-1.1l-1.9-1.1l-2.1-1.6l-0.6-1.4
	l-1.6-1.4l-1-1.4h-0.6l-0.6-1.6l-2.5-0.5v-1.4h-1.4l-0.2-1.6l-1.8-0.8l-1.6-2.5l-0.6-2.2l2.3-1.4l0.4-1.4l-0.8-2.5l-1.8-1.4
	l-2.3-1.4l-2.9,0.8l-1.8-0.5L184,348l-2.1-0.5l-1-1.1l-1.2,0.3l-0.2-1.6l-0.8-0.8l-2.9,0.3h-3.3h-2.7h-2.5l-1-1.9l1.8-1.4l0.4-0.8
	l1-1.4l-0.8-1.6l-1.6-0.5l-0.8-1.6l-1.6-0.3l-1.4-1.4l-0.2-0.8l-2.1-0.8l-1.9-1.4l-2.5-0.5l-1.2-2.7l-1.4-0.5l-0.6-3l-0.4-3
	l-1.4-1.4l-1.6-2.2l-2.4-2.3l-1.1-0.8l-0.8-1.6l-1.2-1.6l1.6-2.5l1.6-2.5v-2.2l-1.2-0.3l-0.4-1.1l-1.6-0.5l-1-0.8l-0.8-0.8l-2.5-0.5
	l-1-1.4l-0.8,0.8l-1.4,0.8l-0.4,0.8l-1.8,2.2H133h-1.4l-0.4-1.6v-1.4l-1.2-1.6l-1.6-0.3h-2.1l-0.8-1.1h-1.8v-1.9l-2.1,0.3l-2.3,0.3
	l-0.6-1.9l-0.6-1.1l-0.4-2.7l-1.2-0.8l-0.2-3.6l-1.9-0.3l-1.6-1.9l-3.9,0.3l-2.3,0.2l-2,0.6l-0.6-1.9l-0.4-2.5l0.8-3l-1.4-0.8
	l0.2-2.5v-2.7l-1.2-3l-1.4-0.3l-0.8-1.9l1.7-3.3l-0.2-2.5l-2.5-1.6l-3.1-0.5l-0.8-3.3L95,251l1.9-1.4l1.8-0.3l0.2-3.3l-1.6-2.7
	L97,240l1.8-0.8l1.8-1.1l0.4-4.4l1.5-2.3l2.5,0.7l2.7,0.3l7.3,0.8l2,0.8l4,0.4l1.6-0.1l0.6-0.3l4.4,0.3l1.8-0.1l2.1-0.1l1.9-0.1
	l3.4,0.3l4.1,1l6.9,2.3l3.1,0.6l2.2,0.4l2.9,0.1l2.8-1.2l3.5-2.3l2.5-2.7l1.5-2.1l2.9-2.7l0.3-0.3l5.5-3.1l4.4-2l1-0.7l2-3.8l2-1.3
	l3-0.5l0.1,0.1l2.2,0.8l1.2-0.1l1.2-1.1l2-3.4l1.6-2l1.6-1.2l2.7-1.1l2.8-0.1l1.6,0.9l1,0.9l4.2,3.8l1.3,0.6l1.2,0.2l2.7-0.2l5-2.3
	l0.7-0.7l4.3-2.5l1-0.2l3.7-2.2l2.2-1.8l1.2-1.5l1-2.1l1.7-2.3l2.1-1.4l1.8-0.3l1.4,19.5l5,2.9v6.3l1.3,7.4l6-1.7l6.9-1.1l3.9,0.6
	l3.9,4l3.9,1.7l5.1,2.9l-0.9,6.3v6.9v6.9l1.3,4l3.9,0.6l6.9,2.9l3,3.4l-1.3,5.1l-0.4,6.3l-0.9,5.1l-1.3,4v5.7l2.6,1.1l-0.9,5.1
	l-2.7,5.2l4.8,3.7l4.2,4.9l-0.4,5.7l-4.7-1.1l-1.7-3.8l-1-5.2l-2.5-0.5l-3.1,2.5l1.2,3.8l2.5,2.7l-0.6,4.7l-3.3,1.4l-4.1-0.5
	l-3.9-2.5l-4.7,1.9l-2.3,3.3l-0.6,4.4l1.8,5.2l4.1,3l3.5,2.7l4.1,3.3l0.4,5.8l1.2,4.4l3.3,3.6l4.1,1.1l3.7,1.4l2.1,2.7l2.1,2.7
	l5.1,0.8h4.9l3.7,1.1l4.5,3.6l2.1,3.8l2.7,5.2l4.9,4.7l4.5,3l5.8,3h4.3l3.1-3.6l2.1-1.9l2.1,1.9l1.8,2.5l3.1-1.1l3.1-0.3l3.1,3.3
	l5.1,5.8l5.6,4.2l3.6,2.4l2.3,4.8v4.1l3.6-0.3l4.1,1.4l1.5,3.8h4.6l3.3,0.3l3.6,3.4l2.6,3.1l2.6,3.4l3.6-0.3l4.6,1.7l2.3,3.8
	l-0.5,4.5l1.6,5.5l3.2,2.7l0.8,3.6l-1.2,4.4l-1.8,3.3l-3.5,2.7l-4.3,3.3l-3.5,3.8l-3.3,3.3l-1.8,4.4l-2.5,4.7l-3.5,5l-1.2,3.4
	l-0.6,3.8l-0.4,3.8l0.6,4.1l0.8,4.1l0.6,2.7l-2.7,1.1l-2.3,1.9l-1.2,2.7l-2.9,2.7l-0.6,4.1v3.6l-0.2,4.1l-2.1,0.5l0.2,4.1v4.1
	l0.6,3.8l1.2,3.6l1.2,1.9l0.8,2.5l1.4,1.9l0.2,3l0.6,4.4l2.1,4l-1.1,0.1l-0.6,0.3l-1.2-0.2l-0.9-0.5l-0.1-1.1l-0.6-0.3l-0.8-1.5
	l0.2-1.7l-1.1-1.5l-1,0l-1.3,0.3l-1.1-0.6l-1-0.8l-0.6-1.3l-1.7-1.9l-1.5,2.2l-1.3,0l-0.1-0.7l-0.3-0.6L369,553l-0.4-0.6l-0.1-0.5
	l0.5-0.2l0.3-0.6l-0.2-1.7l-1.5-0.3l-1.9-1.7l-2.2-0.7l-1-1l-1.1-3l-1,0.6l-0.4,0.6l-0.3,0.8l-0.2,1l-0.4,0.5l-1.6-0.2l0.7-1.2
	l-0.5-2.7l0.2-0.7l0-0.7l-0.4-0.3l0-2.6l-1.4-0.3l-0.2-0.6l0-0.7l-0.2-0.9l0.2-1l0.1-1.2l-1.3-0.6l-1.1,0.2l-1.1-0.3l-1.3-0.6
	l-0.9,1.8l-1.9,0.8l-1.3,0.1l-0.5-0.6l-0.8-1.8l-1.1-0.1l-0.9-0.9l-2.5-1.7l-1.6,0.5l-0.6,1l-1.3-0.3l-1.8,0.7l-0.6-0.5l-0.4-0.1
	l-0.7-0.6l-0.9-1.1l-2.1-1.1l-0.4-0.5l-0.2-0.7l-0.8-0.5l-1.2-0.3l-2.3-1.9l-1.2-0.1l-1-0.9l-0.4-1l-0.2-1l-0.4-1.2l-1.5-2.7
	l-0.5-1.3l-0.1-0.9l-0.8-1l0-0.7l0.6-1.3l-0.1-0.7l-1.4-0.4l-1.1-1.9l0-1.3l-1.2-1.1l-1.2,0.7L315,508l-1.2-0.1l-0.8-0.6l-0.7-1
	l0.5-1.1l-1.3-1l0.2-1.2l-0.9-0.7l-0.8-0.1l-0.3-0.8l-0.8-0.5l-0.9-1.4l-0.3-1.1l0.1-0.9l-0.4-0.7l-0.2-0.7l0.3-0.9l0.7-0.9l0.2-0.5
	l-0.5-1.8l2.2-2.2l-0.2-1.3L309,488l0.3-1.4l0.7-1.6l0.8-1.2l0.8-1l-0.1-0.7l-0.2-0.1l-0.5-0.2l-0.2-0.1l-0.7,0l-0.5,0.2l-0.7,0.6
	L308.7,482.9z"/>
<path class="st0" d="M675,619.4l-0.9,0.9l-3.8,6.8l-0.9,0.7l-0.2,0.2l-1,0.1l-1.1-0.4l-3.9-5.6l-1.4-0.9l-0.3-0.2l-0.1,0l-0.7,0.1
	l-0.7,0.1l-1.9,0.6l-0.3,0.1l-1.4,0.5l-0.3,0.1l-1,0.3l-1,0.3l-0.6,0.2l-2.8,1.9l-2.6,1.7l-2.3,1.6l-2.9,3.3l-0.3,0.4l-0.7,1.6
	l-0.2,0.5l0,0.1l-0.3,0.6l0.2,2.2l0.3,2.9l-0.1,1.1l0,0.3l-1.4,3.2l-0.4,3.1l-0.7,2.2l-1.3,0.7l-0.5-0.2l-2.2-1.9l-1.3-1.1l-0.5,0
	l-0.7-0.1l-1.5,0.4l0,0l-0.4,0.3l-3.1,2.8l-4.5,0.5l-1.6,3.5l-0.8,0.6l-0.5-0.2l-0.4-0.1l-6.8-3.7l-0.7-0.4l-0.6-0.3l-0.1-0.1
	l-1.7-2.6l-0.3-0.5l-1.7-1.6l-0.3-0.7l-1.6-3.6l-1-0.9l-1.5,0l-3-1.2l-2.1-2.1l-0.2-0.2l-0.3-0.3l-0.2-0.4l-2.7-4.3l-0.2-0.2
	l-2.2-2.1l-0.6-1.7l-0.2-1.3l0-5l0-0.6l-0.4-4.7l-0.7-1.7l-0.2-0.4l-0.2-0.4l-0.2-1.4l-0.1-0.6l0.2-1.4l1.6-2.5l0.6-1.9l-0.1-0.8
	l-0.5-2.6l-0.8-3.8l-0.4-5.3l-0.4-2.1l-0.1-0.5l-0.1-0.5l-0.5-1.1l-2.1-2.3l-0.5,0l-0.8,0l-2.8,2.9l-7.6,4.7l-1.4,1.4l-0.4,0.9
	l-2.8,6.4l-1,0.8l-3.2,0.5l-0.5-0.2l-0.7-0.2l-1.1-0.4l-4-0.7l-1.4,0h0l-0.6,0h0l-0.9,0.4l-0.3,0.1l0,0l-0.8,0.3l-0.7,0.3l-2.5,2.3
	l-0.8,1l-1.1,1.3l-1.5,1.8l-0.9,0l-1-0.9l0,0l-0.1,0l-0.2-0.1l-1.2-0.4l-1.3,0.2l-1.4,1.4l-0.8,0.8l-3.7,2.2l-0.1,0.3l-1,3l0.1,2.6
	l0.9,1l0.1,0.1l0.6,0.8l-0.5,0.4l-0.4,0.3l-0.2-0.1l0-0.1l-0.5-0.3l0-0.2l-0.6-0.6l-0.2-1.1l-0.2-0.5l-0.2-0.1l-0.5-0.3l-1.7-0.2
	l-0.8,0.7l-2.9,2.6l-6.6,7.1l-0.6-0.3l-4-5.8l2.4-2.8l0.6-1.3l-0.4-9.3l0.8-0.2l2.2-0.3l2-0.9l1.3-1.6l5.2-4.2l1.7-1.6l-1.9-1.2
	l-0.7-1.6l-1.1-6.5l0.1-2.6l0.6-2.7l1.5-3.8l-0.4-0.6l-0.5-2.1l-0.1-2.3l0.3-2.7l-0.2-0.3l-1-0.2l-2.8-0.1l-4.4,2.8l-3.8,2.1l1,1.2
	l0.5,1.3l0.1,1l-0.4,1.3l-1.6,1.2l-1.7,0.7l-2,0l-3.2,1.6l-0.5,2.1l-1.2,1.6l-1.7,1.2l-1.6,0.8l-1-0.4l-1.6,0.7l-0.6-1.3l-1.3-1.3
	L503,591l-0.8,0l-1.2,0.5l-1.2,1.2l-0.8,2l-0.6,2.1l-0.7,1.3l-0.8,0l-1.3-1.4l-1.1-2l-0.8-0.4l-0.7,0.4l-1.4,1.4l-0.9,1.6l-0.8,3.6
	l-0.3,0.3l-0.9-0.1l-2.1-0.8l-1.5-1.3l-0.2,0.4l0,1l0.3,2.4l0.3,0.9l0.7,1.1l0,1.2l-0.8,1.4l-1.2,0.6l-1.4,0.3l-4.4-0.2l-0.6,0.3
	l-0.8-1l-0.3-0.9l-1-2.2l-0.8-1.1l-0.4-1.3l-0.8-1l0.1-1.7l-0.4-1.1l-0.9-0.4l-1.1-1l-1-1.6l-0.7-1.2l-0.1-0.8l-0.9-2.4l-1.3-1.7
	l-1.1-0.9l-0.1-1l0.5-1l0.1-1.7l0.3-0.8l0.1-1l0.4-0.8l0.9-1l-0.4-0.6l-0.5-0.5l0.4-1l0-0.5l0.4-1.4l0.1-1l-0.1-1.1l-0.3-0.6
	l-0.4-0.2l-0.5-1l-0.8-0.1l-0.6-0.5l-1.2,0.2l-0.5-0.1l-0.9,0l-0.7-0.9l-0.6-1.2l-0.8-0.8l0.3-1.9l-0.6-1.2l-0.1-0.9l-0.4-0.9
	l-0.9-1L459,563l-0.7-0.6l-2.3-1.3l-0.9-0.9l-0.9,0.3l-0.6,0.5l-0.9,0l-1.3-1.9l-1-0.7l-0.6-0.1l-1-0.8l-0.7-0.1l-1.2-0.7l-0.9-1.2
	l0.7-3l1-2l2.1-0.1l0.8-1.2l-0.3-1.4l-1.2-0.9l-0.5-1.1l-2.7-2.2l-1.2-1.7l-0.5-0.7l0-0.2l0-0.3l-0.3-0.7l-0.8-0.3l-0.4-0.1
	l-0.3-0.5l-1-1.4l-0.6-1.3l-1.5-1.4l-0.6,0.9l-0.7,0.2l-0.5-0.6l-0.5-0.8l-0.2-0.9l-0.6-0.3l-1.6,0.3l-0.2-0.6l-1-1.1l-0.8,0
	l-0.3,1.9l-0.4,1.3l-0.5,0.6l-0.4,1.3l-0.5,0.2l-0.9,0.1l-0.7,0.3l-2.2,2.2l-0.9,0.1l-0.6,0.5l-0.3-0.2l-0.7,0l-1.8,0.2l-1,0.3
	l-0.4-0.7l-0.3,0.9l-0.1,0.9l-0.2,0.5l-1.4,1.9l-2.3,1.6l-0.6,0l-0.7,0.3l-1.4,1.8l-1.2,1.9l-0.5,0.5L411,551l-1.2,0.4l-0.7,0.5
	l-1.7,0.3l-1.4-1l-1.6,1.5l-2.6,3.3l-1,0l-1.8-0.8l-0.6-0.9l-0.1-1l-0.8-1.5l-1.1,0.9l-1.1,0.2l-1-0.6l-0.6-0.5l-0.3-0.6l-0.3-0.1
	l-1.1,0.3l-1.2,0.9l-1.2,2.6l-1.2,0.7l-0.5,0.8l-0.1,0.6l0.2,0.9l0.4,1l-0.1,0.8l-0.3,0.9l-0.4,2.5l-1.2,0.8l-2.1-4l-0.6-4.4l-0.2-3
	l-1.4-1.9l-0.8-2.5L380,546l-1.2-3.6l-0.6-3.8v-4.1l-0.2-4.1l2.1-0.5l0.2-4.1v-3.6l0.6-4.1l2.9-2.7l1.2-2.7l2.3-1.9l2.7-1.1
	l-0.6-2.7l-0.8-4.1l-0.6-4.1l0.4-3.8l0.6-3.8l1.2-3.4l3.5-5l2.5-4.7l1.8-4.4l3.3-3.3l3.5-3.8l4.3-3.3l3.5-2.7l1.8-3.3l1.2-4.4
	l-0.8-3.6l-3.2-2.7l-1.6-5.5l0.5-4.5l-2.3-3.8l-4.6-1.7l-3.6,0.3l-2.6-3.4l-2.6-3.1l-3.6-3.4l-3.3-0.3h-4.6l-1.5-3.8l-4.1-1.4
	l-3.6,0.3V412l-2.3-4.8l-3.6-2.4l-5.6-4.2l-5.1-5.8l-3.1-3.3l-3.1,0.3l-3.1,1.1l-1.8-2.5l-2.1-1.9l-2.1,1.9l-3.1,3.6h-4.3l-5.8-3
	l-4.5-3l-4.9-4.7l-2.7-5.2l-2.1-3.8l-4.5-3.6l-3.7-1.1h-4.9l-5.1-0.8l-2.1-2.7l-2.1-2.7l-3.7-1.4l-4.1-1.1l-3.3-3.6l-1.2-4.4
	l-0.4-5.8l-4.1-3.3l-3.5-2.7l-4.1-3l-1.8-5.2l0.6-4.4l2.3-3.3l4.7-1.9l3.9,2.5l4.1,0.5l3.3-1.4l0.6-4.7l-2.5-2.7l-1.2-3.8l3.1-2.5
	l2.5,0.5l1,5.2l1.7,3.8l4.7,1.1l0.4-5.7l-4.2-4.9l-4.8-3.7l2.7-5.2l0.9-5.1l-2.6-1.1v-5.7l1.3-4l0.9-5.1l0.4-6.3l1.3-5.1l-3-3.4
	l-6.9-2.9l-3.9-0.6l-1.3-4v-6.9v-6.9l0.9-6.3l-5.1-2.9l-3.9-1.7l-3.9-4l-3.9-0.6l-6.9,1.1l-6,1.7l-1.3-7.4v-6.3l-5-2.9l-1.4-19.5
	l1.6-0.2l1.6-0.1l5.1-0.2l3.4-3.1l2.6-2l1.3-0.4l4.6-5.2l0.4-0.3l0.4-0.3l0.4,0.1l1.8,0.3l3.5,1.6l4.5,3.5l2.4,1.4l1.3,0l1.3,0.6
	l5.5-0.1l5-0.1l2.8-0.2l1.5-0.4l0.8-0.7l1.4-3.1l1.4-4.2l3-3.8l1.5-1.9l0.8-1.8l0.2-0.9l-0.2-3.9l-0.7-7.1l0.6-3.1l0.9-1.6l1.9-1.2
	l0.3,0l5.1-0.5l0.7,0.3l1-0.2l2.1-1.2l3.3-3.1l0.7-1.1l1.4-1.3l1-0.3l1.9,0.4l2.2,1.2l0.4,0.2l1,0.3l6,4l2.9,1l2.6,0.1l1.3-0.8
	l1.8-3.3l0.2-2l0-1.2l-0.1-5.2l-0.1-3.1l0.1-2.2l0.4-1.4l0.6-0.6l1.3-0.4l1.4,1.6l4.5,1.6l1.9-0.4l4.1-2.5l6.8-3l2.7-2.3l2.8-2.4
	l12.4-11.3l2.1-1.4l0.8-0.5l11.3-9.5l0.7-0.2l5-4l3.4-2.8l6.2-6.2l7.8-6l6.5-5l9.4-8.3l1.5-1.6l10.7-11.3l3.6-3.3l2.1-1.7l5.8-4.8
	l0.7-1.5l0.7-1.5l2.4,0l0.3,0l0.5,0l0.5,1.7l0.2,0.6l1.6,5.8l0.9,1.5l1.5,2.7l0.8,0.8l0.6,0.6l1.6,0.2l0.5,0.1l1-0.3l1.4-1l0.2-0.1
	l1-1.1l2.3-4.3l0.1-0.2l1-1.8l1.5-1.2l0.7-0.2l3.4-1.1l2.8-0.4l1.4-0.2l3.7-0.2l2.6-0.1l0.2,0l2.1-0.1l0.4,0.1l0.8,0.2l1,0.2
	l1.4,0.9l0.4,0.8L496,54l0.1,0.8l-0.4,1.6l-0.5,0.5l-1,1.2l-2.5,1.4l-1.1,0.2l-0.2,0.4l-0.2,0.3l-5.4,3.8l-0.2,0.5l0,0.1l-0.2,0.1
	l-0.6,0.4l-0.5,0.1l-0.1,0.1l-0.2,0.2l-3.2,4.1l-1,2.9l0,3l0.3,2.9l0.4,0.7l1,9l0.1,0.6l0.6,0.8l1.1,5l0.6,2.8l2,5.7l1.6,3.4
	l0.1,0.2l1.2,2l0.8,1.2l0.3,0.3l1.3,1.4l1.2,0.6l0.1,0.1l5.4,5.2l0.3,0.6l0.8,1.3l0.3,1.2l-0.1,0.6l-0.1,0.8l-1,2l-0.9,0.8l-1.9,1.8
	l-1.3,0.4l-0.1,0l-0.6,0.9l-0.2,1.6l1.7,4.9l2.9,8.1l0.5,1.6l0.4,1.3l1.3,4.2l0.5,1.4l4.9,11.3l0.9,1.1l0.2,0.7l1.4,4.1l0.5,3.6
	l2.7,18.6l0.4,1.4l1.2,3.7l0.3,1.1l1.5,3.3l0,0.1l2.3,4.1l2.5,3l1,0.9l0.2,0.2l1.5,1.3l2.3,1l0.9,0.2l1.5,0.3l0.9,0.5l0.2,0.1l9,0.8
	l1.2,0.4l0.4,0.1l0.1,0.1l0.8,0.9l0.3,1.4l0,3l0.3,1.4l1.3,1.6l1,0.4l1.5,0.1l1.1,0.1l2.3-0.1l3.3-0.1l4.2-1.1l3.7-1l3-0.1l1.6,0.5
	l1.8,1.7l4.2,3.9l1.4,1.7l2.4,4.2l0.9,0.9l1.2,1.9l1.1,1.6l3,2.7l0.8,0.5l1.5,1l2.9,1.3l1.9,0.8l0.9,1l0.3,0.3l1.6,2.5l0.1,0.4
	l0.4,0.9l0.2,0.2l1.3,1.6l3.7,3.7l1.6,1.6l3.7,3.7l1.8,1.4l0.1,0.1l5.4,2.3l2.3,1l3.4,2.1l1.1,0.7l0.7,0.7l0.3,0.3l1.5,1.6l3,3.1
	l1.2,0.9l1.1,1.5l0.7,0.2l1.1,2.6l0.1,0.3l0.6,2.9l-0.1,2.6l-1.2,4l-1.4,4.8l-2.7,4.8l-2,2.5l-1,1l-3.6,3.7l-2.3,2l-0.8,0.7l-1.4,1
	l-1.1,0.8l-1.8,1l-6.3,3.7l-5.9,3.5l-0.5,0.1l-1,0.3l-0.5,0.1l-0.2,0.1l-4.4,3l-0.7,0.8l-1.6,1.9l-1,1.8l0,2.6l0.9,1.6l2.8,1.5
	l4,1.2l0,0l0.1,0l0.8,0.7l0.3,1.3l0.3,1.2l-0.3,1l-0.7,2.5l-3,2.7l-2.1,1.9l-1.8,2.5l-0.2,1l0.3,2l0.2,0l-0.1,1.9l-0.2,1.1l-0.5,2.1
	l0.8,6.1l1.2,3.7l2.3,5.9l2.8,4.4l0.1,0.2l1.9,2.9l0.8,2.3l0.5,3.6l-1.3,4.6l0,0l-1.8,3l-0.7,0.8l-2.9,3.4l0,0l-0.8,0.9l-3.2,4.7
	l-0.1,0.7l-0.2,1.3l0.4,1.7l0.2,1.1l2.3,6.2l0.4,1l1.8,3.9l0.2,0.4l2.1,4.6l0.7,1.6l1.1,2.1l1.9,3.7l1,1.4l1.8,3.5l2.1,3.4l0.3,0.5
	l0.4,0.6l6.8,8.4l0.2,0.1l0.6,0.4l2.8,3.2l3.7,4.1l2.9,1.7l2,3.1l2.6,1.3l1,1.6l1.3,2.2l1.4,1.4l0.8,0.7l2.2,1.1l2.1,3.3l0.4,0.3
	l1.6,1.1l2.7,2l0.6,1l0.3,1.4l-0.6,2l-0.5,1.7l0.1,1.9l0.1,0.9l0.6,2.2l0.5,1.8l2.6,1.6l2.9,1.8l2.1,1.3l2,0.9l2.2,0.4l1.1,0.2
	l2.3,0.4l0.4,0.3l0.4,0.3l3-0.5l0.9-0.2l14.8,1.1l5.9-0.1l3.1-0.1l2.4,0.2l0.8,0.3l0.4,0.4l1.1,1.2l1,2.3l0.1,2.2l-0.3,1.5l-0.3,1.1
	l-0.4,1.2l-1.8,4l-0.2,1l-0.3,0.4l-0.3,0.3l-0.4,0.5l-2.4,5.6l0,0.3l-0.1,0.9l-0.7,1.1l-0.2,0.3l-1.6,5.6l-0.3,1.5l-0.2,0.9
	l-0.3,4.1l0.1,0.9l0,0.4l0,0.3l0.2,1.7l1.4,3.3l0.4,1l2.3,3.3l0.3,0.4l0.6,0.8l0.6,0.5l1.2,1.1l2.8,2.6l1.9,1.2l0.4,0.9l1,1.1
	l0.6,0.7l0.3,0.4l0.8,1.7l0.1,0.4l0.3,1.3l1.1,10.5l1,2.7l0.9,1.3l1,1.3l1.7,1.1l2.7,1.7l1.7,1.5l0.3,0.5l0.6,1l1,2.1l0.5,1.8
	l0.2,0.7l0.3,1l1.2,4l0.8,4.9l0.2,1.1l0.2,1.4l-0.9,7.7l-0.6,2l-0.5,1.1l-0.6,1.3l-3.1,2.2l-0.3,0.2l-1.1,0.4l-0.8,0.3l-2.9-0.3
	l-0.5,0l-1,0l-2,0.1l-2.3,1.3l-1.7,1.2l-0.9,0.6l-3.8,3.7l-6,3.9l-0.1,0.1l-0.2,0.2L675,619.4z"/>
<text transform="matrix(1 0 0 1 230.374 380.4453)" class="textName">Kargil</text>
<text transform="matrix(1 0 0 1 414.7192 352.4043)" class="textName">Leh (Ladakh)</text>
</svg>
