<?xml version="1.0" encoding="utf-8"?>
<!-- Generator: Adobe Illustrator 26.0.0, SVG Export Plug-In . SVG Version: 6.00 Build 0)  -->
<svg version="1.1" id="Layer_1" xmlns="http://www.w3.org/2000/svg" xmlns:xlink="http://www.w3.org/1999/xlink" x="0px" y="0px"
	 viewBox="0 0 800 730" style="enable-background:new 0 0 800 730;" xml:space="preserve">
<style type="text/css">
	.st0{stroke:#000000;stroke-miterlimit:10; cursor:pointer;}
	.textName{font-family:'Arial'; font-weight:bold; color:#000000; font-size:14px; cursor:pointer;}
</style>
<path id="D049" class="st0" d="M315.4,267l-1.4-1.4l-1.4-1.2l-1-0.1l-0.4-0.8l-0.7-0.9l-2.8,2.1l-1.1,0.4l-3.3-1.3l-0.4-0.4
	l-0.4-1.2l-1.2,0.8l-1.3-0.7l-0.9-0.6l-0.3-0.9h0.6l0.8-2.2l-0.8-0.6l-1.1-1.5l-2,1.2v1l-1.1,1.8l-1.7,1.1l-1.2,0.3l-1.2-0.1
	l-0.8,0.2l-0.8,1.2l-1.1,1.2l-1.8-3.7l-1-2.6l-3.9,0.8l-1.8-1.5l0.2-1.4l-1.1,0.1l-0.9-1.6l-1.4-1.1l-1.6-0.1l-0.9,0.5l-0.4,1.6
	l-0.9,1l-0.4,0.9l-1.1,0.3v-0.4l-0.7-0.1l-0.3,0.2l0.1,0.5l-0.8,0.4l-0.7-0.9h-1l-0.3,0.7l0.1,0.9l-1.5,0.1l-0.5,1l0.3,0.8l-1,0.6
	l-0.7-0.7l0.1-1.1l-0.1-0.9l0.5-0.7l-0.7-0.5l0.3-0.6l-1.2-0.3l-0.4,1.5l-0.1,1.8l-2.5-0.3l-0.4,1.1l-0.2,1.4l-1.5,1.8l-0.4-1.2
	l-1.3-0.8L256,260l0.2-1.9l-2-1l-1.7-0.4l-1.4,0.3l-1.5,0.6l-1.1-1v-1.8l0.6-1.1l-1-1.3v-1.6l-1.3,0.3l-1.2,1.6l-0.3,1.7l-1,0.1
	l-1.1-0.6l-0.7,1.4l-3.4,1l-0.3-1l-1.1-0.6l-0.8-0.7l-1.3,0.9l-0.5-1.1l-1.1-2l0.2-2.1l-2,0.3l-1.2-1.6l-0.1-1.3h-1.1l-1.5,1.9
	l-1.2-0.5l-0.7,1.4l-1.5-0.7l-1.7-0.6l-1,1.1l-1.2-0.8l-0.5,0.4l-1,1.1l-1.1,2l-0.1,1.2l-0.4,1.1l-0.6,0.7l-0.7,0.2l-0.9,0.3
	l-0.4,0.5l-1.1,1l-0.6,0.3l-1.5-0.1l-0.6-0.1l-0.5-0.4l-0.3-0.5l-0.7-0.7l-0.8-0.5h-0.8l-1,0.1l-0.5,0.8l-0.6,1.2l-0.8,1.3l-0.9,0.9
	l-0.8,0.6l-0.5,0.5l-0.7,1l-1.3,1.1l-0.5,0.9l-0.5-0.4l-0.4-0.5l-0.4,0.1l-0.5,0.4l-0.7-0.1l-0.6,0.1l-0.1-0.1l-0.4,0.1l-0.5,0.4
	l-0.3-0.1l-0.4-0.1l-0.6,0.1l-0.5,0.6l-0.8-0.2l-1.6-1l-0.1-0.2v-0.3l0.3-0.1h0.2l0.5-0.5l0.1-0.1l0.2-0.8v-0.2l-0.1-0.1l-0.2-0.3
	v-0.7v-0.3l0.3-0.8l0.3-0.3v-0.1l0.8-0.6l0.5-0.2l1-0.1l0.9-0.1l1-0.5l0.4-0.5l0.3-0.9l0.2-0.2l0.1-0.4l0.1-1l0.1-0.2l-0.5-4.2
	l-0.4-0.2v-0.7l0.3-0.1l-0.1-1.1l-0.1-0.4l-1.3-5.3l-1.1-3.3l-1.4-4l-1.2-2.5l-1.6-3.4l-1-2l-2.7-5.5l-2-4l-1.8-4.6l-0.4-1.2
	l0.1-4.1v-0.3v-0.8l1.9-1.1l1.3-0.3l1,0.1l0.6,0.1l1-0.5l0.1-0.2l0.1-0.3V203l-0.5-0.4l-0.3-0.9l-0.5-0.5l-0.1-2.6v-0.3l0.5-1.5
	l1.3-1.4l0.1-0.3v-0.7l-0.2-0.2L190,194v-0.4v-0.2l1.4-2.1l0.5-1.7l-0.1-0.8l-0.6-0.7l0,0l-0.1-0.2v-1.2l0.1-0.3l1.4-0.8l1.4-2.2
	l1.4-0.4v-0.3l0.1-0.1l0.2-2.3l0.2-0.4l0.4-0.5l0.4-0.3l1.4-1.1l0.1-0.6l-0.1-2.3l0.1-0.5l0.3-1l0.2-0.4l0.2-0.2l0.4-0.1l0.2,0.3
	l0.1,0.3l1.3,0.6l0.6,0.1l1.3-0.1l0.7-0.4l0.6-0.6l0.2-0.4l0.5-0.6l0.3-1.1l0.4-0.5l0.2-0.1h0.9l0.5,0.3l0.2-0.1l0.4-0.4l0.1-0.6
	v-0.9v-1.1l0.1-0.2l0.8-0.4l0.5-0.5l0.2-1.1l0.4-0.1l0.8,0.4l0.2,0.1l0.2-0.1l0.2-0.3l0.1-0.1l0.6-0.5l0.4-0.2l1.5-0.3h0.4l0.4,0.1
	l0.6,0.4l0.2,0.2l0.1,0.2l1.5-1.3l0.3-1.3l0.7-6.4h1.5l1.6,3.6l1.6,1.1l0.7-0.3l1.1-0.7V159l-0.1-0.8l0.1-0.6l0.3-0.1l0.4,0.5
	l0.3,0.6l0.6,0.1l0.8,0.2l0.6-0.5l0.3-0.3l0.1-0.1l0.1-0.1l0.5-0.3l2.6-0.8l0.8-0.4l0.9-0.5l1.4-0.6l0.2,0.3v0.7l0.6,0.5l0.1,0.4
	l0.4-0.3l0.2-0.2l0.3-1.4l0.5-2.2l0.8-1.1v-0.4v-1.5l-0.4-2.2l0.1-0.8l0.1-0.1h0.2l0.1-0.5l0.2-0.2l1.1-1l1.9-0.4l1-0.3l0.1-0.1
	l0.1-0.1l0.1-0.4l-0.1-0.6l-0.8-1l-0.1-0.2v-0.5l2.1-0.4l0.5-0.3l0.3-0.6l0.5-0.2l0.2,0.1l0.1,0.1l0.1,0.3l0.5,0.3l0.1-0.1l0.4-1.7
	v-0.5l-0.1-0.3l-0.4-0.6l-0.5-1.5V136v-0.1l1.1-0.6l0.6-0.6l1.2-0.3l3.1,0.6l0.1-0.1l0.1,0.1l1,0.9l0.4,0.4l0.6,0.9l1.1,3.4l0.2,1.7
	l0.6,0.5l0.3,0.6v0.5l-0.6,0.2l-0.3,0.6l1.1,0.3l-0.4,0.8l-0.5-0.1l-0.8,1.3l-1.7,3.3l-0.5,2l1.7,0.9l0.9,1.4l1.4,0.9l2-0.4
	l-0.3-1.5l2.3-0.4l2.2-0.8l-0.3,2l0.1,1.5l-2.6,1.6l-3.4,1.6l0.3,1.1l-1.3,0.3l-0.7,0.3l-1.4-0.8l-2,1l-1.5,1.4l-1.1-0.5l-1.2,0.7
	l2.9,6.5l0.2,1.8l0.9,0.4l1.5,0.2l-0.3,2.8l1.6,1.1l1.9,1.9l0.7-0.8l0.8,0.3l-0.2,1.4v1l1.4,0.5l1.8,1l0.6,2v1.1l0.3,1.6l2.6,0.1
	l1.8,1.3l0.8,0.3l1.8,0.5l0.6,1.6l2.3-1.3l0.2,1.3l-0.2,0.9l0.8,0.8l0.7-0.1l0.8,1.6l1.2,0.3l1.7-1.2l3.7,0.4l0.7,1.2l0.5,1.4l0.6,1
	l1.3,0.1l1.5,1.6l1.8,0.8l0.2,1.3l-0.7,1.3l-0.7,0.5l-1-0.2l-0.3,1.6l1.2,1.1l1,0.3l1.1,0.9l0.4-1.7l1.2,1l1.3,0.1l0.6-0.3l0.7-0.7
	l0.6-0.2l0.3,0.9l0.9,1.3l2.3,0.7l0.8-0.5l1.2-0.1l0.9,1.7l0.9-0.4l0.8,0.3l-0.3,1.2l0.7,0.3l1.7,1.6v1.3l-0.7,0.9l-0.9,0.2v1.2
	l1.6,1.1l1.7,0.5l0.8,1.1l-0.5,1.3l1.8,0.6l0.4,1.7l1.6-0.2l0.8,0.8l0.3-1.6l1,0.6l0.6-1.3l1.5-0.3l0.9,0.2l1.6-0.4l1.3-0.9l0.6,0.3
	l0.2,0.6l-0.3,3.1l0.6,1.1l0.6-1l1.2,0.4l0.3,0.8l1.4-0.1l0.7,1.8l-0.6,1.6l-0.9,0.6l-0.5,1.7l1.5,0.8l2.2,1.7l1.2,1.4l0.9-1.1
	l0.7-0.3l1,1l0.8,0.4l0.5,0.8l1.9,1.2l1.5,0.6l0.8-0.1l0.6,1.2l1.2,1.1l1,1.8l0.4,1l2,1.7l-0.7,1.3l-0.4,1.6l-0.7,0.1l-1.1-0.2
	l-1.3,0.2l-0.9,0.4l-5.3,5.4l-0.6-0.1l-1,1.2l-3,2.9l0.2,1.1l-0.3,0.5l0.1,0.8l-3.7,6l-2.2,4.7l-0.3,0.2L315.4,267z"/>
<path id="D054" class="st0" d="M332,565.8l-0.3-0.9l-0.8,0.5l-0.6-0.4l-0.1-0.7l0.3-0.5l1.3-0.3l0.3-0.5l-0.1-0.7l0.9-2.1l0.1-2.2
	l-0.4-0.6H332l-1-0.7l-0.2-0.6l0.3-0.6l0.4-0.3h0.3v-1l-0.2-0.3l-0.1-1.5l0.6-0.4l0.3-0.4v-0.3l-1.6-1.2l-0.2-0.7l0.3-1.5l-0.1-1.1
	l-1.2-0.9h-0.4l-0.9,0.7l-0.9-1.2l0.7-1.2l-0.2-2l-0.2-0.2l-2.7-0.6l-0.7,0.2l-0.8,0.7l-0.3-0.3l0.1-1.1l0.4-1.1l-0.3-2l-0.4-1.4
	l0.1-0.8l0.2-0.3l1.7-0.4l1.6,0.5l0.5-0.2l0.4-0.8l0.1-0.9l-0.4-0.6l-1.2-0.2l-0.3-0.3l-1.5-0.4l-0.4-0.6l1.5-4.7l0.4-1.8l-0.6-0.1
	l-0.6-0.5l-0.9,0.8l-2.4-0.6l-0.3-1.3V522l-0.9-2.9l0.5-2.2l-0.8-2.8l-1.3-1.1l-1.3-1.9l-1.2-0.8l-1.2,0.6l-1.1,0.2l-0.2-1.9
	l0.6-0.5v-0.4l-2-2.8l-0.1-1.1l0.7-1.3l0.9-1.4l1.2-1.3l1.3-2.4l0.1-1.3l1.8-2.6h0.2v-0.4l0.1-1.2l1.9-2.2l0.8-0.5l0.8-1.6l1.1-0.2
	h1.4l0.5,1l0.4,1.8l1,1.6l1.6,0.3l0.5-0.2l2.2,0.2l2.6-1.4l2.2-1.6l1.5-0.5l0.8-0.6l1.8-2.2l0.6-1l0.5-1.4l-0.3-0.8l-0.8-0.5
	l-0.9-0.8v-0.8l-0.4-1.2l0.1-3.2l2-0.6l0.9,0.1l0.5,0.3l0.6-0.3l0.1-1l1.3-0.6l0.5-0.6l0.4,0.3l0.7,0.1l0.4-0.5l0.5-1l0.5-0.5
	l1.1,0.4l0.3-0.3l0.2-0.8l0.4-0.3l0.4,0.4l1.5,0.3l1.4,0.6l1.5,0.3l1.1-0.6l1.7,0.6l1.2-0.1l0.4-1.9l1.5-1.4l0.5,0.3l0.3,1.2
	l0.2,1.4l0.9,1.4l1.2-0.4l1.2-1.7l0.8-2.3l-0.4-1.5l-0.9,0.4l-1,0.2v-1.3l0.4-1.5l0.5-1h1.2l0.5,0.4l1.5,0.6l0.6,0.8l0.9,0.7
	l1.2-0.5l1.8,1.9l1-0.3l1.4-0.9l0.7-0.2l1.1,0.3l0.3,0.2l0.9,1.4l1.1-0.6l0.4-0.9l1.1-0.6l0.3-0.5l0.2-0.9v-0.6l0.2-0.5l0.3-0.3h1.4
	l0.1-0.2l1.1,1l0.7,0.9l0.3,1l-0.5,2.2l1.6,0.4l1.1-0.8l0.8,1.5l-0.3,1.3l-0.5,0.9l0.4,1.9l-0.6,2l-1.3,3.3L383,481l-0.3,0.9
	l0.8,1.2l-0.1,1l-1.1,0.6l-0.6,1l0.3,2.2l1.9,1.3v0.9l0.8,1.2h1.4l0.4,1l-0.3,1.1l-1.6,2.5l-1.7,1l-0.7,3.9l0.3,0.7l3.2,0.7l-0.7,1
	v1.6l-0.2,0.8l-0.8,1.7l-0.5,0.6l-1.9,0.8l-0.9,1.1l0.6,1.2l1.2,1.8l1.2,0.1l0.4,1.1l-0.3,2.4l0.4,1l0.1,0.6l-0.6,0.1l-0.7-0.2
	l-0.1,1.3l0.2,0.9l1,0.1l0.5-0.2l0.4,0.8l-0.4,0.6l-1.1,1l0.4,0.9l-0.1,1l2,1.1l0.1,1.1l-0.2,2.7l0.7,0.8l0.8,0.5l-0.6,1.5l-0.8,0.7
	l-1.5,2.1l-1.1,0.1l-0.6-0.8l-1.1,0.9l0.1,1.1l0.5,1.7l0.3,2l0.8,2.4l1,1.7l0.9,1l1.5,0.8l1,0.3h4.8l0.9,0.2l1,1.2l-0.1,1.3
	l-0.4,0.8l0.3,0.8l-1.5,2.4l-1.4,0.4l-1.4,1.4l-1,2.5l0.1,1.5l-0.6,0.4l-1.7-1.7l-6.2-0.1l-0.6,1.2l-2.4,1.4l-1.9,1.6l-1.3,0.7
	l-2.8-0.9l-1.9-1.7l-0.4,0.9l0.8,1.8v0.4l-0.5,0.1l0,0l-0.5,0.8l-0.8,0.7l-0.5,0.2l-1.3,1l-1,1.1l-0.2,1l0.4,1.7l-0.4,1.9l1.6,3.7
	l1.4,2.7l0.4,1.9l-2.2-1.1l-0.8,0.5l-0.8,0.8l-0.7,1.1l-0.6,0.1l-0.6-0.3l-1.4-2.2l-0.7,0.5l-0.4,0.9l-0.8,0.6l-2.8-0.9l-0.7-0.4
	l-1.2-1.1l-0.9-1.6l-0.4-0.8l-0.4-2.2l-1.5-2.9l-0.7-1l-2.4-2.3l-2.8,0.6l-3.6,1.7l-1.7-0.3l-1.5-1.3l-1.2-0.6l-1.2-1.1l0.3-0.9
	l-0.4-0.9l-0.9-0.3l-2.8,2.7h-0.4L332,565.8z"/>
<path id="D046" class="st0" d="M215.9,619.7l0.3-1.2l-0.6-1.5l-0.3-1.2l0.8-1.2l0.6-2.1l0.1-0.3l0.6-2.7l-1.3-1.7l-0.5-1l-1.8-1.8
	l0.3-1l-0.7-1.7l1.9-4.7l-0.9-0.8l-1.4-0.9l-1.4-0.1l-1.3-3.6l1.2-3.3l0.3-1.2l-0.2-1h-0.8l-0.6,0.6l-0.7,0.4l-2.4-0.5l-1.3-0.5
	l-0.6-0.5l-2.5-3.2v-0.6l0.8-2l0.7-0.6l0.2-1.6l1.2-2l1.6-1.6l1.9-0.4l0.6,0.2l0.4-0.5l2.3-0.1l0.9,1.5l1.2,0.2l0.9-0.3l2.6-1.6
	l1.1-0.9l1.4-1.7l0.5-0.6l0.2-0.9l-0.1-0.9l-1.2-1.8l-0.9-0.1l-0.8,0.2l-1-0.2l0.6-4.9l0.6-0.8l-0.1-1.1l1-0.9v-0.3l-0.6-0.6
	l-0.3-1.1l-0.2-3.1l0.4-1.4l1.8-2.5l0.8-1.4l-0.1-0.6l0.1-0.4h1.3l0.5-0.5l0.7-1.1l-1.4-1.5l-0.6-1.1l-1.1-1.5l-1-0.3l-0.5-0.8
	l2.9-1.9l0.7-1.2l2.6,0.4l1.6-0.9l2.6-2.8l-0.2-0.2h-0.7l-5.5-1.7l-2.6-1.1l-1.7-0.4l-1.4-0.6l-1.2-0.4H215v0l1.7-0.4l0.7-0.5
	l1.4-1.3l2.7,2l2.6,1.3l1.5,1l3.1,1.8l0.3-0.1l0.6,0.1l3.7-7.1l1.6-4.1l0.9-1.4l1.5,0.9l1.3,0.5l1.7,1.3l1.2,1.2l3.6-3l3.4,1.8
	l3,1.3l1.3,0.9l-0.2,0.7l1,0.7l1.6-0.4l2.4-3.7l0.9,0.6l1.1-0.7l1.1-0.3l0.6-1.1l1-1.1l0.5,0.5l1.4,0.6l0.7-0.5l1.3-0.1l0.8,1
	l0.5,0.2l2.9,1.4l1.3,0.4l0.6-0.2l2.2,0.7l0.8-0.4l1.6-2.2l-0.4-0.6l-0.3-1.6l0.3-1.7l-0.2-0.9l-0.5-0.9l-1.3-1.3l-3.1-1.7l0.6-1.3
	l0.1-1l-1.3-0.7l0.3-1.3l1.1-0.8l0.9-2l1.1-0.5l1.6,1.1l1.1,0.3l-0.3-1.3l-0.7-0.2l-0.9-1.2l0.4-1.9L273,503l-1.1-2.7l-3.1-1.1
	l2.2-0.5l1.7-1.7l0.9-1.5l1.3,0.4l0.5,0.7h1.5l1.2-0.8l1.8-2.4l1.5-2.7l0.8-0.9l1.6,0.5l2.8,1.4l2-0.5h1.5l0.3-2l-0.5-1.9l-1.3-3.1
	l0.3-2.1l3-4l1-0.5h0.7l2.3,0.9l0.9,1.2l1.1,2.1l0.7,2.1l0.7,3.8v4.6l0.3,2.1l0.6,0.5l1-0.2l0.7-0.7l1.4,0.9l0.9-2.1l2,1.6l2.2-0.5
	l2.1-0.9l0.8-0.1l1.3-0.6l0.3-0.7l1.1,0.3l0.6,0.9l2.1,1.8h0.6l1.3-0.5l-1.8,2.6l-0.1,1.3l-1.3,2.4l-1.2,1.3l-0.9,1.4l-0.7,1.3
	l0.1,1.1l2,2.8v0.4l-0.6,0.5l0.2,1.9l1.1-0.2l1.2-0.6l1.2,0.8l1.3,1.9l1.3,1.1l0.8,2.8l-0.5,2.2l0.9,2.9v1.2l0.3,1.3l2.4,0.6
	l0.9-0.8l0.6,0.5l0.6,0.1l-0.4,1.8l-1.5,4.7l0.4,0.6l1.5,0.4l0.3,0.3l1.2,0.2l0.4,0.6l-0.1,0.9l-0.4,0.8l-0.5,0.2l-1.6-0.5l-1.7,0.4
	l-0.2,0.3l-0.1,0.8l0.4,1.4l0.3,2l-0.4,1.1l-0.1,1.1l0.3,0.3l0.8-0.7l0.7-0.2l2.7,0.6l0.2,0.2l0.2,2l-0.7,1.2l0.9,1.2l0.9-0.7h0.4
	l1.2,0.9l0.1,1.1l-0.3,1.5l0.2,0.7l1.6,1.2v0.3l-0.3,0.4l-0.6,0.4l0.1,1.5l0.2,0.3v1h-0.3l-0.4,0.3l-0.3,0.6l0.2,0.6l1,0.7h0.6
	l0.4,0.6l-0.1,2.2l-0.9,2.1l0.1,0.7l-0.3,0.5l-1.3,0.3l-0.3,0.5l0.1,0.7l0.6,0.4l0.8-0.5l0.3,0.9l-1.4,2.4l-0.8,0.7l-0.1,0.8
	l0.4,0.9l0.6,0.7l0.2,0.8l-1,1.4l-1.7,1.7l-0.4,0.8l0.2,3.2l1.4,0.6l-2,2.5l-0.4-0.3l-0.9,0.5l-0.7,1.2l-1,0.6l-0.5-0.2l-1.6,2.1
	l-0.8,0.2l-1.5,0.8h-0.4l-0.6-1.1l-0.9-0.2l0.1-0.2l-1.3,1.1l-0.7,0.8h-1l-1-0.6l-1.2,0.7l-0.6,1.7l0.2,3.4l0.2,1.3l-0.3,4.6
	l0.2,0.7l0.4,0.3l0.5,0.1l0.7-1.1l0.7-0.3l0.3,0.6l-0.3,1.5l-0.6,0.5l-2.2,1.2l-0.9,0.9l-0.1,0.9l0.8,1.9l0.4,2.7l0.6,0.4h1.9l1,0.2
	l0.7-0.1l0.6-0.5l0.5-1.3l0.8,0.8l1.4-0.6v1.6l-0.8,0.3l-0.8,0.8l-0.4,0.7l-2.1,1.6L316,615l0.8,1.7l-0.1,1.2l-1.1,1.7l-2.4-1.1
	l-1.3-1.2l-0.4,0.3l-0.5,2.2l-2.4,2.9l-2.2-2.1l-1.6,0.6l-0.5-1.3l-0.7-0.3l-0.1-1.3l-1.3-0.1l-0.5,0.8l-0.5-1l-1.4,2.1l-0.5,4.6
	l0.3,0.6l-0.8,0.8l0.2,1.3l-1.7,2.9l2,3.2l0.7,6.3l2.5-0.9l2.4,1.9l0.5,3.6v1.4l-3.6,1.6l-1.4,1.2l-0.1,0.9l0.4,1.5l-0.4,0.4
	l-0.2,1.3l-1.4,1.1l-1.2,0.3L296,655l-0.7,4.2l-0.4,1.3l0.1,1l0.9,0.6l0.8,1.1l-0.9,0.7l-2.2,0.9l-1.1-0.8l-0.7-1l-1.1-4.8l-4,0.7
	l-1.2-0.4l-0.9-0.5l-0.2-1.4l0.8-1.5l2.4-1.7l-0.5-2.7l-0.9-0.8l-2.3-0.8l-0.8-1.1v-1.1l0.6-1l2.8-2.2l0.6-1.2l-0.2-0.8l-0.1-4.7
	l-1.4-1.9l-0.9-1.5l-0.9-0.8l-1.2,0.7l-1.4,4.4l-0.8,3.3l-0.9,0.7l-1.5,0.3l-2.5-1.6l-2.5,2.1l-1.6,1.9l-1.5-0.7l-2,1l-0.7,1.6
	l-3.6-5.6l0.1-2.2l-2.1-1.8l-2.6-1.1l-1.3-3l-0.7-1.7l-0.6-1.5l-0.8-2.9l-1.5-1.8l-3.7,2.3l-1.6,0.1l0.8-1.4l0.6-0.5l0.2-1.3
	l-0.8-1.4l-0.8-0.8l-0.7-1.4l-0.7,1.3l-1,0.8l-1.1,0.1l-1.1-0.5l-1.7,0.5l-2.3-1.2l-1.3-1.2l-1.3-0.8l-0.3-1.5l-0.5-1.2l-1.3-1.4
	l-1.4-0.5l-1.2,0.7l-1.8,2.1l-1.4,1.4l-1.5,0.4l-1.5-0.2l-1.4,0.6l-2.4,0.5l-2.3,1.7l-3.1-1.6L215.9,619.7z"/>
<path id="D045" class="st0" d="M276.7,522.2l-1.6,2.2l-0.8,0.4l-2.2-0.7l-0.6,0.2l-1.3-0.4l-2.9-1.4l-0.5-0.2l-0.8-1l-1.3,0.1
	l-0.7,0.5l-1.4-0.6l-0.5-0.5l-1,1.1l-0.6,1.1l-1.1,0.3l-1.1,0.7l-0.9-0.6l-2.4,3.7l-1.6,0.4l-1-0.7l0.2-0.7l-1.3-0.9l-3-1.3L245,522
	l-3.6,3l-1.2-1.2l-1.7-1.3l-1.3-0.5l-1.5-0.9l-1.1-0.8l-0.8-1l-0.5,0.5l-1.4-0.2l-0.9,0.1l-1.4,0.5H227l-2.7,1.2l-0.8-0.5l0.3-1.1
	l-0.1-1.2l0.6-3.6l-0.1-1l-0.8-0.8l0.4-1.4l-3.4-3.1l-0.7-1.5v-1.5l0.3-1.1l1.5-2.2l0.9-0.1l1.8-1.4l0.8-1.3l-0.2-1.3l-0.4-1.2
	l-1.5,1.4l-0.5-0.6h-1.8l-1.6-1.7l-0.7-0.5l-0.7-0.2l-0.1-1.3l-2.1-1.4l-1.4-0.4l-1.5-0.7l-0.5-0.4l-0.2-1l0.1-0.8l1.5-1.2l0.9-1.1
	l0.6-1.2l0.6-0.5l0.5-2.7l-1-0.5l-0.7-0.8l-0.9-0.5l-1-0.3l-0.9-0.6l-0.9-1l-2-1.2l-0.4-1.1l-1.3-1.7l-1.1-0.3l-0.9-0.5l-2.2-3
	l0.1-1.4l-1.3-0.3l-0.4-1.1l-0.9-3.9l-0.3-0.5l-1,0.2l-0.6-1l-0.8-0.6l-0.8-0.3l-0.2-0.4l-1.5-1.7l-1-0.3l-1-0.6l-2.9-1l-1.9-0.4
	l-0.8,0.3l-1.3-0.1l-1-0.3H183l-2-0.3l-1.2-0.2l-1-0.5l-2.4-0.8l-0.8-1.6l-0.2-1.8l-0.5-2.2l-0.1-3.8l-0.6-6.8l0.9-1.5l5.5-2.9
	l1.7-0.7l1.4-0.9v-0.5l1.3-2.2l2.3-1.9l3.4-1.7l0.7-0.7l1.7-1l1.9-0.1l1.2-0.2l0.4-0.2l2.4-4.3l1.1-0.4l1.1-1.3l3.8,3.8l1.1-0.6
	l0.7-2.2l0.4-0.6l0.9-0.1l3.2,1.8l0.5-1l1.2-0.1l1,0.8l1.7-0.3l0.8,0.3l1.1,0.2l1.7,0.8l2.1-0.7l0.9,0.3l0.8,0.7l1,1.4h1.9l0.9-0.3
	v0.8l0.5-0.2l0.8,0.7l0.5,0.9l0.5,2.5l2.5,0.8l1.5,0.7l0.4,3.1l0.5,1l0.8,0.6l1,0.3l0.8-0.7l0.7-0.3l0.7,0.1l0.7,0.4l0.3,0.8
	l1.1,1.7l1.5,1l-0.1,0.9l0.2,0.6l0.5,0.5l2.5-0.5h1l0.6,0.7l0.7,0.5l1.6,0.2l0.8-0.1l1.6,0.7l0.3,2.5l-1.2,4.3v1.2l0.6,1.3l1,3.7
	h0.5l0.9-1.4l0.2,0.7v1.3l2.5,0.5l1.1-0.1l0.7,0.1l0.5,0.4l0.7-0.1l0.4,4.1l-0.2,1.1l-0.9,2.1l0.5,2.1l-0.4,2.3l-0.4,1.3l-0.1,1.3v2
	l0.2,0.9l0.5,1.2l0.5,0.7l-0.2,0.8l-2.8,0.3l-3.7,0.8l-0.8,1.1l-1.1,3.7l-0.3,3.6l1.8,0.8l2.3,1.4l0.9-1.3l-0.9-0.9l0.6-1.3l2.7-3.7
	l2.1,2.1l0.6-0.2l0.5,0.5l0.1,1.1l2.6,2.7l2.2-0.1l0.4,1.2l0.5,1l-0.9,2.2l-0.1,1.4l0.3,1.2l-0.2,3.9l0.5,1.1l1,0.9h1.5l3.1,1.1
	l1.1,2.7l2.4-0.2l-0.4,1.9l0.9,1.2l0.7,0.2l0.3,1.3l-1.1-0.3l-1.6-1.1l-1.1,0.5l-0.9,2l-1.1,0.8l-0.3,1.3l1.3,0.7l-0.1,1l-0.6,1.3
	l3.1,1.7l1.3,1.3l0.5,0.9l0.2,0.9L276,520l0.3,1.6L276.7,522.2z"/>
<path id="D040" class="st0" d="M543.1,461.2l0.8,1.4l1.3,1.6l-1,0.6l0.4,3.5l0.8,1.2l-0.3,1.9l-0.7,0.1l-1.4-0.6l-1.6-1.2H541
	l0.1,0.6l-1,0.6l-0.7,0.2L539,473l0.4,0.5l3,2.6l0.8,0.9l0.3,1l-0.2,1l-0.4-0.2l-0.1,0.7l-1.4,1.2l-0.2-0.6l-0.5-0.4l-1,0.4
	l-1.8,1.3l-0.5-0.1l-1.1,0.8l-0.8-0.3l-0.6,0.1l-0.2-0.8H534l-1.6-0.7l-1-0.8l-0.4,0.6l-0.7-0.1l-0.3,0.6l-0.6,0.5l0.2,0.8l0.6,0.9
	l-0.5,0.3l-0.4,1.1l-0.1,2.7l0.4,0.6l0.1,0.8l-1.5,2.5l-0.3,1.1l0.5,1l0.2,0.8l-0.6,1.4l-0.6,0.4l1.3,1.2l0.2,0.5v0.5l-0.3,0.6v0.7
	l1.2,1.5l0.3,1l-0.4,0.7l0.1,0.7l-0.4,0.5l-0.1,0.8l-0.4,0.4l0.4,0.6l-0.5,0.7l0.3,0.4l-0.4,0.6l-0.6,0.3l0.1,0.7l-0.5,1.1l-1.2,1.2
	l-0.7,1.3l-1.9-1.5l-1,0.7l-1.7-2.2l-1-1.1l-1.9,1.5l-2.4-0.4l-0.6,0.9l-0.6-0.4l-0.3,0.4l-0.4-0.4l-0.4,0.6l0.2,0.9l1,1.4l0.1,1.2
	l-2,0.2l-1.2,0.5l-2,2.4l-0.5-2.6l-0.6-1l-1.5-1.4h-0.6l-1.8-1.1l-0.4,0.1l-0.7,0.8l-1.6,1.2l-0.6-0.6l-0.3-1.3l-0.6,0.3l-0.6-0.2
	l-0.9,1.3l-1.1-0.1l0.6-0.8l0.3-1.2v-1h0.5l0.3-0.8l0.6,0.2l0.3-0.7l0.5-0.3v-1l-0.7-0.1v-1.4l-1.1-1.2v-0.7l0.7-1.5l0.5-0.6
	l-2.9-0.5l2.8-4l-0.2-1l-0.3-0.5l-0.3-2l-0.6-1.7L498,489l0.4-1.8v-0.9l-0.4-0.8l-1.6-0.8l-0.2-2l-1.1-0.5l-0.9,0.2l-0.4-0.4
	l-0.2-2.5l-0.8-1.3l-1.5,0.7l-0.6,1.2l-0.5,1.4l0.3,0.7l-0.1,0.6l-0.8,0.2l-0.1-0.6l-1,0.5l-3,1l-6.6,1.3l-8.3,4.7l-6.6,1.3
	l-5.3,2.2l-3.5,0.2l0.3-0.8l0.4-2l0.9-1.6l0.2-0.8l-0.7-1.1l-0.1-0.6l-1.4-1.6v-0.4l0.6-1.3v-1l0.5-1.3l0.9-1.2l0.5,0.1l0.7,1.1
	l0.9,0.4l1.1-0.5l0.1-3l0.6-0.4l0.3-0.5l-0.3-1.3l0.3-1.2l1.2-0.7l0.7-0.9l-0.7-0.7l0.4-1l-1.2-2.3l1.9-1.9l-0.1-0.6l0.7-1.3
	l1.1-0.7l2.7-1.2l0.1-0.3l0.1-3.2l0.2-0.2l1.4-0.6l0.9-0.8l0.7-1.2l0.1-0.9l-0.1-1.1l0.5-0.9l1-0.3l0.5,0.5l-0.1,1.5l0.7,1.1
	l2.2-1.8l0.5,0.1l1.2-0.2l1.1-0.4l0.4-0.3l0.5-1.5l1.1-1h1.6l0.2,0.2l0.3,1l0.7,0.8l1.1,0.3l1.3-0.2l0.8,0.8l1.1,0.4l1.3-0.1l1-0.6
	l0.6-0.8l2.9,0.3l0.8,0.5l-0.1,0.6l0.7,1.7l2,1.1l1.1-0.1l1.1-0.9l1.2-1.9l0.6-0.3l0.8-0.9l0.1-1.2l0.6-1.8l0.1-0.2l-0.3-2l0.3-0.8
	l-0.5-1.4l-0.5-0.5l-0.8-0.2l-1.1,0.2l-0.5,0.3l-0.6,0.8L497,444l-0.9-1.1l-2,1.4l-0.8,1l-1.1,0.5l-1.5-1.7l-1.3-1.8l-0.6-1.1
	l-0.3-0.9L488,440l-0.3-0.6v-2.1l-1.1-1.5l-1.5-3.3l0.1-0.4l0.6-1.3l-0.1-0.1l1.4-2.4l2-3.8l1.1-4.2l0.7-4.7l0.2-3.1l1-2.5l1-1.6h3
	l1.6,1l0.4-0.6l0.1-1.7l0.8-0.1l-0.1-1.6l0.9-2.6l0.6-0.4l0.5-1.9l0.7-0.9l0.9-0.4l2.1,1l0.8,0.8l0.7,1.3l0.6,2.1l0.4,2.8l-0.1,0.6
	l-0.7,0.7l-1.9,0.8L504,410l-1.3,0.4l-1,1.2l-1.2,0.2l-0.6,0.5l-0.5,0.7v0.5l-0.3,0.2L499,414l1.1,1.3l0.2,0.5l-0.2,0.4l0.1,0.3
	l1.3,0.4l0.7,0.8l0.3,0.8l0.4,0.2l1-0.3h1.7l0.5,0.3l0.5,0.6l0.2-0.1l0.6-1.1l0.6-0.4l1.8,0.4l0.4,0.3v2.4l-0.3,1.9l0.1,0.5l0.3,0.4
	l0.4,0.2l2.3-0.1l1.7,1.8l0.3,0.5l-0.4,0.4l-0.4,1.3l0.2,2.6l-1.3,1.5l-0.2,0.5l0.4,2.9l0.6,0.2l1-0.7h0.5l1.5,0.6l2.2-0.6l0.6,0.2
	l2.4,1.7h0.3l0.3-0.5l0.3,0.1l1.1,1.9l2.1-1.1l1.5,0.9l0.6,0.2l2.2-0.9l3.4-2.6l1.1-1l1.3,1.6l0.7,2.6l-0.1,0.7l-1,1.1l-0.1,0.4
	l1,1.5l0.2,0.9l-0.8,0.9l-0.9,0.2l-0.7-0.1l-0.1,0.7l-0.7,0.7l-2,1.3l0.3,1.1l1.1-0.5l3.3-0.1l0.7-0.3l0.6,0.5l0.8,1.4l-0.2,1.3
	l0.2,1.2l1.2,0.2l0.5,0.5l1,2.2l0.2,1.1l-0.5,0.4l-1.1,0.3l-0.8,1.6l-0.8,0.8l-0.2,0.6l-0.7,1l-2.4,1.4l-0.6,0.6l-0.4,1.3l0.2,0.6
	l0.3,0.4l0.6-1.2l0.4-0.1l1.3,1.3l2.2,1.6l0.4-0.3l-0.1-0.7l-0.5-1.3v-0.6l1.1-0.8l1.6,0.2L543.1,461.2z"/>
<path id="D648" class="st0" d="M142.7,623.5l-3.3-0.1l-1.5,0.1l-2-0.2l-3-0.8l-1.9-0.2h-4.7l-5.5-0.7l-12.4-1l-2.5-0.3L94.4,620
	l-1.2-0.2l-0.9-0.1l-2.5,0.5l-3.4-0.1l-4.2-0.3l-7.3,0.2l-0.3-1.8l-0.2-1l-1-2.2l-0.3-1.2l0.1-3.5l0.6-1.4L75,604l0.4-1.9l0.6-1.6
	l1.8-1.5l1.7-1.9l2.3-3.7l2-3.6l0.2-1.2l1-1.3l1.4-2.3l1.5-0.4l-0.5-0.7l-0.3-0.7l-0.2-1.6l-0.1-2.1l0.4-6.7l0.5-1.2l0.3-1.7
	l-0.3-2.4v-0.1l-0.3-6.9l-0.1-1.5v-0.1l-0.5-2.3l-0.2-3.3l-0.1-0.1l-0.2-1.4l-0.4-0.3l-0.2-0.7l-0.4-0.4l-0.1-0.5l-0.1-0.1l-0.2-0.2
	l-0.1-0.6l-0.1-0.1l-0.1-0.1l-0.5-1.7L84,547l-0.1-0.7l-0.2-0.3l-0.2-0.1v-0.2l-0.1-0.1l-0.6-2l-0.1-0.1l-0.4-1.4l-0.2-0.2l-0.2-0.4
	l-0.1-0.3l-0.8-0.6v-0.1l-0.1-0.1l-0.1-0.1l-0.2-0.8l-0.2-0.2h-0.1l-0.4-1.2l-0.1-0.1h-0.1l-0.1-0.6l-0.4-0.4l-0.1-0.5l-0.3-0.2
	v-0.1l-0.2-0.5l-0.1-0.1l-0.2-0.2l-0.5-1.1l-0.2-0.1l-0.2-0.1v-0.2l-0.1-0.4l-0.1-0.1v-0.2l-0.2-0.1l-0.4-0.4l-0.2-0.5V532l-0.1-0.1
	l-0.2-0.2l-0.1-0.5l-0.6-0.4l-1.4-0.9l-0.9-0.6v-0.1l-0.3-0.3l-0.6-0.4v-0.1l0,0l-0.7-1.7l-0.1-1.5l0.4-2l1.1-1.8l0.4-0.4l2.1-2.2
	l1.3-2.4l0.4-1l2.9-0.8l1.3-0.2l0.4-1l0.2-1.9l0.3-0.7l0.6-1.6l-0.8-3.6l0.5-1.1l0.8,0.1l0.8,0.1h0.4l1.1,0.7l0.4,0.3l1.3,0.1
	l0.7-1.4l0.3-3l0.1-0.9l0.7-1.9l1.9-2.9l0.9-0.9l2-1.5L95,493l2.1-1.6l1.2-0.9L99,489l0.2-0.1l0.4-0.6l0.2-0.4l1.1-0.3l0.1,0.1
	l1.2,2l1.4,1.5l0.9,0.2l1,0.2l1.9-2.1l0.4-0.9l0.8-1.8l-0.1-1l-0.4-0.3l-1-0.9l-0.8,0.2l-0.7-0.4l-0.1-0.6v-0.3l0.2-0.3l0.3-0.3
	l0.1-0.1l0.8-0.8l1.4-1.2l0.2-0.3l0.9-1l0.1-0.1l0.1-0.2l0.2-0.6l0.1-1.1v-0.4l-0.2-1.6v-2.3l0.4-1.5v-0.3v-0.1l-0.7-0.5v-0.4
	l0.2-0.6l0.8-0.5l0.5-0.1l0.1,0.2v0.3l0.2,0.5l0.1,0.1l0.2,0.3l0,0v0.2l0.5,0.4v0.2l0.7,0.2l0.1-0.1l0.2-0.3l0.2-1.9v-0.4l0.9-1.5
	v-0.2h0.1l0.2-1.8l0.5-0.1h0.1l0.3,0.8l1.1,0.3l0.2-0.2h0.6l1.6-0.1l1.2-0.8l0,0l4.9-5.4l0.8-0.9l0,0h0.4l2.3,3.5l1.8,2.3l0.8,0.1
	l0.5-1.2l0.6,0.2l1-0.2l0.9,0.7l0.3,1.8l1.9,0.2l0.4,1.6l0.9,0.1l0.6,0.6l1.1,2l1,1.3l0.4,1l0.1,1.2l0.5,0.9l0.2,1l2.1,2.2l1.9,3.7
	l0.9,2.9l0.3,0.1l0.3-0.5l0.6,0.4h0.8l0.2,0.5l0.7-0.3l0.2,0.6l0.8,0.1l0.9,0.7l1.5,1.8l0.2-0.5l0.4,0.1v-1.2l1.6-1.6l0.5,0.1
	l2.1-1.4l1.1-0.1l-0.5,1l-0.1,0.9l1.3,0.4l0.6,0.7h0.5l0.2,0.5l0.5,0.2l0.4,0.7h0.7l-0.1,1.3l-0.2,0.7H160l-1.5,1.5l-1.1,1.5
	l0.4,1.6l0.9,2.2l-0.9,3.4L156,501l-1.1,0.1l-0.8-0.1l-1.3-0.5l0.2,1.9l-0.3,2.2L151,508l-1.5,1.2l-1.3,0.3l-0.8-0.1l-1.2,0.1
	l-1.3,0.7l-3,2.3L141,513l-0.7-0.1l-1,0.6l-2.4,0.5l-0.7,0.4l1.8,0.8l2.4,0.1l1.6,0.7l1.1,0.8l3.3,0.9l6,1.1l1.7,0.6l0.6,1l0.2,1.6
	l-0.6,2.3l-3.1-0.8l-3.6-0.7l-0.9,2.4l-0.5,2l0.5,2.5l1.2,0.8l0.5,2.3v3.7l-0.7,1.6l-1,1.4l-1.3,2.4l0.2,1.3l-0.5,2.4l-0.3,2.5
	l-0.4,1l0.1,1.3l-0.1,1.4l-2.7-2.2l-1,1.5l-0.2,0.1l-1.3,1.8l-1.2,2.8l4.4,3.4l1.3-0.4l1.7-1.1l2.1-0.8l1.6-0.2l5.6,0.5l-1,6.4
	l-1.1,3.6l0.3,1.6l-0.2,1.6l-1.6,5l1.7,1.3l1.6,0.6l3.3,0.6l0.2,1.6l0.3,1.2l0.6,1.4l0.1,1.1l2.5,2.9l0.8,0.6l0.3,0.9l0.5,1l1.7,2.1
	l-1,0.5l-0.6-1l-1.9-1.9l-1.9-1l-1.1,0.3l-0.7,0.3l-0.1,1.3l-0.3,1.4l-0.4,1l-0.3,1.6l3.9,2.8l-0.1,1.3l0.1,1.2l0.5,1.2l2,3.2
	l1.3,1.4l-0.4,2.5l1.6,0.7l1.6,0.1l4.1-1l0.8,1.4l0.3,1.5l0.5,1.2l0.9,1.6l-1.6,0.5l-5.1,0.9l4.4,11.7l-2.4-0.6l-4.2,0.5l-5.5-0.6
	l-2.9-0.1l-6-0.8l-5.5-0.5L142.7,623.5z"/>
<path id="D043" class="st0" d="M126.4,459.2L126.4,459.2l1.9-2.9l2-3.8l2.4-4.6l0.9-1.4l0.9-1.3l0.2-0.1l1.4-0.5l2.3-0.2l2.5-2
	l2,0.5l0.4-0.2l0.1-1l-1.5-2l-0.1-0.3l-1.2-4.2l-0.7-1.3l0.5-1.1h0.3h1.3l0.9-0.8l0.9-0.2h0.1h0.1l1-0.3l0.9-0.7l0.2-0.3l0.3-0.8
	v-0.3V429l-0.2-0.3l-0.1-0.1l-0.1-0.5l-0.1-0.1h-0.1l-0.8-0.3l-0.7-0.4l-0.1-0.2v-0.7l1.1-0.6l0.2-0.2l0.2-1.6l0.1-0.3l0.5-0.6
	l0.7-0.5l0.9-1.1l0.1-0.6l0.4-2.5l0.2-1.4l0.4-0.7l0.4-0.9l0.7-0.5l0.1-0.1l0.5-0.1l1.1,0.4h0.3v-0.3v-0.1v-0.4l0.2-0.2l0.4-0.1
	l0.5-0.1h0.6l0.3-0.1h0.6v0.2h0.1l0.1,0.1v0.4l0.7,0.3l0.4,0.3l0.9,0.6h0.7l1.6-1.7l-0.1-1.7l-1-1.8l-0.1-0.1l-0.5-0.9l-0.1-1.6
	l0.6-1.4l0.1-0.1l1.8-0.9l1.1-0.5l2.2-2.8l3.1-0.7l0.6,0.1l0.5-1.3l0.2-2.4l0.1-0.9l1.2-1.7l0.2-0.3l3.1-3.4l3.1-3l0.6-0.2l0.5-0.8
	l2.5-1l0.8,0.2l0.3,0.1l0.9,0.5l0.1-0.1l0.5-0.3l0.8-2.1l0.8-0.5l0.1-0.1l0.8-1.1l1.5-1l1.7-0.4l0.7-0.4l0.3-0.3l0.1-0.9l-0.1-0.1
	l-0.2-0.6l-0.1-0.1l-0.2-0.3l-0.3-0.7l-0.2-0.7l-0.1-0.3v-0.8l0.5-0.7l0.2-0.2l0.4-3.5l0.5-0.7l1-0.9l0.6-1.1l0.6-4.1l0.1-0.4
	l0.9-1.1h2.3l0.3,0.3l3.4,3.3l0.9,1.4l0.5,0.6l0.4-0.3l0.5-0.1l1.6-0.2l1.4-0.2l1.9-1.4l1.6-0.1l0.6,0.1l0.5-0.1l1.2-0.3l1.9-1
	l1-0.6l0.3-0.5l0.8-0.7l0.9-1.3l0.2-0.5l0.2-0.5V361l-0.1-0.3v-1.2l0.4-0.7l0.8-0.6l0.6-0.8v-0.6l-0.6-1.4V354v-1l0.5,0.1l0.8,1.2
	l0.3,1.1l2.6,0.2l3-0.1l0.3-1.2l-0.2-1.5l1.1,0.8l1.5,0.1l0.5-1.7l0.4-2.3l4.6-0.5l0.2,1.2l1.8,2.7l0.9-1l0.5-1v-2.5l1.5-0.4
	l2.3,0.5l3.1-0.2l1.9-1.2l3.9-2.9l2.4-2.1l1.9,1l1.3,0.1l1.2-1.3l2.1,1.2l2.8,1.4l6.1,3.2l2.5,2.7l0.4-0.4l0.8,1.1l0.5,0.3l0.6-0.6
	l0.5-1.3l-0.1-1.4l-1.1-2.4l0.2-0.2h1.3l0.2-0.9l1.1,0.4l0.2-2l2-0.1l0.2-0.6l0.4-0.5l1,0.1l1,0.4l0.1,0.5l-0.2,1l0.6,0.2l1-0.1
	l1.4,1.4l1.2,0.5v2.4l-0.2,1.5l0.4,0.8l0.8,0.2l0.7-0.3l2.8,1.5l1.5,0.4l-0.6,2.7l-0.4,0.9l0.7-0.1l0.2,1.5l0.9,0.6l0.7-0.1l1.4-0.8
	l0.7-0.1l-0.2,3l-1,2.8l-2.2,3.4l-1.7,2.8l-1,1.6l-1.5,0.3l-1.1,1l-1,2.4l-1.2,0.1l-2.1-1.9l-1.9-0.3l-0.7,1.8v1.9l0.9,1.5l2,0.7
	l1.8,1.5l0.3,3.6v6.7l-1.1,2.8l-1.8,1.9l-4.6,1.6l-3.1,3.1l-1.3,2.7h-0.1l-1,1.2l-3,0.9l-2.2,0.2l-0.8,0.5l-0.8-0.2l-0.5,1.6
	L258,408l0.1,2.2l0.3,1.5l0.5,1.4l-0.5,2.1l-0.3,2.5l0.6,1.5l-0.4,1.4l-1.2,1.7l-1.8,3.1l-0.2,2.5l0.3,1l-0.7,1.1l-0.4-0.3l-1.1,1.2
	l-0.1,1.3l-0.7,0.4l0.4,1.1l-0.6,1.3l-0.3,1.3l0.3,0.9l0.7,1.1l-0.5,0.1l0.2,0.9l-0.1,0.8l-0.4,0.9l-1.6-0.7l-0.8,0.1l-1.6-0.2
	l-0.7-0.5l-0.6-0.7h-1l-2.5,0.5l-0.5-0.5l-0.2-0.6l0.1-0.9l-1.5-1l-1.1-1.7l-0.3-0.8l-0.7-0.4l-0.7-0.1l-0.7,0.3l-0.8,0.7l-1-0.3
	l-0.8-0.6l-0.5-1l-0.4-3.1l-1.5-0.7l-2.5-0.8l-0.5-2.5l-0.5-0.9l-0.8-0.7l-0.5,0.2v-0.8l-0.9,0.3h-1.9l-1-1.4l-0.8-0.7l-0.9-0.3
	l-2.1,0.7l-1.7-0.8l-1.1-0.2l-0.8-0.3l-1.7,0.3l-1-0.8l-1.2,0.1l-0.5,1l-3.2-1.8l-0.9,0.1l-0.4,0.6l-0.7,2.2L205,423l-3.8-3.8
	l-1.1,1.3l-1.1,0.4l-2.4,4.3l-0.4,0.2l-1.2,0.2l-1.9,0.1l-1.7,1l-0.7,0.7l-3.4,1.7L185,431l-1.3,2.2v0.5l-1.4,0.9l-1.7,0.7l-5.5,2.9
	l-0.9,1.5l0.6,6.8l0.1,3.8l0.5,2.2l0.2,1.8l0.8,1.6l2.4,0.8l1,0.5l-0.5,0.5l-1,0.1l-1-0.2l-1.6,1.8l-0.1,1.1l0.4,1.5l1.6,1.3
	l0.5,0.7l-1.1,0.6l-2.7,1l-1.3,1.1l-0.4,0.8l0.1,2.1l-0.2,1.3l-0.3,1l-1,1.4l-0.6,0.6l-1.1,0.5v5.3l-1.3,0.3l-1.2,5l-1.5-0.8
	l-1.2-1.8l-1.6,0.8l-0.3,3.9l-0.2,0.9h-0.7l-0.4-0.7l-0.5-0.2l-0.2-0.5h-0.5l-0.6-0.7l-1.3-0.4l0.1-0.9l0.5-1l-1.1,0.1l-2.1,1.4
	l-0.5-0.1l-1.6,1.6v1.2L153,488l-0.2,0.5l-1.5-1.8l-0.9-0.7l-0.8-0.1l-0.2-0.6l-0.7,0.3l-0.2-0.5h-0.8l-0.6-0.4l-0.3,0.5l-0.3-0.1
	l-0.9-2.9l-1.9-3.7l-2.1-2.2l-0.2-1l-0.5-0.9l-0.1-1.2l-0.4-1l-1-1.3l-1.1-2l-0.6-0.6l-0.9-0.1l-0.4-1.6l-1.9-0.2l-0.3-1.8l-0.9-0.7
	l-1,0.2l-0.6-0.2l-0.5,1.2l-0.8-0.1l-1.8-2.3L126.4,459.2z"/>
<path id="D035" class="st0" d="M362.4,198.9l-2,0.6l0.3,2.9l-0.2,1.7l0.1,1.2l-0.5,2.3l-0.6,0.6l-1.1,1.4l-1.3,1.9l-0.4,1l-1.7,2
	l-1.6,1.4l-0.2,0.4l-0.5,2.3l-0.2,2.4l-1.5,1.2l-0.4,0.5l0.6,0.4l-0.5,1.3l-1,1.5l-0.2,1.7h0.1l-0.9,1.2l-0.4,2.7l-6,1.7l-0.6-0.6
	l-0.8,0.6l-0.7,0.9l-0.5,1.3l0.2,1.2h-0.5l-0.2,1.6l-0.3,1.4l-0.9,0.9l-0.6,0.3l-2-1.7l-0.4-1l-1-1.8l-1.2-1.1l-0.6-1.2l-0.8,0.1
	l-1.5-0.6l-1.9-1.2l-0.5-0.8l-0.8-0.4l-1-1l-0.7,0.3l-0.9,1.1l-1.2-1.4l-2.2-1.7l-1.5-0.8l0.5-1.7l0.9-0.6l0.6-1.6l-0.7-1.8
	l-1.4,0.1l-0.3-0.8l-1.2-0.4l-0.6,1l-0.6-1.1l0.3-3.1l-0.2-0.6l-0.6-0.3l-1.3,0.9L313,218l-0.9-0.2l-1.5,0.3l-0.6,1.3l-1-0.6
	l-0.3,1.6l-0.8-0.8l-1.6,0.2l-0.4-1.7l-1.8-0.6l0.5-1.3l-0.8-1.1l-1.7-0.5l-1.6-1.1v-1.2l0.9-0.2l0.7-0.9v-1.3l-1.7-1.6l-0.7-0.3
	l0.3-1.2l-0.8-0.3l-0.9,0.4l-0.9-1.7l-1.2,0.1l-0.8,0.5l-2.3-0.7l-0.9-1.3l-0.3-0.9l-0.6,0.2l-0.7,0.7l-0.6,0.3l-1.3-0.1l-1.2-1
	l-0.4,1.7l-1.1-0.9l-1-0.3l-1.2-1.1l0.3-1.6l1,0.2l0.7-0.5l0.7-1.3l-0.2-1.3l-1.8-0.8l-1.5-1.6l-1.3-0.1l-0.6-1l-0.5-1.4l-0.7-1.2
	l-3.7-0.4l-1.7,1.2l-1.2-0.3l-0.8-1.6l-0.7,0.1L271,190l0.2-0.9l-0.2-1.3l-2.3,1.3l-0.6-1.6l-1.8-0.5l-0.8-0.3l-1.8-1.3l-2.6-0.1
	l-0.3-1.6v-1.1l-0.6-2l-1.8-1l-1.4-0.5v-1l0.2-1.4l-0.8-0.3l-0.7,0.8l-1.9-1.9l-1.6-1.1l0.3-2.8l-1.5-0.2l-0.9-0.4l-0.2-1.8
	l-2.9-6.5l1.2-0.7l1.1,0.5l1.5-1.4l2-1l1.4,0.8l0.7-0.3l1.3-0.3l-0.3-1.1l3.4-1.6l2.6-1.6l-0.1-1.5l0.3-2l-2.2,0.8l-2.3,0.4l0.3,1.5
	l-2,0.4l-1.4-0.9l-0.9-1.4l-1.7-0.9l0.5-2l1.7-3.3l0.8-1.3l0.5,0.1l0.4-0.8l-1.1-0.3l0.3-0.6l0.6-0.2v-0.5l-0.3-0.6l-0.6-0.5
	l-0.2-1.7l-1.1-3.4l-0.6-0.9l-0.4-0.4l-1-0.9L251,135l0.2-0.1l0.1-0.1l0.6-1.6l0.2-0.2l0.2-0.6l0.3-0.5l1.1-0.6l0.2-0.1l2-0.1
	l2.2,0.9h0.1l0.7,0.5h0.5l2.5,1l0.8,0.8l0.3,0.2v0.1l0.1,0.8l-0.1,0.1l-0.4,0.5l-0.1,0.2v0.2l0.8,0.3l0.4,0.1l0.1-0.1h0.3l0.2,0.1
	l0.7-0.1l1.7,1.7l0.1,0.1l1.9,1.4h0.3h0.6h0.3l1-0.4l2.2-2l1.4-0.4l2.6,0.3l0.9-0.5l3.2-4l0,0l0.6-0.3h0.3l0.1-0.2l0.1-0.1l0.9,1
	l-0.7-1.1l0.2-0.1l0.1-0.1l1.2-0.2l0.1,0.2l0.7,0.5l0.4,0.1l0.4-0.3l0.1-0.1l0.1-1.2l0.4-0.9l0.2-0.2l1.6-0.8l0.2-0.3l0.2-0.1
	l0.5-1.1l0.5-0.4l0.3-0.1h0.4l0.6,0.3l1.2,0.3l0.3-0.2l1.2-0.4l0.6-0.1l0.5,0.1l1.3,0.6l0.1,0.3l0.1,0.1l0.1,0.7l0.1,0.1l0.4,0.7
	l0.1,0.1l0.1,0.8l0.8,0.2h0.3l0.4-0.5l0.3-0.3l0.6-1.8l0.6-0.5l1.1-0.2h0.1l0.4-0.2l0.1-0.1l0.1-0.2l0.1-0.8l-0.1-1.9l0.4-0.9
	l0.3-0.2l0.4-0.1l0.3,0.1l0.1-0.1l-0.1-3.3v-0.2l0.3-0.3l0.6-0.2l1,0.3l0.1,0.1l1.1-0.7l0.1-0.1l1.9,1.5l0.4,1.3l-0.2,3.7l0.7,1.5h1
	l1-0.7l5.7-6l0.5-1.4l0.4-3.8l1.1-1.6l0.8-0.5l3.7-2.4l0.8-1.1l0.6-2.7l-0.1-5.1l1-2l1.8-0.8l5,4.5l0.9,0.1l0.7-0.7l1.6-0.7l0.8,0.8
	l-1.1,1.4l0.8,0.4l2.2,0.6l0.4,1.6l2.1,1.4l1.9-0.7l1.2,0.8l0.9,1.4l0.9,0.6l3.3-0.2l2.4,0.8l2.7,0.6l5.2,0.3l1,0.3l1.6,0.8l0.9,0.8
	l1,0.6l1.4,0.1l3.6-0.1l0.6,0.8l0.1,0.9l-0.6,4.1l0.4,1.2h0.9l0.6-0.5l0.6-0.2v1.2l-0.4,1.4v1.5l-0.3,2.3l-0.3,0.5l-1,0.7l-1.8,1.1
	l-1.1,3.2l-0.5,2.2l-1.2,3.3l-0.6,0.6h-1.8l-1.5-0.3l-0.6,0.8l0.6,2.1l0.8,0.2l0.5,1.1l0.1,1.1l0.6,1.2l1.2,0.5l0.3,1.1l-0.2,1
	L362,150l-1,0.5l0.2,1l-0.6,2.2l-0.7,0.9l-0.4,2v1.4l-0.4,1.6l0.9,0.2l0.5,0.6l-0.1,2.7l0.4,0.5l2.1,1.4l0.4,4.7l-0.4,1.7l0.2,1.5
	l0.6,0.5l0.5,0.7l0.8,1.7l1,2.4l0.4,1.8l-0.3,1.1l-1.1,2.1v0.8l0.2,0.8l-0.1,1.5l0.3,0.6l0.7,0.4l-0.3,3.8l-0.5,1.1l-0.1,0.8
	l0.8,0.9l0.6,1.5l0.2,0.9l-0.2,1v0.6l-0.8,0.7L362.4,198.9z"/>
<path id="D038" class="st0" d="M492.3,307.5l0.1,1.8l0.4,1l0.8,0.7h1.6l0.3,0.8l0.2,2.5l0.4,0.8l1,1.1l1.4,0.8l0.9,0.9l0.9,2.8
	l0.6,1l2,2.1l-0.8,1.4l-1.4,0.5l-0.6,0.8l-0.7,0.4l-0.8,0.7l-0.6,1l-1.5,0.9l-1.1,0.4l-2.9-2.3l-1.5-2.7l-0.9-1l-0.7-0.2l-2.2,0.8
	l-2.6-2.3l-0.8,0.2l-2,5.5l-0.9,3.7l-0.7,1.7l-1.8,0.7l-2,1.1l-0.3,0.6v0.8l1.6,3.3l0.2,1l-0.8,1.1l-0.5,1.4l1.3,1.9l0.2,1.3
	l-0.3,0.8l-2.1,1.1l-1.4-0.1l-0.7-0.4h-1.7l-0.5-1.1l-2.2-0.9l0.1-1.5l-0.5-0.8h-1.2l-1.2,1.3l-0.5-0.7l-1-3.7l-1.3,0.2l-1-0.2
	L461,339l-0.7-0.9l-0.8-0.5l-0.6-1.3l-0.8-2.9l-1.1-0.6l0.5-1.7l-0.1-1.7l-0.2-0.9v-1.6l-1.2-0.3l-0.9-0.7l-2.1,0.8l0.2,1.7
	l-0.9,0.5l-1.4-0.1l-0.7,0.5l-0.6-0.7l0.8-1.3l0.5-0.4l-0.1-0.7l-0.9-1.1l-3-2l-0.4-1.3l0.1-1.7l-0.6-1.2l-0.8,0.5l-2,2.9h-1
	l-0.7-0.8l-1-1.8l0.2-0.9l-4,1.4l-0.5-0.8l-1.1,0.4l-1.5-0.1l0.1-0.8l-0.2-1.1l-0.9-0.4l-0.7-1.7l-1.1-0.2L430,316l-0.6,0.6
	l-0.6-0.6l-0.4-0.9l-0.9-0.7l-1.2,0.1l-2-0.7l-1.6,1.2l-0.6-0.2l-0.2-1.8l-0.4-0.6v-1l-0.8-0.2l-0.4,1.3l-1.9,0.9l-0.2-1.8h-1
	l-0.7-0.4l-0.3-0.8l0.4-0.9l1.1-1.4l0.9-1.6l-0.3-1.4l1.7-2.2l0.2,0.3l-0.1,0.6l0.3,0.5h0.3l0.3-1.5l0.5-0.6l0.1-0.9l0.5-0.4
	l0.9-0.2h2.1l0.4-1.9l-0.7,0.3l-1.3,1l-0.9-0.3l-0.3-1.4l-1.9-2l-0.6,0.3l-0.7-0.1l-2.2,0.9l-0.2-0.6l-0.3-2.5l-0.6-0.9l-1-0.8
	l-1.3,0.2l-1.1-0.1l0.2,1.3l-0.4,1.1l-1.4,0.6l-1.1-0.6l-0.9-2.1l-0.7,0.1l-0.6-0.9h-0.7l-1,0.8l-1.1,0.1l-0.6-1.4l-0.3-1.3l0.1-0.5
	l3.8-2l0.9-2.1l1.7-0.7l0.5-0.3l-0.1-0.8l-0.6-1l-0.5-2l0.8-0.7l-0.3-0.8l-1.4-1.5l-0.8-1.2l-0.5-1.5l-0.4-1.8l-0.5-0.1l-0.6,1.3
	h-0.8l-1.4-4l-0.6-1.2l-1-0.2h-0.5l-0.5-0.9l-1,0.1l-0.3,0.3l-1.4-2.2h-0.5l-1.1-1.8l-0.3-0.1l-0.7-1l0.4-1.5l-0.6-0.8l-0.3-1.3
	l-0.6-1.1l-0.6,0.2l-0.3-0.6l-0.7-0.1l-0.8-0.4l-0.2-0.8l-0.7-1.2l-1.3,0.5l-0.7-2.4l0.8-0.6l0.2-1.2l-0.2-1l-0.4-1.1h-1.5v-0.9
	l-1-2.5l-0.8-0.7l-0.5-1.5l0.5-0.6l-0.2-0.7l-0.1-1.7l-1.1-0.4l-1-0.8l0.5-1.3l-0.3-1.1h-0.6l-1,0.4l-1.9-0.1l-0.5-0.8l-0.3-1.2
	l-0.3-0.4l-0.6-0.2l-0.4,0.1l0.3,1.1l-0.6-0.1l-0.5-0.4l-0.8,1.4l-0.9,0.8l-1-0.2l-1.5-1.3l-1-0.4l-0.7,0.3l-0.7,1.5l-3.3-1.1
	l-0.3-1.9l-0.4,0.1l-0.2,1.5l-0.5-0.2l-0.1-1.2l0.3-1v-1.7l0.5-2l-0.4-0.4l-1.3-0.4l-1.1-0.1l-0.1,0.6l-0.8,0.8l-0.6-0.4v-1
	l-0.6-1.8l-0.6-0.5l-1.5,0.3l-0.3,0.6l0.1,0.9l-0.2,0.9l0.2,0.7l-0.2,0.2l-0.9,0.2l0.1-0.5l-0.2-0.6l-0.4-0.5h-1.3l-0.6-0.6
	l-1.6,0.1l-0.7,0.3l-1.7-1.5l-0.9-0.6l-1.3-0.1h-0.1l0.2-1.7l1-1.5l0.5-1.3l-0.6-0.4l0.4-0.5l1.5-1.2l0.2-2.4l0.5-2.3l0.2-0.4
	l1.6-1.4l1.7-2l0.4-1l1.3-1.9l1.1-1.4l0.6-0.6l0.5-2.3l-0.1-1.2l0.2-1.7l-0.3-2.9l2-0.6l3.4-0.2l0.8-0.7v-0.6l0.2-1l-0.2-0.9
	l-0.6-1.5l-0.8-0.9l0.1-0.8l0.5-1.1l0.3-3.8l-0.7-0.4l-0.3-0.6l0.1-1.5l-0.2-0.8v-0.8l1.1-2.1l0.3-1.1l-0.4-1.8l-1-2.4l-0.8-1.7
	l-0.5-0.7l-0.6-0.5l-0.2-1.5l0.4-1.7l-0.4-4.7l-2.1-1.4l-0.4-0.5l0.1-2.7l-0.5-0.6l-0.9-0.2l0.4-1.6v-1.4l0.4-2l0.7-0.9l0.6-2.2
	l-0.2-1l1-0.5l1.9-2.7l0.2-1l-0.3-1.1l-1.2-0.5l-0.6-1.2l-0.1-1.1l-0.5-1.1l-0.8-0.2l-0.6-2.1l0.6-0.8l1.5,0.3h1.8l0.6-0.6l1.2-3.3
	l0.5-2.2l1.1-3.2l1.8-1.1l1-0.7l3.5,3.7l1.9-0.8l2.8-0.7l2.6-0.9l1.6-0.1l4.2,2.4l2.9,1.3l0.4,0.5l1.4,3.7l1.8,1.8h2.2l1.9-0.3
	l0.7,0.4l0.4,0.3l1.5,1.7l1,1.7l1.4,1.4l0.9,1.5l1.4,1.6l1.7,1.5l1.9,1.3l1.8,0.8l1.5,0.4l3.9,0.4l0.9,1.9l1.7,0.3l1,0.7l1.6,0.1
	l0.4,0.4l0.2,0.2l1.4,0.9l2.9,2.8l0.2,2.2l1.2,2.9l1.7,2.6l2.4,6.2l0.9,1.4l1.2,3.7l1,2.4l1,2.2l0.7,1.9l0.4,1.8l2.1,2.1l0.6,1
	l0.1,1.1L439,190l-1.2-0.8l-1.3-1.3l-0.7,0.2l-2.2,1.1l-0.5,0.8l-0.7-0.1l-0.5-0.3l-0.9-0.2l0.9,2.8l1,1.9l0.5,1.7l0.1,1.3l1.5,0.7
	l1.2,4.3l1.3,3.1v1.2l-0.4,0.9l0.6,0.9l0.9,0.8l0.6,3.2l0.6,1.1l0.8,2.4l-0.3,2.3l1.7,2.3l0.9,0.1l0.1-0.2l0.2,0.3l0.4,0.7l0.5,1.3
	v1.7l1.3,1.4l-0.1,1.4l0.4,1.3l-0.6,1.1l2.6,5.8l1,1.4l1.4,1.4l0.9,0.6l0.6-0.4l0.7,1.3l-0.2,1.7l0.1,0.9l1.5,2.4l2.3,4.7l0.2,0.3
	l1,1.5l0.9,1.9l1.3,2l0.9,2.2l0.3,2l0.7,1.1l1.7,2.8l0.7,1.7v3l1.2,2l0.1,1.9l1,1l0.2,1.7l1,2.3l1.2,1.5l1.5,1.2l0.6,1.6v1.6
	l1.1,1.1l0.6,2.2l-0.6,1.7l-1,1.2l-1.5,1.2l-0.8,1l0.2,4.9l0.8,2l1.4,1.2l1.8,0.3l1.4,1.3v3.6l0.4,2.8l0.8,1.7l2.3,0.5l3.6-0.1
	l1.5-0.6l1.4-1.3l3.7-0.2l2-0.3l1,2.1l1.3-0.2L492.3,307.5z"/>
<path id="D037" class="st0" d="M434,374.8l-0.8,2.2l-1.8,0.4l-1.4-0.6l-2.9-2l-1.5,0.1l-1.5,0.7l-0.4,0.8l0.1,1.3l-0.5,0.3l-0.5-0.5
	l-1.1,0.1l-0.6-0.5l-2.2-0.2l-0.7,0.9l-1.4,0.2l-2.4-1l-3.2,1.4l-0.3,0.9l-3.3,1.4l-1.3,0.1l-1.2-0.2l-1.3-0.5l-0.6-0.8l-0.6-0.5
	l-0.3-0.4l-1.1,0.1V377l-1.7-0.1l-0.4-1l-3.8,0.9l-0.4,1.3l-0.9,0.4l-2.2-0.2v1l-2,0.5l-0.8,0.9h-0.4l-1.5,0.4l-1.8,0.7l-1.2,1.1
	l-1.9,0.3l-0.9,0.4l-0.9,0.1l-1.6,0.2l-2,1.2l-3.1,0.6l-0.6,0.7l-1.4,0.5l-1.1-0.1l-0.9-0.7l-1.3,0.2l-0.4-0.6l-1.2-0.9l-1.9-0.2
	l0.1,0.4l-2.3,0.3l-1.8,0.5l-3.6,0.1l-1.5-0.4l-2.8,0.8l-3.3-1.5l-1.8-0.5l-2.1-0.2l-2-0.5l-2.3,0.2l-1.2-1.2l-2,1.7l-3.3-1.5
	l-3.3-0.7h-2.9l-8.5-2.7l-0.1-0.7l0.5-2.7l-0.8-0.2l-1.3,0.3l-0.5-2.2l0.1-2.4l-2.1-1.9l-1,0.7l-0.8-0.1l-0.6-1l-2.1-0.4h-1.4
	l-0.1,0.4l-1.4-0.7l-0.4-0.6l-0.1-1.2l-0.4-0.8l-0.6-0.2l-0.6-1.7l-2.2,0.2l-0.2-0.7l-0.4,0.1l-0.4-0.4L302,363h-0.5l-0.1-1
	l-0.7-0.9l-1,0.3h-0.9l-0.7-0.5l-0.9,0.4l-0.3-0.6h0.8l0.1-0.6l-1.2-0.6l-0.1-1.5l-0.6-0.1l-0.5,1.2l-1.9,1.6l-0.9-1.4l-1.1-0.3
	l-1.1,0.1l-0.6-0.7v-1.2l-0.7,0.1l-0.7,0.1l-1.4,0.8l-0.7,0.1l-0.9-0.6l-0.2-1.5l-0.7,0.1l0.4-0.9l0.6-2.7l-1.5-0.4l-2.8-1.5
	l-0.7,0.3l-0.8-0.2l-0.4-0.8l0.2-1.5v-2.4l1.2-2l0.7,0.4h0.6l0.5,0.3l2.3-0.2l1.7-1.5h0.9l0.8-2.2l1-0.5l2.4,0.2l0.5,0.6l2-0.3
	l1.4,0.4l2,0.1l1.8-0.5l0.1-1.3l0.4-1.1l0.7-1.2l1.4-0.8l1.6-0.1l1.3,1.3l1,1.3l0.6,1.5l0.1,2.9l0.7,0.6l1.2,0.1l2.4-0.2l1.8,0.9
	l1,0.3l0.4-0.3l0.6-1.3l0.1-1l-0.6-0.3v-0.9l0.5-0.9l-0.5-1.1v-1.2l0.7-2l1.7,0.5l0.8-0.5l0.5-1.5l0.9-0.1l0.6-2.9h0.7l0.4-0.4
	l1.9,0.2l0.8-0.4l0.3-0.8l0.6-0.9l1.2-0.2l0.6-1l0.2-0.9l0.5-0.2v-0.5l0.7-1l3.5,1.4v-0.9l-0.4-0.6l-0.2-0.9l0.8-0.8l0.8,0.4
	l0.2,0.9l1.8,0.2l0.2-1.1l1.2-1.7l1.2-0.1l1-0.3l0.6,0.4l1-0.1l0.7-0.5l0.9-0.1l0.3,0.7l-0.6,0.9l0.2,1l0.5,0.6l-0.1,1l0.1,0.5
	l1.5-0.3l0.1-1l0.5-1.2l0.7-0.8h0.8l1.2,1l0.2,0.5l1.2-0.4l5.1-7.7l-3.2-1.8l-3-1.4l0.8-3l0.1-1.2l-1.7-2.8l3.4-1.5l3.3-0.3l0.7-1.1
	l1.1-4.1l0.5-5.1l-0.4-0.6l-1.5,1.1l-1.7-0.1l-1.1-1.9l6.1-0.7l0.6-3l-4-2.7l-0.5,2.4l-2.1,1l-4.1-0.3l-0.9-1.9l1.6-2.9l-2.6-2
	l0.4-2.7l1.6-2l1.4,0.7l0.5-0.6l-1.5-3.3l2.1,0.4l1.1-0.2l-0.5-1.3l-3.1-5.7l-1.3-2.4l0.1-2.3l2.6-0.8l3.6,0.5l0.1,0.5l0.7,0.8
	l1.8,0.1l1.1,2.7l3.1,2.6l1.2-1.5l-1.7-2.2l1.5-1.2l-0.6-2.6l0.1-2.6l-0.3-3.4l2.5-0.1l0.7,1.1l1.7-0.9l0.1-1l-1.5-2.7l-1.2-1.1
	l0.6-1l1.4-0.1l1.9,0.9l0.7,1.1l1.3-0.7l2.4-0.6l-0.3-0.8l0.3-2.6l0.6-1l2.4,1.2l0.4-0.7l0.3-1.5h0.2l-1.3-2.2l0.3-1.8l-0.7-2.6
	l0.7-1.5l0.7-0.3l1,0.4l1.5,1.3l1,0.2l0.9-0.8l0.8-1.4l0.5,0.4l0.6,0.1l-0.3-1.1l0.4-0.1l0.6,0.2l0.3,0.4l0.3,1.2l0.5,0.8l1.9,0.1
	l1-0.4h0.6l0.3,1.1l-0.5,1.3l1,0.8l1.1,0.4l0.1,1.7l0.2,0.7l-0.5,0.6l0.5,1.5l0.8,0.7l1,2.5v0.9h1.5l0.4,1.1l0.2,1l-0.2,1.2
	l-0.8,0.6l0.7,2.4l1.3-0.5l0.7,1.2l0.2,0.8l0.8,0.4l0.7,0.1l0.3,0.6l0.6-0.2l0.6,1.1l0.3,1.3l0.6,0.8l-0.4,1.5l0.7,1l0.3,0.1
	l1.1,1.8h0.5l1.4,2.2l0.3-0.3l1-0.1l0.5,0.9h0.5l1,0.2l0.6,1.2l1.4,4h0.8l0.6-1.3l0.5,0.1l0.4,1.8l0.5,1.5l0.8,1.2l1.4,1.5l0.3,0.8
	l-0.8,0.7l0.5,2l0.6,1l0.1,0.8l-0.5,0.3l-1.7,0.7l-0.9,2.1l-3.8,2l-0.1,0.5l0.3,1.3l0.6,1.4l-0.1,1.6l-2.3,2h-1l-0.6,0.6l-0.5,1.3
	v1.2l-0.4,0.9l-0.2,1.8l-0.6,0.4l-1.3-0.3l-0.6,0.5l-1,0.5l-0.1-1l-0.4-0.8l-0.6-0.8l-0.3-0.9l-0.5-0.7l-1-0.7l-1.1-0.1L391,298
	l-1.9,0.4l0.7,0.9l1.3,2.3l1.1,1.3l0.8,1.4l-0.5,1.5l-0.8-0.2l-5.2-0.6l-0.4,1.6l0.4,1.3l0.9,1.1l1,0.8l1,2.5l-0.5,0.1l-0.4,0.6
	l-0.8-0.3l-1.5-1.2l-1-0.5v0.9l-0.6,0.7l0.1,0.6l-0.4,3.3l1.2,1.2l-0.5,1.8l0.3,1l-0.9,0.5l-0.1,0.4l1,1.1l-1.1-0.1l-0.2,1.2
	l0.1,0.5l0.6,1l1.4,0.4l1.6-1.1l0.7-2.1l0.5-0.2l1,1.6l1.2,4.1l-0.5,1.5l-0.8-0.1l-0.8,0.9l-1.5,0.1l-0.3,2.5l-0.5,1.1l1.8,2v1.4
	l-0.2,1.5l1,1l0.1,0.8l0.7,0.6l2.6,0.4l0.8-0.5l2,0.8l1-0.2l1.8,0.4l1.2-0.3l0.7,0.6l1.1,0.1l1.3-1.1l-0.1-2.7l-0.3-1.3l0.2-1.5
	l0.6-1.5l1.3-0.6l3.4,1.3l0.7,0.8l1.5-0.3l1.3,1.2l1.4,0.4l1.1-0.2l1,0.2l0.9,0.5l0.1,1.4l1.2,0.4l1.2,1.1l0.7,1l0.8,0.6l1.1-0.8
	l0.8-0.2l-0.5,3.5l1.2,0.8l0.4-1.8l1.1,0.2l-0.2,1.8l0.2,1.7l0.1,1.8l2.1,5.1l0.9,0.8l-0.6,1.1l-0.3,1l2.7,1l0.5,3.6l0.4,0.5
	l-0.3,1.9l0.2,1.1l1.5,0.5l0.6,0.6l-0.3,1.1l1,5l0.9,2.6L434,374.8z"/>
<path id="D036" class="st0" d="M422.5,315l0.8,1.4l0.3,0.8l1.7,0.2l0.6,0.7l-0.9,1.1l-0.6,0.5l-1.8,0.2l-0.5,1.3l-1.1,0.4l-1.2,1
	l-0.9-0.4l0.3-1l-0.1-2.2l0.7-0.5l0.1-1.4l-0.7-1.5l-0.8-0.5l-0.9-0.1l-1.1-0.7l-0.3-0.9l-2.1-0.1l-0.4,1.5l1.1,3.3l1,0.8l0.2,1.5
	l0.5,1.2l0.5,0.7l-0.1,2.4l-0.6,0.3l-0.6-0.3l-1.1,0.7l-2.6,1l-0.9,1.1l-2,0.2l-1.2,0.7l-1.3,1.1l-0.5,1l-1.7,1.3l0.5,1.4l-1.3,0.6
	l-0.6,1.5l-0.2,1.5l0.3,1.3l0.1,2.7l-1.3,1.1l-1.1-0.1l-0.7-0.6l-1.2,0.3l-1.8-0.4l-1,0.2l-2-0.8l-0.8,0.5l-2.6-0.4l-0.7-0.6
	l-0.1-0.8l-1-1l0.2-1.5v-1.4l-1.8-2l0.5-1.1l0.3-2.5l1.5-0.1l0.8-0.9l0.8,0.1l0.5-1.5l-1.2-4.1l-1-1.6l-0.5,0.2l-0.7,2.1l-1.6,1.1
	l-1.4-0.4l-0.6-1l-0.1-0.5l0.2-1.2l1.1,0.1l-1-1.1l0.1-0.4l0.9-0.5l-0.3-1l0.5-1.8l-1.2-1.2l0.4-3.3l-0.1-0.6l0.6-0.7v-0.9l1,0.5
	l1.5,1.2l0.8,0.3l0.4-0.6l0.5-0.1l-1-2.5l-1-0.8l-0.9-1.1l-0.4-1.3l0.4-1.6l5.2,0.6l0.8,0.2l0.5-1.5l-0.8-1.4l-1.1-1.3l-1.3-2.3
	l-0.7-0.9l1.9-0.4l0.8,0.4l1.1,0.1l1,0.7l0.5,0.7l0.3,0.9l0.6,0.8l0.4,0.8l0.1,1l1-0.5l0.6-0.5l1.3,0.3l0.6-0.4l0.2-1.8l0.4-0.9
	v-1.2l0.5-1.3l0.6-0.6h1l2.3-2l0.1-1.6l1.1-0.1l1-0.8h0.7l0.6,0.9l0.7-0.1l0.9,2.1l1.1,0.6l1.4-0.6l0.4-1.1l-0.2-1.3l1.1,0.1
	l1.3-0.2l1,0.8l0.6,0.9l0.3,2.5l0.2,0.6l2.2-0.9l0.7,0.1l0.6-0.3l1.9,2l0.3,1.4l0.9,0.3l1.3-1l0.7-0.3l-0.4,1.9h-2.1l-0.9,0.2
	l-0.5,0.4l-0.1,0.9l-0.5,0.6l-0.3,1.5h-0.3l-0.3-0.5l0.1-0.6l-0.2-0.3l-1.7,2.2l0.3,1.4l-0.9,1.6l-1.1,1.4l-0.4,0.9l0.3,0.8l0.7,0.4
	h1l0.2,1.8l1.9-0.9l0.4-1.3l0.8,0.2v1l0.4,0.6l0.2,1.8L422.5,315z M279.6,346l-1.2-0.5l-1.4-1.4l-1,0.1l-0.6-0.2l0.2-1l-0.1-0.5
	l-1-0.4l-1-0.1l-0.4,0.5l-0.2,0.6l-2,0.1l-0.2,2l-1.1-0.4l-0.2,0.9h-1.3l-0.2,0.2l1.1,2.4l0.1,1.4l-0.5,1.3l-0.6,0.6l-0.5-0.3
	l-0.8-1.1l-0.4,0.4l-2.5-2.7l-6.1-3.2l3.6-1l3.3-1.2l1.3-1.7l0.3-1.1l1.5-0.5h0.9l1.7-1.7l2.3-1.8l2.7-1l0.6-1.3l-0.3-0.4l0.1-0.7
	l0.7-1.2l0.8-0.8l0.3-1.4v-1.8h-0.8l2.1-3.2l1.9-2.3v-1.8l-0.1-1.2l0.5-1.3l-0.3-0.3l0.4-1.1l1-0.6l1.4-0.3l1-0.5l-1.8-1.3l1-2.6
	l2-3.6l-0.5-1.4l1.3-0.6l0.8-0.2l2.3,1.9l2.2-2.5l-0.4-2.1l0.3-0.7l3.7-5.1l1-1.6l-1.6,0.5l-0.6-0.7l0.6-4.2l0.5,0.1l0.8,0.7
	l2.3-4.1l-0.3-0.6V286l0.4-0.6l1-1l0.5,0.6l0.4-0.7l-0.4-0.8l-0.6-0.6l-0.3-0.9l0.8-3.2l0.6-0.9l1.4-0.6l1.3,0.1l1,3.4l1.9-0.2
	l0.6-4.4l1.2-4.1l0.9,0.8l0.6,0.2l0.7-1.6l2.1-3.1l1.8-1.4l1.3-0.2l0.7,0.1l0.3-0.2l2.2-4.7l3.7-6l-0.1-0.8l0.3-0.5l-0.2-1.1l3-2.9
	l1-1.2l0.6,0.1l5.3-5.4l0.9-0.4l1.3-0.2l1.1,0.2l0.7-0.1l0.4-1.6l0.7-1.3l0.6-0.3l0.9-0.9l0.3-1.4l0.2-1.6h0.5l-0.2-1.2l0.5-1.3
	l0.7-0.9l0.8-0.6l0.6,0.6l6-1.7l0.4-2.7l0.9-1.2l1.3,0.1l0.9,0.6l1.7,1.5l0.7-0.3l1.6-0.1l0.6,0.6h1.3l0.4,0.5l0.2,0.6l-0.1,0.5
	l0.9-0.2l0.2-0.2l-0.2-0.7l0.2-0.9l-0.1-0.9l0.3-0.6l1.5-0.3l0.6,0.5l0.6,1.8v1l0.6,0.4l0.8-0.8l0.1-0.6l1.1,0.1l1.3,0.4l0.4,0.4
	l-0.5,2v1.7l-0.3,1l0.1,1.2l0.5,0.2l0.2-1.5l0.4-0.1l0.3,1.9l3.3,1.1l0.7,2.6l-0.3,1.8l1.3,2.2h-0.2l-0.3,1.5l-0.4,0.7l-2.4-1.2
	l-0.6,1l-0.3,2.6l0.3,0.8l-2.4,0.6l-1.3,0.7l-0.7-1.1l-1.9-0.9l-1.4,0.1l-0.6,1l1.2,1.1l1.5,2.7l-0.1,1l-1.7,0.9l-0.7-1.1l-2.5,0.1
	l0.3,3.4l-0.1,2.6l0.6,2.6l-1.5,1.2l1.7,2.2l-1.2,1.5l-3.1-2.6l-1.1-2.7l-1.8-0.1l-0.7-0.8l-0.1-0.5l-3.6-0.5l-2.6,0.8l-0.1,2.3
	l1.3,2.4l3.1,5.7l0.5,1.3l-1.1,0.2l-2.1-0.4l1.5,3.3l-0.5,0.6l-1.4-0.7l-1.6,2l-0.4,2.7l2.6,2l-1.6,2.9l0.9,1.9l4.1,0.3l2.1-1
	l0.5-2.4l4,2.7l-0.6,3l-6.1,0.7l1.1,1.9l1.7,0.1l1.5-1.1l0.4,0.6l-0.5,5.1l-1.1,4.1l-0.7,1.1l-3.3,0.3l-3.4,1.5l1.7,2.8l-0.1,1.2
	l-0.8,3l3,1.4l3.2,1.8l-5.1,7.7l-1.2,0.4l-0.2-0.5l-1.2-1h-0.8l-0.7,0.8l-0.5,1.2l-0.1,1l-1.5,0.3l-0.1-0.5l0.1-1l-0.5-0.6l-0.2-1
	l0.6-0.9l-0.3-0.7l-0.9,0.1L339,322l-1,0.1l-0.6-0.4l-1,0.3l-1.2,0.1l-1.2,1.7l-0.2,1.1l-1.8-0.2l-0.2-0.9l-0.8-0.4l-0.8,0.8
	l0.2,0.9l0.4,0.6v0.9l-3.5-1.4l-0.7,1v0.5L326,327l-0.2,0.9l-0.6,1l-1.2,0.2l-0.6,0.9l-0.3,0.8l-0.8,0.4l-1.9-0.2l-0.4,0.4h-0.7
	l-0.6,2.9l-0.9,0.1l-0.5,1.5l-0.8,0.5l-1.7-0.5l-0.7,2v1.2l0.5,1.1l-0.5,0.9v0.9l0.6,0.3l-0.1,1l-0.6,1.3l-0.4,0.3l-1-0.3l-1.8-0.9
	l-2.4,0.2l-1.2-0.1l-0.7-0.6l-0.1-2.9l-0.6-1.5l-1-1.3l-1.3-1.3l-1.6,0.1l-1.4,0.8l-0.7,1.2l-0.4,1.1l-0.1,1.3l-1.8,0.5l-2-0.1
	l-1.4-0.4l-2,0.3l-0.5-0.6l-2.4-0.2l-1,0.5l-0.8,2.2h-0.9l-1.7,1.5l-2.3,0.2l-0.5-0.3h-0.6l-0.7-0.4L279.6,346z"/>
<path id="D041" class="st0" d="M456.2,481.3l-1.2-0.6l-0.9,0.1l-0.5-0.5l-0.5-0.8l0.3-2.4l-0.5-0.5l-0.5,0.4l-0.6,0.3l-2.4-1.7
	l-1.4-0.2l-0.4-0.5l-0.6-2.4l0.1-1l-0.1-0.8l-0.3-0.4v-1l-0.4-0.3l-3,0.6l-0.7,0.3l-0.6,2l-0.6,0.4l-1.4,0.6h-0.8l-0.6,0.3l-1.5,1.2
	l-2.1,1l-0.4,0.6l-0.5,2.1l-1.2,1l-1.4,0.6l-0.8,0.1l-1.6-1.6l-0.3-2.4l-0.6-0.5l0.3-0.6l1-1l-0.9-2.3l-1.2-0.8l-1.2,0.1l-1.1,1
	l-1.7-0.3l-1-1V468l-1.7-1.1l-0.8-1.1l0.1-1.9l3.5-1.9l0.2-1.8l-0.5-1.4l-1.5-0.9l-0.4-1V456l-0.6-0.8l-1.5-0.3l-2.3,1.5l-1-0.1
	l-1.8-3.7l-1.2-0.3l-0.3,0.6l-1.5,1.5l-0.4,2.2l-1,1.2l-1.7-0.1l-1.7,0.5l-1.1,0.7l-1,0.1l0.2-1.1l-0.4-1.7l-1.2-0.2h-1.3l-0.8,1.5
	v2.2l1.7-0.4l0.6,2.7l0.3,0.7l3.3,2.7L406,466l-1.3,1.3l-0.6-0.1l-0.8-1.3l-2.7-1.3l-0.6-0.7l-0.4,0.7l-1.4,0.9l-2,0.4l-0.3,0.5
	l-0.8,2l-0.5,0.5l-0.7-0.5l-0.9-2l-2-3.2l-1.4,0.8h-1.2l-0.3-0.3l-0.9-1.9l-0.4-0.9h-3l-2.5,3.4l-0.1,0.2h-1.4l-0.3,0.3l-0.2,0.5
	v0.6l-0.2,0.9l-0.3,0.5l-1.1,0.6l-0.4,0.9l-1.1,0.6l-0.9-1.4l-0.3-0.2l-1.1-0.3l-0.7,0.2l-1.4,0.9l-1,0.3L369,467l-1.2,0.5l-0.9-0.7
	l-0.6-0.8l-1.5-0.6l-0.5-0.4h-1.2l-0.5,1l-0.4,1.5v1.3l1-0.2l0.9-0.4l0.4,1.5l-0.8,2.3l-1.2,1.7l-1.2,0.4l-0.9-1.4l-0.2-1.4
	l-0.3-1.2l-0.5-0.3l-1.5,1.4l-0.4,1.9l-1.2,0.1l-1.7-0.6l-1.1,0.6l-1.5-0.3l-1.4-0.6l-1.5-0.3l-0.4-0.4l-0.4,0.3l-0.2,0.8l-0.3,0.3
	l-1.1-0.4L346,473l-0.5,1l-0.4,0.5l-0.7-0.1l-0.4-0.3l-0.5,0.6l-1.3,0.6l-0.1,1l-0.6,0.3l-0.5-0.3l-0.9-0.1l-2,0.6l-1.5-2l0.3-1.8
	l0.6-1.7v-1.5l-0.5-0.9l-0.9-1l-0.2-1.1l-2.4,0.9l-0.6-0.1l-0.1-0.9l0.3-1.9l-1-3.3l1-2l0.4-1.5l-0.3-2.6l-0.4-0.7l-0.8-0.9
	l-0.2-1.6l0.3-2l-0.3-2l0.3-0.8h1.4l0.5-0.3l0.4-0.7l0.2-0.6l0.1-1.4l-0.9-0.3l-0.9-1.7v-1.1l0.6-0.8l-0.5-2.3l0.6-1l0.5-1.7v-2.1
	l0.8-1.6l0.6-1.7l0.2-2.1l0.7-2.7l-0.1-1.2l-0.7-0.6l-1.1-0.5l-1.4-1.7l-1.1-4.4l0.2-1.7l0.3-1l-0.1-1.4l2.1-1l0.4-0.6l1.7-1.8
	l0.4-2l0.4-1.1l0.8-1.1V404l-1.2-1l-1-2.4l-0.2-0.2l-2.7-0.6l0.6-2.1v-1l-0.3-1h-0.7l-0.3,0.4l-0.5-0.3l-0.2-2.5l-0.8-0.2l-0.1-2.8
	l-0.5-1l0.1-1l0.6-1.4l-0.2-1.4l-1.8-3.7h2.9l3.3,0.7l3.3,1.5l2-1.7l1.2,1.2l2.3-0.2l2,0.5l2.1,0.2l1.8,0.5l3.3,1.5l2.8-0.8l1.5,0.4
	l3.6-0.1l1.8-0.5l2.3-0.3l0.2-0.5l1.9,0.2l1.2,0.9l0.4,0.6l1.3-0.2l0.9,0.7l1.1,0.1l1.4-0.5l0.6-0.7l3.1-0.6l2-1.2l1.6-0.2l0.9-0.1
	l0.9-0.4l1.9-0.3l1.2-1.1l1.8-0.7l1.5-0.4h0.4l0.8-0.9l2-0.5v-1l2.2,0.2l0.9-0.4l0.4-1.3l3.8-0.9l0.4,1l1.7,0.1v1.5l1.1-0.1l0.3,0.4
	l0.6,0.5l0.6,0.8l1.3,0.5l1.2,0.2l1.3-0.1l3.3-1.4l0.3-0.9l3.2-1.4l2.4,1l1.4-0.2l0.7-0.9l2.2,0.2l0.6,0.5l1.1-0.1l0.5,0.5l0.5-0.3
	l-0.1-1.3l0.4-0.8l1.5-0.7l1.5-0.1l2.9,2l1.4,0.6l1.8-0.4l0.8-2.2l0.2,0.1l2,0.7l2.2,1l1.5,0.3l0.2,1.3l-0.3,1l0.8,1.3l0.8,1.4
	l1.3-1.6l1.5,0.2l3.8-0.3l1.8,0.1l1.5-0.4l3.6,0.4l1.7,0.4l1.5,0.7l0.6,0.6l0.6,0.2l2-0.1l3.6,0.3l1.1-0.2l1.5-0.8l2.8-0.6l1.7-0.8
	l0.8,0.7l0.9,0.2l0.3-0.9l-0.7-1l1.7-0.5l2.4-0.8l1.1-0.1l0.8,1.3v0.4l2.2,0.2l1.9-0.1l1.5,0.9l1.2-0.2l0.8,1l1,2.1l0.7,0.5l0.5,0.2
	l2.7-0.2l0.4-0.3v-1.4l3.1-0.6h0.1l0.6,0.3l0.4,1.3l0.4,7.4l0.7,2.7l0.3,2.1l-0.4,0.6l-1,0.7l0.2,1.3l0.6,1.1l0.1,8.6l0.4-0.1
	l-0.1,1.7l-0.4,0.6l-1.6-1h-3l-1,1.6l-1,2.5l-0.2,3.1l-0.7,4.7l-1.1,4.2l-2,3.8l-1.4,2.4l0.1,0.1l-0.6,1.3l-0.1,0.4l1.5,3.3l1.1,1.5
	v2.1l0.3,0.6l0.5,0.3l0.3,0.9l0.6,1.1l1.3,1.8l1.5,1.7l1.1-0.5l0.8-1l2-1.4l0.9,1.1l1.6,2.9l0.6-0.8l0.5-0.3l1.1-0.2l0.8,0.2
	l0.5,0.5l0.5,1.4l-0.3,0.8l0.3,2l-0.1,0.2l-0.6,1.8l-0.1,1.2l-0.8,0.9l-0.6,0.3l-1.2,1.9l-1.1,0.9l-1.1,0.1l-2-1.1l-0.7-1.7l0.1-0.6
	l-0.8-0.5l-2.9-0.3l-0.6,0.8l-1,0.6l-1.3,0.1l-1.1-0.4l-0.8-0.8l-1.3,0.2l-1.1-0.3l-0.7-0.8l-0.3-1l-0.2-0.2h-1.6l-1.1,1l-0.5,1.5
	l-0.4,0.3L478,455l-1.2,0.2l-0.5-0.1l-2.2,1.8l-0.7-1.1l0.1-1.5l-0.5-0.5l-1,0.3l-0.5,0.9l0.1,1.1l-0.1,0.9l-0.7,1.2l-0.9,0.8
	l-1.4,0.6l-0.2,0.2l-0.1,3.2l-0.1,0.3l-2.7,1.2l-1.1,0.7l-0.7,1.3l0.1,0.6l-1.9,1.9l1.2,2.3l-0.4,1l0.7,0.7l-0.7,0.9l-1.2,0.7
	l-0.3,1.2l0.3,1.3l-0.3,0.5l-0.6,0.4l-0.1,3l-1.1,0.5l-0.9-0.4l-0.7-1.1l-0.5-0.1L456.2,481.3z"/>
<path id="D047" class="st0" d="M329.8,692.5h-0.3l-0.9-0.8l-2-2.4h-1.3l-0.9,0.4l-0.3,2.3l-0.8,2.8l-0.7,3.8l-1.1,1.3l-2.3,1.7
	l-1.3,2.3v1.6l2.3,1.3l1.5,1.3l0.4,0.8l0.1,1.1l-0.3,1.1l-1.2,2.6l-0.9,1.5l-2.7,0.2l-1.3,0.4l-2.3,1.2l-2.9,0.6l-2.6,1.3l0.1-0.9
	l0.7-2l-1.1-2.7l-0.7-1.9l-1.2-0.9l1.4-2.4l0.7-1.5l-0.3-1.8l-3.8-3.8h-2.6l-2-1.8l-0.2-2l0.1-2.5l-0.8-1.1l-1-0.9l-0.9-1.1l0.2-1.6
	l1.6-0.9l1.3-1.1l0.8-0.1l1.6-0.6l1.1-1.6l0.4-2l-0.9-0.7l-0.7-1l-0.2-1.9l1.1-3.1l0.8-1.3l1.4-1l0.8,1l1,0.2l0.8-0.7l1.7-4.4
	l-0.6-0.9l-0.7-1.7l-1.1-1.9l-0.1-2l-0.7-1.5l-1.2-0.8l-1.3-1.5l-0.3-2.1l0.2-1.9l0.8-1.8l-0.3-2l-2.2-1.1l-1.1-1l-0.7,0.4l-0.4-1.5
	l0.1-0.9l1.4-1.2l3.6-1.6v-1.4l-0.5-3.6l-2.4-1.9l-2.5,0.9l-0.7-6.3l-2-3.2l1.7-2.9l-0.2-1.3l0.8-0.8l-0.3-0.6l0.5-4.6l1.4-2.1
	l0.5,1l0.5-0.8l1.3,0.1l0.1,1.3l0.7,0.3l0.5,1.3l1.6-0.6l2.2,2.1l2.4-2.9l0.5-2.2l0.4-0.3l1.3,1.2l2.4,1.1l1.1-1.7l0.1-1.2l-0.8-1.7
	l0.5-2.5l2.1-1.6l0.4-0.7l0.8-0.8l0.8-0.3v-1.6l-1.4,0.6l-0.8-0.8l-0.5,1.3l-0.6,0.5l-0.7,0.1l-1-0.2h-1.9l-0.6-0.4l-0.4-2.7
	l-0.8-1.9l0.1-0.9l0.9-0.9l2.2-1.2l0.6-0.5l0.3-1.5l-0.3-0.6l-0.7,0.3l-0.7,1.1l-0.5-0.1l-0.4-0.3l-0.2-0.7l0.3-4.6l-0.2-1.3
	l-0.2-3.4l0.6-1.7l1.2-0.7l1,0.6h1l0.7-0.8l1.3-1.1l-0.1,0.2l0.9,0.2l0.6,1.1h0.4l1.5-0.8l0.8-0.2l1.6-2.1l0.5,0.2l1-0.6l0.7-1.2
	l0.9-0.5l0.4,0.3l2-2.5l-1.4-0.6l-0.2-3.2l0.4-0.8l1.7-1.7l1-1.4l-0.2-0.8l-0.6-0.7l-0.4-0.9l0.1-0.8l0.8-0.7l1.4-2.4v0.4h0.4
	l2.8-2.7l0.9,0.3l0.4,0.9l-0.3,0.9l1.2,1.1l1.2,0.6l1.5,1.3l1.7,0.3l3.6-1.7l2.8-0.6l2.4,2.3l0.7,1l1.5,2.9l0.4,2.2l0.4,0.8l0.9,1.6
	l1.2,1.1l0.7,0.4l2.8,0.9l0.8-0.6l0.4-0.9l0.7-0.5l1.4,2.2l0.6,0.3l0.6-0.1l0.7-1.1l0.8-0.8l0.8-0.5l2.2,1.1l0.1,0.4l2.6,0.8h1.1
	l0.9,0.8l3.2-1.9l0.4,0.1l0.6,1.1l-0.4,1.3l1.9,3.7l1.2,1l1-0.2l0.4-0.4l0.5,0.8l-0.8,1.4l-1.2,0.5L378,591l-0.9,0.4l-0.4,1.9
	l1.8,1.7l-0.3,0.7l0.1,0.8l0.7,0.2l0.2,0.3l-0.2,3.3l-0.3,0.7v0.7l0.6,0.7l0.3,0.7l-0.3,1.1l-0.1,0.9l0.9,1.1l0.7,0.5l0.4-0.4
	l0.1-0.9l0.4-0.9l0.4-0.6l0.4-0.2l1.4,0.2l0.4-0.1l0.4-0.6l0.7-0.4l0.8,0.2l-0.1,0.6l-0.6,1v0.4l0.8,1.3l0.3,0.2l0.8,0.1l0.1,1.3
	l0.3,0.8l-0.1,1.6l-0.3-0.1l-0.5,0.3l-0.5,1.4l-0.2,0.3l-0.4,0.8l-0.4-0.8l-1.8,1.9l-2,1.4l-0.5,0.6l1.1,1.2l-0.9,2.6l-1.3,3.2
	l-1,3.9l0.7-0.3l0.9-0.3l0.8,2l0.7-0.5l1.5,1l0.2,0.5v1.1l0.4,0.7l-0.1,1l0.5,0.9l2.5-0.3l3-1.9l0.5-1.9l0.2-1.7l1.8,0.6l2.4-0.5
	l0.3,0.7l0.6,1.3l1.6,1.6l1.8,1l1.6-1.1l-0.1,2.4l0.8,2.5l-1.9,1.2l0.3,2.2l0.2,0.9l0.3,1.2l-0.2,0.4l-1.1,2.6l2.9,1.4l0.4,0.5
	l-0.9,1.2l0.2,0.8l0.1,0.5l0.2,1.6l-1.3,1.4l-0.7,0.2l-1.3,0.3l-0.9,0.4l-0.9,1.2l-1.6,2.6l-2.8-0.2l-0.7,0.8l-1.5,12.5l-1.8,0.8
	l-1.6-1.2l-2.1-3.6l-1.7-0.8L382,665l-1.5,0.8l-2.7-0.5l-0.3,1.5l-0.2,3.1l-1.6,1.7l-2.2-0.2l-1.4-0.4l-4.2,1.5l-1-0.4l-1.2-5
	l-2.1-1.4l-2.4-0.2l-1.1,1.3l-2.1,1.7l-0.9-3.3l-1.4-0.9l-9.5-7l-1.5,2.1l1.3,1.1l0.1,1.9l-1.6,1.4l-1.3,0.5l-1.3,0.8l-1.7-0.2
	l-2.2,3.3l-0.1,2.9l-1,2.3L336,675l-0.3,1.6l0.2,1.6l-0.8,2.1l-1.5-0.4h-1.4l-0.6,1.7l-1,0.3l-2,2.2l-1,0.3l-0.3,1.4l2.1,3.9
	l0.6,1.3l0.2,1.5L329.8,692.5z"/>
<path id="D042" class="st0" d="M318,493.8l-1.3,0.5h-0.6l-2.1-1.8l-0.6-0.9l-1.1-0.3L312,492l-1.3,0.6l-0.8,0.1l-2.1,0.9l-2.2,0.5
	l-2-1.6l-0.9,2.1l-1.4-0.9l-0.7,0.7l-1,0.2l-0.6-0.5l-0.3-2.1v-4.6l-0.7-3.8l-0.7-2.1l-1.1-2.1l-0.9-1.2l-2.3-0.9h-0.7l-1,0.5l-3,4
	l-0.3,2.1l1.3,3.1l0.5,1.9l-0.3,2H288l-2,0.5l-2.8-1.4l-1.6-0.5l-0.8,0.9l-1.5,2.7l-1.8,2.4l-1.2,0.8h-1.5l-0.5-0.7l-1.3-0.4
	l-0.9,1.5l-1.7,1.7l-2.2,0.5h-1.5l-1-0.9l-0.5-1.1l0.2-3.9l-0.3-1.2l0.1-1.4l0.9-2.2l-0.5-1l-0.4-1.2l-2.2,0.1l-2.6-2.7l-0.1-1.1
	l-0.5-0.5l-0.6,0.2l-2.1-2.1l-2.7,3.7l-0.6,1.3l0.9,0.9l-0.9,1.3l-2.3-1.4l-1.8-0.8l0.3-3.6l1.1-3.7l0.8-1.1l3.7-0.8l2.8-0.3
	l0.2-0.8l-0.5-0.7l-0.5-1.2l-0.2-0.9v-2l0.1-1.3l0.4-1.3l0.4-2.3l-0.5-2.1l0.9-2.1l0.2-1.1l-0.4-4.1l-0.7,0.1l-0.5-0.4l-0.7-0.1
	l-1.1,0.1l-2.5-0.5v-1.3l-0.2-0.7l-0.9,1.4h-0.5l-1-3.7l-0.6-1.3v-1.2l1.2-4.3l-0.3-2.5l0.4-0.9l0.1-0.8l-0.2-0.9l0.5-0.1l-0.7-1.1
	l-0.3-0.9l0.3-1.3l0.6-1.3l-0.4-1.1l0.7-0.4l0.1-1.3l1.1-1.2l0.4,0.3l0.7-1.1l-0.3-1l0.2-2.5l1.8-3.1l1.2-1.7l0.4-1.4l-0.6-1.5
	l0.3-2.5l0.5-2.1l-0.5-1.4l-0.3-1.5l-0.1-2.2l1.2-1.7l0.5-1.6l0.8,0.2l0.8-0.5l2.2-0.2l3-0.9l1-1.2h0.1l1.3-2.7l3.1-3.1l4.6-1.6
	l1.8-1.9l1.1-2.8v-6.7l-0.3-3.6l-1.8-1.5l-2-0.7l-0.9-1.5v-1.9l0.7-1.8l1.9,0.3l2.1,1.9l1.2-0.1l1-2.4l1.1-1l1.5-0.3l1-1.6l1.7-2.8
	l2.2-3.4l1-2.8l0.2-3l0.7-0.1v1.2l0.6,0.7l1.1-0.1l1.1,0.3l0.9,1.4l1.9-1.6l0.5-1.2l0.6,0.1l0.1,1.5l1.2,0.6l-0.1,0.6h-0.8l0.3,0.6
	l0.9-0.4l0.7,0.5h0.9l1-0.3l0.7,0.9l0.1,1h0.5l1.6,0.6l0.4,0.4l0.4-0.1l0.2,0.7l2.2-0.2l0.6,1.7l0.6,0.2l0.4,0.8l0.1,1.2l0.4,0.6
	l1.4,0.7l0.1-0.4h1.4l2.1,0.4l0.6,1l0.8,0.1l1-0.7l2.1,1.9l-0.1,2.4l0.5,2.2l1.3-0.3l0.8,0.2L320,379l0.1,0.7l8.5,2.7l1.8,3.7
	l0.2,1.4l-0.6,1.4l-0.1,1l0.5,1l0.1,2.8l0.8,0.2l0.2,2.5l0.5,0.3l0.3-0.4h0.7l0.3,1v1l-0.6,2.1l2.7,0.6l0.2,0.2l1,2.4l1.2,1v1.2
	l-0.8,1.1l-0.4,1.1l-0.4,2l-1.7,1.8l-0.4,0.6l-2.1,1l0.1,1.4l-0.3,1l-0.2,1.7l1.1,4.4l1.4,1.7l1.1,0.5l0.7,0.6l0.1,1.2l-0.7,2.7
	l-0.2,2.1l-0.6,1.7l-0.8,1.6v2.1l-0.5,1.7l-0.6,1l0.5,2.3l-0.6,0.8v1.1l0.9,1.7l0.9,0.3l-0.1,1.4L334,447l-0.4,0.7l-0.5,0.3h-1.4
	l-0.3,0.8l0.3,2l-0.3,2l0.2,1.6l0.8,0.9l0.4,0.7l0.3,2.6l-0.4,1.5l-1,2l1,3.3l-0.3,1.9l0.1,0.9l0.6,0.1l2.4-0.9l0.2,1.1l0.9,1
	l0.5,0.9v1.5l-0.6,1.7l-0.3,1.8l1.5,2l-0.1,3.2l0.4,1.2v0.8l0.9,0.8l0.8,0.5l0.3,0.8l-0.5,1.4l-0.6,1l-1.8,2.2l-0.8,0.6l-1.5,0.5
	l-2.2,1.6l-2.6,1.4l-2.2-0.2l-0.5,0.2l-1.6-0.3l-1-1.6l-0.4-1.8l-0.5-1h-1.4l-1.1,0.2l-0.8,1.6l-0.8,0.5l-1.9,2.2l-0.1,1.2v0.4
	L318,493.8z"/>
<path id="D044" class="st0" d="M137.9,555.7l1.2-2.8l1.3-1.8l0.2-0.1l1-1.5l2.7,2.2l0.1-1.4l-0.1-1.3l0.4-1l0.3-2.5l0.5-2.4
	l-0.2-1.3l1.3-2.4l1-1.4l0.7-1.6v-3.7l-0.5-2.3l-1.2-0.8l-0.5-2.5l0.5-2l0.9-2.4l3.6,0.7l3.1,0.8l0.6-2.3l-0.2-1.6l-0.6-1l-1.7-0.6
	l-6-1.1l-3.3-0.9l-1.1-0.8l-1.6-0.7l-2.4-0.1l-1.8-0.8l0.7-0.4l2.4-0.5l1-0.6l0.7,0.1l0.9-0.5l3-2.3l1.3-0.7l1.2-0.1l0.8,0.1
	l1.3-0.3l1.5-1.2l1.6-3.3l0.3-2.2l-0.2-1.9l1.3,0.5l0.8,0.1l1.1-0.1l1.8-0.7l0.9-3.4l-0.9-2.2l-0.4-1.6l1.1-1.5l1.5-1.5h1.8l0.2-0.7
	l0.1-1.3l0.2-0.9l0.3-3.9l1.6-0.8l1.2,1.8l1.5,0.8l1.2-4.9l1.3-0.3v-5.3l1.1-0.5l0.6-0.6l1-1.4l0.3-1l0.2-1.3l-0.1-2.1l0.4-0.8
	l1.3-1.1l2.7-1l1.1-0.6l-0.5-0.7l-1.6-1.3l-0.4-1.5l0.1-1.1l1.6-1.8l1,0.2l1-0.1l0.5-0.5l1.2,0.2l2,0.3h2.1l1,0.3l1.3,0.1l0.8-0.3
	l1.9,0.4l2.9,1l1,0.6l1.3,0.5l1.5,1.7l0.2,0.4l0.8,0.3l0.8,0.6l0.6,1l1-0.2l0.3,0.5l0.9,3.9l0.4,1.1l1.3,0.3l-0.1,1.4l2.2,3l0.9,0.5
	l1.1,0.3l1.3,1.7l0.4,1.1l2,1.2l0.9,1l0.9,0.6l1,0.3l0.9,0.5l0.7,0.8l1,0.5l-0.5,2.7l-0.6,0.5l-0.6,1.2l-0.9,1.1l-1.5,1.2l-0.1,0.8
	l0.2,1l0.5,0.4l1.5,0.7l1.4,0.4l2.1,1.4l0.1,1.3l0.7,0.2l0.7,0.5l1.6,1.7h1.8l0.5,0.6l1.5-1.4l0.4,1.2l0.2,1.3l-0.8,1.3l-1.8,1.4
	l-0.9,0.1l-1.5,2.2l-0.3,1.1v1.5l0.7,1.5l3.4,3.1l-0.4,1.4l0.8,0.8l0.1,1l-0.6,3.6l0.1,1.2l-0.3,1.1l0.8,0.5l2.7-1.2h2.6l1.4-0.5
	l0.9-0.1l1.4,0.2l0.5-0.5l0.8,1l1.1,0.8l-0.9,1.4l-1.6,4.1l-3.7,7.1l-0.6-0.1l-0.3,0.1l-3.1-1.8l-1.5-1l-2.6-1.3l-2.7-2l-1.4,1.3
	l-0.7,0.5l-1.7,0.4v0.4h1.2l1.2,0.4l1.4,0.6l1.7,0.4l2.6,1.1l5.5,1.7h0.7l0.2,0.2l-2.6,2.8l-1.6,0.9l-2.6-0.4l-0.7,1.2l-2.9,1.9
	l0.5,0.8l1,0.3l1.1,1.5l0.6,1.1l1.4,1.5l-0.7,1.1l-0.5,0.5h-1.3l-0.1,0.4l0.1,0.6l-0.8,1.4l-1.8,2.5l-0.4,1.4l0.2,3.1l0.3,1.1
	l0.6,0.6v0.3l-1,0.9l0.1,1.1l-0.6,0.8l-0.6,4.9l1,0.2l0.8-0.2l0.9,0.1l1.2,1.8l0.1,0.9l-0.2,0.9l-0.5,0.6l-1.4,1.7l-1.1,0.9
	l-2.6,1.6l-0.9,0.3l-1.2-0.2l-0.9-1.5l-2.3,0.1l-0.4,0.5l-0.6-0.2l-1.9,0.4l-1.6,1.6l-1.2,2l-0.2,1.6l-0.7,0.6l-0.8,2v0.6l2.5,3.2
	l0.6,0.5l1.3,0.5l2.4,0.5l0.7-0.4l0.6-0.6h0.8l0.2,1l-0.3,1.2l-1.2,3.3l1.3,3.6l1.4,0.1l1.4,0.9l0.9,0.8l-1.9,4.7l0.7,1.7l-0.3,1
	l1.8,1.8l0.5,1l1.3,1.7l-0.6,2.7l-0.1,0.3L216,615l-0.8,1.2l0.3,1.2l0.6,1.5l-0.3,1.2l-0.3-0.1l-0.8,0.5l-1.3,1.9l-0.4,2.8l-2.7,1.7
	l-2.9,2.5l-1.6,2l-0.2,1.9l1.4,2.3l-1.3,0.2l-1.2-0.4l-1.1-0.1l-0.8-0.4l-6.3-1.6l-0.9-0.8l-1.4-1.8l-1.9-0.8h-1.7l-0.5-0.9
	l-3.3-2.8l-1-1.5l-1,1.9l-9.2-0.3l-3.9-0.5l-0.4-0.1l-4.4-11.7l5.1-0.9l1.6-0.5l-0.9-1.6l-0.5-1.2l-0.3-1.5l-0.8-1.4l-4.1,1
	l-1.6-0.1l-1.6-0.7l0.4-2.5l-1.3-1.4l-2-3.2l-0.5-1.2l-0.1-1.2l0.1-1.3l-3.9-2.8l0.3-1.6l0.4-1l0.3-1.4l0.1-1.3l0.7-0.3l1.1-0.3
	l1.9,1l1.9,1.9l0.6,1l1-0.5l-1.7-2.1l-0.5-1l-0.3-0.9l-0.8-0.6l-2.5-2.9l-0.1-1.1l-0.6-1.4l-0.3-1.2l-0.2-1.6l-3.3-0.6l-1.6-0.6
	l-1.7-1.3l1.6-5l0.2-1.6l-0.3-1.6l1.1-3.6l1-6.4L149,557l-1.6,0.2l-2.1,0.8l-1.7,1.1l-1.3,0.4L137.9,555.7z"/>
<path id="D647" class="st0" d="M327.1,98.8L327.1,98.8l-2.4-0.8l-1.1-1l0.1-0.6l0.1-0.2l0.2-0.3l0.3-0.2l1-0.2h1.2l0.6-0.1l1.2,0.4
	l0.6-0.2l0.2,0.1l0.3,0.1l0.6-0.4l0.5-0.7l0.9-0.7l0.2-0.3l0.2-1.1l0.1-0.1l0.3-0.4l0.1-0.2l0.1-0.8v-0.2l-0.2-0.2l-0.1-0.1
	l-0.2-0.9l-0.2-0.2l-0.2-0.2l-0.2-0.7v-0.7l0.3-1.6l0.2-0.2l0.6-0.5l0.3-0.2l0.2-0.4v-0.2l0.1-0.9l-0.5-0.7l-0.4-0.5l-0.1-0.1v-0.1
	l-0.8-0.8l-0.5,0.1l-0.7-1.3l-1.7-1.1l-0.6-1.7l-0.2-1.2l-0.1-0.8l0.4-4.3l-1.1-2.1l-1.4-1.3l0.4-1l0.2-0.3l1.1-0.4l2.1,1l0.2,0.2
	l2.4,1l2.5,1l0.9,0.4l1.3,0.3l2,0.3l3.1,0.5l2.8-0.5h0.3l2.8-1.1l0.6-0.1l0.8-0.4l1.8-1.2l1-0.3l0.2,0.2l-1,5l0.6,0.7l1.5,1h0.8h1
	l0.2,0.8l0.2,0.9l-0.4,3.5l0.8,2.6l0.7,0.4l0.4-0.2l0.6-0.8l0.2-0.4l1.8-3.9l1.5-9.8l0.9-2.1l2.8-2.8l2.1-1.4l1.7-1.1l4.5-2.3
	l7.8-1.3l1.9-0.3L385,55l3.9-1.7L391,51l2.3-2l0.7-1.3l0.8-1.5l0.9-1.9l0.8-1.6l1-2.2l1.5-3.4l0.2-1.2l0.2-0.5l1.2,0.3h3.4h1.1
	l2-0.9l2.5-1.9l2-2.8l1.4-2l0.3-0.4l0.7-2.5l0.3-1.1l1.3-3.1l3.3-4.9l2.7-3.9l0.1-0.2l0.5,1.2l-0.9,2.8l-2.4,4.9l-0.9,3.8l-0.1,3.1
	l0.8,1.9l2.4,2.5l3.2,3.9l1.5,2.4l3.5,3.1l1.6,2.3l1.2,1.9l0.6,1.4l-0.4,1.9l-1.1,1.2l-1.8,0.4l-0.8,0.2l-6.9,2.5l-1,0.9l-3.9,3.6
	l-1.1,1.5l-3.2,4.2l-0.9,1l-2.6,3.1l-1,1.2l-1.4,2l-0.4,0.4l-3.5,4.7l-0.3,1.4l-1.3,2.3l-0.5,0.4l-2.7,2.4l-5.5,1.5l-3.5,0.5
	l-1.6,0.2l-3.7,1.9L383,87l-2,1.9l-1.2,0.6l-2,2.3l-0.1,1.1l-0.3,2.3l-0.3,5.4l0.2,1.7l0.1,1.1l5.1,1.3l1.1,0.7l1,2.8l-1.1,4.3
	l-1.3,2l-2.9,4.2l-3.6,4.6l-5.6,4.2l0.3-0.5l0.3-2.3v-1.5l0.4-1.4v-1.2l-0.6,0.2l-0.6,0.5H369l-0.4-1.2l0.6-4.1l-0.1-0.9l-0.6-0.8
	l-3.6,0.1l-1.4-0.1l-1-0.6l-0.9-0.8L360,112l-1-0.3l-5.2-0.3l-2.7-0.6l-2.4-0.8l-3.3,0.2l-0.9-0.6l-0.9-1.4l-1.2-0.8l-1.9,0.7
	l-2.1-1.4l-0.4-1.6l-2.2-0.6l-0.8-0.4l1.1-1.4l-0.8-0.8l-1.6,0.7l-0.7,0.7l-0.9-0.1L327.1,98.8z"/>
<path id="D048" class="st0" d="M480.7,649.6l-0.3,0.1l-1.3-0.6l-1.4,0.1l-0.8,1l-0.6,2.2l-3.4,3l-2.4,0.5l-2.4-0.1l-1.3,1.1
	l-0.9,1.5l-1,1.4l-0.9,0.7l-1.1-1.6l-1.2-1.2l-1.5-0.7l-0.7,0.2l0.2-0.9l0.3-0.3l0.4-0.5l0.3-0.5l0.3-0.4l0.2-0.7l0.2-0.6l1-1.4
	l0.7-1.4l0.3-1.1v-1.2l0.3-1.1v-0.6v-0.4l-0.5-0.5l-0.8-0.1l-0.8,0.4l-0.6,1l-0.9,0.9l-0.8,0.3l-1.9,0.1l-1.8,1.1l-2-0.4l-1.5-2.8
	l-0.1-0.9l0.3-2.2l-0.6-0.3l-0.2,0.1l-0.2,0.1l-0.7-1.2l-0.7,0.3l-0.5-0.3l-0.4-0.5l-0.4,0.3l-2,1.6l-0.5-0.7l-0.2-0.8l-0.3-1.4
	v-1.8l-0.4-0.7l-2.2-0.9l-1.3-0.5H441l-2.4-2.3l0.2-0.5l0.4-1l0.4-1.8l-0.4-3.3l1-2.9l1.5,0.1l1.3,0.5l1.5,0.2l1.6-1.7l0.7-1.3
	l0.4-1.7l-0.4-1.5l-1.1-0.9l-0.2-1.4l-2-3.3l-0.3-1.1l-0.1-0.1l-0.1-0.1l-0.1-0.1l-0.1-0.1l-0.1-0.1l-0.1-0.1l-0.1-0.1v-0.1v-0.1
	l0.1-0.1l0.1-0.1l0.1-0.1l0.1-0.1h0.1h0.1h0.1h0.1h0.1h0.1l0.1-0.1l0.1-0.1l0.1-0.1l0.1-0.1l0.1-0.1l0.1-0.1l0.1-0.1l0.1-0.1
	l0.1-0.1l0.1-0.1l0.1-0.1l0.1-0.1l0.1-0.1l0.1-0.1v-0.1v-0.1v-0.1v-0.1v-0.1l-0.1-0.1l-0.1-0.1l-0.1-0.1l-0.1-0.1l-0.1-0.1l-0.1-0.1
	l-0.1-0.1l-0.1-0.1l-0.1-0.1l-0.1-0.1v-0.1V608l0.1-0.1l0.1-0.1l0.1-0.1l0.1-0.1l0.1-0.1v-0.1l-0.1-0.1l0.1-0.1l0.1-0.1l0.1-0.1
	l0.1-0.1l0.1-0.1l0.1-0.1h0.1h0.1h0.1h0.1h0.1h0.1l0.1,0.1h0.1h0.1h0.1h0.1l0.1-0.1l0.1-0.1l0.1-0.1l0.1-0.1l0.1-0.1l0.1-0.1
	l0.1-0.1l0.1-0.1l0.1-0.1l0.1-0.1l0.1-0.1l0.1-0.1l0.1-0.1l0.1-0.1l0.1-0.1l0,0v-0.1l0.1-0.1l0.1-0.1l0.1-0.1v-0.1l0,0l0.1-0.1
	l0.1-0.1v-0.1v-0.1l0.1-0.1l0.1-0.1l0.1-0.1l0.1-0.1l0.1-0.1l0.1-0.1l0.1-0.1v-0.1v-0.1v-0.1v-0.1v-0.1v-0.1l-0.1-0.1l-0.1-0.1
	l-0.1-0.1l-0.1-0.1l-0.1-0.1l-0.1-0.1l-0.1-0.1l-0.1-0.1v-0.1v-0.1V602l0.1-0.1l0.1-0.1l0.1-0.1l0.1-0.1h0.1h0.1h0.1l0.1-0.1
	l0.1-0.1l0.1-0.1v-0.1l-0.1-0.1l-0.1-0.1l0.1-0.1l0.1-0.1l0.1-0.1l0.1-0.1l0.1-0.1l0.1-0.1l0.1-0.1l0.1-0.1l0.1-0.1l0.1-0.1l0.1-0.1
	h0.1h0.1h0.1h0.1h0.1h0.1h0.1h0.1h0.1h0.1h0.1h0.1l0.1-0.1v-0.1v-0.1l-0.1-0.1l-0.1-0.1h-0.1h-0.1h-0.1l-0.1-0.1l-0.1-0.1l-0.1-0.1
	l0,0V599v-0.1v-0.1v-0.1l0,0l0.1-0.1l0.1-0.1l0.1-0.1l0.1-0.1l0.1-0.1l0.1-0.1l0,0l0.1-0.1l0.1-0.1l0.1-0.1l0.1-0.1l0.1-0.1l0.1-0.1
	l0.1-0.1l0,0l0.1-0.1l0.1-0.1l0.1-0.1l0.1-0.1v-0.1v-0.1v-0.1v-0.1v-0.1l0.1-0.1l0.1-0.1l0.1-0.1l0.1-0.1h0.1h0.1l0,0h0.1h0.1
	l0.1,0.1l0.1,0.1l0.1,0.1l0.1,0.1l0.1,0.1l0.1,0.1l0.1,0.1l0.1,0.1l0.1,0.1l0.1,0.1v0.1v0.1v0.1v0.1v0.1v0.1v0.1v0.1v0.1v0.1v0.2
	v0.1l0.1,0.1l0.1,0.1l0.1-0.1l0.1-0.1l0.1-0.1l0.1-0.1l0.1-0.1l0.1-0.1l0.1-0.1l0.1-0.1l0.1-0.1h0.1h0.1h0.1h0.1h0.1h0.1h0.1
	l0.1,0.1l0.1,0.1l0.1,0.1l0.1,0.1l0.1,0.1l0.1,0.1h0.1h0.1l0.1,0.1h0.1h0.1l0,0h0.1h0.1h0.1h0.1h0.1h0.1h0.1l0.1,0.1l0.1,0.1h0.1
	l0.1-0.1v-0.1l-0.1-0.1l-0.1-0.1l-0.1-0.1l-0.1-0.1l-0.1-0.1l-0.1-0.1l-0.1-0.1l-0.1-0.1l0-1.6l-0.1-0.1l-0.1-0.1l-0.1-0.1l-0.1-0.1
	v-0.1v-0.1v-0.1l0.1-0.1l0.1-0.1l0.1-0.1l0.1-0.1l0.1-0.1l0.1-0.1l0.1-0.1l0,0l0.1-0.1l0.1-0.1l0.1-0.1l0.1-0.1l0.1-0.1l0.1-0.1
	l0.1-0.1l0.1-0.1l0.1-0.1v-0.1v-0.1v-0.1v-0.1v-0.1v-0.1V593v-0.1v-0.1V592v-0.1v-0.1l0,0v-0.1v-0.1v-0.1l0.1-0.1l0.1-0.1l0.1-0.1
	l0.1-0.1l0.1-0.1l0.1-0.1l0.1-0.1l0.1-0.1l0.1-0.1l0.1-0.1l0,0v-0.1l0.1-0.1l0.1-0.1l0.1-0.1l0.1-0.1l0.1-0.1l0.1-0.1v-0.1v-0.1
	l0.1-0.1l0.1-0.1l0.1-0.1l0.1-0.1v-0.1V589v-0.1v-0.1v-0.1v-0.1v-0.1v-0.1v-0.1v-0.1v-0.1V588v-0.1l0.1-0.1l0.1-0.1l0.1-0.1l0.1-0.1
	l0.1-0.1v-0.1v-0.1v-0.1l-0.1-0.1l-0.1-0.1l-0.1-0.1l-0.1-0.1l-0.1-0.1l-0.1-0.1l-0.1-0.1l-0.1-0.1l-0.1-0.1l-0.1-0.1l-0.1-0.1
	l-0.1-0.1l-0.1-0.1l-0.1-0.1l-0.1-0.1l-0.1-0.1L459,584l-0.1-0.1l-0.1-0.1h-0.1h-0.1h-0.1h-0.1h-0.1l-0.1,0.1l-0.1,0.1l-0.1,0.1
	l-0.1,0.1l-0.1,0.1l-0.1,0.1l0,0h-0.1h-0.1h-0.1l-0.1,0.1l-0.1,0.1l-0.1,0.1l-0.1,0.1l-0.1,0.1l-0.1,0.1l-0.1,0.1l-0.1,0.1l-0.1,0.1
	l-0.1,0.1h-0.1h-0.1h-0.1l-0.2-0.1l0.1-0.1l0.1-0.1l0.1-0.1l0.1-0.1l0.1-0.1l0.1-0.1l0.1-0.1l0.1-0.1l0.1-0.1l0.1-0.1l0.1-0.1v-0.1
	l0,0V584v-0.1v-0.1v-0.1v-0.1v-0.1v-0.1v-0.1h-0.1h-0.1h-0.1h-0.1h-0.1h-0.1h-0.1h-0.1h-0.1H456h-0.1h-0.1h-0.1h-0.1l-0.1-0.1
	l-0.1-0.1l-0.1-0.1l-0.1-0.1v-0.1v-0.1v-0.1v-0.1v-0.1l0.1-0.1l0.1-0.1v-0.1V582v-0.1v-0.1l0.1-0.1l0.1-0.1l0.1-0.1l0.1-0.1h0.1h0.1
	h0.1h0.1h0.1h0.1l0.1-0.1v-0.1v-0.1V581v-0.1v-0.1v-0.1v-0.1v-0.1l-0.1-0.1l-0.1-0.1l-0.1-0.1l-0.1-0.1H456l0,0h-0.1h-0.1h-0.1h-0.1
	h-0.1h-0.1h-0.1l-0.1-0.1l-0.1-0.1l-0.1-0.1l-0.1-0.1l-0.1-0.1l-0.1-0.1l-0.1-0.1l-0.1-0.1l-0.1-0.1h-0.1h-0.1h-0.1l-0.1,0.1
	l-0.1,0.1l-0.1,0.1l-0.1,0.1l-0.1,0.1l-0.2-0.7l0.2-0.6l0.6,0.1l0.6,0.1l0.3-0.5l0.1-0.3l0.1-0.2v-0.3v-0.2l-0.9-0.5l-2-2.7v-1.7
	l-0.1-0.7l-0.9-2.4l0.6-0.5l0.2-0.6l1.2-1.2l0.4-1.1l0.5-0.6l-0.5-1.8l1-1.8l0.6-0.2l0.8-1.8l0.5-0.3l0.3,0.2l0.4,1l0.7-0.5l1.5,0.1
	l0.8,0.3l2.6-1l0.1-2l0.6,0.1l1-1.2l0.5,0.2l0.5-0.1l1-1l0.4,1.2l0.3,0.2l0.2-0.5l0.8-0.7l-0.2-0.7l0.4-0.4l1.3-0.8l1.9,0.7l0.4,1.3
	l-0.2,1.3l1-1.3l0.3-1.3l0.6-0.5l0.3-0.6l-0.4-1.8v-0.1l0.9-2.2l0.5-0.3l0.5,0.1l0.2,0.3l1.4-0.4l0.7-1.2l0.2-1l-0.1-0.2l-0.1-0.3
	l-0.5-0.8l-0.3-1.1l-0.7-0.3l-1-0.4l-0.9-2l-0.5-0.1l-1,0.4l-1.3,0.8l-0.1-0.4l-0.1-1.4l0.1-0.4l0.6-0.7v-0.4l-0.5-0.9l-0.6,0.6
	l-0.6,0.1l-0.7,0.5l-0.9-0.8l0,0l-0.6-0.2l-0.2,0.2L468,539l-0.4,0.7l-1.1,0.3h-1.2l-2.4-1.2l-1.3-0.1l-1.6,0.4l-1.5,0.9l-0.7,0.9
	l-0.8-0.2l-0.9-0.7l-1.9-0.8l-0.8-0.9l-0.8-1.9l-1.6-1.9l-1,0.5l-1.8-0.5l-0.8,1l-0.8,0.2l-0.5,0.9l-0.9-0.5h-0.5l-0.6-0.2l-0.3-1
	h-0.7h-0.7l-1.7-0.5v-1.2l-1-4.1l0.6-0.5l0.7-1.8l1.3,1.1l0.9,0.4h0.6l0.2-0.4l-0.3-0.6l0.2-0.8l1-1.5l0.1-0.9l1.4,0.7l0.3-1.5v-1
	l1.1-0.9l0.9-1.6l-0.8-1.8l1.4-0.8l0.7-0.1l0.3-0.3l0.1-0.8l0.3-0.5l0.6-0.2l0.3-0.3v-0.6l-0.7-2.3l0.7-0.5l1.4-1.3l1.1-1.7l0.4-0.3
	l1,0.8l0.7-0.2l0.5-0.4l1.3-1.5l-1.5-0.7l-0.2-0.5l0.1-2.5l-0.4-0.4l-2.4-1.2l-0.3-0.9v-1.3l0.4-1.1l2.2-1.6l0.3-0.5l-0.3-1.1
	l0.1-0.4l3.5-0.2l5.3-2.2l6.6-1.3l8.3-4.7l6.6-1.3l3-1l1-0.5l0.1,0.6l0.8-0.2l0.1-0.6l-0.3-0.7l0.5-1.4l0.6-1.2l1.5-0.7l0.8,1.3
	l0.2,2.5l0.4,0.4l0.9-0.2l1.1,0.5l0.2,2l1.6,0.8l0.4,0.8v0.9L498,489l0.9,1.9l0.6,1.7l0.3,2l0.3,0.5l0.2,1l-2.8,4l2.9,0.5l-0.5,0.6
	l-0.7,1.5v0.7l1.1,1.2v1.4l0.7,0.1v1l-0.5,0.3l-0.3,0.7l-0.6-0.2l-0.3,0.8h-0.5v1l-0.3,1.2l-0.6,0.8l1.1,0.1l0.9-1.3l0.6,0.2
	l0.6-0.3l0.3,1.3l0.6,0.6l1.6-1.2l0.7-0.8l0.4-0.1l1.8,1.1h0.6l1.5,1.4l0.6,1l0.5,2.6l2-2.4l1.2-0.5l2-0.2l-0.1-1.2l-1-1.4l-0.2-0.9
	l0.4-0.6l0.4,0.4l0.3-0.4l0.6,0.4l0.6-0.9l2.4,0.4l1.9-1.5l1,1.1l1.7,2.2l1-0.7l1.9,1.5l0.7-1.3l1.2-1.2l0.5-1.1l-0.1-0.7l0.6-0.3
	l0.4-0.6l-0.3-0.4l0.5-0.7l-0.4-0.6l0.4-0.4l0.1-0.8l0.4-0.5l-0.1-0.7l0.4-0.7l-0.3-1l-1.2-1.5v-0.7l0.3-0.6v-0.5l-0.2-0.5l-1.3-1.2
	l0.6-0.4l0.6-1.4l-0.2-0.8l-0.5-1l0.3-1.1l1.5-2.5l-0.1-0.8l-0.4-0.6l0.1-2.7l0.4-1.1l0.5-0.3l-0.6-0.9l-0.2-0.8l0.6-0.5l0.3-0.6
	l0.7,0.1l0.4-0.6l1,0.8l1.6,0.7h0.7l0.2,0.8l0.6-0.1l0.8,0.3l1.1-0.8l0.5,0.1l1.8-1.3l1-0.4l0.5,0.4l0.2,0.6l1.4-1.2l0.1-0.7
	l0.4,0.2l0.2-1l-0.3-1l-0.8-0.9l-3-2.6L539,473l0.4-1.9l0.7-0.2l1-0.6l-0.1-0.6h0.4l1.6,1.2l1.4,0.6l0.7-0.1l0.3-1.9l-0.8-1.2
	l-0.4-3.5l1-0.6l-1.3-1.6l-0.8-1.4l1.2-0.9l0.1-0.3l-0.8-0.9l-0.9-0.6l-0.2-0.5l0.1-0.5l0.3-0.4l1.4-0.1l0.9,0.9l0.4,0.2l0.9-0.5
	l0.4-0.5l0.7-0.1l1.1-0.9l0.5-0.1l2.7-1.8l0.6-0.1l0.3,0.7l0.5,1.8l0.1,0.8l-0.2,0.5v1l-1.7,2.6l-0.6,0.4v0.3l0.4,0.5l0.4,1
	l-0.3,1.8l0.1,0.6l0.4,0.4l0.3,0.9l0.5-0.1l0.1-0.4l0.6-0.7l0.9-0.4l1,0.3l0.6,1.1l0.8,2.2l0.3,0.2l0.4-0.1l0.3,0.1l-0.1,2.6
	l0.7,1.3v0.4l-0.9,1.3l0.1,0.9l0.8-0.1l3.5-2.2l0.1,0.8l-0.7,1.9l-0.1,0.9l0.3,0.7l1,1.3l1.2-0.2l0.5-0.6l0.5-0.2l0.3-0.5v-0.6
	l-0.4-1.4v-0.6l1.4,0.1l0.6-0.1l0.2-0.5l0.3-0.1l0.6,0.9v1.1l1.2,1.2l0.4,0.8l0.3,0.2l0.5-0.5l0.2,3.5l2,4.4l2,2.7l7.8,5.9l2.5,6.6
	l-2.3,6.7l-3.8,2.9l-0.6,1.8l-0.5,0.9l0.4-2.6l-0.6-0.9l-1,0.2l-0.6,1.4l-1,1.4l-1.9,0.4l-2.2,1l0.2,3.6l-2.4,1.6L566,521l0.3,2
	l0.6,0.9l1.9,0.1l0.4,0.7l-1.6,2.1l0.4,0.7l3.3-0.5l0.8,0.6l0.6,1.2l-0.7,1.3l-1,1.3l-0.9,0.9l-1.5,1v1.6l-0.7,0.7l-1.1-0.4
	l-0.8,0.4l-0.5,1.2l-1.6-0.3l-1.6,1.1l-0.9-1.1l-0.7,1.6l0.4,1.5l-1.9,3.1h-1.9l-4.4,3.6l-0.6-1.7l-0.5,0.8l-0.9,2.9l-0.8,1.1
	l-0.9-0.4l-4.1,0.6l-4,1.3l-1.8-0.2l-0.3,1.5l0.2,2.1l-0.2,1.4l-0.7,1.7l-1.6,1l-0.1,1.2l2.1-0.9l0.6-0.8l3.7-3.9l1.2-1.1l1.4-0.2
	l1.1,0.6l1,2.4l0.6,0.8l1.7,1.3l0.5,0.9v1.2l-1,1.3l-0.3,1.1l0.9,0.6l1.3,0.4l2.8,0.2l1.1,0.9l-0.3,2.1l0.8,0.8v1l-0.4,0.9l-2.9,3.5
	l0.9,3.5l-0.8,1.3v1.1l1.1,2.3l-0.1,1.1l-0.6,2.1l-0.1,1l0.3,0.7l0.2,0.8l-0.2,1.1l-0.3,0.9l-1,1.5l-0.3,0.3l-0.3,0.3L551,591
	l-0.3,0.3l-0.3,0.3l-0.3,0.3L550,593l-0.3,0.4l-0.3,0.4l-0.3,0.3l-0.3,0.3l-0.4,0.1l-0.4,0.1h-0.4h-0.4l-0.4,0.1l-0.3,0.3l-0.3,0.3
	l-0.3,0.3l-0.4,0.2H545l-0.4-0.1l-0.1-0.2l0.3-0.4l0.3-0.4l0.2-0.4l0.2-0.4v-0.5l-0.2-0.4l-0.4-0.2l-0.4-0.2l-0.3-0.3l-0.3-0.3
	l-0.3-0.3l-0.3-0.3l-0.3-0.3l-0.3-0.3l-0.4-0.2l-0.4-0.1l-0.4-0.1l-0.8-0.2l-3.7,3.7l-1.4,0.5l-2.9,0.3l-1.4,0.7l-0.7-1.2l-0.4-1.3
	v-1.2l-0.8-1.1l-1.3-0.6l-3.8,0.1l-1.7-0.4l-0.5-1l-0.4-1.5l-0.4-2.7l0.3-1.4v-1.9l-0.9,0.3l-0.8-0.2l-0.9-0.9l-0.9-1.6l-0.2-1.6
	l-0.5-1v-1.1l0.7-0.9l0.5-1.3l-0.1-1.6l-1.5-4.2l-1.7-1l-2,0.8l-1.4,1.6l-0.7,1.2l-1,0.9l0.4,1l1,1.1l2.3,3.8l-0.4,0.6l-1.2,1.1
	l-1.1,0.5L511,579l0.7,1.7v1l0.3,1.5l-1,0.9h-1.7l-1.9-0.9l-1-1.3l-1.7-4l-0.9-0.7l-3,1l0.5,1l1.2,1.3l2.2,1.8l0.1,0.9l-1.9,2.8
	l-1.7,1.5l-1,0.3l-1.8-0.1l-3.4-2.4l-1.2,0.4l-1.1,0.7l-1.4-0.2l-1.1-0.8l-2.5-0.3l-1.2-0.7l-0.3-1.3l-0.4-0.3l-0.5-0.5l-0.2-0.4
	l-0.2-0.4l-0.3-0.3l-0.3-0.3l-0.3-0.3l-0.3-0.3l-0.3-0.3l-0.3-0.3l-0.2-0.4l-0.2-0.4l-0.3-0.4l-0.3-0.3l-0.3-0.4l-0.3-0.4l-0.3-0.4
	l-0.3-0.4l-0.3-0.3l-0.3-0.3l-0.3,0l-0.3-0.2l-0.3,0.1l-0.3,0.5l-0.1,0.5l0.1,0.4l0.2,0.4l0.2,0.4l0.2,0.4l0.1,0.4l0.1,0.5l0.2,0.4
	l0.3,0.4l0.3,0.4l0.2,0.4l-0.1,0.4l-0.3,0.3l-0.4,0.1l-0.4-0.1l-0.4-0.2l-0.4-0.3l-0.3-0.3l-0.3-0.3l-0.3-0.3l-0.3-0.2l-0.3,0.1
	l-0.3,0.4l-0.2,0.5l0.2,0.4l0.3,0.3l0.3,0.3l0.3,0.3l0.4,0.2l0.4,0.2l0.4,0.1l0.4,0.2l0.3,0.3l0.3,0.4l0.2,0.4l0.2,0.4l0.2,0.4
	l0.3,0.4l0.3,0.3l0.3,0.2l0.4,0.2l0.4,0.2l0.3,0.3l0.3,0.3l0.3,0.3l0.4,0.2l0.4,0.2l0.4,0.1h0.4h0.4h0.4h0.4l0.4,0.1l0.4,0.1
	l0.4,0.1l0.4,0.1l0.4,0.2l0.2,0.3l-0.1,0.5l-0.2,0.4l-0.2,0.4l-0.3,0.4l-0.3,0.2l-0.4-0.1l-0.4,0.1l-0.3,0.3l-0.3,0.3l-0.3,0.3
	l-0.3,0.4l-0.3,0.4l-0.3,0.4l-0.2,0.4l-0.2,0.4l-0.2,0.4l-0.2,0.4l-0.2,0.4l-0.2,0.4l-0.2,0.4l-0.2,0.4l-0.2,0.4l-0.2,0.4l-0.2,0.4
	l-0.2,0.4l-0.2,0.4l-0.2,0.4l-0.2,0.4l-0.2,0.4l-0.2,0.4l-0.2,0.4l-0.2,0.4l-0.2,0.4l-0.2,0.4l-0.2,0.4l-0.2,0.4l-0.3,0.4l-0.3,0.3
	l-0.3,0.4l-0.2,0.4l-0.3,0.4l-0.2,0.4l-0.1,0.4l0.2,0.3l0.4,0.3l0.4,0.2l0.4,0.2l0.5,0.1l0.5,0.1l0.4,0.1l0.3,0.2l0.2,0.2l-0.1,0.4
	l-0.3,0.4l-0.4,0.4l-0.3,0.2l-0.4,0.1l-0.4,0.1l-0.4,0.1L479,608l-0.4,0.1l-0.4,0.1l-0.4,0.2l-0.3,0.3l-0.1,0.4l-0.1,0.4l-0.1,0.5
	v0.5v0.5v0.5v0.5l0.6,1.8l0.5,1.4l0.2,1.3l0.1,1.2l0.3,1.5l-0.7,1.7l1.5,3.2l0.3,1.1l-0.2,0.8l-2.3-0.1l-1.1-0.4h-1l-1.6,2.3
	l-0.6,1.8l0.9,1.3h1.8l0.3,1.8l-0.2,5.1l0.3,1.2l2.2,1.1l1.9-0.6l1.5,0.6l1.5-0.3l1.3,0.9l1.1,1.3l0.6,1.6l-0.7,0.8l-0.5,1.3
	l-0.6,0.8l-0.6,0.4l-1-0.2l-1.2,0.2l-0.7,0.4l-0.4,0.7L480.7,649.6z"/>
<path id="D051" class="st0" d="M495.6,381.5l-0.3-0.4l0.7-0.7l0.8-0.2l0.7,0.2l0.9-0.1l0.3,0.5v1.2l-0.1,1.1l-0.2,0.6l0.5,0.3
	l2.4-0.2l0.3,0.1l0.2,0.5l0.8,0.8l1.3,0.7l1,0.2l1-0.4l0.3-0.5l0.4-0.2l0.6,0.2l1.7-0.4h2.9l0.6,0.1l0.2,0.5l0.3,0.1l1.2-0.2
	l0.4,0.2l0.8-0.1l3.4,0.5l3.9-0.8l1.9-0.9h1l2,0.4l0.4-0.3h2.4l0.6-0.4l0.4-0.5l1-3l-0.8-1.4l-1.2-0.8l-1.8-1.4l-3.2-3.4l-2.5-3.5
	l-0.9-3.1l-1.2-0.7l-3.1-5.6l-0.4-2.3l-0.9-1.6l0.6-2.2l-0.5-2l-1.3-1.2l-0.7-1.7l-5.3-5l-0.8-1.5l-1.2-4.1l-1-2.7l-1.5-2.7
	l-0.8-2.3l-0.7-0.2l-1.1-1l-0.8-1.2l-0.3-1.7l-0.3-0.6l-0.6-0.2l0.6-0.8l1.4-0.5l0.8-1.4l-2-2.1l-0.6-1l-0.9-2.8l-0.9-0.9L497,316
	l-1-1.1l-0.4-0.8l-0.2-2.5l-0.3-0.8h-1.6l-0.8-0.7l-0.4-1l-0.1-1.8l1.2-0.8l1-0.5l1-0.8l1.1-1.7l-1.1-3.7l0.7-0.4l2.8-0.9l0.4-1.1
	l1.2,1.2l1,0.4l1.2-1.8l-0.9-1.4l-0.2-2l-0.1-2.8l-2-0.4l0.1-1.7l-0.5-3.3l2.4,0.3l0.9-0.6l2.2-0.5l1.1-1.6l1.1-0.7l-0.4-3.3
	l1.1-2.7l1.1,3.1l1.1,1.4l-0.4,2l1.5,0.7l1.5,3.1l-1.9,1.4l2.1,2.9l1.4,3.1l1.7,2.7l0.7,1.4l0.9,2.4l1.7,2.8l1.6,1.8l1.9,2.7
	l-0.5,1.3L520,311l-1.3,1.3l0.5,1.5l2.6-1.6l0.9-1.5l1.9-2.5l0.8-0.8l1,0.8l0.5,1.8l0.1,1.6l0.7,0.7l0.6,1.1l0.9,2.5h1.7l0.9-1.1
	l1.3-1.1l0.6-0.1l0.4,1.3l-0.4,3l0.7,0.5l1.7-1.8l0.6-3.2l1-0.1l-0.4,2.7l-0.4,1.4l0.4,2.6l1.9-0.1l1.1-2.1l3.2-3.6l5.4,6.8
	l-1.6,1.1l-1.4,1.5l-0.4,2l-1.1,1.2l0.6,1.2l0.2,1l1.1,0.1l5.2-3.1l1.7,0.5l-0.2,1.4l1.7,1.3l0.2,0.6l-2.7,1.5l-0.2,0.6l-1.1,0.3
	l-1.1,1.3l-0.9,1.4l-0.4,1.1l-1.4,0.8l0.4,2.5l-0.5,1.8l0.4,1l-0.2,0.7l0.8,1.4h0.7l-0.8,3.4l-0.8,2.1l1.4,0.4l1.7,1.5l1.5-0.5
	l1.4,0.8l0.4,1.8l-2.4,3.2l-0.7,3l-0.5,1.2l0.8,4.1l-1.8,1.7l0.4,2.3l0.6,2.3l1.5,2.7l-0.6,4.1l0.4,0.5l1.5,0.9l0.9,1.4l1.3,0.4
	l3.4,2.1l1.7,2.5l1,0.3l4.6-0.6l0.3,0.2l0.4,0.7l1.2,1.3h1.3l2,3l0.2,1.9l-1.4,1l-2.9,1.4l-2-0.5H564l-1,1l-1.3,1.8l-0.3,0.6
	l-0.8,0.3h-2.1l-3.6,1.4l-0.8,0.9l-2.3,1.3l-2.2,1.6l-1.3,0.7l-0.2,0.8l0.1,1l-1.2,0.6v0.4l-0.8,0.2l-0.1,1.8l-1.3,0.9l-0.7-0.7
	l-0.7-0.3h-2.2l-1.6,0.8l-0.3,0.6l-0.5,2.3l-0.6,0.5l-3,0.1l-0.1,0.7l0.3,1.9v0.6h0.6l0.9,1.3l1.2,2.5l-0.6,0.3l0.3,2.1l1.3,0.9h0.6
	l0.4,1.4l-0.4,0.5l-0.2,0.7l0.3,1.9l-0.3,0.6l-0.5,0.7l-0.6,0.3L537,430l-0.5,0.3l-1.2,1.5l-0.5,2l-1.1,1l-3.4,2.6l-2.2,0.9
	l-0.6-0.2l-1.5-0.9l-2.1,1.1l-1.1-1.9l-0.3-0.1l-0.3,0.5h-0.3l-2.4-1.7l-0.6-0.2l-2.2,0.6l-1.5-0.6h-0.5l-1,0.7l-0.6-0.2l-0.4-2.9
	l0.2-0.5l1.3-1.5l-0.2-2.6l0.4-1.3l0.4-0.4l-0.3-0.5l-1.7-1.8l-2.3,0.1l-0.4-0.2l-0.3-0.4l-0.1-0.5l0.3-1.9v-2.4l-0.4-0.3l-1.8-0.4
	l-0.6,0.4l-0.6,1.1l-0.2,0.1l-0.5-0.6l-0.5-0.3h-1.7l-1,0.3l-0.4-0.2l-0.3-0.8l-0.7-0.8l-1.3-0.4l-0.1-0.3l0.2-0.4l-0.2-0.5
	l-1.1-1.3l0.1-0.3l0.3-0.2v-0.5l0.5-0.7l0.6-0.5l1.2-0.2l1-1.2l1.3-0.4l0.4-0.7l1.9-0.8l0.7-0.7l0.1-0.6l-0.4-2.8l-0.6-2.1l-0.7-1.3
	l-0.8-0.8l-2.1-1l-0.9,0.4l-0.7,0.9l-0.5,1.9l-0.6,0.4l-0.9,2.6l0.1,1.6l-0.8,0.1l-0.4,0.1l-0.1-8.6l-0.6-1.1l-0.2-1.3l1-0.7
	l0.4-0.6l-0.3-2.1l-0.7-2.7l-0.4-7.4l-0.4-1.3l-0.6-0.3L495.6,381.5z"/>
<path id="D052" class="st0" d="M584.2,455.5l0.5-1.1l0.8-1.1l1.6-0.2l-0.3,3l0.1,2.9l0.9,0.1l0.5-0.8l0.5-0.4l0.9,0.2v1.9l0.9-0.2
	l1.7-1.9l1-1.9l1.2-1.4l0.2,1.8l-0.2,2.8L594,461l-0.1,2.5l0.6,0.1l1.1-0.3l0.8,0.4l0.8,0.7l0.6,0.9l0.5,1.4l1.9,0.9l0.9,0.8
	l0.3,2.7l1.6,0.6l0.5,1.4l-1.1,1.9l-1.5,0.7l1,1.8l-0.1,1.3l-0.9,2v0.6l0.9,0.5l0.4,0.8l-0.6,1.7l-1.8,1.5l-1.3,0.9l0.5,0.5l1.8,0.8
	l1.6,1.1l1.2,0.8l1,0.4v1.6l-0.4,2.5l-0.4,1.8l-0.6,1.3l-0.8,0.7l-1.2,0.5l-1.3-0.2l-0.9,1.2l0.2,1.2l1.2,0.9l0.2,1.8l-0.5,2.8
	l-0.8,1.1l-0.3,2.3l0.2,1l2.1,2l0.4,0.8v1.6l0.3,1.2l-0.2,0.8v0.8l0.2,0.5l0.7,0.3l1.8,0.1l1.1,0.3l0.6,0.4l0.4,0.7l-0.2,1l-0.5,0.9
	l-1.1,0.9l-0.7,0.5l-2.4,3.6l-1,1.1l-1,0.7l-0.9,0.3l-1.2-0.3l-0.7-0.8l-0.1-1.4l0.8-3.1V523l-1-1.2l-1.4-0.8l0.2-1.6l-0.5-1.7
	l-3.1-1.4l-1.3-1.4l-1.3-3.1l-0.8,0.8l-0.8,1.8l-2.6,2.5l-2-0.8h-2.9l-1.7-0.8l-1.1-1.6l0.5-0.9l0.6-1.8l3.8-2.9l2.3-6.7l-2.5-6.6
	l-7.8-5.9l-2-2.7l-2-4.4l-0.2-3.5l-0.5,0.5l-0.3-0.2l-0.4-0.8l-1.2-1.2v-1.1l-0.6-0.9l-0.3,0.1l-0.2,0.5l-0.6,0.1l-1.4-0.1v0.6
	l0.4,1.4v0.6l-0.3,0.5l-0.5,0.2l-0.5,0.6l-1.2,0.2l-1-1.3l-0.3-0.7l0.1-0.9l0.7-1.9l-0.1-0.8l-3.5,2.2l-0.8,0.1l-0.1-0.9l0.9-1.3
	v-0.4l-0.7-1.3l0.1-2.6l-0.3-0.1l-0.4,0.1l-0.3-0.2l-0.8-2.2l-0.6-1.1l-1-0.3l-0.9,0.4l-0.6,0.7l-0.1,0.4l-0.5,0.1l-0.3-0.9
	l-0.4-0.4l-0.1-0.6l0.3-1.8l-0.4-1l-0.4-0.5v-0.3l0.6-0.4l1.7-2.6v-1l0.2-0.5l-0.1-0.8l-0.5-1.8l-0.3-0.7l-0.6,0.1l-2.7,1.8
	l-0.5,0.1l-1.1,0.9l-0.7,0.1l-0.4,0.5l-0.9,0.5l-0.4-0.2l-0.9-0.9l-1.4,0.1l-0.3,0.4l-0.1,0.5l0.2,0.5l0.9,0.6l0.8,0.9l-0.1,0.3
	l-1.2,0.9l-1.6,0.9l-1.6-0.2l-1.1,0.8v0.6l0.5,1.3l0.1,0.7l-0.4,0.3l-2.2-1.6l-1.3-1.3l-0.4,0.1l-0.6,1.2l-0.3-0.4l-0.2-0.6l0.4-1.3
	l0.6-0.6l2.4-1.4l0.7-1l0.2-0.6l0.8-0.8l0.8-1.6l1.1-0.3l0.5-0.4l-0.2-1.1l-1-2.2l-0.5-0.5l-1.2-0.2l-0.2-1.2l0.2-1.3l-0.8-1.4
	l-0.6-0.5l-0.7,0.3l-3.3,0.1l-1.1,0.5l-0.3-1.1l2-1.3l0.7-0.7l0.1-0.7l0.7,0.1l0.9-0.2l0.8-0.9l-0.2-0.9l-1-1.5l0.1-0.4l1-1.1
	l0.1-0.7l-0.7-2.6l-1.3-1.6l0.5-2l1.2-1.5l0.5-0.3l0.9,0.3l0.6-0.3l0.5-0.7l0.3-0.6l-0.3-1.9l0.2-0.7l0.4-0.5l-0.4-1.4h-0.6
	l-1.3-0.9l-0.3-2.1l0.6-0.3l-1.2-2.5l-0.9-1.3h-0.6v-0.6l-0.3-1.9l0.1-0.7l3-0.1l0.6-0.5l0.5-2.3l0.3-0.6l1.6-0.8h2.2l0.7,0.3
	l0.7,0.7l1.3-0.9l0.1-1.8l0.8-0.2v-0.4l1.2-0.6l-0.1-1l0.2-0.8l1.3-0.7l2.2-1.6l2.3-1.3l0.8-0.9l3.6-1.4h2.1l0.8-0.3l0.3-0.6
	l1.3-1.8l1-1h0.7l2,0.5l2.9-1.4l1.4-1l0.1,0.7l2.2,2.2l1,0.2h0.8v1.3l1,0.2v1.2l2.8,2.7l-1.3,3l1.1,3.9l0.8,1.3l2,2.3l2.8,4.4
	l0.9,0.5l2.2,0.7l1.5,1.1l0.8,1.7l0.2,2.2v2.6l1.4,1.3l1,1.5l-2.8,5.7l-0.5,1l-2.8-0.7l-1.8,0.9l-1.5-0.9l-0.3-0.7l2.1-1.9l0.1-0.3
	l-0.3-0.7l-0.8-0.8l-0.3-0.1l-1.3,1.1l-1.4,1.7l-0.9-0.5l-1.1-0.2l0.6-1.4l0.6-0.2l0.2-0.3l-0.7-0.6l-1-1.7l-1.4-0.9l-1.5,0.5
	l-0.9,0.5l-0.5,0.7l-0.5,0.1L573,429l0.2,0.9l-0.7,0.7l-0.8,0.5l0.1,0.9l-0.3,0.2l-1.1,1.3l-0.8,0.4l-1.8-0.2l-3,2.3l0.4,0.6
	l0.1,1.1l-0.5,1.4l0.3,0.5l0.5,0.1l1-0.3l1.5,2.3l0.2,0.7l0.9,0.9l0.3,1.9l-0.1,0.7l-0.4,0.6v0.4l1.1,0.3l0.7,0.5l0.3,0.6l-0.1,0.6
	l-0.3,0.3l0.3,1.8l0.2,0.1l0.5-0.4l0.4,0.1l1,1.9l1.1-0.3l4.5,2.9l3.3,1.7l0.9,0.3L584.2,455.5z"/>
<path id="D053" class="st0" d="M459.6,657.1l-0.8,0.2l-1.5,1l-0.4,2v2.1l-0.2,1.6l-0.8,1.2l-1.2-0.3l-0.8,1l-3,5.7l-1,0.5l-0.5-0.7
	l-0.2-0.3L448,670l-1.2-0.1l-1.1,0.8l-1.3,0.4l-2.5,2l-1.6,1.4l-1.3,0.9l-0.4,0.1l-1,0.2l-1.3-0.2l-1.3-0.4l-1.4-0.1l-0.6,0.2
	l-0.4,0.1l-0.5,0.1l-0.9-0.3l-1-0.3l-1.6-0.9l-1.9-1.8l-1-2.2l-1.1,0.5l-2,1.4l-1.3-0.7l-1.4-0.5l-1.6-4l-1.9-1.5L416,664l-1.4-2.3
	l-0.7-2.3v-2.7l-1.6-0.7l-4.2,1.9l-2.2-1.9l-1.9-2.2l-0.1-0.2l-0.8,0.5l-0.6,0.3l-0.5,0.8l-2.1,1.5L397,657l-1.2-0.1l1.6-2.6
	l0.9-1.2l0.9-0.4l1.3-0.3l0.7-0.2l1.3-1.4l-0.2-1.6l-0.1-0.5l-0.2-0.8l0.9-1.2l-0.4-0.5l-2.9-1.4l1.1-2.6l0.2-0.4l-0.3-1.2l-0.2-0.9
	l-0.3-2.2l1.9-1.2l-0.8-2.5l0.1-2.4l-1.6,1.1l-1.8-1l-1.6-1.6l-0.6-1.3l-0.3-0.7l-2.4,0.5l-1.8-0.6l-0.2,1.7l-0.5,1.9l-3,1.9
	l-2.5,0.3l-0.5-0.9l0.1-1L384,631v-1.1l-0.2-0.5l-1.5-1l-0.7,0.5l-0.8-2l-0.9,0.3l-0.7,0.3l1-3.9l1.3-3.2l0.9-2.6l-1.1-1.2l0.5-0.6
	l2-1.4l1.8-1.9l0.4,0.8l0.4-0.8l0.2-0.3l0.5-1.4l0.5-0.3l0.3,0.1l0.1-1.6l-0.3-0.8l-0.1-1.3l-0.8-0.1l-0.3-0.2l-0.8-1.3v-0.4l0.6-1
	l0.1-0.6l-0.8-0.2l-0.7,0.4l-0.4,0.6l-0.4,0.1l-1.4-0.2l-0.4,0.2l-0.4,0.6l-0.4,0.9l-0.1,0.9l-0.4,0.4l-0.7-0.5l-0.9-1.1l0.1-0.9
	l0.3-1.1l-0.3-0.7l-0.6-0.7v-0.7l0.3-0.7l0.2-3.3l-0.2-0.3l-0.7-0.2l-0.1-0.8l0.3-0.7l-1.8-1.7l0.4-1.9l0.9-0.4l1.6-2.7l1.2-0.5
	l0.8-1.4l-0.5-0.8l-0.4,0.4l-1,0.2l-1.2-1l-1.9-3.7l0.4-1.3l-0.6-1.1l-0.4-0.1l-3.2,1.9l-0.9-0.8H371l-2.6-0.8l-0.1-0.4l-0.4-1.9
	l-1.4-2.7l-1.6-3.7l0.4-1.9l-0.4-1.7l0.2-1l1-1.1l1.3-1l0.5-0.2l0.8-0.7l0.5-0.8l0,0l0.5-0.1v-0.4l-0.8-1.8l0.4-0.9l1.9,1.7l2.8,0.9
	l1.3-0.7l1.9-1.6l2.4-1.4l0.6-1.2l6.2,0.1l1.7,1.7l0.6-0.4l-0.1-1.5l1-2.5l1.4-1.4l1.4-0.4l1.5-2.4l-0.3-0.8l0.4-0.8l0.1-1.3l-1-1.2
	l-0.9-0.2h-4.8l-1-0.3l-1.5-0.8l-0.9-1l-1-1.7l-0.8-2.4l-0.3-2l-0.5-1.7l-0.1-1.1l1.1-0.9l0.6,0.8l1.1-0.1l1.5-2.1l0.8-0.7l0.6-1.5
	l-0.8-0.5l-0.7-0.8l0.2-2.7l-0.1-1.1l-2-1.1l0.1-1l-0.4-0.9l1.1-1l0.4-0.6l-0.4-0.8l-0.5,0.2l-1-0.1l-0.2-0.9l0.1-1.3l0.7,0.2
	l0.6-0.1l-0.1-0.6l-0.4-1l0.3-2.4l-0.4-1.1l-1.2-0.1l-1.2-1.8l-0.6-1.2l0.9-1.1l1.9-0.8l0.5-0.6l0.8-1.7l0.2-0.8v-1.6l0.7-1
	l-3.2-0.7l-0.3-0.7l0.7-3.9l1.7-1l1.6-2.5l0.3-1.1l-0.4-1h-1.4l-0.8-1.2v-0.9l-1.9-1.3l-0.3-2.2l0.6-1l1.1-0.6l0.1-1l-0.8-1.2
	l0.3-0.9l1.3-1.1l1.3-3.3l0.6-2l-0.4-1.9l0.5-0.9l0.3-1.3l-0.8-1.5l-1.1,0.8l-1.6-0.4l0.5-2.2l-0.3-1l-0.7-0.9l-1.1-1l2.5-3.4h3
	l0.4,0.9l0.9,1.9l0.3,0.3h1.2l1.4-0.8l2,3.2l0.9,2l0.7,0.5l0.5-0.5l0.8-2l0.3-0.5l2-0.4l1.4-0.9l0.4-0.7l0.6,0.7l2.7,1.3l0.8,1.3
	l0.6,0.1l1.3-1.3l0.6-0.6l-3.3-2.7l-0.3-0.7l-0.6-2.7l-1.7,0.4v-2.2l0.8-1.5h1.3l1.2,0.2l0.4,1.7l-0.2,1.1l1-0.1l1.1-0.7l1.7-0.5
	l1.7,0.1l1-1.2l0.4-2.2l1.5-1.5l0.3-0.6l1.2,0.3l1.8,3.7l1,0.1l2.3-1.5l1.5,0.3l0.6,0.8v0.9l0.4,1l1.5,0.9l0.5,1.4l-0.2,1.8L420,464
	l-0.1,1.9l0.8,1.1l1.7,1.1v2.4l1,1l1.7,0.3l1.1-1l1.2-0.1l1.2,0.8l0.9,2.3l-1,1l-0.3,0.6l0.6,0.5l0.3,2.4l1.6,1.6l0.8-0.1l1.4-0.6
	l1.2-1l0.5-2.1l0.4-0.6l2.1-1l1.5-1.2l0.6-0.3h0.8l1.4-0.6l0.6-0.4l0.6-2l0.7-0.3l3-0.6l0.4,0.3v1l0.3,0.4l0.1,0.8l-0.1,1l0.6,2.4
	l0.4,0.5l1.4,0.2l2.4,1.7l0.6-0.3l0.5-0.4l0.5,0.5l-0.3,2.4l0.5,0.8l0.5,0.5l0.9-0.1l1.2,0.6l-0.5,1.3v1l-0.6,1.3v0.4l1.4,1.6
	l0.1,0.6l0.7,1.1l-0.2,0.8l-0.9,1.6l-0.4,2l-0.3,0.8l-0.1,0.4l0.3,1.1l-0.3,0.5l-2.2,1.6l-0.4,1.1v1.3l0.3,0.9l2.4,1.2l0.4,0.4
	l-0.1,2.5l0.2,0.5l1.5,0.7l-1.3,1.5l-0.5,0.4l-0.7,0.2l-1-0.8l-0.4,0.3l-1.1,1.7l-1.4,1.3l-0.7,0.5l0.7,2.3v0.6l-0.3,0.3l-0.6,0.2
	l-0.3,0.5l-0.1,0.8l-0.3,0.3l-0.7,0.1l-1.4,0.8l0.8,1.8l-0.9,1.6l-1.1,0.9v1l-0.3,1.5l-1.4-0.7l-0.1,0.9l-1,1.5l-0.2,0.8l0.3,0.6
	l-0.2,0.4h-0.6l-0.9-0.4l-1.3-1.1l-0.7,1.8l-0.6,0.5l1,4.1v1.2l1.7,0.5h0.7h0.7l0.3,1l0.6,0.2h0.5l0.9,0.5l0.5-0.9l0.8-0.2l0.8-1
	l1.8,0.5l1-0.5l1.6,1.9l0.8,1.9l0.8,0.9l1.9,0.8l0.9,0.7l0.8,0.2l0.7-0.9l1.5-0.9l1.6-0.4l1.3,0.1l2.4,1.2h1.2l1.1-0.3l0.4-0.7
	l0.2-0.2l0.2-0.2l0.6,0.2l0,0l0.9,0.8l0.7-0.5l0.6-0.1l0.6-0.6l0.5,0.9v0.4l-0.6,0.7l-0.1,0.4l0.1,1.4l0.1,0.4l1.3-0.8l1-0.4
	l0.5,0.1l0.9,2l1,0.4l0.7,0.3l0.3,1.1l0.5,0.8l0.1,0.3l0.1,0.2l-0.2,1l-0.7,1.2l-1.4,0.4l-0.2-0.3l-0.5-0.1l-0.5,0.3l-0.9,2.2v0.1
	l0.4,1.8l-0.3,0.6l-0.6,0.5l-0.3,1.3l-1,1.3l0.2-1.3l-0.4-1.3l-1.9-0.7l-1.3,0.8l-0.4,0.4l0.2,0.7l-0.8,0.7l-0.2,0.5l-0.3-0.2
	l-0.4-1.2l-1,1l-0.5,0.1l-0.5-0.2l-1,1.2l-0.6-0.1l-0.1,2l-2.6,1l-0.8-0.3l-1.5-0.1l-0.7,0.5l-0.4-1l-0.3-0.2l-0.5,0.3l-0.8,1.8
	l-0.6,0.2l-1,1.8l0.5,1.8l-0.5,0.6l-0.4,1.1l-1.2,1.2l-0.2,0.6l-0.6,0.5l0.9,2.4l0.1,0.7v1.7l2,2.7l0.9,0.5v0.2v0.3l-0.1,0.2
	l-0.1,0.3l-0.3,0.5l-0.6-0.1l-0.6-0.1l-0.2,0.6l0.2,0.7l0.1-0.1l0.1-0.1l0.1-0.1l0.1-0.1l0.1-0.1h0.1h0.1h0.1l0.1,0.1l0.1,0.1
	l0.1,0.1l0.1,0.1l0.1,0.1l0.1,0.1l0.1,0.1l0.1,0.1l0.1,0.1h0.1h0.1h0.1h0.1h0.1h0.1h0.1l0,0h0.1l0.1,0.1l0.1,0.1l0.1,0.1l0.1,0.1
	v0.1v0.1v0.1v0.1v0.1v0.1v0.1v0.1l-0.1,0.1h-0.1h-0.1h-0.1h-0.1h-0.1h-0.1l-0.1,0.1l-0.1,0.1l-0.1,0.1l-0.1,0.1v0.1v0.1v0.1v0.1
	l-0.1,0.1l-0.1,0.1v0.1v0.1v0.1v0.1v0.1l0.1,0.1l0.1,0.1l0.1,0.1l0.1,0.1h0.1h0.1h0.1h0.1h0.1h0.1h0.1h0.1h0.1h0.1h0.1h0.1h0.1h0.1
	v0.1v0.1v0.1v0.1v0.1v0.1v0.1v0.1l0,0v0.1l-0.1,0.1l-0.1,0.1l-0.1,0.1l-0.1,0.1l-0.1,0.1l-0.1,0.1l-0.1,0.1l-0.1,0.1l-0.1,0.1
	l-0.1,0.1l-0.1,0.1l0.2,0.1h0.1h0.1h0.1l0.1-0.1l0.1-0.1l0.1-0.1l0.1-0.1l0.1-0.1l0.1-0.1l0.1-0.1l0.1-0.1l0.1-0.1l0.1-0.1h0.1h0.1
	h0.1l0,0l0.1-0.1l0.1-0.1l0.1-0.1l0.1-0.1l0.1-0.1l0.1-0.1h0.1h0.1h0.1h0.1h0.1l0.1,0.1l0.1,0.1l0.1,0.1l0.1,0.1l0.1,0.1l0.1,0.1
	l0.1,0.1l0.1,0.1l0.1,0.1l0.1,0.1l0.1,0.1l0.1,0.1l0.1,0.1l0.1,0.1l0.1,0.1l0.1,0.1l0.1,0.1l0.1,0.1l0.1,0.1v0.1v0.1v0.1l-0.1,0.1
	l-0.1,0.1l-0.1,0.1l-0.1,0.1l-0.1,0.1v0.1v0.1v0.1v0.1v0.1v0.1v0.1v0.1v0.1v0.1v0.1v0.1v0.1l-0.1,0.1l-0.1,0.1l-0.1,0.1l-0.1,0.1
	v0.1v0.1l-0.1,0.1l-0.1,0.1l-0.1,0.1l-0.1,0.1l-0.1,0.1l-0.1,0.1v0.1l0,0l-0.1,0.1l-0.1,0.1l-0.1,0.1l-0.1,0.1l-0.1,0.1l-0.1,0.1
	l-0.1,0.1l-0.1,0.1l-0.1,0.1l-0.1,0.1v0.1v0.1v0.1l0,0v0.1v0.1v0.1v0.1v0.1v0.1v0.1v0.1v0.1v0.1v0.1v0.1l-0.1,0.1l-0.1,0.1l-0.1,0.1
	l-0.1,0.1l-0.1,0.1l-0.1,0.1l-0.1,0.1l-0.1,0.1l-0.1,0.1l0,0l-0.1,0.1l-0.1,0.1l-0.1,0.1l-0.1,0.1l-0.1,0.1l-0.1,0.1l-0.1,0.1v0.1
	v0.1v0.1l0.1,0.1l0.1,0.1l0.1,0.1l0.1,0.1l0.1,0.1l0.1,0.1l0.1,0.1l0.1,0.1l0.1,0.1l0.1,0.1l0.1,0.1l0.1,0.1l0.1,0.1v0.1l-0.1,0.1
	h-0.1l-0.1-0.1l-0.1-0.1h-0.1h-0.1h-0.1h-0.1h-0.1h-0.1h-0.1l0,0h-0.1h-0.1l-0.1-0.1h-0.1h-0.1l-0.1-0.1l-0.1-0.1l-0.1-0.1l-0.1-0.1
	l-0.1-0.1l-0.1-0.1h-0.1H455h-0.1h-0.1h-0.1h-0.1h-0.1l-0.1,0.1l-0.1,0.1l-0.1,0.1l-0.1,0.1l-0.1,0.1l-0.1,0.1l-0.1,0.1l-0.1,0.1
	l-0.1,0.1l-0.1-0.1l-0.1-0.1v-0.1v-0.2v-0.1v-0.1v-0.1v-0.1v-0.1V593v-0.1v-0.1v-0.1v-0.1l-0.1-0.1l-0.1-0.1l-0.1-0.1l-0.1-0.1
	l-0.1-0.1l-0.1-0.1l-0.1-0.1l-0.1-0.1l-0.1-0.1l-0.1-0.1h-0.1h-0.1l0,0h-0.1H452l-0.1,0.1l-0.1,0.1l-0.1,0.1l-0.1,0.1v0.1v0.1v0.1
	v0.1v0.1l-0.1,0.1l-0.1,0.1l-0.1,0.1l-0.1,0.1l0,0l-0.1,0.1l-0.1,0.1l-0.1,0.1l-0.1,0.1l-0.1,0.1l-0.1,0.1l-0.1,0.1l0,0l-0.1,0.1
	l-0.1,0.1l-0.1,0.1l-0.1,0.1l-0.1,0.1l-0.1,0.1l0,0v0.1v0.1v0.1v0.1l0,0l0.1,0.1l0.1,0.1l0.1,0.1h0.1h0.1h0.1l0.1,0.1l0.1,0.1v0.1
	v0.1l-0.1,0.1h-0.1h-0.1h-0.1h-0.1h-0.1H450h-0.1h-0.1h-0.1h-0.1h-0.1h-0.1l-0.1,0.1l-0.1,0.1l-0.1,0.1l-0.1,0.1l-0.1,0.1l-0.1,0.1
	l-0.1,0.1l-0.1,0.1l-0.1,0.1l-0.1,0.1l-0.1,0.1l0.1,0.1l0.1,0.1v0.1l-0.1,0.1l-0.1,0.1l-0.1,0.1h-0.1H448h-0.1l-0.1,0.1l-0.1,0.1
	l-0.1,0.1l-0.1,0.1v0.1v0.1v0.1l0.1,0.1l0.1,0.1l0.1,0.1l0.1,0.1l0.1,0.1l0.1,0.1l0.1,0.1l0.1,0.1v0.1v0.1v0.1v0.1v0.1v0.1l-0.1,0.1
	l-0.1,0.1l-0.1,0.1l-0.1,0.1l-0.1,0.1l-0.1,0.1l-0.1,0.1v0.1v0.1l-0.1,0.1l-0.1,0.1l0,0v0.1l-0.1,0.1l-0.1,0.1l-0.1,0.1v0.1l0,0
	l-0.1,0.1l-0.1,0.1l-0.1,0.1l-0.1,0.1l-0.1,0.1l-0.1,0.1l-0.1,0.1l-0.1,0.1l-0.1,0.1l-0.1,0.1l-0.1,0.1l-0.1,0.1l-0.1,0.1l-0.1,0.1
	l-0.1,0.1h-0.1h-0.1h-0.1h-0.1l-0.1-0.1H445h-0.1h-0.1h-0.1h-0.1h-0.1l-0.1,0.1l-0.1,0.1l-0.1,0.1l-0.1,0.1l-0.1,0.1l-0.1,0.1
	l0.1,0.1v0.1l-0.1,0.1l-0.1,0.1l-0.1,0.1l-0.1,0.1l-0.1,0.1v0.1v0.1l0.1,0.1l0.1,0.1l0.1,0.1l0.1,0.1l0.1,0.1l0.1,0.1l0.1,0.1
	l0.1,0.1l0.1,0.1l0.1,0.1v0.1v0.1v0.1v0.1v0.1l-0.1,0.1l-0.1,0.1l-0.1,0.1l-0.1,0.1l-0.1,0.1l-0.1,0.1l-0.1,0.1l-0.1,0.1l-0.1,0.1
	l-0.1,0.1l-0.1,0.1l-0.1,0.1l-0.1,0.1l-0.1,0.1H443h-0.1h-0.1h-0.1h-0.1h-0.1l0.5,4.4l-0.1,0.1l-0.1,0.1l-0.1,0.1v0.1v0.1l0.1,0.1
	l0.1,0.1l0.1,0.1l0.1,0.1l0.1,0.1l0.1,0.1l0.1,0.1l0.3,1.1l2,3.3l0.2,1.4l1.1,0.9l0.4,1.5l-0.4,1.7l-0.7,1.3l-1.6,1.7l-1.5-0.2
	l-1.3-0.5l-1.5-0.1l-1,2.9l0.4,3.3l-0.4,1.8l-0.4,1l-0.2,0.5l2.4,2.3h0.7l1.3,0.5l2.2,0.9l0.4,0.7v1.8l0.3,1.4l0.2,0.8l0.5,0.7
	l2-1.6l0.4-0.3l0.4,0.5l0.5,0.3l0.7-0.3l0.7,1.2l0.2-0.1l0.2-0.1l0.6,0.3l-0.3,2.2l0.1,0.9l1.5,2.8l2,0.4l1.8-1.1l1.9-0.1l0.8-0.3
	l0.9-0.9l0.6-1l0.8-0.4l0.8,0.1l0.5,0.5v0.4v0.6l-0.3,1.1v1.2l-0.3,1.1l-0.7,1.4l-1,1.4l-0.2,0.6l-0.2,0.7l-0.3,0.4l-0.3,0.5
	l-0.4,0.5l-0.3,0.3L459.6,657.1z"/>
<path id="D781" class="st0" d="M401.3,493.4c-0.1-0.4-0.5-1.8-1.7-2.4
	c-0.7-0.4-1.1-0.1-3.9-0.1c-1.5,0-2.1-0.1-2.6-0.1c-1.4-0.2-2.5-0.4-2.7-1c-0.3-0.9,1.5-1.8,1.2-2.7c-0.2-0.6-1.4-0.8-2.2-0.5
	c-0.2,0.1-0.5,0.3-1.1,1.3c-0.3,0.5-0.7,1.2-1.1,2.1c-0.4,0.4-0.8,0.9-1.1,1.3h-1.4l-0.8-1.2v-0.9l-1.9-1.3l-0.3-2.2l0.6-1l1.1-0.6
	l0.1-1l-0.8-1.2l0.3-0.9l1.3-1.1l1.3-3.3l0.6-2l-0.4-1.9l0.5-0.9l0.3-1.3l-0.8-1.5l-1.1,0.8l-1.6-0.4l0.5-2.2l-0.3-1l-0.7-0.9
	l-1.1-1l2.5-3.4h3l0.4,0.9l0.9,1.9l0.3,0.3h1.2l1.4-0.8l2,3.2l0.9,2l0.7,0.5l0.5-0.5l0.8-2l0.3-0.5l2-0.4l1.4-0.9l0.4-0.7l0.6,0.7
	l2.7,1.3l0.8,1.3l0.6,0.1l1.3-1.3l0.6-0.6l-3.3-2.7l-0.3-0.7l-0.6-2.7l-1.7,0.4v-2.2l0.8-1.5h1.3l1.2,0.2l0.4,1.7l-0.2,1.1l1-0.1
	l1.1-0.7l1.7-0.5l1.7,0.1l1-1.2l0.4-2.2l1.5-1.5l0.3-0.6l1.2,0.3l1.8,3.7l1,0.1l2.3-1.5l1.5,0.3l0.6,0.8v0.9l0.4,1l1.5,0.9l0.5,1.4
	l-0.2,1.8l-3.5,1.9l-0.1,1.9l0.8,1.1l1.7,1.1v2.4l1,1l1.7,0.3l1.1-1l1.2-0.1l1.2,0.8l0.9,2.3l-1,1l-0.3,0.6l0.6,0.5l0.3,2.4l1.6,1.6
	l0.8-0.1l1.4-0.6l1.2-1l0.5-2.1l0.4-0.6l2.1-1l1.5-1.2l0.6-0.3h0.8l1.4-0.6l0.6-0.4l0.6-2l0.7-0.3l3-0.6l0.4,0.3v1l0.3,0.4l0.1,0.8
	l-0.1,1l0.6,2.4l0.4,0.5l1.4,0.2l2.4,1.7l0.6-0.3l0.5-0.4l0.5,0.5l-0.3,2.4l0.5,0.8l0.5,0.5l0.9-0.1l1.2,0.6l-0.5,1.3v1l-0.6,1.3
	v0.4l1.4,1.6l0.1,0.6l0.7,1.1l-0.2,0.8l-0.9,1.6l-0.4,2l-0.3,0.8c0,0.1-0.1,0.3-0.1,0.4c0.2,0.3,0.4,0.7,0.3,1.1s-0.5,0.7-1.2,1.2
	c-0.8,0.5-1,0.5-1.2,0.9c-0.3,0.4-0.4,0.9-0.4,1.1c-0.1,0.4-0.2,1,0.1,1.6c0.2,0.4,0.5,0.6,1,1c1.1,0.8,1.6,0.6,1.9,1.2
	c0.1,0.2,0.1,0.6,0,1.3c-0.1,0.5-0.2,0.8,0,1.2c0.1,0.3,0.3,0.5,0.3,0.6c0.5,0.5,1.3,0.3,1.4,0.6c0,0.1-0.1,0.3-0.8,0.9
	c-1.1,1-1.3,1.1-1.5,1.1c-0.5,0-0.6-0.4-1.2-0.3c-0.3,0-0.6,0.3-0.9,0.6c-0.5,0.5-0.4,0.7-0.9,1.3c-0.5,0.6-1.1,1-1.2,1.1
	c-0.5,0.4-0.6,0.3-0.7,0.5c-0.2,0.5,0.5,1,0.7,2.3c0.1,0.3,0.1,0.5,0,0.6c-0.2,0.6-1.1,0.6-1.3,1.2c-0.1,0.3,0.1,0.4-0.1,0.6
	c-0.1,0.1-0.2,0.2-0.6,0.4c-0.4,0.1-0.5,0.2-0.7,0.2c-0.4,0.1-1,0.3-1.1,0.6c-0.2,0.5,0.8,0.9,0.8,1.8c0,0.5-0.3,0.8-0.7,1.3
	c-0.6,0.8-0.9,0.7-1.2,1.2c-0.6,1,0.1,2.3-0.3,2.4c-0.3,0.1-0.9-0.8-1.3-0.6c-0.2,0.1,0.1,0.6-0.2,0.8c-0.4,0.4-1.9-0.5-2.9-1.3
	c-0.6-0.5-0.9-0.9-0.9-1.1c-0.2-0.3-0.6-0.9-0.7-1.7c-0.2-1.1,0.4-1.3,0.2-2.4c-0.1-1.1-0.6-1.3-0.4-1.9c0.2-0.7,0.8-0.6,1.3-1.3
	c0.7-1-0.1-1.7,0.3-3.6c0.3-1.4,0.8-1.4,0.9-2.7c0-0.4,0.1-1.9-0.8-2.8c-0.4-0.4-1-0.7-4-0.4c-3.7,0.3-4.6,0.9-6.2,0.3
	c-0.5-0.2-1.9-0.6-2.4-1.8c-0.6-1.3,0.3-2.9,0.8-3.9c0.7-1.3,1.4-1.8,2.1-3.6c0.2-0.4,0.3-0.7,0.3-1c0.5-0.2,0.8-0.6,0.8-1
	c-0.1-0.5-0.8-0.8-1.2-0.6c-0.3,0.1-0.5,0.4-1.2,0.8h-0.1c-2.3,1.1-2.3,4.1-4.1,4.3c-0.9,0.1-1.9-0.4-2.2-1.2
	c-0.6-1.8,3.3-4.1,2.7-5.3c-0.2-0.5-1.1-0.5-1.6-0.4c-1.4,0.2-2.4,2-3,3.6c-0.3,0.8-0.5,1.7-1.4,2.6c-0.3,0.3-1.2,1.3-1.9,1.1
	c-0.6-0.2-0.4-1.1-1.4-2.6c-0.7-1-0.9-1.2-1.1-1.1c-0.6,0.1-0.4,1.3-1.3,2.4c-0.8,1.1-2.2,1.6-3.3,1.7c-2.3,0.2-3-1.9-4.6-1.3
	c-1.3,0.5-2.2,2.1-2.7,3.1c-1,1.8-1,2.9-1.7,3s-1.6-0.6-2-1.3c-0.4-0.7-0.5-1.5,0.1-5C401.3,495.4,401.7,494.7,401.3,493.4z"/>
<path id="D039" class="st0" d="M475.5,348.1l2.1-1.1l0.3-0.8l-0.2-1.3l-1.3-1.9l0.5-1.4l0.8-1.1l-0.2-1l-1.6-3.3v-0.8l0.3-0.6l2-1.1
	l1.8-0.7l0.7-1.7l0.9-3.7l2-5.5l0.8-0.2l2.6,2.3l2.2-0.8l0.7,0.2l0.9,1l1.5,2.7l2.9,2.3l1.1-0.4l1.5-0.9l0.6-1l0.8-0.7l0.7-0.4
	l0.6,0.2l0.3,0.6l0.3,1.7l0.8,1.2l1.1,0.9l0.7,0.2l0.8,2.3l1.5,2.7l1,2.7l1.2,4.1l0.8,1.5l5.3,5l0.7,1.7l1.3,1.2l0.5,2l-0.6,2.2
	l0.9,1.6l0.4,2.3l3.1,5.6l1.2,0.7l0.9,3.1l2.5,3.5l3.2,3.4l1.8,1.4l1.2,0.8l0.8,1.4l-1,3l-0.4,0.5l-0.6,0.4h-2.4l-0.4,0.3l-2-0.4h-1
	l-1.9,0.9l-3.9,0.8l-3.4-0.5l-0.8,0.1l-0.4-0.2l-1.2,0.2l-0.3-0.1l-0.2-0.5l-0.6-0.1h-2.9l-1.7,0.4l-0.6-0.2l-0.4,0.2l-0.3,0.5
	l-1,0.4l-1-0.2l-1.3-0.7l-0.8-0.8l-0.2-0.5l-0.3-0.1l-2.4,0.2l-0.5-0.3l0.2-0.6l0.1-1.1v-1.2l-0.3-0.5l-0.9,0.1l-0.7-0.2l-0.8,0.2
	l-0.7,0.7l0.3,0.4l-3.1,0.6v1.4l-0.4,0.3l-2.7,0.2l-0.5-0.2l-0.7-0.5l-1-2.1l-0.8-1l-1.2,0.2l-1.5-0.9l-1.9,0.1l-2.2-0.2v-0.4
	l-0.8-1.3l-1.1,0.1l-2.4,0.8l-1.7,0.5l0.7,1l-0.3,0.9l-0.9-0.2l-0.8-0.7l-1.7,0.8l-2.8,0.6l-1.5,0.8l-1.1,0.2l-3.6-0.3l-2,0.1
	l-0.6-0.2l-0.6-0.6l-1.5-0.7l-1.7-0.4l-3.6-0.4l-1.5,0.4l-1.8-0.1l-3.8,0.3l-1.5-0.2l-1.3,1.6l-0.8-1.4l-0.8-1.3l0.3-1l-0.2-1.3
	l-1.5-0.3l-2.2-1l-2-0.7l-0.2-0.1l-0.7-0.5l-0.9-2.6l-1-5l0.3-1.1l-0.6-0.6l-1.5-0.5l-0.2-1.1l0.3-1.9l-0.4-0.5l-0.5-3.6l-2.7-1
	l0.3-1l0.6-1.1l-0.9-0.8l-2.1-5.1l-0.1-1.8l-0.2-1.7l0.2-1.8l-1.1-0.2l-0.4,1.8l-1.2-0.8l0.5-3.5l-0.8,0.2l-1.1,0.8l-0.8-0.6l-0.7-1
	l-1.2-1.1l-1.2-0.4l-0.1-1.4l-0.9-0.5l-1-0.2l-1.1,0.2l-1.4-0.4l-1.3-1.2l-1.5,0.3l-0.7-0.8l-3.4-1.3l-0.5-1.4l1.7-1.3l0.5-1
	l1.3-1.1l1.2-0.7l2-0.2l0.9-1.1l2.6-1l1.1-0.7l0.6,0.3l0.6-0.3l0.1-2.4l-0.5-0.7l-0.5-1.2l-0.2-1.5l-1-0.8l-1.1-3.3l0.4-1.5l2.1,0.1
	l0.3,0.9l1.1,0.7l0.9,0.1l0.8,0.5l0.7,1.5l-0.1,1.4l-0.7,0.5l0.1,2.2l-0.3,1l0.9,0.4l1.2-1l1.1-0.4l0.5-1.3l1.8-0.2l0.6-0.5l0.9-1.1
	l-0.6-0.7l-1.7-0.2l-0.3-0.8l-0.8-1.4l1.6-1.2l2,0.7l1.2-0.1l0.9,0.7l0.4,0.9l0.6,0.6l0.6-0.6l0.8-0.5l1.1,0.2l0.7,1.7l0.9,0.4
	l0.2,1.1l-0.1,0.8l1.5,0.1l1.1-0.4l0.5,0.8l4-1.4l-0.2,0.9l1,1.8l0.7,0.8h1l2-2.9l0.8-0.5l0.6,1.2l-0.1,1.7l0.4,1.3l3,2l0.9,1.1
	l0.1,0.7l-0.5,0.4l-0.8,1.3l0.6,0.7l0.7-0.5l1.4,0.1l0.9-0.5l-0.2-1.7l2.1-0.8l0.9,0.7l1.2,0.3v1.6l0.2,0.9l0.1,1.7l-0.5,1.7
	l1.1,0.6l0.8,2.9l0.6,1.3l0.8,0.5l0.7,0.9l1.4,1.1l1,0.2l1.3-0.2l1,3.7l0.5,0.7l1.2-1.3h1.2l0.5,0.8l-0.1,1.5l2.2,0.9l0.5,1.1h1.7
	l0.7,0.4L475.5,348.1z"/>
<path id="D050" class="st0" d="M233.5,351.2l-0.5,1l-0.9,1l-1.8-2.7l-0.2-1.2l-4.6,0.5l-0.4,2.3l-0.5,1.7l-1.5-0.1l-1.1-0.8l0.2,1.5
	l-0.3,1.2l-3,0.1l-2.6-0.2l-0.3-1.1l-0.8-1.2l-0.5-0.1V353v-0.1l-0.1-0.4L214,352l-0.7-0.2l-0.3-1.2l-0.3-0.8l-0.2-0.1l-0.1-0.1
	v-0.2l-0.1-0.1l-1.3,0.2l-0.9,0.8l-0.8-0.2l-0.3-1.2l-0.2-0.2l-0.6-0.4l-0.3,0.1l-0.2,0.3l-1.7,0.8l-0.4,0.4l-0.4,1l-0.8,0.7
	l-1.1-0.3v-1.1l0.2-1.2l0.1-0.8V348l-0.2-0.2l-0.2,0.1L203,348l-0.1-0.1l-0.2-0.1l-1.2,0.2l-0.1,0.1l-0.6,0.4l-0.1,0.1l-0.4,0.2
	l-0.2-0.1l-0.9-0.6l-1.1,0.1l-0.5,0.4l-0.1,0.3v0.8l0.1,0.3l0.2,0.1h0.2l0.3,0.4l0.1,0.1l0.1,0.4l0.1,1.7v0.1l0.2,0.6l0.2,0.2v0.6
	l-0.1,1.3l-0.3,0.8l-0.3,0.5v1.5l-0.6,0.8l-0.2-0.4l-0.4-0.1l-0.1-0.2v-0.2l-0.1-0.4l-0.5-0.5l-0.5,0.1l-0.2,0.4l-0.1,0.3l-0.5,0.4
	h-0.4h-0.2l-0.3,0.2l-0.3,0.2l-0.2,0.1l-0.8,0.9l-1.4-0.6l-0.8,0.2l-0.2,0.1l-0.8-0.4V359l-0.1-0.1l-0.1-2.3l-0.1-0.2l-0.2-1
	l-0.1-0.4l0.1-1.3l0.1-0.3v-0.8v-0.3l-0.1-0.8l-0.1-0.3l-0.1-0.1v-0.2l-1.1-0.5l-0.3,0.1l-0.7,0.3l-0.3,0.3l-0.3-0.1l-0.2-0.7
	l-0.1-0.1l-0.1-0.4l-0.1-0.1l-0.1-0.5l-1-0.6h-0.3l-1.7-0.8l-0.1-0.2l-0.1-0.5l0.2-2.6v-0.3l-0.1-0.1l-0.2-1.8v-1.5l0.1-0.6
	l-0.1-0.8l-0.1-0.1l-0.3-2V337v-0.1l0.2-0.6v-0.2l0.3-0.2l0.5,0.1l0.2-0.1l0.1-0.3v-0.4l-0.3-1l0.1-1.1l0.5-0.7l0.2-0.6l0.3-0.9
	l0.2-0.6v-0.6l-0.1-1.2l-0.1-0.2l-0.4-1.1l0.1-1.9l0.4-1.3l1-1.2l0.4-1.2l0.1-0.2v-0.3V321l-0.1-0.5l-0.1-0.1v-0.2l-0.3-0.3
	l-0.2-0.7l-0.3-1.5l-0.1-0.1l-0.1-0.6l-0.5-0.4l-0.1-1l0.3-0.7l0.6-0.5l0.1-0.1l0.3-1.4l0.1-0.4l0.5-1l0.5-1.1l1-0.9l3.8,0.1
	l2.7-8.5l0.1-0.6l0.3-0.8l0.4-1.3l3.9-11.8l1.2-1.6l4-4.4l0.2-0.2l1.2-4l0.8-2.6l0.8-0.9l0.2-0.9v-0.4l-0.2-0.5l-0.1-0.2l-1.1-1
	l-0.3-0.2v-0.4L205,269l-0.4-0.3l-1.3-1v-0.2l-0.1-0.1l0.1-0.3l0.5-0.6l0.3-0.7l0.1-0.3l-0.4-0.1h-0.3l-1.4,0.3l-0.2-0.1l-0.7-0.2
	l-0.8-0.6l-0.3-1.2l-0.2-0.2l-0.8-0.6v-0.1l-0.2-0.2l0.6-0.1l0.7,0.1l0.5-0.4l0.4-0.1l0.4,0.5l0.5,0.4l0.5-0.9l1.3-1.1l0.7-1
	l0.5-0.5l0.8-0.6l0.9-0.9l0.8-1.3l0.6-1.2l0.5-0.8l1-0.1h0.8l0.8,0.5l0.7,0.7l0.3,0.5l0.5,0.4l0.6,0.1l1.5,0.1l0.6-0.3l1.1-1
	l0.4-0.5l0.9-0.3l0.7-0.2l0.6-0.7l0.4-1.1l0.1-1.2l1.1-2l1-1.1l0.5-0.4l1.2,0.8l1-1.1l1.7,0.6l1.5,0.7l0.7-1.4l1.2,0.5l1.5-1.9h1.1
	l0.1,1.3l1.2,1.6l2-0.3l-0.2,2.1l1.1,2l0.5,1.1l1.3-0.9l0.8,0.7l1.1,0.6l0.3,1l3.4-1l0.7-1.4l1.1,0.6l1-0.1l0.3-1.7l1.2-1.6l1.3-0.3
	v1.6l1,1.3l-0.6,1.1v1.8l1.1,1l1.5-0.6l1.4-0.3l1.7,0.4l2,1L256,260l0.4,1.6l1.3,0.8l0.4,1.2l1.5-1.8l0.2-1.4l0.4-1.1l2.5,0.3
	l0.1-1.8l0.4-1.5l1.2,0.3l-0.3,0.6l0.7,0.5l-0.5,0.7l0.1,0.9l-0.1,1.1l0.7,0.7l1-0.6l-0.3-0.8l0.5-1l1.5-0.1l-0.1-0.9l0.3-0.7h1
	l0.7,0.9l0.8-0.4l-0.1-0.5l0.3-0.2l0.7,0.1v0.4l1.1-0.3l0.4-0.9l0.9-1l0.4-1.6l0.9-0.5l1.6,0.1l1.4,1.1l0.9,1.6l1.1-0.1l-0.2,1.4
	l1.8,1.5l3.9-0.8l1,2.6l1.8,3.7l1.1-1.2l0.8-1.2l0.8-0.2l1.2,0.1l1.2-0.3l1.7-1.1l1.1-1.8v-1l2-1.2l1.1,1.5l0.8,0.6l-0.8,2.2h-0.6
	l0.3,0.9l0.9,0.6l1.3,0.7l1.2-0.8l0.4,1.2l0.4,0.4l3.3,1.3l1.1-0.4l2.8-2.1l0.7,0.9l0.4,0.8l1,0.1l1.4,1.2l1.4,1.4l-1.3,0.2
	l-1.8,1.4l-2.1,3.1l-0.7,1.6l-0.6-0.2l-0.9-0.8l-1.2,4.1l-0.6,4.4l-1.9,0.2l-1-3.4l-1.3-0.1l-1.4,0.6l-0.6,0.9l-0.8,3.2l0.3,0.9
	l0.6,0.6l0.4,0.8l-0.4,0.7l-0.5-0.6l-1,1l-0.4,0.6v0.4l0.3,0.6l-2.3,4.1l-0.8-0.7l-0.5-0.1l-0.6,4.2l0.6,0.7l1.6-0.5l-1,1.6
	l-3.7,5.1l-0.3,0.7l0.4,2.1l-2.2,2.5l-2.3-1.9l-0.8,0.2l-1.3,0.6l0.5,1.4l-2,3.6l-1,2.6l1.8,1.3l-1,0.5l-1.4,0.3l-1,0.6l-0.4,1.1
	l0.3,0.3l-0.5,1.3l0.1,1.2v1.8l-1.9,2.3l-2.1,3.2h0.8v1.8l-0.3,1.4l-0.8,0.8l-0.7,1.2l-0.1,0.7l0.3,0.4l-0.6,1.3l-2.7,1l-2.3,1.8
	l-1.7,1.7h-0.9l-1.5,0.5l-0.3,1.1l-1.3,1.7l-3.3,1.2l-3.6,1l-2.8-1.4l-2.1-1.2l-1.2,1.3l-1.3-0.1l-1.9-1l-2.4,2.1l-3.9,2.9l-1.9,1.2
	l-3.1,0.2l-2.3-0.5l-1.5,0.4L233.5,351.2z"/>
<text transform="matrix(1 0 0 1 218.3066 227.7012)" class="textName">Amritsar</text>
<text transform="matrix(1 0 0 1 327.7092 521.8701)" class="textName">Barnala</text>
<text transform="matrix(1 0 0 1 235.0684 575.3721)" class="textName">Bathinda</text>
<text transform="matrix(0.5777 0.8163 -0.8163 0.5777 198.6699 446.6198)" class="textName">Faridkot</text>
<text transform="matrix(1 0 0 1 474.5674 474.3965)" class="textName">F.Sahib</text>
<text transform="matrix(1 0 0 1 95.0342 604.1895)" class="textName">Fazilka</text>
<text transform="matrix(1 0 0 1 181.2197 406.998)" class="textName">Ferozepur</text>
<text transform="matrix(1 0 0 1 268.2192 172.731)" class="textName">Gurdaspur</text>
<text transform="matrix(0.6011 0.7992 -0.7992 0.6011 383.9536 205.3555)" class="textName">Hoshiarpur</text>
<text transform="matrix(1 0 0 1 323.834 362.9316)" class="textName">Jalandhar</text>
<text transform="matrix(0.5194 -0.8545 0.8545 0.5194 298.1374 332.0817)" class="textName">Kapurthala</text>
<text transform="matrix(1 0 0 1 378.9463 428.2461)" class="textName">Ludhiana</text>
<text transform="matrix(1 0 0 1 385.9783 485.8701)" class="textName">Malerkotla</text>
<text transform="matrix(1 0 0 1 322.8679 641.8701)" class="textName">Mansa</text>
<text transform="matrix(1 0 0 1 273.2217 438.3076)" class="textName">Moga</text>
<text transform="matrix(1 0 0 1 402.7944 91.0581)" class="textName">Pathankot</text>
<text transform="matrix(1 0 0 1 488.761 544.8701)" class="textName">Patiala</text>
<text transform="matrix(1 0 0 1 556.9746 349.5596)" class="textName">Rupnagar</text>
<text transform="matrix(1 0 0 1 390.0435 581.8701)" class="textName">Sangrur</text>
<text transform="matrix(1 0 0 1 609.7139 473.2979)" class="textName">Sahibzada Ajit</text>
<text transform="matrix(1 0 0 1 609.7139 487.4609)" class="textName">Singh Nagar</text>
<text transform="matrix(0.9779 0.2091 -0.2091 0.9779 432.5128 355.6135)" class="textName">S.B.S.Nagar</text>
<text transform="matrix(1 0 0 1 176.0767 529.2266)" class="textName">Sri</text>
<text transform="matrix(1 0 0 1 158.5767 546.0266)" class="textName">Muktsar</text>
<text transform="matrix(1 0 0 1 166.3767 562.8267)" class="textName">Sahib</text>
<text transform="matrix(0.8097 -0.5868 0.5868 0.8097 207.7803 336.0784)" class="textName">Tarn Taran</text>
</svg>
