<?xml version="1.0" encoding="utf-8"?>
<!-- Generator: Adobe Illustrator 26.0.0, SVG Export Plug-In . SVG Version: 6.00 Build 0)  -->
<svg version="1.1" id="Layer_1" xmlns="http://www.w3.org/2000/svg" xmlns:xlink="http://www.w3.org/1999/xlink" x="0px" y="0px"
	 viewBox="0 0 800 730" style="enable-background:new 0 0 800 730;" xml:space="preserve">
<style type="text/css">
	.st0{stroke:#000000;stroke-miterlimit:10; cursor:pointer;}
	.textName{font-family:'Arial'; font-weight:bold; color:#000000; font-size:14px; cursor:pointer;}
</style>
<path id="D119" class="st0" d="M372,454.7l1.5,0.4l1.7,2.9l2.9-2.1l1.8-3.1l-2.5-1l2.8-3.2l1.8,0.1l3.8-2.1l0.2-1.6l-2.9-4.4
	l-3.5-3.3l-4.7,3.2l-0.8,6l-1.9,2.9L372,454.7z M392.1,438.8l3,0.5l5.7-4.9l3.1-0.9l-1.3-2.6l4.4-3.2l3.4,3.7l1.3-0.8l4.8,1.9
	l0.9,2.5l3,0l-0.9-2.7l4.3,1l2.6-1.1l5.1-0.2l5.7,4.5l7.5-1l3,1.8l5.2,0.5l1.5,2.7l-2,2.1l3.2,3.1l1.3,4.2l2.7,3.8l2.1-0.7l0.8-1.9
	l3.2,1.5l1.7,1.6l2.8,0.6l0.5-1.6l4.2-6.4l1.5-4.6l-2.1-4.1l-3.5,0.1l0.2-2.6l-1.2-1.5l0.2-4l4-0.4l1.5-5.6l2-2l-3.4-5.9l2.3-4.9
	l-2.4-1.6l-2.2,1.1l-0.9,3.5l-1.4,2.1l-1.9-2.8l-2.4-0.3l0-5.2l-2.1-1.9l-1.1-6l-1.9-0.8l-0.3-3.2l1.8-3.2l-0.9-3.6l1.3-1.1l-1.1-3
	l2.5-2.3l0.4-4l-1.8-1.1l0.6-2.6l-2.7-2.3l-0.8-3.1l-3.1,0l1.4-5.2l-1-4l-3.4-1.4l-1.6-2.1l-2.5,0.3l-0.1-3.8l2.6-0.8l-1.3-3l-3,1.2
	l-0.5-4.2l-1.3-4.2l2.9-1l1.5-4.2l0.5-4.9l-2.1-2.1l-3.2-1.3l-4.3,0.1l-1.8,5.2l0.3,2.1l-1.9,4.6l-2.2,0.4l0.5,4.9l-2.3,2.7
	l-3.8-0.1l-0.9,3.6l-1.4,2.2l4.2,0.9l-0.1,2.6l-2.1,3.6l-1.4,4.3l-4,2.7l-0.1-3.3l-1.8-2.8l-3.8,6.5l-4.3,6.3l-2.8-0.5l-1,1.6
	l-3.9-0.3l-2.8,4.5l-1.5-1.4l-1.9,0.8l-0.1,3.1l1.2,3.3l0,5.2l-3.7,4.2l1.4,2.5l2.8,0.9l3.9-3.9l2.7,2.4l-2,1.9l0.2,4l-5.4,2.1
	l-1.1,3.3l0.1,2.9l-3.1,4.1l-1.7,3.6l-2.8,1.2l-3.7,6.4l2.1,3.4l-3.1,6.1l4.1,2.1L392.1,438.8z"/>
<path id="D104" class="st0" d="M545.5,320.4l5.2,0.7l2.6-2.8l0.6-3.9l1.7-0.7l0.8,4l1.5,1.3l2.2-3.5l4.1-1.8l0.9-4.2l4.3-0.2
	l2.4,1.1L570,313l1,4.4l4.7-2l7.2,1l2.1,2.8l0.4-3.6l-1.1-2l0.3-2.8l1.4-0.9l1.5-5.7l2.7,2.4l-0.6,4.3l2.6,2.3l2-0.7l0.5-3.2
	l2.4,2.2l1.9,0.1l4.8-1.6l-0.6-2l-3.1-2.4l5.6-3.4l1.9-5.9l3.9-1.2l-0.6-2.8l-3.9,0.8l-2.1-1l-2.6-3.1l-2.2,1.1l-2.6-1.6l-0.2-2
	L594,285l-2.7-3l0.1-3.1l3.1,2.5l4.3,1.5l2.1-2.6l-2.1-2l1.7-5.1l-3.4-1.7l-1.1,2.9l-3-4.3l-0.7-3.2l3.4-0.1l-0.4-3.7l-2.6-1.7
	l-1.8,1.8l-1.3-2.2l1.7-2l-1.9-1.8l0.5-6.5l0.9-4.8l1.4,0.2l0-5.9l-0.5-3l0.4-5.2l-0.5-1.9l2-7.2l1.1-7.1l-1.5-0.5l-4.2-4.2
	l-1.5-3.2l-2.2,0l-3.1,3l0.1,3.5l-2.7,1l-1.2,1.7l-2.1-0.3l-2,3.4l-2.5,0.5l0.9,7.1l-4.5,0.9l-3.8,3.7l-1.1-0.8l0.5-5.8l-6-0.7
	l1-3.9l2-2l-1.9-4.2l-2.6-0.2l-5.6,0.9l-0.5-2.2l-3.2-1.7l-2.2,1.4l5.6,3.9l-1.7,2.1l0.4,3.3l1.2,0.7l-1.2,3.5l-3.4,0l0-1.9
	l-2.8-2.1l-1.3,1.4l-4.1-0.3l1.9,2.8l-2.1,0.8l-1.5,2.9l1.9,1.9l-0.7,6.1l2.6,6l1.3,0.7l2.7,0.1l0.7,3.1l-1.2,3.6l-1.1,0.5l1,6
	l-1.1,2.8l0.2,4.4l-3.2,0.5l1.1,6.7l1.7,2.7l0.5,3.6l-1.3,4.9l0.4,2l-3.8,8.5l-1.6,1.6l-0.6,3l-2,4.3l2.8,2.2l-0.3,3l1.9,0l0.7,6.1
	l3.6-2.9l1-2.5l1.7-0.3l0.9,4.9L545.5,320.4z"/>
<path id="D125" class="st0" d="M435.3,663l0-4.7l-1.8-2.3l-1.9-0.2l-1.9-3.3l-1.8-1.3l-2.1,2.4l-3.2,1l-5.7-0.7l0.9-3.5l-0.3-5.9
	l2.1-0.8l-0.4-8.1l-2.8-1.8l1-4l-2.1-1.2l-1.3-2.8l-3.3,1.8l-3.6,0l-4.8,4.8l-5.7,4.1l-6.1,2.7l-1.2,2.1l-1.2,5.3l1.1,1.9l-1.3,8
	l-3.4,1.1l-0.9,3.4l-2,1.9l-1.5,7.6l0.1,2.4l-3.8,6l2.1,4.3l3.1,0.5l1.2,3.6l4.2,0.1l2.2,2.9l0.2,3.7l-1.1,2l0.2,2.7l2.1,2.1l2,0.5
	l1.8-3.9l3.1,1.3l1.6,2.2l1.2,3.6l-0.4,2.3l2.9,3.1l1.8-0.8l3.2-4l3.1,0.6l2.5,2l3.3-0.3l1.7-1.2l0.7-3l4.5-1.2l4.5-5.5l3.4,0.7
	l2.2-1.7l-3.2-5.8l-2-0.3l-3,1.1l-1.2-2.1l-4.9-0.2l-1.1-3.5l0.9-4l1.9-1.9l0.1-3.5l1.8-1l1.1-3.1l3.3-0.5l0.8-1.7l5.3-3.5
	L435.3,663z"/>
<path id="D128" class="st0" d="M585.9,575.6l0.7-2.6l-2.7-6.3l2.3-1.6l3.9,0.3l1.4,1.2l-0.3,4.7l3.3,2.7l2.4-1.3l4.2-5.2l1-3.7
	l-0.4-7.6l-2.9-7l-3.4-1.6l-0.6-2.7l-3,1l-5.6-0.3l0.1-1.7l-3.2-5.5l2.6-1.4l4.2,0.2l2.3-1l1.6-2.2l-2.6-1.5l0.8-2.2l-3.8-4.3
	l-0.2-5.5l2.3-2.2l4.9-2.1l1.1-2.1l6.8,1.9l2.7-1.1l1-1.9l2.1,0.1l0.9-2.5l3.7,0.3l3-0.9l3,3.4l3.3-1.4l2.8-2.3l0.3-6.4l2-0.5
	l-0.8-3.2l-3.2-2.3l-1-2.1l1.8-3.3l-2.2-8l1.2-2.4l-4.1-2.3l-6.2,6.1l-0.2,4.1l-2,1.9l-2.7-0.2l-2.8-2.1l-2.9-0.4l-2.6,1.4l-1.1,2.3
	l-4.8,0.4l-0.4,1.8l-4.3-4.3l-3.7-0.8l-5.1,1.4l-0.4-2l-1.9-1.1l-4.3,0.2l-3.3-3.4l-2.5-0.8l-1-4.1l-1.1-0.5l-1.3,1.7l-8.2,1.4
	l-0.6,1.9l-5.1-0.9l-2.9,1.4l-1.6,7.8l-1.6,4.7l-2.5,0.9l0.1,4.8l-1.4,2.8l-1.2,7.4l2.2,4.2l5.6,8l1.2-2.4l5.9,0.6l1.8,2.3l0.4,3
	l2.5,0.2l6.5,6.1l-0.2,4l-1.2,1.2l-4.8-1.7l-3.4,3.8l0.1,1.9l2.3,9.2l1.3,1.7l2.7-1l-0.7,7l1.2,2.1l-0.1,5.3l3,2.1l0.1,2.7l4.1,4.9
	l2.9-2.4l2.2,3l1.4-0.6l2.4-3.4l3.2,1.5L585.9,575.6z"/>
<path id="D115" class="st0" d="M174.6,556.2l1.6-4.9l3.9-4.8l-0.6-4.6l3.6-2.6l1.9-2.8l0.8-8.1l3.3-3.4l1.5,0.2l4.9-3l3.1-0.9l1,3.3
	l1.9-1.1l2-3.7l3.2-1.1l3.7,4.6l3.5-4.4l0.7-3.6l4.1-1.5l0.8-3.1l2.5-3.1l0.8-5.7l2.3-1.7l0.6-3.6l3.3-2.2l1.1-3.6l-2.1-2.3l0.8-1.9
	l5-7.9l2.4-3l1.7-0.5l2.3,1.6l1.1,4l4.1-1l4.1,2.7l3.9-0.5l3.4,2.3l1.1-1.6l0-3l1.7-1.9l4,1.7l3.7-1.8l3.5-5l3.6-2.5l-1-2.9l2.7-4
	l6.6-1l3.2,0.3l-0.6-3l-1.8-2.9l2.6-1.9l2.4-5.1l-2.3-1.4l2.3-5.2l1.5,0.7l2.4-2l1.7,0.6l1-2.5l-1-2.1l-2,1l-7.7-7.8l-6-4.3
	l-0.1-2.8l4.9-2.2l-0.4-4.1l1.1-3.3l-1-6.5l0.5-1.2l-4-4.1l-2.7-5l-3.2,1.5l-3.2-1.4l-1.1-2l-1.8-0.2l-2.9,1.4l-1.3,4.6l-2.5,1.3
	l-2.5-1.8l-2.3,2.7l-3.9,0.6l-2.8-2l-1.2-2.4l-3-2.4l-0.5-2.6l-4-1l-1.8-2.9L235,391l-3,2.3l-2.7,0.6l-1.9,1.8l-1.8-0.2l-0.7-3.9
	l-3.1-3.2l-1.2,0.8l-1,3.2l-3.9-1.4l-1.4-2.7l-2.3-1.4l-2.2,0.6l-3.4-3.4l-1-6l-2.7-2.5l-4.2,1.9l-2.1,3.1l-1.9-4l-1.8,0.1l-8.3,7
	l-2.7-4l-4.9,2l-2.4,3.2l0.1,2.5l-3.5,7.5l-1.2,0.6l-3.5-1.9l-0.4,2.2l-1.7,1.7l-2,0.1l-4.8,3.4l-0.8,2.4l3.7,0.3l3.4,4.9l0.8,2.8
	l-1.9,2.6l-1.8,0l-4.1,3.5l0.1,2.6l-4.9-7.3l-9.1-2l-2.8-1.8l0.2-4.3l-2.4-0.1l-2.5,1.4l-5.9-0.3l-4.7,2.5l-5.2-0.4l-1.5-1.9
	l-3.2,5.1l-4.9-0.3l-3.3-0.9l-2.2,3.7l-2.4-2.9l-4.1,0l-3.6,6.4l0,2.5l1,12.2l3.3,6.2l1.8,4l1.8,1.4l3,3.8l2,5.6l0.9,1l8.3,3.4
	l6.6-1.2l3.1,0l5-2.6l3.3-0.3l1.4,0.9l1.1,3.5l-0.4,13.3l0.8,0.5l-1,12.5l5.1,6.6l1.1,4.5l9.9,12.7l2.3,14.5l1.4,5.8l4.3,7.9
	l2.3,5.3l2.7,8.4l3.4,4.2L174.6,556.2z"/>
<path id="D105" class="st0" d="M630.2,351.7l1.2-2.2l-2.6-1.6l0.8-3.2l-1.6-2.3l0.4-2.4l2-0.8l2.3-2.8l7.1-2.6l4.6-3.5l3.6-1.1
	l0.9-2.1l-2.4-4.7l-1,2.5l-4.2-0.6l-2.9-1.9l0.5-2.8l-3.5-1l1.9-2.7l3.8-1.3l1.3-4.4l2.9-0.1l1.3-2.4l-2.3-1.4l0.2-2.3l-2.6-4.8
	l0.5-4.9l-3,1.1l-2.3-1.5l-3.3-3.8l-4.8-1.7l-1.2-2.5l1.1-3.6l-2.6-1.9l-1.3-3.6l-2.6-0.6l-1.1-7l-1.1-1.4l2.3-4l-0.6-5.3l-2.3-0.5
	l0.6-2.3l-0.5-5l-3-2.7l-2,2.9l-6.2-2.6l-0.2,2.5l-3.4,0.1l-2.1-2.3l-2.5-1l-1.1,3.2l4,4.8l-1.8,0.9l-1.5-2l-2.7,0.6l-1.1,3.5
	l-0.6,4.8l0.4,3.7l-3.4,0.1l0.7,3.2l3,4.3l1.1-2.9l3.4,1.7l-1.7,5.1l2.1,2l-2.1,2.6l-4.3-1.5l-3.1-2.5l-0.1,3.1l2.7,3l3.5,1.3l0.2,2
	l2.6,1.6l2.2-1.1l2.6,3.1l2.1,1l3.9-0.8l0.6,2.8l-3.9,1.2l-1.9,5.9l-5.6,3.4l3.1,2.4l0.6,2l-4.8,1.6l-1.9-0.1l-2.4-2.2l-0.5,3.2
	l-0.1,1.8l2.3,2l-1.5,3.2l2.5,4.6l-0.1,2.6l1,5.2l-0.4,1.8l3.3,3.9l1.1,2.8l2-1.4l2.2,3.4l5.4,2.8l1.3,1.5l2.2-2.4l2.6,3.8l2.7-2.1
	l1.9,0.5l-0.7,8.1l2.6,0.4L630.2,351.7z"/>
<path id="D122" class="st0" d="M484.5,518.6l0.2-2.3l-3.4-5.3l0.9-2.4l1.8-1.1l0.7-4.9l0-5l-1.2-3.2l-1.6-0.7l-3.4-3.3l-1.9-0.6
	l-1.3-3.6l-4.5-5.6l1.8-1.4l1.3,1.3l1.7-3.5l2.3-2.1l0.8-2.5l-1-3.1l1.7-1.8l3.7-6.6l0.1-3.1l-1-3.2l3-3.1l-2.8-2.9l-2.5-1.1
	l-5.2-0.5l-4.2,6.4l-0.5,1.6l-2.8-0.6l-1.7-1.6l-3.2-1.5l-0.8,1.9l-2.1,0.7l-2.7-3.8l-1.3-4.2l-3.2-3.1l2-2.1l-1.5-2.7l-5.2-0.5
	l-3-1.8l-7.5,1l-5.7-4.5l-5.1,0.2l-2.6,1.1l-4.3-1l0.9,2.7l-3,0l-0.9-2.5l-4.8-1.9l-1.3,0.8l-3.4-3.7l-4.4,3.2l1.3,2.6l-3.1,0.9
	l-5.7,4.9l-3-0.5l-0.1,1.5l1.8,5.7l-0.8,3.4l-7.1,2.3l-0.3,4.2l1.7,3.6l-0.9,4.3l-2.8,1.1l1.3,2.2l-0.5,1.8l1.6,2.2l-2.5,2.5l-1.4-1
	l-1.6,6.5l2.6-0.7l-0.2,3.5l-1.7,1.8l-0.6,3.3l0.7,1.9l3.6,1.4l-0.5,1.5l-2.4-0.1l-1.1,1.8l1.6,4.6l5.3-0.5l-1.5,5.5l-1.9,0.6
	l0.3,2.9l2.2,1.5l4,0.6l1.2,1.4l0.5,5.1l2,1.1l1.2-2l1.9,0.4l6.5-7.2l4.8-6.2l3.2,3.4l2.8-3.8l1.3,2.4l2.9,0.5l0.8,4.2l1.9-1.5
	l1.6,0.6l3.3-3.9l6.6-0.5l2-1.8l1.4,5.1l3,0.8l2.3-3.1l2.5,1.9l1.9,3l2.4-1.1l0.9,3.3l4.4-2.1l2.7,0.9l3.3-0.7l0.8,1.7l5.6,1.7
	l-0.6,5.4l8.5-0.8l2.9,0.4l0.1,1.6l0.6,0.6L484.5,518.6z"/>
<path id="D101" class="st0" d="M367.7,273.5l-0.2-4l0.7-1.5l-1.6-8.4l-0.5-4.2l0.9-5.2l-3.2-8.2l-0.3-2.4l-5.7-5.1l-3.2,1.5
	l-0.1-2.8l2.1-4.5l-0.3-5.1l-2.2-0.5l-1.9-4.4l4.7-2.7l1.4-2.5l0.1-4.1l1.2-4.6l2-2.9l3.3-1.3l2-2.6l1.8,2.3l3.6,1.4l5.7-2.8
	l4.9-0.7l-2.4-4.8l0.1-2.2l2.6-1.7l-0.5-2.9l0.4-5.1l-0.4-3.1l3.5-5.8l-1.9-5.9l1.2-2.8l6.9-3.1l-1.8-2.5l-2,0l1.4-3.8l-1.8-1.8
	l-2.9,1.2l-2.1-0.8l3.8-5.4l0.7-2.7l-1.3-2.3l-0.1-4l-3.3,0.2l0.4-2.5l-1.6-3.3l-1.6-0.9l-0.6,4.6l0.4,2.6l-3.7,2.9l-1.1-4.1l0.7-3
	l-4.2,1.5l-2.5,2l-5.7-6.4l0.1-3.3l-2-1l-2.2,4.3l-0.9-1.8l-5.4,0.8l-2.3-1.8l-3.9,4l-1-1.2l-2.6,1.4l-2.5-1.7l-2.3,1.9l-2,0.1
	l-2.9-1.8l-3.1,0.4l-4.7,6.4l-3.8,1.1l-2.2,4.4l0.6,3l-3.3,3.5l0,2.2l-3.2,2.7l-5.9,2.4l-1.8,2.8l-3.9-2.5l-1.7,1.1l-8-4.6l-2.4-0.5
	l-1.9-1.8l-1.3,1.7l-7.2-11.7l-9,6.9l-9.9,6.3l-4.3,6.3l-1.8,3.3l-6.8,25.7l-1.8,4.1l-4.2,5.3l-9.5,9.4l-4.8,8.3l-1.3,7.2l-1.2,8.9
	l1.7,3.7l1.9,1.1l3.4-2.9l2.8-0.6l3.3,2.5l1.5,2.6l3.4,2.4l-0.2,2.8l0.9,6.3l-4.5,4.3l1.7,2.5l2.2-0.1l5.3,3.5l2.3,0.1l3.5-3.4
	l3.2,1.5l-1.4,5.6l-3,6.4l0.1,1.9l-0.3,3.5l-2,0.5l-0.2,3.8l2.2,0.2l1.6-3.1l1.9-1.5l2.5,2.3l0.5-3.7l5.1-3.3l0.9-2.4l3.8,0.2
	l4.3-3.4l3.2,1.1l1.5,3.4l3.4,2.8l0.3-3.2l1.5-2.9l1.6,1.6l0.8,3.4l2.8,3l0.5-3.9l4.5-1.6l0.9,4.5l-1.6,1.2l0.4,5.4l3.8-1.1l1.4,6
	l2.7-3.2l0.6,4.2l2.9,2l4-2.6l5.7,0.2l1.8,1.7l0.5,6.7l0.8,2.5l3.3,1.6l0.4-2.6l2.1-2.1l1.9,2.2l-0.3,1.8l1.5,2.9l4.9,5.6l1.7-6.2
	l5.4-4.8l3.9-2.3l-0.7-2.6l2.3-1.4l-1.5-2l0.1-3.7l1.2-1.1l0.2-3.3l1-1.5l3.4,1l2.3-3.3l-1-2.1l2.7-2.6l1.8,0.7l1.8,3.2l3.7-1.7
	l2.6,3.2l2.4-0.7L367.7,273.5z"/>
<path id="D121" class="st0" d="M497,521.4l5.2-3.3l3.4-4.1l1.1-3.8l-1.6-5.3l3.1-3l1.2-2.7l-0.1-3.3l3.1,1.7l4.8,0.6l0.8-2l2.6-2
	l2.3,3.4l3.8-3.6l-0.6-3.6l2.9-1.4l0.7-2l2.8,2l3.2-3.1l-1.4-1l2.7-6.6l0.7-5.3l1.8,0.8l4.8-2.6l1.3-3.3l0.6-8.5l1.6-2.3l-2.5-3.4
	l-1.9,2.1l-1.5-2.1l-3.6-1.4l-3.3-3.9l0.8-1.6l-1.2-2.2l-1.9-0.3l-0.9-2.2l-2.6,0.4l-0.9-1.3l0.5-3.9l-2.9-0.9l-4.6,0.4l-0.7,4.7
	l-3,0.2l0.3-3.1l-1.1-2.2l-4.3,3.3l0.3,3l-4.7-1.8l-0.9,2.8l0,3.6l-1,0.5l-3.8-0.9l-2.4,1.7l-2.2,3.3l-0.7,3.1l-4.3-1.9l-3.8-3.9
	l-2.5,0.2l-0.9,1.6l-3,3.1l1,3.2l-0.1,3.1l-3.7,6.6l-1.7,1.8l1,3.1l-0.8,2.5l-2.3,2.1l-1.7,3.5l-1.3-1.3l-1.8,1.4l4.5,5.6l1.3,3.6
	l1.9,0.6l3.4,3.3l1.6,0.7l1.2,3.2l0,5l-0.7,4.9l-1.8,1.1l-0.9,2.4l3.4,5.3l-0.2,2.3l11.8,0.8L497,521.4z"/>
<path id="D126" class="st0" d="M477.3,519.1l-2.3,1.8l1.4,4.2l-1.5,5.4l-2.2-1.9l-1.5,1.2l-0.4,2.4l3.6,2l1.1-1.7l3.4,0.9l3.8-1.4
	l-0.5,2.8l-8.5,4.7l-1.2-3.4l-3.1-1.1l0.6-3.4l-3.5,1.1l3.3,6.1l-2.1,0.1l-1.8,3.1l0.2,2.8l2.4,2.4l16.3,4.1l2.3-0.4l3.8-2.2
	l3.4-0.3l2.3,3.3l3.3-1.3l1.5-2.5l4.5-3.2l3.2-0.5l1.8-6l0.5-4.2l-4.4-0.9l-6.9-6.6l-0.8-2.9l-2.3-2.1l-0.7-2l-11.8-0.8l-6.7,1.1
	L477.3,519.1z M413.7,594l2.5-3.8l0.6-2.2l-1.1-6.1l2.2-2.3l0.8-3.1l-0.3-4.4l3.5-1.4l1.5,1.8l3-1.6l2.9,0l1.8-1.6l3-5.4l-0.7-3.2
	l3.1-1.4l-0.5-2.5l2.5-3.4l-3-1.4l1-3.9l-0.7-1.6l2.8-2.2l4,9.3l2.1,1.3l3-0.6l1.5-3.7l2.6-0.8l-0.5-4.3l2,0l-0.5-4l-3.1,0.3
	l-4.8-0.6l-3.4-1.5l-0.2-3.9l-2.1-4.5l-0.2-4l0.6-2.7l2.1,0.2l0.4,2.8l2.4-0.3l0.9,3.9l2.4,2.1l4.9,0.4l2.2,1.4l2.2-2.7l3.3-0.2
	l-0.2-7.4l1.6-2l1.9-0.5l-0.7-3.6l1.4-2.4l1.5,1.6l0.6-5.4l-5.6-1.7l-0.8-1.7l-3.3,0.7l-2.7-0.9l-4.4,2.1l-0.9-3.3l-2.4,1.1l-1.9-3
	l-2.5-1.9l-2.3,3.1l-3-0.8l-1.4-5.1l-2,1.8l-6.6,0.5l-3.3,3.9l-1.6-0.6l-1.9,1.5l-0.8-4.2l-2.9-0.5l-1.3-2.4l-2.8,3.8l-3.2-3.4
	l-4.8,6.2l-6.5,7.2l4.4,3.2l-0.2,1.9l-3.3,2l-3.2-0.3l-2,1.6l0.1,2.6l-2.6,3.5l-1.3,2.9l-2.6,7.3l-0.3,3l0.9,4l3.9,2.3l-0.1,3.7
	l2.4,0.8l1.3,2.2l2.1-0.6l-0.4,3.9l2.4,2l-2,8.2l-2.2,2.2l-0.2,1.9l1.9,1.3l3.6-4.7l1.4,1.7l0.6,4.1l2.1-0.1l1.8,2.3l-0.1,4.5
	l0.8,6.1l3.7-0.6l0.3,3.3L413.7,594z"/>
<path id="D102" class="st0" d="M428.1,262l3.6-0.9l1.3-1.3l-1.6-2.7l1-4.6l1.4-0.1l4.1-3.4l-1.5-3.6l-2.2-1.7l-1.9-0.1l-0.2-3.3
	l4.6-0.7l2.1-1.4l-0.6-2.7l-2.9-1.7l-1.5-3.1l2.3-1.8l1.1-5.1l-1.5-1.9l1-3.8l2,0.2l2.8-3l1.8-4.5l4,0.4l4.3-1.3l1.6,0.2l1.4-2.7
	l0.1-2.6l3.7-1.3l3.5-2.5l1.1-4.5l-1-4l4.9-1.1l1.2-6.3l3.3,0.6l0.9,2.3l2.8,2.9l0.3,2.8l3.5,2.8l2.7-0.4l2.1-2.1l1,2.4l3.4-0.2
	l0.7-2.9l3.9-0.8l0.1-3l2.3-3.7l0.8-5.8l4.1-1.1l-2.5-2.4l-1.4-5.8l-3.9-0.8l-1.2-3.3l-0.6-8.2l-1.1-3.8l-1.3-1.5l1.1-4.8l-1.8-2.2
	l0-3.8l-1.4-3.9l-2-2.7l-0.6-2.9l-2.8,2.5l-0.3,2.4l-1.9,2.7l-2.9-0.2l1.8-4.6l-2.8-2.1l-0.5,3.1l-1.6,3l-3.6-0.4l0.5,4.3l-2.1,2.6
	l-2.1-0.9l-1.3,2.1l-1.8-2.6l-3.4,0l-5.4,2.2l1.3-4.2l-0.6-4.2l-2.8,2.1l-5.8,1.7l-1.5-3.6l-2.7-0.9l-3.7,1.2l-2.8,3.3l-0.1,2
	l2.2,2.4l0.1,1.9l-2.2,0.9l-2.1-2.9l-3.4,1.7l-4.1,0.1l-0.3,2.2l-2.3,0.2l-1.7-1.5l-2.6,0.8l-3.9,0.1l-3.7-1.1l-1.4-5.2l-2.8,1
	l-2,2.6l-5.5,4.6l-2.8-0.9l-3.2,0.1l-2.5,3.1l-1.4,3.8l2,0l1.8,2.5l-6.9,3.1l-1.2,2.8l1.9,5.9l-3.5,5.8l0.4,3.1l-0.4,5.1l0.5,2.9
	l-2.6,1.7l-0.1,2.2l2.4,4.8l-4.9,0.7l-5.7,2.8l-3.6-1.4l-1.8-2.3l-2,2.6l-3.3,1.3l-2,2.9l-1.2,4.6l-0.1,4.1l-1.4,2.5l-4.7,2.7
	l1.9,4.4l2.2,0.5l0.3,5.1l-2.1,4.5l0.1,2.8l3.2-1.5l5.7,5.1l0.3,2.4l3.2,8.2l-0.9,5.2l0.5,4.2l1.6,8.4l-0.7,1.5l0.2,4l3.7,5.3
	l3.5-1.6l1.7,0.7l4.1-2.8l2.7,2.8l1.1,2.6l4,1.8l1.2,4.9l3.7-1.3l0.1-8l2.4-2l1.4-3.6l0-3.8l6.3-7.5l7.2-1.2l3.9,2.5l2.2-0.9
	l2.5,0.8l3.4-1l1.6,2.7L428.1,262z"/>
<path id="D109" class="st0" d="M537.4,376.6l3.6,2.3l1.5,2.1l5.3-1.3l1.4,1.7l0.1,2.6l3.7,2.2l6.4-10.8l-2.7-5l-2.8-0.2l1.4-4.9
	l1.9-3.6l0.9-4.1l2.2-4.7l3.3-4.1l1,0.6l4.7-1.1l6.1-6.6l4.7-3.2l-0.4-2.3l4.2-5.9l5.4,3.3l3.9,4.6l3.1,6.5l1.4-0.3l2.6-2.8l2.4-1.5
	l-1.1-2.8l-3.3-3.9l0.4-1.8l-1-5.2l0.1-2.6l-2.5-4.6l1.5-3.2l-2.3-2l0.1-1.8l-2,0.7l-2.6-2.3l0.6-4.3l-2.7-2.4l-1.5,5.7l-1.4,0.9
	l-0.3,2.8l1.1,2l-0.4,3.6l-2.1-2.8l-7.2-1l-4.7,2l-1-4.4l1.7-2.5l-2.4-1.1l-4.3,0.2l-0.9,4.2l-4.1,1.8l-2.2,3.5l-1.5-1.3l-0.8-4
	l-1.7,0.7l-0.6,3.9l-2.6,2.8l-5.2-0.7l-0.3,2l-3.3,2.3l-2.9,5.7l0.1,6.4l-1.4,1.9l1,1.7l2.9,0l2.2,2.7l-0.4,2.8l-2.8,0l-1.2,1.6
	l-0.1,3.5l1.1,2.6l-1.9,2.8l-2.3-1.4l0.4,4.7l1.5,2.7l-1.6,5.3l-0.5,5.9L537.4,376.6z"/>
<path id="D106" class="st0" d="M624.2,388.2l4.8,0.6l-0.3-4.1l6.9-0.8l2.1-2.5l3.5-1.3l2-2.8l3.2-2.6l1.7,0.9l2.3-1.4l0.9-2.7l2-1
	l3.4-0.1l0.5-4.4l1.6-1.5l2.7-0.5l1.8-4.5l2.6,0.3l2.1-1.4l1.7-2.5l7,1.6l0.1-5l1.6-1.1l-1.2-3.9l1.7-1.3l2,1.1l2.4-0.9l-1.3-2.5
	l3.7-1.1l-0.5-3.8l3.2-2.3l1-3l-2.1-0.2l-6.8-2.3l-1.8,0.2l-0.2,2.7l-1.9,2.5l-3.2-1.3l-2.1,0.7l-3.7-0.4l-1.5,1.2l-2.4-1.4
	l-1.4,2.4l-1.4-1.6l-7.8-3.2l-3,1.5l-0.6,4l-3.2,0.7l-1,1.7l-3.6,2.1l-6.4,1.2l-1.7-2.5l-1.2,5.8l0.9,2l-3.3,2L625,355l-2.6-0.4l0,2
	l2.8,5.6l-2.2,3.9l-7.4,4l-2.1,2.1l2.6,9.9l3.5-1.1l2.7,2.5L624.2,388.2z"/>
<path id="D124" class="st0" d="M376.1,678.8l3.8-6l-0.1-2.4l1.5-7.6l2-1.9l0.9-3.4l3.4-1.1l1.3-8l-1.1-1.9l1.2-5.3l1.2-2.1l6.1-2.7
	l5.7-4.1l4.8-4.8l-1.3-2.7l-3-0.3l-1.7-2.3l-2,2.4l-3.5,2.6l-1.6-4.4l-2.2-1.4l-1.1-4.2l-4,2.2l-1.8,2.1l-2.3-1.2l-3.4,1.2l-1.9-0.9
	l-4.2-0.5l-3.8,2.9l-0.6,1.6L360,624l-3-1.4l-1.9,1.9l-5.7-2.6l-3.2,2.8l-2.2,0.6l-3.5,8.2l-2.7,1l-2,3l-2.7-0.7l-0.7,2.2l1.1,2.4
	l1.8-1.7l1.5,0.5l2.2,2.6l2.1,4.2l2.3,1.2l-0.7,6l1.8,2.4l3.2-4.2l3.5,0.2l3,2.8l-1.7,8.9l1.6,1.6l-1.1,1.7l-0.8,4.3l5.2-0.3
	l0.9,3.6l3.5-3.9l1.3,2.3l3.2-1.2l2.9,5l2,5.7l3.3-0.4L376.1,678.8z"/>
<path id="D099" class="st0" d="M280,142.6l7.2,11.7l1.3-1.7l1.9,1.8l2.4,0.5l8,4.6l1.7-1.1l3.9,2.5l1.8-2.8l5.9-2.4l3.2-2.7l0-2.2
	l3.3-3.5l-0.6-3l2.2-4.4l3.8-1.1l4.7-6.4l3.1-0.4l2.9,1.8l2-0.1l2.3-1.9l2.5,1.7l2.6-1.4l1,1.2l3.9-4l2.3,1.8l5.4-0.8l0.9,1.8
	l2.2-4.3l2,1l-0.1,3.3l5.7,6.4l2.5-2l4.2-1.5l-0.7,3l1.1,4.1l3.7-2.9l-0.4-2.6l0.6-4.6l1.6,0.9l1.6,3.3l-0.4,2.5l3.3-0.2l1.8-2.1
	l0.4-2.7l-1.1-3.6l-1.2-6.8l5-2.7l0.2-1.9l-3-2.8l0.4-2.6l4.3,0.5l0.7-0.9l-6.4-9.5L383,94l-3.6-7.8l-1.8-2l-1.2-4l-0.2-5.7l2-5.7
	l5.5,3.1l5.3-0.1l-1.8-4.3l2.5-0.6l6.9,1.8l0.8-0.2l1.6-7.6l2.8-4.4l0.4-2.2l-3-14.1l-15.3-1.3l-13-0.1l-0.7-2.5l1.3-5.6l1.4-1.4
	l3.2-5.8l-0.3-5.7l-2.5,1.7L367,25l-3.2,3.8l-2.9,1.3l-10.4,3.3l-14.5,7.1l-2,2.3L330.8,58l-5,20.6l-5.8,12.5l-4,9.6l-4.3,9.3
	l-5.7,8.4l-4.1,11.4l-1.1,1l-13.6,7L280,142.6z"/>
<path id="D100" class="st0" d="M390.1,154.4l2.5-3.1l3.2-0.1l2.8,0.9l5.5-4.6l2-2.6l2.8-1l1.4,5.2l3.7,1.1l3.9-0.1l2.6-0.8l1.7,1.5
	l2.3-0.2l0.3-2.2l4.1-0.1l3.4-1.7l2.1,2.9l2.2-0.9l-0.1-1.9l-2.2-2.4l0.1-2l2.8-3.3l3.7-1.2l2.7,0.9l1.5,3.6l5.8-1.7l2.8-2.1
	l0.6,4.2l-1.3,4.2l5.4-2.2l3.4,0l1.8,2.6l1.3-2.1l2.1,0.9l2.1-2.6l-0.5-4.3l3.6,0.4l1.6-3l0.5-3.1l2.8,2.1l-1.8,4.6l2.9,0.2l1.9-2.7
	l0.3-2.4l2.8-2.5l0.6,2.9l2,2.7l2.1-0.3l1.4-3.3l-0.4-3.4l-2.7-0.9l-2.8,0.4l-0.3-4.7l-3.6-0.5l0-3.9l1.1-1.7l-2.6-1.4l0.6-2.7
	l2.3-1.8l-1.5-7.3l-4.7,2.7l0.3-5.6l-3.1,1.9l-0.4,1.9l-5.6,1l-1.1-2.4l-2.4,2.2l-5.1,1.3l-4-5.7l-2.4,1.9l-2.8-1l-0.2-3.6l-1.7-4.5
	l-5.7-3.7l-2.9,0.4l-2.5,3.7l-3.2,0.6l-1.5-1.5l-4.5-0.3l-0.6,4l-3.4,0.3l0.3-2.5l-2-3.1l-0.2-1.9l-2.8-1.8l0.2-3.9l3.2,0.6l2.4-7.1
	l-2.9-2.3l0.5-9.6l1.8-6.5l0.1-3.1l-4.9-0.1l-0.9,1.2l-3.9-0.3l-0.5-4.2l1.9-3.8l3-1.2l1.5-2.6l-1.4-3.6l-2.1-0.5l1-3.5l-8.4-0.4
	l-9.1-0.8l3,14.1l-0.4,2.2l-2.8,4.4l-1.6,7.6l-0.8,0.2l-6.9-1.8l-2.5,0.6l1.8,4.3l-5.3,0.1l-5.5-3.1l-2,5.7l0.2,5.7l1.2,4l1.8,2
	L383,94l4.8,9.6l6.4,9.5l-0.7,0.9l-4.3-0.5l-0.4,2.6l3,2.8l-0.2,1.9l-5,2.7l1.2,6.8l1.1,3.6l-0.4,2.7l-1.8,2.1l0.1,4l1.3,2.3
	l-0.7,2.7l-3.8,5.4l2.1,0.8l2.9-1.2L390.1,154.4z"/>
<path id="D110" class="st0" d="M463.8,379l2.6-5.2l2.3-0.5l3.6-4.2l3.2,0.6l1.5,5.5l2.8,1.9l3.4,0l1.1-1.1l3.9,1.4l1.5,1.5l1.9-2.2
	l1.7,1.3l-0.1,2.6l5.1,0.4l0.7-2.1l4.3,1.8l1.3-2l3-0.2l-0.7-4.4l1.7-1.3l3.8,1.5l1.4-0.8l5.7,1.3l2.1,2.2l0.8-1.9l2.5,1l2.5-1.8
	l2.1,0.3l3-2.7l3.5,2l0.5-5.9l1.6-5.3l-1.5-2.7l-0.4-4.7l2.3,1.4l1.9-2.8l-1.1-2.6l0.1-3.5l1.2-1.6l2.8,0l0.4-2.8l-2.2-2.7l-2.9,0
	l-1-1.7l1.4-1.9l-0.1-6.4l2.9-5.7l3.3-2.3l0.3-2l0-6.4l-0.9-4.9l-1.7,0.3l-1,2.5l-3.6,2.9l-0.7-6.1l-1.9,0l0.3-3l-2.8-2.2l2-4.3
	l0.6-3l1.6-1.6l3.8-8.5l-0.4-2l1.3-4.9l-0.5-3.6l-1.7-2.7l-1.1-6.7l3.2-0.5l-0.2-4.4l1.1-2.8l-1-6l1.1-0.5l1.2-3.6l-0.7-3.1
	l-2.7-0.1l-2.1,0.9l-1.5,2.3l-3.3-2.5l-0.4-2.1l-2.5-1.4l-0.6,1.7l0.7,1.6l-2.2,5.8l-2.3,3.8l-3.2,2.8l-0.9,4.6l-2.7,3.3l1.3,2.9
	l-1.5,9.2l1.1,2l-2.5,2.1l-1.8-0.2l-1.8,3.9l-2.9,2.6l-2.7,0.9l-1.4-2.1l-2.5-0.2l-1.1,3.4l-4.3,0.3l-0.4,2.7l-2.3-0.2l-1.1,2.5
	l-2.5,0.8l-0.5-3.4l-3.1-0.2l-3.9,5.3l-3.2-1.1l-2.7,1.8l-0.2,5.1l-4.6,1.6l-0.9,5.3l1.8,1.9l-0.1,4.5l-8.7,1.1l0.1,2.7l2.6,2.1
	l-1.2,1.7l-2.8,0.9l0,3.2l-2.8,1.2l0,2.8l-11.1-1.2l0.1,4.9l-2.7,0.5l-1.5,4.2l-2.9,1l1.3,4.2l0.5,4.2l3-1.2l1.3,3l-2.6,0.8l0.1,3.8
	l2.5-0.3l1.6,2.1l3.4,1.4l1,4l-1.4,5.2l3.1,0l0.8,3.1l2.7,2.3l-0.6,2.6L463.8,379z"/>
<path id="D114" class="st0" d="M225.5,234.1l-17.3,8.5l-5.2-0.1l-4.1,0.5l-8.8,0l-10,2.3l-4.7,1.7l-12.7,6.5l-9.3,5.5l-6.4-0.4
	l-4.5-1.3l-1.4-2.4l-4.3-9.4l-0.5-7.3l-0.8-1.6l-7.1-8.7l-2.4-1.2l-3.7-0.1l-8.2,2.5l-4.6,6l-6.9,5.9l-3.7,5l-3.6,6.5l-6.1,19.2
	l-0.6,1.3l-5.8,5.2l-5.4,9.7l-3.6,4.2L63,302.7l-5.8,7.1l-1.6,3.8l-3.8,11.8l-0.9,11.3l-1.3,9.1l1.7,5.6l1.1,1.2l14.5,8l3.6,3.9
	l3.2,2.1l2.9,0.9l4.6,0l7.8-1.6l3-0.1l3,0.9l4.4,3.8l1.2,6.2l-0.6,5.2l0.2,8.1l-0.8,4.2l0.4,6l-2,7.7l-3.7,6.7l-1,3.8l0.8,9l1.1,4
	l3.4,6.2l-3.3-6.2l-1-12.2l0-2.5l3.6-6.4l4.1,0l2.4,2.9l2.2-3.7l3.3,0.9l4.9,0.3l3.2-5.1l1.5,1.9l5.2,0.4l4.7-2.5l5.9,0.3l2.5-1.4
	l2.4,0.1l-0.2,4.3l2.8,1.8l9.1,2l4.9,7.3l-0.1-2.6l4.1-3.5l1.8,0l1.9-2.6l-0.8-2.8l-3.4-4.9l-3.7-0.3l0.8-2.4l4.8-3.4l2-0.1l1.7-1.7
	l0.4-2.2l3.5,1.9l1.2-0.6l3.5-7.5l-0.1-2.5l2.4-3.2l4.9-2l2.7,4l8.3-7l1.8-0.1l1.9,4l2.1-3.1l4.2-1.9l2.7,2.5l1,6l3.4,3.4l2.2-0.6
	l2.3,1.4l1.4,2.7l3.9,1.4l1-3.2l1.2-0.8l3.1,3.2l0.7,3.9l1.8,0.2l1.9-1.8l2.7-0.6l3-2.3l3.5-0.3l0-5l0.6-4.1l-4-5.4l5.2-9.9
	l-0.9-2.2l-3.4-5l2.1-4.2l1.3-1.1l-1.8-2.9l-0.6-4.2l2.1-0.5l1.2-2.2l0.3-5.5l-4.6-4.7l0.7-3.2l-0.4-5.1l2.5-5.5l-0.2-3.9l-7.9-2.2
	l-0.9-4.2l-2.1,0.8l-0.8-3.6l-5.1-2.4L220,303l-2.3-0.2l0.3-3.1l2.6-4l-0.7-1.5l0.5-5.4l-0.9-4l1.7-3.6l3.2-0.6l1.5-1.8l0.2-2.5
	l1.8-2.9l2.6,0.9l2.5-1.9l3.6-4.4l2.6,2.1l3.2,1.2l-1.7,2l2.9,2.7l0.9,5.5l1.3,1.4l2.6-2.7l2.5-0.8l0.4-3.5l2.4-1.5l-0.1-1.9l3-6.4
	l1.4-5.6l-3.2-1.5l-3.5,3.4l-2.3-0.1l-5.3-3.5l-2.2,0.1l-1.7-2.5l4.5-4.3l-0.9-6.3l0.2-2.8l-3.4-2.4l-1.5-2.6l-3.3-2.5l-2.8,0.6
	l-3.4,2.9l-1.9-1.1L225.5,234.1z"/>
<path id="D116" class="st0" d="M257.9,558.1l-1.7-2.3l1.1-5.1l3.4-5.8l2-1.3l1,2l4.9,0.3l1.1-1.5l0.2-5.1l-1.2-5l1.5-1l0.1-4.1
	l5.5-1.8l3.8-5.8l1.8-3.9l2.2-0.7l1.5-5.7l2.1-2l0.9-3.5l2.2-2.7l-0.2-2.3l3.5-6.9l4.6,3.9l2-0.8l1.6,1.1l3.9-1.4l0.3-3l-1.6-4.2
	l-2.7-2.4l2.4-1.4l2.5,0.3l3.1-3.1l1.4-3.6l2-3l-0.7-2.3l-2.2-1.6l-0.1-5.1l-1.6-2.1l-3.7-2.1l-0.5-2l-3-1.4l-1.4-4.2L298,454l0-3.9
	l-1.3-1.5l-4.3-2.2l-2.5-2.7l-1.5-0.7l-2.3,5.2l2.3,1.4l-2.4,5.1l-2.6,1.9l1.8,2.9l0.6,3l-3.2-0.3l-6.6,1l-2.7,4l1,2.9l-3.6,2.5
	l-3.5,5l-3.7,1.8l-4-1.7l-1.7,1.9l0,3l-1.1,1.6l-3.4-2.3l-3.9,0.5l-4.1-2.7l-4.1,1l-1.1-4l-2.3-1.6l-1.7,0.5l-2.4,3l-5,7.9l-0.8,1.9
	l2.1,2.3l-1.1,3.6l-3.3,2.2l-0.6,3.6l-2.3,1.7l-0.8,5.7l-2.5,3.1l-0.8,3.1l-4.1,1.5l-0.7,3.6l-3.5,4.4l-3.7-4.6l-3.2,1.1l-2,3.7
	l-1.9,1.1l-1-3.3l-3.1,0.9l-4.9,3l-1.5-0.2l-3.3,3.4l-0.8,8.1l-1.9,2.8l-3.6,2.6l0.6,4.6l-3.9,4.8l-1.6,4.9l7.3,3.4l2.1-3.4l2.2-1.1
	l1.8,3.2l3-1.6l4.8-3.5l3.5-0.5l5.8,0.8l3.3,3.6l4-2l2.1,0l2.8-1.4l2.1,0.8l-0.1,3.8l2.5,0.7l1.6-0.8l0.2-4.7l4,1l0.6,3.4l4.3-2.9
	l0-2l4.3-2.7l2.4,0.9l0,4.3l2.3,1.9l2.5-0.1l2.6,2.4l3.2-2.3l6.2,2.3L257.9,558.1z"/>
<path id="D129" class="st0" d="M585.9,575.6l-3.3,0.5l-3.2-1.5l-2.4,3.4l-1.4,0.6l-2.2-3l-2.9,2.4l-4.1-4.9l-0.1-2.7l-3-2.1l0.1-5.3
	l-1.2-2.1l0.7-7l-2.7,1l-1.3-1.7l-2.3-9.2l-0.1-1.9l0.1-4.6l-3.3-0.7l-2.5-3.2l-1.8,0.2l-3.5,5.1l-2,0.4l-2.8-1.8l-0.1,3.5l-1.6,3.5
	l-0.3,7.5l-1.3,1.8l0.4,3.9l-5.4-6.7l-3.3,1.7l-0.3,5.1l1.2,4.5l-2.2,0.1l-1.4,1.7l-5.1-0.2l-0.5,1.7l-2.3,0.4l-1.1,3.7l-0.2,5.8
	l-3.1,2.2l-2.3,0.1l-3.1-3.5l-3.7,5.3l0.2,5.4l2,3.6l2.4-0.4l1.1,1.3l-0.6,6.9l-2.3,0.9l-2.2,7.9l2.6,0.5l0.8,2.4l3,0.2l-0.1,3.5
	l-3.6,1l0,2.5l-1.3,3.7l-4.5,2.8l-2.3-6.3l-2.5,3.3l-4.8,0l0.2-1.8l-2.9-1.4l-1.3-1.7l-1.6,4.3l-2,2.3l-0.6,5.8l2.3,1l1.2,1.8
	l4.3,3.3l0.3,4.1l1.2,1.5l2.5-0.5l2.4,0.6l2.8,2.5l0.8-1.4l-0.6-3.1l2.3-0.7l0.4-3.7l-2.1-1.2l0.3-2.6l1.9,0.2l2.3,2l1.5,2.6
	l5.4-3.8l1.8,0.9l7.1-4.7l0.3-4l-1.5-2.2l0-2.7l2.2-0.5l2.7-2l1.2-2.3l6.7-2.1l0.2-3.5l-1-7.2l2.3-3.7l-0.9-3.6l2-1.5l1.2-3.4l1.5,2
	l-0.8,2.5l0.8,5.1l5.1,1.6l3-3.4l2.6,0.2l4.3,3.8l0.9-1.7l2.9-0.2l3.3,2.8l1.1,3.6l4.1-1.7l-0.6-3.2l3.1-2.8l0.2-2l4.5-0.8l1.7,2.1
	l-2.1,5.4l3.4,3.1l3.5-0.3l1.6,3.8l2.7,0l2.1-1.3l3.2,0.8l1.2-5.6l2-1l-5.1-7l-2.7-8.7l0.9-0.7L585.9,575.6z"/>
<path id="D103" class="st0" d="M453.4,210.4l3.7,0.7l0.6,3l2.9,2.4l-1.2,2.2l0.4,2.5l-1.1,2.1l2,3.8l1.4-0.1l1.9,6.6l1.5,0.1l0,4.5
	l1.2,2.9l1.3,0.3l1,3.4l-0.2,3.1l3.3-0.6l0.2,4.5l-1.8,0.6l1.8,4.7l4.4,1.5l3.2,4.1l1.8,1.4l3.2-1.8l1.5-2.1l2.9-0.9l1-1.5l6.1,0.6
	l1.3-1.3l2.4,4.1l1.4,0.1l0.5-3.3l1.6-3.6l-0.6-1.1l4.2-7.5l2.5-2.4l4.4-3l2.3-2.5l2.4-1.4l2.9-0.4l0.4-2.5l-0.9-2.6l1.4-4.7l2.6,0
	l-2.4-4.6l-3-0.9l4.3-5.5l2.4-2.1l3.4,0l-1.6-5l-3-1.7l0.5-3.8l-2.3-1.5l-2.2-4.1l-2.1-0.7l-0.4-2.3l-8.7-4.4l-1.8-4.2l-3.2-1.5
	l0.1-1.4l-3.4-1.2l-1.9-2.1l-4.1,1.1l-0.8,5.8l-2.3,3.7l-0.1,3l-3.9,0.8l-0.7,2.9l-3.4,0.2l-1-2.4l-2.1,2.1l-2.7,0.4l-3.5-2.8
	l-0.3-2.8l-2.8-2.9l-0.9-2.3l-3.3-0.6l-1.2,6.3l-4.9,1.1l1,4l-1.1,4.5l-3.5,2.5l-3.7,1.3l-0.1,2.6L453.4,210.4z"/>
<path id="D113" class="st0" d="M369.5,382.3l-1.2-3.6l-3-3.2l-1.5-0.4l-2.8-3.5l-2.5-1.1l-1.9-3.5l0.5-1.4l-1.8-4.2l-0.3-3.1
	l-1.7-3.1l1.6-4.1l-1.2-5.4l-1.7,0.1l-0.1-3.2l-3.2-2.3l-4.2,0.5l-2.8-2.8l-2.4,1.4l-1.5-1.3l-2.6,0.3l-1.1,1.4l-4.3,1.2l-8.3-1.1
	l-1.6-1.3l-1-4.6l-4-1.4l-0.6-2.1l2.8-2.6l0.4-3.2l2.5-3.1l-1.1-3.5l-1.8-2.7l1.1-2.3l-0.8-5.3l-1.8-3.5l1.6-1.6l0.7-4.2l-0.8-2.5
	l-0.5-6.7l-1.8-1.7l-5.7-0.2l-4,2.6l-2.9-2l-0.6-4.2l-2.7,3.2l-1.4-6l-3.8,1.1l-0.4-5.4l1.6-1.2l-0.9-4.5l-4.5,1.6l-0.5,3.9l-2.8-3
	l-0.8-3.4l-1.6-1.6l-1.5,2.9l-0.3,3.2l-3.4-2.8l-1.5-3.4l-3.2-1.1l-4.3,3.4l-3.8-0.2l-0.9,2.4l-5.1,3.3l-0.5,3.7l-2.5-2.3l-1.9,1.5
	l-1.6,3.1l-2.2-0.2l0.2-3.8l2-0.5l0.3-3.5l-2.4,1.5l-0.4,3.5l-2.5,0.8l-2.6,2.7l-1.3-1.4l-0.9-5.5l-2.9-2.7l1.7-2l-3.2-1.2l-2.6-2.1
	l-3.6,4.4l-2.5,1.9l-2.6-0.9l-1.8,2.9l-0.2,2.5l-1.5,1.8l-3.2,0.6l-1.7,3.6l0.9,4l-0.5,5.4l0.7,1.5l-2.6,4l-0.3,3.1l2.3,0.2l1.8,1.7
	l5.1,2.4l0.8,3.6l2.1-0.8l0.9,4.2l7.9,2.2l0.2,3.9l-2.5,5.5l0.4,5.1l-0.7,3.2l4.6,4.7l-0.3,5.5l-1.2,2.2l-2.1,0.5l0.6,4.2l1.8,2.9
	l-1.3,1.1l-2.1,4.2l3.4,5l0.9,2.2l-5.2,9.9l4,5.4l-0.6,4.1l0,5l1.8,2.9l4,1l0.5,2.6l3,2.4l1.2,2.4l2.8,2l3.9-0.6l2.3-2.7l2.5,1.8
	l2.5-1.3l1.3-4.6l2.9-1.4l1.8,0.2l1.1,2l3.2,1.4l3.2-1.5l2.7,5l4,4.1l-0.5,1.2l1,6.5l-1.1,3.3l0.4,4.1l-4.9,2.2l0.1,2.8l6,4.3
	l7.7,7.8l2-1l0.6-2.7l5.1-0.3l3.3-0.8l1.2-3.3l1.9-1.8l2.3,0.1l1.3-1.5l0.6-4.3l4.3-1.8l1-1.2l4,1L319,419l2.1-2.2l3.1,1.2l1.8,2.1
	l3,0.9l3.1-4l-1.3-4.1l2.6-3.8l1.9-0.6l0.2,3.1l1.8,0l2.6,4.3l4.6,2.1l-0.5-3.8l3.9-1.2l3.8-3.1l1.8,2l-0.2,4.7l3.3,1.4l2-4.4l3,1
	l3-0.2l0.3-2.6l-1.8-3.6l1.3-4.2l-1.1-2.8l1.7-4.9l0-6.1l2-3.4l0.3-2.2L369.5,382.3z"/>
<path id="D107" class="st0" d="M585.7,420.8l2.4-1.9l1.3-3.6l3.7-1.2l4.1-3.1l2.1-3.7l5.3-1.9l1.3-3.5l3.7-1.3l2.2,0.8l5.3-3.9
	l3-3.8l0.7-3l3.5-2.4l-1.8-4.7l-2.7-2.5l-3.5,1.1l-2.6-9.9l2.1-2.1l7.4-4l2.2-3.9l-2.8-5.6l0-2l0.7-8.1l-1.9-0.5l-2.7,2.1l-2.6-3.8
	l-2.2,2.4l-1.3-1.5l-5.4-2.8l-2.2-3.4l-2,1.4l-2.4,1.5l-2.6,2.8l-1.4,0.3l-3.1-6.5l-3.9-4.6l-5.4-3.3l-4.2,5.9l0.4,2.3l-4.7,3.2
	l-6.1,6.6l-4.7,1.1l-1-0.6l-3.3,4.1l-2.2,4.7l-0.9,4.1l7.4,3.5l1.9,1.5l2.1,0.1l1.4,1.7l2.9,1.3l2.2,4.7l2-1.9l6.3-4l5.8-5.1l4-3
	l1.9,4.7l-2.4,1.5l1.6,2.2l-1.3,3l-2-2.1l-2.2,3.4l-3.8,3.8l-1.6-0.6l-2,1.4l-0.9,3.4l-2.2,0.8l-4.2,3.7l-0.7,3.9l-2.6,0.7l-0.9,4.1
	l-2.5,3.7l-0.5,5.6l6.5,4.6l1.8-1.3l3,2.9l2,3.8l1.8,1.1l0.9,2.5l1.5,0.6L585.7,420.8z"/>
<path id="D127" class="st0" d="M518.8,565.8l2.3-0.4l0.5-1.7l5.1,0.2l1.4-1.7l2.2-0.1l-1.2-4.5l0.3-5.1l3.3-1.7l5.4,6.7l-0.4-3.9
	l1.3-1.8l0.3-7.5l1.6-3.5l0.1-3.5l2.8,1.8l2-0.4l3.5-5.1l1.8-0.2l2.5,3.2l3.3,0.7l-0.1,4.6l3.4-3.8l4.8,1.7l1.2-1.2l0.2-4l-6.5-6.1
	l-2.5-0.2l-0.4-3l-1.8-2.3l-5.9-0.6l-1.2,2.4l-5.6-8l-2.2-4.2l1.2-7.4l1.4-2.8l-0.1-4.8l2.5-0.9l1.6-4.7l1.6-7.8l2.9-1.4l5.1,0.9
	l0.6-1.9l8.2-1.4l1.3-1.7l-1.1-3.6l-2.9-5.5l-0.8-4.8l0.4-5.2l-1.1-1.4l0.8-2.4l-2.4-2.2l0.3-2.2l3.2-1.3l0.2-6.5l2.7-4.1l-5.3-0.8
	l-2.5,5.5l-7.4,4.6l-2.2-3.4l-0.9-3.4l-2.1,2.4l-1.7-2.1l-2.8,0.1l-2.3-3.6l-3.2,7.8l-0.8,1.6l3.3,3.9l3.6,1.4l1.5,2.1l1.9-2.1
	l2.5,3.4l-1.6,2.3l-0.6,8.5l-1.3,3.3l-4.8,2.6l-1.8-0.8l-0.7,5.3l-2.7,6.6l1.4,1l-3.2,3.1l-2.8-2l-0.7,2l-2.9,1.4l0.6,3.6l-3.8,3.6
	l-2.3-3.4l-2.6,2l-0.8,2l-4.8-0.6l-3.1-1.7l0.1,3.3l-1.2,2.7l-3.1,3l1.6,5.3l-1.1,3.8l-3.4,4.1l-5.2,3.3l2.3,2.1l0.8,2.9l6.9,6.6
	l4.4,0.9l-0.5,4.2l-1.8,6l3.8,3.5l-0.8,6l1.1-0.1l0.6,5.3l1.6,0.7l0.7,2.5l1.9,0.5L518.8,565.8z"/>
<path id="D112" class="st0" d="M399.8,380.4l1.9-0.8l1.5,1.4l2.8-4.5l3.9,0.3l1-1.6l2.8,0.5l4.3-6.3l3.8-6.5l1.8,2.8l0.1,3.3l4-2.7
	l1.4-4.3l2.1-3.6l0.1-2.6l-4.2-0.9l1.4-2.2l0.9-3.6l3.8,0.1l2.3-2.7l-0.5-4.9l2.2-0.4l1.9-4.6l-0.3-2.1l1.8-5.2l4.3-0.1l3.2,1.3
	l2.1,2.1l-0.5,4.9l2.7-0.5l-0.1-4.9l11.1,1.2l0-2.8l2.8-1.2l0-3.2l2.8-0.9l1.2-1.7l-2.6-2.1l-0.1-2.7l8.7-1.1l0.1-4.5l-1.8-1.9
	l-1.1,2.9l-6.7-0.4l-2.2-0.7l-1.7-2.5l-2.7-1.6l0.5-2.6l-3.9-0.8l4.7-6.3l1.6,0.3l0.6-3.4l-2.2-0.8l-1.5-1.9l0.2-3.1l-3.2-0.8
	l-1.9,0.8l-0.7,2l-2.1,1l-4.6,0.1l-3.5,1.6l-1.4-1.5l-0.4-2.6l-2.1-0.6l2.1-3.2l-1.2-3.7l-3.9,0.1l-0.3-3.2l-3.4-1.8l-2.1,0
	l-0.5-3.5l3.3-2.9l-5.9-9.7l-3.8,1.9l-1.6-2.7l-3.4,1l-2.5-0.8l-2.2,0.9l-3.9-2.5l-7.2,1.2l-6.3,7.5l0,3.8l-1.4,3.6l-2.4,2l-0.1,8
	l-3.7,1.3l-1.2-4.9l-4-1.8l-1.1-2.6l-2.7-2.8l-4.1,2.8l-1.7-0.7l-3.5,1.6l-3.7-5.3l-3,3.3l-2.4,0.7l-2.6-3.2l-3.7,1.7l-1.8-3.2
	l-1.8-0.7l-2.7,2.6l1,2.1l-2.3,3.3l-3.4-1l-1,1.5l-0.2,3.3l-1.2,1.1l-0.1,3.7l1.5,2l-2.3,1.4l0.7,2.6l-3.9,2.3l-5.4,4.8l-1.7,6.2
	l-4.9-5.6l-1.5-2.9l0.3-1.8l-1.9-2.2l-2.1,2.1l-0.4,2.6l-3.3-1.6l-0.7,4.2l-1.6,1.6l1.8,3.5l0.8,5.3l-1.1,2.3l1.8,2.7l1.1,3.5
	l-2.5,3.1l-0.4,3.2l-2.8,2.6l0.6,2.1l4,1.4l1,4.6l1.6,1.3l8.3,1.1l4.3-1.2l1.1-1.4l2.6-0.3l1.5,1.3l2.4-1.4l2.8,2.8l4.2-0.5l3.2,2.3
	l0.1,3.2l1.7-0.1l1.2,5.4l-1.6,4.1l1.7,3.1l0.3,3.1l1.8,4.2l-0.5,1.4l1.9,3.5l2.5,1.1l2.8,3.5l1.5,0.4l3,3.2l1.2,3.6l6.2,1.1
	l8.1-0.4l2.5,0.6l-0.3-2.9l5.5,2.4l4.6-3.9L399.8,380.4z"/>
<path id="D118" class="st0" d="M316.7,545l4.1-2.9l2.2-0.6l0.6-3.6l6.4-7.6l1.3-5.1l-1.2-1.6l1.1-3.2l2-1.8l1.5-3.6l2.3-2.3l2.8,0
	l2.1-1.8l0.7-1.8l7.3-7.5l0.8-8.1l4.1-5.8l2.1-1.3l0.7-2.1l1.8,0l3.3-9.7l2-2.8l3.8-11.2l0.4-2.4l3-3.3l0-5.4l1.9-2.9l0.8-6l4.7-3.2
	l3.5,3.3l3.1-1.7l1.3-1.9l3.1-6.1l-2.1-3.4l3.7-6.4l2.8-1.2l1.7-3.6l3.1-4.1l-0.1-2.9l1.1-3.3l5.4-2.1l-0.2-4l2-1.9l-2.7-2.4
	l-3.9,3.9l-2.8-0.9l-1.4-2.5l3.7-4.2l0-5.2l-1.2-3.3l0.1-3.1l-3.8-1.2l-4.6,3.9l-5.5-2.4l0.3,2.9l-2.5-0.6l-8.1,0.4l-6.2-1.1l-2,2.3
	l-0.3,2.2l-2,3.4l0,6.1l-1.7,4.9l1.1,2.8l-1.3,4.2l1.8,3.6l-0.3,2.6l-3,0.2l-3-1l-2,4.4l-3.3-1.4l0.2-4.7l-1.8-2l-3.8,3.1l-3.9,1.2
	l0.5,3.8l-4.6-2.1l-2.6-4.3l-1.8,0l-0.2-3.1l-1.9,0.6l-2.6,3.8l1.3,4.1l-3.1,4l-3-0.9l-1.8-2.1l-3.1-1.2L319,419l0.6,2.1l-4-1
	l-1,1.2l-4.3,1.8l-0.6,4.3l-1.3,1.5l-2.3-0.1l-1.9,1.8l-1.2,3.3l-3.3,0.8l-5.1,0.3l-0.6,2.7l1,2.1l-1,2.5l-1.7-0.6l-2.4,2l2.5,2.7
	l4.3,2.2l1.3,1.5l0,3.9l1.9,1.2l1.4,4.2l3,1.4l0.5,2l3.7,2.1l1.6,2.1l0.1,5.1l2.2,1.6l0.7,2.3l-2,3l-1.4,3.6l-3.1,3.1l-2.5-0.3
	l-2.4,1.4l2.7,2.4l1.6,4.2l-0.3,3l-3.9,1.4l0.4,2.5l2.3,0.1l-0.3,2.3l-1.8,2.7l0.6,2.3l3.2-0.2l0.2,4.2l1.6,1.1l1.9-1.4l-0.6-3.6
	l1.1-1.8l4.5,5l0.9,4.2l-1.7,2.7l-4.4,3.2l-2.9,8.1l1.5,3.3l3.1,2.9l2.2,1.2l3,0.2l1.3,2.4l0.2,3.6L316.7,545z"/>
<path id="D131" class="st0" d="M435.3,663l2.1,0.9l3.5-2.3l2.5-4.8l1.5-1.6l2.5-0.7l-1.1-3.7l0-4.9l1.2-1.5l-0.9-6.2l-1.3-0.2
	l0.4-4.4l-0.8-2.2l0.7-4.3l2-4.7l1.6-1.3l2.2-5.4l-2.4-7.8l-1.5-1.1l-0.8-3.5l-2-1.7l-1.5-4.1l1.9-1.7l-2.2-4.3l-1.6,0.8l-2.8-0.7
	l-3.1,0.5l-1.1-2.4l1.9-2l0.1-4.9l2-4.1l3.3-4.1l-3.1-4l-2.6,0.9l-3.5-2.6l-1.1,0.2l-1.8,1.6l-2.9,0l-3,1.6l-1.5-1.8l-3.5,1.4
	l0.3,4.4l-0.8,3.1l-2.2,2.3l1.1,6.1l-0.6,2.2l-2.5,3.8l-0.7,3.1l-3.7-2.2l-0.1-4.6l-1.2-1.1l-1,6.6l-1.7,4.1l1,3l4.3,4.6l0.3,2.9
	l-1.4,1.8l-2.8-0.4l-1.4-2l-2.3,4.2l-2.2,1.1l2.2,2.2l0.7,2.9l-0.7,4.4l3,0.3l1.3,2.7l3.6,0l3.3-1.8l1.3,2.8l2.1,1.2l-1,4l2.8,1.8
	l0.4,8.1l-2.1,0.8l0.3,5.9l-0.9,3.5l5.7,0.7l3.2-1l2.1-2.4l1.8,1.3l1.9,3.3l1.9,0.2l1.8,2.3L435.3,663z"/>
<path id="D123" class="st0" d="M341.8,510.9l0.9,2.8l-2.2,5.2l4.2,2l-0.4,3.3l1.1,5l1.8,0.3l1.1,4.8l2.2,0.5l1.4,4.1l0.1,2.9
	l1.8,0.5l0,7.4l1.1,0l2.8-3.6l2,1.9l-0.8,3.7l2.5,1.8l1.3-3.8l-1.1-0.8l2.7-3.4l-1-1.6l0.4-3.8l3-4l-1.8-2.7l2.6-3.8l4.4,3.2
	l1.6-1.6l1.5,3.9l1.4-0.5l0.4-4.2l3.8,0.8l1.7-0.9l1.3,2.5l2,1.5l2.2-2l1.9-0.3l1.3-2.9l2.6-3.5l-0.1-2.6l2-1.6l3.2,0.3l3.3-2
	l0.2-1.9l-4.4-3.2l-1.9-0.4l-1.2,2l-2-1.1l-0.5-5.1l-1.2-1.4l-4-0.6l-2.2-1.5l-0.3-2.9l1.9-0.6l1.5-5.5l-5.3,0.5l-1.6-4.6l1.1-1.8
	l2.4,0.1l0.5-1.5l-3.6-1.4l-0.7-1.9l0.6-3.3l1.7-1.8l0.2-3.5l-2.6,0.7l1.6-6.5l1.4,1l2.5-2.5l-1.6-2.2l0.5-1.8l-1.3-2.2l2.8-1.1
	l0.9-4.3l-1.7-3.6l0.3-4.2l7.1-2.3l0.8-3.4l-1.8-5.7l0.1-1.5l-0.7,0.4l-4.1-2.1L386,439l-3.1,1.7l2.9,4.4l-0.2,1.6l-3.8,2.1
	l-1.8-0.1l-2.8,3.2l2.5,1L378,456l-2.9,2.1l-1.7-2.9l-1.5-0.4l-3,3.3l-0.4,2.4l-3.8,11.2l-2,2.8l-3.3,9.7l-1.8,0l-0.7,2.1l-2.1,1.3
	l-4.1,5.8l-0.8,8.1l-7.3,7.5L341.8,510.9z"/>
<path id="D108" class="st0" d="M547.7,442.4l0.9,3.4l2.2,3.4l7.4-4.6l2.5-5.5l5.3,0.8l2.2-3.6l2.5,0.1l0.7-3l2.4-0.5l4.3,0.9
	l2.1-1.9l-0.1-2l2.5-0.2l3.3-6.5l-0.2-2.4l-1.7-3l-1.5-0.6l-0.9-2.5l-1.8-1.1l-2-3.8l-3-2.9l-1.8,1.3l-6.5-4.6l0.5-5.6l2.5-3.7
	l0.9-4.1l2.6-0.7l0.7-3.9l4.2-3.7l2.2-0.8l0.9-3.4l2-1.4l1.6,0.6l3.8-3.8l2.2-3.4l2,2.1l1.3-3l-1.6-2.2l2.4-1.5l-1.9-4.7l-4,3
	l-5.8,5.1l-6.3,4l-2,1.9l-2.2-4.7l-2.9-1.3l-1.4-1.7l-2.1-0.1l-1.9-1.5l-7.4-3.5l-1.9,3.6l-1.4,4.9l2.8,0.2l2.7,5l-6.4,10.8
	l-3.7-2.2l-0.1-2.6l-1.4-1.7l-5.3,1.3l-1.5-2.1l-3.6-2.3l-2.8,3.4l1.2,1l-2,9.3l1.2,3.6l-2.3,3.3l-0.9,3.4l-5.4-1.2l0.1,2.9
	l-2.8,0.2l-0.8,2.5l1.8,1.8l-0.8,1.7l-0.1,4.3l2.6,0.5l2.8-2l2.3,3.4l-0.6,2.5l1.8,1.3l-2.9,4.2l1.2,2.4l1.9-0.7l2,2.8l3.2-4.4
	l2,0.3l2.4-1.2l0.5,5.1l-0.5,5.2l-2.2,0.1l0.2,4.8l3.9,3.7L547.7,442.4z"/>
<path id="D111" class="st0" d="M474.4,311.3l0.9-5.3l4.6-1.6l0.2-5.1l2.7-1.8l3.2,1.1l3.9-5.3l3.1,0.2l0.5,3.4l2.5-0.8l1.1-2.5
	l2.3,0.2l0.4-2.7l4.3-0.3l1.1-3.4l2.5,0.2l1.4,2.1l2.7-0.9l2.9-2.6l1.8-3.9l1.8,0.2l2.5-2.1l-1.1-2l1.5-9.2l-1.3-2.9l2.7-3.3
	l0.9-4.6l3.2-2.8l2.3-3.8l2.2-5.8l-0.7-1.6l-2.2,0.3l-2.9-1.4l-2.5-0.2l0.1-4.3l-3.9-2.3l-2.4,1.4l-2.3,2.5l-4.4,3l-2.5,2.4
	l-4.2,7.5l0.6,1.1L502,258l-0.5,3.3l-1.4-0.1l-2.4-4.1l-1.3,1.3l-6.1-0.6l-1,1.5l-2.9,0.9l-1.5,2.1l-3.2,1.8l-1.8-1.4l-3.2-4.1
	l-4.4-1.5l-1.8-4.7l1.8-0.6l-0.2-4.5l-3.3,0.6l0.2-3.1l-1-3.4l-1.3-0.3l-1.2-2.9l0-4.5l-1.5-0.1l-1.9-6.6l-1.4,0.1l-2-3.8l1.1-2.1
	l-0.4-2.5l1.2-2.2l-2.9-2.4l-0.6-3l-3.7-0.7l-1.6-0.2l-4.3,1.3l-4-0.4l-1.8,4.5l-2.8,3l-2-0.2l-1,3.8l1.5,1.9l-1.1,5.1l-2.3,1.8
	l1.5,3.1l2.9,1.7l0.6,2.7l-2.1,1.4l-4.6,0.7l0.2,3.3l1.9,0.1l2.2,1.7l1.5,3.6l-4.1,3.4l-1.4,0.1l-1,4.6l1.6,2.7l-1.3,1.3l-3.6,0.9
	l5.9,9.7l-3.3,2.9l0.5,3.5l2.1,0l3.4,1.8l0.3,3.2l3.9-0.1l1.2,3.7l-2.1,3.2l2.1,0.6l0.4,2.6l1.4,1.5l3.5-1.6l4.6-0.1l2.1-1l0.7-2
	l1.9-0.8l3.2,0.8l-0.2,3.1l1.5,1.9l2.2,0.8l-0.6,3.4l-1.6-0.3l-4.7,6.3l3.9,0.8l-0.5,2.6l2.7,1.6l1.7,2.5l2.2,0.7l6.7,0.4
	L474.4,311.3z"/>
<path id="D117" class="st0" d="M316.7,545l1.3-2.3l-0.2-3.6l-1.3-2.4l-3-0.2l-2.2-1.2l-3.1-2.9l-1.5-3.3l2.9-8.1l4.4-3.2l1.7-2.7
	l-0.9-4.2l-4.5-5l-1.1,1.8l0.6,3.6l-1.9,1.4l-1.6-1.1l-0.2-4.2l-3.2,0.2l-0.6-2.3l1.8-2.7l0.3-2.3l-2.3-0.1l-0.4-2.5l-1.6-1.1
	l-2,0.8l-4.6-3.9l-3.5,6.9l0.2,2.3l-2.2,2.7l-0.9,3.5l-2.1,2l-1.5,5.7l-2.2,0.7l-1.8,3.9l-3.8,5.8l-5.5,1.8l-0.1,4.1l-1.5,1l1.2,5
	l-0.2,5.1l-1.1,1.5l-4.9-0.3l-1-2l-2,1.3l-3.4,5.8l-1.1,5.1l1.7,2.3l0.1,2.9l-2.1,0.8l-2.7-1.3l-1.9,1.8l1.5,2.9l1.7,1.1l4.6-1.4
	l2.1,5.1l2.5-0.7l2,1.4l-0.8,3.2l1.4,2.2l0.6,3l3.3-1.1l-0.7-3.1l3-5.3l3.4,3.1l5.1,1.6l2.5-0.4l0,4l2.8,5.6l6,0.3l3.8-0.7l2.4,1.4
	l1.7,2.4l3.9-3.2l-1-3.2l1.9-2.8l-0.7-2.9l2.3-3l1.3-4.7l1.3-1.6l2.8-6.2l0.1-2.4l3.9-5L316.7,545z"/>
<path id="D120" class="st0" d="M485.3,451.3l0.9-1.6l2.5-0.2l3.8,3.9l4.3,1.9l0.7-3.1l2.2-3.3l2.4-1.7l3.8,0.9l1-0.5l0-3.6l0.9-2.8
	l4.7,1.8l-0.3-3l4.3-3.3l1.1,2.2l-0.3,3.1l3-0.2l0.7-4.7l4.6-0.4l2.9,0.9l-0.5,3.9l0.9,1.3l2.6-0.4l0.9,2.2l1.9,0.3l1.2,2.2l3.2-7.8
	l2.3,3.6l2.8-0.1l1.7,2.1l2.1-2.4l-3.4-1.4l-3.9-3.7l-0.2-4.8l2.2-0.1l0.5-5.2l-0.5-5.1l-2.4,1.2l-2-0.3l-3.2,4.4l-2-2.8L531,425
	l-1.2-2.4l2.9-4.2l-1.8-1.3l0.6-2.5l-2.3-3.4l-2.8,2l-2.6-0.5l0.1-4.3l0.8-1.7l-1.8-1.8l0.8-2.5l2.8-0.2l-0.1-2.9l5.4,1.2l0.9-3.4
	l2.3-3.3l-1.2-3.6l2-9.3l-1.2-1l2.8-3.4l-1.5-2.8l-3.5-2l-3,2.7l-2.1-0.3l-2.5,1.8l-2.5-1l-0.8,1.9l-2.1-2.2l-5.7-1.3l-1.4,0.8
	l-3.8-1.5l-1.7,1.3l0.7,4.4l-3,0.2l-1.3,2l-4.3-1.8l-0.7,2.1l-5.1-0.4l0.1-2.6l-1.7-1.3l-1.9,2.2l-1.5-1.5l-3.9-1.4l-1.1,1.1l-3.4,0
	l-2.8-1.9l-1.5-5.5l-3.2-0.6l-3.6,4.2l-2.3,0.5l-2.6,5.2l-0.4,4l-2.5,2.3l1.1,3l-1.3,1.1l0.9,3.6l-1.8,3.2l0.3,3.2l1.9,0.8l1.1,6
	l2.1,1.9l0,5.2l2.4,0.3l1.9,2.8l1.4-2.1l0.9-3.5l2.2-1.1l2.4,1.6l-2.3,4.9l3.4,5.9l-2,2l-1.5,5.6l-4,0.4l-0.2,4l1.2,1.5l-0.2,2.6
	l3.5-0.1l2.1,4.1l-1.5,4.6l5.2,0.5l2.5,1.1L485.3,451.3z"/>
<path id="D130" class="st0" d="M413.7,594l-2.6-3.1l-0.3-3.3l-3.7,0.6l-0.8-6.1l0.1-4.5l-1.8-2.3l-2.1,0.1l-0.6-4.1l-1.4-1.7
	l-3.6,4.7l-1.9-1.3l0.2-1.9l2.2-2.2l2-8.2l-2.4-2l0.4-3.9l-2.1,0.6l-1.3-2.2l-2.4-0.8l0.1-3.7l-3.9-2.3l-0.9-4l0.3-3l2.6-7.3
	l-1.9,0.3l-2.2,2l-2-1.5l-1.3-2.5l-1.7,0.9l-3.8-0.8l-0.4,4.2l-1.4,0.5l-1.5-3.9l-1.6,1.6l-4.4-3.2l-2.6,3.8l1.8,2.7l-3,4l-0.4,3.8
	l1,1.6l-2.7,3.4l1.1,0.8l-1.3,3.8l-2.5-1.8l0.8-3.7l-2-1.9l-2.8,3.6l-1.1,0l0-7.4l-1.8-0.5l-0.1-2.9l-1.4-4.1l-2.2-0.5l-1.1-4.8
	l-1.8-0.3l-1.1-5l0.4-3.3l-4.2-2l2.2-5.2l-0.9-2.8l-2.1,1.8l-2.8,0l-2.3,2.3l-1.5,3.6l-2,1.8l-1.1,3.2l1.2,1.6l-1.3,5.1l-6.4,7.6
	l-0.6,3.6l-2.2,0.6l-4.1,2.9l-0.5,6.8l-3.9,5l-0.1,2.4l-2.8,6.2l-1.3,1.6l-1.3,4.7l0.7,1.7l2.1,0l3.2-2.9l0.9,3.7l-0.1,3.5l-1.6,2.5
	l3.1,2.5l3.8,1.8l2.2-2.4l1.5,1l-1.5,3l-1.8-0.1l-1,3.3l-2.1-0.7l-0.4,2.7l-1.7,1.7l-1.8,4.1l-0.7,3.5l3,4.3l3.5,2.8l3.8,1.3
	l-1.7,5.1l3.8,3.3l2.8-1.6l2.6-3.4l0.6-5.1l2.5,0.3l0,2.4l3.2,3.6l-0.2,5.1l0.8,2.3l-0.1,5l-2.5,1.7l-1.9,5l0.8,3.9l2.7,0.7l2-3
	l2.7-1l3.5-8.2l2.2-0.6l3.2-2.8l5.7,2.6l1.9-1.9l3,1.4l8.7,0.7l0.6-1.6l3.8-2.9l4.2,0.5l1.9,0.9l3.4-1.2l2.3,1.2l1.8-2.1l4-2.2
	l1.1,4.2l2.2,1.4l1.6,4.4l3.5-2.6l2-2.4l1.7,2.3l0.7-4.4l-0.7-2.9l-2.2-2.2l2.2-1.1l2.3-4.2l1.4,2l2.8,0.4l1.4-1.8l-0.3-2.9
	l-4.3-4.6l-1-3l1.7-4.1l1-6.6l1.2,1.1l0.1,4.6l3.7,2.2L413.7,594z"/>
<text transform="matrix(1 0 0 1 410.5986 420.752)" class="textName">Ajmer</text>
<text transform="matrix(1 0 0 1 547.6681 282.127)" class="textName">Alwar</text>
<text transform="matrix(1 0 0 1 437.8667 701.5566)" class="textName">Banswara</text>
<text transform="matrix(1 0 0 1 613.5391 540.2842)" class="textName">Baran</text>
<text transform="matrix(1 0 0 1 174.5635 458.0762)" class="textName">Barmer</text>
<text transform="matrix(1 0 0 1 633.7715 279.3691)" class="textName">Bharatpur</text>
<text transform="matrix(1 0 0 1 395.127 473.7061)" class="textName">Bhilwara</text>
<text transform="matrix(1 0 0 1 276.0078 217.9019)" class="textName">Bikaner</text>
<text transform="matrix(1 0 0 1 484.3223 479.0234)" class="textName">Bundi</text>
<text transform="matrix(1 0 0 1 392.5195 543.4492)" class="textName">Chitta.</text>
<text transform="matrix(1 0 0 1 405.6895 184.2773)" class="textName">Churu</text>
<text transform="matrix(0.667 -0.745 0.745 0.667 550.6681 355.9476)" class="textName">Dausa</text>
<text transform="matrix(1 0 0 1 679.4219 367.1211)" class="textName">Dholpur</text>
<text transform="matrix(1 0 0 1 269.0298 664.9238)" class="textName">Dungarpur</text>
<text transform="matrix(1 0 0 1 232.2031 89.1221)" class="textName">Ganganagar</text>
<text transform="matrix(1 0 0 1 453 99.146)" class="textName">Hanumangarh</text>
<text transform="matrix(1 0 0 1 477.3555 338.6382)" class="textName">Jaipur</text>
<text transform="matrix(1 0 0 1 112.6699 332.2603)" class="textName">Jaisalmer</text>
<text transform="matrix(1 0 0 1 231.9653 510.9316)" class="textName">Jalor</text>
<text transform="matrix(1 0 0 1 557.1452 618.8145)" class="textName">Jhalawar</text>
<text transform="matrix(1 0 0 1 519.5488 191.0924)" class="textName">Jhunjhunun</text>
<text transform="matrix(1 0 0 1 258.0176 352.9971)" class="textName">Jodhpur</text>
<text transform="matrix(1 0 0 1 616.041 410.3193)" class="textName">Karauli</text>
<text transform="matrix(1 0 0 1 510.1914 528.7939)" class="textName">Kota</text>
<text transform="matrix(1 0 0 1 363.1748 321.6665)" class="textName">Nagaur</text>
<text transform="matrix(1 0 0 1 325.7979 455.2744)" class="textName">Pali</text>
<text transform="matrix(1 0 0 1 451.2217 665.4697)" class="textName">Pratapgarh</text>
<text transform="matrix(0.2553 -0.9669 0.9669 0.2553 361.2229 534.1519)" class="textName">Rajsamand</text>
<text transform="matrix(1 0 0 1 577.3027 444.9844)" class="textName">Sawai Madhopur</text>
<text transform="matrix(1 0 0 1 457.8252 279.3691)" class="textName">Sikar</text>
<text transform="matrix(1 0 0 1 265.7954 559.5947)" class="textName">Sirohi</text>
<text transform="matrix(1 0 0 1 481.7822 412.1982)" class="textName">Tonk</text>
<text transform="matrix(1 0 0 1 325.7979 574.1699)" class="textName">Udaipur</text>
</svg>
