<?xml version="1.0" encoding="utf-8"?>
<!-- Generator: Adobe Illustrator 26.0.0, SVG Export Plug-In . SVG Version: 6.00 Build 0)  -->
<svg version="1.1" id="Layer_1" xmlns="http://www.w3.org/2000/svg" xmlns:xlink="http://www.w3.org/1999/xlink" x="0px" y="0px"
	 viewBox="0 0 800 730" style="enable-background:new 0 0 800 730;" xml:space="preserve">
<style type="text/css">
	.st0{stroke:#000000;stroke-miterlimit:10; cursor:pointer;}
	.textName{font-family:'Arial'; font-weight:bold; color:#000000; font-size:14px; cursor:pointer;}
</style>
<path id="D244" class="st0" d="M425.7,644.9l-10.7-4.5l-3.4-5.3l-2.8-5.9l0.6-10.6l1.1-7.9l-1.9-5.9l-4.9-4.7l-2.7-0.5l-5.2-2
	l-2.8-3.5l-5.9-3.5l-1.7-3.4l-0.9-4.9l0.5-4.8l2.8-9.7l-0.6-3.2l2.4-3.3l1.3-6.2l3.5-1.5l2.6-2.8l3.4-1.2l4.3-3.3l1.7-3.2l1-5.8
	l-3.2-6.6l-0.7-5.1l0.4-3.8l2.4-7.9l2.6-0.2l4.9-2.5l6.1-4.6l2.6-3.3l2-1.7l2.8,0.6l2.4-0.3l4.9,1.7l5.4,1.1l13.3-1.4l4.3-1.2
	l1.5,2.6l2.9,1.1l7.9,2l5.4,0.3l5.3-0.8l1.6-1.5l4-0.6l4.8,0.5l2.2-1.3l5.8-4.6l2,0.1l3.7,1.3l3.9-0.2l2.7-2.2l5.9-6.8l3.2-3
	l6.3-1.7l10.9,3l6.7,0.7l2.9-1.8l4.5-4.2l2.4,0.7l4.9,3.5l6.6,1.4l0.5,2l0.5,1.7l0.6,2.3l0.4,0.3v0.3l0.6,0.7l0.2,0.1v0.3l2.8,1.2
	l0.9,0.9l0,0l0,0l0.7,1.2l0.4,1.1l0.3,1.1l1.5,1.7v0.3v0.3l2.9,1.2l0.7,1.5h0.2h0.2v0.3l0.4,0.1l0.1,0.8l0.1,1.1l0.4,0.3l1.4,2.4
	l0.7,0.4l0.7,0.3l0.5-0.2l0.9-0.7l0.2-0.4l1.3-0.7l0.5-1.2v-0.1l0.3-0.5l1.8-1.8l1.9-0.3l1.1,0.6l1.4,1.5l0.2,0.7l0.5,1.2l0.7,0.6
	l1.3,7.5l0.8,0.6l0.3,0.1l0.5,0.2l4.3,1.6l0,0l0.9,0.8l1.1,3.6l0.9,7.1l0.3,0.9l1.5,4.6l0.2,0.1l0.4,1.2l2,1.6v0.3l1,0.3l0.6-0.2
	l1.7-0.7l3.1,2.4l0.5,0.4l0.6-0.2l1.4-0.4l1.1,0.5l0.6,0.4l2,1.3l0.1,0.5l-0.1,1.5l0.1,0.8v0.3v0.4v0.9l-0.8,1.7l-0.6,1.4l-0.8,1.3
	l-0.7,1.2l-0.2,1l-0.4,1.2l-0.3,0.6l-1,1.2l-0.4,0.7v0.2l-0.1,0.7v1.1v0.3v0.8v0.1v0.8l0.6,1.1l0.2,0.3l0.2,0.8l0.5,1.4l0.6,1.1
	l0.5,1.2l-0.3,0.8l-1.3,1.6l-0.4,1.5l-1,1.8l-0.2,1.6v1.6l-1,1l-0.8,0.9l-1.8-0.1l-0.4,0.9l-1.9,1.6l-1.2,0.7l-1.5,0.7l-1.4,0.3
	h-0.7l-1,0.3l-2.5,3.9l-0.6-0.2l-0.4-0.2l-0.4-0.1l-0.5-0.2l-0.5-0.2l-0.6-0.2l-0.8-0.3l-0.7-0.3l-1.3-0.6l-0.4-0.1l-1.7,0.1h-1.5
	l-1.3,0.1l-1.9,0.3l-2.1,0.1l-2.2,0.3l-1.3,0.2l-2.8,0.3l-1.1,0.1h-0.5l-0.3,0.1l-0.6,0.1l-1.6,3.3l-2.5,1.4l-1.9,0.9l-1.8,0.9
	l-2.4,1.1l-3.6,2l-0.1,1l0.3,1.1l0.3,1l0.2,1.3l-0.1,0.8l-0.2,1l-0.4,1.8l-0.2,1.9v0.9v0.9v0.5v0.7v0.6v0.8v1.6l0.1,0.6l0.2,1
	l-0.2,0.7l-0.2,1.2l-0.4,0.6l-0.1,0.6l-0.3,0.9l-0.3,0.9l-0.2,1.1l-0.1,2.4l-0.3,1.2l-0.6,0.6l-0.4,0.8l-0.6,1l-0.3,1l-1.7,3
	l-0.9,0.3l-0.4,0.5l-0.1,0.2v0.4v0.5l0.1,0.8l0.1,0.9v0.1v0.3v0.8v0.2l-0.1,0.4l-0.1,0.6l-0.2,0.8l-0.2,1.2l-0.6,1.8h-1.1h-0.4
	l-0.5-0.2l-0.5-0.2l-0.5-0.3l-0.5-0.2l-0.5-0.2l-0.8,0.1l-1.1,0.6l-0.8,0.2l-0.7,0.1l-1,0.6l-0.6,0.6L546,645l-0.3,0.3l-0.3,0.4
	l-0.6,0.5l-0.6,1.8l-0.4,1l-0.4,0.6l-0.4,0.6l-0.3,0.4l-0.5,1.1l-0.2,0.5l-0.5,1l-0.3,0.6v0.8l0.3,0.9l0.2,1l-0.5,1.6l0.3,0.5
	l0.5,0.7l0.4,0.5l0.1,0.8v0.2l0.3,1.2l-0.9,0.9l-0.8,2.1h-2.5h-0.1h-0.1l-1.1,0.3l-1,1.4l-0.1,0.1l-4.8,3.8l-2.3,1.4l-3.9-0.8
	l-3.3-3.6l-1.4-4.1l-1.5-9.7l-4.8-5.9l-5.1-3l-3.5-1l-2,0.5l-3.4,1.9l-2.7,3l-4.2,6.4l-1.5-0.1l-6.9-3.1l-1.8-0.4l-2.7-4.5l-7-8.7
	l-6-1.2l-1.6-1l-2.7-0.1l-0.3-0.9l-1.7,1l-1.2-2.1l-2.2,2.6l-0.9-1.5l-9.2,3.3l-3.6-0.6l-8.9,3.3l-5.8,3.9L425.7,644.9z"/>
<path id="D241" class="st0" d="M565.6,490.6l-6.6-1.4l-4.9-3.5l-2.4-0.7l-4.5,4.2l-2.9,1.8l-6.7-0.7l-10.9-3l-6.3,1.7l-3.2,3
	l-5.9,6.8l-2.7,2.2l-3.9,0.2l-3.7-1.3l-2-0.1l-5.8,4.6l-2.2,1.3l-4.8-0.5l-4,0.6l-1.6,1.5l-5.3,0.8l-5.4-0.3l-7.9-2l-2.9-1.1
	l-1.5-2.6l-4.3,1.2l-13.3,1.4l-5.4-1.1l-4.9-1.7l-2.4,0.3l-2.8-0.6l-2,1.7l-2.6,3.3l-6.1,4.6l-4.9,2.5l-2.6,0.2l-3.7-1.8l-4-2.9
	l-3.2-1.3l-5-0.7l-5-3.3l-3.4-4.2l-2-3l-2.9-5.7l-3.5-3.5l-1.4-3.2l-1.1-4.1l-0.2-6.2l0.9-4.7l-3.6-7.7l-0.8-3.3l0.1-4.5l-0.9-3.5
	l-3.4-2.2L351.9,436l-5.4-8.4l-1.7-4.5l-2.7-2.7l-6.4-3.3l-3.7-0.8l-3.1-0.3l-4.7,0.6l-13.9,5.4l-4.6,3.9l-9-8.4l-7.5-3.7l-3.2-2.2
	l-1.9-3.6l-2.8-10.9l-6.9-10.8l-4-5L247.8,369l-18-7.4l-2.2-1.6l0.5-4.4l2.1-4.1l-1.1-1.6l1.7-6.3l-0.3-4l5.5-6.4l2.9-1.4l0.2-0.3
	l3.4-5l0.5-4l0.6-4.7l0.4-1.6l0.5-1.7l3-4.3l-3.2-7.4l0,0l-0.1-0.2l0.6-3.9l3-6.1l-0.4-7.8l1.8-7.5l5.5-0.5l4.3-3.6l-0.9-7.4l2-2.2
	l1.3-3l-0.4-0.8l-0.5-1v-0.3l0.1-3.5l1.7-1.6l1.4-2.8l3.5-3.3l1-2.7l-1.7-3.6l-1.9-1.2l-1.5-2.2l-0.8-5.9l-3.1-3.4l-0.8-0.3
	l-1.9-0.8l-0.2-1.9l7.1-3.2l3.5-6.8l1.1-0.4l2.2-0.8v-3.3l-1.6-2l-0.3-1.6l-0.6-3.6l-1.7-0.7l-2.2,0.5l-1.5-1.8l-2.2,0.1h-1.2
	l-1.9-3l-0.9-1.4l-0.3-0.2l-2.4-1.3l-0.6-0.8l-0.8-1.1l-5.1-1.5l-0.1-0.2l-2.5-3.8l-2.8-1l-1.8,0.5l-2.1-2.7h-3.7l0.1-0.3l-0.1-2.6
	l-1.2-3.5l-0.5-2.5L232,176l-0.3-0.7l-1.1-0.8l-0.2-0.8l-0.4-0.9l-1-1.2l-0.4-0.3l-0.6-2l-0.4-0.3l-0.1-0.8l-1.3-3.3l-0.1-2.4v-1.2
	l1.6-5.3l4.4-5.7l1.5-2.5v-1l-0.1-3.7l-2.5-1.6V140l0.1-0.4l3-3.3l1.5-3.7l0.8-0.9l2.1-0.3l0.4,0.1l0.1,0.1l3.3,1.7l0.2,0.1l3.2,1.7
	l6.6,6.2l3.1,2.3l1,0.3l3.5,0.5l2.9-0.1l2.1-1.2l0.9-0.5l0.4-0.5l0.1-0.1l0.7-2.2l1-4.9l0.2-1.6l0.3-0.7l1.1-2.6l0.4-0.4v-0.3
	l3.1-0.8l0.7,0.4l1.4,0.8l0.6,0.3l0.3,0.1l0.4,0.3l0.7,0.3l1.7,0.3l0.4-0.2l0.4-0.1l1.5-1.8l1.7-0.5l0.2,0.1l0.1,0.1l0.3,0.3
	l0.9,0.9l0.1,0.6l1.1,7.1l1.1,1l0.1,0.7v0.6l0.3,0.1v0.3l2.8,0.9l2-1l0.1-0.1v-0.1l0.1-0.4l5.1-3.6l1-0.2l0.4,0.1l1.8-0.2l2.6-1.1
	l0.2,0.2l0.1-0.1l0.1-0.1l0.3-0.1l1.4-1.4l0.4-0.5l0.5-2l0.1-0.7l1.3-1.2l0.3-0.2l0.2-0.1l2.8-0.4l2-0.3l1.9,0.6l5.4-1.2l2-1.8
	l0.6-0.9l1.9-2.9l1.1-0.9l3.3-1l0.5,0.1l1.8-0.5l0.8-0.4l1.3-1.5l0.3-0.8l1.3-0.7l1.3-0.6l3.6-1l2.5-0.1l0.4-0.1l1.6,0.3l4.7,0.8
	l5.4,2.9l3.4,2.5v0.3l3.5,1l0.5-0.2l2.1-1.1l1-0.9l2.3-1.5l0.6-0.2l1.1-2.1l1.1-0.8l1.1-3l0.6-0.7l0.9-1.3l0.3-0.9l5.5-5.7V103
	l0.6-0.3l0.9-1l0.3-0.1l2.7-1.4l9-3l2.4-1.4l2.8-1.7l1.5-2.2l2.2-6.3L402,83l3.1-3.8l1.9-1.6l0.6-0.4l3.2-1.6l5.6-0.6l0.3,0.2v0.3
	v0.3l0.6,0.4l2,0.4l4.8,1.6l2,1.9l0.1,0.6V81l0.6,0.5v0.3l2.6,1.2l1.9,0.3l0.9-0.2l2.3-1.2l0.1-0.1l0.3-0.2l1-1l0.9-2.4l0.1-3.6
	v-0.5l0.4-1.3l0.7-0.9l1.8-3.3l0.8-1.4l0.7-1.8l0.2-1l0.1-8l1-4.7l1.9-1.8l4.2-0.9l0.4,0.3l1.5,1.3l2,0.6l0.9-0.4l4.4-2.5l1-0.7
	l0.7-0.2l0.6,0.1l2.4-2.8l0.4-0.8l3.3-0.9l1.3-0.8l3.9-1.9l1.5-0.7l-1.4-3.3l-0.7-0.8l-0.3-3.8l-0.4-1.9l-0.2-0.6l-1.8-2.1l-0.1-2.2
	l0.4-0.9l2.1-1.3l4.6-0.9l2,1.8l0.8,0.7v0.3v0.3l1,1l0.4,0.1v0.3l0.4,0.1l0.6,1.8l0.3,0.2l0.2,0.2l1.1,4.9l0.7,2.9l0.6,2.8l0.8,0.8
	l0.9,0.9l2,1.7l4.3,6.1l3.4,6.7l2.8,3.6l3,0.8l0.3-0.2l0.2-0.1l0.7-0.6l1-2.1l4.3-1l4.6,1.3l1.3-0.3l3-0.5l5.1,1.6l2.5-0.4l4.8,0.7
	l5.5-0.5l3.8,1.3l1.5,0.5l1.2,0.9v0.3l1.2,1.2l5.8,5.5l0.1,0.4h0.3l0.2,0.2l0.8,0.8v0.1v0.2v0.3l1.3,0.9l4.4,4l0.1,0.8l0.1,0.7
	l0.4,0.3l0.4,0.3l0.6,2.2l0.5,0.5v0.3l4,4v0.3l0.1,0.1l0.5,0.3l0.7,2l0.1,0.2l0.9,0.9v0.3l1.4,1.3l1.5,1.4v0.3l0.1,0.1l1.1,0.5
	l4.3,2.8l1.3,0.8l0.7,0.5l2.3,1.3l1.8,1.2l1.9,2.4l0.8,7.3l0.5,0.6v0.2l0.3,0.1v0.4l0.3,0.9l1.1,1.2l0.9,2.7l-0.3,9.3l-0.2,7.6
	l0.1,0.7l1.5,1.6l0.5,3.4l-2.1,2.4l-1.6,3.6v1.6l-0.1,8.4l1.6,1l1.1,0.4l5.8,2l0.4,0.2l2.2,0.8l1.1,1.2l1.8,6.8l1,2.6l1.7,4.4h0.2
	v0.3l0.4,0.1l2.8,2.8l1.2,1.2v0.3h0.3l0.1,1v0.3h0.3l0.2,0.4v2.3l-0.2,1.7l-0.5,4l0.4,6.6l0.1,0.2l0.4,1.3l1.4,1.6l0.6,2.7v1.5
	l-0.1,0.1l-1.2,0.9l-0.1,0.3l-0.4,1v0.1l-0.5,10.7l-0.3,0.9l-0.7,0.3l-0.6,0.6l-0.4,1.5l-0.2,0.4L600,217l-0.5,1l-1.1,2.4l-2.3,1.9
	h-0.4l-1,0.6l-1.6,1.3l-3.2,2.4l-0.2,0.2l-0.5,0.9l-0.1,1l0.3,0.1l0.1,0.7l0.2,0.8l1,0.7l0.1,2.1l-0.3,6.1l-2.2,13.4l0.1,6.5
	l0.8,5.2l0.1,0.7l0.7,1.6l0.5,0.6l0.3,0.9l0.5,0.6l0.5,0.4l0.9,2.7l0.5,6.5l-0.6,2.1l-3.3,3.7l-0.3,0.7l-1.1,3.3l-0.5,3.8l-0.3,0.4
	l-4.3,3.6l-1.2,0.6l-0.1,0.5v1.5l0.4,1.6l0.2,0.1l0.3,0.2l0.4,1.6l2.1,1.6v3.8l-0.7,3.6l0.2,1.9l0.3,2.8l0.1,0.6l0.1,0.4l0.6,2.9
	l-0.1,4.3v0.1l-0.5,1.1l-1.2,2.8l-2.3,2.8l-0.8,0.7l-1.3,2.8l-0.9,2l-3,3.2l-1.8,1.7l-0.8,0.4l-0.4,0.2l-2.1-0.5l-0.9-0.4l-0.3-0.1
	l-1.2,0.5l-0.4,0.6l-1.4,3.7l-0.4,2.7l0.9,8.5l0.1,3.1l-0.3,0.5l-1.2,6.8l-1.7,2.2l-0.5,0.1v0.3h-0.3v0.3l-1.3,1.5h-0.2v0.3L560,373
	h-0.2l-0.6,1.3l-0.5,0.9l-1.6,1.7l-0.6,1.6l-0.8,6.1l-0.4,0.6l-0.6,0.6l-0.7,0.7l-6.8,3.5l-0.1,0.1v0.3l-0.4,0.4l-0.1,1.2l0.4,3.3
	l0.3,0.1l0.3,0.1l2.1,9.8l1,4.5l0.2,0.2l0.4,0.4l1.4,1.8l0.4,0.9v0.3l2.1,1.8l0.9,0.3l0.5-0.2l0.5,0.2l0.2,0.3l0.2,1.6l-0.1,0.7
	l-0.6,0.3l-0.3,2.4l-0.2,1.1l-0.2,2.7v1L556,427l-0.4,3.3l-1,6.5l0.1,1.3l0.5,0.5l0.4,0.5l0.3,0.4l-0.1,3.1l-0.1,0.3l-0.2,0.7
	l-0.4,1.2l-0.4,1.1l-0.3,2l-0.1,1l-0.4,3.2v0.4v3.1l0.3,2.9l0.6,5l0.4,1l1.5,1v0.7l0.1,0.7l2.4,1.4l1.1,0.7l-0.1,1.3l-0.3,5.5
	l0.4,2.5v0.1l0.7,1.2l1.9,1.4l1.4,1l0.4,1.2v0.2L565.6,490.6z"/>
<path id="D243" class="st0" d="M425.7,644.9l-0.1,2.1l4.6,6l-1.5,3.6l2.6,3.9l-1,2.7l-1.6,0.2l-2.5-0.4l-1.5,1.7l-1.3,2.7l-1.8,1.8
	l-2.3,3.3l-2.2,1.3l-2,1.9l-1.2,2l-0.4,1.8l-1.8,0.3l-2.5-1.2l-2.7,2.6l-3.7,1.4l-2.3,2.2l-1.2,2.2l-0.9,6l-2.3,5.8l-2.8,4.1l-4,2.8
	l-3.3,0.8l-3.8,1.7l-1.4-1.3l-8.9-4.6l-6.5-2.4l-5-2.6l-8.3-0.7l-3.3,0.6l-5.7-1.7L341,694l-1.4-2.3l-2.1-2.5l-4.4,1.6l-3.9,2.1
	l-1.8-1.6l0.2-6.1l-0.8-1.8l-3.7-3.9l-3.3-2.1l-2.3,0.4l-2.4,2.1l-8.2-4l-1.4-7.7l0.7-1.3l0.3-2.8l1.2-1.3l1.2-0.2l1.7-2l1.8-5.9
	l1.1-0.7l1.8-3.1l0.4-3l1.8-1.8l2.5-1.1l1.3-2.3l3.7-2.6l4.4-1.3l1-0.8l-0.9-2l2.7-1.7l-1.3-2.8v-1.6l-1.4-2.1l-3-10.5l-1.5-1.8
	l-4.7-1l-1.3-0.9l-2.2-7.1l1.1-6v-6.8l-0.8-2.9l-3.6-3.5l-3.5-4.5l-2.7-1.6l-1.4-1.7l-1.3-2.2l0.4-3.1l0.6-1.2l5.1-4.4l2.6-1.4
	l5.2-1.6l1.4-2.1l0.8-1.9l-0.2-6.6l-1-2l-1.7-1.7l-2.5-1.3l-1.6-2.2l0.6-2.7l1.1-2.1l2.2-2.3l7.2-5.5l1.5-2.2l2.5-10.2l1.3-2.5
	l4.2-2.2l5-1.3l4.4-2.8l-0.4-4l0.5-3.7l-0.4-6.1l-1.3-2.4l-2.1-5.9l-1.3-1.4l-2.4,2l-2,3.2l-2.5-2.8l-1.1-4.3l-2.9-0.3l-4.5,1.4
	l-5.2-1l-2.6,1.5l-2.4,2.7l-5.6,3.4l-2.4-0.4l-2.2-4l-0.1-5l-4-27.6l-0.3-18.3l1.1-5.4l1.5-3.6l2.4-3.7l2.6-2.4l4.6-3.9l13.9-5.4
	l4.7-0.6l3.1,0.3l3.7,0.8l6.4,3.3l2.7,2.7l1.7,4.5l5.4,8.4l11.3,12.1l3.4,2.2l0.9,3.5l-0.1,4.5l0.8,3.3l3.6,7.7l-0.9,4.7l0.2,6.2
	l1.1,4.1l1.4,3.2l3.5,3.5l2.9,5.7l2,3l3.4,4.2l5,3.3l5,0.7l3.2,1.3l4,2.9l3.7,1.8l-2.4,7.9l-0.4,3.8l0.7,5.1l3.2,6.6l-1,5.8
	l-1.7,3.2l-4.3,3.3l-3.4,1.2l-2.6,2.8l-3.5,1.5l-1.3,6.2l-2.4,3.3l0.6,3.2l-2.8,9.7l-0.5,4.8l0.9,4.9l1.7,3.4l5.9,3.5l2.8,3.5l5.2,2
	l2.7,0.5l4.9,4.7l1.9,5.9l-1.1,7.9l-0.6,10.6l2.8,5.9l3.4,5.3L425.7,644.9z"/>
<path id="D242" class="st0" d="M178.6,618.3l2.2-3.8l0.1-2.7l0.1-4.4l1.2-1.2l1.5,0.3l-0.3-3.2l1.7-4.8l1.5-0.4v-1.2l-0.1-7.5
	l0.6-1.7l-0.7-4l1.3-6.3l-0.6-3l3.2-3.6l2.8-0.7l-1.4-5.7l0.2-1.9l1.8-3.8l1.7-1.6l0.4-4l1.6-3.8l3.7-2.6l1.7-3.8l1.5-1l-0.2-0.7
	l-0.8-2.9l-0.8-1.1l-0.6-0.8l-1-3.5l-1.1-4l-3.7-1.9l-4.1-8.1l1.6-5.9l-0.4-3l0.3-3.5l0.6-3.8l1.3-3.4l-0.8-3l1.4-1.1l0.5-3.7
	l3.1-3.6l0.6-0.1l4.1-4.2l0.3-0.3l6.3-0.9l0.1-2l-0.4-0.7v-0.1h-0.1l-0.4-0.7l-2.9-1.2l-0.1-0.1l-2.2-2.9l-0.2-0.2l1.8-3.5l0.4-0.9
	l-2.6-2.7l-0.4-1.9l-0.4-0.4l0.8-3.2l-3.3-2.1l-0.1-0.3l-1.7-3.9l-0.3-0.3l-2.4-2.6l-0.6-0.2l-2.9-4.3l0.6-1.9l-0.6-2.2l0.3-5.2
	l-0.4-2l1.4-3.6l2.1-1.9l2-0.1l1.3-3.2l2-1.7l-2-3.2l2-5.5l2.9-0.6l-1-2.1l-0.8-0.4l-1.8-0.9l-0.2-1l-0.2-1.3v-0.1l0.9-3.2l2.1-3.1
	l1.7-1l0.3-6.2l3.3-1.9l2.4-4.1l-0.8-2.3l-2.1-2.4l4.6-11.2l4.1-5.4l6.3-3.3l4-5.3l0.3-2.4l2.2,1.6l18,7.4l22.6,12.3l4,5l6.9,10.8
	l2.8,10.9l1.9,3.6l3.2,2.2l7.5,3.7l9,8.4l-2.6,2.4l-2.4,3.7l-1.5,3.6l-1.1,5.4l0.3,18.3l4,27.6l0.1,5l2.2,4l2.4,0.4l5.6-3.4l2.4-2.7
	l2.6-1.5l5.2,1l4.5-1.4l2.9,0.3l1.1,4.3l2.5,2.8l2-3.2l2.4-2l1.3,1.4l2.1,5.9l1.3,2.4l0.4,6.1l-0.5,3.7l0.4,4l-4.4,2.8l-5,1.3
	l-4.2,2.2l-1.3,2.5l-2.5,10.2l-1.5,2.2l-7.2,5.5l-2.2,2.3L314,545l-0.6,2.7l1.6,2.2l2.5,1.3l1.7,1.7l1,2l0.2,6.6l-0.8,1.9l-1.4,2.1
	l-5.2,1.6l-2.6,1.4l-5.1,4.4l-0.6,1.2l-0.4,3.1l1.3,2.2l1.4,1.7l2.7,1.6l3.5,4.5l3.6,3.5l0.8,2.9v6.8l-1.1,6l2.2,7.1l1.3,0.9l4.7,1
	l1.5,1.8l3,10.5l1.4,2.1v1.6l1.3,2.8l-2.7,1.7l0.9,2l-1,0.8l-4.4,1.3l-3.7,2.6l-1.3,2.3l-2.5,1.1l-1.8,1.8l-0.4,3l-1.8,3.1l-1.1,0.7
	l-1.8,5.9l-1.7,2l-1.2,0.2l-1.2,1.3l-0.3,2.8l-0.7,1.3l1.4,7.7l-0.4-0.2l-3.2,0.7l-3.6,1.8l-5.8,1.3l-5.6,3.3l-3.7,0.4l-2.7-1.1
	l-2.6-2.5l-3.8-6.4l-1.9,1.1l-7-1.8l-3.5,1.2l-2.4-0.5l-2.3,0.3l-3.1,2.9l-6.9,10.4l-1.5,1.5l-1.5,0.3l-4.2-3.5l-3.5,0.1l-4.8-4.1
	l-1.8-0.5l-13.4-7.7l-1.6-0.5l-2-1.6l-1.4-1.8l-1-2.3L211,664l0.4-7.9l-0.3-2.6l-2.2-1.9l-2.7-4.2l-0.4-3.2l-1.5-3.7l-0.9-3.5
	l0.7-2.7l3.2-2.9l-0.2-1.3l-3.3-2.5l-1.9-2l-1.3-2.3l-1.7-1.7l-5.6-1.5l-6.8-3.2l-4.4,0.2L178.6,618.3z"/>
<text transform="matrix(1 0 0 1 462.2598 571.8457)" class="textName">East Sikkim</text>
<text transform="matrix(1 0 0 1 373.5459 273.0259)" class="textName">North Sikkim</text>
<text transform="matrix(1 0 0 1 333.6871 578.2819)" class="textName">South</text>
<text transform="matrix(1 0 0 1 330.9871 595.0819)" class="textName">Sikkim</text>
<text transform="matrix(1 0 0 1 224.9097 534.1621)" class="textName">West Sikkim</text>
</svg>
