<?xml version="1.0" encoding="utf-8"?>
<!-- Generator: Adobe Illustrator 26.0.0, SVG Export Plug-In . SVG Version: 6.00 Build 0)  -->
<svg version="1.1" id="Layer_1" xmlns="http://www.w3.org/2000/svg" xmlns:xlink="http://www.w3.org/1999/xlink" x="0px" y="0px"
	 viewBox="0 0 800 730" style="enable-background:new 0 0 800 730;" xml:space="preserve">
<style type="text/css">
	.st0{stroke:#000000;stroke-miterlimit:10; cursor:pointer;}
	.textName{font-family:'Arial'; font-weight:bold; color:#000000; font-size:14px; cursor:pointer;}
</style>
<path id="D337" class="st0" d="M473.1,591.4l-1,0.2l-0.5-1.4l-2.2-1.7l-0.2-1.9l-1.6-1.5l0-1.6
	l-1.5-1.3l0-3.2l-1.5-0.8l-2.3,0l-0.7-2.1l1.2-3.9l0-1.5l-1.2-3.4l1.2-1.7l-2-2.3l-2.1-0.5l0.2-1.5l1.7-1.4l0.6-1.8v-2.7l1.9-0.1
	l0.2-0.6l-0.8-2.5l1.7-1.2l2.5-3.9l-0.4-2.9l0.7-3.3l1.8-1.6l4.2,0.4l1.3,2.2l2-0.5l1.6-1.5l0.5,2.5h3.3l2.5,1.3l4.4,0.5l1.3,1.3
	l-0.3,2.4l2.4,0.1l1.5-1.1l2,0.4l0.7-0.4l-0.4-1.9l-2-2.1l0.5-0.7l-0.3-1.7l2.2-0.7l-1.5-2l-0.5-2.5l1.5-1.6l-0.2-2.4l2-0.9
	l-0.4-3.5l1.5-2.5l-3.1-3.2l1.4-0.3l-0.7-1.8l0.9,0.6l1.6-2.7l-0.6-4l2.1-0.1l0.6-2.7l-1.8-3.1l0.5-2.8l2.2-0.4l2,0.8l-0.4-1.4
	l2.9,0.3l1.1,2.2l3.2-0.1l0.2-4.3c0,0,1.1,2.2,3.9,2.8c2.9,0.5,2.1,0.7,2.1,0.7l4.3-0.3l2.1,0.8c0,0-2.5,1.9-0.5,1.9s2,0,2,0
	l3.4-0.4l1.4-2.5l1.5,1.9l-0.7,3.2l-0.5,0.8l-2.1-1l-0.5,1.8l-2,0.8l-0.6,3.4l-0.7,1.7l-2.2,1.7l-2.2,1.5l-1.7,1v2.5l1.1,1.9
	l-0.6,1.8l0.8,1.6l-0.5,1.6l-0.9,2.3l1,2.6l-0.4,1.7l1.3,1.4l0.7-0.5l1.5,1.2v1.6c0,0-0.1-0.2,0.6,0.6c0.7,0.8,0.7,0,0.7,0.8
	c0,0.8,0,0.8,0,0.8l-0.6,0.8l0.8,2l-0.2,1.4l1.6,0.4l2.7-1.1l1,2.4l1.5,1.8l-0.5,3.5l-0.3,2.5l-2.5,1.5l-1.5,2.6l0.3,3l1.6,2.9
	l2.5,2.7l-1.5,4.5l-1.8,1.3l0.4,2.3l2.9,0.5l-0.5,1.6l-1.5,1.5v3.4l2.1,1.5l1.8,4.4l-0.6,0.5l2.7,4.6l0.8,1.8v2.2l0.6,0.8l-1.6,1.9
	l-1.4,0.8l1.4,1.8l1.1,0.7l-0.8,2.2l0.8,1.2l-0.9,3.4l0.8,1.7l2.9,0.5l1,2.9l-2.9-0.8v1.9l2.3,3l2.2,1.5l0.1,2.3l3.2,2.4l0.9,2.5
	l-1.1,1.9l1.3,2.5l1,1.2l-1.4,0.9l-1.5,0.4l-4.4-3.7l-0.5-4.3l-3.2-0.4l-3.9-3.6l-0.6-2.1l-2.2-1.9v-0.9l-2.8,0.7l-1.5-0.1l-2.5-1.3
	l-2.5-1l-0.4,1.8l-1.9,0.5l-0.6-0.4l-1.6-2.1v-2.2l0.5-1.5l-0.6-0.8l0.9-2.2l0.4-2.7l-1.1-1.2l-1.9,1.1l-1.9,0.2l-0.9-2.4l-1.8-0.6
	l-2.2-2.9l-2.4-0.6l-1-0.7l-0.2-2.9l-1.7-0.8l-1.3-2.5l-2.7-1.2l-0.2-2.4l-1.9-3.3l-1.1-1.4l-0.8-1.1l0.7-0.7l-1.3-1.3l-1.8-1.7
	l-0.8-2.1l-2.2-0.2l-1.4-1.7l-0.8,1.2l-0.6,1.8l0.3,2.2l-0.9,0.8l-1.4,2.7l-0.5,1.8l-1.6-1.1h-1.7l-2.5-2.2l-0.8-0.4v3.9l-0.8,1.8
	L473.1,591.4z"/>
<g id="D343">
	<path id="path37" class="st0" d="M434.5,618.5v-3.1l-1.2-3.1l1.1-2.4l2.3-2l2.1-1.1l0.1-1.9
		l-1.9-1.7l-1-2.7v-2.3l4.9-0.5l4.3-4.4l2.1-0.2l2-1.2l0.1-1.4l1.4,0.2l1.3-0.7l0,1l1.6-0.9l0.8,0.7v1.5l0.9,1.2l-0.2,1l0,0
		l-0.2,0.9l-0.7-0.2l-0.3,0.9l-1,1h0.9l-0.1,1.3l1.1,0.5v1.5l0.5-0.1l1.1,0.1l0.4-0.6l1.3,0.2l1-0.8v-0.9l0.4-0.5l0.9,0.5l0.1,1.3
		l1.3,0.3l1.8,0.4l1-0.8l1.5,0.3l0-0.8c0,0,1.7-1.6,1.9-1.9c0.2-0.3,0.2-0.3,0.2-0.3l1.2-1.1l-0.4-1.3l0.5-1l-1.1-0.8l1.3-0.3
		l0.6,0.7l1-0.2l2,1l1-0.6l-0.4-1l-1.4-0.8l1.3-2.7v-3.9l0.8,0.4l2.5,2.2h1.7l1.6,1.1l0.5-1.8l1.4-2.7l0.9-0.8l-0.3-2.2l0.6-1.8
		l0.8-1.2l1.4,1.7l2.2,0.2l0.8,2.1l3.1,3l-0.7,0.7l2.1,2.7l1.7,3.1l0.2,2.4l2.7,1.2l1.3,2.5l1.7,0.8l0.2,2.9l1,0.7l2.4,0.6l2.2,2.9
		l1.8,0.6l0.9,2.4l1.9-0.2l1.9-1.1l1.1,1.2l-0.4,2.7l-0.9,2.2l0.6,0.8l-0.5,1.5v2.2l1.6,2.1l0.6,0.4l1.9-0.5l0.4-1.8l4.9,2.3
		l1.5,0.1l2.8-0.7l0.1,1.2l2.1,1.6l0.6,2.1l3.9,3.6l3.2,0.4l0.5,4.3l4.4,3.7l-1.7,2l-0.6,4.1l0.7,2.9l3.1,4.6l1.7,2.9l-1,2.7
		l-0.6,4.7l-3.1,0.6l-2.3,1.3l-0.7,1.7l-7.1-3.3l-1.9-1.9l-2.4-6.4l-1.4-1.6l1.3,6l0.3,3.6l-1.9,1.9l-3.4-0.3l-2,0.1l-2.9-3.4
		l-3.9-4l-2.9-0.6l-1.3-0.3l1.9-2.1l-1-3.1l-1-2.6l-3.4,0.3l-1.7-2.4l2.9-2.4l1-2.4v-3.3l-1.7,2.6l-0.4,1.6l-3.9,2.9l-0.7,2.3
		l2.3,2.4l2.9,0.4l1,4.1l-3.1,3.7l-2.3,2.7l-3.9,1.3l-2-1.1v-1.1l1.7-5.9l1.6-5.9l-3.3-4.6l1.1-4.1l1.3-3.3l2.1-2.4l-1.1-2.1
		l-1.7,2.9l-1,2.9l-1.4,2l-1.3,3.1l1,2.6l0.3,3.9l1,2.6l-1.7,2.4l-1.1,2.4l-1,2.6l0.9,5l0.9,2l-3.4,3.9l-1,4.3l-1.4,3.3l-1.7-0.3
		l-1.7-3l-2.3-1.9l-2.1-2.6h-1.3l1.6,3.6v3l1.7,2.6l-1.6,2h-3l0.9,1.9l-0.6,4.7l-0.6,3.4l-0.3,1.6l1.3,3.6l-0.6,3.7l-1.1,3.1
		l-1.6-2.3l-1.7-1v-2c0,0-1.9,0.4-0.9,1.6s-0.3-0.3,1,1.1c1.3,1.4,1.3,1.4,1.3,1.4s-2.4-1.1-2.7,1.3c-0.3,2.4-0.3,2.4-0.3,2.4
		l-1.9-2l-0.3-3.9l-0.9-2.6l1-2.6l1.3-2.3l-0.1-1.7H469l-1.4-2l-1.7,1.1l1.3,1.3h1.7l1,0.7l-1.6,1.9l-2.3,1.1l-2.6-2.1l-1.6,0.3
		c0,0-1.6,0.1,0,0.1s0.4-2.7,1.6,0s1.1,2.7,1.1,2.7l0.3,3.1l-0.9,3.6l-3.4,1.9l-0.4-4.4l0.9-3.1l-0.7-2.9l-1.6,0.4l1.6,2v2.1
		l-1.4,1.4l-0.6,2l-0.3,2.1l0.3,1.9l2,1.4l-0.9,2l-2.7,1.3l-2-0.1l-1.3-1l-0.6-0.4l0.4-2.1l-1-1.9l-1.9-1l-1.4,0.3l-1.4-3.1
		l-1.6-5.1l0.1-2.1l1.4-2.3l1.7-4.1l0.4-3l-1.1-3.1l-1.6-3.4l-2.7-3.7l-0.7-2.3l0.3-2.9l0.7-2.3l-2.1-3v-1.9l1.9-2l3.6-5.7l1.1-4.7
		v-4.9l-1.6-4.4l-0.3-2.4l-2.6-2.6l-2.4-1.6h-3l-3.1-1l-4,0.1v-0.4l1.1-2.7l0.4-3.3C433.6,623.4,435.5,621.4,434.5,618.5
		L434.5,618.5z"/>
	<path id="path39" class="st0" d="M440.1,670l-1.2,1.1l-0.9,2.3l-2,3.2l-1.4,3.4l-0.9,1.2
		l-0.6,2.4l-0.2,2.7l-1.9,2.5l-0.5,1.6l-0.9,1.9l0.2,4.1l1.5,1.7l2.7,1l3.4,1l3.7-0.7l0.9-1.5l0.7-0.7l0.4-3.2l-1-1.1l0.7-2.3
		l0.7-2.1l0.5-3.3l-0.1-4l-0.6-1l0.3-2.4l0.3-1.5l-1.7-1.6l-1.5-2.9L440.1,670z"/>
	<path id="path41" class="st0" d="M480.2,707.2l-0.1-3.1c0,0,0.1-1.1,1.4-2.2s1.3-1.1,1.3-1.1
		l1.6-2.7l-0.1-2l0.9-1l-0.1-3.1l-1.3-2.9l-0.4-2.1l-1.5-3.9l0.4-1.4l-0.4-0.9l1.4-2l1.9-1.8l1.8-0.3l2.6,2l0.9,1.4l1.6-0.7l1.5-0.4
		l1.5,1.7l0.4,1.2l0.8,1.9l-0.6,1.5l-0.6,2.1l-1.1,1.3l-1.6,0.1l0.3,2l0.6,1.1l-0.3,1.8l-1.3,0.8l1.1,1.8l0.7,2.1l-1.5,1.8l-0.7,1.7
		l-0.3,2.3l-1.7,1.2l-2.4,0.6l-1,1.9l-1.2,1.3l-2.8-0.7L480.2,707.2z"/>
	<path id="path43" class="st0" d="M493.8,677.4l-2.8-0.5c0,0-1.2-0.9-1.2-1.4c0-0.5,0-0.5,0-0.5
		l2.3-6l2.5-3.2l1.7-3l2.3,1.3l-0.4,2.8l-1,5.5v3.2l0.2,2.7l-1.4,0.6L493.8,677.4z"/>
	<path id="path45" class="st0" d="M506,655.6c0,0,0.7,2.5,0.5,3.6c-0.2,1.1-0.3,1-0.3,1l-0.5,2
		l-0.4,1.2l-0.3,1.8l-0.5,2.1l-0.9,2c0,0,1.2,0,0.6,0.8c-0.6,0.8-0.6,0.8-0.6,0.8l-0.3,2.1l1.5,0.5l-0.4,1.6c0,0,1.1-0.2,0.9,1.1
		c-0.2,1.3-0.3,1.4-0.3,1.4l-0.4,2.7l-1,2.3l0.4,2c0,0,0.4,0.5,0.7,2c0.3,1.5,0.3,1.5,0.3,1.5l-1.8,1.6l0.2,2l3.3,3.6l-0.2,1.8
		l-0.8,2.8v2.9l2.9,1.3l3.7-1.3l3.2-0.9l-2.1-2.5c0,0-1.6-1.5-1.3-2.5c0.3-1,0.3-1,0.3-1l1.1-2.7c0,0,0.8-1,1.9,0s1.1,1,1.1,1
		l-0.2,1.7l2.2,1.6l1.8-0.2l1.6-1.5l-0.4-3.2l-2.1-3.8l0.7-3.5c0,0-0.7-1.3,0.5-2.5c1.2-1.2,1.2-1.2,1.2-1.2s-2-1.1-2.6-1.1
		c-0.6,0-0.6,0-0.6,0l-1.2-2.9l0.7-2.7c0,0-0.8,0.6-1-1c-0.2-1.6-0.2-1.6-0.2-1.6l0.5-1.9l1.3-3l0.1-1.2l-1.7-1.4l-1.3-0.6l-0.8-1.3
		l-0.4-1.7l0.6-1.5l-0.8-1.5l-2.4-2.5l-1.5-0.6h-1.4L506,655.6z"/>
	<path id="path48" class="st0" d="M519.6,699.8l-0.5,2.4l-0.4,1l0.9,2l3.8,1.6l3.4-0.8l0.7-0.3
		l-0.9-2l-1.2-1.3l-1.9-1.2l-1.8-0.2L519.6,699.8z"/>
	<path id="path50" class="st0" d="M516.9,661.5l1.9,1.4l2.1,0.6l1.6-0.8c0,0,1.8,0.9,2.9,0.4
		c1.1-0.5,0.1,0.3,1.1-0.5c1-0.8,1-0.8,1-0.8l1.3,0.1l3.3,1.6l2.9,1.8l2.4,1.1l2.6,1.4l0.2,3.6l-1.4,2.8c0,0,0.6,1.4,0.3,2.6
		c-0.3,1.2-0.3,1.1-0.3,1.1s0.1,0.5,0.6,1.8c0.5,1.3,0.5,1.3,0.5,1.3l2.9,2.4l1.8,2.2c0,0,1.9,1.9,1.3,2.5c-0.6,0.6-0.6,0.7-0.6,0.7
		l2.5,2.6c0,0,0.5,1,0.4,2.3c-0.1,1.3,0.9,0.3-0.1,1.3s-1,1-1,1l-2.2,1.4l-1.9-0.4l-1.1-0.8l-1.4-1.3l0.3,0.8l1,1.7l-1.6,2.2
		l-2.2,0.1l-0.9-2.2l-0.9,0.6l-2.1,0.2l-1.8-2.1l-0.8-2.4l1-2.6l-0.1-2l-0.6-1.6c0,0-1.7-0.6-2.6-1c-0.9-0.4-0.9-0.4-0.9-0.4
		s1.2,0.5,2,2.5s0.8,1,0.8,1l-1.8,6.8c0,0,0.2-0.6-1.9-1.9c-2.1-1.3-2.2-1.3-2.2-1.3s1-0.8-0.2-2.6c-1.2-1.8-1.2-1.8-1.2-1.8
		s-0.5-1.9,0-3.6c0.5-1.7,0.5-1.7,0.5-1.7l-0.4-2.4l-1.2-1.5l-3.3-1.2c0,0-0.1,0.9,0.2-1.6c0.3-2.5,0.3-2.5,0.3-2.5s-1.4-1.6-1-2.9
		c0.4-1.3-0.8-0.2,0.4-1.3c1.2-1.1,1.2-1.1,1.2-1.1l0.4-3l-1.8-1.7L516.9,661.5z"/>
</g>
<path id="D966" class="st0" d="M527.8,65.6l0.5,1.6l-0.6,2.1l-0.6,0.1l0.2,2.6l0,0l-1.5,0.4
	l-0.2,1.7l1,1.2l-1.1,3.1l-0.5,3.5l-1.1,2.1l-1.5,5l0.1,1.7l2.7,3.4l1-0.5c0,0,1,0.6,2.2,0.6c1.2,0,1.2,0,1.2,0l0.1,1.2l-1.7,1.6
	l1.4,0.9l-0.5,1.2l1.2,1.2l1.2,1.7l0.1,1.1l2.5-0.6l0.1,1.1l1.4-0.6l2.4,1.4l0.1,0.7c0,0,1,0,1.7-0.6c0.7-0.6,0.9-0.6,0.9-0.6l1.1,1
	l2.1-0.1l1.1,1l1.6,0.6l1.5,0.6l2.2-0.5l1.9,0.6l1.4-0.7l0.5-0.7l2.2,0.2l2-0.4l1.4,1.4l1.4,1.7l0.9,0.7l1.9-1.1l1.2-0.5l1.1,0.6
	l0.9-0.6c0,0,1.7-0.6,1.6-1.2c-0.1-0.6-0.1-0.6-0.1-0.6h2.4l1.9,0.9l1.7,1c0,0,0.4-1.4,1.9-0.5s1.5,0.9,1.5,0.9l0.7,0.9l0.7,1.2
	l-0.6,0.5l0.9,1.5l-0.4,1.6l2,1.1l0.6-2.1l1.9-0.7l1.1,2.1l1.7,1.1l0.2,1l0.9-2.6l2.4-0.6c0,0,1.5,0,1.4-0.7s0-0.7,0-0.7l1.1-0.2
	l1.7,0.4l1.7,1.2l1.4-1.1v-0.5l1.5,0.1l-0.4-1.6l0.9,0.1l1.7,0.9l-0.4-2.4l1.2-1.1h1.6l1.4,0.5l2-0.1l2.5-0.1h1l-1-1.7l3,0.9l1,0.4
	l0.1-2.1l-0.9-1.5l0.4-1.2l-0.7-1.9l1.2-1.1l-0.1-2.1l0.1-2.4l-0.6-1.4l2.1-1.1l-1-2l0.5-2.2l-2.1-0.9v-1.1l1.7-1.4l-0.7-2.2
	l0.6-2.5l-1.4-2.9l-2.1,0.1l-3.2-1l-2.1,1.2l-2.6,1l-1.7-3l-0.1-1.7l-1.9,1.1l-2.5-0.2l-2.6-0.2l-2-0.9l-1.1,2.4l-1.2,1.2l-2.6-0.5
	l-1.2-0.4l0.9-2.1l1.4-0.5l1.1-1.6l0.4-2.4l-2.4-1l-0.7,0.9l-1.6-1.7h-2.2l-1.7-0.5l-1-1l-1.5-1l-1.2,0.1l-0.9-1c0,0-2,0.4-2.9,1.1
	c-0.9,0.7-0.9,0.7-0.9,0.7l-2,1.2l-1.6-0.9l-1.4-2l-1.2-2l-2.5,0.4h-3.2l-0.1-1.4l-1-2.4l-2.2,0.5l-2.1,1.7l-1.5,1l-1.4-1.4
	l-1.2,1.1l-2.1,1.2l-1.4,2l-3,0.6l-1.1-1.1l-2.1,0.2l-1.6,1l-1.1,1.5l-1.4-2.2l-2.2,1l-0.6,1h-2.4l-0.9-1.5l-2-2.2l0,0L527.8,65.6z"
	/>
<path id="D339" class="st0" d="M294.9,461.7l1.9,0.9l3.4-0.8l1.4,0.2l2,0.9l1.1-1.1h2.1l2.3-0.4
	l1.2,1.4l2.3,1.1h1.4l2.5,1.7l3.4,1.8l1.9,0.5l4.8,2l2.3-0.6l4.3,3.2l3.1,3l3.3,2.5l4.4,2.7l2.6,0.9l1.3,1.6l1.5,1l3.8,0.8l0.8,1.5
	l3.4,1.6l3.5,4l2.6,3.1l3.2,1.7l3.1,2.5l1.4,2.5l1.5,0.6l2.5,3.2l2.4,1.1l1.5,1.3l1.9-0.1l1,1.7l-1.5,2.6l1,1.5l0.8,2.9l3.1,2.1
	l-0.4,2.4l2.9,0.7l1.8,1.1l0.6-2.5l2.4,5.6l2.1,1.7l-1.9,0.8l-1,1.4l0.4,3.1l-2.2,0.7l-4.2,0.3l1.4,0.8l0.2,2l-1.9-0.1l-1,2
	l-2.4-0.4l-1.4-0.4l-0.1,2l1.9,1.1l-0.4,2.7c0,0-0.2-0.2-0.5,0.8c-0.2,1.1-0.2,1.1-0.2,1.1l-1.8,0.7l-0.1,1.2l0.1-0.8l0.5,2.6
	l-1.1,1l-1.5-0.5l-0.7-0.7l-1.4,0.5l-1-0.6l0.1-1.1l-2-0.6l-0.7-0.8l-1.2,0.1l-1.5-0.6c0,0-1-0.8-1.4-0.7c-0.5,0.1-0.5,0.1-0.5,0.1
	l-1.9,0.7l-1.8,1.3l-2.9,0.7l-0.7-1.5h-3.1l-0.6-1.2l-2.5,0.2l-0.8-1.3l-2,0.1l-1.2-0.8h-1.8l-2.3,1h-0.8l-0.8,1.4l-0.6,1l-1.5,0.1
	l-0.7,0.5l0.5,1.3l-1.8,0.4l-1.8,0.5l-2.1,0.1l-1.2-0.2l-1.2-0.6l-1,1.5l-2.3,1l-1.2-1l-1.4,0.6l0.8,0.6l-1,1.5l-1.7,2l-1.4,1.8h-2
	h-2.6l-2.6-0.5H316l-0.8,3.3l0.8,2.1l1.3,2l1.5,2l-0.4,1.7l0.7,1.9l-0.5,0.7l-1.9,0.6l-2.9,0.7l-0.2,1.9l-1.7,1.3l-1.2,1.1l1.2,1.8
	l-0.1,2.1l-1,1.3l-1.1-0.4l-2.4-2.7l-1.9,0.1l-1.3,1.4l-0.2,1.7l0.5,1.3l-2,0.5l-1.5,1.3l-3.1-3.5l-1.7-0.5l-2.6-1.4l-1.9-2.1
	l-2.7-1.2l-1-1.7l-1.9,0.7l-1.9-1.4l-0.4-1.3l-2.5-1.4h-1.8l-0.6-1l-1.5,0.7c0,0-1-0.8-1.7-1.8c-0.7-1-0.7-1-0.7-1l-2.1,0.1
	l-1.9-2.5l-2.4-1l-3.1-0.1c0,0-0.7,0-0.1-1.4c0.6-1.4,0.6-0.1,0.6-1.4c0-1.3,0-1.3,0-1.3l2.6,0.6l1.1-1.7l1.2-0.1l0.6-1.9l1.8-1.3
	l2.7-1.2V551l-2.1-4.8l2.1-1.7l1-3.8l1-1c0,0-0.4-1.3,0.1-2.5c0.5-1.2,0.5-1.1,0.5-1.1l-1.1-1.7l1.3-1.1l-0.5-1.7l1.4-4.5l-1.2-1.1
	l-2-1.3c0,0,0.6-1,0.7-2.5c0.1-1.5,0.1-1.5,0.1-1.5l1.5-2.3l1.4-0.6c0,0-1.2-1.3-0.2-2.3c1-1,1-1,1-1l2.5-0.4l-0.4-2.5l-1.8-2.4
	l1.7-1.4l-0.8-2.3l0.5-1.2l-0.6-1.4l1.1-1.2l-0.5-1.3v-2.1l0.6-1.4l2.1-0.1l0.7-1.2l-0.4-1.2l2.7-0.1l-0.8-2.1l2.3-0.1l-0.5-3.1
	l0.6-2l1.8-1.5c0,0-1.8,0.4-3.2,0.4s-1.4,0-1.4,0s-0.8-0.2-0.4-2.1s0.5-1.9,0.5-1.9l3.9,0.4l0.6-2.3l1.8-2l1.9,0.8l-1.8-2.7l0.6-2.7
	l-1.4-1.2l-1.9-2.7l1.3-0.7l1.3,0.2l-0.5-1.8l-0.1-1.7l0.5-2.6L294.9,461.7z"/>
<path id="D334" class="st0" d="M403.4,343.9l0.8,4.5l2.9,0.8l2.4,5.4l1.8,0.9l1.1,2.4l0,3.1
	l0.7,2.3l-0.6,2l-0.2,3.8l-1.1,1.5l0.5,2.6l1.9,0.7l1.6,1.3v1.4l1.4-1.1l1.4,0.6l0.3,4.9l0.9,1.7l0.5,1.7l-3.2,0.5l-0.5,1.7l1.4,1.8
	l-1.7,0.5l-0.6,2.1l-2.7,1.1l-2.6-1.4l-1.4,0.5l1.4,1.8l-3.5,1.8l-0.8,2.1l1.5,1.1l-2.3,2.7l2,2l-0.9,1.5l-0.8,5.6l-1.8,0.2
	l-0.5,1.2l-1.8,0.2l1.5,3.2l-1.5,1.1l1.2,1.7l-1.4,2l1.8,2v3.6l-1.4-0.2l-1.2,1.4l0.9,3.3l1.8,1.7l1.2,2.4l1.2-2.1l0.6,4.2l2-1.7
	l1.8,1.1l-0.2,0.9l3.1,3.1l1.4,0.2l-1.2,2.2l0.4,0.9l-2,0.3l0.1,1.4l1.9,0.4l-0.3,0.3v1.3l-1.3,0.2l-1.1,1.6l-1.7,0.9l-1,1.9
	l0.9,1.4l1,1.8v0.6l-1.7,0.5l1.5,1.6l1.4-0.8l0.9,2.4l2.4,1.6l-1,2.2l-0.1,2.3c0,0-2.4-0.2-2.2,0.3c0.2,0.5,0.2,0.5,0.2,0.5
	s1,0.6-0.1,1.7s-1.1,1.1-1.1,1.1l-1.1,1.6l-1.1,1.6l-1.4-2.7l-2.4,1.6l-2.1,0.2l-0.7-2.1h-2.7l-1.6,0.5l-2.4-2.8l-2.1,0.2l-0.6-1.3
	l-2.3,1.1l-1.5-2.2l-1.3-1.7l-2.1,1.6l-1.2-2l-2.3,1.3l-0.6,1.3l-2.7-0.6l-2.1,0.9l-1.8,0.7l-1.7,0.5l-2.1-1.5l-2.3,0.2l-1.1-1.8
	h-1.3l-1.5,2l-1.6-0.5l-1.5,0.3L358,463l-2.7-2l-0.4,1.5l-0.4-2.7l-1.4-1.8l-0.5-2.6l-2.2-2.7l-2.4-0.1l-1.6-2.2l-2.1,0.3l-2.6-0.5
	l-2.4,0.5l-1.7-1.8l-1.3-2.3l-1,0.1l-1.6,1.4c0,0-0.9,0.9-2,0c-1.2-0.9-1.3-0.9-1.3-0.9h-2.9h-3.3l-2.2-1.2l-2.2-1.5l-1.5-2.2
	l-1.8-1.9l-2-0.5l4.5,0.5c0,0,0.9,1.9,2.1,1.3c1.3-0.6,1.3-0.6,1.3-0.6l1.5,0.1l1.1-3.2l-2.2-2.3l-2.1-1.4l0.5-1.9l1.9,0.2l3,1.6
	l1.5,1.1l0.3-1.9c0,0,1,2.7,1.5,1.9c0.5-0.7,0.6-0.9,0.6-0.9l2.9-0.3h1c0,0-3.9,2.8-2.7,3.1c1.3,0.3,1.3,0.3,1.3,0.3l2.2-0.1
	l0.1-3.5c0,0-1.2-1.2-0.9-3.2c0.3-2,0.3-2,0.3-2l1.1-1.5l0.6,1.3l0.2,2.2c0,0,0.2,1.8,1.3,0.7c1.1-1.1,1.1-1.1,1.1-1.1l0.9-2.1
	l-0.6-3.5l-0.1-2.3l-1.2-1l-1.6-0.7l-0.3-1.6l1.1-0.7l-1.1-2.8l-1.1,1.3l-1-1.5l-1.1-1.7l-0.1-1.4l1.2-1.4l1.6,1c0,0,0.4,1.2,1.8,1
	c1.4-0.2,1.4-0.2,1.4-0.2l2.1,0.1l1.8-0.7l1.6,1.3c0,0-0.7,1.2-1.5,1.6c-0.7,0.4-0.7,0.4-0.7,0.4l1,1.2c0,0,1.9,0.4,2.4,0.1
	c0.5-0.3,0.5-0.3,0.5-0.3l1.2-1.2c0,0,0.1-0.7,1.5-0.1c1.4,0.6,1.4,0.6,1.4,0.6l1.9,1.7l2.1-0.3c0,0,1.2,2.4,1.7,1.7
	c0.5-0.7,0.5-0.7,0.5-0.7l1.5-0.6l-0.7-1.6l-2.3-1.6l2.2-0.1c0,0,1.5,1.1,2.2,0.5c0.7-0.5,0.7-0.5,0.7-0.5l1.5-1.4l2-1.2v-1.1
	l-2.1-0.9v-2l1.1-1l0.5-1.1h-1.4l-0.3-1.4l0.7-2.1h1.7l1.4,1.3l1.2,1.5l2.1,0.4h2.2l-0.5-2.3l0.5-1.7l1.5-0.9l1.8-1l-1.4-1.3l-2-0.9
	l-1.2-1l1.6-0.9c0,0,0.6,0.9,1.5,0.2c0.9-0.6-1.8-0.7,1-0.6c2.8,0.1,2.8,0.1,2.8,0.1s-0.4,1.8,1.3,1.6c1.7-0.2,1.7-0.2,1.7-0.2
	l2.9,0.4l1.6-1.7c0,0,1.5-2-0.2-2.6S381,392,381,392l-1.2-1.9c0,0,0.4,1.4-1.7,0.2c-2.1-1.2-2.1-1.3-2.1-1.3l0.6-4.2l1.1-0.1
	l0.4,1.2l1.2-0.6c0,0,0.7,0.3,2.4-0.9c1.7-1.2,1.7-1.2,1.7-1.2l-0.1-2.4c0,0,1.3,1.3,0.9,0c-0.4-1.3-0.4-1.3-0.4-1.3l2.4,0.4
	l1.8-1.5l1.4-1.1l-0.1-3.5l1.2-0.9l0.9-1.5l1.2-1.7l1.4-2.2l-1.2-1.7l1.8-0.3l-0.1-1.9l-0.7,0.6c0,0-3,0.4-2-0.3c1-0.7,1-0.7,1-0.7
	v-2c0,0,1.3,1,1.3-0.1s0-1.1,0-1.1l1.6-1.6l-0.7-1.7l0.4-2.8l-2.9,1.8l1.1-3.5l-0.5-2.1l0.1-1.2l1.4-0.4l-1.4-2.2l-3.9-1l1.5-1.4
	v-0.5l1.6,0.4l1.7,0.3l1.7,1.1l1.2,1.8l1.5,0.9l1.9-1.5l1.8-0.4L403.4,343.9z"/>
<path id="D329" class="st0" d="M493,131.4l-1-2.7l0.9-1.1l-1-2.4l-0.1-2.6l1.8-2.7l3.9,2.5h1.5
	l2.2-0.9l1.9-1.7l2-0.4l1.2-4.2l0.5-1.5l2.7-0.2l0.4-1.4l-1.7-2.1l1.9,0.6h1.9l0.6-2.4l-1.2-1.9l2.1-0.5l0.9-2.2l-0.2-2.5l1.9,1h2.7
	l2.2,1.4h1.9l3.1-2.2l2.5,2.2h3.1l2.5-0.6l0.1,1.1l1.4-0.6l2.4,1.4l0.1,0.7l0,0l2.6-1.2l1.1,1l2.1-0.1l1.1,1l3.1,1.2l2.2-0.5
	l1.9,0.6l1.4-0.7l0.5-0.7l2.2,0.2l2-0.4l1.4,1.4l2.2,2.5l3.1-1.6l1.1,0.6l0.9-0.6l1.5-1.9h2.4l3.6,1.9l1-1l2.4,1.4l1.5,2.1l-0.6,0.5
	l0.9,1.5l-0.4,1.6l2,1.1l0.6-2.1l1.9-0.7l1.1,2.1l1.7,1.1l0.2,1l0.9-2.6l2.4-0.6l1.4-1.5l1.1-0.2l1.7,0.4l1.7,1.2l1.4-1.1v-0.5
	l1.5,0.1l-0.4-1.6l0.9,0.1l1.7,0.9l-0.4-2.4l1.2-1.1h1.6l1.4,0.5l5.5-0.2l-1-1.7l4,1.2l0.2,1.2l1.2-0.9l0.1,1.6l-1.2,1.2l-3.1-0.5
	l-0.7,1.2l1,0.9l-1,0.9l1.4,0.6l1.1-0.4l0.9,2.7l-2.6,0.4c0,0,2.6,2.2,1.4,2c-1.2-0.2-1.2-0.2-1.2-0.2l-1.5,1l0.4,2.1l-1.9-2
	l-1.5,1.6l-1.4,0.2l0.7,3.2l-2.1,1.6l-1.7,0.2l1,1.7l-0.7,0.9h-3.5l1.4,1.7v2.1l-2,0.2l-1-1.7v1.6l2.1,2.2c0,0-1.9,1.5-1.1,2.2
	c0.7,0.7,0.7,0.7,0.7,0.7l1.7,0.9l-2,0.7l0.1,2l-2.7,0.6L594,140l0.7-0.7l2,0.5l-1.2-2.4l-0.6-2l-0.2,1.9l-1.4,1.6l-1.7-0.5
	l-1.6-1.4l0.1,2.2l1.5,1.7c0,0-4.4,1.2-2.5,1c1.9-0.2,1.9-0.2,1.9-0.2l1.5,2.6c0,0,0.9,1.7-1.1,0.6s-2-1.1-2-1.1h-2l-1.1,2.9
	l0.5,2.6l1.7,1c0,0,1.5-2.1,1-0.9c-0.5,1.2-0.5,1.2-0.5,1.2l-1.1,1l-1.6,1.1l2,1.1l1.5-2.5c0,0,2.6,1.7,1.9,2.6s-0.7,0.9-0.7,0.9
	l1.7,1.9l-0.7,1l-2.4,0.2l-2.2,1.6l-1.1,1.6l-0.6,0.7l-0.9,2.7l1.6,2.2l-1.4,1.2c0,0,0,0.2-1.5,1c-1.5,0.7-0.1,1.9-1.5,0.7
	c-1.4-1.1-1.4-1.1-1.4-1.1s-1.4-1.5-0.5-2.6c0.9-1.1,0.9-1.1,0.9-1.1s-0.9,0.1-2-0.2c-1.1-0.4-1.1-0.4-1.1-0.4s-0.5,1.1-1.9,0.9
	c-1.4-0.2-1.4-0.2-1.4-0.2l-1.2,1.2c0,0,0.4-0.2-1.9-1c-2.2-0.7-2.4-0.7-2.4-0.7l-0.6-3.2l-1-1.1l-1.1,1.1l-1.6,1.7
	c0,0,1.4,1,0.2,1.6c-1.1,0.6-1.1,0.6-1.1,0.6l-3.2-0.6l-2.4-0.7l-1.6-2.1l-2.4-2l-2.6,1l0.4-2.5l-2,0.2l-0.6-1.2l0.7-1.4l-1.7-1.2
	l-1.5-1.7l-1.4-1.9c0,0,0.4,0.1-1.1,0.1c-1.5,0-1.5,0-1.5,0l-1.9,0.2l-2.4-1.7l-1.2-2.4V146l-1.9-1.5l1.6-3.5l-2-3.5l-1.5-3
	l-1.9-1.7c0,0-1.6-0.1-0.4-1.1c1.2-1,1.2-1,1.2-1l1.7,0.7l0.7-3.6l-1.9-0.7l-0.9,1.9l-1,0.5c0,0,1-2,0-2.1c-1-0.1-1-0.1-1-0.1
	l1.2-2.7l-1.9-2.4l0.1-2.9L528,119l-1.6-1l-2.5,1l-0.9-2l-1.7-0.6l-2.4-0.4l-0.7-2.6l-2.7-2.2l-1.7,0.7c0,0,1.2,0.4,0.7,1.6
	c-0.5,1.2-0.5,1.2-0.5,1.2l-1.6-0.2l-1.4,1l1,1l-0.6,0.9h-1.7l1.1,1.9l0.1,2.5l-0.1,0.6l2.5,1.4l1.9-1l0.6,1.4l-1.1,1.6l1.5,1
	l0.1-2.6h2.5l-0.5,2.2l2.1,0.6l-1.5,1.1l-0.7,2.4h1.6l0.5,1.4l1.9-0.5l0.7-2.5l0.6,0.9v1.7c0,0,1.2,2,1.9,0.6
	c0.6-1.4,0.6-1.4,0.6-1.4l1.7,1.7l-0.6,1.2l0.1,1.6l-1.2,0.6l0.1,1.5l-2.5-0.2l-1.9-0.1l-2.2,0.1l-2.2,1.1l-2.6-1.5l-1-2.5l-1.4-2.1
	h-2.1l-2.5,0.4l-1.6-0.9l-1,2.4v2.1l1.6,1.6l0.9,0.9l-2.6,0.6l-3-1.2l-2.1-1l-0.6-3.4v-3l-2.1-0.9l-1.7,0.9L493,131.4z"/>
<path id="D327" class="st0" d="M406.7,21l0.2,5v3.3l-1.3,1.6l-1.4,3.5l2.5,1.3l0.6,3.8l3.1,2.2
	l-0.5,1.3l2,1.1l2.8-0.3l0.8,2.8l1.7,1.7l2.5,1.4l0.5,1.4l-1.3,3.5l2.4,1.1l0.3,3l-0.2,2.4l2.7,1.3l2,2.8l-1.7,2.7l1.4,2.8l0.5,3
	l0.8,3.8v3.9l-1.3,3.9l-0.8,3.9l-0.5,2.8l-1.9,3l-0.6,0.9l-0.2,2.7l-1.7,2.8l-0.9,3.6l1.4,0.6l2.2,1.6l2-0.3l1.4-0.2v-1.9l1.9-1.4
	l2.7,0.6l2.2-1.3l-0.9-1.1l1.6,1.1l0.2,2.7l-3.5,1.9l-2.2,2.4v1.3l1.6,1.7l3-1.1l0.5,3l1.6,0.5l1.7-2.5l0.3-2l0.8-1.1l1.6,1.7l3-1.7
	l0.5-0.6l2.5,0.8l1.9-2.5l0.3-2l0.2-3c0,0,0.2,1.9,0.8-0.3c0.6-2.2,0.6-2.2,0.6-2.2l1.3-2.8l1.6-0.9l-0.8-2.8l1.7-1.3l-0.9-1.9
	l-0.9-2.7l-0.5-0.8l2.5-2.5l2,0.8l1.4-0.5l0.6-1.6l-1.7-0.9l-1.7-1.6l0.3-2.4l1.1-1.3l-0.2-2.7l-0.5-3l0.8-2.5l1.6-1.9h1.1l2-0.9
	l1.6-0.3l0.8,0.6l-1.9-2.7l-1.4-2.5l0.3-2.8l-2.7-2.7l-1.3-1.6l-2.5-1.1l0.2-3.5l-1.9-0.8l-1.3-0.8l2.4-1.9l0.5-0.9l-0.8-1.1
	l0.8-0.8l-0.6-2.5l1.4-1.9l1.1-1.6l-2.2-0.8l-2-0.3l-1.6-0.9l-2.4,0.8l-1.4-0.8l-2-1.6l-1.4,1.4l-0.5-2.4l-1.4-0.3h-2l-1.3-1.1
	l-1.3,1.3l-3.3,0.9l-1.9-0.3l-0.2-1.9l-2.8,0.3l-2.2,0.9l-1.6,2.5l-2.2-0.9l-4.3-2.4l-1.6-0.3l-0.2-3.3l-1.3-1.6l-0.2-2.4l-0.6-1.7
	l-2-0.6l-3-0.3L406.7,21z"/>
<path id="D331" class="st0" d="M461.7,217.3l-2,3.2c0,0-3.2,0.2-2.4-0.7c0.8-0.9,0.8-0.9,0.8-0.9
	l-1.3-1.1l-1,0.3l-0.6,1.6l-1.8-0.1l-1.7,3.1l-1.1,0.6l-0.8,0.9l-1.8,0.1l-0.7,1.2l0.4,1.8l-2.1,1.4l-1.3,0.4l-1.1,1.1l-0.2,1.8
	l-1.8,1.1l-1.2,0.2l0.4,1.2l1.1,0.6v3l-0.9,1.7l-1.2,0.1l-0.6-1.3l-1.2-0.1l-1.2,0.4l-1,1.1l0.8,0.9l-0.7,0.9l0.8,1.7l-1.1,1.8
	l-3.3-2.4l-0.4,2.1l1.1,1.3l0.9,0.1l-0.5,1l-1.5,0.9l1,2.3l-0.9,1.6l1.1,0.3l2.2-0.2l2.2-0.7l1.1,1.6l2.1,0.7l1-0.3l2.4,0.1l1.4,0.2
	l1.6,1.5l1.7,0.5l2.2-1l1.8,0.7c0,0,1.7,1.5,2.5,1.2s0.7-0.3,0.7-0.3s-0.2-1.5,0.3-1.5c0.6,0,0.6,0,0.6,0l1.6,0.9l1.8-1.4l-1.6-1
	l1.4-0.2h2.4l0.1,1.8l-0.6,2.6l1.7,2l0.7-1.3v2.3l-1,1.7v1.4l-1.2,1.2l-0.2,2.2c0,0,1.4-0.5,1.6,0.3c0.2,0.8,0.2,0.9,0.2,0.9
	l1.7-1.4l0.8-1.5l2.8-0.1l2.1,1.5l2.1-0.6l1.3,0.7l1.2,2.8h1.7l1.6-2.3l0.9,0.1l1.8-2.1l3.8-0.2l3,0.7l1.2-0.9h2l2.2,0.7l1.7,1.8
	l2.1,1l1.6-2l1.5,1.8l3.1,0.7l0.7-2.8l2.1-1.4l0.7-1.2l0.9,1.5l2,0.9l2.2,1.2l2.3,0.6l1.5,2l0.6-3l2,0.7l-1.6-3.1l1.3-1.5l1.2,0.3
	l-0.2-3.1l-0.2-1l1.6-2l2-1.7h2.1v-1.8l0.8-0.5h-3.2l-1.8-1.6l-2.2,1.6l-1.7-1.6l-1.5,0.2l-1.3-2.4l-0.5-0.9h-1.6v1.8l-1.6-1.5
	l-1.8-2.1v-0.9l-2,0.1l0.3-2.4l-1.3-1.5l-1-1.3l-1-0.8l2.2-0.8l-0.7-3l1.5-0.9l-0.7-2.6l-0.2-1.2l-2-0.9l-0.7-0.8l-0.2-3.1l-1-0.7
	l-1.6,1.4l-2.5-1.2c0,0,1.8,1.4,0.7,1.7c-1.2,0.3-2.1-0.3-1.2,0.5c0.9,0.8,0.9,0.8,0.9,0.8l-1.5,1.3c0,0-1,0.9-2-0.3
	c-0.9-1.3-0.7-1.8-1-1.3c-0.3,0.6-0.3,0.6-0.3,0.6l-1.6,1.4l-0.3,1.7l-1.3,0.8l-1.4-1.4l-0.8,1.5l-2.2-1.6h-1.3l-0.7-2.1l-1.5,1
	l-1.7-2.9l-0.8-0.6l-1.5,2.3l-1.7-0.8l-2-1.3l-1.3,2l-0.7-3.6l-2.6-1.6l-2-0.5l0.6-2.8l-0.7-1.2l-2.1,0.5l-1.7-1.7L461.7,217.3z"/>
<path id="D330" class="st0" d="M435.1,115.2l1.7-2.5c0,0-0.5-0.9,0.3-2c0.8-1.1,0.8-1.1,0.8-1.1
	l1.6,1.7l3-1.7l0.5-0.6l2.5,0.8l0.8,1.8l-0.2,1.1l1.7,1.2l0.9,0.8l-0.3-3.3l0.4-1.3h2.1c0,0-0.2,1.9,0.5,1.2
	c0.7-0.7,0.7-0.7,0.7-0.7l1.1,0.3l1.7,1.8l1.2-1.3l1.8,1.6l1.3-0.8l2,1l0.5,1.1l1.8,1.8v2l1.8,2.2l0.5,2.5l0.5,2.4l-1.5,2.1
	l-1.9-1.6l-0.4,1.6l-2.4-1.1l-1.1-1.9c0,0,0.4,1.1-0.5,1.8c-1,0.6-1,0.6-1,0.6l0.1,2.1l-1.3,0.7l-2.3-0.8l-0.4,1.4l1.1,1.8l-2.6-0.3
	l-1.3,1.2l-0.8,1.1l-2,2.5l0.4,2l-0.2,1.2l0.8,1.8l-1.2,2l-1.3,0.9l-2.6,1.1l-1.8,0.3l-1.3,1.8l-3.3-0.3h-1.2l-1.2,2.9l-2.4,0.3
	c0,0,0.3-0.9-1,0.5c-1.2,1.4-1.2,1.4-1.2,1.4s-1.1-0.9-0.9,1.1c0.3,1.9,0.3,1.9,0.3,1.9l-0.4,1.5l-1.2,1.8l0.7,1.9l1.7,1.5l-0.1,1.6
	l-0.8,0.4l0.5,1.9c0,0,1.7,0.7,1.1,1.3s-0.5,0.6-0.5,0.6s0,0.2-1.8,0.4c-1.8,0.2-0.8,0.2-1.8,0.2c-1,0-1,0-1,0l-0.4,2.4l-1,1.5
	l-0.8,1.4l0.6,1.8l-1.2,0.3l-0.3,2l-1,1.6l-0.9-0.9l-0.8,1.6l0.5,1.9l1.1,2.5l0.5,1.8c0,0-0.9,1,0,1.4c0.9,0.4,0.9,0.4,0.9,0.4
	s0.3-0.2-0.5,1.1c-0.8,1.3-0.8,1.3-0.8,1.3l0.8,1.6l1.3,1.5l0.3,2.4l2.7-0.1l0.5,2.2l1.6-1.9h1.1l0.7-2.2l1,0.4c0,0,0.2,1.6,0.5,1.6
	c0.4,0,0.4,0,0.4,0l1.5-0.6c0,0-0.3-1.4,0.4-0.9c0.7,0.5,0.7,0.5,0.7,0.5l1.4-1.8l1.8-0.4l2.2,0.4v4l1.8,0.4l1.1,1.1l1.7,1.7
	c0,0-0.9,1.1,1.1,1.3c1.9,0.3,1.9,0.3,1.9,0.3l2.2,1l2.1,1.8l-0.2,2.2l1.4,0.7l1.5,2l3.1,1l2.3-0.3l1.1,2.2l-0.6,2.1l-0.2,2.9
	c0,0-0.2,1.4-1.1,2.6c-0.9,1.1-1,0.6-1,0.6s-2.6-0.1-2-0.9c0.5-0.8,0.4-0.8,0.4-0.8l-1.3-1.1l-1,0.3l-0.6,1.6l-1.8-0.1l-1,1.2
	l-0.7,1.8l-1.1,0.6l-0.8,0.9l-1.8,0.1l-0.7,1.2l0.4,1.8l-2.1,1.4l-1.3,0.4l-1.1,1.1l-0.2,1.8l-1.8,1.1l-1.2,0.2l0.4,1.2l1.1,0.6v1.6
	v1.4l-0.9,1.7l-1.2,0.1l-0.6-1.3l-1.2-0.1l-1.2,0.4l-1,1.1l0.8,0.9l-0.7,0.9l0.8,1.7l-1.1,1.8l-1.2-0.9l-1.4-1.1l-0.7-0.4l-0.4,2.1
	l1.1,1.3l0.9,0.1l-0.5,1l-1.5,0.9l1,1.3v1l-0.9,1.6l1.1,0.3l2.2-0.2l2.2-0.7l1.1,1.6l2.1,0.7l1-0.3c0,0,1.7,0.3,1.3,1
	c-0.4,0.7-0.4,0.7-0.4,0.7s0.1,0.7-1.1,1.1c-1.2,0.4-1.2,0.4-1.2,0.4l-0.8-1.8l-2.4-0.2l-0.6,1.1l-1.1,1.7l-1.1,0.8l-1.6-2l-2.2-0.4
	l-1,1.5c0,0-1,0.6-0.2,1.5c0.7,0.9,1.2-1,0.7,0.9c-0.5,1.9-0.5,1.9-0.5,1.9l-2,1.2l-0.6-3.4l-1.9-0.6l0.5-2l1.4-0.1
	c0,0,1.5-1.5,0.2-2.2s-1.2-0.7-1.2-0.7s-1-1,0.1-2.7c1.1-1.7,1.1-1.7,1.1-1.7l-0.7-2.5l-2.9-1.4l1.6-1.1V243c0,0,1-1.2,0.1-1.6
	c-0.9-0.4-0.9-0.4-0.9-0.4l-1.1-2.1l-1.5-1.7l-0.7-2.1l-0.6-3.6l-0.9-0.9l1.4-0.4l-1.4-1.7l-2.9-1.5l-1-2.4l-0.2-2l-0.1-2.2l1.2-1.5
	l0.1-3l1.6-0.4l-2-1.2l1.4-1.6l-0.9-2.2l0.5-1.2l-1-1.5c0,0-0.9,3-2,1c-1.1-2-1.1-2-1.1-2s-1-2.9-2.6-2c-1.6,0.9-1.6,0.9-1.6,0.9
	l-1-2.4L405,202l-1.4-3.7c0,0-1-0.7-2.5,0.2c-1.5,1-1.6,1-1.6,1l0.7-3.5l-0.9-1.7l-1.1-2.5l1.7-1l1-1.9l-1.9-1.6l-1.6,1.2l-2.4-1.4
	l-4.6,0.1l-0.5-2l0.2-2.6c0,0-2.5,0.4-1.7-1c0.7-1.4,0.7-1.4,0.7-1.4l2.6-0.9l-0.9-2.7l0.4-1.9l-0.4-2.9l1.4-2.9v-2l1.6-1.6l2.2-0.5
	l0.4-1.7l1.4-2c0,0,0.5,0.6,1.2-0.2s0.7-0.9,0.7-0.9l0.4-0.4l0.2,1.1l1.1,2l2.1-1.5l1-0.5l1.9-0.5l-2-2.1l1.6-0.4
	c0,0,3.4-0.6,1.5-1.4c-1.9-0.7-1.5-3.7-1.5-3.7l1.6-1l1.4,1.1l0.5-2.4l2.4-1.2l1.1-1.2l1.5,0.7l1.5-0.9l1.4,0.2l2-2
	c0,0-0.2,0.1,1.1-1.6c1.4-1.7,1.4-1.7,1.4-1.7l2.5-0.2l0.1-2.2c0,0-0.2-1.7,1.4-1.7c1.6,0-0.5,1,1.5,0c2-1,1.9-1,1.9-1l0.2-1.6
	l3.4-0.6l1.4-2.7l2-2l0.7-1.7l1.4-0.1c0,0,0.4,1.2,0.9,0.5c0.5-0.7,0.5-0.9,0.5-0.9l0.9-1.7l-1.6-2.5l-0.9-1.4l-0.7,1.2h-1.7
	l-1.9-1.7l1.5-1.7l1.6-1.6l1.5-0.6l-1.7-1.5l-1-0.6L435.1,115.2z"/>
<path id="D338" class="st0" d="M365,545.9l1.9-0.7l1.9,0.6l1.5,0.6l1.2-0.1l0.7,0.8l2,0.6
	l-0.1,1.1l1,0.6l1.4-0.5l0.7,0.7l1.5,0.5l1.1-1l-0.5-2.6l1.8-1.1l1.1-4.6l-1.9-1.1l0.1-2l3.8,0.7l1-2l1.9,0.1l-0.2-2l2.2,1.1
	l1.4,2.5l0.8,2.5l3.2,0.3l1.8-0.8h1.3l2.2,2.9l1-1.5l0.8,1.3l1.7,0.7l1.1-0.7l2.6,0.6v-2.5h1.7l0.3,2.8l2.5-1l2.2-0.1l1.5-1.3h1.5
	l-0.1-1.7h1.7l1.3,1.4l2.4-1.4l-0.8-1.4h1.4l0.7-1.5l1.4,1.5v-1.3h2.1l-0.4-1.7l-1.8-1.1l1.9-1.5l-0.6-1.5l0.6-1.8l3.1,0.7l2.2-1.1
	l1.5,0.1l0.8-1.8l1.7-0.8l1.5-1.8l0.8-1.8l0.3-2.9l-1.1-0.4l1.3-1.4l0.4-1.9l2.4-0.3l2.9,0.7l1.5-0.8l1.5,1.5l1-1.3l0.8,2.2l1.3,0.8
	l6.1-0.1l1.5-0.7l1.4,2.2l1.5-1l0.6-1.5l-1-0.9l0.8-2.6l-0.6-1.4h1.3l0.8-1.5l0.4-1.1l1.7,0.4l1.5-1.3l0.2-1.1l3.5-2.3l1.7-0.1
	l0.8,1.6v1.9l-0.6,1.9l-2,4.4l0.4,1.3l1.6,1.6l1.3-0.7l3.1,0.5l0.9,4.4l-2.2,1.6l-2.5-1.3l-1.3,1.1v5.1l-2.2,1.5h-1.8l-0.9,1.8v1.8
	l-0.7,1.3l0.7,3.6l0.5,1.5l-0.7,3.3l0.4,2.9l-2.5,3.9l-1.7,1.2c0,0,1.1,2.4,0.8,2.7c-0.2,0.4-0.2,0.4-0.2,0.4l-1.9,0.1v2.7l-0.6,1.8
	l-1.7,1.4l-0.2,1.5l2.1,0.5l2,2.3l-1.2,1.7l0.7,2.3c0,0,0.6,1.2,0.4,2.5c-0.2,1.3,0.6-1.4-0.2,1.3c-0.8,2.7-0.8,2.7-0.8,2.7l0.7,2.1
	l-2.5-3.1h-1.2l-2-1.2l-0.7,1.7l-3-0.5l-1.5,1.2l-2.1-2.5l-1.7,0.7h-3.2c0,0-2.7,0.4-2.5,1.3c0.2,1,0.2,1,0.2,1l-1.4-1.4l-1.4-3.1
	l-0.5,1.5l-3.5-0.5l-0.5-1.9h-1.4l-0.1,1.1l-3.6,1l-1.1-3.2l-1.1,2.6v1.7l-1.8-1h-2.3l-2.1-2.9l-0.8-2.7l1.3-1.9l-1.1-2.5l-1-1.5
	l-1.3,1.1h-2.3l-0.2,3.9l-0.6,4.4l-1.5,1.9l0.7,3.1l-0.4,1.5l1.5,1.3l-1.1,1.4l-3.5-0.5v2.1l-2.6,1.7l-1.9-1l-1.5,1.5l-3.5-2.1
	l-0.7-0.6l-1.9-2l0.4-1.8l-2.5-2.6l-2-3l0.2-2.3l-2.6-2.9v-3.6l-1.8-1l-1.3-1.5l-1.4,1.7h-2.6l0.2-2.7l-2.6-0.5l-2-0.2l-1.2-1.1
	l-0.6-3.1l-1.4-0.8l-2.6,1.5l-2.5-1.7l-1.9-1.3l-3.8,0.2l1.4-2.3l-2.5-2.7L365,545.9z"/>
<path id="D341" class="st0" d="M405.2,584.6l1.5-1.5l1.9,1l2.6-1.7v-2.1l3.5,0.5l1.1-1.4l-1.5-1.3
	l0.4-1.5l-0.7-3.1l1.5-1.9l0.8-8.3h2.3l1.3-1.1l2,4l-1.3,1.9l0.8,2.7l2.1,2.9h2.3l1.8,1v-1.7l1.1-2.6l1.1,3.2l3.6-1l0.1-1.1h1.4
	l0.5,1.9l3.5,0.5l0.5-1.5l1.4,3.1l1.4,1.4l0.2-1.8l3.6-0.5h1.7l1.7-0.7l2.1,2.5l1.5-1.2l3,0.5l0.7-1.7l3.2,1.2l2.5,3.1l0.9,1.6
	l-0.8,1.6l-1.5,2.9l-0.5,2l-2.4,2.3l-1.8,0l-1.3,0.6l-0.7-1l-2.2-0.1l-1.3-0.8l-2.6,0.7l1.1,0.4l-0.9,1.4l1.4,0.9l-0.1,1.4l-2,1.2
	l-2.1,0.2l-4.3,4.4l-2.9,0.5h-2v2.3l1,2.7l1.9,1.7l-0.1,1.9l-2.1,1.1l-2.3,2l-1.1,2.4l1.2,3.1v3.1l-2,1.9l-0.8,4.5l-2.3,3.8h-2.1
	l-4.2-2l-4.3-5v-4l-0.1-5.6l-1.5-3.8l0.2-1.5l-2-1.8l-0.8-1.7l-2.9,0.1l-3.1-1.3l0.2-1.5l2.6-1.4l-1.9-1.7l-2-2.7h2.1v-1.8l-2.3-1.1
	L405,589v-2.1l1.1-1.2L405.2,584.6z"/>
<path id="D328" class="st0" d="M453,91.7l-0.9-1.9l-1.4-3.5l2.5-2.5l2,0.8l1.4-0.5l0.6-1.6
	l-3.5-2.5l0.3-2.4l1.1-1.3l-0.6-5.7l0.8-2.5l1.6-1.9l3.1-0.9l1.6-0.3l-2.5-4.6l4,2.9l1.7,0.2l0.1-1.4l2-0.5l1.4-0.1
	c0,0-0.3-1,1.1-1.2c1.4-0.2,1.4-0.2,1.4-0.2l1.4,0.8h1.2l0.8-2.5h1.3l0.9-1.9l1.5-3.8l0.3-1.6h1l0.2,1.5l0.8,1l-0.9,1l0.7,0.7
	l2.1-0.4l3.4,0.1h2.3l2.9-0.5l-0.4-2l0.2-2.6l1-0.7l1.8-0.7l0.3-1.8l2.4,0.1l1.8,0.4l2,1.3l2,1.3l1.7,1.6l1.1-1.3l1.8-3.1l1.5-1.5
	l1.9,1.2l1.8,2.3l-0.9,3.4l1.6,0.9l2.5,1.4l2.1-1.2l2.3-1.3l1.3,1l1.4,0.4v1.4l0.1,1.5l2.1-0.5l1.7,1.1l1-0.1l-0.1,2.6l1.7,1.4
	l-0.4,1.9l0.6,1l-1,1.5l0.5,1.6l-0.6,2.1l-0.6,0.1l0.4,0.9l-0.1,1.7l-1.5,0.4l-0.2,1.7l1,1.2l-0.7,2.1l-0.4,1l-0.2,1.7l-0.2,1.7
	l-1.1,2.1l-0.7,2.4l-0.7,2.6l0.1,1.7l1.5,1.9l1.2,1.5l1-0.5l2.2,0.6h1.2l0.1,1.2l-0.6,0.7l-1.1,0.9l1.4,0.9l-0.5,1.2l1.2,1.2
	l1.2,1.7l0.1,1.1h-3.1l-1.1-0.9l-1.4-1.4l-2.1,1.4l-1,0.9h-1.9l-2.2-1.4h-2.7l-1.9-1c0,0,0.7,1.5,0.5,2c-0.2,0.5-0.2,0.5-0.2,0.5
	s-0.4,1.7-0.6,2c-0.2,0.2-0.2,0.2-0.2,0.2l-2.1,0.5l1.2,1.9l-0.6,2.4h-1.9l-1.9-0.6l1.7,2.1l-0.4,1.4l-2.7,0.2l-0.5,1.5l-0.4,1.7
	l-0.9,2.5l-2,0.4l-1.9,1.7l-2.2,0.9h-1.5l-2.6-1.7l-1.3-0.8l-0.9,1.4l-0.9,1.4l0.1,2.6l1,2.4l-0.9,1.1l1,2.7l-1.1,1.4l-2.4,0.4
	l-1.5,1.4l-2.2-1.4l-1.1,4l-2.9-1l1.5-1.4l0.5-2.6l0.5-1l-0.9-1.6l2-0.7l2.2,1.7l3.4-1.9l-0.6-3l-1.1,0.4l-2,1.2c0,0,1.5,2,0,0.7
	s-1.5-1.4-1.5-1.4l-0.6-2.9v-2.2l-0.9,0.5l0.5-2.2l-0.7-1.9l-1.9,0.6l-1.9-1.6l-0.9,0.5l-0.7-1.6l-1.4-0.1l0.7-2.5l-0.9-2.1
	l-2.6-0.1h-0.9l0.7,2l-1.9,0.9l-1.4-1.2l-1.5,0.5l0.7-2.5l-1.1-1.9l-1.6,1.6l-1.5-0.7v-2.1l-1.5-0.7v-0.5l-2.4,0.2v-2.4l-1.1-1.2
	l-1.6-0.4l-1,1.1l-1.1,0.2l-2-2.6l-0.7-1.7l0.4-1.6l-0.7-2.2l-0.4-2.2l0.4-1.6L453,91.7z"/>
<path id="D968" class="st0" d="M260.6,574.4l0.5-2.3l1.9-0.9l-0.2-1.7l1.1-0.8l0.8-2.3l0.5-2.1
	l3.4-0.3l2.4,1l1.9,2.5l2.1-0.1l2.4,2.7l1.5-0.7l0.6,1l0,0h1.8l2.5,1.4l0.4,1.3l1.9,1.4l1.9-0.7l1,1.7l2.7,1.2l1.9,2.1l2.6,1.4
	l1.7,0.5l3.1,3.5l1.5-1.3l2-0.5l-0.5-1.3l0.2-1.7l1.3-1.4l1.9-0.1l2.4,2.7l1.1,0.4l1-1.3l0.1-2.1l-1.2-1.8l2.9-2.4l0.2-1.9l3-1
	l2.6,3.3l2.7,0.5l0.5,3.5l-2,1.1l-1.3,2.7l1.5,2.2v2.7l0,0l0,0h-1.5l3.2,7.2l-2.2,3.2l0.1,4.2l-0.7,1.5h2.7l1.8,1.8l-1.9,2.1
	l4.1,2.2l1.4-1.1l1.1,0.5v1.9l1.4,1.3l2-0.6l1.2-1.4l2.8,0.1l1.7-1.3l2.1,0.8l-0.8,1.2l-7.9,3.7l-3.7,4.4l3,1.7l3.1,2.1l-1.5,2.4
	l4.5,3.1l-0.2,2.8l-2.6-0.7l-3.1,0.4l-0.1,2.5l0.9,2.5h-0.8l0.1,3l1.4,1.7l-4.4,1.8l-1.1,1.5l0.1,2.1l0.9,0.7l-1.3,0.7l0.5,1.8h1.5
	l2,2.2l1.2,1.8l2.4,1.9l1.3,3.1l2.4,5.5l-0.9,1.8l-4-1.3l-1.4-1.7l-1.3,2.2l-0.5,3.1l-2.4,1.4l-2.8-0.8l-1.8,3.2l1,1.5l-0.8,2.5
	l-0.3,1h-2.5l-3.7-0.8l-1.8-1.3l-2.3-4.3c0,0,0.3-2.7,1.2-4l2-4l-0.5-4.3l-1-3.5l-4-2l-3-2.2l-6.5-0.7l-5-1.2l-2.2,0.7l-3.7-4
	l-1.3-3.5l-3.3,1.5l-4.7,0.7c0,0-1.3-4.8-0.8-6.2c0.5-1.3,0.5-1.3,0.5-1.3l0.8-2c0,0,0.2,2.2,3,1s-0.3,0.3,2.8-1.2s3.2-1.5,3.2-1.5
	v-3.7l5,0.5l3.3-0.3c0,0,2-3.8,0.5-4.7c-1.5-0.8-1.5-0.8-1.5-0.8s-4.2-0.2-4.7-1.7c-0.5-1.5-0.5-1.5-0.5-1.5l1.5-6.7l-2.7-3.2
	l-6.8-1.7l-1.3-4.2l0.5-2.8l4.2,0.3l1.2-3.3l-3.5-4.8l-3.2-3.5l-3.8,0.5l-4.7,1l-3.3-3.2l-1.3-1l0.7-5.8l-4.3-4l-1.7-0.3
	L260.6,574.4z"/>
<path id="D969" class="st0" d="M454.8,36.6l-2.5,3.5l0.6,2.5l-0.8,0.8l0.8,1.1l-2.8,2.8l3.1,1.6
	l-0.2,3.5l2.5,1.1l3.9,4.3l-0.3,2.8l2.5,2.1l1.4,0.8c0,0,1.5,0,1.6,0s0.1-1.2,0.1-1.2s0.5,0.1,1.2-0.2c0.7-0.3,0.7-0.3,0.7-0.3
	l1.4-0.1l0.8-0.7l0.3-0.5l1.4-0.2l1.4,0.8h1.2l0.4-0.7l0.4-1.8h1.3l0.9-1.9c0,0,0.7-1,0.7-1.8c0-0.7,0.8-2.1,0.8-2.1l0.3-1.6h1
	l0.2,1.5l0.8,1l-0.9,1l0.7,0.7l2.1-0.4c0,0,1.1-0.1,2.3,0s1.1,0.1,1.1,0.1h2.3l1.8-0.5h1.1l-0.4-2l0.2-2.6l1-0.7l1.8-0.7l0.3-1.8
	l2.4,0.1l1.8,0.4l2,1.3c0,0-0.1,0.7,0.9,1c1,0.3,1,0.3,1,0.3l1-1l-0.5-2.8l0.1-2.8l0.7-3l-0.6-2.7v-2.5l-0.8-2.5l0.3-1.1l-2.3,0.4
	l-0.9-1.4l-1.8,0.2l-2.3-1.3l-1.9-0.9l-2.7-0.2l-0.4-2.1l-2.7,2.6l-2.3-1.1l-1-2.7l-1.9-1.3l-1.9-0.2l-1,1.9l-1.3,0.6l-1.5-0.6
	l-1.2-0.9l-1-1.6l-2.6,0.3l-1-0.6l-1.3,0.6l-2,0.2l-1.9,0.7c0,0-0.5,1.2-0.8,1.4c-0.3,0.2-0.3,0.2-0.3,0.2l-1-1l1.2,2.6l-1.2,1.1
	l-1.3,1.9l-1.6,0.9l-2,0.4l-0.5,1.5l-0.6,2.1L454.8,36.6z"/>
<path id="D342" class="st0" d="M448.1,589.7l0.9-1.4l-1.1-0.4l2.6-0.7l1.3,0.8l2.2,0.1l0.7,1
	l1.3-0.6l1.8,0l1.6-1.5l0.8-0.8l0.5-2l1.2-2.2l0.3-0.7l0.8-1.6l-0.9-1.6l2.3,0l1.5,0.8l0,3.2l1.5,1.3l0,1.6l1.5,1.2l0.1,1.9l2.3,2
	l0.5,1.4l1-0.2l1.4,0.8l0.4,1l-1,0.6l-0.8-0.5l-1.2-0.5l-1,0.2l-0.6-0.7l-1.3,0.3l1.1,0.8l-0.5,1l0.4,1.3l-1.2,1.1l-1.1,1.3l-1,0.9
	l0,0.8l-1.5-0.3l-1,0.8l-2-0.6l-1.1-0.1l-0.1-1.3l-0.9-0.5l-0.4,0.5v0.9l-1,0.8l-1.3-0.2l-0.4,0.6l-1.1-0.1l-0.5,0.1V599l-1.1-0.5
	l0.1-1.3h-0.9l1-1l0.3-0.9c0,0,0.8,0.3,0.8-0.1s0-0.5,0-0.5l0.2-1l-0.9-1.2v-1.5l-0.8-0.7l-0.6,0.6l-1,0.3l0-1l-1.3,0.7l-1.4-0.2
	l-0.6-0.4L448.1,589.7z"/>
<path id="D332" class="st0" d="M419.6,231.4l0.6,3.6l0.7,2.1l1.5,1.7l1.1,2.1l0,0
	c0,0,0.4,0,0.8,0.3c0.4,0.3,0.5,0.1,0.4,0.2c-0.1,0.2-0.1,0.2-0.1,0.2l-0.4,1.3v1.4l-1.6,1.1l2.9,1.4l0.7,2.5l-1.3,2l-0.3,0.9v1
	l0.3,0.5l1.2,0.8l0.6,0.6l-0.3,0.9l-0.5,0.6l-1.4,0.1l-0.5,2l1.9,0.6l0.6,3.4l2-1.2l0.6-2.6c0,0-0.2,0.5-0.7,0
	c-0.5-0.5-0.6,0.2-0.5-0.5c0.1-0.7-0.5-0.2,0.1-0.7s0.5-0.5,0.5-0.5l1-1.5l2.2,0.4l1.6,2l1.1-0.8l1.8-2.8l2.4,0.2l0.8,1.8l2-0.6
	l0.4-0.9l0.4-1l-0.3-0.3l-0.2-0.3l1.5,0l1.4,0.2l1.6,1.5l1.7,0.5l2.2-1l1.8,0.7c0,0,1.2,1.8,2.2,1.3c1-0.5,1-0.5,1-0.5l0-1.6
	l0.9,0.1l1.6,0.9l1.8-1.4l-1.6-1l1.4-0.2h2.4l0.1,1.8l-0.6,2.6l1.7,2c0,0,0.6-1.9,0.5-0.9l0.2,1.9l-1,1.7v1.4l-1.2,1.2l-0.2,2.2
	l1.2,0l0.6,1.3l-0.9,1.1l2.1,1.9l0.5,1.2l-1,3.2c0,0-1.9-1.2-1.9-0.3s-0.1,0.7-0.1,0.7s1-0.1,1,1.4c0,1.5,0,1.5,0,1.5l0.3,2.4
	l-0.6,1.3l-0.7,2.6l2.1,1.3l-1.6,2.9l-1.8,1.6l-1.1,1.1l1.2,2l-1.5,1.2l-1.7-0.3v1.7c0,0,3.2-0.6,1.3,1c-1.9,1.6-1.9,1.6-1.9,1.6
	s-1.4-1.3-2.1-1.4c-0.7-0.1-0.7-0.1-0.7-0.1l-1.6,0.7c0,0,0,1.3-0.4,2.1c-0.4,0.9-0.3,0.9-0.3,0.9s-1.8-0.6-1.7,0.4
	c0.1,1.1,0.1,1.1,0.1,1.1l1.8,1.2l0.5,2.1l-1.8,2.1l-1-2.7l-1.7,1.9l-1.6-1.8l-3.4,1.1c0,0,2.8-2.8,2-2.6c-0.7,0.2-1,0.2-1,0.2V302
	l-1.9-2.2l-2.1-2c0,0,0.6-2.9-2.3-1.4c-3,1.5-3,1.5-3,1.5l-2.1,0.9c0,0-0.4,1.6-1.5,1.9s-1.1,0.3-1.1,0.3l1.6,3.2l1.6,1.1l-1.7,1
	l1.5,2.3l0.7,0.5l-2.3,1.9l-1.5,1.7l-0.9,2.6c0,0-0.3-1.2-1.3-0.7c-1,0.4-1.5,3.8-1.5,3.8l-1.6,1l-1,1h-1.1c0,0,0.9,1.3,0.5,3.3
	c-0.3,2,1-0.2-0.3,2c-1.3,2.2-1.3,2.2-1.3,2.2L419,330l-1.7,1.9l-1.1,1.8l-2.6-1.3l-2.3-2.9l0.6-3.8l-0.4-3.6l-1.1-1.4l-1.9-3
	l-2-2.7l-3-2.9l-1.2-2.9l-2.3-3.5l-0.1-2.7l-1.2-4.7l-0.3-3.9c0,0,2.7-1.1,1.1-2.6c-1.6-1.5-1.6-1.5-1.6-1.5l-1-2.4l-1.3-1.4l-0.1-2
	l-1.8-0.9l-2.9-1l-1.7-3.4l-0.3-4.7l-0.3-4.3l0.2-2l-1.6-1.5l-1.1-0.9l1.9,0.4l1.8,1.2l1.8-0.2l2.1,0.9l1.2,0.6l-0.2-2.3l-1.1-2.3
	l1.5-2.1l1.6,0.3l-0.3-2.6l0.7-0.5l-2.1-1.6c0,0,2.3,0.1-0.3-1.7c-2.7-1.8-2.7-1.8-2.7-1.8l-2.3-0.3l-1.2-1.8c0,0,1.1-1.7,0.7-2.6
	s0.9,0.6-0.3-0.9c-1.2-1.5-1.2-1.5-1.2-1.5l-1.5-0.4v-4l1.3-0.2l-0.9-2.1l1.6-2l2.7,1.5c0,0,1.8,0.5,1.9-0.5c0.1-1,0.1-1,0.1-1
	s-0.7-2-0.2-2s0.9,0.9,0.9,0.9s0.6-1.7,2-1.7s1.4,0,1.4,0l-0.6-2.4l1.5-1.9c0,0,1.5,1.4,1.2-0.1s-0.3-1.5-0.3-1.5l2,0.6l0.6-1.1
	l1.8-1.7l2.9,0.3l0.7-1.1c0,0,1.4,1.7,2.2,2c0.9,0.3,0.9,0.3,0.9,0.3s0.9-1.6,1.1-0.4c0.2,1.2,0.2,1.2,0.2,1.2l0.2,1.6l1.5-1h1
	c0,0,0.9,0.7,0.9,1.7c0,1,0,1,0,1l2.2-0.1h2.2L419.6,231.4z"/>
<g id="D345">
	<path id="path40" class="st0" d="M362.2,685.9L362,684l-1.2-1.4l0.8-1.1l1.2-3.5l1.2-2.1
		l-1.5-4.7l2.6-0.9l1.7-1.8l-0.7-3.1l3.8-1.9l-2.1-1.3l-1.4-1.9l-0.1-3.1l-2.2-0.6V654l2.4-0.6l-0.5-1.4l0.6-2.1l-1.1-1.3l2.4-2
		l3,0.4l2.1,0.8l5.3-3.3l1.7,0.8l1.5-0.7l5.7-0.5l3.9-3.3l-0.7-1.3l0.7-2.4l-0.1-2.1l2.6-0.9l-0.2-1.9l-3.8-1.8l1.1-4.7l0.1-2.6
		l1.2-2.8l0.2-2l-2.2-1.4l-3.9,0.8l-2.6-1.4l1.7-8.5l-1.4-2.6l0.7-3.2l1.7-0.9l0.2-2l1.4-0.5l0.6-3.1l2.1,2.2l2-0.6l1.4,1.8
		l2.8,0.4l2.1-1.1l1.3,0.1l5.5-4.2l2.3,0.6l2,2.7l1.9,1.7l-2.6,1.4l-0.2,1.5l1.4,2.4l2.5,0.5l2.7,2.7l0.9,4l0.6,4.8
		c0,0-1.1-2.4-0.9-0.9c0.1,1.4,0.1,1.4,0.1,1.4l-0.1,4l1.3,3.9l3.5,2.6l-0.2,1.8l6.1,2.1l2.7-0.2l4.2,2.2l1.5-0.9
		c0,0,3.9-0.4,3.9,0.1s0,0.5,0,0.5l6.6,8.3l-1.8,3.7l-3.2,3l-3.8,2.5l-5,3l-4.6-4.4v-2.4l-3.8-3.3l-4-0.2c0,0-1.7,0.5,0,0.7
		c1.7,0.2,1.7,0.2,1.7,0.2l3.4,1.8l1.5,4.4l3.5,3.5l-3.3,9.9l-3.7,9l-6,7.4l-3.7,1.8l-5.7,5.9l-3.5,3.5l-2.8,1.4H398l-3.2,3.4
		l-8.9,3l-3.1,0.5l-7.4,1.1l-7.8,3l-0.6-2.6l-2.1-1.2l0.5-2.4l0.4-5.1l-1.3-2.5l-1.5-0.1L362.2,685.9z"/>
		
	<path id="path33" class="st0" d="M429.9,665.7l0.5-4.5l2.2-5.7l2.7-2l4.7-1.5l-3.3,6.2l-2.5,4.1
		l-1.7,2.1L429.9,665.7z"/>
</g>
<path id="D344" class="st0" d="M317,570.5l1.8-0.4l-0.2-2.6l0.4-1.7l-2.9-4l-0.8-2.1l0.8-3.3
	l3.5,0.5h4.6l4-5.4l-0.8-0.6l1.4-0.6l1.2,1l2.3-1l1-1.5l2.4,0.8l5.7-1l-0.5-1.3l0.7-0.5l1.5-0.1l1.4-2.4h0.8l2.3-1h1.8l1.2,0.8
	l2-0.1l0.8,1.3l2.5-0.2l0.6,1.2h3.1l0.7,1.5l2.9-0.7l1.8-1.3l1,2.4l2.5,2.7l-1.4,2.3l3.8-0.2l4.4,3l2.6-1.5l1.4,0.8l0.6,3.1l1.2,1.1
	l4.6,0.7l-0.2,2.7h2.6l1.4-1.7l3.1,2.5l-1.8-1l1.8,1v3.6l2.6,2.9l-0.2,2.3l2,3l2.5,2.6l-0.4,1.8l2.6,2.6l3.5,2.1l0.8,1.1l-1.1,1.2
	v2.1l2.4,2.9l2.3,1.1v1.8h-2.1l-2.3-0.6l-1.9,1.5l-0.7,0.4l-2.9,2.3l-1.3-0.1l-2.1,1.1l-2.8-0.4l-1.4-1.8l-2,0.6l-2.1-2.2l-0.6,3.1
	L386,599l-0.2,2l-1.7,0.9l-0.7,3.2l1.4,2.6l-0.9,4.6l-0.7,3.9l2.6,1.4l3.9-0.8l2.2,1.4l-0.2,2l-1.2,2.8l-0.1,2.6l-0.7,3.4l-0.4,1.3
	l1.9,0.7l1.9,1.1l0.2,1.9l-2.6,0.9l0.1,2.1l-0.7,2.4l0.7,1.3l-3.9,3.3l-5.7,0.5l-1.5,0.7l-1.7-0.8l-2.8,1.9l-2.5,1.4l-2.1-0.8
	l-3-0.4l-2.4,2l1.1,1.3l-0.6,2.1l0.5,1.4l-2.4,0.6v2.6c0,0,1.8-0.1,1.9,0.7c0.1,0.8-0.2-1.3,0.1,0.8c0.4,2.1,0.4,2.1,0.4,2.1
	l1.4,1.9l2.1,1.3c0,0-1.7,1.2-2.7,1.5c-1.1,0.4-1.1,0.4-1.1,0.4l0.7,3.1l-1.7,1.8l-2.6,0.9l0.6,1.7l0.9,3.1l-1.2,2.1l-1.2,3.5
	l-0.8,1.1l1.2,1.4l0.2,1.9h-4.1l-2.5-0.6l-1.2,0.6l-1.9-2.5l-1.7,0.1l-3-0.4l-2.1-1.5l-1.7,0.7l-1.4-2.2l-1.1-3.2l-1.7-3.4l-0.7-2.5
	v-1.9l1.8-0.9l-3.2-5.4l-0.9-2.8l-0.8-1.9l-1.9-3.9l-2.4-1.9l-1.8-2.8l-1.4-1.2h-1.5l-0.5-1.8l1.3-0.7c0,0-0.8,0-0.9-1.4
	c-0.1-1.4-0.1-1.4-0.1-1.4l1.1-1.5l2-0.6l2.4-1.2l-1.4-1.7l-0.1-3h0.8l-0.9-2.5l0.1-2.5c0,0-1.1-0.8,1.2-0.5
	c2.2,0.4,1.1-0.4,2.2,0.4c1.2,0.7,2.2,0.5,2.2,0.5l0.2-2.8l-4.5-3.1l1.5-2.4l-3.1-2.1l-3-1.7l1.7-1.7l2-2.7l2.6-0.9l2.7-1.3l2.6-1.4
	c0,0,1.8-0.4,0.2-1.2c-1.5-0.8-1.5-0.8-1.5-0.8l-1.7,1.3l-2.8-0.1l-1.2,1.4l-2,0.6l-1.4-1.3v-1.9l-1.1-0.5l-1.4,1.1l-4.1-2.2
	l1.9-2.1l-1.8-1.8h-2.7c0,0,0.6-1.5,0.6-3.7s0-2.1,0-2.1l2.2-3.2l-1.5-3.7c0,0-1.7-3.5-0.9-3.5c0.7,0,0.8,0,0.8,0v-2.7l-1.5-2.2
	c0,0,0.5-3.1,1.9-3.4c1.4-0.4,1.4-0.4,1.4-0.4l-0.5-3.5l-2.7-0.5L317,570.5z"/>
<path id="D333" class="st0" d="M402.4,309.4l1.2,2.9l3,2.9l2,2.7l1.9,3l1.1,1.4l0.4,3.6l-0.6,3.8
	l2.3,2.9l2.6,1.3l2.8,1.6l2.9,3.3l2,3.6l1.8,3l3.3,3.9c0,0,2,3.3,3.2,3.6c1.2,0.3-2.6-2,1.2,0.3s3.8,2.3,3.8,2.3s-0.3,1.7,1.5,2.4
	c1.8,0.8,1.8,0.8,1.8,0.8l4.4-0.2l2.6,2.3l2.7,3.3l4.2,2.9l6.3,1.2l4.4-2.1l3.3,2.3l4.5,2.7l2.1-0.3l1.8,3.5l0.9,2l2.4-4.1l2.1,2.3
	l2.9-0.5l2.4,1.4l2-1.4h3.6l2.9,1.2l2.3,3.3v3.3v5.3v3.3l1.4,1.5l0.9,3l-3,2.4c0,0-4.1,0.2-3.6,0.5c0.5,0.3,0.3-1.4,0.5,0.3
	c0.2,1.7,0.2,1.8,0.2,1.8l-1.4,2h-2.3l1.1,1.1c0,0-2.7,0-2.7,0.3c0,0.3,0,0.3,0,0.3s0.9,0.2,0,2.4s-1.1,2.3-1.1,2.3l-0.8,1.2
	l2.3,0.5l-0.8,2.4c0,0,0.2,1.8-1.2,2.1c-1.4,0.3-1.2,0.3-1.2,0.3l-3.3-2l-1.1-4.1l-2.7-1.1h-1.5l0.3,3.8l-1.2,2.7H474l1.2,2l-0.6,3
	l-1.2-0.2l-1.7,1.4v1.1c0,0-0.6-2-1.8-1.1c-1.2,0.9-1.4,0.9-1.4,0.9v1.7l3.3,0.6l2.1,1.5v2.4l-1.5-1.2l-1.7-1.1l-1.5,1.8l0.9,2.1
	l0.5,2.9l-0.5,1.2l0.6,1.7l-3.2,0.6c0,0,1.5-2.3,0.8-3.2s-0.8-0.9-0.8-0.9H466c0,0,0.5,0.8,0,2.6c-0.5,1.8-0.5,1.8-0.5,1.8l-1.8,2.3
	l-0.9-2.9l-2.3,1.2l-2.6-1.5h-1.4l-0.9,2h-3l-2.3,0.3l-2.7-0.5l-0.8,1.7h-2.4l-0.3,1.7l0.3,2.4l-0.9,1.2l-2.3-0.6l-1.5-0.5l-2,0.8
	l-2.3,1.5l-0.6,2.9l-2.3-1.4H432v-1.7c0,0,0.2,0.2-1.5,0.2s-1.8,0-1.8,0l-1.2,3.3l-2.9,0.2l-1.2-2l-1.5-2.7l0.3-0.9l2.1-1.5l-3.5-2
	l-0.3-3.5l-2.4-2.4l-1.5,1.4l-2.6-0.9l0.3,2.1l-0.6,2.1v1.1l-2-1.2l-2.6-2.1l0.2-0.9l-1.8-1.1l-2,1.7l-0.6-4.2l-1.2,2.1l-1.2-2.4
	l-1.8-1.7l-0.9-3.3l1.2-1.4l1.4,0.2v-3.6l-1.8-2l1.4-2l-1.2-1.7l1.5-1.1l-1.5-3.2l1.8-0.2l0.5-1.2l1.8-0.2l0.8-5.6l0.9-1.5l-2-2
	l2.3-2.7l-1.5-1.1l0.8-2.1l3.5-1.8l-1.4-1.8l1.4-0.5l2.6,1.4l2.7-1.1l0.6-2.1l1.7-0.5l-1.4-1.8l0.5-1.7h1.7l1.5-0.5l-0.5-1.7
	c0,0-1.2-1.1-1.2-2.6c0-1.5,0-1.7,0-1.7V376l-1.4-0.6l-1.4,1.1v-1.4c0,0-0.2-1.4-1.8-1.7c-1.7-0.3-1.7-0.3-1.7-0.3l-0.5-2.6l1.1-1.5
	l0.2-3.8l0.6-2c0,0-0.9-1.5-0.8-3.5c0.2-2,0.2-2,0.2-2l-1.1-2.4l-1.8-0.9l-2.4-5.4l-2.9-0.8l-0.5-2.6l-0.3-2l1.8-0.6l-0.2-2.9
	c0,0-2.4,1.4-3,0c-0.6-1.4-0.6-1.4-0.6-1.4s0.5-1.4,1.7-1.4s1.4,0,1.4,0l0.8-3.6c0,0-3.2-0.2-2.9-1.4s0.5-1.5,0.5-1.5l1.4-2.9
	l-1.7-1.8l-1.2-1.8l-1.4,0.8l-2.7-0.8l-3-2l1.1-1.4l1.2-2.7v2.6l2.3,0.3l0.6-2.7l1.2-0.6l-1.1-3.2v-0.5l2.6,0.2l1.6-2.6L402.4,309.4
	z"/>
<path id="D336" class="st0" d="M494.3,399.6l-1.4,2h-2.3l1.1,1.1l-2.7,0.6l0,0l0.4,1.1l-1.4,3.6
	l-0.8,1.2l2.3,0.5l-0.8,2.4l-0.2,1.8l-2.2,0.6l-3.3-2l-1.1-4.1l-2.7-1.1h-1.5l0.3,3.8l-1.2,2.7H474l1.2,2l-0.6,3l-1.2-0.2l-1.7,1.4
	v1.1l-1-1.4l-2.2,1.2v1.7l3.3,0.6l2.1,1.5v2.4l-3.2-2.3l-1.5,1.8l0.9,2.1l0.5,2.9l-0.5,1.2l0.6,1.7l-3.2,0.6l1.2-2.5l-1.2-1.5H466
	l0.2,2.3l-0.6,2l-1.8,2.3l-0.9-2.9l-2.3,1.2l-2.6-1.5h-1.4l-0.9,2h-3l-2.3,0.3l-2.7-0.5l-0.8,1.7h-2.4v4.1l-0.9,1.2l-3.8-1.1
	l-0.6,2.2l0.8,0.4l-0.4,1l1.2,0.9l1.8,0.4l1.7,1.1l-0.4,0.9h-1.8l-2.4-0.5l-2.9-0.1l-1.6,2.4l-1.1,1.3l-0.4,1.6l-0.1,2.6l1.5,0.8
	v1.3l1.8,1.4l2.7,0l1.8-0.4l1.8,1.9l1.9-1.5c0,0,0.8,1.1,1.4,0.3l0.7-1.2l1.4,0.6l-0.5,1.6l-0.1,0.9l1.6,0l1.5,2.1l1.9-1.1l1.3,1.3
	l-1.1,1.7l-4,1.3l0.3,1.5l1.4,1.3l1.3-1.5h1.8l0.8-1.4l1.8,1.3l1.5-0.8l1.3,1.3v1.1l2.2,2.4l0.6,1.3l-1.3,2.4l-1.8,0.8l1.1,1.7
	l-0.3,0.7l-2.9-0.1l-0.1,1.9l1.3,1.1l-1.5,1.3l0.6,1.1h2.1l0.3,1.5l-1,2.4l-2.5,1.4l0.1,1.7l1.6,0.4l0.2,1.1l-1.3,0.3l0.1,1.5
	l-0.7,1.9l1.5,0.7l1.3,1.5l-1,0.4l-1.5-0.1l0.6,1.1h1.8l1.4,3.5l-1,0.7l1.7,1.7l1.7,0.7l2.1,1.7l1.7-0.7l0.5,0.5l1.7-1.2l1.7-1.1
	l1.7-0.1l0.8,1.6v1.9l-0.6,1.9l-0.8,1.8l-1.2,2.5l0.4,1.3l1.6,1.6l1.3-0.7l3.1,0.5l0.5,2.2l0.4,2.2l-2.2,1.6l-2.5-1.3l-1.3,1.1v1.8
	v3.3l-2.2,1.5h-1.8l-0.9,1.8v1.8l-0.7,1.3l0.7,3.6l0.5,1.5l1.8-1.6l4.2,0.4l1.3,2.2l2-0.5l1.6-1.5l0.5,2.5h3.3l2.5,1.3l2.2,0.2
	l2.2,0.4l1.3,1.3l-0.2,2.2l2.4,0.4l1.5-1.1l2,0.4c0,0,1.1,0,0.5-1.5c-0.5-1.5-0.5-1.1-0.5-1.1l-1.8-1.8c0,0,0.5-0.2,0.4-1.3
	c-0.2-1.1-0.2-1.1-0.2-1.1l2.2-0.7l-1.5-2l-0.5-2.5l1.5-1.6l-0.2-2.4l2-0.9l-0.4-3.5l1.5-2.5c0,0-3.8-3.5-2.7-3.5c1.1,0,1.1,0,1.1,0
	l-0.9-2.2l1.1,0.9l1.6-2.7l-0.5-2.5l-0.1-1.5l2.1-0.1l0.6-2.7l-1.8-3.1l0.5-2.8l2.2-0.4l2.3,1l-2.6-2.8l-1.5-2.7l-1.8-1.7l1.3-2.2
	l1,0.1l3.3-0.8l-1.8-3.2l-0.9-0.8l0.6-0.3c0,0-0.4,1.3,1.3-0.1c1.7-1.4,1.7-1.4,1.7-1.4l-0.9-2.2l-1.3-1.4l1.7-1.8
	c0,0-2.2-1.3-1.2-1.5c1-0.3,1-0.3,1-0.3v-1.7c0,0,0.5-2.2,1.3-1.3c0.8,0.9,0.8,0.9,0.8,0.9l1.5-1c0,0-1.2-0.6-0.6-2.3
	c0.5-1.7,0.5-1.7,0.5-1.7l0.9-2.4l-1.9-1l-1.7,1.8l-1.7,1.3c0,0-0.3,0.1-1.5-0.8s-1.3-0.9-1.3-0.9s-0.4,0-1.2-0.9
	c-0.8-0.9-0.8-0.9-0.8-0.9l-1.9-0.3l-1.2-2.7l-1.3-0.8l-1.7-0.6l-1.3-2.1l0.4-2.6l-0.4-2.3l-2.3-0.4l-1.7,1.3l-1.9,0.5
	c0,0-2.2,0.1-1.8-0.4c0.4-0.5-0.9,1.7,0.4-0.5c1.3-2.2,1.3-2.2,1.3-2.2l0.5-1.9h-2.1h-2.1l-0.1-1.7l1.3-2.7l0.4-1.9
	c0,0-1.2-1-1.4-2.4c-0.3-1.4-0.3-1.4-0.3-1.4l1.5-2.2l-0.6-2.2l0.6-1.2c0,0-3.3-1.3-1.9-1.5s-0.3,2.3,1.4-0.3s2.1-1.8,1.7-2.6
	c-0.4-0.8-0.4-0.8-0.4-0.8l1.7-0.6c0,0-1.7-0.4-1.4-1.5c0.3-1.2,0.3-1.2,0.3-1.2s-3.2-2.3-2.2-2.7c1-0.4,1-0.4,1-0.4l2.8-0.1
	l1.4-0.1l1.5,0.9l1-0.9l1.8-0.1l0.9-1.8l0.9-0.5l1.7-1.7l1-1.5l1.3,0.9l0.8-1.5l1.7-0.3l0.1-2.1l0.4-1l-0.9-2.8l0.6-1.9l1.8,0.3
	l1-1.3l-0.5-2.2l-1.4,0.3l-2.3,1.8c0,0-2.2-0.9-0.8-1.8c1.4-0.9,1.4-0.9,1.4-0.9l0.4-3.3c0,0-2.4,0.1-1.9-1.5
	c0.5-1.7,0.5-1.7,0.5-1.7l-0.4-2.1v-1.8h-0.8l-1.7,1.5L494.3,399.6z"/>
<path id="D967" class="st0" d="M314.3,439.9l2,0.5l1.8,1.9l1.5,2.2l2.2,1.5l2.2,1.2l6.2-0.1
	l2.1,1.3l1.2-0.3l1.6-1.4l1-0.1l1.3,2.3l1.7,1.8l2.4-0.5l2.6,0.5l2.1-0.3l1.6,2.2l2.4,0.1l2.2,2.7l0.5,2.6l1.4,1.8l0.4,2.7l0.4-1.5
	l2.7,2l2.3,0.7l1.5-0.3l1.6,0.5l1.5-2h1.3l1.1,1.8l-1.4,0.3l0.6,1.7l-1.5,0.1l-1.4,1.4v1.9l-1.5,0.3l0.2,2.1l-0.8,0.9
	c0,0-0.8-2.2-0.8-1.3s0,0.9,0,0.9l-1.1,0.7l0.7,1.3c0,0-1.4,0.3-1.4,1.3c0,1,0,1,0,1l0.8,0.7l-1.1,0.7c0,0-1,0.5-0.6,1
	c0.4,0.5-1,0.7,0.4,0.5c1.4-0.2,1.4-0.2,1.4-0.2v2.2l1.2,1.4c0,0-1.4,0-1,0.5s0.4,0.5,0.4,0.5s-0.3,1-0.4,1.5s0.1-0.1-0.1,0.5
	c-0.2,0.6-0.2,0.6-0.2,0.6l-2.2-1c0,0-1.8,0.4-1.1,0.9s0.7-1,0.7,0.5s0,1.5,0,1.5l-1.8-1l-1.7-0.6l-0.8-1.5l-2-0.2l-1.9-0.6l-1.5-1
	l-1.3-1.6l-2.6-0.9l-5.7-3.7l-2-1.4l-3.1-3l-2.3-1.7l-2.1-1.5l-2.3,0.6l-2.8-1.1l-2.1-0.9l-1.9-0.5l-3-1.7l-3-1.9h-1.4l-2.3-1.1
	l-1.2-1.4l-2.3,0.4h-2.1l-1.1,1.1l-2-0.9l-1.4-0.2l-1.3,0.3l-2.2,0.5l-1.9-0.9l-0.9-2.1l-1.8-0.2c0,0-1.4,0-1.8-1.3
	c-0.4-1.3-0.5-1.3-0.5-1.3l-0.6-0.9l-1.3,0.8l-1-0.6l-1.2-0.7l-2-1.2l0.1-2l0.7-2.4l0.4-1.7h1.2l0.2-3l-2.1-2.9l-0.8-2.6l-0.5-1.8
	c0,0,1.2,1.4,1.3,0.5c0.1-0.9-0.7-1.2,0.1-0.9c0.8,0.3,0.8,0.4,0.8,0.4l0.3,2.4c0,0,1.5,0.3,1.8,0c0.3-0.3-0.4,1,0.3-0.3
	c0.7-1.3,0.7-1.3,0.7-1.3l1.6-0.6l0.8-1.8c0,0,0.1-0.5,1-0.4c0.9,0.1,0.7,0.8,0.7,0.8s-0.2,0.7,0.2,1.8s0.4,1.1,0.4,1.1l1.1-1.2
	c0,0-0.8-1.9-0.9-2.3c-0.1-0.4-0.1-0.4-0.1-0.4v-2.8c0,0,1.4-2.1,2.1-1.9c0.7,0.2-0.3-0.3,0.7,0.2s1,0.5,1,0.5l1.3,2.9l1.8,1.3
	l2.1-1.1l0.3-2.4l1.6,1.1l2.3,1.5l-0.1-1l3.6,2l2,1.4l0.8,1.2L314.3,439.9z"/>
<path id="D335" class="st0" d="M357.2,487.8l-1-2.4l1.4-0.5l2.2,1l0.7-2.6l-0.5-0.9l1.1-0.1
	l-1.2-1.4v-2.2l-1.5,0.3c0,0-1-1.1-0.3-1.3c0.7-0.2,0.7-0.2,0.7-0.2l1.1-0.7l-0.8-0.7l0-1.2l1.4-1l-0.7-1.3l1.1-0.7l0.1-1l0.6,1.4
	l0.8-0.9l-0.2-2.1l1.5-0.3v-1.9l1.4-1.4l1.5-0.1l-0.6-1.7l1.4-0.3l2.3-0.2l2.1,1.5l5.6-2.1l2.7,0.6l0.6-1.3l2.3-1.3l1.2,2l2.1-1.6
	l2.8,3.9l2.3-1.1l0.6,1.3l2.1-0.2l2.4,2.8l1.6-0.5h2.7l0.7,2.1l2.1-0.2l2.4-1.6l1.4,2.7l2.1-3.2l1.6-1.9l-0.4-0.9l-0.1-0.8l2.1,0
	l0.1-2.3l1-2.2l-2.4-1.6l-0.9-2.4l-1.4,0.8l-1.5-1.6l1.7-0.5v-0.6l-1.8-3.2l1-1.9l1.7-0.9l1.1-1.6l1.3-0.2v-1.3l0.3-0.3l-1.9-0.4
	l-0.1-1.4l2-0.3l-0.4-0.9l1.2-2.2v-1.1l0.6-2.1l-0.3-2.1l2.6,0.9l1.5-1.4l2.4,2.4l0.3,3.5l3.5,2l-2.1,1.5l-0.3,0.9l2.7,4.7l2.9-0.2
	l1.2-3.3l3.3-0.2v1.7h0.9l2.3,1.4l0.6-2.9l2.3-1.5l2-0.8l-0.6,2.2c0,0,1.4-0.5,1.1,0c-0.3,0.5-0.3,0.5-0.3,0.5l-0.4,1l1.2,0.9
	l1.8,0.4l1.7,1.1l-0.4,0.9h-1.8l-0.9-0.1l-1.4-0.4l-1.9-0.1l-1,0l-0.6,1.1l-1,1.3l-1.1,1.3l-0.4,1.6l-0.1,2.6l1.5,0.8v1.3
	c0,0,0.8,1.4,2.6,1.4c1.8,0,1.8,0,1.8,0l1.8-0.4l1.8,1.9l1.9-1.5l1.4,0.3l0.6-0.8l1.5,0.3c0,0-1.3,2.5-0.1,2.5s1.1,0,1.1,0l1.5,2.1
	l1.9-1.1l1.3,1.3l-1.1,1.7l-2.1,0.7l-1.9,0.6l0.3,1.5l1.4,1.3l1.3-1.5h1.8l0.8-1.4l1.8,1.3l1.5-0.8l1.3,1.3v1.1l2.2,2.4l0.6,1.3
	l-1.3,2.4l-1.8,0.8l1.1,1.7l-0.3,0.7l-2.9-0.1l-0.1,1.9l1.3,1.1l-1.5,1.3l0.6,1.1h2.1l0.3,1.5l-1,2.4l-2.5,1.4l0.1,1.7
	c0,0,1.8,0.4,1.8,1s0,0.6,0,0.6l-1.3,0.3l0.1,1.5l-0.7,1.9l1.5,0.7l1.3,1.5l-1,0.4l-1.5-0.1l0.6,1.1h1.8l0.6,1.5l0.8,1.9l-1,0.7
	l1.7,1.7l1.7,0.7l2.1,1.7c0,0,1.9-1.1,1.9-0.1c0,1,0,1,0,1l-1.5,1.3l-1.7-0.4l-0.4,1.1l-0.8,1.5h-1.3l0.6,1.4l-0.3,1.5l-0.6,1.1
	c0,0,1-0.1,0.7,1.1s-0.3,1.3-0.3,1.3l-1.1,1h-0.4l-0.8-1.5l-0.6-0.7l-1.5,0.7l-2.1,0.1h-1.5h-2.5l-1.3-0.8c0,0-0.4-2.8-1.1-1.8
	c-0.7,1-0.7,1-0.7,1l-1.5-1.5l-1.5,0.8l-2.9-0.7L439,516l-0.4,1.9l-1.3,1.4l1.1,0.4l-0.3,2.9l-0.8,1.8l-1.5,1.8l-1.7,0.8l-0.8,1.8
	l-1.5-0.1l-2.2,1.1l-3.1-0.7l-0.6,1.8l0.6,1.5l-1,0.6l-1,1l1.8,1.1l0.4,1.7h-2.1v1.3l-1.4-1.5l-0.7,1.5h-1.4l0.8,1.4l-2.4,1.4
	l-1.3-1.4h-1.7l0.1,1.7h-1.5l-1.5,1.3l-2.2,0.1l-2.5,1l-0.3-2.8h-1.7v2.5l-2.6-0.6l-1.1,0.7l-1.7-0.7l-0.8-1.3l-1,1.5l-2.2-2.9h-1.3
	l-1.8,0.8l-3.2-0.3l-0.8-2.5l-1.4-2.5l-2.2-1.1l-1.4-0.8l2.4-0.4l1.8,0.1l2.2-0.7l-0.4-3.1l1-1.4l1.9-0.8l-2.1-1.7l-2.4-5.6
	l-0.6,2.5l-1.8-1.1l-2.9-0.7l0.4-2.4l-3.1-2.1l-0.8-2.9l-1-1.5l1.5-2.6l-1-1.7l-1.9,0.1l-1.5-1.3l-2.4-1.1l-2.5-3.2l-1.5-0.6
	l-1.4-2.5l-3.1-2.5l-3.2-1.7l-2.1-2.6L357.2,487.8z"/>
<path id="D340" class="st0" d="M284,454.4l4.1,2.5l1.3-0.8l0.6,0.9l2.3,2.6l1.8,0.2l0.9,2.1
	l-1.4,1.1l-0.5,2.6l0.6,3.5l-2.6,0.5l1.9,2.7l1.4,1.2l-0.6,2.7l1.8,2.7l-1.9-0.8l-1.8,2l-0.6,2.3l-3.9-0.4l-0.5,2.9l0.3,1.2l4.6-0.4
	l-1.8,1.5l-0.6,2l0.5,3.1l-2.3,0.1l0.8,2.1l-2.7,0.1l0.4,1.2l-0.7,1.2l-2.1,0.1l-0.6,1.4v2.1l0.5,1.3l-1.1,1.2l0.6,1.4l-0.5,1.2
	l0.8,2.3l-1.7,1.4l1.8,2.4l0.4,2.5l-2.5,0.4l-1.4,1.4l0.7,1.8l-1.4,0.6l-1.5,2.3l-0.8,4l2,1.3l1.2,1.1l-1.4,4.5l0.5,1.7l-1.3,1.1
	l1.1,1.7l-0.7,2.2l0.1,1.3l-1,1l-1,3.8l-2.1,1.7l2.1,4.8v3.2l-4.5,2.5l-0.6,1.9l-1.2,0.1l-1.1,1.7l-2.6-0.6l0.1,1.8l-1.1,1.6
	l0.3,1.2l-0.5,2.1l-0.8,2.3l-1.1,0.8l0.2,1.7l-1.9,0.9l-0.5,2.3l-1.8-1.1l-2.3,0.7l-2.1-0.6c0,0,2.9,4.4,0.3,2c-2.5-2.4-1.2-2-1.2-2
	s-2,1.2-2.9-0.8c-0.8-2-0.8-2-0.8-2l-1.9-2.2l-3.5-3.5c0,0-0.7,1.2,0.3-1.5c1-2.7,0.7,0.7,1-2.7c0.3-3.4,0.3-2,0.3-3.4
	c0-1.3,0-1.3,0-1.3l2.2,0.3l-0.7-2.7l1.9-1.5l-3.2-2.2v-2.2c0,0,0.3,1.5,2.2-0.2s1.9-1.7,1.9-1.7l2.2,0.7l3.2-0.8l1-3.2
	c0,0,1.3,2,1.3,0.3c0-1.7,0-1.9,0-1.9h-1.9l-1.5,2.5l-2-2.7l-3.5,0.2l-2.4,0.7l-2.5-1.3l-2.9,2.4c0,0-0.5,0.5-1.5-0.7
	c-1-1.2-1-1.2-1-1.2l-1.7,0.3l-3.5,0.3l-3.9-3l-2,1.3l-2,1.2l-4.9,0.2l-1.7-1.9l-1.7,0.2l-1.7-3.9h-2l-0.8-2.2l-1.3-1v-2l-3-0.8
	l-1.9,0.3l-1.7-2l-2-0.3l-2.5-0.8l0.8-1.5l-2-3.4l-2.4-1.2l-1.7,1.2l-3.4-2l-1.7,1.5c0,0-1-0.7-2,0.3c-1,1-1,1-1,1l-1.9-1.3
	c0,0-4.5-3-3.4-3.5s1.2-0.7,1.2-0.7l-2-2.5l-3.7-0.5l0.3-2.4l-2.5-2.7l0.8-1.9l1.2-1.7l0.8-3.4c0,0,2.7,0.7,2.9-1.2
	c0.2-1.9,0.2-1.9,0.2-1.9l2.4-1.7l-2.7-1.5l1.3-3.9l2,0.5c0,0-2.9-0.7-1.7-1.7c1.2-1,1.7,1.3,1.2-1c-0.5-2.4-0.5-2.4-0.5-2.4
	s-2,3-2.4,0.8s-0.3-2.2-0.3-2.2s0-2.9,2-3.4s2.2-0.5,2.2-0.5l5.1,0.3l3-1.5l3.2,1.2l1.7-1.2l4.5-0.5l-2.9-2l-1.9-4.4v-2l3.7-2.7
	l3.5,1.7l4.9-0.2l2.7,1.3v3.4l-0.8,1l1.9,2.4l-1.2,3.5l3.2-0.2l3.9,1.9l1.7,1.2l0.7-2.4l1.2-0.3v2.5l-1.7,2.4l2.5,1l2.2-1.9l2.9,1.2
	c0,0,1.7,2,1.9,1.5c0.2-0.5,0.2-0.5,0.2-0.5v-2.5l1.9-1.9l1.7,0.5l1.7-2.2v-4.7l1.7-2l-1.7-2.2l3-4.7l2-0.2l1.9,0.3l-0.5-1.9l2.9-1
	c0,0-1.2-1.2-0.5-2c0.7-0.8,0.7-0.7,0.7-0.7l2.7-1l2.7-0.3l3.4,1l2.5-1.2l5.9-4.9h3.5l2.7-1.5l4.5-1.3l4.5,0.5l0.7,2.2l3.2-0.8
	L284,454.4z"/>
<text transform="matrix(1 0 0 1 533.7322 561.9678)" class="textName">24 Paraganas North</text>
<text transform="matrix(1 0 0 1 547.4662 655.0936)" class="textName">24 Paraganas South</text>
<text transform="matrix(1 0 0 1 537.7818 91.5038)" class="textName">Alipurduar</text>
<text transform="matrix(1 0 0 1 300.3807 522.8439)" class="textName">Bankura</text>
<text transform="matrix(1 0 0 1 347.9881 442.8766)" class="textName">Birbhum</text>
<text transform="matrix(1 0 0 1 532.5145 126.0055)" class="textName">Coochbehar</text>
<text transform="matrix(1 0 0 1 362.4668 67.9978)" class="textName">Darjeeling</text>
<text transform="matrix(1 0 0 1 445.1978 243.6032)"><tspan x="0" y="0" class="textName">Dinajpur</tspan><tspan x="0" y="14.4" class="textName">      Dakshin</tspan></text>
<text transform="matrix(1 0 0 1 315.1819 196.8632)" class="textName">Dinajpur Uttar</text>
<text transform="matrix(1 0 0 1 400 557.6057)" class="textName">Hooghly</text>
<text transform="matrix(0.9565 -0.2916 0.2916 0.9565 411.9911 597.413)" class="textName">Howrah</text>
<text transform="matrix(1 0 0 1 462.4733 82.912)" class="textName">Jalpaiguri</text>
<text transform="matrix(1 0 0 1 235.4077 619.8739)" class="textName">Jhargram</text>
<text transform="matrix(1 0 0 1 507.1912 35.2115)" class="textName">Kalimpong</text>
<text transform="matrix(1 0 0 1 577.7925 600.5408)" class="textName">Kolkata</text>
<text transform="matrix(1 0 0 1 407.4969 280.3046)" class="textName">Maldah</text>
<text transform="matrix(1 0 0 1 367.7546 661.4523)"><tspan x="0" y="0" class="textName">Medinipur</tspan><tspan x="16" y="14.4" class="textName">East</tspan></text>
<text transform="matrix(1 0 0 1 329.9462 584.2378)"><tspan x="0" y="0" class="textName">Medinipur</tspan><tspan x="14.3" y="14.4" class="textName">West</tspan></text>
<text transform="matrix(1 0 0 1 419.3173 394.4334)" class="textName">Murshidabad</text>
<text transform="matrix(1 0 0 1 463.9019 488.5463)" class="textName">Nadia</text>
<text transform="matrix(1 0 0 1 162.7056 439.4757)" class="textName">Paschim Bardhaman</text>
<text transform="matrix(1 0 0 1 394.9874 488.3906)"><tspan x="0" y="0" class="textName">Purba</tspan><tspan x="-16" y="14.4" class="textName">Bardhaman</tspan></text>
<text transform="matrix(1 0 0 1 214.5356 515.2511)" class="textName">Purulia</text>
<line class="st0" x1="462.5" y1="592" x2="573" y2="597.4"/>
</svg>
