<?xml version="1.0" encoding="utf-8"?>
<!-- Generator: Adobe Illustrator 26.0.0, SVG Export Plug-In . SVG Version: 6.00 Build 0)  -->
<svg version="1.1" id="Layer_1" xmlns="http://www.w3.org/2000/svg" xmlns:xlink="http://www.w3.org/1999/xlink" x="0px" y="0px"
	 viewBox="0 0 800 730" style="enable-background:new 0 0 800 730;" xml:space="preserve">
<style type="text/css">
	.st0{stroke:#000000;stroke-miterlimit:10; cursor:pointer;}
	.textName{font-family:'Arial'; font-weight:bold; color:#000000; font-size:14px; cursor:pointer;}
</style>
<path id="D355" class="st0" d="M424.1,315.1l2-1l3.6-1.5l6.9,0.3l6.6,2.3l-0.1,0.6l-0.5,1l-0.5,0.4l-0.9,1.4l0.1,0.5l0.4,0.1
	l0.7-0.4l-0.1,0.7l-0.4,0.7l0.1,0.5l0.4,0.6l-0.2,1.3l0.2,0.4l0.8,0l0.5,0.9l0.5-0.1l0.9,0.4l0.1,0.6l-0.3,0.7l0.1,0.5l0.5,0.8
	l-0.2,0.6l-0.5,0.3l-0.1,0.4l0.8,1.4l0.3,0.8l0.3,0.3l0.8-0.4l1,0.4l0.6-0.2l0.4,3.2l-0.5,2.2l0.3,1.7l0.2,0.9l0.5,0.7l0.9,0.5
	l-0.1,1.2l0.2,0.5l0.5,0.5l0.7,0.4l0.4,0.5l-0.3,1l0.8,0.7l0.2,2.4l-0.4,1l0.1,1.8l-0.8,0.5l-0.4,0.8l-1.3-0.1l-0.1,0l1.5,1.1
	l2.9-1.2l2.7-2.4l4-0.3l5.3-0.6l3.3,1.2l3.1,4.8l1.1-1.5l0.3,1.7l0,1.3l-0.3,0.9l0,0.5l0.4,0.4l1.3,0.1l0.5-0.1l0.7-1.6l2.2,0.3
	l1.4,0l-0.4,2.4l0.2,0.8l1.4,0.6l0.3,0.6l0.2,2.6l1,1.6l0.6,0.3l0.6-0.1l1.1-0.5l0.7,0.1l0.6,0.3l1.4,2.1l0.6,0.7l1.3,0.5l2.7,0.6
	l0.7,0.6l0.3,0.3l1,1.2l0.9,0.2l-3.3-0.4l-0.8,0.4l-0.2,0.4l-0.1,0.7l0.3,1.5l0,1.5l-0.8,0.1l-0.6-0.5l-0.5,0.2l-0.4,1.1l-1,0.3
	l-0.7,0.4L487,377l-0.6,2l-0.9-0.3l-1.6,0.1l-0.4,0.7l-0.9,0.2l0.2,1.1l-0.1,0.7l0.2,0.7l-0.7,0.6l-0.5,0.1l-0.3,1.5l-0.8,0.4
	l-0.5,0.4l-0.1,1.2l-0.4,0.3l-0.2,0.7l-0.4,0.6l0.4,0.9l-0.3,1l0.1,0.6l0.6,0.5l0.2,0.5l0.4,0.6l-0.1,0.7l-0.3,0.7l-1.2,0.5l0,0.5
	l-0.5,2.8l0.7,1.4l0.5-0.5l1.3,0.3l0.2,0.8l0,0.7l-0.2,0.2l-0.3-0.5l-0.6,0.4l-1.3,0.1l-1,1.8l0.5,0.9l-0.1,0.9l-0.7,0.5l-1.4,0
	l0.1,0.8l0.3,0.9l-1.4,1l-0.3-0.2l-0.1-1.4l-0.4-0.5l-0.8,0.6l-0.9,0.4l-0.5,0.8l-0.9,0.1l-1,0.9l0,0.6l0.8,0.9l0.6-0.3l0.3,0.1
	l0.1,1.2l0.2,0.6l-0.1,0.5l-2,1.2l-1.6-0.6l-1.1-0.9l-0.2-1.6l-0.1-0.8l-0.3-0.3l-0.8,0.4l-1-0.2l-0.1,0.4l-0.4,0.3l-0.9-0.3
	l-0.8,0.1l-0.4,0.4l-0.5,0.3l0.2,0.7l0.8,1.2l-0.3,0.5l-0.7,0.6l-0.5-0.1l-0.5-0.6l-0.1-0.6l0.1-1.2l-1.3,0.4l-1-1.2l0.1-1.4
	l0.4-1.4l1.2-1.3l0.5-2.8l-1-0.2l-1.1,0.2l-0.3,1l0.1,1.5l-0.5,0.3l-1.7-0.7l-1,0.1l-0.6-1.1l-0.6,0.1l-0.5-0.2l-0.8-0.8l-0.9,0.3
	l-0.3-0.2l0.1-1.5l-1-0.7l-0.7,0.5l-2.3-0.2l-1.1,0.8l-0.4-0.9l0.1-0.8l0.4-1l-0.1-1.6l1.5-2.1l-0.3-1.1l0.2-1.9l-1.8-1.7l0.2-1.6
	l0.8-1.2l0.5-1.4l0.1-0.7l-0.7-0.8l-0.3-0.6l0.3-1.1l0-0.3l-0.5-0.5l-0.9-0.5l-0.4,0.2l-0.7,0.6l-0.8-0.1l-1.1-1.4l-1.4,0.6
	l-0.8-0.2l-0.5-0.4l-0.5,0.6l-0.7,0.2l-0.9,0.5l-0.8-0.2l-1.5,0.1l-0.2-2.1l-0.9-0.5l-2.1,0.4l-0.7-1l-1.4,0.1l-0.3,1.7l-0.8,0.1
	l-0.8,0.5l-1.1,1.8l-1,0.5l0,1.9l1.6,1.2l-0.4,0.6l1,2.2l0.3,1.5l0.7,0.7l0.2,0.6l0,2.7l2.4,0.4l0.3,0.2l0.1,0.5l-0.6,1.1l-0.9,0.7
	l-0.9,0l-1,0.6l-0.5-0.2l-0.8,0l-0.7,0.6l-0.8,0.4l-0.7,0.1l-0.6,0.8l-1,0.7l-0.7-0.2l-2.2,1.1l-1.2,1.1l-1.6,0.7l-0.6,0.5l-0.5,0.8
	l-0.9,0.2l-0.9-0.1l-3.1-1.5l-0.7-1l-1-0.9l-2.3-0.9l-2.1,0l0.8-1l0-0.4l-0.6-0.3l0.2-0.5l-0.1-0.3l-0.3-0.1l-0.1-0.4l-0.7-0.5
	l-0.1-0.5l-1.1-0.3l0-0.4l-0.3-0.5l-0.6-0.3h-0.4l-0.7,0.5l-0.5,0.3l-0.7,0l-1-0.2l-0.5-0.5l-0.1-0.6l0.1-0.8l0.5-1.4l-0.2-0.7
	l-1-0.7l-0.6-0.1l-1.1-2.1l0.5-0.7l1.8-0.7l0.3-1.4l0.4-0.1l-0.3-0.9l-0.9-1.6l-1.3,0.1l-0.5-0.4l-0.6,0.2l-0.6-0.1l-0.7-3.5
	l-0.1-1.9l-0.5-0.8l-0.4-1.2l-0.5-0.4l-0.3-1.1l-0.1-0.1l-0.7,0.4l0.2-1.5l-0.7-0.4l0.6-1.3l-1.2-1l-0.2-0.9l-0.3-0.5l-1.1-0.4
	l-0.5-0.9l0.3-3.4l-0.1-0.7l-0.3-1.2l-0.5-1l-0.6-0.5l-0.5,0.1l-0.4,1.2l-0.4,2.3l-0.6,1.6l-1.6,1.5l-0.7,0.2l-0.7-0.1l-0.5,0.5
	l-0.7,2.3l-0.7,1.3l-0.7,0.4l-0.4-0.1l-1-1l-0.4-1.1l-0.4-0.2l-1.2,0.8l-0.7-0.7l-0.5-0.5l-0.6,0.2l-0.2,0.7l0.1,0.7l-0.2,0.6
	l-0.7,0.2l-0.5,0.5l0.1,0.5l-0.3,0.4l-0.5-0.1l-0.2,0.5l0.2,0.6l0,0.6l-0.4,0.9l-1.3,2l-1-0.3l-0.5-0.5l-1.1-0.6l-0.5-0.5L368,376
	l-0.8-1.4l-0.6-0.6l-0.5-0.3l-0.5-0.1l-0.2-1.3l0.2-7.2l-0.1-1.9l0.4-0.6l0-0.9l-1.2-1.9l0-0.6l1.2-1.3l0.3-0.6l0.2-2l0.1-2
	l-0.2-2.3l-0.7-1l0-3.6l2-0.9l0.4-0.6l0.2-0.6l0.6-0.7l0.6-1l1.1-0.9l0.2-1.6l0-1.9l0.7-1.2l-0.2-1.7l-0.4-0.3l-0.7,0.2l-0.8,0
	l-0.6,3.2l-0.4,0.6l-1.2,0.7l-0.8,0.8l-0.6,0.1l-0.8-0.3l-0.4-1.5l-0.3-0.3l-0.5-0.2l-0.2-0.7l-0.5-0.4l-0.5-0.8l-0.4-1.7l0.6-1.3
	l-0.1-0.7l-0.9-2.1l-0.1-0.7l-1.4-0.7l0.4-1.2l0.5-0.8l0.6-0.4l3.2-1.5l0.4-0.3l0.2-1.2l-0.5-1.6l-0.4-0.7l0-1.1l0.3-1.8l1.2-1.4
	l1.8-1.6l0.8-0.6l1.5-0.8l0.4-0.8l1.1-0.7l0.4-0.4l-0.2-0.4l-0.5-0.4l0-0.9l-1.1-0.7l-0.4-0.5l0-0.8l0.1-0.3l0.3-0.5l1.8,0.2
	l0.8-0.3l0.8-0.5l0.4-1.7l-0.3-0.7l-0.6-0.6l0.1-0.2l1.1-0.2l0.2-1.3l0.2-0.5l0.4,0.5l0.5,0.1l1-0.2l1.2,0.8l0.3,0.4l-0.2,0.8
	l-0.8-0.1l-0.5,0.4l-0.7,1.4l0.1,1l2.4,4.6l1.2,1.2l0.9-0.1l0.2,1l0.1,1.2l0.5,0.3l0.2-0.8l0-0.8l0.4-0.7l1-1.4l1.5-0.9l-0.3-0.7
	l0.3-0.6l0.5-0.2l0.4,0.7l0.5,0.4l2.2,0.4l0.3,0.6l-0.3,2.7l0.7,1.1l1,0.9l1.1,0l0,0.7l0.3,2.1l0.5,0.6l1.5,0.4l0.3,0.4l-0.4,1.1
	l0.1,0.7l0.4,0.4l0.2,0.5l-0.1,0.5l0.2,0.5l0.5,0.3l-0.3,0.6l0,2.1l1.2,1l0.3,0.6l-0.2,1l2.1,0.4l0.5-0.1l0.7,0.5l0.8-1.5l0.6-0.7
	l2.5-2l0.4-0.8l0.1-0.7l0.2-0.7l-0.1-0.9l0.3-0.6l0.2-0.8l0.4-0.9l1-1.7l0.5-1.2l0.7-0.9l0.3-1.1l0-1.1l0.1-1l-0.7-0.5l-0.1-0.7
	l0.1-0.7l0.3-1.2l0-0.9l-0.2-1l-0.3-0.5l-0.1-0.7l0.5-1.6l0.4-0.8l0.5-0.3l0.6,0.4l0.5-0.2l0.4,0.2l0.6,0.8l1,0.7l2,0.4l0.5,1.2
	l0.3,2.3l0.4,1.4l0.3,0.2l1-0.9l0.9-1.5l0.3,0.6l-0.1,1.8l0.2,0.7l0.4,0.6l0.7,0.2l0.4,0.6l0.3,0.5l0.4,1.1l0.1,1.1l0.3,0.2l0.6,0.9
	l0.3,0.3l0.5,0.1l0.3-1.3l1.2-1.7l0.5-1l1.2,0L424.1,315.1z"/>
<path id="D347" class="st0" d="M266.7,353.8l-0.4,0.4l0.1-1.9l-3.1-1.2l-0.4-0.4l-0.4-1.7l-1.1-2.8l-0.2-2.5l0.1-0.9l-1-0.5
	l-1.7-0.3l-1.1-0.7l0.2-1.7l0.4-1l-0.1-0.6l0.2-1.1l0.2-0.6l0.4-0.4l0.9-0.5l3.3,0.5l0.8-0.1l0.2-3.3l-0.3-1.1l0.5-0.9l0.1-1.3
	l-0.1-1.5l-0.7-2.1l-1.6-0.7l-0.5-0.5l0.2-0.6l0.5-1l0.8-0.7l1-0.4l0.5-0.5l0-1.4l-0.2-0.1l-0.4-1.9L263,315l-0.8-0.9l-1.2-0.3
	l0-0.7l0.4-0.9l0.2-1.4l0.5-0.7l0.3-0.8l-0.3-1l-1.2-1.6l-0.3-0.6l-2.5,0.1l-1,0.4l-0.8,0.7l-0.8,0.3l-0.2-1l-0.5-0.8l-0.8-0.4
	l-1.2,0l-1.1-0.4l-1.7-1.6l-1-0.4l-2.4,1.5l-0.8-2.8l0-2.5l-1.5,0.8l-0.8,0.8l-0.7,1.1l-0.9-0.3l-1.1,0.5l-1.2-0.2l-0.8,0l-0.8,0.6
	l-0.4,0.2l-1.9-0.2l0.1-0.3l0.3-0.2l0.6-1.2l0.3-0.1l0.1-0.2l-0.1-0.2l-0.3-0.1l-0.4,0.1l-0.6-1.6l0.4-1l1.2-3.6l-0.2-0.7l-0.8-0.8
	l-0.7-2.2l-1-1.1l-0.1-0.4l0.4-1.5l-0.2-0.2l-1,0.6l-0.6-1.7l-0.6,0.3l-0.8,0.7l-0.7,0.4l-1.4-0.7l-1.6,1.1l0,1.4l0.3,1.1l-1.6,0.8
	l-1.2-0.3l-0.7,0.1l-0.6,0.7l-0.4,1.3l-0.6,0.7l-0.4,1.1l-0.7,0.6l-0.7,0.1l-0.6-0.8l-1-0.4l-1.2,0.3l-0.9,1.5l-0.6,1.4l-0.9,1.9
	l-0.4,0.2l-0.6-0.4l-0.4-0.2l-0.5,0l-0.5,0.2l-1.2-1.4l-0.2,0l-1.2,1.3l-0.9-0.7l-0.4-0.1l-0.7,0.2l-1.4,0.2l-0.5,0.3l-0.4-0.2
	l-0.7-1.2l-1.1-2.4l-0.8-2.8l0.4-2.1l1.2-1.2l-0.5-0.8l-1.1-1.3l-0.1-1.2l1.6-0.5l0.4-0.7l1.2-3l-1.8-1.5l-1.4-5.2l1.7-2.6l1.1-0.4
	l1.2-4.8l-4.3-2.4l-0.3-1.5l-0.7-1.5l-1-0.5l-0.5-1.4l-0.5-0.7l-0.5-2.1l1.4-1.6l-0.1-0.8l-1.2-0.8l-1.2,1.5l-1.5-0.2l-1.4,0.2
	l-2-0.4l-1.8-1.2l-0.5-0.6l0.2-1.9l-0.1-1.9l-0.6-0.6l-3.1-1.5l-0.6-0.9l1.8-3.5l0.2-1.4l1.4,0.5l0.7-0.5l0.2,0.4l-0.4,0.7l-0.6,0.7
	l2.7-0.7l0.7-0.3l0-1.1l-0.4-1.3l2.3-2.2l0.5-1.1l0.8-0.4l-0.2-0.9l0.5-1.4l-0.2-1.9l1.1-0.4l0.5-1.3l0.5-2l1.2-1.2l-0.9-1.3
	l-0.1-1.5l1.2-1.6l0.2-0.8l-0.6-0.8l-0.4-1.5l3.1-0.1l0.6,0.6l1.5-1.2l1.5-0.9l-0.2-1.2l-0.8-1.5l0.3-1l0.6-1.1l1.1-1l1.1,0.4
	l0.3,1.8l1.2-0.6l0.6,0.1l1,0.6l1.7,0l0.4-0.5l0.6,0.4l0.5-0.4l0.9,0.8l2.2,0.3l2.3,1l0.3-0.5l0.4-3l0.7-0.5l0.1-2.7l-0.4-0.4
	l0.1-0.6l1.2-2l0.7-3.1l0.8-0.6l1.5-0.5l1.9-2.1l1,0.8l0.7,0l1.1-0.8l2.3-3.1l0.3-1.7l3.2-1.1l2.6-0.6l0.6-2.6l0.9-0.8l0.9-1.6
	l1,1.7l2.7-0.7l2,2.7l-0.7,5.2l-0.1,3.2l1,0.1l-0.1,1.7l-0.3,0.4l0.6,1.4l1.2-0.6l0.8-2.1l1.5,1l0,0.6l0.4,0.2l0.5-0.2l0.7-1.9
	l0.8,0.2l0.5,0.6l0.6,0l-0.3,3.8l0.3,2.4l-0.3,1.9l0.7,1.1l1.4,3.8l1,1l0.4,2.4l-0.9,1.4l0.5,0.6l0.8,0l1.5-0.7l1.9-0.5l1.5,0.3
	l2,0.9l3.1-0.8l3.3-7.3l3.1-0.8l0.6-0.6l0.9-0.6l1.7-0.7l0.6,0.5l0.6-0.2l0.4,1.2l1.7,0.6l0.6-0.3l0.4-1.6l0.6-1.2l0.7-1l1.1-0.9
	l-0.1,3.7l-0.3,1.8l0.1,0.9l-0.2,0.4l-0.4,0.3l-0.2,0.8l0.3,0.3l-0.8,2.6l2.3,1.2l-0.6,1.9l0.1,1.2l0.3,1.1l1.3,1.7l0.6,1.2l0.6,1.9
	l0.5-0.5l0.6-0.3l1.4,0l1.4,0.3l0.7,0.5l1.1-1l0.1-2.4l-0.4-1.6l0.4-0.2l0.9,0l1.2,0.2l1.1,1.1l0.5,0.1l0.5,1.9l0.7,0.4l1.7,0.1
	l0.5,0.4l0.1,0.7l0.3,0.3l0.7,0.2l0.4,0.6l0.7-0.1l1-2.1l0.8-0.4l2.4-0.5l0.5-0.5l0.7,0.2l0.8-0.1l1.7,0.4l1.4,0.4l0.7,0.4l0.7,0
	l1.7,0.5l0.9-0.1l0.7-0.6l0.7,0l1,0.9l1.5,0.8l2.3,2.1l0.8,0.2l1.2,0.9l1.4,0.2l-0.2,0.7l-1.2,1l-0.6,0.4l-0.5-0.4l0.1-0.6l-0.4-0.6
	l-1.2-0.2L321,232l0.1,0.8l0.4,0.5l0,1.1l-0.9,0.4l0.1,3l-0.2,1.1l-0.1,1.5l-0.5,0.4l-0.2,0.7l0.3,0.6l-0.5,1.6l-0.9,1.3l-0.9,0.7
	l-0.3,0.7l0.4,1.9l-0.8,0.8l0.8,1l0.2,1.4l-0.1,1.6l-0.4,0.3l-1-0.1l-0.6,0.1l-0.6-1.4l-2.4-1.7l-1.5,0l-1.5,0.2l-1.6-1.4l-0.6-0.2
	l-1.3,0.2l-0.6-0.1l-1.6,0.3l-1.5-1.1l-0.8-0.3l-1.3,0l-1.2-0.2l-1.6,0.3l-0.5-0.1l-1-0.6l-1.3,2.3l-0.6,0.8l-0.2,0.9l-0.3,0.6
	l0.1,0.6l-0.8,1.1l0.2,1l0.8,1.4l0.3,1.4l-0.3,1.1l0,1.2l-0.5,2.3l0.8-0.1l0.5,0.3l1.2,3.8l1.3,1.9l0.6,1.1l-0.2,0.5l-0.4,0.2
	l-0.3,0.5l0.5,0.1l0.2,0.5l-0.4,0.5l0.6,0.3l-0.1,1.4l0.2,0.8l0.4,0.3l1.2,0.3l1.1,0.6l0.8,0.9l1,0.7l0.3,0.5l1.4,0.8l1.1,0.2l1,0.4
	l2.1,1.9l0.5,0.9l0.3,1.6l-0.3,2.4l0.1,1.4l0.9,3.2l0,0.6l-0.3,0.3l-0.8,0.3l-2.2,0.7l-0.6,2.5l-0.1,1.5l-1.3,1.1l-0.3,1.9l-0.4,0.9
	l-0.7,0.8l-0.5,1l0,1l0.1,1.2l-0.6,0.4l-0.5,1.1l-1.2,1l-0.7-0.2l-1.8-1l-3-0.3l-0.9,0.4l-0.9-0.9l-0.6-0.9l0.2-0.8l-0.7-0.9
	l-1.3-0.9l-0.8-0.2l-0.3,0.5l-1.4-1l-0.4,0.3l-1.3-0.1l-0.9,1.1l-1.1,2.2l-1.6-0.4l0.9-2.1l0-1.3l-0.6-1l-2.1-0.1l-0.6-0.2l-1.6,0.1
	l-0.3,0.2l-1,0.2l-0.3,0.4l-0.4,1.4l0.2,0.8l0,1.2l1.1,0.1l0.8,0.5l1,0.3l0.3,0.3l0,0.9l-1,0.9l-0.7,0.9l-0.7,1.1l0.7,1.9l-0.4,0.4
	l-0.2,0.6l0.3,0.7l0.6,0.4l-0.2,1.1l-2.8-0.1l-1.2,3.2l0.7,1.3l0,1.1l0.2,0.8l1.7,1.2l-0.6,1.5l0.2,0.3l-0.5,0.8l0.2,1.1l1.1,1.4
	l1.4,1.2l0.4,0.5l0.6,0.4l0.8,1.3l0.2,0.8l-0.2,0.9l-0.9,0l-0.8-0.2l-0.1,1.1l0.1,1.6l-0.4,0.4l0.2,1.1l-0.1,2.1l0.3,0.7l0.2,1
	l0.1,1.2l-0.1,0.9l-0.4,1l0.3,1.3l0,1l0.2,2l0,1.4l0.6,0.7l1.4,1.3l0.3,1.1l-0.5,0.4l-0.8-0.8l-0.5-0.2l-0.6,0.1l-0.3,0.5l0,0.4
	l0.6,0.1l0.1,1l0.6,0.3l0,1.2l-0.2,1l-0.6,0.5l-0.2,0.7l-0.3,0.4l-0.8,0.5l0,0.8L278,358l-0.4,0.7l-2.8,0.5l-0.3-0.9l-0.6-0.3l0,1.2
	l-0.6,1.7l-1.5-0.6l-0.8-1.6l-0.4-2.1l-0.3-0.7l-1.4-0.5l-0.4-0.4l-0.5-1.4l-0.6-0.1L266.7,353.8z"/>
<path id="D350" class="st0" d="M562.9,186.9l-0.6,1.4l0,1.2l-0.2,1l0.3,1.8l0.1,1.4l-0.1,1.2l-0.1,1.1l-0.3,1.1l-0.4,0.8l-0.4,0.7
	l-0.5,1.4l-0.6,1.7l-0.9,1.6l-0.6,1l-0.4,1.5l-0.2,1.4l-0.1,1.3l0,1.1l1.2-0.8l0.7,1.2l-0.7,0.4l0.6,0.8l0.4,1.2l0.5,0.6l0.9-0.2
	l0.7,0.6l1-0.8l0.5-1.3l1.2,0.4l0.6-0.8l0.9,0.4l-0.4,2.2l-0.4,1.4l-0.7,1.1l-1,0.6l-0.1,1l0.1,1l1,0.9l-0.3,1.2l1.1,2.8l2.5,0.1
	l1.6,0.8l0.1,1.3l0,1.4l-0.3,1.7l-0.1,1.4l0,0.9l0,0.9l0.9,1.1l1.7,0.2l1.3,0.8l1.3-1.1l0.3-0.1l0.2,0.1l3.9-2.9l1.1,1.7l0.5,1.4
	l-0.1,1.3l-0.1,1.2l0,1.5l0,2l0.4,1.8l0.5,1.2l0.7,0.8l1,0.5l1.1,0.5l1,0.4l0.9,0.4l-0.2,1l-0.5,0.5l-0.5,0.6l-0.6,0.7l-0.3,1.1
	l-0.2,1.1l-0.5,0.6l-0.5,1.1l0.4,1l0,0.4l0,0.7l0.4,1l-0.7,1l-0.6,0.9l-0.6-0.7l-0.8-0.6l-0.6,0l-0.9-0.3l-0.3-0.5l-0.6-0.7
	l-0.5,0.2l-2.3-1.2l-1.3-0.6l-0.9-0.2l-1.3-0.3l-0.8,0.6l-0.3,0.8l0.3,1.1l0.5,1.3l-0.2,1.9l0.1,1.2l-2.1,0.5l-0.8,1.1l-0.8,1.8
	l-0.5,0.2l-1.3-0.4l-0.4,1.3l-0.2,0.8l-0.3,1.7l-0.3,1.5l0.1,1l1.5,0.3l1.5,1l1.2,0.6l0,1.4l0.2,1.4l0.6,0.3l0.9,0.5l0.8,0.4l-1.1,2
	l0.5,2.2l0.1,1.7l-0.5,1.3l0,2.3l-1.4,0.2l-1.1,1.1l0.5,1.2l-1.2,0.9l-1.2,0.2l-1.9-0.7l-1.9-1.2l-0.8-1.2l0.7-1l-0.8-0.4l-1.7,0.4
	l-1.5-1.2l-1.5-0.8l-0.5,0.4l-0.2,0.8l-0.7,0.4l-0.9-0.3l-0.8,0.5l-2.3,0.8l-0.5,1.2l-1.6,0l-1.6-4.3l-1.4-0.1l-0.5-0.4l-0.1-1.6
	l-0.2-0.2l-0.6,1l-1-0.8l-0.6,0.9l-0.9,0.2l0,2.2l-0.8,0.4l-1.2-0.5l-1,0.2l-0.4-1.3l-0.9-0.9l-0.5-0.7l0.9-1.1l-0.7-1.4l-0.8-0.1
	l-1.2-0.2l-2.1-0.9l-1.8-0.8l-0.9-0.6l-1.1,0.1l-0.7-0.2l-0.8-1.1l-0.4-1.1l0.1-2.3l0.3-1.8l0.5-0.3l0.9-0.1l0.9-0.6l-0.2-1.7
	l-0.3-1.3l-0.7-0.5l-0.4-0.3l-0.8-0.6l-0.7,0.5l-0.2,0.9l-0.4,1.1l-0.1,0.9l0,1.1l-0.4,0.7l-0.3,0.8l-0.5,0.6l-0.4,0.3l-0.9,0
	l-0.6,0.1l-1.1,0l-0.8-0.2l-0.9-0.3l-1.6-0.3l-1.5,0l-0.5-0.2l-0.6-0.4l-0.8-0.4l-0.5,0.2l-0.7,0l-0.9-0.3l-0.7-0.1l-0.5,0.1
	l-0.5,0.6l-0.7-0.2l-0.5-0.2l-0.6,0l-0.2,0.4l-1.5-1.5l-1.7-1.3l-0.9,0.6l-0.8-0.3l-1.7-0.5l-0.6-0.3l-0.4,0.6l-0.7,0.8l-0.8,0.3
	H501l-0.8-0.3l-0.9-0.2l-1.4-0.3l1-2.2l0.7-2.4l0.8-1.7l0.1-1.7l-0.2-1.4l0.5-0.8l0.6-0.8l0.2-1.9l0.7-1.5l-0.7-1.3l-0.2-1l0.7-0.8
	l-0.2-1l-0.4-1.1l0.1-2l-0.1-1.1l-0.3-1.1l-0.2-1.1l-0.4-1.4l-0.8-0.2l-0.9-0.2l-0.7-0.5l-0.3-0.6l-0.2-1.4l-0.8-0.3l-0.4-0.8
	l-0.1-1l-0.2-0.8l-0.4-0.6l0.1-1.5l0.1-1.5l-0.4-0.4L495,229l-0.9-0.3l-0.2-0.9l0.4-0.7l0.3-0.5l0.4-0.8l0.1-0.8l-0.1-0.3l-0.9-0.3
	l-0.6-0.3l-0.2-0.9l0.2-1l-0.2-0.7l-0.1-0.3l0.4-1.1l1-0.6l0.6-1.7l0.2-2.1l-0.5-2.5l0.3-1.2l-0.3-1l0.3-0.7l1.1-0.2l1.3-0.4l1,0
	l-0.1-1.8l0.6-1.1l-0.1-1.5l0-1.4l-1-1l0.8-1.8l-0.1-1.3l0.3-0.9l-0.1-1.1l0.8-0.2l0.4-0.4l-0.1-2.2l1.2-4l2.7-3.6l1,0.6l0.9-0.7
	l0.7,0l0.9,0.3l0.7-1.7l1-1l-0.5-2.2l0.6,0l0.5-0.8l1,0.1l1.5-1l0.7-1l0.1-2.5l0.9-1.5l0.8-0.9l0.8-0.5l0.4-1.1l1-0.5l0.1,1l0,0.1
	l-0.2,0.5l-0.2,1l1.8-0.1l-0.1,2.1l1.3,1l1.1,0.6l1.1,0.1l0.7,1.8l1.5,0.8l1.9,0.5l1.4-1.1l0.6,0.2l0.8-1.1l1.3,0.3l2.2-0.9l1.3-0.9
	l2,0.5l0.5-1l0.7-1.1l0.9-0.6l-0.2-2.7l0.9-3.1l0.5,0.7l2.3-0.3l1,0.2l0-0.8l0.3-0.1l0.6,1l0.5,0.9l0.4,1.2l0.1,1.1l1.1,0.5l0-0.8
	l-0.3-0.9l-0.3-0.7l-0.4-0.5l-0.2-0.4l0-0.8l0.9,0.4l0.4,0.7l0.3,0.7l0.1,0.6l0.1,0.5l0.1,0.5l0.2,0.5l0.2,0.2l0.6,0.6l-0.2,0.8
	l0.1,1.1l0.2,0.9l0.2,0.9l-0.7,0.5l-0.3,0.5l-0.1,0.7l0,0.6l0,0.3l0.7,0.1l0.6,0.1l0.7-0.9l0.7-0.2l0.5,0.2l0.6,0.5l0.9-0.4l0.8,0
	l0.2,1.1l0,0.8l0,0.9l1.3,0.2l1.1,0.5l0.4-1.2l0.6-0.7l1.2-0.2l0.6-0.7l0.5-0.5l0.4,0.9l0.7,0.5l0,1.2l0.4,0.1l1-0.2l0.8,1l0.4,1.1
	l0.7,0.7L562.9,186.9z"/>
<path id="D354" class="st0" d="M443.2,315.2l0.1-1.1l0.5-0.4l-0.3-1.3l0.7-2.5l0.4-1.1l2.2,0.3l1.3-0.6l0.7-0.1l1.2-0.9l1.2-0.5
	l0.8,0l1.8-0.7l1.1,0.1l1.2,0.6l1.4-0.3l2.9,0.6l0.6,0.3l2.1,2.2l0.6,0.3l0.9,0.1l0.8-0.5l0.8-0.2l2,3.8l-0.4-6.4l1.6-4.2l0.3-1.5
	l0.3-0.7l-0.3-1.3l0.3-1.3l1.6-1.5l1.2-1.8l0.5-0.9l0.3-0.5l0.6-0.6l0.6-0.3l0.7-0.1l0.3-0.5l0-0.5l-0.1-0.6l-0.7-0.2l-0.7-0.1
	l-0.5-0.3l-0.4-0.6l-0.5-0.3l-0.3-0.3l0.1-0.4l1.2-0.6l0.7-0.2l0.2-0.2l-0.1-0.8l0.4-0.6l-0.2-0.5l1.1-0.4l0.8-0.2l0.7,0.3l1,0.5
	l1.2,0.1l0.7-0.6l0.7-1l0.7-0.2l0.8,0.1l0.5,0.9l0.4,1.3l0.8,1.5l1.1,0.5l1.3,0.6l1.4,1l0.6,0.1l1-0.2l1-0.2l0.8,0.2l0.8,0.6l1,1
	l1,0.6l1,0.3l0.5,0.5l0.5,0.4l0.4,0.4l0.4,0.2l0.5-0.1l0.3-0.2l0.5-0.3l0.2-0.1l0.3-0.1l0.3,0.1l0.2,0.2l0.3,0.3l0.2,0.3l0.4,0.5
	l2,1.4l1.1,0.3l2.7-1.3l4.8,0.8l0.9,0.5l1.1,1.8l1.5,2l0.5,1.2l6.4,4.6l0.8,1.2l1.6,1.2l2.2,0.7l2.7,2.3l2.5,0.5l0.9,1.2l1,2l0.4,3
	l0.4,1.6l1,1.6l0.4,0.4l1.4-1.4l0.8-0.5l2.6,1.1l0.6,0.5l0.6,0.7l0.6,1.2l0.8,0.7l0.6,1l1.8,5l-0.1,0.8l0.8,0.7l0.5,2.2l-0.5,3.2
	l1.6,1.9l1.3,2.5l0.5,3l-0.1,1.8l-0.5,1.5l-0.7,0l-0.5,0.2l-0.5,0.8l-0.9,4.8l-0.7,2.1l-0.4,1.5l0.3,0.7l0.4,0.3l-0.6,1.2l-2.9,1.1
	l-2.2,0.7l-3.1,0.2l-0.3-0.3l0.1-2l-0.7-1l-3.1-0.7l-2.6,0.5l-1.6,1l-2.2,0.7l-3,0.6l-2.4,1.4l-1.3,0.6l-1.3,0.2l-3.7,0.1l-0.6,0.4
	l0.1,0.7l0.3,0.6l-1.1,0.7l-2.7,2.5l-2,1.2l-2.2,1.1l-1.3,1.1l-0.8,0.1l-1.8-0.1l-1.5-0.5l-3.1-0.7l-1.5,0.8l-0.8,0.3l-0.9-0.2
	l-1-1.2l-0.3-0.3l-0.7-0.6l-2.7-0.6l-1.3-0.5l-0.6-0.7l-1.4-2.1l-0.6-0.3l-0.7-0.1l-1.1,0.5l-0.6,0.1l-0.6-0.3l-1-1.6l-0.2-2.6
	l-0.3-0.6l-1.4-0.6l-0.2-0.8l0.4-2.4l-1.4,0l-2.2-0.3l-0.7,1.6l-0.5,0.1l-1.3-0.1l-0.4-0.4l0-0.5l0.3-0.9l0-1.3l-0.3-1.7l-1.1,1.5
	l-3.1-4.8l-3.3-1.2l-5.3,0.6l-4,0.3l-2.7,2.4l-2.9,1.2l-1.5-1.1l0.1,0l1.3,0.1l0.4-0.8l0.8-0.5l-0.1-1.8l0.4-1l-0.2-2.4l-0.8-0.7
	l0.3-1l-0.4-0.5l-0.7-0.4l-0.5-0.5l-0.2-0.5l0.1-1.2l-0.9-0.5l-0.5-0.7l-0.2-0.9l-0.3-1.7l0.5-2.2l-0.4-3.2l-0.6,0.2l-1-0.4
	l-0.8,0.4l-0.3-0.3l-0.3-0.8l-0.8-1.4l0.1-0.4l0.5-0.3l0.2-0.6l-0.5-0.8l-0.1-0.5l0.3-0.7l-0.1-0.6l-0.9-0.4l-0.5,0.1l-0.5-0.9
	l-0.8,0l-0.2-0.4l0.2-1.3l-0.4-0.6l-0.1-0.5l0.4-0.7l0.1-0.7l-0.7,0.4l-0.4-0.1l-0.1-0.5l0.9-1.4l0.5-0.4l0.5-1L443.2,315.2z"/>
<path id="D362" class="st0" d="M562.9,186.9l-0.6-1l-0.1-1.2l0-1.2l0-0.9l0-0.7l-0.8-0.7l0.3-1l-0.4-0.9l-0.4-0.9l0-1.2l0.5-1
	l0.5-0.7l0.6-0.4l0.2-0.8l1.2-2l0.2-0.5l0-1.2l0.7-1l0.8-0.4l0.7,0l0.3-0.8l-0.4-1.1l-0.5-1.4l1.3-0.1l1.5,0.1l-0.2,1.4l-0.4,0.9
	l0.1,0.9l1.2-0.2l0.8-0.4l1.1-0.5l0.9,0.3l1.4,1.1l0.8,0.6l0.4,0.3l0.3,0l0-0.1l0.4,0.3l2.7,2.6l0.4-0.6l0.4-0.9l0.2-0.9l0.7-0.4
	l0.4-0.3l0.3,0.2l0,0.8l0,1l0.2,0.4l0.4,0l0.4-0.1l0.4,0l0.1-0.3l0.1-0.3l0.3,0.1l0.3,0.3l0.3,0.4l0.2,0.7l0.9-0.3l-0.3-0.7
	l-0.2-0.8l0-0.6l-0.1-0.6l-0.2-0.8l0.8-0.4l0.3-1.4l0.5-1.1l0.7-0.6l0.9,0.1l1,0.6l0.7,0.5l0.9-0.1l0.6-0.1l0.9,0.6l0.7,0.5l0.9,0.4
	l0.6,0.2l1.1,0.1l0.6,0.2l0.7,0l0.6-0.1l0.6,0.5l0.6,0.8l0.8,0.7l0.8,0.6l0.8,0.5l0.8,0.1l0.7-0.2l0.9-0.1l0.6,0.7l0.5,0.8l0.5,0.4
	l0.9-0.2l0.6,0.5l0.7,0.7l0.8,0.9l0.8,0.6l0.4,0.1l0.4,0.3l0.4,0.6l0.7,0.2l0.6-0.5l0.4-0.4l1,0.4l0.7,0.3l1,0.3l0.8,0.3l0.8-0.5
	l0.8-0.3l0.9-0.3l0.8-0.6l0.6-1l0.5-0.6l0.5-0.1l0.5,0.3l0.5,0.4l0.6,0.5l0.9,0.4l0.8-0.3l1,0.3l0.7-0.1l0.2,0.9l0.2,0.7l0.6,0.6
	l0.7,0.6l0.5,0.4l0.4,0.4l0.2,0.4l0,0.6l-0.1,0.9l0.2,0.7l0.4,0.6l0.6,0.6l0.3,0l0.5,0.8l0.5,1.1l0.5,1l0.6,0.6l0.4,0.7l0.6,1
	l0.7,1.5l0.7,1.1l0.5,0.9l0.4,1l0.1,1.1l0.5,0.7l1.1,0.4l1,0.1l0.8,0.1l0.7,0l0.1-0.9l1.8-0.1l0.3-0.3l0.5-0.7l0.5-0.6l0.5-0.1
	l0.4,0.1l0.3-0.3l0.5-0.3l0.6,0l0.8,0.1l0.4-0.1l0.4-0.6l0.4-0.3l0.7,0.3l0.4,0.1l0.8-0.5l0.9-0.1l1-0.3l0.5-0.7l0.5-0.2l1.2,0.1
	l1.2,0.6l0.8,0.7l1,0.9l1.2,0.7l1.3,0.2l0.8,0.7l0.6,0.4l0.3-0.1l0.6-1.1l0.7-1l1.5-0.5l1.2-0.1l0.6,1.1l0.4,1.2l0.5,0.9l-0.5,1
	l-0.2,1.4l-0.1,1.3l-0.3,2l0.4,1.6l-0.1,2.9l0,4.3l0.1,3.3l0.4,4.4l0.2,3.3l0.6,2.7l0.6,3.1l0.4,2.3l0.5,2l0.2,1.1l-0.2,1.9
	l-0.2,2.1l-0.1,2.7l0,2.1l0,2.2l-0.2,2.3l0.7,0.2l1.1-0.1l1.2,0.4l0.8,0l1.2-0.5l1.1,0.1l1.5,0.3l1.8,1.1l-0.3,0.8l-0.7,0.7l0.1,0.9
	l0.4,0.7l0.5,0.9l0,1.1l-0.2,1l-0.5,0.7l-0.1,0.9l1.1,0.7l1.2,0.4l0.9-0.2l1.1,0.3l0.7,0.1l0.4,1.1l0.1,1.1l0.6,0.8l0.8,0.4l0.8,0.8
	l0.6-0.2l0.2,0.8l0,0.7l0.4,0.6l0,0.8l0,0.8l-0.5,0.6l0.1,1l-0.2,1l-0.4,0.9l-0.8,0.1l-0.6,0.2l-1-0.7l-0.9,0l-0.6-0.6l-1-0.3
	l-1,0.3l-0.7,0.1l-0.8-0.2l-0.7-0.5l-0.7-0.6l-0.6-0.6l-0.9-0.1l-0.9-0.2l-0.9,0l-0.9,0.2l-0.7,0.7l-0.6,0.1l-0.8-0.1l-1-0.3l-0.7,0
	l-0.5,0.5l-1.1,0.7l0.3,0.3l0.8,0.3l0.7,0.5l0.8,0.6l0.6,0.7l0.6,0.5l0.6,0.7l0.5,0.6l0.6,0.6l0.4,0.6l-0.4,0.5l-0.7,0.2l-0.8,0.1
	l-0.4,0.1l-1.7,0.2l-0.3,0.8l0,0.9l-0.3,0.9l-0.4,0.3l-0.4-0.2l-0.4,0.6l0,1.2l0.2,1.1l0.6,1.1l0.3,0.6l0,0.4l-0.5-0.2l-0.4-0.3
	l-0.5,0.2l-0.5,0.4l-0.6,0.3l-0.5,0.1l-0.6-0.4l-0.7-0.2l-0.6-0.2l-0.8-0.3l-0.7-0.7l-0.5-0.7l0-0.9l-0.1-0.6l-0.4-0.3l-0.4,0
	l-0.4-0.1l-0.2-0.3l-0.2-0.6l-0.3-0.5l-0.5,0l-0.5,0.1l-0.5-0.2l-0.6-0.3l-0.5-0.4l-0.4-0.2l-0.5,0.1l-0.1,0.7l0.1,0.8l0.2,0.5
	l0.2,0.6l0.1,0.7l-0.2,0.4l-0.3,0l-0.1,0.4l0.1,0.5l-0.6,0.6l-0.1,0.4l0.2,0.6l0.5,0.2l0.7,0.1l0.6,0.2l0.5,0.2l-0.1,0.5l-0.3,0.4
	l-0.1,0.5l-0.2,0.4l-0.2,0.2l-0.4-0.2l-0.6-0.2l-0.5,0.3l-0.1,0.7l0.3,0.6l0.3,0.4l0.3,0.4l-0.1,0.7l-0.2,0.8l-0.1,0.7l0.6,0.4
	l0.9,0.5l0.4,0.3l0.5,0.1l0.1,0.6l0.3,0.5l-0.2,1l-0.4,0.5l-0.4,0.4l-0.3,0.4l-0.1,0.4l0,0.8l-0.7-0.2l-0.3-0.2l-0.5,0.2l-0.4,0.8
	l-0.3,0.7l-0.6,0.5l-0.5-0.1l-0.4,0.2l-0.4,0.3l-0.3,0.1l-0.3-0.1l-0.3-0.1l-0.5-0.1l-0.3-0.1l-0.4,0l-0.4-0.2l-0.3-0.2l-0.4,0
	l-0.6-0.3l-0.3,0.4l-0.5,0.1l-0.7,0.3l-0.3,0.3l-0.4,0.5l0.1,0.3l0.3-0.2l0.3-0.2l0.4-0.1l0.5,0.1l0.4,0.2l-0.1,0.3l-0.2,0.2
	l-0.4,0.1l-0.2,0.4l0.3,0.5l0.5,0.1l0.5,0.1l0.1,0.2l0.6,0.5l0.5,0.7l0.2,1.8l-0.3,0.7l-0.7-0.4l-0.7-0.2l-0.5,0.6l-1,0.7l-0.4-0.2
	l-0.4-0.5l-0.7,0l-0.3-0.4l0-0.8l-0.1-0.5l-0.6-0.1l-0.5,0.3l-0.6-0.3l-2.2-0.6l-0.9-0.5l-0.1-0.5l-0.6-0.6l-1.1-0.1l-0.8-0.1
	l-0.4-0.7l-1.4,0l-0.7-0.1l-0.6-0.4l-0.3,0.7l-0.2,0.7l-0.4,0.6l-0.1,0.5l-0.3,0.2l-1.6,0.2l-1.4-0.2l-0.6-0.2l-0.6-0.4l-0.3-0.5
	l-0.4-0.6l0.1-0.5l0.4,0l0.3-0.5l0.3-0.8l0.3-0.9l0.5,0.2l0.7-0.2l0.1-1l0.4-0.3l-0.5-1.4l-0.9,0.2l-1-0.3l-0.9-0.2l-0.8,0.1
	l-0.8,0.5l-1.1-0.2l-1.1,0l-0.5,0.6l-0.5,0.1l-0.5-0.5l-0.7-0.5l-0.8-0.2l-0.8-0.3l-0.9-0.2l-0.7-0.4l-0.7-0.6l-0.8-0.4l-0.9,0.2
	l-0.5,0.8l-0.2,0.9l-0.1,1.6l-1.1,0.2l-1.3,0l-0.9-0.5l-1.2-0.2l-1.4,0.2l-1-0.3l-1.2-0.3l-1-0.3l-1-0.2l-0.8-0.5l-0.8-0.7l-0.9-0.8
	l-1-0.3l-0.9,0.2l-0.8-0.5l-1-1l-0.8-1.1l-0.8-1l-0.5-1l-0.4-1.1l-0.2-1.2l-0.6-1.1l-0.3-1l-0.2-0.9l-0.2-0.6l-0.6-0.3l-0.3-0.6
	l0.3-0.6l0-0.7l-0.4-0.2l-0.6,0.2l-0.4,0.3l-0.5-0.1l-0.5-0.2l-0.5,0l-0.5-0.4l-0.7-0.5l-0.9-0.7l-0.9-0.8l-0.3-0.7l-0.3-1l-0.5-0.7
	l-0.5-0.7l-0.9-0.7l-0.9-0.5l-1.6-0.8l-0.1,0l-0.4-0.3l-0.5-0.7l-0.2,0l0.3,0.7l0.3,0.7l0.1,0.9l-0.3,1l-0.5,0.9l-3.2,0.3l-0.5,0.1
	l-0.1-0.1l-0.3-0.1l-0.7-0.2l-0.8-0.1l-0.5,0.6l-0.2,1.2l0.1,1.1l-0.2,0.9l-0.8-0.4l-0.9-0.5l-0.6-0.3l-0.2-1.4l0-1.4l-1.2-0.6
	l-1.5-1l-1.5-0.3l-0.1-1l0.3-1.5l0.3-1.7l0.2-0.8l0.4-1.3l1.3,0.4l0.5-0.2l0.8-1.8l0.8-1.1l2.1-0.5l-0.1-1.2l0.2-1.9l-0.5-1.3
	l-0.3-1.1l0.3-0.8l0.8-0.6l1.3,0.3l0.9,0.2l1.3,0.6l2.3,1.2l0.5-0.2l0.6,0.7l0.3,0.5l0.9,0.3l0.6,0l0.8,0.6l0.6,0.7l0.6-0.9l0.7-1
	l-0.4-1l0-0.7l0-0.4l-0.4-1l0.5-1.1l0.5-0.6l0.2-1.1l0.3-1.1l0.6-0.7l0.5-0.6l0.5-0.5l0.2-1l-0.9-0.4l-1-0.4l-1.1-0.5l-1-0.5
	l-0.7-0.8l-0.5-1.2l-0.4-1.8l0-2l0-1.5l0.1-1.2l0.1-1.3l-0.5-1.4l-1.1-1.7l-3.9,2.9l-0.2-0.1L575,233l-1.3,1.1l-1.3-0.8l-1.7-0.2
	l-0.9-1.1l0-0.9l0-0.9l0.1-1.4l0.3-1.7l0-1.4l-0.1-1.3l-1.6-0.8l-2.5-0.1l-1.1-2.8l0.3-1.2l-1-0.9l-0.1-1l0.1-1l1-0.6l0.7-1.1
	l0.4-1.4l0.4-2.2l-0.9-0.4l-0.6,0.8l-1.2-0.4l-0.5,1.3l-1,0.8l-0.7-0.6l-0.9,0.2l-0.5-0.6l-0.4-1.2l-0.6-0.8l0.7-0.4l-0.7-1.2
	l-1.2,0.8l0-1.1l0.1-1.3l0.2-1.4l0.4-1.5l0.6-1l0.9-1.6l0.6-1.7l0.5-1.4l0.4-0.7l0.4-0.8l0.3-1.1l0.1-1.1l0.1-1.2l-0.1-1.4l-0.3-1.8
	l0.2-1l0-1.2L562.9,186.9z"/>
<path id="D357" class="st0" d="M534.3,656.5l-0.3-0.3l-1.4-0.2l-3,0.1l-1.5-0.4l-1.2-1.1l-0.6-1l0-1.4l-0.7-0.3l-0.4,0.2l-0.4,0.7
	l-1.4,0.2l-0.5-0.5l-0.1-2.8l0.2-0.7l-0.4-0.8l0-0.8l-0.5-0.1l-0.1-0.5l-0.6,0.2l0-0.6l-0.4-0.6l-0.7,0l-0.5,0.4l-1.7-1.9l-1.1-0.6
	l-0.9,0.1l-0.6,0.8l-1.1-0.1l-0.2-1.5l-0.7-0.9l0-0.9l-0.5,0l-0.1-0.8l-0.4-0.6l-0.5,0.3l-0.1,0.5l-0.6,0.2l-0.5-0.8l-1,0l-1.4,0.3
	l-1-0.7l-0.9-1l-1.1,1.1l-1.2-0.9l-0.2-1l-0.4-0.7l0.6-0.2l-0.2-1.3l-0.6-0.4l-1.8-0.7l-1-1.5l-0.2-1.9l-2.5-0.7l-0.3,0.5l-0.5,1.5
	l-0.6,0l-0.9,0.4l-0.2,0.7l-0.5,0.4l-0.6,0.1l-0.3,0.9l-1.3-0.2l-1.2-0.5l-0.5,0.4l0.1,1.4l0.2,1l-0.1,1.1l-0.9,0.9l-1.4-1l0-0.6
	l-0.5-0.9l-1.6-0.3l-1.5-0.8l-1.6-1.2l-2.3-2.4l-1.9-0.5l-1.6-1.2l0-1.2l-0.8-1.5l-1.2-1.4l-2.1-1.4l-0.8-1.5l-0.3-2.1l-1.2-1.3
	l-1.1-1.6l-0.2-2l-1.2-1l-0.8-1.1l-1.2-4.1l-1.3,0.5l-0.9,0.7l-0.9-0.3l-2.6-0.7l-2.1-1l-1.1-0.2l-0.1,0.3l-1.3-2.1l0.8-0.9l0.2-0.8
	l-0.1,0l-0.2,0.6l-1.1,0.4l-1-1.5l-0.9,0.5l-3.5-1.8l-1.2-0.1l-1.6-0.5l-1.6,0.8l0.2-0.8l-4-1.3l-1.2,0.5L441,602l-0.9-1.1l-0.5-1.1
	l-0.7-2.5l-0.3-0.2l-2-4.3l-1.4-2.6l-1.1-1.1l0.8-2.3l0.8-1l3.7-3.2l0.9-1.5l1-1.1l0.7-1.8l2.9-2.5l1-1.3l0.7-1.3l1.1-1.1l0.1-2.8
	l0.6-1l1.2-3.1l-0.7-1.3l0-3l-0.3-5.2l0.5-1.6l-0.2-1.8l-0.5-0.4l-0.1-2.1l-0.2-0.4l0.4-1.6l0.6-1.1l0.8-0.4l0.4-4.3l-0.1-1.2
	l-0.2-0.6h-0.5l-0.5-0.2l-0.6-1l-0.4-0.4l-1.6,0.8l-0.2-0.4l-0.2-1.3l0.4-1.6l1.4-1.4l0.1-0.6l0-2.2l0.4-0.7l2.2,0.9l1,1.7l0.5,0.4
	l1.6,0.9l0-1.9l0.7-1.9l-0.2-0.6l0.1-1.5l-0.1-2.9l0.4-1l0.9-1l0.5-0.3l1.2-3.5l-1-0.4l-0.5,0l-1.6-1.3l-0.5,0.3l-0.5-0.3l-0.3-1
	l0.1-1.1l-0.4-2.7l0.3-0.8l0.4-0.6l-0.4-1l0.3-2.2l-0.8-0.4l1.4-4.3l1.3-0.1l1.8,0.3l0.5-0.9l1-0.2l0.7,0.3l0.9-0.1l0.5-0.5l0.5-1.1
	l0.2-1.5l-0.6-0.7l-0.3-0.9l0.6-0.3l1-0.1l0.9,0.1l1.6-0.1l0.4-0.5l-0.1-0.3l0.3-0.2l0.7-0.8l0.6-0.4l0.3-0.4l0.6-0.4l0.8,0l1.1,0.2
	l0,0.2l0.3,0.2l0.1-0.2l0.2-0.2l0.2-0.6l0.1,0l0.3,0.2l0.1,0.4l0,0.4l0,0.4l0.3,0.6l0.6,0.2l0.6,0.4l0,0.5l0.3,0.6l0.5-0.1l1.6,0.6
	l1,0.7l0.4-0.1l1-0.8l0.8,0.1l0.6,0.8l0.2-1.2l1.3-0.4l0.5,0.8l0.9-0.3l1.7,0.7l0.1,1.3l0.4,0.9l0.6,0.7l0.9,0.5l0.6-0.7l0.5-1.1
	l1.5-0.8l0.9-1.6l2.3,0.9l1.3,0.1l0.2,0.6l0.5,0.5l0.4-0.4l0.5-0.1l1.8,0.5l0.5-0.7l1.3,0.6l0.7-0.6l2.7-0.2l0,1.4l1,1l0.5,1.1
	l-1.2,0.9l1.9,0.5l1-0.4l0.6-0.8l-0.3-0.1l2-1.7l0.9-1.2l0.3,2.6l-0.6,1.7l0.1,0.8l-0.9-0.1l-0.9,0.3l0.1,0.6l-0.6,1.9l-0.8,0.9
	l-0.9-0.4l-0.8,0.2l-1.3-0.5l-0.3,0l0.2,0.5l-0.3,0.8l-0.3,0l-0.2-0.6l-0.5,0l-0.4,1.7l-0.3,0.3l-0.1-0.8l-0.8-0.5l-0.8-0.7l0.1-1
	l-0.6-0.1l0,0.6l-1.2,0.5l-0.6,1.1l0,1.2l-1.1,0.5l-2.1,0.6l-0.6,0.8l-0.3,0.7l0.2,0.9l2.4,2.8l2.1,0.6l0.1,0.5l-1.8,2.8l-0.6-0.1
	l0.4,1.3l-0.4,1.5l0.2,1.6l-0.1,0.6l-2.1-0.3l-0.2,2.9l0.3,1.2l0,1.1l0.1,1.4l-1.9,4l-0.5,3.8l-0.8,0.7l0.5,2l0.9,0.5l1,1.2l1.7,1.2
	l0.6,0.8l1.5-0.2l1.8,2.7l0.1,1.3l0.5,0.6l1.4,3l0.4-0.5l0.9,0.3l0.3,0.7l1,0.9l0.6,0.9l0.9,1.9l0.4-0.1l-0.2-1.2l0.3-1.6l1,0.3
	l0.6-0.6l2,0.3l0.8-0.8l1.1,1.1l0.5,0.9l0.8,0.6l2.9,2.7l1,1.1l1.6,0.1l0.8,0.6l0.9,1.1l1.1,0.5l1.2,0.8l0.7,1.4l1.2,0.8l1,1.5
	l-0.2,1.6l0.2,3.3l-0.3,1.6l-0.4,2.6l0.2,1.2l0,1.4l0.7,0.7l1.4,0.4l0.4,1.5l-0.3,0.4l0.4,1.3l0.8,0.6l0.6-0.3l1.7,0.4l0.2-0.2
	l1.4-0.7l3.4-0.7l3.3,1.2l4.3,0.1l0.6,0.4l0.5,1.6l0.6,0.8l-0.1,1l-0.5,0.7l0.2,0.4l1,0.5l0,0.5l0.7-0.2l0.2,0.3l0.9,0.2l0.3,1.4
	l-0.5,0.3l0.4,0.7l0,0.6l-0.4,1l1,0.8l0.3,0.8l0.1,0.7l-0.4,0.8l0,0.4l1.4,1.8l-1.2,1l0.3,0.6l0.6,0.4l0.1,0.4l0,0.6l-0.4,0.9l-1,1
	l-0.6-0.4l-0.5-0.1l-1,0l-0.9,0.3l-1.3-0.6L539,603l-0.8,0.3l-0.4,0.6l0,1l0.6,2.1l0.4,2l0.9,0.9l-0.1,0.8l0.1,1.4l0.7,2.1l0.2,0.5
	l0.8,0.3l1.4,0l1.6,0.7l2.5,0.4l2,0.8l1.9,1.2l1.2,1l0.8,1.1l0.1,0.8l-0.2,0.9l-0.5,0.7l-0.3,1.1l0.4,1.9l-0.7,1.6l-1.1,3.9l0.2,0.6
	l-0.2,1.8l0.1,1l1.2,1.6l0.6,0.6l1,0.1l2.4,1.9l0.8-0.2l0.5,0.4l0.2,0.8l1.2,0.5l0.7-0.1l0.2,0.5l0.1,1.5l0.2,1.1l0,1.2l-0.1,1.2
	l-0.4,0.1l0,1.1l0.2,0.9l-0.2,1.4l-1.9-0.5l-0.6,0l-0.7,0.2l-0.9-0.2l-0.6-0.5l-0.5-0.7l-0.1,0.2l-1.3,0.4l-0.8-0.7l-0.4,0.2
	l-0.8,0.1l-0.9-0.4l-0.4,0.1l-0.2,1.4l-0.4,0.9l-0.4-1.8l-0.2-0.3l-0.1-0.9l-0.1,0.9l-0.3,1.1l0.1,0.9l-0.2,0.6l-0.2,0.1l-0.1,0.4
	l-0.4,0l-0.2,0.4l-0.4,0.2l-0.4-0.4l-0.1-0.4l0.3-0.1l-0.3-0.9l0.6-2.4l-1.6-0.2l0.1,1.9l0.4,1.9l-0.1,1.1l0.7,1l0.3-0.3l0.3-0.7
	l1.3,0.1l-0.1,1l-1.4,3.9l-1.3-0.8l-0.8,0.7l-0.4,0.5l-0.7,0l-0.5-0.5l0.4-1.6l0.5-0.7l1.3,1l0.2-0.7l-0.8-1.1l-1-0.5l-0.6,0
	l-0.5,0.2l-0.1,0.5l0.4,0.9l0.1,1.8l-0.8,0l-0.4,0.6l-1.8,0.7h-1.1l-1-0.6l-1.1-0.1l-1.3-0.5L534.3,656.5z"/>
<path id="D346" class="st0" d="M120.5,348l-0.9,0.7l-1,1.3l-0.3,1.5l0.7,1.3l0.6,1.7l0.9,0.2l0.9,0.1l0.6,0.4l1.2,1.3l1.3,1l0.8,0
	l1.2-0.3l1.1,0.5l0.6,0l1.1-0.9l1.3,0.7l0.4,0.4l-0.3,0.4l-1.1,0.7l0.3,0.7l-0.4,2.1l-1.1,2.7l-0.7,0.5l-1.6,0.8l-0.9,1l-0.4,0.7
	l-2.2,2.3l-2.2-0.2l-2.6,0.4l-1.9,0.9l-2.1,0.4l-1.6,0.4l-1,2.2l-0.3,3.6l0.9,6.2l-1.9-0.4l-1.2-0.7l-1.4-0.2l-1-0.3l-1.3-1
	l-1.1,0.6l-3.5-1.1l-2-0.5l-1.3-0.1l-2.5-0.7l-1.6-0.8l-0.7,1.3l-0.9-0.2l-0.4-1.4l-1.8-1.6l-1.7-0.3l-1.1-1.9l-0.3-1.7l-0.1-0.8
	l-2.6-1l-0.7-2.8l0.2-1l1.1-0.7l-0.2-0.9l-1-1.2l-2.3-1.7l-1.1-1.3l-1-1.8l0.1-1.6l1.1-0.8l0.3-0.5l1.2-1.6l0.4-1.8l-0.3-2.1
	l-0.5-1.6l0.1-2.4l-0.1-2.2l-0.3-1l-2.2-2.5l0-1.7l-0.3-1.8l-0.5-1.1l-1.2-1.4l-0.7-1.2l0.5-1.8l-0.5-0.9l-1-0.7l-1-0.4l-0.6,0.6
	l-0.8,0.5L71,331l-1.2-0.4l-0.5-0.8l0.4-1l-0.2-1.3l-1-0.9l-1.8,0.2l-1.2-0.1l-2.8-1.2l-1.7,0l-1.5-0.6l-1.4-1.1l-1.4-0.2l-1.6,0
	l-0.5-1.3l0.9-0.7l1.4-0.8l0.5-1.5l-0.9-1.2l-1.5-0.5l-1.7,0l-1-1.1l-0.8-3.3l0.2-3.8l-0.8-1.7l-1.7-2.1l-1.5-3l-0.7-2.5l-0.2-2.4
	l0.1-2l1.4-1.9l-0.3-1l-0.8-1.9l-0.4-0.6l-0.8-0.5l-3.4-1.6l-1.6-0.4l-1.6-0.3l-0.8,0.1l-0.8-0.2l-2.2-2.5l-0.3-0.7l-0.3-0.8
	l0.2-1.4l-0.1-1l-0.2-1.2l-0.5-0.8l-0.6,0l-1,0.5l-0.9,0.1l-0.9-0.1l-0.4-0.2l-1.3-2.7l-1.4-1l-3.2-0.4l-0.7,0.1l-1.7,0.9l-2.8-0.5
	l-0.6-0.3l2.3-1.8l0.6-0.8l0.1-0.9l0.8-1.5l0.1-2.2l0.4-0.6l0.5-1.5l0.2-1.8l1.3-3.1l0.6-1.7l0.2-1.2l1.2-2.8l0-0.9l-0.3-1l0-0.8
	l0.4-0.6l0.1-0.7l-0.4-2.2l0.1-1l0.5-0.9l1.6-0.9l0.4-0.5l0-1.1l1.3-2.7l0.2-2l-0.4-1.8l-0.7-1.6l-0.9-0.6l-0.6-0.2l-0.7-0.5
	l-0.2-0.1l-0.1-0.9l-0.7-1.8l0-0.2l0.4-0.2l1-1l0.9-1.3l1.8-2.1l0.5-0.3l0.7-0.1l1.9,0.2l0.5-0.3l0.5-1l0.6-0.5l1-2.7l0.7-0.5
	l0.9-0.3l0-0.5l-0.6-0.3l-0.7-0.9l-0.1-1l-0.5-0.5l0-1.4l-0.2-0.4l-0.6-0.3l-0.3-0.7l-0.4-0.4l-0.1-1.6l-0.6-0.5l-1.5-0.7l-0.7-0.2
	l-1.8,0.3l-0.2-0.7l0.3-5.1l-1.2,0.1l-0.4-0.2l-1.3-3.7l0.4-1.2l0.4-0.6l0.2-0.7l0-1l0.7-1.4l0.1-0.9l0-0.8l-0.3-0.8l0.1-0.9
	l0.1-0.8l0.4-0.5l0.7-0.5l4-1.4L36,192l2.6-0.7l1.3-0.2l3-1.2l0.8-0.1l1.7-0.5l1.7-0.1l2.2,0.3l1.7,0.1l1.1-0.1l0.7,0.4l3.6,1.4
	l3.2,0.4L61,192l6.8-0.6l2.7,0.1l1.3,0.2l1.8-0.2l2,1l1,0.7l2.2,0.5l2.1-0.8l2.7-0.4l5-2.6l1-0.7l1-0.5l0.7-0.1l1.5,0.2l1.1-0.5
	l1.7-0.4l2.1-0.3l1-0.4l1.5-0.3l1.6,0.9l-0.1,0.7l-0.4,0.6l-2.6,6.6l-0.2,2.2l0,3.1l0.2,4.2l0.4,3l-0.4,4.9l-0.3,1.1l-0.5,0.9
	l-0.7,0.8l-1.4,1l-1.7,1.6l-0.5,0.6l-0.7,1.7l-0.5,1.6l0.1,1.9l0.3,0.7l2.1,3.7l0.5,1.8l-0.1,0.9l-0.5,1.3l-1.4,1.8l-0.2,0.5
	l0.1,1.6l2.6,3.5l1.5,2.9l1.1,1.6l3,5.7l1.1,2.8l1.4,2l2,1.8l1.2,1.2l2.2,2.8l0.8,0.7l1.9,1.3l1.2,0.5l1.2,0.7l1.7,0.7l0.3,1.6
	l0.5,0.4l0.4,1.4l-0.1,2.2l0.3,0.5l1.6,1.9l0.3,0.6l-0.1,0.6l-0.2,0.5l-0.7,0.3l-1.9-0.5l-1.7-1.4l-0.9,2.7l-0.5,0.9l-0.4,0
	l-0.6-0.9l-0.5-0.4l-0.5,0l-1.4,1.3l-1.5,1l-0.1-0.5l-0.4-0.4l-0.9,0l-0.5,0.7l-2,0.3l-0.5,0.9l-0.7,0.9l-0.9,0.4l-1.2,1.1l-0.8,0.4
	l-0.1,2.4l-0.6,3.3l-0.3,0.5l-2.1,1.4l-0.4,1.4l-1.5,3.7l-1.2,1.3l0.5,1.5l1.5,2.2l3,3.3l2.1,2.6l0.9,1.5l1.4,2.3l2.4,3.8l1.3,1.8
	l1.2,1.4l2.2,2.5l3.5,2.3l1.6,2l0.8,1.7l0.7,2.3l0.4,3.4l0.2,8.4l0.6,5.8l0.4,1.6L120.5,348z"/>
<path id="D349" class="st0" d="M468.2,313.4l-2-3.8l-0.8,0.2l-0.8,0.5l-0.9-0.1l-0.6-0.3l-2.1-2.2l-0.6-0.3l-2.9-0.6l-1.4,0.3
	l-1.2-0.6l-1.1-0.1l-1.8,0.7l-0.8,0l-1.2,0.5l-1.2,0.9l-0.7,0.1l-1.3,0.6l-2.2-0.3l-0.4,1.1l-0.7,2.5l0.3,1.3l-0.5,0.4l-0.1,1.1
	l-6.6-2.3l-6.9-0.3l-3.6,1.5l-2,1l-0.3-0.3l-1.2,0l-0.5,1l-1.2,1.7l-0.3,1.3l-0.5-0.1l-0.3-0.3l-0.6-0.9l-0.3-0.2l-0.1-1.1l-0.4-1.1
	l-0.3-0.5l-0.4-0.6l-0.7-0.2l-0.4-0.6l-0.2-0.7l0.1-1.8l-0.3-0.6l-0.9,1.5l-1,0.9l-0.3-0.2l-0.4-1.4l-0.3-2.3l-0.5-1.2l-2-0.4
	l-0.1-1.6l0.2-0.4l1.2-0.2l0.9,0.2l0.6-1.5l0.1-1.4l-1.1-1.8l-0.8,0.1l-0.2-0.7l-0.7-0.1l-0.3-0.6l-1.1-0.6l-0.6-0.1l-0.6-0.7
	l-0.3-2.4l-0.1-1.8l-0.6-1l-0.6-0.5l-0.6-0.2l0.1-1.1l1.1-1.2l0-0.5l-1.6-0.1l-0.3-0.8l-0.3,0.1l-0.4-0.1l-0.2-0.8l0.1-0.8l-0.5-0.8
	l-0.3,0.2l-0.4-0.3l0.3-0.7l-0.3-0.4l-0.7,0.5l-0.5,0.1l-1-0.6l0-0.6l-0.6-0.4l-0.3-0.4l0.5-0.8l-0.4-0.4l-0.7,0.6l-0.3,0l-0.6-0.4
	l-0.1-0.7l-0.5-0.6l-0.9-0.7l-0.7-0.3l-0.4,0.2l-1.2,1.4l-0.6,0l-1.2-0.4l-0.4-0.4l0.6-1.8l-1.1-0.4l-1.9-1l-1.9-1.3l0.8-2.1
	l-1.1-0.4l-0.6,0.7l-0.6,0.4l-1.4-0.5l-1.1,0l-0.7,0.6l-0.4,0.5l-0.4-0.1l-0.6-0.6l-1.3,0l-0.4-0.3l-1.1-0.1l0.3-1.9l0-1l0.4-0.9
	l-0.7-1.3l-0.9-1.1l-2-2l-1.5-0.8l-1.3-1.4l0.5-1.1l0.2-1.2l0.1-1.2l0.5-1.9l5.1-2.1l2.1-0.6l0.7-0.5l0.3-0.9l0-0.7l1.1,0l0.6-0.3
	l0.9-0.1l1.4-0.6l1.1-1.3l1.2,0.6l1.6-0.5l1.5-0.9l0.8-1.9l0.4-0.4l1,1.1l0.6,0.5l1,1.3l0.3-0.5l1.3-0.8l1.2,0.1l1.3-0.2l0.3,0.2
	l0.6,0.8l0.5,0.3l0.5-0.4l-0.7-1l0.1-1.1l0.3-1.1l0-1.3l-0.8-2.7l-0.3-0.6l-0.6-0.2l-0.8,0l-0.7-0.2l-0.2-0.9l2.7-2.7l0.9-1.2
	l0.1-0.7l0-0.1l0.4-1l1.5-0.5l0-1l0.2-1l-0.5-1.5l0.1-1l-0.4-0.3l0-0.6l0.2-0.7l0-1l-0.3-1l-0.4,0.1l-0.6-0.2l-0.7,0.1l-0.6-0.1
	l-0.2-1.1l-0.9-1.3l0-1.1l0.4-1l0.1-0.8l0.6-1.3l-0.3-1l0.2-1l-0.5-0.7l0.5-2L401,216l0.3-1.2l-0.4-1.3l0-0.8l0.6-1.8l-1.8-1.6
	l-0.5-0.3l-0.2-0.5l-0.7-3l0-0.7l1.1-1.1l0.7-0.9l0.8-0.7l0.4-0.7l0.4-0.4l1.4-4.3l0.6-2.7l-0.4-2l0.6-2.8l-0.2-0.6l-2-2l-2-1.6
	l-0.6-0.3l-1.6-0.3l-1.3,0l-0.7-0.2l-0.3-0.3l-0.3-1l-0.5-0.2l0.3-1.2l-0.2-0.9l0.2-1.4l-0.7-0.8l-1.1-2.4v-1.4l0.3-1l0.7-1l0.3-0.8
	l-2.1,1l-0.6-0.2l-1.4-0.9l-0.9-0.1l-0.6-0.5l-0.4-2l0.2-0.7l1.3-1.9l0.7-1.7l0.8-0.9l0.1-1.5l0.6-1.3l0.8-0.9l0.8-0.7l1.3-0.1
	l2.8,1.3l0.9-0.5l1.1-0.1l0.2-0.5l-0.7-1.5l0-1l-0.5-0.2l-0.1-1.5l-0.5-1.1l-0.1-1.6l-0.3-1l-0.9-0.9l-0.2-1.3l0.4-1.5l1.2-1.1
	l1.3-0.5l1.3-0.3l1.1,0.1l0.5-0.9l0.7,0.2l0.4,0.7l1.7-0.3l1.2,0.3l1.3,0.5l0.2-0.6l0-0.5l-0.8-1.4l0.1-1.2l1-0.1l0.5,0.1l0.2-0.3
	l0-0.2l1.5-1l0.9,1.5l1.6,1.8l1,0.8l2.3,1.2l1.2,0.5l1.6,0.1l0.8-0.1l0.6-0.3l0.4-0.5l0.5-2l0.2-0.3l3.4-0.8l0.9-2.9l0.5-0.5
	l0.7-0.2l0.9,0.3l0.5-0.3l0.8-0.2l0.6-0.5l0.4-0.7l0.7-0.1l0.6-0.1l0.7-0.2l0.4-0.3l0.3,1.3l0,1.1l0,1.2l-0.5,1.2l-0.7,0.8l-0.6,0.8
	l-0.8,0.1l0.1,0.7l0.3,0.5l0.6-0.5l1.9-0.5l0.8-0.3l0.4-0.8l3.5,1.1l2.9,2.1l0.6,0.8l0.2,1.7l0.8,1l0.4,1.5l0.9,1.3l0.7,3.1l0.4,1.9
	l0.2,1l-0.5,0.8l-0.6,0.1l0.4,1l-0.3,2.4l-0.5,1.3l-0.7,1.2l0.5,2.4l0,1.2l0.2,0.9l0.4,1.6l0.8,0.6l0.4,1.1l1.7,0.1l1.2,0.7l0.7,2.1
	l1.3,1.1l4.4-0.3l3.1-1.2l0.1-2.4l0.1-1.8l2,1.9l1.3,1.1l0.6,0.9l0.9,1.4l1.4,0.4l0.6,1.3l0.4,0.2l0.3-1.2l0.5,0.8l0.6,0.4l0.5,0.3
	l-0.1-1l-0.4-0.7l1-0.3l1.2,0l0.6-0.4l1.4,0.6l1.3,0.3l0.3-0.9l1.6,0.4l0,0.7l-0.6,0.3l0.1,0.9l-1.3,1.3l-0.4,0.5l0.3,0.5l-0.9,1
	l0.9,2.2l-0.3,1.3l-1,1.8l0.3,0.9l0.6,0.3l0.5,2.5l0.3,1.1l-0.4,0.4l-0.9,1.6l-0.3,1l-0.5,0.9l-0.1,1.3l-0.6,1.2l-1.3-0.1l-0.6,1.3
	l-0.4,1.7l3.3,1.1l-0.3,0.5l0.1,1.1l0.6,0.8l1.8,0.2l0.6,0.8l2,0l2.3-0.1l0.4-0.6l0.4,0.3l1.4,3.1l0.8,0.5l0.8,1.7l1.2,0.7l2.6,2.4
	l0.4,0.8l2.2,3.4l1.4,0.2l0.8,0.4l0.5-0.1l1.8,1.7l0.9,0l0.1,0.3l0.2,0.7l-0.2,1l0.2,0.9l0.6,0.3l0.9,0.3l0.1,0.3l-0.1,0.8l-0.4,0.8
	l-0.3,0.5l-0.4,0.7l0.2,0.9l0.9,0.3l0.4,0.3l0.4,0.4l-0.1,1.5l-0.1,1.5l0.4,0.6l0.2,0.8l0.1,1l0.4,0.8l0.8,0.3l0.2,1.4l0.3,0.6
	l0.7,0.5l0.9,0.2l0.8,0.2l0.4,1.4l0.2,1.1l0.3,1.1l0.1,1.1l-0.1,2l0.4,1.1l0.2,1l-0.7,0.8l0.2,1l0.7,1.3l-0.7,1.5l-0.2,1.9l-0.6,0.8
	l-0.5,0.8l0.2,1.4l-0.1,1.7l-0.8,1.7l-0.7,2.4l-1,2.2l1.4,0.3l0.9,0.2l0.8,0.3h0.9l0.8-0.3l0.7-0.8l0.4-0.6l0.6,0.3l1.7,0.5l0.8,0.3
	l0.9-0.6l1.7,1.3l1.5,1.5l-0.8,0.1l-0.4,0.9l-0.1,1.6l-0.5,0.7l-0.5,2.4l-0.4,1.9l-0.4,0.6l-0.6,0.6l-0.6,2.3l-0.1,1.7l-0.5,0.9
	l-0.8,0.7l-0.5,1.2l-0.4,1.3l-1.8,0.7l-0.8,0.3l-1.3,0.4l-1.2,1.1l-0.9-0.2l-0.6,0.3l-0.8,0l-0.5,2l0.1,1.7l0.9-0.7l0,1.2l-0.8,0.3
	l-1,0.4l-0.6,0.5l-1-0.3l-1-0.6l-1-1l-0.8-0.6l-0.8-0.2l-1,0.2l-1,0.2l-0.6-0.1l-1.4-1l-1.3-0.6l-1.1-0.5l-0.8-1.5l-0.4-1.3
	l-0.5-0.9l-0.8-0.1l-0.7,0.2l-0.7,1l-0.7,0.6l-1.2-0.1l-1-0.5l-0.7-0.3L476,285l-1.1,0.4l0.2,0.5l-0.4,0.6l0.1,0.8l-0.2,0.2
	l-0.7,0.2l-1.2,0.6l-0.1,0.4l0.3,0.3l0.5,0.3l0.4,0.6l0.5,0.3l0.7,0.1l0.7,0.2l0.1,0.6l0,0.5l-0.3,0.5l-0.7,0.1l-0.6,0.3l-0.6,0.6
	l-0.3,0.5l-0.5,0.9l-1.2,1.8l-1.6,1.5l-0.3,1.3l0.3,1.3l-0.3,0.7l-0.3,1.5l-1.6,4.2L468.2,313.4z"/>
<path id="D351" class="st0" d="M653.1,134.6l-1.6,1.4l-0.6,0.5l0.3,0.5l-0.5,0.4l-0.5-0.1l-0.5-0.2l-0.4-0.4l-0.3-0.1l-0.3,0l-0.4,0
	l-0.7-0.2l-0.9-0.2l-0.7-0.6l-0.5,0.1l-0.4,1l-0.4,1.4l-0.5,1l-0.7,1.1l-0.8,1.1l-0.7,0.8l-0.2,1l0.1,0.7l0.4,0.3l0.6,0.1l0.6,1
	l0.8,1.3l0.5,0.8l0.4,0.6l-0.4,0.8l0,0.6l0.9,0.2l0.2,0.8l0.1,1l0,1l0.1,0.9l0.6,1.3l0.3,1.3l0.2,1.4l-0.5,1.2l0.3,1.5l0.2,1.2
	l0.1,1.7l-0.2,1.5l-0.4,0.8l-0.5,0.9l-0.8,1l-0.9,0.7l-0.6,0.9l-0.3,0.8l0,1l0.1,0.6l0.4,0.4l1.3,0l0.3,1.2l0.4,1.7l-1.3,1.2l0,1
	l0,1.1l0.6,0.6l0.6,0.4l0.6,0.6l-0.1,0.7l-0.4,1l-0.5,0.3l-0.6,0.3l-0.9,0.6l-0.9,0.1l-0.9-0.4l-0.3,1.2l-0.7,0.1l-1,0.3l-0.6,0.4
	l-0.2,0.6l-0.3,0.8l-0.5,0.6l-0.8-0.1l-0.3,0.4l-0.1,0.8l-0.1,0.7l-0.3,0l-0.2-0.8l-0.4-0.6l-0.5-0.5l-0.7-0.1l-0.5,0.3l0.1,0.7
	l-0.1,1.4l-0.3,1.3l-0.1,1l0.1,1l0.5,0.9l0.6,0.7l1.2,1l-0.1,0.9l-0.7,0l-0.8-0.1l-1-0.1l-1.1-0.4l-0.5-0.7l-0.1-1.1l-0.4-1
	l-0.5-0.9l-0.7-1.1l-0.7-1.5l-0.6-1l-0.4-0.7l-0.6-0.6l-0.5-1l-0.5-1.1l-0.5-0.8l-0.3,0l-0.6-0.6l-0.4-0.6l-0.2-0.7l0.1-0.9l0-0.6
	l-0.2-0.4l-0.4-0.4l-0.5-0.4l-0.7-0.6l-0.6-0.6l-0.2-0.7l-0.2-0.9l-0.7,0.1l-1-0.3l-0.8,0.3l-0.9-0.4l-0.6-0.5l-0.5-0.4l-0.5-0.3
	l-0.5,0.1l-0.5,0.6l-0.6,1l-0.8,0.6l-0.9,0.3l-0.8,0.3l-0.8,0.5l-0.8-0.3l-1-0.3l-0.7-0.3l-1-0.4l-0.4,0.4l-0.6,0.5l-0.7-0.2
	l-0.4-0.6l-0.4-0.3l-0.4-0.1l-0.8-0.6l-0.8-0.9l-0.7-0.7l-0.6-0.5l-0.9,0.2l-0.5-0.4l-0.5-0.8l-0.6-0.7l-0.9,0.1l-0.7,0.2l-0.8-0.1
	l-0.8-0.5l-0.8-0.6l-0.8-0.7l-0.6-0.8l-0.6-0.5l-0.6,0.1l-0.7,0l-0.6-0.2l-1.1-0.1l-0.6-0.2l-0.9-0.4l-0.7-0.5l-0.9-0.6l-0.6,0.1
	l-0.9,0.1l-0.7-0.5l-1-0.6l-0.9-0.1l-0.7,0.6l-0.5,1.1l-0.3,1.4l-0.8,0.4l0.2-1.4l0.5-1.2l0.2-1.3l0.1-1.2l0.2-1.3l0.4-1l0.1-0.9
	l-0.1-1.1l0.6-0.3l0.2-1l0.2-0.9l0.4-0.7l0.5-0.7l0.4-0.6l0.2-0.7l0-0.9l0.1-0.9l0-0.9l0.2-0.7l0.2-0.3l0.4-0.4l0.2-0.8l0.4-0.6
	l0.2-0.5l0.1-0.5l-0.1-0.5l0-0.7l0-0.7l-0.1-0.2l-0.3,0.2l-0.2,0.1l-0.2-0.2l0-0.3l0.1-0.4l-0.4-0.1l-0.1-0.5l0.1-0.3l0.3-0.2
	l0.5-0.2l0.3-0.4l-0.1-0.5l0-0.2l0.3-0.4l0.3-0.4l0.2-0.5l-0.2-0.6l-0.2-0.6l-0.1-0.7v-1l0-1.3l0.4-0.7l0.4-0.6l0.5-0.6l0.2-0.8
	l0.4-1.1l0.2-0.8l0-0.5l-0.4-0.1l-0.5,0.4l-0.3-0.3l-0.4-0.4l-0.4-0.1l-0.3-0.2l-0.1-0.4l-0.5,0.2l0-0.7l0.1-0.5l0-0.8l0.2-0.8
	l0.3-0.4l0.6,0.2l0.5,0l0.5-0.1l0.6-0.5l0.4-0.7l0.3-1l0.4-0.9l0.3-1.1l0.2-0.6l0.5-0.7l0.8-1l0.7,0.3l0.6,0.2l0.6-0.3l0.4-0.6
	l0.4-0.4l0.9,0.1l0.9,0l1,0.2l0.1-0.9l-0.7,0.1l0.1-1.1l0.3-0.9l0.7-0.8l0.3-0.9l0.2-1l0-0.8l-0.2-1.3l-0.4-0.8l-0.6-0.6l-0.2-0.4
	l-0.2-0.6l-0.2-0.9l0.2-1l0.3-0.7l0.5-0.6l0.3-0.5l0.1-1l-0.5-1l-0.5-1.1l0-1.5l0.3-1.3l0.3-1.5l-0.1-1.1l0-1.2l0.1-1.8l0.1-1.6
	l-1.1-1.8l-0.1-0.7l-0.2-0.6l-0.1-0.9l0-1.5l0.4-1.3l0.3-0.4l0.5-0.1l0.9-0.9l1-2.4l0-0.6l0.5-0.6l0.7-1.5l0.1-0.3l0.4-1.2l1.2-0.6
	l0.5,0l1.5-1.3l0.4-1.2l1.3-0.8l0.4-0.4l0.1-0.9l0.6-0.1l0.4,0.3l1.4,0.2l1,0.4l0.9-2.8l0.2-0.3l0.6,0.3l0.6-1.3l0.2-0.1l1.2,0.3
	l0.7,0.8l0.2,0.6l0.9,0.8L618,75l1.6,0.3l0.8,0.3l0.6-2.1l-0.4-1l0.3-1.5l0-0.4l-0.2-0.1l0.7-4.1l0.3,0l0.5-0.7l-0.2-0.5l0.2-0.5
	l-0.3-0.1l0.1-0.3l0.9-1l0.3-0.7l0.1-1.4l0.6-0.5l0.1-0.5l-0.1-0.5l-0.2-0.4l-0.4-0.1l0.8-3.3l0.2-0.5l-0.2-0.9l0-0.8l0.4-0.9
	l0.8-4.4l1.1,0.2l0,1l2.6,0.8l1.1,0l0.4,0.4l1.6,0.9l0.2,0.4l0.6-2.7l0.5-0.8l0.9-0.2L635,48l0.8-0.4l0.7,0.4l0.8,0.9l0.8,0.5
	l0.3,0.8l1.1,0l5.8,3.5l0.4-0.1l0.6,0.5l0.7-0.1l0.1,0.5l0.7-0.3l0.8,4.1l1.7,4.5l0.8,3.2l-3.6,6.3l0.5,1.1l1.1,0.5l0.9,0.9l0.4,1.7
	l0.5,0.6l0.6,1.5l1.4,1.9l1.2,0.8l0.5,0.8l-0.6,0.1l-0.7,0.6l-0.7-0.1l-0.1-0.2l-0.4,0.8l0.6,2.4l-0.8,2.6L651,90l-0.9,0.7l-0.5,0.1
	l-0.9,0.7l-1.2,2.2l-1,1.4l-0.3,0.8l0.3,0.6l0.6,0.4l0.6,0.6l0.1,0.9l0,1.1l-0.1,0.9l-0.4-0.1l-0.2,1.3l-0.2,1.5l-0.9,0.3l0.1,1.1
	l-0.6,0.9l0,1.1l-0.5,0.9l0,1l0,1l0.1,1.3l0.7-0.1l0.8,0.2l-0.1,1l-0.1,0.9l-0.3,0.9l-0.5,0.8l-0.6,0.5l-0.8,0.4l0.3,1.1l0.5,0.8
	l0.7,0.9l0.6,0.7l0,0.7l-1.3,0.5l0.1,1.9l0.8-0.2l0.6,0.9l0.8-0.4l0.5,0l0.2,0.5l-0.7,0.2l-0.3,0.5l0.7-0.1l-0.1,0.9l0.5,0.6l0,0.5
	l-0.2,1.4l0.2,1.2l0.6,0.8l0.1,0.9l0.4,1l0.7,0.7l0.5,1l0.5,0.9l0.9,0.7L653.1,134.6z"/>
<path id="D366" class="st0" d="M264,497l0.1,1.4l-0.6,1l0,2.2l0.2,2.1l0.4,1.8l0.8,0.5l1.8-0.7l1.3-0.2l1.9,0.6l0.9,0.7l0.7,1.3
	l0.8,0.8l0.6,1.1l0.7-0.4l0.7-0.1l0.1,0.8l-0.4,2l0.3,0.5l0.2,0.6l-0.1,0.9l-0.6,2.1l-0.3,0.3l0-1.3l-1.2-1l-0.8-0.3l-0.8,0.5
	l-0.5,1.2l-0.8,3.8l1,0.1l0.3,0.2l0,1.8l-0.4,3.6l0.7,2.3l1.3,3.3l0.2,0.4l-0.1,1.5l0.5,0.7l0.4,2.4l0,1.4l-0.1,1.3l-0.5,0.3
	l-0.4-0.1l-2.4,0.6l-0.9,2.9l-1.6,0.6l-0.7,0.7l-0.9,0.7l-0.9-0.1l-0.8-0.5l-2.1-2.6l-0.7,0.5l-0.8,1.3l-0.5,2.9l-1.1,1.4l-1.1,0.2
	l-0.6,0.5l-0.1,1l-0.5,0.7l-1,0.8l-1.1,0.5l-0.9-0.6l-0.4-1.6l-0.8-0.5l-0.9-0.4l-0.4-1.3l-1-0.7l-1-0.5l-0.5,0.6l-0.1,1.4l0.2,1.6
	l0.9,2.1l1.1,2l0,1.7l-0.3,0.7l-0.9-0.3l-1.5-1.2l-0.8-0.9l-0.1-0.9l-0.5-1.1l-1-1.1l-0.7,0.3l-0.6,1.2l0.2,1.7l0.5,2.3l0,1.3
	l-0.8,0.9l-1.4-0.5l-0.8-0.1l-0.5-1.2l-0.6-0.1l-0.6-0.8l0-1.7l0.8-4.8l-0.1-3.5l-0.7,0.1l-0.3,0.6l-0.3,1.9l-1.1-0.9l-0.2-3.7
	l0.7-2l-1.5,0.2l-1-0.1l-1.2-0.5l-3-1.6l-0.8-0.1l-0.6,0.8l-0.5,1.4l-1,0.8l0,0.9l0.6-0.1l0,0.6l0.6,1.1l0.3,0.2l-0.6,1.7l-2.2-0.3
	l-1.2,0.7l-0.4,1l-0.1,1.2l0.1,0.7l-0.5,1.3l-2.6,1.2l-1.3-0.4l-0.2,0.7l-0.6,1.1l-0.9,0.1l-0.9-0.9l-0.5-1.3l-0.7,1.3l-1.4,0.5
	l-2.2-0.2l-2.3,0.3l-0.3,0.9l0.1,0.7l-1.9,2l-0.9-0.2l-1.1-1.6l-0.9-0.9l-0.6-0.3l-1.6-0.3l0.4-0.7l0.3-1.4l0.7-1.1l-0.9-0.5
	l-1.3-2.3l-0.8-0.9l-0.7,0l-0.5,0.4l-0.1,2.2l-0.3,1l-1,0.4l-0.1,0.8l-0.7-0.6l-0.7-1.2l-0.6-1.4l0.6-1l0.9-0.2l0.9-0.9l0.8,0
	l1.7-0.3l0.6-0.7l0.5-1.5l-0.3-2l-0.8-0.8l-2.7,0.1l-0.7-0.7l-3.7-0.1l0.2-5.2l-4.5-2.3l-1.5-0.2l-1.2-0.4l-0.8,0.3l-0.1,0.5l0,3.8
	l-0.8,0.9l-0.8,0.3l-1.7-0.6l0.7,2.1l0,1.5l-1.8,2.7l-0.5,2.8l-0.3,0.4l-0.6-0.1l-0.9-1l-0.6-1.1l-1.1,0.1l-0.7,0.2l0.3,1l-0.4,0.6
	l-1.2,0.4l-0.7,0.8l-0.4,1l-0.8-0.3l-2.4-1.3l-0.3,0.3l0.7,1.8l-0.6,0.8l-1.7,0l-0.9-1.8l-1-1.5l-0.7-0.3l-1-0.1l-3.2-1.6l-0.1-1.2
	l0.5-2.1l0.9-1.3l0.8-0.3l0.2-0.7l1-0.1l0.3-0.9l0.1-1.4l0.8-1.4l0.4-3.8l-0.3,0.2l0-1.7l0.3-1.1l1.4-2l0.8-0.1l0.5,0.2l0.6,0
	l0.9-0.8l1.5,0.5l1.8-0.8l0-0.9l0.2-0.7l0.7-0.3l0.1-0.5l-0.2-1.1l0.4-1.3l0-1.1l-0.2-0.9l-0.6-0.1l-0.3-0.6l0.8-1.5l1.5-1.5
	l0.5-1.4l-0.1-3l-0.4-0.7l-0.7-0.7l-0.4-0.6l-0.2-0.6l0-2l-0.2-0.9l-0.5-1.2l-0.4-0.6l-1.4,0.1l-2-0.3l-0.7,0.4l-1.8-1.1l-1,0
	l-1,0.6l-0.6,0.9l-1.2,1l-2.6,1.2l-1.6,0.1l-1-2l-0.5-1.6l0.3-1l0-0.9l-0.5,0.2l-0.9,1.6l-1.1,1.3l-0.6,0.5l-1.4-0.3l-0.6-1.5
	l-1.6,0.1l-1.5,0.7l-0.3-0.2l-0.4-1.8l-1.7-2.5l-0.6-1.1l0.5-2.2l-0.3-0.8l-1.3-1l-1.6,0.2l-0.4,0.4l-0.2,1.7l-0.4,1l0.2,1.4
	l-0.1,0.3l-0.7,0.8l0.3,2l0.1,1.6l-0.5,1.2l-2,1.3l-1,0.1l-0.7-2.3l0.2-1.5l-0.1-1.1l-0.9-2.1l-0.2-1.6l-0.9-2.4l-0.8-1.6l-0.3-1
	l-0.1-1.2l0-1.7l0.2-1.7l0.2-0.7l0.7-1.3l0.1-0.8l-0.1-2l-0.2-0.8l-0.4-0.7l-1.6-0.2l-0.6-0.2l-0.3-1l-0.8-1.4l-1.1-1.1l-1.4-0.9
	l-1.7-0.1l-1.5,0.6l-0.8-0.6l-0.4-0.5l-0.5-1.6l-0.4-0.8l-1.2-1.2l-0.8-0.3l-0.6-0.6l-0.3-0.7l0-0.9l-0.5-1.3l-0.2-0.9l0.3-1.5
	l0.4-1.4l0.8-2.2l0.7-1.2l1-1l0.8-1.4l0.3-1.5l0-0.9l-0.7-1l-0.2-0.7l0-1l0.3-2.6l-0.5-1.4l0.1-1.1l1.2-5.6v-1.7l0.2-0.8l0.5-0.7
	l0.1-0.5l-0.7-2.4l0.1-0.8l1.6-4.4l3.1,0.4l0.7-1.6l1.1-0.6l1-0.4l0.2-0.4l0.2-1.2l1.5,1.1l0.6-0.1l0.7,1.1l0.6,0.4l3.9,1.4l4.1,1.2
	l0.4-0.1l0.8-2.1l0.6-0.3l3.2-0.6l0.5-0.5l2.1-1.2l0.4-0.9l0.9-3.2l1.3-1.8l-0.2-1.1l-0.9-3.7l-0.1-1.1l0.1-0.9l0.3-0.8l0.1-1.2
	l-0.3-1.2l-0.8-2.4l0.1-1.1l0.4-1.2l1.2-1.3l1.5-0.8l1.2-1l0-0.6l1.1-1.3l0.6-2.9l0.3-0.5l0.4,0.1l1.8,1.7l1.8,0.2l0-1.6l0.1-0.2
	l1.4-0.4l0.1-1l-0.1-2.2l-0.2-1.4l0.5-2.2l-0.3-2l-0.1-2.6l-0.1-1.3L169,382l-0.1-0.9l2.4-0.8l0.9-0.5l0.5-0.6l-0.4-2.2l0.6-0.2
	l0.9-0.9l0.8-0.4l0.4-0.4l2.6,0.8l0.9-0.5l1.7,0.9l0.9-0.2l1.3,0.8l5.3,2.3l0.5-1l0.6,0.1l0.3-0.4l0.3-0.1l0.1,0.5l-0.3,1.6l1.7,0.5
	l0.8,0.7l0.4,0.6l-0.1,1.2l-1.2,6.2l-0.1,1l0.1,0.8l1,1.9l0.2,1.3l-0.2,1.9l0.1,1.4l0.8,2.1l-0.1,0.5l-0.9,1.5l-0.7,2.1l-0.4,0.6
	l-0.6,0.4l-0.8,0.9l-0.6,0.5l-0.9,2.3l-2.2,2.5l-0.4,0.6l-0.2,0.6l1.5,2.4l1.5,1.9l0.5,0.3l0.7,0.1l1.8-1l1.8,0.9l0.8,1.8l-0.6,0.6
	l-0.6,1l0,2.6l-0.1,0.9l0.4,1l0.6,1l1.1,0.8l0.9,0.5l1.1,0.3l0.2-0.5l0-2.5l0.2-0.9l0.4-0.8l1.2-1.7l1,0.4l0.3,0.7l-0.2,1.7l0.9,0.8
	l1.9,3.5l1,0.6l1.2-0.2l0.7-0.3l0.7,0l0.7,0.3l1,0.9l0.8,2l1.7,2.1l1,0.5l1.8,0.6l1.1-0.9l0.5,0.4l0.6,1l0.9,1.1l1.1,0.3l1.4-0.2
	l1-0.8l1.2,0.5l0.8-1.3l1-0.1l0.5-0.8l0.5,0l0.5,0.5l0.6,0l0.5,0.9l0.7,0.7l0.9,0l1.1-0.2l0.9-0.3l0.7-1.8l3-2.2l1.5,0.1l0.7,1.5
	l0.6,0.5l2.6,0.4l1.4,0l1-0.3l0.2,0.8l0.6,0.5l0.1,0.5l-0.6,3.2l-0.3,2.7l0.1,0.4l0.2,0.3l0.5,0l1.9-0.3l1.3-0.4l0.2-0.5l0.3-1.4
	l0.2-0.3l0.5-0.2l1.1-0.1l1.6-0.4l0.6-0.7l0.4-0.8l0.1-1.1l0.4-0.6l0.5-0.5l1.9,0l0.7,0.4l0.8,0.7l1.4-1l1-0.2l1.1-0.6l1.1-0.9
	l0.9-0.5l0.9,1.3l0.5,0.1l0.9,1.9l-0.1,0.4l-0.4,0.6l-1.7,1.8l-1.5,2.4L257,442l-0.2,2.3l0.1,1.1l0.3,0.3l1.2,0.4l0.9,0.7l0.1,0.5
	l-0.5,0.5l0.2,1.3l1.5,0.9l1.2,0.4l1.3,1.1l0.8,0.2l0.9,0.6l0.1,0.6l-0.1,1.1l-0.8,1.9L263,456l-0.5,1.2l-2.5,1.4l-0.6,0l-0.3,0.2
	l0.1,0.6l0.4,0.4l1.2,0.6l-0.1,2l-0.6,1.7l-2.1-0.6l-1.1-0.2l-0.8,0.7l-0.3,1.3l-0.3,2.6l-0.7,2l0.2,1.3l0.5,0.8l-0.2,2l0.1,0.5
	l1.2,1.3l0.2,0.4l-0.7,2.1l-0.7-0.2l-2.9,0.4l-0.3,0.8l0.1,0.9l0.5,1l0.4,1.5l0.1,1.8l0.5,0.6l2.5,1.1l1,0.9l0.1,1.5l1.1,1.1
	l0.4,1.5l0.5,1.3l0.5,0.4l0.7-0.2l0.6,0.1l0.4-0.3l-0.1-1l0.3-0.1l0.3,0.3l0.4,0.7l0.8,0.9l0.1,0.4l-0.8,1.5l0.3,0.6l0.7,0.5
	L264,497z"/>
<path id="D360" class="st0" d="M285.4,218.8l1.3,0.3l0.5-0.5l0.5-1.9l0.4-0.6l1.6-1l0.9-2.1l0.6,0l0.3,0.1l0.9-0.6l3.2-1.3l1.1,0
	l0.4-1.2l1-0.7l0.8-0.4l-0.1-0.5l-0.4-0.3l-0.2-0.5l-0.2-1.1l-0.4-0.4l-0.4-1.6l-0.9-0.5l-0.4-0.4l-0.1-0.7l0.2-0.7l0.3-0.3l1.6-0.6
	l0.6,0l0.4,0.3l1-0.4l1-0.1l1.2,0l1.3,0.2l0.6-1.1l1.9,0.1l1.2,0.3l0.7-1.7l1-0.1l0.6-1.8l1.1-1.3l1.2-0.5l2.3-0.1l1.9,0.2l-0.1-0.5
	l0.2-0.8l-0.1-1.1l-0.3-1l-0.1-1.1l0.5-1.5l0.8-0.3l1.4,0l2.3,0.4l0.9,0.4l0.6-0.2l1.4-0.1l1-0.4l1.2,0l2.3-0.3l1.4,0l1.9-0.6
	l0.1-0.5l0.8-0.4l1-0.8l1.2-0.7l0.5-0.1l0.7,0.1l2.5,1.6l0.9,0.2l1.3-0.7l4.5,5.7l2.1,2.8l2.5,4.9l1.3,3.8l0.4,6.2l1,7.5l0.4,7v2.5
	l0.6,0.3l0.4-0.2l0.8-2.2l0.3-0.6l0.4-0.3l0.5,0.2l1.5,1.3l0.9,0.3l0.5-0.4l0.1-0.4l0-1.3l0.4-0.3l0.6,0.2l0.9,2.7l0.5,0.7l0.6,0.3
	l0.7-0.3l0.8-0.8l0.6-0.2l0.5,0.2l0.5,1.6l0.4,0.6l1.7,0.5l1,0l1-1.2l0.3,0.6l-0.4,1.5l0.1,0.9l-0.2,0.3l2.2,2.3l1.3,0.6l1.8-1.9
	l1.4-2.3l1.8-0.2h1.8l2.5,2.6l1.3,0.8h3l2.4-0.2h2l2.3,0.2l2.3,1.5l2.8,1.3l1.7,0.2l2.8,2.1l0.1,0.1l-0.1,0.7l-0.9,1.2l-2.7,2.7
	l0.2,0.9l0.7,0.2l0.8,0l0.6,0.2l0.3,0.6l0.8,2.7l0,1.3l-0.3,1.1l-0.1,1.1l0.7,1l-0.5,0.4l-0.5-0.3l-0.6-0.8l-0.3-0.2l-1.3,0.2
	l-1.2-0.1l-1.3,0.8l-0.3,0.5l-1-1.3l-0.6-0.5l-1-1.1l-0.4,0.4l-0.8,1.9l-1.5,0.9l-1.6,0.5l-1.2-0.6l-1.1,1.3l-1.4,0.6l-0.9,0.1
	l-0.6,0.3l-1.1,0l0,0.7l-0.3,0.9l-0.7,0.5l-2.1,0.6L375,259l-0.5,1.9l-0.1,1.2l-0.2,1.2l-0.5,1.1l1.3,1.4l1.5,0.8l2,2l0.9,1.1
	l0.7,1.3l-0.4,0.9l0,1l-0.3,1.9l1.1,0.1l0.4,0.3l1.3,0l0.6,0.6l0.4,0.1l0.4-0.5l0.7-0.6l1.1,0l1.4,0.5l0.6-0.4l0.6-0.7l1.1,0.4
	l-0.8,2.1l1.9,1.3l1.9,1l1.1,0.4l-0.6,1.8l0.4,0.4l1.2,0.4l0.6,0l1.2-1.4l0.4-0.2l0.7,0.3l0.9,0.7l0.5,0.6l0.1,0.7l0.6,0.4l0.3,0
	l0.7-0.6l0.4,0.4l-0.5,0.8l0.3,0.4l0.6,0.4l0,0.6l1,0.6l0.5-0.1l0.7-0.5l0.3,0.4l-0.3,0.7l0.4,0.3l0.3-0.2l0.5,0.8l-0.1,0.8l0.2,0.8
	l0.4,0.1l0.3-0.1l0.3,0.8l1.6,0.1l0,0.5l-1.1,1.2l-0.1,1.1l0.6,0.2l0.6,0.5l0.6,1l0.1,1.8l0.3,2.4l0.6,0.7l0.6,0.1l1.1,0.6l0.3,0.6
	l0.7,0.1l0.2,0.7l0.8-0.1l1.1,1.8l-0.1,1.4l-0.6,1.5l-0.9-0.2L411,305l-0.2,0.4l0.1,1.6l-1-0.7l-0.6-0.8l-0.4-0.2l-0.5,0.2l-0.6-0.4
	l-0.5,0.3l-0.4,0.8l-0.5,1.6l0.1,0.7l0.3,0.5l0.2,1l0,0.9l-0.3,1.2l-0.1,0.7l0.1,0.7l0.7,0.5l-0.1,1l0,1.1l-0.3,1.1l-0.7,0.9
	l-0.5,1.2l-1,1.7l-0.4,0.9l-0.2,0.8l-0.3,0.6l0.1,0.9l-0.2,0.7l-0.1,0.7l-0.4,0.8l-2.5,2l-0.6,0.7l-0.8,1.5l-0.7-0.5l-0.5,0.1
	l-2.1-0.4l0.2-1l-0.3-0.6l-1.2-1l0-2.1l0.3-0.6l-0.5-0.3l-0.2-0.5l0.1-0.5l-0.2-0.5l-0.4-0.4l-0.1-0.7l0.4-1.1l-0.3-0.4l-1.5-0.4
	l-0.5-0.6l-0.3-2.1l0-0.7l-1.1,0l-1-0.9l-0.7-1.1l0.3-2.7l-0.3-0.6l-2.2-0.4l-0.5-0.4l-0.4-0.7l-0.5,0.2l-0.3,0.6l0.3,0.7l-1.5,0.9
	l-1,1.4l-0.4,0.7l0,0.8l-0.2,0.8l-0.5-0.3l-0.1-1.2l-0.2-1l-0.9,0.1l-1.2-1.2l-2.4-4.6l-0.1-1l0.7-1.4l0.5-0.4l0.8,0.1l0.2-0.8
	l-0.3-0.4l-1.2-0.8l-1,0.2l-0.5-0.1l-0.4-0.5l-0.2,0.5l-0.2,1.3l-1.1,0.2l-0.1,0.2l0.6,0.6l0.3,0.7l-0.4,1.7l-0.8,0.5l-0.8,0.3
	l-1.8-0.2l-0.3,0.5l-0.6-0.3l-4.3,2.5l-4.5,2.8l-4.4,5.2l-3.7,5.9l-2.7,5.6l-2.4,5.3l-5.7,3.3l0.3,0.4l0.2,0.3l0.5,0.4l0.3,0.3
	l0.8,0.8l0.3,0.9l0.2,0.5l0.6,0.6l0.4,0.6l0.1,0.9l-0.1,0.5l-0.4,0.8l-0.4,0.8l-0.9,1.6l-0.4,0.7l-0.4,0.5l-0.5,0.7l0,0.3l-0.5,0.2
	l-0.3,0.8l-0.6,1l0.2,4.3l-0.2,1.9l-2.1,1.1l-4,1.7l-1.7-1.2l-2.8-1.1l-1.5-0.5l-2.6-1.5l-1.9-1l-2.5,0.4l-2.7,1.3l-1.9,0.8
	l-3.8-0.6l-2.4-1l-3.8-0.4l-1.2-0.1l-1-0.1l-3-1.5l-1.5-0.4l-1.2,3.6l-1,1.5l-0.2,1.2l-1.1,2.5l-1.2-1.6l-0.6,0.5l-3.8,0.8l-0.7,0.4
	l-0.6-0.1l-2,0.5l-1.2-0.7l-2.3-0.4l-1.1,0.2l0.2-0.8l-1.1-1.2L282,360l-0.9-1.1l-0.2-0.8l0.5-1l0.9,0.1l0.7-0.4l-0.2-1l0.1-0.8
	l-0.3-0.7l-1.6,0.5l-0.3-0.2l-0.3-0.7l0.2-1l0-1.2l-0.6-0.3l-0.1-1l-0.6-0.1l0-0.4l0.3-0.5l0.6-0.1l0.5,0.2l0.8,0.8l0.5-0.4
	l-0.3-1.1l-1.4-1.3l-0.6-0.7l0-1.4l-0.2-2l0-1L279,341l0.4-1l0.1-0.9l-0.1-1.2l-0.2-1l-0.3-0.7l0.1-2.1l-0.2-1.1l0.4-0.4l-0.1-1.6
	l0.1-1.1l0.8,0.2l0.9,0l0.2-0.9l-0.2-0.8l-0.8-1.3l-0.6-0.4l-0.4-0.5l-1.4-1.2l-1.1-1.4l-0.2-1.1l0.5-0.8l-0.2-0.3l0.6-1.5l-1.7-1.2
	l-0.2-0.8l0-1.1l-0.7-1.3l1.2-3.2l2.8,0.1l0.2-1.1l-0.6-0.4l-0.3-0.7l0.2-0.6l0.4-0.4l-0.7-1.9l0.7-1.1l0.7-0.9l1-0.9l0-0.9
	l-0.3-0.3l-1-0.3l-0.8-0.5l-1.1-0.1l0-1.2l-0.2-0.8l0.4-1.4l0.3-0.4l1-0.2l0.3-0.2l1.6-0.1l0.6,0.2l2.1,0.1l0.6,1l0,1.3l-0.9,2.1
	l1.6,0.4l1.1-2.2l0.9-1.1l1.3,0.1l0.4-0.3l1.4,1l0.3-0.5l0.8,0.2l1.3,0.9l0.7,0.9l-0.2,0.8l0.6,0.9l0.9,0.9l0.9-0.4l3,0.3l1.8,1
	l0.7,0.2l1.2-1l0.5-1.1l0.6-0.4l-0.1-1.2l0-1l0.5-1l0.7-0.8l0.4-0.9l0.3-1.9l1.3-1.1l0.1-1.5l0.6-2.5l2.2-0.7l0.8-0.3l0.3-0.3l0-0.6
	l-0.9-3.2l-0.1-1.4l0.3-2.4l-0.3-1.6l-0.5-0.9l-2.1-1.9l-1-0.4l-1.1-0.2l-1.4-0.8l-0.3-0.5l-1-0.7l-0.8-0.9l-1.1-0.6l-1.2-0.3
	l-0.4-0.3l-0.2-0.8l0.1-1.4l-0.6-0.3l0.4-0.5l-0.2-0.5l-0.5-0.1l0.3-0.5l0.4-0.2l0.2-0.5l-0.6-1.1l-1.3-1.9l-1.2-3.8l-0.5-0.3
	l-0.8,0.1l0.5-2.3l0-1.2l0.3-1.1l-0.3-1.4l-0.8-1.4l-0.2-1l0.8-1.1l-0.1-0.6l0.3-0.6l0.2-0.9l0.6-0.8l1.3-2.3l1,0.6l0.5,0.1l1.6-0.3
	l1.2,0.2l1.3,0l0.8,0.3l1.5,1.1l1.6-0.3l0.6,0.1l1.3-0.2l0.6,0.2l1.6,1.4l1.5-0.2l1.5,0l2.4,1.7l0.6,1.4l0.6-0.1l1,0.1l0.4-0.3
	l0.1-1.6l-0.2-1.4l-0.8-1l0.8-0.8l-0.4-1.9l0.3-0.7l0.9-0.7l0.9-1.3l0.5-1.6l-0.3-0.6l0.2-0.7l0.5-0.4l0.1-1.5l0.2-1.1l-0.1-3
	l0.9-0.4l0-1.1l-0.4-0.5L321,232l0.4-0.8l1.2,0.2l0.4,0.6l-0.1,0.6l0.5,0.4l0.6-0.4l1.2-1l0.2-0.7l-1.4-0.2l-1.2-0.9l-0.8-0.2
	l-2.3-2.1l-1.5-0.8l-1-0.9l-0.7,0l-0.7,0.6l-0.9,0.1l-1.7-0.5l-0.7,0l-0.7-0.4l-1.4-0.4l-1.7-0.4L308,225l-0.7-0.2l-0.5,0.5
	l-2.4,0.5l-0.8,0.4l-1,2.1l-0.7,0.1l-0.4-0.6l-0.7-0.2l-0.3-0.3l-0.1-0.7l-0.5-0.4l-1.7-0.1l-0.7-0.4L297,224l-0.5-0.1l-1.1-1.1
	l-1.2-0.2l-0.9,0l-0.4,0.2l0.4,1.6l-0.1,2.4l-1.1,1l-0.7-0.5l-1.4-0.3l-1.4,0l-0.6,0.3l-0.5,0.5l-0.6-1.9l-0.6-1.2l-1.3-1.7
	l-0.3-1.1l-0.1-1.2L285.4,218.8z"/>
<path id="D363" class="st0" d="M495.3,292.4l0.6-0.5l1-0.4l0.8-0.3l0-1.2l-0.9,0.7l-0.1-1.7l0.5-2l0.8,0l0.6-0.3l0.9,0.2l1.2-1.1
	l1.3-0.4l0.8-0.3l1.8-0.7l0.4-1.3l0.5-1.2l0.8-0.7l0.5-0.9l0.1-1.7l0.6-2.3l0.6-0.6l0.4-0.6l0.4-1.9l0.5-2.4l0.5-0.7l0.1-1.6
	l0.4-0.9l0.8-0.1l0.2-0.4l0.6,0l0.5,0.2l0.7,0.2l0.5-0.6l0.5-0.1l0.7,0.1l0.9,0.3l0.7,0l0.5-0.2l0.8,0.4l0.6,0.4l0.5,0.2l1.5,0
	l1.6,0.3l0.9,0.3l0.8,0.2l1.1,0l0.6-0.1l0.9,0l0.4-0.3l0.5-0.6l0.3-0.8l0.4-0.7l0-1.1l0.1-0.9l0.4-1.1l0.2-0.9l0.7-0.5l0.8,0.6
	l0.4,0.3l0.7,0.5l0.3,1.3l0.2,1.7l-0.9,0.6l-0.9,0.1l-0.5,0.3l-0.3,1.8l-0.1,2.3l0.4,1.1l0.8,1.1l0.7,0.2l1.1-0.1l0.9,0.6l1.8,0.8
	l2.1,0.9l1.2,0.2l0.8,0.1l0.7,1.4l-0.9,1.1l0.5,0.7l0.9,0.9l0.4,1.3l1-0.2l1.2,0.5l0.8-0.4l0-2.2l0.9-0.2l0.6-0.9l1,0.8l0.6-1
	l0.2,0.2l0.1,1.6l0.5,0.4l1.4,0.1l1.6,4.3l1.6,0l0.5-1.2l2.3-0.8l0.8-0.5l0.9,0.3l0.7-0.4l0.2-0.8l0.5-0.4l1.5,0.8l1.5,1.2l1.7-0.4
	l0.8,0.4l-0.7,1l0.8,1.2l1.9,1.2l1.9,0.7l1.2-0.2l1.2-0.9l-0.5-1.2l1.1-1.1l1.4-0.2l0-2.3l0.5-1.3l-0.1-1.7l-0.5-2.2l1.1-2l0.2-0.9
	l-0.1-1.1l0.2-1.2l0.5-0.6l0.8,0.1l0.7,0.2l0.3,0.1l0.1,0.1l0.5-0.1l3.2-0.3l0.5-0.9l0.3-1l-0.1-0.9l-0.3-0.7l-0.3-0.7l0.2,0
	l0.5,0.7l0.4,0.3l0.1,0l1.6,0.8l0.9,0.5l0.9,0.7l0.5,0.7l0.5,0.7l0.3,1l0.3,0.7l0.9,0.8l0.9,0.7l0.7,0.5l0.5,0.4l0.5,0l0.5,0.2
	l0.5,0.1l0.4-0.3l0.6-0.2l0.4,0.2l0,0.7l-0.3,0.6l0.3,0.6l0.6,0.3l0.2,0.6l0.2,0.9l0.3,1l0.6,1.1l0.2,1.2l0.4,1.1l0.5,1l0.8,1
	l0.8,1.1l1,1l0.8,0.5l0.9-0.2l1,0.3l0.9,0.8l0.8,0.7l0.8,0.5l1,0.2l1,0.3l1.2,0.3l1,0.3l1.4-0.2l1.2,0.2l0.9,0.5l1.3,0l1.1-0.2
	l0.4,1.4l0.6,0.6l0.2,0.8l0,1l0.5,1l0.3,0.5l0.1,0.1l0.1,0.1l0.1,0.1l0.1,0.1l0.1,0l0.1,0l0.1,0l0.1,0l0.1,0l0.1,0l0.1,0l0.1,0
	l0.1,0l0.1,0l0.1,0l0.1,0l0.1,0l0.1,0l0.1-0.1l0.1-0.1l0.1-0.1l0.1-0.1l0-0.1l0-0.1l0-0.2l0.1-0.1l0.6-0.6l0.3,0.8l-0.1,0.8l0.7,1.5
	l0.2,0.6l-0.3,0.6l-0.8,0.8l-0.2,1.7l0.3,0.8l0.5,0.5l0.7-0.4l1.3,1.6l1.3,0l0.8,0.4l-0.2,1.7l0.2,1.8l-1,1l0.4,1.6l0,1.2l1,4.4
	l-0.6,0l0.3,1.7l-1.1,1.3l-0.6-0.1l-0.5,0.5l-1.2,1.8l-0.8-0.4l-0.5-0.7l0.4-0.4l-0.5-2.5l-0.7-1.2l0.5-0.8l-0.1-0.4l-0.4-0.7
	l-0.6-0.5l-0.6,0.6l-0.6,1.3l0.3,1.1l-0.5,2l0.3,0.9l-0.1,0.5l0.1,2l0.6,0.5l-0.4,1.9l0.2,1.1l0.6,0.7l0.2,1l0.4,0.7l-1.4,2.3
	l-0.5,0.4l-0.6,0.3l-0.8-0.1l-0.7,0.5l-1.4-0.8l-0.2-0.7l0.6-0.8l0.3-1.6l0.6,0l0.6-0.3l0.5-0.7l0.2-1l-1.3-0.5l-0.8-0.5l-0.9,1.4
	l-0.6,0.1l-0.8-0.6l-0.7,1.4l-0.5-0.3l-0.8,1.1l-0.4,0.3l-0.5-0.1l0-1.1l1-0.9l0-0.7l-1.3-0.6l-0.5,0.9l-0.6,0.3l-0.6-0.2l-0.6-0.8
	l-0.6-0.3l-0.4-0.5l-1.5-0.9l-0.6-0.1l-0.8,0.6l-1-0.5l-0.3-0.5l-0.4-0.1l-0.7,0.2l-0.5,0.9l0.3,0.9l0,0.7l0.1,0.8l1.1,1l1.2,1.9
	l1.2,2.2l0.8-0.5l0.5,0.1l0.6,1.6l-1.6,3.2l-0.3,1.1l-0.7,0.8l-0.8-0.4l-0.7-0.7l-0.8,0.8l-1.4,0.3l-1.7-0.4l-0.4-0.5l0.7-0.2
	l0.3-0.4l0-0.6l-0.5-0.1l-0.7,0.7l-0.3,0.5l-1.5-2l-0.7,0l-0.4,0.4l-0.6,0.5l-1.2-0.8l-0.6-0.7l-1.3-0.2l-1.1-0.6l-3.4-4.2l-1.8-0.7
	l-1.4-1.3l-1.7-1.1l-1.1-0.2l-2.2-0.6l-1.3-1.3l-0.8-0.5l-0.6,0.1l-0.5,0.5l-0.3,0.6l-0.3,1.9l-0.7,0.8l-1.2,0.6l-1-0.4l-1.2-1
	l-0.4-0.8l-0.2-2.4l-2.6-2.8l-0.5,0.1l-1.3-0.2l-0.6,0.7l-1,0.6l-0.7,1.4l-0.7,0.8l0,1l1,0.2l-0.3,2.9l0.7,1.6l0,0.8l0.3,0.6l0.1,1
	l-0.5,0.6l-0.3,1l-0.8,0.2v-1.6l-0.6-1.2l0-1.5l-0.3-2l-1.6,0.4l-0.6,0.5l-0.4,1.4l-1.5,2.1l-1.4,0.5l-1.4,1.2l-0.8,0.4l-1.1-0.2
	l-0.7-0.4l-0.3-0.8l0.1-1.3l-0.2-0.7l-0.4-0.5l-0.5-0.4l-0.4,0.2l-0.7,0.1l-1.8-5l-0.6-1l-0.8-0.7l-0.6-1.2l-0.6-0.7l-0.6-0.5
	l-2.6-1.1l-0.8,0.5l-1.4,1.4l-0.4-0.4l-1-1.6l-0.4-1.6l-0.4-3l-1-2l-0.9-1.2l-2.5-0.5l-2.7-2.3l-2.2-0.7L522,307l-0.8-1.2l-6.4-4.6
	l-0.5-1.2l-1.5-2l-1.1-1.8l-0.9-0.5l-4.8-0.8l-2.7,1.3l-1.1-0.3l-2-1.4l-0.4-0.5l-0.2-0.3l-0.3-0.3l-0.2-0.2l-0.3-0.1l-0.3,0.1
	l-0.2,0.1l-0.5,0.3l-0.3,0.2l-0.5,0.1l-0.4-0.2l-0.4-0.4l-0.5-0.4L495.3,292.4z"/>
<path id="D365" class="st0" d="M264,497l0.2,0.1l0.5-0.7l0.4-0.4l0.5-0.2l1.1,0.4l0.5-0.2l-0.2-0.7v-0.7l0.5-1.2l0.7,0l0.5,0.4
	l0.5-0.1l0.5-1.2l0.1-1.6l1,0.1l0-1.3l0.6-0.8l0.2-0.8l-0.3-1.4l0-0.7l0.4-1.1l0.1-0.7l-0.2-0.6l0.3-1.3l0.9-1.3l0.3-0.8l2.5,0.1
	l1.7-0.3l0.2-0.5l-0.6-1.3l0.2-0.9l-1.1-2.3l0.2-0.4l0.6-0.1l0.5-0.3l0.5,0l1.5,0.3l0.2-0.6l0.4-0.2l0.6,0l0.3-0.6l-0.1-0.8
	l-0.7-1.8l-0.2-1.5l0.6-0.2l0.1-0.6l0.9-0.7l-0.2-0.7l-0.1-1.4l-0.7-1.4l-0.6-0.3l-0.5-0.5l-0.4-0.6l-0.3-0.9l0.1-0.5l0.6-1.1
	l0.2-1.6l1.1-0.8l1.4-3.2l0.4-0.5l0.3-0.8l1.5-1l0.8-0.9l0.5-0.2l0.2-0.5l-0.3-0.4l0.1-0.3l0.5-0.1l0-1l0.5,0.2l0.6,0l0.6-0.5
	l-0.3-0.8l1.6-0.5l2.2,0.3l0.8-1.1l0.6-0.4l1.2-0.2l0.4-1.3l0-1.1l1.5-0.8l0.1-0.9l-0.4-0.6l0.5-1l0.6,0l0.4,0.3l0.1,0.7l0.3,0.5
	l0.5,0.3l0.7,0.2l1.1,1l0.2,0.4l1.1,0.1l0.5,0.5l2.1,0.5l0.5-1.9l1.5,1.2l0.5,0.2l0.5-0.1l0.8,0.1l0.2,1l-0.1,2l0.6,1.3l-0.7,0.7
	l-0.5,0.8l0.2,0.9l0.3,0.6l0.6,0.3l0.5-0.2l-0.3,2.5l-0.9,0.9l-0.5,0.1l-0.5,0.7l1.1,1.5l1,0.3l0.8,0l0.7-0.2l0.6-0.4l0.2-0.6
	l-0.1-2.3l0.9-0.4l1.8-0.3l0.2-0.7l0.6-0.6l0.8-0.2l0.6,0.2l-0.1,1.5l0.4,2.1l0.3,0.6l1.3,1.4l0.3,1l1.7,0.6l1.4,0.8l1.2,1.7
	l0.3,0.1l0.7-1.7l0.8,0.1l0-1.2l0.2-0.6l0.4-0.7l-0.7-1.6l0.5-0.2l0.7,0.4l0.5,1.9l0.4,0.4l0.9,0.3l0.1,1.1l0.4,0.7l0.6-0.3l2.5-0.1
	l-0.1-0.7l1.2-1l0.7,0.5l1.2,0.1l0.4,0.6l0.1,0.6l-0.1,1.3l1,0.2l1,0.7l1.4,0.1l1.1-0.4l0.4,0l0.5,0.3l1.1-0.9l1.5,0.3l1.7-0.7
	l0.6-1.4l-0.6-0.6l-0.5-1.7l0.5-2.1l0.9-2.5l0.4,0.4l1.8,0.1l0.5-0.2l0.7-1l0.9-0.3l0.5-0.5l0.2-0.6l-0.2-0.6l-0.7-0.5l-0.3-0.8
	l0-0.8l0.8-0.2l0.7-0.6l1-1.2l0.7-0.4l0.9,0.1l1.6,1.9l1.1,0.1l0.4-0.2l0.6,0.1l0.5-0.3l0.3-0.4l0-1.3l-0.4-0.5l-0.4-0.8l1-2.1
	l0.8,0.5l0.3-0.3l0.6,0.6l1.9,1.2l0.8,0.2l-0.5,1.7l-3,7.5l-2.4,11.3l1.5,6l6.8,2.9l1,2.2l-2,7.5l-1.5,2.9l2.1,8.6l3.2,5.7l0.6,3.4
	l-1.9,6l0.2,1l-1.1-0.5l-2.1,2.8l-1.5,2.4l-0.4,0.9l0.2,1.2l0.2,0.3l1.2-0.1l1.9,0.6l-0.5,0.8l-1.4,1.3l-0.5,0.9l-1.2,3l-2.8,0.9
	l-0.2-0.9l0-1.7l-0.1-1.3l-1.7,1.2l-0.8,1l-0.4,0.8l-1.1-0.5l0,0.6l-0.6,0.4l0.3,2.1l-0.6,1.7l-0.8,0.3l-0.3,1.4l-0.1,1.2l-0.9,0.3
	l0.3,1.7l0,2.4l-0.6,0.2l-1.2,1.4l-0.7,0.1l-1.3-0.6l-1.4-0.3l-1.7,1l-1.1-0.1l-0.9-0.3l-0.6-0.8l-0.2-0.9l-0.6-1.7l-0.2-0.2
	l-0.6-0.1l-0.5-0.4l-0.4-1.5l-0.4-0.7l-0.5-0.5l-1.8,0.7l-0.4-0.8l-0.6-0.2l-0.9-1.4l-1.1-0.1l-1.6,0.6l-0.3-1l0.5-1.7l-0.4-1.7
	l-0.6-0.4l-1.8,0.7l-0.2-0.1l-2.3-1.9l-0.2-1.4l-0.6-0.3l-1.3,0.1l-0.2-1.1l-1.3,0.6l-1.9,0.3l-0.5-0.3l-0.5,0l-0.3-0.4l-0.4,0.3
	l-0.2,1.1l-0.4,0.6l-1-0.2l-1.2,0.4l-0.2,0.5l-0.3-0.4l-0.2,0.6l-0.5-0.3l-0.2,0.2l-0.6,1.1l-0.2,0.7l-0.4-0.3l-0.8,0.5l0,0.7
	l-0.3,0.4l0.1,1l-0.2,0.8l-0.6,0.2l-0.5-0.4l-0.4,0.5l-1,1.9l-0.8,0l-1.4-0.5l-0.9-0.1L306,532l-1.1,2l-1.5,1.1l-0.9,0.9l-0.4-0.7
	l-0.3,1.1l-0.7,0.1l-0.2-0.5l0.6-1.2l0-0.7l-0.4-0.3l-1.3,0.1l-0.7-0.9l-0.7-0.7l-0.8-0.3l-1,0.5l-0.5,0.6l-0.3,1.1l0.6,0.4
	l-1.7,3.1l-1.2,5.7l0,2.6l-0.2,1.2l0.1,1.5l1,1.4l-0.2,0.7l-0.5,0.7l-1.5,0.1l-0.4,0.3l0,1l0.2,0.7l-0.2,1.1l0.3,0.4l0,0.7l-0.7,0.7
	l-0.7,0.9l-0.2,1.3l0.1,1.6l0.2,1.3l-0.6,0.8l-0.1,2.1l-0.4,1.1l-0.2,2l-2.9,1.5l-0.1,1.2l-0.4,1l-0.3,1.4l-0.5,1.1l-0.7,0.3
	l-0.5,1.1l-0.5,0.8l0,0.5l1.6,1.2l0.4,0.6l1,2l-0.4,1.9l-0.4,1l0,1.4l-0.4,0.5l-1.4,0.3l-0.5-0.6l-0.4-0.9l-0.4-1.4l0-2.5l0.1-0.9
	l-0.5-0.6l-1.8-0.7l-0.2-0.5l0.2-2l-0.8-2.8l0.7-3.4l0.7-2.6l-0.6-0.9l-1-0.5l-0.8-0.8l-0.3-1.2l1-3.2l0.5-2.5l0.3-2l0.5-2l0-1.4
	l-0.7-1.2l-0.3-1.2l-0.6-1.2l-2.5-0.3l-0.9-0.8l-0.5-1.4l-1-0.4l-0.7-0.7l-0.5-2.5l-0.3-0.4l-0.7,0.1l-1.5-0.3l-1.9,0l0.9-2.9
	l2.4-0.6l0.4,0.1l0.5-0.3l0.1-1.3l0-1.4l-0.4-2.4l-0.5-0.7l0.1-1.5l-0.2-0.4l-1.3-3.3l-0.7-2.3l0.4-3.6l0-1.8l-0.3-0.2l-1-0.1
	l0.8-3.8l0.5-1.2l0.8-0.5l0.8,0.3l1.2,1l0,1.3l0.3-0.3l0.6-2.1l0.1-0.9l-0.2-0.6l-0.3-0.5l0.4-2l-0.1-0.8l-0.7,0.1l-0.7,0.4
	l-0.6-1.1l-0.8-0.8l-0.7-1.3l-0.9-0.7l-1.9-0.6l-1.3,0.2l-1.8,0.7l-0.8-0.5l-0.4-1.8l-0.2-2.1l0-2.2l0.6-1L264,497z"/>
<path id="D348" class="st0" d="M340.2,186.7L340.2,186.7l0.7-0.1l1.5,0.2l2.4-1.7l1.3-0.1l0.8-0.5l0.4,0.3l0.8-0.3l0.5,0.4l0,0.3
	l0.4,0.6l0.4,0.2l0.1,1.4l-0.1,0.9l0.3,0.3l1.6,0.4l0.5,0.7l2.4-1.5l0.3-0.8l0.6-2.9l-0.1-1.2l-0.3-1.1l-0.3-0.5l0.1-0.3l0.3-0.1
	l0.7,0.3l1.3,1l0.3,0.7l0.2-0.1l0-0.8l1.2-0.2l0.6-0.7l-0.4-1.3l0.2-1.3l-0.7-0.6l-0.1-0.5l0.2-1.5l0.4-1.1l0.7-0.7l1-0.6l0.8,0.6
	l1.4,0.6l1.1-0.1l1.5,1.4l0.1,1.2l1.1,0.4l1-0.2l1.6,0.7l1.7,0.5l3.1-0.7l0.9-1.2l0.4-1l0-0.5l-0.2-0.5l-0.3-0.3l0.2-4l-0.5-2.2
	l-0.5-1.2l-0.2-1l-0.1-0.7l-0.4-0.4l-0.1-0.8l0.5-2.1l-0.1-0.8l-0.4-0.6l-0.2-0.6l0-0.9l-1.4-0.9l-0.3-0.5l0.2-1l4.6-1.4l1.1-1.4
	l1.5-2.5l0-0.8l0.4-0.8l0.7-0.9l0.2-0.7l0.1-2.3l0.4-1.5l-0.4-0.8l-0.3-1.2l0-1.2l0.2-1.1l0.7-1.4l0.1-1.1l0.4-0.5l1.3-0.7l0.3-2.4
	l0.8-0.4l0.2-1.6l0.4-1.6l0.4-1l0.3-0.3l1.6,0.6l1.7,1l0.4,0l0.7,0.5l0.5,0.7l0,1l0.1,0.2l1.2,0.8l0.3-0.3l1,0.4l3.8,0.8l0.3-1
	l0.8-1.5l0.7-0.4l0.7-0.1l2.2,0.3l1.8,0.1l1.5,0.4l2.1,1l1.8,1.7l-0.4,1.2l2.2,3.2l0.4,1.7l-1.5,1l0,0.2l-0.2,0.3l-0.5-0.1l-1,0.1
	l-0.1,1.2l0.8,1.4l0,0.5l-0.2,0.6l-1.3-0.5l-1.2-0.3l-1.7,0.3l-0.4-0.7l-0.7-0.2l-0.5,0.9l-1.1-0.1l-1.3,0.3l-1.3,0.5l-1.2,1.1
	l-0.4,1.5l0.2,1.3l0.9,0.9l0.3,1l0.1,1.6l0.5,1.1l0.1,1.5l0.5,0.2l0,1l0.7,1.5l-0.2,0.5l-1.1,0.1l-0.9,0.5l-2.8-1.3l-1.3,0.1
	l-0.8,0.7l-0.8,0.9l-0.6,1.3l-0.1,1.5l-0.8,0.9l-0.7,1.7l-1.3,1.9l-0.2,0.7l0.4,2l0.6,0.5l0.9,0.1l1.4,0.9l0.6,0.2l2.1-1l-0.3,0.8
	l-0.7,1l-0.3,1v1.4l1.1,2.4l0.7,0.8l-0.2,1.4l0.2,0.9l-0.3,1.2l0.5,0.2l0.3,1l0.3,0.3l0.7,0.2l1.3,0l1.6,0.3l0.6,0.3l2,1.6l2,2
	l0.2,0.6l-0.6,2.8l0.4,2l-0.6,2.7l-1.4,4.3l-0.4,0.4l-0.4,0.7L400,203l-0.7,0.9l-1.1,1.1l0,0.7l0.7,3l0.2,0.5l0.5,0.3l1.8,1.6
	l-0.6,1.8l0,0.8l0.4,1.3L401,216l0.1,0.8l-0.5,2l0.5,0.7l-0.2,1l0.3,1l-0.6,1.3l-0.1,0.8l-0.4,1l0,1.1l0.9,1.3l0.2,1.1l0.6,0.1
	l0.7-0.1l0.6,0.2l0.4-0.1l0.3,1l0,1l-0.2,0.7l0,0.6l0.4,0.3l-0.1,1l0.5,1.5l-0.2,1l0,1l-1.5,0.5l-0.4,1l0,0.1l-0.1-0.1l-2.8-2.1
	l-1.7-0.2l-2.8-1.3l-2.3-1.5l-2.3-0.2h-2l-2.4,0.2h-3l-1.3-0.8l-2.5-2.6h-1.8l-1.8,0.2l-1.4,2.3l-1.8,1.9l-1.3-0.6l-2.2-2.3l0.2-0.3
	l-0.1-0.9l0.4-1.5l-0.3-0.6l-1,1.2l-1,0l-1.7-0.5l-0.4-0.6l-0.5-1.6l-0.5-0.2l-0.6,0.2l-0.8,0.8l-0.7,0.3l-0.6-0.3l-0.5-0.7
	l-0.9-2.7l-0.6-0.2l-0.4,0.3l0,1.3l-0.1,0.4l-0.5,0.4l-0.9-0.3l-1.5-1.3l-0.5-0.2l-0.4,0.3l-0.3,0.6l-0.8,2.2l-0.4,0.2l-0.6-0.3
	v-2.5l-0.4-7l-1-7.5l-0.4-6.2l-1.3-3.8l-2.5-4.9l-2.1-2.8L340.2,186.7z"/>
<path id="D359" class="st0" d="M254.9,385.4l-1.5,0l-0.6,2.7l-0.6,0.2l-0.4,0.6l-0.9-0.2l-0.5,1.3l-0.5,0.5l-4.8-2.2l-0.2-0.8
	l0.3-3.5l-0.3-0.7l-0.5-0.1l-1.5,1.2l-0.7,0l-0.4-0.7l0.1-2.2l-0.5-0.2l-0.4,0.4l-0.1,0.9l-0.1,1.3l0.2,0.8l-0.2,1.1l-0.1,2
	l-0.4,0.1l-0.8-0.2l-0.4-0.7l-0.2-1.1l0.5-2.3l0-1.2l-1.3-0.3l-0.4-0.3l-0.1-1.1l-0.8-0.5l-0.2-0.5l0-1.7l-0.5-1.4l-0.7-0.9
	l-0.8-0.4l-0.8-0.2l-0.4-0.4l-0.2-3.4l-0.3-0.9l-0.4-0.2l-0.2-0.7l-0.4-0.5l-0.6-0.3l-0.5,0.3l-0.2,0.7l-0.1,2.1l-0.3,0.6l-0.6,0.7
	l-0.8,0.3l-2,1.1l-1,0.3l-0.9,0.7l-0.8,0.4l-0.5,0l-0.2-2.7l-0.7-0.8l-1.6-0.9l-0.2-0.7l-0.2-2.4l-0.3-1.3l-0.6-1.4l-1-1.2l-0.7-1.1
	l-0.4-0.3l-0.5,0.5l-2.1,0.7l-0.6,0l-0.6,0.5l-0.4,0.1l-0.5-0.3l-1.3-1.7l-1.7,0.5l0.1,2.2l-0.6,2.7l-0.4,4.4l-0.2,0.6l-0.6,0.3
	l-2,0.2l-1.8-2.9l-0.1-0.5l0.3-1.2l0-1l-1.1-1.7l-1.4-3.5l-0.4-0.3l-0.9,0.3l-0.4-0.1l-2.8-1.5l-0.6-0.1l-1.3,0.5l-0.9,2l-1.4,0
	l-0.9,0.3l-0.8,0.9l-1.2,2l-0.3,1.1l0,1.2l0.3,1l0,0.7l-0.9-0.1l-0.8-0.8l-1-0.7l-0.6-0.2l-0.5,0.6l-0.6,0.3l-2.2-0.3l-0.8-0.6
	l-0.5-0.8l-2.5,0.5l0,0.9l0.3,2.3l0,1.5l0.5,1.2l-0.2,1l-0.9,0.2l-1.7-0.9l-0.9,0.5L175,375l-0.4,0.4l-0.8,0.4l-0.9,0.9l-0.6,0.2
	l0.4,2.2l-0.5,0.6l-0.9,0.5l-2.4,0.8l0.1,0.9l0.9,3.4l0.1,1.3l0.1,2.6l0.3,2l-0.5,2.2l0.2,1.4l0.1,2.2l-0.1,1l-1.4,0.4l-0.1,0.2
	l0,1.6l-1.8-0.2l-1.8-1.7l-0.4-0.1l-0.3,0.5l-0.6,2.9l-1.1,1.3l0,0.6l-1.2,1l-1.5,0.8l-1.2,1.3l-0.4,1.2l-0.1,1.1l0.8,2.4l0.3,1.2
	l-0.1,1.2l-0.3,0.8l-0.1,0.9l0.1,1.1l0.9,3.7l0.2,1.1l-1.3,1.8l-0.9,3.2l-0.4,0.9l-2.1,1.2l-0.5,0.5l-3.2,0.6l-0.6,0.3l-0.8,2.1
	l-0.4,0.1l-4.1-1.2l-3.9-1.4l-0.6-0.4l-0.7-1.1l-0.6,0.1l-1.5-1.1l-0.2,1.2l-0.2,0.4l-1,0.4L136,430l-0.7,1.6l-3.1-0.4l-0.3-0.8
	l-1.1-1.8l-1.6-1.8l-0.2-0.5l-0.2-1.9l-0.4-0.7l-0.2-0.5l0.6-0.3l-0.6-0.6l-0.8-0.4l-1.8-0.2l-0.9,0.3l-0.5,0.8l-0.9,1.7l-0.7,2.1
	l-2.1-0.6l-1.5-0.7l-1.2-1.1l-0.7-0.9l-0.5-1l-0.2-1.4l0.3-2.4l1.3-2.9l0.3-1.3l0-1.4l0.2-1.2l-0.3-1l-1.2-3.3l0-1.6l1.5-1l0.8-3
	l0.6-1.3l0.6-0.7l0.7-1.6l1.3-0.7l0.5-0.6l0.5-1.7l0.1-2.6l0.4-1l1.1-3.8l-0.2-1.1l0.6-3.2l-0.3-1.8l0.2-2.7l-0.3-0.9l0.1-1
	l-0.3-0.6l-1.2-1.1l-1.6-3l0-0.5l0.3-0.7l0.6-0.4l-0.1-0.8l2.2-2.3l0.4-0.7l0.9-1l1.6-0.8l0.7-0.5l1.1-2.7l0.4-2.1l-0.3-0.7l1.1-0.7
	l0.3-0.4l-0.4-0.4l-1.3-0.7l-1.1,0.9l-0.6,0l-1.1-0.5l-1.2,0.3l-0.8,0l-1.3-1l-1.2-1.3l-0.6-0.4l-0.9-0.1l-0.9-0.2l-0.6-1.7
	l-0.7-1.3l0.3-1.5l1-1.3l0.9-0.7l1-0.1l0.2-3.3l2.3-3.6l0-0.7l-1-1.9l0-0.7l0.2-0.6l0.5-0.6l0.6,0l0.5,0.3l0.7,1.1l0.3,0.2l0.5-0.7
	l0.3-2.1l2-1.8l-0.4-1.5l-0.1-1.8l1.3-1.6l0.6-2.5l0.5-1.1l0.5-0.4l2.8-0.8l0.6-0.5l0.4-0.6l0.4-1.4l2.7-4.1l1.3-0.7l0.8,0.1
	l1.4-0.7l1.2-3.7l0-0.4l-0.3-1l-0.5-3.4l3.7,1.4l2.2,0.4l1.2,0.7l1.2,0.9l0.4,0.8l0.4,1.3l0.5,0.2l0.8-0.3l0.6,0.1l0.3,0.5l0,1.5
	l1.3,0l0.2-0.6l0-0.6l1-0.2l0.7-0.6l1-1.8l0.6-0.4l0.7-0.1l0.4,0.4l-0.2,1.8l-1.1,2.4l-0.3,1.1l-0.1,0.8l0.3,1.9l0.6-0.4l0.8-1.3
	l0-0.8l0.5-0.4l0.9,0l1.3-0.4l2.2-0.2l0.5-0.6l0.8-1.9l1.9,0.8l0.1,0.4l0.7,0.9l0.6-0.2l0.7,0.2l1.2-0.7l0.5,0l0.5-0.3l-0.3-1.9
	l0.5-0.5l0.4-2l0.4-1.5l0.2-1.7l0.4-0.6l1.1,0.7l1.4,1.2l0.7,0.3l2,0l3.5,1.5l0.6-0.1l1.5-2.4l0.4-0.3l1.2-0.2l1.3,0.2l0.6-0.2
	l0.5-0.5l0.8-2l0.6-0.1l0.6,0.4l0.6,1.2l1.4-0.2l0,1.2l0.3,0.8l1.1,1.4l0.2,1.2l-0.2,1l-0.6-0.2l-0.4,0.3l-0.2,1.8l0.3,0.6l1.4,1.2
	l0.5,2.8l0.7-0.2l1.1-0.9l-0.1,1.2l1.9-1.1l1.3,0l1.2-0.3l0.1-0.8l-0.2-0.8l-0.7-1.1l-0.2-0.8l0.1-0.6l1.4-0.3l0.5-0.5l-0.2-0.7
	l0.3-0.7l4.3,0.9l0.6-0.1l1-1.2l0.1-0.7l-0.4-1.5l0-1l0.3-1.7l0.5-1.2l1.4-1l0.5-0.7l0.3-1.6l-0.3-0.6l-0.1-0.9l0.7-0.2l0.4,0.1
	l0.9,0.7l1.2-1.3l0.2,0l1.2,1.4l0.5-0.2l0.5,0l0.4,0.2l0.6,0.4l0.4-0.2l0.9-1.9l0.6-1.4l0.9-1.5l1.2-0.3l1,0.4l0.6,0.8l0.7-0.1
	l0.7-0.6l0.4-1.1l0.6-0.7l0.4-1.3l0.6-0.7l0.7-0.1l1.2,0.3l1.6-0.8l-0.3-1.1l0-1.4l1.6-1.1l1.4,0.7l0.7-0.4l0.8-0.7l0.6-0.3l0.6,1.7
	l1-0.6l0.2,0.2l-0.4,1.5l0.1,0.4l1,1.1l0.7,2.2l0.8,0.8l0.2,0.7l-1.2,3.6l-0.4,1l0.6,1.6l0.4-0.1l0.3,0.1l0.1,0.2l-0.1,0.2l-0.3,0.1
	l-0.6,1.2l-0.3,0.2l-0.1,0.3l1.9,0.2l0.4-0.2l0.8-0.6l0.8,0l1.2,0.2l1.1-0.5l0.9,0.3l0.7-1.1l0.8-0.8l1.5-0.8l0,2.5l0.8,2.8l2.4-1.5
	l1,0.4l1.7,1.6l1.1,0.4l1.2,0l0.8,0.4l0.5,0.8l0.2,1l0.8-0.3l0.8-0.7l1-0.4l2.5-0.1l0.3,0.6l1.2,1.6l0.3,1l-0.3,0.8l-0.5,0.7
	l-0.2,1.4L261,313l0,0.7l1.2,0.3l0.8,0.9l0.9,2.9l0.4,1.9l0.2,0.1l0,1.4l-0.5,0.5l-1,0.4l-0.8,0.7l-0.5,1l-0.2,0.6l0.5,0.5l1.6,0.7
	l0.7,2.1l0.1,1.5l-0.1,1.3l-0.5,0.9l0.3,1.1l-0.2,3.3l-0.8,0.1l-3.3-0.5l-0.9,0.5l-0.4,0.4l-0.2,0.6l-0.2,1.1l0.1,0.6l-0.4,1
	l-0.2,1.7l1.1,0.7l1.7,0.3l1,0.5l-0.1,0.9l0.2,2.5l1.1,2.8l0.4,1.7l0.4,0.4l3.1,1.2l-0.1,1.9l0.4-0.4l0.3,1.4l-0.1,1l-0.4,1.2
	l-0.8-0.3l-1.1-0.9l-0.8,0.8l-0.3,0.7l-1.1,0.6l-0.2,0.7l0.3,1.2l-1.3,1.4l-0.6,1.1l-0.1,0.5l0.3,0.6l-0.8,2.3l0.1,0.7l0.4,0.5l3,2
	l0.1,0.8l0,2.5l0.5,2.5l-0.2,1.4l-1.4,4.8l-0.2,1l0.1,1.1l0.3,0.8l-0.2,2.5l-1.6-0.5l-0.5,1.4l-0.6,0.6l-0.7,0l-0.3-0.6l-0.1-1
	l0.1-3.1l-0.2-1.3l0-1.2l-0.4-0.6l-0.6,0.6l-0.8,4l-0.5,0.2L254.9,385.4z"/>
<path id="D356" class="st0" d="M181,375.9l0.2-1l-0.5-1.2l0-1.5l-0.3-2.3l0-0.9l2.5-0.5l0.5,0.8l0.8,0.6l2.2,0.3l0.6-0.3l0.5-0.6
	l0.6,0.2l1,0.7l0.8,0.8l0.9,0.1l0-0.7l-0.3-1l0-1.2l0.3-1.1l1.2-2l0.8-0.9l0.9-0.3l1.4,0l0.9-2l1.3-0.5l0.6,0.1l2.8,1.5l0.4,0.1
	l0.9-0.3l0.4,0.3l1.4,3.5l1.1,1.7l0,1l-0.3,1.2l0.1,0.5l1.8,2.9l2-0.2l0.6-0.3l0.2-0.6l0.4-4.4l0.6-2.7l-0.1-2.2l1.7-0.5l1.3,1.7
	l0.5,0.3l0.4-0.1l0.6-0.5l0.6,0l2.1-0.7l0.5-0.5l0.4,0.3l0.7,1.1l1,1.2l0.6,1.4l0.3,1.3l0.2,2.4l0.2,0.7l1.6,0.9l0.7,0.8l0.2,2.7
	l0.5,0l0.8-0.4l0.9-0.7l1-0.3l2-1.1l0.8-0.3l0.6-0.7l0.3-0.6l0.1-2.1l0.2-0.7l0.5-0.3l0.6,0.3l0.4,0.5l0.2,0.7l0.4,0.2l0.3,0.9
	l0.2,3.4l0.4,0.4l0.8,0.2l0.8,0.4l0.7,0.9l0.5,1.4l0,1.7l0.2,0.5l0.8,0.5l0.1,1.1l0.4,0.3l1.3,0.3l0,1.2l-0.5,2.3l0.2,1.1l0.4,0.7
	l0.8,0.2l0.4-0.1l0.1-2l0.2-1.1l-0.2-0.8l0.1-1.3l0.1-0.9l0.4-0.4l0.5,0.2l-0.1,2.2l0.4,0.7l0.7,0l1.5-1.2l0.5,0.1l0.3,0.7l-0.3,3.5
	l0.2,0.8l4.8,2.2l0.5-0.5l0.5-1.3l0.9,0.2l0.4-0.6l0.6-0.2l0.6-2.7l1.5,0l-0.1,1.2l0.6,0.4l0.8,1.3l2.1,0.6l0.3,0.5l0.9,2.3l1.5,0.2
	l1.9,1.3l0.2,1.9l0.6,1.1l0.2,0.7l-0.5,2.2l-0.9,1.6l-0.5,1.4l-0.3,0.5l-0.5,0.2l-0.7,2.1l-1.7,1.9l-0.8,1.7L257,410l-0.5,1.3
	l-0.1,0.8l0.2,0.5l0,1l0.2,0.5l-0.5,1l-0.7,0.7l-0.6,0.3l0,0.7l0.5,1.1l0.7,2.1l-1.6,2.1l0.2,0.6l0.3,0.4l0.6,0.1l2,1.1l0.1,2.1
	l0.3,2.2l-1.4,4.6l-1.1,0.6l-1,0.2l-1.4,1l-0.8-0.7l-0.7-0.4l-1.9,0l-0.5,0.5l-0.4,0.6l-0.1,1.1l-0.4,0.8l-0.6,0.7l-1.6,0.4
	l-1.1,0.1l-0.5,0.2l-0.2,0.3l-0.3,1.4l-0.2,0.5l-1.3,0.4l-1.9,0.3l-0.5,0l-0.2-0.3l-0.1-0.4l0.3-2.7l0.6-3.2l-0.1-0.5l-0.6-0.5
	l-0.2-0.8l-1,0.3l-1.4,0l-2.6-0.4l-0.6-0.5l-0.7-1.5l-1.5-0.1l-3,2.2l-0.7,1.8l-0.9,0.3l-1.1,0.2l-0.9,0l-0.7-0.7l-0.5-0.9l-0.6,0
	l-0.5-0.5l-0.5,0l-0.5,0.8l-1,0.1l-0.8,1.3l-1.2-0.5l-1,0.8l-1.4,0.2l-1.1-0.3l-0.9-1.1l-0.6-1l-0.5-0.4l-1.1,0.9l-1.8-0.6l-1-0.5
	l-1.7-2.1l-0.8-2l-1-0.9l-0.7-0.3l-0.7,0l-0.7,0.3l-1.2,0.2l-1-0.6l-1.9-3.5l-0.9-0.8l0.2-1.7l-0.3-0.7l-1-0.4l-1.2,1.7l-0.4,0.8
	l-0.2,0.9l0,2.5l-0.2,0.5l-1.1-0.3l-0.9-0.5l-1.1-0.8l-0.6-1l-0.4-1l0.1-0.9l0-2.6l0.6-1l0.6-0.6l-0.8-1.8l-1.8-0.9l-1.8,1l-0.7-0.1
	l-0.5-0.3l-1.5-1.9l-1.5-2.4l0.2-0.6l0.4-0.6l2.2-2.5l0.9-2.3l0.6-0.5l0.8-0.9l0.6-0.4l0.4-0.6l0.7-2.1l0.9-1.5l0.1-0.5l-0.8-2.1
	l-0.1-1.4l0.2-1.9l-0.2-1.3l-1-1.9l-0.1-0.8l0.1-1l1.2-6.2l0.1-1.2l-0.4-0.6l-0.8-0.7l-1.7-0.5l0.3-1.6l-0.1-0.5l-0.3,0.1l-0.3,0.4
	l-0.6-0.1l-0.5,1l-5.3-2.3L181,375.9z"/>
<path id="D353" class="st0" d="M637,193.7l-1.2-1l-0.6-0.7l-0.5-0.9l-0.1-1l0.1-1l0.3-1.3l0.1-1.4l-0.1-0.7l0.5-0.3l0.7,0.1l0.5,0.5
	l0.4,0.6l0.2,0.8l0.3,0l0.1-0.7l0.1-0.8l0.3-0.4l0.8,0.1l0.5-0.6l0.3-0.8l0.2-0.6l0.6-0.4l1-0.3l0.7-0.1l0.3-1.2l0.9,0.4l0.9-0.1
	l0.9-0.6l0.6-0.3l0.5-0.3l0.4-1l0.1-0.7l-0.6-0.6l-0.6-0.4l-0.6-0.6l0-1.1l0-1l1.3-1.2l-0.4-1.7l-0.3-1.2l-1.3,0l-0.4-0.4l-0.1-0.6
	l0-1l0.3-0.8l0.6-0.9l0.9-0.7l0.8-1l0.5-0.9l0.4-0.8l0.2-1.5l-0.1-1.7l-0.2-1.2l-0.3-1.5l0.5-1.2l-0.2-1.4l-0.3-1.3l-0.6-1.3
	l-0.1-0.9l0-1l-0.1-1l-0.2-0.8l-0.9-0.2l0-0.6l0.4-0.8l-0.4-0.6l-0.5-0.8l-0.8-1.3l-0.6-1l-0.6-0.1l-0.4-0.3l-0.1-0.7l0.2-1l0.7-0.8
	l0.8-1.1l0.7-1.1l0.5-1l0.4-1.4l0.4-1l0.5-0.1l0.7,0.6l0.9,0.2l0.7,0.2l0.4,0l0.3,0l0.3,0.1l0.4,0.4l0.5,0.2l0.5,0.1l0.5-0.4
	l-0.3-0.5l0.6-0.5l1.6-1.4l1.1-0.2l0.9,0l0.9,0.1l0.8-0.2l0.5-0.7l-0.2-1l-0.2-1.2l0.1-1.4l0.9-0.4l0.9-0.9l0.5,0l0.5,0.8l0.8,1.2
	l0.8,0.8l0.9,0.9l0.9,0.3l0.8-0.1l1-0.2l0.8,0l1.1,0.6l0.9,0.6l0.7,0.7l0.6,0.6l0.7,0.4l0.1,0.6l-0.5-0.3l-0.9-0.4l-1-0.6l-0.5-0.5
	l-0.7-0.4l-0.9,0.2l-0.2,0.6l0.4,0.4l-0.2,0.5l-0.1,0.5l0.4,0.4l0.9,0.3l0.8,0.3l0.5,0.1l0.1,0.5l0.1,0.5l0.2,0.5l0.7,0.2l0.1-0.6
	l0.5,0.8l0.8,0.4l0.7,0.3l0.3,0.6l0.8-0.1l0.6,0.5l0.6,0l0.6,0.2l0.9,0.2l1,0.8l0.8,0.6l0.5-0.5l0-0.5l0.5,0.5l0.5,0.5l0.9,0.8
	l0.6,0.8l0.3,0.3l-0.2,0.7l0.1,0.5l0.6-0.1l0.5-0.3l0.5,0l0.3,0.3l0.5,0.5l0.3,0.2l0.6,0.4l0.6,0.3l0,0.6l0.2,0.6l0.5,0.2l0.3-0.7
	l0.4-0.9l1.1-1.2l0.6-1.4l0.5-1.2l0.4-0.9l0.4,0l0.7-0.8l0.9,0l0.1,0.5l-0.8,1.2l-0.3,0.5l0.4,0.5l1,0.7l1.5,0.9l1.3-0.6l1.4-1.1
	l0.5,0.5l0.5,0.6l0.3,0.8l0.2,0.9l0.3,1.1l0.3,0.7l0.2,0.5l-0.3,0.6l-0.2,0.7l0.1,0.9l0.2,0.6l0.5-0.3l0.5-0.6l0.5-1l0.9,0.3l0.9,0
	l0.7-0.2l0.8-0.5l0.8,0l0.6,0.4l0.5,0.6l0.5,0.5l0.6,0l0.3-0.8l-0.2-0.8l-0.5-0.7l-0.4-0.6l0-1.3l1.9,0.7l1.3,0.7l1,0.4l0.5-0.1
	l0.6-1l0.4-0.8l0.7,0.6l0.3,0.6l0.2,0.8l0.3,0.8l0.5,0.6l0.7-0.1l0.8,0.3l0.2,0.6l0.2,0.8l0,0.5l0,0.4l-0.3-0.1l-0.3,0.1l-0.2,0.7
	l-0.2,0.8l0.4,0.6l-0.2,1l-0.2,0.9l-0.6,1l-0.5,0.8l-0.5,0.7l0.1,0.8l0.6,0.8l0.7,0.4l0.7-0.2l0.5,0.5l0.5,0.5l0.8,0.4l0.3,0.8
	l-0.5,0.7l-0.2,0.7L714,165l0,1l0,1.1l-0.2,0.8l-0.3,0.4l-0.3,0.2l-0.3,0l-0.5-0.2l-0.7-0.3l-0.5,0.1l-0.3,0.4l-0.3,0.6l0.4,0.4
	l0.7,0.2l0.5-0.2l0.5-0.3l0.5,0l-0.1,0.7l-0.1,0.5l0.1,0.7l-0.1,0.8l-0.3,0.2l-0.5-0.1l-0.4-0.2l-0.4,0.2l-0.4,0.2l-0.4-0.1
	l-0.5-0.4l-0.5-0.2l-0.3-0.3l-0.3,0.2l-0.2,0.4l-0.1,0.6l0.1,0.3l0.3-0.1l0.1,0.2l0.3-0.1l0.5,0.5l0.7,0.4l0.3,0l0.1-0.6l0.7,0
	l0.8,0.1l0.6,0l0.8,0l-0.1,0.8l0,1l0.2,0.6l0.1,0.5l-0.2,0.5l-0.3,0.8l-0.2,0.7l-0.3,0.3l-0.6-0.2l-0.3,0.2l-0.2,0.4l-0.7,0.2
	l-0.2,1l-0.1,0.6l-0.4,1.9l-1-0.1l-0.6,0.4l-1.2,0l-0.4,0.1l-0.2,0.4l-0.1,0.4l-0.5,0.3l-0.6,0.1l-0.4-0.3l-0.5-0.4l-0.2,0.2
	l0.1,0.6l-0.3,0.5l-0.5-0.3l-0.6-0.3l-1-0.4l-1.2-0.4l-0.4-0.3l-0.1-0.8l-0.1-0.6l-0.5-0.4l-0.5-0.3l-0.4-0.5l-0.4-0.4l-0.4-0.4
	l-0.6-0.3l-0.4-0.1l-0.5,0l-0.6-0.4l-0.7-0.3l-0.8-0.3l-0.9,0l-1.6,0.1l-0.2,1.2l-0.1,0.9l0.8-0.1l0.7,0.1l1.2,0.6l0.9,0.6l0.7,0.7
	l0.5,0.7l0.5,0.9l0.3,1l0.2,0.8l-0.1,0.6l-0.3,0.5l-0.6-0.2l-0.4,0.5l0.1,0.7l-0.1,1.1l0.1,1.1l0.2,0.8l0.3,0.7l0,0.6l-0.2,0.6
	l-0.2,0.5l0,0.5l0.2,0.6l-0.3,0.4l-0.6,0.4l-0.2,0.6l0.2,0.6l0.2,0.6l0.5-0.2l0.4-0.6l0.3-0.8l0.1-0.6l0-0.6l0-0.5l0.2-0.5l0.2-0.2
	l0.1,0.2l0,0.6l0.1,0.3l0.3,0.5l0.2,0.6l-0.1,0.5l-0.2,0.4l0,0.5l0.3,0.1l0.5-0.2l0.5,0.2l0.2-0.3l-0.1-0.5l0.3-0.1l0.1,0.4
	l-0.1,0.4l-0.2,0.5l-0.1,0.3l-0.1,0.5l-0.5,0l-0.6,0.2l-0.4,1l-0.2,0.8l0.3,0.4l0.4,0.4l0.2,0.5l0.5,0.3l-0.2,0.6l0.2,0.6l-0.1,0.7
	l-0.2,0.7l-0.1,0.3l0,0.5l-0.6-0.1l-0.7-0.1l-0.7,0.5l-0.2,0.6l-0.2,0.4l0,0.3l-0.5,0.4L697,207l-0.5-0.1l-0.3,0.4l-0.2,0.6
	l-0.3,0.5l0.3,0.5l0.3,0.5l0,0.6l-0.3,0.4l-0.6,0.6l-0.2,0.8l0.5,0.6l0.8,0.2l0.9-0.1l0.4-0.4l0.6-1l0.2,0.7l0.3,0.5l0.1,0.6
	l0.2,0.5l-0.4,0.5l-0.5,0.2l-0.4,0.3l-0.5,0.4l-0.5-0.1l-0.3,0.7l0,0.7l0.3,0.2l0.4,0l0.1,0.3l-0.1,1l0,0.8l-0.6,0.3l-0.6,0.8
	l-0.3,1.1l-0.4,0.8L695,223l-0.5,0.6l-0.4,0.7l-0.6,0.8L693,226l-0.2,1l-0.5,0.4l-0.5,1.1l-0.1,1l0.6,0.6l0,0.5l-0.3,0.4l-0.4,0.2
	l-0.1,0.5l0.1,0.8l-0.3,1.1l-0.3,0.9l-0.6-0.2l-0.6,0.6l-0.4,0.3l-0.4,0.4l-0.4,1l-0.6,0.1l0,0.6l-0.5,0.2l-0.4,0.1l-0.5,0.3
	l-0.5-0.3l-0.6-0.1l-0.6-0.4l-0.8-0.4l0,1.1l-0.1,0.7l-0.2,0.5l-0.3,0.5l-0.2,0.7l0.1,0.6l0.1,0.8l-0.2,0.8l-0.3,0.8l-0.8,0
	l-0.7,0.5l-0.7,0.4l-0.6,0.6l-0.3,0.9l-0.3,0.4l-0.5,0l-0.6-0.1l-0.5,0.5l-0.3,0.3l-0.5-0.2l-0.5-0.3l-0.2,0.6l-0.2,0.7l-0.3,0.6
	l-0.4-0.2l-0.4-0.7l-0.3-0.7l-0.1-0.6l-0.3-0.4l-0.8-0.3l-1.8-1.1l-1.5-0.3l-1.1-0.1l-1.2,0.5l-0.8,0l-1.2-0.4l-1.1,0.1l-0.7-0.2
	l0.2-2.3l0-2.2l0-2.1l0.1-2.7l0.2-2.1l0.2-1.9l-0.2-1.1l-0.5-2l-0.4-2.3l-0.6-3.1l-0.6-2.7l-0.2-3.3l-0.4-4.4l-0.1-3.3l0-4.3
	l0.1-2.9l-0.4-1.6l0.3-2l0.1-1.3l0.2-1.4l0.5-1l-0.5-0.9l-0.4-1.2l-0.6-1.1l-1.2,0.1l-1.5,0.5l-0.7,1l-0.6,1.1l-0.3,0.1l-0.6-0.4
	l-0.8-0.7l-1.3-0.2l-1.2-0.7l-1-0.9l-0.8-0.7l-1.2-0.6l-1.2-0.1l-0.5,0.2L648,190l-1,0.3l-0.9,0.1l-0.8,0.5l-0.4-0.1l-0.7-0.3
	l-0.4,0.3l-0.4,0.6l-0.4,0.1l-0.8-0.1l-0.6,0l-0.5,0.3l-0.3,0.3l-0.4-0.1l-0.5,0.1l-0.5,0.6l-0.5,0.7l-0.3,0.3L637,193.7z"/>
<path id="D358" class="st0" d="M209.3,298.6l0.1,0.9l0.3,0.6l-0.3,1.6l-0.5,0.7l-1.4,1l-0.5,1.2l-0.3,1.7l0,1l0.4,1.5l-0.1,0.7
	l-1,1.2l-0.6,0.1l-4.3-0.9l-0.3,0.7l0.2,0.7l-0.5,0.5l-1.4,0.3l-0.1,0.6l0.2,0.8l0.7,1.1l0.2,0.8l-0.1,0.8l-1.2,0.3l-1.3,0l-1.9,1.1
	l0.1-1.2l-1.1,0.9l-0.7,0.2l-0.5-2.8l-1.4-1.2l-0.3-0.6l0.2-1.8l0.4-0.3l0.6,0.2l0.2-1l-0.2-1.2l-1.1-1.4l-0.3-0.8l0-1.2l-1.4,0.2
	l-0.6-1.2l-0.6-0.4l-0.6,0.1l-0.8,2l-0.5,0.5l-0.6,0.2l-1.3-0.2l-1.2,0.2l-0.4,0.3l-1.5,2.4l-0.6,0.1l-3.5-1.5l-2,0l-0.7-0.3
	l-1.4-1.2l-1.1-0.7l-0.4,0.6L172,308l-0.4,1.5l-0.4,2l-0.5,0.5l0.3,1.9l-0.5,0.3l-0.5,0l-1.2,0.7l-0.7-0.2l-0.6,0.2l-0.7-0.9
	l-0.1-0.4l-1.9-0.8l-0.8,1.9l-0.5,0.6l-2.2,0.2l-1.3,0.4l-0.9,0l-0.5,0.4l0,0.8l-0.8,1.3l-0.6,0.4l-0.3-1.9l0.1-0.8l0.3-1.1l1.1-2.4
	l0.2-1.8l-0.4-0.4l-0.7,0.1l-0.6,0.4l-1,1.8l-0.7,0.6l-1,0.2l0,0.6l-0.2,0.6l-1.3,0l0-1.5l-0.3-0.5l-0.6-0.1l-0.8,0.3l-0.5-0.2
	l-0.4-1.3l-0.4-0.8l-1.2-0.9l-1.2-0.7l-2.2-0.4l-3.7-1.4l0.5,3.4l0.3,1l0,0.4l-1.2,3.7l-1.4,0.7l-0.8-0.1l-1.3,0.7l-2.7,4.1
	l-0.4,1.4l-0.4,0.6l-0.6,0.5l-2.8,0.8l-0.5,0.4l-0.5,1.1l-0.6,2.5l-1.3,1.6l0.1,1.8l0.4,1.5l-2,1.8l-0.3,2.1l-0.5,0.7l-0.3-0.2
	l-0.7-1.1l-0.5-0.3l-0.6,0l-0.5,0.6l-0.2,0.6l0,0.7l1,1.9l0,0.7l-2.3,3.6l-0.2,3.3l-1,0.1l-1.5-1.9l-0.4-1.6l-0.6-5.8l-0.2-8.4
	l-0.4-3.4l-0.7-2.3l-0.8-1.7l-1.6-2l-3.5-2.3l-2.2-2.5l-1.2-1.4l-1.3-1.8l-2.4-3.8l-1.4-2.3l-0.9-1.5l-2.1-2.6l-3-3.3l-1.5-2.2
	l-0.5-1.5l1.2-1.3l1.5-3.7l0.4-1.4l2.1-1.4l0.3-0.5l0.6-3.3l0.1-2.4l0.8-0.4l1.2-1.1l0.9-0.4l0.7-0.9l0.5-0.9l2-0.3l0.5-0.7l0.9,0
	l0.4,0.4l0.1,0.5l1.5-1l1.4-1.3l0.5,0l0.5,0.4l0.6,0.9l0.4,0l0.5-0.9l0.9-2.7l1.7,1.4l1.9,0.5l0.7-0.3l0.2-0.5l0.1-0.6l-0.3-0.6
	l-1.6-1.9l-0.3-0.5l0.1-2.2l-0.4-1.4l-0.5-0.4l-0.3-1.6l-1.7-0.7l-1.2-0.7l-1.2-0.5l-1.9-1.3l-0.8-0.7l-2.2-2.8l-1.2-1.2l-2-1.8
	l-1.4-2l-1.1-2.8l-3-5.7l-1.1-1.6l-1.5-2.9l-2.6-3.5l-0.1-1.6l0.2-0.5l1.4-1.8l0.5-1.3l0.1-0.9l-0.5-1.8l-2.1-3.7l-0.3-0.7l-0.1-1.9
	l0.5-1.6l0.7-1.7l0.5-0.6l1.7-1.6l1.4-1l0.7-0.8l0.5-0.9l0.3-1.1l0.4-4.9l-0.4-3l-0.2-4.2l0-3.1l0.2-2.2l2.6-6.6l0.4-0.6l0.1-0.7
	l1.6-0.7l3.6-1.2l2.3-0.7l0.9-0.1l0.7-0.3l0.7-0.8l0.5-0.8l1.8-2.1l1.4-2l1.1-2.3l1.1-1.8l1-3.7l2-4.6l1.5,0.5l1.9,0.8l0.2,0.8
	l0.6,0.2l0.7-0.5l0.4,0.3l0.3,1l0.5,0.2l0.2,0.5l0.8-0.1l1.3,1.4l-0.3,1.1l0.5,0.1l0.8,2.4l-0.3,0.6l0.2,0.7l0.8-0.1l0.5-0.2
	l0.2,1.1l-0.4,1.4l0.8,0.4l0.4,0.8l0.7,0.3l0.3,1l-0.2,1.4l0.5,1l0.2,1.5l0.9,1.3l0.7,0.5l0.1,0.4l-0.5,3.9l0.4,2.1l1.2,1.7l0.6,1.6
	l1.3,1.3l1.9-1.1l0.4-2.4l0.6-0.5l1.1-0.4l0.5-0.5l-0.4-2.7l-0.1-2.3l1.5-2.2h0.5l1.7,0.4l0.6,0.9l-1.3,1.9l0,1l-0.3,0.4l1.1,1
	l1.6,0.6l1.2-0.1l0.5-1.1l0-0.5l0.6-0.8l-0.6-0.2l-1.5-3.7l0-1l1.3,0l0.8-0.5l0.2-1.2l1.8-0.3l0.1,1.5l0.9,0.8l0.4,1.7l1.3,0.4
	l0.5-3.1l2.2-0.6l-0.1,1.9l1,0.1l1.1,0.9l0.2,0.6l-0.2,0.8l1.3,0.2l0.2-1.4l0.6,0.1l0.3-0.7l0.7-0.2l-0.1-1.1l1.5-0.1l0.3-0.9
	l-1.2-0.4l-0.4-2.1l1.6,0.2l2-0.5l0.7,0.6l0.7,3.2l1.1,1.6l0.4,1.2l0.1,1.4l0.9,0.9l0.4,1.8l0.7,2.1l-0.1,1.2l-0.6,1.4l-2,0.6
	l-2.1,1.2l-1.4,3l0.8,1.6l0.5,1.5l3.3,0.7l2.3,3.3l0,0.6l-0.5,0.1L170,209l-0.7,1.2l0.5,0.7l1-0.7l0.4,0.3l0,1.1l-0.3,1.1l0.9,1.3
	l1,0.7l-0.3,1.1l1.7,0.8l1.3,0.2l0.9,0.9l0.9-0.1l1-0.8l1.3,0.3l0.4,2.1l1.1,0.7l0.9-0.3l0.3,0.6l-0.7,1.4l4.2,1.7l-0.7,3.4
	l-0.1,2.2l4.2-0.6l0.3-1.1l1.2,0.2l1.1,4.3l0.5,1.9l0.5,0.6l1.1,0.6l0.5-0.1l1.3-0.4l0.3,0.5l-0.2,0.7l-0.5,0.4l1.4,2l-2.3,2.2
	l0.4,1.3l0,1.1l-0.7,0.3l-2.7,0.7l0.6-0.7l0.4-0.7l-0.2-0.4l-0.7,0.5l-1.4-0.5l-0.2,1.4l-1.8,3.5l0.6,0.9l3.1,1.5l0.6,0.6l0.1,1.9
	l-0.2,1.9l0.5,0.6l1.8,1.2l2,0.4l1.4-0.2l1.5,0.2l1.2-1.5l1.2,0.8l0.1,0.8l-1.4,1.6l0.5,2.1l0.5,0.7l0.5,1.4l1,0.5l0.7,1.5l0.3,1.5
	l4.3,2.4l-1.2,4.8l-1.1,0.4l-1.7,2.6l1.4,5.2l1.8,1.5l-1.2,3l-0.4,0.7l-1.6,0.5l0.1,1.2l1.1,1.3l0.5,0.8l-1.2,1.2l-0.4,2.1l0.8,2.8
	l1.1,2.4l0.7,1.2l0.4,0.2l0.5-0.3L209.3,298.6z"/>
<path id="D361" class="st0" d="M406.2,401.7l-0.5-0.1l-0.6,0.3l-0.6,0.9l-0.4,2.2l-0.2,0.9l-0.4,0.8l0,1.9l0.2,2.7l-1.1,1.3
	l-0.5-0.1l-0.7-0.7L401,412l0.1,0.9l-0.6,0.3l-0.5-1.5l-0.5-0.8l-1.5-1.3l0.1-1.6l-0.5-0.8l-0.6-0.4l-0.9-0.3l-1.7,0l-0.4,0.9
	l-0.6,0l-0.5-1.1l-0.6,0.1l-1.4-0.2l-0.5-0.7l-0.8-0.1l-0.4,0.2l-1.9-0.4l-1.4,0.4l-0.4,1l-0.8,0.7l-0.7,0.3l-0.5-0.3l-0.3-0.7
	l-0.9,1.2l-0.4,1.1l-0.5,0.2l-0.7-0.1l-0.5-0.4l-0.6-0.2l-3.3-0.7l-1.5-0.5l-0.3-1.2l-1.6-0.9l-0.5-0.7l-2.3-0.1L369,404l-0.9-0.5
	l-0.7-0.7l-2.2-1.3l-0.9-0.7l-0.1-1.5l-1.3-0.6l-0.7-0.6l-0.6-1.6l-1.6-1.2l-1.1-1.1l-3-4.7l-0.7-0.3l-1,0.1l-0.7,0.3l-0.4,1.1
	l-0.4-0.1l-0.9-0.8l-0.6-1.3l1.3-3.7l-0.2-0.9l-0.4-0.9l-0.1-1.1l-0.3-0.4l-0.8,0.1l-0.6,0.8l-1.2,0.4l0.1,0.6l0.8,1l0.5,1.6l0.1,2
	l-0.8,0.7l-1.3-0.6l-1.2,0.2l-0.9-1l-0.7-1.1l0.7-1.2l0-0.6l-2.4-1.7l-0.3,0.6l0.3,0.7l-0.1,1.5l-1.2,0.6l-1.7,1.1l-1,0l-2.7-1
	l-1.3-1.1l-0.9-0.3l-0.6,1l-0.8,0.2l-0.8-0.1l-0.8-0.4l-0.5-0.8l-0.5,0.7l-0.3,1.6l-2.4-1.8l-0.6-0.6l-2.4,0.1l-1.5,0.6l-0.6-0.2
	l-1.5-1.7l-0.8-0.4l-1.5-0.5l-2-0.3l-2.5-1l-1.2-0.3l-0.7,0l-0.2-0.2l-0.1-0.6l-0.3-0.6l-3-1.8l0.1-1.3l-0.7-1.7l-0.6-1.1l0-0.7
	l-0.6,0.1l-2.8-0.1l-0.8-0.5l-0.7-2.3l0-1.2l0.2-0.9l0.9-1.5l0.3-0.9l1.2,0.1l-0.2-0.7l0.3-0.4l-0.2-1.1l0.5-1.8l0.5-0.2l1.4-1.4
	l0.1-0.6l-0.3-0.2l-0.9,0.5l-0.6-0.3l-0.4-0.9l0.5-1.8l-0.2-0.3l1.2,0.1l3.8,0.4l2.4,1l3.8,0.6l1.9-0.8l2.7-1.3l2.5-0.4l1.9,1
	l2.6,1.5l1.5,0.5l2.8,1.1l1.7,1.2l4-1.7l2.1-1.1l0.2-1.9l-0.2-4.3l0.6-1l0.3-0.8l0.5-0.2l0-0.3l0.5-0.7l0.4-0.5l0.4-0.7l0.9-1.6
	l0.4-0.8l0.4-0.8l0.1-0.5l-0.1-0.9l-0.4-0.6l-0.6-0.6l-0.2-0.5l-0.3-0.9l-0.8-0.8l-0.3-0.3l-0.5-0.4l-0.2-0.3l-0.3-0.4l5.7-3.3
	l2.4-5.3l2.7-5.6l3.7-5.9l4.4-5.2l4.5-2.8l4.3-2.5l0.6,0.3l-0.1,0.3l0,0.8l0.4,0.5l1.1,0.7l0,0.9l0.5,0.4l0.2,0.4l-0.4,0.4l-1.1,0.7
	l-0.4,0.8l-1.5,0.8l-0.8,0.6l-1.8,1.6l-1.2,1.4l-0.3,1.8l0,1.1l0.4,0.7l0.5,1.6l-0.2,1.2l-0.4,0.3l-3.2,1.5l-0.6,0.4l-0.5,0.8
	l-0.4,1.2l1.4,0.7l0.1,0.7l0.9,2.1l0.1,0.7l-0.6,1.3l0.4,1.7l0.5,0.8l0.5,0.4l0.2,0.7l0.5,0.2l0.3,0.3l0.4,1.5l0.8,0.3l0.6-0.1
	l0.8-0.8l1.2-0.7l0.4-0.6l0.6-3.2l0.8,0l0.7-0.2l0.4,0.3l0.2,1.7l-0.7,1.2l0,1.9l-0.2,1.6l-1.1,0.9l-0.6,1l-0.6,0.7l-0.2,0.6
	l-0.4,0.6l-2,0.9l0,3.6l0.7,1l0.2,2.3l-0.1,2l-0.2,2l-0.3,0.6l-1.2,1.3l0,0.6l1.2,1.9l0,0.9l-0.4,0.6l0.1,1.9l-0.2,7.2l0.2,1.3
	l0.5,0.1l0.5,0.3l0.6,0.6l0.8,1.4l0.3,0.9l0.5,0.5l1.1,0.6l0.5,0.5l1,0.3l1.3-2l0.4-0.9l0-0.6l-0.2-0.6l0.2-0.5l0.5,0.1l0.3-0.4
	l-0.1-0.5l0.5-0.5l0.7-0.2l0.2-0.6l-0.1-0.7l0.2-0.7l0.6-0.2l0.5,0.5l0.7,0.7l1.2-0.8l0.4,0.2l0.4,1.1l1,1l0.4,0.1l0.7-0.4l0.7-1.3
	l0.7-2.3l0.5-0.5l0.7,0.1l0.7-0.2l1.6-1.5l0.6-1.6l0.4-2.3l0.4-1.2l0.5-0.1l0.6,0.5l0.5,1l0.3,1.2l0.1,0.7l-0.3,3.4l0.5,0.9l1.1,0.4
	l0.3,0.5l0.2,0.9l1.2,1l-0.6,1.3l0.7,0.4l-0.2,1.5l0.7-0.4l0.1,0.1l0.3,1.1l0.5,0.4l0.4,1.2l0.5,0.8l0.1,1.9l0.7,3.5l0.6,0.1
	l0.6-0.2l0.5,0.4l1.3-0.1l0.9,1.6l0.3,0.9l-0.4,0.1l-0.3,1.4l-1.8,0.7l-0.5,0.7l1.1,2.1l0.6,0.1l1,0.7l0.2,0.7l-0.5,1.4l-0.1,0.8
	l0.1,0.6l0.5,0.5l1,0.2l0.7,0l0.5-0.3l0.7-0.5h0.4l0.6,0.3l0.3,0.5l0,0.4l1.1,0.3l0.1,0.5l0.7,0.5l0.1,0.4l0.3,0.1l0.1,0.3l-0.2,0.5
	l0.6,0.3l0,0.4L406.2,401.7z"/>
<path id="D364" class="st0" d="M399.1,448.7l0.2,5.1l-0.2,0.8l0,0.7l0.3,0.9l0.1,0.9l-0.3,1.4l0.1,0.5l0.4,0.1l1.3-0.4l1.2,0.3
	l0.8-0.4l0.4,0.4l2.6,3.9l0.1,0.4l-0.2,2l0.1,0.5l1.4,1.1l0.4,0.3l-1-0.1l-0.1,0.5l-0.5,0.5l-0.5-0.1l-0.7,0.4l-0.5,0.5l-0.2,0.8
	l0.2,1.5l0,1.1l-0.3,0.5l-0.6-0.1l-1-0.7l-1.1,2.1l-0.7,0.2l-0.6,0.7l-0.3,1l0,0.8l-0.3,0.5l-0.5,0.4l-0.1,0.8l-0.8,1.3l-0.6,0.2
	L397,481l-1.2,3.6l-0.7,0.1l-0.7,0.3l-0.5,0.6l-0.3,0.9l0.2,0.7l1.1,0.5l0.6,2l0.4,1.9l0.7,1.7l0.3,2.8l0.4,1.2l0.1,0.6l-0.1,0.2
	l0.5,1.1l1,1.1l1.4,0.7l0.9,0.2l0,1.5l0.5,3.6l0,2.8l0.3,0.7l1.6-0.3l0.1,0.7l0.6,0.7l0.2,0.9l0.7,0.5l0.2,0.5l-0.5,0.6l-0.5,1.8
	l0.2,0.5l-0.1,0.7l-1.5,1.5l-0.4,0.8l0.4,0.8l0.5,1.9l-0.7,0.6l-1.2-0.1l-1.8-1.1l-0.4-0.5l-0.3-0.9l0.3-1.1l0-0.6l-1.2,0.2
	l-0.8-0.2l-0.7-0.4l-1.1,0l-1.5-0.6l-1.9-1.9l-1.1-0.5l-1.1,0.1l-0.8-0.8l-0.3-0.8l-0.6-0.7l-1.7,0.2l-0.7-0.7l-0.9-0.7l-1.5-0.5
	l-1.6,0l-2.5-0.3l-1.1,0.6l-0.7,0.8l-1.5,0.4l-1.3-0.1L372,511l-0.7,0.2l0.3,2l-0.5,1.2l-0.8,0.3l-1.9,0.1l-1.8,0.5l-0.4-0.3
	l-0.3-0.5l-0.3-0.5l0.1-0.5l0.1-0.7l-0.1-0.7l-0.3-0.1l-0.2-1l1.9-6l-0.6-3.4l-3.2-5.7l-2.1-8.6l1.5-2.9l2-7.5l-1-2.2l-6.8-2.9
	l-1.5-6l2.4-11.3l3-7.5l0.5-1.7l-0.8-0.2l-1.9-1.2l-0.6-0.6l-0.3,0.3l-0.8-0.5l-1,2.1l0.4,0.8l0.4,0.5l0,1.3l-0.3,0.4l-0.5,0.3
	l-0.6-0.1l-0.4,0.2l-1.1-0.1l-1.6-1.9l-0.9-0.1l-0.7,0.4l-1,1.2l-0.7,0.6l-0.8,0.2l0,0.8l0.3,0.8l0.7,0.5l0.2,0.6l-0.2,0.6l-0.5,0.5
	l-0.9,0.3l-0.7,1l-0.5,0.2l-1.8-0.1l-0.4-0.4l-0.9,2.5l-0.5,2.1l0.5,1.7l0.6,0.6l-0.6,1.4l-1.7,0.7l-1.5-0.3l-1.1,0.9l-0.5-0.3
	l-0.4,0l-1.1,0.4l-1.4-0.1l-1-0.7l-1-0.2l0.1-1.3l-0.1-0.6l-0.4-0.6l-1.2-0.1l-0.7-0.5l-1.2,1l0.1,0.7l-2.5,0.1l-0.6,0.3l-0.4-0.7
	l-0.1-1.1l-0.9-0.3l-0.4-0.4l-0.5-1.9l-0.7-0.4l-0.5,0.2l0.7,1.6l-0.4,0.7l-0.2,0.6l0,1.2l-0.8-0.1l-0.7,1.7l-0.3-0.1l-1.2-1.7
	l-1.4-0.8l-1.7-0.6l-0.3-1l-1.3-1.4l-0.3-0.6l-0.4-2.1l0.1-1.5l-0.6-0.2l-0.8,0.2l-0.6,0.6l-0.2,0.7l-1.8,0.3l-0.9,0.4l0.1,2.3
	l-0.2,0.6l-0.6,0.4l-0.7,0.2l-0.8,0l-1-0.3l-1.1-1.5l0.5-0.7l0.5-0.1l0.9-0.9l0.3-2.5l-0.5,0.2l-0.6-0.3l-0.3-0.6l-0.2-0.9l0.5-0.8
	l0.7-0.7l-0.6-1.3l0.1-2l-0.2-1l-0.8-0.1l-0.5,0.1l-0.5-0.2l-1.5-1.2l-0.5,1.9l-2.1-0.5l-0.5-0.5l-1.1-0.1l-0.2-0.4l-1.1-1l-0.7-0.2
	l-0.5-0.3l-0.3-0.5l-0.1-0.7l-0.4-0.3l-0.6,0l-0.5,1l0.4,0.6l-0.1,0.9l-1.5,0.8l0,1.1l-0.4,1.3l-1.2,0.2l-0.6,0.4l-0.8,1.1l-2.2-0.3
	l-1.6,0.5l0.3,0.8l-0.6,0.5l-0.6,0l-0.5-0.2l0,1l-0.5,0.1l-0.1,0.3l0.3,0.4l-0.2,0.5l-0.5,0.2l-0.8,0.9l-1.5,1l-0.3,0.8l-0.4,0.5
	l-1.4,3.2l-1.1,0.8l-0.2,1.6l-0.6,1.1l-0.1,0.5l0.3,0.9l0.4,0.6l0.5,0.5l0.6,0.3l0.7,1.4l0.1,1.4l0.2,0.7l-0.9,0.7l-0.1,0.6
	l-0.6,0.2l0.2,1.5l0.7,1.8l0.1,0.8l-0.3,0.6l-0.6,0l-0.4,0.2l-0.2,0.6l-1.5-0.3l-0.5,0l-0.5,0.3l-0.6,0.1l-0.2,0.4l1.1,2.3l-0.2,0.9
	l0.6,1.3l-0.2,0.5l-1.7,0.3l-2.5-0.1l-0.3,0.8l-0.9,1.3l-0.3,1.3l0.2,0.6l-0.1,0.7l-0.4,1.1l0,0.7l0.3,1.4l-0.2,0.8l-0.6,0.8l0,1.3
	l-1-0.1l-0.1,1.6l-0.5,1.2l-0.5,0.1l-0.5-0.4l-0.7,0l-0.5,1.2v0.7l0.2,0.7l-0.5,0.2l-1.1-0.4l-0.5,0.2l-0.4,0.4l-0.5,0.7L264,497
	l-0.1-0.7l-0.7-0.5l-0.3-0.6l0.8-1.5l-0.1-0.4l-0.8-0.9l-0.4-0.7l-0.3-0.3l-0.3,0.1l0.1,1l-0.4,0.3l-0.6-0.1l-0.7,0.2l-0.5-0.4
	l-0.5-1.3l-0.4-1.5l-1.1-1.1l-0.1-1.5l-1-0.9l-2.5-1.1l-0.5-0.6l-0.1-1.8l-0.4-1.5l-0.5-1l-0.1-0.9l0.3-0.8l2.9-0.4l0.7,0.2l0.7-2.1
	l-0.2-0.4l-1.2-1.3l-0.1-0.5l0.2-2l-0.5-0.8l-0.2-1.3l0.7-2l0.3-2.6l0.3-1.3l0.8-0.7l1.1,0.2l2.1,0.6l0.6-1.7l0.1-2l-1.2-0.6
	l-0.4-0.4l-0.1-0.6l0.3-0.2l0.6,0l2.5-1.4l0.5-1.2l0.9-0.2l0.8-1.9l0.1-1.1l-0.1-0.6l-0.9-0.6l-0.8-0.2l-1.3-1.1l-1.2-0.4l-1.5-0.9
	l-0.2-1.3l0.5-0.5l-0.1-0.5l-0.9-0.7l-1.2-0.4l-0.3-0.3l-0.1-1.1l0.2-2.3l0.3-1.5l1.5-2.4l1.7-1.8l0.4-0.6l0.1-0.4l-0.9-1.9
	l-0.5-0.1l-0.9-1.3l-0.9,0.5l-1.1,0.9l1.4-4.6l-0.3-2.2l-0.1-2.1l-2-1.1l-0.6-0.1l-0.3-0.4l-0.2-0.6l1.6-2.1l-0.7-2.1l-0.5-1.1
	l0-0.7l0.6-0.3l0.7-0.7l0.5-1l-0.2-0.5l0-1l-0.2-0.5l0.1-0.8l0.5-1.3l0.8-1.4l0.8-1.7l1.7-1.9l0.7-2.1l0.5-0.2l0.3-0.5l0.5-1.4
	l0.9-1.6l0.5-2.2l-0.2-0.7l-0.6-1.1l-0.2-1.9L261,392l-1.5-0.2l-0.9-2.3l-0.3-0.5l-2.1-0.6l-0.8-1.3l-0.6-0.4l0.1-1.2l1,0l0.5-0.2
	l0.8-4l0.6-0.6l0.4,0.6l0,1.2l0.2,1.3l-0.1,3.1l0.1,1l0.3,0.6l0.7,0l0.6-0.6l0.5-1.4l1.6,0.5l0.2-2.5l-0.3-0.8l-0.1-1.1l0.2-1
	l1.4-4.8l0.2-1.4l-0.5-2.5l0-2.5l-0.1-0.8l-3-2l-0.4-0.5l-0.1-0.7l0.8-2.3l-0.3-0.6l0.1-0.5l0.6-1.1l1.3-1.4l-0.3-1.2l0.2-0.7
	l1.1-0.6l0.3-0.7l0.8-0.8l1.1,0.9l0.8,0.3l0.4-1.2l0.1-1l-0.3-1.4l0.7-0.3l0.6,0.1l0.5,1.4l0.4,0.4l1.4,0.5l0.3,0.7l0.4,2.1l0.8,1.6
	l1.5,0.6l0.6-1.7l0-1.2l0.6,0.3l0.3,0.9l2.8-0.5l0.4-0.7l0.4-1.3l0-0.8l0.8-0.5l0.3-0.4l0.2-0.7l0.6-0.5l0.3,0.7l0.3,0.2l1.6-0.5
	l0.3,0.7l-0.1,0.8l0.2,1l-0.7,0.4l-0.9-0.1l-0.5,1l0.2,0.8l0.9,1.1l1.1,0.9l1.1,1.2l-0.2,0.8l1.1-0.2l2.3,0.4l1.2,0.7l2-0.5l0.6,0.1
	l0.7-0.4l3.8-0.8l0.6-0.5l1.2,1.6l1.1-2.5l0.2-1.2l1-1.5l1.2-3.6l1.5,0.4l3,1.5l1,0.1l0.2,0.3l-0.5,1.8l0.4,0.9l0.6,0.3l0.9-0.5
	l0.3,0.2l-0.1,0.6l-1.4,1.4l-0.5,0.2l-0.5,1.8l0.2,1.1l-0.3,0.4l0.2,0.7l-1.2-0.1l-0.3,0.9l-0.9,1.5l-0.2,0.9l0,1.2l0.7,2.3l0.8,0.5
	l2.8,0.1l0.6-0.1l0,0.7l0.6,1.1l0.7,1.7l-0.1,1.3l3,1.8l0.3,0.6l0.1,0.6l0.2,0.2l0.7,0l1.2,0.3l2.5,1l2,0.3l1.5,0.5l0.8,0.4l1.5,1.7
	l0.6,0.2l1.5-0.6l2.4-0.1l0.6,0.6l2.4,1.8l0.3-1.6l0.5-0.7l0.5,0.8l0.8,0.4l0.8,0.1l0.8-0.2l0.6-1l0.9,0.3l1.3,1.1l2.7,1l1,0
	l1.7-1.1l1.2-0.6l0.1-1.5l-0.3-0.7l0.3-0.6l2.4,1.7l0,0.6l-0.7,1.2l0.7,1.1l0.9,1l1.2-0.2l1.3,0.6l0.8-0.7l-0.1-2l-0.5-1.6l-0.8-1
	l-0.1-0.6l1.2-0.4l0.6-0.8l0.8-0.1l0.3,0.4l0.1,1.1l0.4,0.9l0.2,0.9l-1.3,3.7l0.6,1.3l0.9,0.8l0.4,0.1l0.4-1.1l0.7-0.3l1-0.1
	l0.7,0.3l3,4.7l1.1,1.1l1.6,1.2l0.6,1.6l0.7,0.6l1.3,0.6l0.1,1.5l0.9,0.7l2.2,1.3l0.7,0.7l0.9,0.5l0.9,0.3l2.3,0.1l0.5,0.7l1.6,0.9
	l0.3,1.2l1.5,0.5l3.3,0.7l0.6,0.2l0.5,0.4l0.7,0.1l0.5-0.2l0.4-1.1l0.9-1.2l0.3,0.7l0.5,0.3l0.7-0.3l0.8-0.7l0.4-1l1.4-0.4l1.9,0.4
	l0.4-0.2l0.8,0.1l0.5,0.7l1.4,0.2l0.6-0.1l0.5,1.1l0.6,0l0.4-0.9l1.7,0l0.9,0.3l0.6,0.4l0.5,0.8l-0.1,1.6l1.5,1.3l0.5,0.8l0.5,1.5
	l0.6-0.3L401,412l0.3-0.2l0.7,0.7l0.5,0.1l1.1-1.3l0.3,3.7l1.4,0.3l0.3-0.4l0.6,0.5l0.5,0.9l-0.5,0.3l-0.1,0.3l1.1,2.6l-0.4,0.7
	l0.1,0.5l1.2,0l0.6,0.3l0.2,0.5l0,1.3l-0.4,0.2l-1.2-0.9l-1.6,1.1l-1.3,0.7l0.1,0.7l1,0.9l0,0.3l-0.3,0.6l0.1,4.5l0.6,0.3l0.3,0.5
	l0.1,0.5l-0.4,0.6l-1.1,1l-1.1,0.2l0.1,2.4l-0.6,0.5l-0.8,1.3l-1.2,1l-0.4,1.1l-0.4,0.5l-0.8,0.3l-1.1,3.5L399.1,448.7z"/>
<path id="D352" class="st0" d="M648,54.3l-0.1-5.6l0.2-1.8l-0.1-1.9l2.3-4.3l1.1,0.5l0.1-0.6l0-0.6l-0.6-1.2l0.4-0.8l-1-0.4
	l-0.9-3.5l0.7-0.2l0.6-1.8l1.3,2.6l2.1,0l1.9,2.3l0.6,0.3l0.9-0.1l0.6-0.3l-0.2-3l0.4-1.6l0.5-3.8l0.4-0.2l0.1-1.5l3-0.6l0.7-1.3
	l1.2-0.7l-0.1-0.6l0.2-0.3l1.2,1.6l-1.1,1.7l0.1,0.9l1.2,0.9l0,0.4l1.6,1.5l1.1,0.7l1-0.8l1.4,1l0.5-1l0-0.6l0.9,1.4l0.3-0.1l2.7,1
	l1.1-0.5l3.8-0.1l0,0.4l-0.5,0.1l0,0.7l1.2-0.1l0.8,0.3l-0.3,0.9l0.5,0.6l-0.7,0.8l-0.2,1.3l0.3,0.7l0.8,0.5l0.7,0.2l0.8,0.6
	l0.3,0.6l-0.2,2.3l0.1,0.7l2,0.6l1.5,0.1l4.8,0.8l1,0.5l2.2,0.1l0.1,0.6l0.2,0.5l0,0.8l0.3,1.6l0,1.6l-0.4,2.3l-0.1,1.9l-0.6,2.9
	l-0.2,1.7l-0.9,3.5l-0.3,1.5l0,2.7L693,68l0.1,2.5l0.4,3.2l0.6,1.6l0.5,0.8l2,2.3l1.1,0.9l3.1,2l2.2,0.9l1.2,1l1.9,1.2l1.4,1.3
	l1.9,2.4l0.6,1.3l-0.1,0.2l1.8,2.3l1.4,1.9l0.1,0.2l0.5,2.5l1.1,1.4l0.8,1.2l0.9,1.1l0.9,1.1l1.3,1.2l1.1,1.4l0.6,0.7l0.9,0.8
	l0.8,1.1l0.7,1.3l0.5,1.2l0.1,1.5l0.1,1.2l0.2,1.3l0.2,1.4l-0.2,1l-0.4,1.3l-0.4,0.8l-0.8,0.5l-1.3,0.4l-1.2,0.8l-1.2,0.6l-1.2,0.8
	l-1.1,1.1l-1.6,0.9l-2.2,0.3l-1.2,0.3l0.4,1l0.5,0.1l0.5,1l-0.1,0.2l-0.2,0.4l-0.1,1.2l-0.2,1l0.3,0.3l0.4,0.6l-0.3,0.4l-0.8-0.1
	l-0.6,0.7l-0.7-0.1l-1.1-0.5l-0.8-0.1l-0.2,0.1l-0.2,0.5l0.3,0.5l0.3,0.6l0.3,0.7l0.1,0.9l0,0.5l0.5,0.4l0.3,0.4l0,0.6l-0.1,0.9
	l-0.3,0.8l-0.3,0l-0.1-0.4l-0.3,0.2l-0.3,0.8l-0.2,0.9l-0.3,0.8l0.2,0.5l-0.2,0.4l-0.8,0.5l-0.2,0.8l-0.6,0.7l-0.7,0.6l-0.5,0
	l-0.7-0.4l-0.5-0.5l-0.5,0.4l-0.2-0.5l0-0.8l0-1l0.4-0.5l0.3-0.6l-0.1-0.9l-0.1-0.6l-0.6,0l-0.6,1l-0.2,1.3l-0.1,1l-0.3,0.5
	l-0.5,0.5l-0.6,0.1l-0.3,1.3l-0.3,1.3l0.3,0.3l0.7,0l0.7,0l2.2,2.8l0,1.3l0.4,0.6l0.5,0.7l0.2,0.8l-0.3,0.8l-0.6,0l-0.5-0.5
	l-0.5-0.6l-0.6-0.4l-0.8,0l-0.8,0.5l-0.7,0.2l-0.9,0l-0.9-0.3l-0.5,1l-0.5,0.6l-0.5,0.3l-0.2-0.6l-0.1-0.9l0.2-0.7l0.3-0.6l-0.2-0.5
	l-0.3-0.7l-0.3-1.1l-0.2-0.9l-0.3-0.8l-0.5-0.6l-0.5-0.5l-1.4,1.1l-1.3,0.6l-1.5-0.9l-1-0.7l-0.4-0.5l0.3-0.5l0.8-1.2l-0.1-0.5
	l-0.9,0l-0.7,0.8l-0.4,0l-0.4,0.9l-0.5,1.2l-0.6,1.4l-1.1,1.2l-0.4,0.9l-0.3,0.7l-0.5-0.2l-0.2-0.6l0-0.6l-0.6-0.3l-0.6-0.4
	l-0.3-0.2l-0.5-0.5l-0.3-0.3l-0.5,0l-0.5,0.3l-0.6,0.1l-0.1-0.5l0.2-0.7l-0.3-0.3l-0.6-0.8l-0.9-0.8l-0.5-0.5l-0.5-0.5l0,0.5
	l-0.5,0.5l-0.8-0.6l-1-0.8l-0.9-0.2l-0.6-0.2l-0.6,0l-0.6-0.5l-0.8,0.1l-0.3-0.6l-0.7-0.3l-0.8-0.4l-0.5-0.8l-0.1,0.6l-0.7-0.2
	l-0.2-0.5l-0.1-0.5l-0.1-0.5l-0.5-0.1l-0.8-0.3l-0.9-0.3l-0.4-0.4l0.1-0.5l0.2-0.5l-0.4-0.4l0.2-0.6l0.9-0.2l0.7,0.4l0.5,0.5l1,0.6
	l0.9,0.4l0.5,0.3l-0.1-0.6l-0.7-0.4l-0.6-0.6l-0.7-0.7l-0.9-0.6l-1.1-0.6l-0.8,0l-1,0.2l-0.8,0.1l-0.9-0.3l-0.9-0.9l-0.8-0.8
	l-0.8-1.2l-0.5-0.8l-0.5,0l-0.9,0.9l-0.9,0.4l-0.1,1.4l0.2,1.2l0.2,1l-0.5,0.7l-0.8,0.2l-0.9-0.1l-0.9,0l-1.1,0.2L652,134l-0.9-0.7
	l-0.5-0.9l-0.5-1l-0.7-0.7l-0.4-1l-0.1-0.9l-0.6-0.8l-0.2-1.2l0.2-1.4l0-0.5l-0.5-0.6l0.1-0.9l-0.7,0.1l0.3-0.5l0.7-0.2L648,122
	l-0.5,0l-0.8,0.4l-0.6-0.9l-0.8,0.2l-0.1-1.9l1.3-0.5l0-0.7l-0.6-0.7l-0.7-0.9l-0.5-0.8l-0.3-1.1l0.8-0.4l0.6-0.5l0.5-0.8l0.3-0.9
	l0.1-0.9l0.1-1l-0.8-0.2l-0.7,0.1l-0.1-1.3l0-1l0-1l0.5-0.9l0-1.1l0.6-0.9l-0.1-1.1l0.9-0.3l0.2-1.5l0.2-1.3l0.4,0.1l0.1-0.9l0-1.1
	l-0.1-0.9l-0.6-0.6l-0.6-0.4l-0.3-0.6l0.3-0.8l1-1.4l1.2-2.2l0.9-0.7l0.5-0.1L651,90l1.1-1.7l0.8-2.6l-0.6-2.4l0.4-0.8l0.1,0.2
	l0.7,0.1l0.7-0.6l0.6-0.1l-0.5-0.8l-1.2-0.8l-1.4-1.9l-0.6-1.5l-0.5-0.6l-0.4-1.7l-0.9-0.9l-1.1-0.5l-0.5-1.1l3.6-6.3l-0.8-3.2
	l-1.7-4.5L648,54.3z"/>
<path id="D369" class="st0" d="M434.1,589.2l-0.6-1l-0.7-0.2l-1-0.7l-1.2-1.2l-3.1,4l1.5,1.9l-0.9,2.8l-1-0.8l-1,1.2l-1,0.7l-0.3,0
	l-0.6,1.2l-0.4,0l-1.3-0.3l-0.5,0.2l-1.7,2l-0.4,1.2l-0.1,0.7l0.2,0.8l0,0.8l-0.9,0.7l-2.1-1.5l-2.6-1.3l-1.3-0.8l-0.8-1.3l-1.7-1.3
	l-0.3-1.5l-1.6-1.3l1.2-3.6l-0.5-0.9l-1.4-1.4l-0.8-0.4l-0.9,0.3l-0.8-0.5l-0.5-0.7l-0.1-0.7l0.4-0.9l2.1-1.5l0.9-0.1l0.6-0.4l0.3-1
	l0-1l1.2-2.8l-0.7-0.6l-0.9-0.1l-1-0.6l-0.8-0.8l-0.6-1l-1,0.4l-0.9-0.2l-0.5-0.8l0.7-2l0.5-0.7l-0.2-0.7l-0.6-0.7l-0.4-1.2
	l-0.1-1.2l-0.7-1.7l0-1l0.7-2.8l0.1-1.3l-0.1-0.9l-0.3-0.7l-0.7-0.6l-0.2-0.4l0.4-0.5l0.4-0.8l0-1l-0.5-0.9l-0.6-0.7l-0.8-0.8
	l-0.4,0.4l-0.9,2.5l-0.8,0l-0.7-0.6l-1-1.5l-0.5-0.2l-0.6,0.4l-0.5,0.6l-0.7,0.4l-1,0.2l-1.6-0.9l-0.5,0.1l-0.2,0.7l0.5,0l0.1,0.7
	l-1.1,0.6l-1.7-0.5l-0.3,2.1l-1.5-0.4l-1.1,0.1l-0.9-0.1l-0.7,0.4l-0.5,1.2l-1,0.5l-0.4-0.1l-0.5,0.8l-0.6,0.3l-1-0.4l-0.5-0.9
	l-0.8-0.2L379,560l-0.5-1.1l-0.1-1.3l-0.4-1l-0.8-0.8l-1.2-1.8l-0.3-0.8l0.6-2.3l0.8-1l0.6,0l1,0.5l1.2,0.1l0.8-0.6l0.4-2.1
	l-1.2-0.5l-0.9-0.9l-0.6-1.3l-0.4-1.5l-0.3-2.5l0.4-2.8l0.4-1.1l-0.5-0.9l-0.7-1.1l-1.7,0l-0.8-1.5l-0.9-0.7l-0.8-0.3l-0.4-0.7
	l-0.3-1l-0.4-0.6l-0.7-0.1l-0.5-0.6l-0.3-1l-0.6-0.1l-1,0.5l-1.4-0.1l-1.1,0.1l-0.4,1.2l-1,2.4l-0.5,0.9l-2.4-0.4l-2.7-0.8l-1.1-0.2
	l-0.7,1.3l-0.8,0.9l-1.3-0.4l-1.4,0.6l-0.6,2.6l-1-0.2l-2.1-0.1l0-2.4l-0.3-1.7l0.9-0.3l0.1-1.2l0.3-1.4l0.8-0.3l0.6-1.7l-0.3-2.1
	l0.6-0.4l0-0.6l1.1,0.5l0.4-0.8l0.8-1l1.7-1.2l0.1,1.3l0,1.7l0.2,0.9l2.8-0.9l1.2-3l0.5-0.9l1.4-1.3l0.5-0.8l-1.9-0.6l-1.2,0.1
	l-0.2-0.3l-0.2-1.2l0.4-0.9l1.5-2.4l2.1-2.8l1.1,0.5l0.3,0.1l0.1,0.7l-0.1,0.7l-0.1,0.5l0.3,0.5l0.3,0.5l0.4,0.3l1.8-0.5l1.9-0.1
	l0.8-0.3l0.5-1.2l-0.3-2l0.7-0.2l2.4,0.6l1.3,0.1l1.5-0.4l0.7-0.8l1.1-0.6l2.5,0.3l1.6,0l1.5,0.5l0.9,0.7l0.7,0.7l1.7-0.2l0.6,0.7
	l0.3,0.8l0.8,0.8l1.1-0.1l1.1,0.5l1.9,1.9l1.5,0.6l1.1,0l0.7,0.4l0.8,0.2l1.2-0.2l0,0.6l-0.3,1.1l0.3,0.9l0.4,0.5l1.8,1.1l1.2,0.1
	l0.7-0.6l-0.5-1.9l-0.4-0.8l0.4-0.8l1.5-1.5l0.1-0.7l-0.2-0.5l0.5-1.8l0.5-0.6l-0.2-0.5l-0.7-0.5l-0.2-0.9l-0.6-0.7l-0.1-0.7
	l-1.6,0.3l-0.3-0.7l0-2.8l-0.5-3.6l0-1.5l-0.9-0.2l-1.4-0.7l-1-1.1l-0.5-1.1l0.1-0.2l-0.1-0.6l-0.4-1.2l-0.3-2.8l-0.7-1.7l-0.4-1.9
	l-0.6-2l-1.1-0.5l-0.2-0.7l0.3-0.9l0.5-0.6l0.7-0.3l0.7-0.1l1.2-3.6l0.5-1.1l0.6-0.2l0.8-1.3l0.1-0.8l0.5-0.4l0.3-0.5l0-0.8l0.3-1
	l0.6-0.7l0.7-0.2l1.1-2.1l1,0.7l0.6,0.1l0.3-0.5l0-1.1l-0.2-1.5l0.2-0.8l0.5-0.5l0.7-0.4l0.5,0.1l0.5-0.5l0.1-0.5l1,0.1l1.7,0.7
	l1,1.2l0.7,1.7l0.5,0.8l0.4-0.3l0.3,0.8l0.3,0.2l0.1-0.7l0.6-0.3l1.6,0.2l1.1,0l0.4-0.3l0.2-0.6l0.6-0.8l0.7-0.3l0.5-0.1l1.7-0.1
	l1.7-1.2l1.2-0.1l0.8,0.4l1.1-0.4l0.5,0.3l0.5,0l0.6,0.7l0.6,0.2l1-0.5l0.5-0.5l0.6,0.1l0.7,0.3l0.8,1.5l1,1.4l0.1,0.9l-0.4,0.8
	l-0.3,1.8l0.6,0.6l1.7,0.6l1.6,0.8l1.7-0.6l0.3,0.7l0.1,0.5l1.2,1.6l0.8-0.2l1.2,0.6l0.2-0.3l1.2-0.3l0.2-0.3l1.8,0.9l0.2,0.7
	l1.2,0.5l0.2,0.5l-0.7,2.1l0.1,1.4l0.5,0.7l1.2,0.7l0.3,0.6l0.3,2.4l0.6,0.7l1-0.4l0.3,1.1l0.7,1.4l0.9,0.8l0.5,2l0.4,0.3l0.4-0.3
	l3-0.4l0.5,0.4l-0.6,0.7l0.5,2.4l0.4,0.8l0.9,0.4l0.7,0l1.5-0.3l0.6,0.1l0.5-0.2l0.3,0.9l0.6,0.7l-0.2,1.5l-0.5,1.1L460,504
	l-0.9,0.1l-0.7-0.3l-1,0.2l-0.5,0.9l-1.8-0.3l-1.3,0.1l-1.4,4.3l0.8,0.4l-0.3,2.2l0.4,1l-0.4,0.6l-0.3,0.8l0.4,2.7l-0.1,1.1l0.3,1
	l0.5,0.3l0.5-0.3l1.6,1.3l0.5,0l1,0.4l-1.2,3.5l-0.5,0.3l-0.9,1l-0.4,1l0.1,2.9l-0.1,1.5l0.2,0.6l-0.7,1.9l0,1.9l-1.6-0.9l-0.5-0.4
	l-1-1.7l-2.2-0.9L448,532l0,2.2l-0.1,0.6l-1.4,1.4l-0.4,1.6l0.2,1.3l0.2,0.4l1.6-0.8l0.4,0.4l0.6,1l0.5,0.2h0.5l0.2,0.6l0.1,1.2
	l-0.4,4.3l-0.8,0.4l-0.6,1.1l-0.4,1.6l0.2,0.4l0.1,2.1l0.5,0.4l0.2,1.8l-0.5,1.6l0.3,5.2l0,3l0.7,1.3l-1.2,3.1l-0.6,1l-0.1,2.8
	l-1.1,1.1l-0.7,1.3l-1,1.3l-2.9,2.5l-0.7,1.8l-1,1.1l-0.9,1.5l-3.7,3.2l-0.8,1L434.1,589.2z"/>
<path id="D367" class="st0" d="M282.6,603.3l-1.7-0.2l-0.7,0.4l-0.7,0.1l-0.7,0.4l-0.3-0.4l-0.3,0.1l-0.3,1.4l-0.5,0.3l-1,0.2
	l-3.2,1.8l-1,0l-2.5,1.5l-2.7,1.5l-0.4,0.4l-0.4,0.6l-0.3-0.1l0.1-1.2l-0.1-1.5l-0.8,0.3l-1,0.7l-1.4,1.6l-0.9,0.6l-1.2,0.5l0.1,1.2
	l0.3,0.5l-0.5,0.5l-1.3,0.8l-2.1,0.3l-2.1,0.1l0.3-1.7l-0.1-0.6l-0.3-0.6l-0.3-2.1l-0.2-0.1l-0.2,0.4l-0.6,0.6l-1.1,0.7l-1.3,0.5
	l-1.1-0.5l-1-0.1l-0.3,0.2l-0.6,1.3l-0.5,0.2l-0.1-0.7l-0.5,0.2l-2.4-0.5l-0.3-0.7l0-1.2l-0.4-1.1l-1,0.6l-1.5,0.2l-2-0.1l-3.8,0.3
	l-1.3,5.5l-2.7-0.4l-2.2,0.6l-3,0.3l-1.5-0.5l-1.3,0l-0.5-0.3l-1.2,0.5l-4.5-3l-1,0.2l-1.8,0l-2.8,0.5l-0.2-0.8l-0.7,0.7l-2.6,0.5
	l-4.4,1.2l-0.4-0.7l-2.1,0.1l-0.9,1l-2.3-0.3l-0.6,0.2l-3.1,1.9l-0.7-0.1l-0.3,0.9l0.2,1.7l0,0.7l0.7,0.6l-0.4,0.7l-0.7,0.2
	l-2.6,1.5l-1.2-0.8l-0.9,1.2l-2.3,1.7l0,0.5l0.6,0.4l-0.8,1.6l0,0.7l-1.1-0.4l-3.7,1.4l-1-0.5l-1.6,0.1l-0.8-0.6l-0.7-0.1l-0.9,0.2
	l-0.4,0.7l-0.9,0l-1.3,0.2l-1,0.4l-0.7-0.2l-1.5,0.8l-0.8-0.3l-0.6,0.3l-3.8,0.3l-0.6-1l-1.8-0.6l-1.1-0.6l-0.8-1.2l-1.4-3.4
	l-0.7-0.7l-0.9-0.2l-2.2,0.1l-4.9,0.5l-1.6-2.4l-1.3-1.1l-3.4-2.4l-1.5-2.9l-1-1.1l-0.4-5l0.3-0.8l0.3-1.6l0-2l-0.4-0.8l-0.6,0.2
	l-0.2-0.7l-0.5,0l-1.2,0.4l-1.8-0.5l-0.6-0.7l0.2-0.4l-0.1-0.4l-0.5,0.2l-1.8-0.9l-1.3-0.8l-1.1-1.1l-0.7-0.8l0.3-0.3l-0.4-0.5
	l-0.9-0.6l-0.4-1l-1.1-0.4l-2.7,0.1l-1.3-0.8l-0.8-1l-0.5-0.1l-0.9,0.3l-1.1-0.1l0.4-0.8l0-1.1l-0.5-0.8l-0.3-1.1l0.4-1.4l0.3-1.7
	l0-1.4l0.2-1.5l0.9-1.1l1-0.8l0.3-0.8l0.2-0.9l1.9-0.8l1.3-0.2l0.9-0.4l0.7-1.7l1-1l3.2-5.9l2.1,0.8l0.6-0.1l1.5-0.7l1.2,0.3
	l2.5-0.1l2.7,0.3l1.1-1.3l1.1-0.9l2.4-0.9l1.7-2.1l0.8-0.7l0.7-0.3l0.8,0l0.4,0.4l0.8-0.3l0.9-0.9l1.1-1.6l0.7-2.3l-0.7-1.9l0.3-1.5
	l-0.3-3.6l-0.4-0.8l0.1-1.6l0.7-1l1.8-1.7l1.5-2l0.3-0.5l0.1-0.5l0.9-0.4l2.1-0.1l0.7,0.9l0.4,0.3l0.6-0.7l0.4-1.5l3.2,1.6l1,0.1
	l0.7,0.3l1,1.5l0.9,1.8l1.7,0l0.6-0.8l-0.7-1.8l0.3-0.3l2.4,1.3l0.8,0.3l0.4-1l0.7-0.8l1.2-0.4l0.4-0.6l-0.3-1l0.7-0.2l1.1-0.1
	l0.6,1.1l0.9,1l0.6,0.1l0.3-0.4l0.5-2.8l1.8-2.7l0-1.5l-0.7-2.1l1.7,0.6l0.8-0.3l0.8-0.9l0-3.8l0.1-0.5l0.8-0.3l1.2,0.4l1.5,0.2
	l4.5,2.3l-0.2,5.2l3.7,0.1l0.7,0.7l2.7-0.1l0.8,0.8l0.3,2l-0.5,1.5l-0.6,0.7l-1.7,0.3l-0.8,0l-0.9,0.9l-0.9,0.2l-0.6,1l0.6,1.4
	l0.7,1.2l0.7,0.6l0.1-0.8l1-0.4l0.3-1l0.1-2.2l0.5-0.4l0.7,0l0.8,0.9l1.3,2.3l0.9,0.5l-0.7,1.1l-0.3,1.4l-0.4,0.7l1.6,0.3l0.6,0.3
	l0.9,0.9l1.1,1.6l0.9,0.2l1.9-2l-0.1-0.7l0.3-0.9l2.3-0.3l2.2,0.2l1.4-0.5l0.7-1.3l0.5,1.3l0.9,0.9l0.9-0.1l0.6-1.1l0.2-0.7l1.3,0.4
	l2.6-1.2l0.5-1.3l-0.1-0.7l0.1-1.2l0.4-1l1.2-0.7l2.2,0.3l0.6-1.7l-0.3-0.2l-0.6-1.1l0-0.6l-0.6,0.1l0-0.9l1-0.8l0.5-1.4l0.6-0.8
	l0.8,0.1l3,1.6l1.2,0.5l1,0.1l1.5-0.2l-0.7,2l0.2,3.7l1.1,0.9l0.3-1.9l0.3-0.6l0.7-0.1l0.1,3.5l-0.8,4.8l0,1.7l0.6,0.8l0.6,0.1
	l0.5,1.2l0.8,0.1l1.4,0.5l0.8-0.9l0-1.3l-0.5-2.3l-0.2-1.7l0.6-1.2l0.7-0.3l1,1.1l0.5,1.1l0.1,0.9l0.8,0.9l1.5,1.2l0.9,0.3l0.3-0.7
	l0-1.7l-1.1-2l-0.9-2.1l-0.2-1.6l0.1-1.4l0.5-0.6l1,0.5l1,0.7l0.4,1.3l0.9,0.4l0.8,0.5l0.4,1.6l0.9,0.6l1.1-0.5l1-0.8l0.5-0.7l0.1-1
	l0.6-0.5l1.1-0.2l1.1-1.4l0.5-2.9l0.8-1.3l0.7-0.5l2.1,2.6l0.8,0.5l0.9,0.1l0.9-0.7l0.7-0.7l1.6-0.6l1.9,0l1.5,0.3l0.7-0.1l0.3,0.4
	l0.5,2.5l0.7,0.7l1,0.4l0.5,1.4l0.9,0.8l2.5,0.3l0.6,1.2l0.3,1.2l0.7,1.2l0,1.4l-0.5,2l-0.3,2l-0.5,2.5l-1,3.2l0.3,1.2l0.8,0.8
	l1,0.5l0.6,0.9l-0.7,2.6l-0.7,3.4l0.8,2.8l-0.2,2l0.2,0.5l1.8,0.7l0.5,0.6l-0.1,0.9l0,2.5l0.4,1.4l0.4,0.9l0.5,0.6l-0.6,0.8
	l-0.6,0.4l-0.3,0.9l0.5,2.3l-0.1,0.7l-0.5,0.7l-0.3,0.8l0.7,1.3l1.1,1.4l0.4,1.5l-0.2,1.9l-0.4,1.5l-0.2,1.9l-0.4,1.1L282.6,603.3z"
	/>
<path id="D368" class="st0" d="M375,689.6l0.1-1.7l-0.7-0.3l-0.4-1.1l-1.1-1.6l-0.3-0.7l-0.8-0.7l-0.3-1.1l-0.5-0.7l-0.7,0l-0.6,0.9
	l-0.8,0.9l-0.8,0.4l-1,0.4l-1.3,0.2l-0.4-0.4l-0.2-0.6l-0.6,0.5l-0.3,0.6l-0.8,0.3l-0.8,0.1l-0.7-0.5l-0.7-0.8l-1.7-1l-0.7-0.2
	l-0.9,0.4l-0.9-1.2l-0.9,0.5l-1.4,0.4l-0.3-0.7l-0.2-0.8l-0.4-0.5l-0.7-0.4l-0.7-0.9l-1.4-1l-1.4-0.7l-3-1l-1-1.1l-1.2-0.5l-1-1.4
	l-1.2-0.9l-3.2-1.7l-2.7-1.9l-1.1-0.6l-1.2-0.1L333,668l-0.6,0.7l-0.8,0.6l-0.9,0.1l-1.1-0.2l-0.4-0.6l-0.9,0.1l-0.1,0.9l0.1,0.7
	l-0.7,1.7l0.1,1l0.5,1.6l-0.1,0.7l-0.5,0.4l-0.7-0.2l-1.2-1.3l-1,0.5l-2.3-0.1l-1.2,1.8l-0.9,0.5l-1.5,1.3l-1.9,2.8l-1,1.1l-1,1.5
	l-0.6,2.2l-0.7,1.8l-0.8,1.5l-0.6,2.1l-1.5,3.4l-0.8,2.6l-1.5,2.5l-1.3-0.6l-0.6-0.7l-0.5-0.8l-0.2-1.1l0-2.2l0.1-2l-0.6-1.2
	l-2.8-1.6l-0.8-0.3l-0.5-0.4l-0.7-2l-0.4-0.4l-0.7-0.3l-0.4,0.4l-0.8,0.2l0.8,2.5l0.1,1l-0.5-0.1l-0.5-0.9l-0.7-1.8l-0.2-1l-0.3-0.7
	l-1-0.4l-1.2-0.2l-0.9,0.5l-1.5,0.4l-1,0.5l-0.8-0.9l-0.5-1l-0.2-0.8l-0.7-0.6l-0.7-0.4l-0.1-2.3l-0.5-0.7l-1.7-0.2l-1.2-0.5l-1-0.8
	l-3.9-0.7l-1.3,0.5l-0.6,1.1l-0.6,0.3l-1.1-0.5l-0.9,2l-0.8,0.6l-0.3,1.5l-0.7,0.6l-1.3,0.6l-0.9,0.1l-1-1.1l-0.2-0.5l0.1-1.3l0.4,0
	l0.4-0.2l1.2-1.1l3.9-2.1l0.6-0.7l0.1-1.2l0.5-0.9l0.6-3l-0.1-1l-0.6-1.2l-0.1-1.1l0.4-0.7l0.8-0.7l1.2-2l1-0.7l0.3-1l-0.4-1.3
	l1.8-4.1l0.6-2.1l1.1-2.9l-0.2-2.6l0.6-0.5l0.3-1.1l-0.7-1.9l-0.1-1.5l0.2-0.9l1.8-1.1l2.5-2.1l1-0.7l0.5,0.3l0.9-0.2l0.1-2
	l-0.4-0.9l0.3-1.8l-1-0.2l-1,0.2l-0.9,0.4l-1.1-0.3l-0.3-0.6l0.7-1.6l0.4-3.3l-1.6,0l-0.3-0.6l-0.9-0.8l0.2-1.5l-0.1-1l0.4-1.7
	l0.8-1.9l-0.4-3.4l-0.5-1.5l0-1.1l-0.4-1l-1-0.9l-0.7-1l-0.1-2.6l-0.7-0.7l-0.2-1l0.5-1l1.6-1.3l0-1.1l0.4-1.1l-0.1-1.3l-1.6-1.1
	l0.7-1l0.4-1.1l0.2-1.9l0.4-1.5l0.2-1.9l-0.4-1.5l-1.1-1.4l-0.7-1.3l0.3-0.8l0.5-0.7l0.1-0.7l-0.5-2.3l0.3-0.9l0.6-0.4l0.6-0.8
	l1.4-0.3l0.4-0.5l0-1.4l0.4-1l0.4-1.9l-1-2l-0.4-0.6l-1.6-1.2l0-0.5l0.5-0.8l0.5-1.1l0.7-0.3l0.5-1.1l0.3-1.4l0.4-1l0.1-1.2l2.9-1.5
	l0.2-2l0.4-1.1l0.1-2.1l0.6-0.8l-0.2-1.3l-0.1-1.6l0.2-1.3l0.7-0.9l0.7-0.7l0-0.7l-0.3-0.4l0.2-1.1l-0.2-0.7l0-1l0.4-0.3l1.5-0.1
	l0.5-0.7l0.2-0.7l-1-1.4l-0.1-1.5l0.2-1.2l0-2.6l1.2-5.7l1.7-3.1l-0.6-0.4l0.3-1.1l0.5-0.6l1-0.5l0.8,0.3l0.7,0.7l0.7,0.9l1.3-0.1
	l0.4,0.3l0,0.7l-0.6,1.2l0.2,0.5l0.7-0.1l0.3-1.1l0.4,0.7l0.9-0.9l1.5-1.1l1.1-2l0.8-0.8l0.9,0.1l1.4,0.5l0.8,0l1-1.9l0.4-0.5
	l0.5,0.4l0.6-0.2l0.2-0.8l-0.1-1l0.3-0.4l0-0.7l0.8-0.5l0.4,0.3l0.2-0.7l0.6-1.1l0.2-0.2l0.5,0.3l0.2-0.6l0.3,0.4l0.2-0.5l1.2-0.4
	l1,0.2l0.4-0.6l0.2-1.1l0.4-0.3l0.3,0.4l0.5,0l0.5,0.3l1.9-0.3l1.3-0.6l0.2,1.1l1.3-0.1l0.6,0.3l0.2,1.4l2.3,1.9l0.2,0.1l1.8-0.7
	l0.6,0.4l0.4,1.7l-0.5,1.7l0.3,1l1.6-0.6l1.1,0.1l0.9,1.4l0.6,0.2l0.4,0.8l1.8-0.7l0.5,0.5l0.4,0.7l0.4,1.5l0.5,0.4l0.6,0.1l0.2,0.2
	l0.6,1.7l0.2,0.9l0.6,0.8l0.9,0.3l1.1,0.1l1.7-1l1.4,0.3l1.3,0.6l0.7-0.1l1.2-1.4l0.6-0.2l2.1,0.1l1,0.2l0.6-2.6l1.4-0.6l1.3,0.4
	l0.8-0.9l0.7-1.3l1.1,0.2l2.7,0.8l2.4,0.4l0.5-0.9l1-2.4l0.4-1.2l1.1-0.1l1.4,0.1l1-0.5l0.6,0.1l0.3,1l0.5,0.6l0.7,0.1l0.4,0.6
	l0.3,1l0.4,0.7l0.8,0.3l0.9,0.7l0.8,1.5l1.7,0l0.7,1.1l0.5,0.9l-0.4,1.1l-0.4,2.8l0.3,2.5l0.4,1.5l0.6,1.3l0.9,0.9l1.2,0.5l-0.4,2.1
	l-0.8,0.6l-1.2-0.1l-1-0.5l-0.6,0l-0.8,1l-0.6,2.3l0.3,0.8l1.2,1.8l0.8,0.8l0.4,1l0.1,1.3l0.5,1.1l1.2,0.6l0.8,0.2l0.5,0.9l1,0.4
	l0.6-0.3l0.5-0.8l0.4,0.1l1-0.5l0.5-1.2l0.7-0.4l0.9,0.1l1.1-0.1l1.5,0.4l0.3-2.1l1.7,0.5l1.1-0.6l-0.1-0.7l-0.5,0l0.2-0.7l0.5-0.1
	l1.6,0.9l1-0.2l0.7-0.4l0.5-0.6l0.6-0.4l0.5,0.2l1,1.5l0.7,0.6l0.8,0l0.9-2.5l0.4-0.4l0.8,0.8l0.6,0.7l0.5,0.9l0,1l-0.4,0.8
	l-0.4,0.5l0.2,0.4l0.7,0.6l0.3,0.7l0.1,0.9l-0.1,1.3l-0.7,2.8l0,1l0.7,1.7l0.1,1.2l0.4,1.2l0.6,0.7l0.2,0.7l-0.5,0.7l-0.7,2l0.5,0.8
	l0.9,0.2l1-0.4l0.6,1l0.8,0.8l1,0.6l0.9,0.1l0.7,0.6l-1.2,2.8l0,1l-0.3,1l-0.6,0.4l-0.9,0.1l-2.1,1.5l-0.4,0.9l0.1,0.7l0.5,0.7
	l0.8,0.5l0.9-0.3l0.8,0.4l1.4,1.4l0.5,0.9l-1.2,3.6l1.6,1.3l0.3,1.5l1.7,1.3l0.8,1.3l1.3,0.8l2.6,1.3l2.1,1.5l-0.4,0.5l0.2,1.2
	l-0.2,0.9l-0.7,2l1.2,0.7l0.3,1.5l0.6,0.8l2.3,2.5l1.6,1.4l0.6,0.1l0.5-0.2l0.4-0.5l0.5-0.1l0.4,0.2l0.2,0.5l0,0.6l0.4,0.8l0.2,2.2
	l-0.2,1l0.4,0.4l0.1,0.7l0.3,0l0.2,0.5l-0.2,0.9l0.4,0.4l0.2,0.5l-0.3,0.7l0.2,0.6l-0.4,0.1l-0.1,0.7l-0.4-0.3l-0.1,1.4l0.2,0.8
	l-1.6,2.7l-2,2.1l0.4,1l0.4,0.4l1-0.9l1.4,0.2l1,1l-0.2,0.5l-0.9,0.6l-1.1,1.6l0.4,0.5l0,0.7l0.4-0.1l0,0.2l1,1l0.4-0.2l0.7,0.3
	l0.5-0.7l0.6,0.5l0.3-0.5l0.8-0.1l0.4,0.1l0.2,0.4l-0.5,0.5l-1.5,0.1l-0.1,0.5l-0.3,0.3l-0.6,0.4l-0.6,0l-0.6,0.3l-1.1,0.8l-1.3,1.7
	l0.3,0.6l-0.2,0.4l-0.5,0.8l-0.7,0.4l-1.2,1.2l0,2l-0.6,1.1l-1.8,1.7l0.2,1l1,0.6l1.1,2.4l1.2,1.7l3.7,3.4l1.2,1.9l0.2,0.8l-1.8,2.5
	l-0.3,1l0.1,0.9l-0.3,1.2l-1.1,1.3l-0.7,1.2l0.1,0.5l-0.1,1.1l-0.7,1.1l0.1,1.7l0.2,0.6l1,1.5l-0.3,0.8l-1.2,1.8l-0.5,1.4l-1.5,2
	l-0.3,0.7l0,0.7l-0.3,1l-0.6,1l-0.6,1.4l-0.6,1.1l-0.8,2.4l-0.7,1.3l-0.3,0.9l-1,1.7l-0.3,0.8l-0.6,0.5l-0.8-0.2l-0.7-0.4l-0.6,0.4
	l-0.2,0.7l-0.6,0.9l-1.1,1l0.1,1.6L411,702l-0.3,1.8l0.4,0.8L411,705l-0.7,0.6l0.2,0.9l-0.1,0.3l-0.4,0l-1.3-2.4l-0.5,0l-0.8,0.6
	l-0.7,0.1l-1.6,0l-3.7-0.5l-1,0.1l-1.8,0.7l-1,0.6l-0.6,0l-0.4-0.3l0.1-0.8l-0.1-1l-0.4-0.2l-1.1,0.1l-0.6-0.3l-2.5,0.6l-0.3-0.2
	l-0.3-0.3l-1.4-0.5l-1.6-1.2l0-1.5l-0.7-2.3l0.4-1.3l0.5-0.6l1.6-1.4l0.5-0.7l0.5-1.6l-0.9-1.4l-0.3-0.8l-0.1-0.8l2.2-4.2l0.4-1.1
	l1.3,0.5l0.9,0.6l1.8,0.3l2.5-1.4l-0.4-1.2l-0.5-0.9l-0.9-0.5l-0.5-0.6l-1,0.2l1-1.5l-0.1-0.6l-1.9-1.8l-0.7,0.9l-0.5,0.2l-0.5,1
	l-1,0.3l-0.8,1.1l-0.9,0.6l-1.3,0.4l-1.1,0.7l-0.9,1.2l-0.3,1l-0.7,0.9l-1.9,1.1l-1.7,1.3l-0.7,0.1l-0.7,0.3l-0.8,0l-0.5,0.4
	l-1.3-0.5l-1.2,0.2l-1,1.5L375,689.6z"/>
<text transform="matrix(1 0 0 1 399.0723 361.373)" class="textName">Bokaro</text>
<text transform="matrix(1 0 0 1 229.1899 261.8833)" class="textName">Chatra</text>
<text transform="matrix(1 0 0 1 504.3652 228.7808)" class="textName">Deoghar</text>
<text transform="matrix(1 0 0 1 461.2275 337.3335)" class="textName">Dhanbad</text>
<text transform="matrix(1 0 0 1 590.6758 232.9863)" class="textName">Dumka</text>
<text transform="matrix(1 0 0 1 453.4325 580.7123)" class="textName"><tspan x="0" y="0" class="textName">East</tspan><tspan x="0" y="19.2" class="textName">Singhbhum</tspan></text>
<text transform="matrix(1 0 0 1 43.0283 270.668)" class="textName">Garhwa</text>
<text transform="matrix(1 0 0 1 415.6816 270.668)" class="textName">Giridih</text>
<text transform="matrix(1 0 0 1 592.9814 138.1974)" class="textName">Godda</text>
<text transform="matrix(1 0 0 1 178.2148 484.8623)" class="textName">Gumla</text>
<text transform="matrix(1 0 0 1 315.2783 294.3701)" class="textName">Hazaribagh</text>
<text transform="matrix(1 0 0 1 535.9824 302.3403)" class="textName">Jamtara</text>
<text transform="matrix(1 0 0 1 291.4443 497.7959)" class="textName">Khunti</text>
<text transform="matrix(1 0 0 1 302.7139 142.6348)" class="textName">Kodarma</text>
<text transform="matrix(1 0 0 1 160.1455 343.3921)" class="textName">Latehar</text>
<text transform="matrix(1 0 0 1 200.3208 409.0918)" class="textName">Lohard.</text>
<text transform="matrix(1 0 0 1 659.5654 170.4951)" class="textName">Pakur</text>
<text transform="matrix(1 0 0 1 120.314 257.4087)" class="textName">Palamu</text>
<text transform="matrix(0.9174 0.398 -0.398 0.9174 325.4908 370.8882)" class="textName">Ramgarh</text>
<text transform="matrix(1 0 0 1 302.7134 425.5449)" class="textName">Ranchi</text>
<text transform="matrix(1 0 0 1 647.4702 115.3119)" class="textName">Sahibganj</text>
<text transform="matrix(1 0 0 1 448.1562 472.4131)" class="textName">Saraikela-kharsawan</text>
<text transform="matrix(1 0 0 1 178.2148 590.1455)" class="textName">Simdega</text>
<text transform="matrix(1 0 0 1 315.2783 603.4492)" class="textName"><tspan x="0" y="0" class="textName">West</tspan><tspan x="0" y="19.2" class="textName">Singhbhum</tspan></text>
</svg>
