<?xml version="1.0" encoding="utf-8"?>
<!-- Generator: Adobe Illustrator 26.0.0, SVG Export Plug-In . SVG Version: 6.00 Build 0)  -->
<svg version="1.1" id="Layer_1" xmlns="http://www.w3.org/2000/svg" xmlns:xlink="http://www.w3.org/1999/xlink" x="0px" y="0px"
	 viewBox="0 0 800 730" style="enable-background:new 0 0 800 730;" xml:space="preserve">
<style type="text/css">
	.st0{stroke:#000000;stroke-miterlimit:10; cursor:pointer;}
	.textName{font-family:'Arial'; font-weight:bold; color:#000000; font-size:14px; cursor:pointer;}
</style>
<path id="D465" class="st0" d="M517.8,350.7c-0.6,0.2-1.2,0.3-1.7,0.6c-0.1,0-0.3,0.9-0.3,0.9
	c-0.2,0.1-0.5-0.1-0.7,0c-0.3,0.2-0.9,1.4-1.3,1.6c-0.4,0.1-0.9-0.1-1.3,0c-1.4,0.4-2.6,1.5-3.3,2.2c-0.2,0.1-0.5-0.1-0.7,0
	c-0.4,0.3,0,3,0,3.5c0,1.5-1.2,4.7-0.3,6.3c0.1,0.2,0.6,0.1,0.7,0.3c0.2,0.4,0,1,0.3,1.3c0.2,0.2,1.1,0.8,1.3,1.3
	c0.3,0.5,0.8,2,1,2.2c0.2,0.1,0.5-0.1,0.7,0c0.7,0.7,1.8,0.8,2.7,1.3c0.2,0.1,0.1,0.5,0.3,0.6c1.3,0.6,1.8-0.1,3,0.9
	c1.2,1.1,1.3,1.4,2,2.8c0.2,0.3,1.3,1,1.7,1.3c0.2,0.2,0.1,1.1,0.3,1.3c0.1,0,1.3,0,1.3,0c0.2-0.1-0.1-0.5,0-0.6
	c0.3-0.4,0.9-0.5,1-0.9c0.4-1.1,0.4-2.6,1-3.8c0.6-1.2,1.2-1.9,1.7-3.1c0.3-1,1.2-1.7,1.7-2.5c0.1-0.2,0.2-1.1,0.3-1.3
	c0.7-0.7,0,1,0.7-0.3c0.3-0.6,0.1-1.5,0.3-2.2c0.2-0.5,1.2-2.1,1.3-2.2c0.1-0.1-0.1-1.1,0-1.3c0.3-0.5,0.1-0.9,0.3-1.6
	c0.1-0.3,0.5-0.4,0.7-0.6c0.3-0.5,0-2.8-0.3-3.1c-0.2-0.2-0.5-0.2-0.7-0.3c-0.4-0.4-0.3-1.3-0.7-1.6c-0.3-0.3-1.6-1.7-2-1.9
	c-1.2-0.6-1.6-0.6-2.3-1.3C526.2,350.1,518.6,350.6,517.8,350.7L517.8,350.7z"/>
<path id="D465" class="st0" d="
	M515.7,405.2c5.6,0,8.9,1.9,12.7-1.8c1-0.9,0,1.4,0.9-0.4c1.8-3.3-0.6-10.5,1.9-15.1c0.4-0.8-0.7-3.4,0-4c0.2-0.2,3.3,0.9,3.8,0.9
	c1,0,1.2,0.3,2.4,0.4c1.2,0.2,5.8-0.8,6.6,0c1.6,1.5,5.2,1.4,6.6,2.7c0.7,0.6,2.8-0.4,3.3-0.4c1.4,0,1-4.3,1.4-5.3
	c0.5-1.6,0.1-11.7,0.5-12c1.1-1,0.5,0.8,1.9-0.4c0-1.2,0.4-1,1.9-0.9c3.6,2.2,2.4,9.8,2.4,13.8c0,0.6-0.3,2.1,0,2.7
	c0.6,1.1,3.3,1.8,4.2,2.7c0.5,0.5,4.5,0,5.2,0c0.4,0,3.4,0.3,3.8,0c0.1-0.1,4.2-3.9,4.2-4c0.4-0.8-0.2-3,0.5-3.6
	c1.3-1.2,1.4-4.6,1.4-7.1c0-1.4-1.3-4.7-0.9-5.3c0.5-0.9,1.1-2.3,2.4-3.1c0.4-0.3,1.1-0.1,1.4-0.4c0.6-0.5,0.3-3,0.9-3.6
	c1.4-1.3,2.3-2.2,3.8-3.6c1.1-1.1,14.6-2.2,17.4-1.3c1,0.3,1.5,0.9,1.9,1.3c0.2,0.2,1.1-0.1,1.4,0c1.7,0.8,6.7,3.9,8.5,2.2
	c0.4-0.4,1.2-2.9,1.4-3.1c3.9-3.7,0.3-6.8,1.9-9.8c1.5-2.9,4.9-8.2,7.5-10.7c0.4-0.3,0.7-2.4,1.4-3.1c0.3-0.3-0.3-1.5,0-1.8
	c1.3-1.2,4.7,1.8,5.2,2.2c0.2,0.2,0.7-0.1,0.9,0c1.2,0.6,2.7,3,3.8,4.4c0.7,1.1,4.2,14.3,3.8,15.1c-1.3,2.5-6.3,20.7-4.7,22.2
	c1.4,1.4,8.3,0.4,10.8,0.4c1.3,0,6.6,1.3,7.5,0.4c0.3-0.3-0.3-1.5,0-1.8c0.6-0.6,2.6-1.6,3.3-2.7c0.2-0.2-0.2-0.7,0-0.9
	c0.2-0.2,0.7,0.2,0.9,0c0.1-0.1,0.8-2.9,0.9-3.1c1.9-1.8,13.7-0.2,15.6,0c1.1,0.1,3.7-0.5,4.7,0c2.2,1,5.2,3.1,6.6,4.4
	c0.5,0.4,1.9,0,2.4,0.4c0.1,0.1,0,8.7,0,9.8c0,2.2,0.7,3.3,1.9,4.4c0.2,0.1,0.8-0.1,0.9,0c1.2,1.1-1.1,3.3-1.4,4
	c-0.6,1-0.8,1.6-1.4,2.2c-0.8,0.7,0.6,3-0.5,4c-0.2,0.1-1.3,0.3-1.4,0.4c-0.2,0.2-0.2,0.7-0.5,0.9c-0.9,0.5-1.8-0.1-2.8,0.4
	c-0.4,0.2-2.2,1-3.3,0.4c-3.5-1.6-1.9-4.9-3.3-7.6c-0.4-0.8-1.5-0.6-1.9-1.3c0-0.1-0.9-1.1-0.9-0.9c0,0.2,0.6,0.3,0.5,0.4
	c-0.2,0.2-0.7-0.1-0.9,0c-0.5,0.2-2.7,2.9-3.3,4c-0.2,0.5-0.1,1.9-0.5,2.2c-1,0.9,0-1.4-0.9,0.4c-0.5,0.9,0.2,2-0.5,2.7
	c-0.7,0.6-1.4,0.9-2.4,1.3c-0.5,0.2-3.9,3.7-4.2,4c-0.2,0.2,0.2,0.7,0,0.9c-0.7,0.6-3.5,1.3-4.2,2.7c-0.8,1.5-2.2,2.1-3.3,3.1
	c-0.6,0.5-0.1,1.9-0.5,2.7c-0.6,1.1-0.4,0.4-1.4,0.9c-0.2,0.1-0.8,1.6-0.9,1.8c-0.5,0.4-2.2,0.2-2.8,0.4c-0.7,0.2-6.9,2.9-7.1,3.1
	c-0.3,0.5,0.3,1.3,0,1.8c-0.7,1.4-0.3-0.7-1.4,0.9c-0.2,0.2,0.2,0.7,0,0.9c-0.2,0.2-0.7-0.2-0.9,0c-0.2,0.2,0.2,0.6,0,0.9
	c-0.2,0.3-1.2,1.2-1.4,1.3c-0.2,0.2-0.7-0.2-0.9,0s0.1,0.6,0,0.9c-0.4,0.7-1.6,1.5-1.9,1.8c-0.4,0.4-0.6,2.3-0.9,2.7
	c-0.2,0.2-0.7-0.2-0.9,0c-0.2,0.2,0.1,0.6,0,0.9c-0.3,0.5-1.1,0.4-1.4,0.9c-0.3,0.4-1.1,2.5-1.4,2.7c-0.3,0.1-0.7-0.1-0.9,0
	c-0.3,0.1-0.1,3.2-0.5,3.6c-0.2,0.2-0.7-0.1-0.9,0c-0.7,0.3-1.2,1-1.9,1.3c-0.8,0.4-1,1.4-1.4,1.8c-0.6,0.6-2.8,2-3.3,2.2
	c-2,1-6.1,1.4-7.5,0c-0.5-0.4-2.1-1.3-1.4-1.3c0.2,0,0.2,0.4,0,0.4c-0.6,0-0.9-0.8-1.4-0.9c-1.5-0.3-6.2-1.8-7.1-1.3
	c-1.1,0.5-2.2,1.2-2.8,1.8c-0.6,0.5-0.1,1.5-0.5,2.2c-0.3,0.6-1.2,1.6-1.4,1.8c-0.2,0.2,0.1,1.1,0,1.3c-0.4,0.8-0.9,1.3-1.4,1.8
	c-0.2,0.2,0.2,1.2,0,1.3c-0.3,0.1-0.7-0.2-0.9,0c-0.2,0.2,0.1,0.6,0,0.9c-0.1,0.3-0.7-0.2-0.9,0c-0.6,0.6-2.2,2.1-2.8,2.7
	c-0.4,0.4-1.5,0.2-1.9,0.9c-0.4,0.7-1.2,4.7-1.4,4.9c-1,0.9,0-1.4-0.9,0.4c-0.7,1.4-0.4,3.5-1.4,4.4c-0.5,0.4,0.5,2.2,0,2.7
	c-0.1,0.1-1.1,2.9-0.5,3.6c0.1,0.1,3.8,0.9,4.2,1.3c0.3,0.3,0.2,1.6,0.5,1.8c2.3,2.1,2.7,6,4.2,8.9c0.8,1.5-0.9,9,0,9.8
	c2,1.9,0,8.5,1.4,9.8c0.4,0.3,3.5,3.6,4.2,3.6c2,0,2.5,1.2,4.2-0.4c0.7-0.6,0.5-2.4,0.9-3.1c1.9-3.6,1-8.4,6.6-8.4
	c0.7,0,1.7-0.2,2.4,0c0.9,0.3,3.1,0.7,3.8,1.3c0.7,0.7,1.3,4.7,1.4,4.9c0.4,0.4,0.6,1,0.9,1.3c0.2,0.2,0.8-0.3,0.9,0
	c0.3,0.6,1.6,4.1,1.9,4.4c0.2,0.2,0.7-0.2,0.9,0c0.1,0.1,0.4,0.8,0.5,0.9c1.6,0.8,4.3,0.4,5.2-0.4c0.3-0.3,5.4-0.4,6.1,0
	c1,0.5-0.1,1.3,0.5,1.8c1.2,1.1,3.5,3.8,4.7,2.7c0.2-0.2-0.2-0.7,0-0.9c0.2-0.2,0.7-0.2,0.9-0.4c0.9-0.9-0.7-6.4,0.9-8
	c0.6-0.5-0.6-2.6,0-3.1c0.2-0.2,0.7,0.2,0.9,0c0.5-0.5,0.6-1,1.4-1.3c0.9-0.4,0.1-0.9,0.9-1.3c1.1-0.5,11.5-0.4,13.7-0.4
	c0.4,0,1.1,0.7,1.4,0.4c0.4-0.4,0.1-1.4,0.5-1.8c0.2-0.2,0.7,0.2,0.9,0c0.4-0.4-0.3-1.7,0-2.2c1.4-2.6-0.5-6.9-1.4-9.3
	c-0.1-0.3,0.2-1.2,0-1.3c-1.1-1-3.4,0.4-3.8,0c-0.2-0.1,0.2-12.4,0.5-12.9c1.7-3.1,2.1-4,6.6-4c0.3,0,1.7-0.2,1.9,0
	c1,0.9-1.5,0,0.5,0.9c0.4,0.2,1-0.2,1.4,0c0.1,0,0.5,1.1,0.9,1.3c1.7,0.8,3.2-1.7,4.2-2.2c1.9-0.9,4.2,2.7,4.2,2.7
	c1.6,0.8,3.2-0.8,4.2-1.8c0.2-0.2,0.2-1.5,0.5-1.8c0.2-0.1,0.8,0.1,0.9,0c0.2-0.1-0.2-0.7,0-0.9c0.4-0.4,3.9-0.8,4.7-0.4
	c1.5,0.7,1.4,5.3,2.4,6.2c1.3,1.2,6.1-1.5,7.5,1.3c1.1,2.1-0.6,4.8,1.4,6.7c0.2,0.2-0.2,0.7,0,0.9c0.8,0.8,4.2-2.2,5.2-3.1
	c0.3-0.3,2,0,2.4,0c0.5,0,2.2-0.1,2.8-0.4c0.3-0.1,1.2-0.7,0.9-0.4c-0.2,0.2-1.3,0.4-0.9,0.4c4.5,0-0.7-1.1,0.5,0
	c0.2,0.2,0.7-0.2,0.9,0c0.3,0.3,0.2,0.6,0.9,0.9c2.1,1,5.4-0.7,8,1.8c0.4,0.4,2.4,0.1,2.8,0.4c1.6,1.5,7.2,2.4,8,3.1
	c1.1,1.1,1.3,2.3,1.9,4c1.2,3.4-0.2-0.2,0.9,0.9c0.5,0.5-1.5,4.2-1.9,4.9c-0.3,0.6-1.7,1.1-2.4,1.8c-0.7,0.7-1,2.7-1.4,3.1
	c-0.3,0.3-1.3,0.8-1.9,1.3c-0.2,0.1-0.3,1.2-0.5,1.3c-0.4,0.4-1.4,0.2-1.9,0.4c-1.6,0.8-5.3,2.4-6.1,3.1c-0.9,0.9-9.6-1.6-10.8-0.4
	c-0.2,0.2,0.1,0.6,0,0.9c-0.3,0.6-1.2,1.1-1.4,1.3c-0.4,0.4-0.8,2.6-1.4,3.1c-0.7,0.6-1.4,11.3-1.4,12.9c0,2.9-0.5,5.8-0.5,8.4
	c0,0.2-0.1,1.2,0,1.3c0.3,0.3,1-0.2,1.4,0c0.1,0,0.9,1.3,0.9,1.3c0.3,0.3,7.9,0.8,8.5,1.3c0.3,0.3,0.5,1.3,0.9,1.8
	c0.6,0.5,2.9,1,3.3,1.3c0.2,0.2-0.2,0.7,0,0.9c0.4,0.4,5.2,1.8,5.2,1.8c0.5,0.5,0.6,0.9,1.4,1.3c0.3,0.1,1.2-0.2,1.4,0
	c0.2,0.2-0.2,0.7,0,0.9c0.2,0.2,1.2-0.2,1.4,0c0.3,0.3,0.9,0.9,1.4,1.3c0.5,0.4-0.3,2.1,0,2.7c1.9,3.6,1.3,10-0.5,13.3
	c-0.3,0.6,0.1,1.6-0.5,2.2c-0.2,0.2-1.2-0.2-1.4,0c-0.1,0.1,0,0.3,0,0.4c-0.3,0-0.7-0.1-0.9,0c-0.1,0.1,0.2,0.4,0,0.4s0-0.6,0-0.4
	c0,2.3,0.1,9.3,0,9.3c-0.3,0.1-0.7-0.2-0.9,0c-0.4,0.4-2.7,4.2-2.8,4.4c-0.6,1.1,0.1,2.1-0.9,3.1c-0.5,0.4-2.4-0.4-2.8,0
	c-1.2,1.1-2.3,0.2-3.8,0.9c-1.1,0.5-3.6,1.6-4.2,2.2c-0.2,0.1-0.8-0.1-0.9,0c-0.2,0.2,0.2,0.7,0,0.9c-0.2,0.2-0.7,0.2-0.9,0.4
	c-0.2,0.2,0.2,1.1,0,1.3c-1.2,1.2-2.3,9.8-0.9,11.1c0.6,0.6,2.2,0.3,2.8,0.9c0.5,0.5,1.8,4,0.9,4.9c-0.3,0.3-2,0.1-2.4,0.4
	c-1.2,1.1-2.6,0.5-3.8,0.9c-0.5,0.2-1.6,1-2.4,1.3c-2.8,1.3-6.9-1.2-8-2.2c-0.2-0.2-1.1,0.1-1.4,0c-0.7-0.3-2.4-1.4-2.8-1.8
	c-0.2-0.2-1.4-1.8-2.4-2.7c-0.4-0.4,0.4-1.9,0-2.2c-0.6-0.6-2.1-1.1-2.8-1.8c-0.5-0.4,0.5-2.2,0-2.7c-0.6-0.6-3.1,0.8-4.7,0
	c-1.3-0.6-2.3-1.3-3.3-2.2c-0.5-0.5-0.9-1.7-1.9-2.7c-0.7-0.7,0.7-3.3,0-4c-0.2-0.2-1.6-0.2-1.9-0.4c-0.5-0.5,0.5-0.9-0.5-1.3
	c-1-0.5-2,1.1-2.8,1.3c-0.5,0.2-4.8,0.4-5.2,0c-1.1-1.1-3-1.5-3.8-2.2c-0.5-0.5-1.1-2-1.4-2.7c-0.3-0.6-2.5-2.3-2.8-2.7
	c-0.2-0.2-2.5,0-2.8,0c-2.4,0-6.2-0.4-8,1.3c-0.6,0.5-0.8,1.3-1.9,1.8c-0.8,0.4-1.1,1.4-1.9,1.8c-1.4,0.6-5.9,0.5-6.1,0.4
	c-2.8-0.7,1.1-0.2-0.5-0.9c-0.4-0.2-1.2,0.4-1.4,0c-1.2-2.3,0,0-0.9-0.9c-0.8-0.7,0.6-5.3-1.4-6.2c-0.9-0.4-1.4,0-2.4-0.4
	c-0.3-0.1-0.2-0.7-0.5-0.9c-0.2-0.2-0.9-0.1-0.9-0.4c0-0.1,0.6,0.1,0.5,0c-5-2.3-3.5-1.6-9-2.7c-1.5-0.3-3.3-1.2-4.2-1.3
	c-1.8-0.3-3.3-0.9-5.2-0.9c-0.9,0-2.8,0.9-2.8,0c0-0.1,0.6,0.1,0.5,0c-1.1-1-2.4-1.2-3.8-1.8c-2.3-0.9-6.1-2.7-5.2-2.7
	c0.2,0,0.2,0.4,0,0.4c-0.2,0-0.3-0.4-0.5-0.4c-1.1-0.5-4.7,0-6.1,0c-1.1,0-3-0.3-3.8,0.4c-0.5,0.4,1.8,0.8,1.9,0.9
	c0.5,0.5,0.5,1.2,0.5,2.2c0,3.6-0.5,7.8-0.5,12c0,0.7,0.5,4.4,0,4.9c-0.8,0.8-1.5,6.3-1.9,6.7c-0.2,0.2-0.6,1-0.9,1.3
	c-0.3,0.3-1.7,0.2-1.9,0.4c-1.6,1.5-1.5,1.3-4.2,1.3c-0.4,0-3.4,0.3-3.8,0c-0.6-0.5-2.3-1.5-2.4-1.8c-0.5-1.4-0.3-1.2-1.4-2.2
	c-0.3-0.3,0.3-1.5,0-1.8c-0.6-0.6-1.4-3.6-1.4-3.6c-0.3-0.3-1.1-0.1-1.4-0.4c-0.3-0.3-0.1-1.9-0.5-2.2c-0.5-0.5-0.9,0.5-1.4-0.4
	c-0.5-0.9-0.4-1.6-0.9-2.7c-0.4-0.8-1.5-1.1-1.9-2.2c-0.1-0.3,0.2-0.6,0-0.9c0,0-2.6-1.6-2.8-1.8c-0.8-0.7-0.7-3.3-1.4-4
	c-1-0.9-2.2-1.9-2.8-3.1c-0.1-0.3,0.2-0.7,0-0.9c-0.5-0.5-0.6-0.1-1.4-0.4c-0.7-0.3-1.2-2.1-1.9-2.7c-0.2-0.2-1.1-0.6-1.4-0.9
	c-0.3-0.3-0.7-1.8-0.9-2.2c-0.9-1.8-2.4-2.3-3.8-3.6c-0.2-0.1-0.3-1.2-0.5-1.3c-0.3-0.3-3.9-1.4-4.2-2.2c-0.3-0.8,0.4-2,0-2.7
	c-1-1.8,0,0.5-0.9-0.4c-0.1-0.1-1.8-4.1-1.9-4.4c0.2-1-0.8-0.1-0.9-0.4c-1-1.9,3.9-2.3,4.2-2.7c0.9-0.9,1.3-2.5,2.4-3.6
	c1-0.9,4.4-1.9,4.7-2.2c0.2-0.2-0.1-0.6,0-0.9c0.3-0.6,1.8-2.7,0.9-3.6c-1-0.9-7-0.4-9-0.9c-1.1-0.3-2.2-0.5-3.3-0.9
	c-0.3-0.1-0.9,0.3-0.9,0c0-0.6,1.6-0.8,1.9-1.3c0.1-0.3,0.2-2.9,0-3.1c-0.9-0.8-3.2,1.1-3.8,1.3c-1.1,0.5-0.1,1.9-0.5,2.7
	c0,0.1-0.8,0.3-0.9,0.4c-0.9,0.8,0.2,5-0.5,6.2c-0.3,0.7-0.6,0.6-0.9,0.9c-0.2,0.2,0.1,1.1,0,1.3c-0.4,0.7-1.5,2.7-1.9,3.1
	c-0.7,0.6-1.5,1-2.4,1.8c-0.3,0.3-0.2,1-0.5,1.3c-0.2,0.1-0.8-0.1-0.9,0c-1,0.9-3,2.4-3.8,3.1c-0.4,0.4-1.8-0.2-2.4,0
	c-1.1,0.3-4,1-5.2,0.4c-0.4-0.2-3.6-2-3.8-2.2c-0.6-0.5-0.2-1-0.9-1.3c-0.3-0.1-0.7,0.2-0.9,0c-0.3-0.3,0.3-1.5,0-1.8
	c-0.7-0.7-1.8-1.7-2.4-2.2c-1.3-1.3-4-13.9-2.8-16c1.8-3.3,7.9-6.6,11.3-9.8c0.8-0.7-0.3-3.3,0.5-4c0.7-0.7,0.1-1.5,0.5-2.7
	c0.1-0.4,1.3-1.2,1.4-1.3c0.8-0.8-0.5-7.6-0.9-8c-0.7-0.7,0.4-3.9,0-4.9c-0.5-1.4-1.6-1.2-2.4-2.2c-0.8-1.1-1.5-2.7-2.4-3.6
	c-0.9-0.9-4.7,0.9-5.7,0c-0.9-0.8,0.5-3.7,0.5-4.4c0-1.1,0.6-3,0.9-3.6c0.6-1.2,0-12.8,0-15.1c0-0.8-0.8-3.2-0.5-3.6
	c0.4-0.4,1.4-2.1,1.4-2.7c0-0.7,1.5-2.3,1.9-2.7c0.2-0.2,0.1-3.1,0.5-3.1c0.2,0,0.1,0.5,0,0.4c-0.7-0.7-1.8-1.8-2.4-2.7
	c-1.7-2.4-2.5-5.9-5.7-6.7c-1.2-0.3-3.2-2.4-3.8-3.6c-0.1-0.3,0.2-0.7,0-0.9c-2-1.9-6.2-2.7-8-4.4c-0.4-0.4-1.3,0.1-1.9,0
	c-1-0.1-1.9-0.4-2.8-0.4c-1.5-0.1-8.7,0.3-9.9-0.9c-0.2-0.2,0.2-1.1,0-1.3c-1.8-1.7-3-3-4.2-5.3c-0.4-0.7-0.1-1.9-0.5-2.7
	c-1-1.8-2.8-1.7-3.8-3.6c-0.5-1,0.8-4.1,0-4.9c-0.8-0.8-1.8-0.7-2.4-1.8c-0.7-1.3,0.7-3.6,0-4.9c-0.8-1.4-2.6-1.7-2.8-2.2
	c-0.4-0.7,2.6-2.4,3.3-3.1c1.3-1.2,2.9-1.9,3.8-2.7c3.3-3.1,6.1-6.7,9-9.3c0.5-0.4,2-0.1,2.4-0.4c0.2-0.2,0.2-0.7,0.5-0.9
	c0.5-0.4,3.9-0.8,4.7-0.4c1.9,0.9,4.3,2.7,5.7,4c0.2,0.2,1.3-0.2,1.4,0c0.4,0.8,1.5,2.7,2.4,3.6c0.2,0.1,1.3,0.3,1.4,0.4
	c1.2,1.1,1.5,2.8,2.8,4c0.7,0.7,2,1.4,2.8,2.2c0.5,0.4,0.3,1.7,0.9,2.2c0.3,0.3,1.6-0.3,1.9,0c0.3,0.3,1.4,3.2,1.7,3.8"/>
<path id="D495" class="st0" d="M527,303.3l-1.9-0.4l-2.3-1.4l-5.1,0.3l-3-1.3l-11.8,0.4l-2,3.3l-2.4,1.3l-2.5-2.9l0.1,0l-0.1-0.2
	h-0.1v-0.2l0.1,0v-0.9h0.1v-0.6h0.1v-0.4h0.1v-0.4h0.1v-0.4h0.1v-0.6l0.1,0v-0.6h0.1V298l0.1,0v-0.6l0.1,0v-0.6l0.1,0v-0.4l0.1,0
	v-0.6h0.1v-0.6l0.1,0V295h0.1v-0.6l0.1,0v-0.4l0.1,0v-0.4h0.1v-0.4h0.1V293h0.1l0-0.7l0.1,0v-0.4l0.3,0v-0.2l0.1,0v-0.6l-0.1,0v-0.4
	h-0.1V290l0.1,0v-0.4h0.1v-0.9h0.1v-1.7l0.1,0v-3.9l0.1,0v-2l-0.1,0V280h0.1v-0.7h0.1v-0.6h0.1V278h0.1v-0.2l0.1,0v-0.4l0.1,0v-0.4
	l0.1,0v-0.2h0.1v-0.2h0.1v-0.2l0.1,0V276V275h-0.3v-0.4h-0.1v-0.2l-0.1,0v-0.2H500v-0.4l-0.1,0v-0.7h-0.1v-3.9h-0.1v-3l-0.1,0v-2.6
	l-0.1,0v-0.2h-0.1v-1.5l0.1,0V261h0.1v-0.4h0.1V260h0.1v-0.7h0.1v-0.6l0.1,0v-1.1l0.1,0v-0.6l0.1,0v-0.6l0.1,0v-0.4l0.1,0v-0.4
	l0.1,0v-0.4l0.1,0v-0.4l0.1,0v-0.6l0.1,0v-0.4h0.1v-0.6h0.1v-0.7l0.1,0v-0.2h0.3v-0.2h0.1v-0.2l0.1,0v-0.4h0.3v-0.4l0.1,0v-0.2
	l0.1,0V251h0.1v-0.2l0.1,0v-0.6h0.1v-0.2h0.1v-0.2l0.1,0v-0.6h0.1v-0.2h0.1v-0.2h0.1l0-0.4h0.1v-0.2l0.1,0V248h0.1v-0.2l0.1,0v-0.2
	h0.3v-0.2h0.1v-0.2h0.1v-0.4h0.3v-0.2h0.1v-0.2h0.1v-0.2l0.1,0v-0.2l0.1,0l0-0.2l0.1,0v-0.1v-0.1l0.1,0h0.1v-0.1l0-0.1l0.1,0l0.1,0
	v-0.2l0.1,0v-0.2h0.1V245v-0.1l0.1,0h0.1v-0.2h0.3v-0.2l0.3,0v-0.4l0.1,0V244h0.1v-0.2h0.4v-0.2h0.3v0.2l0.1,0v-0.4h0.3l0-0.2h0.4
	V243l0.1,0v-0.2l0.3,0v-0.2h0.3v-0.2l0.1,0v-0.2h0.3v-0.2l0.1,0v-0.4h0.1v-0.2l0.4,0v-0.2h0.1v-0.2h0.3v0.2h0.1v-0.2h0.3V241h0.1
	v-0.2l0.1,0v-0.4h0.1v-0.2h0.1v-0.2h0.1v-0.4h0.4v-0.2h0.4v0.2h0.1v0.2l0.3,0v0.2h0.1v0.2h0.8v0.2h0.1v-0.2h0.1v-0.4l-0.1,0v-0.2
	h-0.1v-0.2l-0.1,0V239l0.1,0v-0.2l0.1,0v-0.4h0.1V238h0.1v-0.4h0.1v-1.1l0.1,0v-0.4l1.6,1.4l1.2,0.9l0.3,1.9l3.9,1.2l4.1,0.1
	l1.6,2.5l0.9,3.8l1.3,3l1.7,2.3l-0.3,2.5l-2,1.7l-1.9-0.6l-3.9-3l-1.8,0.3l-2.6,6.5l-3.3,4l-1.1,2.7l0.5,3.2l2.4,2.3l1.9,0.2
	l5.3-1.8l4.7-0.4l3.5-1.5l1.9,1.4l1.5,2.6l0.3,3.3l-1.4,3.4l-5.4,4.7l-1.6,3.3l0.3,4.1l0.9,2l3.5,2.6l0.4,2.4l-1.4,3L527,303.3z"/>
<path id="D494" class="st0" d="M67.9,139.7v0.3h-0.2v0.5l-0.2,0v0.5l-0.2,0v0.7l-0.2,0v0.9h-0.2v2.3h0.2v0.5l0.2,0v0.2h0.2v0.2
	l0.2,0v0.2l0.3,0v0.2h0.3v-0.2h0.2v0.2h0.2v-0.2l0.7,0v-0.2l0.2,0V145l-1.2,0v-0.2h-0.3v-0.2l-0.2,0v-1.4h0.2v-0.5h0.2v-0.2l0.2,0
	V142l0.2,0v-0.2h0.2v-0.2H69v-0.2l0.2,0v-0.2h0.2v-0.2h0.2v-0.2l0.2,0v-0.2H71v0.2l0.3,0v0.2h0.5v0.2h1v0.5l0.7,0v0.2h0.3v0.2l0.3,0
	v0.2h0.5l0,0.2l0.5,0v0.2h0.5v0.2l0.2,0v0.2h0.2l0,0.2h0.2v0.5h0.2v0.2h0.2v0.2h0.2v0.5l0.2,0v0.2l0.2,0v0.2h0.2v0.2h0.2l0,0.2h0.3
	v0.2l0.2,0v0.2h0.2v0.2h0.2v0.5l0.2,0v0.2l1,0v0.2h0.5v0.2h0.7v-0.2h1.5v0.2l0.2,0v0.2h0.2v0.2l0.7,0v0.2h1.2v0.2h0.3l0,0.2h0.3v0.2
	l0.2,0v0.2h0.2v0.5h0.2v0.2h0.3v0.2l0.7,0v0.2h0.5v0.2h1.9l0,0.2h0.2v0.2h0.2v1v0.3l-0.2,0v0.5l-0.2,0v0.2H89v0.2l-0.3,0v0.5h-0.2
	v0.2l-0.5,0v0.2l-0.2,0v0.5h-0.2v0.2l-0.2,0v0.2l-0.5,0v0.2h-0.3v0.2h-0.9v0.2l-0.7,0v0.5h-0.2v0.2l-0.2,0v0.2h-0.2v0.2h-0.3v-0.2
	H84v-0.2l-0.2,0v-0.2h-0.3v-0.2h-0.7v0.2h-0.7v0.2l-0.3,0v0.5l-0.2,0v0.5l-0.2,0v0.2h-0.7v0.2h-0.9v0.2l-0.3,0v0.2l-0.3,0v0.2h-0.3
	v0.2h-0.2v0.2h-0.5v0.2h-0.2v0.2l-0.2,0v0.7l-0.2,0v0.2l-0.2,0v0.2h-0.2v0.2h-0.2v0.2H77v1.2v0.2l-0.2,0v0.2h-0.5v-0.2l-0.2,0v-0.1
	v-0.1l-0.2,0v-0.7l0.2,0v-0.2l0.2,0v-0.7h-1.2v0.2h-0.8v-0.2l-0.2,0v-0.5h-0.2v0.2l-0.2,0v0.2h-0.3v-0.2l-0.5,0v-0.2l-0.2,0v-0.2
	h-0.3v-0.5l0.2,0v-0.2l0.2,0v-0.9l-0.2,0V158h-1.7v0.2l-0.3,0v0.2h-0.3v0.2H70v0.2h-0.2l0,0.2h-0.2v0.2h-0.9v-0.2l-1,0v-0.5h-0.5
	v-0.2h-0.7v-0.2h-0.2v0.5h-0.2v0.2h-0.5v0.2H65v0.2l-0.1,0l-0.1,0v0.2h-0.2v0.2h-0.3v0.2l-0.3,0v0.2l-0.2,0v0.2h-0.3v0.2h-2.2v-0.2
	h-0.5v-0.2l-0.3,0v-0.2l-0.3,0v-0.2h-0.7v-0.2h-0.7v-0.2l-1,0v-0.2h-1.4v-0.2h-0.3v-0.2h-0.5v-0.2h-0.5v-0.2l-0.3,0V158l-1,0v-0.2
	h-0.2v-0.2h-0.2v-0.2l-0.2,0v-0.2l-0.3,0v-0.7l-0.2,0v-0.2h-0.2v-0.2h-0.2v-0.2l-0.3,0v-0.2h-0.3v-0.2h-0.3V155l-0.5,0v-0.2l-1,0
	l0-0.2h-0.7v-0.2h-1.5v-0.2h-2.6v0.2h-1v0.2h-0.5v0.2l-0.5,0v0.2l-0.9,0v0.2h-0.7v0.2h-0.3v0.2l-0.2,0v0.2h-0.5v0.2H40v0.5h-0.2v0.2
	l-0.3,0v0.2h-0.2v0.5h-0.2v0.9H39v0.7l-0.2,0v0.7H39l0,1.1h0.2v0.7l0.2,0v0.2h1.2v0.2l-0.2,0v0.5h-0.5v0.2h-0.3v0.2l-0.5,0v0.2
	l-0.2,0v0.2h-0.2v0.2h-0.2v0.2l-0.3,0v0.2l-0.2,0v0.5h-0.9v-0.2h-0.5v-0.9l-0.2,0v-0.9v-0.2h-0.6h-0.3v0.2h-0.2v0.5l-0.3,0v0.2l-1,0
	v0.2h-0.2v-0.2h-0.7v0.2h-0.7v0.2h-1v0.2l-0.5,0v0.2l-0.7,0v0.2h-0.2v0.2h-0.7v0.2h-0.5v-0.2h-0.2v-0.2h-0.2v-0.2l-0.2,0v-0.2
	l-0.3,0v-0.2h-0.3v-0.2l-0.2,0V163l0.2,0v-0.2h0.2v-0.7l0.2,0v-1.4h-0.2v-0.5h-0.2v-0.5h-0.5v-0.2l-0.2,0v-0.5h-0.2v-0.2h-0.1h-0.2
	v-0.2h-0.2v-0.2h-0.2v-0.2l-0.2,0V158l-0.2,0v-0.2h-0.3v-0.2h-0.5v-0.2l-0.5,0v-0.2l0.5-4l2.4-5.7l1.7-3.2l3.2-2.2l9.9-2l5.4-2.5
	l2.7-3.3l3-0.4l6,2.3l8.3,3.7L67.9,139.7z"/>
<text transform="matrix(1.0611 0 0 1 567.1849 536.4838)" class="textName">Dadra and Nagar Haveli</text>
<text transform="matrix(1 0 0 1 445.4933 277.6713)" class="textName">Daman</text>
<text transform="matrix(1 0 0 1 95.4297 159.5814)" class="textName">Diu</text>
</svg>
