<?xml version="1.0" encoding="utf-8"?>
<!-- Generator: Adobe Illustrator 26.0.0, SVG Export Plug-In . SVG Version: 6.00 Build 0)  -->
<svg version="1.1" id="Layer_1" xmlns="http://www.w3.org/2000/svg" xmlns:xlink="http://www.w3.org/1999/xlink" x="0px" y="0px"
	 viewBox="0 0 800 730" style="enable-background:new 0 0 800 730;" xml:space="preserve">
<style type="text/css">
	.st0{stroke:#000000;stroke-miterlimit:10; cursor:pointer;}
	.textName{font-family:'Arial'; font-weight:bold; color:#000000; font-size:14px; cursor:pointer;}
</style>
<path id="D585" class="st0" d="M442,421.4l-1.9-1.9l-1-4.1l-0.3-7l-5.4-3.7l-10.1-2.7l-1.6-3.8l-2.5-0.7l-5.2,3.4l-5.2-0.3l-2.4-1.1
	l-1.8-3.4l-2.9-19l-0.4-10.9l-3-4.2l-3.1-1.5l-3-2.5l-7.4-7l-5.6-0.1l-2.4-1l-1.7-2l-0.9-3l-0.3-4.7l-1.2-6.1l-1.5-5.8l-1.7-2.4
	l-3-1.6l-12-2l0.9-0.8l0.9-0.2l2.4,0.1l5.4-1.6l0.1-1.2l-1.1-0.4l-0.3-0.2l-4.8-1.8l-1.2-0.9l0-0.4l-0.9-0.9l-0.1-0.4l0.3-4.5l0-0.1
	l0.6-0.6l0.1-0.1v-0.4l2.4-1.8l2.7-4.2l0.3-2.1l-0.1-0.3l-0.6-1.8l-1.2-0.2l-0.3,0.1l-3.1,1.3l-3.2,3.3l-0.3,2.8l-0.4,0.5l-1.3,0.9
	l-4.5,0.7l-0.4,0.9l-0.2,3.3l-1.1,1.4l-0.3,0.2l-1.7,0l-4-0.8l-0.9-0.4l-0.2-0.2l-0.1-0.1l-8-7.3l-0.3-0.3v-0.1h-0.1l0-0.4l-0.2,0
	v-0.2h-0.2v-0.2h-0.2v-0.6h-0.2v-0.2l-0.2,0v-0.4h-0.2V301H329v-0.2h-0.3v-0.2l0.3,0v-0.2h-0.2v-0.2l-0.3,0v-0.2h-0.2v-0.2h-0.3
	v-0.2l-0.2,0v-0.2l-0.3,0l0-0.2h-0.3v-0.2h-1.1v-0.2h-0.3v0.2H325v-0.2h-0.2v0.2h-0.3v-0.2h-0.2v0.2h-0.2v0.2h-0.3v0.2l-0.3,0v0.4
	l-0.3,0v0.2h-0.2v0.2l-0.3,0v0.2h-0.5v0.2h-0.2v-0.2h-0.3v-0.2h-0.3v0.2h-0.3v-0.2l-0.3,0v-0.2h-0.3v-0.2h-0.2v0.2h-0.2v-0.2l-0.7,0
	l-0.1,0v0.2h-1.1v0.2l-0.5,0v0.2h-0.2v0.2l-0.2,0v0.2h-0.2v0.4l-0.5,0v0.2l-0.5,0v0.2h-0.2v0.2h-0.3v0.2l-1.8,0v-0.9l0.2,0v-0.6h0.2
	v-0.6h-0.2v-1.1l-0.2,0v-0.4l-0.2,0V298h-0.2v-0.2h-0.2v-0.2l-0.2,0v-0.4l-0.2,0V295h0.2v-0.2h-0.2v-1.7l-0.2,0v-0.6H313V292h-0.2
	v-0.4l-0.5,0v-0.2h-0.2v-0.2h-0.3V291l-0.6,0v-0.4l-0.5,0v-0.2h-0.2v-0.6h-0.2v-0.4l-0.2,0v-0.4l-0.6,0v-0.4h-0.2v-0.2h-0.2V288
	h-0.2v-0.4H309v-0.9l-0.3,0v-0.4l-0.2,0v-0.4h-0.2v-0.1v-0.1h-0.2v-0.2h-0.2v-0.2l-0.2,0V285l-0.3,0v-0.4h-0.2v-0.2h-0.3v-0.2
	l-0.2,0v-0.2h-0.8v-0.2h-0.6v0.2h-0.3v0.4l-0.2,0v-0.2h-0.2v0.2h-0.5v0.2H304v0.2l-0.5,0v0.2h-0.2v0.2l-0.2,0v1.3h-0.2v0.4l-0.2,0
	v0.4l-0.8,0v-0.2l-0.2,0v-0.2h-0.2v-0.2l-0.3,0v-0.2h-0.2v-0.2l-0.3,0v-0.4h-0.2v-0.2h0.2v-0.2v-0.1h-0.1h-0.2v-0.1v-0.1l-0.2,0V285
	h-0.3v-0.2l-0.2,0v-0.2h-0.2v0.2l-0.4,0h-0.1v0.2h-0.2v-0.2h-0.2v0.2h-0.2v-0.2h-0.2v0.2l-0.5,0v-0.4h-0.6v-0.2h-0.3l0-0.2l-0.1,0
	v-0.2h-0.3v-0.2h-0.3v-0.2h-0.2v-0.2l-0.3,0v-0.2h-0.3v-0.2h-0.2v0.2h-0.3v0.2h-0.8v-0.2h-0.3v-0.2l-0.3,0v-0.2h-0.3v-0.2H293v-0.2
	h-0.2v0.2h-0.2v-0.2h-0.8v0.2h-2.4v0.2h-0.3v0.2l-0.2,0v0.2h-0.2v0.2v0.3l-0.6,0v0.2h-0.3v-0.5v-0.1l-0.2,0v-0.4h-0.2v-0.2h-0.2
	v-0.2l-0.2,0V282l-0.3,0v-0.2h-0.2v-0.2h-0.3v-0.2l-0.6,0v-0.2h-0.2v0.2l-0.5,0v0.2h-0.3v0.2h-0.2v0.2h-0.3v-0.2h-0.2v0.2H284v0.2
	l-0.2,0v0.2h-0.5v0.2h-0.6v-0.2h-0.3v-0.2h-0.8v0.2h-0.8v0.6l-0.2,0v1.1l0.2,0v0.9l0.2,0v0.6h-0.5v-0.2h-0.2v-0.2l-0.3,0v-0.4
	l-0.2,0v-0.4h-0.3v-0.2l-0.2,0v-0.2h-0.3v-0.2h0.2v-0.4l-0.2,0v-0.2h-0.2v-0.2l-0.2,0v-0.2H278v-0.4h-0.5v-0.4h-0.3v-0.4l-0.2,0
	v-0.2h-0.5v-0.2l-0.3,0v-0.4H276v-0.2l-0.2,0v-0.4l-0.3,0v-0.4l-0.3,0v-0.2h-0.2V279h-0.3v-0.2h-0.2v-0.2h-0.5v-0.2h-0.3v-0.2h-0.2
	v-0.4h-0.2v-0.4h-0.2v-0.2H273v-0.2h-0.3v0.2h-0.3v-0.2h-0.6v-0.2l-0.2,0v-0.4l-0.2,0v-0.6h-0.2v-1.1l0.2,0v-0.2l0.2,0v-0.2h0.3
	v-0.2h1.1v0.2h0.3l0,0.2h0.3v0.2l0.2,0v0.2h0.3v0.2h0.3v0.2l0.2,0v0.2h0.2v0.2l0.2,0v0.2l0.5,0v0.2h0.2v0.2h0.2v0.2l0.2,0v0.2h0.3
	v0.2h0.3v0.2h0.3v0.2h0.2v0.2l0.5,0v0.2h0.5v-0.2l0.8,0v-0.2h0.5v-0.2h0.2v-0.2h0.2v-0.2h0.2v-0.2l0.2,0V276h0.2v-0.2l0.2,0v-0.2
	l0.2,0v-0.2l0.2,0V275l0.2,0l0-0.1v-0.1l0.2,0v-0.4l0.2,0v-0.2h0.2v-0.2l0.2,0v-0.4l0.2,0v-0.6l0.2,0v-0.6l0.2,0v-0.4h0.2v-0.6
	l0.2,0v-0.6l0.2,0v-2.6l0.2,0v-0.2h0.2v-1.1h0.2v-1.1l-0.2,0v-0.4h-0.2v-0.2h0.2v-0.9h0.2v-0.9h0.2V263l-0.2,0v-1.3l-0.2,0v-0.2
	l-0.3,0v-0.6h-0.2V260l0.2,0v-0.6l0.2,0v-0.6h0.3v-0.2l0.2,0v-0.6h-0.2V257h-0.2V256h-0.2v-1.1h-0.2V254h-0.2l0-1.1H282l0-0.8v-0.3
	h-0.2V251h-0.5v-0.2h-0.6v-0.2h-1.3v-0.2l-0.2,0v-0.2l-0.5,0V250H278v-0.4l-0.3,0v-0.2h-0.2v-0.2h-0.3v-0.2H277v-0.2l-0.2,0v-0.2
	h-0.3v-0.2h-0.8v0.2h-0.2v-0.2h-0.3v-0.2l-0.3,0v-0.2h-0.2v-0.2l-0.6,0v-0.2l-1,0v-0.2H273v0.2h-0.2v-0.2h-0.3v0.2h-0.2v-0.2h-0.2
	v0.2l-0.2,0v0.2l-0.3,0v0.2h-0.5v0.2l-0.2,0v0.2h-0.2v0.2h-0.2v0.4l-0.3,0v0.4l0.2,0v0.4l0.2,0v0.2h0.3v0.2l0.3,0v0.2l0.3,0v0.2h0.2
	v0.2h-0.2v0.6h-0.2v0.2h-0.2v0.2h-0.2v0.4l-0.3,0v0.2l-0.2,0v0.2h-0.3v0.2h-0.2v-0.2h-1.1v0.2h-0.6v0.2l-0.6,0v0.2h-0.2v-0.2l-0.6,0
	v-0.4h-0.2v0.2h-0.2v-0.2h-0.3v0.2h-0.5v0.2l-0.3,0v0.2h-0.3h-0.1v0.4h-0.2v0.2l-0.3,0v0.4l-0.2,0v0.2h-0.3v0.2h-1.9v-0.2h-0.6v-0.2
	l-1.3,0v-0.2h-0.3V254l-0.2,0v-0.4h-0.2V253h-0.2v-0.9l-0.2,0v-0.2h-0.3v-0.2h-0.6v-0.2l-0.2,0v-0.2l-0.2,0v-0.4h-0.2v-1.1h-0.2
	v-0.2h0.2v-0.9l0.2,0v-0.2h0.5v-0.2l0.3,0v-0.4h0.3v-0.2h0.2v-0.4h0.2v-0.4h-0.2v-0.9l-0.2,0l0-1.7h-0.2v-0.4h-0.2v-0.6l0.2,0v-0.4
	h-0.2v-0.2h0.2v-0.4h-0.2v-0.2l-0.3,0v-0.2h-0.2v-0.2h-0.2v-1.7l-0.2,0v-0.4h-0.2v-0.9h-0.2V238l-0.2,0v-0.4h0.2v-0.2h-0.2v-1.1
	h-0.2v-0.9h-0.2v-1.1h-0.2v-0.6h-0.2v-0.2H257v-0.2l-0.2,0v-0.4l-0.2,0v-0.2h0.2v-0.9h-0.2v-0.4h-0.2v-0.9l-0.2,0v-0.4h-0.2v-0.9
	H256v-1.1l-0.2,0V228h-0.2v-0.6l0.2,0v-0.4h-0.2v-0.2h-0.2v-0.2h-0.2V225h-0.2v-0.6h-0.2v-0.2h-0.2v-0.6l-0.2,0v-0.4h-0.2v-1.3h-0.1
	v-0.6h-0.2v-1.3h-0.2v-0.6h-0.2V219l-0.2,0v-0.4h-0.2v-1.1h0.2v-0.6l-0.3,0v-0.2l-0.2,0V216h-0.2V215H253v-0.9h-0.2v-0.6h-0.2V212
	h-0.2l0-0.4h-0.3v-1.1H252v-0.9h-0.2v-0.2h-0.2v-0.9h-0.2v-0.9h-0.2v-0.6l-0.2,0v-0.4h-0.2v-0.9h-0.2v-0.4h-0.2v-0.4h-0.2v-1.7
	l-0.2,0v-0.4l-0.2,0v-0.6l-0.2,0v-0.4h-0.2v-0.2l-0.2,0v-0.4h-0.2v-0.4l-0.2,0v-0.2l-0.3,0V200H249v-0.2h-0.3v-0.2h-0.3v0.2h-0.5
	v0.2h-0.2v0.2l-0.6,0v0.2h-0.2v-0.2l-0.2,0V200h-0.2v-0.2h-0.2v-0.2l-0.2,0v-0.2l-0.2,0v-0.2h-0.2V199h-0.2v-0.2l-0.2,0v-0.2l-0.8,0
	v-0.2h-0.2v-0.6h-0.2V197h-0.2v-0.2l0.2,0v-0.2h0.2v-0.2h0.2v-0.2h0.2V196l-0.2,0v-0.4l-0.2,0v-0.4h-0.2v-0.4l0.2,0v-0.9l0.2,0v-0.4
	l0.2,0v-0.2l0.2,0v-0.4l-0.2,0v-0.4h-0.2v-0.2l-0.2,0v-0.4l-0.2,0v-0.6l-0.2,0v-0.2l-0.2,0v-0.4h0.2v-0.2l-0.2,0v-0.9l-0.2,0v-0.4
	l-0.2,0v-0.9l-0.2,0v-0.4h-0.2v-0.4l-0.2,0V187h-0.2v-0.2l-0.2,0v-0.4h-0.2v-0.2l-0.2,0v-0.2l0.2,0v-0.4l-0.2,0v-0.4h-0.3v-0.2h-0.2
	v-1.9l-0.2,0v-0.6l-0.2,0v-0.4h0.2v-0.4l-0.2,0V181l-0.2,0v-0.2h-0.2v-0.2l-0.2,0v-0.4h-0.2V180H241v-0.2h-0.2v-0.2l-0.3,0v-0.2
	h-0.2v-0.2l-0.3,0v-0.2l-0.3,0v-0.2l-0.2,0v-0.2h-0.2V178h-0.2v-0.4l-0.2,0v-0.4h0.2V177h0.3v-0.6l0.3,0v-0.2h0.2v-0.2h0.2v-0.2
	l0.5,0v-0.2h0.2v-0.2h-0.2v-0.6h-0.1V174h-0.2v-0.8h-0.2v-0.6H240v-0.9l-0.2,0v-0.4h-0.2V171h-0.2v-1.1l0.3,0v-0.2h0.2v-0.2l0.2,0
	v-0.2h0.2l0-1.7h-0.2v-0.4l-0.2,0v-0.4l-0.2,0v-0.4h-0.2v-0.2l-0.2,0v-0.2l0.2,0v-0.4h-0.2v-0.2h-0.2V165h-0.2v-0.2H239v-0.4l-0.2,0
	v-0.4h0.2v-0.2h1.1v0.2h0.5v-0.2l0.3,0v-0.2h0.3v0.2h0.2v-0.2h1.3v-0.2h0.8v0.4l0.2,0v0.2h-0.2v0.6l0.2,0v0.2h0.5v0.2h0.2v0.2h0.3
	v0.2h0.2v1.1h0.2v0.2h0.6v-0.2h0.5v-0.2h0.5v-0.2l0.5,0v-0.2h0.2v-0.2l0.3,0v-0.2h0.2v-0.2h0.2V165h0.2v-0.2h0.2v-0.4h0.2v-0.2
	l0.2,0v-0.2h0.5v-0.2l0.6,0v-0.2h0.5v-0.2h0.3v-0.2l0.2,0v-0.2h0.3v-0.2h0.2v-0.4h0.2v-0.9h0.2v-0.6h0.2v-0.9h0.2v-0.4h0.3v-0.2
	l0.2,0v-0.4h0.2v-0.4l0.2,0v-0.2l0.2,0v-1.3h-0.3v-0.2H252v-0.2l-0.3,0v-0.2h-0.3V156h-0.3v-0.2h-0.3v-0.2h-0.3v-0.2h-0.2l0-0.4
	h-0.2v-0.2h-0.3v-0.2l-0.3,0l0-0.2l-0.2,0v-0.2l-0.3,0v-0.2h-0.2v-0.4h-0.2v-0.6h0.2v-1.3l0.2,0v-0.2l-0.2,0v-0.2h-0.2v-0.2l-0.2,0
	v-0.2l-0.2,0v-0.2h-0.2l0-0.2H248v-0.2h-0.2v-0.2h-0.2v-0.2h-0.2v0.2h-0.3v0.2h-0.3v0.2h-0.5v0.2l-0.2,0v0.2l-0.3,0v0.2l-0.3,0v0.2
	h-0.2v0.2l-0.3,0v0.2l-0.3,0v0.2h-0.3v0.2h-0.2v0.2l-0.2,0v0.2H244v0.2l-0.2,0v0.2h-0.2v0.4l-0.2,0v0.6h-0.2v1.1h-0.2v0.2l0.2,0v0.2
	h-0.2v1.7h-0.3v0.6l-0.3,0v0.6h-0.2v0.2h-0.2v0.2h-0.2v0.2h-0.2v0.2h-0.2V159h-0.2v-0.2h-0.2V158l-0.3,0v-0.2h-0.3v-0.2h-0.3v-0.2
	l-0.2,0v-0.2h-0.2v0.2l-0.2,0v-0.6h-0.2v-1.1l-0.2,0v-0.4l-0.2,0v-0.4l-0.5,0v-0.4h-0.2v-0.2l-0.2,0v-0.2h-0.2v-1.1h-0.2v-0.2
	l-0.2,0v-0.2l-0.2,0V152h-0.2v-0.2l0.2,0v-0.4l-0.2,0v-0.6l-0.2,0v-0.2l-0.2,0v-0.2h-0.2v-0.2h-0.2v-0.6l-0.2,0V149H237v-0.2h-0.2
	v-0.2l-0.3,0v-0.2l-0.3,0v-0.2h-0.3v-0.2h-0.3v-0.2l-0.2,0v-0.2l-1,0v-0.2h-0.2v-0.2h-0.2v-0.9h0.2V146l-0.2,0v-0.6h-0.2v-0.4
	l-0.2,0v-0.4l-0.2,0l0-0.7h-0.2v-0.6l-0.2,0v-0.4l-0.2,0v-0.6l-0.2,0v-0.4h-0.2v-0.2h-0.2v-0.6l-0.2,0v-0.4h-0.2v-0.2h-0.2V140
	l-0.2,0v-0.2l-0.2,0v-0.4h-0.2v-0.2l-0.2,0V139l-0.2,0v-0.9h-0.2v-0.6H231v-1.1h-0.2v-0.9h-0.2v-0.2h-0.2v-0.6h-0.2v-0.4l0.2,0v-0.2
	l-0.2,0v-0.4h-0.2v-0.4h-0.2V133h-0.2v-0.6h-0.2v-0.2l-0.2,0v-0.4h0.2v-0.4l0.2,0v-1.5h0.2v-0.9h-0.2v-0.4l-0.2,0v-0.4l-0.5,0v-0.4
	l-0.3,0v-0.4l-0.2,0V127h-0.2v-0.4l-0.2,0v-1.3h-0.2v-2.1l-0.2,0v-0.4H228v-0.6h-0.2v-0.9h-0.2V121l0.2,0v-0.4l-0.2,0v-0.4l-0.2,0
	v-0.4h-0.2v-1.1h0.2v-1.1l-0.2,0v-0.2h-0.2v-0.2H227V117h-0.2v-0.4h-0.2v-0.4l-0.2,0v-0.2h-0.2v-0.2h-0.2v-0.2h-0.3v-0.2h-0.3v-0.2
	l-0.2,0v-0.2h-0.2v-0.2h-0.2v-0.4l-0.2,0v-0.4h-0.2v-0.6h-0.2v-0.4h-0.2v-0.2l-0.2,0v-0.4h-0.2v-0.4l-0.2,0v-0.2h0.2v-0.2H224v-1.5
	h-0.2v-0.2l-0.2,0v-0.4h-0.2V108l-0.2,0v-0.6h-0.2v-0.4h0.2v-0.2h-0.2v-1.3H223v-0.6l-0.2,0v-0.4h-0.3v-0.2l0.2,0v-0.4h0.2v-0.2
	h-0.2v-0.6h-0.2v-0.2h-0.2V102h-0.2v-0.4l-0.2,0v-0.4h-0.2v-0.6l-0.2,0v-0.4h-0.2v-0.2h-0.2v-0.2l-0.2,0v-0.2l-0.5,0v-0.2h-0.2v0.2
	h-0.8v-1.7l-0.2,0v-0.4h-0.2v-0.4h-0.2v-1.1l0.2,0v-1.1h-0.2v-0.2h-0.2v-0.2h0.2v-0.4l-0.3,0v-0.2h-0.5v0.2h-0.2v-0.2h-0.2v-0.2
	h-0.2v-0.2l-0.3,0v-0.2h-0.2v-1.3l-0.2,0v-0.4h-0.3v-1.9h0.2v-1.5l-0.3,0v-0.6h-0.2v-0.9h-0.2v-0.2h0.2v-0.6h-0.3v-0.2l-0.2,0v-0.2
	l-0.2,0v-0.6H216v-0.2l-0.2,0v-0.2h0.2v-0.2l-0.2,0v-0.2h0.2v-0.9h-0.2v-0.2h-0.2v-0.9l-0.2,0v-0.4l-0.2,0v-0.4h-0.2v-0.2H215v-0.4
	l0.2,0v-0.6h0.2v-0.4h-0.2V79h-0.3v-0.2h-0.2v-0.2l-0.3,0v-0.2l-0.3,0v-0.2h-0.2v-0.2h-0.3v-0.2l-0.2,0v-0.2h-0.2v0.2l-0.2,0v0.2
	h-1.8v-0.2h-0.2v-1.1h-1v0.2l-0.2,0v0.4h-0.2v0.2h-0.5v-0.2h-0.2v-0.4l-0.2,0v-0.6h0.2v-0.4l0.2,0v-0.4h0.2v-0.7l1.3-0.7l1.6-0.5
	l3.8-0.8l3.2,0.5l3.1,1l2.3,2.4l2.5,1.2l4.4-1.1l2.3-1l2.9,0.3l2.7,1.5l2.8,2.6l2.3-1.1l1.8-5.3l2.7-3.8l5.5-1.7l10.1,1.7l6.2,5.6
	l3.9-0.3l2.5-1.1l3-5.5l5.6-1l2-1.3l2.5-3.6l7.3,1.7l3.1-8.5l1.1-5.7l-0.9-3.6l3.7-1.9l1.2-2.1l1.4-7.6l1.3-1.8l2.9,0.1l-0.7-3.9
	l2.5-3.5l0.9-4.7l2.2-2.8l4.6,1.7l1.4,1.6l-0.6,5.3l0.1,2.6l2.7,2.8l0.2,1.4l3.8,5.5l0,2.4l-1.5,1.9l-1,6.1l-1.4,3.2l1.3,2.5l2,1.6
	l13.1,3.8l3.6-2.4l1.8,0.1l3.6,2l12.2,1l2.5,6.8l0.6,7.2l2.9,4.8l1.7,4.3l-0.6,3l-1,2l1.5,2.7l-0.8,3.5l4.9,1.3l3.2,6l0.5,8.1
	l-0.4,6.4l2.4,6.6l-0.8,3.9l-2,3.9l-0.8,4.1l3.9,11.8l3.1,3l2.7,1.3l2.4,2.1l1.6,3.3l3.3,4l2.1,1.6l3.1,0.6l3.1-0.8l8.5,3.6l4.4-3.6
	l2.1-8.9l10.1-1.4l6.3-1.5l3.4-1.5l4,0.4l12.6-9.8l3.2,0.1l2.6-3.2l5.8-1.6l1.9-3.9l1.7,0l8,2.4l2.3-1.2l4.7-0.9l4.8,0.9l1.6-2.9
	l4.3,0.3l1.2-13.9l1.9-1l2.5-4.6l4.1-2.8l4.4,1.6l0.2,4.1l-2.1,1.2l1.1,5.6l8.8,3l0.2,1.9l-1.2,3.4l2,3.9l6.2-1l2.7-2l-0.2-1.1
	l-2.5-3.4l4.3-5.9l3,3.6l2.9-3l1.8,0.2l5.9,8.8l0.7,5.7l0.4,9.9l-1.6,3.3l-1.1,4.5l1.1,0.5l2.9-1l1.8,1.2l2.9,4.5l0.6,5.7L547,169
	l-0.2,8.8l-5.1,5.8l0.6,5.4l-1.7,2.3l-0.1,5.1l5.9,3.9l1.8-2l1.3,1.8l1.6,5.3l3.7,4.3l2.3,5.5l1.5,5.7l1,6.3l-2.6,4.2l0.5,0.8
	l-1.1,5l-7.9,5.4l-4.2,3.9l-2.1,3.1l-0.5,5.6l-11,4.9l-5.2,6.7l-9.9,4.9l-3.3,2.4l-2.5,3.3l-3.1,7.3l-1.5,6.5l-5.4,5l-5.4-3.5
	l-13.1,2.5l-2.1-0.5l-1.9,1.2l-1.6,3.2l-4.6-2.2l-5,3.4l-2.8,4.4l-0.4,2.8l-1.5,3.6l-1.8-5.8l-5,1.2l-5.4,2l-2.4,2.6l-2.6,1.8
	l-2.1,0.8l-2.1,3.4l0.7,6.2l2,4l-0.1,4.9l2.4,0.9l2.9-0.1l1.8,1.6l0.9,3.4l4.1,3.4l-1.6,0.8l0.1,2l2.9,2.9l1.7,3.4l-0.2,5.7l0.4,2.8
	l-1.8,1.2l0.4,3.3l1.7,2.8l-3.1-0.2l-2.1,5.9l-1.8,3.5l-3.4,4.4l-1,3.1l2,7.2l3.1,14.2l4.5,4l3.4,5.6l-2.7,11.3l-2.3,0l-1.9,0.7
	l-1.7-0.8l-1.8-3.3l-2.2-2.6l-1.6-0.4l-1.8,1.9L442,421.4z"/>
<path id="D586" class="st0" d="M275.6,340.3v-0.2h1.1v0.2h0.5v0.2h0.6v0.2h0.5v0.4l-0.2,0v1.5l-0.2,0v1.1l-0.2,0v0.2h-0.2v0.2h-0.2
	v0.2l-0.2,0v0.2h-0.2v0.4l-0.5,0v0.2h-0.2V345h-0.3v-0.2l-0.3,0v-0.2h-0.2v-0.2l-0.2,0v-0.2h-0.2v-0.2h-0.1v-0.2l-0.2,0v-0.2l-0.5,0
	v-0.4h-0.2v-1.3h0.2v-0.6l0.2,0v-0.4h0.2v-0.2h0.3v-0.2H275.6z M314.6,317.9v-0.4h1.1v0.2l0.6,0v0.6h0.2v0.6h-0.2v1.7h-0.2v0.2h0.2
	v0.2h-0.2v0.2h-1.1v0.2h-0.3v-0.2h-0.2v-0.2h-0.2v-0.4l-0.2,0v-0.2l-0.2,0V320l-0.2,0v-0.6h0.2v-0.9l0.2,0v-0.6H314.6z M330.6,304.2
	l-0.3,0v-0.3L330.6,304.2z M267.1,358.2V358h1.1v0.2l0.3,0v0.2h0.3v0.2l0.2,0v0.2h0.2v0.2h0.2v0.2l0.2,0v0.2h0.2l0,0.2l0.2,0v0.9
	h0.2l0,0.6l-0.2,0v0.2l-0.2,0l0,0.2h-0.3v0.2h-0.2v0.2l-0.2,0v0.6l-0.2,0v0.2l0.2,0v0.2h-0.2v0.2h-0.5v0.2h-0.5v-0.2h-0.6v-0.2
	l-0.2,0v-0.6l0.2,0v-0.4l-0.2,0v-0.2h-0.2v-0.2h-0.6v0.2h-0.5v0.2l-0.3,0v0.2H265v0.2h-0.2v-0.2h-1.3v-0.2h-0.3v0.2h-0.5v0.2h-0.5
	v-0.2h-0.3v-0.2l-0.5,0v-0.2h-0.3v-0.2h-0.5v-0.2H260v0.2h-0.2v0.2h-0.2v0.2l-0.3,0v0.2h-0.3v0.2h-0.6v-0.2h-0.3v-0.2l-0.6,0v-0.2
	h-0.3v-0.2H257v-0.2l-0.3,0v-0.2h-0.3V361l-0.2,0v-0.2l-0.2,0v-1.5l0.2,0v-0.2h0.2v-0.2h0.3v-0.2l0.2,0v-0.2h0.5v0.2l0.3,0v0.2h0.3
	v0.2h0.2v0.2l0.2,0v0.2h0.2v0.2l0.2,0v0.2h0.2v0.4h0.2v0.2h0.6v-0.2h0.6v-0.2h1v0.2h0.2v-0.2l0.8,0v-0.2h0.5v-0.2h0.5v-0.2h0.6v-0.2
	l0.3,0v-0.2h1.6v-0.2h0.3v-0.2l0.5,0v-0.2h0.3v-0.2L267.1,358.2z M420.8,657.1h-0.1v-0.4l-0.2,0V656h-0.2v-0.6l-0.2,0v-0.6l-0.2,0
	v-0.6h-0.2v-0.6h-0.2V653l-0.2,0v-0.4h-0.8v-1.5h0.2v-1.7h-0.2v-0.2l-0.2,0V649l-0.2,0v-0.4h-0.2v-0.9h-0.2v-0.2l-0.2,0v-0.4h-0.2
	v-0.2l-0.2,0v-0.2l-0.2,0v-0.4h-0.2V646l-0.2,0v-0.2h-0.2v-0.2h-0.2v-0.2l-0.5,0v-0.2l-1,0v-0.2h-0.6v-0.2h-0.3v0.2h-0.3v-0.2h-0.3
	v-0.9h0.1v-0.4l0.3,0v-0.2h1.3V643l0.3,0v-0.2h0.2v-0.2h0.5v0.4l0.2,0v0.4l0.3,0v0.2h0.8v-0.2l0.3,0v-0.2h0.2v-0.4h0.3v-0.2l0.2,0
	v-0.2h0.3v-0.2l0.2,0v-0.9l0.2,0v-1.1h0.6v0.2h0.3v0.2h0.4l0.1,0l0,0.1l0,0.1h0.2l0.1,0v0.1v0.1h0.2h0.3l0,0.2h0.3l0,0.2h0.5v0.2
	h0.3v-1.1l0.2,0v-0.2h-0.2v-0.2h-0.3v0.2h-0.5v-0.2l-0.3,0V640h-0.5v-0.2h-0.3v-0.2l-1.4,0l-0.1,0v0.2h-0.6v0.2h-1.3v0.4h-0.2v0.2
	l-0.3,0v0.4h-0.2v0.4h-0.2v0.2h-0.2v0.4h-0.3v-0.2H416v-0.2h-0.2V640h-0.2v-0.4l-0.2,0v-0.4h-0.2v-0.6l-0.2,0v-0.4H415v-0.4h-0.2
	v-0.4h-0.2v-0.4l-0.2,0v-0.2l-0.2,0v-0.4h-0.2V636l-0.2,0v-0.4h-0.2v-0.9l-0.2,0l0-0.4h-0.2v-0.4l-0.2,0v-0.4h-0.2v-0.1V633l-0.2,0
	v-0.4h-0.2v-0.4l-0.1,0l-0.2,0v-0.2l-0.5,0v-0.2h-0.8v0.2l-0.5,0v0.2h-0.3v0.2h-0.2v0.2h-0.2l0,0.2H410v0.2h-0.6v-0.4h-0.2v-0.2h0.2
	v-0.2h0.2v-0.2l0.3,0v-0.2l0.3,0v-0.2h0.3v-0.2h0.2v-0.2h0.2v-0.4h0.3v-0.2H411V630v-0.2h-0.1h-0.3v0.2l-0.2,0v0.2l-0.2,0v-0.6
	l-0.3,0v-0.2h-0.3v0.2l-0.2,0v0.2h-0.2v0.2l-0.3,0v0.6h-0.2v0.2l-0.2,0v-1.3l-0.2,0v-0.2h-0.3v-0.2l-0.2,0v-0.4l0.3,0v-0.2h0.3v0.2
	h0.3v-0.2h0.2v-0.2l0.2,0V628v-0.6l0.2,0V627l0.2,0v-0.6h-0.2v-0.2l-0.2,0v-0.4l-0.3,0v-0.4l-0.2,0v-0.4l-0.2,0v-0.2h-0.1v-0.2h-0.2
	v-0.2l-0.3,0V624h-0.2v-0.2h-0.3v-0.2h-0.2v-0.2l-0.2,0v-0.2H407v-0.2l-0.3,0v-0.2h-0.2v-0.2h-0.3v-0.2l-0.2,0v-0.2h-1.3v-0.2
	l-0.8,0v-0.2l-0.3,0v-0.4h0.2V621l0.2,0v-0.2h0.2v-0.2h-0.8v0.2h-0.2v0.2l-0.2,0v0.4l-0.2,0v0.2h-0.3v0.4l-0.2,0v0.4l-0.2,0v0.6
	l-0.3,0v0.4l-0.2,0v0.2h0.2v0.2l0.2,0v0.2l0.2,0v2.1h-0.3v-0.2l-0.2,0v-0.2l-0.6,0v-0.4h-0.2v-0.2l-0.2,0v-0.4l-0.2,0v-0.6l0.2,0
	V624l0.3,0v-0.2h0.3v-0.4h-0.3v-0.9l-0.2,0v-0.6l-0.2,0v-0.2h-0.3v-0.2l-0.3,0v-0.2H400V621l-0.3,0v-0.2h-0.3v-0.2h-0.2v-0.2l-0.3,0
	v-0.2h-0.2v-0.9l-0.2,0v-0.4h-0.2v-0.4h-0.2v-0.9h-0.6v0.2h-0.2v0.2h-0.2v0.2l-0.2,0v0.4l-0.2,0v0.4h-0.2v-0.2h-1v-0.2h-0.3v-1.1
	l-0.2,0v-0.2H395v-0.2l-0.2,0V617h-0.5v0.2l0,0.2h-0.4h-0.2h-0.4v-0.2h-0.2V617v-0.5h-0.3v-0.9l-0.2,0v-0.2l-0.2,0V615h-0.5v0.6H392
	v0.5v0.1h-0.3v0.2l-0.1,0v0.2H391v0.2h-0.2v-0.2h-0.2v0.2h-0.5v0.2l-0.3,0v0.2h-0.3v0.2h-0.2v-0.2h-0.2v-0.2l-0.3,0V617h-0.2v-0.2
	l-0.2,0v-0.4h-0.3v-0.2H388v-0.2h-0.3v-0.2h-0.2v-0.9h-0.2v-1.3h-0.2v-0.4h-0.3v-0.2h-0.2v-0.2l-0.3,0v-0.2H386v-0.2h-0.2v-0.2h-0.3
	v-1.3l0.2,0v-1.1l-0.2,0v-0.6l0.3,0v-0.4h0.3v-0.2l0.2,0v-0.2h0.3V608h0.2v0.2h0.5V608l0.3,0v-0.2l0.2,0v-0.9h0.2v-0.6l0.2,0v-0.6
	l0.2,0V605l-0.2,0v-0.4l-0.2,0v-1.1h-0.2v-0.2h-0.2v-0.2l-0.2,0v-0.4h-0.2V602h-0.2v-0.6H387v-0.2l-0.2,0V601l0.2,0v-0.4l-0.2,0
	v-0.4h-0.2v-0.4l-0.2,0v-0.4h-0.2v-0.6l-0.2,0v-0.4l-0.2,0v-0.4h-0.2v-0.4h-0.2v-0.2l-0.2,0v-0.6h-0.2v-0.6h-0.2v-0.2l-0.2,0v-0.4
	l-0.2,0v-0.4h-0.2v-0.4l-0.2,0v-0.4h-0.2v-0.4h-0.2v-0.4h-0.2v-0.2l-0.3,0v-0.4h-0.2v-0.2h-0.2V592h-0.2v-0.2H383v-0.2l-0.3,0v-0.2
	v-0.2H382h-0.6v0.2h-0.3v0.2l-0.2,0v0.2h-0.2v0.2h-0.3v0.2h-0.2v0.2h-0.3v0.2h-0.6v-0.2H379v-0.2h-0.8V592h-0.3v-0.2h-0.2l0-0.2
	l-0.2,0v-0.2h-0.2v-0.2h-0.2v-0.4h-0.2v-1.1l0.2,0v-0.2l0.2,0v-1.7l-0.2,0v-0.2h-0.2v-0.2h-0.2v-0.9h-0.2v-1.1l-0.2,0v-0.2h-0.2
	v-0.2l-0.3,0v-0.4l-0.2,0v-0.2h-0.2v-0.2h-0.5v-0.2l-0.2,0v-0.2l-0.3,0v-0.2h-0.3V583l0.2,0v-0.2l0.2,0v-0.2h0.2V582h0.2v-0.6
	l-0.2,0V581v-0.1h-0.2v-0.2h-0.3h-1v0.2h-0.2v-0.2l-0.3,0v-0.2h-0.2v-0.2h-0.3V580h-0.3v-0.4h-0.2v-0.2h-0.3v-0.2l-0.2,0V579h-0.5
	v-0.2l-0.2,0v-0.2h-0.3v-0.2l-0.3,0v-0.4l-0.2,0v-0.4h-0.6v0.2h-1.1v-0.2h-0.8v-0.2l-0.3,0V577l-0.2,0v-0.6h0.2v-0.2h0.2v-0.6h-0.2
	v-0.2l-0.2,0v-0.2h-0.3v-0.2l-0.6,0v-0.2h-0.3v-0.2h-0.2v-0.2l-0.3,0v-0.2h-0.2v-0.2h-0.3v-0.2h-0.6v-0.2h-2.7v0.2h-0.5v0.2l-0.2,0
	v-0.2l-0.3,0v0.2h-0.2v-0.2h-0.3v-0.2l-0.3,0v-0.2h-0.3v0.2h-0.3v-0.2h-0.3V573l-0.2,0v-0.2h-0.2v-0.2h-0.2v-0.2l-1.3,0v-0.2l-0.2,0
	v-0.4h-0.2v-0.2l-0.2,0v-0.2H355v0.2h-0.3v-0.2h-0.2v-0.2h-0.3v-0.4l-0.2,0v-0.4l-0.3,0v-0.4l-0.2,0v-0.2h-0.2v-0.2h-0.2v-0.2h-0.2
	V569v-0.2l0.2,0v-0.4l0.2,0v-0.4h-0.2v-0.6h-0.6V567h-0.2v0.2h-0.2V567h-0.3v-0.4h-0.2v-0.4h-0.3v-0.4l-0.2,0v-0.2h-0.6v-0.2h-0.3
	v0.2h-0.5v0.2h-0.2v-0.2h-0.3v-0.2H349v0.2h-0.2v0.4h-0.3v0.4l-0.6,0v0.2h-0.2v-0.2h-0.2v0.2l-0.3,0v0.2h-0.2v0.2h-0.3v0.2h-0.3v0.2
	l-0.2,0v0.2h-0.2v-0.2l-0.3,0v-0.6h-0.2v-0.2h-1.1v0.2l-1.4,0v-0.4l0.2,0v-0.6l0.2,0v-0.2h0.2v-0.2h0.3v-0.2h0.3v-0.2h0.3v-0.2
	l0.3,0v-0.2h0.2v-0.2l0.2,0V564h0.2v-0.2l0.2,0v-0.2h0.2v-0.2l0.2,0v-0.2h0.2V563h0.3v-0.2l0.5,0v-0.2l0.3,0v-0.2h0.3v-0.2h0.3v-0.2
	l0.2,0v-0.2h0.3v-0.2l0.2,0v-0.2h0.3V561h0.2v-0.2l0.3,0v-0.2h0.2v-0.2l0.2,0v-0.2h0.3V560h0.2v-0.6h0.2v-0.6l-0.2,0v-0.2h0.2v-0.2
	h0.2V558l0.2,0v-0.2h0.3v-0.2l0.3,0v-0.2h0.2V557l0.2,0l0-1.8v-0.8l-0.2,0v-0.6l-0.2,0v-0.6l-0.2,0l0-0.4h-0.2v-0.6h0.2l0-0.4h-0.2
	v-0.4l-0.2,0V551h-0.5v-0.2H350v-0.2h-0.3v-0.2l-0.1,0v-0.2h-0.3v-0.2H349v-0.2h-0.3v-0.9h-0.5v0.2h-0.1v-0.2h-0.7v0.2H347v-0.2
	h-0.3v-0.2h-0.2v-0.2l-0.2,0v-0.2h0.3V548h0.3v-0.2h1.4v-0.2h0.5v-0.2l0.2,0v-0.2h0.2v-0.2l0.3,0v-0.2h1.3v-0.2l0.8,0v-0.2h0.2v-0.2
	h0.3v-0.2h0.3v-0.2h0.5v-0.2l0.6,0v-0.2l0.3,0V545h0.3v-0.2h0.3v-0.2l0.2,0v-0.2h0.2v-0.2l0.2,0V544h0.5v0.2l0.3,0v0.2h0.2v0.2
	l0.2,0v0.2h0.2v0.2h0.3v-0.2l0.3,0v-0.4l0.2,0v-0.9h0.2V542h0.2v-0.2l0.2,0V541l0.3,0v-0.4l0.2,0v-0.4h0.6v-0.2h0.2v-0.2l0.5,0v-0.2
	l0.5,0l0-1.5l-0.2,0v-0.4h-0.3v-1.9l-0.2,0v-1.1h0.2v-0.4l0.2,0v-0.4l0.2,0v-0.4h-0.2v-0.2l-0.3,0v-0.2l-0.2,0v-0.4h-0.2V532l-0.3,0
	v-0.2l-0.2,0v-0.2H358v-0.2l-0.3,0v-1.1l-0.2,0v-0.2h-0.3v0.2h-0.3v-0.2l-0.3,0v-0.4h0.2v-0.4l0.2,0V529l0.2,0v-0.4h0.2v-0.2h0.2
	v-0.2h0.9v-0.2h0.3v-0.2h0.5v-0.2h0.3v-0.2l0.6,0v-0.2l0.2,0v-0.4h0.2v-0.2h0.2v-0.2l0.2,0v-0.4h0.2v-0.4h0.2v-0.9h0.2v-0.2l0.3,0
	v-0.2l0.2,0v-0.4h-0.2v-0.2l0.2,0V523l0.2,0v-0.2h0.3v-0.2h0.2v-0.2h0.3V522h0.3v-0.2h0.5v-0.4h0.2v-0.4h0.2v-0.4l0.2,0V520l0.2,0
	v-0.4l0.2,0v-0.4l-0.2,0v-1.1h-0.2v-0.4h-0.2v-0.9h-0.2v-0.2l-0.2,0v-0.4h0.2V516l-0.2,0v-0.6l-0.2,0v-0.6h-0.2v-0.9H363v-0.6h-0.2
	v-1.1l-0.2,0v-0.4l-0.2,0v-0.4h-0.2v-0.4l-0.2,0v-0.2H362v-0.9h-0.2v-0.2h-0.2V507l-0.2,0v-0.2l0.2,0v-0.4h-0.2v-0.9h-0.2v-0.6h-0.2
	V504l-0.2,0v-0.9h-0.2v-1.7l-0.2,0V500l-0.2,0v-0.6l-0.2,0v-0.4h-0.2v-0.6l-0.2,0v-0.6h-0.2v-0.9h-0.2v-0.9h-0.2v-0.9h-0.2V494h-0.2
	v-0.6h-0.2v-1.1H359v-0.9h-0.2v-0.9l-0.2,0v-0.6l-0.2,0v-0.4l-0.2,0v-0.4h-0.1v-0.9H358v-0.9h-0.2v-1.3l-0.2,0v-0.4h-0.2v-1.1h-0.2
	V484l-0.2,0v-0.9l-0.2,0v-1.3h-0.2V481l-0.2,0v-0.9l-0.2,0v-1.3h-0.2v-1.7h-0.2v-1.3h-0.2v-0.4l-0.2,0V475l-0.2,0v-0.6h-0.2v-0.4
	h-0.2v-0.6l-0.2,0v-0.4h-0.2v-0.2h0.2v-1.1l-0.2,0v-0.4l-0.2,0v-0.6h-0.2v-0.4h-0.2v-0.4l-0.2,0v-0.4h-0.2v-0.4l-0.2,0v-1.3l-0.2,0
	v-1.7h-0.2V465h-0.2v-0.9h-0.2v-0.9h-0.2v-0.9h-0.2V462l-0.2,0v-0.4h0.2v-1.1l-0.3,0v-0.4h0.2v-0.9l-0.2,0v-0.4l-0.2,0v-1.3h-0.2
	v-0.4l-0.2,0v-0.2h-0.2v-0.2h0.2v-0.4h-0.2v-0.4l-0.2,0v-0.4l-0.2,0v-0.4h-0.2v-0.2h-0.2v-0.4l-0.2,0v-0.4h-0.2V453h-0.2v-0.9
	l-0.2,0v-0.9h-0.2v-0.9h-0.2v-0.6h-0.2V449h-0.2v-0.6l-0.2,0v-0.9H350v-0.9h-0.2v-0.9h-0.2v-0.9h-0.1v-0.6l-0.2,0v-0.4h-0.2v-1.1
	l-0.2,0v-1.5h-0.2v-0.6l-0.2,0v-0.9h-0.2v-0.6h-0.2v-0.6h-0.2v-0.9l-0.1,0V437l-0.2,0v-0.2l-0.2,0v-0.4h-0.2v-1.1h-0.2v-0.9h-0.2
	v-1.5l-0.2,0v-0.6H347v-0.6h-0.2V431l-0.2,0v-0.9h-0.2v-0.6l-0.3,0v-0.4h0.2v-0.2l-0.3,0v-0.6h-0.2v-0.9l0.2,0V427h-0.2v-0.4h-0.2
	v-0.6h-0.2v-0.4l-0.2,0V425l-0.2,0v-0.6l-0.2,0V424l-0.2,0v-1.3l-0.2,0v-1.3l-0.2,0V421h-0.2v-0.4l-0.1,0v-0.4l-0.2,0v-0.4l-0.2,0
	v-0.4l-0.2,0v-0.4l-0.2,0v-0.4h-0.2v-2.1h-0.2v-0.6l-0.2,0V415H343v-0.6h-0.2v-0.6l-0.2,0v-0.9h-0.2V412l-0.2,0v-0.4H342v-1.7
	l-0.2,0v-0.6h-0.2l0-0.9l-0.2,0V408h-0.2v-0.2l-0.3,0v-0.4h-0.2v-0.9l-0.2,0v-0.6l-0.2,0v-0.6h-0.2v-0.6h-0.2v-0.6h-0.2v-0.6h-0.2
	v-0.6h-0.2v-0.9l-0.2,0v-0.6l-0.2,0v-0.6h-0.2v-0.6h-0.2v-0.6l-0.2,0v-0.6h-0.2v-0.6h-0.2v-0.9h-0.2v-0.6l-0.2,0V396l-0.2,0v-0.6
	l-0.2,0v-0.6l-0.2,0v-0.4l-0.2,0v-0.7h-0.2V393l-0.2,0v-0.6l-0.2,0v-0.6H337v-0.6l-0.2,0v-0.4l-0.2,0V390l-0.2,0v-0.6h-0.2V389h-0.2
	v-0.6h-0.2v-0.2l-0.2,0v-0.4l0.2,0v-0.4l0.2,0l0-0.3v-0.2h-0.2v-0.4h-0.2v-0.2l-0.2,0v-0.4h-0.2v-0.2h-0.2v-0.2h-0.2v-1.1h-0.2V384
	H335v-0.4h-0.2V383h-0.2v-1.1h-0.2v-0.2h0.2v-0.2l-0.2,0v-0.4l-0.2,0v-0.9l-0.2,0v-0.4l-0.2,0v-0.2l-0.2,0v-0.4l0.2,0v-0.4h-0.2
	v-0.6l-0.2,0v-0.4h-0.2V377l-0.2,0v-0.6l-0.2,0v-0.4l-0.2,0v-0.4l-0.2,0v-0.4l-0.2,0v-0.4l-0.2,0v-0.4l-0.2,0v-0.4l-0.2,0v-0.4
	l-0.2,0v-0.6l-0.2,0v-0.6h-0.2v-0.6l-0.2,0V371h-0.2v-0.6l-0.2,0v-0.6l-0.2,0v-0.4l-0.2,0v-0.4h-0.2v-0.4l-0.2,0V368l-0.2,0v-0.4
	l-0.2,0V367l-0.2,0v-0.4l-0.2,0v-0.4l-0.2,0v-0.4l-0.2,0v-0.4l-0.2,0v-0.6l-0.2,0v-0.4h-0.2v-0.4H329v-0.4h-0.2v-0.4l-0.2,0v-0.4
	l-0.2,0v-0.4l-0.2,0v-0.2h-0.2v-0.4l-0.2,0v-0.2l-0.2,0v-0.4l-0.2,0v-0.4h-0.2v-0.4l-0.2,0v-0.4h-0.2v-0.4h-0.2v-0.4l-0.2,0v-0.4
	l-0.2,0v-0.4l-0.2,0v-0.4l-0.2,0v-0.4l-0.2,0v-0.2h-0.2v-0.4l-0.2,0v-0.2h-0.2l0-0.4h-0.2v-0.2l-0.2,0V355h-0.2v-0.2l-0.2,0v-0.4
	l-0.2,0v-0.2l-0.2,0v-0.4h-0.2v-0.2l-0.2,0v-0.4l-0.2,0v-0.2h-0.2v-0.4l-0.2,0v-0.2l-0.2,0v-0.4h-0.2v-0.2l-0.2,0v-0.4h-0.2V351
	h-0.2v-0.4l-0.2,0v-0.2h-0.2v-0.4l-0.2,0v-0.2l-0.2,0v-0.4l-0.2,0V349h-0.2v-0.2l-0.2,0v-0.4H322v-0.2l-0.2,0V348h-0.2v-0.2h-0.2
	v-0.2l-0.2,0v-0.2l-0.2,0v-0.2H321v-0.2h-0.5v-0.2l-0.3,0v-0.2h-1.3v0.2l-0.6,0v0.2H318v0.2h-2.1v0.2l-0.8,0v0.2l-0.2,0v0.2h-0.2
	v0.4l0.2,0v0.4l0.2,0v0.2h-0.3v0.4l-0.2,0v0.4l-0.2,0v0.2l-0.2,0v0.2h-0.5v0.2h-0.2v-0.2h-0.2v0.2H313v-0.2h-0.3v-0.2h-2.9v0.2h-0.2
	v0.2h-0.3v0.2l-0.2,0v0.4H309v0.6l-0.2,0v1.9h-0.2v0.2h-0.3v0.2l-0.8,0v0.2h-0.3v-0.2h-0.2h-0.9v0.2h-0.6v0.2l-1.9,0v0.2h-0.8v-0.2
	l-0.5,0v-0.2h-0.2v-0.2l-0.3,0v-0.2h-0.2v-0.2h-0.2v-0.2l-0.5,0v-0.2l-0.3,0v-0.2h-0.3v-0.4l-0.3,0v-0.2h-0.2V352h-0.2V351h-0.2
	v-0.4l-0.2,0v-0.2l-0.2,0v-0.9l-0.2,0v-0.2l-0.2,0v-0.6l-0.2,0v-0.2h-0.2v-0.2l-0.2,0v-0.4l-0.2,0v-0.4l-0.3,0v-0.2h-0.3v-0.2h-0.3
	v-0.2l-0.3,0v-0.2h-0.2v-0.2h-0.2v0.2h-0.5v0.4l-0.2,0v0.2h-0.3v0.2l-0.5,0v0.2h-0.8v-0.2l-0.6,0v-0.2h-0.6v-0.2H293v-0.2l-0.3,0
	v-0.2h-0.2v0.2h-0.2v-0.2H292v0.2h-0.2v-0.2l-0.5,0V346h0.2v-0.4l-0.2,0v-0.2l-0.2,0v-0.2h-0.2V345h-0.2v-0.2l-0.2,0v-0.2h-1v0.2
	h-0.2v-0.2h-0.5v-0.2l-0.8,0v-0.2h-0.6v-0.2h-0.3v-0.2h-0.2v-0.6h-0.2v-0.4l-0.3,0v-0.2h-0.6v-0.2H286V342h-0.3v0.2h-0.2V342H285
	v0.2h-0.2V342h-1.1v-0.2l-0.3,0v-0.4l-0.2,0v-0.2h-0.2v-0.2l-0.3,0v-0.4h-0.2v-0.4h0.2v-0.6h0.2V339h0.2v-1.1l-0.2,0v-1.1h0.2v-2.1
	h-0.2v-3.2l-0.2,0v-0.4l-0.2,0v-0.6l-0.2,0V330l-0.2,0v-0.4h-0.2v-0.2l-0.2,0v-0.2l-0.2,0V329h-0.2v-0.2h-0.2v-0.2l-0.3,0v-0.4h-0.3
	v-0.2h-1v0.2h-0.6v0.2h-2.7v-0.2H276v0.2l-0.3,0v0.2h-0.3v0.2h-0.6v-0.2H274v-0.2h-0.2v0.2h-0.3v-0.2l-0.2,0v-0.4H273v-0.2l-0.2,0
	v-0.4h-0.2V327l-0.2,0v-0.4l-0.2,0V326h0.2v-0.6l0.2,0v-0.4h0.2v-0.2l0.2,0v-0.4h0.2v-0.2H273v-0.2h-0.2v-0.2l-0.3,0v-0.2h-0.2v-0.2
	l-0.2,0V323h-0.5v-0.4l-0.2,0v-0.2h-0.2v-0.2l-0.2,0v-0.4h-0.2v-0.6h-0.2v-0.9h-0.2v-0.6l-0.2,0v-0.4h-0.2v-0.4l-0.2,0v-0.2l-0.5,0
	v-0.2h-0.3v-0.2h-0.2v-0.2h-0.2v-0.4H269v-0.2h-0.2v-1.3l-0.2,0v-1.5l0.2,0V314l0.2,0v-0.2h0.2v-0.2l0.2,0v-0.2h0.2v-0.2h0.2l0-0.2
	l0.5,0v-0.2h1.3v0.2l0.3,0v0.2h0.3v0.2h0.2v-0.2h0.3V313l0.3,0v-0.2l0.2,0v-0.6h0.2V311h0.2v-0.6h0.2v-0.2l0.2,0v-0.4l0.2,0v-0.2
	h0.3v0.2l0.2,0v0.6l0.2,0v0.6h0.8v0.2h0.5v0.2h0.2l0,0.9l0.2,0v0.2h0.2v0.4h0.2v0.4h0.2v0.2l0.2,0v0.2h0.2v0.2l0.3,0v0.2h0.3v0.2
	l1.4,0v0.2h0.3v0.2l0.2,0v0.2l0.3,0v0.2h0.2v0.6h0.2v0.4h0.8v0.2l0.2,0v0.2l0.2,0v0.2h0.3v0.6l0.2,0v0.2l0.6,0v0.2h0.2v0.2h0.2v0.2
	l0.3,0v0.2l0.2,0v0.2h0.2v0.2h0.2v0.4l0.2,0v0.4l0.2,0v0.4l0.2,0v0.5v1h0.2v1.3h1V323h0.5v-0.2h0.3l0-0.2l0.5,0v-0.2h0.2v-0.2l0.2,0
	v-0.2h0.3v-0.2l0.3,0v-0.2h0.3v-0.2h0.2v-0.2h0.2v-0.2h0.2v-0.2h0.2V320l-0.2,0v-1.5l0.2,0v-0.4H288v-0.6h-0.2v-1.5l0.3,0v-0.2h0.2
	v-0.2h1.1v0.2h0.5v0.2l1,0v0.2h0.5v0.4l0.3,0v0.2l0.3,0v0.9l0.2,0v0.2l-0.2,0v0.2h0.2v1.5l0.2,0v0.2h0.5l0.1,0v0.2h0.8v0.2h0.2v0.2
	h0.2v0.2l0.2,0v0.4h0.2v0.2h0.5v-0.6l-0.2,0v-0.4h-0.2v-1.3h0.2v-0.2l0.2,0v-0.2l0.6,0v-0.2h0.2v0.2l0.3,0v0.2l0.5,0v0.2h0.8v-0.2
	h0.3v-0.4h0.2v-0.4l0.2,0v-0.2h0.2v-1.1l0.2,0v-0.2h0.3v-0.2h0.6v0.2h0.3v-0.2h0.6v-0.2l0.5,0v-0.2h0.6v-0.2h0.2v0.2h0.6l0,0.2
	l0.3,0v0.2h0.2v0.4l0.2,0v0.2l0.5,0v0.2h0.3v0.2h0.5v0.2h0.2l0,0.6h0.1v1.1h0.2v0.6h0.2v0.4h-0.2v0.9h0.2l0,0.2h-0.3v0.2h0.2v0.4
	h-0.2v0.2l-0.3,0v0.4l0.2,0v0.2h0.2v0.4l0.2,0v0.4l0.2,0v0.2h0.2v0.2h0.5v0.2h0.8v-0.2h0.8v-0.2l0.3,0v-0.4h0.2v-0.2l0.2,0v-0.4h0.2
	v-0.2l0.8,0v-0.2h0.5v0.2l0.5,0v0.2h0.3v0.2h0.5v0.2l0.5,0v0.2h0.3v0.2l0.2,0v0.2h0.3v0.2h0.3v0.2h0.2v0.4l0.1,0l0,0.2h0.2v-0.2h0.2
	v0.4h0.2v-0.2h0.2v-0.2h0.2v-0.2l0.2,0v-0.2h0.2v-0.2h0.2v-0.2l0.2,0v-0.2h0.1h0.1v-0.2l0.2,0V323h0.3v-0.2l0.5,0v-0.4h0.5v-0.2h0.6
	h0.2V322v-0.3h0.2v0.2h0.2v0.2l1.1,0v0.2h0.3v0.2l0.5,0v0.2h0.3v0.2h0.5v0.4l0.5,0v0.2l0.3,0v0.4h0.2v0.9h-0.3v0.2h-0.2v0.4l0.2,0
	v0.4h0.2v0.2h0.3v0.2h1.1v-0.2h0.6V326h0.2v0.2h0.2v0.2h0.6v-0.2h0.2V326h0.2v-0.4l0.2,0v-0.2h0.5v-0.2h0.2v-0.2h0.2v-0.2h0.8v0.2
	h0.2v0.2h1.1v-0.2h0.2v-0.2h0.2v-0.2l0.2,0v-0.2h0.2v-0.2h0.2v-0.2l0.2,0v-0.4h0.2v-0.2l0.2,0V323h0.2v-0.2h0.2v-0.2l0.2,0v-0.4
	l0.5,0v-0.2h0.2v-1.7h-0.2v-0.9h-0.2v-0.2h0.5v-0.2h0.5v-0.9h0.3v-0.2h0.6v0.2h0.5v-0.2l0.2,0v-0.2l0.2,0v-0.2h0.3v-0.2h0.3v0.2h0.2
	v-0.2h0.2v0.2h0.3v0.2l0.3,0v0.2l0.2,0v0.2h0.3v0.2h0.2v-0.6l0.2,0v-0.9h0.2v-0.9h0.2v-0.6h0.2v-0.9h0.2v-0.9h0.2v-0.9l0.2,0v-0.2
	h-0.2v-0.2h-0.2v-0.2l-0.2,0v-0.4l-0.2,0v-0.4h-0.2V311h-0.3v-0.6h-0.2v-0.2l-0.2,0v-0.4l-0.3,0v-0.2h-0.2v-0.2l-0.2,0v-0.4l-0.2,0
	v-0.6h-0.2v-0.6h-0.3v-0.9h-0.2v-0.4l-0.2,0v-0.4l-0.2,0v-0.4l-0.2,0v-0.4l-0.2,0v-0.2h-0.2v-0.2h-0.2v-0.4l8,7.3l0.1,0.1l0.2,0.2
	l0.9,0.4l4,0.8l1.7,0l0.3-0.2l1.1-1.4l0.2-3.3l0.4-0.9l4.5-0.7l1.3-0.9l0.4-0.5l0.3-2.8l3.2-3.3l3.1-1.3l0.3-0.1l1.2,0.2l0.6,1.8
	l0.1,0.3l-0.3,2.1l-2.7,4.2l-2.4,1.8v0.4l-0.1,0.1l-0.6,0.6l0,0.1l-0.3,4.5l0.1,0.4l0.9,0.9l0,0.4l1.2,0.9l4.8,1.8l0.3,0.2l1.1,0.4
	l-0.1,1.2l-5.4,1.6l-2.4-0.1l-0.9,0.2l-0.9,0.8l12,2l3,1.6l1.7,2.4l1.5,5.8l1.2,6.1l0.3,4.7l0.9,3l1.7,2l2.4,1l5.6,0.1l7.4,7l3,2.5
	l3.1,1.5l3,4.2l0.4,10.9l2.9,19l1.8,3.4l2.4,1.1l5.2,0.3l5.2-3.4l2.5,0.7l1.6,3.8l10.1,2.7l5.4,3.7l0.3,7l1,4.1l1.9,1.9l2.1-1.1
	l1.8-1.9l1.6,0.4l2.2,2.6l1.8,3.3l1.7,0.8l1.9-0.7l2.3,0l2.7-11.3l-3.4-5.6l-4.5-4l-3.1-14.2l-2-7.2l1-3.1l3.4-4.4l1.8-3.5l2.1-5.9
	l3.1,0.2l-1.7-2.8l-0.4-3.3l1.8-1.2l-0.4-2.8l0.2-5.7l-1.7-3.4l-2.9-2.9l-0.1-2l1.6-0.8l-4.1-3.4l-0.9-3.4l-1.8-1.6l-2.9,0.1
	l-2.4-0.9l0.1-4.9l-2-4l-0.7-6.2l2.1-3.4l2.1-0.8l2.6-1.8l2.4-2.6l5.4-2l5-1.2l1.8,5.8l1.5-3.6l0.4-2.8l2.8-4.4l5-3.4l4.6,2.2
	l1.6-3.2l1.9-1.2l2.1,0.5l13.1-2.5l5.4,3.5l5.4-5l1.5-6.5l3.1-7.3l2.5-3.3l3.3-2.4l9.9-4.9l5.2-6.7l11-4.9l9.3,18.7l4.2,11.1
	l1.5,5.9l0.3,4.3l-1.7,1.2l1.5,2l-4.1,7.2l1,6.9l2.4,4.5l1.8,5.8l-1.1,9.9l2.1,4.6l2.1,1.1l9.1,0.6l4.1,4.3l9,5.9l0.1,1.4l-2.9,2.6
	l-0.6,3.7l1.9,7.7l1.4,3l-2.9,10.6l2.7,12.5l7.2,12.7l0.7,3l-4.3,7.7l-9.1,0.7l-5-1l-4.3-2l-1.3,2.7l-2.6-0.6l-3.7,3.1l-3.6-1.7
	l-3.7,5.3l-2.2,5.1l-1.4,5.3l-1.3,2l-6,0.6l1,5.9l1.4,4.8l1,1.4l4.2,2.6l4.6,1l9,4l4.5,3l2.6,3.8l0,3.2l1.9,4.3l0.3,3.4l0.6,1.5
	l1.6,1.1l0.6,1.8l0.1,5.3l0.7,4l2.8,5.4l-2.2,6.7l-4.2,10.2l-5.4,9.3l-2.1,2.7l-3-1.1l-1.7,3.5l1,6l-0.9,4.2l1,5.1l0.9,2.6l-1.4,2.6
	l-1.4,8.5l-1.5,1.4l-2.7,1.5l-1.6,4.6l3.1,1.5l2,18.9l1,2.7l3.6,2.4l-0.2,6.5l3.6,7.9l0.7,3.2l-5.3,4.7l-2.3,2.8l0.2,2.7l0.2,3.8
	l-4.6,4.6l-3.1,4.6l-2.6,5.5l0.6,0.8l-1.1,2l0.1,0.8h0.2l-0.5,2.2l-2.4,1.5l-2.7,1.7l5.3,7.9l1.7,4l-1.7,2.8l-0.5,3.8l-2-0.1
	l-1.3,2.7L545,664l-3.2-0.7l-3.2-1.8l-2.7,1.7l-1.5,0.9l-1.3,8.5l-9.8,3.9l-3.1,7.7l-4.3,7.7l-5-4.6l0.6-3.6l0.1-4.4l-3.9-4.2
	l-2.8-1.3l-1.3-5.2l-2.1-1.3l-3.6,0.3l-4.7,1.6l-1.3,2.9l-0.1,3.9l-2.1,2.1l-0.1,2.1l4.5,14.5l0.8,1.4l1.3,2.3l-1.1,3.3l-3.2-0.3
	l-3.7-3.1l-5.5-3.1l-2.7-1l-2,0.8l-3.6-2.3l-1.8,0.6l-1.6,2.9l-0.8,2.5l-3.2-0.4l-2.2,0.4l-3.1,2.3l-2.4-1.2l-5.1,5.7l-0.5,1.7
	l-3.4,4.5l-0.2,0v-0.2l-0.2,0l0-0.2h-0.2v-0.2l-0.2,0v-0.4l-0.2,0V710H449v-0.2l-0.5,0v-0.2h-0.3v-0.2H448v-0.2h-0.6V709h-0.5v-0.2
	h-0.8v0.2l-0.3,0l-0.1,0v0.2h-0.3v0.2h-0.2v0.2h-0.3v-0.2h-0.3v-0.2H444V709h-0.3v-0.2l-0.3,0v-0.2H443v-0.2h-0.2v-0.4l-0.2,0v-0.2
	h-0.2v-0.2l-0.2,0v-0.2h-0.3v-0.2h-0.2V706l-0.2,0v-0.4h-0.2v-0.9h0.2v-0.5v-0.3l0.2,0v-0.7l-0.2,0v-0.4l-0.2,0v-0.4l-0.2,0v-0.4
	l-0.2,0v-0.4H441v-0.2h-0.2v-0.2l-0.3,0v-0.2h-0.2v-0.2h-1v-0.2h-1v0.2h-0.5v0.2h-0.5v0.2l-0.5,0v0.2h-0.2v-0.2h-0.2v0.2h-0.2v0.2
	H436v0.2l-0.3,0v0.2h-0.5v0.2l-0.2,0v0.2h-0.2v0.2h-0.6v-0.4l-0.2,0v-0.4l-0.3,0v-0.2h-0.6v0.4l-0.3,0v0.2l-0.2,0v0.4h-0.2v0.2h-0.2
	v-0.2H432v-0.2l-0.5,0v-0.4h-0.2v-0.2l-0.2,0v-0.4l-0.2,0v-0.4h-0.3v-0.2h-0.2v-0.4l-0.3,0V700h-0.3v0.2l-0.5,0v0.4h-0.2v0.2h-0.1
	h-0.2v-0.1v-0.1h-0.3v-0.2l-0.3,0V700h0.2v-0.2l-0.2,0v-1.3h-0.2v-0.2l-0.2,0v-0.4l-0.5,0v-0.2H427v-0.2h-0.2v-0.2l-0.2,0V697h-0.2
	v0.2h-0.2V697h-0.8v0.2l-1.3,0v0.2h-0.2v-0.2l-0.3,0V697H423v-0.2l-0.5,0v-0.2h-0.2h-0.2v-0.2l-1,0v-0.2h-0.2V696l-0.2,0v-0.2h-0.1
	v-0.2h-0.2v-0.2l-0.3,0v-0.2H420v-0.2h-0.3v-0.2l-0.3,0v-0.2h-0.2v-0.2h-0.3V694h-0.2v-0.4h0.2v-0.2l-0.2,0v-0.2l-0.2,0v-0.4h-0.2
	v-0.2h-0.2v-0.9h0.2v-1.1l0.2,0v-0.4l0.2,0V690h0.2v-0.2h0.2v-0.2l0.3,0v-0.2l0.2,0v-0.2h0.2v-0.4l0.2,0v-1.3h-0.2v-1.1l-0.2,0v-0.2
	h-0.2v-0.4l-0.2,0v-0.4H419v-0.6l1,0v-0.4h0.2v-1.3h0.2v-0.4l0.2,0v-0.2h0.2v-0.4h0.1v-0.6h-0.1v-1.3l-0.2,0v-1.1l-0.2,0v-0.7
	l-0.2,0v-0.4H420v-0.2h-0.2v-0.2h-0.2v-0.2l-0.2,0V677h-0.2v-0.2h-0.2l0-0.2H419v-0.2h-0.2v-0.2h-0.2v-0.9l0.2,0v-0.4h0.2v-0.4h0.2
	v-0.2l0.3,0v-0.4l0.2,0v-0.2h0.2v-0.2l0.2,0v-0.4l-0.2,0v-0.4h-0.2v-0.2l-0.2,0V672l-0.6,0v-0.2h-0.2v-0.6h0.2v0.2h0.3V671H419v-0.2
	h-0.2v-0.4l0.2,0v-0.2h0.3v-0.2l1.3,0v-0.2h0.5v-0.2l0.3,0v-0.2l-0.2,0v-0.2h-0.3v-0.2h-0.2v-0.2h-0.1v-0.2l0.2,0V668l0.2,0v-0.4
	l0.2,0v-0.9h0.2v-0.4l0.2,0v-0.4h0.2v-0.4l0.2,0V665h0.2v-0.6h0.5v-0.2h1.1v0.2h0.3v-0.2h1v-0.6h-0.2v-0.2l-0.2,0v-0.2h-0.3v-0.2
	h-0.3v-0.2h-0.6v0.2H423v0.2h-0.3v0.2l-0.2,0v0.2l-0.5,0v-0.6h0.2V662l-0.2,0v-0.4l-0.2,0v-0.6l-0.2,0v-0.4l-0.2,0v-0.6l-0.2,0v-0.4
	l-0.2,0v-0.6h-0.2v-0.6l-0.2,0v-0.4l-0.2,0V657.1z"/>
<text transform="matrix(1 0 0 1 354.5474 242.9902)" class="textName">North Goa</text>
<text transform="matrix(1 0 0 1 415.5161 520.75)" class="textName">South Goa</text>
</svg>
