<?xml version="1.0" encoding="utf-8"?>
<!-- Generator: Adobe Illustrator 26.0.0, SVG Export Plug-In . SVG Version: 6.00 Build 0)  -->
<svg version="1.1" id="Layer_1" xmlns="http://www.w3.org/2000/svg" xmlns:xlink="http://www.w3.org/1999/xlink" x="0px" y="0px"
	 viewBox="0 0 800 730" style="enable-background:new 0 0 800 730;" xml:space="preserve">
<style type="text/css">
	.st0{stroke:#000000;stroke-miterlimit:10; cursor:pointer;}
	.textName{font-family:'Arial'; font-weight:bold; color:#000000; font-size:14px; cursor:pointer;}
</style>
<path id="D064" class="st0" d="M546,507.2v0.8l-1.4,1.2l-4.4,1.4l-1.9,0.1l-0.4,0.6l-0.5,1.5l-0.7,0.4l-1.3,1.3l-1.1,0.3l-0.6,0.7
	l-0.7-0.2l-0.8,0.4l-1.1-0.4l-0.7-0.1l-0.7,0.6l-1.4,0.4l-0.6,0.9l-2.9,1.2l-3-0.6l-3.3,0.8h-1.1l-0.4-1.1l-0.9-1.5l-0.6-0.7
	l-0.8-0.4l-2,0.7l-2,1.1l-1.9,2.3l-1.1,2.7l-0.8,1.6l0.1,0.4l-1.1,1.5l-0.7-0.8l-0.8-0.5l-0.6,0.5l-0.5,2.2l0.1,1.4l0.5,0.9
	l-0.6,0.9l-0.6,0.6l-1.6,0.6l-1.6-0.2l-2.1-1.8l-1.5-1l-2.3-0.2l-2-2.8l-2-0.1l-1.3,0.6l-0.6,2.8l-0.6,0.6l-2.7,0.4l-1,0.4l-0.8-0.3
	l-1.1-0.7l-1-1.4l-0.1-1.9l0.6-3.5l-2.6,0.9l-1-0.7l-0.9-0.3l-2.5-1.9l-0.8-1.1l-1.5-3.8l-0.5-2.1l0.5-2.2l0.3-2.7l-0.3-1.4
	l-0.8-1.3l-1.1-0.9l-0.9-0.4l-0.1-1.1l-0.7-0.9l-2.1-0.7l-1.2-0.9l-2,1.2l-1.5-2l-1-0.9l-1.4-0.4l-3.4,1.4l-1.1,0.1l-2.6,1.9
	l-3.7,0.6l-1.7-0.2v-2.7l-0.7-0.1l-0.9,1.1l-0.6,0.3l-0.7-0.3h-0.7l-0.5,1.3l-0.1,1.8l-0.8,3.4l-0.9,1.5l-0.7,1.4l-2.5,2.4l-1-0.1
	l-3.2,1.3l0.3-1.9l-0.5-1.4l-0.9-0.3h-0.9l-1.1-2l-1.6,0.1l-1.1-1l-0.7-1.9l-0.9-1.7l-6-6.4l-1-0.5l-1.7-2.9l-0.7-0.3l-0.8-1.4
	l-1.5-2l-1.9-0.4l-1.2-1.4l-0.9-0.3l-0.8,0.4v-1.9l-0.6-0.8l-1.8-1.2h-1l-1.5,1.2l-3.6,1.3l-1.6,2l-2.1,1.5l-0.8,1.9l-1.1,0.6
	l-1.2,1l-0.8,1.7l-2,1.9l-0.8,1.1l-1.3,2.9l-0.9,1.2l-0.8,1.1l-1,0.6l-1,1.3l-0.9,0.7l-1.6-0.3l-2.1,0.2l-1.2-0.6l-3-1.8l-1.3-0.3
	h-1.3l-2.3-0.7l-1.4-0.7l-0.4-2.3l-0.5-1h-1l-0.9,0.7l-2.7,0.4l-1.3-0.3l-0.2-2.7h-1l-1-0.8l-1.5-1.4l-2.2-2.8l-1.7-0.2l-2,0.1
	l-2.2-0.4l-1.6-0.7l-0.8-0.7l1.6-0.5l2.2,0.2l0.9-0.2l0.4-1.4l-0.2-1.5l0.1-1.4l0.7-0.7l0.6-1.4l0.1-1.5l2,0.6l1.3-0.8l0.8-1.3
	l-1.8-2.4l-0.5-1.2l1.3-4.7l0.6-1.2l1.7-2.5h0.4l0.7,3l0.7-0.5l0.6-1l-0.1-1.6l1.2-2.5l-0.2-2.1l-0.8-0.3l-0.5-0.5l-0.3-0.9l1.4-2.2
	l1.2-0.7l0.3-2.5l-0.3-0.4l-0.7-0.1l0.2-1.1l-1.2-1.4l-0.2-1.3l0.2-1.6l0.5-2.3l0.1-2.3l-0.1-2h0.9l0.8-0.7l0.7-1.1l0.4-1.6
	l-0.2-1.2l-1.3-4.5l0.3-1.3l-1.9-5.4l-1-1.2L362,427l-0.1-2.3l-3.2-2.8l-1.5-0.8l-1.6-0.4l1.4-2.9l1-3.1l1.1-0.9l0.9-0.3l2.6-0.1
	l1.2-0.6l1.2-0.7l0.8-1l0.6-1.4l2.5-0.5l1.7-0.7l2.8-1.7l1.6,2.2l1.4-0.3l2-2.5l0.3-0.7l0.2-5l0.5-0.9l1.4,1.4l0.6,0.3l3.1-1.9
	l1.1-0.5l0.8-2.8l0.1-1.8l-0.6-1.5l-0.5-1.6l1.9,0.4l1.2,1.1l1.9,2.4l1.6-0.2l1.6,0.5l0.5,0.3l2.4,2l-0.2,6.3l5-0.8l1.3,0.9l1.4-0.7
	l0.4-2.1l1.3-1v-0.8l-1.3-4.7l0.4-1.8l0.8-0.5l1,0.3l0.9,0.9l0.7,1.2l0.5,1.4l1.2,1.8l0.6,1.9l1.5,1l0.6,1.8l0.8,1l2.7-0.6l3.8-3
	l0.8-0.3l0.6,0.2l1.2,1.7l0.4,0.1l0.9-0.5l0.5-1.9l0.9-1.8l2.4-1.5l-0.2-1.7l3-2.1l0.6-1.1l0.3-1.1v-0.5l3.4,2.5l0.6,0.9l-0.1,0.6
	l-0.7,1.9l0.2,0.7l1.1,1.9l0.7,0.8l0.6,0.1l1.1,1.2l1.1,2.1l-1.6-0.1l-0.2,1.2l0.3,1.5l0.2,3.6l-0.4,1.9l-1.5,3.1l2,1.8l0.6,1.6
	l-0.1,0.9l0.3,0.1l1.9,1.1l1.9,1.1l2.8-0.2l1,1.6l1.6,0.2l2.3,3.5l4,0.2l3.6-0.4l2.2,0.3l2.3,3.5l-0.3,0.6l2.8,2.4l0.7-1.1l1.7-1.3
	l2.8-0.5l1.4,2.2l1.6-1.9l2.9,1.5l1.6,1.7l1.2,1.6l-2.3,3l-3,4l-0.8,2.3l1,1.6l3,3.9l1.3-0.7l0.2,2.1l-1.2,1.9l0.5,0.7l1.5-1l1.6,2
	l1.9,3.5l-0.3,3.2l1.7,3.2l1.2-0.1l0.5,1l1.7-0.7l3.6-0.1l1.9-0.6l2.5,1.2l1.6-2.2l2.4-2.3l1.7,1.4l2.7,1l2.3,1.8l1.3,1.1l1-1.6
	l3.8-2.6l0.1,0.3l0.7,0.6l2.2,0.6l1,0.1l0.9-0.5l2.2,1.6l1.5,2l0.6-0.6l1.1,0.6l1,0.9l0.5,1.7l-0.1,1.1l0.7,0.8v1.1l-0.5,1l0.6,1.1
	l0.9,1.2l2.1,5.1l1,1.9l0.4,2.2l0.9,2.3l0.5,2l0.2,2l0.4,1.7l0.8,3l0.5,2l0.5,1.4l0.8,1.5l1.1,0.5l1.4-0.2l1.3,0.3l2.7,0.8l1.6,0.8
	l0.9,0.9l0.9,0.5l0.5,0.9l0.1,1.2l0.2,0.5l0.9,0.3L546,507.2z"/>
<path id="D063" class="st0" d="M561,411.8l-0.3,0.4l-0.9-0.6l-0.2-0.4l-2.5,0.2l-1-0.2l-0.8-0.5l-1.7-0.6l-2.7,1.6l-1.6,2.6
	l-0.7-0.2l-0.8-0.7l-1.1-2l-0.8-0.5l-0.9-0.3h-2l-0.5,0.7l-0.6,0.3l-2.8,0.2l-2.8,1.3l-1,0.8l-0.7,1l-0.7,2.4l-0.1,1.7v1.2l0.7,2.4
	l-0.1,0.5l-2.4,0.5l-4.4,0.2l0.6,1.6l0.5,0.6l2-0.2l0.7,1.2l0.7,0.8h0.7l2.7,0.7l0.5,0.5l0.1,0.7l-0.1,2.6l0.3,0.9l0.5,0.9l1.5,0.8
	l0.6,1.8l0.6,0.8l0.3,1.1l-0.4,1.1l-0.5,0.7l-2.5,0.4l-0.7,1.5l-0.6,0.3l-1.6-0.2l-1.1,1.5l-0.9,1.1l-1.1,1l-1.7,0.8l-3.3-1.1
	l-3.5-0.1l-2.1-0.9l-0.3-1.1L519,439l-1.8-0.5l-1.4-0.2l-0.5,0.4l-0.3-1.1l-0.4-0.9l-0.6,0.1l-0.8,1.3l-1.1,0.2l-0.9,2.4l-0.4,1.9
	l-1.2,0.6l-1.1,0.1l-0.8,1l-2.8,0.1l-2.8-2.6l-1.6-0.8l-1.5-0.2l-0.5,1.1l-0.1,1.4l0.6,1.1l0.6,1.8l0.4,1.7l0.6,1.1l5.6,2.4l1.4,0.3
	l1.6,1.7l2.3,3l0.6,1.2l-0.1,2.5l0.5,1.1l-3.8,2.6l-1,1.6l-1.3-1.1l-2.3-1.8l-2.7-1l-1.7-1.4l-2.4,2.3l-1.6,2.2l-2.5-1.2l-1.9,0.6
	l-3.6,0.1l-1.7,0.7l-0.5-1l-1.2,0.1l-1.7-3.2l0.3-3.2L481,454l-1.6-2l-1.5,1l-0.5-0.7l1.2-1.9l-0.2-2.1l-1.3,0.7l-3-3.9l-1-1.6
	l0.8-2.3l3-4l2.3-3l-1.2-1.6l-1.6-1.7l-2.9-1.5l-1.6,1.9l-1.4-2.2l-2.8,0.5l-1.7,1.3l-0.7,1.1l-2.8-2.4l0.3-0.6l-2.3-3.5l-2.2-0.3
	l-3.6,0.4l-4-0.2l-2.3-3.5l-1.6-0.2l-1-1.6l-2.8,0.2l-1.9-1.1l-1.9-1.1l-0.3-0.1l0.1-0.9l-0.6-1.6l-2-1.8l1.5-3.1l0.4-1.9l-0.2-3.6
	l-0.3-1.5l0.2-1.2l1.6,0.1l-1.1-2.1l-1.1-1.2l-0.6-0.1l-0.7-0.8l-1.1-1.9l-0.2-0.7l0.7-1.9l0.1-0.6l-0.6-0.9l-3.4-2.5l0.9-4.6
	l1.4-3.2l0.9-2.5l1.3,0.3l1.1,1.2l1,0.5l3.3,0.3l0.8,1.1l0.5,1.1l0.9,1.3v0.6l1.7,0.9l1.9-0.6l0.2-0.9l0.4-0.5l0.9-0.2l2.9-0.5h1.6
	l1.8-0.6l0.5-0.4l0.6-1.2l2.1-1l1.2-0.1l3.5,0.5l2.5,0.8l2.9,2.5l0.5,0.1l2-0.6h1.7l0.9,0.4l0.7,0.6l0.4,0.1h1.5l6.7-0.5l1.3-0.2
	l1.1,0.1l2.6-0.5l1.1,1l0.7,0.1l1.4-0.9l1.4-1.9l1.2-0.1l1-0.3l0.8-0.5l1.4-1.2l-0.3-2l0.4-2.9l0.6-1.2l1-0.7l1.1-1.7l-1-1.3
	l-1.2-2.1l-2-1.5l-2.7-0.3l-1-0.3l-0.9-2.3l-0.7-2.4v-1.1l0.4-2.1l-0.1-1.5l-1-1.4l-0.6-2l-0.5-0.7l-1-0.7l-0.1-0.7l0.2-0.5l1.2-1.5
	l1.7-1.6l0.5-1l0.4-1.3l-0.1-1.2l-0.3-0.8l-0.3-1v-1.7l0.4-0.7l1.7-1.9l0.9-1.4l0.3-0.9l0.6-3.1l2.4-1.6l0.9-1l0.2-0.7l-0.2-1.7
	l-0.7-1.3l0.4-1.3l-0.7-1l-0.3-1.6l-1-3.2l-1.5-3.9l-0.1-0.5l0.1-0.7l1.7-0.4l2-0.1l4.2-0.7l2.3,0.9l0.8,0.6l3,3.4l1-0.5l1.8-0.3
	l0.5-0.4l1.8-0.7l1.1-1.3l2.6-1.4l0.8-0.7l0.6-0.9l0.8-0.7l0.7-0.3h1.4l1,0.4l0.6,0.4l0.8,1.1h0.5l2.1-0.6l1.4-0.7l1.8-3.7l1.6-1.5
	h1.1l1.6-0.1l1.3-0.1l1.6,0.2l1.2,0.4l1.4,2l1.4,2.7l1.3,1.3l3.5,2.4l-0.4,1.1l-0.4,2l0.7,0.6h0.9l0.3,0.8l-0.1,0.7l0.2,2.8l0.9,2.7
	l0.6,1.1l0.8,0.9l3,0.6l2-0.4l0.5,0.1l0.4,0.7v1.2l-0.2,1.4l-1.2,4l-0.2,5.1l-0.8,4.1l-0.1,4.3l-0.3,1.4l-1.1,2.5l-1.3,1.4l-1.2,2.6
	l-0.2,2.7v1.2l0.2,1.1l-0.4,2.8l0.6,4.3v1.2l-0.7,2.8l-0.6,1.3l-0.3,1.8l-1.1,3.4v1.4l0.6,3.4l0.7,1.2l1.9,5.9l0.8,1.4l0.9,1.3
	l3.9,2.7l1.1,1.1l3.7,2.7l0.6,1.9l0.5,0.8l1.4,3.5l0.7,1.9v0.9l-0.5,1.5L561,411.8z"/>
<path id="D057" class="st0" d="M385.5,391.3l-1.2-1.6v-0.9l0.7-0.9v-1l-0.2-1.4v-0.3l-1.1-1.9l-0.2-3.4l-0.2-1.1l-0.3-0.1l-1.1-1.2
	l-0.9-0.7l-0.9-0.3h-1.4l-0.5-0.4l-0.2-0.7v-1.8l0.5-2.2l0.5-0.8l1.7-1.6l0.1-0.5l-0.7-1.5l-0.7-2.2l-1.3-2l-0.3-0.5l-1-0.9
	l-1.2-0.3l-2,0.1l-1.4-0.5l-0.6-0.9L371,357l-2.2-1.3l-0.7-0.9L368,348l0.3-0.9l1.2-1.4l0.2-0.8l-0.1-0.6l-0.5-0.6l-2.3-1.2
	l-0.4-0.3l-0.4-0.7l-0.4-1.9l-0.6-0.9l-2.6-2.1l-1.8-1.9l-0.1-0.9l0.7-2.1l-0.1-0.3l-0.6-0.6l-0.7-0.4l-3.6-1l-0.6,0.1l-0.7,0.5
	l-2.4,0.6l-1.5-0.1l-0.5-0.2l-0.4-0.4l-0.6-1L349,327v-0.5l0.4-2.2l0.6-2.1l0.1-0.3l0.6-0.5l0.4-0.9l0.3-0.7l0.8-1l1.1-1l1.7-2.2
	l2.3-2.3l1.2-1.9l0.8-0.9l0.2-0.5l-0.3-0.2l-3,0.2l-1.9-0.6l-1.4-0.1l-0.4-0.2l-0.6-0.8l-1.1-1.1l-0.6-0.3l-1,0.2l-0.7,0.5l-0.5-1.3
	l-0.4-2.2V303l0.2-0.6l1,0.2l0.5-0.1l0.3-0.4l0.2-1.5l0.9-0.2l2.2-1l0.9-0.9l0.7,0.8l1.6,0.8h0.9l1-0.6l0.8-0.9l0.7-1.4l1.4-1.2
	l0.1-0.3l0.9-4.2v-1.1l-0.3-1.1V289l1.9-0.6l1.6,0.3l0.3,1.1h0.4l3.9-0.3l2.6-0.5l0.8-0.4l0.3-0.5l0.1-0.6l0.2-3.1l1.1-2.8l0.3-1.7
	L375,278l-0.4-2.5l-1-2l0.2-1l1.1-1.4l0.7-1.6l1.4-1.2l0.6-2.2l0.5-0.6l0.2-0.5l1.7-1.6l3.6-2.3l0.9-1l0.3-1.3l0.1-2.5l0.6-3.6
	l0.8-1.5l1.2-0.9l0.7-1.1l0.2-1.9l-0.1-1.3l0.6-1.7l-0.1-0.3l1.2-0.9l0.4-1l0.3-0.1h1.6l1.7,0.5h1.1l2.3,0.6h1l0.5-0.8l0.6-1.5
	l0.8-3.7l0.6-1.1l0.8-0.6l1.4-0.4l0.7-0.1l1.7,0.3l0.7-0.8l0.4-0.9l0.3-1.2l0.8-0.8l0.4-2.7l0.1-1.1l1.3-1l0.1-0.6l-0.1-0.8l0.1-1.2
	l-0.2-2.7l-1.8-2.2l-1.2-0.7l-1.3-0.5l-0.8-1.9l-0.3-0.4l-1.2-0.1l-0.4-0.3l-0.1-0.4l-0.3-0.2l-0.6,0.1l-1-0.8l-0.2-0.7l0.1-1.2
	l-0.1-1.3l-0.9-1.4l-0.1-0.4v-1.6l-0.5-4.4l-2.4-1.3l-0.9-0.3l-0.2-0.8l0.3-1.7l1.4-2.6l0.4-0.9l-0.1-0.3l-1.7-1.6l-1.4-0.9
	l-0.9-0.9l-0.9-1.3l-0.6-2.3l-0.5-0.3h-0.7L390,187l-0.8-0.7l-1.5-2.3l-0.1-0.4V182l-1.8-0.9l-0.8-1.4l-0.1-1.5l0.5-0.4l2.9-1.6
	l0.1-0.4l-0.5-2.2l0.1-0.8l1.7-1.3l0.3-0.5l0.6-1.7l0.6-0.6l0.7-3.1l2.2-1.3l0.7-0.9l-0.1-1.3l-1.1-4.3l-0.1-1.2l0.3-1.6l1.1-0.6
	l1-0.8l-0.3-2.2l0.6-2.4l-1.2-2l-0.3-0.3l-2.3-1.5l-0.2-0.5v-0.6l0.4-0.6l0.8-0.8l1.9-1.1l0.9-0.8l0.7-0.4l1.3-0.4h0.4l3.2,2
	l0.9,0.1l0.6-0.2l0.9-1.2l0.3-0.7l-0.1-0.5l-0.8-2l-0.1-1.1l0.1-0.5l0.6-0.9l0.5-1.3v-0.4l-0.4-1l-1.8-0.9l-1.4-1.2l-0.1-0.4
	l0.1-0.7l0.4-1l1.5-1.6l1.8-1.1l1.8-0.4h1.6l2.4-1.2l0.6-1l1.8-1.6l0.7-1.1l2.2-4.6l3.4-1.8h0.4l0.9-0.2l0.1,0.1l0.3,0.1l0.9,0.7
	l0.2,0.9l0.1,0.1l0.1,0.1v0.1v0.3l0.1,3.8l0.2,1l0.3,1.3l0.3,2.5l1.6,0.4l0.6-0.1l1.6-0.4l4.6-0.5l0.7-0.2l0.9-0.3l1.2,0.3l1.5,0.6
	l1.4-0.8h1.2l0.6-0.1l0.8,0.6l0.2,0.3l0.1,0.1v1.8v0.7l0.2,0.5l0.1,0.1v0.2l0.1,0.3l0.1,0.1v0.1l0.4,0.3v0.1l0.1,0.1h0.1l0.1,0.1
	l0.3,0.2l0.7,0.6l0.3,0.3l0.1,0.3l0.1,0.1l0.2,0.1v0.1l0.3,0.7l0.2,0.2l0.1,0.4l0.1,0.1v0.9l-0.4,1.4l-0.2,1v0.5l0.7,0.2l0.8,0.1
	l0.7,0.1l0.9-0.1l0.3,0.2v1.1l-0.4,0.4v0.1L446,138l-0.4,1.4l-0.1,0.5v0.5l0.4,0.2v0.1l0.3,0.2v0.1l0.2,0.4h0.1l0.9,0.7l0.2,0.2v0.1
	v0.2l0.3,0.2h0.1l0.7,0.5l0.2,0.1l0.3,0.2l0.1,0.2h0.1l0.5,0.4l1.1,0.5l3.1,0.6l0.2,0.2l0.7,0.8v0.1l0.2,0.1v0.1l0.2,0.2l0.1,0.3
	l0.1,0.4l0.2,0.4l0.5,0.2l0.4,0.1l0.1-0.1l0.4-0.3l0.3-0.5l0.1-0.4l0.4-0.3l0.5-0.4l0.9-0.5l0.4-0.5V145l0.1-0.3l0.2-0.1l1.5-1.3
	l1.6-0.9l1.2-0.3l2.3-0.3l1.3-0.8l0.1-0.3v-2.1l0.1-0.2l0.2-1l0.4-0.4l1.6-0.3l1.6,0.7l4.2,0.7l0.1-0.1l0.5,0.1h0.1l1.5-0.4l1.8-0.6
	l2-1.3l0.2-0.3l0.1-0.4l0.1-0.4l0.2-0.1l0.3-0.2v-0.2l0.6-1.1l0.1-0.1l0.3-0.2l0.1-0.2l0.7-0.6l0.8-0.2l0.7,0.2l0.9,1.3l0.2,0.6
	l1.7,1.5l3.5,1.2l1.1,0.4l0.2,0.1l1.3,0.5l2.4,1.6l0.8,0.1l0.2-0.1l1-0.4l0.4-0.2l0.7-0.5l0.4-0.3l1.3-0.2l2,0.8l1.1-0.1l1,0.3
	l0.6,0.3l0.2,0.4l0.1,0.2l0.2,0.2l0.2,0.2l0.2,1l0.2,0.2l0.2,0.1v0.2l0.1,0.1l0.3,0.7l0.1,0.4l0.1,0.7l0.1,0.1l0.2,0.7l0.4,1.4
	l0.1,0.1l0.1,0.7l0.1,0.1l0.1,0.1l0.5,2.1l0.2,0.6v2.1l0.1,0.1l0.2,0.2l0.2,0.7l0.5,0.3h0.2h0.1l2.1,0.4l0.3,0.1l0.7,0.4l0.3,0.9
	l0.5,0.6l0.2,1l0.6,0.6l0.1,0.6l0.3,1l0.5,0.7l0.1,0.3l0.1,0.1l0.7,1.7l1.1,0.3l2.5-0.5l1,0.3h0.4l0.3,0.1h0.1l0.5,0.3l2.5,1.2
	l1.5,0.8l0,0l0,0l2.5,2.1v0.2l1.3,0.8l0.8,0.3l0.6,0.4l0.3,0.3l0.5,0.5l0.4,0.5l0.1,0.2l0.2,0.2l0.1,0.1l0.1,0.2l0.9,1l0.2,0.6
	l1.6,1.5v0.3l1.3,0.7l0.5,0.1l0.2-0.1l0.1-0.1l1.6,0.2l0.8-0.2h0.3l0.5,0.8l0.2,0.3l0.1,0.1v0.1l0.4,1.4l2.6,2.1v0.1l0.1,0.1v0.1
	l0.3,0.3l0.6,0.7v0.4l0.1,1.4l0.2,0.8l0.5,2.4l1.7,1.1v0.2l0.3,0.3l0.3,0.4l-0.5,0.6l-1.6,3.2l-0.2,2.1l0.3,1.3l1.1,2.8l0.2,1
	l1.1,2.2l0.3,2.3l-0.2,0.7l-1.7-0.3l-1.3-0.6l-1.3-0.2l-1.5-0.1l-1.4,0.3l-5.3-1.8h-1.1l-0.9,0.3l-0.6,0.8l-1.1,0.7l-3.5,1.5
	l-1.7,1.9l-1.8,1l-0.2,0.8l0.9,3l0.2,1.3l0.3,0.7l1.4,1.5l0.9,0.4l0.5,0.3l0.6,1.1l0.9,2.3h0.7l0.5,0.7v1.3l0.4,2.9l0.6,1.2l0.5,0.5
	l1.9,0.9l0.1,0.6l-0.6,1.3l0.6,0.7l0.1,0.8l-0.3,1.1l-0.6,0.6l2.3,3.2v1.4l-0.4,1.1l-0.8,0.4l-0.9,0.1l-0.9,1.2l-1.5,2.7l-0.6,1.4
	l-0.8,3.7l-0.6,1.2l-1.2,1.3l-0.5,0.9l-0.5,0.6l-0.1,0.8l0.2,1.5l0.4,0.2l1.3,1.9l0.7,2.2l0.3,2.5l0.3,0.4l0.3,0.9v0.8l-0.2,0.8
	l0.8,0.5l0.4,1.9l0.3,0.7v0.7l-0.7,0.5l-0.5,0.9l-0.1,1.3l1.8,2.3l0.4,2.3l0.5,0.7l1.6,1l0.2,1.9l-0.2,1.1v1.7l-0.6,1.4l0.1,1.2
	l0.6,0.8l0.2,1.4l-0.9,2.5l-0.6,1.1l-0.7,0.7l-1.6,2.3l-0.8,1.9l-2.7,1.4l-0.4,0.6v0.6l0.5,0.6l0.8,0.5v0.7l-0.8,0.7l-0.5,3.6
	l-0.4,0.9l-0.3,1.7v0.8l-0.3,1.1l0.5,0.9l-1.6,1.5l-1.8,3.7l-1.4,0.7l-2.1,0.6h-0.5l-0.8-1.1L522,311l-1-0.4h-1.4l-0.7,0.3l-0.8,0.7
	l-0.6,0.9l-0.8,0.7l-2.6,1.4L513,316l-1.8,0.7l-0.5,0.4l-1.8,0.3l-1,0.5l-3-3.4l-0.8-0.6l-2.3-0.9l-4.2,0.7l-2,0.1l-1.7,0.4
	l-0.1,0.7l0.1,0.5l1.5,3.9l1,3.2l0.3,1.6l0.7,1l-0.4,1.3l0.7,1.3l0.2,1.7l-0.2,0.7l-0.9,1l-2.4,1.6l-0.6,3.1l-0.3,0.9l-0.9,1.4
	l-1.7,1.9l-0.4,0.7v1.7l0.3,1l0.3,0.8l0.1,1.2l-0.4,1.3l-0.5,1l-1.7,1.6l-1.2,1.5l-0.2,0.5l0.1,0.7l1,0.7l0.5,0.7l0.6,2l1,1.4
	l0.1,1.5l-0.4,2.1v1.1l0.7,2.4l0.9,2.3l1,0.3l2.7,0.3l2,1.5l1.2,2.1l1,1.3l-1.1,1.7l-1,0.7l-0.6,1.2l-0.4,2.9l0.3,2l-1.4,1.2
	l-0.8,0.5l-1,0.3l-1.2,0.1L491,384l-1.4,0.9l-0.7-0.1l-1.1-1l-2.6,0.5l-1.1-0.1l-1.3,0.2l-6.7,0.5h-1.5l-0.4-0.1l-0.7-0.6l-0.9-0.4
	h-1.7l-2,0.6l-0.5-0.1l-2.9-2.5L463,381l-3.5-0.5l-1.2,0.1l-2.1,1l-0.6,1.2l-0.5,0.4l-1.8,0.6h-1.6l-2.9,0.5l-0.9,0.2l-0.4,0.5
	l-0.2,0.9l-1.9,0.6l-1.7-0.9V385l-0.9-1.3l-0.5-1.1l-0.8-1.1l-3.3-0.3l-1-0.5l-1.1-1.2l-1.3-0.3l-0.9,2.5l-1.4,3.2l-0.9,4.6v0.5
	l-0.3,1.1l-0.6,1.1l-3,2.1l0.2,1.7l-2.4,1.5l-0.9,1.8l-0.5,1.9l-0.9,0.5l-0.4-0.1l-1.2-1.7l-0.6-0.2l-0.8,0.3l-3.8,3l-2.7,0.6
	l-0.8-1l-0.6-1.8l-1.5-1l-0.6-1.9l-1.2-1.8l-0.5-1.4l-0.7-1.2l-0.9-0.9l-1-0.3l-0.8,0.5l-0.4,1.8l1.3,4.7v0.8l-1.3,1l-0.4,2.1
	l-1.4,0.7l-1.3-0.9l-5,0.8l0.2-6.3l-2.4-2l-0.5-0.3l-1.6-0.5l-1.6,0.2l-1.9-2.4l-1.2-1.1L385.5,391.3z"/>
<path id="D065" class="st0" d="M586.8,603.7l-0.2,0.7l-0.5,0.4l-1.9,0.2l-1,0.5l-1,2.3l-0.5,0.5h-0.2l-1.4,1.5l-0.1,0.1l-0.8,0.6
	l-4.5-0.8l-0.7-0.8v-0.1l-0.4-1l-1.5-0.5l-0.2-0.1l-1.3-1l-0.6-0.5l-0.2,0.2l-0.4,0.3l-0.6,1.7l-0.6,0.5l-1.4,0.2l-0.8,2.2l-1.1,1
	l-1.6-2.1l-0.1,0.2l-1.4-2.7l-0.8-0.6l-0.7,0.1l-2.3,1.7l-1.6,0.7l-1,0.2l-3.4-0.2l-1.3,0.4l-3-1.6l-0.4,0.6l0.7,2.4l0.3,1.9l-1,5
	l-0.9,2.1l-0.6,0.6h-0.5l-0.5-0.9l-0.7-1.7l-0.4-0.4l-0.6-0.1l-0.7,0.6l-0.7,0.9l-1.6,1.6l-1.6,0.5l-1-0.3l-1-0.7l-1.9-2.9l-0.8-0.5
	l-0.6,0.2l-0.5,0.8l-0.3,4.3l-5.4,4.2l-1-1l-0.8-1.1l-0.4-1.1l-0.1-1.7l0.4-4.7l0.7-2.6l1-1.7l1.8-1.5l-0.4-1l-0.5-0.5l-0.9-0.5
	l-2.2-0.5l-1.9-0.9l-4.9-1.2l-1,1.2l-0.3,0.2l-2.7-2.1l-1.1-3.8l-2.6-1.2l-0.5-0.9l-0.1-0.5l0.1-2.9l0.4-0.6l2.1-0.2l1.7-1.5l0.1-2
	l0.4-1.8l1-0.6l0.7-0.8l1-1.5l1.1-0.8v-1.7l-0.3-1.2l-1.7-2l-0.5-1.3l-2-4.1l-0.8-0.9l-1.2,0.5h-0.4l-1.4-0.8l-1.3-1.5h-1.2
	l-0.4-1.7L506,571l-0.4-1l-0.9-0.3l-1.5,0.2l-3.7,1.8l-0.6-0.1l-0.8-0.8l-0.9-1.3l-0.3-1.4l0.6-1.2l-0.5-1.1l0.3-2.6l0.5-1.3
	l-0.1-0.7l-1.1-1.2l-0.9-0.6l-0.2-0.4l-0.2-2.7l-1.2-2l4.2-1.7l0.5,0.6l0.7,0.4l1,0.1l-0.2,3.1l1.3,0.5l2.8,1.9l0.9,0.4l0.7-0.4
	l0.4-0.7l0.1-2.5l0.7-1.1l0.2-0.8l0.1-1.4l0.3-0.9l1.2-0.8l1.8-0.5l2.4,0.3l0.3-1.3l-0.2-1l-1.7-2.7l-0.9,0.3l-2.5-0.8l-2.5,0.4
	l-0.4-0.3l-0.1-2.5l-1.3-1l-1.6-3.1l-0.5-0.3l-0.7-0.1l-0.4-0.8l0.3-1.1l3.1-4.2l0.9-2v-0.8l-0.4-0.4l-0.6,0.1l-0.5-0.9l-0.1-1.4
	l0.5-2.2l0.6-0.5l0.8,0.5l0.7,0.8l1.1-1.5l-0.1-0.4l0.8-1.6l1.1-2.7l1.9-2.3l2-1.1l2-0.7l0.8,0.4l0.6,0.7l0.9,1.5l0.4,1.1h1.1
	l3.3-0.8l3,0.6l2.9-1.2l0.6-0.9l1.4-0.4l0.7-0.6l0.7,0.1l1.1,0.4l0.8-0.4l0.7,0.2l0.6-0.7l1.1-0.3l1.3-1.3l0.7-0.4l0.5-1.5l0.4-0.6
	l1.9-0.1l4.4-1.4l1.4-1.2v-0.8l2.7-0.1h3.1l1.2,0.8l1,1.3l1.4,1l0.8,0.8l0.1,2.9l1.4,1.6l1.6,1.2l0.6,1.8l0.8,1.1l1.4-0.1l0.5,0.4
	l0.2,0.6l0.8,0.5l1.7,0.5l1.6,1.7l0.7,0.1l1-0.1l1.5,0.8l3,0.6l1.5,0.7l2.1,0.6l0.6,0.3l0.2,1.2l1.2-0.4l0,0l0,0v0.3l2.7,1.9
	l0.3,0.4v1.1l-0.6,2.3l0.4,1.9l-0.8,1.1l0.5,0.7l0.3,0.4l0,0l1.5,0.8l0.2,0.2l1.7,1.5l0.9,0.4l0.1,0.1l0.5,0.1l0.5,0.7l-0.4,1.5
	l1.1,1.9l-1.2,1l-0.3,0.5l0.1,0.5l0,0l-0.1,1.9l1.5,1v2.4v0.7l0.8,1.5l1.3,1.3l0.1,1.6l0,0l1.1,1.6l1,0.2l1.4,0.2l1.3,1.6l0.1,0.6
	l-0.2,1.3l0.5,1.1v0.3v0.3l-1.3,2.6l-1,0.7l-0.4,0.9v3.1l0,0l-0.5,2.1l-0.4,0.7l0.1,1.6v0.1l-0.3,1.4l0.3,1.1v0.9l-1.8,2.6v0.5
	l0.9,1.9l0.1,0.2l-0.2,1l-0.1,0.4l-0.1,1.4l0.6,1.4l-0.7,1.9l-0.8,0.6l-1-0.4l-0.5-1l-0.1-0.2l-1.2-1.3h-0.3l-2.4,0.1l-0.6-1
	l-0.1-0.9l-0.1-0.9l-0.8-0.9l-0.8,0.2h-0.1l-0.2,1.3l-0.5,0.7l-0.3,1.1l-0.3,1.1v0.1l0.2,0.7l1.1,0.9l0.5,0.4l1.5,2.1l0.5,3.2
	l-0.4,1.1v1.2l1.4,3.1L586.8,603.7z"/>
<path id="D060" class="st0" d="M159.1,357.4l-1.4-4.2l-0.4-2.3l-2.1-4l-0.6-2.2l-0.9-2.5l-1.4-2.7l-0.3-0.4l-0.7-1.3l-0.2-0.3
	l-0.4-0.7l-0.3-0.3l-0.1-0.2l-0.1-0.4l-0.4-0.6l-0.3-0.7l-0.4-0.6l-0.2-0.3l-1.7-1.7l-0.1-0.2l-0.1-0.9l-0.1-0.4l-0.1-0.3l-0.1-0.1
	l-1.2-1l-0.8-1l-0.6-0.5l-0.1-0.3l0.2-1.3l0.2-0.8l0.1-0.5l-0.4-0.2l-0.5-0.5l-0.6-0.2h-0.3l-0.4,0.2l-0.2,0.1l-0.1,0.2l-0.2,0.4
	l-0.6-0.2l-0.5-0.2l-0.3-0.3l-0.4-0.5l-0.4-0.6l-0.6-0.5l-0.6-0.4l-0.6-0.4l-0.4-0.4l-0.8-0.5l-0.6-0.4l-0.7-0.4l-0.9-0.3l-0.3-0.2
	l-1.5-0.6l-0.4-0.4l-1.1-0.6l-0.5-0.1l-0.5,0.6l-0.3,0.3l-0.3,0.2l-0.9-0.2l-0.6-0.3l-0.4-0.4l-0.8-0.7l-0.8-0.6l-1-0.4l-0.4-0.2
	l-0.8-0.3l-0.7-0.4l-0.8-0.2l-0.9-0.4l-1-0.7l-1.2-0.4l-0.6-0.4l-0.3-0.4l-1.1-0.6l-0.5-0.4l-2-1.5l-0.9-0.5l-0.2-0.2l-0.9-0.7
	l-0.2-0.1l-0.8-0.8l-1.5-1.1l-0.4-0.3l-0.4-0.2l-0.4-0.2l-0.3-0.2l-1.1-0.9l-0.6-0.2l-1.1-0.6l-0.5-0.2h-0.5l-0.4-0.3l-0.7-0.2
	l-0.5-0.4l-0.8-0.4l-0.5-0.3l-0.3-0.3l-0.6-0.2l-0.4-0.2l-0.4-0.3l-0.4-0.2l-0.2-0.3l-0.4-0.4l-0.5-0.6l-0.7-0.9l-0.6-0.7l-0.1-0.3
	l-0.5-0.9l-0.2-0.1l-0.1-0.4l-0.3-0.3L96,296l-0.7-1.2l-0.2-0.6l-0.3-0.3l-0.1-0.4l-0.2-0.5l-0.5-0.7l-0.1-0.3l-0.4-0.9l-0.1-0.4
	l-0.6-1l-0.1-0.3l-0.3,0.4l-0.6,0.1h-0.4l-0.2,0.1l-0.3-0.1l-0.2-0.2l0.1-0.2V289l-0.1-0.8l-0.1-0.3l-0.2-0.2l-0.1-0.1l-0.2-0.1H90
	h-0.3l-0.5-0.2l-0.6-0.2l-0.8-0.7l-0.4-1l-0.2-0.1l-0.3-0.5l-0.3-0.2l-0.3-0.3l-0.1-0.2l-0.5-0.5l-0.2-0.2l-0.3-0.2l-0.3-0.1
	l-0.4,0.1l-1,1l-0.4,0.5l-0.3,0.1l-0.7-0.1h-0.2l-0.5-0.1l-0.6-0.4l-0.4-0.7l-0.2,0.1l-0.2,0.1h-0.2l-0.4,0.2l-0.3,0.1l-0.7-0.1
	h-0.2l-1-0.2l-0.3,0.1l-0.6,0.1l-0.1,0.1h-0.1l-0.3-0.2l-0.1-0.3l-0.9-0.5l-0.4-0.1l-0.5,0.2l-0.4,0.4l-0.3,0.4l-0.3,0.2l-0.2,0.3
	l-0.3,0.5l-0.8,0.1l-0.2-1.4l0.1-1.8l1-1.2l1.3-1.2l1.2-1l1.8-0.9l2.5-0.9l1.6-0.2l0.9,0.5h2.6l0.5-0.9l0.4-1.2l0.4-1.3l0.5-0.7h1.2
	l1.2,0.7l1.6,0.2l3.3-0.7l0.6-1.5l1.5-1.3l1.7-1.5l1-1.2l1.2-1l1.9-0.1l1.5-1.2l1.4-1.2l2.1-1.7l1.4-1.1l1.6-0.5l0.8-1l3.9-0.4
	l1.1-0.6l1-0.7l0.3-0.4l0.3-0.6l0.4-1.3l0.2-1.1l1.1-2.1l0.3-1.2l-0.4-1.5l-0.6-1.3v-1.2l-0.2-1.6l-0.5-0.8l-0.9-0.1l-0.6,0.8
	l-0.9,0.2l-0.8-0.3l-1.5,1l-0.7-0.4l-0.7-0.9l-0.8-0.3l-0.9,0.1l-0.9-0.7l-0.7-1.2l-0.3-1.1l-0.5-1.4l-0.6-1.1l-0.5-1.3l-0.9-0.8
	l-1.3-0.8l-0.5-0.6l0.3-0.8l0.1-0.8l0.1-0.6l0.5-0.3h0.7l0.8,0.2l1.4,1.5l0.9,0.2l0.5-1l-0.3-2.9l0.2-1l0.9,0.2l1.1,0.3l1,0.1h1.2
	l0.6-0.4l-0.5-0.8L112,229l-1-0.6l0.2-1l0.6-1.3l-0.1-0.9l-0.5-1l-0.7-1.6l0.4-0.9l0.9-0.8l0.8-1.3l-0.4-0.5h-0.5l-0.4,0.1l-0.5,0.3
	l-0.7-0.3l-0.6-0.8l-0.8-1l-0.9-0.9l-1.2-0.5l-1-0.6l-1.2-0.6l-0.6-0.8v-1.9v-1l0.4-1l0.2-0.9l0.7-0.5l0.1-0.9l-0.7-0.7l-0.6-0.8
	l-0.4-1l-0.3-1l-1-0.7L102,202l0.1-0.7l-0.1-0.8l-0.3-0.5l-0.5-0.2l-0.4,0.2l-0.5-0.3l-0.2-0.7l-0.4-0.5l-0.4-0.3h-0.5l-0.7,0.2
	h-0.6l-0.7-0.3l-0.4-0.5l-0.2-0.8l0.3-0.9l0.2-0.7l-0.3-0.6l-0.6-2.1l0.8-0.7l1.1-0.5l1.2-1.4l0.8-1.4l1.3-2.5l0.3-1.3l0.2-1.4
	l0.3-0.8l0.9-0.7l0.5-0.9l0.8-1.3l0.6-1.2l0.6-0.6l0.6-0.3l0.8-0.6l-0.1-1.6l-0.6-1l-1.4-1.9l-0.4-0.8l0.4-0.9l0.4-0.7l0.7-0.8
	l0.4-1l-0.1-1.4v-1.1l0.2-1l0.5-0.7l0.6-0.3l0.6-0.1l0.7,0.1l0.7,0.5l0.4,0.7l0.3,0.7l0.2,1.8l0.5,0.8l0.7,0.6l0.9,0.5l0.9,0.3
	l2.1,0.4l-0.1-1.6l-0.4-0.8l-0.7-1v-1.7l0.1-0.9l0.1-1.6l0.2-1.3l0.2-0.7l0.9-1.2l0.7-0.7l0.8-1.3l0.4-1l-0.7-1l-0.5-0.9l0.1-0.9
	l-0.4-0.6h-0.4l0.1-0.3l0.2-0.3l0.7-1.3l0.2-0.4l0.5-0.5l0.2-0.5l0.2-0.2l0.3-0.2h0.5l0.2,0.1l0.7,0.1l1.3,0.4l0.3,0.1l0.4-0.1
	l0.5-0.1h0.4h0.1l0.1-0.6l0.2-0.6l0.2-0.5l0.5-0.5l0.4-0.7l0.7-0.9l0.3-0.3l0.2-0.1l0.3-0.1l0.5-0.4l0.4-0.2l0.2-0.2l0.4-0.3h0.2
	l0.3,0.1l0.1,0.2l0.1,0.5v0.1v0.4v1.2l0.2,0.1l0.7,0.2h0.3l0.3-0.2l0.5-0.7l0.7-0.1l0.3,0.1l0.5,0.2l0.2,0.1l0.3-0.2l0.1-0.3
	l0.3-0.5l0.5-0.5l0.2-0.2l0.1-0.1l0.4,0.1l0.3,0.1l0.3,0.3h0.4l0.3-0.2l0.7-0.3l0.9-1.1l0.6-1l0.4-0.4l0.7-0.6l0.7-0.6l0.4-0.3
	l0.7-0.2l0.8-0.3l0.3-0.1l1.2,0.3l0.6-0.2l0.4-0.3l0.4-0.4l0.6-0.1h0.2l1,0.3l0.1-0.2l1.1-0.1l0.6-0.1l0.3,0.4l0.8,1h0.1l0.2,0.1
	l0.6,0.3l0.3,0.2l0.4,0.6l0.1,0.1l0.1,0.1l0.5,0.2l0.3,0.6l0.2,1.1l0.6,0.3l0.6,0.2l0.5,0.3l1.3,2.4l2.3,4.6l0.7,3.6l-1.4,1.2
	l-1.3,0.7l-1.5-0.2l-0.2,0.2l-0.1,0.2l-0.5,0.4l-0.3,0.3l-0.3,0.2l-0.3,0.1h-0.2h-0.3l-0.6,0.2l-0.3,0.1l-0.3,0.1l-0.2,0.2l-0.1,0.1
	l-0.2,0.5l-0.2,0.8l-0.2,1.1l0.1,0.3l0.3,0.4l0.2,0.4l0.6,1.4v0.4l-0.1,0.8v0.4v0.4l0.6,0.9l0.3,0.6v0.8l-0.2,2.1v0.9l0.1,0.5
	l0.5,0.8l0.7,2l0.1,0.5l0.1,0.5l0.5,1.3l0.2,0.3l0.9,0.9l1.7,1l1.3,1.2l1.5,2.6l0.4,1.8l-0.2,1.7l0.3,0.9l0.5,0.6l1,0.7l0.2,0.4
	l0.4,0.7l0.7,0.3l0.5,0.2l0.7,0.5l1.5,2.9l1.1,0.6l0.2,0.4l0.4,1.3l0.1,0.2l0.3,0.5v0.8v0.8l0.2,0.5l1.4,0.5l0.7,0.6l-0.2,0.6
	l-0.6,0.9l0.3,0.9l0.7,1.1l0.8,1.2v0.4l-0.9,1.9l-0.4,0.5l-0.7,0.4l-0.4,0.9l-0.2,2.8l-0.8,1.7l0.1,3l-0.6,1.4l-0.7,0.8l-2.4,1.1
	l-1,1.6l-0.6,2l-0.8,0.7l-0.7-0.3l-0.9-0.7l-0.6-0.7l-0.7-0.4h-0.7l-0.9,0.6l-0.3,0.5v1l0.8,3.4l-0.2,1.2l-0.6,1.1l0.2,0.9l0.3,0.4
	l-0.2,0.5l0.1,1.6l-0.3,1.7l0.5,1.4v1l-0.4,0.2l-0.3,0.5l-0.2,2.1l-1.2,1.7l0.1,0.9l-0.4,1.1l-0.2,0.3l-0.8,0.3h-0.2l-0.4,0.2
	l-0.7,0.4l-0.3,0.3l-0.6,0.4l-0.7,1.1l-0.2,0.4l-0.1,0.4l-0.1,0.7l-0.1,0.7v0.7l0.1,1.2l0.1,0.7l0.3,1.8l0.3,1.2l0.1,0.7l0.2,1.5
	l-0.1,0.5l-0.2,0.2l-0.4,0.4l-0.6,0.2H148l-0.8-0.5H147l-0.2,0.1l-0.3-0.2l-0.3,0.1l-0.1,0.1h-0.2l-0.7-0.5l-0.8-0.5l-0.8-0.3
	l-0.3-0.2l-0.9-0.5h-0.2l-0.6,0.5l-0.8,0.6l-0.1,0.2l-0.2,0.4l-0.1,0.2l-0.1,0.6l0.1,0.6l0.4,0.6l0.3,0.3l0.2,0.3l0.8,1.4l0.8,0.8
	l0.4,0.6l0.3,0.3l0.3,0.2l1.6,0.6l0.3,0.1l0.5,0.3l0.2,0.2l0.2,0.5v0.9l0.1,0.2l0.1,0.3l0.1,0.3l0.2,0.3l0.4,0.3l0.9,1.1l0.9,1
	l0.4,0.1h0.5l0.4-0.1l0.6-0.2h0.4l0.2-0.1l1.8-1.2l1.5-0.8l0.8,0.5l0.9,1l1.1-0.3l1.4-2.2l1-0.9l0.4-0.1l1.2,0.6l0.5,0.1l2.3-0.3
	l0.7,0.2l1,1.1l0.5,0.2l1.4-0.8l1.9-0.5l1.1-0.1l0.7,0.3l0.6,0.6l3.6,1.3l1.7,2l2.6,0.7l1.8,1.2l1,1.2l0.9,0.1l2-0.3h1.6l3.3,1.3
	l1.6,1l1,0.4l1.7,1.2l1,1.4l1.3,1l0.3,0.6l0.1,1.1l-0.5,0.7l-1.6,1.3l-1.8,1.1l-1.5,0.6l-2.3,1.3l-1.8,0.7l-2.9,2.5l-1.1,0.4H184
	l-0.9,0.4l-2.6,2.3l-0.8,1.2l-0.6,1.3l-0.4,2.2l-0.1,1.6l0.7,3.6l0.7,1.6l0.1,0.6l0.5,0.9l2.3,1.7l1.1,1.8l1.7,1l2.1,0.7l0.6-0.4
	l0.4-0.1l0.5,0.2l0.4-0.5l1.1-0.2l0.6-1l0.3-0.1l1.4,0.1l1.8,0.8l1.4,0.4l0.8-0.1l0.6-0.5l0.5-0.1l0.9,1.9l0.5,0.6l0.8,0.1l1.1-0.5
	l0.5,0.1l1.2-0.7l1.3,1l1.2,1.2l0.2,0.5l-0.3,1.1l-0.4,1.6l0.2,1.6l-0.5,1.1v0.5l3.9,6.7v0.5l-0.8,1.9l-0.9,1.2l-3.7,1.9l-1.5,1.2
	l-1.3,1.9l-1.8,1.4l-1.7,4.3L197,341l0.4,1.4l0.5,0.8l0.9,0.8l0.6,0.2l1.2,0.1l0.6,0.5v0.6l-1,4l0.3,1.2l5.5,4.5l2.4,1.1l2.8,1.9
	l-0.1,0.8l-0.3,0.6l-0.9,0.9l-2.2,1l-0.2,1l0.2,2.5l-0.2,1.4l-0.8,2l-1.3,2.2l-2.1,2.4l-2.1,1.6l-1.4,1.3l-0.5,1.5l-0.3,3.4l0-0.7
	l-1.5,0.7l-0.9,0.1l-0.8,0.5l-0.1,0.8l0.2,1.6l0.6,1.7l0.3,2l-0.5,1.4l-3,2.9l-2.6,4.6l-1.6,3.3l-1.8,0.5h-0.8l0.4-2.7l0.6-1.9
	l1-1.8l-0.2-2.4l-0.4-1.1l-0.4-0.3l-0.4,0.7l-2.1,5.7l-0.9,2.2l-1.5-1.1l-1.5-1.8l-0.8-2.2l-0.8-2.3l-1.9-5.6l-2.5-1.2l-0.7-1.1
	l-0.7-0.7l-2.1-0.2l-1.5-1.1v-0.8l0.6-1l0.1-0.4v-0.3l-0.3-0.8l-3.3-2.3l-1.1-1l-0.4-0.9l-0.1-1.4l0.3-3.8l-0.1-2.1l-0.8-1.3l-1.8-2
	l-1.5-2.1l-1.4-1.6l-1.3-1.9L159.1,357.4z"/>
<path id="D061" class="st0" d="M349.3,490.5h-0.8l-0.9-0.3l-0.7,0.2l-0.6,0.4l-1.5-0.2L344,491v2.3l-0.2,0.6l-1.2,1.7v0.8l0.5,1.7
	l-0.8,1.7l-0.8-0.1l-1,0.5l-0.7,0.6l-2.3,0.8l-0.6,0.5l-1,0.2l-0.5,0.6l-0.7,1.5l-1.1,1.7l-0.8,4.3l0.4,1.9l-0.8,1.6l-0.8,2.4
	l-0.7,2.1l-0.2,1l-0.6,0.4l-1.7,1.6l-1,0.5l-0.8,0.7l-0.9,0.4l-0.4,0.6l-0.4,1.2l-1.1-0.3l-1.4-0.1l-1.4-0.5l-1.8,0.1l-3.7-1
	l-3.1-1.2l-1.2-0.3l-1.3,0.3l-1-0.3l-2.7-1.6H304l-2-1.2l-1.7-0.7l-4.5-4.4l-0.6-1l-1.4-0.2l-0.9-0.8l-3.5-0.2l-2.8,0.1l-1.5-1.2
	l-1.7-2l-5-4.9l-2.1-1.8l-3.4-1.3l-1.2-1.3l-1.9-1l-5.5-4.8l-2.9-3.3l-5.8-7.6l-0.6-0.1l-0.4-1.4l-1.5-2.4l-1.2-2.9l-0.4-2.3
	l0.1-2.2l-0.4-1.1l-0.1-1v-3.5l-0.3-0.8l-0.8-4.5l-0.3-0.9l-1.9-2.4l-0.5-4.2l-2.7-1.8l-1.7-0.6l-2.4-0.3l-3.8-1.5l-1.5-0.9
	l-2.2-2.7l-0.8-0.3l-1.9,0.3l-2.4-0.4l-6.6-3.1l-2.4-1.6l-1.3-0.9l0,0l-0.9-0.7l-0.8-1l-0.4-1.2l-0.5-2.6l-0.7-2.1l-0.4-2.5
	l-0.6-5.6l-0.6-1.1l-0.9-0.7l-1.2-1.4l-4.2-3.7l-1.1-2.4l-1.4-0.3l-0.3-0.8l0.2-2.2l0.8-3l-0.3-0.7l-3.4-0.2l-0.9-0.2l-0.8-0.8
	l-3.5-2.1l-5.5-2.9l-1.3-0.6l1.6-3.3l2.6-4.6l3-2.9l0.5-1.4l-0.3-2l-0.6-1.7l-0.2-1.6l0.1-0.8l0.8-0.5l0.9-0.1l1.5-0.7l0.3-0.4
	l0.3-3.4l0.5-1.5l1.4-1.3l2.1-1.6l2.1-2.4l1.3-2.2l0.8-2l0.2-1.4l-0.2-2.5l0.2-1l2.2-1l0.9-0.9l0.3-0.6l0.1-0.8l0.2-1.2l0.5-1.4
	l0.6-0.3l2.6-0.5l0.7-2l0.6-0.2l0.6,0.1l2.7,1.7l2.1,1.7l0.6,0.3l1.9-0.8l1.8-0.2l0.2-1l-0.2-1.8l0.2-0.5l0.8-0.4l1.8-0.1l1.4,0.7
	l0.9,1.2l0.8,1.5l0.5,2v0.4l1.7,0.5l0.5,0.2l0.4,0.5v0.5l-0.6,2.4l-0.1,1.1l0.3,2.1l0.6,1.9l2,2l1.1,0.7l2.4,0.7l1.6-0.5l0.3,0.3
	l0.2,0.6l0.7,1.9l0.3,0.1l1.2-1.5l1.2-3.2l0.5-0.6l0.3,0.1l0.1,2.7l0.2,0.9l0.9,1.4l0.5,0.3l0.5-0.3l0.7-1.9l1.1-0.4l0.3-0.3
	l0.3-1.3l0.9-0.6h0.6l2.4,0.7l2.6,0.4l0.6,0.5l1,1.6l2-0.1l0.3,0.1l0.3,0.4l1,1.5l0.3,0.3h0.4l0.2-0.8l0.1-1.3l0.3-1l1,0.7l0.3-0.1
	l0.7-0.7v-0.8l-0.4-0.6l-1.5-0.4h-1.1l-0.2-0.1l-0.2-0.5v-0.6l0.2-0.5l0.7-0.7l0.3-1.2l-0.2-1.2l-0.8-1.1l-0.8-1.8l0.2-0.4l0.6-0.3
	l0.4-0.8l-0.4-2.9l0.1-0.5l0.2-0.3l2.1-0.6l0.1-0.4l-0.9-1.3l-0.5-1.6l0.2-2l0.2-0.9l0.2-0.2l0.4,0.2l0.9,1.1h0.3l0.4-0.9l1.1-0.2
	l0.4-0.6l0.6-2.8l0.4-3.4l0.4-1.3l0.9-0.7l2.2-1.2l1.1-1.1l0.3-1v-1.7l0.2-0.9l0.3-0.2l2.1,0.3l0.5-0.2l0.5-0.5l1-0.7l1.2-0.2
	l0.9-0.9l0.3-0.6l0.1-0.8l-0.4-2.3l0.1-0.6l0.6-1l1.1-0.5l1.4,0.4l2,1.1l0.4-0.2l0.3-0.7l0.3-0.3l0.6-0.3h0.8l1.3,1.7l3.9,3.5
	l0.7,1.2l0.3,0.2l0.6,0.1l0.9-0.2l0.8-0.4l1.2-2.3l0.9-0.6l1.6-0.4l0.6-0.2l0.4,0.1l2.5,2l0.7,0.2l0.5-0.1l0.9-1.7l1.6-0.3l0.6-2
	l0.9-0.9l1.4,0.1l1.4,0.4l0.8-0.8l0.2-1l0.4-0.7l0.8,0.1l1,0.7l0.8-0.2l2.4-1.9l1.1-2l0.5,0.2l2,1.6l0.6,0.9l0.5,1.1l0.6,0.3
	l0.7-1.1l1.1-2.6l0.6-0.5l0.8-0.2l1,1.8l0.4-0.1l0.5-0.4l0.3-2.8l0.1-0.1l1-0.3h1.2l1.2-0.4l4.1-2.3l1.1-1.4v-0.3l0.7-0.3l1.7-1.8
	l1.1-1.1l0.3,0.3l0.7,0.2l2.5-0.6l1.6-0.6l1.6-1.1l0.7-0.5l1-0.2l0.6,0.3l1.1,1.1l0.6,0.8l0.4,0.2l1.4,0.1l1.9,0.6l3-0.2l0.3,0.2
	l-0.2,0.5l-0.8,0.9l-1.2,1.9l-2.3,2.3l-1.7,2.2l-1.1,1l-0.8,1l-0.3,0.7l-0.4,0.9l-0.6,0.5l-0.1,0.3l-0.6,2.1l-0.4,2.2v0.5l0.5,1.9
	l0.6,1l0.4,0.4l0.5,0.2l1.5,0.1l2.4-0.6l0.7-0.5l0.6-0.1l3.6,1l0.7,0.4l0.6,0.6l0.1,0.3l-0.7,2.1l0.1,0.9l1.8,1.9l2.6,2.1l0.6,0.9
	l0.4,1.9l0.4,0.7l0.4,0.3l2.3,1.2l0.5,0.6l0.1,0.6l-0.2,0.8l-1.2,1.4l-0.3,0.9l0.1,6.8l0.7,0.9l2.2,1.3l0.6,2.8l0.6,0.9l1.4,0.5
	l2-0.1l1.2,0.3l1,0.9l0.3,0.5l1.3,2l0.7,2.2l0.7,1.5l-0.1,0.5l-1.7,1.6l-0.5,0.8l-0.5,2.2v1.8l0.2,0.7l0.5,0.4h1.4l0.9,0.3l0.9,0.7
	l1.1,1.2l0.3,0.1l0.2,1.1l0.2,3.4l1.1,1.9v0.3l0.2,1.4v1l-0.7,0.9v0.9l1.2,1.6l0.5,1.6l0.6,1.5l-0.1,1.8l-0.8,2.8l-1.1,0.5l-3.1,1.9
	l-0.6-0.3l-1.4-1.4l-0.5,0.9l-0.2,5l-0.3,0.7l-2,2.5L375,409l-1.6-2.2l-2.8,1.7l-1.7,0.7l-2.5,0.5l-0.6,1.4l-0.8,1l-1.2,0.7
	l-1.2,0.6l-2.6,0.1l-0.9,0.3l-1.1,0.9l-1,3.1l-1.4,2.9l1.6,0.4l1.5,0.8l3.2,2.8l0.1,2.3l0.8,0.5l1,1.2l1.9,5.4l-0.3,1.3l1.3,4.5
	l0.2,1.2l-0.4,1.6l-0.7,1.1l-0.8,0.7h-0.9l0.1,2l-0.1,2.3l-0.5,2.3l-0.2,1.6l0.2,1.3l1.2,1.4l-0.2,1.1l0.7,0.1l0.3,0.4l-0.3,2.5
	l-1.2,0.7l-1.4,2.2l0.3,0.9l0.5,0.5l0.8,0.3l0.2,2.1l-1.2,2.5l0.1,1.6l-0.6,1l-0.7,0.5l-0.7-3H361l-1.7,2.5l-0.6,1.2l-1.3,4.7
	l0.5,1.2l1.8,2.4l-0.8,1.3l-1.3,0.8l-2-0.6l-0.1,1.5l-0.6,1.4l-0.7,0.7l-0.1,1.4l0.2,1.5l-0.4,1.4l-0.9,0.2l-2.2-0.2L349.3,490.5z"
	/>
<path id="D068" class="st0" d="M159.1,357.4l0.2,0.5l1.3,1.9l1.4,1.6l1.5,2.1l1.8,2l0.8,1.3l0.1,2.1l-0.3,3.8l0.1,1.4l0.4,0.9l1.1,1
	l3.3,2.3l0.3,0.8v0.3l-0.1,0.4l-0.6,1v0.8l1.5,1.1l2.1,0.2l0.7,0.7l0.7,1.1l2.5,1.2l1.9,5.6l0.8,2.3l0.8,2.2l1.5,1.8l1.5,1.1
	l0.9-2.2l2.1-5.7l0.4-0.7l0.4,0.3l0.4,1.1l0.2,2.4l-1,1.8l-0.6,1.9l-0.4,2.7h0.8l1.8-0.5l1.3,0.6l5.5,2.9l3.5,2.1l0.8,0.8l0.9,0.2
	l3.4,0.2l0.3,0.7l-0.8,3l-0.2,2.2l0.3,0.8l1.4,0.3l1.1,2.4l4.2,3.7l1.2,1.4l0.9,0.7l0.6,1.1l0.6,5.6l0.4,2.5l0.7,2.1l0.5,2.6
	l0.4,1.2l0.8,1l0.9,0.7l-5.5,9.8l-4,3.9l-3.3,3.9l-6.3,5.7l-1.9-3.4l-5.3,1.9l-0.2,0.9l-1.9,3.8l-3.1,3l-5.1,0.9l-1,4.5l-3.6,3.4
	l-1.1,2.1l-0.4,0.9l-1.8,0.6h-0.1l-0.5,0.7l-0.7,0.8l-0.4,2.9l-1.3,2.9l-0.7,0.6l-1-0.1l-0.9-0.4l-2-0.1l-1.6,0.9l-1.3,1.3l-0.8,1.3
	l-0.6,1.8l0.2,0.8l0.7,0.6l0.4,0.9l-1,1.7l0.2,1l-0.3,2.2l-0.8,0.2l-2.5-0.6l-0.5-0.1l-2.5-0.4l-1.8,0.3l-1.2,2.3l-1.7-2.1l-0.3-1
	l-0.1-1.5l0.4-1.1l0.4-0.2l0.6-2.8l0.1-1.2l-0.2-0.9l-0.3-0.2l-0.2,0.3l-0.4,0.6l-0.3,0.5h-0.8h-0.1l-0.6-0.5l-0.4-0.1l-0.2,0.3
	l-0.6,0.2l-0.3-0.6h-0.4l-0.7,0.4l-0.5-0.1l-0.3-0.6l-0.3-0.3l-0.3-0.6h-0.2l0.2-0.2V490v-0.5l0.4-0.7l0.4-1l-0.2-0.3l-0.3-1.1
	l-0.1-0.8l-0.1-0.5l0.4-0.7l0.7-0.2l0.5,0.6l0.3,0.6l0.5,0.6l0.7-0.4l0.7-0.4l0.8,0.6l0.4-0.7l-0.3-1.1l-0.1-1.1l-0.3-1.1l-0.1-1.3
	l0.3-1.5l0.4-1l-0.3-0.6h-0.2l-0.5-0.1l-0.8-1.1l-0.4-1.6l0.3-1l0.2-0.5l0.2-0.2v-0.5v-0.5l0.2-0.5l0.2-0.5l0.2-0.5l-0.1-0.5v-0.3
	h-0.2l-0.4,0.5l-1.1,0.9h-0.2l-0.1-0.5l-0.6-1.1l-0.3-0.6l-0.5-0.6l-0.4-1.1l-0.9-0.4H144l-0.1-0.5h-0.2l0.2-0.5h-0.4v-0.5l0.6-0.5
	l-0.5-0.3l-0.5-0.8l0.2-0.5l0.7-0.4l1.1-0.4l-0.5-0.6l-1.3-1.2l-0.3-0.6h-0.4l-0.4,0.2l-1.2,0.2l-0.6-0.4l-0.4,0.5l-0.9-0.3
	l-0.7,0.6l-1,1.6l-0.2-0.2l-0.3,0.3l0.3,0.4L137,463l0-1l-0.3,0.4l1,0.9l-2,0.3l-2.5-0.7l-0.9,0.2l-0.9-0.1l-0.6-0.4l-0.7,0.8v1.2
	l-0.7,0.2l-1.5,1.4l-0.8-0.2l-1,1.2l-0.3,0.9l-0.8-0.2l-0.4,0.5l-0.4,1l-0.8,0.9l-1,0.6l-1.5,0.1l-1.9-0.9l-1.3-1.1l-2.3-1.3l-0.6-1
	l1.6-3l-0.5-0.7l-2.3-2l-2.4-0.4l-1.5-0.5l-0.6-0.4l-0.2-0.6l1.1-2.6l0.8-1.1l0.3-1l-0.4-0.8l-1-1.5l-0.2-2.2l0.2-0.8l0.8-2
	l-0.4-1.7l0.4-1.4l-0.9-0.8v-0.6l0.8-1.1l-2.2-3l-0.7-1.8l-1.4-1.3l-0.2-0.5l0.5-1.2l-0.3-2.1l-0.6-1.4l-1.3-1.1l-0.5-0.8l0.3-1.1
	l-0.2-2.8l-3.2-0.9l-0.7-0.8l-0.7-1.1l-0.5-1l-0.2-1l0.2-1.7l-0.1-1.8l0.1-1l1.5,0.4l0.4-0.9l0.9-0.8l0.5-2.1l0.9-0.8l0.5-0.8
	l0.7-0.6l0.4-0.6l-0.7-2.4l-0.1-1.5l-0.9-0.4l-1-0.7l-0.2-0.5l0.6-1l0.9-1.1l0.7-0.5l0.1-1.6l0.6-0.8l1.4-1l0.6-1.2l0.3-1l-0.2-1.1
	l-2.5-3.2l-0.2-0.8l1.3-0.8l0.8-0.9l0.5-3l0.3-0.7l0.3-0.6l0.5-0.7l0.8-0.8l0.8-0.5l0.4-0.2l0.6-0.3l0.9-0.3l0.3-0.2l0.5-0.6
	l0.2-0.8l0.1-0.6l-0.1-0.2l-0.1-0.2l-0.5-0.8l-0.8-0.7l-0.3-0.6l-0.4-0.3l-0.4-0.4l-0.3-0.4l-0.1-0.4l0.1-0.6l0.6-1.3l0.6-1.4
	l0.2-0.6l0.5-1l0.2-0.3l0.1-0.1l0.4-1l0.3-0.3l0.4-0.6l0.1-0.3l0.3-1.2l0.3-0.8l0.3-0.9l0.3-0.4l0.2-0.6l0.5-0.9l0.2-0.6l0.1-0.2
	l0.6-0.4l0.4-0.1l0.4,0.2l0.2,0.1l0.5,0.4l0.2,0.3l0.4,0.4l0.3,0.4l0.3,0.2l0.3,0.4l0.5,0.4l0.5,0.2h0.5l0.4-0.1l0.5-0.4l0.4-0.5
	l0.4-0.8v-0.5l0.4-0.6l0.3-0.9l0.2-0.2l0.4-0.2l0.4-0.3l0.4-0.2l0.6-0.5l0.3-0.4l0.2-0.2l0.8-1.1l0.2-0.4l0.2-0.3l0.5-1l0.2-0.3
	l0.5-1l0.3-0.6l0.6-0.7l0.5-1.1l0.2-0.6l0.2-0.3l0.3-0.6l0.6-1.5l0.1-0.5l0.1-0.8l0.6-0.9l0.6-1.1l0.2-0.2l0.6-0.8l0.3-0.4l0.3-0.3
	l1.6-2.3l0.4-0.4l0.5-0.8l0.6-0.7l0.2-0.5l0.2-1l0.1-0.7l0.2-2.3l0.1-0.4l0.4-1l0.2-0.8l0.2-0.5l0.6-0.5l0.7-0.5l0.6-0.8l0.7-0.8
	l0.7-1.2l0.3-0.5l0.8-1.2l0.4-0.9l0.1-0.5l0.1-0.3l0.2-1l0.2-0.4l0.1-0.2l0.2-0.1l0.4-0.2h0.3l0.6,0.2l0.5,0.5l0.4,0.2l-0.1,0.5
	l-0.2,0.8l-0.2,1.3l0.1,0.3l0.6,0.5l0.8,1l1.2,1l0.1,0.1l0.1,0.3l0.1,0.4l0.1,0.9l0.1,0.2l1.7,1.7l0.2,0.3l0.4,0.6l0.3,0.7l0.4,0.6
	l0.1,0.4l0.1,0.2l0.3,0.3l0.4,0.7l0.2,0.3l0.7,1.3l0.3,0.4l1.4,2.7l0.9,2.5l0.6,2.2l2.1,4l0.4,2.3L159.1,357.4z"/>
<path id="D066" class="st0" d="M461.7,626.5l-9.1,0.2l-4.4-0.4l-7.4,0.6l-10.5-0.3l-8.2,0.1l-4.5-4.9l-2.3-2.9l-6.5-5.5l-3.5-4.5
	l-3.1-3.6l-1.5-1.1l-2.1-2.6l-3.1-2.7l-1.3-1.5l-0.5-1.1l-1.1-2.2l-3.3-1.8l0.2-3.9l0.4-2.7l0.7-1l2.2-1.8l0.8-1.6l2-2.6l-3.4-0.4
	l-5-1.1l-2.2-0.6l-5.8-2.3l-8.6-3l-2.2-1.5l-0.8,0.7L367,568l0.2-2.4l-1.2-2.3l0.7-1l-3-0.3l-3-0.9l-4.1-2.5l-6.7-2.8l-6.4-2.7
	l-4.8-3.4l-1.3-2.7l-2.3-1.9l-2,0.6l-1.3,2.1l-2,0.9l-1.8,1.1h-2.4l-5.1-1.3l-4.8-1.3l-2.4-1.1l-0.2-0.5l-0.5-0.6l0.1-1.2h0.7
	l0.8,0.4l3.1-1.4l0.6-0.5l0.1-0.4l-0.2-0.5l0.3-0.6l0.5-0.2l0.6,0.4l0.8,0.2l0.5-1.6l1.9-1.6l0.8-1.1l0.7-1.9l1.1-1.8l0.7-5.9
	l1.3-1.3l3-1.1l-0.6-1l-3.7,1H325l0.4-1.2l0.4-0.6l0.9-0.4l0.8-0.7l1-0.5l1.7-1.6l0.6-0.4l0.2-1l0.7-2.1l0.8-2.4l0.8-1.6l-0.4-1.9
	l0.8-4.3l1.1-1.7l0.7-1.5l0.5-0.6l1-0.2l0.6-0.5l2.3-0.8l0.7-0.6l1-0.5l0.8,0.1l0.8-1.7l-0.5-1.7v-0.8l1.2-1.7l0.2-0.6v-2.3l0.8-0.4
	l1.5,0.2l0.6-0.4l0.7-0.2l0.9,0.3h0.8l0.8,0.7l1.6,0.7l2.2,0.4l2-0.1l1.7,0.2l2.2,2.8l1.5,1.4l1,0.8h1l0.2,2.7l1.3,0.3l2.7-0.4
	l0.9-0.7h1l0.5,1l0.4,2.3l1.4,0.7l2.3,0.7h1.3l1.3,0.3l3,1.8l1.2,0.6l2.1-0.2l1.6,0.3l0.9-0.7l1-1.3l1-0.6l0.8-1.1l0.9-1.2l1.3-2.9
	l0.8-1.1l2-1.9l0.8-1.7l1.2-1l1.1-0.6l0.8-1.9l2.1-1.5l1.6-2l3.6-1.3l1.5-1.2h1l1.8,1.2l0.6,0.8v1.9l0.8-0.4l0.9,0.3l1.2,1.4
	l1.9,0.4l1.5,2l0.8,1.4l0.7,0.3l1.7,2.9l1,0.5l6,6.4l0.9,1.7l0.7,1.9l1.1,1l1.6-0.1l1.1,2h0.9l0.9,0.3l0.5,1.4l-0.3,1.9l3.2-1.3
	l1,0.1l2.5-2.4l0.7-1.4l0.9-1.5l0.8-3.4l0.1-1.8l0.5-1.3h0.7l0.7,0.3l0.6-0.3l0.9-1.1l0.7,0.1v2.7l1.7,0.2l3.7-0.6l2.6-1.9l1.1-0.1
	l3.4-1.4l1.4,0.4l1,0.9l1.5,2l2-1.2l1.2,0.9l2.1,0.7l0.7,0.9l0.1,1.1l0.9,0.4l1.1,0.9l0.8,1.3l0.3,1.4l-0.3,2.7l-0.5,2.2l0.5,2.1
	l1.5,3.8l0.8,1.1l2.5,1.9l0.9,0.3l1,0.7l2.6-0.9l-0.6,3.5l0.1,1.9l1,1.4l1.1,0.7l0.8,0.3l1-0.4l2.7-0.4l0.6-0.6l0.6-2.8l1.3-0.6
	l2,0.1l2,2.8l2.3,0.2l1.5,1l2.1,1.8l1.6,0.2l1.6-0.6l0.6-0.6l0.6-0.9l0.6-0.1l0.4,0.4v0.8l-0.9,2l-3.1,4.2l-0.3,1.1l0.4,0.8l0.7,0.1
	l0.5,0.3l1.6,3.1l1.3,1l0.1,2.5l0.4,0.3l2.5-0.4l2.5,0.8l0.9-0.3l1.7,2.7l0.2,1l-0.3,1.3l-2.4-0.3l-1.8,0.5l-1.2,0.8l-0.3,0.9
	l-0.1,1.4l-0.2,0.8l-0.7,1.1l-0.1,2.5L506,559l-0.7,0.4l-0.9-0.4l-2.8-1.9l-1.3-0.5l0.2-3.1l-1-0.1l-0.7-0.4l-0.5-0.6l-4.2,1.7
	l1.2,2l0.2,2.7l0.2,0.4l0.9,0.6l1.1,1.2l0.1,0.7l-0.5,1.3l-0.3,2.6l0.5,1.1l-0.6,1.2l0.3,1.4l0.9,1.3l0.8,0.8l0.6,0.1l3.7-1.8
	l1.5-0.2l0.9,0.3l0.4,1l0.9,0.6l0.4,1.7h1.2l1.3,1.5l1.4,0.8h0.4l1.2-0.5l0.8,0.9l2,4.1l0.5,1.3l1.7,2l0.3,1.2v1.7l-1.1,0.8l-1,1.5
	l-0.7,0.8l-1,0.6l-0.4,1.8l-0.1,2l-1.7,1.5l-2.1,0.2l-0.4,0.6l-0.1,2.9l0.1,0.5l0.5,0.9l2.6,1.2l1.1,3.8l2.7,2.1l0.3-0.2l1-1.2
	l4.9,1.2l1.9,0.9l2.2,0.5l0.9,0.5l0.5,0.5l0.4,1l-1.8,1.5l-1,1.7l-0.7,2.6l-0.4,4.7l0.1,1.7l0.4,1.1l0.8,1.1l1,1l-0.8,1.4l-1,0.7
	l-3,0.9l-1.8,0.4l-1.1,1.3l-1.1,0.8l-0.9,1l-0.6-0.1l-0.5,0.4l-0.8,0.7l-0.4,1.3l-0.6,0.8l-0.4,1.1l-5.7,2.4l-0.8,1.7l-0.7,1.3
	l-0.5,1.6l-0.9-0.4l0.2-1.7l-0.7-1.8l0.1-0.8l0.2-2.8l-0.5-1.2h-0.9l-0.8,0.8l-2,3.2l-0.2,0.8l-0.7,0.2h-1.5l-1.4-0.4l-0.5,0.1
	l-1.2,1.8l-0.6,0.5l-0.7,0.1l0.2-1l-1.1-0.2l-0.2-0.5l0.6-1.5l0.5-1.2h0.9l-0.9-2.1l-1.7,0.2l-0.3-0.7l-3,0.3l-0.1-0.6l0.6-0.5
	l-0.5-0.3l-1.5-1.4l-1.6,0.3l-1.4,1.2v1.2l-1.9-0.3h-2.7l-2.2-0.9l-0.7-0.4l-2-1.9l-1-1.5l-0.5-2.5l-0.6-1l-2.4-1.3L469,624
	l-2.8-1.4l-1.3,0.1l-0.4,1.8l-1.8,1.7l-0.1,0.1L461.7,626.5z"/>
<path id="D062" class="st0" d="M594.7,515.6l-0.2,2l-0.7-0.1l-1.1-0.2l-0.6-0.8l-0.2-0.3l0,0l-0.7,0.6l0,0v0.1v1.1l-0.6,1.1
	l-1.2,0.4l0.2,1.3l1.1,1.9l0.5,1l0.9,0.9l0.3,0.7v0.1l0,0v0.2l-0.8,0.5h-0.1l-0.4-0.7l-0.6,0.1l-0.8,0.8l-0.2-0.2h-1.2h-0.1
	l-0.3-0.7l0.2-0.6l0.1-0.3l-1-0.2l-1.2,0.8l0.9,0.6l0.2,0.4l-0.1,0.4l-0.9-0.3l-0.5,0.6l-0.5-0.3l-1.2-0.6l-0.2,0.5l-0.2,0.5l-1,0.2
	l-0.9,0.1l-0.5,0.6v0.9l0.5,0.7l-2.7-1.9v-0.3l0,0l0,0l-1.2,0.4l-0.2-1.2l-0.6-0.3l-2.1-0.6l-1.5-0.7l-3-0.6l-1.5-0.8l-1,0.1
	l-0.7-0.1l-1.6-1.7l-1.7-0.5l-0.8-0.5l-0.2-0.6l-0.5-0.4l-1.4,0.1l-0.8-1.1l-0.6-1.8l-1.6-1.2l-1.4-1.6l-0.1-2.9l-0.8-0.8l-1.4-1
	l-1-1.3l-1.2-0.8h-3.1l-2.7,0.1l-0.4-1l-0.9-0.3l-0.2-0.5l-0.1-1.2l-0.5-0.9l-0.9-0.5l-0.9-0.9l-1.6-0.8l-2.7-0.8l-1.3-0.3l-1.4,0.2
	l-1.1-0.5l-0.8-1.5l-0.5-1.4l-0.5-2l-0.8-3l-0.4-1.7l-0.2-2l-0.5-2l-0.9-2.3l-0.4-2.2l-1-1.9l-2.1-5.1l-0.9-1.2l-0.6-1.1l0.5-1v-1.1
	l-0.7-0.8l0.1-1.1l-0.5-1.7l-1-0.9l-1.1-0.6l-0.6,0.6l-1.5-2l-2.2-1.6l-0.9,0.5l-1-0.1l-2.2-0.6l-0.7-0.6l-0.1-0.3l-0.5-1.1l0.1-2.5
	l-0.6-1.2l-2.3-3l-1.6-1.7l-1.4-0.3l-5.6-2.4l-0.6-1.1l-0.4-1.7l-0.6-1.8l-0.6-1.1l0.1-1.4l0.5-1.1l1.5,0.2l1.6,0.8l2.8,2.6l2.8-0.1
	l0.8-1l1.1-0.1l1.2-0.6l0.4-1.9l0.9-2.4l1.1-0.2l0.8-1.3l0.6-0.1l0.4,0.9l0.3,1.1l0.5-0.4l1.4,0.2l1.8,0.5l0.3,4.5l0.3,1.1l2.1,0.9
	l3.5,0.1l3.3,1.1l1.7-0.8l1.1-1l0.9-1.1l1.1-1.5l1.6,0.2l0.6-0.3l0.7-1.5l2.5-0.4l0.5-0.7l0.4-1.1l-0.3-1.1l-0.6-0.8l-0.6-1.8
	l-1.5-0.8l-0.5-0.9l-0.3-0.9l0.1-2.6l-0.1-0.7l-0.5-0.5l-2.7-0.7h-0.7l-0.7-0.8l-0.7-1.2l-2,0.2l-0.5-0.6l-0.6-1.6l4.4-0.2l2.4-0.5
	l0.1-0.5l-0.7-2.4v-1.2l0.1-1.7l0.7-2.4l0.7-1l1-0.8l2.8-1.3l2.8-0.2l0.6-0.3l0.5-0.7h2l0.9,0.3l0.8,0.5l1.1,2l0.8,0.7l0.7,0.2
	l1.6-2.6l2.7-1.6l1.7,0.6l0.8,0.5l1,0.2l2.5-0.2l0.2,0.4l0.9,0.6l0.3-0.4l1-0.7l0.5-1.5v-0.9l-0.7-1.9l-1.4-3.5l-0.5-0.8l-0.6-1.9
	l-3.7-2.7l-1.1-1.1l-3.9-2.7l-0.9-1.3l-0.8-1.4l-1.9-5.9l-0.7-1.2l-0.6-3.4v-1.4l1.1-3.4l0.3-1.8l0.6-1.3l0.7-2.8v-1.2l-0.6-4.3
	l0.4-2.8l-0.2-1.1v-1.2l0.2-2.7l1.2-2.6l1.3-1.4l1.1-2.5l0.3-1.4l0.1-4.3l0.8-4.1l0.2-5.1l1.2-4l0.2-1.4v-1.2l-0.4-0.7l-0.5-0.1
	l-2,0.4l-3-0.6l-0.8-0.9l-0.6-1.1l-0.9-2.7l-0.2-2.8l0.1-0.7l-0.3-0.8h-0.9l-0.7-0.6l0.4-2l0.4-1.1l-3.5-2.4l-1.3-1.3l-1.4-2.7
	l-1.4-2l-1.2-0.4l-1.6-0.2l-1.3,0.1l-1.6,0.1h-1.1l-0.5-0.9l0.3-1.1v-0.8l0.3-1.7l0.4-0.9l0.5-3.6l0.8-0.7v-0.7l-0.8-0.5l-0.5-0.6
	v-0.6l0.4-0.6l2.7-1.4l0.8-1.9l1.6-2.3l0.7-0.7l0.6-1.1l0.9-2.5l-0.2-1.4l-0.6-0.8l-0.1-1.2l0.6-1.4v-1.7l0.2-1.1l-0.2-1.9l-1.6-1
	l-0.5-0.7l-0.4-2.3l-1.8-2.3l0.1-1.3l0.5-0.9l0.7-0.5v-0.7l-0.3-0.7l-0.4-1.9l-0.8-0.5l0.2-0.8v-0.8l-0.3-0.9l-0.3-0.4l-0.3-2.5
	l-0.7-2.2l-1.3-1.9l-0.4-0.2l-0.2-1.5l0.1-0.8l0.5-0.6l0.5-0.9l1.2-1.3l0.6-1.2l0.8-3.7l0.6-1.4l1.5-2.7l0.9-1.2l0.9-0.1l0.8-0.4
	l0.4-1.1v-1.4l-2.3-3.2l0.6-0.6l0.3-1.1l-0.1-0.8l-0.6-0.7l0.6-1.3l-0.1-0.6l-1.9-0.9l-0.5-0.5l-0.6-1.2l-0.4-2.9v-1.3l-0.5-0.7
	h-0.7l-0.9-2.3l-0.6-1.1l-0.5-0.3l-0.9-0.4l-1.4-1.5l-0.3-0.7l-0.2-1.3l-0.9-3l0.2-0.8l1.8-1l1.7-1.9l3.5-1.5l1.1-0.7l0.6-0.8
	l0.9-0.3h1.1l5.3,1.8l1.4-0.3l1.5,0.1l1.3,0.2l1.3,0.6l1.7,0.3l0.2-0.7l-0.3-2.3l-1.1-2.2l-0.2-1l-1.1-2.8l-0.3-1.3l0.2-2.1l1.6-3.2
	l0.5-0.6l0.3,0.3v0.1l2.5,2.2l0.1,0.2l0.3,0.3l0.9,0.2l1-0.5l1.1-1.4l0.3-0.3l0.4-0.9l0.5-0.6l0.1-0.1l2.2-0.5l0.2-0.2l0.1-0.3
	l-0.2-1.9l0.2-1.1l0.2-0.3l1-0.5l0.6-0.1l1.7,0.2l0.1-0.1l0.4,0.2l0.8,0.5l0.8,0.7l0.2,0.4v0.1l0.2,0.5l0.3,0.2v0.1l0.2,0.2l0.2,0.1
	l0.2,0.6l0.1,0.1l0.3,0.7l0.2,0.2l0.3,0.3l0.5,1.1l0.6,0.6l0.2,0.1l0.1,0.3v1.3l-0.1,1.4l0.2,1.1l0.1,0.1l0.4,0.9l0.2,0.1l0.1,0.4
	l0.1,0.3l0.9,0.7l0.4,0.3l1.9,0.6l0.1-0.1l0.5-1.6l0.4-0.4l0.4-0.2l0.5-0.1h0.1l0.6,0.3l0.2,0.2l0.2-0.1v0.2l0.1,0.1l0.3,0.8
	l0.1,0.1l0.2,0.5l0.1,0.1l0.1,0.1l0.1,0.4l0.2,0.7l0.1,0.1l0.4,1.2l0.1,0.1l0.2,0.7l0.1,0.1l0.4,1.1v0.7l-0.1,0.3l-0.8,1.8l-0.3,1.8
	l-1,1.3l-0.3,0.7l-0.4,2.6l-0.1,0.9l-0.2,0.1l-0.1,0.8l-0.5,0.5l-1.4,1h-0.1l-1.9,0.4l-0.3,0.2l-0.7,0.4v0.2l-0.1,0.1v0.1l-1.4,0.9
	l-0.5,0.7l-0.1,0.4l-0.2,0.8l-0.1,1.3l0.5,1.1l1,0.8v0.2l1.7,1.2l0.6,0.3l0.1,0.1v0.3l0.4,0.4v0.1l0.6,0.7l0.4,0.9l0.1,0.1l0.1,0.9
	l-0.3,1.2l-0.4,0.6l-0.5,1l-0.7,0.8l-0.1,0.2v0.9l0.1,1l0.1,0.1l1.2,0.6l0.6,0.2h0.3h0.1v0.1l0.1,0.1l0.1,0.3v1.1l-0.1,0.3l-1,1.4
	l-0.1,0.3v1l0.6,2.5l0.3,1.3l0.7,0.6l0.2,0.2l1,0.7v0.1l0.6,0.2l1,0.6l0.4,0.4l0.1,0.4l0.3,0.2l0.1,0.2l0.5,0.4l0.3,0.1l0.3,0.1
	l0.7-0.3l0.4-0.2l0.3-0.3l0.4-1l0.2-0.2l0.1-0.1l0.2-0.3l0.2-0.1h0.3h0.1l0.2,0.1l0.1,0.2l-0.1,0.8l0,0v0.7l0.2,0.1v0.1l0.5,0.2
	l0.1-0.2l0.2-0.1v-0.2V243v-0.1l0.2-0.2l0.8-0.7l0.9-0.1l1.1-0.1l0.5,0.1l0.1,0.1l0.1,0.1l0.3,0.2l0.1,0.1l0.3,0.1h0.2l0.5,0.2
	l0.6,0.3l0.2,0.1h0.2l0.1-0.1h0.3h0.2h0.2v0.2l0.5,0.1l0.1,0.1l0.6,0.1l0.3,0.2l0.1,0.2l0.1,0.1l0.3,0.4v0.1v0.1l0.4,0.7l0.1,0.1
	l0.1,0.6l0.1,0.1l0.1,0.1l0.3,0.6l0.8,0.7l1.6,1.1l1,0.5l0.8,0.4l0.5,0.5l0.2,0.3l0.8,0.6l3.7,2.3l0.3,0.2l0.3,0.2l2.5,0.9l0.1-0.1
	l0.3-0.3l0.7-0.7l0.7-0.5l1.7-0.3l0.3,0.2l0.1,0.3l0.7,0.7l0.3,1.1l0.3,0.9l0.6,0.7l0.1,0.2l0.4,1l0.1,0.2l0.1,0.1l1.3,1.1l4.7,2.4
	l1.7,0.6l1.6,0.2l1.2,0.2l0.4,0.1h0.3l1.9,0.3l0.2,0.1l0.6,0.2l0.6,0.6l0.2,0.2v0.3l0.2,0.1l0.1,0.3l0.3,0.4l0.2,0.1l0.1,0.4
	l0.1,0.1l1,2.4l0.1,0.1l0.1,0.3l0.7,0.9l0.4,0.5l0.1,0.1l0.3,0.4l0.1,0.2l1,0.8v0.2l0.8,0.3l0.5,0.3l0.3-0.2l0.2-1l0.1-0.2l0.1-0.3
	l0.5-0.4l0.4-0.3v-0.1l0.8-0.2l0.5,0.2l0.2,0.1l0.2,0.1l1.4-0.3l0.7-0.6l0.4-0.8l0.5-0.9l0.2-0.4l0.6-1.9l0.4-1.4l0.5-0.2h0.2
	l1.3-0.1l0.5,0.2l0.9,0.4l1.8,1.3l0.3,0.3l5.3,4.5l1.1,0.9l0.4,0.6l0.5,0.5v0.2l0.6,0.6v0.1l0.1,0.2l0.1,0.2l1,0.7l0.2,0.1l0.4,0.2
	l0.1,0.1l0.3,0.2l0.3-0.1l0.5,0.1l1.4-0.1l1,0.6l0.1,0.1l0.2,0.1l0,0l0.1,0.3l0.3,0.2l0.2,0.2l1,0.9l0.3,0.3v0.1v0.1l0.3,0.3
	l0.3,0.2l3.8,3.5l0.6,0.4l0.8,0.6l2.4,1.7l2.2,1.4l0.6,0.5l0.6,0.5l1.5,1.7v0.2l0.7,0.7v0.1l0.4,0.5l0.1,0.3l0.7,1l0.2,0.2l0.1,0.6
	l0.2,0.3l0.2,0.2l0.9,2.5l0.1,0.1l0.3,1l0.1,0.1v0.3l0.2,0.2l0.1,0.1l0.7,2.7l0.3,0.6l0.1,0.1l0.3,0.6l1.2,1.2v0.2l2.1,1.9l3.3,2.6
	l1.3,0.8l0.5,0.3l1.2,0.6l3.6,1.6l1.5,0.3l2.2,0.5h0.2l0.9,0.3l2.5,0.8l2.5,1.4l1.7,0.7l2.1,0.8l0.7,0.2l1.8,0.4h0.1l0.7,0.1l0,0
	h0.4l0.8,0.2l0.3,0.1l1,0.4l3.8,1.7l1,0.3l0.7,0.2l0.4,0.1l3,0.7l0.8,0.5l1.8,1.1l0.6,0.4l0.2,0.2l0.6,0.6l0.1,0.1l0.2,0.4l0.4,1.1
	l0.1,0.1l0.1,0.6v0.1l-0.2,3.4l-0.9-0.7l-1.3-0.3l-1.4-1.1l-1.8-0.4l-1.2,0.7l-1,1.3l-0.2,0.2l-3.2,0.1l-4.5,0.7l-1.6-0.3l-1.2,1.1
	l-0.2,0.6l-0.1,0.3l-0.7,0.9l-1,0.4l-0.5,0.5l-0.6,1.1l-0.4,0.6l-0.6,0.3l-0.4,0.2l-0.6,1.5l-1.9,3l0.3,1.5l-1,1.8L700,343h-0.6
	l-1,1.7l0.1,0.2l0.6,0.3l0,0l0.8,1.4l-0.1,1.9l0.5,2.3l0.5,0.8v1.1l0.5,1l-0.2,1l-0.7,0.6l-1.1,0.2l-1,1.1l-1.4,0.2l-0.1,0.2
	l-0.1,0.2l-1.8,0.7l-0.6,1.4l0.6,0.7l0.3,0.3l-0.2,1.1l-1.5,1.2l-1.4,0.1l-0.2-0.1l-0.2-0.1l-0.3-0.6h-0.6h-0.3l-0.4,0.7l-0.8,0.2
	l-0.3,0.8l-0.8,0.4l-0.7,0.4l-0.9,1.1l-0.4,1.2l-0.9,0.8l-0.6,1.1l-0.2,0.1l-0.3,1l-1.6,2.9l-0.2,0.3l-0.7,0.7l-2,0.6l-0.5,0.4
	l-0.3,0.2l-0.4,1.3l0.1,0.2l-0.7,1v2.1l0.5,0.9l-0.1,0.9l-0.6,0.8l-0.5,2l-0.7,1.5l-1.8,1.8l-3.5-0.2l-1.4,2.6l-1.5,1.1l-0.8,1.4
	l-0.7,0.1l-1.3,1.4l-1.2,1.8l-0.3,1.1l-1.1,1.1l-0.9,0.2l-2.8,0.6l-1.5-0.2l-1.7-1.4l-0.6-0.6l-0.9-0.3l-0.3-0.1l-0.3,0.1l-1.3,0.3
	l-1.4,0.8l-0.6,0.3l-1.5,0.1l-2.5,2.6l-2.1,4l-0.2,1.1l-0.8,1.2l-0.6,2.1l-0.3,1.5l0.3,2l0.2,1.7h0.1l-1.3,3.9l-1.7,2.2l0.1,0.3
	l0.1,0.3l0.8,0.5l-0.4,0.4l-0.9,0.7v0.3v0.3l-0.6,0.8l0.4,0.8l-0.2,0.8l0.1,0.2l-0.8-0.2l-0.9,1l-0.9-0.2l-0.6,2.1l-0.9,0.1
	l-0.6,1.2l-0.8,0.4v0.8l-0.3,0.4l-0.1,0.2l-2.7,1l-0.4,0.9l-0.7,0.5l-0.7,1.6l0.5,0.5l0,0l-0.9,1l-0.1,0.7h-0.2l0.3,1.2l-0.6,0.5
	l-1.8-0.3l-0.6,0.2l-0.6-0.6l-2.4-1.1H621l-1,0.9h-0.1l-1.2-0.4l-0.7-0.9l-0.4-0.5l-0.2,0.3l-1.1,1.6l-2.1,0.5l-0.3,0.1l-0.5,1h-0.2
	l0,0H613l-0.8-0.7l0.1,0.7l-0.2,0.5l-0.1,0.3l0.2,1.1l-0.7,0.6l0.2,0.9l-0.9,1.2l-0.7,2.7l0.3,1l-0.2,0.2l-0.1,0.1l-0.9-0.5
	l-0.3,0.1l-0.8,0.4l0.1,1.3v0.8l-2.6,0.4l-0.8-0.4l-0.1,0.2l-0.4,0.9l-0.2,1.6l1,1.4l-0.7,1.1v1.3l0.5,0.8h0.9l0.4,0.3v0.3v0.3
	l-0.6,0.7l0,0l0.4,0.6v0.3l0,0l0.5,2.3l0.5,0.4l0.1,3.1l0.8,0.7l-0.1,1.1l-0.2,0.7l0.2,1l1.1,1l-0.1,0.8v0.1l0.2,0.7l1.6,0.5
	l0.1,0.1l0.1,0.1l-0.1,0.2l-0.1,0.4l0.1,0.1l1.5-0.3l0.7,1.5l0.8-0.1l0.2,0.4l0.2,0.4l-0.4,0.7l-0.1,1l0.4,0.7l0.8,0.6l-0.1,1.3
	l0.2,0.5l0.2,0.5l-0.6,1L613,482l-0.5,1l-0.1,1.6l-0.5,0.6l0.4,0.8l0.2,1.2l-0.2,2.5l0,0l-0.9,1.3l-2.2,2l-0.2,1.8l-0.4,0.7
	l-1.7,0.1v1.9v0.7l-2.9-0.7l-0.1,0.3l-0.1,0.3l0.3,1.2l0,0l-1.3,0.4l-1.6-0.1l-0.6,0.3l-0.6,0.3l0.6,1.1l-0.7,1.8l0.8,0.2h0.1
	l0.2,0.1h0.1l0.2,0.1l0.6,1l1,0.7l0.1,0.2l0.1,0.2l-0.3,0.6l-1.6,1.5l0.2,0.8l0.1,0.3l-1.3,2l-0.4,0.3l-0.7-0.5l-0.3-0.2h-0.3
	l-0.5,1.2l0,0l-0.4,0.7l-0.1,0.1l-2.8,1.8l-0.1,0.3L594.7,515.6L594.7,515.6z"/>
<path id="D058" class="st0" d="M348.8,307.5l-1.6,1.1l-1.6,0.6l-2.5,0.6l-0.7-0.2l-0.3-0.3l-1.1,1.1l-1.7,1.8l-0.7,0.3v-1.1l0.5-3.3
	l-0.2-0.9l-1.6-2.2l-0.6-1.6v-1.6l0.2-1.5l-0.4-1.1l0.1-0.8l0.9-1.7l0.7-2.5l0.2-1.9l0.2-0.4l0.6-0.4l2.9-1l0.4-0.3l1.3-0.6l1.7-1.6
	l-1.1-2.2l-0.1-1.2l-0.4-0.6v-0.2l0.8-2.2l2.7-3.1l0.9-0.7l0.7,0.3l-0.2,2l0.2,0.7l0.6,0.5l0.9,0.1l0.7-0.2l0.8-0.3l0.8-0.7l0.8-1.5
	v-1.1l-0.8-1.4l-1,0.1l-0.6-0.5l-0.9-1.6l-1.2-1.6l-1.8-1.6l-1.3-0.4l-0.8-0.9v-1l0.2-0.8l-0.1-0.6l0.4-2.4l-0.1-0.4l-0.9-1l0.2-1.2
	l-0.1-0.9l-0.7-1.3l0.3-0.8l-0.6-9.2l-0.3-0.5l-0.9-2L342,247l-1.9-0.5l-0.5-0.3l-0.3-0.4l-0.4-4.3l-0.6-2.8l-1.1-0.5l-0.8-0.7
	l-2.3-0.2l-0.8-0.7l-1-2.1l-0.9-2.7l-0.5-0.7l-2.9-3.4l-1.5-1.3l-0.7-1l-0.4-1.5l-0.3-5.7l0.5-4l-0.2-0.6l0.7-1.5l-0.2-0.8l0.1-0.6
	l0.4-0.6l1.8-5.3l0.9-1.4l2.9-0.8l0.3-0.3l0.9-1.9l0.5-0.7l0.4-0.2l1.3-0.2l2.4-1l2.9-0.5l1-0.4l0.6-0.6l0.6-0.9l1.2-0.1l1.7-0.8
	l0.3-0.4l0.3-2.1l1-1.1l0.1-0.4l-0.7-3.4l0.2-0.6l0.9-1.3l-0.1-1.3l-0.3-0.9l1.2-2.1l2.4,0.3l1.2,0.6l1.9,0.6l1,0.1l0.1,0.6l1,1
	l1.3,2.1l2.2,2.4l0.5,0.2h1.3l1.6,0.5h1.8l1.5,0.7l0.4,0.4l0.2,0.8v1.3l0.2,1.3l0.7,1.1l1,0.5h0.6l1-0.6l1.4-0.5l1-0.6l1.1-0.1
	l4.2,2l1.5,1.5l0.6,2l1.7-0.8l1.6-0.3l2.4,0.8l3.7,0.9l1.9,2.3l0.4,0.1l2.6-0.3l1.1-0.5l0.9,0.3l2.4,1.3l0.5,4.4v1.6l0.1,0.4
	l0.9,1.4l0.1,1.3l-0.1,1.2l0.2,0.7l1,0.8l0.6-0.1l0.3,0.2l0.1,0.4l0.4,0.3l1.2,0.1l0.3,0.4l0.8,1.9l1.3,0.5l1.2,0.7l1.8,2.2l0.2,2.7
	l-0.1,1.2l0.1,0.8l-0.1,0.6l-1.3,1l-0.1,1.1l-0.4,2.7l-0.8,0.8l-0.3,1.2l-0.4,0.9l-0.7,0.8l-1.7-0.3l-0.7,0.1l-1.4,0.4L401,236
	l-0.6,1.1l-0.8,3.7l-0.6,1.5l-0.5,0.8h-1l-2.3-0.6h-1.1l-1.7-0.5h-1.6l-0.3,0.1l-0.4,1l-1.2,0.9l0.1,0.3l-0.6,1.7l0.1,1.3l-0.2,1.9
	l-0.7,1.1l-1.2,0.9l-0.8,1.5l-0.6,3.6l-0.1,2.5l-0.3,1.3l-0.9,1l-3.6,2.3l-1.7,1.6l-0.2,0.5l-0.5,0.6l-0.6,2.2l-1.4,1.2L375,271
	l-1.1,1.4l-0.2,1l1,2l0.4,2.5l0.1,1.9l-0.3,1.7l-1.1,2.8l-0.2,3.1l-0.1,0.6l-0.3,0.5l-0.8,0.4l-2.6,0.5l-3.9,0.3h-0.4l-0.3-1.1
	l-1.6-0.3l-1.9,0.6v0.3l0.3,1.1v1.1l-0.9,4.2l-0.1,0.3l-1.4,1.2l-0.7,1.4l-0.8,0.9l-1,0.6h-0.9l-1.6-0.8l-0.7-0.8l-0.9,0.9l-2.2,1
	l-0.9,0.2l-0.2,1.5l-0.3,0.4l-0.5,0.1l-1-0.2l-0.2,0.6v1.1l0.4,2.2L348.8,307.5z"/>
<path id="D059" class="st0" d="M325.6,225.4l0.7,1l1.5,1.3l2.9,3.4l0.5,0.7l0.9,2.7l1,2.1l0.8,0.7l2.3,0.2l0.8,0.7l1.1,0.5l0.6,2.8
	l0.4,4.3l0.3,0.4l0.5,0.3l1.9,0.5l0.6,0.4l0.9,2l0.3,0.5l0.6,9.2l-0.3,0.8l0.7,1.3l0.1,0.9l-0.2,1.2l0.9,1l0.1,0.4l-0.4,2.4l0.1,0.6
	l-0.2,0.8v1l0.8,0.9l1.3,0.4l1.8,1.6l1.2,1.6l0.9,1.6l0.6,0.5l1-0.1l0.8,1.4v1.1l-0.8,1.5l-0.8,0.7L351,281l-0.7,0.2l-0.9-0.1
	l-0.6-0.5l-0.2-0.7l0.2-2l-0.7-0.3l-0.9,0.7l-2.7,3.1l-0.8,2.2v0.2l0.4,0.6l0.1,1.2l1.1,2.2l-1.7,1.6l-1.3,0.6l-0.4,0.3l-2.9,1
	l-0.6,0.4l-0.2,0.4L338,294l-0.7,2.5l-0.9,1.7l-0.1,0.8l0.4,1.1l-0.2,1.5v1.6l0.6,1.6l1.6,2.2l0.2,0.9l-0.5,3.3v1.1v0.3l-1.1,1.4
	l-4.1,2.3l-1.2,0.4h-1.2l-1,0.3l-0.1,0.1l-0.3,2.8l-0.5,0.4l-0.4,0.1l-1-1.8l-0.8,0.2l-0.6,0.5l-1.1,2.6l-0.7,1.1l-0.6-0.3l-0.5-1.1
	l-0.6-0.9l-2-1.6l-0.5-0.2l-1.1,2l-2.4,1.9l-0.8,0.2l-1-0.7l-0.8-0.1l-0.4,0.7l-0.2,1l-0.8,0.8l-1.4-0.4l-1.4-0.1l-0.9,0.9l-0.6,2
	l-1.6,0.3l-0.9,1.7l-0.5,0.1l-0.7-0.2l-2.5-2l-0.4-0.1l-0.6,0.2l-1.6,0.4l-0.9,0.6l-1.2,2.3l-0.8,0.4l-0.9,0.2l-0.6-0.1l-0.3-0.2
	l-0.7-1.2l-3.9-3.5l-1.3-1.7h-0.8l-0.6,0.3l-0.3,0.3l-0.3,0.7l-0.4,0.2l-2-1.1l-1.4-0.4l-1.1,0.5l-0.6,1l-0.1,0.6l0.4,2.3l-0.1,0.8
	l-0.3,0.6l-0.9,0.9l-1.2,0.2l-1,0.7l-0.5,0.5l-0.5,0.2l-2.1-0.3l-0.3,0.2l-0.2,0.9v1.7l-0.3,1l-1.1,1.1l-2.2,1.2l-0.9,0.7l-0.4,1.3
	l-0.4,3.4l-0.6,2.8l-0.4,0.6l-1.1,0.2l-0.4,0.9h-0.3l-0.9-1.1l-0.4-0.2l-0.2,0.2l-0.2,0.9l-0.2,2l0.5,1.6l0.9,1.3l-0.1,0.4l-2.1,0.6
	l-0.2,0.3l-0.1,0.5l0.4,2.9l-0.4,0.8l-0.6,0.3l-0.2,0.4l0.8,1.8l0.8,1.1l0.2,1.2l-0.3,1.2l-0.7,0.7l-0.2,0.5v0.6l0.2,0.5l0.2,0.1
	h1.1l1.5,0.4l0.4,0.6v0.8l-0.7,0.7l-0.3,0.1l-1-0.7l-0.3,1l-0.1,1.3l-0.2,0.8h-0.4l-0.3-0.3l-1-1.5l-0.3-0.4l-0.3-0.1l-2,0.1l-1-1.6
	l-0.6-0.5l-2.6-0.4l-2.4-0.7h-0.6l-0.9,0.6l-0.3,1.3l-0.3,0.3l-1.1,0.4l-0.7,1.9l-0.5,0.3l-0.5-0.3l-0.9-1.4l-0.2-0.9l-0.1-2.7
	l-0.3-0.1l-0.5,0.6l-1.2,3.2l-1.2,1.5l-0.3-0.1l-0.7-1.9l-0.2-0.6l-0.3-0.3l-1.6,0.5l-2.4-0.7l-1.1-0.7l-2-2l-0.6-1.9l-0.3-2.1
	l0.1-1.1l0.6-2.4v-0.5l-0.4-0.5l-0.5-0.2l-1.7-0.5v-0.4l-0.5-2l-0.8-1.5l-0.9-1.2l-1.4-0.7l-1.8,0.1l-0.8,0.4l-0.2,0.5l0.2,1.8
	l-0.2,1l-1.8,0.2l-1.9,0.8l-0.6-0.3l-2.1-1.7l-2.7-1.7l-0.6-0.1l-0.6,0.2l-0.7,2l-2.6,0.5l-0.6,0.3l-0.5,1.4l-0.2,1.2l-2.8-1.9
	L206,354l-5.5-4.5l-0.3-1.2l1-4v-0.6l-0.6-0.5l-1.2-0.1l-0.6-0.2l-0.9-0.8l-0.5-0.8l-0.4-1.4l0.1-1.6l1.7-4.3l1.8-1.4l1.3-1.9
	l1.5-1.2l3.7-1.9l0.9-1.2l0.8-1.9V324l-3.9-6.7v-0.5l0.5-1.1l-0.2-1.6l0.4-1.6l0.3-1.1l0.1-0.4l-1.2-1.2l-1.3-1l-1.2,0.7l-0.5-0.1
	l-1.1,0.5l-0.8-0.1l-0.5-0.6l-0.9-1.9l-0.5,0.1l-0.6,0.5l-0.8,0.1l-1.4-0.4l-1.8-0.8l-1.4-0.1l-0.3,0.1l-0.6,1L190,308l-0.4,0.5
	l-0.5-0.2l-0.4,0.1l-0.6,0.4l-2.1-0.7l-1.7-1l-1.1-1.8l-2.3-1.7l-0.5-0.9l-0.1-0.6l-0.7-1.6l-0.7-3.6l0.1-1.6l0.4-2.2l0.6-1.3
	l0.8-1.2l2.6-2.3l0.9-0.4h0.7l1.1-0.4l2.9-2.5l1.8-0.7l2.3-1.3l1.5-0.6l1.8-1.1l1.6-1.3l0.5-0.7l-0.1-1.1l-0.3-0.6l-1.3-1l-1-1.4
	l-1.7-1.2l-1-0.4l-1.6-1l-3.3-1.3h-1.6l-2,0.3l-0.9-0.1l-1-1.2l-1.8-1.2l-2.6-0.7l-1.7-2l-3.6-1.3l-0.6-0.6l-0.7-0.3l-1.1,0.1
	l-1.9,0.5l-1.4,0.8l-0.5-0.2l-1-1.1l-0.7-0.2l-2.3,0.3l-0.5-0.1l-1.2-0.6l-0.4,0.1l-1,0.9l-1.4,2.2l-1.1,0.3l-0.9-1l-0.8-0.5
	l-1.5,0.8l-1.8,1.2l-0.2,0.1h-0.4L151,268l-0.4,0.1h-0.5l-0.4-0.1l-0.9-1l-0.9-1.1l-0.4-0.3l-0.2-0.3l-0.1-0.3l-0.1-0.3l-0.1-0.2
	v-0.9V263l-0.2-0.2l-0.5-0.3l-0.3-0.1l-1.6-0.6l-0.3-0.2l-0.3-0.3l-0.4-0.6l-0.8-0.8l-0.8-1.4l-0.2-0.3l-0.3-0.3l-0.4-0.6l-0.1-0.6
	l0.1-0.6l0.1-0.2l0.2-0.4l0.1-0.2l0.8-0.6l0.6-0.5h0.2l0.9,0.5l0.3,0.2l0.8,0.3l0.8,0.5l0.7,0.5h0.2l0.1-0.1l0.3-0.1l0.3,0.2
	l0.2-0.1h0.2l0.8,0.5h0.3l0.6-0.2l0.4-0.4l0.2-0.2l0.1-0.5l-0.2-1.5l-0.1-0.7l-0.3-1.2l-0.3-1.8l-0.1-0.7l-0.1-1.2v-0.7l0.1-0.7
	l0.1-0.7l0.1-0.4l0.2-0.4l0.7-1.1l0.6-0.4l0.3-0.3l0.7-0.4l0.4-0.2h0.2l0.8-0.3l0.2-0.3l0.4-1.1l-0.1-0.9l1.2-1.7l0.2-2.1l0.3-0.5
	l0.4-0.2v-1l-0.5-1.4l0.3-1.7l-0.1-1.6l1,0.1l1.4,0.5l2.7,2.5l1,0.8l1.1-0.9l2.6-0.9l1.2-0.6v-1.1l-0.5-1l-0.2-0.6l0.1-0.3l1.3-1.9
	l1.9-1l2-0.4l1-0.5l2-0.2l1.8-0.8l0.7,0.1l1.2,1.2l0.9,0.3l0.9,0.1l2-0.8l0.3,0.2v-0.3l0.9,1.4l0.6,0.6l0.6,2.2l0.6,1.5l0.1,1
	l0.7,1.2l-0.4,0.1l-0.7-0.2l-0.1,0.4l-0.1,0.7l0.2,1.2l-0.1,0.8l0.1,0.3l0.5,0.5l0.6,0.2h0.9l0.6,0.5l1.6,0.2l3.6,1.8l2.7-1.2l1.6-1
	l1.1-0.3l1.1-1.8l0.3-2.5l0.2-0.4l0.9-0.8l0.2-0.1l1.6,0.7l1.9-1.4l0.7-0.1l0.8,0.2l0.9,0.5l0.9,1.5l1.2,1.3l1.2,1.7l0.4,1l0.3,0.2
	l-0.1,0.3l-1.1,0.8l-0.5,0.7l-0.7,1.6l1.2,1.1l0.5,0.8l0.4,0.2l-2.5,0.9l-0.1,1l0.6,1.7l1.6-1l0.6,0.1l1.1-0.3l1.1-0.8l0.1-0.8
	l-1-2.3v-0.2l0.2-0.1l1.7,0.2l0.5,1.1l1.2,1.8h0.2l0.8-1h0.4l0.7,0.4l0.4,0.5v1.6l0.1,0.4l0.6,0.6l0.1,1.2l0.3,0.9l1,1.8l0.6-0.1
	l0.5,0.2l0.1,0.7l-0.2,1.5l0.1,0.2l1.4,1l2.2,0.6l1.2,1.1l1.7,2.5l0.5,1.9l1.7,1.1l0.2,0.6v2.1l0.3,0.9l0.1,1.8l0.2,0.3l0.5,0.2
	l0.4,0.1l0.3-0.2l-0.3-1.5v-1.9l0.5-0.7l0.3-0.8l1.4-1.5l0.8-1.3l-0.2-1.8l0.1-1.7l1.4-1.6l1.8-1.5l0.1-1.1l1.7-2.6l0.1-0.5
	l-0.3-0.7v-1.2l-0.4-3.3l-1.6-0.9l-0.6-0.5l-0.3-2.4l0.2-2.9l0.7-3.5l0.2-0.6l0.7-0.8l0.4-1.6h0.8l1.5,0.5h1.1l0.7-0.5l2.2-3
	l0.5-0.3l0.2,1.3l1.5,1.6l0.7,0.5l0.7,1.3l0.6,1.6l1.3,2.1l-1,2.1L248,238l-0.9,0.7l-0.2,0.6l0.4,1.3v0.5l-0.4,1.4v1.4l-0.2,1.1
	l-0.2,4.3l0.2,1.2l0.2,0.5l1.4,0.6l1.9,0.4h0.9l1.7-0.9l1.6,0.8l1-0.2l0.5-0.5l0.1-0.5l-0.5-4.7l0.2-0.6l0.4-0.5l0.5-1.2l-0.5-1.5
	l0.2-1.1l0.2-0.4l0.8-0.6l0.4-0.6l0.1-0.9l0.7-1.3l2.9-3.3l0.1-0.5l-0.4-1l0.1-0.2l0.2-0.5l0.9-0.9l0.5-1.1l0.5-1.4l0.5-0.6l1.4-1
	l0.2-0.6l-0.2-0.4l-0.1-1.3l0.2-0.8l-0.1-1.7l0.3-4.1l0.2-0.7l-0.3-2.2l-0.9-1.2l-1.2-0.6l0.9-1.7l2-0.9l0.6,0.2l0.6,1l0.6-0.1
	l1.5-1l0.8,0.7l1.3-0.3l1.2,1.1l2.9-1.1l2.1-0.6l0.1-0.7l-0.2-0.9l0.1-0.5l1.5-1.7l2-1.6l0.6,0.2h0.6l3-1.2l2.5-2.1l0.9-1.6l0.4-0.2
	l0.5,0.2l1.5,1.7l1.5,2l1,0.9l1.3,0.5l0.9-0.9l0.5-0.8l2.6-0.9l1.1-0.2h3.6l0.9-0.4l0.7,0.7l0.6-0.1l0.1-0.8l0.7-0.8l0.3-0.2
	l1.9-0.4l1.1-1.1l0.6-1l0.8,0.3l1.2,0.1l0.5-0.4l0.1-1.4l0.2-1l0.8-1.7l-0.2-3.2l-0.7-3.1l0.1-1.4l0.9-2.3v-1.2l-0.3-0.8l0.2-0.3
	l0.1-1.2l0.8-1.5l0.1-1l-0.6-1.4l-1.1-3.6l-0.2-1.9l0.2-1l0.6-1l1.1-1.4l1.5-1l0.3-0.4l0.2-1.7l1.5-1.5l1.1,0.1l1.3,0.5l0.6,0.6
	l1.3-0.3h1.4l2.3-1.4l0.5,0.1l0.7,0.8l1.5,0.6l0.5,0.5l0.8,1.2l0.6,2.3l1.2,0.4l4.4-0.1l3-1.7l1.6,0.1l1,0.9l1,1.2l0.4,0.7l0.6,0.6
	l0.4,1.5v5.8l2.9,3.4l-1.2,2.1l0.3,0.9l0.1,1.3l-0.9,1.3l-0.2,0.6l0.7,3.4l-0.1,0.4l-1,1.1l-0.3,2.1L345,195l-1.7,0.8l-1.2,0.1
	l-0.6,0.9l-0.6,0.6l-1,0.4l-2.9,0.5l-2.4,1l-1.3,0.2l-0.4,0.2l-0.5,0.7l-0.9,1.9l-0.3,0.3l-2.9,0.8l-0.9,1.4l-1.8,5.3l-0.4,0.6
	l-0.1,0.6l0.2,0.8l-0.7,1.5l0.2,0.6l-0.5,4l0.3,5.7L325.6,225.4z"/>
<path id="D067" class="st0" d="M546.6,669.9l0.7,11.6l1.1,1.9H548l0,0l-0.1-0.1l-1.1-0.5l-1-0.9l-4.6,6.4l-0.1,1.1l-0.3,0.5
	l-1.2,0.9l0.3,0.6l1,0.8l0.7,0.9l0.8,1.9l-0.4,2l-0.7,1.5l-0.1,0.7l0.1,0.8l-0.3,0.5l-0.4,0.2l-0.4,0.6L539,704l-1.8,2.9l-1.5,2
	l-0.5,0.6l-0.6,0.3l-2.2,2.2l-2.6,0.1l-1.3,0.3l-2.8-0.5l-2.3-1l-2.2-1.3l-1.4-1.6v-1.4l-0.2-1.7l-0.7-1.8l-1.2-1.8l-0.3-1l0.4-0.4
	l-1.2-1.8l-1.2-0.4l-0.9-1.3l-0.5-0.6l-0.6-1.1l0.8-1.5l0.9-0.8l0.5-1.1l0.1-0.7l-1.2,0.2l-1.7,0.7l-1.1,0.5l-1.3,0.1h-1.1l-1.4-0.5
	l-1.2-0.6l-1.3-1.1l-1.1-0.9l0.5-1.6l0.5-1.6l0.7-0.1l0.9,0.2l1.2,0.7l2.1,0.4l0.8-0.5v-0.7v-2.3l-0.8-0.1l-2-0.9l-1-1.2l-0.2-0.6
	l-0.1-0.7l-0.9-0.3l-1,0.5l-0.5,0.2l-1.5-0.5l-0.8-0.6l-1,0.5l-0.4,0.8l-1.6,2.5l-0.2,0.4l0.5,1.4l0.1,0.7l-0.3,0.7l0.1,1.1l0.2,0.6
	l-0.3,0.4l-0.5-0.2l-0.4,0.2l-0.8,0.5l-0.2,0.4l-0.2,0.4l-0.3,0.3l-1.2,0.2l-0.5,0.2l-1.3-0.8l-0.4,0.2l-0.2-2l0.8-2l0.6,0.3
	l0.5,1.1l0.6,0.1l0.4-0.4l0.1-1.1l0.4-1l0.2-1.3l0.1-0.9l-0.4-0.7l-1.1-0.8l0.1-1l0.7-0.8v-0.5l-0.3-0.4l-0.4-0.8l1-0.4l1.6-0.5
	l0.2-0.7l-0.1-1l-0.3-0.9l-0.2-0.7l-0.6-0.7l-1.1,0.3l-0.4,0.1l-0.6-0.1l-0.1-0.9l-0.1-0.9l-3.1-3.6l-2.4,0.5H489l-1.9-1l-0.2,0.5
	l-0.7,0.4l-0.7,1.1l-0.2,0.5l-0.6,0.1l-0.8-0.1l-0.8-0.5l-1.9,0.6l-0.5,0.2l-0.6,0.3l-0.5,0.4l-0.5,1l-0.2,0.7l-0.1,0.5l-0.6,0.1
	l-0.9-0.1l-0.9,0.5h-0.8l-0.3,0.3l-0.4,2.4l-2.2-0.1l-1.1,0.9v1l-0.2,0.4l-1.3,0.2l-1-0.3l-1.9-1.1l-0.1-0.1l-0.4-0.8l-1.2-0.5
	l-0.7-0.1l-1.3-1l-0.9-1.2l-1-0.3l-0.9,0.5l-1,0.5l-1.1-0.1l-1.1-0.4l-2,2.7l-0.6,0.9l-0.4,0.5l-0.4,0.2l-0.5,0.1l-1.2-0.1L452,678
	l-0.2,0.2l-0.6,0.3l-0.4,0.3l-0.7,0.2l-0.5-0.2l-0.5-1.1l-0.1-1.1l0.4-1.5l0.2-0.8v-0.7l0.1-0.5l0.4-1.7v-0.9l-0.3-0.8l-0.4-0.7
	l-1.4-1.6l-0.9-0.4h-0.4l-0.6,0.6l-0.6,0.9l-0.8,1.2l-0.6,1.4l-0.5,0.8l-0.5,0.7l-0.6,0.8l-0.7,0.7l-0.5,0.4l-0.9,0.1l-1.1,0.1
	l-1.1-0.1l-0.9-0.5l-0.7-0.4l-1.1-0.2l-1.7,0.6l-0.6,0.5l-0.3,0.6L432,676l-0.9-0.2h-1.4l-1.5-0.3l-1.2-0.2l-0.6,0.5l-0.5,0.6
	l-0.7,0.5h-0.8l-0.5-0.1h-1.1l-0.5-0.5l-0.5-1.1l-0.2-1.3V673l-0.1-1l-0.5-0.6l-0.8-1l-0.4-1.1l0.9-2.6l0.1-1.1v-0.5l-0.2-2.3
	l-0.2-1.5l0.5-1.1l0.2-1.9l-0.2-0.8l-0.6-0.7l-0.5-0.4l-1.2-0.4l-0.8,0.3l-1.1,0.3l-0.4-0.2l-0.4-0.6l-0.3-0.6l-0.2-1.5l-0.1-0.9
	l-0.3-0.9l-0.3-0.8l-0.3-0.6L414,650l-0.3-1.2l-0.7-1l-0.5,0.6l-0.4,0.7l-0.4,1v0.6l0.2,0.5l0.2,0.9l-0.5,0.2l-0.4,0.1l-1.1-0.3
	l-1.2-0.4l-0.8-0.1l-0.9-0.1l-1.5-0.3h-0.8L404,651l-0.9-0.1l-0.5,1.1l-0.6,0.3l-0.5-0.1l-0.7-0.3l-1.8-1.6l-1.4-1.1l-1-2l-0.6-0.6
	l-0.4-0.5l-0.8-1.2l-1.2-1.2l-1.5-1.3l-1.2-1.1l-0.9-0.9l-0.3-1.8l-3.1-2.6l-2-1.6l-1.4-1.4l-0.9,1l-0.3,0.8l-2.8-0.5l0.4,1.6
	l-1.4-0.4l-1.7,1l-0.6-0.4l-0.3-0.8l-1.1-0.6l-0.7-1.1l0.2-1.6l0.8-0.3l0.3-2.3l1-2l-2.3-0.9l-1.9-1.3l-1.3-2.3l-0.4-3.2l0.4-2.3
	l1.2-2l0.1-1.9l-0.3-3.3l-1.6-1.1l-0.6-1.3l-2.5-1.1l-0.8,0.8l-1,0.1l-1.5-0.3L362,606l-3.7-3.9l-2.5-1.1l-1,0.3l-1.6,0.1l-1.5-2.9
	l-0.8-1.2l-1.3-0.3l-0.2,0.1l-0.6,0.3l-0.2,0.9l0.4,1l0.7,0.7v1.2l0.2,0.9l-0.4,0.6l-0.9-0.2l-0.9-0.8l-0.7-0.9l-0.5,0.1l-0.1,1.1
	l0.4,1l-0.1,1.1l-0.7,1.4v0.8l0.6,0.4l1.4-0.1l0.9,0.5h0.8l0.6,0.7l-0.2,1.2l-0.7,1l-0.8,0.7l-0.9,0.3l-2-0.7l-1.1,1l-0.4-1.6
	l-0.7-0.6l0.1-1l-0.5-1.1l-0.9-0.4l-0.9-0.6l-0.2-2.4l-0.7-2l-1.1-1.5l-1.2-1.2l-0.8-0.3l-0.3,0.2v0.3l0.2,0.4l-0.1,0.4l-0.9,0.3
	l-0.9,0.2l-0.5,1.8l-0.9,0.8l-2-1.2l-1.9-0.7l-0.5,1.1l-1.2,1l-2.7-0.4l-0.4-1.1l-0.5-0.2l-0.2-0.3l0.9-1.2l1-0.4l0.2-0.5l-0.5-0.6
	l0.2-0.7l-0.4-1l0.6-0.8v-0.7l-0.8-0.6l-0.4-2l-0.9-1.3l0.5-0.7l0.4-1l-1.1-0.6l-1.1-1.4l0.9-0.6v-0.5l-0.2-0.4l-0.8-0.3l-0.5-0.4
	l-0.3-1.5l-2.4-0.8l-0.1-0.3l0.7-0.7l0.1-0.8L320,580l-1.3-2.2l-1.2-0.7l-0.7-0.8l-0.1-1l-0.2-0.5l-0.4-0.2l-0.7,1h-0.3l-0.5,1
	l-1.6-0.5l-0.2-0.8l-0.4-0.3H312l-0.9,0.5l-1.3,0.5l-0.4,0.4l-2.6-1.4l-1.3-1.2l-0.6-0.1l-0.5-0.6l-0.3-1.9l-0.8,0.5l-4.4-3.9
	l1.6,0.2l-0.2-1l-0.8-0.9l-2.7-2.4l-1.5-0.9l-1.4-1.2l-0.7-0.5l-1.3,0.1l-1.3-1.3l0.1-0.5l1.1,0.2l0.3-0.3l1.2,0.5l0.2-0.4l-0.5-1.6
	v-1.2l0.4-0.4l0.1-0.7h0.6l0.6,0.6l1.3-0.2v-0.8l0.8-1.3l0.2-0.6l2-1.6l1.2,0.6l0.3,0.4l-0.3,0.6l0.4,0.5l0.7,0.1l1.8-0.4l0.3-0.3
	l0.3-0.7l0.4,0.9l-0.6,2.8l1.4,0.7l0.5-1.4l1.1-0.5l0.1-0.3l-1-1.3l-0.2-1.1l-0.3-0.6v-0.4l1.3-0.9l1.8-4.4l0.2-1.8l0.2-0.7l0.5-0.5
	l0.6-0.2l-0.8,1.3l0.2,2l0.5,0.6l1.9,0.4l0.9,0.1l1.1-0.4l0.4-0.4l-0.1-0.2l2.4,1.1l4.8,1.3l5.1,1.3h2.4l1.8-1.1l2-0.9l1.3-2.1
	l2-0.6l2.3,1.9l1.3,2.7l4.8,3.4l6.4,2.7l6.7,2.8l4.1,2.5l3,0.9l3,0.3l-0.7,1l1.2,2.3l-0.2,2.4l0.6,2.5l0.8-0.7l2.2,1.5l8.6,3
	l5.8,2.3l2.2,0.6l5,1.1l3.4,0.4l-2,2.6l-0.8,1.6l-2.2,1.8l-0.7,1l-0.4,2.7l-0.2,3.9l3.3,1.8l1.1,2.2l0.5,1.1l1.3,1.5l3.1,2.7
	l2.1,2.6l1.5,1.1l3.1,3.6l3.5,4.5l6.5,5.5l2.3,2.9l4.5,4.9l8.2-0.1l10.5,0.3l7.4-0.6l4.4,0.4l9.1-0.2l0.9-0.3l0.1-0.1l1.8-1.7
	l0.4-1.8l1.3-0.1l2.8,1.4l1.7,1.4l2.4,1.3l0.6,1l0.5,2.5l1,1.5l2,1.9l0.7,0.4l2.2,0.9h2.7l1.9,0.3v-1.2l1.4-1.2l1.6-0.3l1.5,1.4
	l0.5,0.3l-0.6,0.5l0.1,0.6l3-0.3l0.3,0.7l1.7-0.2l0.9,2.1h-0.9l-0.5,1.2l-0.6,1.5l0.2,0.5l1.1,0.2l-0.2,1l0.7-0.1l0.6-0.5l1.2-1.8
	l0.5-0.1l1.4,0.4h1.5l0.7-0.2l0.2-0.8l2-3.2l0.8-0.8h0.9l0.5,1.2l-0.2,2.8l-0.1,0.8l0.7,1.8l-0.2,1.7l0.9,0.4l0.5-1.6l0.7-1.3
	l0.8-1.7l5.7-2.4l0.4-1.1l0.6-0.8l0.4-1.3l0.8-0.7l0.5-0.4l0.6,0.1l0.9-1l1.1-0.8l1.1-1.3l1.8-0.4l3-0.9l1-0.7l0.8-1.4l5.4-4.2
	l0.3-4.3l0.5-0.8l0.6-0.2l0.8,0.5l1.9,2.9l1,0.7l1,0.3l1.6-0.5l1.6-1.6l0.7-0.9l0.7-0.6l0.6,0.1l0.4,0.4l0.7,1.7l0.5,0.9h0.5
	l0.6-0.6l0.9-2.1l1-5l-0.3-1.9l-0.7-2.4l0.4-0.6l3,1.6l1.3-0.4l3.4,0.2l1-0.2l1.6-0.7l2.3-1.7l0.7-0.1l0.8,0.6l1.4,2.7l0.1-0.2
	l1.6,2.1l-2.6,2.5l-2.8,9.8l-0.2,0.9h0.1l1.5,0.5l-1.9,6.9l0.9,0.3l-0.7,2.4l-0.3,1l-0.3,1l2.2,0.9l-0.1,0.3l-0.1,0.3l-1.6,0.3l0,0
	l-1.7,6.1l-1.9-0.7l-1.5-0.5l-0.8,2.8l-5.8,12.1l-1.3,2.8L546.6,669.9z"/>
<path id="D056" class="st0" d="M231,266.9l-0.3,0.2l-0.4-0.1l-0.5-0.2l-0.2-0.3l-0.1-1.8l-0.3-0.9v-2.1l-0.2-0.6l-1.7-1.1l-0.5-1.9
	l-1.7-2.5l-1.2-1.1l-2.2-0.6l-1.4-1l-0.1-0.2l0.2-1.5l-0.1-0.7l-0.5-0.2l-0.6,0.1l-1-1.8l-0.3-0.9l-0.1-1.2l-0.6-0.6l-0.1-0.4v-1.6
	l-0.4-0.5L216,243h-0.4l-0.8,1h-0.2l-1.2-1.8l-0.5-1.1l-1.7-0.2L211,241v0.2l1,2.3l-0.1,0.8l-1.1,0.8l-1.1,0.3l-0.6-0.1l-1.6,1
	l-0.6-1.7l0.1-1l2.5-0.9l-0.4-0.2l-0.5-0.8l-1.2-1.1l0.7-1.6l0.5-0.7l1.1-0.8l0.1-0.3l-0.3-0.2l-0.4-1l-1.2-1.7l-1.2-1.3l-0.9-1.5
	l-0.9-0.5l-0.8-0.2l-0.7,0.1l-1.9,1.4l-1.6-0.7l-0.2,0.1l-0.9,0.8l-0.2,0.4l-0.3,2.5l-1.1,1.8l-1.1,0.3l-1.6,1l-2.7,1.2l-3.6-1.8
	l-1.6-0.2l-0.6-0.5h-0.9l-0.6-0.2l-0.5-0.5l-0.1-0.3l0.1-0.8l-0.2-1.2l0.1-0.7l0.1-0.4l0.7,0.2l0.4-0.1l-0.7-1.2l-0.1-1l-0.6-1.5
	l-0.6-2.2l-0.6-0.6l-0.9-1.4v0.3l-0.3-0.2l-2,0.8l-0.9-0.1l-0.9-0.3l-1.2-1.2l-0.7-0.1l-1.8,0.8l-2,0.2l-1,0.5l-2,0.4l-1.9,1
	l-1.3,1.9l-0.1,0.3l0.2,0.6l0.5,1v1.1l-1.2,0.6l-2.6,0.9l-1.1,0.9l-1-0.8l-2.7-2.5l-1.4-0.5l-1-0.1l0.2-0.5l-0.3-0.4l-0.2-0.9
	l0.6-1.1l0.2-1.2l-0.8-3.4v-1l0.3-0.5l0.9-0.6h0.7l0.7,0.4l0.6,0.7l0.9,0.7l0.7,0.3l0.8-0.7l0.6-2l1-1.6l2.4-1.1l0.7-0.8l0.6-1.4
	l-0.1-3l0.8-1.7l0.2-2.8l0.4-0.9l0.7-0.4l0.4-0.5l0.9-1.9v-0.4l-0.8-1.2l-0.7-1.1l-0.3-0.9l0.6-0.9l0.2-0.6l-0.7-0.6l-1.4-0.5
	l-0.2-0.5V197v-0.8l-0.3-0.5l-0.1-0.2l-0.4-1.3l-0.2-0.4l-1.1-0.6l-1.5-2.9l-0.7-0.5l-0.5-0.2l-0.7-0.3l-0.4-0.7l-0.2-0.4l-1-0.7
	l-0.5-0.6l-0.3-0.9l0.2-1.7l-0.4-1.8l-1.5-2.6l-1.3-1.2l-1.7-1l-0.9-0.9l-0.2-0.3l-0.5-1.3l-0.1-0.5l-0.1-0.5l-0.7-2l-0.5-0.8
	l-0.1-0.5V170l0.2-2.1v-0.8l-0.3-0.6l-0.6-0.9v-0.4v-0.4l0.1-0.8v-0.4l-0.6-1.4l-0.2-0.4l-0.3-0.4l-0.1-0.3l0.2-1.1l0.2-0.8l0.2-0.5
	l0.1-0.1l0.2-0.2l0.3-0.1l0.3-0.1l0.6-0.2h0.3h0.2l0.3-0.1l0.3-0.2l0.3-0.3l0.5-0.4l0.1-0.2l0.2-0.2l1.5,0.2l1.3-0.7l1.4-1.2
	l-0.7-3.6l-2.3-4.6l-1.3-2.4L152,144l-0.6-0.2l-0.6-0.3l-0.2-1.1l-0.3-0.6l-0.5-0.2l-0.1-0.1l-0.1-0.1l-0.4-0.6l-0.3-0.2l-0.6-0.3
	l-0.2-0.1H148l-0.8-1l-0.3-0.4l-0.6,0.1l-1.1,0.1l-0.1,0.2l-1-0.3h-0.2l-0.6,0.1l-0.4,0.4l-0.4,0.3l-0.6,0.2l-1.2-0.3l-0.3,0.1
	l-0.8,0.3l-0.7,0.2l-0.4,0.3l-0.7,0.6l-0.7,0.6l-0.4,0.4l-0.6,1l-0.9,1.1l-0.7,0.3l-0.3,0.2h-0.4l-0.3-0.3l-0.3-0.1l-0.4-0.1
	l-0.1,0.1l-0.2,0.2L132,145l-0.3,0.5l-0.1,0.3l-0.3,0.2l-0.2-0.1l-0.5-0.2l-0.3-0.1l-0.7,0.1l-0.5,0.7l-0.3,0.2h-0.3l-0.7-0.2
	l-0.2-0.1v-1.2v-0.4v-0.1l-0.1-0.5l-0.1-0.2l-0.3-0.1h-0.2l-0.4,0.3l-0.2,0.2l-0.4,0.2l-0.5,0.4l-0.3,0.1l-0.2,0.1l-0.3,0.3
	l-0.7,0.9l-0.4,0.7l-0.5,0.5l-0.2,0.5l-0.2,0.6l-0.1,0.6h-0.1H122l-0.5,0.1l-0.4,0.1l-0.3-0.1l-1.3-0.4l-0.7-0.1l-0.2-0.1h-0.5
	l-0.3,0.2l-0.2,0.2l-0.2,0.5l-0.5,0.5l-0.2,0.4l-0.7,1.3l-0.2,0.3l-0.1,0.3h-0.4H114l-1.4,0.2l-0.5,0.3l-0.8,0.9l-0.8,0.1l-0.9-0.1
	l-1.1-0.1l-1.3-0.3l0.3-1.6l-0.2-1.3l-0.6-0.3l-0.8-0.4l-0.5-0.7l-0.2-0.6L105,148l-0.3-1.4l0.2-2.6l0.3-1l1.1-1l2.3-2.3h1.9
	l1.3,0.3l1.4,0.8l1.8,1.7l1.7,1.8l1.1,0.8l1,0.4l1,0.2l0.9-0.2l0.4-0.8l-0.1-0.8l-0.5-0.5l-0.6-0.1l-1.6,0.4l-0.6-0.7l-0.8-1.1
	l-0.2-0.5l0.2-0.8l0.3-0.8l0.8-0.9l0.4-0.5l0.2-0.5l0.1-0.4l-0.1-0.8l0.3-1.5l0.6-0.4l0.5-0.9l-0.6-0.8v-0.8h2.8l0.1-0.7l-0.5-0.9
	l-0.7-1l0.4-1.3l0.1-2.2l-0.5-0.6l-0.7-0.4l-0.8-2.4l-1.1-2.7v-1.2l-0.8-0.8l1.2-0.1l0.5,0.2v0.4l1-0.3l0.9-1l1-2.4l1.2-0.7l1.2-0.1
	l1-1l1.4-3.5v-2.3l0.3-1.7l1.2-1.3l2.8-1.8l1.1-0.4l0.1-1.8L132,99l1-1.4l0.8-1.5l-0.4-1.5l1-0.7l1.8-0.4l1.4,0.8l1-0.3l3.8-2.7h0.9
	l0.4-1l0.9-1.3l1.7-0.7l2.8,3.5l1.8-0.3l1.2-0.4l1.4,0.3l2.9,2.5l1.2,0.5l0.4-0.9l-0.2-1.9l0.2-1.4l2-2.2l0.6-1.3l1.7-0.5l0.2-0.1
	L165,85l1,0.1l2.3-0.1h0.8l0.9,0.6h1.5l0.9-0.5l1.6-1.8l1.2-0.7l0.6-0.8l0.8-0.1l1-2l3-0.5l0.4-1.6l1.2-0.4l0.4-0.7l0.4-1.2l1,0.2
	l0.4,0.1l1-0.4l0.5,0.1l0.5,0.1l1.1-0.2l1,0.5l1.6,1.7l0.5,0.3l1-0.2l1.4-0.7l0.7-2.1l0.5-0.8l1-0.3h1.2l2.7,0.9l1-1.2v-1l1,0.1
	l1.1-0.8l0.3-1l0.7-0.6l0.3-0.9l0.6-1l2.1-2.8l1.7,1.2l2,0.6l0.9-0.5l0.4-1.7l0.2-2.9l0.3-0.9l1.5,0.5l2,0.3l1.8-0.8l1.8,0.2
	l1.2-0.4l1-0.3l1.7-0.2l1.3,0.2l1.1,0.6l0.8,2.2l1.5-0.6l0.4,1.8l0.6,1.2l1.3,1.9l-0.3,2.4l1.2,1.3l1.4-0.2l1.8-0.6l1-2.3l1.4,1
	l0.9,1.6l2.4,1.4l2.5,4.2l1.8,1.7l0.1,2.3l0.5,2.1l1.3-0.3l1.8,0.2l5.2,0.1l4.4-0.7l2.5-3l1.2-2.3l1.1-0.6l0.9-1l2.4-0.3l0.9,0.2
	l2.2-0.5l1,0.1l1.8,1.2l0.6,0.9l0.7,0.6l2.1,0.8h1.2l0.3,0.6l0.4,2.8l1.4,1.5l0.4,2l0.6-0.8l1.7-1.4l1.1,0.2l2-0.2l3.7,1.7h1
	l1.3,0.4l1.1-0.4l1.4-0.1l5.5,0.7l1.5-0.1l1.3-0.3l1.2-0.4l3.4-1.8l1.2-0.1l1,0.7l0.6,0.8l-0.4,1.3l-0.6,1.3l-0.1,1.6l0.6,1.1
	l2.1,2.2l-0.3,1.4l1.1,2.5l0.5,1.7l1.1,0.9l0.8,1.8l1.7,1.4l1.2,0.7l1.5,0.5l1.9,3.5l1.7,1.3l1.6,0.9l0.8-0.1l1.2-0.5l1.1,0.1
	l0.5-0.5l0.2-1.1l0.6-0.9l0.8-0.2h0.9l1.5,2.2l2.3,0.2l0.9,0.4l0.9,0.1l2-0.9l0.6-0.6l1.9-1.1l3.6-0.3l1.1-0.2l1.1,0.4v-0.2V104
	l-1.1-3.4l-0.3-1.6l-0.4-0.8l-0.4-0.1l-1.3-1.2l-0.4-1.3l0.4-1v-3.9l-0.5-2l-0.5-1.1l-0.6-0.3l-0.4-0.6l-1-0.1l-1.5-0.9l-1.3-0.9
	l-0.3-0.9l-0.6-1l-1.1-1.2l-0.5-2.2l0.3-1.2v-0.8l-2.9-0.2l-0.8-0.5l-1.1-2.2l-0.8-4.1l0.2-2.3l0.4,0.1l0.8-0.5l0.2-0.2l0.1-0.2
	l0.4-1.1V66v-1.8l-0.1-0.4v-2.7l1.4-3.6l0.2-1.3l0.1-1.9l-0.4-2.8l0.4-1.6l0.2-0.2l0.7-1.4l1.3-1.2l2.9-1.5l0.3-0.1l1.4-0.8l0.4-0.1
	l0.9-0.2l0.1,0.1l2.2-1l1.7-1.2l0.4-0.6l0.3-0.9l-0.1-1.7l0.3-1.3l2.3-5.4l1-1.5l0.4-0.5l0.2-0.1l0.1-0.3l0.1-0.2l1.1-0.9l1.1-1.5
	l0.2-0.1l0.1-0.5l0.1-0.1l0.2-0.3l0.3-0.8l0.2-0.1l0.2-0.2v-4.2l0.3-2.2l0.3-1.1l0.2-0.4l0.4-0.9l0.9-1.5l0.5-0.6l0.8-0.3L355,14
	l0.6-0.1l0.7,0.9l0.3,0.3v0.2l0.2,0.2L357,16l0.2,0.2l0.1,0.1l1.9,1.4l2.5,0.8l0.1,0.1l0.2,0.1l0,0.3l0.5,0.3l0.1,0.2l1.1,1L368,22
	l0.7,0.4v0.1l0.4,0.1l0.1,0.2l0.6,0.9l0.1,0.3l0.5,0.8l0.1,0.1l1,2.5l0.1,0.1l0.2,0.6l0.2,0.3l0.2,0.3l0.2,0.3l0.3,0.6l1.8,1.8
	l0.1,0.2l1,1.1l1.3,3.2l0.2,0.4l0.1,0.2l0.1,0.5l0.4,1.2l0.1,0.1v0.1l0.1,0.2l0.1,0.2l0.1,0.1l0.2,0.7l0.2,0.2l0.2,0.1l0.4,0.9
	l0.8,1l0.4,0.9l0.3,0.3l0.3,0.2l0.2,0.4l0.2,0.2l0.2,0.2l0.1,0.3l0.6,0.4l1.8,1.4l0.6,0.3h0.1l0.2,0.1l0.6,0.5l1.3,1.4L387,49v0.8
	l-0.2,0.4l-0.1,0.2v0.2l-0.1,0.1l0.1,0.5l-0.1,0.3v0.4v0.7l0.1,0.2l0.3,0.5l0.1,0.1l0.5,0.5v0.2l2.4,2.5l0.3,0.3l0.1,0.3l1.4,1.3
	l0.1,0.4L392,59l0.1,1.2l-0.3,1.1l-0.2,0.4l-0.1,0.1l-1.6,1.9l-0.6,1.7l-0.1,0.8l-0.1,1.1l0.2,2l0.7,0.9l1.1,0.9l0.4,0.1l0.3-0.1
	l0.8,0.1l0.3,0.1l0.3-0.1l0.1-0.1l1.4,0.3l0.3,0.3l0.1,0.3l0.2,0.8l0.1,0.1l0.1,0.5l0.1,0.1l0.1,0.2l0.5,1.2l0.2,0.1v0.2l0.1,0.1
	l0.7,2l0.1,0.1l0.3,1.3l1.4,4.5l0.4,1.1l-0.1,1.5l-0.1,0.3l-0.5,0.7l-0.4,1l-0.2,0.2v0.4l0.1,1l0.1,0.3l0.3,1.1l0.2,0.1l0.2,0.2
	l0.5,1.1l0.5,0.4l0.4,0.9l0.4,0.5l0.2,0.7l0.1,0.1l0.3,1.2l1.5,1.8l0.2,0.4v0.1l0.5,0.2h0.2l0.3,0.1h0.7l0.2-0.1l0.5,0.4l0.1,0.4
	l0.2,0.1l0.1,0.1l0.4,1.4l0.2,0.1l0.8,0.2l1.4-0.1l0.5,0.1l0.2,0.1l0.6,0.3l0.3,0.3l0.7,0.6l0.1,0.1l0.7,0.5l0.3,0.1l1,0.3l0.2-0.1
	l1.5,0.1l1.4-0.1l0.3,0.1h0.1l0.5,0.5l0.4,1.5l0.2,0.6l0.1,0.1l0.1,0.1l0.1,0.5l0.5,2.2l0.3,4.1l0.1,0.3l0.1,0.3l-3.4,1.8l-2.2,4.6
	l-0.7,1.1l-1.8,1.6l-0.6,1l-2.4,1.2h-1.6l-1.8,0.4l-1.8,1.1l-1.5,1.6l-0.4,1l-0.1,0.7l0.1,0.4l1.4,1.2l1.8,0.9l0.4,1v0.4l-0.5,1.3
	l-0.6,0.9l-0.1,0.5l0.1,1.1l0.8,2l0.1,0.5l-0.3,0.7l-0.9,1.2l-0.6,0.2l-0.9-0.1l-3.2-2h-0.4l-1.3,0.4l-0.7,0.4l-0.9,0.8l-1.9,1.1
	l-0.8,0.8l-0.4,0.6v0.6l0.2,0.5l2.3,1.5l0.3,0.3l1.2,2l-0.6,2.4l0.3,2.2l-1,0.8l-1.1,0.6l-0.3,1.6l0.1,1.2l1.1,4.3l0.1,1.3l-0.7,0.9
	l-2.2,1.3l-0.7,3.1l-0.6,0.6l-0.6,1.7l-0.3,0.5l-1.7,1.3l-0.1,0.8l0.5,2.2l-0.1,0.4l-2.9,1.6l-0.5,0.4l0.1,1.5l0.8,1.4l1.8,0.9v1.6
	l0.1,0.4l1.5,2.3l0.8,0.7l0.3,0.9h0.7l0.5,0.3l0.6,2.3l0.9,1.3l0.9,0.9l1.4,0.9l1.7,1.6l0.1,0.3l-0.4,0.9L395,199l-0.3,1.7l0.2,0.8
	l-1.1,0.5l-2.6,0.3l-0.4-0.1l-1.9-2.3l-3.7-0.9l-2.4-0.8l-1.6,0.3l-1.7,0.8l-0.6-2l-1.5-1.5l-4.2-2l-1.1,0.1l-1,0.6l-1.4,0.5l-1,0.6
	h-0.6l-1-0.5l-0.7-1.1l-0.2-1.3v-1.3l-0.2-0.8l-0.4-0.4l-1.5-0.7h-1.8l-1.6-0.5h-1.3l-0.5-0.2l-2.2-2.4l-1.3-2.1l-1-1l-0.1-0.6
	l-1-0.1l-1.9-0.6l-1.2-0.6l-2.4-0.3l-2.9-3.4v-5.8l-0.4-1.5l-0.6-0.6l-0.4-0.7l-1-1.2l-1-0.9l-1.6-0.1l-3,1.7l-4.4,0.1l-1.2-0.4
	l-0.6-2.3l-0.8-1.2l-0.5-0.5l-1.5-0.6l-0.7-0.8l-0.5-0.1l-2.3,1.4H323l-1.3,0.3l-0.6-0.6l-1.3-0.5l-1.1-0.1l-1.5,1.5l-0.2,1.7
	l-0.3,0.4l-1.5,1l-1.1,1.4l-0.6,1l-0.2,1l0.2,1.9l1.1,3.6l0.6,1.4l-0.1,1l-0.8,1.5l-0.1,1.2l-0.2,0.3l0.3,0.8v1.2l-0.9,2.3l-0.1,1.4
	l0.7,3.1l0.2,3.2l-0.8,1.7l-0.2,1l-0.1,1.4l-0.5,0.4l-1.2-0.1l-0.8-0.3l-0.6,1l-1.1,1.1l-1.9,0.4l-0.3,0.2l-0.7,0.8l-0.1,0.8
	l-0.6,0.1l-0.7-0.7l-0.9,0.4h-3.6l-1.1,0.2l-2.6,0.9l-0.5,0.8l-0.9,0.9l-1.3-0.5l-1-0.9l-1.5-2l-1.5-1.7l-0.5-0.2l-0.4,0.2l-0.9,1.6
	l-2.5,2.1l-3,1.2h-0.6l-0.6-0.2l-2,1.6l-1.5,1.7l-0.1,0.5l0.2,0.9l-0.1,0.7l-2.1,0.6l-2.9,1.1l-1.2-1.1l-1.3,0.3l-0.8-0.7l-1.5,1
	l-0.6,0.1l-0.6-1l-0.6-0.2l-2,0.9l-0.9,1.7l1.2,0.6l0.9,1.2l0.3,2.2l-0.2,0.7l-0.3,4.1l0.1,1.7l-0.2,0.8l0.1,1.3l0.2,0.4l-0.2,0.6
	l-1.4,1l-0.5,0.6l-0.5,1.4l-0.5,1.1l-0.9,0.9l-0.2,0.5l-0.1,0.2l0.4,1l-0.1,0.5l-2.9,3.3l-0.7,1.3l-0.1,0.9l-0.4,0.6l-0.8,0.6
	l-0.2,0.4l-0.2,1.1l0.5,1.5l-0.5,1.2l-0.4,0.5l-0.2,0.6l0.5,4.7l-0.1,0.5l-0.5,0.5l-1,0.2l-1.6-0.8l-1.7,0.9h-0.9l-1.9-0.4l-1.4-0.6
	l-0.2-0.5l-0.2-1.2l0.2-4.3l0.2-1.1v-1.4l0.4-1.4v-0.5l-0.4-1.3l0.2-0.6l0.9-0.7l0.6-0.8l1-2.1l-1.3-2.1l-0.6-1.6l-0.7-1.3l-0.7-0.5
	l-1.5-1.6l-0.2-1.3l-0.5,0.3l-2.2,3l-0.7,0.5H240l-1.5-0.5h-0.8l-0.4,1.6l-0.7,0.8l-0.2,0.6l-0.7,3.5l-0.2,2.9l0.3,2.4l0.6,0.5
	l1.6,0.9l0.4,3.3v1.2l0.3,0.7l-0.1,0.5l-1.7,2.6l-0.1,1.1l-1.8,1.5l-1.4,1.6l-0.1,1.7l0.2,1.8l-0.8,1.3l-1.4,1.5l-0.3,0.8l-0.5,0.7
	v1.9L231,266.9z"/>
<text transform="matrix(1 0 0 1 396.6992 465.42)" class="textName">Almora</text>
<text transform="matrix(1 0 0 1 457.6328 407.6846)" class="textName">Bageshwar</text>
<text transform="matrix(1 0 0 1 419.2295 283.921)" class="textName">Chamoli</text>
<text transform="matrix(1 0 0 1 510.2646 570.0844)" class="textName">Champawat</text>
<text transform="matrix(1 0 0 1 105.2852 290.9791)" class="textName">Dehradun</text>
<text transform="matrix(1 0 0 1 241.3813 415.8184)" class="textName">Pauri Garhwal</text>
<text transform="matrix(1 0 0 1 120.0508 432.8809)" class="textName">Hardwar</text>
<text transform="matrix(1 0 0 1 404.2812 563.9771)" class="textName">Nainital</text>
<text transform="matrix(1 0 0 1 575.4023 337.1456)" class="textName">Pithoragarh</text>
<text transform="matrix(1 0 0 1 342.3311 217.9044)" class="textName">Rudra</text>
<text transform="matrix(1 0 0 1 342.3311 234.7044)" class="textName">Prayag</text>
<text transform="matrix(1 0 0 1 215.6411 289.8467)" class="textName">Tehri Garhwal</text>
<text transform="matrix(0.9858 0.168 -0.168 0.9858 421.2472 649.592)" class="textName">U.Singh Nagar</text>
<text transform="matrix(1 0 0 1 201.3677 163.1422)" class="textName">Uttarkashi</text>
</svg>
