<?xml version="1.0" encoding="utf-8"?>
<!-- Generator: Adobe Illustrator 26.0.0, SVG Export Plug-In . SVG Version: 6.00 Build 0)  -->
<svg version="1.1" id="Layer_1" xmlns="http://www.w3.org/2000/svg" xmlns:xlink="http://www.w3.org/1999/xlink" x="0px" y="0px"
	 viewBox="0 0 800 730" style="enable-background:new 0 0 800 730;" xml:space="preserve">
<style type="text/css">
	.st0{stroke:#000000;stroke-miterlimit:10; cursor:pointer;}
	.textName{font-family:'Arial'; font-weight:bold; color:#000000; font-size:14px; cursor:pointer;}
</style>
<path id="D556" class="st0" d="M370.2,282.4l-2.8-1.3l-2.3,0l0.1,3.3l-2.6,0.4l-2.6-1.5l-1.2,0.3l-2.4-1.1l-0.5,1l-2.8-0.8l-6.1,0.3
	l-1.4-1l-1.6-2.8l-1.8-0.3l-1.6-1.4l-1.3-0.8l0.2-2.5l-1.2-0.3l1.1-3.9l-0.4-1.1l0.4-3.1l-0.9-1l-0.9-4.2l0.9-0.6l0.2-2.3l-1.1-2.8
	l-4.4-0.5l-0.3-1.3l-2.2,1.4l-3.7-0.5l1.2-5.2l-0.8-2.9l-1-1l-2.1,0.2l-0.8-2.8l0.3-2.6l-2.5-1.5l-5.5-1.4l0.7-3.5l-3.6-0.2
	l-1.3-0.6l-2.2,1.2l-0.6-1.9l0-5l2.9-1.7l0.4-3.3l-3.8,0.4l-0.8-2.5l-1.6-0.2l-0.2-5l1.1-3.1l4.4-0.2l0.4-2.8l1.2,1.1l1.6,4.9l1.2,0
	l1.1-1.6l1.5-0.4l0.6-2.1l-0.6-3.5l0.9-1.6l4.5-1.6l2.1,1.2l0.8-3.2l-0.3-4.3l1.9-3.4l1.3-0.3l4.5,0.1l0.3-4.5l1.5-0.4l3-0.5
	l1.5,1.2l3.4,1l0.1,3.9l-0.7,1.4l-3.4-0.4l0.5,3.4l0.7,0l0.5,4.2l2.2,2.2l-0.4,3l0.3,2.1l-0.2,4.1l-2.3,0.3l0.3,3.9l-1.9,3l1.2,2.4
	l3.3-0.6l0.4-3.3l2.8-1.3l1.3,0.9l0.3,3.4l1.1,1.3l1.6-2.8l1.4-0.8l2.5,0.6l6.1,5.1l4.4,1.1l4.2,2.9l2.7,0.8l1.3,1.7l3.3,1.3
	l1.9,1.6l4.1-0.4l4.1,4.4l-0.2,5l5.9,3l2.2-0.3l5.4,1.9l-0.4,3.6l0.8,1.9l3.4,0.7l3.3,1.4l-0.4,1.4l-2.7-1.1l-2.5-0.2l0,1.6l3.2,0.1
	l0.7,7.6l-1.1,0l0.4,2.8l1.5,1.7l0.5,2.2l-1.9,0.9l-1.3-0.4l0,2.5l-1.8-0.3l-0.3-1.7l-2,0l-0.2-1.9l-1.9-0.2l-0.7,1.1l-2.9,1.9
	l-0.7,1.9l-2.1,0.8l-1.2-1.3l-3.2-0.7l1.1-5.8l0.9-3l-0.4-1.8l-2.1,0.8l-2.3-0.6l-2.1,0.4l-1.4,2.2l0.1,11.6l-2.5,0.2l-1.9-4.2
	l-1.2-1.7l-3.9-1.3l-6,2.2l0.5,1.7l3.3-0.3L370.2,282.4z"/>
<path id="D565" class="st0" d="M420.5,412l-0.8-0.6l-5.8-1.5l0.6-3.8l-2.9-0.9l-0.2-2.2l-1.1-1.5l-2.5-0.3l-0.4-2l-1.2-0.6l-3.5,0.6
	l-2.2-0.7l-1.4,4.6l-3.4-5.3l1-2.8l0.2-2.2l-1.6-1.6l-0.9-1.9l-1.2-0.1l-0.7-2.4l1.1-2.1l2.8,1l-0.4-2.8l-2.5-0.1l-0.1-1.3l-2.2-1
	l-4,0.1l-0.5-1.5l1-1.7l-2.1-1.9l-4.2,2l-1.9-0.9l-5.4,2.5l-1,1.3l-2.4,0.6l0.1-1.9l-2.2-1.6l-1.8,2.4l1.1,3.8l1.4,3.1l-0.6,2.4
	l-2.1,1.3l-2.1-2.4l-0.9,1.6l-0.3,4l-3,2.1l-1.1-1.2l1.5-2.3l0.2-1.6l-2.7-1.8l-1.7-2.3l1.8-4.6l1.9,0.2l1.4-1.2l0.4-2.4l-0.8-1
	l-2.4,0.5l-1-3.9l1.3-1.8l3.1,0.4l1.4-2.2l1.5-1.1l0.4-2.3l1.9-2.4l1.7-0.4l0.6-1.4l2,0.8l1.2-1.7l1.8-0.8l0.3-1.7l-1.9-2.2l1.5-3.5
	l2-0.9l1.4,0.4l2.1-1.6l3.8,1l2.4-1.4l3.2-1l0.6-2.5l1.5-1.1l2.2,0.5l0.3-1.9l1.9-1.9l3.4,0.2l-0.9,2.7l0.8,1.6l1.3-0.1l2.5-2.7
	l0.8-2.3l1.5-2l1.8-0.2l1.4-4.9l0.8-1.4l3.3,0.2l2-1.5l3.6-0.9l0.7,0.6l4.4-4.2l0.5-1l2.7-1.8l1.5-3l4.4-0.9l2.5-3.5l1.8-0.6
	l4.1-0.1l2.4-2.2l0.1-3.2l1.6-1.5l-0.1-5.5l0.4-1.4l1.6-1.4l1-2.2l3.4-3.6l0.7-3.6l5.5-7.5l2.1-2.5l3,0.6l-0.1,4.5l-1.2,2.7l0,2.7
	l2.2,0.4l0.6,1.3l-0.6,1.8l1.9,1.2l1.8,2l-0.7,3.4l-2.6-2.8l-1,1.2l-3.2,1.2l0.1,3.2l-0.4,2.2l0.4,5.2l-0.2,2.5l-2.3,0l-1.8-0.7
	l-0.1,1.6l1.9,2.4l0.8,1.9l1.6,1.3l0.1,3.4l1.2,1.8l-0.4,2.5l1.9,2.1l0.5,1.9l3.1-0.8l0.4,3.8l2.5,0.4l-0.6,3.5l-1.5,3.1l1.6,0.3
	l1.3,2.5l0.5,2.6l-1.3,6.2l-1.5,1.4l-0.2,2.6l-1.2,4l-2.1,0.6l-0.2,2.3l-2.9-0.6l0.4-2.4l-3.5,0l-2.6,1.7l-1.2-1.1l-2.8-0.7
	l-2.8,0.2l-1.2-2.8l-4.8-3.5l-1.9,2.6l0.9,4.9l-2.1,3.4l-1.9,0.1l-0.6-1.7l0.4-2.9l-2.3,0.2l0.1,1.2l-2.4,0l1.4,4.1l1.9,0.6l-0.2,3
	l-1.2,1.4l-2.9-1.3l0.3,2.6l1,2.4l1.5,0.3l1.2,2.7l0,2.3l1.8,1.3l-0.3,1.5l-2.5-0.4l-1.3,0.9l-1.4,3.3l-1.2,1.8l0.1,3.1l-1,2.1
	l-2.1,1.9l-1,3l1,0.8l-1,2.8l-1.7,1.4l-0.5,1.5l-2.5,2.8L420.5,412z"/>
<path id="D555" class="st0" d="M286.6,325.5l-3.3,0.2l-0.6,1.1l-2.8,0.9l-3,3.2l-3.5-4.5l-2.5-1.6l-1.5,1.6l-2.7,0.8l-0.9-1.8
	l-2.5,1l-0.9-1.3l-0.2-4.6l-2.6-2.4l-0.8,0.4l-2.7-3.7l-4.8-0.3l-0.1-2.2l-2.2-2.5l0.8-2.5l0.2-2.7l-0.9-3.8l-1.8-1.2l-0.6,1.6
	l-3.7-2l-0.2,1.8l-2.3,0.5l-2.3-0.8l-1.1-1.1l2.7-1.3l0.6-2.2l-0.5-2.2l1.9-1.2l0.6-1.5l2.2-0.1l1.1-0.8l0.5-2l1.7-0.2l-0.4,2.1
	l0.7,1.5l2.3-0.9l1.4,1.4l2.4-1.7l0.4-1.4l1.6,0.7l1.1-1l0.8-2.3l-0.5-1.6l1.4-3.5l-2.6-0.1l1.2-2.8l2.2,0.1l-0.6-2.7l3.3-5.1
	l1.1-3.3l0-1.6l1.1-2.4l0.3-2.4l-2.1-1l-2.2,0.8l-1.6,1.4l-1.4-2.5l2.5-3.2l2.3-2l2.3,0.9l1.9,1.5l0.6-2.5l-0.5-3l0.5-4l1.1-0.7
	l-0.7-2.4l0.4-1.2l-1.8-2.4l-4.7-1.1l-0.1-2.3l-2.3,0.5l-0.9-1.8l-1.3,0.6l-1.9,2.2l-0.6-1.4l1.5-1.2l-1.1-5l-0.8-1.3l1.4-4.8
	l-0.3-5.2l-1.3,0.2l-2.1-2.5l-0.4-3l-0.9-1.7l0-2.4l2.3,1.6l1.9-2.5l4.1,2.7l0.8-0.8l0.6-4.4l1.9-0.4l0.9-1.6l2.4-0.6l-0.6-4.9
	l1-0.8l1.4,3.4l4.3-0.6l-0.1,4.2l1.2,0.2l-0.4,3.1l1.1,0.8l3.3-1.6l1.8-1.4l0-2.3l1.7,0.4l2.3-1.4l-2.6-2.3l0.9-2.6l1.9-1.2l0.2-4.1
	l2.9-0.1l3.2-3.3l5.4-1.2l0.4-1.1l5.2,0.1l-0.6-1.6l-0.3-7.1l2.8-2.4l1.2,0.2l0.2-2.8l-1.1-0.1l-2-1.9l0.9-1.6l1.2,1.1l2.4,0.1
	l1.4-1.7l3.4,0.7l3.5-0.9l0,2.6l3.3,2.9l0.2,2l2.3,0.9l1.6-0.5l-0.7,2.8l3.6,0.1l0.8-2.2l2.1,0.2l1.1-1.4l0.7-2.7l-0.5-0.8l-0.1-4.5
	l4.6,0.1l-0.7,4l0.1,4.7l4.5,0.8l-1.3,5.3l0.8,4.7l-1.5,0.4l-0.3,4.5l-4.5-0.1l-1.3,0.3l-1.9,3.4l0.3,4.3l-0.8,3.2l-2.1-1.2
	l-4.5,1.6l-0.9,1.6l0.6,3.5l-0.6,2.1l-1.5,0.4l-1.1,1.6l-1.2,0l-1.6-4.9l-1.2-1.1l-0.4,2.8l-4.4,0.2l-1.1,3.1l0.2,5l1.6,0.2l0.8,2.5
	l3.8-0.4l-0.4,3.3l-2.9,1.7l0,5l0.6,1.9l2.2-1.2l1.3,0.6l3.6,0.2l-0.7,3.5l5.5,1.4l2.5,1.5l-0.3,2.6l0.8,2.8l2.1-0.2l1,1l0.8,2.9
	l-1.2,5.2l3.7,0.5l2.2-1.4l0.3,1.3l4.4,0.5l1.1,2.8l-0.2,2.3l-0.9,0.6l0.9,4.2l0.9,1l-0.4,3.1l0.4,1.1l-1.1,3.9l1.2,0.3l-0.2,2.5
	l1.3,0.8l0.4,7.1l-1.7,3.7l-1.7-0.4l0.9-6l-2.6,0.5l-1.2-0.5l-0.9,3.9l-4.6-0.6l0.1,4.5l0.9,0.2l-0.3,3.4l-1.6,0.4l-1.3-1.2l0.3,5.1
	l-0.4,3.9l-1.7,0.4l-1-3.3l-2.6-0.2l0,3.2l-2.4-1.2l-2.1,0.2l-2.7-1.2l-0.7,4.6l-1.2,0.5l-1.9-0.9l0.6-3.9l-2.6,0.1l-1.2,2.4
	l-3.6-0.7l-0.3,2.6l-2.4,0.3l-3.2-0.8l-0.9,1.3l-2.8,1l-0.1,3.3l-3.2,2.9l1.2,4.3l-2,1.9l-0.8,2.5l-1.2-1l-1.1-2.5l-1.5,0.5l1.3,2.8
	l-1.1,3.2L286.6,325.5z"/>
<path id="D583" class="st0" d="M482.5,573.2l-0.6-3.5l0.8-3.4l-1.5-0.8l0.2-5.6l-2.1-1.9l-1.4,0.3l0-2.2l-1.3-0.7l-2.5,0.4l-1.2-3.9
	l-0.8-3.8l-0.3-5.2l1.5,1l1.1-0.7l0-2.7l0.6-1.6l5.9,0l0.3-1.2l2-0.7l0.5-1.7l-0.2-3.3l0.4-3.9l1.1-1.8l-1-1.8l1.8-1.8l1-3l1.7,0.3
	l1.3,2.5l1.4,1l2-0.7l2.5,1.2l1.3,2.4l2.1-0.1l0.4,1.8l2.8-0.4l0.9-2l1.1,4l-0.2,1.6l1.4,1.1l0.5-1.8l1.7,1.4l-0.3,2.4l3,2l1.5-1.6
	l2.6-1.1l2.9,1.1l0.6,1.3l2.1,1.3l-1.3,6.5l0.9,1.2l3.8,1.8l0.6-1.7l2.4,2.1l1.2-1l3-0.5l-0.7,4.3l0.5,1.5L530,558l-2.6,0.9
	l-1.6,1.6l2.2,2.6l-1.2,2.6l-1.4-0.4l-0.7,4.3l-1.3,3.4l0.3,3.4l-2.5,1.9l1.6,1.1l-0.7,2.1l1.1,2.6l-2.5-0.1l-0.9-3.9l-1.2-1.3
	l-3.1-1.8l0.8-3.5l0.4-7.5l-0.9-0.4l-0.6-2.5l0.4-1.3l-0.5-2.5l-1.5-1l-0.7-2.6l-0.2-4.1l-3-0.4l-1.6,0.7l-1.1-1.6l-2.5-0.4
	l-1.6,1.6l-2.1-1.2l-1.7-3.1l-2,2.2l-0.7-1.5l-2.5,0.3l-0.2,2.6l-1.1,3.6L490,554l-0.9,1.7l-1,3.5l1.1,0.9l0.8,3.7l-2.1-0.3
	l-0.6,4.3l-1.6,1.3l0.5,2.2l-2.6,2.4L482.5,573.2z"/>
<path id="D572" class="st0" d="M502.8,605.4l-0.3-0.7l1.8-4.2l-1.6-1.3l-1.8,1.9l-1.1-3.1l1.4-2.2l1.7-1.5l-1.3-2.1l-0.7,1.8
	l-1.7-0.5l-2.4,3.9l-1.1-0.1l-2.2-1.9l0.2-5.2l-2-1.3l-0.6,1.1l-1.7-2.3l1.2-0.9l-1.9-3.7l-2.6,2.3l-0.9-1.8l-1.4,0.3l-0.8-4.2
	l0.5-2.9l-0.9-1l-0.2-2.7l1.1,0.4l2.6-2.4l-0.5-2.2l1.6-1.3l0.6-4.3l2.1,0.3l-0.8-3.7l-1.1-0.9l1-3.5l0.9-1.7l2.4,0.4l1.1-3.6
	l0.2-2.6l2.5-0.3l0.7,1.5l2-2.2l1.7,3.1l2.1,1.2l1.6-1.6l2.5,0.4l1.1,1.6l1.6-0.7l3,0.4l0.2,4.1l0.7,2.6l1.5,1l0.5,2.5l-0.4,1.3
	l0.6,2.5l0.9,0.4l-0.4,7.5l-0.8,3.5l3.1,1.8l1.2,1.3l0.9,3.9l-0.3,0.9l-2.9,2.2l1.3,0.8l-1,4l-1.2,2.2l1,1.5l-2,1.6l0.4,1.5l-1,2.8
	l-3.5,1.4l-0.6,2.3l-2.1,0.1l0.2-2.1l-1.2-0.3l-4.9,1.7L502.8,605.4z"/>
<path id="D558" class="st0" d="M434.4,95.3l0.1-2.6l1.9-4.3l0.1-3.8l1.5,0.6l2.8-2.1l0.9-2.7l-1.7-2.5l-2.2-0.6l0.2-4.2l1.9,0
	l0.7,2.2l2.1,0.9l0.4-1.5l3.5-1.5l2.1,0.5l2.4-4.5l0.5-4.9l-0.1-4.9l2.6-0.5l-0.2-4.5l1.4-1.5l-1.1-1.3l-2.3-0.6l1.6-3.9l0.8-3.1
	l2.8-0.2l0.5,2l2,0.4l0.7-2.1l1.3,1.1l0.6,2.1l3.9,0l0.6-1.5l-1.6-2.8l3.3-1.2l1.3-4.6l1.6-2.9l2.2,0.4l-0.8-3.5l1.1-0.1l1.3-3.2
	l1-6.5l5.6-3.1l0.9-1.6l1.3,2.5l1.7,0l0.4,3l2.3,0.3l0.6,2l-1.2,1.3l0.1,2.6l-2,1.8l-0.3,1.4l3.4,0.9l2.2-0.7l0,2.5l2.2,2.2l2-0.6
	l1.6-1.6l0.5-2.6l3.1,2.5l0.7-0.7l2.5,1.3l-2.3,3.8l0.9,2.4l-1.1,2.8l0.7,2.7l1.4,1l-0.3,2.4l0.3,4.4l-2.3,0.8l-1.6,2.3l0.6,1.9
	l4.1,1.7l1.7,2.6l1.3-0.1l0.5,2.4l-0.7,2.3l-1.8,0.2l-0.3,4.2l-2.4-0.5l0.6,2.9l-1.9,1.4l-1,3.6l-2.2,0.4l-1.6,4.5l1.4,0.3l2.4,1.9
	l0.6,1.4l-1.7,2.2l-3.4,1l-0.4,0.9l-2.4,0.8l-0.9,4.2l0.4,2.5l-0.8,2.9l0,2.3l-4.9,0.1l0-1.3l-2.1-0.5l-0.7,1.2l-3-0.8l-1.8-3
	l-3.5-0.5l-3,1.7l-2.7-1.3l-1.7-3.4l0.2-1.8l-1.4-0.5l-2.1,2.5l-2.5-1.1l-1.3,0.2l-3.3-2.8l-1.1,0.8l0,3.9l-1.6,1.3l-1.5,2.9
	l-1.5-0.9l0.7-1.8l-7-1.7l-5,0.5l-0.1-2l-2.7,0l-1.3,2.7l-1.4-0.6L434.4,95.3z"/>
<path id="D578" class="st0" d="M412.9,696.1l0.6-4.6l2.9,1.5l0.6-2.7l1.7-0.4l-0.1-3.8l3.3-1.2l1.6,1.5l0.2-3.4l1.4-3.2l-1.2-2.5
	l1.8-3.7l1.8-0.7l2.4,0.9l1.1-2.4l1.2-0.3l2.5,1.3l0.3,1.3l2.3-1.9l2.2,0.5l1.1,1.5l1.3-0.6l-0.5-2.2l2.2-1.8l0.2,1.7l1.3,1.3
	l1.5,0.1l1.8-1.6l1.5,1.7l2.6-3.1l-5.1-3l0.9-2.8l-0.7-3.2l-2-0.2l-1.1-1.1l0.7-2.8l2-1.3l0.2,2.9l1.6,2.1l2.3,0.6l1.8,1.6l1.6-1.3
	l1.4-3l0.5-3.6l2,4.1l1.2-0.5l0.8-2.9l1.5-0.4l1.8-1.7l1.4,0l1.9-1.9l0.1-1.9l-1.7-1.5l4.3-1.7l-0.3-5l6.3,0.2l1.7-0.6l2.4,1.5
	l1.5-0.9l1.3,2.5l4.4,0.5l1.7-0.9l1.1,0.6l1,3.2l1.8,0.6l0.8,1.1l-0.6,2.3l1.3,1.2l2.2,0.6l2.1-1.1l1.3,0.7l3.7-0.8l1.9,0.9l2-0.1
	l5.4,2.1l1,2l0.1,1.9l2,2l-1.6,4l-2,1.6l-2.4,4.4l-2,5.8l0.1,1.3l-2.1-0.1l-4.8,1.6l-1.9-0.7l-1.9,0.9l-2.5-0.8l-1.1,4.1l-1.7-0.1
	l0.2,5.2l-1.9,6.8l-1.4,1l-2.3-1.4l-2-0.2l-0.7,1.4l-1.5,0.5l-3.1-4l-0.5,0.9l-2.8-1.3l-1.1,1.9l-2.8,0.1l-4,1.1l-1.8,1l-1.3,3.9
	l-1.5-0.1l-2-3.4l-0.7-2l-2.8-2.6l-2.3,1.2l-1.2,2.6l-1.2-1.6l-3.4-0.2l-0.9,1.8l-0.5,4.2l-2.1,2.6l-1.8,5l0,2l1.6,2.8l-1.1,1.8
	l-1.5-1.3l-5-1l-9.6,0.3l-1.4,0.3l-4.1-1.3l-1-5.8l-2.8-2.8l-2.3,2l-1.7,2.3l-3.1-1l-0.6-1.9l0.1-2.4l1.2-1.5L412.9,696.1z"/>
<path id="D582" class="st0" d="M548.4,513.3l-0.3,1.8l0.6,2.5l-0.3,3.5l0.7,1.9l-0.4,1.8l-2.5,4l-2.2,0.5l-1.2,2.7l1.4,0.5l0.5,2.7
	l-1.2,1.6l-3,2.6l-2.1,0.6l-1.8,2.1l-2-0.3l-0.4-1.5l-1.7-0.6l-0.6,1.7l-3.4,1.5l-0.9,3.3l-1.2,1l-2.4-2.1l-0.6,1.7l-3.8-1.8
	l-0.9-1.2l1.3-6.5l-2.1-1.3l-0.6-1.3l-2.9-1.1L512,535l-1.5,1.6l-3-2l0.3-2.4l-1.7-1.4l-0.5,1.8l-1.4-1.1l0.2-1.6l-1.1-4l-0.9,2
	l-2.8,0.4l-0.4-1.8l-2.1,0.1l-1.3-2.4l-2.5-1.2l-2,0.7l-1.4-1l-1.3-2.5l-1.7-0.3l0.5-3.3l-0.7-1.2l-0.1-2.7l-1.4-2.2l-0.2-2l1.6-4.8
	l1.4-1.2l2.5,0l1.6-1.1l2-0.2l0.2-2.6l1.8-0.1l1.4,1.7l0.5-1.9l-0.6-3.7l1.5,0l0.7,2.4l2.5-1l1.1-1.3l1.5,1.5l-0.1-3.2l2.6-1.6
	l1.6-0.2l-0.1,2.6l2.1-0.9l1.2,2.4l0.1-5.4l1.2-1.1l3.1-0.7l0.4-2.4l2.2-0.9l1.9-2l-0.5-2.9l-1.1-2.9l0.6-1.4l3.7,0.4l1.9-0.4l0.2,2
	l1.7,1.4l3-3.1l0.8-2.2l1.3,0.2L532,476l0.3,3.1l-2.2,0.9l-0.6,1.4l0.5,4.7l1.3,0.5l1.5-4.2l4,0.9l0.3-3.4l2.3,1.5l0.3,1.7l2.4,0.1
	l0.9,3.2l-0.7,1.8l0.8,2.7l-2.5,4.4l1.9,2.4l-0.3,2.6l-1.5,0.4l-1.6-0.8l0.1,2.4l1.1,1.4l2.1,0.3l3-0.3l1,0.5l0.1,2.2l2.5,0.7l0,2.2
	l-1.1,1.6L548.4,513.3z"/>
<path id="D570" class="st0" d="M348.1,578.9l-0.2-3l-3-3.6l1.2-2l-0.8-2.9l0.4-2l-1-2.1l-1.9-2.4l-4-2.8l-1.7,0.4l-0.1-3.2l-0.9-1.8
	l-1.6-1.6l-1.9-0.2l-1.7,1.3l-0.4,2.3l-1.1,1.6l-4.3,0.3l-3.3-3l-0.8-2.1l-1.8-2.4l-1.9-6.8l-1-2.1l-1.8,0.5l-0.7-1.1l-1.9-5
	l0.8-1.8l1.6,0.4l1.1-1.1l0.4-2.3l1.4-2.9l0.3-2.8l-1.1-1.4l-0.2-1.1l2.5-3.2l2.5-0.6l1.6-1.5l0.1-4.3l-1.1-1.5l0.8-1.9l1.6-0.1
	l2.5,4.2l1.4-2.1l2.3-0.9l1.2,0.6l2.8-3l2.1-1.6l0.6-2.2l-1.6-4.7l4.7-2.4l0.5-1.9l2-1.8l2.2,0.7l1.4,2.2l2.1-1l1-1.7l2.2-0.2
	l1.6,2.8l-0.3,2.9l1.5,0.1l0.6-1.3l1.5-0.2l-0.9-2.1l0.8-2.2l4.8-0.6l2.1-2.4l1.3,0.4l2.2-0.5l1.4-2.3l5.4,1.2l3.6-0.7l0.5-2
	l1.6-2.2l1.4,0.8l1.5-2l1.7-0.2l0.2-2.7l1.2-0.4l0.5,1.9l1.8,0.2l1.4,1.5l1.3,5.3l1.1-0.1l0.2,2.6l1.3,5.8l1.7,1.6l3.5,0.3l0.2,3.3
	l1,0.1l2.3,3.1l1.6,0.2l-0.5,4.1l1.8,1.8l2.3-0.6l1.5,1.7l0.8,3.2l-0.1,1.6l-1.7,1.7l-1.8-2.1l-1.9,3l-4.1-0.3l-0.5,4l-5.2-0.3
	l-1.5,3.5l-0.1,2.9l-3.8,1.5l-0.1,2.1l-2.5-0.8l-1.1,0.8l-0.6,2.5l0.8,7.6l-0.3,2.6l-1.8-1.3l-2.3-0.2l-3.7,0.6l-3-0.9l-4.6,1.4
	l-2-0.3l0,3.6l-2.2,0.9l-2-0.5l-1.8,3.3l0.5,2.9l1.3,1.4l-1.4,1.7l-0.4,3.2l1,2.2l-0.2,3.9l-1,0.7l-1.2-1.2l-4.9,0.4l-3.2,6.3
	l-0.4,2.6l-1.6,0.5L348.1,578.9z"/>
<path id="D566" class="st0" d="M408.5,511.8l-1.5-1.7l-2.3,0.6l-1.8-1.8l0.5-4.1l-1.6-0.2l-2.3-3.1l-1-0.1l-0.2-3.3l-3.5-0.3
	l-1.7-1.6l-1.3-5.8l-0.2-2.6l-1.1,0.1l-1.3-5.3l-1.4-1.5l-1.8-0.2l-0.5-1.9l-1.2,0.4l-0.2-2l1.2-2.5l1.6-0.1l0.3-3.9l-2.1-0.6
	l0.4-3.9l-0.1-2.8l0.6-2l-2.3-3.6l0.6-2.6l2.1-2.6l0-6.2l1.4-2.4l2.9-0.4l1.1-0.7l-1.6-6.2l0.7-0.7l2.8,0.2l-0.4-4.5l0.4-2l-0.4-2.3
	l-1.1-2l2.6-2l0.3-1.2l2.2,0l1,1.5l1.6-0.5l1.7,0.6l1.3,3.7l4.1-0.1l1.3-1.2l2.6-0.2l3.3-2.8l2.5-0.3l0-5.1l1.8-0.2l3.8-3.3
	l-1.7-2.6l2-0.4l2.5-2.8l0.5-1.5l1.7-1.4l1-2.8l-1-0.8l1-3l2.1-1.9l1-2.1l-0.1-3.1l1.2-1.8l1.4-3.3l1.3-0.9l2.5,0.4l0.3-1.5
	l-1.8-1.3l0-2.3l-1.2-2.7l-1.5-0.3l-1-2.4l-0.3-2.6l2.9,1.3l1.2-1.4l0.2-3l-1.9-0.6l-1.4-4.1l2.4,0l-0.1-1.2l2.3-0.2l-0.4,2.9
	l0.6,1.7l1.9-0.1l0.5,1.3l5.9,0.9l1.8-0.3l-0.3,7.4l-1.1,0.1l0.4,2.8l-0.9,3.3l-0.5,4.6l-4.1,0.6l1.3,4.5l-2,6.2l-0.8,7.9l1.3,1.7
	l1.6,5.2l3.4,1.9l1.5,3.5l1.3,0.4l2-1.4l5.1,0.6l-1.1,3.3l-1.1,0l-0.2,4.6l-2.2-1.4l-2.3,2.4l-0.3,3.9l1.5,3.3l3.3,1.4l0.1,2.4
	l-1.4,1l1,3.3l1,0.6l2.4-0.4l1.6,0.7l-0.4,4l1.6,2l-4.7-0.3l-3.1,1.8l-2-0.1l-0.6,2.8l2.2,0.9l0.8-0.7l1.6,1.7l0.3,2.7l-1.3,1.2
	l-0.6,2.2l-1.2-0.3l-1.4,1.4l-0.7,3l-0.9,0.8l-2.5-0.6l-1,2.1l1.8,1.6l0,1.6l-2,1.4l-0.7,3.3l-2.5-0.7l-2.1,0.5l0.1,1.2l-2.4,1.3
	l2.7,5.5l0.6,0.5l0.2,3.7l-0.4,2.1l-2.1-0.4l-0.8-1.3l-2.1,2.7L434,495l-0.2,5.6l-2-3.3l-2.2,0.7l-1.3-0.9l-3,1l0.4,2.6l-2.3,1.5
	l-2.8,4.4l-3.9,1.2l0,2l-1.6,0.4l-2.3,1.4l-2.6-1.3L408.5,511.8z"/>
<path id="D575" class="st0" d="M289.2,559.7L289.2,559.7l0.2,0l0.3,0l0.8-1.3l2.8-1l2.4,0l0.8,2.9l1.3,0.2l-0.4,5.2l3.7,1.2l0,1.7
	l2.2,0.1l1-1.4l1.6,1.5l-0.7,2.4l1.8,0.5l1.2-1.4l0-1.9l1.3-0.5l2.2-2.5l1.7-4.6l1.4-1.8l0.9-2.6l2.4,0.1l2.9-4.6l0.8,2.1l3.3,3
	l4.3-0.3l1.1-1.6l0.4-2.3l1.7-1.3l1.9,0.2l1.6,1.6l0.9,1.8l0.1,3.2l1.7-0.4l4,2.8l1.9,2.4l1,2.1l-0.4,2l0.8,2.9l-1.2,2l3,3.6l0.2,3
	l0.6,4.2l2.4-0.3l2.1,2l-0.7,6l0.6,0.3l1.5,3.5l1.3,1.1l-0.7,3.1l-1.8,1.3l0.8,1.2l2.6-0.4l-1.8,3.4l-0.4,3.7l0.9,0.8l1.4,6.8
	l-2.1,1.7l-2,2.8l-0.9-0.2l-1-2.5l-2.7,3.7l-2.2,0.3l-2.5,1.5l-0.4,2.2l-2-1.2l0.5-2.6l-2.7-3.1l-1.5,2.7l-2.5,0.5l-0.7,2.3
	l-2.4,1.3l-0.5-3.5l-2.3-0.7l0-2l-1.8-0.1l-0.8-3.6l1.6-2.2l1.9,0.6l-1.1-3.1l-1.9-1.3l-2.9,4.8l-1.8-0.9l-1-5.2l-1.4-0.2l-2.1,0.8
	l-0.3-2.3l0.8-2.2l-1.3-0.9l-2.4-0.3l-0.6-1.6l-1.5,0.2l-0.1,2.4l-1,0.9l-1.7-0.2l-0.2-2.8l0.4-2.8l-3.5,0.1l-0.9-2.5l1.3-2.3
	l-0.3-2.5l-2.6,1.3l-1.3-0.7l-4.5,2.3l-2.1,0.2l-1.7-4.4l-1.2-5l-0.6-0.6l-1.8-12.2l-1.4-8.2l0.2-1l-0.3-1.5l0.3-1l-0.2-0.5
	L289.2,559.7z"/>
<path id="D567" class="st0" d="M351.9,493.1l-0.1-6.1l0.5-2.3l1.6-0.7l1.5-1.7l1.8-4.5l2.8-0.4l-0.3-2.9l-2-3.5l-0.7-3.3l0.7-2.2
	l1.6-2.1l1.8-0.1l-0.3-2.1l-4,0.9l-2.6-1.3l-1.4,0.3l-0.4,1.7l-2,0.2l-5.3-4l-3.3-0.5l-1.6,0.6l-3.9-2l0.1-1l1.9-2.4l2.7-2.6
	l1.9-0.1l-2.4-3l1.9-1.1l2.2-0.2l1.6,0.7l-0.1-4.4l0.7-2.4l3.3,0.1l1.8-1.7l0.5-2.1l1.8,0.1l-0.8-2.4l0.1-2.9l1.1-4.1l0.3-2.5
	l-0.9-1.2l0.5-2.2l2.6,0.4l1.3-3l1.5,1.7l1-0.3l2.5-3.7l1.4-0.4l1.7,0.9l0.1-2.4l1.6-3l-1-3.8l0.5-5.3l-1.4-3.1l-1.7,0.8l-2.4-1.1
	l0.3-1.9l1.3-1.5l-0.3-2.1l0.3-4l0.9-1.6l2.1,2.4l2.1-1.3l0.6-2.4l-1.4-3.1l-1.1-3.8l1.8-2.4l2.2,1.6l-0.1,1.9l2.4-0.6l1-1.3
	l5.4-2.5l1.9,0.9l4.2-2l2.1,1.9l-1,1.7l0.5,1.5l4-0.1l2.2,1l0.1,1.3l2.5,0.1l0.4,2.8l-2.8-1l-1.1,2.1l0.7,2.4l1.2,0.1l0.9,1.9
	l1.6,1.6L397,395l-1,2.8l3.4,5.3l1.4-4.6l2.2,0.7l3.5-0.6l1.2,0.6l0.4,2l2.5,0.3l1.1,1.5l0.2,2.2l2.9,0.9l-0.6,3.8l5.8,1.5l0.8,0.6
	l1.7,2.6l-3.8,3.3l-1.8,0.2l0,5.1l-2.5,0.3l-3.3,2.8l-2.6,0.2l-1.3,1.2l-4.1,0.1l-1.3-3.7l-1.7-0.6l-1.6,0.5l-1-1.5l-2.2,0l-0.3,1.2
	l-2.6,2l1.1,2l0.4,2.3l-0.4,2l0.4,4.5l-2.8-0.2l-0.7,0.7l1.6,6.2l-1.1,0.7l-2.9,0.4l-1.4,2.4l0,6.2l-2.1,2.6l-0.6,2.6l2.3,3.6
	l-0.6,2l0.1,2.8l-0.4,3.9l2.1,0.6l-0.3,3.9l-1.6,0.1l-1.2,2.5l0.2,2l-0.2,2.7l-1.7,0.2l-1.5,2l-1.4-0.8l-1.6,2.2l-0.5,2l-3.6,0.7
	l-5.4-1.2l-1.4,2.3l-2.2,0.5l-1.3-0.4l-2.1,2.4l-4.8,0.6l-0.8,2.2l0.9,2.1l-1.5,0.2l-0.6,1.3l-1.5-0.1l0.3-2.9L351.9,493.1z"/>
<path id="D562" class="st0" d="M312.3,359.9l-1.9-0.8l-2.5,1.2l-6.2,0.3l0,1.5l-3.5,0.7l-0.9-4l0.1-1.6l-1.8-0.4l-1.2-2.3l-1.1-0.7
	l1.6-3.6l2-2.4l-0.3-2l2.7-3.8l-0.8-4.9l-3-3.1l-2.5-1.4l-0.4-4.1l-1.7,0.7l-1.3-1.7l-3-1.8l-0.9-1.8l1.1-3.2l-1.3-2.8l1.5-0.5
	l1.1,2.5l1.2,1l0.8-2.5l2-1.9l-1.2-4.3l3.2-2.9l0.1-3.3l2.8-1l0.9-1.3l3.2,0.8l2.4-0.3l0.3-2.6l3.6,0.7l1.2-2.4l2.6-0.1l-0.6,3.9
	l1.9,0.9l1.2-0.5l0.7-4.6l2.7,1.2l2.1-0.2l2.4,1.2l0-3.2l2.6,0.2l1,3.3l1.7-0.4l0.4-3.9l1.3-0.2l1.3,1.2l1.8,0.5l0,2.7l1.8,0.2
	l0.3-2.3l3.7,1.3l1-1.5l3.1-1.2l0.3-1.9l1.4-0.1l1.1,5.5l4,0.1l-0.4,3.2l-1.2,2.6l-0.3,5.3l-3.5,0.8l-0.7,1l-0.3,2.8l1.2,0.5
	l0.5,1.8l0.3,4.6l-0.4,5.4l-1.8-1.4l-1.8,0.1l1,3.7l-0.7,2l0.1,2.8l-2.7,0.1l-0.8,2.8l1,1.2l0.5,3.7l1.2-0.2l0.5,1.9l-1.1,1l-2.5,0
	l0,2.5l0.9,1.1l0.3,2.1l1.3,3.7l-1.3,2l0,2.7l-3.8,1.3l-2-1.8l-0.3-9.6l-2.2,0.5l0.1,1.5l-6.3,4.1l-2.7,0.3l-3.7-0.3l-0.3-1.7
	l1.3-2.8l-3.6,0.7l0.5,2.3l-2.6,0.6L312.3,359.9z"/>
<path id="D561" class="st0" d="M337.8,361.2l0-2.7l1.3-2l-1.3-3.7l-0.3-2.1l-0.9-1.1l0-2.5l2.5,0l1.1-1l-0.5-1.9l-1.2,0.2l-0.5-3.7
	l-1-1.2l0.8-2.8l2.7-0.1l-0.1-2.8l0.7-2l-1-3.7l1.8-0.1l1.8,1.4l0.4-5.4l-0.3-4.6l-0.5-1.8l-1.2-0.5l0.3-2.8l0.7-1l3.5-0.8l0.3-5.3
	l1.2-2.6l0.4-3.2l-4-0.1l-1.1-5.5l-1.4,0.1l-0.3,1.9l-3.1,1.2l-1,1.5l-3.7-1.3l-0.3,2.3l-1.8-0.2l0-2.7l-1.8-0.5l-1.3-1.2l-1.3,0.2
	l-0.3-5.1l1.3,1.2l1.6-0.4l0.3-3.4l-0.9-0.2l-0.1-4.5l4.6,0.6l0.9-3.9l1.2,0.5l2.6-0.5l-0.9,6l1.7,0.4l1.7-3.7l-0.4-7.1l1.6,1.4
	l1.8,0.3l1.6,2.8l1.4,1l6.1-0.3l2.8,0.8l0.5-1l2.4,1.1l1.2-0.3l2.6,1.5l2.6-0.4l-0.1-3.3l2.3,0l2.8,1.3l2.3,1.1l3.9,3.4l2.7,0.9
	l2-1.8l0.5,2.2l1.1-0.2l2.2,1.4l0.5,4.4l-1.6,1.5l-1.4-0.7l-1.8,2.6l2.2,2.8l-3.3-0.1l-1.8-1.3l-0.3-1.6l-1.9-0.8l0.4-2.7l-1.8-2.2
	l-0.7,3.1l-1.3,0.4l0.1,4.3l1.1,0.2l0,3.7l1,2.8l-2.4,1.2l0,3.4l-0.6,4.8l-3.2,0.6l-0.6,3.3l1.1,2.6l2.6,0.6l0.5,3.7l2.9,0.5l-0.1,5
	l-0.8,1.9l-0.2,4.7l1.1,5.1l0.6-0.1l1,5.8l1.7,1.6l0.1,2.9l-1.4-0.4l-2,0.9l-1.5,3.5l1.9,2.2l-0.3,1.7l-1.8,0.8l-1.2,1.7l-2-0.8
	l-0.6,1.4l-1.7,0.4l-1.9,2.4l-0.4,2.3l-1.5,1.1l-1.4,2.2l-3.1-0.4l-0.8-2.6l-1.6-1.2l-2.8,0.1l-1.7,1.3l-0.8,1.8l-2.4-2.3l-1.9,0
	l-0.4-4.9l-3-2l-2.7,0.4l-0.8-1.7L337.8,361.2z"/>
<path id="D574" class="st0" d="M383.2,614.3l-1.7-1.7L380,615l-0.9,0.1l-1.8-4.4l0.5-2.4l-0.8-1.9l2.1-5.7l-1.7-1.6l-0.6-1.8
	l0.2-2.8l1-0.2l1.3-3.3l-3.2-2.3l-1.7,0.3l-2.2-1.6l-0.9,1.2l0,2.3l0.7,1.8l-1.5,3l0.2,2.8l2.3,1.8v2.9l-3.6,0.8l-2.1-3.2l-2.6,1.2
	l-1.2,1.4l-2.3-2.5l-1.9-0.9l-2.6,0.8l-2.6,0.4l-0.8-1.2l1.8-1.3l0.7-3.1l-1.3-1.1L353,591l-0.6-0.3l0.7-6l-2.1-2l-2.4,0.3l-0.6-4.2
	l1.5-2.4l1.6-0.5l0.4-2.6l3.2-6.3l4.9-0.4l1.2,1.2l1-0.7l0.2-3.9l-1-2.2l0.4-3.2l1.4-1.7l-1.3-1.4l-0.5-2.9l1.8-3.3l2,0.5l2.2-0.9
	l0-3.6l2,0.3l4.6-1.4l3,0.9l3.7-0.6l2.3,0.2l1.8,1.3l0.3-2.6l-0.8-7.6l0.6-2.5l1.1-0.8l2.5,0.8l0.1-2.1l3.8-1.5l0.1-2.9l1.5-3.5
	l5.2,0.3l0.5-4l4.1,0.3l1.9-3l1.8,2.1l1.7-1.7l0.1-1.6l2.8,2.2l1.9,0.1l-2.2,3.3l1.3,1.4l-0.5,1.9l0.8,1.2l-1.3,2.8l-0.6,3.4
	l-0.9,2.3l-2.7,0.4l0.4,3.6l-0.3,2.3l0.6,1.6l0,3.6l1.8,1.9l-0.6,3.3l1.7,0.2l2.4,1.3l1.9,2.1l0.3,1.8l1.4,0.5l-0.6,4.6l2.4,1.1
	l1.3,1.6l1.2-0.9l6.4,1.4l-1,2.1l0.4,3.4l1.8,0.3l0,3.4l-2,3.5l-0.6,2l0.3,1.5l-1.4,3l-0.4,2.5l-4.1,0.7l-2.2,3.4l0.1,2.1l-1.2,1.5
	l-0.6-2.3l-1.8-2.8l-1.4-0.3l-1.2-2.1l-1.6,0l-1.5,2.5l-2.4,0.8l-0.5,1.5l1,3.3l0.9,1.3l-1,2.1l1.5,2.2l-0.2,2.1l-1.3,3.4l-2.5,3.6
	L402,609l-3.1-2.5l-1.4,1.4l-1.2,5.6l-1.9-0.5l-1.1,3.5l-1.6,1.9l-2.4-0.3l-2.4-2.6l-1.3-0.2l-0.2-1.7L383.2,614.3z"/>
<path id="D564" class="st0" d="M346.6,440.4l-1.2-2.4l-1.3-0.6l-0.2-3.7l-1.4,0.3l-0.3,2.4l-3.7-3.2l-1.3-0.2l-1.5-1.5l-1.6-0.4
	l-1.6-1.8l0.6-1.8l1.6-0.4l0.2-2.2l-1.4-0.7l-1.4,0.4l0.2-4.9l-2-2.9l-3.3,0.1l-0.5-1.6l2.1-1.3l-2.4-4.1l-2.6-0.2l-1.6,0.7
	l-0.1-4.1l-3-1.9l-1.7,1.4l-3.2-2.9l-2-0.5l-1.8,0.5l-1.4-2.4l0-3.5l1.2-4l-0.4-2.2l2.2-1.1l0.3-7l-0.4-6.9l2.5-0.8L314,372
	l-1.1-0.1l-1.3-6l0.9-5.7l-0.1-3.7l2.6-0.6l-0.5-2.3l3.6-0.7l-1.3,2.8l0.3,1.7l3.7,0.3l2.7-0.3l6.3-4.1l-0.1-1.5l2.1-0.5l0.3,9.5
	l2,1.8l3.8-1.3l2.5,0l0.8,1.7l2.7-0.4l3,2l0.4,4.9l1.9,0l2.4,2.3l0.8-1.7l1.7-1.3l2.8-0.1l1.6,1.2l0.8,2.6l-1.3,1.8l0.9,3.8l2.4-0.5
	l0.8,1l-0.4,2.4l-1.4,1.2l-1.9-0.2l-1.8,4.6l1.7,2.3l2.7,1.8l-0.2,1.6l-1.5,2.3l1.1,1.2l3-2l0.3,2.1l-1.3,1.4l-0.3,1.9l2.3,1.1
	l1.7-0.8l1.4,3.1l-0.5,5.2l1,3.8l-1.6,3l-0.1,2.4l-1.7-0.9l-1.4,0.4l-2.5,3.7l-1,0.3l-1.5-1.7l-1.3,3l-2.6-0.4l-0.5,2.1l0.9,1.2
	l-0.3,2.5l-1.1,4l-0.1,2.9l0.8,2.3l-1.7-0.1l-0.5,2.1l-1.7,1.7L346.6,440.4z"/>
<path id="D579" class="st0" d="M416.8,193.9l-3-0.5l1.5-2.7l-0.4-2.2l-4.8-0.5l0.5-3.4l2.7-1.2l-4.5-0.6l0.3-2l1.3-2.1l4.1,1.1
	l0.1,1.1l2.3,0.5l0.6-0.6l-0.8-2.7l-1.6-0.2l-0.2-3.1l2.1-0.1l-0.2-2.6l-1.7-1.7l-1.3,1.5l-1.4-0.8l0-4.2l2.6-0.4l0.2-2.7l-0.6-2.2
	l0-7.2l-2.4,2.8l-0.9-0.3l-0.2-2.5l-1.6-1.8l0.2-6l-0.8-1l-2.4,1.8l-3.1,0.3l-2.1,1.9l-0.8-0.2l-1.9-3.6l-1.9,0.1l-1.3-1l-0.8-1.8
	l-3.2-3.4l-2.6-1.2l0.6-2.8l-0.6-1.4l-1.8-1.2l0.5-2.5l2.2-3l1.5-0.4l3.2,2.6l1.5-1.6l3.5-0.7l3.1,0.7l0.4,2.6l3.1,0.1l-0.3-1.4
	l2.3-0.7l0.7,4l2.2-0.1l0.9-2.5l1.3-1.2l-0.2-2.2l-3.5-0.6l0.8-6l-3,0.2l-0.2-3.7l1.5-0.3l-0.3-4l1.5-0.5l-0.4-2l-1.6-0.6l-0.6-5.3
	l6.4-0.9l1-4.1l4.3-2.6l0.1-4.4l2.8-0.2l0-4.4l2.7-0.4l0.6,2.4l0.1,3.7l1.3-0.4l0.9-2l0.4-2.8l1.7,0l0.3,2.7l1.9,1.3l0.6,2.9
	l2.1,0.8l0.5,3.7l1.4,0.6l1.3-2.7l2.7,0l0.1,2l5-0.5l7,1.7l-0.7,1.8l1.5,0.9l1.5-2.9l1.6-1.3l0-3.9l1.1-0.8l3.3,2.8l1.3-0.2l2.5,1.1
	l2.1-2.5l1.4,0.5l-0.2,1.8l1.7,3.4l2.7,1.3l3-1.7l3.5,0.5l1.8,3l3,0.8l0.7-1.2l2.1,0.5l0,1.3l4.9-0.1l3.8,1.5l0.9,2.6l2-3.3l1.6,2.4
	l2.8-0.9l0.5,2.6l2.2,1.1l2.7,0.1l2.4,2.3l-0.3,2.6l-2.7-0.8l-2.8,1.1l0,2.6l-2.8-1l0,2.5l-3-1.2l-1.8,1.4l0,1.5l1.7,1.4l-0.9,1.3
	l0,2.5l-2.9,0.8l-0.6-1.4l-1.8-0.2l0.4,2.6l-0.5,3.1L491,135l1.6,1.3l-5.6,5.7l1,0.8l-0.1,1.9l-1.6,0.2l-0.8,2.9l1.2,2.4l2.1,1.5
	l4.5,1.9l1.2,4.4l1.2,2.8l0.5,2.6l-1.6,1.7l0.1,2.3l-1.1,1.6l0.3,3.6l-0.9,1.3l-0.3,2.3l-3.3,0.9l-4.5-3.5l-0.9-2l-5.7,0.2l-3.8-1.4
	l-1.4,1.6l-2-1.1l-0.6,2.4l-2.7-0.2l-1.1,1l-1.6-0.1l-0.3-2.4l-1.1-2.2l-2.2,2.4l-1.9,0.4l-0.2,2.7l1.2,0.6l0.6,2.4l-2.4,0.9
	l-2.2-0.2l0.3,2.2l1.1,2.7l-1.5,0.2l-2.7-1.9l-2.8,0.7l-0.4-3.3l1.3-1.2l-1.3-1.4l-0.1-1.5l-3.2,0.1l-1.5,2.6l-3.9,2.9l-2-0.4
	l-1.2,2.7l-0.1,4.9l-2.5-2.3l-2.3,0.8l-0.3,1.9l-1.7,1.2l0.4,4.1l-1.9-1.3l0.1-2.2l-0.8-1.8l-3.2-0.1l-2.7,1.9l-2.2-0.4L420,191
	l0,1.6l-1.8,1.3L416.8,193.9z"/>
<path id="D576" class="st0" d="M390.1,674.1l-2.7,0.9l-3.3,2.9l-4.1,0.8l-2.1-0.9l-1.3,0.3l-4.1-1l-2-1.7l-2-2.8l0.2-1.9l-2.1-2.8
	l-0.4-4.5l-2.5-0.4l-3.5,1.7l-2.5-4.1l-1.3,1.2l-1.5-1.6l-1-3.7l-1.4-0.7l-3.1-0.2l-3.3-4.9l0.4-1.2l-2.6-5.3l-1.6-2.3l-4-0.6
	l-1.6-5l0.9-2.6l-3.3-2l-1-2.1l0.1-4.5l2.8,0.4l1.6-1.9l-0.7-3.1l1.5-2.7l2.7,3.1l-0.5,2.6l2,1.2l0.4-2.2l2.5-1.5l2.2-0.3l2.7-3.7
	l1,2.5l0.9,0.2l2-2.8l2.1-1.7l-1.4-6.8l-0.9-0.8l0.4-3.7l1.8-3.4l2.6-0.8l1.9,0.9l2.3,2.5l1.2-1.4l2.6-1.2l2.1,3.2l3.6-0.8v-2.9
	l-2.3-1.8l-0.2-2.8l1.5-3l-0.7-1.8l0-2.3l0.9-1.2l2.2,1.6l1.7-0.3l3.2,2.3l-1.3,3.3l-1,0.2l-0.2,2.8l0.6,1.8l1.7,1.6l-2.1,5.7
	l0.8,1.9l-0.5,2.4l1.8,4.4l0.9-0.1l1.4-2.4l1.7,1.7l-2.4,3.1l-1.9,3.3l-0.1,1.7l0.8,3.5l-3.2,1.5l-1.5,3.6l3.8,5.8l2.9,2l0,2
	l1.2,1.7l0.6,3.8l3,0.2l3,5.2l2.4,0.6l0.8,3.7l2,3.9l0.7,5l0.7,1.7l-0.8,2.6l-1.2,0.4l-2.6,3.9L390.1,674.1z"/>
<path id="D581" class="st0" d="M523.3,584.2l-1.1-2.6l0.7-2.1l-1.6-1.1l2.5-1.9l-0.3-3.4l1.3-3.4l0.7-4.3l1.4,0.4l1.2-2.6l-2.2-2.6
	l1.6-1.6l2.6-0.9l0.4-6.2l-0.5-1.5l0.7-4.3l-3,0.5l0.9-3.3l3.4-1.5l0.6-1.7l1.7,0.6l0.4,1.5l2,0.3l1.8-2.1l2.1-0.6l3-2.6l1.2-1.6
	l-0.5-2.7l-1.4-0.5l1.2-2.7l2.2-0.5l2.5-4l0.4-1.8l-0.7-1.9l0.3-3.5l-0.6-2.5l0.3-1.8l1.5-2.6l1.5-0.5l1.7,1.3l4.8-0.9l2.4,0.6
	l2.8-0.4l1.3,1.5l-2.3,7.2l-0.4,4.4l0.7,6.2l-1.2,3.6l3.2,2.3l-0.5,2.9l2.9-1.4l0.5,1.9l2.3-1.2l0.3,1.6l2.4,1.7l1.5,2.2l0.6-2.1
	l2.9,0.4l0.8,1l-1.3,2.9l-0.5,4.5l1.2,3.3l-2.3,0.5l-0.3,2.1l-2,1.1l0.4,3.5l-1.2,1.5l0.5,1.7l-4,2.2l-0.1,1.7l0.8,3.6l-0.3,1.6
	l-2.7-0.5l-0.1,4.6l1.1,2.3l-1.4,1.2l-2.2-1.7l-0.8,1l-2.5-3.3l-1.4,3.9l-0.8-0.3l-0.9,2.7l-0.1,1.9l-3.1-1l-1.6,0.9l0.1,3.6
	l-0.9,5.1l-0.7,1l-4.1-1.3L546,594l-2.8-1l-0.5-1.7l-2.1-1.6l-1.7-2.7l-3.2-1.1l-2.2,2.8l-0.9,0.3l-1.8-2.6l-1.4,0.7l-0.5,1.7
	l-1.8-0.9l0.5-2.3l0.9-0.6l-1-2.3L523.3,584.2z"/>
<path id="D560" class="st0" d="M378.1,353.5l-0.1-2.9l-1.7-1.6l-1-5.8l-0.6,0.1l-1.1-5.1l0.2-4.7l0.8-1.9l0.1-5l-2.9-0.5l-0.5-3.7
	l-2.6-0.6l-1.1-2.6l0.6-3.3l3.2-0.6l0.6-4.8l0-3.4l2.4-1.2l-1-2.8l0-3.7l-1.1-0.2l-0.1-4.3l1.3-0.4l0.7-3.1l1.8,2.2l-0.4,2.7
	l1.9,0.8l0.3,1.6l1.8,1.3l3.3,0.1l-2.2-2.8l1.8-2.6l1.4,0.7l1.6-1.5l-0.5-4.4l-2.2-1.4l-1.1,0.2l-0.5-2.2l-2,1.8l-2.7-0.9l-3.9-3.4
	l-2.3-1.1l-1.6-6.4l-3.3,0.3l-0.5-1.7l6-2.2l3.9,1.3l1.2,1.7l1.9,4.2l2.5-0.2l-0.1-11.6l1.4-2.2l2.1-0.4l2.3,0.6l2.1-0.8l0.4,1.8
	l-0.9,3l-1.1,5.8l3.2,0.7l1.2,1.3l2.1-0.8l0.7-1.9l2.9-1.9l0.7-1.1l1.9,0.2l0.2,1.9l2,0l0.3,1.7l1.8,0.3l1.8,1l3.6-1.4l2.9,0.5
	l2.5,1.4l-0.5,2.3l2.2,1.4l-0.5,2.7l-2.4,2.3l2.1,1.8l0.3,4.9l3,2.3l2.2-0.2l1.5,1.6l2.2-0.6l2,0.9l0.9,2.4l4.1,0.8l2.9,2l0.2,2.3
	l-1,1.6l0.7,1.2l4.4,0.4l0.7,2.2l1.4,1.2l2.9,1.1l-0.1,3.2l-2.4,2.2l-4.1,0.1l-1.8,0.6l-2.5,3.5l-4.4,0.9l-1.5,3l-2.7,1.8l-0.5,1
	l-4.4,4.2l-0.7-0.6l-3.6,0.9l-2,1.5l-3.3-0.2l-0.8,1.4l-1.4,4.9l-1.8,0.2l-1.5,2l-0.8,2.3l-2.5,2.7l-1.3,0.1l-0.8-1.6l0.9-2.7
	l-3.4-0.2l-1.9,1.9l-0.3,1.9l-2.2-0.5l-1.5,1.1l-0.6,2.5l-3.2,1l-2.4,1.4l-3.8-1L378.1,353.5z"/>
<path id="D573" class="st0" d="M481.8,640.8l-1.5,0.9l-2.4-1.5l-1.7,0.6l-6.3-0.2l0.3,5l-4.3,1.7l-0.5,2.2l-1.4,0.2l-1-1.9l-3,0.3
	l-0.8-0.9l-1.9-0.1l-0.7-1.8l0.2-2l-1.5-0.9l1-3.7l-0.7-2.7l-3.5,2.9l-0.5-2.7l1.2-0.4l-0.2-4.8l-1.3-4.1l-0.9,0.3l-0.8,3l-2.4,1.1
	l-2.2-0.5l-1.3,1.6l-0.5,2.7l-1.8,1.4l-1.3-0.4l-0.6,1.5l0,2.8l-0.8,0.6l-1.5-1.8l-0.1-2.2l-0.9-1.5l-1.4,0.5l-1.5-1.7l0.1-2.3
	l-2.4-0.7l-2,2.8l-1.9,0.3l-1.5,1.6l-1.4-1.4l-0.4-2.9l0.8-3.4l-2.5-1.4l-4-3.4l-2.3-1.2l0-2.5l-0.9-0.4l-2.1-4.5l-2.5-1.9l-1.1-5.5
	l-1.6-2.8l1.3-3.4l0.2-2.1l-1.5-2.2l1-2.1l-0.9-1.3l-1-3.3l0.5-1.5l2.4-0.8l1.5-2.5l1.6,0l1.2,2.1l1.4,0.3l1.8,2.8l0.6,2.3l1.2-1.5
	l-0.1-2.1l2.2-3.4l4.1-0.7l0.4-2.5l1.4-3l-0.3-1.5l0.6-2l2-3.5l0-3.4l1.6-0.1l1.6-4.8l2.2,1.5l4.5,0.5l1.6,0.8l0.3,1.6l1.8,0.1
	l3,3.4l-0.9,0.6l0.1,2.3l1.8,2.2l0.4,2.9l1.7,1l0,3.7l2.5,5l3.5,0.2l3,3.9l1.2,0.3l1.3-1.5l0.6,2.9l2.2,0.2l0.3,0.6l-0.9,3.9
	l0.2,2.3l1.8,1.2l0,2.7l0.6,4l1.6,3.4l-1.2,1.5l1.4,5.3l-0.7,1.6l1.8,2.4l1.4-2.1l0.9,0.4l2.7-0.8l1.9-1.3l-0.4,2.8l2.7,0.7l1.3,7.4
	l2.1,0.2l1.4,3.7L481.8,640.8z"/>
<path id="D577" class="st0" d="M390.1,674.1l1.1-0.7l2.6-3.9l1.2-0.4l0.8-2.6l-0.7-1.7l-0.7-5l-2-3.9l-0.8-3.7l-2.4-0.6l-3-5.2
	l-3-0.2l-0.6-3.8l-1.2-1.7l0-2l-2.9-2l-3.8-5.8l1.5-3.6l3.2-1.5l-0.8-3.5l0.1-1.7l1.9-3.3l2.4-3.1l2.1-0.6l0.2,1.7l1.3,0.2l2.4,2.6
	l2.4,0.3l1.6-1.9l1.1-3.5l1.9,0.5l1.2-5.6l1.4-1.4l3.1,2.5l3.2-0.2l2.5-3.6l1.6,2.8l1.1,5.5l2.5,1.9l2.1,4.5l0.9,0.4l0,2.5l2.3,1.2
	l4,3.4l2.5,1.4l-0.8,3.4l0.4,2.9l1.4,1.4l1.5-1.6l1.9-0.3l2-2.8l2.4,0.7l-0.1,2.3l1.5,1.7l1.4-0.5l0.9,1.5l0.1,2.2l1.5,1.8l0.8-0.6
	l0-2.8l0.6-1.5l1.3,0.4l1.8-1.4l0.5-2.7l1.3-1.6l2.2,0.5l2.4-1.1l0.8-3l0.9-0.3l1.3,4.1l0.2,4.8l-1.2,0.4l0.5,2.7l3.5-2.9l0.7,2.7
	l-1,3.7l1.5,0.9l-0.2,2l0.7,1.8l1.9,0.1l0.8,0.9l3-0.3l1,1.9l1.4-0.2l0.5-2.2l1.7,1.5l-0.1,1.9l-1.9,1.9l-1.4,0l-1.8,1.7l-1.5,0.4
	l-0.8,2.9l-1.2,0.5l-2-4.1l-0.5,3.6l-1.4,3l-1.6,1.3l-1.8-1.6l-2.3-0.6l-1.6-2.1l-0.2-2.9l-2,1.3l-0.7,2.8l1.1,1.1l2,0.2l0.7,3.2
	l-0.9,2.8l5.1,3l-2.6,3.1l-1.5-1.7l-1.8,1.6l-1.5-0.1l-1.3-1.3l-0.2-1.7l-2.2,1.8l0.5,2.2l-1.3,0.6l-1.1-1.5l-2.2-0.5l-2.3,1.9
	l-0.3-1.3l-2.5-1.3l-1.2,0.3l-1.1,2.4l-2.4-0.9l-1.8,0.7l-1.8,3.7l1.2,2.5l-1.4,3.2l-0.2,3.4l-1.6-1.5l-3.3,1.2l0.1,3.8l-1.7,0.4
	l-0.6,2.7l-2.9-1.5l-0.6,4.6l-2.7,1.7l-1.2-0.4l-1.6,0.9l-1.9-1.3l-0.8-3.3l-1.9-2.5l-2.3,0.6l-2-0.5l-1-2l-0.2-3l-1.5-1.5l-3.4,0.7
	l-1,1.3l-1.3-0.7L390.1,674.1z"/>
<path id="D559" class="st0" d="M459.8,282.9l-2.1,2.5l-5.5,7.5l-0.7,3.6l-3.4,3.6l-1,2.2l-1.6,1.4l-0.4,1.4l0.1,5.5l-1.6,1.5
	l-2.9-1.1l-1.4-1.2l-0.7-2.2l-4.4-0.4l-0.7-1.2l1-1.6l-0.2-2.3l-2.9-2l-4.1-0.8l-0.9-2.4l-2-0.9l-2.2,0.6l-1.5-1.6l-2.2,0.2l-3-2.3
	l-0.3-4.9l-2.1-1.8l2.4-2.3l0.5-2.7l-2.2-1.4l0.5-2.3l-2.5-1.4l-2.9-0.5l-3.6,1.4l-1.8-1l0-2.5l1.3,0.4l1.9-0.9l-0.5-2.2l-1.5-1.7
	l-0.4-2.8l1.1,0l-0.7-7.6l-3.2-0.1l0-1.6l2.5,0.2l2.7,1.1l0.4-1.4l-3.3-1.4l-3.4-0.7l-0.8-1.9l0.4-3.6l3.1,1.6l1.3-3.3l2.3-0.9
	l1.3-0.5l1.8-2l2.8-1.9l0.9-1.5l4.6-4.1l2.7-0.9l2.4-1.6l2.6-2.6l1.9,0.1l3.3-2l1.7-1.6l5.8-3.8l1.1-1.5l1.8,1.1l4.7-1.7l2.6-6
	l2.3,0.7l4.4-2l0.5-0.9l-0.3-4l2.1-0.6l0.8,1.3l-0.3,3l1.5,1.4l2.4-1.6l4.3,3.6l2.3,0.4l1.4,1.7l0.5,2.7l5.5,1.9l1.8,1.5l1.6-0.5
	l3.7,1.5l1.5,1.2l1.6-0.3l2.9,1.7l2-1.2l3.3-0.3l2.9,0.8l1.2,1.7l3.7,2.5l0.5,1.6l-0.8,2.6l-1.2-1.2l-3.1,2.8l-1.8,0.2l-1,1.8
	l0.6,3.7l0,2.6l-0.9,2.9l0.2,4.3l1.2,4.3l-0.9,4.3l1.5,2.9l-0.3,3l0.7,1l-0.4,4.3l-3.2-0.7l-3.1-1.5l-3.8,0.9l-1.7-1.1l-5.4-0.4
	l-2.5-1.1l-1,0.5l-4.2,0.3l-2.8,1l-5.1,3.1l-3.3,5.7L459.8,282.9z"/>
<path id="D584" class="st0" d="M502.8,605.4l0.6,2.8l-1.2,1.6l-0.1,2.1l-0.9,2.7l0.6,5.2l1.8,1.6l-2,2.4l1.6,0.4l2.2-1.3l-0.7,7.3
	l-0.9,5.2l-2.7,3l-1,2.7l-2.9,2.8l-1.9-0.3l-1.7,1.1l-0.5,2.6l-1.8-0.6l-1-3.2l-1.1-0.6l-1.7,0.9l-4.4-0.5l-1.3-2.5l0.8-4.7
	l-1.4-3.7l-2.1-0.2l-1.3-7.4l-2.7-0.7l0.4-2.8l-1.9,1.3l-2.7,0.8l-0.9-0.4l-1.4,2.1l-1.8-2.4l0.7-1.6l-1.4-5.3l1.2-1.5l-1.6-3.4
	l-0.6-4l0-2.7l-1.8-1.2l-0.2-2.3l0.9-3.9l-0.3-0.6l1.4-2.9l1.6,0.3l2.2-1.1l-0.6-2.6l1.2-1.7l-0.5-2.2l-1.3-1.1l0-2.9l0.8-2.9
	l1.2,0.4l0.7-1.8l-0.6-2.7l-2-1.8l0.3-2.2l-4.9-5.1l-0.1-2.2l0.9-2l-0.8-3.8l1.8-1.9l1.7-0.1l0.1-1.7l2.7-3.1l1,0.8l2.6-0.1l1.2,3.9
	l2.5-0.4l1.3,0.7l0,2.2l1.4-0.3l2.1,1.9l-0.2,5.6l1.5,0.8l-0.8,3.4l0.6,3.5l0.2,2.7l0.9,1l-0.5,2.9l0.8,4.2l1.4-0.3l0.9,1.8l2.6-2.3
	l1.9,3.7l-1.2,0.9l1.7,2.3l0.6-1.1l2,1.3l-0.2,5.2l2.2,1.9l1.1,0.1l2.4-3.9l1.7,0.5l0.7-1.8l1.3,2.1l-1.7,1.5l-1.4,2.2l1.1,3.1
	l1.8-1.9l1.6,1.3l-1.8,4.2L502.8,605.4z"/>
<path id="D568" class="st0" d="M316.6,523.2l-2.1,0.1l-0.8-3l-1.7-0.4l-0.7-2.8l-1.6-1.7l-1-3.8l1.8-1.4l0-1.5l-1.8-0.7l-1.4-2.2
	l-0.4-4.6l0.6-1.7l-1.3-1.3l-0.2-2.8l-4.4-2.7l-0.6-1.1l-1.4-8.2l-1-0.8l-2.9,0l-1.2-3.1l-1.9-1.4l-2.3-0.6l-4.2,0l-1.4,0.7
	l-1.2-4.4l-2.5-3.5l-0.1-1.6l0.9-3.8l-1.6-0.6l0.3-1.8l-1.5-3.6l0.5-2.1l-0.2-2.7l-1.3-2.1l1.9-0.8l1.2-1.5l1.8,1.7l1-0.4l1.7,2
	l0.2-2.4l-0.9-5.6l1-3.3l2.7,2.9l1.4,0.6l2.8-0.1l2.7,2l1.9-0.4l1.4-1.6l1.4,0.2l1.7-3l-0.8-2l-1.4-0.8l1.2-3.3l2.5-0.2l1.3-1.1
	l-2.6-2.7l0.9-1.8l-0.3-2.4l-1.1-0.5l-1-2.5l-2.7,0.1l-0.6-1.8l1.3-2.6l-0.1-2l1-3.5l1.9,0.1l3.6-2.4l1.1,4.9l-0.5,1.7l4.2-1.4
	l-0.3-2.6l1-0.5l-2-2.8l0-5l1.8-4.1l1.8-0.5l2,0.5l3.3,2.9l1.7-1.4l3.1,1.9l0.1,4.1l1.6-0.7l2.6,0.2l2.4,4.1l-2.1,1.3l0.5,1.6
	l3.4-0.1l2,2.9l-0.3,4.9l1.4-0.5l1.4,0.7l-0.2,2.2l-1.7,0.5l-0.6,1.8l1.6,1.8l1.6,0.4l1.5,1.5l1.3,0.3l3.7,3.2l0.3-2.4l1.4-0.3
	l0.2,3.7l1.3,0.6l1.2,2.4l-0.7,2.4l0.1,4.4l-1.6-0.7l-2.2,0.2l-1.9,1.1l2.4,3l-1.9,0.1l-2.7,2.6l-1.9,2.4l-0.1,1l3.9,2l1.6-0.6
	l3.3,0.5l5.3,4l2-0.2l0.4-1.7l1.4-0.3l2.6,1.3l4-0.9l0.3,2.1l-1.8,0.1l-1.6,2.1l-0.7,2.2l0.7,3.3l2,3.5l0.3,2.9l-2.8,0.4l-1.8,4.5
	l-1.5,1.7l-1.6,0.7l-0.5,2.3l0.1,6.1l-2.2,0.2l-1,1.7l-2.1,1l-1.4-2.2l-2.2-0.7l-2,1.8l-0.5,1.9l-4.7,2.4l1.6,4.7l-0.6,2.2l-2.1,1.6
	l-2.8,3l-1.2-0.6l-2.3,0.9L327,513l-2.5-4.2l-1.6,0.1l-0.8,1.9l1.1,1.5l-0.1,4.3l-1.6,1.5l-2.5,0.6l-2.5,3.2L316.6,523.2z"/>
<path id="D571" class="st0" d="M459.5,450.9l-1.6-2l0.4-4l3.5-0.8l2,3.1l1.5,0l1.1-1.2l0.4-3.6l-0.3-3.1l1.1-1.4l0.5-2.9l1.5-0.7
	l3.4,2.4l3.7,0l2.7-1.7l-0.1,5.6l6.1,0.7l-0.3,4l1.6,1.4l0.5,2.5l2.4-1.2l-1.1-5.8l-0.8-0.1l-1.1-3.4l0.3-2.2l1.2-1.2l2.4,0.8
	l1.3,1.1l0.1,3.3l0.8,0.5l1.9-1.2l1.5,2.4l-0.7,3.3l1.5,5.6l-0.8,2.1l-2.8-1.3l-5.6-0.1l-1,3.6l-2.2,0.5l0.4,1.9l2.8-1.3l0.4,1.5
	l-1.8,3.2l-1.7,1.9l-0.9,0l-0.9,3.1l4.3,1.6l-0.8,2.6l1,0.8l2.6-0.3l0.8,0.8l-0.1,2.6l-1.6,0.7l0.9,4.2l-1.7,1.5l-0.5-1.7l-3.2,0.1
	l-0.4-1.6l1.5-3l-1.4-0.9l0.8-3.2l-1.5-0.6l-1.5-3.7l-0.8-0.2l-1.9,2l-0.5-2.1l-2.2,2.2l-3.7,0.3l-1.8-0.6l-1.3,1.8l-1.5-0.8l-1-4.5
	l-2.3,0.4l-1.7-0.9l-3.4-0.6l0-3.1l-1-0.9L459.5,450.9z M463.5,596.3l-2.2-0.2l-0.6-2.9l-1.3,1.5l-1.2-0.3l-3-3.9l-3.5-0.2l-2.5-5
	l0-3.7l-1.7-1l-0.4-2.9l-1.8-2.2l-0.1-2.3l0.9-0.6l-3-3.4l-1.8-0.1l-0.3-1.6l-1.6-0.8l-4.5-0.5l-2.2-1.5l-1.6,4.8l-1.6,0.1l-1.8-0.3
	l-0.4-3.4l1-2.1l-6.4-1.4l-1.2,0.9l-1.3-1.6l-2.4-1.1l0.6-4.6l-1.4-0.5l-0.3-1.8l-1.9-2.1l-2.4-1.3l-1.7-0.2l0.6-3.3l-1.8-1.9l0-3.6
	l-0.6-1.6l0.3-2.3l-0.4-3.6l2.7-0.4l0.9-2.3l0.6-3.4l1.3-2.8l-0.8-1.2l0.5-1.9l-1.3-1.4l2.2-3.3l-1.9-0.1l-2.8-2.2l-0.8-3.2l1.7-1.4
	l2.6,1.3l2.3-1.4l1.6-0.4l0-2l3.9-1.2l2.8-4.4l2.3-1.5l-0.4-2.6l3-1l1.3,0.9l2.2-0.7l2,3.3l0.2-5.6l0.7-2.6l2.1-2.7l0.8,1.3l2.1,0.4
	l0.4-2.1l-0.2-3.7l-0.6-0.5l-2.7-5.5l2.4-1.3l-0.1-1.2l2.1-0.5l2.5,0.7l0.7-3.3l2-1.4l0-1.6l-1.8-1.6l1-2.1l2.5,0.6l0.9-0.8l0.7-3
	l1.4-1.4l1.2,0.3l0.6-2.2l1.3-1.2l1.7,0.6l0.3,2.8l-2.6,0.5l-0.5,2.5l1.3,1.6l2,1l1.5,1.5l-0.4,2.5l3.6,3.2l0.4,2.9l-1.8,0.4
	l-0.9,4.4l-2.8,4l1.1,0.6l-0.2,1.9l0.9,4.4l1.4,1l0.6-3.8l1.2,0.1l1.9,3.1l2.7-2.2l2.1,1l3.3-0.4l0.4-1.8l-1.3-2.9l0.6-1.5l-1.2-2
	l-1.6-0.8l1.1-1.6l1.9-0.7l-0.7-3.4l2-0.2l-0.5,4l1.3,0.5l2.5-4l1.1,0.1l0.8,5.5l2.7-0.7l1.6-1.1l1,3.2l2.4-1.9l1.6,1.3l3.9,0.5
	l-1.2,2.8l3.2,1.4l0.9,4.3l-0.4,3.1l-0.9,1.7l0.4,2l-1.6,1.1l-2.5,0l-1.4,1.2l-1.6,4.8l0.2,2l1.4,2.2l0.1,2.7l0.7,1.2l-0.5,3.3l-1,3
	l-1.8,1.8l1,1.8l-1.1,1.8l-0.4,3.9l0.2,3.3l-0.5,1.7l-2,0.7l-0.3,1.2l-5.9,0l-0.6,1.6l0,2.7l-1.1,0.7l-1.5-1l0.3,5.2l0.8,3.8
	l-2.6,0.1l-1-0.8l-2.7,3.1l-0.1,1.7l-1.7,0.1l-1.8,1.9l0.8,3.8l-0.9,2l0.1,2.2l4.9,5.1l-0.3,2.2l2,1.8l0.6,2.7l-0.7,1.8l-1.2-0.4
	l-0.8,2.9l0,2.9l1.3,1.1l0.5,2.2l-1.2,1.7l0.6,2.6l-2.2,1.1l-1.6-0.3L463.5,596.3z"/>
<path id="D569" class="st0" d="M289.6,559.6l-0.4-0.1l-0.3,0.2l0.1,0.8l-0.5,0.7l-0.3-1.2l-0.9-5.6l-1.7-7.4l-1.6-11.2l-1.2-1.8
	l-0.3-10.3l-0.3-0.7l-0.7-9l-1.5-10.8l-0.8-1.2l-1.8-12l-1.4-7.7l-1.1-2.7l-0.8-3.5l3.9-2.2l2.7-3.6l2.5,3.5l1.2,4.4l1.4-0.7l4.2,0
	l2.3,0.6l1.9,1.4l1.2,3.1l2.9,0l1,0.8l1.4,8.2l0.6,1.1l4.4,2.7l0.2,2.8l1.3,1.3l-0.6,1.7l0.4,4.6l1.4,2.2l1.8,0.7l0,1.5l-1.8,1.4
	l1,3.8l1.6,1.7l0.7,2.8l1.7,0.4l0.8,3l2.1-0.1l1.1,1.4l-0.3,2.8l-1.4,2.9l-0.4,2.3l-1.1,1.1l-1.6-0.4l-0.8,1.8l1.9,5l0.7,1.1
	l1.8-0.5l1,2.1l1.9,6.8l1.8,2.4l-2.9,4.6l-2.4-0.1l-0.9,2.6l-1.4,1.8l-1.7,4.6l-2.2,2.5l-1.3,0.5l0,1.9l-1.2,1.4l-1.8-0.5l0.7-2.4
	l-1.6-1.5l-1,1.4l-2.2-0.1l0-1.7l-3.7-1.2l0.4-5.2l-1.3-0.2l-0.8-2.9l-2.4,0l-2.8,1L289.6,559.6z"/>
<path id="D563" class="st0" d="M274.3,476.1l-1.3-2.6l-1.2,0.1l-2.7-3.9l-1-3.7l-0.2-2.8l-0.8-3.7l-1.1-8.3l-0.6-2.8l-1-0.5l-3-11.7
	l-0.6-5.5l-1-4.7l-2.5-8.4l0.1-1.8l1.7-1.7l-1.1-2.2l-1.5,1.5l0.3,2.3l-2.9,0.2l-0.4-3.3l-2.9-7.6l0.8-0.4l-0.4-2.8l0.3-1.9
	l-2.5-6.3l-4.3,0.5l-1.1-1.5l-1.5-0.5l-1.3-2.3l-2.5-0.7l-1.3-1.9l2.6-1.3l-0.1-2.2l-1.9-4.4l-0.1-1.5l1.2-1.6l2.7-0.7l1.9,0.1
	l-0.6-1.9l1.6-1.7l1.3,1.6l2.9-0.9l1.6-1.1l0.9-1.8l-0.9-1.6l3.1-5l-1.1-3l-0.5-3.3l0.9-1.8l-0.3-2.3l1.6-1.9l0.8-2.2l-1.5-4.5
	l-2.9-1.4l1-3.3l2-1.2l2.4,0.3l0.6-1l-1.4-3.7l0.4-3.8l-2.9-1.4l-1.1-4.3l0.5-1.9l-2-4.7l2.1-3l4.8,0.3l2.7,3.7l0.8-0.4l2.6,2.4
	l0.2,4.6l0.9,1.3l2.5-1l0.9,1.8l2.7-0.8l1.5-1.6l2.5,1.6l3.5,4.5l3-3.2l2.8-0.9l0.6-1.1l3.3-0.2l3,1.8l1.3,1.7l1.7-0.7l0.4,4.1
	l2.5,1.4l3,3.1l0.8,4.9l-2.7,3.8l0.3,2l-2,2.4l-1.6,3.6l1.1,0.7l1.2,2.3l1.8,0.4l-0.1,1.6l0.9,4l3.5-0.7l0-1.5l6.2-0.3l2.5-1.2
	l1.9,0.8l-0.9,5.8l1.3,6l1.1,0.1l0.2,2.9l-2.5,0.8l0.4,6.9l-0.3,7.1l-2.2,1.1l0.4,2.2l-1.2,4l0,3.5l1.5,2.4l-1.8,4.1l0,5l2,2.8
	l-1,0.5l0.3,2.6l-4.2,1.4l0.5-1.7l-1.1-4.9l-3.6,2.4l-1.9-0.1l-1,3.5l0.1,2l-1.3,2.6l0.6,1.8l2.7-0.1l1,2.5l1.1,0.5l0.3,2.4
	l-0.9,1.8l2.6,2.7l-1.3,1.1l-2.5,0.2l-1.2,3.3l1.4,0.8l0.8,2l-1.7,3l-1.4-0.2l-1.4,1.6l-1.9,0.4l-2.7-2l-2.8,0.1l-1.4-0.6l-2.7-2.9
	l-1,3.3l0.9,5.6l-0.2,2.4l-1.7-2l-1,0.4l-1.8-1.7l-1.2,1.5l-1.9,0.8l1.3,2.1l0.2,2.7l-0.5,2.1l1.5,3.6l-0.3,1.8l1.6,0.6l-0.9,3.8
	l0.1,1.6l-2.7,3.6L274.3,476.1z"/>
<path id="D557" class="st0" d="M406.9,246.6l-2.3,0.9l-1.3,3.3l-3.1-1.6l-5.4-1.9l-2.2,0.3l-5.9-3l0.2-5l-4.1-4.4l-4.1,0.4l-1.9-1.6
	l-3.3-1.3l-1.3-1.7l-2.7-0.8l-4.2-2.9l-4.4-1.1l-6.1-5.1l-2.5-0.6l-1.4,0.8l-1.6,2.8l-1.1-1.3l-0.3-3.4l-1.3-0.9l-2.8,1.3l-0.4,3.3
	l-3.3,0.6l-1.2-2.4l1.9-3l-0.3-3.9l2.3-0.3l0.2-4.1l-0.3-2.1l0.4-3l-2.2-2.2l-0.5-4.2l-0.7,0l-0.5-3.4l3.4,0.4l0.7-1.4l-0.1-3.9
	l-3.4-1l-1.5-1.2l-3,0.5l-0.8-4.7l1.3-5.3l-4.5-0.8l-0.1-4.7l0.7-4l3.8-2.4l2.8,1.3l1-1.6l1.8-0.6l1.7,2l0.3,2l1.8-0.7l1-1.4
	l3.1,0.2l0-4.3l3,0.3l0.1,3.4l2,0.4l0.7,1.5l2.5-1.3l-0.7-2l0.3-5.3l-1.4,0.5l-0.5-1.6l2.5-2.5l-0.5-4.3l-1.6,0l-0.1-2l-1.6-2.8
	l-0.1-2.6l2.5-2.8l-0.5-5.8l-1.9-0.2l-0.6-2.2l-1.4-1l0.8-2.6l-0.2-1.4l-2.2-0.9l-0.4-3.2l2.8-0.9l0-3.1l1.5-5.6l3.4,2.4l0.8,4.2
	l1.3,0.4l2.2-1.4l2.5,1.5l1,2.8l2.2,0.9l0.8-5l1.3-0.1l1.3,1.3l0.2,1.9l2.7-1.7l-0.1,5.3l1.3,0.8l1.6,2.2l3.1-1.3l2.2-0.1l1.2-1.3
	l3.6-0.1l0.8,2l-0.5,2.5l1.8,1.2l0.6,1.4l-0.6,2.8l2.6,1.2l3.2,3.4l0.8,1.8l1.3,1l1.9-0.1l1.9,3.6l0.8,0.2l2.1-1.9l3.1-0.3l2.4-1.8
	l0.8,1l-0.2,6l1.6,1.8l0.2,2.5l0.9,0.3l2.4-2.8l0,7.2l0.6,2.2l-0.2,2.7l-2.6,0.4l0,4.2l1.4,0.8l1.3-1.5l1.7,1.7l0.2,2.6l-2.1,0.1
	l0.2,3.1l1.6,0.2l0.8,2.7l-0.6,0.6l-2.3-0.5l-0.1-1.1l-4.1-1.1l-1.3,2.1l-0.3,2l4.5,0.6l-2.7,1.2l-0.5,3.4l4.8,0.5l0.4,2.2l-1.5,2.7
	l3,0.5l-1.7,0.3l-2.5,6l0.3,3.5l0.6,1.4l0.5,5l0.9,3.9l-0.3,1.2l0.4,6.6l-2.5,0.3l-1.5,1l-3.8-0.2l0,3.5l-1.8-0.5l-0.3,1.9l0.7,3.2
	l-1.7,2.1l0.8,0.9l-0.2,3.3l1.5-0.2l2,1.1l-0.2,2.8l0.6,2L406.9,246.6z"/>
<path id="D580" class="st0" d="M406.9,246.6l1.9-3.5l-0.6-2l0.2-2.8l-2-1.1l-1.5,0.2l0.2-3.3l-0.8-0.9l1.7-2.1l-0.7-3.2l0.3-1.9
	l1.8,0.5l0-3.5l3.8,0.2l1.5-1l2.5-0.3l-0.4-6.6l0.3-1.2l-0.9-3.9l-0.5-5l-0.6-1.4l-0.3-3.5l2.5-6l1.7-0.3l1.4,0.1l1.8-1.3l0-1.6
	l1.1-1.2l2.2,0.4l2.7-1.9l3.2,0.1l0.8,1.8l-0.1,2.2l1.9,1.3l-0.4-4.1l1.7-1.2l0.3-1.9l2.3-0.8l2.5,2.3l0.1-4.9l1.2-2.7l2,0.4
	l3.9-2.9l1.5-2.6l3.2-0.1l0.1,1.5l1.3,1.4l-1.3,1.2l0.4,3.3l2.8-0.7l2.7,1.9l1.5-0.2l-1.1-2.7l-0.3-2.2l2.2,0.2l2.4-0.9l-0.6-2.4
	l-1.2-0.6l0.2-2.7l1.9-0.4l2.2-2.4l1.1,2.2l0.3,2.4l1.6,0.1l1.1-1l2.7,0.2l0.6-2.4l2,1.1l1.4-1.6l3.8,1.4l5.7-0.2l0.9,2l4.5,3.5
	l3.3-0.9l0.6,3.8l-0.3,2.1l1.2,2.8l-0.3,2l-2.4-0.1l0.1,1.5l-1,4.9l3.4,0.6l-0.3,3.1l-3.7,1.6l1.2,2.6l2.2-1.1l0.8,0.5l-1.3,3.7
	l0.2,2.7l-1.5,0l-1.2,1.6l-2.2,0l0.8,1.9l1.1,0.3l0,2.7l-2.6,0.6l-1.1,2.8l-3.2,0.3l-2.1-1.1l-0.4,1.8l-3.1,0.6l1,3.8l1.5,2.7
	l-1.6,0.5l-1.8-1.5l-5.5-1.9l-0.5-2.7l-1.4-1.7l-2.3-0.4l-4.3-3.6l-2.4,1.6l-1.5-1.4l0.3-3l-0.8-1.3l-2.1,0.6l0.3,4l-0.5,0.9l-4.4,2
	l-2.3-0.7l-2.6,6l-4.7,1.7l-1.8-1.1l-1.1,1.5l-5.8,3.8l-1.7,1.6l-3.3,2l-1.9-0.1l-2.6,2.6l-2.4,1.6l-2.7,0.9l-4.6,4.1l-0.9,1.5
	l-2.8,1.9l-1.8,2L406.9,246.6z"/>
<text transform="matrix(0.7112 0.703 -0.703 0.7112 327.5573 229.1723)" class="textName">Bagalkot</text>
<text transform="matrix(1 0 0 1 414.4595 350.749)" class="textName">Ballari</text>
<text transform="matrix(1 0 0 1 268.6455 277.3887)" class="textName">Belagavi</text>
<text transform="matrix(1 0 0 1 577.8949 527.1024)" class="textName">Bengaluru Rural</text>
<text transform="matrix(1 0 0 1 520.7271 611.5801)" class="textName">Bengaluru Urban</text>
<text transform="matrix(1 0 0 1 457.8389 76.3062)" class="textName">Bidar</text>
<text transform="matrix(1 0 0 1 510.728 686.3281)" class="textName">Chamrajanagar</text>
<text transform="matrix(1 0 0 1 542.0558 480.472)" class="textName">Chikkaballapura</text>
<text transform="matrix(1 0 0 1 146.0318 562.1124)" class="textName">Chikkamagaluru</text>
<text transform="matrix(1 0 0 1 450.5234 411.9668)" class="textName">Chitradurga</text>
<text transform="matrix(1 0 0 1 194.1802 609.9886)" class="textName">Dakshina Kannada</text>
<text transform="matrix(0.2666 -0.9638 0.9638 0.2666 371.5323 458.4338)" class="textName">Davangere</text>
<text transform="matrix(1 0 0 1 173.2634 325.2085)" class="textName">Dharwad</text>
<text transform="matrix(9.370864e-02 -0.9956 0.9956 9.370864e-02 356.8203 356.9774)" class="textName">Gadag</text>
<text transform="matrix(1 0 0 1 364.7646 578.8672)" class="textName">Hassan</text>
<text transform="matrix(1 0 0 1 314.1309 395.9463)" class="textName">Haveri</text>
<text transform="matrix(1 0 0 1 417.2207 148.4143)" class="textName">Kalaburagi</text>
<text transform="matrix(1 0 0 1 297.6789 667.7363)" class="textName">Kodagu</text>
<text transform="matrix(1 0 0 1 535.6638 557.8432)" class="textName">Kolar</text>
<text transform="matrix(1 0 0 1 379.2666 317.7852)" class="textName">Koppal</text>
<text transform="matrix(1 0 0 1 413.6074 610.3262)" class="textName">Mandya</text>
<text transform="matrix(1 0 0 1 395.8428 653.3252)" class="textName">Mysoru</text>
<text transform="matrix(1 0 0 1 429.5321 254.4453)" class="textName">Raichur</text>
<text transform="matrix(1 0 0 1 516.2734 640.2754)" class="textName">Ramanagara</text>
<text transform="matrix(1 0 0 1 284.1484 473.4336)" class="textName">Shivamogga</text>
<text transform="matrix(1 0 0 1 417.5615 533.3301)" class="textName">Tumakuru</text>
<text transform="matrix(1 0 0 1 244.6741 524.7383)" class="textName">Udupi</text>
<text transform="matrix(1 0 0 1 255.6052 377.2939)" class="textName"><tspan x="0" y="0" class="textName">Uttara</tspan><tspan x="0" y="14.4" class="textName">Kannada</tspan></text>
<text transform="matrix(1 0 0 1 345.9648 192.9912)" class="textName">Vijayapura</text>
<text transform="matrix(1 0 0 1 433.5522 203.2002)" class="textName">Yadgir</text>
<line class="st0" x1="245.6" y1="558" x2="356.2" y2="524.7"/>
<line class="st0" x1="317.2" y1="325.4" x2="206.6" y2="330.9"/>
<line class="st0" x1="493.1" y1="541.4" x2="571.7" y2="523.3"/>
</svg>
