<?xml version="1.0" encoding="utf-8"?>
<!-- Generator: Adobe Illustrator 26.0.0, SVG Export Plug-In . SVG Version: 6.00 Build 0)  -->
<svg version="1.1" id="Layer_1" xmlns="http://www.w3.org/2000/svg" xmlns:xlink="http://www.w3.org/1999/xlink" x="0px" y="0px"
	 viewBox="0 0 800 730" style="enable-background:new 0 0 800 730;" xml:space="preserve">
<style type="text/css">
	.st0{stroke:#000000;stroke-miterlimit:10; cursor:pointer;}
	.textName{font-family:'Arial'; font-weight:bold; color:#000000; font-size:12px; cursor:pointer;}
</style>
<path id="D620" class="st0" d="M541,328.3c1-1.9,1.5-4,2.7-5.8c0.4-0.5,0.9-1,1.3-1.6l0,0l0,0c1.3-1.3,2.8-2.5,3.3-4
	c0.6-1.6,1.9-3.1,2-4.9c0.1-2.3,0.8-4.8,0.7-7.1c0-0.7-0.3-1.3-0.6-1.7c-0.8-0.9-2.2-1.3-3.4-1.8c-0.6-0.3-1.2-0.7-1.6-1.3
	c-0.8-0.9-1.3-2.2-1.4-3.2c-2,0.6-4.4,0.2-5.9-1.4c-0.1-0.1-0.2-0.2-0.3-0.3c-1.2-1.6-0.5-3.8-1.6-5.4c-0.1-0.1-0.1-0.1-0.2-0.2
	c-1.2-1.2-4.2-1.2-5.6-1.3c-3.5-0.3-4.6,0.2-5.1,3.4c-4.8,0.3-9-0.3-13.5,1.4c-1,0.4-2-0.1-2.9-0.7c-0.8,0.3-1.8,2.9-1.8,3.9
	c0,0.9-1.6,2.2-2.7,2.6s-0.9,1.8-0.3,2.7s0.5,1.9-0.4,1.9s-1.6-0.1-2.2,0.7c-0.5,0.8-0.4,2.3,0.7,2.6c1.1,0.3,0.5,1.5,0.1,1.9
	s-1.5,1.8-2.4,2.6c-0.9,0.8-1.1,3.5-1.1,3.5s-1.9-0.1-3.1,0s-0.7,2.2-0.4,2.9s0.8,3.1,0.1,3.9s-1.1,2.2-0.7,2.7s1.1,1.9,0.9,3.1
	c-0.1,1.2-3.1,2.7-3.8,2.7c-0.7,0-2.4,0.8-3.1,1.6c-0.7,0.8-2,1.9-2,1.9c0.8,1.5,1.2,3.3,1.2,5c0,0.3,0,0.6-0.1,0.8
	c-0.6,1.9-3.6,3.2-4.1,5.3c-0.1,0.5-0.1,1.2,0.2,1.8l0,0l0,0c-1.2,0.4-2.6,0.7-3.7,1.4c1.1-0.5,5.4,4.2,6.1,4.9
	c1.3,1.5,0.6,2.3-0.7,2.9c3.3,0.4,6.7,0.6,9.2-0.5c1.6-0.7,2.8-2.4,3.6-3.8c0.4-0.7,0.9-1,1.3-1.3c1.5-0.7,3.3,0.2,5.1-0.4
	c2.2-0.8,3.7-1.9,6.2-1.3c0.9,0.2,1.5,0.1,2.1-0.1c1.2-0.5,1.9-1.8,3.4-2.3c0.2-0.1,0.4-0.1,0.7-0.2c0.6-0.1,1.2-0.2,1.6-0.4
	c1.3-0.6,2-1.7,3.3-3c2.2-2.2,5.1-3.6,7.2-5.9c1.3-1.3,2.3-2.3,3.8-3.1c0.5-0.2,1-0.4,1.6-0.6c0.8-0.2,1.5-0.5,2.2-0.8
	C538.9,331,540.2,330,541,328.3z"/>
<path id="D795" class="st0" d="M636.9,93.7l-6.5,0.8c-0.2,0.4-0.4,0.7-0.6,1c-0.2,0.3-0.4,0.5-0.7,0.7s-0.5,0.3-0.8,0.5
	c-0.3,0.1-0.6,0.2-0.9,0.3c-0.6,0.2-1.3,0.4-2.1,0.7c-0.4,0.1-0.8,0.3-1.2,0.5s-0.9,0.4-1.3,0.8c-0.3,0.3-0.6,0.6-0.9,0.9
	s-0.5,0.6-0.7,1c-0.4,0.7-0.8,1.4-1.3,2.1c-0.2,0.3-0.4,0.7-0.7,1s-0.5,0.6-0.9,0.9c-0.3,0.3-0.7,0.5-1.1,0.7
	c-0.4,0.2-0.9,0.4-1.4,0.6s-0.9,0.6-1.4,0.9c-0.4,0.4-0.8,0.9-1.3,1.3s-1,0.9-1.6,1.2c-0.3,0.2-0.7,0.3-1,0.4
	c-0.4,0.1-0.8,0.2-1.2,0.3c-0.1,0-0.6-0.1-1.1-0.2s-1.2-0.3-2-0.5c-0.7-0.2-1.6-0.3-2.3-0.4s-1.5-0.1-2.2,0
	c-0.5,0.1-1.1,0.3-1.6,0.6c-0.5,0.2-1,0.5-1.5,0.8s-0.9,0.5-1.4,0.6c-0.4,0.1-0.8,0.2-1.2,0.1l7.6,3.8c0.3,0.3,0.7,0.7,1,1
	c0.3,0.4,0.5,0.7,0.8,1.2c0.4,0.8,0.8,1.6,1.2,2.5c-0.7,0.3-1.2,0.5-1.6,0.7c-0.4,0.1-0.8,0.2-1.1,0.3c-0.3,0-0.6,0-0.9-0.1
	c-0.3-0.1-0.6-0.1-0.9-0.3c-0.3,0.6-0.6,1.1-0.9,1.7c-0.3,0.6-0.6,1.2-0.7,1.8c-0.1,0.3-0.1,0.6-0.1,0.9s0,0.6,0.1,0.9
	s0.1,0.6,0.3,1c0.2,0.3,0.4,0.7,0.6,1c-0.4,0-1,0.2-1.6,0.4c-0.6,0.2-1.3,0.5-1.9,0.8c-0.7,0.3-1.3,0.6-1.9,0.8
	c-0.6,0.2-1,0.4-1.4,0.4c-2,0.2-3.6,0.3-4.9,0.4c-1.3,0.1-2.2,0.2-3,0.4c-0.4,0.1-0.7,0.2-1,0.3s-0.5,0.3-0.7,0.4
	c-0.2,0.1-0.4,0.3-0.6,0.6s-0.3,0.5-0.4,0.8c-0.1,0.2-0.1,0.4-0.1,0.6c0,0.2,0,0.5,0.1,0.8c0.1,0.6,0.4,1.2,0.8,2s0.8,1.6,1.3,2.6
	s1,2,1.5,3.2c-1,0.8-1.9,1.3-2.5,1.6c-0.7,0.3-1.2,0.5-1.6,0.6c-0.6,0.4-1.8,0.8-2.8,1.3c-0.5,0.3-1,0.5-1.3,0.9
	c-0.1,0.2-0.3,0.4-0.4,0.6s-0.1,0.4-0.1,0.7c0.2,2.8,1.7,4.8,1.8,7.6c0,0.4,0,0.8-0.1,1.3c-1.7,0.3-3.6,0.2-5.2,0.9
	c-2.4,1.1-2,3.6-3.7,5c-1.5,1.3-1.9,5-3.8,5c0.6,0.7,1.3,1.3,2,2c0.5,0.4,1,0.6,1.5,0.6c1.6,0,3.5-1.3,5.1-1.4h0.4
	c1.6,0,3.1,0.9,4.7,0.9c0.4,0,0.8,0,1.2-0.2c1.5-0.5,2.6-1.4,4-1.4c0.6,0,1.2,0.2,1.9,0.7c1.6,1.2,3.4,2.9,4.6,4.5
	c1.9,2.4,2.9,7.3,6,8.1c0.9,0.2,1.8,0.1,3.1-0.5c0.2-0.1,0.5-0.2,0.7-0.2c0.1-0.1,0.1-0.3,0.2-0.4c1.2-2.2,4.9,0,6.9-0.7
	c2.4-0.9,4.7-3.5,6.5-5.3c2.5-2.4,3.4-6.3,5.7-9c2.1-2.4,4.5-4.6,6.6-7.1c1.2-1.5,2.9-3.9,2.6-5.9c-0.1-0.3-0.2-0.6-0.3-0.9
	c-0.2-0.3-0.4-0.6-0.8-0.9c-0.4-0.3-0.7-0.6-0.9-0.8s-0.3-0.4-0.4-0.6l0,0c-0.4-1,1.9-0.7,3.7-1.3c1.7-2.3,1.8-5.7,2.7-8.4
	c0.9-2.8,1.8-5.5,2.5-8.3c0.7-3,1.4-6,2.4-8.8c0.9-2.4,2.5-4.4,3.4-6.8c1.2-3.2,0.7-5.4,0.6-8.7c-0.1-2,0.3-4.1,0.4-6.1
	c-0.3,0-0.9,0-1,0c-0.5,0-1,0.3-1.5,0.4c-0.2,0.1-0.5,0.1-0.7,0.2c-0.2,0-0.5,0-0.7-0.1c-0.3-0.1-0.7-0.4-1-0.7
	c-0.3-0.3-0.5-0.7-0.7-1.2s-0.2-0.9-0.2-1.4s0.1-1,0.1-1.6c0-0.5,0.1-1,0-1.4c0-0.2-0.1-0.4-0.2-0.5c-0.1-0.1-0.3-0.3-0.4-0.4
	c-0.2-0.1-0.5,0-0.8,0c-0.1,0-0.3,0-0.4,0S637,93.8,636.9,93.7z"/>
<path id="D603" class="st0" d="M660.1,52.4c-1-0.8-3.7-3.2-5.7-4.3c-0.3-0.1-0.8-0.4-1.1-0.2c-0.6,0.3-0.5,1.6-0.5,2.4
	c0,1,0,3-0.7,3.7c-1,1.1-2.4-0.6-3.4-1c-0.6-0.2-1.3-0.6-1.8,0c-0.3,0.4,0.3,1.2,0.1,1.8c-0.4,0.9-0.8,0.6-1.6,0.6
	c-1,0.1-0.7,0.4-1.4,0.7c-0.5,0.2-1.5-0.3-1.9,0.1c-0.4,0.4-0.3,1.4-0.7,1.8c-0.6,0.7-3.3,1.1-4.1,0.6c-0.3-0.2-0.3-1-0.6-1.4
	c-0.4-0.5-1.3-0.9-1.9-0.7c-1.3,0.4-1.8,1.8-1.5,3c0.2,0.9,0.7,0.9-0.3,1.6c-0.5,0.3-1.3,0.5-1.9,0.6c-1.7,0.3-2.3-0.3-3.2,1.5
	c-0.5,1-0.9,2.7-0.3,3.7c0.6,1,3.1,1.1,3.2,2.3c0.1,1-1.8,2.8-2,3.8c-0.2,1.2,0.9,3.8,2.3,2.9c0.6-0.4,0.6-1,0.7-1.7
	c0.1-1.2,0.1-1.2,1.2-1.6c0.1,1,0.4,3,0,3.9c-0.3,0.7-2.6,1.5-1.2,2.4c0.7,0.5,0.8-0.4,1.2,0.5c0.2,0.4,0.2,1.4,0.2,1.8
	c0,1.3-0.6,1.9-1.3,2.9c-0.6,0.9-0.3,0.7-0.6,1.7c-0.1,0.6-0.4,0.6-0.9,1.1c-0.8,1-0.9,1.9,0,2.7c1.4,1.2,2,0.4,3.2-0.3
	c1.3-0.7,2-0.4,3.5-0.2c-0.3,0.2-0.5,0.4-0.8,0.6c1,0.6,0.8,1,0.8,2.1c0,0.2-0.1,1.2,0,1.5c0.4,0.4,1.1,0.1,1.5,0.3
	c1.5,0.7,0,3.7,0.7,5.3c0.3,0.8,1,1.6,1.7,1.9c1.1,0.4,2.2-0.2,2.9-0.5c1.4-0.7,3.7-1.2,7.3-0.6c1.8-2.8,1.8-4.6,1.5-5.7
	c-0.3-1-0.8-1.3-1.6-3.1c-0.7-1.7-1.1-2.6-1-3.7c0.1-0.8,0.3-1.1,2.4-5c0.6-1.2,0.9-1.7,1-1.9c0.3-0.7,1.4-3.2,0.9-6.1
	c-0.4-2.8-1.8-2.6-1.9-5.1c-0.1-2.2,0.8-4.1,1.1-4.7c0.3-0.5,0.6-1,1.3-1.9c2-2.6,2.6-2.6,3.1-4c0.5-1.2,0.1-1.4,0.6-3
	C658.9,54.2,659.6,53.1,660.1,52.4z"/>
<path id="D614" class="st0" d="M245.1,400.3c0-0.3,0-0.5,0-0.7c-0.1-1-0.3-2.1-0.3-3.2c0-0.8,0.2-1.6,0.8-2.3c1.6-1.8,4.6-1.1,6.7-1
	c2.4,0.1,3.8-0.3,4.9-2.5c0.4-0.9,0.7-2,0.7-2.9c0-1-0.4-1.9-1.2-2.6c-1.4-1.3-3.5-1.3-4.6-3.1c-0.9-1.6-0.4-3.7-0.3-5.4v-0.1
	c0.1-1.9,0.1-3.7,1.1-5.4c1-1.6,2.8-2.7,3.3-4.7c0.1-0.4,0.1-0.8,0.1-1.2c-0.1-1.6-1.2-3-2.2-4.3c-1.1-1.4-2.5-4.3-4.2-5.1
	c-1.9-0.9-9.4,2.3-9-0.3c0-0.4,0.3-0.9,0.6-1.5c1.3-2,2.2-3.5,1.3-5.3c-0.2-0.4-0.5-0.9-0.9-1.3c-1.3-1.5-2.6-2.4-2.6-4.1
	c0-0.4,0.1-0.9,0.2-1.4c1.9-0.1,2-1.7,2-3.2c0-0.1,0-0.1,0-0.2l0,0c0-0.3,0-0.5,0-0.7c0-0.4,0-0.7,0-1c0.3-2.9,0.4-4.9,2.8-6.7
	c1.1-0.9,1.9-1.6,1.9-2.3c0-0.6-0.4-1.3-1.3-2.3c-2.5-2.5-9.6-5.3-9.5-9.2l0,0l0,0c0.1-1.9,1-4,1.2-6c0.1-2,0.6-4.2,1.8-5.9
	c1.4-1.9,3.3-1.5,5.2-2.5s2.6-3.4,4.6-3.9c1.7-0.4,3,0,4.4-0.2c-1.6-2.3-3-4.8-5.2-6.3c-2.1-1.5-6.1-0.7-8.1,1.2
	c-0.4,0.4-0.7,0.9-0.9,1.5l0,0l0,0c-1.4-0.2-2.5-1.3-4-1.4c-1.1-0.1-2.2,0-3.2-0.4c0.2-0.4,0.2-0.9,0.2-1.3l0,0
	c-0.6,0.4-1.2,0.7-1.8,1c-1,0.6-2.1,1-3.2,1.4c-2.5,0.8-4.7,0.2-7.2,0.3c-1.3,0-2.1,0.3-2.6,0.7c0,0,0,0-0.1,0.1
	c-0.1,0-0.1,0.1-0.2,0.1c-1.9,1.9,0.7,6.1-1.9,7.6c-0.1,0.1-0.3,0.1-0.4,0.2c-2,1-4.5,0.7-6.6,1.8c-0.1,0.1-0.3,0.1-0.4,0.3
	c-1.5,1-2.4,2-3.9,2.7c-0.3,0.1-0.7,0.3-1.2,0.4c-0.4,0.1-0.9,0.3-1.2,0.5c-0.7,0.4-1.2,0.9-1.8,1.5c-0.3,0.4-0.7,0.8-1,1.2
	c0.4,0.3,0.8,0.9,1.1,2.2c0.6,2.8-3.8,3.4-3.2,5.9c0.5,2.2,3.1,3.7,4.6,5.2c2,2,1.7,4.8,2.7,7.4c-0.4,0.1-0.6,0.4-1.1,0.3
	c0.9,0.7,1.4,2.2,2.5,2.6c1,0.4,2.1-0.2,3.1-0.2c-2.8,5.2-9.1,0.6-12.6,4.6c-2.5,2.8-6.4,9.8-2.3,12.7c7.8,5.3,21.2,2.1,23.5,14.1
	c1.8,0.3,3.5-0.7,4.8,0.8c-1.2,2.7-0.4,6.1-1.5,9c-0.8,2.2-2.8,3.9-1.2,6.3c1.1,1.6-1.3,5.6-2.8,6.3c-1.7,0.8-3.2-1.4-4.8-0.2
	c-2.1,1.6-0.4,3.8,1.2,4.8c1.6,1,2.5,1.9,2.4,3.9c-0.3,4.2-1.6,9.1-2.5,13.2c-0.6,2.8-1.6,4.8-0.2,7.5c1.2,2.1,2.1,3.7,1.5,6.1
	c-0.4,1.8-1.6,4.1-0.4,5.9c1.2,1.8,3.3,0.9,4.8,2c1.1,0.8,0.8,3.8,1.5,5c1.1,2,3,3.2,5.1,3.8c4.6,1.3,9.5,1.2,12.7-2.6
	c1.8-2.1,1.5-3.8,2.6-6.1c1-1.8,3.2-1.9,5-2.5c0.7-0.2,1.3-0.4,2-0.5c-1.1-3.1,0.9-6.3-0.5-9.6c-1.4-3.2-5.9-3.8-4.9-7.3
	c0.1-0.4,0.3-0.9,0.6-1.3C243.6,406.6,245.1,404.1,245.1,400.3z"/>
<path id="D621" class="st0" d="M586.4,232c-0.4-0.1-1.1-0.3-1.5-0.5c-0.8-2.3-3-0.4-4.2-1.8c-1.3-1.6-1.3,0.6-2.5,0.3
	c0.3-2.8-1.7-2.6-3.7-3.2c-0.1,2.4,2.7,5.6,0.7,6.7c-2.3,1.3-3.7,5.7-7.4,4.7c-0.4-0.1-0.8-0.3-1.1-0.6c-1-0.8-1.8-2-2.5-2.9
	c-0.4-0.5-0.9-0.9-1.3-1.1c-1.4-0.9-2.9-1-4.7-1.4c-1.5-0.3-3.2-1.3-4.9-2.3c-0.1,0-0.1-0.1-0.2-0.1l0,0c-0.1-0.1-0.2-0.1-0.3-0.2
	c0,0,0,0-0.1,0c-0.1-0.1-0.2-0.1-0.3-0.2c-0.1-0.1-0.2-0.1-0.3-0.2l0,0c-1.9-1-3.9-1.8-5.7-1.3c-0.7,2.8,4.7,9.5-2,8.9
	c-0.3,1.5-2.4,2.1-2.3,3.8c0.2,2,2.6,2.3,3.7,3.7c-0.8,0.9-2.5,0.5-3,1.7c-0.4,0.9,0.4,2.3,0.5,3.2c0.3,2.2,1.8,5,1,7.1
	c-0.9,2.4-5-1.4-6.5-1.3c-1.4,0-2.5,0.7-3.5,1.6c-1.5,1.1-3.2,1.3-4.8,2.2c-1.2,0.6-2.4,1.9-3.8,1.9c-1.5,0-2.8-1.2-4.4-1.2
	c-3.1-0.1-7.9,2.7-9.9,5c-1.8,1.9-8,1.5-11.3-0.6c-1.3-0.8-2.1-1.9-2-3.3c-1.2-0.2-2.8,0.9-2.6,2.2c0.3,0.1,0.6,0.2,0.8,0.3
	c1.5,0.9,0.4,2.8-1.5,2.7c-0.8,0-1.4-0.3-2-0.6c-1.2-0.7-2.1-1.8-3.3-2.6c-0.1-0.1-0.2-0.1-0.3-0.2c-1.2,6.6-6.3,3.8-10.7,7.2
	c-1.9,1.5,0,4.7-2.5,6c-1.3,0.7-2.7,0.7-4,1.3c0.5,0.6,0.9,1.3,1.5,1.9c0.3,0.4,0.6,0.7,1,1c1.7,1.5,3.4,2.6,4.9,4.3
	c0.6,0.6,1,1.2,1.5,1.8c0.1,0.1,0.2,0.2,0.3,0.4c1.8,2.2,3.3,3.8,6.9,3.4c4.5-0.6,9.2,0.4,13.7,0.6c1.9,0.1,3.9,0.4,5.7,1.2
	c1.5,0.7,3.1,2.6,4.8,1.9c4.5-1.7,8.7-1.1,13.5-1.4c0.5-3.2,1.6-3.8,5.1-3.4c1.4,0.1,4.5,0.1,5.6,1.3c0.1,0.1,0.1,0.1,0.2,0.3
	c1,1.6,0.4,3.8,1.6,5.4c0.1,0.1,0.2,0.2,0.3,0.3c1.5,1.6,3.8,2,5.9,1.4l0,0l0,0c0.1,1.1,0.6,2.3,1.4,3.2c0.4,0.6,1,1,1.6,1.3
	c1.2,0.6,2.6,0.9,3.4,1.9c0.4,0.4,0.6,1,0.6,1.7c0.1,2.3-0.6,4.8-0.7,7.1c-0.1,1.8-1.4,3.2-2,4.9c-0.5,1.4-2,2.7-3.3,4
	c0.7,0.5,1.5,0.6,2.3-0.1c1.6-1.3,1.7-3.7,4.2-4c0.4,0,0.9,0,1.2,0.1l0,0l0,0l0,0c0.6-0.6,1.2-1.1,1.9-1.6c2.3-1.5,4.9-2.4,7.4-3.5
	c2.3-1,2.7-3,4.6-4.2c1,0.9,2.5,0.6,3.7,0.3c0.2-1,0.6-3.9-0.1-5.1c-0.2-0.3-0.4-0.5-0.7-0.6l0,0l0,0c-0.6-2.7,11.4-6.1,12.9-6.8
	c2.4-1.2,5.9-2.8,7.6-4.9c1.2-1.4,1.6-3.2,2.2-4.9c-1.9-3.8-1.8-1.5-5.3-2c0.1-2.4,1.3-3.1,0.3-5.8c-1-2.6-2-5.2-2.7-8
	c-1.3-5.4-0.2-9.4,1.6-14.5c0.9-2.6,0-5.4,0.7-8.1c0.3-1.3,0.7-2.5,0.3-3.8c-0.3-0.8-1-1.2-0.4-2.2c0.5-0.8,1.6-0.8,2.3-1.5
	c0.2-0.2,0.4-0.5,0.5-0.8c-0.7-0.2-1.5-0.3-2.3-0.2c-0.6,0-7.8,2.6-7.9,0.4c0-0.9-0.3-1.9,0.1-2.7c0.3-0.7,1.3-0.9,1.4-1.7
	c0.1-1.3-2-2.6,0.5-3c1.5-0.2,4.6,1.3,6.1,1.6c1.4,0.3,2.9,1.1,2.9,2.7h0.1c0.3-0.9,0.5-1.9,0.8-2.8
	C589.7,231.8,587.8,230.4,586.4,232z"/>
<path id="D606" class="st0" d="M328.1,220.1c0.1,0,0.2,0.1,0.3,0.1c1.3,0.7,1.7,1.9,2.9,2.5c0.3,0.1,0.6,0.2,1.1,0.3
	c4.3,0.3,8.6-0.1,12.9,0.3c3.2,0.3,7.2,3.3,10.2,2.4c1.3-0.4,2.1-1.6,3.2-2.2c1.6-0.9,3.4,0,5.1-0.9c3.6-2,7.6-2.6,11.4-4
	c4.1-1.5,7.6-1.6,11.9-1.6c1.2,0,2.6-0.3,3.7-0.1c0.2,0,0.4,0.1,0.5,0.1c1.3,0.6-0.1,2.5-0.3,3.4c0.8,0,1.5,0.1,2.2,0.3
	c0.1,0,0.1,0.1,0.2,0.1l0,0c0.7,0.3,1.3,0.9,1.7,1.8c0.3,0.7,0.6,1.4,1.2,1.6c0.4,0.2,1,0.1,1.6-0.4c0.8-0.6,2.3-2.6,3.5-1.9
	c0.1,0,0.1,0.1,0.3,0.2c0.9,0.9,0.7,2.4,1.6,3.2c0.7-0.7,2.9-1.3,4-1l0,0l0,0c-0.1,2.2,0.4,2.6-0.9,4.4c-0.9,1.3-1.2,2.5-1.3,4
	c-0.2,1.8-1.2,3.5-2.4,4.7c-0.8,0.8-2.6,2.1-2.2,3.4c0.1,0.1,0.1,0.1,0.2,0.2c2.5,1.5,6.7-5.4,7.6-6.9c0.9-1.3,1.6-3.8,3.1-4.5
	c0.7-0.3,1.4-0.1,2,0.4l0,0l0.1,0.1c1.3,1.1,2.3,3.2,3.4,4c0.3,0.2,0.7,0.5,1,0.7c4.1,2.5,10.4,3.9,14.4,1c2.1-1.5,3.7-3.8,6-5
	c0.7-0.4,1.6-0.7,2.4-0.9c-0.1,0-0.3-0.1-0.4-0.1l0,0l0,0c-1-2,2.2-3,3.5-3.4c1.4-0.4,2.8-0.4,4.2-0.7c1.1-0.3,1.9-1.1,3.1-1.3
	c1.2-1.7-0.9-3.8-1.2-5.4c-0.2-1.5-0.6-2.8-0.5-4.1c-0.2,0-0.4,0-0.6-0.1c-0.6-0.1-1-0.6-1.1-1.4c-0.5-3.1,1.6-7.7,2.6-10.4
	c0.7-1.9,3.2-5.7,2.6-7.7c-0.3-0.8-0.7-1.1-1.3-1.2c-1.7-0.2-4.3,2-5.4,2.5l0,0l0,0c-0.7-1.2-1.5-1.6-2.4-1.7
	c-0.7-0.1-1.6,0-2.5-0.1c-0.5,0-1-0.1-1.5-0.1c-0.1-1.9,2.3-3.2,1.6-5.6c-0.7-0.1-0.9-0.6-0.9-1.1l0,0c-2.1-0.3-4.4,1.3-5.7,0.7
	c-0.7-0.3-1.2-1.2-1.2-3.1c-1.5,0.6-2.2,0.8-3.7,2l0,0l0,0c-0.4-0.2-0.7-0.4-1-0.4c-3.1-0.9-3.8,4.1-4.9,5.9l0,0l0,0
	c-0.1,0-0.3-0.1-0.4-0.1c-1-0.3-1.9-0.4-3-0.4l0,0l0,0c-0.3-2.3-2.1-6.4-4.9-7.3c-0.5-0.1-1-0.2-1.6-0.1c-1.2,0.1-1.3,1.4-2.2,2
	c-0.4,0.2-1,0.2-1.6,0.1h-0.1h-0.1H410c0,0,0,0-0.1,0c0,0,0,0-0.1,0c-0.4-0.1-0.8-0.2-1.1-0.3l0,0l0,0c-1-1.4,1-1.5,1.7-2.4
	c-0.3-0.2-0.6-0.3-0.9-0.4c-0.8-0.3-1.7-0.3-2.5-0.6c-0.7-0.2-1.3-0.5-1.7-1.2c-0.9-1.4-0.9-3.2-1.8-4.5c-1.8,1.8-6.3-2.9-7.7,0.8
	l0,0l0,0c-0.6-0.9-1.7-1.2-2.4-2c-0.8-1-1-2.3-1.7-3.3c-1.8-2.5-2.6-2.6-2.8-5.9c-0.8-0.1-1.9,0.3-2.2,1.2l0,0l0,0
	c-0.1,0-0.2-0.1-0.3-0.1c-1-0.4-2.2-0.4-3.1-0.9c-0.5-0.2-0.9-0.5-1.2-1c-1.4-2-3.6-2.8-4.2-5.3c-0.9-3.4-2.3-6.1-5.6-7
	c-0.5-0.1-1-0.2-1.5-0.2l0,0l0,0c-0.1-1.3-1.1-2.5-2.1-2.9c-1.1-0.4-2.3-0.2-2.9,1.3l0,0l0,0c-0.2-0.2-0.5-0.3-0.8-0.5
	c-0.4-0.2-0.9-0.4-1.3-0.6c-1-0.4-1.8-1-1.6-2.2c-0.9-0.3-1.6-1.1-2-2c-2.3-0.3-3.4,1.8-5.4,1.4l0,0l0,0c-0.3-0.8-0.8-1.6-1.1-2.4
	c-1.8-0.1-3.9-0.2-5.7,0.1c1.8,2.6,3.7,2.6,3.5,6c-0.1,2.1,2.9,4.7,4.8,5.4c0,2.6,0.2,2.8-1.2,5.1c-1.1,1.8-1,4.1-2.3,5.9
	c-1.3,1.8-2.7,1.8-4.6,1.3c-0.3-0.1-4-0.9-4-0.9c-0.1,2.8,1.2,6.4-0.7,8.9c-1.8,2.5-5.9,1.8-6.5,5.3c-0.3,1.8-0.9,7.8-2.7,8.8
	c-0.4,0.2-0.8,0.3-1.3,0.2c-1.5-0.2-3.2-1.6-4.9-2c-0.6-0.2-1.2-0.2-1.8-0.1h-0.1c1.3,1.6,2.2,3.5,2.6,5.4c0.7,3.2,2.1,3.7-0.1,6.6
	c-1.6,2.2-4.1,4-5.2,6.5c-1,2.1-2.8,5.9-3.1,8.6c0.4,0.6,0.9,1.2,1.6,1.5c0.4,0.2,0.9,0.4,1.5,0.4
	C324.9,219.5,326.6,219.5,328.1,220.1z"/>
<path id="D616" class="st0" d="M279.8,452.2c2.1-0.9,3.8-1.6,6.1-0.6c2.1,1,3.6,1.8,6,0.9c3.7-1.5,7.6-2.5,10.8-4.8
	c1.6-1.2,3.3-2.1,5.3-2.4c1.5-0.3,2-2.2,3.7-1.8c0.4,0.1,0.7,0.2,1,0.3c0.7,0.3,1.4,0.6,2.1,0.8c0.7,0.3,1.6,0.4,2.6,0.4
	c2.2-0.1,4.1,0.6,6.1,1.3l0,0l0,0c0.7,1.3,3.1,3.1,2.7,4.6c-1.3,0.4-9.3,1.9-5,4.4c4.1,2.4,1.9,8.4,4.5,11.9l0,0
	c0.1,0.2,0.3,0.4,0.6,0.6c0.2,0.2,2.9-2.5,3.6-2.8c1.9-0.7,4-0.8,6-1.5c2.3-0.8,4.5-2.2,6.9-2.7c2.6-0.5,5.2-0.1,7.8-0.3
	c1.8-0.1,2.8-0.7,3.2-1.8c0.2-0.5,0.3-1.2,0.3-1.9c0-0.6,0.2-1.1,0.5-1.4c0.8-1,2.5-0.9,3.6-1.8c1-0.8,1.6-2,2.3-3l0,0
	c0.6-0.8,1.2-1.5,2.3-1.9c2.6-0.8,5.2-2.2,8-2.5c4.3-0.5,8.1-2.2,10.1,2.7c1.2,2.9,2.3,10.6,5.9,11.5c1.9,0.5,3.3,0.3,4.4-0.3
	c2.2-1.2,3.5-4,4.6-6.7c0.6-1.3,1.2-2.7,0.8-4.1c-0.2-0.7-1-1-1.2-1.7c-0.5-1.5,3.5-3.4,4.4-4.4c3.1-3.3,2-7.9,3.7-11.7l0,0l0,0l0,0
	c-0.5,0-1-0.1-1.6-0.2c1.6-5.2-1.1-7.5-5.4-9.7c-0.4-1.9,1.2-3.1,2-4.5c0.9-1.7,0.9-3.7,0.6-5.6c-2.5-0.1-4.2-2.2-6.7-2.5
	c-2.6-0.4-3.7,0-5.9-1.8c-3.7-3-3.3-5.6-0.4-8.8c-0.1-0.3-0.3-0.6-0.7-0.8c-0.8-0.5-2.1-0.3-3-0.3c-2.4,0-3.1-1-5-2.3
	c-0.2-1.5,1.3-2.8,2-4.1c0.4-0.7,0.2-1.8,0.8-2.3c0.9-0.8,0.3-2.3,0-3.2c-0.6-1.8,0-3.1,0.2-4.8c0.2-1.5-0.6-2.9-0.5-4.5
	c0-1.4,1.4-1.9,1.9-3c0.6-1.4-0.3-3,0.1-4.5c0.3-1.5,1.6-2.2,2.6-3.2c-0.9-1.4-3-1.7-4.6-1.3c-0.4,0.1-0.7,0.2-1,0.3
	c-1.9,1-1.9,2.4-2.9,4.1c-0.7,1.1-2.2,3.3-3.7,3.8c-0.2,0.1-0.4,0.1-0.6,0.1c-1.9-0.1-3.8-1.7-5.9-1.8c-1.3-0.1-2.9-0.1-4.3,0.4
	c-0.8,0.3-1.6,0.7-2.2,1.3c-0.9,1-1.4,1.3-1.9,1.4c-0.6,0.1-1.2,0-2.6,0.2c-0.1,0-0.2,0-0.3,0.1c-1.5,0.4-1.8,2.2,0.1,2.3
	c2.7,0.2,5.4-0.5,8.1-0.4c0.4,2.8,0.6,8.3-2.7,8.9c-0.3,0.1-0.7,0.1-1.1,0c-0.1,1.1,0,2.2-0.1,3.4l0,0l0,0c-4,0-7.9-0.9-11.9-0.8
	c-0.3,0-0.5,0-0.7,0.1c-1.3,0.3-2.2,1.3-3.2,1.5c-0.8,0.2-1.5-0.1-2.4-1.7c-0.7-1.2-1.1-2.6-2.1-3.6c-0.7-0.6-2.1-0.3-2.6-1
	c-0.1-0.2-0.2-0.4-0.3-0.6c-1.8,0.4-3.4,1.3-4.8,2.3c-1.9,1.5-3.2,3.5-5.9,3.2l0,0l0,0c-0.1-2.3,1.2-6,0.3-8.5
	c-0.1-0.4-0.4-0.9-0.7-1.2c-2.8-2.9-4.7,2.1-5.6,3.9c-2.1,4.3-7,1.3-10.7,2.3s-4.6,5.3-9,5.2c-2.1-0.1-3.7-2.2-5.9-1.3
	c-1.9,0.8-2.9,2.7-5,3.2c-0.2,0-0.4,0.1-0.7,0.1c-1.7,0.4-3.4,0.9-3.5,3.1c-0.1,2.3-0.2,3.2-2.3,4.2c-0.9,0.4-2.2,2-1.9,3.2
	c0.1,0.3,0.3,0.6,0.7,0.8c1.2,0.6,3.6,0.3,4.2,1.8l0,0l0,0c0.3,0.7-2.7,2.4-3.2,2.7c-0.6,0.4-0.6,1.4-0.4,2.4s0.7,2,0.9,2.5l0,0l0,0
	c-2.5,2-9.7-3.2-7.9,1.6c0.2,0.5,0.4,1.1,0.9,1.9c0.3,0.6,0.5,1.2,0.7,1.9c0.6,2.6,0.2,5.4,0.8,8.1c0,0.2,0.1,0.4,0.2,0.6
	c0,0.1,0.1,0.2,0.1,0.4c0.7,2.5,1.4,7.5,0.6,9.7c-1.9,0.4-3.2,1.8-4.7,2.8c-0.7,0.5-1.4,0.8-2.2,1c0.2,0.9,0,2.1-0.1,2.8
	c-0.4,2-1.5,9.2-3.8,9.8c1.4,0.5,2.9,0.8,4.4,0.9C274,453.8,277.4,453.3,279.8,452.2z"/>
<path id="D612" class="st0" d="M233,269.5c1.9,1.9,4,5,1.4,7.3c-1.9,1.7-0.2,5.6,0.7,7.4c-0.1,0-0.1,0.1-0.2,0.1
	c-0.7,0.4-1.7,0.7-2.4,1.2c-0.5,0.3-0.9,0.7-1,1.3c-0.3,1.2,0.1,2.5,0.1,3.8l0,0c0,0.4-0.1,0.9-0.2,1.3c1,0.4,2.2,0.3,3.2,0.4
	c1.5,0.1,2.6,1.2,4,1.4c0.2-0.6,0.5-1,0.9-1.5c1.9-1.9,6-2.6,8.1-1.2c2.2,1.5,3.6,4,5.2,6.3l0,0c0.7,0.9,1.4,1.9,2.2,2.6l0.1,0.1
	c0.1,0.1,0.2,0.2,0.4,0.3l0.1,0.1c0.1,0.1,0.2,0.2,0.4,0.3c0.3-0.6,0.6-1,0.5-1.8l0,0l0,0c1.9-0.2,3.4-1.9,5.3-1.7
	c1.5,0.2,2.4,1.7,3.4,2.7c1.4,1.4,2.6,0.7,3.7,0c0.3-0.2,0.5-0.4,0.7-0.5c0.7-0.5,1.2-0.7,1.6,0.3c0.6,1.6-0.6,3.3,0.2,4.9
	c0.7,1.4,2,2.6,3.5,3.3c1,0.5,1.8,0.3,2.4-0.3c0.4-0.3,0.7-0.8,0.9-1.4c1-2.1-0.6-3-0.6-4.9l0,0l0,0c2-0.1,2.9,0.2,3.8,1.9
	c0.5,0.9,1.1,1.5,1.8,2.3c1.1,1.2,0.4,2.6,1,4c0.4,1-1.9,2.5-0.7,4.1c1.6,2.2,3.2,3.2,2.5,6.3c-0.3,1.2-6.1,8.8-0.4,5.9
	c1.5-0.8,2.3-0.3,3.1,0.8c1,0,2,0.1,3.1,0.3c4.1,0.7,7.8,1.3,12,0.6c4.2-0.7,8.5-2.3,12.7-1.2c4,1.1,7.2,3.7,11.2,4.7
	c2,0.5,3.2,1.7,5,2.5l0,0l0,0c1.2-0.6,3.1-0.6,3.9-0.5c3.5,0.6,5.2,3.1,8.2,4.6c2.1,1,5.1-2.9,6.6-4c0.4-0.3,0.8-0.6,1.2-0.9l0,0
	c0-0.1,0-0.3,0.1-0.4c-2.1-0.9-5-0.6-5.7-2.8c-0.7-2.2-1.6-3.6-1.6-5.4c0-0.6,0.1-1.3,0.4-2c0.1-0.3,0.1-0.6,0.1-0.8
	c0-1.1-0.9-1.9-1.5-2.8c-0.4-0.6-0.6-1.2-0.6-1.9c0-0.9,0.3-1.7,0.5-2.5c0.3-0.8,0.4-1.5,0.4-2.2c-0.1-4.7-6.5-6.5-10-9.7
	c-2.8-2.5-4.8-5.6-7.5-8.2c-2-1.9-3.8-4.9-6-6.4l0,0l0,0c0.6-1.3,1.9-2.3,1.9-3.8c0-0.1,0-0.2,0-0.3c-0.1-1-1.2-1.8-0.6-2.6
	c0-0.1,0-0.2,0-0.3c0.1-0.8,2-2.5,2.4-3.4c1-2.1,0.6-4.8,1.7-6.7c1-1.7,2.8-1.5,1.5-3.8c-1.3-2.2,1.3-5.4,0.9-8
	c-1.7,0.6-4,2-5.9,1.6c-0.2,0-0.4-0.1-0.6-0.2c-2.9-1.4-1.2-6.9-1.2-9.4c-0.1-3.8,1.8-7.1,2-10.8c0.2-3.4-2.4-3.6-5.1-3.6l0,0
	c-2.3,0-3,0.1-2.2-2.1c0.7-1.9,1.5-3.8,2.3-5.6c0.6-1.5,1.2-6.2,0.4-7.8c-0.3-0.7-0.8-1.2-1.3-1.8c-3.4,0.6-6.9,1.1-10.4,1.1
	c-2.3,0-4.8-0.3-7,0.1c-1.2,0.2-2.2,1.3-3.4,1c-0.4,1.1-0.2,3.3-1.5,3.9c-1.3,0.6-2.3,0.4-2.4,2.2c-0.3,3.6-1.1,6.9-2.1,10.4
	c-1.2,4-2.1,4.2-6,2.6c-3.1-1.4-4.2,1.8-7.1,1.5c-2.8-0.3-4.5-3.1-6.9-4.3c-1.3-0.7-2.9-0.7-4,0.4c-1.2,1.2-3.1,0.9-4.6,0.8
	c-1.9-0.1-13.7,1.1-13.1,3.7c0.4,2.1,1.5,4.6-1.7,2.9c-2.6-1.4-4.7-4-6.4-6.4c-1.8-2.7-4.1-4.1-7.4-2.7c-1.2,0.5-2,1.8-3.2,2.2
	c-0.9,0.3-2.1-0.2-3-0.1c-2.2,0.1-5.5,0.5-6.9,2.5c-0.9,1.4-1,3-2,4.4c-1.1,1.5-1.8,2.9-2.2,4.7c-0.4,2.1-3.5,12.3-0.1,13.4
	c-0.4,0.6-0.9,0.9-1.3,1.2c0.2,0.1,0.5,0.3,0.7,0.4C221.1,267.3,228.4,264.9,233,269.5z"/>
<path id="D792" class="st0" d="M546.1,228C546.2,228,546.1,227.9,546.1,228c-1-0.1-2.1-0.4-3.2-0.7c-1.1-0.3-2.2-0.7-3.5-1.2
	c-2.4-1-5.1-2.2-8.3-3.6c-0.4-0.3-0.8-0.7-1.2-1c-0.3-0.4-0.6-0.7-0.8-1.1c-0.2-0.4-0.4-0.7-0.4-1s-0.1-0.6-0.1-0.9
	c0-0.1,0.1-0.2,0.2-0.2c0.1-0.1,0.2-0.1,0.4-0.1c0.3,0,0.6,0,0.6,0.1c0,0,0.5,0.2,1.1,0.4c0.3,0.1,0.6,0.1,1,0.2c0.3,0,0.6,0,0.9,0
	c0-0.1-0.1-0.5-0.4-1s-0.7-1.2-1.2-1.9c-0.4-0.7-0.8-1.5-1-2.2c-0.1-0.4-0.2-0.7-0.2-1s0-0.6,0.1-0.8c0.3-0.6,0.5-1.2,0.6-1.8
	s0.1-1,0-1.5c-0.1-0.2-0.1-0.4-0.3-0.6c-0.1-0.2-0.3-0.3-0.4-0.4c-0.2-0.1-0.4-0.1-0.6-0.1c-0.2,0-0.5,0-0.8,0.1
	c-0.7,0.1-1.3,0.3-1.8,0.3c-0.5,0.1-0.9,0.1-1.3,0c-0.4,0-0.7-0.1-1.2-0.3c-0.4-0.1-0.9-0.4-1.5-0.7c-0.8-0.4-1.3-0.8-1.7-1.1
	s-0.6-0.7-0.8-1s-0.4-0.7-0.6-1.2c-0.2-0.4-0.5-0.9-0.8-1.3c-0.9,0.7-1.6,1.2-2.4,1.5c-1,0.4-2.1,0.7-3.6,1.3
	c-0.1,0-0.2,0.1-0.3,0.1c-1.2,0.5-2.2,1.5-3.5,1.8c-0.4,0.1-0.9,0.2-1.5,0.1c-1.1-0.1-2.2-0.9-3.2-0.4l-0.2,0.1
	c-1.1,0.7-2.4,2-3.5,2.5c-0.9,0.4-1.6,0.3-2.1-0.8l0,0c-0.1-0.3-0.3-0.8-0.4-1.4c-0.1-0.6-0.2-0.9-0.4-1.2c0-0.1-0.1-0.1-0.1-0.1
	c-0.1-0.2-0.3-0.3-0.4-0.4c-1.5-0.6-4.1,1.8-5.9,0.6l0,0l0,0c-0.4-0.3-0.7-0.5-0.9-0.7c-0.2-0.3-0.4-0.5-0.5-0.7
	c-0.2-0.5-0.3-0.9-0.4-1.3c0-0.2-0.1-0.3-0.2-0.4c-0.1-0.1-0.2-0.2-0.4-0.3c-0.4-0.1-1-0.1-2,0.1c-1.1,0.2-2.3,0.4-3.5,0.7
	s-2.3,0.8-3.1,1.6c-1.3,1.2-2.3,2.9-3.8,3.9c-0.4,0.3-0.7,0.4-1.2,0.6l-0.3,0.1l0,0c-1.6,0.4-3.4,0.2-5,0.5
	c-2.4,0.4-4.7,1.7-7.1,2.2c-2.5,0.5-5,0.7-7.4,1.1c-0.1,0-0.3,0.1-0.5,0.1c-0.8,0.3-2,0.9-3.2,1.4c-0.2,0.1-0.5,0.1-0.7,0.2
	c-0.1,0-0.2,0.1-0.3,0.1c-0.3,0.1-0.5,0.3-0.7,0.6c-0.1,0.1-0.1,0.3-0.1,0.6s0,0.5,0.1,0.8c0,0.1,0,0.2,0,0.3
	c0.1,0.6,0.2,1.2,0.3,1.8c0.2,1.7,2.3,3.8,1.2,5.4c-1.1,0.2-2,1-3.1,1.3c-1.4,0.4-2.8,0.3-4.2,0.7c-1.3,0.4-4.4,1.3-3.5,3.3
	c0.1,0,0.3,0.1,0.4,0.1h0.1c0.7-0.2,1.5-0.3,2.3-0.3h0.2h0.1c0.4,0,0.7,0.1,1.1,0.3c0.4,0.1,0.7,0.3,1,0.4c0.3,0.1,0.7,0.3,1,0.4
	c0.3,0.1,0.7,0.2,1.1,0.3c0,0.7,0,1.3-0.1,1.8s-0.1,1-0.3,1.4c-0.3,0.9-0.7,1.7-1.2,2.9l0,0l0,0c-0.5,0-0.9,0.2-1.2,0.4
	c-0.3,0.2-0.4,0.5-0.6,0.9l0,0c-0.1,0.4-0.3,0.7-0.4,1.1l0,0l0,0c-0.1,0.3-0.3,0.7-0.5,0.9l0,0l0,0c-0.7,0.7-1.5,0.3-2.2,1.2
	c-0.3,0.4-0.5,0.9-0.6,1.3c-0.1,0.5-0.1,1-0.1,1.5c0,1,0.1,2.1,0.3,3.2c0.1,1.1,0.4,2.2,0.7,3.3c0.3,1.1,0.6,2.2,1,3.2
	s0.8,2,1.2,2.9c0.1,0,0.3,0.1,0.5,0.1c0.3,0,0.6,0,0.8-0.1c0.1-2.9,0.1-4.5,2-5c0,0,0,0,0.1,0c0.3-0.1,0.6-0.1,0.9-0.1
	c0.5,0,1.1,0,1.8,0.1c0.2,0,0.4,0,0.7,0c0.6,0,1.2,0,1.8-0.2s1.2-0.3,1.8-0.4c0.6-0.1,1.2-0.3,1.8-0.4c0.6-0.1,1.2-0.2,1.8-0.2
	c0.4,0,0.9,0.1,1.3,0.2s0.9,0.3,1.3,0.6s0.7,0.6,0.9,0.9c0.2,0.3,0.3,0.7,0.3,1c0,0.4,0,0.8-0.1,1.2s-0.2,0.8-0.4,1.3
	c-0.3,0.9-0.7,1.7-1.1,2.6c-0.1,0.4-0.3,0.8-0.4,1.2c-0.1,0.4-0.1,0.7-0.1,1.1c0,0.5,0.1,0.9,0.3,1.2c0.1,0.3,0.4,0.6,0.6,0.8
	c0.5,0.5,1.2,0.8,1.9,1.3c0.3,0.2,0.4,0.4,0.6,0.6c0.1,0.2,0.3,0.4,0.4,0.6c0.2,0.4,0.3,0.9,0.4,1.4c0.1,0.9,0,1.8,0.2,2.3
	c0.1,0.3,0.3,0.5,0.6,0.8c0.3,0.3,0.6,0.6,1,0.8c0.7,0.5,1.4,0.9,1.5,1c0.4,0.4,0.7,0.7,0.9,1.2c0.3,0.4,0.5,0.8,0.7,1.3
	c0.3,0,0.5,0.1,0.8,0.1h0.1h0.1c0.3,0.1,0.6,0.3,0.9,0.6c0.4,0.4,0.8,0.8,1.2,1.2c0.5-0.2,1.1-0.3,1.7-0.5c0.1,0,0.1-0.1,0.3-0.1
	h0.1c0.6-0.1,1.2-0.3,1.8-0.7c2.3-1.3,0.4-4.4,2.4-5.9c0.6-0.4,1.1-0.7,1.7-1c0,0,0.1,0,0.1-0.1c0.6-0.3,1.1-0.4,1.7-0.6
	c1.1-0.3,2.2-0.5,3.2-0.8c0.5-0.1,0.9-0.3,1.3-0.5c1.3-0.7,2.2-1.8,2.7-4.2c0,0,0.1,0,0.1,0.1V262l0.3,0.2c0.6,0.4,1.1,0.9,1.6,1.3
	c0.5,0.5,1,0.9,1.6,1.3c0.3,0.2,0.6,0.3,0.9,0.4s0.7,0.2,1.1,0.2c0.5,0,0.9-0.1,1.2-0.3c1-0.6,1.3-1.8,0.2-2.4
	c-0.2-0.1-0.5-0.2-0.8-0.3c-0.1-0.6,0.3-1.3,0.9-1.7l0,0c0.3-0.2,0.6-0.4,0.9-0.4c0.3-0.1,0.6-0.1,0.9-0.1c0,0.3,0,0.7,0.1,1
	s0.2,0.6,0.4,0.9c0.2,0.3,0.4,0.5,0.7,0.8c0.3,0.2,0.6,0.4,0.9,0.7c0.4,0.3,0.9,0.5,1.3,0.7c0.5,0.2,1,0.4,1.5,0.6
	c0.4,0.1,0.9,0.2,1.3,0.3c0.3,0,0.5,0.1,0.7,0.1c0.4,0.1,0.9,0.1,1.3,0.1c0.6,0,1.1,0,1.6,0s1-0.1,1.4-0.2s0.9-0.2,1.2-0.4
	c0.3-0.1,0.6-0.4,0.9-0.6c0.5-0.6,1.2-1.2,2-1.7c0.8-0.6,1.7-1.1,2.6-1.6c0.9-0.5,1.9-0.9,2.8-1.2c0.4-0.1,0.9-0.3,1.3-0.3
	c0.4-0.1,0.9-0.1,1.2-0.1c0.4,0,0.8,0.1,1.2,0.2s0.7,0.3,1.1,0.4c0.4,0.1,0.7,0.3,1.1,0.4c0.4,0.1,0.7,0.2,1.1,0.2
	c0.4,0,0.7-0.1,1-0.2s0.6-0.3,1-0.5c0.6-0.4,1.2-0.9,1.9-1.2c0.8-0.4,1.6-0.7,2.5-1c0.4-0.1,0.8-0.3,1.2-0.5s0.8-0.4,1.2-0.7
	c0.5-0.4,1.1-0.8,1.6-1.1c0.3-0.1,0.6-0.3,0.9-0.3s0.6-0.1,1-0.1c0.2,0,0.4,0,0.7,0.1s0.5,0.2,0.9,0.4c0.6,0.3,1.3,0.7,1.9,1
	c0.3,0.1,0.7,0.3,1,0.4s0.6,0.2,0.9,0.2c0.3,0,0.5,0,0.7-0.1s0.3-0.3,0.4-0.6c0.8-2.2-0.7-5-1-7.1c-0.1-0.9-0.9-2.3-0.5-3.2
	c0.1-0.3,0.3-0.5,0.6-0.6c0,0,0,0,0.1-0.1c0.3-0.1,0.5-0.2,0.8-0.3s0.6-0.1,0.9-0.3c0.2-0.1,0.4-0.2,0.6-0.4
	c-1.1-1.4-3.5-1.7-3.7-3.7c-0.1-1.7,2-2.3,2.3-3.8l0,0c0,0,0,0,0-0.1c0.8,0.1,1.5,0,2-0.1c0.3-0.1,0.4-0.1,0.6-0.3
	c0.1-0.1,0.3-0.2,0.4-0.3C548.4,234.3,545.6,230.1,546.1,228L546.1,228z"/>
<path id="D604" class="st0" d="M599.7,78.3c-0.4,0-0.7,0.1-1,0.3c0.5,0.7,0.7,1.4,0.8,2.2c0.7,0.3,2.1,0.6,3.1,1.2
	c0.9,0.5,1.6,1.2,1.2,2.2c-1.8,0.9-3.9,0.6-5.6,0.1c-0.1,0.4,0,0.7,0.2,1c0.2,0.4,0.5,0.7,0.8,1c0.2,0.3,0.4,0.6,0.5,0.9
	c-1,0.8-2.9,3-4.1,3.2c-0.8,0.1-1.6-0.1-2.5-0.5s-1.8-1-2.5-1.6l0,0l0,0c-0.1-0.1-0.1-0.1-0.2-0.2l-0.2-0.2
	c-1.8-1.9-1.4-5.5-3.1-7.4c-0.3-0.3-0.6-0.5-0.9-0.7c-0.5-0.3-1.1-0.3-1.7-0.1c-2.6,0.7-6.1,4.3-7.9,5.1c-1.8,0.7-3.6,1.4-5.3,2.4
	c-2.2,1.4-1.3,2.6-1.8,4.8c-1.5,0.2-6.1,2-6.7,3.2c-1.6-0.1-3.9,0.3-4.5,2.2c-0.3,0.9,0,1.6,0.1,2.3l0,0c0.1,0.7,0.3,1.5-0.3,2.3
	c-0.2,0.3-0.4,0.5-0.5,0.7c1.8,1.2,3.6,2.3,5.5,2.6c2.5,0.7,6.2,0.7,6.6,3.8c0,0.1,0,0.2,0,0.3c0,0.3,0,0.6,0,0.9
	c0,0.4,0.1,0.8,0.5,1c1.9,1.2,3.8,0.2,5.1-1.1c-0.1,0.1-0.2,0.3-0.2,0.4c0.1,1.4,6.4,3.5,6.6,4.3c0.1,0.3-1.9,1.4-2.1,1.8
	c-0.7,1.6,0.8,3.4-0.3,5c-0.8,1.1-2.7,1-3.9,1.4c-2.4,0.7-4.4,2.5-7,1.7c-0.6,1.7-1.1,3.1-2,4.6c2.8,2,2.3,3.6,3.2,6.5
	c2.5,0.1,5.1-0.1,7.6,0.1c-0.1,2.5,1.8,4.3,1.8,6.7c0,0.1,0,0.3,0,0.5c1.8,0,3,0.3,4.4,1.3c-1.2,0.8-4.6,1.5-4.5,3.4
	c0-0.2,0-0.4,0.1-0.7c0.1-0.2,0.2-0.4,0.4-0.6c0.3-0.3,0.8-0.6,1.3-0.9c1-0.5,2.2-0.9,2.8-1.3c0.4,0,0.9-0.2,1.6-0.6
	s1.5-0.9,2.5-1.6c-0.5-1.2-1-2.3-1.5-3.2c-0.5-1-0.9-1.8-1.3-2.6c-0.4-0.7-0.7-1.4-0.8-2c-0.1-0.3-0.1-0.5-0.1-0.8
	c0-0.2,0-0.4,0.1-0.6c0.1-0.3,0.3-0.6,0.4-0.8s0.3-0.4,0.6-0.6c0.2-0.1,0.4-0.3,0.7-0.4c0.3-0.1,0.6-0.2,1-0.3
	c0.7-0.1,1.7-0.3,3-0.4c1.3-0.1,2.9-0.3,4.9-0.4c0.3,0,0.9-0.2,1.4-0.4c0.6-0.2,1.2-0.5,1.9-0.8s1.3-0.6,1.9-0.8
	c0.6-0.2,1.2-0.4,1.6-0.4c-0.3-0.3-0.5-0.7-0.6-1s-0.3-0.6-0.3-1c-0.1-0.3-0.1-0.6-0.1-0.9s0.1-0.6,0.1-0.9c0.1-0.6,0.4-1.2,0.7-1.8
	c0.3-0.6,0.6-1.2,0.9-1.7c0.3,0.1,0.6,0.2,0.9,0.3s0.6,0.1,0.9,0.1c0.3,0,0.7-0.1,1.1-0.3s1-0.4,1.6-0.7c-0.3-0.9-0.7-1.7-1.2-2.5
	c-0.2-0.4-0.5-0.8-0.8-1.2c-0.3-0.4-0.6-0.7-1-1l-7.6-3.8c0.3,0.1,0.7,0,1.2-0.1c0.4-0.1,0.9-0.4,1.4-0.6s1-0.6,1.5-0.8
	c0.5-0.2,1-0.4,1.6-0.6c0.6-0.1,1.4-0.1,2.2,0s1.6,0.3,2.3,0.4c0.7,0.2,1.4,0.4,2,0.5s0.9,0.2,1.1,0.2c0.4-0.1,0.9-0.2,1.2-0.3
	s0.7-0.3,1-0.4c0.6-0.3,1.1-0.8,1.6-1.2c0.5-0.4,0.9-0.9,1.3-1.3c0.4-0.4,0.9-0.7,1.4-0.9c0.6-0.1,1-0.3,1.4-0.6
	c0.4-0.2,0.8-0.5,1.1-0.7c0.3-0.3,0.6-0.6,0.9-0.9s0.5-0.7,0.7-1c0.4-0.7,0.8-1.4,1.3-2.1c0.2-0.3,0.4-0.7,0.7-1s0.6-0.6,0.9-0.9
	c0.4-0.3,0.9-0.6,1.3-0.8c0.4-0.2,0.8-0.4,1.2-0.5c0.8-0.3,1.5-0.4,2.1-0.7c0.3-0.1,0.6-0.2,0.9-0.3c0.3-0.1,0.6-0.3,0.8-0.5
	c0.3-0.2,0.5-0.4,0.7-0.7c0.2-0.3,0.4-0.6,0.6-1l6.5-0.8c-0.1-0.1-0.1-0.4-0.1-0.7c0-0.3,0.1-0.6,0.1-0.7c0-0.5,0.1-0.9,0-1.3
	c0-0.1-0.1-0.3-0.2-0.4s-0.3-0.3-0.6-0.4c0.3-0.2,0.5-0.4,0.8-0.6c-0.7-0.1-1.2-0.2-1.8-0.2c-0.3,0-0.5,0-0.8,0.1s-0.6,0.2-0.9,0.4
	c-0.6,0.3-1.1,0.7-1.6,0.8c-0.2,0.1-0.5,0.1-0.7,0c-0.3-0.1-0.6-0.3-0.9-0.5c-0.3-0.2-0.4-0.4-0.5-0.6s-0.1-0.4-0.1-0.7
	c0-0.2,0.1-0.4,0.2-0.7c0.1-0.2,0.3-0.5,0.5-0.7c0.2-0.3,0.4-0.4,0.6-0.5c0.1-0.1,0.3-0.3,0.3-0.6c0.1-0.5,0.1-0.7,0.1-0.9
	c0-0.2,0.1-0.4,0.4-0.8c0.4-0.5,0.7-0.9,0.9-1.3c0.1-0.2,0.2-0.4,0.3-0.7c0.1-0.3,0.1-0.5,0.1-0.9c0-0.2,0-0.6,0-0.9
	c0-0.4-0.1-0.7-0.1-0.9c-0.1-0.2-0.2-0.3-0.3-0.4s-0.1,0-0.2,0s-0.2,0.1-0.3,0.1s-0.3,0-0.4-0.2l-0.1-0.1c-0.6,0.2-1.2,0.5-1.8,0.7
	c-1.7,0.4-3.2-0.4-4.8-0.4c-2.2,0-4.5,0.3-6.7,0.5c-3.7,0.4-6.1-1.9-9.8-1.4c-1.7,0.3-3.3,0.3-5,0.3
	C602.4,78.9,600.9,78.3,599.7,78.3z"/>
<path id="D633" class="st0" d="M271.4,710.7c8-2.1,13.4,5.1,21.3,5.1c2,0,3.8-0.4,5.9,0.1c1.4,0.4,3,1,4.5,0.6
	c2.6-0.7,1.2-2.7,1.7-4.5c0.4-1.2,1.3-2.1,1.8-3.2c-0.6-0.2-1.1-0.4-1.6-0.6c-0.6-0.2-1.2-0.4-1.8-0.7c-0.7-0.3-1.1-0.6-1.3-0.9
	c-0.4-0.7,0.1-1.5,0-2.7c0-0.1,0-0.3,0-0.5c0-0.9,0.3-1.7,0.4-2.6l0,0c0.1-1.3-0.6-2.1-0.9-3.3c0-0.1,0-0.1,0-0.2
	c1.9-0.8,4.4-0.1,6.1-1.6c-3.1-4.2-6.2-7.8-6.7-13.3c-0.1-1.2,0.3-3.8-0.9-4.7c-0.9-0.6-2.1-0.5-3.2-0.6c-0.5,0-1-0.1-1.5-0.3
	c-4.7-1.8-0.9-7.2-4.4-9.4c-0.5-0.3-0.7-0.6-0.9-1c-0.5-1.2,0-2.7-1-3.8s-2.6-1.2-4-1.4c-2.4-0.3-3.6-1.5-5.7-2.3
	c-0.7-0.3-1.3-0.6-1.9-1c-1.4-0.9-2.8-1.8-4.2-2.2c-1.7-0.4-3.2-1.5-4.6-2.5c-0.1-0.1-0.3-0.2-0.4-0.3c-0.3-0.2-0.5-0.3-0.7-0.5
	c-0.1-0.1-0.3-0.1-0.4-0.2c0,0,0,0.1,0.1,0.1c1.3,2.8,0.4,9.9-3.9,8.8c-1.5-0.4-3.7-2.3-5-0.4c-1.5,2.2,0.7,4.1,2.4,5.2
	c-0.3,1.6-2.6,3.3-3.4,4.7c-0.7,1.2-1,2.6-1.8,3.8c-0.8,1.4-5.5,1.4-3.1,4.2c1.3,1.5,2,4.6-0.9,5.3c-2.2,0.5-4.6-0.6-4.5,2.8
	c0-0.7-2.5,0.6-2.6,1l0,0c5.3,4.4,10.2,9.1,16,13C262.8,702.8,272,706.6,271.4,710.7z"/>
<path id="D617" class="st0" d="M384.5,365.5c-1,1-2.2,1.7-2.6,3.2c-0.3,1.5,0.5,3.1-0.1,4.5c-0.5,1.2-1.8,1.6-1.9,3
	c-0.1,1.5,0.7,2.9,0.5,4.5c-0.2,1.8-0.9,3-0.2,4.8c0.3,0.9,0.9,2.4,0,3.2c-0.6,0.5-0.4,1.6-0.8,2.3c-0.7,1.2-2.2,2.5-2,4.1
	c1.8,1.2,2.6,2.3,5,2.3c0.9,0,2.2-0.2,3,0.3c0.3,0.2,0.5,0.5,0.7,0.8l0,0c0.3,0.5,0.4,1.1,0.8,1.5c0.1,0,0.1,0.1,0.2,0.1
	c1.1,0.6,3.8-0.1,5-0.7c0.1,0,0.1-0.1,0.2-0.1c0.1-0.1,0.2-0.1,0.3-0.3c1.4-1.4,1.5-5.5,1.7-7.2c0.3-2.7,0.1-9.1,2.1-11.3
	c1.3-1.4,3,0.5,4.3,0.8c0.4,0.1,0.8,0.1,1.2,0c1.8-0.4,3.1-3,4.2-4.1c1.1,1.1,2.6,1.8,3.7,3c1.3,1.4,1.7,3.3,2.6,4.9
	c1.9,0.3,3.4-1.5,5.1-1.9c2.5-0.6,4.8-1.3,7.2-2.1c0.1,0,0.1,0,0.2-0.1c2.3-1,7.4-6.1,6.1-8.7c-0.7-1.3-1.8-1.8-2-3.1v-0.1
	c0-0.1,0-0.2,0-0.3c0,0,0,0,0-0.1c0-0.2,0-0.5,0-0.7c0.2,0,0.4,0,0.6,0c1.3-0.3,2.2-1.9,2.2-3.2l0,0c0-0.3,0-0.6-0.1-0.9
	c-0.4-1.5-1.8-2.5-2.8-3.7l-0.1-0.1c-1.1-1.3-1.5-1.8-2.2-2c-0.5-0.2-1.2-0.3-2.3-0.5c-1.9-0.4-3.3-2.1-4.9-3.1c0.8-2.4-0.3-4-2.1-5
	c-2.9-1.6-7.8-1.8-10.1-2c-2.4-0.3-4.8-0.5-7.2-0.6c-1.4,0-2.9,0-4.3,0.3c-1.8,0.3-3.8,1.6-5.8,2.2c-0.2,0.1-0.4,0.1-0.6,0.1
	c-1,0.2-1.9,0.1-2.8-0.4c-2.6-1.6-3.2-4-4-6.7c-0.1-0.3-0.1-0.5-0.2-0.7c-0.2-0.7-0.4-1.4-0.6-2.1c-0.7-2.3-1.5-4-3.8-5.9
	c-2.6-2-5-3.1-8.3-3.1c-1.5,0-3.4,0.4-4.9,0c-1.7-0.5-2.3-1.8-4.3-1.4c-2.3,0.5-5,2-7.2,3.5c-0.1,0.1-0.3,0.2-0.4,0.3l0,0
	c-0.4,0.3-0.9,0.6-1.2,0.9c-1.5,1.1-4.5,5-6.6,4c-2.9-1.5-4.7-4-8.2-4.6c-0.8-0.1-2.8-0.1-3.9,0.5l0,0l0,0c-0.1,0.1-0.3,0.1-0.3,0.2
	l0,0c0,0,0,0-0.1,0.1l0,0c0,0,0,0-0.1,0.1l0,0c0,0,0,0.1-0.1,0.1l0,0v0.1l0,0c-0.1,0.4,0,0.9,0.5,1.5c2.2,2.5,1.3,3.7-0.7,5.7
	c-0.1,0.1-0.1,0.1-0.2,0.2c-2.4,2.4,0.8,7.5,0.9,10.1c0,2.3-3.4,3.7-2.5,6c0.9,2.4,5.4,1.3,5.6,3.7c1.3,0.4,1.4,2.2,2.9,2.3
	c1,0.1,1.8-1.5,3.1-1.3c1.2,0.3,2,3.8,1.6,4.2c0,0,0,0-0.1,0c1.1,0,5.1,1.7,4.4,3.2c-0.1,0.1-0.1,0.2-0.2,0.3
	c-1.9,3.2-5.7-1.6-7.6-2.3c-1.2-0.4-4,0.9-4.8,2.3c-0.3,0.6-0.4,1.2,0,1.7c1.2,1.6,5.8,2.1,4.2,5.1l0,0l0,0c-0.5,1-2.4,2.2-3.2,3.5
	c-0.2,0.4-0.3,0.9-0.2,1.3l0,0l0,0l0,0l0,0c0,0.2,0.1,0.4,0.3,0.6c0.5,0.7,1.9,0.3,2.6,1c1,1,1.4,2.5,2.1,3.6
	c0.9,1.5,1.6,1.9,2.4,1.7c0.9-0.2,1.9-1.2,3.2-1.5c0.2-0.1,0.5-0.1,0.7-0.1c4-0.1,7.9,0.8,11.9,0.8c0.1-1.1,0-2.2,0.1-3.4l0,0l0,0
	c0.4,0,0.8,0,1.1,0c3.2-0.6,3.1-6.2,2.7-8.9c-2.7-0.1-5.4,0.6-8.1,0.4c-1.9-0.1-1.6-1.9-0.1-2.3c0.1,0,0.2,0,0.3-0.1
	c1.4-0.2,2-0.1,2.6-0.2c0.5-0.1,1-0.4,1.9-1.4c0.6-0.6,1.4-1,2.2-1.3c1.4-0.4,3-0.5,4.3-0.4c2.1,0.1,4,1.8,5.9,1.8
	c0.2,0,0.4,0,0.6-0.1c1.5-0.5,3-2.6,3.7-3.8c1.1-1.7,1-3.1,2.9-4.1c0.3-0.1,0.6-0.3,1-0.3C381.4,363.8,383.6,364.1,384.5,365.5z"/>
<path id="D607" class="st0" d="M334,192.2c1.8-1,2.4-6.9,2.7-8.8c0.7-3.5,4.7-2.9,6.5-5.3c1.8-2.5,0.5-6,0.7-8.9c0,0,3.7,0.8,4,0.9
	c1.9,0.4,3.3,0.4,4.6-1.3c1.3-1.8,1.2-4.1,2.3-5.9c1.4-2.3,1.2-2.5,1.2-5.1c-1.9-0.7-4.9-3.2-4.8-5.4c0.1-3.3-1.8-3.4-3.5-6
	c1.7-0.3,3.9-0.2,5.7-0.1l0,0l0,0c0.3,0.9,0.7,1.6,1.1,2.4c2,0.3,3.1-1.8,5.4-1.4l0,0l0,0c0.4,0.9,1.1,1.7,2,2
	c-0.2,1.2,0.6,1.7,1.6,2.2c0.4,0.2,0.9,0.4,1.3,0.6c0.3,0.1,0.6,0.3,0.8,0.5c0.6-1.5,1.8-1.7,2.9-1.3s2,1.6,2.2,2.9
	c0.6,0,1,0.1,1.5,0.2c3.3,0.8,4.7,3.5,5.6,7c0.7,2.5,2.9,3.4,4.3,5.3c0.3,0.5,0.7,0.8,1.2,1c0.9,0.4,2.1,0.5,3.1,0.9
	c0.1,0,0.2,0.1,0.3,0.1c0.2-1,1.3-1.3,2.2-1.2l0,0l0,0c0.1,3.3,1,3.4,2.8,5.9c0.7,1,0.9,2.3,1.7,3.3c0.7,0.8,1.8,1.2,2.4,2
	c1.4-3.7,5.9,1,7.7-0.8l0,0l0,0c0.9,1.4,0.9,3.2,1.8,4.5c0.4,0.6,1,1,1.7,1.2c0.8,0.2,1.7,0.3,2.5,0.6c0.3,0.1,0.7,0.3,1,0.4
	c-0.7,0.9-2.6,1-1.7,2.4c0.3,0,0.7,0.1,1.1,0.3c0,0,0,0,0.1,0s0,0,0.1,0h0.1h0.1h0.1c0.6,0.1,1.2,0.1,1.6-0.1c0.9-0.6,1.1-1.8,2.2-2
	c0.6-0.1,1.1,0,1.6,0.1c2.8,0.9,4.6,4.9,4.9,7.3c1.1,0,2,0.1,3,0.4c0.1,0,0.3,0.1,0.4,0.1c1-1.9,1.9-6.8,4.9-5.9
	c0.3,0.1,0.6,0.2,1,0.4c1.5-1.2,2.2-1.4,3.7-2l0,0l0,0c0.1,2,0.5,2.9,1.2,3.1c1.3,0.5,3.6-1,5.7-0.7c0,0,0,0,0-0.1
	c0-0.3,0.1-0.7,0.3-1c0-0.1,0.1-0.2,0.2-0.3c1-1.5,2.8-0.4,3.7-2.5c0.3-0.8,0.9-2,0.9-3.1c0-0.3-0.1-0.7-0.3-0.9
	c-0.3-0.4-0.5-0.8-0.6-1.1s0-0.6,0.3-0.8c-0.5-0.5-1-0.9-1.8-1.1c-2-0.7-5.4,0.3-6.6-1.8l0,0l0,0c0.6-0.7,0.8-1.6,0.7-2.8
	c0-0.9-0.1-1.9-0.1-2.8c0-0.9,0.1-1.8,0.4-2.3c0.2,0,0.4-0.1,0.6-0.1c0.1-0.2,0.1-0.5,0.1-0.7c0.1-3.5-7.7-6.7-10.1-7.5
	c-1.5-0.4-3.7-1-5.2-0.1c-0.7,0.4-2,1.9-2.8,1.8c-1.1-0.1-1.6-1.3-1.5-2.5c0-1.4,0.6-2.9,1.6-3.3c-1.3-2.7-4.5-2.5-5.8-4.7
	c-0.4-0.7-0.6-1.5-0.7-2.3c-0.2-1.8,0.1-3.8,0.1-5.5v-0.1c-0.1-3.5-0.4-7.9-1.7-11.1c-0.1-0.2-0.2-0.4-0.3-0.6l0,0l0,0
	c-2.9-0.3-5.7-1-8-2.7c-2-1.5-4.5-1.6-6.6-2.7c-2.3-1.3-3.7-2.2-6.3-2.8c0.2-2.4,1.3-3.1,0.3-5.7c-0.7-1.6-1.1-2.8-2.9-3.2
	c-2.1-0.5-4.1-1.5-6.3-2c-1.8-0.4-3.4-0.4-4.8-1.7c-3.2-2.7-5.6-5.5-9.4-7.5c-4.5-2.3-5.4,3.9-5.6,7c-2.4,0.9-5.5-4.3-7.2-5.4
	c-2.2-1.5-1.4,2.1-3.2,1.9c-1.2-0.1-3.4-1.7-2.3-3.1c1-1.4,2.6-2.8,0.1-4.1c-1.6-0.8-3.4,0.2-4.9,0.7c-1.9,0.6-3.9,0.4-5.7,1.3
	c-1.3,0.7-2.2,2.4-3.9,2.3c-0.4,1.3,1,2.9,0.8,4.4c-0.1,1.2-0.6,2.4-1.1,3.5c-1,2.2-2.6,4.4-3.1,6.8c-0.4,1.8-0.2,5.4-2.2,6.3
	c-1.9,0.9-2.9,0.7-4.7,0.6c-1.4,4.2-5.1,1.2-7.3,0.1c-3.2-1.5-5.1,1.3-8,2.1c-0.2,3.8-1.2,7.2-2,10.9c-0.9,3.8-0.3,4.8,1.9,7.6
	c1.6,2,0.2,4.1,3.2,5.5c2.4,1.1,1.3,3.7,0.8,5.8c-0.7,2.8-0.3,6-2,8.5c-1.6,2.3-4.3,3.4-6.2,5.4c-1.7,1.8-2.9,5.9-5.9,5.4
	c-3.3-0.5-6,0.9-7.2,4.2c-0.4,1.3,0.3,1,0.9,2.2c0.5,1.2-0.1,2.2,1.2,3.1c2.5,1.8,6.8-0.9,9.5-1.1c3.4-0.3,7,0.2,10.2,1.4
	c2.8,1,5.9,0.6,8.6,1.9c1.2,0.6,2.2,1.4,3.1,2.4h0.1c0.6-0.1,1.2-0.1,1.9,0.1c1.7,0.4,3.4,1.8,4.9,2
	C333.2,192.5,333.6,192.5,334,192.2z"/>
<path id="D627" class="st0" d="M369.4,504.7c1.1-2.8,3.8-3.7,6.7-4.1c-0.3-0.4-0.8-0.8-1.2-1.1c0.9-0.2,2,0,2.9-0.2
	c0-0.9,0.5-3.4,1.7-3.3c0.3,0,0.6,0.2,0.9,0.5c0.7,0.7,1.4,1.3,2,1.3c0.5,0,1-0.3,1.5-1.1c2-3,1.2-4.8-1.1-4.9
	c-0.8,0-1.7,0.1-2.8,0.5c-0.3,0.1-0.9,0.2-1.5,0.2c-1.5,0-3.3-0.5-2-2c1.6-1.9,3.7-1.9,5.9-2.5c2.3-0.6,3.4-1.9,5.8-1.9
	c0.1,0,0.3,0,0.5,0c0.9,0,1.8,0.1,2.6,0.1c0.3,0,0.6,0,0.9,0c1.7,0,3-1.1,4.6-1.5c3.9-0.9,4.8-4.4,7.9-7c0.8-0.6,3.8-1.5,4.8-1.7
	c2.2-0.6,4.6-0.8,6.6-2c4.2-2.4,2.1-5.8,0.1-8.8c-2.8-4.1,4-5.1,2.7-9.2c-1.5-4.8-7-2.5-8.5-7.2c-0.9-2.5,1-5,1.3-7.5
	c0.4-3,0.2-4.9-1.9-7c-0.9-0.9-1.6-2.1-2.1-3.5c-1.3,0.3-2.6,0.5-4,0.4c-0.2,0-0.4,0-0.6,0c-1.6,3.8-0.6,8.5-3.7,11.7
	c-0.9,1-4.9,2.9-4.4,4.4c0.2,0.7,1,1,1.2,1.7c0.4,1.4-0.3,2.9-0.8,4.1c-1.2,2.6-2.4,5.5-4.6,6.7c-1.2,0.6-2.6,0.9-4.5,0.3
	c-3.5-0.9-4.7-8.6-5.9-11.5c-2-4.9-5.9-3.2-10.1-2.7c-2.8,0.3-5.3,1.7-8,2.5c-1,0.3-1.7,1-2.3,1.9l0,0c-0.7,1-1.3,2.3-2.3,3
	c-1.1,0.9-2.8,0.9-3.6,1.8c-0.3,0.3-0.4,0.8-0.4,1.4c0,0.8-0.1,1.4-0.3,1.9c-0.4,1.1-1.4,1.6-3.2,1.8c-2.6,0.2-5.3-0.2-7.8,0.3
	c-2.4,0.5-4.6,1.9-6.9,2.7c-1.9,0.7-4.1,0.7-5.9,1.5c-0.7,0.3-3.4,2.9-3.6,2.8c-0.2-0.2-0.4-0.4-0.5-0.6c0,0.3-0.2,0.7-0.5,1
	c-1.6,1.5-1.8,2.8-2,5c-0.1,1-0.2,5.3-1.9,5.3c-2,0.1-0.3,2.4-1.7,3.4c-2.3,1.6-2.4,2.8-3.7,5.2c-2.3,4.3-2.2,10.7-5.9,14.3
	c-1.5,1.5-3.6,1.9-4.7,3.7c-1.4,2.5-2,5.4-3.5,7.8c-2.9,4.7-6.7,9.1-9.1,14.1l0,0l0,0l0,0c0,0.1-0.1,0.2-0.1,0.3
	c0.6-0.1,1.3-0.3,1.9-0.5c0.1,0,0.2-0.1,0.3-0.1c0.9-0.3,1.8-0.7,2.6-1.3c2-1.5,1.4-3.3,2.3-5.3c2.1-4.8,6.3-3.1,10-4.6
	c2.1-0.9,0.3-6,3.7-5.9c0.2,0,0.5,0,0.7,0.1c1.8,0.3,2.9,2.1,4.8,2.1c1.6,0,5.3-1.5,6.5-2.6l0,0l0,0c-0.1,0.1,3.5,1.6,3.8,1.8
	c2.5,1,1.5,2.8,2.5,4.7c0.7,1.4,3.7,0.9,5.2,0.8l0,0h0.1h0.1l0,0l0,0c3.7,0,7.4,0.2,10.7,1.9c1.2-1.4,2.5-2.4,4.2-2.4
	c0.3,0,0.5,0,0.8,0c1.4,0.2,3.4,1.5,5,1.2c0.4-0.1,0.7-0.2,1-0.4c1.6-1.3,2.1-2,4.2-2.6c1.6-0.5,2-1.6,3.4-1.8c0.3,0,0.7,0,1.1,0.1
	c0.3,0,0.4,0.1,0.7,0.1C371.4,512.3,368.7,506.5,369.4,504.7z"/>
<path id="D796" class="st0" d="M557.5,320.8C557.5,320.8,557.5,320.7,557.5,320.8C557.5,320.7,557.5,320.8,557.5,320.8
	c-0.3-0.2-0.5-0.1-0.8,0.2c-0.7,0.9-1.4,3.4-1.5,3.8c-0.7,2.8,1.6,5.4,1.2,8.3l0,0l0,0c-0.7,0-1.1,0.2-1.4,0.5c-0.9,0.9-0.3,2.7,0,4
	c0.7,2.7-1.4,3.6-2.1,5.9c-0.1,0.3-0.1,0.5-0.1,0.7c1.6,0.6,3.3,1,5.1,0.7c2.4-0.4,4.8,0.1,6.9-1.2c1.9-1.2,3.3-1.8,4.8-3.2
	c0.2-0.2,0.4-0.4,0.6-0.6c0-0.1,0.1-0.1,0.1-0.1c1.8-1.8,5.1-1.7,7.2-0.4c1.6,1,3.4,0.4,5,1.2c3.1-2.4,4.7,1.5,7.2,1.4
	c0.4-2.8,1.7-3,4.1-1.5c0.9,0.6,1.9,1.3,2.9,2c-0.1-2-0.2-3.9,0-6c0.9-8.3,1-17.2-0.4-25.5c-0.7-3.8-1.9-7.6-1.6-11.5
	c0.3-3.6,0.9-5.2-2.9-6.3c0.9-0.4,2.6-0.6,2.5-1.9c0-1.9-1.3-3.7-2.1-5.3c0-0.1-0.1-0.1-0.1-0.2c-0.7,1.7-1,3.5-2.2,4.9
	c-1.8,2.1-5.2,3.7-7.6,4.9c-1.4,0.7-13.4,4.1-12.9,6.8c0.3,0.1,0.5,0.3,0.7,0.6c0.7,1.2,0.4,4.1,0.1,5.1c-1.1,0.4-2.7,0.6-3.7-0.3
	c-1.9,1.2-2.3,3.2-4.6,4.2c-2.5,1-5.1,2-7.4,3.5c-0.7,0.5-1.4,1-1.9,1.6C554.8,317.6,556,319.6,557.5,320.8z"/>
<path id="D622" class="st0" d="M578.2,430.4c0.4,0.7,0.5,1.3,0.6,2.2c0.1,0,0.3,0,0.5,0.1c1.9,0.4,5.9,1.6,7.7,0.4
	c1.3-0.9-3.3-3.4-4-3.9c0,0.3-0.1,0.6-0.1,0.9C581.2,430.3,579.7,430.6,578.2,430.4 M592.3,358.3c-0.4-0.6-0.8-0.6-1-1.3
	c-0.2-0.7,0.9-0.9,0.5-1.8c-0.6-1.2-2.6-0.7-3.7-0.8c-0.1-0.8,0-1.6-0.1-2.4c-1-0.2-1.6,0.6-1.9,1.4c-0.8-1.3-3.7-1.6-5.6-2.5
	c-3.2,0.6-6.4,0.7-8,4.6c-0.9,2-2.3,2.7-0.7,4.7c1.5,1.9-1.3,3.4-0.7,5.3c2.6-0.1,5-2,7.7-2c1,0,1.6,0.2,1.9,0.6
	c1.1,1.3-1.6,4.2-2.2,5.4c-0.9,1.6-1.3,3.9-1.7,5.7c-0.5,2.5-1.5,1.4-2.9,2.6c-1.3,1.1,1.3,3.2-0.1,5.2c-0.7,1-2.8,2.3-2.9,3.6
	c0,0.4,0.2,0.7,0.5,1c0.4,0.4,1,0.7,1.4,1.2c0.2,0.3,0.4,0.6,0.4,0.9c0.2,1.9,0.7,3.2,1.1,5.1c0.3,1.5-1.5,2.1-1.2,3.4
	c0,0.2,0.1,0.4,0.3,0.6c1.1,1.2,4.8-0.1,6.1,1.5c0.2,0.3,0.3,0.6,0.4,1c0.1,1-1.6,3.5-1.8,4.7c-0.4,1.9-0.9,3.8-1.2,5.7
	c-1.6-0.1-6.2,0.2-7,2c-1.3,2.8-1.2,7.3,0.4,10c0.3,0.4,0.6,0.8,0.9,1.2c0.1,0.1,0.1,0.1,0.2,0.2s0.1,0.1,0.2,0.2
	c1.2,1.2,2.8,2.1,4.2,3.1c0.9,0.3,1.7,0.6,2.7,0.6c1.5,0,2.8-0.4,4.3-0.5c1.6-0.1,1.7,1.7,3.1,1.6c1.6-0.1,1.9,2.1,2.9,2.9
	c0.7,0.6,1.8,0.7,2.7,0.8c2.2,0.2,4.9,0,6.7-1.4c2.8-2,0.5-7,0.9-9.9c0.6-3.8-0.7-7.5-0.6-11.4c0.2-8.6-0.1-17.5-0.8-26.1
	c-0.5-7.5-1.2-14.7-1.3-22.1c-0.5-0.1-0.9-0.2-1.2-0.3C593.8,362.1,593,359.3,592.3,358.3L592.3,358.3z"/>
<path id="D611" class="st0" d="M352.7,332.4c0.1,0,0.2,0.1,0.3,0.1c2.2-1.5,4.9-3,7.2-3.5c2-0.4,2.6,0.9,4.3,1.4
	c1.5,0.4,3.4,0,4.9,0c3.3,0,5.8,1.1,8.3,3.1c2.3,1.9,3.2,3.6,3.8,5.9c0.7-0.5,1.4-1,2-1.5c0.1,0,0.1-0.1,0.2-0.1
	c0.7-0.9-1.2-2.7-1.1-3.5c0-0.6,0.1-1.1,0.3-1.4c1.3-2,5.8,1.3,6.9-0.6c0.1-0.2,0.2-0.6,0.3-1c0.1-1.3,0.3-2.3,0.6-2.8
	c0.7-1,1.8-0.5,3.6,1.4c2.4,2.5,5.6,1.8,7.8,4.9c1.1,1.6,1.7,1.8,2,1.3c0.7-1.3-0.5-7.5-0.4-8.4c0.1-1,0.6-1.9,1.1-2.7
	c1.5-2.2,4-4,5.5-6.3c0.2-0.3,0.3-0.6,0.5-0.9c2.2-4.4,4-9.1,6.3-13.5c0.1-0.3,0.3-0.6,0.5-0.9c0.3-0.5,0.6-1,0.9-1.5
	c1.2-2.2,2-4.7-1-5.8c0-0.1,0.1-0.3,0.2-0.4c0.5-0.9,1.6-1.5,2.2-2.3c0,0,0-0.1,0.1-0.1c0-0.1,0.1-0.1,0.1-0.2s0.1-0.2,0.1-0.3
	c0,0,0,0,0-0.1c0.4-0.7,0.6-1.6,0.9-2.3c0.2-0.6,0.4-1,0.7-1.5c0.1-0.1,0.2-0.3,0.3-0.4c-0.1-0.2-0.3-0.4-0.5-0.5
	c-0.1,0.1-0.1,0.1-0.2,0.2c-2.4,2-4.4-1.5-5.3-3.5c-1.2-2.7-2.6-5.4-0.4-7.8c0.1-0.1,0.1-0.1,0.2-0.2c2.4-2.4,6-3.2,2.6-7.4
	c-1.5-1.8-2.2-4.4-4.5-4.4c-0.5,0-1.1,0.1-1.8,0.5c-3.5,1.6-5.7-0.2-8,3.5c-0.2,0.4-1.5,2-2.2,2c-0.2,0-0.4-0.1-0.4-0.6
	c-0.2-2-1.1-2.8-2.3-4.3c-0.1-0.1-0.2-0.2-0.3-0.3c-2.8-2.9-3.5,2.5-6.4,2.6c-1.6,0.1-3.1-0.9-4.8-0.4c-1.5,0.4-2.7,1.5-4.2,2
	c-3.8,1.4-8.1,0.3-11.9,1.4c-1.1,0.3-1.5,1.3-2.3,2c-1.2,1-3.3,0.6-4.7,0.5c-2.3-0.2-6.2-1.1-7,1.8c-1,3.4-0.7,6.3-5.1,6.3
	c-1,0-1.6,0.6-2,1.3c-0.1,0.1-0.2,0.3-0.3,0.5c0,0.1-0.1,0.2-0.1,0.3c-0.8,1.8-1.3,3.9-4.4,2.2c-0.9-0.5-2-0.7-3-0.9
	c-0.2,0-0.4-0.1-0.6-0.2c-0.4-0.1-0.7-0.3-1.1-0.5c-1.5-1-0.9-2.8-2-4.1c-1.7-1.8-1.9,3.4-3.6,2.8c-1.9-0.7-1.3-3.9-4-3.7
	c-0.1,1,0,2.1-0.1,3.1c-0.5,0.1-0.9,0.1-1.3,0.1c-2.8,0.1-4.4-1.7-7.1-2.6c-0.3,0.1-0.4,0.3-0.6,0.4c-0.6,0.7,0.5,1.6,0.6,2.6
	c0,0.1,0,0.2,0,0.3c0,1.5-1.3,2.6-1.9,3.8c2.2,1.6,4,4.5,6,6.4c2.7,2.6,4.8,5.6,7.5,8.2c3.5,3.2,9.9,5,10,9.7c0,0.7-0.1,1.4-0.4,2.2
	c-0.3,0.8-0.5,1.7-0.5,2.5c0,0.7,0.2,1.3,0.6,1.9c0.7,0.9,1.5,1.7,1.5,2.8c0,0.3,0,0.5-0.1,0.9c-0.2,0.7-0.3,1.4-0.4,2
	c0,1.8,0.8,3.3,1.6,5.4C347.7,331.8,350.5,331.5,352.7,332.4z"/>
<path id="D619" class="st0" d="M507.1,291.1c-1.8-0.8-3.8-1.2-5.7-1.2c-4.5-0.1-9.2-1.2-13.7-0.6c-3.6,0.5-5.1-1.1-6.9-3.4
	c-0.1-0.1-0.2-0.2-0.3-0.4c-0.4-0.6-0.9-1.2-1.5-1.7c-1.5-1.7-3.2-2.8-4.9-4.3c-0.4-0.3-0.7-0.7-1-1c-0.5-0.6-1-1.3-1.5-1.9l0,0
	c-0.4-0.4-0.7-0.9-1.2-1.3c-0.6-0.5-1.3-0.7-1.9-0.7c-1,0-2.2,0.4-3.2,1l0,0l0,0c-0.8,0.4-1.6,0.9-2.4,1.2c-1.2,0.5-1.8,1-2.2,1.5
	c-0.9,1.3,0.3,2.8,2,4.7c1.2,1.3,1.5,2.6,1.1,3.7c-0.4,1.2-1.7,2.2-3.4,2.6c-3.4-3.8-7.3-8.3-13-6c-0.6,0.3-1.5,0.7-2.5,1.2
	c-1.6,0.9-3.1,2.2-3.1,3.7c0,1.9,1.1,3.2,1.2,4.8l0,0l0,0c1.3-0.7,2.9-0.5,4.4-0.4c0,0.1,0,0.3-0.1,0.5c-0.6,1.3-4,3.2-4.5,4.4l0,0
	c-1.2,2.8,3.5,2.5,5,2.4c1.9,0,4.9-0.4,6.1,1.5c0.9,1.3,0.6,2.5,0.1,3.7c-0.4,0.9-1.1,1.7-1.7,2.5c-0.1,0.1-0.2,0.3-0.3,0.4
	c-1.3,2-1.2,4.7-2.5,6.8c-0.1,0.1-0.2,0.3-0.3,0.4c-0.9,1.3-1.9,2.1-2.6,3.1c-0.5,0.8-0.8,1.8-0.6,3.1c0.6,4.9,3.2,11.8,7.4,14.7
	c0.2-2.3-0.2-4.8,0.3-7.1l0,0l0,0c2.1-1.4,5.4-3.3,8-2.2c1.6,0.7,1,3.4,1.7,4.8c2,0.3,3.6,1.2,5.2-0.7c1.4-1.6,1.6-2,4.1-1.5
	c3.6,0.8,7.3-0.5,10.9,0.7c1.6,0.5,2.7,1.7,3.5,3.1c0,0,1.3-1.1,2-1.9s2.4-1.6,3.1-1.6s3.6-1.5,3.8-2.7s-0.5-2.6-0.9-3.1
	s0-1.9,0.7-2.7s0.1-3.1-0.1-3.9c-0.3-0.8-0.8-2.8,0.4-2.9c1.2-0.1,3.1,0,3.1,0s0.1-2.7,1.1-3.5c0.9-0.8,2-2.2,2.4-2.6
	s0.9-1.6-0.1-1.9c-1.1-0.3-1.2-1.8-0.7-2.6c0.5-0.8,1.2-0.7,2.2-0.7c0.9,0,1.1-0.9,0.4-1.9c-0.7-0.9-0.8-2.3,0.3-2.7
	c1.1-0.4,2.7-1.6,2.7-2.6c0-0.9,1-3.5,1.8-3.9C508.4,291.8,507.8,291.4,507.1,291.1z"/>
<path id="D625" class="st0" d="M471.3,380.3c-0.5,1-1.3,1.5-2.4,1.6c-1.8,0.3-4-0.1-5.8,0.1s-3.1,1-3.2,3.5
	c-0.5,0.1-0.9,0.1-1.3,0.1c-1.9-0.1-3.5-1-5.2-2c1-2.4-2.3-4.8-3.7-6.4c-0.2-0.3-0.4-0.4-0.7-0.4c-1.2,0-2,3.5-2.2,4.2
	c-0.2,1.2-1.2,2.9-2.3,2.8c-0.5,0-1-0.4-1.5-1.3c-0.3-0.7-0.3-4.1-1.6-4.2c-0.2,0-0.4,0-0.6,0.2c-1.9,1.1-3,4-5,5.4
	c-0.9,0.6-2.1,1.3-3.3,1.2c-0.3,0-0.6-0.1-0.8-0.2c-0.9-0.4-1.7-1.5-2.8-1.6c-1.6-0.1-1.9,2.1-2.6,3.1c-0.9,1.2-2.1,2-3.5,2.6
	c-2.7,1.2-3.7,2.3-5.5,4.6c0.9,1.9,2,2.8,1.9,5c-0.1,1.4,1.3,1.4,1.9,2.4c0.6,0.9,1.7,4.8,3.4,5.4c0.5,0.1,1,0,1.6-0.5
	c0.7-0.7,2.7-4.6,4.5-4.5c0.5,0,1,0.4,1.5,1.2c0.7,1.2-0.2,2.6,0.3,3.8c0.6,1.4,2.1,1.5,1.6,3.4c-1.2,5.1-7.3,2.6-8.7,6.9
	c-0.6,1.8-1.2,2.5-2,2.6c0.1,1.6-1.9,2.8-1,4.4c0.9,1.5,2.7,1.4,3.2,3.6c0.5,2.1,0.3,4.5-1.1,6.2c-0.1,0.1-0.1,0.2-0.2,0.3
	c0,0,0,0-0.1,0.1l0,0l0,0c-0.1,0.1-0.2,0.2-0.3,0.3c-2.5,2.5-5.2,6.8-2,10.1c0.9,0.9,2,0.3,3.2-0.9c1.7-1.7,3.5-4.5,4.7-5.8
	c0.2-0.2,0.4-0.4,0.6-0.5c1.3-0.7,2.3-1,2.9-2c0.2-0.3,0.4-0.7,0.6-1.2c0.1-0.3,0.3-0.6,0.4-0.7c0.7-0.7,2,0.2,2.8,0.7
	c1.6,0.9,3.7,0.7,5,2.1c1.1,1.2,0.6,2.9,0.9,4.3c4,0.6,0,8.8,4.4,9.3c0.1-0.1,0.2-0.2,0.3-0.3c0,0,0,0,0.1-0.1s0.1-0.1,0.2-0.2
	c1.3-1.2,2.2-1.4,4.4-0.9c1.2,0.3,3.6,0.9,4.7-0.1c0.1-0.1,0.1-0.1,0.2-0.2c0.8-1.2,0.8-3,1.8-4.1c0.1-0.1,0.1-0.1,0.2-0.2
	c1.7-1.5,4,1.7,4.5,3c0.7,1.8,0.9,3.1,3,3.6c2.1,0.4,3.7,2,5.9,1.2c2.4-0.9,3.6,0.4,5.2,2c2,1.9,4.9,0.3,6.7,2.1
	c0.8,0.8,0.8,1.4,0.5,1.9c-0.5,0.7-1.8,1.2-2.6,1.8c-0.3,0.2-0.6,0.5-0.9,0.8c-1.3,1.2-2.5,2.8-3,4.4c-1.4,4.4,5.7,5,8.2,6.1
	c1.8,0.8,1.8,2.8,1.7,4.4c0,0.8-0.3,1.3-0.8,1.8l0,0l0,0l0,0c0.4,0.4,0.7,0.9,0.8,1.4c0.7,2.1,1.6,4.3,2.7,6.3c1.2,2,2.9,2,4.9,2.6
	c1.8,0.6,3.6,1.5,5.3,2.5c1.3-1.4,1.2-3.2,1.8-5.1c0.7-2.3,2.6-3.5,4.1-5.2c3.6-4.2,6.1-9.2,11.1-11.8c1.3-0.7,3.9-2.1,3.5-4
	c-0.3-1.5-2.3-2.3-3.4-3.2c-2.2-2.2-2.5-5.9-1.8-9.2c-2.5-1.6-4.9-2-8-2.4c-1.2-0.1-4.7-1.5-4-3.2c0.1-0.3,0.4-0.6,0.8-1
	c1.4-1,4.7,1,5.4-1.5c0-0.1,0-0.2,0-0.3c0-1.5-3-2.9-4.1-2.8c-0.6,0-6.4,0.8-6.2-0.9c0-0.3,0.3-0.7,0.8-1.2c1.3-1.2,1.7-2.5,1.8-3.8
	c0-1.8-0.6-3.7-0.5-5.6c0-0.1,0-0.2,0-0.3c0.1-3.2,2.4-5.9,2.7-9.1c0-0.1,0-0.2,0-0.3c0-1-0.3-2.6-0.3-4c0-1.2,0.2-2.3,1-2.7
	c1.3-0.6,3.6-0.2,3.7-1.9c0-0.2,0-0.5-0.1-0.8c-1.6-0.1-3.1,0.7-4.6,0.4c-1.6-0.2-2.2-1.4-2.2-2.6c0-0.7,0.3-1.5,0.7-2.1
	c1.3-1.7,1.7-3.5,4-4.2c1.1-0.3,2-1.1,2.5-2.2c0.3-0.6,0.3-1.3,0.2-2c-0.3-1.2-1.6-1.7-2.6-2.3c-1.9-1.1-3.8-3.2-5-5
	c-1.8-2.6-2.9-1.2-5.4-2.1c-2-0.7-2.5-3-3.4-4.7c-1.8-3.3-7.6-5.4-11-3.8c-1.9,0.9-3.2,2.8-5.4,2.3c-1.9-0.3-3.7-0.3-5.6-0.6
	c-0.3-0.1-0.6-0.1-0.9-0.3l0,0l0,0C471.4,380.1,471.4,380.2,471.3,380.3z"/>
<path id="D630" class="st0" d="M396.9,561.6c-0.2,0-0.3,0-0.5,0c-0.1,1.9-1.5,9.5,2.2,9.7c0.1,0,0.3,0,0.4,0l0,0l0,0
	c0.7,2.8-2.1,5.4-1.5,8.1c0.4,1.9,3.5,1.6,4.9,2.1c1.3,0.5,2.3,1,3.3,1.5c1,0.4,2,0.7,3.3,0.8c0.1,0,0.2,0,0.3,0c0.1,0,0.2,0,0.3,0
	h0.1h0.1c0.1,0,0.1,0,0.2,0h0.1c0.1,0,0.2,0,0.3,0.1c0.1,0,0.2,0.1,0.3,0.1l0,0c0.3,0.1,0.6,0.3,0.8,0.5c4.1-1.8,8.7-2.8,11.5-3.4
	c3.1-0.6,6.5-1.8,9.5-0.8c1.1,0.3,4.8,1.5,2.8-0.9c3.5-0.9,11.5,0,6.1-4.6c1.6-2.8,10.2-1.5,10.6-3.1c0.4-1.8,4.2-2,5.6-2.2
	c3.6-0.7,7.3-2.2,10.5-3.9c3.7-1.9,7.5,0.3,10.9-1.5s6.7-2.4,10.5-1.9c2.2,0.3,4,1.6,6.2,1.9c1.9,0.2,3.8-0.4,5.6-1
	c1.5-0.4,8.8-0.3,9-2.5s-6.2-1-7.2-0.9c-2.5,0.3-4.7,0-6.8-1.4c-4.5-2.9-8.4-6-11.8-10c-2.8-3.3-5.4-6.6-7.5-10.4
	c-1.6-2.9-1.4-5.2,0.2-8.2c0.8-1.5,1.4-2.7,1.2-4.5c-0.1-1.3-0.4-2.7,0.1-4c0.9-2.1,2.8-3.5,3.7-5.6c2-4.9,5.3-9.1,8.7-13.1
	c3.4-4.1,6.1-9.7,10.2-12.9c0.2-0.2,0.4-0.3,0.6-0.5c-1.7-1-3.5-1.9-5.3-2.5c-2-0.6-3.7-0.5-4.9-2.6c-1.1-2-2-4.1-2.7-6.3
	c-0.1-0.5-0.4-0.9-0.8-1.4l0,0l-0.1,0.1c-0.1,0.1-0.1,0.1-0.2,0.2s-0.2,0.1-0.3,0.2c0,0-0.1,0-0.1,0.1c-0.8,0.5-1.8,0.9-2.7,1.2
	c-2.2,0.9-4.8,1.5-6.5,3.2c-0.8,0.8-1.2,2-1.8,2.9l-0.1,0.1c-0.7,0.9-1.9,1.2-2.6,2c-0.1,0.1-0.2,0.3-0.3,0.4
	c0.9,1.5,0.9,3.6,1.1,5.3c0.3,2.4,1.5,4.9,1,7.4l0,0l0,0c-2.9,0.1-6.2,2.3-9.1,1.9c0.4-2.7,3.5-3.2,0.8-6c-1.3-1.4-1.2-2.8-1.3-4.6
	c-0.1-2-2-3.5-1.9-5.4c-3.2-0.2-8.8-2.6-11.6-0.2l0,0c-0.1,0.1-0.2,0.1-0.3,0.3c-0.2,0.2-0.3,0.4-0.5,0.6c0.8,1.3,2,2.2,2.3,3.8
	c0.4,2-0.3,3.9,0.1,6c0.3,1.4-0.3,8.3,1.2,8.9c0,0.2,0,0.5,0.1,0.7c1.3,0.1,5.4-0.8,6.3,0.7c0.7,1.3-0.4,2.8-0.1,4.1
	c0.5,2.2,4.7,6.7,2.9,9.2l-0.1,0.1l-0.1,0.1c-0.3,0.3-0.6,0.5-1,0.7c-3.2,1.7-7.6,1-11,0.3c-1-0.2-1.7,0.1-2.3,0.6
	c-0.7,0.7-1.2,1.8-1.8,2.7c-0.1,0.2-0.3,0.4-0.4,0.6c-1.2,1.7-2.9,2.7-4.4,4.2c-4.4-5.6-10-6-16.2-8.2c-0.1,0-0.2-0.1-0.3-0.1
	c-0.2-0.1-0.4-0.1-0.6-0.2c-1.2-0.5-2.3-1-3.5-1.5c-1.9-0.7-3.8-0.2-5.8-0.3c-0.4,0-0.7,0-1-0.1c-0.4,1.3-0.9,2.7-2.3,3.4
	c-2.8,1.3-2.3,4.1-2.6,6.6c-0.1,1.8-1.5,2-2.9,2.1c-1.2,0.1-2.5,0-3.4,0.4v0.1c-0.7,2.1-1.2,3.4-2.1,4.5c-0.6,0.7-1.4,1.5-2.6,2.4
	c-0.1,0.1-0.2,0.1-0.3,0.2c-2.7,1.8-6.1,0.3-8.9,1.7c-0.2,0.9-0.4,1.9-0.3,2.9c2.3-0.1,1.6,2,2.8,3.2c1,1,2.9,0.7,4.2,0.6
	c3.9-0.6,7-1.3,8.6,3.3c1,2.8,1.4,5.1,0.5,7.4c-0.4,0.9-0.9,1.9-1.8,2.8c-0.1,0.1-0.3,0.3-0.4,0.4
	C402.4,562.2,399.1,561.5,396.9,561.6L396.9,561.6z M522,571.1c-2.1,0.1-2.9,3.7-0.4,3.3C523.5,574.1,524.5,571,522,571.1z
	 M510.1,567.5c-1.8,0.3,1.3,3.2,2.9,2.4C515.9,568.3,511.3,567.3,510.1,567.5z M528.3,555.1c-3.7,2-7.6,4.7-12.1,4l0.2,0.2
	c-0.8-0.1-1.8,0.5-2.3,1.1c1.4,1.2,2,3,4,2.8c2.6-0.3,4.4,0,6.9,1c4.7,1.9,8.5,4.3,12.8,7c1.5,0.9,4.9,4.7,6.6,4.2
	c0.1-2-5.3-5.4-6.5-6.7c-1.6-1.6-3.4-3.1-5.1-4.7c-0.9-0.8-3.8-2.4-3.6-3.9C529.4,559.1,533.1,552.4,528.3,555.1L528.3,555.1z
	 M557.8,548.7c-1.5,0.2-0.7,1.8,0.1,2.8l1.2-2.3C559.1,548.8,558.7,548.6,557.8,548.7z"/>
<path id="D793" class="st0" d="M567.6,57.5c-1.4,2.2-0.3,5.3-1.9,7.4c-0.6,0.7-4.2,1.2-5,1.1v0.6c0,0.6,0,1.2-0.1,1.7
	c-1,0.2-2.6,0.3-3.4-0.5c-0.5-0.5-0.3-1.5-0.9-1.8c-1.7-1-5.3-1.2-7.2-0.9c-2.3,0.3-3,4.6-5.4,3.9c-1.8-0.5-2.5-3.4-4.6-3
	c0,0.1,0,0.2,0,0.3c0.1,1.2-1,1.9-1.1,3.1c-0.1,1.5,1.8,2.1,2.6,3.1c0.3,0.3,0.4,0.7,0.4,0.9c-0.1,1.9-7.3,1.8-8.1,1.8
	c-2.7-0.2-8.9-0.3-10-3.6c-0.1-0.1-0.1-0.3-0.1-0.5l0,0c-0.1,0.5-0.2,1-0.1,1.5c0,0.5,0,0.9,0.1,1.3c0.1,0.7,0.3,1.2,0.3,1.2
	c0,0.6,0.1,1.3,0.1,1.9c0,0.7,0,1.4-0.1,2.2c-0.4,0.9-0.9,1.8-1.2,2.7c-0.4,0.9-0.7,1.8-1,2.7l-0.2,3.7l-0.4,1.5l-1.9-0.9
	c-0.3-0.1-0.6-0.2-0.9-0.2c-0.1,0-0.3,0-0.4,0.1c-0.1,0.1-0.3,0.2-0.4,0.4c-0.2,0.6-0.4,1-0.6,1.4c-0.1,0.2-0.3,0.3-0.4,0.4
	c-0.1,0.1-0.3,0.2-0.5,0.3c-0.6-0.1-1-0.1-1.5-0.1c-0.4,0-0.9,0.1-1.4,0.4c-0.1,0.6-0.2,1.1-0.2,1.7c0,0.3,0,0.6,0,0.9
	s0.1,0.6,0.2,0.9l1.7,1.1c0.4,0.1,0.6,0.3,0.8,0.6c0.2,0.2,0.3,0.5,0.3,0.8s0,0.5-0.1,0.7s-0.3,0.3-0.6,0.3l-1.8-0.6l-1.3,6.5
	c0.1,0.7,0.3,1.4,0.6,2c0.2,0.6,0.4,1.1,0.7,1.5c0.4,0.9,0.6,1.6,0.7,2.3c0.1,0.7,0.2,1.3,0.3,2c-0.1,0.4,0,0.9,0,1.4
	c0,0.7,0,1.4,0,2.1s0,1.3-0.1,2l0,0c0.1-0.7,0.1-1.4,0.1-2.1s0-1.4,0-2.1c0-0.5,0-0.9,0-1.4c2.8-0.3,3.5-4,6.7-2.3
	c-0.5,0.4-0.7,0.8-0.7,1c0,0.6,0.8,0.8,1.8,1c1.1,0.3,1.5,1,1.7,1.8c0.1,0.6,0.1,1.3,0.2,1.9v0.1c2.9,0.1,5.5,3.1,7.5,4.9
	c2.8,2.5,2.5-1.5,4.8-1.1c0,0.2,0.1,0.4,0.1,0.6c0,2.7-2.9,4.8-3,7.7c0,0.3,0,0.6,0.1,1c0.2,1,1,2.3,2.2,2.2
	c0.7-0.1,1.1-0.4,1.4-0.9c0.2-0.3,0.3-0.7,0.5-1c0.3-0.5,0.6-1,1.2-1.3c3.3-1.2,5.2-1.4,5.6-5.4v-0.1c0.1-1.6,0-3.3,0.3-5
	c0-0.1,0-0.2,0.1-0.4c0-0.2,0.1-0.4,0.2-0.7c0.5-1.9,1.4-3.7,1-5.7c-0.2,0-0.4,0-0.6-0.1c-0.5-1.4-1-2.1-1.1-3.1
	c0-0.6,0.1-1.2,0.6-2.2c0.3-0.5,0.5-1,0.7-1.6c0.4-1.2,0.7-2.5,0.9-3.7l0.3-2.2c4.4-0.6,8,2.9,11.7,5.4c0.2-0.2,0.4-0.5,0.5-0.7
	c0.6-0.8,0.5-1.6,0.3-2.3l0,0c-0.1-0.7-0.4-1.5-0.1-2.3c0.6-1.8,2.8-2.3,4.5-2.2c0.6-1.2,5.2-3.1,6.7-3.2c0.4-2.2-0.5-3.4,1.8-4.8
	c1.6-1,3.5-1.6,5.3-2.4s5.3-4.4,7.9-5.1c0-0.2-0.1-0.4-0.1-0.6s0-0.4,0-0.5c0-0.8,0.3-1.6,0.3-2.3c0-0.7-0.3-1.3-1.5-1.8
	c-1.6-0.7-3.5-0.6-5.3-0.6c-0.1-2.2,0.1-4.1-0.9-6.2c0-0.1-0.1-0.1-0.1-0.2c-0.2-1,2.3-1.4,2.4-2.8v-0.2c-0.1-1.9-5.2-1.3-6.4-1.6
	c-0.4-1-0.8-1.9-1.1-2.9c-1-0.1-2.8,0.4-3.3-0.9C568.5,58.4,568.5,57.7,567.6,57.5z"/>
<path id="D610" class="st0" d="M318.1,236.4L318.1,236.4c2.7,0,5.4,0.2,5.1,3.6c-0.2,3.7-2.1,7-2,10.8c0.1,2.5-1.6,7.9,1.2,9.4
	c0.2,0.1,0.4,0.1,0.6,0.2c1.9,0.4,4.2-1,5.9-1.6l0,0l0,0c0.5,2.6-2.2,5.8-0.9,8c1.4,2.3-0.4,2.1-1.5,3.8c-1.2,1.9-0.7,4.6-1.7,6.7
	c-0.4,0.9-2.3,2.6-2.4,3.4c0,0.1,0,0.2,0,0.3c0.1-0.1,0.3-0.3,0.6-0.4c2.7,0.9,4.2,2.6,7.1,2.6c0.4,0,0.9,0,1.3-0.1
	c0.1-1,0-2.1,0.1-3.1c2.7-0.2,2.2,3,4,3.7c1.6,0.6,1.9-4.6,3.6-2.8c1.2,1.2,0.6,3,2,4.1c0.3,0.2,0.7,0.4,1.1,0.5
	c0.2,0.1,0.4,0.1,0.6,0.2c1,0.3,2.1,0.4,3,0.9c3.1,1.6,3.6-0.4,4.4-2.2c0-0.1,0.1-0.2,0.1-0.3c0.1-0.2,0.2-0.3,0.3-0.5
	c0.4-0.7,1-1.3,2-1.3c4.4-0.1,4.1-2.9,5.1-6.3c0.9-2.9,4.7-2,7-1.8c1.4,0.1,3.5,0.5,4.7-0.5c0.8-0.7,1.2-1.8,2.3-2
	c3.9-1.1,8.1,0,11.9-1.4c1.5-0.5,2.6-1.7,4.2-2c1.6-0.4,3.1,0.5,4.8,0.4c2.8-0.1,3.6-5.6,6.4-2.6c0.1,0.1,0.2,0.2,0.3,0.3
	c1.2,1.5,2.2,2.3,2.3,4.3c0,0.4,0.2,0.6,0.4,0.6c0.7,0,2-1.6,2.2-2c2.3-3.8,4.5-1.9,8-3.5c0.7-0.3,1.3-0.5,1.8-0.5
	c2.2,0,3,2.6,4.5,4.4c3.4,4.2-0.2,5-2.6,7.4c-0.1,0.1-0.1,0.1-0.2,0.2c-2.2,2.4-0.9,5.1,0.4,7.8c0.9,2,2.9,5.4,5.3,3.5
	c0.1-0.1,0.1-0.1,0.2-0.2c0.2,0.1,0.3,0.3,0.5,0.5c0.7-0.9,1.6-1.1,3.2-0.4c0.1,0.4,0,0.7-0.2,1s-0.4,0.6-0.6,0.9
	c-0.1,0.3-0.2,0.6-0.1,1c2,0.8,4.8,2.2,5.7,4.4c0.7,1.8-0.1,3.7,0,5.5c1.3,0.4,3.4-0.6,4.4-1.2c0.3-0.2,0.5-0.4,0.7-0.6
	c0.3-0.5,0.5-1.1,0.8-1.5c0.3-0.5,0.9-0.8,2-0.6c1.2,0.2,1.9-0.1,2.3-0.7c0.5-0.6,0.8-1.5,1.3-2.2l0,0l0,0c0,0,0,0,0.1-0.1
	s0.1-0.2,0.2-0.3c0.3-0.4,0.6-0.7,1-0.9c-0.1-1.6-1.1-2.9-1.2-4.8c0-1.5,1.5-2.8,3.1-3.7c0.9-0.5,1.8-0.9,2.5-1.2
	c5.6-2.2,9.5,2.3,13,6c1.8-0.4,3-1.4,3.4-2.6c0.4-1.1,0.1-2.4-1.1-3.7c-1.6-1.9-2.9-3.3-2-4.7c0.4-0.5,1.1-1,2.2-1.5
	c0.7-0.3,1.5-0.8,2.4-1.2l0,0l0,0c1.1-0.6,2.2-1,3.2-1c-0.4-0.9-0.9-1.6-1.6-2.4c-0.3-0.3-2.6-1.7-3.2-1.7c-0.1,0-0.1,0-0.1,0.1l0,0
	l0,0c-0.1-2,0.5-4.4-1.4-5.9c-1.3-1-2.7-1.4-2.8-3.3c-0.2-2.7,4.1-7.2,0.9-9.2c-0.9-0.6-1.7-0.7-2.6-0.8c-2.3,0-4.7,1.3-7.2,1.3
	c-0.2,0-0.4,0-0.7,0c-0.7-0.1-1.3-0.1-1.8-0.1c-2.8,0.1-2.7,1.8-2.9,5.1c-0.2,0.1-0.6,0.1-0.9,0.1c-0.2,0-0.4,0-0.5-0.1
	c-1.8-3.6-3.1-8.6-3.2-12.7c0-1,0.1-2,0.8-2.8c0.7-1,1.6-0.5,2.2-1.2c1-1.1,0.6-3.4,2.8-3.5c1-2.5,1.7-3.4,1.6-6.1
	c-1.6-0.1-2.8-1.2-4.4-1.4h-0.1c-0.1,0-0.1,0-0.2,0c-0.7,0-1.5,0.1-2.3,0.3l0,0l0,0c-0.9,0.2-1.7,0.5-2.4,0.9c-2.3,1.3-3.8,3.5-6,5
	c-4,2.9-10.3,1.5-14.4-1c-0.4-0.2-0.7-0.4-1.1-0.7c-1-0.7-2.1-2.9-3.4-4l-0.1-0.1l0,0c-0.6-0.5-1.3-0.7-2-0.4
	c-1.6,0.7-2.2,3.2-3.1,4.5c-1,1.5-5.1,8.3-7.6,6.9c-0.1,0-0.1-0.1-0.3-0.2c-0.3-1.3,1.5-2.6,2.2-3.4c1.2-1.2,2.2-3,2.4-4.7
	c0.2-1.5,0.4-2.8,1.3-4c1.3-1.8,0.8-2.2,0.9-4.4c-1-0.3-3.2,0.3-4,1l0,0l0,0c-1-0.8-0.7-2.4-1.6-3.2c-0.1-0.1-0.1-0.1-0.2-0.2
	c-1.2-0.7-2.7,1.3-3.5,1.9c-0.7,0.5-1.2,0.6-1.6,0.4c-0.6-0.2-0.9-0.9-1.2-1.6c-0.3-0.9-0.9-1.5-1.6-1.8l0,0c-0.1,0-0.1-0.1-0.2-0.1
	c-0.7-0.3-1.4-0.3-2.2-0.3l0,0l0,0c0.2-0.9,1.6-2.8,0.3-3.4c-0.1-0.1-0.3-0.1-0.5-0.1c-1.2-0.2-2.5,0.1-3.7,0.1
	c-4.3,0-7.9,0.1-11.9,1.6c-3.8,1.4-7.8,2-11.4,4c-1.7,0.9-3.5,0.1-5.1,0.9c-1.2,0.6-2,1.8-3.2,2.2c-3.1,0.9-7-2.1-10.2-2.4
	c-4.3-0.4-8.6,0-12.9-0.3c-0.4,0-0.8-0.1-1.1-0.3c-1.2-0.6-1.6-1.9-2.9-2.5c-0.1,0-0.2-0.1-0.3-0.1c-1.6-0.6-3.3-0.6-4.9-0.7
	c-0.6,0-1.1-0.2-1.5-0.4c-0.7-0.4-1.1-0.9-1.6-1.5c0,0.4,0,0.7,0,1.1c-0.9,0.1-1.9,0.3-2.8,0.4c0.5,0.5,1,1.1,1.3,1.8
	c0.7,1.6,0.2,6.3-0.4,7.8c-0.7,1.9-1.6,3.7-2.3,5.6C315.2,236.5,315.9,236.4,318.1,236.4L318.1,236.4L318.1,236.4z"/>
<path id="D626" class="st0" d="M416.8,518.8c1.9,0,3.9-0.4,5.8,0.3c1.2,0.4,2.3,1,3.5,1.5c0.2,0.1,0.4,0.1,0.6,0.2
	c0.1,0,0.2,0.1,0.3,0.1c6.2,2.2,11.8,2.5,16.2,8.2c1.5-1.5,3.1-2.5,4.4-4.2c0.1-0.2,0.3-0.4,0.4-0.6c0.6-1,1-2,1.8-2.7
	c0.6-0.5,1.3-0.8,2.3-0.6c3.4,0.6,7.8,1.3,11-0.3c0.4-0.2,0.7-0.4,1-0.7l0.1-0.1l0.1-0.1c1.8-2.6-2.4-7-2.9-9.2
	c-0.3-1.2,0.9-2.8,0.1-4.1c-0.9-1.4-5-0.6-6.3-0.7c-0.1-0.1-0.1-0.5-0.1-0.7c-1.5-0.5-0.9-7.5-1.2-8.9c-0.4-2.1,0.2-4-0.1-6
	c-0.3-1.5-1.6-2.5-2.3-3.8c0.1-0.2,0.3-0.4,0.5-0.6c0.1-0.1,0.2-0.2,0.3-0.3l0,0c2.8-2.4,8.4,0,11.6,0.2c-0.1,2,1.7,3.5,1.9,5.4
	c0.1,1.8,0,3.2,1.3,4.6c2.7,2.8-0.4,3.3-0.8,6c2.9,0.4,6.1-1.8,9.1-1.9c0.4-2.5-0.7-5-1-7.4c-0.2-1.7-0.1-3.8-1.1-5.3
	c0.1-0.1,0.2-0.3,0.3-0.4c0.8-0.8,1.9-1.1,2.6-2l0.1-0.1c0.7-0.9,1-2.2,1.8-2.9l0,0l0,0c1.8-1.7,4.3-2.3,6.5-3.2
	c0.9-0.3,1.9-0.7,2.7-1.2c0,0,0.1,0,0.1-0.1c0.1-0.1,0.2-0.1,0.3-0.2c0.1-0.1,0.1-0.1,0.2-0.2l0.1-0.1c0.4-0.4,0.7-1,0.8-1.8
	c0.1-1.7,0.1-3.7-1.7-4.4c-2.4-1.1-9.6-1.8-8.2-6.1c0.5-1.6,1.7-3.2,3-4.4c0.3-0.3,0.6-0.5,0.9-0.8c0.8-0.6,2.1-1.1,2.6-1.8
	c0.3-0.5,0.3-1.1-0.5-1.9c-1.9-1.8-4.8-0.2-6.7-2.1c-1.6-1.6-2.8-2.9-5.2-2c-2.2,0.8-3.8-0.8-5.9-1.2c-2.2-0.4-2.3-1.8-3-3.6
	c-0.5-1.3-2.8-4.5-4.5-3c-0.1,0.1-0.1,0.1-0.2,0.2c-1,1.1-0.9,2.9-1.8,4.1c-0.1,0.1-0.1,0.1-0.2,0.2c-1.1,1-3.5,0.4-4.7,0.1
	c-2.2-0.5-3.2-0.3-4.4,0.9c-0.1,0.1-0.1,0.1-0.2,0.2c0,0,0,0-0.1,0.1s-0.2,0.2-0.3,0.3l0,0l0,0c-4.4-0.5-0.5-8.8-4.4-9.3
	c-0.3-1.4,0.2-3.2-0.9-4.3c-1.3-1.4-3.4-1.2-5-2.1c-0.9-0.5-2-1.3-2.8-0.7c-0.2,0.1-0.3,0.4-0.4,0.7c-0.2,0.5-0.4,0.9-0.6,1.2
	c-0.7,1-1.6,1.2-2.9,2c-0.2,0.1-0.4,0.3-0.6,0.5c-1.3,1.2-3.1,4.1-4.7,5.8c-1.2,1.2-2.3,1.8-3.2,0.9c-3.1-3.3-0.4-7.6,2.1-10.1
	c0.1-0.1,0.2-0.2,0.3-0.3c0,0,0,0,0.1-0.1s0.1-0.1,0.2-0.3c1.5-1.7,1.6-4,1.1-6.1c-0.5-2.2-2.4-2.1-3.2-3.6c-0.9-1.7,1.1-2.8,1-4.4
	l0,0l0,0l0,0c-1.2,0.1-2.7-1.3-4.4-2.4c-2.1,2.2-1.4,2-1.6,4.7c-2.2,0.1-4.2,2.1-5.7,3.5c-1.3,1.3,1.1,3.1,0,4
	c-1.2,0.9-2.5,1.5-4,1.9c0.5,1.3,1.2,2.6,2.1,3.5c2.1,2.2,2.3,4,1.9,7c-0.3,2.5-2.1,5-1.3,7.5c1.6,4.7,7.1,2.4,8.5,7.2
	c1.3,4.1-5.5,5.1-2.7,9.2c2,3,4.2,6.3-0.1,8.8c-2,1.2-4.4,1.4-6.6,2c-1.1,0.3-4.1,1-4.9,1.7c-3.1,2.5-4,6-7.9,7
	c-1.6,0.4-2.9,1.5-4.6,1.5c-0.3,0-0.6,0-0.9,0c-0.9,0-1.8-0.1-2.6-0.1c-0.1,0-0.3,0-0.5,0c-2.4,0-3.5,1.3-5.8,1.9
	c-2.2,0.6-4.3,0.6-5.9,2.5c-1.3,1.5,0.5,2,2,2c0.6,0,1.2-0.1,1.5-0.2c1-0.4,2-0.6,2.8-0.5c2.3,0.1,3.2,1.9,1.1,4.9
	c-0.5,0.8-1,1.1-1.5,1.1c-0.6,0-1.3-0.6-2-1.3c-0.3-0.3-0.7-0.5-0.9-0.5c-1.2-0.1-1.7,2.3-1.7,3.3c-0.9,0.1-2,0-2.9,0.2
	c0.4,0.3,0.8,0.6,1.2,1.1c0.3,0.4,0.6,0.9,0.6,1.4l0,0c4.5-0.6,10.9-4,15.4-1.3c1.3,0.8,3.6,2.8,4,4.3c0.3,0.9-0.1,3.5,1.2,3.5
	c0.3,0,0.6-0.1,0.9-0.4c0.1,0,0.1-0.1,0.2-0.1c0.8-0.6,2-2.7,3.2-2.7c0.2,0,0.3,0,0.5,0.1c0.1,0.1,0.2,0.1,0.3,0.2
	c1.4,1.1,0.6,3.2,1.2,4.7c0.6,1.4,0.8,2.8,2.3,2.9h0.1c1.8,0.1,3.3,0,4.8,1.1c1.5,1,2,2.5,3.1,3.4c0.4,0.4,1,0.7,1.7,0.9
	C416.1,518.8,416.5,518.8,416.8,518.8z"/>
<path id="D791" class="st0" d="M276.7,545.9c-0.1,1.3-0.1,2.6-0.1,3.9c0,0.7,0,1.4-0.2,2.1c0,0,0,0,0,0.1c-0.2,0.7-0.5,1.4-1.1,1.8
	c-1,0.7-2.3,0.5-3.1,1.5c-0.8,1-1.5,2.1-1.9,3.2c-0.2,0.5-0.3,1-0.3,1.6s0.1,1.2,0.3,1.8c0.1,0.4,0.2,0.8,0.3,1.2c0,0.4,0,0.8,0,1.3
	v0.1c-0.3,2.6-1.9,5.3-2.8,7.4c-0.1,0.3-0.2,0.6-0.3,0.9c0,0.3-0.1,0.7-0.1,1c0,0.7,0.1,1.3,0.1,2s0.1,1.3-0.1,1.9v0.1
	c-0.1,0.7-0.4,1.3-1,2c-1.9,2-4.3,3.4-6.6,4.7c0,0.6-0.1,1.2-0.2,1.7s-0.2,1-0.3,1.5l0,0c-0.3,1-0.8,1.9-1.8,3.1
	c-1.4,1.9-3.8,2.8-4.4,5.3c-0.1,0.4,0,0.9,0,1.4c0.1,0.5,0.3,1,0.5,1.5s0.5,1,0.9,1.5c0.3,0.5,0.7,1,1.1,1.5c0.8,1,1.6,2,2.4,2.9
	s1.5,1.8,1.9,2.5c0.4,0.6,0.9,1.2,1.5,1.9c0.6,0.6,1.2,1.3,1.8,1.9c0.6,0.6,1.2,1.3,1.7,2c0.3,0.3,0.5,0.7,0.7,1s0.3,0.7,0.4,1.1
	c0.4,0.2,0.9,0.3,1.5,0.4c0.6,0.1,1.3,0.1,2,0.1c1.5,0,3.1-0.1,4.8-0.3c3.4-0.3,6.8-0.9,8.6-1c0.5,0.4,1,0.9,1.3,1.3
	c0.4,0.4,0.7,0.9,0.9,1.3c0.5,0.8,0.9,1.6,1.2,2.3c0.3,0.7,0.5,1.3,0.8,1.8c0.1,0.3,0.3,0.5,0.6,0.7c0.2,0.2,0.4,0.4,0.8,0.6
	c0.3,0.1,0.7,0.4,1.1,0.8c0.4,0.4,0.9,0.8,1.4,1.2s1,0.8,1.5,1.1c0.3,0.1,0.5,0.3,0.8,0.3s0.5,0.1,0.8,0.1c0.1,0,0.3-0.1,0.4-0.3
	c0.1-0.1,0.3-0.4,0.5-0.7c0.3-0.5,0.7-1.2,1-1.9c0.6-1.4,1.1-2.8,1.1-2.8l10.5,2c0,0,0.7-1.1,1.6-2.6c0.4-0.8,0.9-1.6,1.3-2.6
	s0.8-1.9,1.1-2.8c0.1-0.3,0.1-0.6,0.1-0.9s-0.1-0.5-0.2-0.7s-0.3-0.4-0.5-0.6c-0.2-0.2-0.4-0.3-0.6-0.5c-0.4-0.3-0.8-0.6-1.1-0.9
	c-0.1-0.1-0.3-0.3-0.3-0.4s0-0.3,0-0.5c0,0,0.2-0.5,0.5-1.2s0.7-1.6,1.2-2.3c0.3-0.4,0.5-0.7,0.7-1c0.3-0.3,0.5-0.6,0.8-0.7
	c0.3-0.1,0.5-0.2,0.7-0.1c0.2,0.1,0.4,0.3,0.6,0.7s0.4,0.7,0.7,1c0.3,0.3,0.7,0.5,1.1,0.7s0.9,0.3,1.4,0.4c0.5,0.1,1,0.2,1.6,0.3
	c1.1,0.1,2.2,0.1,3.3,0c0.9-0.1,1.8-0.3,2.5-0.4c-0.4,0-0.9-0.1-1.3-0.4c-0.4-0.3-0.6-0.6-0.7-1c0,0,0,0,0-0.1
	c-0.1-0.4-0.2-0.9-0.2-1.3c0-0.9,0.2-1.9,0.3-2.6c0.3-0.1,0.5-0.1,0.7-0.3s0.4-0.3,0.6-0.4c0.2-0.1,0.3-0.3,0.4-0.5s0.2-0.4,0.3-0.6
	c0-0.2,0.1-0.4,0.1-0.6c0-0.2-0.1-0.4-0.1-0.6c-0.2-0.4-0.5-0.8-1-1.1c-0.9-0.6-1.4-0.9-1.5-1.4l0,0c-0.1-0.2-0.1-0.5,0-0.8
	s0.3-0.7,0.5-1.2c0.2-0.4,0.4-1,0.5-1.5s0.2-1,0.4-1.5s0.3-1,0.6-1.4c0.1-0.2,0.3-0.4,0.4-0.6c0.2-0.2,0.4-0.4,0.6-0.5
	s0.3-0.2,0.5-0.2s0.4,0,0.6-0.1c0.2,0,0.4,0,0.6-0.1c0.2,0,0.4-0.1,0.5-0.3c0.1-0.1,0.3-0.3,0.4-0.4c0.1-0.1,0.1-0.3,0.1-0.4
	c0-0.3,0-0.6-0.1-0.9c-0.1-0.3-0.2-0.6-0.3-0.9c-0.1-0.3-0.1-0.6-0.1-0.8l0,0c-1.8-0.1-3.8,0.7-5.6,0.5c-0.3,0-0.5-0.1-0.7-0.1
	c0,0,0,0,0-0.1l0,0c-0.1-0.9-0.1-1.6,0-2.3s0.2-1.3,0.4-1.9c0.2-0.6,0.4-1.2,0.7-1.8c0.3-0.6,0.6-1.3,1-2.1c0.1-0.3,0.4-0.6,0.6-0.9
	c0.1-0.2,0.2-0.3,0.3-0.5c0.2-0.3,0.4-0.6,0.6-0.9c0.3-0.3,0.6-0.6,0.9-0.8s0.6-0.3,1-0.3c0.3,0,0.6,0.1,0.9,0.3s0.6,0.5,0.9,1
	c0.2,0.3,0.4,0.6,0.7,0.7c0.3,0.2,0.6,0.4,1,0.5c0.3,0.1,0.7,0.2,1.2,0.2c0.4,0,0.8,0.1,1.3,0c0.9,0,1.8-0.1,2.6-0.3
	s1.6-0.3,2.3-0.4c0.2,0,0.3,0,0.5-0.1c0.4-0.1,0.7-0.1,1.1-0.3c0.3-0.1,0.7-0.3,1-0.4c0.3-0.1,0.6-0.3,0.9-0.6
	c0.3-0.2,0.5-0.4,0.7-0.7s0.4-0.5,0.6-0.8c0.1-0.3,0.3-0.6,0.4-0.9c0.1-0.3,0.2-0.6,0.2-1c0-0.2,0-0.4,0-0.7c0-0.1,0-0.3,0-0.4
	c0-0.3,0.1-0.7,0.3-1c-0.8-0.6-1.5-1.3-2.7-1.3h-0.4c-1.1,0-2.1,0.1-3.2,0c-2.3-0.3-4.4-1.7-6.3-2.9c-5.1-3.1-9.9-2.9-15.7-4
	c-2-0.4-5.4-0.1-6.1-2.3c-0.4-1.1-0.7-2.6-1.3-3.7c-1.2-1.7-3.3-3.5-5.4-3.9c-0.3-0.1-0.6-0.1-0.8-0.1c-0.7,0-1,0.4-1.2,1
	s-0.2,1.5-0.3,2.2c0,0,0,0-0.1,0v0.1c-0.8,0.3-1.7,0.6-2.7,0.8c-1.3,0.3-2.6,0.4-3.6,0.1c-1.3-3.2-5-6.7-8.2-7.7
	C282.1,546.9,279.1,547.3,276.7,545.9z"/>
<path id="D624" class="st0" d="M548.9,423.7c0.5-0.6,1.4-0.7,2.2-1.6c0.1-0.1,0.2-0.2,0.3-0.3c1.3-1.6-3.4-1.7-4-1.8
	c-0.1-0.6,0.6-1.2,0.7-1.8c0.1-1.2-0.1-2.1-0.4-3.2c-0.6-2.8,1.9-5.3,1.3-8.3c-0.7-3.4-7.4-5.7-4.4-9.2c-3.5-1.4-7.8-2.5-11.6-2.8
	c-0.6-2.8,0-5.8-1.4-8.4c-0.9-1.7-3.1-2-1.5-3.9c1.5-1.7-0.4-4.5-1.9-5.6c-0.2-0.1-2.5-1.5-2.8-1.3c0,0,0,0,0,0.1l0,0l0,0
	c-0.2-2.6-0.9-3.9-1.8-6.2l0,0l0,0l0,0c0.1-0.1,0.2-0.2,0.3-0.3l0.1-0.1c-1.8-5,3.1-8-0.8-12.3c-0.3-0.3-0.1-0.7,0.2-1.3
	c1.2-1.9,5.4-4.8,6.4-4.7c3.2,0.5,5.3,4.6,8.3,5.3c2.5,0.6,4.2-0.9,6.4,1.1c0.7,0.6,1.5,0.7,2.3,0.6c0.9-0.2,1.7-0.9,2.2-1.6
	c-0.8-1.7-1.3-4.5,0.1-6c0.3-0.3,0.7-0.6,1.2-0.8c0.9-0.3,1.5-0.6,1.8-0.9c1-1,0-2.2,0.3-4.1c0-0.2,0.1-0.5,0.1-0.7
	c0.7-2.3,2.7-3.1,2.1-5.9c-0.3-1.3-0.9-3.1,0-4c0.3-0.3,0.7-0.5,1.4-0.5c0.4-2.8-1.8-5.5-1.2-8.3c0.1-0.4,0.7-2.9,1.5-3.8
	c0.2-0.3,0.5-0.4,0.7-0.3c-1.5-1.2-2.7-3.1-4.6-3.7l0,0c-0.4-0.1-0.8-0.1-1.2-0.1c-2.5,0.2-2.6,2.6-4.2,4c-0.8,0.7-1.6,0.6-2.3,0
	l0,0l0,0c-0.5,0.5-1,1-1.3,1.6c-1.2,1.8-1.8,3.9-2.7,5.8c-0.9,1.7-2.1,2.7-3.7,3.4c-0.7,0.3-1.5,0.6-2.2,0.8
	c-0.6,0.1-1.1,0.4-1.6,0.6c-1.5,0.7-2.5,1.8-3.8,3.1c-2.2,2.2-5,3.6-7.2,5.9c-1.3,1.3-2,2.4-3.3,3c-0.4,0.2-1,0.4-1.6,0.4
	c-0.3,0-0.5,0.1-0.7,0.2c-1.5,0.5-2.1,1.8-3.4,2.3c-0.6,0.2-1.2,0.3-2.1,0.1c-2.5-0.6-4,0.5-6.2,1.3c-1.8,0.6-3.6-0.2-5.1,0.4
	c-0.5,0.2-0.9,0.6-1.3,1.3c-0.9,1.4-2,3.2-3.6,3.8l0,0l0,0c-2.5,1.1-5.9,0.9-9.2,0.5c-1,0.4-2.3,0.7-3.1,0.9
	c-4.8,0.9-8.9,3.9-13.5,5c-3.2,0.8-8.6-0.3-11.3,2c0.4,0.4,0.9,0.8,1.5,1.1c1.8,0.8,4.4,0.7,6,0.3c1.4-0.4,3.8-1.8,5.3-1
	c0.4,0.2,0.7,0.6,1,1.2c-1.2,0.8,0.3,2.9,0.3,4.1c0,1.4-0.5,2.7-1,4c-1.1,2.5,1,5,0.3,7.2c0.3,0.1,0.6,0.2,0.9,0.3
	c1.8,0.4,3.7,0.3,5.6,0.6c2.3,0.4,3.6-1.5,5.4-2.3c3.4-1.6,9.2,0.5,11,3.8c0.9,1.7,1.3,4,3.4,4.7c2.5,0.9,3.6-0.5,5.4,2.1
	c1.2,1.8,3.1,3.9,5,5c0.9,0.6,2.3,1,2.6,2.3c0.1,0.7,0.1,1.4-0.2,2c-0.4,1-1.3,1.8-2.5,2.2c-2.3,0.7-2.6,2.5-4,4.2
	c-0.4,0.6-0.7,1.4-0.7,2.1c0,1.2,0.7,2.3,2.2,2.6c1.5,0.2,3.1-0.6,4.6-0.4c0.1,0.3,0.1,0.6,0.1,0.8c-0.1,1.6-2.4,1.2-3.7,1.9
	c-0.8,0.4-1,1.5-1,2.7c0,1.4,0.3,2.9,0.3,4c0,0.1,0,0.2,0,0.3c-0.3,3.2-2.5,5.9-2.7,9.1c0,0.1,0,0.2,0,0.3c0,1.9,0.6,3.8,0.5,5.6
	c0,1.3-0.4,2.6-1.8,3.8c-0.5,0.5-0.8,0.9-0.8,1.2c-0.2,1.6,5.6,0.9,6.2,0.9c1.2-0.1,4.2,1.3,4.1,2.8c0,0.1,0,0.2,0,0.3
	c-0.8,2.5-4,0.5-5.4,1.5c-0.4,0.3-0.7,0.6-0.8,0.9c-0.6,1.7,2.9,3,4,3.2c3.1,0.4,5.4,0.7,8,2.4c0.4-1.6,1-3.1,1.9-4.2
	c1.4-1.9,2.9-3.2,3.6-5.5c0.6-2,0.8-4.2,2.1-6c1.8-2.3,4.8-2.4,7.3-3.2c2.4-0.7,4.2-2.5,6.4-3.7c3.2-1.7,6.7-1.3,10.1-0.5
	c0-0.6,0-1.3-0.1-1.9C548.3,424.6,548.5,424.1,548.9,423.7z"/>
<path id="D613" class="st0" d="M200.8,307.9c0.4-0.2,0.8-0.4,1.2-0.5s0.8-0.3,1.2-0.4c1.5-0.7,2.3-1.7,3.9-2.7
	c0.1-0.1,0.3-0.2,0.4-0.3c2-1,4.5-0.8,6.6-1.8c0.1-0.1,0.3-0.1,0.4-0.2c2.6-1.5,0-5.8,1.9-7.6c0,0,0.1-0.1,0.2-0.1c0,0,0,0,0.1-0.1
	c0.6-0.4,1.4-0.7,2.6-0.7c2.5-0.1,4.7,0.5,7.2-0.3c1.1-0.3,2.2-0.8,3.2-1.4c0.6-0.3,1.2-0.7,1.8-1c0-1.3-0.5-2.5-0.1-3.8
	c0.2-0.6,0.6-1,1.1-1.3c0.7-0.5,1.7-0.7,2.4-1.2c0.1,0,0.1-0.1,0.2-0.1c-0.9-1.8-2.6-5.8-0.7-7.4c2.6-2.3,0.5-5.4-1.4-7.3
	c-4.7-4.6-11.9-2.2-17.6-4.7c-0.3-0.1-0.5-0.3-0.7-0.4l0,0l0,0c-1.2,0.7-2.4,0.2-4.2-0.6c-2.9-1.2-5.9-1.9-8.9-2.4
	c-4.3-0.7-10.1-1.6-13.6,1.8c-2.6-0.7-5.9-1.2-7.8-3.2c-1.7-1.8-2.2-5.1-3.7-7.2c-1.9-2.7-3.4-5.6-6.7-3.1c-1.9,1.4-4.6,2.8-6.3,4.4
	l0.5,0.4c-0.3,0-0.6,0-0.8,0c0.9,1,0,3.8-0.3,5c-1.7-0.9-4.7-0.8-6,0.8c-1.1,1.4-0.8,3.8-2.3,4.8c-1.9,1.3-6-1-6.5,2.1
	c-2.3-0.4-2.6-0.2-3.5-2.5c-1.2-0.3-4.7,0.9-5.7,1.5c-0.1,1.1-0.3,2.2,0.3,3.1c0.3,0.4,0.6,0.9,0.8,1.3c0,1.2-1.3,1.7-1.2,3.1
	c0.3,3.4-1.6,5.3,2.2,6.3c3.6,0.9,7.2,2.7,10.8,3.7c4,1.1,7.5,2.8,11,5c1.9,1.1,4.1,1.4,6,2.5c1.5,0.9,2.6,2.2,4,3.3
	c1,0.8,3.8,1.8,4.2,3.1c0.3,0.9-0.7,2.8-0.9,3.7c-1.3,4.1-3.5,5.4-7.4,6.9c-2.4,0.9-5.5,1-5.1,4.6c0.1,1.3,2.9,6.4,4.1,2.8
	c1.2-3.9,3.7-0.6,6.1,0.4c1.8,0.7,4-0.5,5.8-0.7s3.5-0.1,5.3,0.3c3.7,0.9,5.8-0.5,8.9-2.3c1.4-0.8,3.3-3.5,4.6-2.7
	c0.3-0.4,0.7-0.8,1-1.2C199.6,308.8,200.1,308.2,200.8,307.9z"/>
<path id="D628" class="st0" d="M283.8,531.3c1.3-1.3,2.9-2.3,4.7-3.1c1.4-0.6,2.8-1,4.2-1.2l0,0c2.4-5,6.2-9.4,9.1-14.1
	c1.5-2.4,2-5.4,3.5-7.8c1.1-1.9,3.2-2.3,4.7-3.7c3.6-3.5,3.5-10,5.9-14.3c1.3-2.4,1.5-3.5,3.7-5.2c1.3-1-0.3-3.3,1.7-3.4
	c1.7-0.1,1.7-4.2,1.9-5.3c0.3-2.2,0.4-3.5,2-5c0.3-0.3,0.4-0.6,0.5-1l0,0l0,0l0,0c-2.6-3.5-0.4-9.5-4.5-11.9c-4.2-2.5,3.7-4,5-4.4
	c0.4-1.5-2-3.3-2.7-4.6c-2-0.7-4-1.4-6.1-1.3c-1.1,0-1.9-0.1-2.6-0.4c-0.7-0.2-1.3-0.5-2.1-0.8c-0.3-0.1-0.6-0.2-1-0.3
	c-1.6-0.4-2.2,1.6-3.7,1.8c-2,0.3-3.7,1.2-5.3,2.4c-3.3,2.3-7.1,3.4-10.8,4.8c-2.3,0.9-3.9,0.1-6-0.9c-2.2-1.1-4-0.4-6.1,0.6
	c-2.4,1-5.8,1.6-9.1,1.3c-1.5-0.1-3-0.4-4.4-0.9l0,0l0,0l0,0c-2.3,0.6-3.4-0.2-5.1,1.7c-1.3,1.5-2.6,2.9-1.1,4.7
	c1.6,1.8,4,3.1,5.2,5.2c1,1.7,0.8,4.2,1.6,6.1c0.7,1.7,1.6,4.5,0.2,6.1c-1.9,2.1-3.8,3.2-5.1,5.9c-1.5,3.1,1.3,3.6,0.9,6.1
	c-0.3,2-1.6,3.8-0.1,5.7c2,2.5,0,2,0,4.4c0,1.3-0.1,2.7-0.3,4c-0.2,1.9-1.9,2-2.4,4c-0.5,1.9-0.5,3.8-1.6,5.5
	c-2.2,3.5-5.5,7.6,0.4,8c0.9,2.5,4.5,3,6.7,3.5c3.9,0.9,5.3-1.2,8.6-2c1-0.3,1.2,3.5,2.8,1.6c0.7-0.9,1.6-2.5,2.9-1.5
	c0.6,2.2-1.5,4,0.2,6.1C281.2,529.2,282.6,530.1,283.8,531.3"/>
<path id="D602" class="st0" d="M621.6,12.2c-1-0.2-2.6,0.7-3.3,1c-1.9,1-2.7,1.4-4.8,0.9c-1.7-0.4-2.8,0.6-1.5,2.2
	c0.9,1.1,2.5,1.2,3.8,1.3c0.2,1-0.2,1.9,0.7,2.7c-2.3,1.2-4.4,1.2-6.3,3.5c-0.8,0.9-2.4,3.6-0.9,4.6c-1.3-0.6-2.2,1.8-3.2,2
	c-0.4,2.2-0.9,5-2.1,6.9c-1,1.6-3.9,1.5-5.4,3.2c-3.4,3.8-7.9,0.5-11.3,3.4c-2.2,2-1.8,0.9-4.3,0.2c-1.1-0.3-2.2,1-2.9,1.6
	c-4.1,2.9,3.3,5.8,5.3,7.4c-1.3,2.9-4.1,2.3-6.1,1c-2.4-1.6-6.7-0.1-5.7-4.6c0.6-2.8-2.2-6.4-5-4c-1.1,0.9-2.1,2.3-3.4,3
	c-1,0.6-2.2,0.2-3.3,0.7c-6.6,3.4-5.2-8.8-9.3-9.2c-2.8-0.3-6,0.1-8.9,0.1c-1.6,0-3.3,0.1-4.8,0.7c-1.5,0.6-2.7,1.8-4.5,1.6
	c0.1,1.4,4,2.7,5.3,3.2c0.7,3.9-0.7,7.3,4.1,6.9c-0.1,2.9-1.2,5-4.2,5.3c-2,0.2-5.2,1.1-6.8,2.4c-2.8,2.2-3.4,6.9-5.9,9.7
	c-1.1,1.2-2.5,0.4-3.7-0.9c-0.4,0.6-0.5,1.3-0.4,1.9c0,0.2,0,0.4,0.1,0.6c1,3.3,7.3,3.4,10,3.6c0.8,0,7.9,0.1,8.1-1.8
	c0-0.3-0.1-0.6-0.4-0.9c-0.8-0.9-2.8-1.5-2.6-3.1c0.1-1.2,1.1-1.9,1.1-3.1c0-0.1,0-0.1,0-0.3c2.2-0.4,2.8,2.5,4.6,3
	c2.4,0.7,3.2-3.5,5.4-3.9c1.9-0.3,5.6-0.1,7.2,0.9c0.6,0.3,0.4,1.3,0.9,1.8c0.7,0.8,2.4,0.7,3.4,0.5c0.1-0.6,0.1-1.2,0.1-1.7v-0.6
	c0.9,0.1,4.5-0.4,5-1.1c1.6-2.1,0.5-5.2,1.9-7.4c0.9,0.2,0.9,0.9,1.1,1.6c0.4,1.3,2.3,0.8,3.3,0.9c0.3,1,0.7,1.9,1.1,2.9
	c1.2,0.3,6.3-0.3,6.4,1.6v0.2c-0.1,1.4-2.6,1.7-2.4,2.8c0,0.1,0,0.1,0.1,0.2c1,2,0.7,4,0.9,6.2c1.8,0,3.6,0,5.3,0.6
	c1.2,0.5,1.5,1.1,1.5,1.8c0,0.7-0.3,1.5-0.3,2.3c0,0.2,0,0.3,0,0.5s0.1,0.4,0.1,0.6c0.6-0.1,1.2-0.1,1.7,0.1
	c0.4,0.2,0.7,0.4,0.9,0.7c1.7,1.9,1.3,5.5,3.1,7.4c0.1,0.1,0.1,0.1,0.2,0.2c0.1,0.1,0.1,0.1,0.2,0.2l0,0l0,0
	c0.7,0.6,1.6,1.2,2.5,1.6c0.8,0.4,1.7,0.6,2.5,0.5c1.2-0.2,3.1-2.4,4.1-3.2c-0.1-0.3-0.3-0.6-0.5-0.9c-0.3-0.3-0.6-0.6-0.8-1
	c-0.1-0.3-0.3-0.6-0.2-1c1.7,0.5,3.8,0.8,5.6-0.1c0.4-1-0.3-1.7-1.2-2.2c-1-0.6-2.5-1-3.1-1.2c-0.1-0.8-0.3-1.5-0.8-2.2
	c1.1-0.8,3.4,0.3,4.7,0.3c1.7,0,3.4-0.1,5-0.3c3.6-0.6,6.1,1.8,9.8,1.4c2.2-0.2,4.5-0.6,6.7-0.5c1.7,0,3.1,0.9,4.8,0.4
	c0.6-0.1,1.2-0.5,1.8-0.7h-0.1c-0.1-0.1-0.3-0.2-0.3-0.3c-0.1-0.1-0.1-0.2-0.1-0.3c0-0.2,0.2-0.4,0.4-0.6s0.5-0.4,0.7-0.6
	s0.4-0.4,0.5-0.5c0.1-0.2,0.2-0.5,0.2-0.9c0-0.3,0-0.7,0-1.1c0-0.7-0.1-1.5-0.2-2c-0.6,0.2-0.9,0.3-1,0.6c-0.1,0.2-0.1,0.5-0.2,1.1
	c-0.1,0.3-0.1,0.7-0.2,1c-0.1,0.3-0.2,0.5-0.5,0.7c-0.2,0.1-0.3,0.2-0.5,0.2c-0.1,0-0.3,0-0.5-0.1c-0.3-0.1-0.6-0.4-0.8-0.7
	c-0.2-0.3-0.4-0.7-0.4-1.2s-0.1-0.8-0.1-1.1c0.1-0.3,0.2-0.6,0.4-0.9s0.5-0.7,0.7-1s0.5-0.7,0.7-1c0.1-0.3,0.3-0.6,0.2-0.9
	c0-0.1-0.1-0.3-0.2-0.4s-0.2-0.2-0.3-0.3c-0.3-0.2-0.6-0.4-1-0.5c-0.3-0.1-0.7-0.3-1-0.4s-0.6-0.4-0.7-0.6c-0.1-0.3-0.2-0.6-0.3-0.9
	c0-0.3,0-0.7,0-1c0.1-0.7,0.3-1.3,0.6-1.8c0.2-0.4,0.4-0.7,0.6-0.9c0.2-0.2,0.4-0.3,0.7-0.4c0.5-0.1,1.1,0,1.9-0.1
	c0.3,0,0.7-0.1,1-0.2c0.3-0.1,0.7-0.2,0.9-0.4s0.4-0.3,0.5-0.4c0.1-0.1,0.1-0.2,0.1-0.3c0-0.2-0.2-0.4-0.3-0.9
	c-0.1-0.3-0.1-0.6,0-0.9c0-0.3,0.1-0.6,0.2-0.9c0.1-0.3,0.3-0.5,0.5-0.7s0.5-0.4,0.8-0.5s0.7,0,1,0.1s0.7,0.3,0.9,0.6
	c0.1,0.2,0.2,0.5,0.3,0.7s0.1,0.5,0.3,0.6s0.5,0.2,0.9,0.2s0.8,0,1.2-0.1s0.9-0.1,1.2-0.3s0.6-0.3,0.8-0.4c0.2-0.2,0.3-0.6,0.3-0.9
	c0-0.2,0.1-0.3,0.1-0.5c0-0.1,0.1-0.3,0.2-0.4c0.1-0.1,0.2-0.1,0.4-0.1c0.1,0,0.3,0,0.5,0c0.4,0,0.7,0.1,1,0s0.5-0.3,0.6-0.4
	c0.1-0.1,0.3-0.3,0.8-0.3c0.4,0,0.7,0,1,0c0.1,0,0.2-0.1,0.3-0.1c0.1-0.1,0.2-0.2,0.3-0.4c0.1-0.1,0.1-0.3,0-0.4
	c0-0.1-0.1-0.3-0.1-0.5c0-0.1-0.1-0.3-0.1-0.4c0-0.1,0-0.3,0.1-0.4c0.1-0.1,0.3-0.3,0.4-0.3c0.1,0,0.3-0.1,0.4,0
	c0.3,0,0.7,0.2,0.9,0.3c0.5,0.2,1.1,0.7,1.7,1c0.3,0.1,0.6,0.3,0.9,0.3c0.1,0,0.3,0,0.4-0.1c0.1-0.1,0.3-0.1,0.4-0.3
	c0.2-0.2,0.3-0.4,0.4-0.7c0.1-0.3,0.1-0.6,0.2-1c0.1-0.7,0.1-1.5,0.1-2c0-0.3,0-0.6,0-1c0-0.3,0-0.7,0.1-0.9c0-0.1,0.1-0.3,0.2-0.3
	c0.1-0.1,0.2-0.1,0.3-0.2c0.1,0,0.3,0,0.4,0c0.1,0,0.4,0.1,0.6,0.2c0.2,0.1,0.7,0.4,1,0.6c1.6-4.5,3.1-9.4,1.5-14.1
	c-0.4-1.2-3.3-6.4-2.6-7.5c-2.1,3.2-4.5,0.1-5.9-2.4c-1.6-2.8-3.3-5-6.6-5.8c-1.8-0.4-4-1.8-5.9-1.5c-1.2,0.2-2.1,0.6-3.1-0.2
	c-0.3-0.2-0.8-0.7-1.5-1.2c-1.7,0.4-3.2,0.9-3.7,1.8c-0.5,1,0.3,2.1-1.3,2.5c-1.3,0.4-2.6,0-3.9-0.1c-0.1-2.6-1.5-5.6,0-7.6
	C622.2,12.4,621.9,12.2,621.6,12.2L621.6,12.2z M652.8,23.5c-0.2-2.3-2.3-3.7-3.6-5.4c-1.3-1.7-1.9-4-2.5-6
	c-0.4,0.1-0.8,0.2-1.2,0.4c0,0,0,0,0,0.1C646.9,16.1,647.4,24,652.8,23.5L652.8,23.5z"/>
<path id="D623" class="st0" d="M556,424c0.2-1.6,2.2,0.3,2.7,0.6c1.8,0.9,5-0.4,7-0.1c-0.9,4-8.2-0.5-8.3,5c2.5,0.4,4.9,0,7.4,0.5
	c2.1,0.4,4.2,0.9,6.3,1.4c2.5,0.6,5.1,0.7,7.6,1.1c0-0.9-0.1-1.5-0.6-2.2c-1.1-0.1-2.2-0.5-3.2-1.2c-1.3-0.9-5.7-1.5-5.7-3
	c2.5-0.1,4.3,1.2,6.4,2c-1.4-0.9-2.9-1.9-4.2-3.1c-0.1-0.1-0.1-0.1-0.2-0.2s-0.1-0.1-0.2-0.2c-0.3-0.4-0.7-0.8-0.9-1.2
	c-1.6-2.6-1.6-7.2-0.4-10c0.8-1.8,5.4-2.1,7-2c0.3-1.9,0.8-3.8,1.2-5.7c0.3-1.2,1.9-3.7,1.8-4.7c-0.1-0.4-0.2-0.7-0.4-1
	c-1.3-1.5-5-0.2-6.1-1.5c-0.1-0.1-0.2-0.3-0.3-0.6c-0.3-1.3,1.5-1.9,1.2-3.4c-0.4-1.8-0.9-3.2-1.1-5.1c0-0.4-0.2-0.7-0.4-0.9
	c-0.4-0.4-1-0.7-1.4-1.2c-0.3-0.3-0.5-0.6-0.5-1c0.1-1.3,2.2-2.6,2.9-3.6c1.4-2-1.2-4.1,0.1-5.2c1.5-1.2,2.5-0.1,2.9-2.6
	c0.4-1.8,0.9-4,1.7-5.7c0.6-1.2,3.3-4.2,2.2-5.4c-0.3-0.3-0.9-0.6-1.9-0.6c-2.7,0-5,2-7.7,2.1l0,0l0,0c-0.6-1.9,2.2-3.4,0.7-5.3
	c-1.6-2-0.1-2.7,0.7-4.7c1.6-3.8,4.8-4,8-4.6c-1-0.4-1.6-1-1.5-1.9c0.1-1,0.8-1.8,0.6-2.9c-0.2-1-1.6-0.4-0.7-1.7
	c1.4-2,3,2.6,4.5,0.6c0.9-1.1-0.6-3.5-1.2-4.5c0.1,0,0.1-0.1,0.2-0.1c-1.6-0.7-3.4-0.1-5-1.2c-2-1.3-5.3-1.4-7.2,0.4l-0.1,0.1
	c-0.2,0.2-0.4,0.4-0.6,0.7c-1.5,1.4-2.9,2-4.8,3.2c-2.1,1.3-4.5,0.8-6.9,1.2c-1.8,0.3-3.5-0.1-5.1-0.7c-0.3,1.9,0.7,3.1-0.3,4.1
	c-0.3,0.3-0.9,0.6-1.8,0.9c-0.5,0.1-0.9,0.4-1.2,0.8c-1.3,1.5-0.9,4.4-0.1,6c-0.6,0.7-1.4,1.4-2.2,1.6s-1.6,0.1-2.3-0.6
	c-2.2-2-4-0.4-6.4-1c-3.1-0.7-5.1-4.8-8.3-5.3c-1-0.1-5.2,2.8-6.4,4.7c-0.3,0.5-0.4,1-0.2,1.3c3.9,4.4-1,7.4,0.8,12.3l0,0l0,0
	l-0.1,0.1c-0.1,0.1-0.2,0.2-0.3,0.3l0,0c0.8,2.3,1.6,3.5,1.8,6.2l0,0c0.3-0.2,2.6,1.2,2.8,1.3c1.5,1,3.3,3.9,1.9,5.6
	c-1.7,1.9,0.6,2.2,1.5,3.9c1.3,2.6,0.8,5.6,1.4,8.4c3.8,0.3,8.1,1.4,11.6,2.8c-3,3.6,3.7,5.9,4.4,9.2c0.6,2.9-1.9,5.4-1.3,8.3
	c0.2,1.1,0.5,2,0.4,3.2c-0.1,0.6-0.8,1.3-0.7,1.8c0.5,0,5.3,0.1,4,1.8c-0.1,0.1-0.2,0.2-0.3,0.3c-0.8,0.8-1.7,1-2.2,1.6
	c-0.4,0.4-0.6,0.9-0.5,1.9c0,0.7,0.1,1.3,0.1,1.9c1,0.3,2.1,0.5,3.1,0.8C556.5,429.6,555.5,427.6,556,424z"/>
<path id="D618" class="st0" d="M407.9,431L407.9,431L407.9,431c1.5-0.4,2.8-1,4-1.9c1.1-0.9-1.2-2.7,0-4c1.5-1.5,3.5-3.5,5.7-3.5
	c0.2-2.7-0.5-2.5,1.6-4.7l0,0l0,0c1.6,1.1,3.1,2.5,4.4,2.4l0,0c0.8-0.1,1.5-0.8,2-2.6c1.3-4.2,7.5-1.8,8.7-6.9c0.4-1.9-1-2-1.6-3.4
	c-0.5-1.2,0.3-2.7-0.3-3.8c-0.5-0.8-1-1.2-1.5-1.2c-1.9-0.1-3.8,3.8-4.5,4.5c-0.6,0.5-1.1,0.6-1.6,0.5c-1.8-0.6-2.9-4.6-3.5-5.4
	c-0.6-1-2-1-1.9-2.4c0.1-2.2-1.1-3-1.9-5c1.8-2.3,2.8-3.4,5.5-4.6c1.3-0.6,2.6-1.3,3.5-2.6c0.7-1,1-3.2,2.6-3.1l0,0l0,0
	c1,0.1,1.8,1.2,2.8,1.6c0.3,0.1,0.5,0.2,0.8,0.2c1.2,0.1,2.4-0.6,3.3-1.2c2-1.4,3.1-4.3,5-5.4c0.3-0.1,0.5-0.2,0.7-0.2
	c1.3,0.1,1.2,3.5,1.6,4.2c0.4,0.9,0.9,1.3,1.4,1.3c1.1,0,2-1.6,2.3-2.8c0.1-0.7,1-4.2,2.2-4.2c0.2,0,0.4,0.1,0.7,0.4
	c1.3,1.6,4.6,4,3.7,6.4c1.6,0.9,3.3,1.9,5.2,2c0.4,0,0.9,0,1.3-0.1c0.1-2.5,1.5-3.2,3.2-3.5c1.8-0.2,4.1,0.2,5.8-0.1
	c1-0.2,1.9-0.6,2.4-1.6c0-0.1,0.1-0.3,0.1-0.4c0.7-2.2-1.4-4.7-0.3-7.2c0.6-1.3,1-2.5,1-4c0-1.2-1.5-3.2-0.3-4.1
	c-0.2-0.6-0.6-1-1-1.2c-1.5-0.7-3.8,0.6-5.3,1.1c-1.6,0.5-4.2,0.5-6-0.3c-0.6-0.3-1.2-0.6-1.5-1.1c2.6-2.3,8.1-1.2,11.3-2
	c4.7-1.2,8.8-4.1,13.5-5c0.8-0.1,2.1-0.4,3.1-0.9c1.3-0.6,2-1.5,0.7-2.9c-0.7-0.7-5.1-5.6-6.1-4.9l0,0l0,0c1.1-0.7,2.6-1,3.8-1.4
	c-0.3-0.7-0.3-1.3-0.2-1.8c0.4-2.1,3.4-3.3,4.1-5.3c0.1-0.3,0.1-0.5,0.1-0.8c0-3.2-1.4-7-4.7-8.1c-3.6-1.2-7.3,0.1-10.9-0.7
	c-2.4-0.6-2.6-0.2-4.1,1.5c-1.6,1.9-3.1,0.9-5.2,0.7c-0.7-1.4,0-4.1-1.7-4.8c-2.6-1.2-5.9,0.7-8,2.2c-0.6,2.3-0.1,4.7-0.3,7.1l0,0
	l0,0c-4.2-2.9-6.7-9.8-7.4-14.7c-0.2-1.4,0.1-2.3,0.6-3.1c0.7-1,1.7-1.9,2.6-3.1c0.1-0.1,0.2-0.3,0.3-0.4c1.3-2.1,1.2-4.7,2.5-6.8
	c0.1-0.1,0.2-0.3,0.3-0.4c0.6-0.8,1.2-1.6,1.7-2.5c0.6-1.1,0.7-2.3-0.1-3.7c-1.2-1.9-4.2-1.5-6.1-1.5c-1.4,0-6.1,0.4-5-2.4l0,0
	c0.6-1.2,3.8-3.1,4.5-4.4c0.1-0.2,0.1-0.4,0.1-0.5c-1.5-0.1-3.1-0.3-4.4,0.4c-0.4,0.2-0.7,0.5-1,0.9c-0.1,0.1-0.1,0.2-0.2,0.3
	c0,0,0,0-0.1,0.1c-0.4,0.8-0.8,1.6-1.3,2.2s-1.2,0.9-2.3,0.7c-1.1-0.2-1.6,0.1-2,0.6c-0.3,0.4-0.5,1-0.8,1.5
	c-0.2,0.3-0.4,0.5-0.7,0.7c-1.1,0.6-3.2,1.6-4.4,1.2c-0.2-1.8,0.7-3.7,0-5.5c-0.9-2.2-3.7-3.5-5.7-4.4c-0.1-0.4,0-0.7,0.1-1
	c0.2-0.3,0.4-0.6,0.6-0.9c0.1-0.3,0.2-0.6,0.2-1c-1.6-0.7-2.5-0.4-3.2,0.4c-0.1,0.1-0.2,0.2-0.3,0.4c-0.3,0.4-0.5,0.9-0.7,1.5
	c-0.3,0.8-0.6,1.6-0.9,2.3c0,0,0,0,0,0.1s-0.1,0.2-0.1,0.3c0,0.1-0.1,0.1-0.1,0.2c0,0,0,0.1-0.1,0.1l0,0l0,0
	c-0.6,0.9-1.7,1.4-2.2,2.3c-0.1,0.1-0.1,0.3-0.2,0.4c3,1.1,2.2,3.6,1,5.8c-0.3,0.5-0.6,1-0.9,1.5c-0.2,0.3-0.4,0.6-0.5,0.9
	c-2.3,4.4-4.1,9-6.3,13.5c-0.1,0.3-0.3,0.6-0.5,0.9c-1.5,2.2-4,4-5.5,6.3c-0.6,0.8-0.9,1.7-1.1,2.7c-0.1,1,1.1,7.1,0.4,8.4
	c-0.3,0.5-0.9,0.3-2-1.3c-2.2-3.2-5.4-2.3-7.8-4.9c-1.8-1.9-2.9-2.4-3.6-1.5c-0.3,0.5-0.6,1.4-0.6,2.8c0,0.4-0.1,0.7-0.3,1
	c-1.1,2-5.6-1.3-6.9,0.6c-0.2,0.3-0.3,0.7-0.3,1.4c0,0.8,1.9,2.6,1.1,3.5c0,0.1-0.1,0.1-0.2,0.1c-0.6,0.4-1.3,1-2,1.5
	c0.2,0.6,0.4,1.3,0.6,2.1c0.1,0.3,0.1,0.5,0.2,0.7c0.8,2.7,1.5,5.1,4,6.7c0.9,0.6,1.8,0.6,2.8,0.4c0.2,0,0.4-0.1,0.6-0.1
	c1.9-0.6,4-1.9,5.8-2.2c1.4-0.2,2.9-0.3,4.3-0.3c2.4,0,4.8,0.3,7.2,0.6c2.3,0.3,7.2,0.5,10.1,2c1.8,1,2.9,2.5,2.1,5
	c1.6,1,2.9,2.7,4.9,3.1c1.2,0.2,1.8,0.3,2.3,0.5c0.7,0.3,1.1,0.7,2.2,2l0.1,0.1c1,1.1,2.3,2.2,2.8,3.7c0.1,0.3,0.1,0.6,0.1,0.9l0,0
	l0,0l0,0c0,1.3-0.9,2.8-2.2,3.2c-0.2,0-0.4,0.1-0.6,0c0,0.3-0.1,0.5,0,0.7c0,0,0,0,0,0.1s0,0.2,0,0.3v0.1c0.2,1.3,1.3,1.8,2,3.1
	c1.3,2.6-3.7,7.7-6.1,8.7c-0.1,0-0.1,0.1-0.2,0.1c-2.4,0.8-4.8,1.5-7.2,2.1c-1.7,0.4-3.3,2.3-5.1,1.9c-0.9-1.6-1.3-3.5-2.6-4.9
	c-1.1-1.2-2.5-1.9-3.7-3c-1,1.2-2.3,3.7-4.2,4.1c-0.4,0.1-0.8,0.1-1.2,0c-1.2-0.4-3-2.2-4.3-0.8c-2,2.2-1.8,8.6-2.1,11.3
	c-0.2,1.6-0.3,5.7-1.7,7.2c-0.1,0.1-0.2,0.2-0.3,0.3c0,0-0.1,0.1-0.2,0.1c-1.2,0.7-3.9,1.3-5,0.7c-0.1,0-0.1-0.1-0.2-0.1
	c-0.4-0.4-0.6-0.9-0.8-1.5c-2.9,3.2-3.3,5.8,0.4,8.8c2.2,1.8,3.2,1.4,5.9,1.8c2.4,0.4,4.2,2.4,6.7,2.5c0.3,1.8,0.3,3.9-0.6,5.6
	c-0.8,1.5-2.4,2.6-2,4.5c4.3,2.2,7.1,4.5,5.4,9.7c0.5,0.1,1,0.2,1.6,0.2l0,0c0.2,0,0.4,0,0.6,0C405.2,431.5,406.6,431.3,407.9,431z"
	/>
<path id="D632" class="st0" d="M253,596.1L253,596.1c-0.6,3.8,5,8.7,6.8,11.5c2,3.2,7.7,6.6,5.9,11.1c-0.9,2.2-3.2,3.2-4,5.4
	c-0.9,2.2-2.5,5-4.1,6.7c-1.4,1.5-4.1,1.8-2.5,4.4c1.3,2.1,2.2,4.2,3.3,6.5c2,4,6.5,6.6,8.4,10.6c0.1,0.1,0.3,0.1,0.4,0.2
	c0.3,0,0.5,0.2,0.7,0.4c0.1,0.1,0.3,0.2,0.4,0.3c1.5,1,3,2.1,4.6,2.5c1.5,0.4,2.8,1.3,4.2,2.2c0.6,0.4,1.3,0.7,1.9,1
	c2.1,0.8,3.4,2,5.7,2.3c1.4,0.2,3,0.3,4,1.4c1,1.1,0.5,2.6,1,3.8c0.1,0.4,0.4,0.7,0.9,1c3.4,2.2-0.3,7.5,4.4,9.4
	c0.4,0.2,1,0.2,1.5,0.3c1.2,0,2.4-0.1,3.2,0.6c1.2,0.9,0.7,3.4,0.9,4.7c0.5,5.5,3.7,9.1,6.7,13.3c-1.7,1.5-4.2,0.9-6.1,1.6
	c0,0.1,0,0.1,0,0.2c0.3,1.2,1,2,0.9,3.3l0,0c-0.1,0.9-0.4,1.7-0.4,2.6v0.5c0.1,1.2-0.4,2,0,2.7c0.2,0.3,0.6,0.6,1.3,0.9
	c0.6,0.2,1.2,0.5,1.8,0.7c0.5,0.2,1.1,0.4,1.6,0.6c0-0.1,0.1-0.1,0.1-0.2c6.6-1.9,13.6-2.3,20.1-4.2c2.6-0.8,5.2-2.5,7.2-4.4
	c1.9-1.8,0.2-4.5,3-5.7c2.9-1.3,5.8-2.6,8.6-4.1c1.9-0.9,3.6-2.2,5.4-3.1c1-0.5,2.2-0.5,3.1-1.4c0.7-0.7,1-1.5,1.5-2.1
	c-0.5-0.1-1.1-0.3-1.7-0.4c-0.3,0-0.5-0.1-0.7-0.1c-1.3,0-2.6,0.5-3.8,0.5c-0.5,0-1-0.1-1.4-0.3c-1.4-0.7-3-2.1-4.1-3.2
	c-1.4-1.4-0.6-2.7,0.2-4c1.1-1.9-1.7-3.1-2-4.8c-0.6-3.1,0.3-6.5-0.6-9.6c-0.4-1.6-2.1-2-2.8-3.4c-1.2-2.1-0.9-4-2.7-5.9
	c-3.2-3.3,0.5-5.4,2-8.6c1.6-3.3,1.4-9,0.1-12.4c-1.5-4,4.9-4.4,3.8-8.3c-0.5-1.9-2.2-3.2-3.2-4.8c-1.2-2.2-2.6-4.3-4.7-5.9
	c-0.3-0.3-0.7-0.5-1.1-0.7c-0.3-0.1-0.6-0.3-0.8-0.4c-0.6-0.3-1.1-0.7-1.5-1.3c-0.7-1.2-1.5-2.6-2.9-3c-0.3-0.1-0.7-0.1-1.1-0.1
	c-0.6,0-1.2,0.1-1.8,0.1c-0.1,0-0.2,0-0.3,0c-0.7,0.2-1.6,0.3-2.5,0.4c-1.1,0.1-2.2,0.1-3.3,0c-0.6,0-1.1-0.1-1.6-0.3
	c-0.5-0.1-1-0.3-1.4-0.4c-0.4-0.2-0.8-0.4-1.1-0.7c-0.3-0.3-0.6-0.6-0.7-1c-0.2-0.4-0.4-0.6-0.6-0.7c-0.2-0.1-0.5,0-0.7,0.1
	c-0.3,0.1-0.5,0.4-0.8,0.7s-0.5,0.7-0.7,1c-0.5,0.8-0.9,1.6-1.2,2.3c-0.3,0.7-0.5,1.2-0.5,1.2c-0.1,0.2-0.1,0.3,0,0.5
	c0,0.1,0.1,0.3,0.3,0.4c0.3,0.3,0.7,0.5,1.1,0.9c0.2,0.1,0.4,0.3,0.6,0.5s0.3,0.4,0.5,0.6c0.1,0.2,0.2,0.4,0.2,0.7s0,0.6-0.1,0.9
	c-0.3,0.9-0.7,1.9-1.1,2.8c-0.4,0.9-0.9,1.8-1.3,2.6c-0.9,1.5-1.6,2.6-1.6,2.6l-10.5-2c0,0-0.5,1.4-1.1,2.8c-0.3,0.7-0.6,1.4-1,1.9
	c-0.1,0.3-0.3,0.5-0.5,0.7s-0.3,0.3-0.4,0.3c-0.3,0-0.5,0-0.8-0.1s-0.5-0.2-0.8-0.3c-0.5-0.3-1-0.7-1.5-1.1s-1-0.9-1.4-1.2
	c-0.4-0.4-0.8-0.6-1.1-0.8c-0.3-0.2-0.6-0.4-0.8-0.6c-0.2-0.2-0.4-0.5-0.6-0.7c-0.3-0.5-0.5-1.2-0.8-1.8s-0.6-1.5-1.2-2.3
	c-0.3-0.4-0.6-0.8-0.9-1.3c-0.4-0.4-0.8-0.9-1.3-1.3c-1.9,0.1-5.3,0.6-8.6,1c-1.7,0.2-3.4,0.3-4.8,0.3c-0.7,0-1.4,0-2-0.1
	s-1.1-0.2-1.5-0.4c-0.1-0.4-0.3-0.7-0.4-1.1c-0.2-0.3-0.4-0.7-0.7-1c-0.5-0.7-1.1-1.3-1.7-2s-1.2-1.3-1.8-1.9
	c-0.6-0.6-1.1-1.2-1.5-1.9s-1.1-1.6-1.9-2.5s-1.6-1.9-2.4-2.9c-0.4-0.5-0.7-1-1.1-1.5c-0.3-0.5-0.6-1-0.9-1.5
	c-0.2-0.5-0.4-1-0.5-1.5C253,597.1,252.9,596.6,253,596.1z"/>
<path id="D794" class="st0" d="M470.2,131.6c-0.9,1.6-1.7,3.3-2.5,4.7c-1,0.3-2,0.7-3,1c-0.5,0.1-1,0.2-1.5,0.1
	c-0.3,0-0.5-0.1-0.7-0.2c-0.2-0.1-0.5-0.2-0.7-0.4c0.2-0.8,0.5-1.6,0.9-2.4c0.4-0.8,0.8-1.6,1.2-2.4c0.2-1.2,0.4-2.5,0.4-4
	c0-0.7,0-1.5,0-2.4s-0.1-1.8-0.2-2.8c0.1-0.2,0.2-0.6,0.2-0.9c0-0.4,0.1-0.9,0.1-1.3s0.1-0.9,0.1-1.3s0.1-0.7,0.2-0.9l0.9-3.2
	c0.1-0.1,0-0.3-0.1-0.5s-0.2-0.4-0.3-0.8c0-0.3,0-0.7,0.1-1.3c0.1-0.5,0.4-1.2,1-1.9c0,0.1,0.2,0.1,0.6,0.1c0.3,0,0.8,0,1.3-0.1
	s1.1-0.2,1.6-0.3c0.5-0.1,0.9-0.3,1.2-0.6c0.3-0.2,0.4-0.4,0.4-0.6s0-0.4-0.1-0.7c-0.1-0.3-0.1-0.5-0.2-0.8s-0.1-0.6-0.1-0.9
	c0-0.4,0.1-0.9,0.3-1.3c0.1-0.4,0.3-0.8,0.4-1.2c0.3-0.7,0.6-1.2,0.6-1.2s-0.1-0.1-0.4-0.2s-0.6-0.3-0.9-0.6
	c-0.3-0.3-0.7-0.7-0.9-1.2c-0.1-0.2-0.3-0.5-0.3-0.8c-0.1-0.3-0.1-0.6-0.2-0.9c0,0,2.2-1.8,2.7-2.2l0.8-2.8
	c-0.7,0.3-1.4,0.6-2.1,1.1s-1.4,1-2.1,1.7c-1.4,1.2-2.8,2.7-4.2,4c-1.3,0.3-2.1,0.4-2.6,0.6c-0.6,0.2-0.9,0.3-1.1,0.4
	s-0.5,0.2-1,0.3c-0.4,0.1-1.1,0.2-2.2,0.3l-6.5,4.7l-9.6-0.3l-5.9,1.2c0.2-0.8,0.3-1.6,0.3-2.4s0-1.6,0.1-2.4c0.1-1,0.1-2,0.1-3.1
	c0-0.5,0-1,0.1-1.5s0.2-1,0.4-1.5c0.4-1,0.9-1.9,1.4-2.8c0.6-0.9,1.1-1.8,1.5-2.7c0.3-0.5,0.4-0.9,0.6-1.3s0.2-0.7,0.3-1.1
	c0-0.4,0-0.7-0.1-1.1l0,0c0.3,1.1,0,2-0.7,3.4c-0.9,1.8-2.2,3.6-2.9,5.5c-0.8,1.9-0.3,4-0.6,6c-0.3,2,0.1,4.3-1.2,6.1
	c-1.1,1.6-2.9,2.9-4.2,4.4c-0.9,1-2,0.8-2.1,2.5c0.1,0.9,0.2,1.8,0.3,2.6c0,0.6-1.5,2.2-1.4,2.3c-0.4-2.1-1.5-3.7-3.9-3.5
	c-0.1,2.2-0.3,4.2-0.8,6.4c-3.8,1.4-3.5,2.5-4.5,6.1c-2.1,0.2-4.4,0.3-6.6,0c0.1,0.2,0.2,0.4,0.3,0.6c1.3,3.5,1.6,7.9,1.8,11.3v0.1
	c0,1.6-0.3,3.7-0.1,5.5c0.1,0.8,0.3,1.6,0.7,2.3c1.3,2.2,4.5,2,5.8,4.7c-0.9,0.4-1.6,1.9-1.6,3.3c0,1.2,0.4,2.3,1.5,2.5
	c0.9,0.1,2.2-1.3,2.8-1.8c1.5-0.9,3.7-0.3,5.2,0.1c2.5,0.7,10.2,4,10.1,7.5c0,0.2,0,0.5-0.1,0.7c-0.2,0-0.4,0-0.6,0.1
	c-0.4,0.6-0.5,1.5-0.4,2.3c0,0.9,0.1,1.9,0.1,2.8c0,1.1-0.1,2.1-0.7,2.8c1.3,2.1,4.7,1.1,6.6,1.8c0.7,0.2,1.3,0.6,1.8,1.1
	c0.2-0.3,0.6-0.5,1.1-0.8c3.1-1.8,4.4-6.3,6-9.2c2.3-4.1,4.7-8,6.4-12.3C461.9,147.7,466,139.6,470.2,131.6z"/>
<path id="D615" class="st0" d="M276.3,425.5c-0.6-2.6-0.2-5.5-0.8-8.1c-0.1-0.6-0.4-1.3-0.7-1.9c-0.4-0.7-0.7-1.3-0.9-1.9
	c-1.8-4.9,5.4,0.3,7.9-1.6c-0.2-0.4-0.6-1.5-0.9-2.5c-0.2-1-0.3-2,0.4-2.4c0.6-0.3,3.5-2,3.2-2.7c-0.7-1.5-3.1-1.1-4.2-1.8
	c-0.4-0.2-0.6-0.5-0.7-0.8c-0.3-1.2,1-2.8,1.9-3.2c2.1-1,2.2-1.9,2.3-4.2c0.1-2.2,1.8-2.7,3.5-3.1c0.2-0.1,0.4-0.1,0.7-0.1
	c2-0.5,3.1-2.4,5-3.2c2.2-1,3.8,1.2,5.9,1.3c4.4,0.1,5.3-4.1,9-5.2c3.7-1,8.5,2,10.7-2.3c0.9-1.8,2.9-6.8,5.6-3.9
	c0.3,0.4,0.6,0.8,0.7,1.3c0.9,2.5-0.4,6.1-0.3,8.5c2.7,0.3,4-1.7,5.9-3.2c1.3-1,3-1.9,4.8-2.3c-0.1-0.4,0-0.9,0.3-1.4
	c0.7-1.3,2.6-2.6,3.2-3.5c1.6-2.9-2.9-3.5-4.2-5.1c-0.4-0.5-0.3-1.1,0-1.7c0.9-1.5,3.7-2.8,4.8-2.4c1.9,0.7,5.6,5.4,7.6,2.3
	c0.1-0.1,0.1-0.2,0.2-0.3c0.8-1.5-3.2-3.3-4.4-3.3l0,0l0,0h0.1c0.4-0.5-0.4-4-1.6-4.2c-1.3-0.3-2.1,1.4-3.1,1.3
	c-1.5-0.2-1.6-1.9-2.9-2.3c-0.2-2.3-4.7-1.3-5.6-3.7c-0.9-2.3,2.6-3.7,2.5-6c0-2.6-3.2-7.8-0.9-10.2l0,0l0,0
	c0.1-0.1,0.1-0.1,0.2-0.2c2-2,2.9-3.1,0.7-5.7c-0.5-0.6-0.6-1.1-0.5-1.5l0,0v-0.1l0,0c0,0,0-0.1,0.1-0.1l0,0c0,0,0,0,0.1-0.1l0,0
	c0,0,0,0,0.1-0.1l0,0c0.1-0.1,0.2-0.1,0.3-0.2l0,0c-1.8-0.8-3.1-2-5-2.5c-4-1-7.2-3.5-11.2-4.7c-4.3-1.2-8.5,0.4-12.7,1.2
	c-4.2,0.7-7.9,0.1-12-0.6c-1.1-0.1-2.1-0.3-3.1-0.3c-0.8-1.1-1.5-1.5-3.1-0.8c-5.7,2.9,0.2-4.7,0.4-5.9c0.7-3.1-1-4.1-2.5-6.3
	c-1.2-1.6,1.2-3.2,0.7-4.1c-0.6-1.3,0-2.8-1-4c-0.7-0.8-1.3-1.4-1.8-2.3c-1-1.7-1.9-2-3.8-1.9c0,2,1.6,2.8,0.6,4.9
	c-0.3,0.6-0.6,1-0.9,1.4c-0.6,0.6-1.4,0.8-2.4,0.3c-1.4-0.6-2.8-1.9-3.5-3.3c-0.8-1.6,0.3-3.3-0.2-4.9c-0.3-0.9-0.9-0.7-1.6-0.3
	c-0.2,0.1-0.5,0.3-0.7,0.5c-1,0.7-2.3,1.5-3.7,0c-1-1-1.8-2.5-3.4-2.7c-1.9-0.2-3.5,1.4-5.3,1.7c0.1,0.7-0.2,1.2-0.5,1.8l0,0l0,0
	c-0.1-0.1-0.2-0.2-0.4-0.3l-0.1-0.1c-0.1-0.1-0.3-0.2-0.4-0.3l-0.1-0.1c-0.9-0.8-1.6-1.7-2.2-2.6c-1.4,0.2-2.7-0.3-4.4,0.2
	c-2,0.5-2.8,2.9-4.6,3.9c-1.9,1-3.8,0.6-5.2,2.5c-1.2,1.6-1.6,3.9-1.8,5.9s-1.2,4.1-1.2,6c-0.1,3.9,7,6.7,9.5,9.2
	c0.9,1,1.3,1.7,1.3,2.3c0,0.8-0.8,1.5-1.9,2.3c-2.3,1.8-2.4,3.8-2.8,6.7c0,0.3,0,0.7,0,1c0,0.2,0,0.5,0,0.7l0,0c0,0.1,0,0.1,0,0.2
	c0,1.5,0,3.1-2,3.2c-0.1,0.5-0.2,1-0.2,1.3c0,1.8,1.4,2.6,2.6,4.1c0.4,0.5,0.7,0.9,0.9,1.3c0.9,1.9-0.1,3.3-1.3,5.3
	c-0.4,0.6-0.6,1.1-0.6,1.5c-0.3,2.6,7.2-0.6,9,0.3c1.7,0.8,3.1,3.7,4.2,5.1c1,1.3,2.1,2.7,2.2,4.3c0,0.4,0,0.8-0.1,1.2
	c-0.5,2-2.3,3.1-3.3,4.7c-1,1.7-1,3.5-1.1,5.4v0.1c-0.1,1.7-0.6,3.8,0.3,5.4c1,1.8,3.2,1.8,4.6,3.1c0.8,0.7,1.1,1.7,1.2,2.6
	c0,1-0.3,2-0.7,2.9c-1,2.3-2.5,2.6-4.9,2.6c-2-0.1-5.1-0.8-6.7,1c-0.6,0.7-0.8,1.5-0.8,2.3c0,1.1,0.3,2.2,0.3,3.2c0,0.3,0,0.5,0,0.7
	c0,3.7-1.5,6.3-3.3,9.5c-0.3,0.5-0.4,0.9-0.6,1.3c-0.9,3.5,3.5,4.1,4.9,7.3c1.4,3.3-0.6,6.5,0.6,9.6c1.7-0.4,3.5-0.7,5-1.7
	c2.4-1.6,4.4-1.6,7.2-2.2c3.1-0.7,4.4-0.1,4.1,3.3c-0.2,2.6,0.9,5,1.9,7.4c1.2,2.8,2.3,2.9,4.6,4.2c0.4,0.2,0.6,0.6,0.7,1
	c0.7-0.3,1.5-0.6,2.2-1c1.5-1,2.9-2.3,4.7-2.8c0.7-2.2,0.1-7.2-0.6-9.7c0-0.1-0.1-0.2-0.1-0.3C276.4,426,276.3,425.8,276.3,425.5z"
	/>
<path id="D608" class="st0" d="M449.7,215.1L449.7,215.1c0.6,0,1.2-0.2,1.9-0.4c1.2-0.4,2.4-1.1,3.2-1.4c0.2-0.1,0.3-0.1,0.5-0.1
	c2.5-0.3,5-0.6,7.4-1.1c2.5-0.5,4.7-1.8,7.1-2.2c1.6-0.3,3.4-0.1,5-0.5l0,0c0.1,0,0.2-0.1,0.3-0.1c0.4-0.1,0.8-0.3,1.2-0.6
	c1.5-1,2.5-2.6,3.8-3.9c0.8-0.8,1.9-1.2,3.1-1.6c1.2-0.3,2.5-0.5,3.5-0.7c4.2-0.9,1.4,1.4,4.4,3.4c2.5,1.6,6.3-3.1,6.9,1.2
	c0.3,2.4,1.3,2.6,2.4,2.2c1.2-0.5,2.5-1.8,3.5-2.5c0.1,0,0.1-0.1,0.2-0.1c1.1-0.5,2.1,0.2,3.2,0.4c0.5,0.1,1,0,1.5-0.1
	c1.2-0.3,2.2-1.3,3.5-1.8c0.1,0,0.2-0.1,0.3-0.1c1.5-0.6,2.6-0.8,3.6-1.3c1-0.4,1.9-1,3.2-2.1c1.5-1.4,4.3-3.1,2-5
	c-1.1-0.9-8.3-2.9-5.9-5.3c0.3-0.3,0.6-0.4,0.9-0.5l0,0c0.1,0,0.1,0,0.2-0.1l0,0c0.7-0.2,1.4-0.4,1.9-0.9c1.2-1.4-0.3-3.9,0-5.5
	c0.5-4,1.1-8.2,3.5-11.4c-0.8-1.8-9.6-0.6-8.5-4.4l0,0l0,0c0.5,0,0.9-0.1,1.2-0.3c3.1-1.8-0.5-9.4,0.7-11.7c0.3-0.6,0.7-1.1,1.3-1.5
	c3.8-2.5,12.4,0.6,15.8,0.6c4.1,0,6.1,2.3,8.6,5.2c2.4,2.7,5.6,3.6,8.5,5.4c1.2,0.7,2.3,0.4,3.5,0l0,0c0.1,0,0.1-0.1,0.3-0.1
	c0,0,0.1,0,0.1-0.1c0.2-0.1,0.5-0.2,0.7-0.3c1.5-0.7,2.7-0.3,4.2-0.1c3.1,0.4,5.1-0.4,7.7,1.4c0.5,0.4,1,0.5,1.4,0.5
	c1.9,0,2.3-3.7,3.8-5c1.7-1.5,1.3-3.9,3.7-5c1.6-0.7,3.5-0.7,5.2-0.9c0.1-0.4,0.1-0.9,0.1-1.3c0-2.8-1.6-4.8-1.8-7.6l0,0l0,0
	c-0.1-1.9,3.3-2.6,4.5-3.4c-1.5-1-2.7-1.3-4.4-1.3l0,0l0,0c0-0.1,0-0.3,0-0.5c0-2.3-1.9-4.2-1.8-6.7c-2.5-0.1-5.1,0.1-7.6-0.1
	c-1-2.9-0.5-4.4-3.2-6.5l0,0l0,0c0.9-1.5,1.4-2.9,2-4.6c2.6,0.7,4.6-1,7-1.7c1.2-0.3,3.1-0.3,3.9-1.4c1.1-1.6-0.4-3.4,0.3-5
	c0.2-0.4,2.2-1.6,2.1-1.8c-0.2-0.8-6.5-2.9-6.6-4.3c0-0.1,0-0.3,0.1-0.4c-1.4,1.3-3.3,2.2-5.1,1.1c-0.4-0.3-0.5-0.6-0.5-1
	c0-0.3,0-0.6,0-0.9c0-0.1,0-0.2,0-0.3c-0.4-3-4.1-3.1-6.4-3.5c-1.9-0.3-3.7-1.3-5.5-2.6l0,0c-3.7-2.6-7.4-6.1-11.7-5.5
	c-0.1,0.7-0.2,1.5-0.3,2.2c-0.2,1.3-0.5,2.5-0.9,3.7c-0.2,0.6-0.4,1.1-0.7,1.6c-0.5,0.9-0.7,1.6-0.6,2.2c0,0.9,0.6,1.6,1.1,3.1
	c0.2,0.1,0.4,0.2,0.6,0.1c0.4,2-0.5,3.8-1,5.7c-0.1,0.2-0.1,0.4-0.2,0.7c0,0.1,0,0.2-0.1,0.4c-0.3,1.6-0.2,3.3-0.3,5v0.1
	c-0.4,4.1-2.3,4.2-5.6,5.4c-0.6,0.2-1,0.7-1.2,1.2c-0.2,0.3-0.3,0.7-0.5,1c-0.3,0.5-0.7,0.9-1.4,0.9c-1.2,0.1-2-1.2-2.2-2.2
	c-0.1-0.3-0.1-0.7-0.1-1c0.1-2.8,3.1-4.9,3-7.7c0-0.2,0-0.4-0.1-0.6c-2.4-0.4-2,3.6-4.8,1.1c-2-1.8-4.6-4.8-7.5-4.9v-0.1
	c0-0.7,0-1.3-0.2-1.9c-0.2-0.8-0.6-1.5-1.7-1.8c-0.9-0.2-1.8-0.4-1.8-1c0-0.3,0.2-0.6,0.7-1c-3.2-1.7-4,2-6.7,2.3c0,0.4,0,0.9,0,1.4
	c0,0.7,0,1.4,0,2.1s0,1.4-0.1,2.1c-2.4,0.5-5.7-1.4-8.3-1.4c-1.9,0-4-0.1-5.8,0.6c-0.9,0.4-1.2,1-2.3,0.9c-2.6-0.3-3.2,1.8-4.5,3.6
	c-1.3,1.9-3,2.3-5.3,2.4c0,0.1,0,0.3,0,0.4c-0.1,3.9-6,2.3-8.2,1.8c-4.4-1.1-5.7,0.6-7.8,4.4c-4.5,8.5-9,17.1-12.4,26.1
	c-1.6,4.4-4.1,8.3-6.4,12.3c-1.6,2.9-2.9,7.5-6,9.2c-0.5,0.3-0.9,0.5-1.1,0.8l0,0c-0.2,0.3-0.3,0.5-0.3,0.8s0.2,0.7,0.6,1.1
	c0.2,0.3,0.3,0.6,0.3,0.9c0,1-0.6,2.3-0.9,3.1c-0.9,2.1-2.6,0.9-3.7,2.5c-0.1,0.1-0.1,0.2-0.2,0.3c-0.1,0.3-0.3,0.6-0.3,1
	c0,0,0,0,0,0.1l0,0c0,0.5,0.2,1,0.9,1.1c0.7,2.3-1.7,3.6-1.6,5.6c0.5,0.1,1,0.1,1.5,0.1c0.9,0,1.8,0,2.5,0.1
	c0.9,0.1,1.7,0.6,2.4,1.7c1.2-0.5,3.8-2.7,5.5-2.5c0.6,0.1,1,0.4,1.3,1.2c0.7,2-1.8,5.9-2.6,7.7c-1.1,2.8-3.2,7.4-2.6,10.4
	c0.1,0.8,0.5,1.2,1.1,1.4C449.3,215,449.5,215.1,449.7,215.1L449.7,215.1z"/>
<path id="D631" class="st0" d="M354,683.2c0.6,0.1,1.1,0.3,1.6,0.4c0.3-0.4,0.7-0.9,1.4-1.2
	c1-0.5,2-0.9,3.1-1.2c2.2-0.7,4.7-1,6.7-2.1c2.8-1.5,1.4-4.6,2.6-6.9c1.3-2.4,3.4-4.4,5.2-6.4c3.2-3.7,4.7-11.7,3.4-16.4
	c-1.4-5.4-0.6-10.4,2.3-15.4c1-1.8,2.6-3.5,4.8-3.3c2.3,0.2,1.9-3.4,1.3-4.8c-0.3-0.1-0.9-0.1-1.2,0c0,0.6-0.3,1-0.3,1.6
	c-7,0.5-1.3-16,0.1-19.2c3.2-7.1,11.2-15.4,18.9-17.5c1-2.7,4-4.7,7.4-6.2c-0.3-0.2-0.5-0.3-0.8-0.5l0,0c-0.1,0-0.2-0.1-0.3-0.1
	c-0.1,0-0.1,0-0.3-0.1h-0.1c-0.1,0-0.1,0-0.2,0h-0.1h-0.1c-0.1,0-0.2,0-0.3,0c-0.1,0-0.2,0-0.3,0c-1.3-0.1-2.3-0.4-3.3-0.8
	c-1-0.4-2-0.9-3.3-1.5c-1.4-0.6-4.4-0.3-4.9-2.1c-0.7-2.7,2.1-5.3,1.5-8.1c-0.1,0-0.3,0-0.4,0c-3.8-0.1-2.3-7.8-2.2-9.7
	c0.1,0,0.3,0,0.5,0c-0.7-0.2-1.3-0.4-2-0.6c-0.4-0.1-0.9-0.3-1.4-0.4c-0.7-0.2-1.3-0.4-2-0.6c-2.4-0.7-3.7-2.5-5.4-4.3
	c-1.2-1.3-3.1-2.3-3.5-4.1c-2.2-0.1-5.1-0.9-7.8-0.9c-2.4,0-4.6,0.5-5.9,2.5c-1.5,2.2-2.2,7.3-5.6,7.4c-0.1,0-0.2,0-0.3,0
	c-0.1,1.6-1,3.4-2.1,4.6c-0.3,0.3-0.5,0.4-0.8,0.6c-0.4,0.2-1,0.3-1.5,0.4c-0.4,0.1-0.8,0.2-1.2,0.5c-1.1,0.9-1.1,2.9-2.5,3.6
	c-1.2,0.6-2.3,1.4-3.5,2c-0.8,0.4-1.5,0.6-2.1,0.6c-1.8,0.1-2.9-1.5-3.4-3.6c-0.1-0.6-0.4-1-0.8-1.2c-0.8-0.4-2,0-2.5,0.9l0,0
	c-0.1,0.3-0.3,0.7-0.3,1c0.1,3-1.9,5.3-5,5.8c-0.1,0-0.3,0-0.5,0.1c-2.6,0.4-7.4,1.6-9.1-0.9c-0.6-0.9-1.3-1.3-1.9-1.3
	c-1.3,0-2.5,1.8-3.4,3.2c-1.6,3.1-2.4,4.5-2.1,8.1c0.2,0.1,0.5,0.1,0.7,0.1c1.7,0.2,3.8-0.6,5.6-0.5l0,0c-0.1,1.2,1.3,2.5,0.1,3.5
	c-0.7,0.5-1.5,0.2-2.2,0.6c-2,1.3-1.6,3.6-2.5,5.4c-0.9,1.9-0.7,2.3,1,3.4c2.1,1.3,1.3,3.7-0.9,4.1c-0.1,1.4-0.8,3.9,0.7,4.9
	c0.4,0.3,1,0.4,1.6,0.4s1.2-0.1,1.8-0.1c0.4,0,0.8,0,1.1,0.1c1.4,0.4,2.2,1.8,2.9,3c0.4,0.6,0.9,1,1.5,1.3c0.3,0.1,0.6,0.3,0.8,0.4
	c0.4,0.2,0.8,0.4,1.1,0.7c2,1.6,3.4,3.7,4.7,5.9c0.9,1.7,2.6,2.9,3.2,4.8c1.1,3.9-5.3,4.2-3.8,8.3c1.3,3.4,1.5,9.1-0.1,12.4
	c-1.5,3.1-5.3,5.3-2,8.6c1.8,1.9,1.5,3.8,2.7,5.9c0.7,1.3,2.4,1.8,2.8,3.4c0.8,3.1,0,6.4,0.6,9.6c0.3,1.7,3.1,2.9,2,4.8
	c-0.8,1.3-1.6,2.6-0.2,4c1.1,1.1,2.7,2.5,4.1,3.2c0.4,0.2,0.9,0.3,1.4,0.3c1.2,0,2.6-0.5,3.8-0.5C353.6,683.1,353.8,683.1,354,683.2
	L354,683.2z"/>
<path id="D609" class="st0" d="M520.6,154.1c-1.4,0.1-2.6,0.3-3.6,1c-0.5,0.4-1,0.8-1.3,1.5c-1.2,2.3,2.4,10-0.7,11.7
	c-0.3,0.2-0.7,0.3-1.2,0.3c-1.1,3.8,7.6,2.6,8.5,4.4c-2.4,3.2-3,7.4-3.5,11.4c-0.2,1.6,1.2,4.1,0,5.5c-0.4,0.5-1.2,0.6-1.9,0.9
	c-0.1,0-0.1,0-0.2,0.1l0,0c-0.3,0.1-0.7,0.3-0.9,0.5c-2.5,2.4,4.7,4.3,5.9,5.3c2.3,1.9-0.5,3.6-2,5c-0.3,0.3-0.5,0.4-0.8,0.6
	c0.3,0.5,0.6,1,0.8,1.3c0.2,0.4,0.4,0.8,0.6,1.2c0.2,0.4,0.4,0.7,0.8,1s0.9,0.7,1.7,1.1c0.6,0.3,1,0.5,1.5,0.7
	c0.4,0.2,0.8,0.3,1.2,0.3s0.8,0,1.3,0s1.1-0.2,1.8-0.3c0.3-0.1,0.6-0.1,0.8-0.1s0.4,0.1,0.6,0.1s0.3,0.2,0.4,0.4
	c0.1,0.1,0.2,0.3,0.3,0.6c0.1,0.4,0.1,0.9,0,1.5s-0.3,1.2-0.6,1.8c-0.1,0.2-0.1,0.5-0.1,0.8s0.1,0.6,0.2,1c0.2,0.7,0.6,1.5,1,2.2
	s0.9,1.4,1.2,1.9s0.5,0.9,0.4,1c-0.2,0.1-0.6,0.1-0.9,0c-0.3,0-0.7-0.1-1-0.2c-0.6-0.1-1.1-0.4-1.1-0.4c0-0.1-0.3-0.2-0.6-0.1
	c-0.1,0-0.3,0-0.4,0.1c-0.1,0.1-0.1,0.1-0.2,0.2c0,0.3,0,0.6,0.1,0.9c0.1,0.3,0.3,0.7,0.4,1c0.2,0.4,0.5,0.7,0.8,1.1
	c0.3,0.3,0.7,0.7,1.2,1c3.2,1.4,5.9,2.6,8.3,3.6c1.2,0.5,2.3,0.9,3.5,1.2c1.1,0.3,2.2,0.6,3.2,0.7l0,0c1.9-0.4,3.8,0.3,5.7,1.3l0,0
	c0.1,0.1,0.2,0.1,0.3,0.2c0.1,0.1,0.2,0.1,0.3,0.2c0,0,0,0,0.1,0c0.1,0.1,0.2,0.1,0.3,0.2l0,0l0.2,0.1c1.7,1,3.4,2,4.9,2.3
	c1.8,0.4,3.3,0.5,4.7,1.4c0.4,0.3,0.9,0.7,1.3,1.1c0.7,0.9,1.5,2.2,2.5,2.9c0.3,0.3,0.7,0.4,1.1,0.6c3.7,1,5-3.4,7.4-4.7
	c2-1.1-0.9-4.4-0.7-6.7l0,0c-2.3-0.6-0.7-2.1,0.9-2c0.2-1.1-0.4-2.7,0.8-3.2c1.2,0.4,1.5,2.6,2.8,3.2c2.5,1,0.8-3.4,0.3-4
	c-0.9-1-2.9-3.6-4.1-4.1c-1-0.4-4.3,0.2-5.4,0.2c0.1,0.5,0.3,1.1,0.5,1.6c1,0.3,2,1.8,1.7,3c-0.9,0.1-5.6,3.4-5-0.1
	c-2.5-0.3-0.2-4.3,0.1-5.5c0.7-2.3-2.3-6.1-0.1-7.9c3.3-2.7,1.9,4.7,2.1,5.4c1,4.1,2.6,0.9,5,1.3c0,0.3,0.2,1,0.1,1.3
	c1.8,0.4,5.4-2.7,2.8-3.9c-1.9-0.9-4.1,1.2-5.8-0.1c-1.8-1.3,0.5-1.9,1.6-2.2c0.3-1,1.3-2.5,2.7-2.2c0.2,2,2,5.1,4.2,3.9
	c1.7-0.9,4.2-2.5,4.8,0.9c-0.8,0.7-2.4,1-3.4,1.2c-0.6,1.9,0.9,5.5,2.1,6.9c1.9-1.4,2.4-3.2,4.8-4.2c1.6-0.7,1.3-1.9,2.2-2.6
	c0.7-0.5,2.6,1.5,4.4,2.9c0.3-1.2,0.6-2.4,0.9-3.7c0.3-1.1,0.7-2.1,1.1-3.1c-0.6-0.2-1.2-0.3-1.7-0.6c-0.1-1.6-0.1-3.3,0-4.9
	c0,0.3,1.8,0.6,4.1,1.2c1-1.7,2-3.4,2.6-5.3c1.8-5,4.6-9.2,7.5-13.6c1.3-1.9,5.7-4.9,4.8-7.6c-2.8,0.2-3.6,3.9-6.4,4.2
	c-1.9,0.2-5.4-0.3-4.4-2.8c-0.2,0-0.4,0.1-0.7,0.2c-1.2,0.6-2.2,0.7-3.1,0.5c-3-0.7-4.1-5.7-6-8.1c-1.3-1.6-3-3.3-4.6-4.5
	c-0.7-0.5-1.3-0.7-1.9-0.7c-1.3,0-2.4,0.9-4,1.4c-0.4,0.1-0.8,0.2-1.2,0.2c-1.6,0-3.1-0.8-4.7-0.9h-0.4c-1.6,0.1-3.5,1.5-5.1,1.4
	c-0.6,0-1.1-0.2-1.6-0.6c-0.7-0.6-1.3-1.3-2-2c-0.4,0-0.8-0.1-1.4-0.5c-2.6-1.8-4.6-1-7.7-1.4c-1.6-0.2-2.7-0.6-4.2,0.1
	c-0.2,0.1-0.5,0.2-0.7,0.3c0,0-0.1,0-0.1,0.1c-0.1,0-0.1,0.1-0.3,0.1l0,0c-1.2,0.5-2.3,0.7-3.5,0c-3-1.8-6.1-2.7-8.5-5.4
	c-2.5-2.9-4.5-5.3-8.6-5.2C530.2,155.7,524.7,154,520.6,154.1z"/>
<path id="D605" class="st0" d="M513.3,117.4c0.1-0.6,0.1-1.3,0.1-2s0-1.4,0-2.1c0-0.4,0-0.9,0-1.4c0-0.6-0.1-1.3-0.3-2
	s-0.4-1.5-0.7-2.3c-0.3-0.4-0.5-0.9-0.7-1.5s-0.4-1.3-0.6-2l1.3-6.5l1.8,0.6c0.3,0,0.4-0.1,0.6-0.3c0.1-0.2,0.2-0.4,0.1-0.7
	c0-0.3-0.1-0.5-0.3-0.8s-0.4-0.4-0.8-0.6l-1.7-1.1c-0.1-0.3-0.2-0.6-0.2-0.9s0-0.6,0-0.9c0-0.6,0.1-1.1,0.2-1.7
	c0.5-0.2,1-0.3,1.4-0.4c0.4,0,0.9,0,1.5,0.1c0.2-0.1,0.4-0.2,0.5-0.3c0.1-0.1,0.3-0.3,0.4-0.4c0.3-0.4,0.4-0.8,0.6-1.4
	c0.1-0.2,0.3-0.4,0.4-0.4c0.1-0.1,0.3-0.1,0.4-0.1c0.3,0,0.6,0.1,0.9,0.2l1.9,0.9l0.4-1.5l0.2-3.7c0.3-0.9,0.6-1.8,1-2.7
	c0.4-0.9,0.8-1.8,1.2-2.7c0.1-0.8,0.1-1.5,0.1-2.2s0-1.3-0.1-1.9c0,0-0.2-0.5-0.3-1.2c-0.1-0.4-0.1-0.8-0.1-1.3s0-1,0.1-1.5l0,0
	v-0.1c0-0.6,0.1-1.2,0.3-1.8c-0.5-0.5-0.9-1-1.3-1.6c-0.4-0.5-0.7-1-0.9-1.3s-0.4-0.6-0.7-0.8s-0.5-0.4-0.8-0.6
	c-0.3-0.1-0.6-0.3-0.9-0.4c-0.3-0.1-0.6-0.1-0.9-0.2c-0.6-0.1-1.3,0-1.9,0.1c-0.6,0.1-1.2,0.4-1.8,0.7c-0.5,0.3-1,0.7-1.4,1
	c-0.4,0.4-0.8,0.8-1.1,1.3s-0.7,1-0.9,1.5s-0.6,1.1-0.8,1.6c-0.5,1.1-0.9,2.3-1.2,3.5s-0.6,2.3-1,3.3c-0.5,0.1-1,0.1-1.6,0.1
	c-0.5,0-1-0.1-1.6-0.2c-0.5-0.1-1-0.1-1.6-0.1s-1,0-1.6,0.1c-0.4,0.1-0.7,0.3-1.1,0.4c-0.3,0.2-0.7,0.4-1,0.6s-0.7,0.4-1,0.6
	c-0.3,0.1-0.7,0.3-1,0.3c-0.6,0-1.3,0-2.1-0.2c-0.7-0.2-1.5-0.4-2.3-0.7c-1.6-0.6-3.1-1.3-4.2-1.7c-0.4-0.1-0.7-0.4-0.9-0.6
	c-0.3-0.3-0.5-0.6-0.7-0.9s-0.5-0.6-0.7-0.8c-0.3-0.3-0.6-0.4-1-0.5c-0.8-0.1-1.6-0.2-2.4-0.2s-1.6,0-2.5-0.1
	c-0.4-0.1-0.9-0.1-1.3-0.1s-0.7,0-1,0.1s-0.6,0.2-0.8,0.3c-0.2,0.1-0.4,0.3-0.6,0.5c-0.1,0.2-0.3,0.4-0.4,0.7
	c-0.1,0.3-0.2,0.5-0.3,0.9c-0.1,0.6-0.3,1.4-0.3,2.2c-0.2,0.1-0.4,0.1-0.6,0.1s-0.4-0.1-0.5-0.1c-0.3-0.2-0.6-0.5-0.8-0.9
	c-0.5-0.7-0.8-1.7-1.1-2.2c-0.1-0.3-0.3-0.4-0.6-0.6c-0.2-0.1-0.4-0.3-0.7-0.4c-0.5-0.2-1-0.2-1.6-0.3c-0.6,0-1.2,0-1.8,0
	c-0.6,0-1.2,0-1.6-0.1c-1-0.2-2-0.6-2.9-0.7c-0.5-0.1-0.9,0-1.4,0.1c-0.2,0.1-0.4,0.1-0.7,0.3c-0.2,0.1-0.4,0.3-0.7,0.4
	c-0.4,0.4-0.8,0.7-1.3,1s-0.9,0.5-1.3,0.6s-0.9,0.2-1.4,0.2s-1-0.1-1.6-0.4s-1.3-0.9-1.9-1.2c-0.3-0.1-0.6-0.2-0.9-0.1
	c-0.1,0-0.3,0.1-0.4,0.2s-0.2,0.3-0.3,0.5c-0.4,1.1-0.8,2.2-1.2,3.3c-0.2,0.5-0.5,1-0.9,1.5c-0.3,0.5-0.7,0.9-1.3,1.2
	c-0.4,0.3-0.9,0.6-1.3,0.8c-0.4,0.2-0.9,0.3-1.5,0.3c-0.3,0-0.5,0-0.7-0.1s-0.5-0.2-0.7-0.3c-0.2-0.1-0.4-0.1-0.7-0.1
	c-0.2,0-0.5,0.1-0.7,0.4c-0.7,0.7-1.2,1.2-1.7,1.5c-0.3,0.1-0.6,0.3-0.9,0.4s-0.7,0.1-1.2,0.2c0,0.2,0,0.5,0,0.7
	c0.3,1,1.1,2,1.5,2.7c0.3,0.6,0.5,1,0.6,1.5l0,0c0.1,0.4,0.1,0.7,0.1,1.1s-0.1,0.7-0.3,1.1s-0.3,0.8-0.6,1.3c-0.4,0.9-1,1.8-1.5,2.7
	c-0.5,0.9-1,1.8-1.4,2.8c-0.2,0.5-0.3,1-0.4,1.5s-0.1,1-0.1,1.5c0,1,0,2-0.1,3.1c-0.1,0.8-0.1,1.6-0.1,2.4s-0.1,1.6-0.3,2.4l5.9-1.2
	l9.6,0.3l6.5-4.7c1.1-0.1,1.7-0.2,2.2-0.3c0.4-0.1,0.7-0.2,1-0.3c0.3-0.1,0.6-0.3,1.1-0.4c0.6-0.2,1.4-0.4,2.6-0.6
	c1.5-1.3,2.8-2.7,4.2-4c0.7-0.6,1.4-1.2,2.1-1.7s1.4-0.9,2.1-1.1l-0.8,2.8c-0.6,0.4-2.7,2.2-2.7,2.2c0,0.3,0.1,0.6,0.2,0.9
	s0.2,0.6,0.3,0.8c0.3,0.5,0.6,0.9,0.9,1.2c0.3,0.3,0.6,0.5,0.9,0.6s0.4,0.2,0.4,0.2s-0.3,0.4-0.6,1.2c-0.1,0.3-0.3,0.7-0.4,1.2
	c-0.1,0.4-0.2,0.9-0.3,1.3c0,0.3,0,0.6,0.1,0.9s0.2,0.6,0.2,0.8s0.1,0.5,0.1,0.7s-0.1,0.4-0.4,0.6s-0.7,0.4-1.2,0.6
	c-0.5,0.1-1,0.3-1.6,0.3c-0.5,0.1-0.9,0.1-1.2,0.1s-0.6,0-0.6-0.1c-0.5,0.8-0.8,1.4-1,1.9c-0.1,0.5-0.1,0.9-0.1,1.3
	c0,0.3,0.1,0.6,0.3,0.8c0.1,0.2,0.1,0.4,0.1,0.5l-0.9,3.2c-0.1,0.2-0.2,0.6-0.2,0.9s-0.1,0.9-0.1,1.3s-0.1,0.9-0.1,1.3
	c-0.1,0.4-0.1,0.7-0.2,0.9c0.1,1,0.2,2,0.2,2.8c0,0.9,0,1.6,0,2.4c-0.1,1.5-0.3,2.7-0.4,4c-0.4,0.8-0.8,1.6-1.2,2.4
	c-0.4,0.8-0.7,1.6-0.9,2.4c0.3,0.2,0.5,0.3,0.7,0.4s0.5,0.1,0.7,0.2c0.5,0.1,1,0,1.5-0.1c1-0.2,2-0.7,3-1c0.8-1.5,1.6-3.1,2.5-4.7
	c0.3-0.5,0.5-1,0.8-1.6c2-3.8,3.3-5.5,7.8-4.4c1.9,0.4,6.7,1.7,7.9-0.6c0.1-0.3,0.3-0.7,0.3-1.1V123l0,0v-0.1
	c2.3-0.1,3.9-0.5,5.3-2.4c1.3-1.8,1.9-3.8,4.5-3.6c1.1,0.1,1.4-0.5,2.3-0.9c1.8-0.7,3.8-0.7,5.8-0.6
	C507.6,116,510.8,117.8,513.3,117.4z"/>
<path id="D629" class="st0" d="M284.6,547.5c3.3,0.9,7,4.5,8.2,7.7c1,0.3,2.3,0.1,3.6-0.1
	c1-0.2,1.9-0.5,2.7-0.8c0.3-1.5,0.1-3.3,1.6-3.4c0.2,0,0.5,0,0.8,0.1c2.1,0.4,4.1,2.2,5.4,3.9c0.7,1,0.9,2.5,1.3,3.7
	c0.7,2.2,4.1,1.9,6.1,2.3c5.7,1,10.5,0.9,15.7,4c1.9,1.2,4,2.6,6.3,2.9c1.1,0.1,2.1,0,3.2,0l0,0c0.1,0,0.3,0,0.5,0
	c1.2,0,1.9,0.7,2.7,1.3c0.5-0.9,1.7-1.3,2.5-0.9c0.4,0.2,0.7,0.6,0.8,1.2c0.4,2.1,1.5,3.7,3.4,3.6c0.6,0,1.3-0.2,2.1-0.6
	c1.2-0.6,2.3-1.4,3.5-2c1.3-0.7,1.3-2.7,2.5-3.6c0.4-0.3,0.8-0.4,1.2-0.5c0.5-0.1,1-0.1,1.5-0.4c0.3-0.1,0.6-0.3,0.8-0.6
	c1-1.2,2-3,2.1-4.6l0,0l0,0c0.1,0,0.2,0,0.3,0c3.4-0.1,4.1-5.2,5.5-7.4c1.3-2,3.5-2.5,5.9-2.5c2.7,0,5.7,0.8,7.8,0.9
	c0.4,1.9,2.3,2.9,3.5,4.1c1.7,1.8,2.9,3.6,5.4,4.3c0.7,0.2,1.3,0.4,2,0.6c0.4,0.1,0.9,0.3,1.4,0.4c0.7,0.2,1.3,0.4,2,0.6l0,0
	c2.3,0,5.6,0.6,7.4-0.8c0.1-0.1,0.3-0.3,0.4-0.4c0.9-1,1.4-1.9,1.8-2.8c0.9-2.3,0.5-4.6-0.5-7.4c-1.6-4.5-4.8-3.9-8.6-3.3
	c-1.2,0.2-3.2,0.5-4.2-0.6c-1.2-1.2-0.4-3.4-2.8-3.2c-0.2-1,0-2,0.3-2.9c2.8-1.4,6.2,0.1,8.9-1.7c0.1-0.1,0.2-0.1,0.3-0.2
	c1.2-0.9,2-1.6,2.6-2.4c0.9-1.2,1.4-2.4,2.1-4.5v-0.1c0.9-0.4,2.2-0.4,3.4-0.4c1.5-0.1,2.8-0.4,2.9-2.1c0.3-2.6-0.1-5.4,2.6-6.6
	c1.4-0.7,1.9-2,2.3-3.4c-0.7-0.1-1.3-0.5-1.7-0.9c-1-0.9-1.6-2.4-3.1-3.4c-1.5-1.1-3.1-1-4.8-1.1h-0.1c-1.6-0.2-1.8-1.5-2.3-2.9
	c-0.6-1.5,0.1-3.6-1.2-4.7c-0.1-0.1-0.2-0.1-0.3-0.2c-0.1-0.1-0.3-0.1-0.5-0.1c-1.2,0-2.5,2.2-3.2,2.7c-0.1,0.1-0.1,0.1-0.2,0.1
	c-0.4,0.2-0.7,0.3-0.9,0.4c-1.3,0.1-0.9-2.5-1.2-3.5c-0.4-1.5-2.8-3.5-4-4.3c-4.4-2.7-10.8,0.7-15.4,1.3l0,0c0-0.5-0.3-1-0.6-1.4
	c-3,0.3-5.7,1.2-6.7,4.1c-0.7,1.8,2,7.6-0.9,7.7c-0.2,0-0.4,0-0.7-0.1c-0.4-0.1-0.8-0.1-1.1-0.1c-1.3,0.1-1.7,1.3-3.4,1.8
	c-2.1,0.7-2.6,1.4-4.2,2.6c-0.3,0.3-0.7,0.4-1,0.4c-1.6,0.3-3.6-1-5-1.2c-0.3,0-0.5,0-0.8,0c-1.8,0-3.1,1-4.2,2.5l0,0l0,0
	c-3.3-1.8-7.1-1.9-10.7-2h-0.1h-0.1l0,0c-1.5,0.1-4.5,0.6-5.3-0.8c-1-2,0-3.7-2.5-4.7c-0.3-0.1-3.8-1.7-3.8-1.8
	c-1.2,1.2-4.9,2.7-6.5,2.6l0,0l0,0c-1.8,0-3-1.8-4.8-2.1c-0.3,0-0.5-0.1-0.7-0.1c-3.4-0.1-1.6,5-3.7,5.9c-3.7,1.6-7.9-0.2-10,4.6
	c-0.9,2-0.2,3.8-2.3,5.3c-0.8,0.6-1.7,1-2.6,1.3c0,0,0,0,0,0.1c-0.1,0-0.2,0-0.3,0c-0.6,0.2-1.3,0.4-1.9,0.5l0,0l0,0
	c0-0.1,0.1-0.2,0.1-0.3c-1.4,0.3-2.9,0.7-4.2,1.2c-1.8,0.7-3.4,1.8-4.7,3.1l0,0l0,0c0.3,0.3,0.7,0.7,0.9,1.1
	c-1.4,0.6-1.3,4.5-1.8,5.9c-1.2,3.2-4.9,0.4-5.6,3.2c-0.4,1.4-0.6,2.9-0.7,4.4l0,0l0,0C279,547.1,282,546.8,284.6,547.5L284.6,547.5
	z"/>
<text transform="matrix(1 0 0 1 501.1143 317.8894)" class="textName">Ariyalur</text>
<text transform="matrix(1 0 0 1 645.483 147.4724)" class="textName">Chengalpattu</text>
<text transform="matrix(1 0 0 1 657.0193 77.8344)" class="textName">Chennai</text>
<text transform="matrix(1 0 0 1 129.0544 368.7778)" class="textName">Coimbatore</text>
<text transform="matrix(1 0 0 1 514.064 278.738)" class="textName">Cuddalore</text>
<text transform="matrix(1 0 0 1 352.2207 205.3025)" class="textName">Dharmapuri</text>
<text transform="matrix(1 0 0 1 319.7651 424.5505)" class="textName">Dindigul</text>
<text transform="matrix(1 0 0 1 269.6821 278.7039)" class="textName">Erode</text>
<text transform="matrix(1 0 0 1 462.4248 242.4968)" class="textName">Kallakurichi</text>
<text transform="matrix(1 0 0 1 657.5366 108.7107)" class="textName">Kanchipuram</text>
<text transform="matrix(1 0 0 1 162.8312 698.8796)" class="textName">Kanniyakumari</text>
<text transform="matrix(1 0 0 1 356.8516 360.7732)" class="textName">Karur</text>
<text transform="matrix(1 0 0 1 330.1118 137.9988)" class="textName">Krishnagiri</text>
<text transform="matrix(1 0 0 1 337.1118 481.0779)" class="textName">Madurai</text>
<text transform="matrix(1 0 0 1 604.9395 322.0414)" class="textName">Mayiladuthurai</text>
<text transform="matrix(1 0 0 1 612.0804 412.3347)" class="textName">Nagapattinam</text>
<text transform="matrix(1 0 0 1 349.8604 305.1462)" class="textName">Namakkal</text>
<text transform="matrix(1 0 0 1 606.2573 287.7028)" class="textName">Perambalur</text>
<text transform="matrix(1 0 0 1 430.5742 424.3718)" class="textName">Pudukkottai</text>
<text transform="matrix(1 0 0 1 458.0209 586.0654)" class="textName">Ramanathapuram</text>
<text transform="matrix(1 0 0 1 524.0566 87.5193)" class="textName">Ranipet</text>
<text transform="matrix(1 0 0 1 361.2334 256.2439)" class="textName">Salem</text>
<text transform="matrix(1 0 0 1 388.7954 497.6952)" class="textName">Sivaganga</text>
<text transform="matrix(1 0 0 1 268.7705 593.9304)" class="textName">Tenkasi</text>
<text transform="matrix(1 0 0 1 529.6257 450.9474)" class="textName">Thanjavur</text>
<text transform="matrix(1 0 0 1 157.1362 280.5183)" class="textName">The Nilgiris</text>
<text transform="matrix(1 0 0 1 273.8423 491.4421)" class="textName">Theni</text>
<text transform="matrix(1 0 0 1 543.6196 29.7682)" class="textName">Tiruvallur</text>
<text transform="matrix(1 0 0 1 612.9563 376.7451)" class="textName">Tiruvarur</text>
<text transform="matrix(1 0 0 1 392.6313 344.8017)" class="textName">Tiruchirappalli</text>
<text transform="matrix(1 0 0 1 270.5581 644.8435)" class="textName">Tirunelveli</text>
<text transform="matrix(1 0 0 1 375.0605 101.1164)" class="textName">Tirupathur</text>
<text transform="matrix(1 0 0 1 264.3701 360.572)" class="textName">Tiruppur</text>
<text transform="matrix(1 0 0 1 471.9751 149.1824)" class="textName">Tiruvannamalai</text>
<text transform="matrix(1 0 0 1 389.0151 636.2517)" class="textName">Tuticorin</text>
<text transform="matrix(1 0 0 1 463.3247 91.7388)" class="textName">Vellore</text>
<text transform="matrix(1 0 0 1 530.2603 195.3992)" class="textName">Vilupuram</text>
<text transform="matrix(1 0 0 1 303.6914 539.7859)" class="textName">Virudhunagar</text>
<line class="st0" x1="597.2" y1="97.3" x2="677.7" y2="113.1"/>
<line class="st0" x1="474.3" y1="301" x2="633.1" y2="290.8"/>
<line class="st0" x1="529.6" y1="415.8" x2="543.6" y2="436"/>
<line class="st0" x1="552.8" y1="376.7" x2="640.6" y2="364.1"/>
<line class="st0" x1="405.1" y1="108.7" x2="439.7" y2="143.4"/>
</svg>
