<?xml version="1.0" encoding="utf-8"?>
<!-- Generator: Adobe Illustrator 26.0.0, SVG Export Plug-In . SVG Version: 6.00 Build 0)  -->
<svg version="1.1" id="Layer_1" xmlns="http://www.w3.org/2000/svg" xmlns:xlink="http://www.w3.org/1999/xlink" x="0px" y="0px"
	 viewBox="0 0 800 730" style="enable-background:new 0 0 800 730;" xml:space="preserve">
<style type="text/css">
	.st0{stroke:#000000;stroke-miterlimit:10; cursor:pointer;}
	.textName{font-family:'Arial'; font-weight:bold; color:#000000; font-size:13px; cursor:pointer;}
</style>
<path id="D637" class="st0" d="M485.7,685.6L485.7,685.6L485.7,685.6L485.7,685.6L485.7,685.6l0,0.1l-0.1,0v0h0v0h0v0h-0.1v0l0,0v0
	h-0.1v0h0v-0.1l0,0v0h0v0h0v0h0v0l0,0v0h0v0l0,0v0L485.7,685.6L485.7,685.6L485.7,685.6z M486.2,687l-0.6,0.2l-0.6,0.1l-0.3,0l-1,0
	l-0.5-0.3l-0.1-0.2l0.2-0.3l0-1.1L483,685l-0.3,0.2l-0.2,0.4l-0.2-0.6l-0.5-0.2l-0.3-0.4l-0.2-0.7l0.1-0.3l0.3,0.5l0.3-0.1l0.3-0.3
	l0.4-0.2l-0.1-0.4l-0.3-0.5l-0.5-0.1l-0.6-0.4l0.2-0.2l1.1,0l0.5-0.1l-0.2-0.3l-0.5-0.4l-0.8,0.1l-0.3-0.3l-0.3-0.1l-0.4,0.2
	l-0.4-0.5l-0.3,0.3l-0.4,0.1l0-0.3l0.2-0.3l0.4-0.1l0.1-0.3l-0.3-0.8l-1-0.2l-0.1,0.9l-0.3,0.3l-0.4-0.1l0.2-0.6l-0.4-0.3l-0.1-0.6
	l-0.2,0.2l0,0.6l-0.2,0.6l-0.1-0.1l0.1-0.8l0-0.4l0.2-0.2l-0.2-0.3l-1.3,0.2l0.1-0.5l-0.2-0.1l0-0.4l-0.2-0.1l-0.2,0.3l-0.1-0.1
	l0.1-0.5l-0.9-0.3l0-0.1l0-0.1l0.2-0.2l0-0.2l-0.5,0l0-0.2l0.3,0l-0.1-0.2l0.1-0.4l0.4-0.1l0.2-0.3l0.4-0.2l0.1-0.3l-0.2-0.6
	l-0.3,0.2l-0.1,0.4l-0.4-0.2l-0.4,0l-0.1-0.3l0-0.8l0.1-0.2l0-0.5l0.6,0l0.3-0.1l0.4,0.3l0.5-0.2l0.4,0.4l0.1,0.8l0.6-0.3l0.4,0
	l0-0.6l-0.1-0.6l-0.4-0.1l-0.1-0.3l0.1-0.3l0.2-0.2l0.2-0.4l-0.3,0.1l-0.1-0.3l-0.6-0.2l0.1-0.5l-0.1-0.6l0-0.4l0.1-0.2l0.4-0.2
	l0.5,0.4l0.4,0.4l0.4,0.2l0.6-0.1l0.4,0.1l0.6,0l0.2,0.2l0,0.7l0.3,0.3l0.5,0.1l0.3-0.3l0.2-0.4l0.1-0.6l0.1-0.3l0.4-0.2l0.1-0.2
	l0.3-0.1l0.1,0.1l0.2,0.2l0.4,0.1l0.2-0.1l0.1-0.2l0.1-0.2l0.9,0.1l0,0.2l0,0.6l0.8,0.3l0,0l0.1,0l0.2,0l0.5,0.1l0.5,0l0.3,0v0.2h0
	v0.2h0v0.2l0,0v0.2l0,0v0.6h0v0.2l0,0v0.1l0,0v0.1h0v0.1h0v0h0v0l0,0v0.4h0v0.2l0,0v0.1l0,0v0.1h0v0.1l0,0v0.2h0v0.3h0v0.1l0,0v0.2
	h0v0.2l0,0v0h0v0.2h0v0.7h0v1h0v0.6l0,0v0.1h0v0.1h0v0.1h0v0l-0.2,0v0h0v0l-0.2,0v0.1l0,0v0h0v0l0,0v0.1h0.1v0l0,0v-0.1h0v0h0.1v0h0
	v0.1h0v0.2l0,0v0.1l0,0v0.1h0l0,0.3h0v0.3h0v0.8h0v0.3h0v0h0v0.2l0,0v0l0,0v0h0v0l0,0v0h0v0h0v0.1l0,0v0.1l0,0v0.1l-0.1,0v0l-0.1,0
	v0.1h0v0.1h0v0h0v0h0.1v0h0v0h0v0.1h0v0.1h0v0.1h0v0.1l0,0v0.1l0,0v0.1l0,0v0l0,0v0.1h0v0h0v0.4h0v0.5l0,0v0.1l0,0v0.1h0v0.2l0,0
	v0.1l0,0v0.1l0,0v0.5h0v0.5h0v1.5l0,0v0.1l0,0v0.1h0v0.1h0v0h0v0l0,0v0.6l0,0v0.2l0,0v0.2l0,0v0.1l-0.4,0v0h-0.1v0l-0.1,0v0h0v0
	h-0.1v0h0v0l0,0v0h0v0h0v0l0,0v0h0v0l0,0v0h0v0h0v0h0v0.1l0,0v0.1l0,0v0l-0.1,0v0h-0.1v0l0,0v0h0v0h0v0h0v0l0,0v0h0v0h0v0l0,0v0h0v0
	l0,0v0h0v0h0h0v0h-0.1v0l-0.1,0v0h-0.1v0h-0.1v0l-0.1,0v0H484v0l0,0v0h0v0h0.1v0h0.1v0l0.1,0v0h0.1v0l0.1,0v0h0.1v0h0h0v0l0,0v0h0v0
	h0v0h0v0l0,0v0h0v0l0,0v0h0v0h0v0l0,0v0l0,0v0h0.1v0h0.1v0l0.1,0v0h0.1v0l0,0v0h0.1v0h0v0l0,0v0h0.1v0h0v0h0.1v0l0,0l0,0v0h0v0h0.3
	v0.2h0v0.1h0v0.3h0v0.1l0,0v0h0v0.1h0v0h0v0h0v0h0v0.2h0L486.2,687L486.2,687L486.2,687z"/>
<path id="D636" class="st0" d="M118.8,561.1L118.8,561.1L118.8,561.1L118.8,561.1L118.8,561.1L118.8,561.1l0.1,0.1h0v0h0v0l0,0v0
	l0,0v0.1h0v0.1l0,0v0l0,0v0h0v0.1h0v0.1h0v0l0,0v0.1l0,0v0.1l0,0v0l0,0v0h0v0.1l0,0v0.1h0v0.1h0v0.1h0v0.1h0v0.1h0l0,0v0.1h0v0l0,0
	v0h0v0.1l0,0v0h0v0.1l0,0v0.1l0,0v0h0v0.1l0,0v0h0l0,0.1h0v0l0,0v0.1l0,0v0.1h0v0.1h0v0h0v0.1l0,0v0l0,0v0.1l0,0v0.1l0,0v0h0v0.1
	l0,0v0h0v0l0,0v0h0v0.1h0v0.1h0v0h0v0h0v0l0,0v0h0l0,0l0,0v0l0,0v0.1l0,0v0.1h0v0h0v0l0,0v0h0v0l0,0v0h0v0l0,0v0h0v0.1h0v0h0v0l0,0
	v0h0v0h0v0h0v0l0,0v0h0v0l0,0v0.1h0v0l0,0v0.1h0v0.1h0v0h0v0.1l0,0v0h0v0.1l0,0v0h0v0.1l0,0v0.1h0v0.1l0,0v0l0,0v0.1h0v0h0v0l0,0v0
	h0v0h0v0l-0.1,0v0h-0.1v0h-0.1h0v0h0v0l0,0v-0.1h-0.1v0h0v0l0,0v0h0v0h0v0h0v0l0,0v0h0v-0.1l0,0v0h0v0h0v-0.1h0v0l0,0v0h0v0h0v0l0,0
	v0h0v0h0v-0.1l0,0v0h0v0l0,0v0h0v0h0v0h0v-0.1h0v0h0v0l0,0v0h0v0h0v0l0,0v-0.1l0,0v-0.1h0v0l0,0v-0.1h0v0h0v-0.1l0,0v-0.1h0v0l0,0v0
	h0v-0.1l0,0V564h0l0-0.1h0v-0.1l0,0l0,0h0v0l0,0v-0.1h0v0h0v0l0,0v-0.1l0,0v-0.1h0v-0.1h0v-0.1h0v0l0,0v-0.1l0,0v-0.1h0v-0.1l0,0
	v-0.1l0,0v0h0v0l0,0V563h0v0l0,0v-0.1l0,0v-0.1h0v0l0,0v-0.1l0,0v0l0,0v-0.1h0v-0.1l0,0v-0.1h0v0h0v0l0,0v0l0,0v-0.1h0v0l0,0v-0.1
	l0,0v-0.1h0v0l0,0v-0.1l0,0v-0.1l0,0v-0.1h0v0h0V562h0v-0.1h0v0h0v-0.1l0,0v0l0,0v0h0v0l0,0v-0.1h0l0-0.1h0v-0.1l0,0v0l0,0v-0.1h0v0
	l0,0v-0.1l0,0v0h0v0h0v0l0,0v0l0,0v0h0v-0.1l0,0v-0.1h0l0,0h0V561l0,0V561h0v0l0,0v-0.1l0,0v-0.1h0v-0.1l0,0v0l0,0v-0.1h0v0l0,0v0h0
	v0l0,0v0h0v-0.1h0v-0.1h0v0l0,0v0l0,0v-0.1h0v0l0,0v-0.1l0,0v-0.1h0v0h0v-0.1h0v0h0V560l0,0v0l0,0v-0.1h0v0l0,0v0l0,0v-0.1h0v-0.1
	l0,0v0l0,0v-0.1h0v0l0,0v-0.1l0,0v-0.1l0,0v-0.1l0,0v0h0v0l0,0v-0.1l0,0v-0.1h0v0l0,0v-0.1h0v0h0h0V559l0,0v0l0,0V559h0v0h0v0h0
	v-0.1h0v-0.1l0,0v0h0v0h0v-0.1h0v0l0,0v-0.1h0v0h0v0l0,0v0h0v0l0,0v0h0v-0.1l0,0v0h0v0l0,0v-0.1l0,0v0h0v0l0,0v0h0v0l0,0v0l0,0v0h0
	h0v0v0h0v0h0v0l0,0v0h0v0l0,0v0h0v0h0v0l-0.1,0v0h0v0l0,0v0h0v0l0,0v0h0v0l0,0v-0.2h0v0l0,0v-0.1l0,0v0h0v0l-0.1,0v0l0,0l-0.5-0.8
	l0.2-1.3l-0.3-1.1l0-1.1l0.1-1.1l-0.2-0.4l0-0.8l-0.1-1.6l0.2-0.4l1.1-0.6l0.3,0.1l0.2,0.5l0.3,0.1l0.7-0.5l0.3,0l0.5,0.6l0.7,0.4
	l0.3-0.2l0.3-0.8l0.2-0.6l0.7-0.1l1.4-0.9l-0.1-0.8l0.1-0.5l0.3-0.4l0.5-0.4l0.4-0.1l0.5,0l0.3,0.1l0.5,0.7l0.3-0.2l0.1,0.4l1.3,0
	l0.2,0l0.1-0.5l0.3-0.3l0-0.4l0.2-0.3l0.3,0.3l0.8,0l0.4,0.1l0.5,0.5l0.2,0.4l0,0.3l-0.3,0.5l-0.5,0.4l-0.7,0.3l-0.1-0.6l-0.2,0.3
	l-0.1,0.5l-0.3-0.1l-0.6,0.2l-0.2,0.5l-0.3,0.1l-0.4,0.3l-0.2,0.4l-0.3,0.1l-1,1.1l-0.3,0l-0.5-0.4l-0.1-0.5l-0.7,0.1l-0.5,0.1
	l-0.3,0.3l0,1.3l0.4,0.3l-0.4,1l-0.8,1.2l-0.1,0.3l-0.1,0.5l0.4,0.1l0.3,0.5l0.3-0.1l0.2,0.5l-0.1,0v0h0v0h-0.1v0h0v0h0v0l0,0v0h0
	v0.1h0v0l0,0v0.1h0v0.1h0v0h0v0l0,0v0.1l0,0v0.1l0,0v0.1h0v0.1l0,0v0.1l0,0v0h0v0.1h0v0.1h0v0.1h0v0.1h0v0h0v0h0v0h0v0h0v0h0v0l0,0
	v0h0v0h0v0.1l0,0v0l0,0v0h0v0.1h0v0h0v0l0,0v0h-0.1v0l0,0v0h0v0l0,0v0h0v0.1l0,0v0.1l0,0v0.1l0,0v0.1h0v0.1l0,0v0l0,0v0.1h0v0l0,0v0
	l0,0v0h0v0.1l0,0v0.1l0,0v0.1l0,0v0l-0.1,0v0l-0.1,0v-0.1l0,0v-0.1h0V557l0,0v0l0,0v-0.1l0,0v-0.1h0v0l0,0v0h0v0h0v0l0,0v-0.1h0
	v-0.1l0,0v0h0v0h0v-0.1l0,0v0h-0.1v0h0v0h-0.1v0l0,0v0.1h0v0l0,0v0.1h0v0h0v0l0,0v0h0v0.1l0,0v0.1l0,0v0h0v0h0.1v0h0v0h0v0l0,0v0
	l0,0v0h0v0.1l0,0v0h-0.1v0l-0.1,0v0h0v0l0,0v0l0,0v0.1h0v0.1h0v0.1h0v0.1h0v0l0,0v0h0v0l0,0v0h0v0.1l0,0v0.1l0,0v0.1h0v0H120v0h0v0
	h-0.1v0l0,0v-0.1l0,0v-0.1h0v0l0,0v0l0,0v-0.1l0,0v-0.1l0,0v-0.1l0,0v-0.1h0v0h0v0l0,0v-0.1h0v-0.1h0v0h0v0h0v-0.1l0,0v-0.1l0,0V557
	h0V557h0v0h0v0l-0.1,0v0h0v0l0,0l0,0h0v0h-0.1v0l0,0v0h0v0h0v0h0v0l0,0v0.1h0v0.1l0,0v0l0,0v0h0v0.1h0v0h0.1v0h0v0l0,0v0h0v0l0,0
	v0.1l0,0v0.1l0,0v0.1h0v0h0v0l0,0v0l0,0v0l0,0l0,0h0v0l0,0v0h-0.2v0l0,0v0h0v0h-0.1v0h-0.1v0l-0.1,0v0h-0.1v0l-0.1,0V557h0v0h0V557
	h0v0l0,0v-0.1l0,0v-0.1h0v-0.1l0,0v0h-0.1v0l0,0v0h0v0h0v0l0,0v0h0v0l0,0v0.1H118v0h0v0h0v0.1l-0.1,0v0l-0.1,0v0.1l0,0v0.1l0,0v0.1
	l0,0v0.1l0,0v0.1l0,0v0.1l0,0v0.1l0,0v0.1l0,0v0.1l0,0v0.1l0,0v0.1l0,0v0.1l0,0v0.1l0,0v0.1h0v0.1h0v0.1h0v0.1h0v0.3l0,0v0.3h0v0.1
	h0v0.1h0v0.1l0,0v0.1l0,0v0h0v0h0v0h0v0l0,0v0l0,0v0h0v0h0v0l0,0v0l0.1,0v0h0v0h0v0l0.1,0v0l0,0v0.1h0v0h0v0l0,0v0l0,0v0.1l0,0v0.1
	l0,0v0.1h0v0h0v0h0v0.1h0v0h0v0l0,0v0.1h0v0l0,0v0h0v0l0,0v0.1l0,0v0.1l0,0v0h0v0h0l0,0.1l0,0v0l0,0v0h0v0h0L118.8,561.1
	L118.8,561.1L118.8,561.1L118.8,561.1L118.8,561.1z"/>
<path id="D635" class="st0" d="M482.9,573.3L482.9,573.3L482.9,573.3L482.9,573.3l-0.1-0.1v0h-0.1v0l-0.1,0v0h0v0h0h0v0l-0.1,0v0
	l0,0v0h0v0h0l0.1,0v0l0.1,0v0h0v0L482.9,573.3L482.9,573.3L482.9,573.3L482.9,573.3L482.9,573.3l0,0.1l0,0v0h0v0l0,0v0h0v0h0.1v0
	l0.1,0v0h0v0h0v0h0.1v0h0v0h0v0h0.1v0h0.1v0l0,0v0h0v0.1l0,0v0h0v0l0,0v0l0,0v0.1l0,0v0.1h0v0.1h0v0.1h0v0.1l0,0v0.2l0,0v0.1l0,0v0
	h0v0.1l0,0v0.1h0v0.1h0v0.1h0v0.1l0,0v0l0,0v0.1h0v0.1l0,0v0.1h0v0.1h0v0.1l0,0v0l0,0v0h0v0.1l0,0v0l0,0v0.1l0,0v0h0v0.1h0v0.1h0
	v0.1h0v0.1h0v0.1l0,0v0.1l0,0v0.1l0,0v0.1h0v0.1l0,0v0.1h0v0.1h0v0h0v0h0v0l0,0v0h0v0.1h0v0l0,0v0.2h0v0.1h0v0h0v0h0v0.1l0,0v0.1
	l0,0v0.1h0v0h-0.1v-0.1h0v0l0,0v-0.1l0,0v-0.1l0,0v-0.1h0v0l-0.3,0v-0.3h0v0h0v0.1l0,0v0h0v0l0,0v0h0v0.1h0.1v0h0v0h0v0.1l0,0v0.1h0
	v0.1h0v0.1h0v0.1l0,0v0l0,0v0h0.1v0h0.1v0l0,0v0.1h0v0.1h0v0.4h0v0l0,0v0h0v0l0,0v0.1l0,0v0.2l0,0v0.1l0,0v0.1h0v0.1h0v0l0,0v0.1
	l0,0v0.1l0,0v0.1h0v0.1l0,0v0.2h0v0h0v0.1l0,0v0.1l0,0v0.1h0v0.2h0v0l0,0v0.1h0v0.1h0v0h0l0,0.2l-0.3-0.3l-0.2-0.4l-0.1-0.2l0-0.2
	l-0.1-0.8l0.2-0.3l-0.2-0.2l-0.2-0.4l-0.1-0.4l-0.4-0.2l-0.3,0.2l-0.9-0.2l-0.1,0.8l-0.1,0.1l-0.3,1l-0.2,0.1l-0.5-0.3l-0.4-0.9
	l0.1-0.3l0.1,0l0.1-0.6l0.2-0.1l0.1-0.9l-0.1-0.8l-0.3-0.1l-0.1-0.2l-0.5,0.1l0,0.7l-0.3,0.4l-0.1,1.6l-0.9,0.3l0.2-1.6l-1-0.2
	l0,0.1l-0.9,0.1l-0.2,0.9l-0.5-1.5l-0.3-0.2l0.2-2.1l-0.4-0.1l-0.7,0.1l-0.1,0.3l-0.2,0.1l-0.4,0l-0.2,0l0,0.3l-1,0.1v-0.7l0.1-0.6
	l0.6,0.1l0,0.2l0.6-0.5l0.3,0l0.1-0.3l-0.1-0.5l0.3-0.1l-0.1-0.5l-0.2-0.2l0.2-1.2l1.6,0.2l0,0.4l-0.9,0.1l0,2.1l0.8,0.2l0.2,0.2
	l0.3,0.1l0.6-0.1l0.1-0.2l-0.1-1.1l0.1-0.3l0.6-0.2l-1.7-2.3l0.2-1.7l-0.8-0.4l-0.2,0.1l0,0.6l0.1,0.6l0.1,0.4l-0.4-0.5l-0.1-0.4
	l-0.1-0.2l-0.5-0.1l-0.5-1l0-0.3l0.3-0.4l0.1-0.3l0.2,0.1l0.1-0.2l0.5-0.4l0.7-0.1l0-0.5l-0.5-0.5l0.3-1l0-0.2l-0.3-0.3l-0.4-0.1
	l-0.2,0.2l-0.2-0.1l-0.2,0.2l-0.3-0.1l-0.3,0.2l-0.2-0.3l-0.5,0.8l-0.3-0.6l-0.1-0.4l-0.7,0.5l-0.6-0.1l-0.1-0.3l0.2-1.1h0l0-0.7
	l0.2-0.1l0-0.4l0.4-0.1l0.6,0.2l0.3-1l0.5-0.1l0.2-0.5l0.4-0.1l0.2-0.7l1,0.2l0.1,0.7l-0.2,1.1l0,0.5l0.4,0.4l0.5,0.7l0.2,0.6
	l0.2,0.3l0.3,0.1l0.2,0.1l0.4,0l0.2-0.1l0.4-0.2l0.2-0.2l0.1-0.6h0l0.5-0.9l1.2,0.9l0.2,0.7l0,0.4l-0.3,0.4l-0.3,0.2l-0.2,0.4
	l-0.3,0l-0.2,0.4l-0.7,0.1l-0.4-0.5l-0.3-0.2l-0.2,0.2l-0.1,1.3l1.5,0.9l0,1.1l0.3,1.1l0,1.8l0,0.3l0.3,0l0-0.2l0.5-0.6l0-0.3l0-1.2
	l0.8-0.2l0.5-0.4l0.1-0.5l0.3-0.2l0.2-0.5l0.1,0l0.2,0.1l0.2,0l0.4,0.3l0.3,0.6l0.2-0.4l0.1-0.6l0.1-1l0.2-0.5l0.2-0.2l0.1-0.1
	l0.4,0.1l0.1,0.4l0,0.4l0.1,0.9l0.2,0.4l0.3,0.2l0.3,0l0.6,0v0l0.4,0l0.6,0v0.1h0v0.1h0v0.3h0v0.1h0v0.2l0,0v0h0v0l0,0v0.2h0v0.2
	l0,0v0h0v0l0,0v0.1l0,0v0l0,0v0h0v0h0v0.1l0,0v0.2l0,0v0.1h0v0.1h0v0h0v0.1h0v0.2h0v0l0,0v0.1l0,0v0.1h0v0.1h0v0.1h0v0l0,0v0h0v0
	l0,0v0.2l0,0v0h0v0.1l0,0v0.1h0v0.1l0,0v0l0,0v0.1l0,0v0.2l0,0v0h0v0.1l0,0v0l-0.1,0v0h-0.1v0l0,0v0l0,0v0h0v-0.1l0,0v-0.1l0,0v-0.1
	h0v-0.1h0v-0.4h0V569h0v0h0v0l0,0v0h0v0l0,0v0h0v0H484v0.1l0,0v0.1l0,0v0.1h0v0l0,0v0l0,0v0h0v0.1l0,0v0.1l0,0v0.1l0,0v0.3h0v0.1
	l0,0v0.1h0v0h0v-0.1h0v0h0v0.1h-0.1v0h0v0h0v0h0v0h0v0l0,0v0h-0.1v0l0,0v0h0v0h0v0h0v0l0,0v0.1h0v0.2h0v0.2l0,0v0.1l0,0v0h0v-0.1h0
	v0l0,0v-0.1h0v-0.1h0V570l0,0v-0.1h0v0h0v0l0,0v0h0v0h0.2v0l0,0v0l0,0v0.1h0.2v0l0.1,0v0h0.2v0l0,0v0.1h0v0h0v0.1h0v-0.1h0v0l0,0v0
	h0v0.1h0v0h0v0h-0.2v0.1l0,0v0.1l0,0v0.1h0v0.1l0,0v0.2l0,0v0.2l0,0v0.1h0v0l0,0v0.1h0v0h0v0l0,0v0h0v0h0v0.3l0,0v0h0v0.1h0v0l0,0
	v0.1h0v0.1l0,0v0.1l0,0v0.1h0v0.1l0,0v0.1h0l0,0.1l0,0v0.1l0,0v0l0,0v0.1h-0.1v0h-0.1v0h0v0l0,0v0h-0.1v0l0,0v0h0v0h0v0h0v0h0v0
	h-0.1v0l-0.1,0v0h0v0h0v0h0v0l0,0v0h0v0H483v0l-0.1,0v0h0v0l-0.2,0v0l0,0l0,0v0h-0.1v0h0v0l-0.1,0v0l-0.1,0v0h-0.1v0h-0.1v0h0v0l0,0
	v0l0,0v0h-0.1v0l0,0v0h0v0l0,0v0h0v0h0v0h-0.1v0h0v0.1h0v0h0v0l0,0v0.1l-0.1,0v0h-0.1v0h0.1v0h0v0l0.2,0v0h0.1v0l0,0v0h0v0h0v-0.1h0
	v0h0v-0.1h0v0h0v0l0,0v0h0.1v0l0,0v0h0v0h0v0h0v0h0.1v0.1l0,0v0h0v0h0.1v0h0.1v0h0.1v0l0,0v-0.1h0v0l0,0v0h0v0h0v0h0v0l0.1,0v0h0v0
	h0v0l0,0l0,0v0h0.1v0l0.1,0v0h0v0h0l0,0h0v0l0,0v0h0v0.1h0v0h0v0l0,0v0h0.1v0h0v0h0v0l0,0v0h0v0h0v0h0v0.1h0v0h0v0.1l0.1,0v0l0,0
	v0.1l0,0v0h-0.1v0l0,0v0h-0.1v0h-0.2v0h-0.1v0h-0.1v0l0,0v0L482.9,573.3L482.9,573.3L482.9,573.3z"/>
<path id="D634" class="st0" d="M679.7,57.3L679.7,57.3L679.7,57.3l0-0.2h0v0l0,0V57h0v-0.5h0v-0.1l0,0v0l0,0v-0.4l0.1,0v0h0.1v0h0.1
	v0l0,0v0h0.2v0l0.2,0v0h0.2v0h0v0l0.1,0v0h0.1v0h0.1v0l0.1,0v0l0.1,0v0h0.1v0h0.1v0l0.1,0v0l0,0v0h0.1v0h0.1v0h0.1v0l0.1,0v0h0.1v0
	l0,0v0h0l0,0l-0.7,0.5l-0.9,0.3L679.7,57.3z M682.9,54.7L682.9,54.7L682.9,54.7L682.9,54.7L682.9,54.7L682.9,54.7l-0.1,0.1l0,0v0.1
	h0V55h0v0h0v0h0v0l0,0v0.1l0,0v0h0v0l0,0v0h0v0h0v0l0,0v0h0v0h0v0h0v0l-0.1,0v0h-0.1v0h-0.2v0l0,0v0H682v0h-0.1v0h0v0h-0.4v0l-0.1,0
	v0h-0.6v0h-0.1v-0.1l0,0v0h0v0h0v0l0,0v0h0v0h0v0h0V55h0v0h-0.1v0l0,0v0l-0.1,0v0h0v0h0v0l0,0v0h0v0l0,0v0h0v0h0v0l0,0v0l0,0v0h0v0
	h-0.1v0l-0.1,0v0h-0.1v0l0,0v0h0v0h0v0l-0.1,0v0h-0.1v0h-0.1v0l-0.2,0v0h0v0l-0.1,0v0h0v0h-0.2v0l0,0v0.1l0,0v0.1h0v0.1h0v0.1l0,0
	v0.1h0V55h0v0.1h0v0.1l0,0v0.1l0,0v0h0v0h0v0.1h0v0h0v0h0v0h0v0l0,0v0l0,0v0h0.1v0h0v0l0,0v0h0.1v0l0,0v0h0v0h0l0,0.1l0,0v0h0v0h0v0
	l0,0v0.1l0,0v0l0,0V56h0v0l0,0v0h0v0h0v0l0,0v0l0,0v0h0v0h0v0l0,0v0l0,0v0.1h0v0h0v0l0,0v0.1l0,0v0.1h0l0,0h0v0.1l0,0v0.1h0v0h0v0
	l0,0v0h0v0h0v0l0,0v0l0,0V57l0,0v0.1h0v0.1h0v0.2l-0.3,0l-0.6-0.2l-1.5-1.4l-1-0.5l-1,0.2l-0.7-0.1l-1.2-0.8l-0.4-0.9l0.5-0.3
	l0.7,0.1l0.6-1l0.8-0.8l0.3-0.5l0.5-0.4l0.3,0.1l-0.2,0.6l-0.8,1.5l0.1,0.4l0.3,0.3l0.5,0.7l0.5,0.1l1.4-0.2l1.5,0l1.4-0.4l0.4-1.3
	l0.3-0.7l0.4-0.2l0.3,0.3l0.3,0.8l0.1,1.1L682.9,54.7L682.9,54.7L682.9,54.7z"/>
<text transform="matrix(1 0 0 1 444.8394 643.1768)" class="textName">Karaikal</text>
<text transform="matrix(1 0 0 1 97.0693 518.5469)" class="textName">Mahe</text>
<text transform="matrix(1 0 0 1 426.3491 529.835)" class="textName">Puducherry</text>
<text transform="matrix(1 0 0 1 647.1875 98.7437)" class="textName">Yanam</text>
</svg>
